<svg width="80" height="81" viewBox="0 0 80 81" fill="none" xmlns="http://www.w3.org/2000/svg">
<path fill-rule="evenodd" clip-rule="evenodd" d="M44.0119 55.2783L44.2078 55.1896L46.6757 56.1813L46.7908 56.465L46.8949 56.1871L49.3658 55.1957L49.5642 55.2795L49.4925 55.1305L50.5426 52.6534L50.6327 52.619L50.5533 52.591L49.5024 50.1153L49.5784 49.9451L49.3811 50.0344L46.9129 49.0451L46.7976 48.7607L46.694 49.037L44.2281 50.0278L44.0201 49.9402L44.0956 50.0976L43.0435 52.5728L42.9528 52.6074L43.0362 52.6369L44.0879 55.1082L44.0119 55.2783ZM41.906 55.0885L41.5404 54.2294C41.5404 54.2294 39.5471 53.5248 39.5471 53.4168L39.5469 51.8707C39.5469 51.7682 41.5354 51.0081 41.5354 51.0081L41.9013 50.1473C41.9013 50.1473 41.0058 48.2802 41.0836 48.2058L42.2088 47.1125C42.2841 47.039 44.246 47.8652 44.246 47.8652L45.1305 47.5098C45.1305 47.5098 45.8557 45.5745 45.9657 45.5745L47.5563 45.5746C47.664 45.5746 48.4467 47.5052 48.4467 47.5052L49.3334 47.8606C49.3334 47.8606 51.2546 46.9908 51.333 47.0664L52.4593 48.1578C52.5353 48.2313 51.6839 50.1359 51.6839 50.1359L52.0498 50.9979C52.0498 50.9979 54.0419 51.7002 54.0415 51.8072V53.3521C54.0415 53.4563 52.0519 54.2174 52.0519 54.2174L51.6869 55.0784C51.6869 55.0784 52.5846 56.9443 52.5066 57.0202L51.3797 58.1132C51.3039 58.1856 49.3462 57.3585 49.3462 57.3585L48.4584 57.7147C48.4584 57.7147 47.7336 59.6499 47.6232 59.6499H46.0328C45.9244 59.6499 45.1417 57.7203 45.1417 57.7203L44.2546 57.3638C44.2546 57.3638 42.3324 58.2341 42.2561 58.1596L41.1291 57.0655C41.0551 56.9921 41.906 55.0885 41.906 55.0885ZM43.6532 56.7285L43.8661 56.5059L44.2546 57.3638" fill="#00ADFF"/>
<path fill-rule="evenodd" clip-rule="evenodd" d="M38.5405 13L51.2232 25.2657V37.4152C50.5041 37.2153 49.7647 37.0639 49.0088 36.965V26.3716H39.7484C38.4698 26.3716 37.4333 25.3363 37.4333 24.0592V15.2118H19.2144V58.6445H30.7899V60.8564H18.2079C17.5408 60.8564 17 60.3162 17 59.6499V14.2065C17 13.5402 17.5408 13 18.2079 13H38.5405ZM46.8962 24.1598L39.6477 17.1496V24.0592C39.6477 24.1148 39.6928 24.1598 39.7484 24.1598H46.8962Z" fill="#00ADFF"/>
<path d="M31.5274 48.088C31.302 48.8049 31.1254 49.5435 31.0017 50.2998H23.4422C22.8307 50.2998 22.335 49.8047 22.335 49.1939C22.335 48.5831 22.8307 48.088 23.4422 48.088H31.5274Z" fill="#00ADFF"/>
<path d="M36.7166 40.447C35.9033 41.1103 35.1562 41.8514 34.4865 42.6589H23.4422C22.8307 42.6589 22.335 42.1637 22.335 41.553C22.335 40.9422 22.8307 40.447 23.4422 40.447H36.7166Z" fill="#00ADFF"/>
<path d="M23.4422 26.7738C22.8307 26.7738 22.335 27.2689 22.335 27.8797C22.335 28.4905 22.8307 28.9856 23.4422 28.9856H34.1118C34.7233 28.9856 35.219 28.4905 35.219 27.8797C35.219 27.2689 34.7233 26.7738 34.1118 26.7738H23.4422Z" fill="#00ADFF"/>
<path d="M23.4422 33.6872C22.8307 33.6872 22.335 34.1824 22.335 34.7932C22.335 35.4039 22.8307 35.8991 23.4422 35.8991H45.184C45.7955 35.8991 46.2912 35.4039 46.2912 34.7932C46.2912 34.1824 45.7955 33.6872 45.184 33.6872H23.4422Z" fill="#00ADFF"/>
<path fill-rule="evenodd" clip-rule="evenodd" d="M46.8951 66.7882C54.5666 66.7882 60.7857 60.5764 60.7857 52.9138C60.7857 45.2512 54.5666 39.0395 46.8951 39.0395C39.2235 39.0395 33.0045 45.2512 33.0045 52.9138C33.0045 60.5764 39.2235 66.7882 46.8951 66.7882ZM46.8951 69C55.7896 69 63.0001 61.798 63.0001 52.9138C63.0001 44.0297 55.7896 36.8276 46.8951 36.8276C38.0005 36.8276 30.79 44.0297 30.79 52.9138C30.79 61.798 38.0005 69 46.8951 69Z" fill="#00ADFF"/>
</svg>
