<svg width="80" height="81" viewBox="0 0 80 81" fill="none" xmlns="http://www.w3.org/2000/svg">
<path fill-rule="evenodd" clip-rule="evenodd" d="M51.684 50.1359L52.0499 50.9979C52.0499 50.9979 54.042 51.7002 54.0416 51.8072V53.3521C54.0416 53.4563 52.052 54.2174 52.052 54.2174L51.687 55.0784C51.687 55.0784 52.5847 56.9443 52.5067 57.0202L51.3798 58.1132C51.304 58.1856 49.3463 57.3585 49.3463 57.3585L48.4585 57.7147C48.4585 57.7147 47.7337 59.6499 47.6233 59.6499H46.0329C45.9245 59.6499 45.1418 57.7203 45.1418 57.7203L44.2547 57.3638C44.2547 57.3638 42.3325 58.2341 42.2562 58.1596L41.1292 57.0655C41.0552 56.9921 41.9061 55.0885 41.9061 55.0885L41.5405 54.2294C41.5405 54.2294 39.5472 53.5248 39.5472 53.4168L39.547 51.8707C39.547 51.7682 41.5355 51.0081 41.5355 51.0081L41.9014 50.1473C41.9014 50.1473 41.0059 48.2802 41.0837 48.2058L42.2089 47.1125C42.2842 47.039 44.2461 47.8652 44.2461 47.8652L45.1306 47.5098C45.1306 47.5098 45.8558 45.5745 45.9658 45.5745L47.5564 45.5746C47.6641 45.5746 48.4468 47.5052 48.4468 47.5052L49.3335 47.8606C49.3335 47.8606 51.2547 46.9908 51.3331 47.0664L52.4594 48.1578C52.5354 48.2313 51.684 50.1359 51.684 50.1359ZM43.8006 56.5745L43.7984 56.5724C43.7992 56.5731 43.7999 56.5738 43.8006 56.5745ZM49.1184 52.611C49.1183 51.3681 48.0762 50.3578 46.7946 50.3572C45.5145 50.3572 44.4706 51.3681 44.4706 52.611C44.4706 53.8543 45.5145 54.8674 46.7946 54.8674C48.0755 54.8674 49.1184 53.8543 49.1184 52.611Z" fill="#00ADFF"/>
<path fill-rule="evenodd" clip-rule="evenodd" d="M38.5405 13L51.2232 25.2657V37.4152C50.5041 37.2153 49.7647 37.0639 49.0088 36.965V26.3716H39.7484C38.4698 26.3716 37.4333 25.3363 37.4333 24.0592V15.2118H19.2144V58.6445H30.7899V60.8564H18.2079C17.5408 60.8564 17 60.3162 17 59.6499V14.2065C17 13.5402 17.5408 13 18.2079 13H38.5405ZM46.8962 24.1598L39.6477 17.1496V24.0592C39.6477 24.1148 39.6928 24.1598 39.7484 24.1598H46.8962Z" fill="#00ADFF"/>
<path d="M31.5272 48.088C31.3018 48.8049 31.1252 49.5435 31.0015 50.2998H23.442C22.8305 50.2998 22.3348 49.8047 22.3348 49.1939C22.3348 48.5831 22.8305 48.088 23.442 48.088H31.5272Z" fill="#00ADFF"/>
<path d="M36.7164 40.447C35.9031 41.1103 35.156 41.8514 34.4863 42.6589H23.442C22.8305 42.6589 22.3348 42.1637 22.3348 41.553C22.3348 40.9422 22.8305 40.447 23.442 40.447H36.7164Z" fill="#00ADFF"/>
<path d="M23.442 26.7738C22.8305 26.7738 22.3348 27.2689 22.3348 27.8797C22.3348 28.4905 22.8305 28.9856 23.442 28.9856H34.1116C34.7231 28.9856 35.2188 28.4905 35.2188 27.8797C35.2188 27.2689 34.7231 26.7738 34.1116 26.7738H23.442Z" fill="#00ADFF"/>
<path d="M23.442 33.6872C22.8305 33.6872 22.3348 34.1824 22.3348 34.7932C22.3348 35.4039 22.8305 35.8991 23.442 35.8991H45.1838C45.7953 35.8991 46.291 35.4039 46.291 34.7932C46.291 34.1824 45.7953 33.6872 45.1838 33.6872H23.442Z" fill="#00ADFF"/>
<path fill-rule="evenodd" clip-rule="evenodd" d="M46.895 66.7882C54.5665 66.7882 60.7856 60.5764 60.7856 52.9138C60.7856 45.2512 54.5665 39.0395 46.895 39.0395C39.2234 39.0395 33.0044 45.2512 33.0044 52.9138C33.0044 60.5764 39.2234 66.7882 46.895 66.7882ZM46.895 69C55.7895 69 63 61.798 63 52.9138C63 44.0297 55.7895 36.8276 46.895 36.8276C38.0004 36.8276 30.7899 44.0297 30.7899 52.9138C30.7899 61.798 38.0004 69 46.895 69Z" fill="#00ADFF"/>
</svg>
