<svg width="80" height="81" viewBox="0 0 80 81" fill="none" xmlns="http://www.w3.org/2000/svg">
<path d="M39.1557 18.5919C45.0549 12.6927 54.6763 12.6927 60.5755 18.5919C66.4748 24.4911 66.4748 34.1125 60.5755 40.0117C56.6778 43.9094 51.0595 45.2438 45.8275 43.769L42.9129 46.6484C42.4916 47.0697 41.9297 47.2804 41.3328 47.2804H39.8931V48.7552C39.8931 49.3873 39.6122 49.9842 39.1557 50.4056C38.6992 50.827 38.0672 51.0377 37.4351 50.9323L36.4168 50.827L36.2412 52.6178C36.1359 53.6713 35.2931 54.514 34.2397 54.6193L32.4489 54.7949L32.5542 55.8132C32.6244 56.4804 32.4137 57.1476 31.9221 57.6392L30.0962 59.4651C29.6748 59.8865 29.113 60.0972 28.516 60.0972H21.2122C19.9832 60.0972 19 59.114 19 57.885V50.5812C19 49.9842 19.2458 49.4224 19.6321 49.0361L30.974 37.4133L32.2733 38.7125L20.9313 50.3705C20.8611 50.4407 20.8259 50.5461 20.8259 50.6514V57.9552C20.8259 58.1659 21.0015 58.3415 21.2122 58.3415H28.516C28.6214 58.3415 28.7267 58.3064 28.7618 58.2361L30.5878 56.4102C30.658 56.34 30.6931 56.1995 30.6931 56.0942L30.342 53.1797L33.9939 52.8285C34.1694 52.8285 34.3099 52.6881 34.345 52.4774L34.6962 48.8255L37.6107 49.1766C37.6809 49.1766 37.7863 49.1766 37.8916 49.0713C37.9618 49.001 38.032 48.8957 38.032 48.7904V45.4545H41.3328C41.4381 45.4545 41.5435 45.4194 41.6137 45.3491L45.3359 41.6972L45.8626 41.8728C50.603 43.4178 55.7297 42.2591 59.2763 38.7125C64.4732 33.5156 64.4732 25.0881 59.2763 19.8911C54.0793 14.6942 45.6519 14.6942 40.4549 19.8911C36.9084 23.4377 35.6794 28.6698 37.2244 33.4102L35.4687 33.972C33.713 28.5644 35.1176 22.6301 39.1557 18.5919Z" fill="#00ADFF"/>
<path d="M51.1995 22.4546C48.1445 22.4546 45.6865 24.9126 45.6865 27.9676C45.6865 31.0225 48.1796 33.4805 51.1995 33.4805C54.2544 33.4805 56.7125 31.0225 56.7125 27.9676C56.7125 24.9126 54.2544 22.4546 51.1995 22.4546ZM51.1995 31.6546C49.198 31.6546 47.5476 30.0042 47.5125 27.9676C47.5125 25.9309 49.1628 24.2805 51.1995 24.2805C53.2361 24.2805 54.8865 25.9309 54.8865 27.9676C54.8865 30.0042 53.2361 31.6546 51.1995 31.6546Z" fill="#00ADFF"/>
</svg>
