<svg width="80" height="80" viewBox="0 0 80 80" fill="none" xmlns="http://www.w3.org/2000/svg">
<path fill-rule="evenodd" clip-rule="evenodd" d="M59.8939 28.1349C59.8333 26.6387 58.6173 25.3593 57.1265 25.2221C57.0741 25.2172 55.8238 25.1008 54.5797 24.9292C52.5362 24.6485 50.6192 24.2796 48.8825 23.8325C47.1522 23.388 45.5794 22.8614 44.2059 22.267C42.7824 21.6508 41.2911 20.5745 41.2751 20.5624C40.7753 20.2002 40.1256 20 39.4468 20C38.7676 20 38.1184 20.2002 37.6161 20.5648C37.6021 20.5755 36.1146 21.6499 34.6893 22.2675C33.3182 22.8614 31.7449 23.388 30.0117 23.833C28.275 24.2796 26.358 24.649 24.3145 24.9297C23.159 25.0891 21.9988 25.2003 21.7969 25.2197L21.7677 25.2225C20.2769 25.3597 19.0609 26.6334 19.0013 28.115C18.9964 28.196 18.9964 28.196 19.1724 30.8736L19.1724 30.8737C19.3779 34.0053 19.8966 38.2057 21.1354 42.6042L23.3604 41.8133C22.2038 37.6542 21.7171 33.6871 21.5219 30.718C21.4031 28.9121 21.3667 28.3579 21.3566 28.1872C21.3939 27.891 21.6916 27.5933 21.9951 27.5657C22.317 27.5352 23.4597 27.4236 24.635 27.2627C26.7672 26.9694 28.7739 26.583 30.5983 26.1136L30.639 26.103C32.4736 25.6293 34.1506 25.0659 35.625 24.4274C37.3151 23.6953 38.9863 22.4799 39.0023 22.4682C39.204 22.3213 39.6907 22.3218 39.8905 22.4678L39.8927 22.4694C39.9631 22.5202 41.6064 23.7076 43.2726 24.4294C44.7571 25.0718 46.4468 25.6385 48.2954 26.1136C50.1198 26.5825 52.126 26.9694 54.2592 27.2627C55.434 27.4241 56.5767 27.5356 56.9103 27.5667C57.2041 27.5938 57.4964 27.8876 57.5381 28.1921L57.3723 30.719C57.0901 35.0204 56.1951 41.4152 53.5393 47.4542C51.4133 52.2874 48.5024 56.0695 44.889 58.6944C43.2479 59.8846 40.5891 61.0618 40.4771 61.1103C39.9879 61.3236 38.9053 61.3236 38.4171 61.1103L38.4098 61.107C38.2202 61.0227 35.621 59.8665 34.0047 58.6944C31.0244 56.5283 28.5223 53.5762 26.552 49.9167L24.3112 50.7133C26.4816 54.846 29.2695 58.165 32.621 60.5988C34.441 61.9204 37.1672 63.1339 37.4726 63.2678C38.0142 63.5034 38.7152 63.6343 39.4468 63.6343C40.1785 63.6343 40.8795 63.5034 41.4211 63.2668C41.726 63.133 44.4522 61.9194 46.2717 60.5983C50.2274 57.7252 53.3977 53.6212 55.6953 48.4006C58.4888 42.0479 59.427 35.3627 59.7227 30.8732L59.723 30.8692C59.8978 28.194 59.8978 28.194 59.8939 28.1349ZM48.6737 34.0975C48.185 33.7043 47.4098 33.7896 47.0185 34.2769L38.376 45.0182L33.059 40.232C32.5935 39.8141 31.8139 39.8553 31.3965 40.3193C31.1861 40.553 31.0794 40.855 31.0959 41.1692C31.1129 41.4833 31.2506 41.7723 31.4847 41.9822L37.3773 47.2867C37.6759 47.5563 38.0614 47.7041 38.4628 47.7041C38.505 47.7041 38.5462 47.7022 38.5918 47.6988C39.0325 47.6624 39.4451 47.4438 39.7234 47.0971L48.8531 35.7532C49.0495 35.5079 49.1406 35.201 49.1062 34.8883C49.0727 34.5756 48.9186 34.2944 48.6737 34.0975Z" fill="#00ADFF"/>
</svg>
