<svg width="80" height="81" viewBox="0 0 80 81" fill="none" xmlns="http://www.w3.org/2000/svg">
<path fill-rule="evenodd" clip-rule="evenodd" d="M61.999 24.8952C61.9338 23.2836 60.6255 21.9055 59.0215 21.7577C58.9651 21.7524 57.6198 21.6271 56.2813 21.4422C54.0826 21.1399 52.02 20.7425 50.1515 20.261C48.2898 19.7821 46.5976 19.215 45.1198 18.5747C43.5883 17.911 41.9837 16.7516 41.9665 16.7386C41.4287 16.3485 40.7297 16.1328 39.9994 16.1328C39.2686 16.1328 38.5701 16.3485 38.0297 16.7412C38.0146 16.7527 36.4142 17.9099 34.8806 18.5752C33.4054 19.215 31.7127 19.7821 29.8478 20.2615C27.9793 20.7425 25.9167 21.1404 23.718 21.4428C22.4748 21.6144 21.2266 21.7343 21.0093 21.7552C20.9925 21.7568 20.9819 21.7578 20.9779 21.7582C19.3738 21.906 18.0655 23.2779 18.0014 24.8738L18.0009 24.8813C17.9963 24.9635 18.0018 25.0462 18.1855 27.8452C18.4325 31.6137 19.1001 36.8189 20.7988 42.1534L23.1696 41.2435C21.5768 36.1864 20.9485 31.2581 20.7134 27.6776C20.5856 25.7323 20.5465 25.1354 20.5355 24.9516C20.5757 24.6325 20.896 24.3119 21.2225 24.2821C21.5689 24.2492 22.7984 24.1291 24.0628 23.9557C26.357 23.6398 28.516 23.2235 30.479 22.718L30.5228 22.7065C32.4967 22.1963 34.301 21.5895 35.8873 20.9017C37.7057 20.1132 39.5038 18.804 39.5211 18.7914C39.7381 18.6332 40.2618 18.6337 40.4767 18.7909L40.479 18.7926C40.5543 18.847 42.3226 20.1262 44.1157 20.9038C45.7129 21.5958 47.5308 22.2063 49.5198 22.718C51.4827 23.223 53.6413 23.6398 55.9365 23.9557C57.2004 24.1296 58.4299 24.2497 58.7888 24.2831C59.1049 24.3124 59.4195 24.6288 59.4644 24.9568L59.2859 27.6786C58.9824 32.3118 58.0194 39.1999 55.1619 45.7047C52.8745 50.9107 49.7426 54.9846 45.8548 57.8119C44.0891 59.0939 41.2284 60.3619 41.1079 60.4141C40.5815 60.6439 39.4167 60.6439 38.8914 60.4141L38.8835 60.4106L38.8835 60.4106C38.6787 60.3194 35.8827 59.0742 34.144 57.8119C31.2659 55.7177 28.8023 52.9415 26.7949 49.5445L24.4 50.4636C26.6268 54.3393 29.3929 57.4914 32.6553 59.8632C34.6135 61.2868 37.5467 62.5939 37.8753 62.738C38.458 62.9918 39.2122 63.1328 39.9994 63.1328C40.7866 63.1328 41.5408 62.9918 42.1235 62.737C42.4516 62.5928 45.3848 61.2857 47.3425 59.8627C51.5986 56.768 55.0096 52.3474 57.4816 46.7241C60.4873 39.8814 61.4966 32.6805 61.8149 27.8447C61.9991 25.0217 62.0031 24.9603 61.9993 24.8993L61.999 24.8952ZM49.9758 30.9258C49.45 30.5023 48.6159 30.5942 48.1949 31.119L38.8962 42.6889L33.1754 37.5335C32.6746 37.0833 31.8358 37.1277 31.3867 37.6275C31.1603 37.8792 31.0456 38.2045 31.0633 38.5429C31.0815 38.8813 31.2297 39.1926 31.4816 39.4187L37.8216 45.1323C38.143 45.4227 38.5577 45.582 38.9896 45.582C39.0269 45.582 39.0636 45.5806 39.1027 45.578C39.1111 45.5775 39.1197 45.5769 39.1283 45.5762C39.6025 45.5371 40.0464 45.3015 40.3459 44.9282L50.1688 32.7092C50.3801 32.445 50.4782 32.1144 50.4411 31.7776C50.4051 31.4407 50.2393 31.1378 49.9758 30.9258Z" fill="#00ADFF"/>
</svg>
