<svg width="80" height="81" viewBox="0 0 80 81" fill="none" xmlns="http://www.w3.org/2000/svg">
<path fill-rule="evenodd" clip-rule="evenodd" d="M49.1827 18.6477C50.0545 17.7841 51.468 17.7841 52.3398 18.6477L75.3461 41.4364C76.218 42.2999 76.218 43.7001 75.3461 44.5636L52.3398 67.3523C51.468 68.2159 50.0545 68.2159 49.1827 67.3523L36.0766 54.3702C36.0387 54.3327 35.9772 54.3327 35.9393 54.3702L25.2889 64.8779L23.7789 63.3823L34.4294 52.8746C35.3012 52.011 36.7147 52.011 37.5865 52.8746L50.6926 65.8567C50.7305 65.8942 50.792 65.8942 50.8299 65.8567L73.8362 43.068C73.8741 43.0304 73.8741 42.9696 73.8362 42.932L50.8299 20.1433C50.792 20.1058 50.7305 20.1058 50.6926 20.1433L28.851 41.7783C28.8251 41.804 28.8224 41.819 28.8213 41.8254C28.8192 41.8375 28.8197 41.8584 28.83 41.8831C28.8403 41.9078 28.8549 41.9229 28.8651 41.93C28.8703 41.9337 28.883 41.9424 28.9197 41.9424H51.6778L46.7059 37.0175C46.2889 36.6045 46.2889 35.9348 46.7059 35.5218C47.1228 35.1088 47.7988 35.1088 48.2158 35.5218L55.0104 42.2522C55.4273 42.6652 55.4273 43.3348 55.0104 43.7478L48.2158 50.4782C47.7988 50.8912 47.1228 50.8912 46.7059 50.4782C46.2889 50.0652 46.2889 49.3955 46.7059 48.9825L51.6778 44.0576H28.9197C26.9308 44.0576 25.9348 41.6757 27.3411 40.2827L49.1827 18.6477Z" fill="#00ADFF"/>
<path fill-rule="evenodd" clip-rule="evenodd" d="M31.7164 52.2084L22.2044 61.6304L20.6945 60.1348L30.2065 50.7128L31.7164 52.2084Z" fill="#00ADFF"/>
<path fill-rule="evenodd" clip-rule="evenodd" d="M28.4164 48.555L18.7102 58.1693L17.2003 56.6736L26.9064 47.0593L28.4164 48.555Z" fill="#00ADFF"/>
<path fill-rule="evenodd" clip-rule="evenodd" d="M25.3104 45.4784L15.6043 55.0927L14.0944 53.597L23.8005 43.9827L25.3104 45.4784Z" fill="#00ADFF"/>
<path fill-rule="evenodd" clip-rule="evenodd" d="M28.0281 23.3655L5.50992 45.6707L4 44.175L26.5182 21.8699L28.0281 23.3655ZM31.3282 26.4421L8.61588 48.9395L7.10596 47.4439L29.8183 24.9464L31.3282 26.4421ZM34.4341 29.9032L12.1101 52.0161L10.6002 50.5205L32.9242 28.4076L34.4341 29.9032Z" fill="#00ADFF"/>
</svg>
