<svg width="80" height="81" viewBox="0 0 80 81" fill="none" xmlns="http://www.w3.org/2000/svg">
<path fill-rule="evenodd" clip-rule="evenodd" d="M16.0244 39.6713C16.0244 26.6874 26.5359 16.1599 39.5 16.1599C45.4954 16.1599 50.9847 18.4213 55.1115 22.1644H51.7244V24.192H58.7321V16.9007H56.7076V20.7997C52.1527 16.6667 46.1183 14.1323 39.5 14.1323C25.4069 14.1323 14 25.5566 14 39.6713H16.0244ZM39.5 65.1323C53.5931 65.1323 65 53.708 65 39.5933L63.0145 39.5544C63.0145 52.5383 52.5031 63.0658 39.5389 63.0658C33.5046 63.0658 28.0542 60.8044 23.8885 57.1002H27.2756V55.0727H20.2679V62.364H22.2924V58.4649C26.8473 62.5979 32.8817 65.1323 39.5 65.1323ZM44.3036 25.1392C46.8934 25.5024 48.9907 26.8816 49.9015 27.677C50.9222 28.5684 52.1262 30.6096 52.5639 32.9298C53.013 35.3111 52.6844 38.1663 50.3561 40.4899C47.1885 43.6511 43.4141 43.692 41.3358 43.1807L40.1032 44.7513L39.7817 45.161H39.2614H38.1638L37.9761 46.1546L37.8113 47.0276H36.9242H36.0177L35.8514 48.011L35.7209 48.7822L34.9478 48.8932L34.0351 49.0244L33.9645 49.684L33.9242 50.0615L33.6557 50.3294L33.0582 50.9257C32.2737 51.7086 31.2115 52.1481 30.1041 52.1481H26.75C25.9437 52.1481 25.2901 51.4935 25.2901 50.686V47.0392C25.2901 46.2607 25.5901 45.5121 26.1277 44.9497L31.8248 38.9889L33.3716 40.4718L27.6745 46.4326C27.5184 46.5959 27.4313 46.8132 27.4313 47.0392V50.0036H30.1041C30.6449 50.0036 31.1637 49.789 31.5468 49.4066L31.8758 49.0782L31.9946 47.9672L32.0833 47.1384L32.9071 47.02L33.8707 46.8816L34.0577 45.7762L34.2088 44.8831H35.1133H36.0371L36.2248 43.8895L36.3896 43.0165H37.2767H38.7412L39.7497 41.7314C40.2633 41.077 41.0876 40.8991 41.769 41.0783C43.2942 41.4796 46.2945 41.5159 48.8447 38.9708C50.5406 37.2783 50.8156 35.2138 50.4598 33.3279C50.0926 31.381 49.0833 29.8077 48.4944 29.2934C47.7956 28.6832 46.0699 27.5523 44.0067 27.2629C42.0362 26.9866 39.6777 27.4579 37.4652 30.1509C36.9226 30.8835 36.6198 31.9826 36.5033 33.1778C36.3881 34.36 36.4685 35.4928 36.5729 36.1476L34.4585 36.4857C34.3281 35.668 34.2376 34.3509 34.3722 32.9695C34.5047 31.6103 34.8688 30.0396 35.767 28.8445L35.7803 28.8267L35.7943 28.8096C38.5072 25.4944 41.6255 24.7635 44.3036 25.1392ZM43.2958 35.2846C43.9408 35.2846 44.4637 34.7609 44.4637 34.1149C44.4637 33.4689 43.9408 32.9452 43.2958 32.9452C42.6508 32.9452 42.1279 33.4689 42.1279 34.1149C42.1279 34.7609 42.6508 35.2846 43.2958 35.2846ZM43.2958 37.4291C45.1234 37.4291 46.605 35.9453 46.605 34.1149C46.605 32.2845 45.1234 30.8007 43.2958 30.8007C41.4682 30.8007 39.9866 32.2845 39.9866 34.1149C39.9866 35.9453 41.4682 37.4291 43.2958 37.4291Z" fill="#00ADFF"/>
</svg>
