<svg width="80" height="81" viewBox="0 0 80 81" fill="none" xmlns="http://www.w3.org/2000/svg">
<path fill-rule="evenodd" clip-rule="evenodd" d="M32.0809 18.4272C32.9338 14.7416 36.2211 12.1328 40.0027 12.1328H57.7983C64.2012 12.1328 69.3889 17.3234 69.3889 23.7258V30.0135C69.3889 36.4161 64.1986 41.6065 57.796 41.6065H47.4781V39.6416H57.796C63.1134 39.6416 67.424 35.3309 67.424 30.0135V23.7258C67.424 18.4081 63.1154 14.0977 57.7983 14.0977L40.0027 14.0977C37.1341 14.0977 34.6416 16.077 33.9952 18.8702L32.0809 18.4272ZM40.3383 22.3896C38.4913 21.0535 35.9369 20.2282 32.4393 20.2282C28.9418 20.2282 26.3874 21.0535 24.5404 22.3896C22.6933 23.7258 21.6716 25.5728 21.1214 27.3805C20.2272 30.3744 20.6023 33.5606 20.7626 34.9219L20.7677 34.9651V35.0437C19.6674 36.3012 19.5888 38.1875 19.9032 39.6023C20.0997 40.4275 20.4533 41.2528 20.9642 41.8816C21.2786 42.3139 21.7502 42.6675 22.3004 42.9033C22.8112 45.104 23.8723 46.9903 24.8155 48.3658C25.3263 49.1125 25.8372 49.7412 26.2302 50.1342C26.2951 50.1991 26.3481 50.264 26.3957 50.3224L26.3958 50.3224C26.4347 50.3701 26.47 50.4133 26.5053 50.4486V50.4879C26.4905 50.5915 26.4812 50.7064 26.4713 50.8302L26.4713 50.8303C26.4548 51.0351 26.4364 51.2648 26.3874 51.5096C26.3088 51.9026 26.2302 52.1777 26.1123 52.3742C26.073 52.4135 26.073 52.4528 26.073 52.4528C24.5011 52.7279 21.6716 53.6711 18.7242 55.0858C15.6983 56.5005 12.3579 58.4654 10 60.7447L11.4148 62.2381C13.5762 60.1946 16.6807 58.3475 19.6281 56.9721C22.5754 55.5574 25.2477 54.6928 26.5053 54.4963C27.2912 54.3784 27.7235 53.7889 27.9593 53.3567C28.1951 52.8851 28.3523 52.3742 28.4309 51.9026C28.4944 51.5218 28.5322 51.1666 28.5651 50.8577C28.573 50.7841 28.5805 50.7131 28.5881 50.6451V50.645C28.5881 50.4878 28.5881 50.3307 28.6274 50.2521V50.1342V50.0949V49.6626L28.313 49.3482L28.2737 49.3089L28.1558 49.1911C28.0772 49.1125 27.92 48.9553 27.7628 48.7588C27.4485 48.4051 26.9768 47.8549 26.5053 47.1868C25.5621 45.8114 24.5404 43.9644 24.1867 41.8816L24.0295 41.017H23.1649C23.047 41.017 22.8505 40.9777 22.5754 40.624C22.3004 40.2703 22.0646 39.7595 21.9467 39.17C21.6716 37.8732 21.9074 36.7335 22.5361 36.2619L22.9291 35.9475L22.8898 35.4367C22.8898 35.2862 22.8668 35.0896 22.8384 34.8469L22.8384 34.8469C22.8297 34.7727 22.8205 34.6942 22.8113 34.6114L22.8103 34.6021C22.6529 33.1074 22.3805 30.5192 23.1256 28.0093C23.5579 26.516 24.3832 25.1012 25.7979 24.0795C27.2127 23.0577 29.2955 22.311 32.4786 22.311C35.6618 22.311 37.7446 23.0577 39.1593 24.0795C40.5741 25.1012 41.36 26.516 41.8316 28.0093C42.5782 30.5244 42.3032 33.1574 42.146 34.6114C42.1368 34.6942 42.1276 34.7727 42.1189 34.8469L42.1189 34.847C42.0904 35.0896 42.0674 35.2862 42.0674 35.4367L42.0281 35.9475L42.4211 36.2619C43.0105 36.7728 43.2856 37.9125 43.0105 39.17C42.8533 39.7595 42.6176 40.2703 42.3818 40.624C42.1067 40.9777 41.9102 41.017 41.7923 41.017H40.9277L40.7705 41.8816C40.4169 43.9644 39.3951 45.8507 38.4519 47.1868C37.9804 47.8549 37.5481 48.4051 37.1944 48.7588C37.1158 48.857 37.0372 48.9356 36.9685 49.0044C36.8997 49.0732 36.8407 49.1321 36.8014 49.1911L36.6835 49.3089L36.6442 49.3482L36.3298 49.6626V50.0949V50.1342V50.2521C36.3298 50.37 36.3299 50.4879 36.3692 50.6451C36.3811 50.7403 36.393 50.85 36.406 50.9697C36.4359 51.2452 36.4715 51.5739 36.5263 51.9026C36.6049 52.3742 36.7621 52.8851 36.9979 53.3567C37.2337 53.7889 37.666 54.3784 38.4519 54.4963C39.7488 54.6928 42.4997 55.5967 45.5256 57.0507C48.5516 58.5047 51.6954 60.3911 53.8175 62.5132C54.2891 62.9847 54.4463 63.417 54.4856 63.7314C54.5249 64.0851 54.407 64.4388 54.1712 64.7532C53.6604 65.4605 52.56 66.0893 51.106 66.0893H13.3797V68.1328H51.106C53.0709 68.1328 54.8786 67.2682 55.8218 65.9321C56.2934 65.2247 56.5684 64.3995 56.4898 63.4956C56.4112 62.5918 55.979 61.7665 55.2323 61.0198C52.8744 58.6619 49.4948 56.6184 46.3902 55.1644C43.3643 53.7103 40.4169 52.6886 38.8056 52.4528C38.8056 52.4332 38.7958 52.4233 38.786 52.4135C38.7762 52.4037 38.7663 52.3939 38.7663 52.3742C38.6484 52.1777 38.5698 51.8633 38.4912 51.5096C38.4126 51.156 38.3734 50.763 38.3734 50.4879V50.4486C38.452 50.37 38.5698 50.2521 38.6484 50.1342C38.7277 50.0373 38.8149 49.9326 38.9086 49.8199C39.2331 49.4298 39.6363 48.9451 40.0632 48.3658C41.0063 46.9903 42.0674 45.104 42.5783 42.9033C43.1284 42.7068 43.5607 42.3139 43.9144 41.8816C44.4253 41.2528 44.7789 40.4275 44.9754 39.6023C45.2898 38.1875 45.2112 36.3012 44.1109 35.0437V34.9651L44.1143 34.936C44.2737 33.5821 44.6546 30.3458 43.7572 27.3805C43.207 25.5728 42.1853 23.7651 40.3383 22.3896ZM55.1178 32.8833C55.0269 32.9288 54.9274 32.955 54.8256 32.9601C54.7042 32.9657 54.5832 32.9411 54.4739 32.8886L50.8114 31.1307L47.2731 32.8835C47.1545 32.9427 47.0217 32.9688 46.8891 32.9588C46.7566 32.9488 46.6293 32.9032 46.5211 32.8269C46.4129 32.7505 46.328 32.6464 46.2754 32.5257C46.2229 32.4051 46.2048 32.2726 46.223 32.1425L46.7869 28.1617L44.0038 25.3767C43.9113 25.2831 43.8464 25.1664 43.816 25.0391C43.7855 24.9118 43.7908 24.7788 43.8313 24.6542C43.8717 24.5297 43.9457 24.4184 44.0454 24.3323C44.1451 24.2462 44.2666 24.1885 44.397 24.1656L48.406 23.4604L50.2217 19.9855C50.2831 19.8695 50.3754 19.7723 50.4886 19.7043C50.6018 19.6362 50.7317 19.6 50.8642 19.5995C50.9967 19.599 51.1268 19.6342 51.2406 19.7013C51.3544 19.7684 51.4474 19.8649 51.5098 19.9804L53.4238 23.5268L57.3345 24.1605C57.4657 24.1819 57.5884 24.2385 57.6894 24.324C57.7904 24.4094 57.8658 24.5206 57.9074 24.6454C57.9489 24.7702 57.9551 24.9038 57.9253 25.0318C57.8954 25.1599 57.8306 25.2773 57.738 25.3716L54.9136 28.2741L55.5085 32.1322C55.5239 32.2317 55.5181 32.3333 55.4914 32.4304C55.4646 32.5275 55.4176 32.618 55.3532 32.696C55.2889 32.774 55.2086 32.8379 55.1178 32.8833ZM51.1218 29.6794L53.8583 30.9978V30.9977L53.4186 28.1361C53.4018 28.0266 53.4108 27.9148 53.4449 27.8093C53.479 27.7038 53.5372 27.6075 53.6152 27.5279L55.7309 25.3613L52.834 24.8911C52.7238 24.8727 52.6194 24.8295 52.5288 24.7648C52.4382 24.7001 52.3639 24.6157 52.3116 24.5181L50.8787 21.8659L49.5337 24.4363C49.4826 24.5343 49.4093 24.6193 49.3196 24.6849C49.2299 24.7505 49.1262 24.7948 49.0164 24.8145L46.0161 25.3408L48.0749 27.4002C48.153 27.4788 48.2118 27.574 48.2468 27.6785C48.2818 27.7831 48.292 27.8941 48.2767 28.0032L47.8577 30.9875L50.4752 29.6844C50.5753 29.6345 50.6857 29.608 50.7979 29.6071C50.9101 29.6063 51.0209 29.631 51.1218 29.6794Z" fill="#00ADFF"/>
</svg>
