<svg width="80" height="81" viewBox="0 0 80 81" fill="none" xmlns="http://www.w3.org/2000/svg">
<path fill-rule="evenodd" clip-rule="evenodd" d="M20.8349 19.1323H60.1651C61.7081 19.1323 63 20.3618 63 21.9075V49.5187C63 51.0293 61.744 52.2939 60.1651 52.2939H42.0431V50.4321H60.1292C60.6316 50.4321 61.0622 50.0106 61.0622 49.5187V29.2846H19.866V49.5539C19.866 50.0457 20.2966 50.4321 20.799 50.4321H30.8797V46.8963C30.8797 46.382 31.0043 45.7443 31.4846 45.2316C31.9788 44.7042 32.7063 44.4602 33.5853 44.4602C34.4648 44.4602 35.1948 44.7038 35.6998 45.2143C36.197 45.717 36.3519 46.3534 36.3519 46.8963V53.4671L36.9007 53.6141C37.3129 53.7244 37.8801 53.8763 38.4999 54.0424C39.7393 54.3745 41.1901 54.7637 42.0334 54.991L42.0824 55.0042L42.1296 55.0228C42.7332 55.2601 43.299 55.9917 43.299 57.0995L43.2991 62.4752C43.299 62.9166 43.1111 63.3639 42.7164 63.6856C42.3318 63.999 41.8291 64.1323 41.2897 64.1323H32.1855C31.8929 64.1323 31.5965 64.0918 31.302 63.9339C31.073 63.8112 30.8886 63.6342 30.769 63.5195L30.742 63.4935C30.6512 63.4069 30.3067 63.0787 29.8357 62.63L29.8237 62.6185L29.8143 62.6095L29.7956 62.5918L28.8769 61.7164C27.9533 60.8364 26.9021 59.8346 26.2468 59.2093L26.1983 59.1631L26.1574 59.1102C26.1398 59.0874 26.1135 59.0572 26.054 58.9893C26.0021 58.9301 25.9314 58.8492 25.8599 58.758C25.7178 58.5767 25.5402 58.3154 25.4385 57.9801C25.2045 57.2084 25.4645 56.4079 26.2273 55.6339C26.8858 54.9657 27.6561 54.7589 28.3758 54.8613C29.0374 54.9554 29.5742 55.2966 29.9081 55.5763C30.1488 55.7779 30.5158 56.1236 30.8797 56.4747V52.2939H20.8349C19.2919 52.2939 18 51.0995 18 49.5539V21.9075C18 20.397 19.256 19.1323 20.8349 19.1323ZM19.866 21.9075V27.4579H61.0622V21.9075C61.0622 21.4157 60.6316 20.9941 60.1292 20.9941H20.799C20.2966 20.9941 19.866 21.4157 19.866 21.9075ZM27.2225 23.8045C26.7201 23.8045 26.2895 24.226 26.2895 24.7178C26.2895 25.2096 26.7201 25.6312 27.2225 25.6312C27.7249 25.6312 28.1555 25.2096 28.1555 24.7178C28.1555 24.1909 27.7249 23.8045 27.2225 23.8045ZM30.0574 24.7178C30.0574 24.226 30.488 23.8045 30.9904 23.8045C31.4928 23.8045 31.9234 24.1909 31.9234 24.7178C31.9234 25.2096 31.4928 25.6312 30.9904 25.6312C30.488 25.6312 30.0574 25.2096 30.0574 24.7178ZM34.7225 23.8045C34.2201 23.8045 33.7895 24.226 33.7895 24.7178C33.7895 25.2096 34.2201 25.6312 34.7225 25.6312C35.2249 25.6312 35.6555 25.2096 35.6555 24.7178C35.6555 24.1909 35.2608 23.8045 34.7225 23.8045ZM37.5574 24.7178C37.5574 24.226 37.988 23.8045 38.4904 23.8045C38.9928 23.8045 39.4234 24.1909 39.4234 24.7178C39.4234 25.2096 38.9928 25.6312 38.4904 25.6312C37.988 25.6312 37.5574 25.2096 37.5574 24.7178ZM57.2943 23.8045C56.7919 23.8045 56.3612 24.226 56.3612 24.7178C56.3612 25.2096 56.7919 25.6312 57.2943 25.6312C57.7967 25.6312 58.2273 25.2096 58.2273 24.7178C58.2273 24.1909 57.8684 23.8045 57.2943 23.8045ZM32.6739 46.8963C32.6739 46.6316 32.7399 46.4904 32.8069 46.4189C32.8601 46.3621 33.0369 46.2166 33.5853 46.2166C34.1332 46.2166 34.3379 46.3625 34.4108 46.4362C34.4915 46.5177 34.5576 46.6602 34.5576 46.8963V53.5173C34.5576 54.1121 34.8456 54.5273 35.1268 54.7734C35.2613 54.8911 35.3934 54.9708 35.4929 55.022C35.5435 55.0481 35.5882 55.068 35.6239 55.0827C35.6418 55.09 35.6577 55.0962 35.6713 55.1012C35.678 55.1037 35.6843 55.106 35.6899 55.1079L35.6978 55.1107L35.7015 55.1119L35.7032 55.1125L35.704 55.1128C35.7044 55.1129 35.7049 55.1131 35.9947 54.2819L35.7049 55.1131L35.7312 55.1219L35.7583 55.1291L36.4273 55.3083C36.8395 55.4186 37.4065 55.5705 38.0262 55.7365C39.1941 56.0495 40.5484 56.4127 41.4052 56.6435L41.4081 56.6482C41.4411 56.7012 41.5048 56.836 41.5048 57.0995L41.5048 62.3554C41.46 62.3659 41.3909 62.3759 41.2897 62.3759H32.1855C32.1688 62.3759 32.1551 62.3756 32.1442 62.3751C32.1105 62.3461 32.0688 62.3068 31.9944 62.2357C31.9021 62.1477 31.55 61.8123 31.0703 61.3552L31.0601 61.3455L31.0443 61.3304L30.1284 60.4578C29.2244 59.5965 28.1988 58.6191 27.5417 57.9922C27.5011 57.9428 27.4599 57.8958 27.428 57.8595L27.4279 57.8594L27.4278 57.8594L27.4158 57.8456C27.3636 57.7861 27.3218 57.7378 27.2832 57.6886C27.2051 57.589 27.1719 57.5241 27.1586 57.4801C27.1502 57.4524 27.1434 57.4178 27.1664 57.3479C27.1942 57.2639 27.2767 57.0988 27.5186 56.8534C27.7774 56.5908 27.9716 56.5786 28.1178 56.5994C28.322 56.6285 28.5526 56.7526 28.7417 56.9109C29.096 57.2077 29.7587 57.8581 30.2569 58.347C30.4542 58.5406 30.6256 58.7089 30.742 58.8199C30.8823 58.9537 31.0772 59.0952 31.3322 59.1593C31.6138 59.2301 31.8876 59.1857 32.1102 59.0674C32.309 58.9618 32.429 58.8185 32.4908 58.7313C32.5245 58.6839 32.5497 58.6407 32.5677 58.6066C32.5769 58.5892 32.5847 58.5733 32.5913 58.5594L32.5956 58.5499L32.6002 58.5397L32.604 58.5309L32.6058 58.5268L32.6066 58.5247L32.607 58.5238C32.6073 58.5233 32.6075 58.5228 31.7768 58.191L32.6075 58.5228L32.6739 58.3633V58.1909V46.8963ZM32.6739 58.1909L31.7768 58.191C32.6739 58.191 32.6739 58.1909 32.6739 58.1909ZM35.7583 55.1291L35.9947 54.2819C35.7581 55.1291 35.7582 55.1291 35.7583 55.1291ZM23.2033 34.4485C23.2033 33.1874 24.2477 32.1651 25.5359 32.1651H31.9952C33.2834 32.1651 34.3278 33.1874 34.3278 34.4485V39.0152C34.3278 40.2763 33.2834 41.2986 31.9952 41.2986H25.5359C24.2477 41.2986 23.2033 40.2763 23.2033 39.0152V34.4485ZM25.5359 33.9215C25.2386 33.9215 24.9976 34.1575 24.9976 34.4485V39.0152C24.9976 39.3062 25.2386 39.5422 25.5359 39.5422H31.9952C32.2925 39.5422 32.5335 39.3062 32.5335 39.0152V34.4485C32.5335 34.1575 32.2925 33.9215 31.9952 33.9215H25.5359ZM42.0431 38.137H54.9617V36.3806H42.0431V38.137ZM42.0431 46.5679H54.9617V44.8115H42.0431V46.5679ZM54.9617 42.3525H42.0431V40.596H54.9617V42.3525Z" fill="#00ADFF"/>
</svg>
