<svg width="80" height="81" viewBox="0 0 80 81" fill="none" xmlns="http://www.w3.org/2000/svg">
<path d="M36.8189 30.2645C36.8189 27.371 39.1594 25 42.0157 25H62.8032C65.6594 25 68 27.371 68 30.2645V62.2533C68 65.1467 65.6594 67.5178 62.8032 67.5178H42.0157V65.428H62.8032C64.509 65.428 65.9371 64.0215 65.9371 62.2533V30.2645C65.9371 28.5364 64.5487 27.0897 62.8032 27.0897H42.0157C40.3099 27.0897 38.8817 28.4963 38.8817 30.2645V62.2533H36.8189V30.2645Z" fill="#00ADFF"/>
<path d="M61.8114 34.6449H43.1662V32.6355H61.8114V34.6449Z" fill="#00ADFF"/>
<path d="M61.4147 49.1121H43.1662V47.1028H61.4147V49.1121Z" fill="#00ADFF"/>
<path d="M61.4147 41.8785H43.1662V39.8692H61.4147V41.8785Z" fill="#00ADFF"/>
<path d="M55.0674 56.3458H43.1662V54.3364H55.0674V56.3458Z" fill="#00ADFF"/>
<path fill-rule="evenodd" clip-rule="evenodd" d="M21.149 53.203L20.1116 53.8504C18.349 54.9505 17.1819 56.9176 17.1819 59.1589C17.1819 62.599 19.9349 65.3878 23.3308 65.3878C26.7268 65.3878 29.4798 62.599 29.4798 59.1589C29.4798 57.044 28.4414 55.1745 26.8431 54.0451L25.9094 53.3854V29.6215C25.9094 28.2898 24.8438 27.2103 23.5292 27.2103C22.2146 27.2103 21.149 28.2898 21.149 29.6215V53.203ZM18.9671 29.6215C18.9671 27.0691 21.0096 25 23.5292 25C26.0488 25 28.0913 27.0691 28.0913 29.6215V52.2323C30.2496 53.7573 31.6617 56.291 31.6617 59.1589C31.6617 63.8197 27.9318 67.5981 23.3308 67.5981C18.7298 67.5981 15 63.8197 15 59.1589C15 56.1188 16.5868 53.4542 18.9671 51.9686V29.6215Z" fill="#00ADFF"/>
<path fill-rule="evenodd" clip-rule="evenodd" d="M23.5292 34.4439C24.0769 34.4439 24.521 34.8937 24.521 35.4486V59.1589C24.521 59.7137 24.0769 60.1636 23.5292 60.1636C22.9815 60.1636 22.5374 59.7137 22.5374 59.1589V35.4486C22.5374 34.8937 22.9815 34.4439 23.5292 34.4439Z" fill="#00ADFF"/>
<path d="M26.7028 59.1846C26.7028 61.0156 25.2376 62.5 23.43 62.5C21.6225 62.5 20.1572 61.0156 20.1572 59.1846C20.1572 57.3535 21.6225 55.8692 23.43 55.8692C25.2376 55.8692 26.7028 57.3535 26.7028 59.1846Z" fill="#00ADFF"/>
<path fill-rule="evenodd" clip-rule="evenodd" d="M26.0086 35.6495C26.0086 35.0392 26.497 34.5444 27.0996 34.5444H30.8683C31.4708 34.5444 31.9592 35.0392 31.9592 35.6495C31.9592 36.2599 31.4708 36.7547 30.8683 36.7547H27.0996C26.497 36.7547 26.0086 36.2599 26.0086 35.6495ZM26.0086 40.8738C26.0086 40.2635 26.497 39.7687 27.0996 39.7687H30.8683C31.4708 39.7687 31.9592 40.2635 31.9592 40.8738C31.9592 41.4842 31.4708 41.979 30.8683 41.979H27.0996C26.497 41.979 26.0086 41.4842 26.0086 40.8738ZM26.0086 46.2991C26.0086 45.6887 26.497 45.1939 27.0996 45.1939H30.8683C31.4708 45.1939 31.9592 45.6887 31.9592 46.2991C31.9592 46.9094 31.4708 47.4042 30.8683 47.4042H27.0996C26.497 47.4042 26.0086 46.9094 26.0086 46.2991Z" fill="#00ADFF"/>
</svg>
