<svg width="80" height="81" viewBox="0 0 80 81" fill="none" xmlns="http://www.w3.org/2000/svg">
<path fill-rule="evenodd" clip-rule="evenodd" d="M35.3848 37.9167L39.4007 33.9007L40.9326 35.4326L38.4485 37.9167H45V40.0833H38.4485L40.9326 42.5674L39.4007 44.0993L35.3848 40.0833H22.2917C17.811 40.0833 14.1667 43.7277 14.1667 48.2083C14.1667 52.689 17.811 56.3333 22.2917 56.3333H25.0867C25.6153 52.6641 28.7711 49.8333 32.5833 49.8333C36.3956 49.8333 39.5513 52.6641 40.08 56.3333H48.92C49.4487 52.6641 52.6044 49.8333 56.4167 49.8333C60.5973 49.8333 64 53.235 64 57.4167C64 61.5983 60.5973 65 56.4167 65C52.6044 65 49.4487 62.1693 48.92 58.5H40.08C39.5513 62.1693 36.3956 65 32.5833 65C28.7711 65 25.6153 62.1693 25.0867 58.5H22.2917C16.6172 58.5 12 53.8828 12 48.2083C12 42.5338 16.6172 37.9167 22.2917 37.9167H35.3848ZM53 40.0833H53.7083C59.3828 40.0833 64 35.4662 64 29.7917C64 24.1172 59.3828 19.5 53.7083 19.5H50.9133C50.3847 15.8307 47.2289 13 43.4167 13C39.6044 13 36.4487 15.8307 35.92 19.5H27.08C26.5513 15.8307 23.3956 13 19.5833 13C15.4028 13 12 16.4017 12 20.5833C12 24.765 15.4028 28.1667 19.5833 28.1667C23.3956 28.1667 26.5513 25.3359 27.08 21.6667H35.92C36.4487 25.3359 39.6044 28.1667 43.4167 28.1667C47.2289 28.1667 50.3847 25.3359 50.9133 21.6667H53.7083C58.189 21.6667 61.8333 25.311 61.8333 29.7917C61.8333 34.2723 58.189 37.9167 53.7083 37.9167H53V40.0833ZM61.8333 57.4167C61.8333 54.4299 59.4034 52 56.4167 52C53.4299 52 51 54.4299 51 57.4167C51 60.4034 53.4299 62.8333 56.4167 62.8333C59.4034 62.8333 61.8333 60.4034 61.8333 57.4167ZM38 57.4167C38 54.4299 35.5701 52 32.5833 52C29.5966 52 27.1667 54.4299 27.1667 57.4167C27.1667 60.4034 29.5966 62.8333 32.5833 62.8333C35.5701 62.8333 38 60.4034 38 57.4167ZM14.1667 20.5833C14.1667 23.5701 16.5966 26 19.5833 26C22.5701 26 25 23.5701 25 20.5833C25 17.5966 22.5701 15.1667 19.5833 15.1667C16.5966 15.1667 14.1667 17.5966 14.1667 20.5833ZM38 20.5833C38 23.5701 40.4299 26 43.4167 26C46.4034 26 48.8333 23.5701 48.8333 20.5833C48.8333 17.5966 46.4034 15.1667 43.4167 15.1667C40.4299 15.1667 38 17.5966 38 20.5833Z" fill="#00ADFF"/>
</svg>
