<svg width="80" height="81" viewBox="0 0 80 81" fill="none" xmlns="http://www.w3.org/2000/svg">
<path d="M36.6641 31.7908C36.6641 29.0085 38.9412 26.7285 41.7199 26.7285H61.9433C64.7221 26.7285 66.9991 29.0085 66.9991 31.7908V62.5514C66.9991 65.3338 64.7221 67.6138 61.9433 67.6138H41.7199V65.6043H61.9433C63.6028 65.6043 64.9922 64.2518 64.9922 62.5514V31.7908C64.9922 30.1291 63.6414 28.738 61.9433 28.738H41.7199C40.0604 28.738 38.671 30.0905 38.671 31.7908V36.003H36.6641V31.7908Z" fill="#00ADFF"/>
<path d="M60.979 36.0025H42.8398V34.0703H60.979V36.0025Z" fill="#00ADFF"/>
<path d="M60.5931 49.9146H42.8398V47.9824H60.5931V49.9146Z" fill="#00ADFF"/>
<path d="M60.5931 42.9586H42.8398V41.0264H60.5931V42.9586Z" fill="#00ADFF"/>
<path d="M54.418 56.8707H42.8398V54.9385H54.418V56.8707Z" fill="#00ADFF"/>
<path d="M11.5777 60.8894H13.5846V57.8366H16.9423V65.9519H11.5391V67.9613H18.9492V55.8271H11.5777V60.8894Z" fill="#00ADFF"/>
<path d="M20.9961 68.0005H28.8693V47.751H20.9961V68.0005ZM23.0029 49.7992H26.8624V65.991H23.0029V49.7992Z" fill="#00ADFF"/>
<path d="M31.2617 67.6517H38.749V40.3691H31.2617V67.6517ZM33.3072 42.3399H36.7807V65.565H33.3072V42.3399Z" fill="#00ADFF"/>
<path d="M20.4556 35.8094C22.8484 35.8094 24.7781 33.8772 24.7781 31.4813C24.7781 30.2833 24.2763 29.2013 23.5045 28.3898L29.7953 19.3857C30.2585 19.5403 30.7216 19.6563 31.2619 19.6563C33.2302 19.6563 34.8512 18.3424 35.3915 16.5647L44.1138 18.1878C44.1138 18.2651 44.1138 18.3424 44.1138 18.4196C44.0752 20.8156 46.0435 22.7478 48.4363 22.7478C50.8292 22.7478 52.7588 20.8156 52.7588 18.4196C52.7588 18.3037 52.7588 18.1878 52.7588 18.1105L57.9691 14.0915L56.7341 12.4685L52.0641 16.0624C51.2922 14.8644 49.9801 14.0915 48.4363 14.0915C46.8154 14.0915 45.426 14.9803 44.6927 16.2556L35.5073 14.5166C35.1213 12.5071 33.3846 11 31.2619 11C28.8691 11 26.9394 12.9322 26.9394 15.3281C26.9394 16.4488 27.3639 17.4922 28.0972 18.2651L21.7677 27.3464C21.3818 27.2305 20.9573 27.1532 20.5327 27.1532C18.6416 27.1532 17.0592 28.3512 16.4417 30.0515H11V32.061H16.2487C16.4417 34.1864 18.2557 35.8094 20.4556 35.8094ZM48.3977 16.101C49.6713 16.101 50.7133 17.1444 50.7133 18.4196C50.7133 19.6949 49.6713 20.7383 48.3977 20.7383C47.1241 20.7383 46.082 19.6949 46.082 18.4196C46.082 17.1444 47.1241 16.101 48.3977 16.101ZM31.2233 13.0095C32.4969 13.0095 33.5389 14.0529 33.5389 15.3281C33.5389 16.6034 32.4969 17.6468 31.2233 17.6468C29.9497 17.6468 28.9076 16.6034 28.9076 15.3281C28.9076 14.0529 29.9497 13.0095 31.2233 13.0095ZM20.4556 29.2013C21.7292 29.2013 22.7712 30.2447 22.7712 31.52C22.7712 32.7952 21.7292 33.8386 20.4556 33.8386C19.182 33.8386 18.1399 32.7952 18.1399 31.52C18.1399 30.2447 19.182 29.2013 20.4556 29.2013Z" fill="#00ADFF"/>
</svg>
