<svg width="80" height="81" viewBox="0 0 80 81" fill="none" xmlns="http://www.w3.org/2000/svg">
<path fill-rule="evenodd" clip-rule="evenodd" d="M48.3475 45.0863C48.3439 45.0766 48.3243 45.0296 48.2382 44.9067L49.8756 43.7583C50.0158 43.9582 50.165 44.1981 50.2564 44.4894C50.3534 44.7984 50.3647 45.0963 50.3297 45.3929C50.2795 45.8196 50.1083 46.3676 49.8907 47.0644C49.8545 47.1803 49.8171 47.3002 49.7787 47.4244C49.4591 48.4579 48.5965 50.4476 47.4331 52.5578C46.2693 54.6687 44.7526 56.9957 43.0934 58.655C42.0239 59.7245 40.8798 60.6938 39.6741 61.5598C39.0681 61.9951 38.3877 62.1599 37.7247 62.0599C37.0788 61.9623 36.5249 61.6258 36.1115 61.1895C35.2969 60.3297 34.8997 58.9457 35.3974 57.6199C36.1521 55.6098 36.6268 53.4929 36.801 51.3165L38.7946 51.4761C38.6055 53.8383 38.0901 56.138 37.2698 58.3229C37.063 58.8737 37.2303 59.4625 37.5634 59.814C37.7238 59.9833 37.8896 60.0621 38.0233 60.0823C38.1399 60.0999 38.2993 60.0849 38.5073 59.9354C39.6255 59.1323 40.6868 58.2332 41.6792 57.2408C43.144 55.776 44.5539 53.6376 45.6816 51.5922C46.8098 49.5459 47.6037 47.6882 47.8679 46.8336C47.9068 46.708 47.9428 46.5918 47.9762 46.4842C48.2131 45.7205 48.3167 45.3867 48.3435 45.159C48.3488 45.1134 48.3479 45.0917 48.3475 45.0863C48.3475 45.0864 48.3475 45.0861 48.3475 45.0863Z" fill="#00ADFF"/>
<path fill-rule="evenodd" clip-rule="evenodd" d="M33.2578 29.9966C33.2674 30.0001 33.3144 30.0197 33.4373 30.1059L34.5857 28.4684C34.3858 28.3283 34.1459 28.1791 33.8546 28.0877C33.5456 27.9907 33.2478 27.9794 32.9511 28.0143C32.5245 28.0646 31.9764 28.2357 31.2796 28.4533C31.1638 28.4895 31.0438 28.527 30.9196 28.5654C29.8861 28.885 27.8964 29.7476 25.7863 30.911C23.6753 32.0748 21.3483 33.5914 19.689 35.2507C18.6195 36.3202 17.6502 37.4642 16.7842 38.67C16.349 39.2759 16.1841 39.9563 16.2842 40.6193C16.3817 41.2652 16.7182 41.8191 17.1545 42.2325C18.0143 43.0472 19.3983 43.4444 20.7241 42.9466C22.7343 42.1919 24.8511 41.7173 27.0276 41.5431L26.868 39.5494C24.5058 39.7385 22.206 40.254 20.0211 41.0742C19.4703 41.281 18.8816 41.1137 18.5301 40.7807C18.3607 40.6202 18.282 40.4545 18.2618 40.3208C18.2442 40.2041 18.2592 40.0448 18.4086 39.8367C19.2117 38.7185 20.1108 37.6573 21.1032 36.6649C22.5681 35.2001 24.7064 33.7901 26.7519 32.6624C28.7981 31.5343 30.6559 30.7404 31.5104 30.4761C31.636 30.4373 31.7522 30.4012 31.8598 30.3678C32.6235 30.1309 32.9574 30.0274 33.1851 30.0006C33.2306 29.9952 33.2523 29.9962 33.2578 29.9966C33.2576 29.9966 33.2579 29.9966 33.2578 29.9966Z" fill="#00ADFF"/>
<path fill-rule="evenodd" clip-rule="evenodd" d="M62.874 16.3979L62.8394 17.4644C62.7119 21.3991 61.9827 25.236 60.7656 28.8634L60.7592 28.8827L59.6139 31.8862L59.6054 31.9059C55.4694 41.4984 47.6809 49.3513 37.6709 53.3472L37.059 53.5915L30.0773 46.6098L31.4915 45.1956L37.537 51.241C46.7397 47.3794 53.9088 40.0527 57.7604 31.1335L58.8759 28.2082C59.9184 25.0957 60.5815 21.8279 60.7893 18.4824C57.4432 18.689 54.1838 19.3464 51.0742 20.4057L48.1365 21.5123C39.0228 25.4484 31.5721 32.8485 27.7822 42.3425L25.9247 41.601C29.9206 31.591 37.7735 23.8026 47.366 19.6665L47.3875 19.6572L50.3988 18.5229L50.4137 18.5178C54.0455 17.279 57.8741 16.56 61.8075 16.4325L62.874 16.3979Z" fill="#00ADFF"/>
<path fill-rule="evenodd" clip-rule="evenodd" d="M50.3568 28.9151C50.9455 29.5039 51.9001 29.5039 52.4889 28.9151C53.0776 28.3263 53.0776 27.3718 52.4889 26.783C51.9001 26.1943 50.9455 26.1943 50.3568 26.783C49.768 27.3718 49.768 28.3263 50.3568 28.9151ZM48.9426 30.3293C50.3124 31.6991 52.5333 31.6991 53.9031 30.3293C55.2729 28.9595 55.2729 26.7386 53.9031 25.3688C52.5333 23.999 50.3124 23.999 48.9426 25.3688C47.5727 26.7386 47.5727 28.9595 48.9426 30.3293Z" fill="#00ADFF"/>
<path fill-rule="evenodd" clip-rule="evenodd" d="M18.1872 61.0853L29.7056 56.8071C32.4378 55.7923 33.2022 52.2899 31.1413 50.2289L29.0436 48.1312C26.9827 46.0703 23.4803 46.8347 22.4655 49.5669L18.1872 61.0853ZM21.5814 57.6911L29.0092 54.9322C30.3753 54.4248 30.7576 52.6736 29.7271 51.6432L27.6294 49.5455C26.5989 48.515 24.8477 48.8972 24.3403 50.2633L21.5814 57.6911Z" fill="#00ADFF"/>
</svg>
