<svg width="80" height="81" viewBox="0 0 80 81" fill="none" xmlns="http://www.w3.org/2000/svg">
<path fill-rule="evenodd" clip-rule="evenodd" d="M27.803 16H29.8939V21.2273H33.3788V16H35.4697V21.2273H38.9545V16H41.0455V21.2273H44.5303V16H46.6212V21.2273H50.1061V16H52.197V21.2273H54.2879C56.2125 21.2273 57.7727 22.7875 57.7727 24.7121V26.803H63V28.8939H57.7727V32.3788H63V34.4697H57.7727V37.9545H63V40.0455H57.7727V43.5303H63V45.6212H57.7727V49.1061H63V51.197H57.7727V53.2879C57.7727 55.2125 56.2125 56.7727 54.2879 56.7727H52.197V62H50.1061V56.7727H46.6212V62H44.5303V56.7727H41.0455V62H38.9545V56.7727H35.4697V62H33.3788V56.7727H29.8939V62H27.803V56.7727H25.7121C23.7875 56.7727 22.2273 55.2125 22.2273 53.2879V51.197H17V49.1061H22.2273V45.6212H17V43.5303H22.2273V40.0455H17V37.9545H22.2273V34.4697H17V32.3788H22.2273V28.8939H17V26.803H22.2273V24.7121C22.2273 22.7875 23.7875 21.2273 25.7121 21.2273H27.803V16ZM25.7121 23.3182C24.9423 23.3182 24.3182 23.9423 24.3182 24.7121V53.2879C24.3182 54.0577 24.9423 54.6818 25.7121 54.6818H54.2879C55.0577 54.6818 55.6818 54.0577 55.6818 53.2879V24.7121C55.6818 23.9423 55.0577 23.3182 54.2879 23.3182H25.7121ZM30.2424 32.7273C30.2424 30.8026 31.8027 29.2424 33.7273 29.2424H46.2727C48.1973 29.2424 49.7576 30.8026 49.7576 32.7273V45.2727C49.7576 47.1974 48.1973 48.7576 46.2727 48.7576H33.7273C31.8027 48.7576 30.2424 47.1974 30.2424 45.2727V42.6591H32.3333V45.2727C32.3333 46.0426 32.9574 46.6667 33.7273 46.6667H46.2727C47.0426 46.6667 47.6667 46.0426 47.6667 45.2727V32.7273C47.6667 31.9574 47.0426 31.3333 46.2727 31.3333H33.7273C32.9574 31.3333 32.3333 31.9574 32.3333 32.7273V35.6894H30.2424V32.7273Z" fill="#00ADFF"/>
</svg>
