<svg width="80" height="81" viewBox="0 0 80 81" fill="none" xmlns="http://www.w3.org/2000/svg">
<path d="M42.2369 35.2455L36.4798 56.4657L38.5828 57.0292L44.3399 35.809L42.2369 35.2455Z" fill="#00ADFF"/>
<path fill-rule="evenodd" clip-rule="evenodd" d="M33.4345 37.3878L24.9864 45.8359L26.5258 47.3755L26.5358 47.3655L33.7668 54.5966L35.3064 53.0571L28.0753 45.826L34.974 38.9273L33.4345 37.3878Z" fill="#00ADFF"/>
<path d="M56.5267 46.1486L48.0786 54.5967L46.5391 53.0572L54.9872 44.609L56.5267 46.1486Z" fill="#00ADFF"/>
<path d="M47.7452 37.3879L56.1934 45.836L54.6538 47.3755L46.2057 38.9274L47.7452 37.3879Z" fill="#00ADFF"/>
<path d="M63.8898 17H18.2871C16.4563 17 15 18.4979 15 20.2871V39.9262H17.1636V29.0248H64.9301V61.3129C64.9301 61.8954 64.4308 62.3947 63.8482 62.3947H18.2455C17.6629 62.3947 17.1636 61.8954 17.1636 61.3129V56.736H15L15 61.3129C15 63.1437 16.4979 64.6 18.2871 64.6H63.8898C65.7206 64.6 67.1769 63.1021 67.1769 61.3129V20.2871C67.1769 18.4563 65.679 17 63.8898 17ZM17.1636 26.8612V20.2871C17.1636 19.7046 17.6629 19.2052 18.2455 19.2052H63.8482C64.4308 19.2052 64.9301 19.7046 64.9301 20.2871V26.8612H17.1636Z" fill="#00ADFF"/>
<path d="M21.949 22.5337C21.3665 22.5337 20.8672 23.033 20.8672 23.6155C20.8672 24.198 21.3665 24.6973 21.949 24.6973C22.5315 24.6973 23.0308 24.198 23.0308 23.6155C23.0308 22.9914 22.5315 22.5337 21.949 22.5337Z" fill="#00ADFF"/>
<path d="M26.3181 22.5337C25.7356 22.5337 25.2363 23.033 25.2363 23.6155C25.2363 24.198 25.7356 24.6973 26.3181 24.6973C26.9007 24.6973 27.4 24.198 27.4 23.6155C27.4 22.9914 26.9007 22.5337 26.3181 22.5337Z" fill="#00ADFF"/>
<path d="M30.6443 22.5337C30.0618 22.5337 29.5625 23.033 29.5625 23.6155C29.5625 24.198 30.0618 24.6973 30.6443 24.6973C31.2268 24.6973 31.7261 24.198 31.7261 23.6155C31.7261 22.9914 31.2684 22.5337 30.6443 22.5337Z" fill="#00ADFF"/>
<path d="M35.0135 22.5337C34.4309 22.5337 33.9316 23.033 33.9316 23.6155C33.9316 24.198 34.4309 24.6973 35.0135 24.6973C35.596 24.6973 36.0953 24.198 36.0953 23.6155C36.0953 22.9914 35.596 22.5337 35.0135 22.5337Z" fill="#00ADFF"/>
<path d="M60.9783 22.5337C60.3958 22.5337 59.8965 23.033 59.8965 23.6155C59.8965 24.198 60.3958 24.6973 60.9783 24.6973C61.5608 24.6973 62.0601 24.198 62.0601 23.6155C62.0601 22.9914 61.644 22.5337 60.9783 22.5337Z" fill="#00ADFF"/>
</svg>
