<svg width="80" height="81" viewBox="0 0 80 81" fill="none" xmlns="http://www.w3.org/2000/svg">
<path d="M41.1551 13.4785L47.5099 19.8333L45.9217 21.4215L40 15.4998L36.5142 18.9856L34.926 17.3974L38.845 13.4785C39.4829 12.8405 40.5172 12.8405 41.1551 13.4785Z" fill="#00ADFF"/>
<path d="M12.4785 39.8449L18.8474 33.476L20.4356 35.0642L14.4999 41L17.5629 44.063L15.9746 45.6513L12.4785 42.1551C11.8405 41.5171 11.8405 40.4829 12.4785 39.8449Z" fill="#00ADFF"/>
<path d="M32.0533 61.7299L38.845 68.5216C39.4829 69.1595 40.5172 69.1595 41.1551 68.5216L44.6654 65.0113L43.0771 63.4231L40 66.5002L33.6414 60.1416L32.0533 61.7299Z" fill="#00ADFF"/>
<path d="M67.5216 42.1551L60.7439 48.9327L59.1557 47.3445L65.5002 41L62.0003 37.5001L63.5885 35.9119L67.5216 39.8449C68.1595 40.4829 68.1595 41.5171 67.5216 42.1551Z" fill="#00ADFF"/>
<path d="M51.7979 14.2062H49.5518V34.6252H51.7979V14.2062Z" fill="#00ADFF"/>
<path d="M54.044 17.4732H56.29V37.8922H54.044V17.4732Z" fill="#00ADFF"/>
<path d="M58.5361 20.7403H60.7822V41.1592H58.5361V20.7403Z" fill="#00ADFF"/>
<path d="M30.5621 68.1123H28.3161V47.6933H30.5621V68.1123Z" fill="#00ADFF"/>
<path d="M23.8239 64.8453H26.07V44.4263H23.8239V64.8453Z" fill="#00ADFF"/>
<path d="M19.3317 61.5782H21.5778V41.1592H19.3317V61.5782Z" fill="#00ADFF"/>
<path d="M67.01 52.9002V50.6541H46.591V52.9002H67.01Z" fill="#00ADFF"/>
<path d="M63.743 55.1462V57.3923H43.324V55.1462H63.743Z" fill="#00ADFF"/>
<path d="M60.4759 59.6384V61.8845H40.057V59.6384H60.4759Z" fill="#00ADFF"/>
<path d="M13.1039 31.6644V29.4183H33.5229V31.6644H13.1039Z" fill="#00ADFF"/>
<path d="M16.371 24.9262V27.1722H36.7899V24.9262H16.371Z" fill="#00ADFF"/>
<path d="M19.638 20.434V22.6801H40.057V20.434H19.638Z" fill="#00ADFF"/>
</svg>
