<svg width="80" height="80" viewBox="0 0 80 80" fill="none" xmlns="http://www.w3.org/2000/svg">
<path d="M48.6732 32.2557C48.1845 31.8625 47.4093 31.9478 47.018 32.435L38.3755 43.1764L33.0585 38.3902C32.593 37.9722 31.8134 38.0134 31.396 38.4774C31.1856 38.7111 31.0789 39.0132 31.0954 39.3273C31.1124 39.6415 31.2501 39.9304 31.4842 40.1404L37.3768 45.4448C37.6754 45.7144 38.0609 45.8623 38.4623 45.8623C38.5045 45.8623 38.5457 45.8603 38.5913 45.857C39.032 45.8206 39.4446 45.6019 39.7229 45.2553L48.8526 33.9113C49.049 33.666 49.1401 33.3591 49.1057 33.0464C49.0722 32.7337 48.9181 32.4525 48.6732 32.2557Z" fill="#00ADFF"/>
<path fill-rule="evenodd" clip-rule="evenodd" d="M57.1265 22.7172C58.6173 22.8544 59.8333 24.1338 59.8939 25.63C59.8978 25.6891 59.8978 25.6891 59.723 28.3643L59.7227 28.3683C59.427 32.8578 58.4888 39.543 55.6953 45.8957C53.3977 51.1163 50.2274 55.2203 46.2717 58.0934C44.4522 59.4145 41.726 60.6281 41.4211 60.7619C40.8795 60.9985 40.1785 61.1294 39.4468 61.1294C38.7152 61.1294 38.0142 60.9985 37.4726 60.7628C37.1672 60.629 34.441 59.4155 32.621 58.0939C30.0355 56.2163 27.7854 53.812 25.8954 50.9136L27.995 49.8233C29.6984 52.3875 31.7097 54.5215 34.0047 56.1895C35.621 57.3616 38.2202 58.5178 38.4098 58.6021L38.4171 58.6054C38.9053 58.8187 39.9879 58.8187 40.4771 58.6054C40.5891 58.5569 43.2479 57.3797 44.889 56.1895C48.5024 53.5646 51.4133 49.7825 53.5393 44.9493C56.1951 38.9103 57.0901 32.5155 57.3723 28.2141L57.5381 25.6872C57.4964 25.3827 57.2041 25.0889 56.9103 25.0618C56.5767 25.0307 55.434 24.9192 54.2592 24.7578C52.126 24.4645 50.1198 24.0776 48.2954 23.6088C46.4468 23.1336 44.7571 22.5669 43.2726 21.9245C41.6064 21.2027 39.9631 20.0153 39.8927 19.9645L39.8905 19.9629C39.6907 19.8169 39.204 19.8164 39.0023 19.9634C38.9863 19.975 37.3151 21.1904 35.625 21.9225C34.1506 22.561 32.4736 23.1244 30.639 23.5981L30.5983 23.6088C28.7739 24.0781 26.7672 24.4645 24.635 24.7578C23.4597 24.9187 22.317 25.0303 21.9951 25.0608C21.6916 25.0884 21.3939 25.3861 21.3566 25.6823C21.3667 25.853 21.4031 26.4072 21.5219 28.2131C21.7771 32.0954 22.5308 37.6843 24.6288 43.1773L22.5261 44.2692C20.2527 38.4404 19.4424 32.4826 19.1724 28.3688V28.3687C18.9964 25.6911 18.9964 25.6911 19.0013 25.6101C19.0609 24.1285 20.2769 22.8548 21.7677 22.7176C21.7714 22.7173 21.7813 22.7163 21.7969 22.7148C21.9988 22.6954 23.159 22.5842 24.3145 22.4248C26.358 22.1441 28.275 21.7747 30.0117 21.3281C31.7449 20.8831 33.3182 20.3565 34.6893 19.7626C36.1146 19.145 37.6021 18.0706 37.6161 18.0599C38.1184 17.6953 38.7676 17.4951 39.4468 17.4951C40.1256 17.4951 40.7753 17.6953 41.2751 18.0575C41.2911 18.0696 42.7824 19.1459 44.2059 19.7621C45.5794 20.3565 47.1522 20.8831 48.8825 21.3276C50.6192 21.7747 52.5362 22.1436 54.5797 22.4243C55.8238 22.596 57.0741 22.7123 57.1265 22.7172Z" fill="#00ADFF"/>
</svg>
