<svg width="80" height="81" viewBox="0 0 80 81" fill="none" xmlns="http://www.w3.org/2000/svg">
<path fill-rule="evenodd" clip-rule="evenodd" d="M40.0341 9C40.7067 9 41.2521 9.54911 41.2521 10.2265V23.1391L46.6767 17.7833C47.157 17.3091 47.9282 17.3167 48.3991 17.8004C48.8701 18.2841 48.8625 19.0606 48.3821 19.5348L40.0119 27.7988L32.0388 19.5125C31.5707 19.026 31.5828 18.2496 32.0659 17.7782C32.549 17.3069 33.3201 17.3191 33.7882 17.8056L38.8161 23.0309V10.2265C38.8161 9.54911 39.3614 9 40.0341 9ZM41.008 33.5016C40.4459 32.9355 39.5345 32.9355 38.9723 33.5016L32.5535 39.9652C31.9914 40.5312 31.9914 41.449 32.5535 42.015L34.0103 43.4819L32.2878 45.2164L30.831 43.7495C29.3175 42.2255 29.3175 39.7546 30.831 38.2307L37.2498 31.7671C38.7633 30.2431 41.2171 30.2431 42.7305 31.7671L48.9377 38.0176C50.4512 39.5416 50.4512 42.0124 48.9377 43.5364L42.5189 50C41.0054 51.524 38.5517 51.524 37.0382 50L35.6025 48.5543L37.325 46.8198L38.7607 48.2655C39.3228 48.8316 40.2342 48.8316 40.7964 48.2655L47.2152 41.8019C47.7774 41.2359 47.7774 40.3181 47.2152 39.7521L41.008 33.5016ZM16.7395 32.5424C17.2198 32.0681 17.991 32.0758 18.4619 32.5595L26.6687 40.988L18.4398 49.0167C17.9567 49.4881 17.1856 49.4758 16.7175 48.9893C16.2494 48.5029 16.2616 47.7264 16.7447 47.2551L21.9338 42.1922H9.21799C8.54531 42.1922 8 41.6431 8 40.9657C8 40.2883 8.54531 39.7392 9.21799 39.7392H22.0412L16.7225 34.2768C16.2516 33.7931 16.2592 33.0166 16.7395 32.5424ZM63.2605 32.5424C63.7408 33.0166 63.7484 33.7931 63.2775 34.2768L57.9588 39.7392H70.782C71.4547 39.7392 72 40.2883 72 40.9657C72 41.6431 71.4547 42.1922 70.782 42.1922H58.0662L63.2553 47.2551C63.7384 47.7264 63.7506 48.5029 63.2825 48.9893C62.8144 49.4758 62.0433 49.4881 61.5602 49.0167L53.3313 40.988L61.5381 32.5595C62.009 32.0758 62.7802 32.0681 63.2605 32.5424ZM40.0119 54.2012L48.3821 62.4652C48.8625 62.9394 48.8701 63.7159 48.3991 64.1996C47.9282 64.6833 47.157 64.6909 46.6767 64.2167L41.2521 58.861L41.2521 71.7735C41.2521 72.4509 40.7067 73 40.0341 73C39.3614 73 38.8161 72.4509 38.8161 71.7735L38.8161 58.9691L33.7882 64.1944C33.3201 64.6809 32.549 64.6931 32.0659 64.2218C31.5828 63.7504 31.5707 62.974 32.0388 62.4875L40.0119 54.2012Z" fill="#00ADFF"/>
</svg>
