<svg width="80" height="80" viewBox="0 0 80 80" fill="none" xmlns="http://www.w3.org/2000/svg">
<path fill-rule="evenodd" clip-rule="evenodd" d="M41.4727 15.6875H66.8625C68.0546 15.6875 69.0001 16.633 69.0001 17.8251V50.1363C69.0001 51.3285 68.0546 52.274 66.8625 52.274H62.5461V50.1363H66.8625V17.8251H41.4727V22.1415H39.3351V17.8251C39.3351 16.633 40.2806 15.6875 41.4727 15.6875ZM56.092 25.3054H15.148C13.3392 25.3054 11.9004 26.7853 11.9004 28.553V47.9561H14.0381V37.1857H57.1197V60.8642C57.1197 61.4397 56.6264 61.933 56.0509 61.933H15.1069C14.5314 61.933 14.0381 61.4397 14.0381 60.8642H11.9004C11.9004 62.6729 13.3803 64.1118 15.148 64.1118H56.092C57.9008 64.1118 59.3395 62.6318 59.3395 60.8642V28.553C59.3395 26.7442 57.8596 25.3054 56.092 25.3054ZM14.0381 35.0481V28.553C14.0381 27.9775 14.5314 27.4841 15.1069 27.4841H56.0509C56.6264 27.4841 57.1197 27.9775 57.1197 28.553V35.0481H14.0381ZM18.4774 52.2743H32.8653L25.6528 39.9418L18.4774 52.2743ZM21.8234 50.36L25.6528 43.8072L29.445 50.36H21.8234ZM44.787 44.4635C48.6521 44.4635 51.7754 47.5869 51.7754 51.452C51.7754 55.3171 48.6521 58.4404 44.787 58.4404C40.9219 58.4404 37.7986 55.3171 37.7986 51.452C37.7986 47.5869 40.9219 44.4635 44.787 44.4635ZM44.787 46.5327C42.0541 46.5327 39.8678 48.7191 39.8678 51.452C39.8678 54.1849 42.0541 56.3712 44.787 56.3712C47.5199 56.3712 49.7062 54.1849 49.7062 51.452C49.7062 48.7191 47.5199 46.5327 44.787 46.5327ZM18.3542 30.773C17.7787 30.773 17.2854 31.2663 17.2854 31.8418C17.2854 32.4173 17.7787 32.9106 18.3542 32.9106C18.9297 32.9106 19.423 32.4173 19.423 31.8418C19.423 31.2252 18.9297 30.773 18.3542 30.773ZM21.602 31.8418C21.602 31.2663 22.0953 30.773 22.6709 30.773C23.2464 30.773 23.7397 31.2252 23.7397 31.8418C23.7397 32.4173 23.2464 32.9106 22.6709 32.9106C22.0953 32.9106 21.602 32.4173 21.602 31.8418ZM26.9459 30.773C26.3704 30.773 25.8771 31.2663 25.8771 31.8418C25.8771 32.4173 26.3704 32.9106 26.9459 32.9106C27.5214 32.9106 28.0147 32.4173 28.0147 31.8418C28.0147 31.2252 27.5625 30.773 26.9459 30.773ZM30.1937 31.8418C30.1937 31.2663 30.687 30.773 31.2625 30.773C31.8381 30.773 32.3314 31.2252 32.3314 31.8418C32.3314 32.4173 31.8381 32.9106 31.2625 32.9106C30.687 32.9106 30.1937 32.4173 30.1937 31.8418ZM52.803 30.773C52.2275 30.773 51.7342 31.2663 51.7342 31.8418C51.7342 32.4173 52.2275 32.9106 52.803 32.9106C53.3786 32.9106 53.8719 32.4173 53.8719 31.8418C53.8719 31.2252 53.4608 30.773 52.803 30.773Z" fill="#00ADFF"/>
</svg>
