<svg width="80" height="79" viewBox="0 0 80 79" fill="none" xmlns="http://www.w3.org/2000/svg">
<path d="M14.5938 20.0465C14.5938 18.4404 15.9011 17.0957 17.5446 17.0957H62.5534C64.1595 17.0957 65.5041 18.403 65.5041 20.0465V47.4626C65.5041 49.0687 64.1968 50.4134 62.5534 50.4134H19.4869V48.4711H62.5534C63.0763 48.4711 63.5245 48.0229 63.5245 47.5V20.0465C63.5245 19.5236 63.0763 19.0753 62.5534 19.0753H17.5446C17.0217 19.0753 16.5734 19.5236 16.5734 20.0465V45.483H14.6311V20.0465H14.5938Z" fill="#00ADFF"/>
<path d="M21.4297 33.7544V45.4828H27.2939V33.7544C27.2939 33.7544 21.4297 33.7544 21.4297 33.7544ZM25.3516 43.5032H23.4093V35.6593H25.3516V43.5032Z" fill="#00ADFF"/>
<path d="M29.2734 31.7373V45.4454H35.1376V31.7373H29.2734ZM33.1954 43.5031H31.2531V33.7169H33.1954V43.5031Z" fill="#00ADFF"/>
<path d="M37.0801 29.8325V45.4829H42.9443V29.8325H37.0801ZM41.002 43.5032H39.0596V31.7375H41.002V43.5032Z" fill="#00ADFF"/>
<path d="M44.9238 27.8159V45.4459H50.788V27.8159H44.9238ZM48.8458 43.5036H46.9034V29.7956H48.8458V43.5036Z" fill="#00ADFF"/>
<path d="M52.7676 25.9106V45.4829H58.6318V25.9106H52.7676ZM56.6521 43.5033H54.7098V27.8156H56.6521V43.5033Z" fill="#00ADFF"/>
<path d="M62.5526 53.2896H17.5438C16.4606 53.2896 15.6016 54.1486 15.6016 55.2318V59.1538C15.6016 60.237 16.4606 61.096 17.5438 61.096H62.5526C63.6358 61.096 64.4949 60.237 64.4949 59.1538V55.2318C64.4949 54.186 63.6358 53.2896 62.5526 53.2896ZM62.5526 59.1538H17.5438V55.2318H62.5526V59.1538Z" fill="#00ADFF"/>
</svg>
