<svg width="80" height="80" viewBox="0 0 80 80" fill="none" xmlns="http://www.w3.org/2000/svg">
<path fill-rule="evenodd" clip-rule="evenodd" d="M14.978 50.038C14.978 45.2847 17.8448 40.8938 21.5266 38.3586C22.1421 43.8091 24.125 48.9034 27.7815 52.6589L28.8625 50.9476C25.5007 47.3374 23.3265 42.6385 22.9489 37.4504C22.9099 36.9146 22.8901 36.3736 22.8901 35.828C22.8901 35.6633 22.8919 35.4989 22.8955 35.335C22.5315 35.4868 22.1743 35.6514 21.8244 35.828C21.5161 35.9837 21.2135 36.1489 20.9171 36.323C16.1755 39.1089 13 44.2085 13 50.038C13 58.8534 20.2618 65.9998 29.2198 65.9998C34.3974 65.9998 39.0083 63.6124 41.978 59.8952C42.4348 59.3235 42.8527 58.7203 43.2279 58.0894C42.5085 58.0149 41.7992 57.9074 41.1014 57.7684C39.286 57.4069 37.549 56.8327 35.9184 56.0733L34.8679 57.7365C36.4144 58.474 38.1953 58.952 39.9011 59.3616C37.2945 62.1811 33.3939 64.0532 29.2198 64.0532C21.3543 64.0532 14.978 57.7784 14.978 50.038Z" fill="#00ADFF"/>
<path fill-rule="evenodd" clip-rule="evenodd" d="M65.0224 37.3855C65.0224 48.6736 55.7237 57.8244 44.2531 57.8244C41.2816 57.8244 38.4557 57.2103 35.8996 56.1039L34.8454 57.7728C37.7126 59.0562 40.898 59.771 44.2531 59.771C56.8161 59.771 67.0004 49.7487 67.0004 37.3855C67.0004 25.0223 56.8161 15 44.2531 15C31.6902 15 21.5059 25.0223 21.5059 37.3855C21.5059 43.3387 23.8673 48.7492 27.7187 52.7592L28.8021 51.044C25.4957 47.4241 23.4839 42.636 23.4839 37.3855C23.4839 26.0974 32.7826 16.9466 44.2531 16.9466C55.7237 16.9466 65.0224 26.0974 65.0224 37.3855Z" fill="#00ADFF"/>
<path fill-rule="evenodd" clip-rule="evenodd" d="M42.4916 26.3797L53.1483 27.0924C53.8023 27.1361 54.2964 27.6933 54.2519 28.3368L53.5277 38.8241C53.4833 39.4677 52.9171 39.9539 52.2632 39.9102C51.6092 39.8664 51.1151 39.3093 51.1595 38.6657L51.6895 30.9916L22.09 57.8246L20.5293 56.0647L50.1288 29.2317L42.3307 28.7102C41.6767 28.6664 41.1826 28.1093 41.227 27.4657C41.2715 26.8222 41.8377 26.3359 42.4916 26.3797Z" fill="#00ADFF"/>
</svg>
