<svg width="80" height="81" viewBox="0 0 80 81" fill="none" xmlns="http://www.w3.org/2000/svg">
<path fill-rule="evenodd" clip-rule="evenodd" d="M40.5 65.7278C38.3318 66.5497 35.9775 67 33.5169 67C29.1356 67 25.0915 65.5722 21.8344 63.1615L23.1798 61.7226C26.079 63.8164 29.652 65.0521 33.5169 65.0521C35.0257 65.0521 36.4899 64.8638 37.887 64.5096C33.8532 62.2527 30.7124 58.6168 29.1192 54.2494C29.093 54.2498 29.0668 54.25 29.0405 54.25C26.4694 54.25 24.3851 52.1886 24.3851 49.6458C24.3851 48.7898 24.6214 47.9883 25.0329 47.3017C22.4692 44.1113 20.9051 40.1 20.8088 35.731C17.8103 38.8445 15.9696 43.0586 15.9696 47.6979C15.9696 50.3211 16.5581 52.8083 17.6116 55.0375L15.8745 55.9625C14.6725 53.4573 14 50.6553 14 47.6979C14 41.772 16.7002 36.4698 20.9501 32.929C22.1328 23.3883 30.3544 16 40.3209 16C50.1738 16 58.3215 23.2208 59.6486 32.6036C64.1291 36.1403 67 41.5875 67 47.6979C67 58.3582 58.262 67 47.4831 67C45.0225 67 42.6682 66.5497 40.5 65.7278ZM22.7736 35.3021C22.7736 39.2738 24.1227 42.9339 26.3924 45.8586C27.1442 45.3435 28.0567 45.0417 29.0405 45.0417C29.7656 45.0417 30.4519 45.2056 31.0637 45.498L37.7158 34.5654C36.5799 33.7258 35.8446 32.3853 35.8446 30.875C35.8446 30.7478 35.8498 30.6217 35.86 30.4971C35.0935 30.396 34.3114 30.3438 33.5169 30.3438C29.4939 30.3438 25.7872 31.6827 22.8273 33.9345C22.7918 34.3857 22.7736 34.8418 22.7736 35.3021ZM40.5 63.6235C36.1557 61.7577 32.7241 58.2042 31.0511 53.7996C32.5251 53.1005 33.5693 51.6567 33.6852 49.961L47.3091 49.8619C47.3903 51.6003 48.4463 53.087 49.9489 53.7997C48.2759 58.2042 44.8443 61.7577 40.5 63.6235ZM51.8808 54.2494C50.2876 58.6168 47.1468 62.2527 43.113 64.5096C44.5101 64.8638 45.9743 65.0521 47.4831 65.0521C57.1742 65.0521 65.0304 57.2824 65.0304 47.6979C65.0304 42.879 63.0444 38.5188 59.8377 35.3743C59.8214 39.7678 58.321 43.8153 55.8063 47.052C56.3165 47.7907 56.6149 48.6838 56.6149 49.6458C56.6149 52.1886 54.5306 54.25 51.9595 54.25C51.9478 54.25 51.9361 54.25 51.9244 54.2499C51.9098 54.2498 51.8953 54.2496 51.8808 54.2494ZM54.3676 45.7047C56.5659 42.806 57.8682 39.2044 57.8682 35.3021C57.8682 34.7453 57.8417 34.1947 57.7899 33.6514C54.8961 31.5709 51.3345 30.3438 47.4831 30.3438C46.689 30.3438 45.9069 30.3981 45.1404 30.5029C45.1503 30.6257 45.1554 30.7498 45.1554 30.875C45.1554 32.3777 44.4275 33.7123 43.3013 34.5527L50.0018 45.4673C50.5969 45.1941 51.2602 45.0417 51.9595 45.0417C52.8408 45.0417 53.665 45.2839 54.3676 45.7047ZM48.4239 46.6504L41.5004 35.3726C41.1782 35.4424 40.8434 35.4792 40.5 35.4792C40.164 35.4792 39.8364 35.444 39.5206 35.3771L32.6257 46.7086C32.9504 47.0958 33.2122 47.5364 33.3955 48.0152L47.6456 47.9115C47.836 47.4489 48.1002 47.0237 48.4239 46.6504ZM36.445 28.6116C35.4899 28.4695 34.5121 28.3958 33.5169 28.3958C29.7488 28.3958 26.2302 29.4519 23.2471 31.2811C25.0811 23.6355 32.0294 17.9479 40.3209 17.9479C48.5217 17.9479 55.4085 23.5116 57.3327 31.0306C54.4416 29.3558 51.0757 28.3958 47.4831 28.3958C46.4879 28.3958 45.5101 28.4695 44.555 28.6116C43.7558 27.2141 42.2393 26.2708 40.5 26.2708C38.7607 26.2708 37.2442 27.2141 36.445 28.6116ZM43.1858 30.875C43.1858 32.342 41.9833 33.5312 40.5 33.5312C39.0167 33.5312 37.8142 32.342 37.8142 30.875C37.8142 29.408 39.0167 28.2188 40.5 28.2188C41.9833 28.2188 43.1858 29.408 43.1858 30.875ZM29.0405 52.3021C30.5239 52.3021 31.7264 51.1128 31.7264 49.6458C31.7264 48.1788 30.5239 46.9896 29.0405 46.9896C27.5572 46.9896 26.3547 48.1788 26.3547 49.6458C26.3547 51.1128 27.5572 52.3021 29.0405 52.3021ZM54.6453 49.6458C54.6453 51.1128 53.4428 52.3021 51.9595 52.3021C50.4761 52.3021 49.2736 51.1128 49.2736 49.6458C49.2736 48.1788 50.4761 46.9896 51.9595 46.9896C53.4428 46.9896 54.6453 48.1788 54.6453 49.6458Z" fill="#00ADFF"/>
</svg>
