<svg width="80" height="81" viewBox="0 0 80 81" fill="none" xmlns="http://www.w3.org/2000/svg">
<path fill-rule="evenodd" clip-rule="evenodd" d="M47.4308 22.1398C47.4308 24.4819 45.5297 26.3804 43.1846 26.3804C40.8395 26.3804 38.9385 24.4819 38.9385 22.1398C38.9385 19.7978 40.8395 17.8992 43.1846 17.8992C45.5297 17.8992 47.4308 19.7978 47.4308 22.1398ZM45.5423 27.6684C45.0783 27.866 44.5844 28.007 44.0692 28.0829V37.839L51.9496 41.8215C52.6169 40.8044 53.5849 40.0017 54.7274 39.5395L45.5423 27.6684ZM37.1692 22.1398C37.1692 25.1576 39.3972 27.6556 42.3 28.0829V36.9449L28.3379 29.889C28.7803 29.0525 29.0308 28.0991 29.0308 27.0872C29.0308 23.7694 26.3376 21.0797 23.0154 21.0797C19.6932 21.0797 17 23.7694 17 27.0872C17 30.1049 19.228 32.603 22.1308 33.0302V45.1743C19.228 45.6015 17 48.0996 17 51.1173C17 54.4351 19.6932 57.1248 23.0154 57.1248C25.3796 57.1248 27.4252 55.7627 28.4084 53.7814L37.1838 56.7027C37.1742 56.8422 37.1692 56.9829 37.1692 57.1248C37.1692 60.4427 39.8624 63.1323 43.1846 63.1323C46.5068 63.1323 49.2 60.4427 49.2 57.1248C49.2 56.2896 49.0294 55.4943 48.721 54.7716L54.6539 50.6497C55.3707 50.9509 56.1582 51.1173 56.9846 51.1173C60.3068 51.1173 63 48.4276 63 45.1098C63 41.7919 60.3068 39.1022 56.9846 39.1022C56.8665 39.1022 56.7492 39.1056 56.6328 39.1124L47.0574 26.7369C48.3676 25.6348 49.2 23.9844 49.2 22.1398C49.2 18.822 46.5068 16.1323 43.1846 16.1323C39.8624 16.1323 37.1692 18.822 37.1692 22.1398ZM53.0229 49.6305C51.7641 48.5293 50.9692 46.9123 50.9692 45.1098C50.9692 44.5257 51.0527 43.9611 51.2084 43.4271L44.0692 39.8193V51.1173H43.1846H42.3V38.9252L28.6507 32.0274L38.066 53.9676C39.1261 52.2569 41.0221 51.1173 43.1846 51.1173C45.0347 51.1173 46.6898 51.9514 47.7932 53.2637L53.0229 49.6305ZM27.2615 27.0872C27.2615 29.4292 25.3605 31.3278 23.0154 31.3278C20.6703 31.3278 18.7692 29.4292 18.7692 27.0872C18.7692 24.7452 20.6703 22.8466 23.0154 22.8466C25.3605 22.8466 27.2615 24.7452 27.2615 27.0872ZM26.6577 31.8686C25.8687 32.4691 24.9265 32.8791 23.9 33.0302V45.1743C26.8028 45.6015 29.0308 48.0996 29.0308 51.1173C29.0308 51.4518 29.0034 51.7799 28.9508 52.0995L36.4042 54.5807L26.6577 31.8686ZM27.2615 51.1173C27.2615 53.4593 25.3605 55.3579 23.0154 55.3579C20.6703 55.3579 18.7692 53.4593 18.7692 51.1173C18.7692 48.7753 20.6703 46.8767 23.0154 46.8767C25.3605 46.8767 27.2615 48.7753 27.2615 51.1173ZM43.1846 61.3654C45.5297 61.3654 47.4308 59.4668 47.4308 57.1248C47.4308 54.7828 45.5297 52.8842 43.1846 52.8842C40.8395 52.8842 38.9385 54.7828 38.9385 57.1248C38.9385 59.4668 40.8395 61.3654 43.1846 61.3654ZM56.9846 49.3504C59.3297 49.3504 61.2308 47.4518 61.2308 45.1098C61.2308 42.7677 59.3297 40.8692 56.9846 40.8692C54.6395 40.8692 52.7385 42.7677 52.7385 45.1098C52.7385 47.4518 54.6395 49.3504 56.9846 49.3504Z" fill="#00ADFF"/>
</svg>
