<svg width="80" height="81" viewBox="0 0 80 81" fill="none" xmlns="http://www.w3.org/2000/svg">
<path fill-rule="evenodd" clip-rule="evenodd" d="M39.0722 13L51.4792 25.0467V36.9792C50.7757 36.7829 50.0524 36.6342 49.3129 36.537V26.1329H40.2538C39.003 26.1329 37.9891 25.116 37.9891 23.8618V15.1724H20.1663V57.8294H31.4902V60.0018H19.1816C18.529 60.0018 18 59.4713 18 58.8169V14.1849C18 13.5305 18.529 13 19.1816 13H39.0722ZM47.2463 23.9605L40.1554 17.0755V23.8618C40.1554 23.9163 40.1994 23.9605 40.2538 23.9605H47.2463Z" fill="#00ADFF"/>
<path d="M32.2114 47.4614C31.9909 48.1656 31.8182 48.8909 31.6971 49.6338H24.302C23.7038 49.6338 23.2188 49.1475 23.2188 48.5476C23.2188 47.9477 23.7038 47.4614 24.302 47.4614H32.2114Z" fill="#00ADFF"/>
<path d="M37.2878 39.9569C36.4922 40.6083 35.7613 41.3362 35.1061 42.1293H24.302C23.7038 42.1293 23.2188 41.643 23.2188 41.0431C23.2188 40.4432 23.7038 39.9569 24.302 39.9569H37.2878Z" fill="#00ADFF"/>
<path d="M24.302 26.5278C23.7038 26.5278 23.2188 27.0141 23.2188 27.614C23.2188 28.2139 23.7038 28.7002 24.302 28.7002H34.7396C35.3378 28.7002 35.8228 28.2139 35.8228 27.614C35.8228 27.0141 35.3378 26.5278 34.7396 26.5278H24.302Z" fill="#00ADFF"/>
<path d="M24.302 33.3178C23.7038 33.3178 23.2188 33.8041 23.2188 34.404C23.2188 35.0039 23.7038 35.4902 24.302 35.4902H45.5711C46.1693 35.4902 46.6543 35.0039 46.6543 34.404C46.6543 33.8041 46.1693 33.3178 45.5711 33.3178H24.302Z" fill="#00ADFF"/>
<path fill-rule="evenodd" clip-rule="evenodd" d="M47.2451 65.8276C54.7499 65.8276 60.8337 59.7268 60.8337 52.2011C60.8337 44.6753 54.7499 38.5745 47.2451 38.5745C39.7403 38.5745 33.6565 44.6753 33.6565 52.2011C33.6565 59.7268 39.7403 65.8276 47.2451 65.8276ZM47.2451 68C55.9463 68 63 60.9266 63 52.2011C63 43.4756 55.9463 36.4022 47.2451 36.4022C38.5439 36.4022 31.4902 43.4756 31.4902 52.2011C31.4902 60.9266 38.5439 68 47.2451 68Z" fill="#00ADFF"/>
<path d="M51.822 58.3309C51.2238 58.3368 50.7341 57.8554 50.7282 57.2555L50.6616 50.481L42.598 58.567C42.175 58.9912 41.4892 58.9912 41.0662 58.567C40.6432 58.1429 40.6432 57.4551 41.0662 57.031L49.0622 49.0126L42.6375 49.1143C42.0394 49.1238 41.5469 48.6452 41.5374 48.0454C41.528 47.4456 42.0052 46.9517 42.6033 46.9422L52.7916 46.781L52.8944 57.2341C52.9003 57.8339 52.4201 58.325 51.822 58.3309Z" fill="#00ADFF"/>
</svg>
