<svg width="80" height="81" viewBox="0 0 80 81" fill="none" xmlns="http://www.w3.org/2000/svg">
<path fill-rule="evenodd" clip-rule="evenodd" d="M41.0298 52.7503C41.6178 52.7503 42.0945 53.2289 42.0945 53.8192V65.072L46.8366 60.4047C47.2565 59.9914 47.9307 59.9981 48.3424 60.4196C48.754 60.8411 48.7474 61.5178 48.3275 61.9311L41.0104 69.1328L34.0404 61.9116C33.6312 61.4877 33.6419 60.811 34.0642 60.4003C34.4865 59.9895 35.1606 60.0002 35.5698 60.4241L39.965 64.9778V53.8192C39.965 53.2289 40.4417 52.7503 41.0298 52.7503ZM41.8812 33.2925C41.3898 32.7992 40.593 32.7992 40.1016 33.2925L34.4904 38.9253C33.999 39.4186 33.999 40.2184 34.4904 40.7117L35.7639 41.9901L34.2581 43.5016L32.9846 42.2233C31.6616 40.8952 31.6616 38.7419 32.9846 37.4138L38.5958 31.781C39.9189 30.4529 42.0639 30.4529 43.387 31.781L48.8132 37.228C50.1362 38.5562 50.1362 40.7094 48.8132 42.0376L43.202 47.6703C41.8789 48.9984 39.7339 48.9984 38.4109 47.6703L37.1558 46.4105L38.6616 44.8989L39.9166 46.1588C40.408 46.6521 41.2048 46.6521 41.6962 46.1588L47.3074 40.526C47.7988 40.0327 47.7988 39.2329 47.3074 38.7396L41.8812 33.2925ZM61.3201 32.4566C61.74 32.0433 62.4141 32.05 62.8258 32.4715L70 39.8167L62.8064 46.8134C62.3841 47.2242 61.71 47.2135 61.3008 46.7896C60.8917 46.3656 60.9023 45.689 61.3246 45.2782L65.8608 40.8661H54.7449C54.1569 40.8661 53.6802 40.3876 53.6802 39.7973C53.6802 39.207 54.1569 38.7284 54.7449 38.7284H65.9548L61.3052 33.9681C60.8936 33.5466 60.9002 32.8699 61.3201 32.4566ZM20.6799 32.4566C21.0998 32.8699 21.1064 33.5466 20.6948 33.9681L16.0452 38.7284H27.2551C27.8431 38.7284 28.3198 39.207 28.3198 39.7973C28.3198 40.3876 27.8431 40.8661 27.2551 40.8661H16.1392L20.6754 45.2782C21.0977 45.689 21.1084 46.3656 20.6992 46.7896C20.29 47.2135 19.6159 47.2242 19.1936 46.8134L12 39.8167L19.1742 32.4715C19.5859 32.05 20.26 32.0433 20.6799 32.4566ZM41.0104 10.1328L48.3275 17.3346C48.7474 17.7478 48.754 18.4245 48.3424 18.846C47.9307 19.2675 47.2565 19.2742 46.8366 18.8609L42.0945 14.1936L42.0945 25.4464C42.0945 26.0367 41.6178 26.5153 41.0298 26.5153C40.4417 26.5153 39.965 26.0367 39.965 25.4464L39.965 14.2879L35.5698 18.8415C35.1606 19.2655 34.4865 19.2761 34.0642 18.8654C33.6419 18.4546 33.6312 17.7779 34.0404 17.354L41.0104 10.1328Z" fill="#00ADFF"/>
</svg>
