<svg width="80" height="80" viewBox="0 0 80 80" fill="none" xmlns="http://www.w3.org/2000/svg">
<path d="M41.5046 17.8483C39.6475 16.5002 37.0791 15.6676 33.5624 15.6676C30.0457 15.6676 27.4772 16.5002 25.6201 17.8483C23.7629 19.1963 22.7356 21.0599 22.1824 22.8837C21.2736 25.9367 21.6687 29.188 21.8268 30.536C21.8268 30.5757 21.8268 30.5757 21.8268 30.6153C20.7204 31.8841 20.6414 33.7873 20.9575 35.2146C21.1551 36.0473 21.5107 36.8799 22.0243 37.5143C22.3405 37.9504 22.8146 38.3073 23.3678 38.5452C23.8815 40.7655 24.9484 42.6687 25.8967 44.0564C26.4104 44.8098 26.9241 45.4442 27.3192 45.8406C27.4377 45.9596 27.5167 46.0785 27.5958 46.1578V46.1975C27.5563 46.475 27.5563 46.8319 27.4773 47.2284C27.3982 47.6249 27.3192 47.9024 27.2006 48.1006C27.1611 48.1403 27.1611 48.1799 27.1611 48.1799C25.5806 48.4575 22.7356 49.4091 19.7721 50.8365C16.7295 52.2638 13.3708 54.2463 11 56.5459L12.4225 58.0526C14.5958 55.9908 17.7173 54.1273 20.6809 52.7396C23.6444 51.3122 26.3313 50.44 27.5958 50.2417C28.386 50.1228 28.8207 49.528 29.0578 49.0919C29.2949 48.6161 29.4529 48.1006 29.5319 47.6249C29.611 47.1491 29.6505 46.7129 29.69 46.3561C29.69 46.1975 29.69 46.0389 29.7295 45.9596C29.7295 45.9199 29.7295 45.8803 29.7295 45.8406V45.801C29.7295 45.801 29.7295 45.801 28.7022 45.801H29.7295V45.3648L29.3739 45.008C29.3344 44.9684 29.3344 44.9684 29.2554 44.8891C29.1763 44.8098 29.0183 44.6512 28.8602 44.4529C28.5441 44.0961 28.0699 43.541 27.5958 42.8669C26.6474 41.4792 25.6201 39.6157 25.2645 37.5143L25.1064 36.642H24.2371C24.1186 36.642 23.921 36.6024 23.6444 36.2455C23.3678 35.8887 23.1307 35.3732 23.0122 34.7785C22.7356 33.4701 22.9727 32.3202 23.6049 31.8444L24 31.5273L23.9605 31.0118C23.9605 30.8136 23.921 30.536 23.8815 30.1792C23.7235 28.6725 23.4468 26.0557 24.1976 23.5181C24.6322 22.0114 25.4621 20.5841 26.8845 19.5532C28.307 18.5223 30.4013 17.769 33.6019 17.769C36.8025 17.769 38.8967 18.5223 40.3192 19.5532C41.7417 20.5841 42.532 22.0114 43.0061 23.5181C43.7569 26.0557 43.4803 28.7122 43.3223 30.1792C43.2827 30.536 43.2432 30.8136 43.2432 31.0118L43.2037 31.5273L43.5988 31.8444C44.1915 32.3599 44.4681 33.5097 44.1915 34.7785C44.0335 35.3732 43.7964 35.8887 43.5593 36.2455C43.2827 36.6024 43.0852 36.642 42.9666 36.642H42.0973L41.9393 37.5143C41.5836 39.6157 40.5563 41.5189 39.608 42.8669C39.1338 43.541 38.6992 44.0961 38.3435 44.4529C38.1855 44.6512 38.0274 44.7701 37.9484 44.8891C37.9089 44.9287 37.8693 44.9684 37.8298 45.008L37.4742 45.3648V45.801H38.5016C37.4742 45.801 37.4742 45.801 37.4742 45.801V45.8406C37.4742 45.8803 37.4742 45.9199 37.4742 45.9596C37.4742 46.0785 37.4742 46.1975 37.5138 46.3561C37.5533 46.6733 37.5927 47.1491 37.6718 47.6249C37.7508 48.1006 37.9089 48.6161 38.146 49.0919C38.383 49.528 38.8177 50.1228 39.608 50.2417C40.9119 50.44 43.6779 51.3519 46.7204 52.8189C49.763 54.2859 52.9241 56.1891 55.0578 58.3302C55.532 58.8059 55.6901 59.2421 55.7296 59.5593C55.7691 59.9161 55.6505 60.273 55.4134 60.5902C54.8998 61.3038 53.7934 61.9382 52.3314 61.9382H14.3982V64H52.3314C54.3071 64 56.1247 63.1277 57.073 61.7796C57.5472 61.0659 57.8238 60.2333 57.7448 59.3214C57.6657 58.4095 57.2311 57.5768 56.4803 56.8235C54.1095 54.4445 50.7113 52.3828 47.5898 50.9157C44.5472 49.4487 41.5836 48.4178 39.9636 48.1799C39.9636 48.1403 39.9241 48.1403 39.9241 48.1006C39.8055 47.9024 39.7265 47.5852 39.6475 47.2284C39.5684 46.8715 39.5289 46.475 39.5289 46.1975V46.1578C39.608 46.0785 39.7265 45.9596 39.8055 45.8406C40.1611 45.4045 40.6748 44.8098 41.228 44.0564C42.1763 42.6687 43.2432 40.7655 43.7569 38.5452C44.3101 38.3469 44.7447 37.9504 45.1004 37.5143C45.614 36.8799 45.9697 36.0473 46.1672 35.2146C46.4833 33.7873 46.4043 31.8841 45.2979 30.6153C45.2979 30.5757 45.2979 30.5757 45.2979 30.536C45.456 29.188 45.8511 25.8971 44.9423 22.8837C44.3891 21.0599 43.3618 19.236 41.5046 17.8483Z" fill="#00ADFF"/>
<path fill-rule="evenodd" clip-rule="evenodd" d="M45.7667 12H62.553L67 19.6302L54.2278 35.638L44.3531 25.7295L45.6105 24.4679L51.9101 30.7892L48.0935 20.4434H42.9199C41.9174 20.4434 41.3014 19.3423 41.8237 18.4836L45.7667 12ZM49.9895 20.4434L54.1412 31.6973L58.1641 20.4434H49.9895ZM60.0531 20.4434L56.7899 29.572L64.0734 20.4434H60.0531ZM64.3742 18.6592H60.7335L62.1993 14.9274L64.3742 18.6592ZM60.737 13.7842H55.9963L59.1652 17.7861L60.737 13.7842ZM57.5855 18.6592L54.1434 14.3124L50.5912 18.6592H57.5855ZM49.0095 17.7809L52.2755 13.7842H47.541L49.0095 17.7809ZM46.0672 14.931L47.4371 18.6592H43.7999L46.0672 14.931Z" fill="#00ADFF"/>
</svg>
