<svg width="80" height="81" viewBox="0 0 80 81" fill="none" xmlns="http://www.w3.org/2000/svg">
<path d="M20.2949 14.1809C20.2398 14.1809 20.1951 14.2253 20.1951 14.28V55.1217C20.1951 55.724 19.7037 56.2122 19.0976 56.2122C18.4914 56.2122 18 55.724 18 55.1217V14.28C18 13.0208 19.0275 12 20.2949 12H37.8559C38.462 12 38.9534 12.4882 38.9534 13.0904C38.9534 13.6927 38.462 14.1809 37.8559 14.1809H20.2949Z" fill="#00ADFF"/>
<path d="M25.7827 18.6417C25.7827 18.587 25.8274 18.5426 25.8825 18.5426H43.4435C44.0496 18.5426 44.541 18.0544 44.541 17.4522C44.541 16.8499 44.0496 16.3617 43.4435 16.3617H25.8825C24.615 16.3617 23.5876 17.3825 23.5876 18.6417V61.0696C23.5876 61.6718 24.079 62.16 24.6851 62.16C25.2913 62.16 25.7827 61.6718 25.7827 61.0696V18.6417Z" fill="#00ADFF"/>
<path d="M35.4612 35.3948C34.855 35.3948 34.3636 35.883 34.3636 36.4852C34.3636 37.0874 34.855 37.5757 35.4612 37.5757H46.0377C46.6439 37.5757 47.1353 37.0874 47.1353 36.4852C47.1353 35.883 46.6439 35.3948 46.0377 35.3948H35.4612Z" fill="#00ADFF"/>
<path d="M35.4612 42.2114C34.855 42.2114 34.3636 42.6996 34.3636 43.3018C34.3636 43.9041 34.855 44.3923 35.4612 44.3923H57.0133C57.6195 44.3923 58.1109 43.9041 58.1109 43.3018C58.1109 42.6996 57.6195 42.2114 57.0133 42.2114H35.4612Z" fill="#00ADFF"/>
<path d="M35.4612 48.8765C34.855 48.8765 34.3636 49.3647 34.3636 49.967C34.3636 50.5692 34.855 51.0574 35.4612 51.0574H51.2262C51.8323 51.0574 52.3237 50.5692 52.3237 49.967C52.3237 49.3647 51.8323 48.8765 51.2262 48.8765H35.4612Z" fill="#00ADFF"/>
<path d="M35.4612 56.4104C34.855 56.4104 34.3636 56.8986 34.3636 57.5009C34.3636 58.1031 34.855 58.5913 35.4612 58.5913H57.0133C57.6195 58.5913 58.1109 58.1031 58.1109 57.5009C58.1109 56.8986 57.6195 56.4104 57.0133 56.4104H35.4612Z" fill="#00ADFF"/>
<path fill-rule="evenodd" clip-rule="evenodd" d="M63 33.9078L50.4279 21.8139H30.2727C29.6115 21.8139 29.0754 22.3465 29.0754 23.0035V67.8104C29.0754 68.4674 29.6115 69 30.2727 69H61.8027C62.4639 69 63 68.4674 63 67.8104V33.9078ZM31.2705 23.9948H49.3304V32.7183C49.3304 33.9775 50.3578 34.9983 51.6253 34.9983H60.8049V66.8191H31.2705V23.9948ZM51.5255 25.9054L58.7108 32.8174H51.6253C51.5702 32.8174 51.5255 32.773 51.5255 32.7183V25.9054Z" fill="#00ADFF"/>
</svg>
