<svg width="80" height="81" viewBox="0 0 80 81" fill="none" xmlns="http://www.w3.org/2000/svg">
<path d="M40 29.1323C33.9032 29.1323 29 34.0356 29 40.1323C29 46.2291 33.9355 51.1323 40 51.1323C46.0645 51.1323 51 46.2291 51 40.1323C51 34.0356 46.0645 29.1323 40 29.1323ZM40 49.5517C34.8064 49.5517 30.5807 45.3259 30.5807 40.1323C30.5807 34.9388 34.8064 30.713 40 30.713C45.1935 30.713 49.4193 34.9388 49.4193 40.1323C49.3871 45.3259 45.1935 49.5517 40 49.5517Z" fill="#00ADFF"/>
<path d="M40 35.1323C37.226 35.1323 35 37.3584 35 40.1323C35 42.9063 37.226 45.1323 40 45.1323C42.774 45.1323 45 42.9063 45 40.1323C45 37.3584 42.774 35.1323 40 35.1323ZM40 43.4542C38.1507 43.4542 36.6781 41.9474 36.6781 40.1323C36.6781 38.3173 38.1849 36.8104 40 36.8104C41.8151 36.8104 43.3219 38.3173 43.3219 40.1323C43.2877 41.9474 41.8151 43.4542 40 43.4542Z" fill="#00ADFF"/>
<path d="M59.1575 34.1213H64.2086C65.7372 34.1213 67 35.3832 67 36.9109V43.3537C67 44.8814 65.7372 46.1434 64.2086 46.1434H59.1575C58.36 46.1434 57.6622 46.5751 57.3631 47.339C57.064 48.1028 57.1969 48.8666 57.7951 49.4644L61.3508 53.0179C61.8825 53.5493 62.1815 54.2467 62.1815 54.9773C62.1815 55.708 61.8825 56.4054 61.3508 56.9368L56.7981 61.4866C55.7348 62.5493 53.9071 62.5493 52.8769 61.4866L49.3212 57.9331C48.7563 57.3685 47.9588 57.2024 47.1945 57.5013C46.4302 57.8002 45.9981 58.4644 45.9981 59.2947V64.3427C45.9981 65.8703 44.7354 67.1323 43.2068 67.1323H36.76C35.2314 67.1323 33.9686 65.8703 33.9686 64.3427V59.2947C33.9686 58.4976 33.5366 57.8002 32.7723 57.5013L33.5366 55.6416C35.032 56.2726 35.9625 57.6674 35.9625 59.2947V64.3427C35.9625 64.7744 36.328 65.1065 36.7268 65.1065H43.24C43.672 65.1065 44.0043 64.7412 44.0043 64.3427V59.2947C44.0043 57.6674 44.9348 56.2726 46.4302 55.6416C47.9256 55.0106 49.5871 55.3427 50.7169 56.505L54.2726 60.0585C54.5717 60.3574 55.0702 60.3574 55.3692 60.0585L59.9219 55.5087C60.2209 55.2098 60.2209 54.7117 59.9219 54.4128L56.3662 50.8593C55.2031 49.6969 54.904 48.0696 55.5022 46.5751C56.1335 45.0807 57.5292 44.1508 59.1575 44.1508H64.2086C64.6406 44.1508 64.9729 43.7855 64.9729 43.3869V36.9441C64.9729 36.5124 64.6074 36.1803 64.2086 36.1803H59.1575C57.5292 36.1803 56.1335 35.2504 55.5022 33.7559C54.8708 32.2615 55.2031 30.601 56.3662 29.4718L59.9219 25.9183C60.2209 25.6194 60.2209 25.1213 59.9219 24.8224L55.3692 20.2725C55.0702 19.9737 54.5717 19.9737 54.2726 20.2725L50.7169 23.826C49.5538 24.9884 47.9256 25.2873 46.4302 24.6895C44.9348 24.0585 44.0043 22.6637 44.0043 21.0364V15.9884C44.0043 15.5567 43.6388 15.2246 43.24 15.2246H36.7932C36.3612 15.2246 36.0289 15.5899 36.0289 15.9884V20.97C36.0289 22.5973 35.0985 23.9921 33.6031 24.5899C32.1077 25.2209 30.4462 24.8888 29.3163 23.7264L25.7606 20.1729C25.4615 19.874 24.9631 19.874 24.664 20.1729L20.1114 24.7227C19.8123 25.0216 19.8123 25.5198 20.1114 25.8187L23.6671 29.3722C24.8302 30.5345 25.1292 32.1618 24.5311 33.6563C23.8997 35.1508 22.504 36.0807 20.8757 36.0807H15.8246C15.3926 36.0807 15.0603 36.446 15.0603 36.8445V43.2873C15.0603 43.719 15.4258 44.0511 15.8246 44.0511H20.8757C22.504 44.0511 23.8997 44.981 24.5311 46.4755C25.1625 47.97 24.8302 49.6305 23.6671 50.7596L20.1114 54.3131C19.8123 54.612 19.8123 55.1102 20.1114 55.4091L24.664 59.9589L23.2351 61.3869L18.6492 56.9035C18.1175 56.3722 17.8517 55.6748 17.8517 54.9441C17.8517 54.2135 18.1508 53.5161 18.6492 52.9847L22.2049 49.4312C22.7699 48.8666 22.936 48.0696 22.6369 47.3058C22.3378 46.5419 21.64 46.1102 20.8425 46.1102H15.7914C14.2628 46.1102 13 44.8482 13 43.3205V36.8777C13 35.35 14.2628 34.088 15.7914 34.088H20.8425C21.64 34.088 22.3378 33.6563 22.6369 32.8925C22.936 32.1286 22.8031 31.3648 22.2049 30.767L18.6492 27.2467C18.1175 26.7154 17.8517 26.0179 17.8517 25.2873C17.8517 24.5567 18.1508 23.8593 18.6492 23.3279L23.2018 18.7781C24.2652 17.7154 26.0929 17.7154 27.1231 18.7781L30.6788 22.3316C31.2437 22.8962 32.0412 23.0622 32.8056 22.7633C33.5699 22.4644 34.0019 21.8002 34.0019 20.97V15.922C34.0019 14.3943 35.2314 13.1323 36.7932 13.1323H43.24C44.7686 13.1323 46.0314 14.3943 46.0314 15.922V20.97C46.0314 21.767 46.4634 22.4644 47.2277 22.7633C47.9588 23.0622 48.7563 22.9294 49.3545 22.3316L52.9102 18.7781C53.9736 17.7154 55.8012 17.7154 56.8314 18.7781L61.384 23.3279C61.9157 23.8593 62.1815 24.5567 62.1815 25.2873C62.1815 26.0179 61.8825 26.7154 61.384 27.2467L57.8283 30.8002C57.2634 31.3648 57.0972 32.1618 57.3963 32.9257C57.6622 33.6563 58.3268 34.1213 59.1575 34.1213Z" fill="#00ADFF"/>
</svg>
