<svg width="80" height="81" viewBox="0 0 80 81" fill="none" xmlns="http://www.w3.org/2000/svg">
<path d="M65.4721 15H16.5279C14.563 15 13 16.6049 13 18.5219V39.5638H15.3222V27.8837H66.5885V62.4781C66.5885 63.1023 66.0526 63.6372 65.4274 63.6372H16.4833C15.8581 63.6372 15.3222 63.1023 15.3222 62.4781V57.5743H13L13 62.4781C13 64.4397 14.6077 66 16.5279 66H65.4721C67.437 66 69 64.3951 69 62.4781V18.5219C69 16.5603 67.3923 15 65.4721 15ZM15.3222 25.5656V18.5219C15.3222 17.8977 15.8581 17.3628 16.4833 17.3628H65.4274C66.0526 17.3628 66.5885 17.8977 66.5885 18.5219V25.5656H15.3222Z" fill="#00ADFF"/>
<path d="M20.4578 20.9292C19.8326 20.9292 19.2967 21.4642 19.2967 22.0883C19.2967 22.7124 19.8326 23.2474 20.4578 23.2474C21.083 23.2474 21.6189 22.7124 21.6189 22.0883C21.6189 21.4196 21.083 20.9292 20.4578 20.9292Z" fill="#00ADFF"/>
<path d="M25.1468 20.9292C24.5216 20.9292 23.9857 21.4642 23.9857 22.0883C23.9857 22.7124 24.5216 23.2474 25.1468 23.2474C25.772 23.2474 26.3079 22.7124 26.3079 22.0883C26.3079 21.4196 25.772 20.9292 25.1468 20.9292Z" fill="#00ADFF"/>
<path d="M29.7911 20.9292C29.1659 20.9292 28.63 21.4642 28.63 22.0883C28.63 22.7124 29.1659 23.2474 29.7911 23.2474C30.4163 23.2474 30.9522 22.7124 30.9522 22.0883C30.9522 21.4196 30.4609 20.9292 29.7911 20.9292Z" fill="#00ADFF"/>
<path d="M34.4801 20.9292C33.8549 20.9292 33.319 21.4642 33.319 22.0883C33.319 22.7124 33.8549 23.2474 34.4801 23.2474C35.1053 23.2474 35.6412 22.7124 35.6412 22.0883C35.6412 21.4196 35.1053 20.9292 34.4801 20.9292Z" fill="#00ADFF"/>
<path d="M62.3461 20.9292C61.7209 20.9292 61.185 21.4642 61.185 22.0883C61.185 22.7124 61.7209 23.2474 62.3461 23.2474C62.9713 23.2474 63.5071 22.7124 63.5071 22.0883C63.5071 21.4196 63.0606 20.9292 62.3461 20.9292Z" fill="#00ADFF"/>
<path fill-rule="evenodd" clip-rule="evenodd" d="M32.8724 42.8628V53.1162H48.949V42.8628H32.8724ZM32.6491 40.4108C31.4159 40.4108 30.4163 41.4088 30.4163 42.6399V53.3392C30.4163 54.5702 31.4159 55.5682 32.6491 55.5682H49.1722C50.4054 55.5682 51.4051 54.5702 51.4051 53.3392V42.6399C51.4051 41.4088 50.4054 40.4108 49.1722 40.4108H32.6491Z" fill="#00ADFF"/>
<path fill-rule="evenodd" clip-rule="evenodd" d="M45.3764 40.4108V39.0734C45.3764 36.6113 43.377 34.6154 40.9107 34.6154C38.4443 34.6154 36.445 36.6113 36.445 39.0734V40.4108H45.3764ZM40.9107 32.1635C37.0878 32.1635 33.9888 35.2572 33.9888 39.0734V40.7229C33.9888 41.9047 34.9485 42.8628 36.1324 42.8628H45.689C46.8728 42.8628 47.8325 41.9047 47.8325 40.7229V39.0734C47.8325 35.2572 44.7335 32.1635 40.9107 32.1635Z" fill="#00ADFF"/>
</svg>
