<svg width="80" height="81" viewBox="0 0 80 81" fill="none" xmlns="http://www.w3.org/2000/svg">
<path d="M41.166 22.096C39.2686 20.726 36.6446 19.8798 33.0516 19.8798C29.4586 19.8798 26.8345 20.726 24.9371 22.096C23.0397 23.4661 21.9901 25.36 21.4249 27.2136C20.4963 30.3163 20.9 33.6206 21.0615 34.9906C21.0615 35.0309 21.0615 35.0309 21.0615 35.0712C19.9312 36.3607 19.8504 38.2948 20.1734 39.7455C20.3752 40.5917 20.7386 41.4379 21.2634 42.0826C21.5863 42.5259 22.0708 42.8885 22.636 43.1303C23.1608 45.3868 24.2508 47.321 25.2197 48.7314C25.7445 49.497 26.2693 50.1417 26.673 50.5447C26.7941 50.6656 26.8749 50.7864 26.9556 50.867V50.9073C26.9152 51.1894 26.9153 51.5521 26.8345 51.955C26.7538 52.358 26.673 52.64 26.5519 52.8415C26.5115 52.8818 26.5115 52.9221 26.5115 52.9221C24.8967 53.2042 21.9901 54.1713 18.9623 55.6219C15.8538 57.0725 12.4222 59.0873 10 61.4245L11.4534 62.9557C13.6738 60.8603 16.863 58.9664 19.8908 57.5561C22.9186 56.1054 25.6638 55.2189 26.9556 55.0175C27.763 54.8966 28.2071 54.2921 28.4493 53.8489C28.6916 53.3653 28.853 52.8415 28.9338 52.358C29.0145 51.8744 29.0549 51.4312 29.0953 51.0685C29.0953 50.9073 29.0953 50.7461 29.1356 50.6655C29.1356 50.6253 29.1356 50.585 29.1356 50.5447V50.5044C29.1356 50.5044 29.1356 50.5044 28.086 50.5044H29.1356V50.0611L28.7723 49.6985C28.7319 49.6582 28.7319 49.6582 28.6512 49.5776C28.5705 49.497 28.409 49.3358 28.2475 49.1343C27.9245 48.7717 27.4401 48.2075 26.9556 47.5225C25.9867 46.1122 24.9371 44.2183 24.5738 42.0826L24.4123 41.1961H23.5241C23.403 41.1961 23.2012 41.1558 22.9186 40.7931C22.636 40.4305 22.3938 39.9067 22.2726 39.3022C21.99 37.9725 22.2323 36.8039 22.8782 36.3203L23.2819 35.998L23.2415 35.4742C23.2415 35.2727 23.2012 34.9906 23.1608 34.6279C22.9993 33.0967 22.7167 30.4372 23.4838 27.8583C23.9278 26.3271 24.7756 24.8764 26.229 23.8287C27.6823 22.7811 29.8219 22.0154 33.092 22.0154C36.362 22.0154 38.5016 22.7811 39.9549 23.8287C41.4083 24.8764 42.2157 26.3271 42.7001 27.8583C43.4671 30.4372 43.1846 33.137 43.0231 34.6279C42.9827 34.9906 42.9424 35.2727 42.9424 35.4742L42.902 35.998L43.3057 36.3203C43.9112 36.8442 44.1938 38.0128 43.9112 39.3022C43.7497 39.9067 43.5075 40.4305 43.2653 40.7931C42.9827 41.1558 42.7808 41.1961 42.6597 41.1961H41.7716L41.6101 42.0826C41.2468 44.2183 40.1971 46.1525 39.2282 47.5225C38.7438 48.2075 38.2997 48.7717 37.9364 49.1343C37.7749 49.3358 37.6134 49.4567 37.5327 49.5776C37.4923 49.6179 37.4519 49.6582 37.4116 49.6985L37.0482 50.0611V50.5044H38.0979C37.0483 50.5044 37.0482 50.5044 37.0482 50.5044V50.5447C37.0482 50.585 37.0482 50.6253 37.0482 50.6655C37.0482 50.7864 37.0483 50.9073 37.0886 51.0685C37.129 51.3909 37.1693 51.8744 37.2501 52.358C37.3308 52.8415 37.4923 53.3653 37.7346 53.8489C37.9768 54.2921 38.4208 54.8966 39.2282 55.0175C40.5605 55.2189 43.3864 56.1457 46.4949 57.6367C49.6035 59.1276 52.8331 61.0618 55.0131 63.2377C55.4975 63.7213 55.6591 64.1645 55.6994 64.4869C55.7398 64.8496 55.6187 65.2122 55.3764 65.5346C54.8516 66.2599 53.7213 66.9046 52.2276 66.9046H13.4719V69H52.2276C54.2461 69 56.1031 68.1135 57.072 66.7435C57.5565 66.0181 57.8391 65.1719 57.7583 64.2451C57.6776 63.3183 57.2335 62.4721 56.4665 61.7065C54.0442 59.2888 50.5724 57.1934 47.3831 55.7025C44.2746 54.2116 41.2468 53.1639 39.5916 52.9221C39.5916 52.8818 39.5512 52.8818 39.5512 52.8415C39.4301 52.64 39.3493 52.3177 39.2686 51.955C39.1879 51.5923 39.1475 51.1894 39.1475 50.9073V50.867C39.2283 50.7864 39.3494 50.6656 39.4301 50.5447C39.7934 50.1014 40.3182 49.497 40.8834 48.7314C41.8523 47.321 42.9423 45.3868 43.4671 43.1303C44.0323 42.9288 44.4764 42.5259 44.8398 42.0826C45.3646 41.4379 45.7279 40.5917 45.9297 39.7455C46.2527 38.2948 46.172 36.3607 45.0416 35.0712C45.0416 35.0309 45.0416 35.0309 45.0416 34.9906C45.2031 33.6206 45.6068 30.276 44.6783 27.2136C44.1131 25.36 43.0635 23.5064 41.166 22.096Z" fill="#00ADFF"/>
<path d="M48.3924 28.3418C48.1098 28.3418 47.8272 28.3418 47.5446 28.3418C47.4638 27.6165 47.3427 26.9315 47.1813 26.2465C47.585 26.2062 47.9887 26.2062 48.3924 26.2062C51.5816 26.2062 53.9231 26.9315 55.6187 28.1001C57.3142 29.3089 58.2831 30.9208 58.7676 32.5326C59.6154 35.1921 59.252 38.0934 59.0906 39.2619C60.0998 40.4305 60.1401 42.0826 59.8576 43.3721C59.6961 44.1377 59.3328 44.863 58.8887 45.4271C58.6061 45.7898 58.2024 46.1122 57.718 46.3136C57.2335 48.2478 56.2646 49.8999 55.4168 51.0685C54.9324 51.7132 54.4883 52.2774 54.125 52.64C54.0442 52.7206 53.9635 52.8012 53.9231 52.8818C53.9231 53.1236 53.9635 53.4056 54.0442 53.6877C54.125 54.0101 54.2057 54.2519 54.2865 54.413V54.4533C55.6994 54.6951 58.1217 55.501 60.7054 56.6293C63.3698 57.8382 66.3168 59.45 68.4969 61.3439C69.3043 62.0289 69.8291 62.8751 69.9502 63.7616C70.1117 64.6481 69.8695 65.5346 69.385 66.2196C68.4565 67.63 66.6398 68.4762 64.6213 68.4762H61.6742C62.0376 67.8314 62.3202 67.1061 62.4413 66.3808H64.6617C66.1554 66.3808 67.2454 65.7361 67.6894 65.0913C67.8913 64.769 67.972 64.4466 67.9317 64.1645C67.8913 63.8422 67.6895 63.4392 67.1647 62.996C65.1865 61.3036 62.4413 59.7723 59.8576 58.6038C57.2738 57.4352 54.9728 56.7099 53.8828 56.5487C53.1157 56.4278 52.6716 55.904 52.4698 55.4607C52.2276 55.0175 52.1065 54.5339 52.0257 54.131C51.945 53.728 51.9046 53.3251 51.8642 53.0027C51.8642 52.8415 51.8642 52.7206 51.8239 52.64C51.8239 52.5997 51.8239 52.5594 51.8239 52.5191V52.4788C51.8239 52.4788 51.8239 52.4788 52.8735 52.4788H51.8239V51.9953L52.1872 51.6729H52.2276C52.2276 51.6729 52.2679 51.6326 52.3083 51.5924C52.389 51.5118 52.5102 51.3909 52.6716 51.2297C52.9542 50.9073 53.3579 50.4641 53.802 49.8596C54.6498 48.6911 55.538 47.0793 55.8609 45.3063L56.0224 44.4197H56.9105C56.9509 44.4197 57.1124 44.3795 57.3546 44.0974C57.5968 43.8153 57.7987 43.4124 57.9198 42.8885C58.162 41.8005 57.9198 40.8737 57.4353 40.5111L56.9913 40.1887L57.0316 39.6246C57.0316 39.4231 57.072 39.1813 57.1124 38.859C57.2739 37.5695 57.5161 35.3533 56.8298 33.1773C56.4261 31.8878 55.6994 30.7193 54.4883 29.8328C53.1561 28.9866 51.2587 28.3418 48.3924 28.3418Z" fill="#00ADFF"/>
<path fill-rule="evenodd" clip-rule="evenodd" d="M39.8742 13.5332L51.1779 13.5332V15.7495L39.8742 15.7495V13.5332Z" fill="#00ADFF"/>
<path fill-rule="evenodd" clip-rule="evenodd" d="M44.4158 20.2827V9H46.6362V20.2827H44.4158Z" fill="#00ADFF"/>
<path fill-rule="evenodd" clip-rule="evenodd" d="M55.215 18.7717H63.289V20.9879L55.215 20.9879V18.7717Z" fill="#00ADFF"/>
<path fill-rule="evenodd" clip-rule="evenodd" d="M58.1418 23.9093V15.8502H60.3622V23.9093H58.1418Z" fill="#00ADFF"/>
<path fill-rule="evenodd" clip-rule="evenodd" d="M60.4631 30.0544H68.5372V32.2707H60.4631V30.0544Z" fill="#00ADFF"/>
<path fill-rule="evenodd" clip-rule="evenodd" d="M63.39 35.1921V27.133H65.6104V35.1921H63.39Z" fill="#00ADFF"/>
</svg>
