<svg width="80" height="80" viewBox="0 0 80 80" fill="none" xmlns="http://www.w3.org/2000/svg">
<path fill-rule="evenodd" clip-rule="evenodd" d="M61.999 24.7624C61.9338 23.1508 60.6255 21.7726 59.0215 21.6249C58.9651 21.6196 57.6198 21.4943 56.2813 21.3094C54.0826 21.0071 52.02 20.6097 50.1515 20.1282C48.2898 19.6493 46.5976 19.0822 45.1198 18.4419C43.5883 17.7782 41.9837 16.6188 41.9665 16.6058C41.4287 16.2157 40.7297 16 39.9994 16C39.2686 16 38.5701 16.2157 38.0297 16.6084C38.0146 16.6199 36.4142 17.7771 34.8806 18.4424C33.4054 19.0822 31.7127 19.6493 29.8478 20.1287C27.9793 20.6097 25.9167 21.0076 23.718 21.31C22.4748 21.4816 21.2266 21.6015 21.0093 21.6223C20.9925 21.6239 20.9819 21.625 20.9779 21.6254C19.3738 21.7732 18.0655 23.145 18.0014 24.741L18.0009 24.7485C17.9963 24.8307 18.0018 24.9134 18.1855 27.7124C18.4325 31.4809 19.1001 36.6861 20.7988 42.0206L23.1696 41.1107C21.5768 36.0536 20.9485 31.1253 20.7134 27.5448C20.5856 25.5995 20.5465 25.0026 20.5355 24.8188C20.5757 24.4997 20.896 24.179 21.2225 24.1493C21.5689 24.1164 22.7984 23.9963 24.0628 23.8229C26.357 23.5069 28.516 23.0907 30.479 22.5852L30.5228 22.5737C32.4967 22.0635 34.301 21.4567 35.8873 20.7689C37.7057 19.9804 39.5038 18.6712 39.5211 18.6586C39.7381 18.5004 40.2618 18.5009 40.4767 18.6581L40.479 18.6598C40.5543 18.7142 42.3226 19.9934 44.1157 20.771C45.7129 21.463 47.5308 22.0734 49.5198 22.5852C51.4827 23.0902 53.6413 23.5069 55.9365 23.8229C57.2004 23.9968 58.4299 24.1169 58.7888 24.1503C59.1049 24.1796 59.4195 24.496 59.4644 24.824L59.2859 27.5458C58.9824 32.179 58.0194 39.0671 55.1619 45.5719C52.8745 50.7779 49.7426 54.8518 45.8548 57.6791C44.0891 58.9611 41.2284 60.2291 41.1079 60.2813C40.5815 60.5111 39.4167 60.5111 38.8914 60.2813L38.8835 60.2778L38.8835 60.2778C38.6787 60.1866 35.8827 58.9414 34.144 57.6791C31.2659 55.5849 28.8023 52.8087 26.7949 49.4117L24.4 50.3308C26.6268 54.2065 29.3929 57.3586 32.6553 59.7304C34.6135 61.1539 37.5467 62.4611 37.8753 62.6052C38.458 62.859 39.2122 63 39.9994 63C40.7866 63 41.5408 62.859 42.1235 62.6042C42.4516 62.46 45.3848 61.1529 47.3425 59.7298C51.5986 56.6352 55.0096 52.2145 57.4816 46.5913C60.4873 39.7486 61.4966 32.5477 61.8149 27.7119C61.9991 24.8889 62.0031 24.8275 61.9993 24.7665L61.999 24.7624ZM49.9758 30.793C49.45 30.3695 48.6159 30.4614 48.1949 30.9862L38.8962 42.556L33.1754 37.4007C32.6746 36.9505 31.8358 36.9949 31.3867 37.4947C31.1603 37.7464 31.0456 38.0717 31.0633 38.4101C31.0815 38.7485 31.2297 39.0598 31.4816 39.2859L37.8216 44.9995C38.143 45.2899 38.5577 45.4492 38.9896 45.4492C39.0269 45.4492 39.0636 45.4477 39.1027 45.4452C39.1111 45.4447 39.1197 45.4441 39.1283 45.4434C39.6025 45.4043 40.0464 45.1687 40.3459 44.7953L50.1688 32.5764C50.3801 32.3121 50.4782 31.9816 50.4411 31.6447C50.4051 31.3079 50.2393 31.005 49.9758 30.793Z" fill="#00ADFF"/>
</svg>
