<svg width="237" height="53" viewBox="0 0 237 53" fill="none" xmlns="http://www.w3.org/2000/svg">
<path d="M34.7327 37.7487L43.6855 22.3202L34.7327 6.8916H16.8277L7.87498 22.3202L16.8279 37.7487H34.7325" fill="#CAC9C2"/>
<path d="M25.4808 29.3631C29.3287 29.3631 32.459 26.2482 32.459 22.4196C32.459 18.5912 29.3287 15.4766 25.4808 15.4766C21.633 15.4766 18.5027 18.5912 18.5027 22.4196C18.5027 26.2482 21.633 29.3631 25.4808 29.3631Z" fill="white"/>
<path d="M11.443 1.71896C11.9919 0.773453 13.3386 0 14.4357 0H36.4978C37.5951 0 38.9418 0.773652 39.4903 1.71896L45.9368 12.8288C45.9874 13.5465 45.8551 14.2962 45.5369 14.8441L41.1733 22.2674L33.3836 8.87747H8.76215C8.17964 8.87747 7.52779 9.0969 6.96121 9.44259L11.443 1.71896Z" fill="#5072AA"/>
<path d="M45.6557 12.3428L45.9377 12.829C45.9884 13.5468 45.8561 14.2964 45.5381 14.8443L41.1744 22.2676L38.8527 18.2773L45.6557 12.3428Z" fill="#4D6796"/>
<path d="M35.9291 5.70746C36.286 5.70704 36.6282 5.56577 36.8806 5.31464C37.133 5.06352 37.275 4.72304 37.2754 4.36789C37.275 4.01274 37.133 3.67226 36.8806 3.42113C36.6282 3.17001 36.286 3.02874 35.9291 3.02832C35.5721 3.02864 35.2298 3.16986 34.9774 3.42101C34.7249 3.67215 34.5829 4.01269 34.5825 4.36789C34.583 4.72307 34.725 5.06358 34.9774 5.31471C35.2299 5.56585 35.5721 5.70709 35.9291 5.70746V5.70746ZM13.8672 4.36789C13.8651 4.53209 13.8958 4.69508 13.9575 4.84739C14.0192 4.99969 14.1107 5.13829 14.2267 5.25514C14.3426 5.372 14.4808 5.46477 14.6331 5.5281C14.7853 5.59142 14.9487 5.62403 15.1138 5.62403C15.2788 5.62403 15.4422 5.59142 15.5945 5.5281C15.7468 5.46477 15.8849 5.372 16.0009 5.25514C16.1169 5.13829 16.2084 4.99969 16.2701 4.84739C16.3318 4.69508 16.3625 4.53209 16.3604 4.36789C16.3563 4.04164 16.2231 3.73015 15.9898 3.50091C15.7564 3.27166 15.4417 3.14311 15.1138 3.14311C14.7859 3.14311 14.4712 3.27166 14.2378 3.50091C14.0045 3.73015 13.8713 4.04164 13.8672 4.36789V4.36789Z" fill="white"/>
<path d="M0.411579 20.7293L6.9609 9.44188C7.52748 9.09618 8.17932 8.87695 8.76184 8.87695H17.6406L9.96333 22.3408L22.1181 43.7077C22.3856 44.1684 22.843 44.5876 23.3682 44.897H14.4354C13.3381 44.897 11.9914 44.1234 11.4427 43.1781L0.411579 24.1674C-0.137269 23.2219 -0.137269 21.6748 0.411579 20.7293" fill="#CC4232"/>
<path d="M6.6657 9.94834L6.95935 9.44188C7.52553 9.09618 8.17737 8.87695 8.75989 8.87695H17.6387L15.3277 12.93L6.6657 9.94834" fill="#B23F33"/>
<path d="M15.1136 41.6132C15.4706 41.6128 15.8128 41.4715 16.0652 41.2204C16.3176 40.9692 16.4596 40.6287 16.46 40.2735C16.4595 39.9183 16.3176 39.5779 16.0652 39.3267C15.8128 39.0756 15.4706 38.9343 15.1136 38.9339C14.7567 38.9343 14.4144 39.0755 14.162 39.3267C13.9095 39.5778 13.7675 39.9183 13.7671 40.2735C13.7675 40.6287 13.9095 40.9693 14.1619 41.2204C14.4144 41.4716 14.7566 41.6129 15.1136 41.6132V41.6132ZM4.63553 23.7584C4.99254 23.7581 5.33482 23.6168 5.58726 23.3656C5.8397 23.1144 5.98168 22.7739 5.98205 22.4187C5.98163 22.0635 5.83962 21.723 5.58718 21.4718C5.33475 21.2207 4.9925 21.0795 4.63553 21.0791C4.27859 21.0795 3.9364 21.2208 3.684 21.4719C3.43161 21.723 3.28963 22.0635 3.28921 22.4187C3.28953 22.7739 3.43147 23.1144 3.68388 23.3656C3.93629 23.6168 4.27854 23.7581 4.63553 23.7584" fill="white"/>
<path d="M33.2136 35.8071L45.5367 14.8434C45.8546 14.2955 45.9869 13.5459 45.9365 12.8281L50.5211 20.7292C51.0698 21.6747 51.0698 23.2218 50.5211 24.1673L39.49 43.1779C38.9415 44.1233 37.5948 44.8967 36.4975 44.8967H23.3682C22.8431 44.5875 22.3857 44.1682 22.1181 43.7074L17.6239 35.8069H33.2136" fill="#ECB02A"/>
<path d="M24.1143 44.8964H23.3506C22.8253 44.5871 22.3681 44.1679 22.1007 43.7071L17.6064 35.8066H22.3924L24.1143 44.8964Z" fill="#C79732"/>
<path d="M35.9293 41.6132C36.2863 41.6128 36.6285 41.4715 36.8809 41.2204C37.1333 40.9692 37.2753 40.6287 37.2756 40.2735C37.2752 39.9183 37.1332 39.5779 36.8808 39.3267C36.6285 39.0756 36.2863 38.9343 35.9293 38.9339C35.5723 38.9342 35.2301 39.0755 34.9776 39.3266C34.7252 39.5777 34.5832 39.9183 34.5828 40.2735C34.5831 40.6287 34.7251 40.9693 34.9775 41.2205C35.23 41.4717 35.5723 41.6129 35.9293 41.6132V41.6132ZM46.4259 23.7584C46.7829 23.7581 47.1252 23.6168 47.3777 23.3656C47.6301 23.1144 47.7721 22.7739 47.7725 22.4187C47.772 22.0635 47.63 21.723 47.3776 21.4718C47.1252 21.2207 46.7829 21.0795 46.4259 21.0791C46.069 21.0795 45.7268 21.2208 45.4744 21.4719C45.222 21.723 45.08 22.0635 45.0796 22.4187C45.08 22.7738 45.222 23.1144 45.4743 23.3655C45.7267 23.6167 46.069 23.758 46.4259 23.7584" fill="white"/>
<path opacity="0.5" d="M64.7005 22.5912C64.2505 22.8512 63.7605 22.9512 63.2605 22.9512C61.7805 22.9512 60.7305 21.9112 60.7305 20.4912C60.7305 19.0412 61.7805 18.0312 63.2705 18.0312C64.0205 18.0312 64.6505 18.2812 65.2005 18.8312L66.0205 18.0312C65.3605 17.2812 64.3805 16.8912 63.2105 16.8912C61.0205 16.8912 59.4205 18.4012 59.4205 20.4912C59.4205 22.5812 61.0205 24.0912 63.1905 24.0912C64.1805 24.0912 65.2005 23.7912 65.9305 23.2012V20.4112H64.7005V22.5912ZM70.7151 24.0912C72.8851 24.0912 74.4851 22.5712 74.4851 20.4912C74.4851 18.4112 72.8851 16.8912 70.7151 16.8912C68.5451 16.8912 66.9451 18.4212 66.9451 20.4912C66.9451 22.5612 68.5451 24.0912 70.7151 24.0912ZM70.7151 22.9512C69.3051 22.9512 68.2551 21.9212 68.2551 20.4912C68.2551 19.0612 69.3051 18.0312 70.7151 18.0312C72.1251 18.0312 73.1751 19.0612 73.1751 20.4912C73.1751 21.9212 72.1251 22.9512 70.7151 22.9512ZM78.933 24.0912C81.103 24.0912 82.703 22.5712 82.703 20.4912C82.703 18.4112 81.103 16.8912 78.933 16.8912C76.763 16.8912 75.163 18.4212 75.163 20.4912C75.163 22.5612 76.763 24.0912 78.933 24.0912ZM78.933 22.9512C77.523 22.9512 76.473 21.9212 76.473 20.4912C76.473 19.0612 77.523 18.0312 78.933 18.0312C80.343 18.0312 81.393 19.0612 81.393 20.4912C81.393 21.9212 80.343 22.9512 78.933 22.9512ZM88.661 22.5912C88.211 22.8512 87.721 22.9512 87.221 22.9512C85.741 22.9512 84.691 21.9112 84.691 20.4912C84.691 19.0412 85.741 18.0312 87.231 18.0312C87.981 18.0312 88.611 18.2812 89.161 18.8312L89.981 18.0312C89.321 17.2812 88.341 16.8912 87.171 16.8912C84.981 16.8912 83.381 18.4012 83.381 20.4912C83.381 22.5812 84.981 24.0912 87.151 24.0912C88.141 24.0912 89.161 23.7912 89.891 23.2012V20.4112H88.661V22.5912ZM91.4056 23.9912H96.3656V22.8912H92.7056V16.9912H91.4056V23.9912ZM98.492 22.9012V20.9712H101.872V19.9012H98.492V18.0812H102.302V16.9912H97.192V23.9912H102.442V22.9012H98.492ZM63.1605 34.0912C64.3105 34.0912 65.2905 33.6812 65.9405 32.9212L65.1005 32.1212C64.5905 32.6812 63.9605 32.9512 63.2305 32.9512C61.7805 32.9512 60.7305 31.9312 60.7305 30.4912C60.7305 29.0512 61.7805 28.0312 63.2305 28.0312C63.9605 28.0312 64.5905 28.3012 65.1005 28.8512L65.9405 28.0612C65.2905 27.3012 64.3105 26.8912 63.1705 26.8912C61.0205 26.8912 59.4205 28.4012 59.4205 30.4912C59.4205 32.5812 61.0205 34.0912 63.1605 34.0912ZM66.9861 33.9912H71.9461V32.8912H68.2861V26.9912H66.9861V33.9912ZM75.9155 34.0912C78.0855 34.0912 79.6855 32.5712 79.6855 30.4912C79.6855 28.4112 78.0855 26.8912 75.9155 26.8912C73.7455 26.8912 72.1455 28.4212 72.1455 30.4912C72.1455 32.5612 73.7455 34.0912 75.9155 34.0912ZM75.9155 32.9512C74.5055 32.9512 73.4555 31.9212 73.4555 30.4912C73.4555 29.0612 74.5055 28.0312 75.9155 28.0312C77.3255 28.0312 78.3755 29.0612 78.3755 30.4912C78.3755 31.9212 77.3255 32.9512 75.9155 32.9512ZM83.8734 34.0912C85.7834 34.0912 86.9334 32.9812 86.9334 30.9412V26.9912H85.6534V30.8912C85.6534 32.3312 85.0134 32.9512 83.8834 32.9512C82.7534 32.9512 82.1034 32.3312 82.1034 30.8912V26.9912H80.8034V30.9412C80.8034 32.9812 81.9534 34.0912 83.8734 34.0912ZM88.5541 33.9912H91.6141C93.8841 33.9912 95.4341 32.5912 95.4341 30.4912C95.4341 28.3912 93.8841 26.9912 91.6141 26.9912H88.5541V33.9912ZM89.8541 32.8912V28.0912H91.5541C93.1141 28.0912 94.1241 29.0412 94.1241 30.4912C94.1241 31.9412 93.1141 32.8912 91.5541 32.8912H89.8541ZM62.8005 37.9912H59.9205V44.9912H61.2205V42.9712H62.8005C64.6405 42.9712 65.7805 42.0212 65.7805 40.4812C65.7805 38.9312 64.6405 37.9912 62.8005 37.9912ZM62.7405 41.8712H61.2205V39.0912H62.7405C63.8805 39.0912 64.4705 39.6012 64.4705 40.4812C64.4705 41.3612 63.8805 41.8712 62.7405 41.8712ZM66.8787 44.9912H71.8387V43.8912H68.1787V37.9912H66.8787V44.9912ZM77.9538 44.9912H79.3138L76.1538 37.9912H74.8738L71.7238 44.9912H73.0638L73.7538 43.3712H77.2538L77.9538 44.9912ZM74.1938 42.3512L75.5038 39.2912L76.8238 42.3512H74.1938ZM81.0725 44.9912H82.3725V39.0912H84.6925V37.9912H78.7525V39.0912H81.0725V44.9912ZM90.5781 39.0812V37.9912H85.4681V44.9912H86.7681V42.3112H90.1481V41.2112H86.7681V39.0812H90.5781ZM94.8272 45.0912C96.9972 45.0912 98.5972 43.5712 98.5972 41.4912C98.5972 39.4112 96.9972 37.8912 94.8272 37.8912C92.6572 37.8912 91.0572 39.4212 91.0572 41.4912C91.0572 43.5612 92.6572 45.0912 94.8272 45.0912ZM94.8272 43.9512C93.4172 43.9512 92.3672 42.9212 92.3672 41.4912C92.3672 40.0612 93.4172 39.0312 94.8272 39.0312C96.2372 39.0312 97.2872 40.0612 97.2872 41.4912C97.2872 42.9212 96.2372 43.9512 94.8272 43.9512ZM105.755 44.9912L104.145 42.6912C105.095 42.3212 105.635 41.5412 105.635 40.4812C105.635 38.9312 104.495 37.9912 102.655 37.9912H99.7752V44.9912H101.075V42.9512H102.655C102.745 42.9512 102.835 42.9512 102.925 42.9412L104.355 44.9912H105.755ZM104.325 40.4812C104.325 41.3612 103.735 41.8812 102.595 41.8812H101.075V39.0912H102.595C103.735 39.0912 104.325 39.6012 104.325 40.4812ZM114.55 44.9912L114.54 37.9912H113.47L110.74 42.6312L107.96 37.9912H106.89V44.9912H108.13V40.4112L110.43 44.1912H111.01L113.31 40.3512L113.32 44.9912H114.55Z" fill="black"/>
<path d="M178.986 29.7128L173.652 31.9969L178.592 34.1028L184.319 31.9969L178.986 29.7128ZM170.967 32.5679L170.788 42.8462L178.592 46.2723V35.6012L170.967 32.5679V32.5679ZM187.004 32.5679L179.952 35.2448V45.3085L187.004 42.4534V32.5679ZM195.417 0.59082L190.047 2.87495L195.023 4.98085L200.75 2.87495L195.417 0.59082V0.59082ZM187.971 3.62525V13.9036L194.629 15.8313L194.844 6.48029L187.971 3.62525V3.62525ZM202.863 4.19622L196.563 6.87319V16.9734L202.863 14.1183V4.19622H202.863ZM170.197 15.057L164.864 17.3411L169.803 19.4471L175.531 17.3411L170.197 15.057V15.057ZM162.179 17.9121L162 28.1905L169.803 31.6166V20.9454L162.179 17.9121ZM178.216 17.9121L171.164 20.5891V30.6527L178.216 27.7976V17.9121ZM187.38 14.6779L182.047 16.9619L186.986 19.0679L192.714 16.9619L187.38 14.6779ZM179.361 17.533L179.183 27.8113L186.986 31.2374V20.5674L179.361 17.533V17.533ZM195.399 17.533L188.347 20.2099V30.2736L195.399 27.4185V17.533ZM212.2 0.59082L206.866 2.87489L211.806 4.9808L217.533 2.87489L212.2 0.59082ZM204.181 3.44591L204.003 13.7242L211.806 17.1503V6.48029L204.181 3.44591ZM220.219 3.44591L213.167 6.12283V16.1865L220.219 13.3314V3.44591Z" fill="#F7A80D"/>
<path d="M208.599 33.5586H209.959L206.799 26.5586H205.519L202.369 33.5586H203.709L204.399 31.9386H207.899L208.599 33.5586ZM204.839 30.9186L206.149 27.8586L207.469 30.9186H204.839ZM219.268 26.5586L217.478 31.9086L215.708 26.5586H214.508L212.698 31.8786L210.958 26.5586H209.608L211.928 33.5586H213.318L215.078 28.3786L216.808 33.5586H218.188L220.508 26.5586H219.268ZM223.537 33.6586C225.457 33.6586 226.367 32.6986 226.367 31.5786C226.367 29.0086 222.217 29.9786 222.217 28.4886C222.217 27.9586 222.657 27.5386 223.737 27.5386C224.347 27.5386 225.037 27.7186 225.667 28.0886L226.077 27.0786C225.467 26.6786 224.587 26.4586 223.747 26.4586C221.827 26.4586 220.927 27.4186 220.927 28.5486C220.927 31.1486 225.087 30.1586 225.087 31.6686C225.087 32.1886 224.627 32.5786 223.537 32.5786C222.677 32.5786 221.787 32.2586 221.227 31.8086L220.777 32.8186C221.357 33.3186 222.447 33.6586 223.537 33.6586Z" fill="#F7A80D"/>
</svg>
