<svg width="468" height="61" viewBox="0 0 468 61" fill="none" xmlns="http://www.w3.org/2000/svg">
<path d="M28.9261 15.791L17.3887 22.1829L28.9261 28.5751L40.4637 22.1829L28.9261 15.791Z" fill="#FC3E81"/>
<path d="M40.4627 22.183L28.9256 28.5749L17.3877 22.183L18.8564 21.3701L28.9256 26.9479L38.9949 21.3701L40.4627 22.183Z" fill="#F01054"/>
<path d="M39.075 11.1493C39.075 13.4576 38.3038 15.5863 37.0053 17.2909C35.3849 19.4175 34.2036 21.8264 33.5609 24.3809C33.4083 24.9828 33.2863 25.5928 33.1964 26.209C33.172 26.3697 33.1509 26.5309 33.1313 26.6922H24.7208C24.7018 26.5309 24.6806 26.3697 24.6568 26.209C24.5682 25.5942 24.4483 24.9852 24.2989 24.3847C23.6708 21.8443 22.5133 19.4463 20.8905 17.3483C19.492 15.5384 18.6907 13.2434 18.7836 10.7583C18.9805 5.52562 23.2051 1.25706 28.436 1.01158C34.2643 0.736953 39.075 5.38162 39.075 11.1493Z" fill="#FFDF46"/>
<path d="M33.5602 24.3809C33.4076 24.9829 33.2856 25.5928 33.196 26.2091L32.3233 26.6923H29.3877L33.5602 24.3809Z" fill="#F9B200"/>
<path d="M24.2988 24.3848L28.4641 26.6923H25.5279L24.6567 26.2091C24.5678 25.5943 24.4482 24.9853 24.2988 24.3848Z" fill="#F9B200"/>
<path d="M39.0755 11.1493C39.0755 13.4579 38.3046 15.5857 37.0052 17.2909C34.903 20.0495 33.5405 23.2832 33.1314 26.6922H30.7171C31.126 23.2832 32.4887 20.0495 34.5909 17.2909C35.89 15.5857 36.6612 13.4579 36.6612 11.1493C36.6612 5.95202 32.7526 1.66499 27.7158 1.0705C27.9541 1.04342 28.1939 1.02378 28.4355 1.01158C34.2633 0.736953 39.0755 5.38162 39.0755 11.1493Z" fill="#F9B200"/>
<path d="M34.5844 27.899V34.0862C34.5844 34.9196 33.909 35.5951 33.0755 35.5951H24.7761C23.9426 35.5951 23.2666 34.9196 23.2666 34.0862V27.899C23.2666 27.0656 23.9426 26.3896 24.7761 26.3896H33.0755C33.909 26.3896 34.5844 27.0656 34.5844 27.899Z" fill="#A7C7D3"/>
<path d="M32.8695 26.3896L28.9261 28.5745L24.9824 26.3896H27.9186L28.9261 26.9475L29.9333 26.3896H32.8695Z" fill="#84A1C0"/>
<path d="M34.1321 30.0743H23.8706C23.5448 30.0743 23.2803 29.81 23.2803 29.4839C23.2803 29.1578 23.5448 28.8936 23.8706 28.8936H34.1321C34.4579 28.8936 34.7221 29.1578 34.7221 29.4839C34.7221 29.81 34.4579 30.0743 34.1321 30.0743Z" fill="black"/>
<path d="M34.1321 33.0917H23.8706C23.5448 33.0917 23.2803 32.8275 23.2803 32.5014C23.2803 32.1753 23.5448 31.9111 23.8706 31.9111H34.1321C34.4579 31.9111 34.7221 32.1753 34.7221 32.5014C34.7221 32.8275 34.4579 33.0917 34.1321 33.0917Z" fill="black"/>
<path d="M34.817 12.6185C34.9169 12.9083 34.9705 13.2192 34.9705 13.5423C34.9705 15.1149 33.6958 16.3899 32.1233 16.3899C32.0147 16.3899 31.9075 16.3836 31.8013 16.3708C31.6612 17.1813 30.9554 17.7984 30.1047 17.7984H30.0913C29.4444 17.7937 28.9258 17.2602 28.9258 16.6133V5.3494C28.9258 5.1194 29.013 4.89681 29.1704 4.72991C29.6545 4.21691 30.3401 3.89648 31.1 3.89648C32.4404 3.89648 33.5485 4.8906 33.727 6.1819C35.1428 6.7369 36.1461 8.1157 36.1461 9.7287C36.1464 10.885 35.6307 11.9204 34.817 12.6185Z" fill="#FC3E81"/>
<path d="M31.8028 16.9616C31.7724 16.9616 31.7415 16.9592 31.7105 16.9541C31.0422 16.8494 30.4213 16.5414 29.9154 16.0633C29.6783 15.8395 29.6679 15.4658 29.8916 15.229C30.1157 14.9918 30.4891 14.9814 30.7259 15.2052C31.058 15.5188 31.4615 15.7202 31.8935 15.7881C32.2155 15.8386 32.4356 16.1404 32.3851 16.4626C32.3395 16.7536 32.0884 16.9616 31.8028 16.9616Z" fill="#F01054"/>
<path d="M31.5969 8.03967C31.4803 8.16697 31.3205 8.23157 31.1616 8.23157C31.0185 8.23157 30.8759 8.18037 30.7626 8.07657C30.3157 7.66647 29.7158 7.48087 29.1186 7.56657C29.0526 7.57607 28.9871 7.57367 28.9258 7.56267V6.40257C28.9336 6.40017 28.9422 6.39957 28.9511 6.39777C29.9 6.26177 30.8507 6.55607 31.5597 7.20617C31.8007 7.42637 31.8165 7.79947 31.5969 8.03967Z" fill="#F01054"/>
<path d="M28.9257 5.3494V16.6133C28.9257 17.2602 28.4071 17.7937 27.7602 17.7984H27.7459C26.8952 17.7984 26.1895 17.1813 26.0493 16.3708C25.944 16.3836 25.836 16.3899 25.7274 16.3899C24.1548 16.3899 22.8802 15.1149 22.8802 13.5423C22.8802 13.2192 22.9343 12.9083 23.0337 12.6185C22.2208 11.9204 21.7051 10.885 21.7051 9.7287C21.7051 8.1154 22.7079 6.7366 24.1242 6.1819C24.303 4.8906 25.4102 3.89648 26.7503 3.89648C27.5115 3.89648 28.197 4.21691 28.6802 4.72991C28.8382 4.89681 28.9257 5.1194 28.9257 5.3494Z" fill="#FD82AC"/>
<path d="M26.0487 16.9614C25.7631 16.9614 25.5119 16.7534 25.4661 16.4624C25.4158 16.1405 25.636 15.8385 25.9579 15.7879C26.3897 15.7203 26.7935 15.5187 27.1252 15.2051C27.3621 14.9813 27.7358 14.9919 27.9595 15.2288C28.1836 15.4656 28.1729 15.8393 27.936 16.0631C27.4299 16.5413 26.8092 16.8492 26.1406 16.9543C26.1097 16.959 26.079 16.9614 26.0487 16.9614Z" fill="#FD6096"/>
<path d="M28.9257 6.40257V7.56267C28.8644 7.57367 28.7989 7.57607 28.7329 7.56657C28.1354 7.48087 27.5358 7.66647 27.0889 8.07657C26.9756 8.18037 26.8324 8.23157 26.6899 8.23157C26.5301 8.23157 26.3712 8.16697 26.2546 8.03967C26.0344 7.79947 26.0508 7.42637 26.2909 7.20617C27 6.55607 27.9506 6.26177 28.9004 6.39777C28.909 6.39957 28.9176 6.40047 28.9257 6.40257Z" fill="#FD6096"/>
<path d="M35.3688 12.4087C34.9502 11.3078 34.012 10.4996 32.8918 10.2592C32.8558 9.71921 32.69 9.20711 32.4065 8.76671C32.23 8.49271 31.8649 8.41381 31.5906 8.59001C31.3166 8.76671 31.2377 9.13181 31.4142 9.40591C31.6135 9.71591 31.7191 10.0884 31.7191 10.4839C31.7191 10.9448 31.5733 11.3795 31.3085 11.708C31.1038 11.9618 31.144 12.3331 31.3975 12.5378C31.5067 12.6259 31.6376 12.6684 31.7676 12.6684C31.9399 12.6684 32.111 12.5935 32.2276 12.4489C32.4651 12.1543 32.6436 11.8112 32.757 11.4417C33.4306 11.6285 34.0082 12.151 34.2655 12.8282C34.3551 13.0639 34.5795 13.2088 34.8172 13.2088C34.8871 13.2088 34.9579 13.1963 35.027 13.1701C35.3317 13.0544 35.4849 12.7137 35.3688 12.4087Z" fill="#F01054"/>
<path d="M26.132 10.4838C26.132 10.0884 26.2373 9.71578 26.437 9.40608C26.6137 9.13208 26.5346 8.76668 26.2605 8.59018C25.9865 8.41378 25.6211 8.49258 25.4447 8.76668C25.1611 9.20698 24.9954 9.71908 24.9591 10.2592C23.8391 10.4999 22.9009 11.3077 22.482 12.4089C22.3662 12.7136 22.5192 13.0546 22.8239 13.1704C22.8929 13.1965 22.964 13.209 23.0336 13.209C23.2717 13.209 23.4957 13.0641 23.5856 12.8285C23.843 12.1513 24.4202 11.6285 25.0941 11.4419C25.2075 11.8115 25.386 12.1542 25.6235 12.4488C25.7401 12.5937 25.9109 12.6687 26.0835 12.6687C26.2135 12.6687 26.3441 12.6261 26.4533 12.5381C26.7071 12.3334 26.747 11.9617 26.5423 11.7082C26.2778 11.3794 26.132 10.9447 26.132 10.4838Z" fill="#FD6096"/>
<path d="M40.4629 22.1826V33.2569C40.4629 33.5426 40.3079 33.8062 40.0576 33.9446L29.3067 39.9014C29.3058 39.902 29.3043 39.902 29.3034 39.9029C29.1856 39.9681 29.0564 39.9996 28.9258 39.9996V28.5745L40.4629 22.1826Z" fill="#E29C6D"/>
<path d="M28.9256 28.5745V39.9996C28.7989 39.9996 28.6721 39.9696 28.5564 39.9077C28.5525 39.9059 28.5477 39.9035 28.5439 39.9014L17.7938 33.9446C17.5436 33.8062 17.3877 33.5426 17.3877 33.2569V22.1826L28.9256 28.5745Z" fill="#EDB48A"/>
<path d="M42.8798 27.8776L32.7049 33.5149C32.3354 33.7196 31.87 33.5923 31.6561 33.2278L28.9258 28.5747L40.4634 22.1826L43.1741 26.8026C43.3955 27.1799 43.2627 27.6657 42.8798 27.8776Z" fill="#EDB48A"/>
<path d="M14.9717 27.8776L25.1466 33.5149C25.5165 33.7196 25.9818 33.5923 26.1958 33.2278L28.9258 28.5747L17.3884 22.1826L14.6775 26.8026C14.4561 27.1799 14.5891 27.6657 14.9717 27.8776Z" fill="#E29C6D"/>
<path d="M16.6642 17.5139C16.3396 17.5139 16.0756 17.2515 16.0741 16.9265L16.0732 16.7795C16.0718 16.4537 16.3345 16.188 16.6606 16.1865H16.6636C16.9882 16.1865 17.2521 16.4487 17.2536 16.7736L17.2545 16.9206C17.256 17.2467 16.993 17.5121 16.6672 17.5139C16.6663 17.5139 16.6651 17.5139 16.6642 17.5139Z" fill="#7884EA"/>
<path d="M16.669 19.6799C16.3444 19.6799 16.0804 19.4177 16.0787 19.0925L16.0781 18.9458C16.0763 18.6197 16.3393 18.3543 16.6651 18.3525H16.6681C16.9927 18.3525 17.2566 18.615 17.2584 18.9399L17.259 19.0869C17.2608 19.4127 16.9978 19.6784 16.672 19.6799C16.6708 19.6799 16.6699 19.6799 16.669 19.6799Z" fill="#7884EA"/>
<path d="M17.6759 18.5207C17.3513 18.5207 17.0874 18.2586 17.0859 17.9337C17.0841 17.6079 17.3468 17.3421 17.6729 17.3404L17.8199 17.3398H17.8229C18.1475 17.3398 18.4114 17.6019 18.4132 17.9268C18.4147 18.2526 18.152 18.5184 17.8259 18.5201L17.6792 18.5207C17.678 18.5207 17.6768 18.5207 17.6759 18.5207Z" fill="#7884EA"/>
<path d="M15.5094 18.5256C15.1847 18.5256 14.9208 18.2635 14.919 17.9386C14.9172 17.6128 15.1803 17.3471 15.5061 17.3453L15.6531 17.3447H15.6563C15.981 17.3447 16.2446 17.6068 16.2464 17.9317C16.2482 18.2575 15.9851 18.5233 15.6593 18.525L15.5123 18.5256C15.5114 18.5256 15.5102 18.5256 15.5094 18.5256Z" fill="#7884EA"/>
<path d="M42.6974 13.6633C42.3731 13.6633 42.1089 13.4012 42.1074 13.0759L42.1065 12.9293C42.105 12.6031 42.368 12.3377 42.6938 12.3359H42.6968C43.0214 12.3359 43.2854 12.5984 43.2871 12.9233L43.2877 13.0703C43.2895 13.3961 43.0265 13.6618 42.7004 13.6633C42.6995 13.6633 42.6986 13.6633 42.6974 13.6633Z" fill="#9BE058"/>
<path d="M42.7022 15.8293C42.3776 15.8293 42.1137 15.5669 42.1122 15.242L42.1113 15.0953C42.1095 14.7692 42.3726 14.5035 42.6984 14.502H42.7016C43.0263 14.502 43.2899 14.7641 43.2917 15.0891L43.2926 15.236C43.2941 15.5619 43.0313 15.8276 42.7055 15.8293C42.7043 15.8293 42.7034 15.8293 42.7022 15.8293Z" fill="#9BE058"/>
<path d="M43.7092 14.6705C43.3845 14.6705 43.1206 14.4081 43.1191 14.0832C43.1176 13.7571 43.3807 13.4917 43.7065 13.4902L43.8535 13.4893H43.8561C44.1811 13.4893 44.445 13.7517 44.4465 14.0769C44.448 14.4027 44.1849 14.6682 43.8591 14.6699L43.7121 14.6705C43.7112 14.6705 43.7101 14.6705 43.7092 14.6705Z" fill="#9BE058"/>
<path d="M41.5425 14.6751C41.2179 14.6751 40.954 14.4126 40.9522 14.0877C40.9507 13.7619 41.2137 13.4962 41.5398 13.4947L41.6868 13.4941H41.6895C42.0141 13.4941 42.278 13.7565 42.2798 14.0815C42.2813 14.4076 42.0183 14.673 41.6922 14.6745L41.5452 14.6751C41.5443 14.6751 41.5434 14.6751 41.5425 14.6751Z" fill="#9BE058"/>
<path d="M17.6739 3.47676C17.3493 3.47676 17.0857 3.21433 17.0839 2.8897L17.083 2.74272C17.0812 2.4166 17.3443 2.1509 17.6701 2.14941H17.6733C17.998 2.14941 18.2616 2.41155 18.2634 2.73647L18.2643 2.88346C18.2658 3.20927 18.003 3.47498 17.6772 3.47676C17.676 3.47676 17.6748 3.47676 17.6739 3.47676Z" fill="#FC3E81"/>
<path d="M17.6788 5.64381C17.3545 5.64381 17.0906 5.38171 17.0888 5.05671L17.0879 4.90971C17.0864 4.58391 17.3491 4.31821 17.6753 4.31641H17.6782C18.0029 4.31641 18.2668 4.57891 18.2686 4.90351L18.2692 5.05051C18.2709 5.37661 18.0079 5.64231 17.6821 5.64381C17.6812 5.64381 17.68 5.64381 17.6788 5.64381Z" fill="#FC3E81"/>
<path d="M18.686 4.48494C18.3614 4.48494 18.0975 4.22254 18.0957 3.89791C18.0942 3.5718 18.357 3.30609 18.6831 3.3046L18.8298 3.30371H18.833C19.1577 3.30371 19.4213 3.56585 19.4231 3.89077C19.4248 4.21684 19.1621 4.48254 18.836 4.48404L18.689 4.48494C18.6881 4.48494 18.6869 4.48494 18.686 4.48494Z" fill="#FC3E81"/>
<path d="M16.5187 4.48986C16.1944 4.48986 15.9305 4.22766 15.9287 3.90279C15.9269 3.57668 16.19 3.31127 16.5158 3.30948L16.6628 3.30859H16.6657C16.9904 3.30859 17.2543 3.57102 17.2561 3.89594C17.2578 4.22176 16.9948 4.48746 16.669 4.48926L16.522 4.48986C16.5208 4.48986 16.5199 4.48986 16.5187 4.48986Z" fill="#FC3E81"/>
<path d="M40.461 17.6457C40.1364 17.6457 39.8725 17.3833 39.8707 17.0584L39.8701 16.9117C39.8683 16.5856 40.1313 16.3199 40.4571 16.3184C40.7806 16.3187 41.0487 16.5793 41.0504 16.9054L41.0513 17.0524C41.0528 17.3782 40.7901 17.6439 40.464 17.6457C40.4631 17.6457 40.4619 17.6457 40.461 17.6457Z" fill="#FC3E81"/>
<path d="M40.466 19.8127C40.1416 19.8127 39.8777 19.5506 39.8759 19.2257L39.875 19.0787C39.8735 18.7529 40.1363 18.4872 40.4624 18.4854H40.4654C40.79 18.4854 41.0539 18.7478 41.0557 19.0727L41.0563 19.2194C41.0581 19.5455 40.795 19.811 40.4692 19.8127C40.4683 19.8127 40.4671 19.8127 40.466 19.8127Z" fill="#FC3E81"/>
<path d="M41.4729 18.654C41.1486 18.654 40.8846 18.3915 40.8828 18.0666C40.8811 17.7408 41.1441 17.4751 41.4699 17.4733L41.6169 17.4727H41.6202C41.9445 17.4727 42.2084 17.7348 42.2102 18.0598C42.212 18.3856 41.949 18.6513 41.6231 18.6531L41.4762 18.654C41.4753 18.654 41.4741 18.654 41.4729 18.654Z" fill="#FC3E81"/>
<path d="M39.3068 18.6587C38.9822 18.6587 38.7182 18.3966 38.7168 18.0717C38.715 17.7456 38.9777 17.4799 39.3038 17.4784L39.4508 17.4775C39.7802 17.4766 40.0423 17.7387 40.0441 18.0645C40.0456 18.3906 39.7829 18.6564 39.4568 18.6578L39.3101 18.6587C39.3089 18.6587 39.308 18.6587 39.3068 18.6587Z" fill="#FC3E81"/>
<path d="M41.0482 7.62157C40.792 7.62157 40.556 7.45347 40.4813 7.19487C40.3909 6.88187 40.5712 6.55457 40.8845 6.46417L41.4873 6.29007C41.8007 6.19927 42.128 6.37997 42.2181 6.69327C42.3089 7.00627 42.1283 7.33357 41.8149 7.42397L41.2121 7.59807C41.1574 7.61417 41.1023 7.62157 41.0482 7.62157Z" fill="#43A3F9"/>
<path d="M40.3704 6.25456C40.2231 6.25456 40.0758 6.20006 39.9613 6.08966C39.7265 5.86386 39.7191 5.49016 39.9452 5.25536L40.3802 4.80306C40.6061 4.56836 40.9798 4.56086 41.2148 4.78676C41.4496 5.01286 41.4567 5.38656 41.2309 5.62136L40.7959 6.07366C40.6801 6.19416 40.5254 6.25456 40.3704 6.25456Z" fill="#43A3F9"/>
<path d="M41.8132 9.28932C41.7665 9.28932 41.7185 9.28372 41.6712 9.27212L41.0619 9.12122C40.7456 9.04302 40.5525 8.72312 40.6307 8.40652C40.709 8.09022 41.0291 7.89712 41.3454 7.97542L41.9545 8.12622C42.2708 8.20452 42.4639 8.52442 42.3856 8.84062C42.3193 9.10962 42.0783 9.28932 41.8132 9.28932Z" fill="#43A3F9"/>
<path d="M15.6893 12.7517C15.3775 12.7517 15.1168 12.5074 15.1005 12.1923C15.0832 11.8668 15.3335 11.5892 15.659 11.5719L16.2856 11.5392C16.6111 11.5193 16.8887 11.7722 16.906 12.0977C16.9229 12.4232 16.673 12.7011 16.3472 12.7181L15.7206 12.7508C15.7101 12.7514 15.6997 12.7517 15.6893 12.7517Z" fill="#FFDF46"/>
<path d="M16.5095 11.2059C16.4191 11.2059 16.3277 11.185 16.242 11.1413L15.6826 10.8565C15.3922 10.7084 15.2768 10.3528 15.425 10.0627C15.5729 9.77199 15.9284 9.65679 16.2188 9.80469L16.7779 10.0895C17.0683 10.2376 17.1838 10.5929 17.0359 10.8833C16.9315 11.088 16.7244 11.2059 16.5095 11.2059Z" fill="#FFDF46"/>
<path d="M16.1407 14.5446C15.9473 14.5446 15.758 14.45 15.645 14.2759C15.4676 14.0025 15.5453 13.6368 15.8187 13.4595L16.3448 13.1179C16.6183 12.9402 16.9839 13.0179 17.1613 13.2913C17.3389 13.5648 17.2612 13.9302 16.9878 14.1078L16.4614 14.4494C16.3621 14.514 16.2508 14.5446 16.1407 14.5446Z" fill="#FFDF46"/>
<path d="M3.83984 56.9994H8.79984V55.8994H5.13984V49.9994H3.83984V56.9994ZM10.9261 55.9094V53.9794H14.3061V52.9094H10.9261V51.0894H14.7361V49.9994H9.62616V56.9994H14.8761V55.9094H10.9261ZM21.3653 56.9994H22.7253L19.5653 49.9994H18.2853L15.1353 56.9994H16.4753L17.1653 55.3794H20.6653L21.3653 56.9994ZM17.6053 54.3594L18.9153 51.2994L20.2353 54.3594H17.6053ZM29.3956 56.9994L27.7856 54.6994C28.7356 54.3294 29.2756 53.5494 29.2756 52.4894C29.2756 50.9394 28.1356 49.9994 26.2956 49.9994H23.4156V56.9994H24.7156V54.9594H26.2956C26.3856 54.9594 26.4756 54.9594 26.5656 54.9494L27.9956 56.9994H29.3956ZM27.9656 52.4894C27.9656 53.3694 27.3756 53.8894 26.2356 53.8894H24.7156V51.0994H26.2356C27.3756 51.0994 27.9656 51.6094 27.9656 52.4894ZM35.46 49.9994V54.7394L31.6 49.9994H30.53V56.9994H31.82V52.2594L35.68 56.9994H36.75V49.9994H35.46ZM38.4257 56.9994H39.7257V49.9994H38.4257V56.9994ZM46.3491 49.9994V54.7394L42.4891 49.9994H41.4191V56.9994H42.7091V52.2594L46.5691 56.9994H47.6391V49.9994H46.3491ZM54.0948 55.5994C53.6448 55.8594 53.1548 55.9594 52.6548 55.9594C51.1748 55.9594 50.1248 54.9194 50.1248 53.4994C50.1248 52.0494 51.1748 51.0394 52.6648 51.0394C53.4148 51.0394 54.0448 51.2894 54.5948 51.8394L55.4148 51.0394C54.7548 50.2894 53.7748 49.8994 52.6048 49.8994C50.4148 49.8994 48.8148 51.4094 48.8148 53.4994C48.8148 55.5894 50.4148 57.0994 52.5848 57.0994C53.5748 57.0994 54.5948 56.7994 55.3248 56.2094V53.4194H54.0948V55.5994Z" fill="#FC3E81"/>
<path d="M254.496 19.2083C254.093 19.2083 253.697 19.0271 253.434 18.6827C252.986 18.0963 253.099 17.2587 253.685 16.8114L265.356 7.91103C265.748 7.61207 266.272 7.5537 266.721 7.75875L277.624 12.7479L288.648 3.49952C289.212 3.026 290.054 3.09966 290.528 3.66461C291.002 4.22924 290.928 5.07129 290.363 5.54524L278.694 15.3358C278.298 15.6668 277.748 15.7414 277.28 15.5267L266.338 10.52L255.305 18.9346C255.064 19.1191 254.778 19.2083 254.496 19.2083Z" fill="#382B73"/>
<path d="M256.681 26.3281H252.308C251.586 26.3281 251 26.9142 251 27.6374V38.993C251 39.7159 251.586 40.302 252.308 40.302H256.681C257.403 40.302 257.99 39.7159 257.99 38.993V27.6374C257.99 26.9142 257.403 26.3281 256.681 26.3281Z" fill="#FC3E81"/>
<path d="M268.352 17.4277H263.979C263.257 17.4277 262.67 18.0138 262.67 18.7371V38.993C262.67 39.7159 263.257 40.302 263.979 40.302H268.352C269.074 40.302 269.66 39.7159 269.66 38.993V18.7371C269.66 18.0138 269.074 17.4277 268.352 17.4277Z" fill="#1CAEE4"/>
<path d="M280.021 22.7686H275.648C274.926 22.7686 274.34 23.3546 274.34 24.0776V38.9935C274.34 39.7163 274.926 40.3024 275.648 40.3024H280.021C280.743 40.3024 281.33 39.7163 281.33 38.9935V24.0776C281.33 23.3546 280.743 22.7686 280.021 22.7686Z" fill="#473080"/>
<path d="M291.692 12.9775H287.319C286.597 12.9775 286.01 13.5637 286.01 14.2865V38.9927C286.01 39.7156 286.597 40.3017 287.319 40.3017H291.692C292.414 40.3017 293 39.7156 293 38.9927V14.2865C293 13.5637 292.414 12.9775 291.692 12.9775Z" fill="#FFDF46"/>
<path d="M257.81 17.8738C257.81 19.7048 256.326 21.1893 254.494 21.1893C252.664 21.1893 251.18 19.7048 251.18 17.8738C251.18 16.0428 252.664 14.5586 254.494 14.5586C256.326 14.5586 257.81 16.0428 257.81 17.8738Z" fill="#9BE058"/>
<path d="M256.185 19.4977C254.353 19.4977 252.869 18.0134 252.869 16.1825C252.869 15.7047 252.972 15.2509 253.154 14.8408C251.991 15.3557 251.18 16.5192 251.18 17.8725C251.18 19.7033 252.664 21.188 254.494 21.188C255.848 21.188 257.011 20.3766 257.526 19.2141C257.117 19.3961 256.662 19.4977 256.185 19.4977Z" fill="#81B84C"/>
<path d="M269.48 8.97145C269.48 10.8028 267.996 12.287 266.165 12.287C264.335 12.287 262.85 10.8028 262.85 8.97145C262.85 7.14057 264.335 5.65625 266.165 5.65625C267.996 5.65625 269.48 7.14057 269.48 8.97145Z" fill="#9BE058"/>
<path d="M267.855 10.5974C266.024 10.5974 264.54 9.11304 264.54 7.28217C264.54 6.80434 264.642 6.35063 264.824 5.94043C263.661 6.45574 262.85 7.61892 262.85 8.97208C262.85 10.8034 264.335 12.2876 266.165 12.2876C267.519 12.2876 268.682 11.4762 269.197 10.3137C268.787 10.4957 268.333 10.5974 267.855 10.5974Z" fill="#81B84C"/>
<path d="M281.15 14.3126C281.15 16.1436 279.665 17.6282 277.834 17.6282C276.004 17.6282 274.52 16.1436 274.52 14.3126C274.52 12.4817 276.004 10.9971 277.834 10.9971C279.665 10.9971 281.15 12.4817 281.15 14.3126Z" fill="#9BE058"/>
<path d="M279.525 15.9381C277.693 15.9381 276.209 14.4539 276.209 12.6226C276.209 12.1452 276.312 11.6915 276.492 11.2812C275.33 11.7962 274.52 12.9597 274.52 14.3129C274.52 16.1439 276.004 17.6284 277.834 17.6284C279.188 17.6284 280.351 16.8171 280.866 15.6545C280.457 15.8362 280.002 15.9381 279.525 15.9381Z" fill="#81B84C"/>
<path d="M292.82 4.52256C292.82 6.35355 291.336 7.83776 289.505 7.83776C287.675 7.83776 286.189 6.35355 286.189 4.52256C286.189 2.69129 287.675 1.20703 289.505 1.20703C291.336 1.20703 292.82 2.69129 292.82 4.52256Z" fill="#9BE058"/>
<path d="M291.195 6.14804C289.364 6.14804 287.88 4.66383 287.88 2.83287C287.88 2.3551 287.981 1.90137 288.163 1.49121C287 2.00646 286.189 3.16959 286.189 4.52318C286.189 6.35416 287.675 7.83838 289.505 7.83838C290.859 7.83838 292.022 7.02703 292.537 5.86449C292.127 6.04649 291.673 6.14804 291.195 6.14804Z" fill="#81B84C"/>
<path d="M233.66 57.0004L233.65 50.0004H232.58L229.85 54.6404L227.07 50.0004H226V57.0004H227.24V52.4204L229.54 56.2004H230.12L232.42 52.3604L232.43 57.0004H233.66ZM236.651 55.9104V53.9804H240.031V52.9104H236.651V51.0904H240.461V50.0004H235.351V57.0004H240.601V55.9104H236.651ZM243.27 57.0004H244.57V51.1004H246.89V50.0004H240.95V51.1004H243.27V57.0004ZM253.645 57.0004L252.035 54.7004C252.985 54.3304 253.525 53.5504 253.525 52.4904C253.525 50.9404 252.385 50.0004 250.545 50.0004H247.665V57.0004H248.965V54.9604H250.545C250.635 54.9604 250.725 54.9604 250.815 54.9504L252.245 57.0004H253.645ZM252.215 52.4904C252.215 53.3704 251.625 53.8904 250.485 53.8904H248.965V51.1004H250.485C251.625 51.1004 252.215 51.6104 252.215 52.4904ZM254.78 57.0004H256.08V50.0004H254.78V57.0004ZM261.013 57.1004C262.163 57.1004 263.143 56.6904 263.793 55.9304L262.953 55.1304C262.443 55.6904 261.813 55.9604 261.083 55.9604C259.633 55.9604 258.583 54.9404 258.583 53.5004C258.583 52.0604 259.633 51.0404 261.083 51.0404C261.813 51.0404 262.443 51.3104 262.953 51.8604L263.793 51.0704C263.143 50.3104 262.163 49.9004 261.023 49.9004C258.873 49.9004 257.273 51.4104 257.273 53.5004C257.273 55.5904 258.873 57.1004 261.013 57.1004ZM267.403 57.0004H272.363V55.9004H268.703V50.0004H267.403V57.0004ZM274.489 55.9104V53.9804H277.869V52.9104H274.489V51.0904H278.299V50.0004H273.189V57.0004H278.439V55.9104H274.489ZM284.928 57.0004H286.288L283.128 50.0004H281.848L278.698 57.0004H280.038L280.728 55.3804H284.228L284.928 57.0004ZM281.168 54.3604L282.478 51.3004L283.798 54.3604H281.168ZM292.958 57.0004L291.348 54.7004C292.298 54.3304 292.838 53.5504 292.838 52.4904C292.838 50.9404 291.698 50.0004 289.858 50.0004H286.978V57.0004H288.278V54.9604H289.858C289.948 54.9604 290.038 54.9604 290.128 54.9504L291.558 57.0004H292.958ZM291.528 52.4904C291.528 53.3704 290.938 53.8904 289.798 53.8904H288.278V51.1004H289.798C290.938 51.1004 291.528 51.6104 291.528 52.4904ZM299.023 50.0004V54.7404L295.163 50.0004H294.093V57.0004H295.383V52.2604L299.243 57.0004H300.313V50.0004H299.023ZM301.989 57.0004H303.289V50.0004H301.989V57.0004ZM309.912 50.0004V54.7404L306.052 50.0004H304.982V57.0004H306.272V52.2604L310.132 57.0004H311.202V50.0004H309.912ZM317.658 55.6004C317.208 55.8604 316.718 55.9604 316.218 55.9604C314.738 55.9604 313.688 54.9204 313.688 53.5004C313.688 52.0504 314.738 51.0404 316.228 51.0404C316.978 51.0404 317.608 51.2904 318.158 51.8404L318.978 51.0404C318.318 50.2904 317.338 49.9004 316.168 49.9004C313.978 49.9004 312.378 51.4104 312.378 53.5004C312.378 55.5904 313.978 57.1004 316.148 57.1004C317.138 57.1004 318.158 56.8004 318.888 56.2104V53.4204H317.658V55.6004Z" fill="#473080"/>
<path d="M397.428 42C409.026 42 418.428 32.598 418.428 21C418.428 9.40202 409.026 0 397.428 0C385.83 0 376.428 9.40202 376.428 21C376.428 32.598 385.83 42 397.428 42Z" fill="#F9B200"/>
<path d="M397.5 31C403.299 31 408 26.5228 408 21C408 15.4772 403.299 11 397.5 11C391.701 11 387 15.4772 387 21C387 26.5228 391.701 31 397.5 31Z" fill="white"/>
<path d="M347.11 51.0904V50.0004H342V57.0004H343.3V54.3204H346.68V53.2204H343.3V51.0904H347.11ZM349.467 55.9104V53.9804H352.847V52.9104H349.467V51.0904H353.277V50.0004H348.167V57.0004H353.417V55.9104H349.467ZM363.559 50.0004L361.769 55.3504L359.999 50.0004H358.799L356.989 55.3204L355.249 50.0004H353.899L356.219 57.0004H357.609L359.369 51.8204L361.099 57.0004H362.479L364.799 50.0004H363.559ZM365.161 54.7404H367.911V53.7004H365.161V54.7404ZM371.222 57.1004C373.142 57.1004 374.052 56.1404 374.052 55.0204C374.052 52.4504 369.902 53.4204 369.902 51.9304C369.902 51.4004 370.342 50.9804 371.422 50.9804C372.032 50.9804 372.722 51.1604 373.352 51.5304L373.762 50.5204C373.152 50.1204 372.272 49.9004 371.432 49.9004C369.512 49.9004 368.612 50.8604 368.612 51.9904C368.612 54.5904 372.772 53.6004 372.772 55.1104C372.772 55.6304 372.312 56.0204 371.222 56.0204C370.362 56.0204 369.472 55.7004 368.912 55.2504L368.462 56.2604C369.042 56.7604 370.132 57.1004 371.222 57.1004ZM380.061 50.0004V52.8904H376.441V50.0004H375.141V57.0004H376.441V54.0004H380.061V57.0004H381.361V50.0004H380.061ZM386.307 57.1004C388.477 57.1004 390.077 55.5804 390.077 53.5004C390.077 51.4204 388.477 49.9004 386.307 49.9004C384.137 49.9004 382.537 51.4304 382.537 53.5004C382.537 55.5704 384.137 57.1004 386.307 57.1004ZM386.307 55.9604C384.897 55.9604 383.847 54.9304 383.847 53.5004C383.847 52.0704 384.897 51.0404 386.307 51.0404C387.717 51.0404 388.767 52.0704 388.767 53.5004C388.767 54.9304 387.717 55.9604 386.307 55.9604ZM392.577 57.0004H393.877V51.1004H396.197V50.0004H390.257V51.1004H392.577V57.0004ZM399.536 57.0004H404.496V55.9004H400.836V50.0004H399.536V57.0004ZM406.622 55.9104V53.9804H410.002V52.9104H406.622V51.0904H410.432V50.0004H405.322V57.0004H410.572V55.9104H406.622ZM417.062 57.0004H418.422L415.262 50.0004H413.982L410.832 57.0004H412.172L412.862 55.3804H416.362L417.062 57.0004ZM413.302 54.3604L414.612 51.3004L415.932 54.3604H413.302ZM425.092 57.0004L423.482 54.7004C424.432 54.3304 424.972 53.5504 424.972 52.4904C424.972 50.9404 423.832 50.0004 421.992 50.0004H419.112V57.0004H420.412V54.9604H421.992C422.082 54.9604 422.172 54.9604 422.262 54.9504L423.692 57.0004H425.092ZM423.662 52.4904C423.662 53.3704 423.072 53.8904 421.932 53.8904H420.412V51.1004H421.932C423.072 51.1004 423.662 51.6104 423.662 52.4904ZM431.156 50.0004V54.7404L427.296 50.0004H426.226V57.0004H427.516V52.2604L431.376 57.0004H432.446V50.0004H431.156ZM434.122 57.0004H435.422V50.0004H434.122V57.0004ZM442.045 50.0004V54.7404L438.185 50.0004H437.115V57.0004H438.405V52.2604L442.265 57.0004H443.335V50.0004H442.045ZM449.791 55.6004C449.341 55.8604 448.851 55.9604 448.351 55.9604C446.871 55.9604 445.821 54.9204 445.821 53.5004C445.821 52.0504 446.871 51.0404 448.361 51.0404C449.111 51.0404 449.741 51.2904 450.291 51.8404L451.111 51.0404C450.451 50.2904 449.471 49.9004 448.301 49.9004C446.111 49.9004 444.511 51.4104 444.511 53.5004C444.511 55.5904 446.111 57.1004 448.281 57.1004C449.271 57.1004 450.291 56.8004 451.021 56.2104V53.4204H449.791V55.6004Z" fill="#6F6F6F"/>
<path d="M118.74 57.4139C119.89 57.4139 120.87 57.0039 121.52 56.2439L120.68 55.4439C120.17 56.0039 119.54 56.2739 118.81 56.2739C117.36 56.2739 116.31 55.2539 116.31 53.8139C116.31 52.3739 117.36 51.3539 118.81 51.3539C119.54 51.3539 120.17 51.6239 120.68 52.1739L121.52 51.3839C120.87 50.6239 119.89 50.2139 118.75 50.2139C116.6 50.2139 115 51.7239 115 53.8139C115 55.9039 116.6 57.4139 118.74 57.4139ZM122.566 57.3139H127.526V56.2139H123.866V50.3139H122.566V57.3139ZM131.265 57.4139C133.175 57.4139 134.325 56.3039 134.325 54.2639V50.3139H133.045V54.2139C133.045 55.6539 132.405 56.2739 131.275 56.2739C130.145 56.2739 129.495 55.6539 129.495 54.2139V50.3139H128.195V54.2639C128.195 56.3039 129.345 57.4139 131.265 57.4139ZM138.115 57.4139C140.035 57.4139 140.945 56.4539 140.945 55.3339C140.945 52.7639 136.795 53.7339 136.795 52.2439C136.795 51.7139 137.235 51.2939 138.315 51.2939C138.925 51.2939 139.615 51.4739 140.245 51.8439L140.655 50.8339C140.045 50.4339 139.165 50.2139 138.325 50.2139C136.405 50.2139 135.505 51.1739 135.505 52.3039C135.505 54.9039 139.665 53.9139 139.665 55.4239C139.665 55.9439 139.205 56.3339 138.115 56.3339C137.255 56.3339 136.365 56.0139 135.805 55.5639L135.355 56.5739C135.935 57.0739 137.025 57.4139 138.115 57.4139ZM143.357 57.3139H144.657V51.4139H146.977V50.3139H141.037V51.4139H143.357V57.3139ZM149.052 56.2239V54.2939H152.432V53.2239H149.052V51.4039H152.862V50.3139H147.752V57.3139H153.002V56.2239H149.052ZM160.232 57.3139L158.622 55.0139C159.572 54.6439 160.112 53.8639 160.112 52.8039C160.112 51.2539 158.972 50.3139 157.132 50.3139H154.252V57.3139H155.552V55.2739H157.132C157.222 55.2739 157.312 55.2739 157.402 55.2639L158.832 57.3139H160.232ZM158.802 52.8039C158.802 53.6839 158.212 54.2039 157.072 54.2039H155.552V51.4139H157.072C158.212 51.4139 158.802 51.9239 158.802 52.8039ZM161.366 57.3139H162.666V50.3139H161.366V57.3139ZM169.289 50.3139V55.0539L165.429 50.3139H164.359V57.3139H165.649V52.5739L169.509 57.3139H170.579V50.3139H169.289ZM177.035 55.9139C176.585 56.1739 176.095 56.2739 175.595 56.2739C174.115 56.2739 173.065 55.2339 173.065 53.8139C173.065 52.3639 174.115 51.3539 175.605 51.3539C176.355 51.3539 176.985 51.6039 177.535 52.1539L178.355 51.3539C177.695 50.6039 176.715 50.2139 175.545 50.2139C173.355 50.2139 171.755 51.7239 171.755 53.8139C171.755 55.9039 173.355 57.4139 175.525 57.4139C176.515 57.4139 177.535 57.1139 178.265 56.5239V53.7339H177.035V55.9139Z" fill="#473080"/>
<path d="M165.8 20.5C165.8 31.2696 157.069 40 146.3 40C135.53 40 126.8 31.2696 126.8 20.5C126.8 9.73045 135.53 1 146.3 1C157.069 1 165.8 9.73045 165.8 20.5Z" fill="#473080"/>
<path fill-rule="evenodd" clip-rule="evenodd" d="M146.3 37C155.413 37 162.8 29.6127 162.8 20.5C162.8 11.3873 155.413 4 146.3 4C137.187 4 129.8 11.3873 129.8 20.5C129.8 29.6127 137.187 37 146.3 37ZM146.3 40C157.069 40 165.8 31.2696 165.8 20.5C165.8 9.73045 157.069 1 146.3 1C135.53 1 126.8 9.73045 126.8 20.5C126.8 31.2696 135.53 40 146.3 40Z" fill="#382B73"/>
<path fill-rule="evenodd" clip-rule="evenodd" d="M136.8 11.5C137.076 11.5 137.3 11.7239 137.3 12V29C137.3 29.2761 137.524 29.5 137.8 29.5H157.8C158.076 29.5 158.3 29.7239 158.3 30C158.3 30.2761 158.076 30.5 157.8 30.5H137.8C136.971 30.5 136.3 29.8284 136.3 29V12C136.3 11.7239 136.524 11.5 136.8 11.5Z" fill="white"/>
<path d="M150.8 14C150.8 14.5523 150.352 15 149.8 15C149.248 15 148.8 14.5523 148.8 14C148.8 13.4477 149.248 13 149.8 13C150.352 13 150.8 13.4477 150.8 14Z" fill="#FEDE3A"/>
<path d="M153.8 14C153.8 14.5523 153.352 15 152.8 15C152.248 15 151.8 14.5523 151.8 14C151.8 13.4477 152.248 13 152.8 13C153.352 13 153.8 13.4477 153.8 14Z" fill="#FEDE3A"/>
<path d="M153.8 17C153.8 17.5523 153.352 18 152.8 18C152.248 18 151.8 17.5523 151.8 17C151.8 16.4477 152.248 16 152.8 16C153.352 16 153.8 16.4477 153.8 17Z" fill="#FEDE3A"/>
<path d="M150.8 17C150.8 17.5523 150.352 18 149.8 18C149.248 18 148.8 17.5523 148.8 17C148.8 16.4477 149.248 16 149.8 16C150.352 16 150.8 16.4477 150.8 17Z" fill="#FEDE3A"/>
<path d="M141.8 19.5C141.8 20.3284 141.128 21 140.3 21C139.471 21 138.8 20.3284 138.8 19.5C138.8 18.6716 139.471 18 140.3 18C141.128 18 141.8 18.6716 141.8 19.5Z" fill="#EF5A9D"/>
<path d="M143.8 22.5C143.8 23.3284 143.128 24 142.3 24C141.471 24 140.8 23.3284 140.8 22.5C140.8 21.6716 141.471 21 142.3 21C143.128 21 143.8 21.6716 143.8 22.5Z" fill="#EF5A9D"/>
<path d="M145.8 19.5C145.8 20.3284 145.128 21 144.3 21C143.471 21 142.8 20.3284 142.8 19.5C142.8 18.6716 143.471 18 144.3 18C145.128 18 145.8 18.6716 145.8 19.5Z" fill="#EF5A9D"/>
<path d="M152.71 23.4992C152.71 22.8549 153.259 22.3326 153.937 22.3326C154.615 22.3326 155.164 22.8549 155.164 23.4992C155.164 24.1436 154.615 24.6659 153.937 24.6659C153.259 24.6659 152.71 24.1436 152.71 23.4992Z" fill="#1CAEE4"/>
<path d="M151.073 25.8333C151.073 25.189 151.622 24.6667 152.3 24.6667C152.978 24.6667 153.527 25.189 153.527 25.8333C153.527 26.4777 152.978 27 152.3 27C151.622 27 151.073 26.4777 151.073 25.8333Z" fill="#1CAEE4"/>
<path d="M154.345 25.8333C154.345 25.189 154.895 24.6667 155.573 24.6667C156.25 24.6667 156.8 25.189 156.8 25.8333C156.8 26.4777 156.25 27 155.573 27C154.895 27 154.345 26.4777 154.345 25.8333Z" fill="#1CAEE4"/>
<path d="M147.8 25.8333C147.8 25.189 148.349 24.6667 149.027 24.6667C149.705 24.6667 150.254 25.189 150.254 25.8333C150.254 26.4777 149.705 27 149.027 27C148.349 27 147.8 26.4777 147.8 25.8333Z" fill="#1CAEE4"/>
<path d="M151.073 21.1667C151.073 20.5223 151.623 20 152.301 20C152.978 20 153.528 20.5223 153.528 21.1667C153.528 21.811 152.978 22.3333 152.301 22.3333C151.623 22.3333 151.073 21.811 151.073 21.1667Z" fill="#1CAEE4"/>
<path d="M149.436 23.5C149.436 22.8557 149.986 22.3333 150.663 22.3333C151.341 22.3333 151.891 22.8557 151.891 23.5C151.891 24.1443 151.341 24.6667 150.663 24.6667C149.986 24.6667 149.436 24.1443 149.436 23.5Z" fill="#1CAEE4"/>
</svg>
