<svg width="267" height="61" viewBox="0 0 267 61" fill="none" xmlns="http://www.w3.org/2000/svg">
<g clip-path="url(#clip0)">
<path d="M43.0003 6.92285V13.8457L55.0013 20.7685V13.8457L43.0003 6.92285ZM19 13.8457V20.7685L25.0005 24.2299V17.3071L19 13.8457ZM36.9997 17.3071L30.9992 20.7685V41.5369L36.9997 45V31.1545L43.0003 34.6159V27.6931L36.9997 24.2317V17.3071Z" fill="#E55B2D"/>
<path d="M42.9998 6.92285L25 17.3071V24.2299L37.001 17.3071V24.2299L43.0016 20.7685V6.92285H42.9998ZM60.9995 10.3843L54.999 13.8457V20.7685L60.9995 17.3071V10.3843ZM49.0003 24.2317L42.9998 27.6931V34.6159L49.0003 31.1545V24.2317ZM42.9998 34.6159L36.9992 31.1545V45L42.9998 41.5386V34.6159Z" fill="#ED8E24"/>
<path d="M43.0003 0L19 13.8456L25.0005 17.307L43.0003 6.9228L55.0013 13.8456L61.0018 10.3842L43.0003 0ZM43.0003 20.7684L36.9997 24.2298L43.0003 27.6912L49.0008 24.2298L43.0003 20.7684Z" fill="#F8BF3C"/>
</g>
<path d="M6.41625 60H7.71625V54.1H10.0363V53H4.09625V54.1H6.41625V60ZM12.1119 58.91V56.98H15.4919V55.91H12.1119V54.09H15.9219V53H10.8119V60H16.0619V58.91H12.1119ZM22.2411 53V57.74L18.3811 53H17.3111V60H18.6011V55.26L22.4611 60H23.5311V53H22.2411ZM27.3768 60.1C29.2968 60.1 30.2068 59.14 30.2068 58.02C30.2068 55.45 26.0568 56.42 26.0568 54.93C26.0568 54.4 26.4968 53.98 27.5768 53.98C28.1868 53.98 28.8768 54.16 29.5068 54.53L29.9168 53.52C29.3068 53.12 28.4268 52.9 27.5868 52.9C25.6668 52.9 24.7668 53.86 24.7668 54.99C24.7668 57.59 28.9268 56.6 28.9268 58.11C28.9268 58.63 28.4668 59.02 27.3768 59.02C26.5168 59.02 25.6268 58.7 25.0668 58.25L24.6168 59.26C25.1968 59.76 26.2868 60.1 27.3768 60.1ZM34.5659 60.1C36.7359 60.1 38.3359 58.58 38.3359 56.5C38.3359 54.42 36.7359 52.9 34.5659 52.9C32.3959 52.9 30.7959 54.43 30.7959 56.5C30.7959 58.57 32.3959 60.1 34.5659 60.1ZM34.5659 58.96C33.1559 58.96 32.1059 57.93 32.1059 56.5C32.1059 55.07 33.1559 54.04 34.5659 54.04C35.9759 54.04 37.0259 55.07 37.0259 56.5C37.0259 57.93 35.9759 58.96 34.5659 58.96ZM45.4938 60L43.8838 57.7C44.8338 57.33 45.3738 56.55 45.3738 55.49C45.3738 53.94 44.2338 53 42.3938 53H39.5138V60H40.8138V57.96H42.3938C42.4838 57.96 42.5738 57.96 42.6638 57.95L44.0938 60H45.4938ZM44.0638 55.49C44.0638 56.37 43.4738 56.89 42.3338 56.89H40.8138V54.1H42.3338C43.4738 54.1 44.0638 54.61 44.0638 55.49ZM51.7383 54.09V53H46.6283V60H47.9283V57.32H51.3083V56.22H47.9283V54.09H51.7383ZM52.7955 60H57.7555V58.9H54.0955V53H52.7955V60ZM61.7248 60.1C63.8948 60.1 65.4948 58.58 65.4948 56.5C65.4948 54.42 63.8948 52.9 61.7248 52.9C59.5548 52.9 57.9548 54.43 57.9548 56.5C57.9548 58.57 59.5548 60.1 61.7248 60.1ZM61.7248 58.96C60.3148 58.96 59.2648 57.93 59.2648 56.5C59.2648 55.07 60.3148 54.04 61.7248 54.04C63.1348 54.04 64.1848 55.07 64.1848 56.5C64.1848 57.93 63.1348 58.96 61.7248 58.96ZM75.4382 53L73.6482 58.35L71.8782 53H70.6782L68.8682 58.32L67.1282 53H65.7782L68.0982 60H69.4882L71.2482 54.82L72.9782 60H74.3582L76.6782 53H75.4382Z" fill="#6D6B6C"/>
<path d="M172.228 13.1592H165V32.4798H167.648V26.6285H172.228C177.047 26.6285 179.96 24.0892 179.96 19.8938C179.96 15.6985 177.047 13.1592 172.228 13.1592ZM172.149 24.2272H167.648V15.5605H172.149C175.538 15.5605 177.312 17.1338 177.312 19.8938C177.312 22.6539 175.538 24.2272 172.149 24.2272Z" fill="black"/>
<path d="M193.486 17.8514L188.641 29.5541L183.742 17.8514H181.094L187.29 32.4522L186.84 33.4735C186.152 35.1571 185.384 35.7367 184.166 35.7367C183.213 35.7367 182.339 35.3503 181.65 34.6603L180.565 36.6476C181.439 37.5308 182.815 38 184.166 38C186.311 38 187.926 37.034 189.17 33.9427L195.975 17.8514H193.486Z" fill="black"/>
<path d="M201.338 32.4798H203.959V15.5605H210.314V13.1592H194.983V15.5605H201.338V32.4798Z" fill="black"/>
<path d="M217.39 32.6454C221.6 32.6454 224.671 29.5265 224.671 25.1656C224.671 20.8047 221.6 17.7134 217.39 17.7134C213.18 17.7134 210.082 20.8047 210.082 25.1656C210.082 29.5265 213.18 32.6454 217.39 32.6454ZM217.39 30.327C214.689 30.327 212.65 28.2845 212.65 25.1656C212.65 22.0467 214.689 20.0318 217.39 20.0318C220.09 20.0318 222.103 22.0467 222.103 25.1656C222.103 28.2845 220.09 30.327 217.39 30.327Z" fill="black"/>
<path d="M230.622 20.3079V17.8514H228.186V32.4798H230.728V25.1932C230.728 21.9915 232.423 20.2527 235.15 20.2527C235.335 20.2527 235.521 20.2527 235.733 20.2803V17.7134C233.27 17.7134 231.523 18.5966 230.622 20.3079Z" fill="black"/>
<path d="M244.853 32.6454C247.368 32.6454 249.46 31.5414 250.572 29.4989L248.639 28.2293C247.739 29.6645 246.362 30.327 244.826 30.327C242.072 30.327 240.007 28.3397 240.007 25.1656C240.007 22.0467 242.072 20.0318 244.826 20.0318C246.362 20.0318 247.739 20.6943 248.639 22.1295L250.572 20.8323C249.46 18.7898 247.368 17.7134 244.853 17.7134C240.537 17.7134 237.439 20.8047 237.439 25.1656C237.439 29.5265 240.537 32.6454 244.853 32.6454Z" fill="black"/>
<path d="M261.175 17.7134C259.03 17.7134 257.283 18.5138 256.224 19.9214V12H253.682V32.4798H256.224V24.9448C256.224 21.7707 257.971 20.087 260.672 20.087C263.081 20.087 264.458 21.4947 264.458 24.3652V32.4798H267V24.0616C267 19.7558 264.591 17.7134 261.175 17.7134Z" fill="black"/>
<path d="M141.018 16.683C143.242 19.9298 144.692 23.261 144.692 26.3101C144.692 33.6751 138.786 39.6456 131.5 39.6456C124.214 39.6456 118.308 33.6751 118.308 26.3101C118.308 24.3517 119.04 22.0293 120.484 19.4462C121.91 16.8969 123.87 14.377 125.927 12.1049C127.935 9.88836 129.956 7.99459 131.5 6.63759V1C131.5 1 114 14.3354 114 26.3101C114 36.08 121.835 44 131.5 44C141.165 44 149 36.08 149 26.3101C149 21.8089 146.833 17.3414 144.024 13.4413L141.018 16.683Z" fill="#EE4C2C"/>
<circle cx="138.785" cy="9.63328" r="2.50633" fill="#EE4C2C"/>
<defs>
<clipPath id="clip0">
<rect width="42" height="45" fill="white" transform="translate(19)"/>
</clipPath>
</defs>
</svg>
