<svg width="40" height="39" viewBox="0 0 40 39" fill="none" xmlns="http://www.w3.org/2000/svg">
<path d="M16.6689 13.3938H23.2778C24.067 13.3938 24.7839 13.7164 25.3032 14.236C25.8223 14.7556 26.1446 15.4732 26.1446 16.2631V27.3188C26.1446 28.1086 25.8223 28.8262 25.3032 29.3458C24.8984 29.7509 24.3734 30.0362 23.7878 30.1423V37.0293C23.7878 37.5721 23.5664 38.065 23.21 38.4218C22.8535 38.7785 22.3611 39 21.8188 39H18.1278C17.5855 39 17.093 38.7785 16.7366 38.4218C16.3802 38.065 16.1588 37.5721 16.1588 37.0293V30.1423C15.5732 30.0362 15.0482 29.7509 14.6435 29.3458C14.1243 28.8262 13.802 28.1087 13.802 27.3188V16.2631C13.802 15.4731 14.1243 14.7556 14.6435 14.236C15.1627 13.7164 15.8796 13.3938 16.6689 13.3938ZM23.2778 15.062H16.6689C16.3397 15.062 16.0398 15.1974 15.8219 15.4154C15.604 15.6335 15.4687 15.9336 15.4687 16.2631V27.3188C15.4687 27.6482 15.604 27.9483 15.8219 28.1664C16.0398 28.3844 16.3397 28.5198 16.6689 28.5198H16.9925L17.0072 28.52C17.4673 28.5281 17.8338 28.908 17.8258 29.3686L17.8257 29.3724L17.8256 29.3785V37.0294C17.8256 37.1117 17.8599 37.1872 17.915 37.2424C17.9702 37.2976 18.0456 37.3318 18.1278 37.3318H21.8188C21.901 37.3318 21.9764 37.2976 22.0316 37.2424C22.0867 37.1872 22.121 37.1117 22.121 37.0294V29.3785C22.1208 29.3703 22.1207 29.3621 22.1207 29.3539C22.1207 28.8933 22.4938 28.5198 22.9541 28.5198H23.2778C23.607 28.5198 23.9068 28.3845 24.1247 28.1664C24.3426 27.9484 24.4779 27.6482 24.4779 27.3188V16.2631C24.4779 15.9336 24.3426 15.6335 24.1247 15.4154C23.9068 15.1974 23.607 15.062 23.2778 15.062Z" fill="#00ADFF"/>
<path d="M19.9731 3.12708C21.2178 3.12708 22.3447 3.63213 23.1605 4.44855C23.9762 5.26496 24.4809 6.39288 24.4809 7.6386C24.4809 8.8843 23.9762 10.0122 23.1605 10.8287C22.3447 11.6451 21.2178 12.1501 19.9731 12.1501C18.7285 12.1501 17.6015 11.6451 16.7858 10.8287C15.97 10.0122 15.4654 8.8843 15.4654 7.6386C15.4654 6.39289 15.97 5.26496 16.7858 4.44855C17.6015 3.63214 18.7285 3.12708 19.9731 3.12708ZM21.9821 5.62798C21.468 5.1135 20.7577 4.79525 19.9731 4.79525C19.1885 4.79525 18.4782 5.1135 17.9642 5.62798C17.4501 6.14245 17.1322 6.85334 17.1322 7.6386C17.1322 8.42385 17.4501 9.13477 17.9642 9.64925C18.4782 10.1637 19.1885 10.482 19.9731 10.482C20.7577 10.482 21.468 10.1637 21.9821 9.64925C22.4961 9.13477 22.8141 8.42385 22.8141 7.6386C22.8141 6.85334 22.4961 6.14245 21.9821 5.62798Z" fill="#00ADFF"/>
<path d="M30.5242 10.2706H37.1332C37.9224 10.2706 38.6393 10.5931 39.1585 11.1128C39.6777 11.6324 40 12.35 40 13.1399V24.1956C40 24.9854 39.6777 25.703 39.1585 26.2226C38.7537 26.6277 38.2288 26.913 37.6431 27.0191V33.9061C37.6431 34.4489 37.4219 34.9417 37.0654 35.2985C36.7089 35.6553 36.2165 35.8768 35.6741 35.8768H31.9832C31.4409 35.8768 30.9485 35.6553 30.592 35.2985C30.2355 34.9418 30.0142 34.4489 30.0142 33.9061V27.0191C29.4285 26.913 28.9036 26.6277 28.4989 26.2226C27.9797 25.703 27.6574 24.9855 27.6574 24.1956V13.1399C27.6574 12.3499 27.9797 11.6324 28.4989 11.1128C29.018 10.5931 29.7349 10.2706 30.5242 10.2706ZM37.1332 11.9387H30.5242C30.1951 11.9387 29.8952 12.0741 29.6773 12.2922C29.4594 12.5103 29.3241 12.8104 29.3241 13.1399V24.1956C29.3241 24.525 29.4594 24.8251 29.6773 25.0432C29.8952 25.2613 30.195 25.3966 30.5242 25.3966H30.8476C31.3079 25.3966 31.681 25.7701 31.681 26.2307V33.9061C31.681 33.9884 31.7153 34.0639 31.7704 34.1191C31.8256 34.1743 31.901 34.2086 31.9832 34.2086H35.6741C35.7564 34.2086 35.8318 34.1743 35.887 34.1191C35.9421 34.0639 35.9764 33.9884 35.9764 33.9061V26.2307C35.9764 25.7701 36.3495 25.3966 36.8098 25.3966H37.1332C37.4623 25.3966 37.7622 25.2613 37.9801 25.0432C38.198 24.8251 38.3332 24.525 38.3332 24.1956V13.1399C38.3332 12.8104 38.198 12.5103 37.9801 12.2922C37.7622 12.0741 37.4623 11.9387 37.1332 11.9387Z" fill="#00ADFF"/>
<path d="M33.8285 0C35.0732 0 36.2001 0.505057 37.0159 1.32147C37.8316 2.13794 38.3362 3.26584 38.3362 4.51154C38.3362 5.75725 37.8316 6.88515 37.0159 7.70162C36.2001 8.51803 35.0732 9.02309 33.8285 9.02309C32.5839 9.02309 31.4569 8.51803 30.6411 7.70162C29.8254 6.88515 29.3208 5.75725 29.3208 4.51154C29.3208 3.26584 29.8254 2.13794 30.6411 1.32147C31.4569 0.50506 32.5839 0 33.8285 0ZM35.8374 2.5009C35.3234 1.98642 34.6131 1.66817 33.8285 1.66817C33.0439 1.66817 32.3336 1.98643 31.8196 2.5009C31.3055 3.01538 30.9875 3.72629 30.9875 4.51155C30.9875 5.29681 31.3055 6.00773 31.8196 6.5222C32.3336 7.03668 33.0439 7.35493 33.8285 7.35493C34.6131 7.35493 35.3234 7.03668 35.8374 6.5222C36.3515 6.00773 36.6695 5.29681 36.6695 4.51155C36.6695 3.72629 36.3515 3.01537 35.8374 2.5009Z" fill="#00ADFF"/>
<path d="M2.86689 10.2706H9.47584C10.265 10.2706 10.982 10.5931 11.5012 11.1128C12.0204 11.6324 12.3426 12.35 12.3426 13.1399V24.1956C12.3426 24.9854 12.0204 25.703 11.5012 26.2226C11.0964 26.6277 10.5715 26.913 9.98578 27.0191V33.9061C9.98578 34.4489 9.76453 34.9417 9.40804 35.2985C9.05154 35.6553 8.5591 35.8768 8.01679 35.8768H4.32586C3.78355 35.8768 3.2911 35.6553 2.93461 35.2985C2.57811 34.9417 2.35687 34.4489 2.35687 33.9061V27.0191C1.77119 26.913 1.24626 26.6277 0.841501 26.2226C0.322293 25.703 0 24.9854 0 24.1956V13.1399C0 12.35 0.322291 11.6324 0.841501 11.1128C1.36068 10.5931 2.07762 10.2706 2.86689 10.2706ZM9.47584 11.9387H2.86689C2.53774 11.9387 2.23784 12.0741 2.01994 12.2922C1.80204 12.5103 1.66677 12.8104 1.66677 13.1399V24.1956C1.66677 24.525 1.80204 24.8251 2.01994 25.0432C2.2378 25.2613 2.5377 25.3966 2.86689 25.3966H3.19025C3.6505 25.3966 4.02363 25.7701 4.02363 26.2307V33.9061C4.02363 33.9884 4.05789 34.0639 4.11304 34.1191C4.16819 34.1743 4.24361 34.2086 4.32586 34.2086H8.01679C8.09904 34.2086 8.17446 34.1743 8.22961 34.1191C8.28476 34.0639 8.31903 33.9884 8.31903 33.9061V26.2307C8.31903 25.7701 8.69216 25.3966 9.1524 25.3966H9.47583C9.80498 25.3966 10.1049 25.2613 10.3227 25.0432C10.5406 24.8251 10.6759 24.525 10.6759 24.1956V13.1399C10.6759 12.8104 10.5406 12.5103 10.3227 12.2922C10.1049 12.0741 9.80499 11.9387 9.47584 11.9387Z" fill="#00ADFF"/>
<path d="M6.17114 0C7.41579 0 8.54273 0.505057 9.35851 1.32147C10.1742 2.13794 10.6789 3.26584 10.6789 4.51154C10.6789 5.75725 10.1742 6.88515 9.35851 7.70162C8.54273 8.51803 7.41579 9.02309 6.17114 9.02309C4.92648 9.02309 3.79951 8.51803 2.98379 7.70162C2.16807 6.88515 1.66344 5.75725 1.66344 4.51154C1.66344 3.26584 2.16806 2.13794 2.98379 1.32147C3.79951 0.50506 4.92648 0 6.17114 0ZM8.18009 2.5009C7.66605 1.98642 6.95573 1.66817 6.17114 1.66817C5.38654 1.66817 4.67626 1.98643 4.16222 2.5009C3.64818 3.01538 3.3302 3.72629 3.3302 4.51155C3.3302 5.29681 3.64818 6.00773 4.16222 6.5222C4.67626 7.03668 5.38654 7.35493 6.17114 7.35493C6.95573 7.35493 7.66605 7.03668 8.18009 6.5222C8.69413 6.00773 9.01211 5.29681 9.01211 4.51155C9.01211 3.72629 8.69413 3.01537 8.18009 2.5009Z" fill="#00ADFF"/>
</svg>
