<svg width="553" height="297" viewBox="0 0 553 297" fill="none" xmlns="http://www.w3.org/2000/svg">
<path d="M11.85 122.3C8.95 122.3 6.69 121.49 5.07 119.87C3.45 118.23 2.64 115.89 2.64 112.85V101H6.54V112.7C6.54 116.82 8.32 118.88 11.88 118.88C15.42 118.88 17.19 116.82 17.19 112.7V101H21.03V112.85C21.03 115.89 20.22 118.23 18.6 119.87C17 121.49 14.75 122.3 11.85 122.3ZM32.1019 122.3C30.4819 122.3 28.9119 122.07 27.3919 121.61C25.8919 121.15 24.7019 120.54 23.8219 119.78L25.1719 116.75C26.0319 117.43 27.0819 117.99 28.3219 118.43C29.5819 118.85 30.8419 119.06 32.1019 119.06C33.6619 119.06 34.8219 118.81 35.5819 118.31C36.3619 117.81 36.7519 117.15 36.7519 116.33C36.7519 115.73 36.5319 115.24 36.0919 114.86C35.6719 114.46 35.1319 114.15 34.4719 113.93C33.8119 113.71 32.9119 113.46 31.7719 113.18C30.1719 112.8 28.8719 112.42 27.8719 112.04C26.8919 111.66 26.0419 111.07 25.3219 110.27C24.6219 109.45 24.2719 108.35 24.2719 106.97C24.2719 105.81 24.5819 104.76 25.2019 103.82C25.8419 102.86 26.7919 102.1 28.0519 101.54C29.3319 100.98 30.8919 100.7 32.7319 100.7C34.0119 100.7 35.2719 100.86 36.5119 101.18C37.7519 101.5 38.8219 101.96 39.7219 102.56L38.4919 105.59C37.5719 105.05 36.6119 104.64 35.6119 104.36C34.6119 104.08 33.6419 103.94 32.7019 103.94C31.1619 103.94 30.0119 104.2 29.2519 104.72C28.5119 105.24 28.1419 105.93 28.1419 106.79C28.1419 107.39 28.3519 107.88 28.7719 108.26C29.2119 108.64 29.7619 108.94 30.4219 109.16C31.0819 109.38 31.9819 109.63 33.1219 109.91C34.6819 110.27 35.9619 110.65 36.9619 111.05C37.9619 111.43 38.8119 112.02 39.5119 112.82C40.2319 113.62 40.5919 114.7 40.5919 116.06C40.5919 117.22 40.2719 118.27 39.6319 119.21C39.0119 120.15 38.0619 120.9 36.7819 121.46C35.5019 122.02 33.9419 122.3 32.1019 122.3ZM58.4391 111.08C59.5991 111.46 60.5191 112.1 61.1991 113C61.8791 113.88 62.2191 114.98 62.2191 116.3C62.2191 118.12 61.5191 119.53 60.1191 120.53C58.7191 121.51 56.6791 122 53.9991 122H43.5591V101H53.3991C55.8791 101 57.7891 101.49 59.1291 102.47C60.4691 103.43 61.1391 104.76 61.1391 106.46C61.1391 107.5 60.8991 108.42 60.4191 109.22C59.9391 110.02 59.2791 110.64 58.4391 111.08ZM47.4591 104.06V109.85H52.9791C54.3391 109.85 55.3791 109.61 56.0991 109.13C56.8391 108.63 57.2091 107.91 57.2091 106.97C57.2091 106.01 56.8391 105.29 56.0991 104.81C55.3791 104.31 54.3391 104.06 52.9791 104.06H47.4591ZM53.7591 118.94C56.7791 118.94 58.2891 117.93 58.2891 115.91C58.2891 113.89 56.7791 112.88 53.7591 112.88H47.4591V118.94H53.7591Z" fill="black"/>
<path d="M79.1913 118.7V122H63.7113V119.39L72.0513 111.47C72.9913 110.57 73.6213 109.79 73.9413 109.13C74.2813 108.45 74.4513 107.78 74.4513 107.12C74.4513 106.14 74.1213 105.39 73.4613 104.87C72.8013 104.35 71.8313 104.09 70.5513 104.09C68.4113 104.09 66.7713 104.82 65.6313 106.28L62.9013 104.18C63.7213 103.08 64.8213 102.23 66.2013 101.63C67.6013 101.01 69.1613 100.7 70.8813 100.7C73.1613 100.7 74.9813 101.24 76.3413 102.32C77.7013 103.4 78.3813 104.87 78.3813 106.73C78.3813 107.87 78.1413 108.94 77.6613 109.94C77.1813 110.94 76.2613 112.08 74.9013 113.36L69.2913 118.7H79.1913ZM83.1752 122.21C82.4952 122.21 81.9152 121.98 81.4352 121.52C80.9552 121.04 80.7152 120.44 80.7152 119.72C80.7152 118.98 80.9452 118.38 81.4052 117.92C81.8852 117.46 82.4752 117.23 83.1752 117.23C83.8752 117.23 84.4552 117.46 84.9152 117.92C85.3952 118.38 85.6352 118.98 85.6352 119.72C85.6352 120.44 85.3952 121.04 84.9152 121.52C84.4352 121.98 83.8552 122.21 83.1752 122.21ZM95.6679 122.3C93.9879 122.3 92.4879 121.88 91.1679 121.04C89.8479 120.18 88.8079 118.94 88.0479 117.32C87.2879 115.68 86.9079 113.74 86.9079 111.5C86.9079 109.26 87.2879 107.33 88.0479 105.71C88.8079 104.07 89.8479 102.83 91.1679 101.99C92.4879 101.13 93.9879 100.7 95.6679 100.7C97.3479 100.7 98.8479 101.13 100.168 101.99C101.508 102.83 102.558 104.07 103.318 105.71C104.078 107.33 104.458 109.26 104.458 111.5C104.458 113.74 104.078 115.68 103.318 117.32C102.558 118.94 101.508 120.18 100.168 121.04C98.8479 121.88 97.3479 122.3 95.6679 122.3ZM95.6679 118.91C97.1679 118.91 98.3479 118.29 99.2079 117.05C100.088 115.81 100.528 113.96 100.528 111.5C100.528 109.04 100.088 107.19 99.2079 105.95C98.3479 104.71 97.1679 104.09 95.6679 104.09C94.1879 104.09 93.0079 104.71 92.1279 105.95C91.2679 107.19 90.8379 109.04 90.8379 111.5C90.8379 113.96 91.2679 115.81 92.1279 117.05C93.0079 118.29 94.1879 118.91 95.6679 118.91Z" fill="#00ADFF"/>
<rect x="136" y="267" width="60" height="30" fill="#00ADFF"/>
<path d="M18.57 289.73V293H2.82V272H18.15V275.27H6.72V280.73H16.86V283.94H6.72V289.73H18.57ZM30.9947 292.13C30.5547 292.49 30.0147 292.76 29.3747 292.94C28.7547 293.12 28.0947 293.21 27.3947 293.21C25.6347 293.21 24.2747 292.75 23.3147 291.83C22.3547 290.91 21.8747 289.57 21.8747 287.81V280.1H19.2347V277.1H21.8747V273.44H25.6247V277.1H29.9147V280.1H25.6247V287.72C25.6247 288.5 25.8147 289.1 26.1947 289.52C26.5747 289.92 27.1247 290.12 27.8447 290.12C28.6847 290.12 29.3847 289.9 29.9447 289.46L30.9947 292.13ZM42.2695 276.8C44.2895 276.8 45.9095 277.39 47.1295 278.57C48.3495 279.75 48.9595 281.5 48.9595 283.82V293H45.2095V284.3C45.2095 282.9 44.8795 281.85 44.2195 281.15C43.5595 280.43 42.6195 280.07 41.3995 280.07C40.0195 280.07 38.9295 280.49 38.1295 281.33C37.3295 282.15 36.9295 283.34 36.9295 284.9V293H33.1795V270.74H36.9295V278.84C37.5495 278.18 38.3095 277.68 39.2095 277.34C40.1295 276.98 41.1495 276.8 42.2695 276.8ZM68.0231 285.08C68.0231 285.34 68.0031 285.71 67.9631 286.19H55.3931C55.6131 287.37 56.1831 288.31 57.1031 289.01C58.0431 289.69 59.2031 290.03 60.5831 290.03C62.3431 290.03 63.7931 289.45 64.9331 288.29L66.9431 290.6C66.2231 291.46 65.3131 292.11 64.2131 292.55C63.1131 292.99 61.8731 293.21 60.4931 293.21C58.7331 293.21 57.1831 292.86 55.8431 292.16C54.5031 291.46 53.4631 290.49 52.7231 289.25C52.0031 287.99 51.6431 286.57 51.6431 284.99C51.6431 283.43 51.9931 282.03 52.6931 280.79C53.4131 279.53 54.4031 278.55 55.6631 277.85C56.9231 277.15 58.3431 276.8 59.9231 276.8C61.4831 276.8 62.8731 277.15 64.0931 277.85C65.3331 278.53 66.2931 279.5 66.9731 280.76C67.6731 282 68.0231 283.44 68.0231 285.08ZM59.9231 279.8C58.7231 279.8 57.7031 280.16 56.8631 280.88C56.0431 281.58 55.5431 282.52 55.3631 283.7H64.4531C64.2931 282.54 63.8031 281.6 62.9831 280.88C62.1631 280.16 61.1431 279.8 59.9231 279.8ZM74.2952 279.32C75.3752 277.64 77.2752 276.8 79.9952 276.8V280.37C79.6752 280.31 79.3852 280.28 79.1252 280.28C77.6652 280.28 76.5252 280.71 75.7052 281.57C74.8852 282.41 74.4752 283.63 74.4752 285.23V293H70.7252V276.98H74.2952V279.32ZM91.3664 276.8C93.3864 276.8 95.0064 277.39 96.2264 278.57C97.4464 279.75 98.0564 281.5 98.0564 283.82V293H94.3064V284.3C94.3064 282.9 93.9764 281.85 93.3164 281.15C92.6564 280.43 91.7164 280.07 90.4964 280.07C89.1164 280.07 88.0264 280.49 87.2264 281.33C86.4264 282.15 86.0264 283.34 86.0264 284.9V293H82.2764V276.98H85.8464V279.05C86.4664 278.31 87.2464 277.75 88.1864 277.37C89.1264 276.99 90.1864 276.8 91.3664 276.8ZM117.12 285.08C117.12 285.34 117.1 285.71 117.06 286.19H104.49C104.71 287.37 105.28 288.31 106.2 289.01C107.14 289.69 108.3 290.03 109.68 290.03C111.44 290.03 112.89 289.45 114.03 288.29L116.04 290.6C115.32 291.46 114.41 292.11 113.31 292.55C112.21 292.99 110.97 293.21 109.59 293.21C107.83 293.21 106.28 292.86 104.94 292.16C103.6 291.46 102.56 290.49 101.82 289.25C101.1 287.99 100.74 286.57 100.74 284.99C100.74 283.43 101.09 282.03 101.79 280.79C102.51 279.53 103.5 278.55 104.76 277.85C106.02 277.15 107.44 276.8 109.02 276.8C110.58 276.8 111.97 277.15 113.19 277.85C114.43 278.53 115.39 279.5 116.07 280.76C116.77 282 117.12 283.44 117.12 285.08ZM109.02 279.8C107.82 279.8 106.8 280.16 105.96 280.88C105.14 281.58 104.64 282.52 104.46 283.7H113.55C113.39 282.54 112.9 281.6 112.08 280.88C111.26 280.16 110.24 279.8 109.02 279.8ZM129.452 292.13C129.012 292.49 128.472 292.76 127.832 292.94C127.212 293.12 126.552 293.21 125.852 293.21C124.092 293.21 122.732 292.75 121.772 291.83C120.812 290.91 120.332 289.57 120.332 287.81V280.1H117.692V277.1H120.332V273.44H124.082V277.1H128.372V280.1H124.082V287.72C124.082 288.5 124.272 289.1 124.652 289.52C125.032 289.92 125.582 290.12 126.302 290.12C127.142 290.12 127.842 289.9 128.402 289.46L129.452 292.13Z" fill="black"/>
<path d="M148.311 271.964V281H145.756V273.939H144.077V271.964H148.311ZM159.171 276.288H161.43V280.032C160.914 280.402 160.32 280.686 159.649 280.884C158.978 281.082 158.306 281.181 157.635 281.181C156.688 281.181 155.837 280.983 155.079 280.587C154.322 280.182 153.728 279.623 153.298 278.909C152.868 278.195 152.652 277.386 152.652 276.482C152.652 275.578 152.868 274.769 153.298 274.055C153.728 273.341 154.326 272.786 155.092 272.39C155.858 271.986 156.723 271.783 157.687 271.783C158.53 271.783 159.287 271.925 159.959 272.209C160.63 272.493 161.189 272.902 161.637 273.436L160.01 274.907C159.399 274.236 158.668 273.9 157.816 273.9C157.041 273.9 156.417 274.137 155.944 274.61C155.471 275.075 155.234 275.699 155.234 276.482C155.234 276.981 155.342 277.429 155.557 277.825C155.772 278.212 156.073 278.517 156.46 278.741C156.848 278.956 157.291 279.064 157.79 279.064C158.281 279.064 158.741 278.965 159.171 278.767V276.288ZM169.608 276.288C170.124 276.469 170.529 276.753 170.822 277.14C171.114 277.519 171.26 277.979 171.26 278.522C171.26 279.313 170.942 279.924 170.305 280.355C169.668 280.785 168.748 281 167.543 281H162.663V271.964H167.285C168.438 271.964 169.316 272.179 169.918 272.609C170.52 273.031 170.822 273.603 170.822 274.326C170.822 274.757 170.714 275.144 170.499 275.488C170.292 275.824 169.995 276.09 169.608 276.288ZM165.193 273.81V275.553H166.949C167.81 275.553 168.24 275.26 168.24 274.675C168.24 274.098 167.81 273.81 166.949 273.81H165.193ZM167.336 279.154C168.231 279.154 168.679 278.849 168.679 278.238C168.679 277.627 168.231 277.321 167.336 277.321H165.193V279.154H167.336ZM179.452 279.025V281H172.197V271.964H179.284V273.939H174.727V275.462H178.742V277.373H174.727V279.025H179.452Z" fill="white"/>
<path d="M186.731 270.131H188.912L184.652 282.291H182.471L186.731 270.131Z" fill="black"/>
<path d="M148.311 283.964V293H145.756V285.939H144.077V283.964H148.311ZM153.272 293.181C152.497 293.181 151.809 292.996 151.206 292.626C150.604 292.256 150.131 291.718 149.787 291.012C149.451 290.298 149.283 289.454 149.283 288.482C149.283 287.51 149.451 286.671 149.787 285.965C150.131 285.251 150.604 284.708 151.206 284.338C151.809 283.968 152.497 283.783 153.272 283.783C154.038 283.783 154.722 283.968 155.324 284.338C155.927 284.708 156.396 285.251 156.731 285.965C157.076 286.671 157.248 287.51 157.248 288.482C157.248 289.454 157.076 290.298 156.731 291.012C156.396 291.718 155.927 292.256 155.324 292.626C154.722 292.996 154.038 293.181 153.272 293.181ZM153.272 291.09C153.702 291.09 154.042 290.883 154.292 290.47C154.55 290.048 154.679 289.386 154.679 288.482C154.679 287.578 154.55 286.92 154.292 286.507C154.042 286.085 153.702 285.875 153.272 285.875C152.833 285.875 152.484 286.085 152.226 286.507C151.977 286.92 151.852 287.578 151.852 288.482C151.852 289.386 151.977 290.048 152.226 290.47C152.484 290.883 152.833 291.09 153.272 291.09ZM167.621 288.288H169.88V292.032C169.363 292.402 168.77 292.686 168.098 292.884C167.427 293.082 166.756 293.181 166.085 293.181C165.138 293.181 164.286 292.983 163.529 292.587C162.771 292.182 162.178 291.623 161.747 290.909C161.317 290.195 161.102 289.386 161.102 288.482C161.102 287.578 161.317 286.769 161.747 286.055C162.178 285.341 162.776 284.786 163.542 284.39C164.308 283.986 165.172 283.783 166.136 283.783C166.98 283.783 167.737 283.925 168.408 284.209C169.079 284.493 169.639 284.902 170.086 285.436L168.46 286.907C167.849 286.236 167.117 285.9 166.265 285.9C165.491 285.9 164.867 286.137 164.394 286.61C163.92 287.075 163.684 287.699 163.684 288.482C163.684 288.981 163.791 289.429 164.006 289.825C164.222 290.212 164.523 290.517 164.91 290.741C165.297 290.956 165.74 291.064 166.24 291.064C166.73 291.064 167.19 290.965 167.621 290.767V288.288ZM178.058 288.288C178.574 288.469 178.978 288.753 179.271 289.14C179.564 289.519 179.71 289.979 179.71 290.522C179.71 291.313 179.392 291.924 178.755 292.355C178.118 292.785 177.197 293 175.992 293H171.113V283.964H175.734C176.887 283.964 177.765 284.179 178.367 284.609C178.97 285.031 179.271 285.603 179.271 286.326C179.271 286.757 179.164 287.144 178.948 287.488C178.742 287.824 178.445 288.09 178.058 288.288ZM173.643 285.81V287.553H175.399C176.259 287.553 176.689 287.26 176.689 286.675C176.689 286.098 176.259 285.81 175.399 285.81H173.643ZM175.786 291.154C176.681 291.154 177.128 290.849 177.128 290.238C177.128 289.627 176.681 289.321 175.786 289.321H173.643V291.154H175.786ZM187.901 291.025V293H180.647V283.964H187.733V285.939H183.177V287.462H187.191V289.373H183.177V291.025H187.901Z" fill="white"/>
<path d="M271.428 276.68V281.841H279.618V284.506H271.428V291H268.278V274.038H280.66V276.68H271.428ZM282.452 278.061H285.48V291H282.452V278.061ZM283.978 275.928C283.429 275.928 282.968 275.759 282.597 275.42C282.225 275.064 282.04 274.628 282.04 274.111C282.04 273.594 282.225 273.166 282.597 272.827C282.968 272.472 283.429 272.294 283.978 272.294C284.527 272.294 284.988 272.463 285.359 272.803C285.731 273.126 285.917 273.538 285.917 274.038C285.917 274.572 285.731 275.024 285.359 275.395C285.004 275.751 284.543 275.928 283.978 275.928ZM295.901 277.915C297.161 277.915 298.284 278.19 299.269 278.739C300.271 279.288 301.054 280.064 301.62 281.065C302.185 282.067 302.468 283.222 302.468 284.53C302.468 285.839 302.185 287.002 301.62 288.02C301.054 289.021 300.271 289.797 299.269 290.346C298.284 290.895 297.161 291.17 295.901 291.17C295.013 291.17 294.197 291.016 293.454 290.709C292.727 290.402 292.113 289.942 291.612 289.328V291H288.729V273.021H291.758V279.636C292.275 279.07 292.88 278.642 293.575 278.352C294.286 278.061 295.061 277.915 295.901 277.915ZM295.562 288.577C296.677 288.577 297.589 288.205 298.3 287.462C299.027 286.719 299.39 285.742 299.39 284.53C299.39 283.319 299.027 282.342 298.3 281.598C297.589 280.855 296.677 280.484 295.562 280.484C294.835 280.484 294.181 280.653 293.599 280.993C293.018 281.316 292.557 281.784 292.218 282.398C291.879 283.012 291.709 283.723 291.709 284.53C291.709 285.338 291.879 286.049 292.218 286.663C292.557 287.277 293.018 287.753 293.599 288.092C294.181 288.415 294.835 288.577 295.562 288.577ZM307.497 279.951C308.369 278.594 309.904 277.915 312.101 277.915V280.799C311.842 280.75 311.608 280.726 311.398 280.726C310.219 280.726 309.298 281.073 308.636 281.768C307.973 282.447 307.642 283.432 307.642 284.724V291H304.613V278.061H307.497V279.951ZM325.989 284.603C325.989 284.813 325.972 285.112 325.94 285.5H315.787C315.965 286.453 316.425 287.212 317.169 287.777C317.928 288.327 318.865 288.601 319.979 288.601C321.401 288.601 322.572 288.133 323.493 287.196L325.116 289.062C324.535 289.756 323.8 290.281 322.911 290.637C322.023 290.992 321.021 291.17 319.907 291.17C318.485 291.17 317.233 290.887 316.151 290.322C315.069 289.756 314.229 288.973 313.631 287.971C313.049 286.953 312.759 285.807 312.759 284.53C312.759 283.27 313.041 282.14 313.607 281.138C314.188 280.12 314.988 279.329 316.005 278.763C317.023 278.198 318.17 277.915 319.446 277.915C320.706 277.915 321.829 278.198 322.814 278.763C323.816 279.313 324.591 280.096 325.14 281.114C325.706 282.115 325.989 283.278 325.989 284.603ZM319.446 280.338C318.477 280.338 317.653 280.629 316.975 281.211C316.312 281.776 315.909 282.535 315.763 283.488H323.105C322.976 282.552 322.58 281.792 321.918 281.211C321.255 280.629 320.432 280.338 319.446 280.338Z" fill="black"/>
<path d="M336.313 291.242C334.6 291.242 333.05 290.871 331.66 290.128C330.287 289.368 329.205 288.327 328.413 287.002C327.638 285.677 327.25 284.183 327.25 282.519C327.25 280.855 327.646 279.361 328.438 278.037C329.229 276.712 330.311 275.678 331.685 274.935C333.074 274.176 334.625 273.796 336.337 273.796C337.726 273.796 338.994 274.038 340.141 274.523C341.288 275.008 342.257 275.71 343.049 276.631L341.013 278.545C339.786 277.221 338.275 276.558 336.482 276.558C335.319 276.558 334.277 276.817 333.356 277.334C332.436 277.835 331.717 278.537 331.2 279.442C330.683 280.347 330.425 281.372 330.425 282.519C330.425 283.666 330.683 284.692 331.2 285.597C331.717 286.501 332.436 287.212 333.356 287.729C334.277 288.23 335.319 288.48 336.482 288.48C338.275 288.48 339.786 287.81 341.013 286.469L343.049 288.407C342.257 289.328 341.28 290.031 340.117 290.515C338.97 291 337.702 291.242 336.313 291.242ZM352.391 277.915C354.023 277.915 355.331 278.392 356.317 279.345C357.302 280.298 357.795 281.712 357.795 283.585V291H354.766V283.973C354.766 282.842 354.499 281.994 353.966 281.429C353.433 280.847 352.674 280.557 351.689 280.557C350.574 280.557 349.694 280.896 349.047 281.574C348.401 282.237 348.078 283.198 348.078 284.458V291H345.049V273.021H348.078V279.563C348.579 279.03 349.193 278.626 349.92 278.352C350.663 278.061 351.487 277.915 352.391 277.915ZM365.853 277.915C367.759 277.915 369.213 278.376 370.215 279.297C371.232 280.201 371.741 281.574 371.741 283.416V291H368.882V289.425C368.51 289.99 367.977 290.427 367.283 290.733C366.604 291.024 365.78 291.17 364.811 291.17C363.842 291.17 362.994 291.008 362.267 290.685C361.54 290.346 360.975 289.885 360.571 289.304C360.183 288.706 359.989 288.036 359.989 287.293C359.989 286.13 360.417 285.201 361.273 284.506C362.146 283.795 363.511 283.44 365.368 283.44H368.712V283.246C368.712 282.342 368.438 281.647 367.888 281.162C367.355 280.678 366.556 280.435 365.49 280.435C364.763 280.435 364.044 280.548 363.333 280.775C362.638 281.001 362.049 281.316 361.564 281.72L360.377 279.515C361.055 278.998 361.871 278.602 362.824 278.327C363.777 278.053 364.787 277.915 365.853 277.915ZM365.441 288.965C366.2 288.965 366.871 288.795 367.452 288.456C368.05 288.1 368.47 287.6 368.712 286.953V285.451H365.587C363.842 285.451 362.97 286.025 362.97 287.172C362.97 287.721 363.188 288.157 363.624 288.48C364.06 288.803 364.666 288.965 365.441 288.965ZM382.243 277.915C383.875 277.915 385.183 278.392 386.169 279.345C387.154 280.298 387.647 281.712 387.647 283.585V291H384.618V283.973C384.618 282.842 384.351 281.994 383.818 281.429C383.285 280.847 382.526 280.557 381.541 280.557C380.426 280.557 379.546 280.896 378.899 281.574C378.253 282.237 377.93 283.198 377.93 284.458V291H374.901V278.061H377.785V279.733C378.286 279.135 378.916 278.683 379.675 278.376C380.434 278.069 381.29 277.915 382.243 277.915ZM398.104 277.915C399.736 277.915 401.044 278.392 402.029 279.345C403.015 280.298 403.508 281.712 403.508 283.585V291H400.479V283.973C400.479 282.842 400.212 281.994 399.679 281.429C399.146 280.847 398.387 280.557 397.401 280.557C396.287 280.557 395.406 280.896 394.76 281.574C394.114 282.237 393.791 283.198 393.791 284.458V291H390.762V278.061H393.646V279.733C394.146 279.135 394.776 278.683 395.536 278.376C396.295 278.069 397.151 277.915 398.104 277.915ZM418.905 284.603C418.905 284.813 418.889 285.112 418.857 285.5H408.704C408.882 286.453 409.342 287.212 410.085 287.777C410.844 288.327 411.781 288.601 412.896 288.601C414.317 288.601 415.489 288.133 416.409 287.196L418.033 289.062C417.451 289.756 416.716 290.281 415.828 290.637C414.939 290.992 413.938 291.17 412.823 291.17C411.402 291.17 410.15 290.887 409.067 290.322C407.985 289.756 407.145 288.973 406.547 287.971C405.966 286.953 405.675 285.807 405.675 284.53C405.675 283.27 405.958 282.14 406.523 281.138C407.105 280.12 407.904 279.329 408.922 278.763C409.94 278.198 411.087 277.915 412.363 277.915C413.623 277.915 414.745 278.198 415.731 278.763C416.732 279.313 417.508 280.096 418.057 281.114C418.622 282.115 418.905 283.278 418.905 284.603ZM412.363 280.338C411.394 280.338 410.57 280.629 409.891 281.211C409.229 281.776 408.825 282.535 408.68 283.488H416.022C415.892 282.552 415.497 281.792 414.834 281.211C414.172 280.629 413.348 280.338 412.363 280.338ZM421.088 273.021H424.116V291H421.088V273.021Z" fill="#555555"/>
<path d="M166.85 122.3C163.95 122.3 161.69 121.49 160.07 119.87C158.45 118.23 157.64 115.89 157.64 112.85V101H161.54V112.7C161.54 116.82 163.32 118.88 166.88 118.88C170.42 118.88 172.19 116.82 172.19 112.7V101H176.03V112.85C176.03 115.89 175.22 118.23 173.6 119.87C172 121.49 169.75 122.3 166.85 122.3ZM187.102 122.3C185.482 122.3 183.912 122.07 182.392 121.61C180.892 121.15 179.702 120.54 178.822 119.78L180.172 116.75C181.032 117.43 182.082 117.99 183.322 118.43C184.582 118.85 185.842 119.06 187.102 119.06C188.662 119.06 189.822 118.81 190.582 118.31C191.362 117.81 191.752 117.15 191.752 116.33C191.752 115.73 191.532 115.24 191.092 114.86C190.672 114.46 190.132 114.15 189.472 113.93C188.812 113.71 187.912 113.46 186.772 113.18C185.172 112.8 183.872 112.42 182.872 112.04C181.892 111.66 181.042 111.07 180.322 110.27C179.622 109.45 179.272 108.35 179.272 106.97C179.272 105.81 179.582 104.76 180.202 103.82C180.842 102.86 181.792 102.1 183.052 101.54C184.332 100.98 185.892 100.7 187.732 100.7C189.012 100.7 190.272 100.86 191.512 101.18C192.752 101.5 193.822 101.96 194.722 102.56L193.492 105.59C192.572 105.05 191.612 104.64 190.612 104.36C189.612 104.08 188.642 103.94 187.702 103.94C186.162 103.94 185.012 104.2 184.252 104.72C183.512 105.24 183.142 105.93 183.142 106.79C183.142 107.39 183.352 107.88 183.772 108.26C184.212 108.64 184.762 108.94 185.422 109.16C186.082 109.38 186.982 109.63 188.122 109.91C189.682 110.27 190.962 110.65 191.962 111.05C192.962 111.43 193.812 112.02 194.512 112.82C195.232 113.62 195.592 114.7 195.592 116.06C195.592 117.22 195.272 118.27 194.632 119.21C194.012 120.15 193.062 120.9 191.782 121.46C190.502 122.02 188.942 122.3 187.102 122.3ZM213.439 111.08C214.599 111.46 215.519 112.1 216.199 113C216.879 113.88 217.219 114.98 217.219 116.3C217.219 118.12 216.519 119.53 215.119 120.53C213.719 121.51 211.679 122 208.999 122H198.559V101H208.399C210.879 101 212.789 101.49 214.129 102.47C215.469 103.43 216.139 104.76 216.139 106.46C216.139 107.5 215.899 108.42 215.419 109.22C214.939 110.02 214.279 110.64 213.439 111.08ZM202.459 104.06V109.85H207.979C209.339 109.85 210.379 109.61 211.099 109.13C211.839 108.63 212.209 107.91 212.209 106.97C212.209 106.01 211.839 105.29 211.099 104.81C210.379 104.31 209.339 104.06 207.979 104.06H202.459ZM208.759 118.94C211.779 118.94 213.289 117.93 213.289 115.91C213.289 113.89 211.779 112.88 208.759 112.88H202.459V118.94H208.759Z" fill="black"/>
<path d="M227.921 109.67C229.861 109.91 231.341 110.57 232.361 111.65C233.381 112.73 233.891 114.08 233.891 115.7C233.891 116.92 233.581 118.03 232.961 119.03C232.341 120.03 231.401 120.83 230.141 121.43C228.901 122.01 227.381 122.3 225.581 122.3C224.081 122.3 222.631 122.09 221.231 121.67C219.851 121.23 218.671 120.63 217.691 119.87L219.371 116.84C220.131 117.48 221.051 117.99 222.131 118.37C223.231 118.73 224.361 118.91 225.521 118.91C226.901 118.91 227.981 118.63 228.761 118.07C229.561 117.49 229.961 116.71 229.961 115.73C229.961 114.75 229.581 113.99 228.821 113.45C228.081 112.89 226.941 112.61 225.401 112.61H223.481V109.94L228.251 104.27H218.711V101H233.021V103.61L227.921 109.67ZM237.882 122.21C237.202 122.21 236.622 121.98 236.142 121.52C235.662 121.04 235.422 120.44 235.422 119.72C235.422 118.98 235.652 118.38 236.112 117.92C236.592 117.46 237.182 117.23 237.882 117.23C238.582 117.23 239.162 117.46 239.622 117.92C240.102 118.38 240.342 118.98 240.342 119.72C240.342 120.44 240.102 121.04 239.622 121.52C239.142 121.98 238.562 122.21 237.882 122.21ZM250.375 122.3C248.695 122.3 247.195 121.88 245.875 121.04C244.555 120.18 243.515 118.94 242.755 117.32C241.995 115.68 241.615 113.74 241.615 111.5C241.615 109.26 241.995 107.33 242.755 105.71C243.515 104.07 244.555 102.83 245.875 101.99C247.195 101.13 248.695 100.7 250.375 100.7C252.055 100.7 253.555 101.13 254.875 101.99C256.215 102.83 257.265 104.07 258.025 105.71C258.785 107.33 259.165 109.26 259.165 111.5C259.165 113.74 258.785 115.68 258.025 117.32C257.265 118.94 256.215 120.18 254.875 121.04C253.555 121.88 252.055 122.3 250.375 122.3ZM250.375 118.91C251.875 118.91 253.055 118.29 253.915 117.05C254.795 115.81 255.235 113.96 255.235 111.5C255.235 109.04 254.795 107.19 253.915 105.95C253.055 104.71 251.875 104.09 250.375 104.09C248.895 104.09 247.715 104.71 246.835 105.95C245.975 107.19 245.545 109.04 245.545 111.5C245.545 113.96 245.975 115.81 246.835 117.05C247.715 118.29 248.895 118.91 250.375 118.91Z" fill="#00ADFF"/>
<path d="M175.33 34.3C173.71 34.3 172.14 34.07 170.62 33.61C169.12 33.15 167.93 32.54 167.05 31.78L168.4 28.75C169.26 29.43 170.31 29.99 171.55 30.43C172.81 30.85 174.07 31.06 175.33 31.06C176.89 31.06 178.05 30.81 178.81 30.31C179.59 29.81 179.98 29.15 179.98 28.33C179.98 27.73 179.76 27.24 179.32 26.86C178.9 26.46 178.36 26.15 177.7 25.93C177.04 25.71 176.14 25.46 175 25.18C173.4 24.8 172.1 24.42 171.1 24.04C170.12 23.66 169.27 23.07 168.55 22.27C167.85 21.45 167.5 20.35 167.5 18.97C167.5 17.81 167.81 16.76 168.43 15.82C169.07 14.86 170.02 14.1 171.28 13.54C172.56 12.98 174.12 12.7 175.96 12.7C177.24 12.7 178.5 12.86 179.74 13.18C180.98 13.5 182.05 13.96 182.95 14.56L181.72 17.59C180.8 17.05 179.84 16.64 178.84 16.36C177.84 16.08 176.87 15.94 175.93 15.94C174.39 15.94 173.24 16.2 172.48 16.72C171.74 17.24 171.37 17.93 171.37 18.79C171.37 19.39 171.58 19.88 172 20.26C172.44 20.64 172.99 20.94 173.65 21.16C174.31 21.38 175.21 21.63 176.35 21.91C177.91 22.27 179.19 22.65 180.19 23.05C181.19 23.43 182.04 24.02 182.74 24.82C183.46 25.62 183.82 26.7 183.82 28.06C183.82 29.22 183.5 30.27 182.86 31.21C182.24 32.15 181.29 32.9 180.01 33.46C178.73 34.02 177.17 34.3 175.33 34.3ZM193.297 34.3C191.677 34.3 190.107 34.07 188.587 33.61C187.087 33.15 185.897 32.54 185.017 31.78L186.367 28.75C187.227 29.43 188.277 29.99 189.517 30.43C190.777 30.85 192.037 31.06 193.297 31.06C194.857 31.06 196.017 30.81 196.777 30.31C197.557 29.81 197.947 29.15 197.947 28.33C197.947 27.73 197.727 27.24 197.287 26.86C196.867 26.46 196.327 26.15 195.667 25.93C195.007 25.71 194.107 25.46 192.967 25.18C191.367 24.8 190.067 24.42 189.067 24.04C188.087 23.66 187.237 23.07 186.517 22.27C185.817 21.45 185.467 20.35 185.467 18.97C185.467 17.81 185.777 16.76 186.397 15.82C187.037 14.86 187.987 14.1 189.247 13.54C190.527 12.98 192.087 12.7 193.927 12.7C195.207 12.7 196.467 12.86 197.707 13.18C198.947 13.5 200.017 13.96 200.917 14.56L199.687 17.59C198.767 17.05 197.807 16.64 196.807 16.36C195.807 16.08 194.837 15.94 193.897 15.94C192.357 15.94 191.207 16.2 190.447 16.72C189.707 17.24 189.337 17.93 189.337 18.79C189.337 19.39 189.547 19.88 189.967 20.26C190.407 20.64 190.957 20.94 191.617 21.16C192.277 21.38 193.177 21.63 194.317 21.91C195.877 22.27 197.157 22.65 198.157 23.05C199.157 23.43 200.007 24.02 200.707 24.82C201.427 25.62 201.787 26.7 201.787 28.06C201.787 29.22 201.467 30.27 200.827 31.21C200.207 32.15 199.257 32.9 197.977 33.46C196.697 34.02 195.137 34.3 193.297 34.3ZM204.754 13H213.934C216.174 13 218.164 13.44 219.904 14.32C221.644 15.18 222.994 16.41 223.954 18.01C224.914 19.59 225.394 21.42 225.394 23.5C225.394 25.58 224.914 27.42 223.954 29.02C222.994 30.6 221.644 31.83 219.904 32.71C218.164 33.57 216.174 34 213.934 34H204.754V13ZM213.754 30.7C215.294 30.7 216.644 30.41 217.804 29.83C218.984 29.23 219.884 28.39 220.504 27.31C221.144 26.21 221.464 24.94 221.464 23.5C221.464 22.06 221.144 20.8 220.504 19.72C219.884 18.62 218.984 17.78 217.804 17.2C216.644 16.6 215.294 16.3 213.754 16.3H208.654V30.7H213.754Z" fill="black"/>
<path d="M321.85 122.3C318.95 122.3 316.69 121.49 315.07 119.87C313.45 118.23 312.64 115.89 312.64 112.85V101H316.54V112.7C316.54 116.82 318.32 118.88 321.88 118.88C325.42 118.88 327.19 116.82 327.19 112.7V101H331.03V112.85C331.03 115.89 330.22 118.23 328.6 119.87C327 121.49 324.75 122.3 321.85 122.3ZM342.102 122.3C340.482 122.3 338.912 122.07 337.392 121.61C335.892 121.15 334.702 120.54 333.822 119.78L335.172 116.75C336.032 117.43 337.082 117.99 338.322 118.43C339.582 118.85 340.842 119.06 342.102 119.06C343.662 119.06 344.822 118.81 345.582 118.31C346.362 117.81 346.752 117.15 346.752 116.33C346.752 115.73 346.532 115.24 346.092 114.86C345.672 114.46 345.132 114.15 344.472 113.93C343.812 113.71 342.912 113.46 341.772 113.18C340.172 112.8 338.872 112.42 337.872 112.04C336.892 111.66 336.042 111.07 335.322 110.27C334.622 109.45 334.272 108.35 334.272 106.97C334.272 105.81 334.582 104.76 335.202 103.82C335.842 102.86 336.792 102.1 338.052 101.54C339.332 100.98 340.892 100.7 342.732 100.7C344.012 100.7 345.272 100.86 346.512 101.18C347.752 101.5 348.822 101.96 349.722 102.56L348.492 105.59C347.572 105.05 346.612 104.64 345.612 104.36C344.612 104.08 343.642 103.94 342.702 103.94C341.162 103.94 340.012 104.2 339.252 104.72C338.512 105.24 338.142 105.93 338.142 106.79C338.142 107.39 338.352 107.88 338.772 108.26C339.212 108.64 339.762 108.94 340.422 109.16C341.082 109.38 341.982 109.63 343.122 109.91C344.682 110.27 345.962 110.65 346.962 111.05C347.962 111.43 348.812 112.02 349.512 112.82C350.232 113.62 350.592 114.7 350.592 116.06C350.592 117.22 350.272 118.27 349.632 119.21C349.012 120.15 348.062 120.9 346.782 121.46C345.502 122.02 343.942 122.3 342.102 122.3ZM368.439 111.08C369.599 111.46 370.519 112.1 371.199 113C371.879 113.88 372.219 114.98 372.219 116.3C372.219 118.12 371.519 119.53 370.119 120.53C368.719 121.51 366.679 122 363.999 122H353.559V101H363.399C365.879 101 367.789 101.49 369.129 102.47C370.469 103.43 371.139 104.76 371.139 106.46C371.139 107.5 370.899 108.42 370.419 109.22C369.939 110.02 369.279 110.64 368.439 111.08ZM357.459 104.06V109.85H362.979C364.339 109.85 365.379 109.61 366.099 109.13C366.839 108.63 367.209 107.91 367.209 106.97C367.209 106.01 366.839 105.29 366.099 104.81C365.379 104.31 364.339 104.06 362.979 104.06H357.459ZM363.759 118.94C366.779 118.94 368.289 117.93 368.289 115.91C368.289 113.89 366.779 112.88 363.759 112.88H357.459V118.94H363.759Z" fill="black"/>
<path d="M382.921 109.67C384.861 109.91 386.341 110.57 387.361 111.65C388.381 112.73 388.891 114.08 388.891 115.7C388.891 116.92 388.581 118.03 387.961 119.03C387.341 120.03 386.401 120.83 385.141 121.43C383.901 122.01 382.381 122.3 380.581 122.3C379.081 122.3 377.631 122.09 376.231 121.67C374.851 121.23 373.671 120.63 372.691 119.87L374.371 116.84C375.131 117.48 376.051 117.99 377.131 118.37C378.231 118.73 379.361 118.91 380.521 118.91C381.901 118.91 382.981 118.63 383.761 118.07C384.561 117.49 384.961 116.71 384.961 115.73C384.961 114.75 384.581 113.99 383.821 113.45C383.081 112.89 381.941 112.61 380.401 112.61H378.481V109.94L383.251 104.27H373.711V101H388.021V103.61L382.921 109.67ZM392.882 122.21C392.202 122.21 391.622 121.98 391.142 121.52C390.662 121.04 390.422 120.44 390.422 119.72C390.422 118.98 390.652 118.38 391.112 117.92C391.592 117.46 392.182 117.23 392.882 117.23C393.582 117.23 394.162 117.46 394.622 117.92C395.102 118.38 395.342 118.98 395.342 119.72C395.342 120.44 395.102 121.04 394.622 121.52C394.142 121.98 393.562 122.21 392.882 122.21ZM403.787 101V122H399.887V104.27H395.447V101H403.787Z" fill="#00ADFF"/>
<path d="M467.85 122.3C464.95 122.3 462.69 121.49 461.07 119.87C459.45 118.23 458.64 115.89 458.64 112.85V101H462.54V112.7C462.54 116.82 464.32 118.88 467.88 118.88C471.42 118.88 473.19 116.82 473.19 112.7V101H477.03V112.85C477.03 115.89 476.22 118.23 474.6 119.87C473 121.49 470.75 122.3 467.85 122.3ZM488.102 122.3C486.482 122.3 484.912 122.07 483.392 121.61C481.892 121.15 480.702 120.54 479.822 119.78L481.172 116.75C482.032 117.43 483.082 117.99 484.322 118.43C485.582 118.85 486.842 119.06 488.102 119.06C489.662 119.06 490.822 118.81 491.582 118.31C492.362 117.81 492.752 117.15 492.752 116.33C492.752 115.73 492.532 115.24 492.092 114.86C491.672 114.46 491.132 114.15 490.472 113.93C489.812 113.71 488.912 113.46 487.772 113.18C486.172 112.8 484.872 112.42 483.872 112.04C482.892 111.66 482.042 111.07 481.322 110.27C480.622 109.45 480.272 108.35 480.272 106.97C480.272 105.81 480.582 104.76 481.202 103.82C481.842 102.86 482.792 102.1 484.052 101.54C485.332 100.98 486.892 100.7 488.732 100.7C490.012 100.7 491.272 100.86 492.512 101.18C493.752 101.5 494.822 101.96 495.722 102.56L494.492 105.59C493.572 105.05 492.612 104.64 491.612 104.36C490.612 104.08 489.642 103.94 488.702 103.94C487.162 103.94 486.012 104.2 485.252 104.72C484.512 105.24 484.142 105.93 484.142 106.79C484.142 107.39 484.352 107.88 484.772 108.26C485.212 108.64 485.762 108.94 486.422 109.16C487.082 109.38 487.982 109.63 489.122 109.91C490.682 110.27 491.962 110.65 492.962 111.05C493.962 111.43 494.812 112.02 495.512 112.82C496.232 113.62 496.592 114.7 496.592 116.06C496.592 117.22 496.272 118.27 495.632 119.21C495.012 120.15 494.062 120.9 492.782 121.46C491.502 122.02 489.942 122.3 488.102 122.3ZM514.439 111.08C515.599 111.46 516.519 112.1 517.199 113C517.879 113.88 518.219 114.98 518.219 116.3C518.219 118.12 517.519 119.53 516.119 120.53C514.719 121.51 512.679 122 509.999 122H499.559V101H509.399C511.879 101 513.789 101.49 515.129 102.47C516.469 103.43 517.139 104.76 517.139 106.46C517.139 107.5 516.899 108.42 516.419 109.22C515.939 110.02 515.279 110.64 514.439 111.08ZM503.459 104.06V109.85H508.979C510.339 109.85 511.379 109.61 512.099 109.13C512.839 108.63 513.209 107.91 513.209 106.97C513.209 106.01 512.839 105.29 512.099 104.81C511.379 104.31 510.339 104.06 508.979 104.06H503.459ZM509.759 118.94C512.779 118.94 514.289 117.93 514.289 115.91C514.289 113.89 512.779 112.88 509.759 112.88H503.459V118.94H509.759ZM520.311 112.1H528.561V115.22H520.311V112.1Z" fill="black"/>
<path d="M541.844 122.3C539.724 122.3 537.804 121.84 536.084 120.92C534.384 119.98 533.044 118.69 532.064 117.05C531.104 115.41 530.624 113.56 530.624 111.5C530.624 109.44 531.114 107.59 532.094 105.95C533.074 104.31 534.414 103.03 536.114 102.11C537.834 101.17 539.754 100.7 541.874 100.7C543.594 100.7 545.164 101 546.584 101.6C548.004 102.2 549.204 103.07 550.184 104.21L547.664 106.58C546.144 104.94 544.274 104.12 542.054 104.12C540.614 104.12 539.324 104.44 538.184 105.08C537.044 105.7 536.154 106.57 535.514 107.69C534.874 108.81 534.554 110.08 534.554 111.5C534.554 112.92 534.874 114.19 535.514 115.31C536.154 116.43 537.044 117.31 538.184 117.95C539.324 118.57 540.614 118.88 542.054 118.88C544.274 118.88 546.144 118.05 547.664 116.39L550.184 118.79C549.204 119.93 547.994 120.8 546.554 121.4C545.134 122 543.564 122.3 541.844 122.3Z" fill="#00ADFF"/>
<path d="M509.02 185L499.87 206H496.03L486.85 185H491.08L498.07 201.2L505.12 185H509.02ZM524.442 195.26H528.132V203.63C527.052 204.49 525.792 205.15 524.352 205.61C522.912 206.07 521.432 206.3 519.912 206.3C517.772 206.3 515.842 205.84 514.122 204.92C512.402 203.98 511.052 202.69 510.072 201.05C509.092 199.41 508.602 197.56 508.602 195.5C508.602 193.44 509.092 191.59 510.072 189.95C511.052 188.31 512.402 187.03 514.122 186.11C515.862 185.17 517.812 184.7 519.972 184.7C521.732 184.7 523.332 184.99 524.772 185.57C526.212 186.15 527.422 187 528.402 188.12L525.942 190.52C524.342 188.92 522.412 188.12 520.152 188.12C518.672 188.12 517.352 188.43 516.192 189.05C515.052 189.67 514.152 190.54 513.492 191.66C512.852 192.78 512.532 194.06 512.532 195.5C512.532 196.9 512.852 198.16 513.492 199.28C514.152 200.4 515.052 201.28 516.192 201.92C517.352 202.56 518.662 202.88 520.122 202.88C521.762 202.88 523.202 202.52 524.442 201.8V195.26ZM545.995 201.14H535.495L533.425 206H529.405L538.855 185H542.695L552.175 206H548.095L545.995 201.14ZM544.705 198.08L540.745 188.9L536.815 198.08H544.705Z" fill="black"/>
<g clip-path="url(#clip0)">
<path d="M335.469 180.093H336.464L337.377 182.47L338.269 180.093H339.264V183.616H338.628V180.925H338.618L337.633 183.616H337.11L336.126 180.925H336.105V183.616H335.469V180.093Z" fill="black"/>
<path d="M333.572 183.617H332.936V180.688H331.859V180.094H334.639V180.688H333.572V183.617Z" fill="black"/>
<path d="M328.095 180V190.012L328.064 193.313L328.095 195.731V204.518H318.576V180H328.095Z" fill="black"/>
<path d="M314.68 186.447V204.528H305.469V186.117H296.689V204.528H287.514V186.117H278.739V204.528H269.513V180H308.326C310.075 180 311.572 180.63 312.818 181.88C314.06 183.136 314.685 184.66 314.685 186.447H314.68Z" fill="black"/>
<path d="M265.666 186.447V198.071C265.666 199.864 265.035 201.382 263.779 202.638C262.522 203.888 261.02 204.518 259.266 204.518H229.828L229.787 190.012H239.003L239.044 198.417H256.45V186.101H229.787L229.828 180H259.266C261.02 180 262.522 180.63 263.779 181.88C265.035 183.136 265.666 184.655 265.666 186.447H265.666Z" fill="black"/>
<path d="M216.13 180H225.802V204.518H216.13V195.731H199.524V204.518H190V180H199.524V190.012H216.13V180Z" fill="black"/>
<path d="M325.264 214.245H327.644V214.896H324.515V210.588H327.603V211.239H325.264V212.37H327.418V212.985H325.264V214.245Z" fill="black"/>
<path d="M322.68 213.258H323.413C323.351 214.286 322.628 214.999 321.592 214.999C320.31 214.999 319.541 213.976 319.541 212.742C319.541 211.512 320.31 210.484 321.592 210.484C322.557 210.489 323.316 211.027 323.408 211.956H322.659C322.531 211.461 322.218 211.099 321.592 211.099C320.675 211.099 320.29 211.915 320.29 212.742C320.29 213.568 320.675 214.384 321.592 214.384C322.259 214.385 322.623 213.883 322.68 213.258V213.258Z" fill="black"/>
<path d="M317.294 210.588L318.946 214.896H318.14L317.74 213.754H316.027L315.622 214.896H314.853L316.494 210.588H317.289H317.294ZM317.54 213.181L316.899 211.332H316.884L316.233 213.181H317.54Z" fill="black"/>
<path d="M314.658 211.239H312.463V212.37H314.391V212.985H312.463V214.896H311.704V210.588H314.658V211.239Z" fill="black"/>
<path d="M310.699 214.896H309.894C309.781 214.71 309.781 214.473 309.781 214.266C309.781 213.476 309.617 213.124 308.93 213.124H307.827V214.896H307.078V210.588H309.119C310.058 210.588 310.535 211.022 310.535 211.755C310.535 212.582 309.965 212.794 309.827 212.84V212.85C310.083 212.887 310.463 213.083 310.463 213.765C310.463 214.266 310.535 214.726 310.699 214.896V214.896ZM309.786 211.864C309.786 211.311 309.432 211.203 309.042 211.203H307.827V212.551H309.053C309.53 212.551 309.786 212.313 309.786 211.864Z" fill="black"/>
<path d="M303.622 214.245H306.001V214.896H302.883V210.588H305.96V211.239H303.622V212.37H305.786V212.985H303.622V214.245Z" fill="black"/>
<path d="M300.606 214.896H299.847V211.239H298.493V210.588H301.96V211.239H300.606V214.896Z" fill="black"/>
<path d="M296.893 210.588H297.601V214.896H296.811L294.863 211.729H294.842V214.896H294.124V210.588H294.924L296.873 213.765H296.893V210.588Z" fill="black"/>
<path d="M292.827 210.588H292.078V214.896H292.827V210.588Z" fill="black"/>
<path d="M287.513 210.588L289.164 214.896H288.359L287.959 213.754H286.251L285.851 214.896H285.077L286.718 210.588H287.513H287.513ZM287.759 213.181L287.118 211.332H287.102L286.451 213.181H287.759Z" fill="black"/>
<path d="M284.236 210.588H283.487V214.896H284.236V210.588Z" fill="black"/>
<path d="M280.518 210.588C281.836 210.588 282.405 211.554 282.405 212.742C282.405 213.93 281.836 214.896 280.518 214.896H278.743V210.588H280.518V210.588ZM281.656 212.742C281.656 211.879 281.405 211.202 280.23 211.202H279.492V214.281H280.23C281.405 214.281 281.656 213.605 281.656 212.742Z" fill="black"/>
<path d="M275.297 214.245H277.672V214.896H274.548V210.588H277.631V211.239H275.297V212.37H277.456V212.985H275.297V214.245Z" fill="black"/>
<path d="M268.789 210.588H269.846L271.025 213.961H271.035L272.189 210.588H273.23V214.896H272.517V211.574H272.507L271.317 214.896H270.702L269.517 211.574H269.502V214.896H268.789V210.588Z" fill="black"/>
<path d="M267.466 210.588H266.717V214.896H267.466V210.588Z" fill="black"/>
<path d="M264.441 214.896H263.692V211.239H262.338V210.588H265.8V211.239H264.441V214.896Z" fill="black"/>
<path d="M260.184 214.245H262.358V214.896H259.435V210.588H260.184V214.245Z" fill="black"/>
<path d="M258.153 210.588V213.346C258.153 214.452 257.45 214.999 256.399 214.999C255.342 214.999 254.64 214.452 254.64 213.346V210.588H255.388V213.098C255.388 213.677 255.429 214.349 256.399 214.349C257.368 214.349 257.404 213.677 257.404 213.098V210.588H258.153V210.588Z" fill="black"/>
<path d="M248.932 210.588H249.988L251.168 213.961H251.178L252.332 210.588H253.373V214.896H252.66V211.574H252.645L251.46 214.896H250.845L249.655 211.574H249.645V214.896H248.932V210.588Z" fill="black"/>
<path d="M244.838 210.588H245.551V214.896H244.762L242.813 211.729H242.797V214.896H242.084V210.588H242.874L244.828 213.765H244.838V210.588Z" fill="black"/>
<path d="M238.962 210.484C240.244 210.484 241.008 211.512 241.008 212.742C241.008 213.976 240.244 214.999 238.962 214.999C237.68 214.999 236.911 213.976 236.911 212.742C236.911 211.512 237.68 210.484 238.962 210.484ZM240.26 212.742C240.26 211.915 239.88 211.099 238.962 211.099C238.044 211.099 237.659 211.915 237.659 212.742C237.659 213.568 238.044 214.384 238.962 214.384C239.88 214.384 240.26 213.568 240.26 212.742Z" fill="black"/>
<path d="M235.802 210.588H235.054V214.896H235.802V210.588Z" fill="black"/>
<path d="M232.777 214.896H232.028V211.239H230.674V210.588H234.136V211.239H232.777V214.896Z" fill="black"/>
<path d="M229.745 210.588H228.997V214.896H229.745V210.588Z" fill="black"/>
<path d="M226.977 210.588H227.69V214.896H226.9L224.951 211.729H224.936V214.896H224.223V210.588H225.012L226.966 213.765H226.977V210.588Z" fill="black"/>
<path d="M222.915 210.588H222.166V214.896H222.915V210.588Z" fill="black"/>
<path d="M221.145 211.239H218.94V212.37H220.878V212.985H218.94V214.896H218.191V210.588H221.145V211.239Z" fill="black"/>
<path d="M214.745 214.245H217.119V214.896H213.996V210.588H217.078V211.239H214.745V212.37H216.904V212.985H214.745V214.245Z" fill="black"/>
<path d="M211.026 210.588C212.344 210.588 212.914 211.554 212.914 212.742C212.914 213.93 212.344 214.896 211.026 214.896H209.252V210.588H211.026V210.588ZM212.165 212.742C212.165 211.879 211.914 211.202 210.739 211.202H210.001V214.281H210.739C211.914 214.281 212.165 213.605 212.165 212.742Z" fill="black"/>
<path d="M208.293 212.658H206.77V213.056H208.293V212.658Z" fill="black"/>
<path d="M205.099 210.588H205.847V214.896H205.099V212.954H203.155V214.896H202.406V210.588H203.155V212.303H205.099V210.588Z" fill="black"/>
<path d="M201.185 212.628V214.896H200.708L200.596 214.39C200.19 214.85 199.826 214.999 199.308 214.999C198.026 214.999 197.257 213.976 197.257 212.742C197.257 211.512 198.026 210.484 199.308 210.484C200.242 210.484 201.026 210.985 201.139 211.956H200.406C200.339 211.388 199.847 211.099 199.308 211.099C198.39 211.099 198.006 211.915 198.006 212.742C198.006 213.568 198.39 214.384 199.308 214.384C200.072 214.395 200.493 213.93 200.503 213.201H199.365V212.628H201.185V212.628Z" fill="black"/>
<path d="M196.118 210.588H195.369V214.896H196.118V210.588Z" fill="black"/>
<path d="M193.303 210.588H194.051V214.896H193.303V212.954H191.354V214.896H190.605V210.588H191.354V212.303H193.303V210.588Z" fill="black"/>
</g>
<g clip-path="url(#clip1)">
<path fill-rule="evenodd" clip-rule="evenodd" d="M382.912 215.832H405.688V174.167H382.912V215.832Z" fill="#272727"/>
<path fill-rule="evenodd" clip-rule="evenodd" d="M390.036 210.543C389.496 210.543 389.172 210.165 389.172 209.679C389.172 209.14 389.496 208.761 390.036 208.761C390.522 208.761 390.846 209.14 390.846 209.679C390.846 210.165 390.522 210.543 390.036 210.543ZM391.331 206.873H390.846V208.762C390.684 208.492 390.306 208.33 389.982 208.33C389.173 208.33 388.687 208.87 388.687 209.679C388.687 210.435 389.173 210.975 389.982 210.975C390.306 210.975 390.684 210.813 390.846 210.542V210.921H391.332V206.873H391.331V206.873ZM392.087 208.384H392.573V210.921H392.087V208.384V208.384ZM392.357 207.143C392.519 207.143 392.681 207.305 392.681 207.467C392.681 207.683 392.519 207.845 392.357 207.845C392.307 207.846 392.257 207.837 392.211 207.818C392.164 207.8 392.122 207.772 392.087 207.737C392.052 207.701 392.024 207.659 392.005 207.613C391.987 207.567 391.978 207.517 391.979 207.467C391.979 207.305 392.141 207.143 392.357 207.143ZM394.57 208.762C395.109 208.762 395.433 209.14 395.433 209.68C395.433 210.165 395.109 210.49 394.57 210.49C394.084 210.49 393.76 210.165 393.76 209.68C393.76 209.14 394.084 208.762 394.57 208.762ZM395.919 208.384H395.433V208.762C395.217 208.492 394.893 208.33 394.515 208.33C393.76 208.33 393.22 208.924 393.22 209.679C393.22 210.381 393.76 210.975 394.515 210.975C394.893 210.975 395.217 210.813 395.433 210.489V210.867C395.433 211.298 395.217 211.784 394.515 211.784C394.137 211.784 393.868 211.622 393.598 211.352L393.274 211.784C393.652 212.108 394.029 212.216 394.515 212.216C395.325 212.216 395.918 211.676 395.918 210.921V208.384H395.919ZM396.675 208.384H397.16V210.921H396.675V208.384ZM396.89 207.143C397.106 207.143 397.268 207.305 397.268 207.467C397.268 207.683 397.106 207.845 396.89 207.845C396.728 207.845 396.566 207.683 396.566 207.467C396.566 207.305 396.728 207.143 396.89 207.143ZM399.265 208.816H398.617V209.95C398.617 210.219 398.617 210.543 398.941 210.543C399.049 210.543 399.211 210.543 399.319 210.489V210.921C399.211 210.975 398.941 210.975 398.887 210.975C398.132 210.975 398.132 210.543 398.132 210.111V208.816H397.538V208.384H398.132V207.682H398.617V208.384H399.265V208.816H399.265V208.816ZM401.531 209.68V209.842C401.531 210.219 401.37 210.597 400.83 210.597C400.506 210.597 400.29 210.49 400.29 210.219C400.29 209.788 400.83 209.68 401.262 209.68H401.531V209.68ZM400.237 208.978C400.398 208.87 400.56 208.708 400.938 208.708C401.37 208.708 401.531 208.978 401.531 209.248V209.356H401.208C400.398 209.356 399.805 209.572 399.805 210.219C399.805 210.705 400.182 210.975 400.668 210.975C401.046 210.975 401.316 210.867 401.532 210.543H401.586V210.921H402.018V209.194C402.018 208.708 401.694 208.33 400.938 208.33C400.561 208.33 400.183 208.438 399.913 208.708L400.237 208.978V208.978ZM402.719 210.921H403.205V206.873H402.719V210.921Z" fill="white"/>
<path fill-rule="evenodd" clip-rule="evenodd" d="M407.091 208.384H407.631L408.386 210.328L409.142 208.384H409.627L408.656 210.921H408.116L407.091 208.384V208.384ZM410.113 208.384H410.599V210.921H410.113V208.384ZM410.329 207.089C410.545 207.089 410.707 207.251 410.707 207.467C410.707 207.683 410.545 207.845 410.329 207.845C410.167 207.845 410.005 207.683 410.005 207.467C410.005 207.251 410.167 207.089 410.329 207.089ZM412.704 209.032C412.596 208.87 412.434 208.762 412.164 208.762C411.948 208.762 411.732 208.87 411.732 209.032C411.732 209.357 412.164 209.41 412.38 209.464C412.812 209.572 413.136 209.734 413.136 210.166C413.136 210.76 412.596 210.976 412.11 210.976C411.679 210.976 411.409 210.868 411.139 210.543L411.516 210.22C411.678 210.382 411.84 210.543 412.11 210.543C412.38 210.543 412.65 210.436 412.65 210.22C412.65 209.95 412.218 209.896 412.002 209.842C411.624 209.734 411.247 209.572 411.247 209.086C411.247 208.547 411.733 208.33 412.218 208.33C412.542 208.33 412.92 208.439 413.082 208.762L412.704 209.032V209.032ZM415.996 210.921H415.51V210.543C415.348 210.813 415.024 210.975 414.646 210.975C414.161 210.975 413.728 210.705 413.728 210.004V208.385H414.214V209.896C414.214 210.382 414.484 210.543 414.808 210.543C415.186 210.543 415.51 210.274 415.51 209.68V208.385H415.996V210.921V210.921ZM418.371 209.68V209.842C418.371 210.22 418.155 210.597 417.615 210.597C417.291 210.597 417.075 210.49 417.075 210.166C417.075 209.788 417.615 209.68 418.101 209.68H418.371V209.68ZM417.021 208.978C417.183 208.87 417.345 208.708 417.723 208.708C418.155 208.708 418.371 208.978 418.371 209.248V209.357H417.993C417.237 209.357 416.589 209.572 416.589 210.22C416.589 210.706 417.022 210.976 417.453 210.976C417.831 210.976 418.155 210.868 418.371 210.543V210.922H418.803V209.141C418.803 208.708 418.479 208.331 417.724 208.331C417.4 208.331 416.968 208.439 416.752 208.708L417.021 208.978V208.978ZM419.558 210.921H420.044V206.874H419.558V210.921ZM423.066 208.439H423.39V210.921H423.066V208.439ZM423.228 207.251C423.39 207.251 423.498 207.359 423.498 207.467C423.498 207.629 423.39 207.737 423.228 207.737C423.12 207.737 423.012 207.629 423.012 207.467C423.012 207.359 423.12 207.251 423.228 207.251ZM424.307 209.14V208.439H424.631V208.87C424.722 208.723 424.849 208.601 425 208.516C425.151 208.431 425.321 208.386 425.494 208.384C426.25 208.384 426.466 208.924 426.466 209.464V210.921H426.142V209.464C426.142 209.086 425.98 208.654 425.494 208.654C425.008 208.654 424.631 209.032 424.631 209.68V210.921H424.307V209.14H424.307V209.14ZM428.517 208.762H427.815V210.382C427.815 210.597 427.923 210.705 428.139 210.705C428.247 210.705 428.409 210.651 428.517 210.597V210.921C428.409 210.975 428.247 210.975 428.139 210.975C427.653 210.975 427.491 210.705 427.491 210.382V208.762H426.951V208.439H427.491V207.737H427.815V208.439H428.517V208.762ZM429.272 209.464C429.272 209.357 429.489 208.655 430.19 208.655C430.676 208.655 431.054 209.032 431.054 209.464H429.272ZM431.053 210.274C430.891 210.543 430.514 210.705 430.19 210.705C429.434 210.705 429.272 210.057 429.272 209.788H431.377V209.572C431.377 208.978 430.945 208.384 430.19 208.384C429.488 208.384 428.949 208.924 428.949 209.68C428.949 210.435 429.435 210.975 430.19 210.975C430.622 210.975 430.999 210.867 431.269 210.489L431.053 210.274V210.274ZM432.079 209.14C432.079 208.978 432.024 208.601 432.024 208.439H432.349C432.349 208.655 432.403 208.816 432.403 208.87C432.565 208.601 432.78 208.384 433.158 208.384C433.266 208.384 433.32 208.384 433.374 208.439L433.32 208.708H433.212C432.672 208.708 432.403 209.086 432.403 209.572V210.921H432.079V209.14V209.14ZM434.022 208.762H433.536V208.439H434.022V207.629C434.022 206.981 434.453 206.819 434.778 206.819C434.94 206.819 435.047 206.819 435.155 206.873L435.101 207.143C434.993 207.143 434.94 207.089 434.778 207.089C434.507 207.089 434.346 207.305 434.346 207.737V208.439H434.94V208.762H434.346V210.921H434.022V208.762V208.762ZM437.098 209.68V209.842C437.098 210.274 436.882 210.706 436.234 210.706C435.965 210.706 435.64 210.543 435.64 210.22C435.64 209.842 436.18 209.68 436.72 209.68H437.098V209.68ZM437.368 209.302C437.368 208.655 436.99 208.384 436.396 208.384C436.073 208.384 435.695 208.493 435.425 208.762L435.64 208.978C435.857 208.762 436.073 208.655 436.396 208.655C436.774 208.655 437.098 208.87 437.098 209.302V209.41H436.72C436.234 209.41 435.317 209.518 435.317 210.274C435.317 210.814 435.803 210.976 436.235 210.976C436.613 210.976 436.882 210.868 437.099 210.543V210.922H437.422C437.368 210.651 437.368 210.382 437.368 209.896V209.302H437.368V209.302ZM440.283 210.543C440.066 210.867 439.742 210.975 439.419 210.975C438.609 210.975 438.069 210.436 438.069 209.68C438.069 208.925 438.609 208.385 439.419 208.385C439.742 208.385 440.066 208.547 440.336 208.816L440.066 209.033C439.85 208.816 439.635 208.655 439.419 208.655C438.771 208.655 438.393 209.141 438.393 209.68C438.393 210.274 438.771 210.706 439.419 210.706C439.689 210.706 439.904 210.544 440.066 210.382L440.283 210.543ZM440.984 209.464C440.984 209.357 441.2 208.655 441.902 208.655C442.387 208.655 442.765 209.032 442.765 209.464H440.984ZM442.765 210.274C442.603 210.543 442.279 210.705 441.955 210.705C441.2 210.705 440.984 210.057 440.984 209.788H443.089V209.572C443.089 208.978 442.657 208.384 441.902 208.384C441.2 208.384 440.66 208.924 440.66 209.68C440.66 210.435 441.146 210.975 441.902 210.975C442.387 210.975 442.765 210.867 442.981 210.489L442.765 210.274Z" fill="#272727"/>
<path fill-rule="evenodd" clip-rule="evenodd" d="M387.284 197.05C387.284 193.542 389.551 190.844 393.221 190.844C396.837 190.844 399.481 193.542 399.481 197.05C399.481 200.612 396.836 203.311 393.221 203.311C389.551 203.311 387.284 200.612 387.284 197.05V197.05ZM401.586 179.564H399.373V191.815H399.319C397.862 189.71 395.272 188.793 393.221 188.793C388.31 188.793 384.855 192.355 384.855 197.05C384.855 201.799 388.31 205.307 393.221 205.307C395.272 205.307 397.862 204.39 399.319 202.285H399.373V204.93H401.586V179.564Z" fill="white"/>
<path fill-rule="evenodd" clip-rule="evenodd" d="M415.834 205.038H413.352L406.983 189.332H409.628L414.647 202.555H414.701L419.72 189.332H422.202L415.834 205.038V205.038ZM425.603 189.332H427.816V205.038H425.603V189.332ZM426.736 184.907C425.926 184.907 425.117 184.259 425.117 183.342C425.117 182.37 425.927 181.722 426.736 181.722C427.492 181.722 428.301 182.37 428.301 183.342C428.301 184.259 427.492 184.907 426.736 184.907Z" fill="#272727"/>
<path fill-rule="evenodd" clip-rule="evenodd" d="M431.054 183.126C431.054 185.501 429.165 187.444 426.79 187.444C424.361 187.444 422.473 185.501 422.473 183.126C422.473 180.752 424.361 178.809 426.79 178.809C429.165 178.809 431.054 180.752 431.054 183.126Z" fill="#272727"/>
<path fill-rule="evenodd" clip-rule="evenodd" d="M427.708 183.342C427.708 183.936 427.222 184.422 426.629 184.422C426.035 184.422 425.549 183.936 425.549 183.342C425.549 182.802 426.035 182.317 426.629 182.317C427.222 182.317 427.708 182.803 427.708 183.342Z" fill="white"/>
<path fill-rule="evenodd" clip-rule="evenodd" d="M409.735 182.748C411.732 181.399 414.161 180.751 416.536 180.373C419.396 179.942 422.418 179.996 425.279 180.428C427.599 180.751 429.92 181.399 431.863 182.694C433.32 183.612 434.508 185.177 433.752 186.958C433.698 187.065 433.914 186.85 433.914 186.85C434.076 186.688 434.238 186.526 434.4 186.31C434.724 185.986 435.209 185.554 435.372 185.123C436.127 183.342 435.101 181.885 433.645 180.859C431.701 179.51 429.273 178.862 426.952 178.538C423.967 178.053 420.924 178.053 417.939 178.538C415.618 178.916 413.244 179.564 411.301 180.913C410.869 181.183 410.545 181.669 410.222 182.046C410.048 182.221 409.902 182.421 409.79 182.64C409.789 182.586 409.573 182.856 409.735 182.748V182.748Z" fill="#B25449"/>
</g>
<g clip-path="url(#clip2)">
<path d="M27.9565 30.3561H35.7493C39.0305 30.3561 39.415 32.388 39.0817 33.9713C38.5434 36.5309 36.9285 38.0086 34.3907 38.0086H29.5202L28.6486 42.2835H25.4956L27.9565 30.3561ZM29.956 35.8448H33.3397C34.3138 35.8448 35.4417 35.8184 35.7749 34.2087C36.1082 32.6518 35.211 32.5199 34.3138 32.5199H30.6481L29.956 35.8448Z" fill="#231F20"/>
<path d="M41.4401 30.3561H49.8738C53.0781 30.3561 53.1806 32.388 52.9499 33.6018C52.6423 35.0532 51.8732 35.9767 50.4634 36.4781V36.5045C51.7963 36.7156 51.6425 38.51 51.3862 39.6975C51.258 40.278 51.0273 41.6766 51.4631 42.2835H48.0281C47.8487 41.7294 47.9256 41.228 48.1819 39.9877C48.5152 38.3253 47.9256 37.9031 46.9515 37.9031H43.0295L42.1323 42.2835H39.0049L41.4401 30.3561ZM43.5165 35.6337H47.6692C48.3614 35.6337 49.2586 35.2379 49.4893 34.1296C49.7456 32.9421 48.8997 32.6255 48.1307 32.6255H44.1317L43.5165 35.6337Z" fill="#231F20"/>
<path d="M55.2568 30.3561H66.0744L65.5874 32.6255H57.9227L57.4101 35.1059H64.6902L64.2544 37.2698H56.9743L56.4103 40.0141H64.1518L63.6648 42.2835H52.7959L55.2568 30.3561Z" fill="#231F20"/>
<path d="M74.9694 33.8128C75.0976 32.2559 73.6877 32.0976 72.4317 32.0976C71.1243 32.0976 70.1759 32.7045 69.9964 33.4961C69.8682 34.1295 70.304 34.4725 71.0987 34.6045L74.8925 35.2642C76.9433 35.6072 78.3788 36.4252 77.9174 38.5891C77.456 40.832 75.6359 42.6001 71.0987 42.6001C68.2533 42.6001 64.6901 42.2306 65.4079 38.5099H68.9454C68.6378 40.146 70.1758 40.4362 71.5345 40.4362C72.9956 40.4362 74.0979 39.9876 74.3286 38.9585C74.508 38.0349 73.8415 37.7974 72.6367 37.5863L69.8682 37.1377C67.92 36.8211 66.1 36.1877 66.6127 33.76C67.151 31.1212 69.4837 30.0393 73.1238 30.0393C75.5078 30.0393 78.9427 30.4351 78.4557 33.8128H74.9694Z" fill="#231F20"/>
<path d="M88.1711 33.8128C88.2992 32.2559 86.8893 32.0976 85.6333 32.0976C84.3259 32.0976 83.3775 32.7045 83.198 33.4961C83.0698 34.1295 83.5313 34.4725 84.3003 34.6045L88.1198 35.2642C90.1449 35.6072 91.5804 36.4252 91.119 38.5891C90.6832 40.832 88.8375 42.6001 84.3003 42.6001C81.4805 42.6001 77.8917 42.2306 78.6095 38.5099H82.147C81.8394 40.146 83.3775 40.4362 84.7361 40.4362C86.2229 40.4362 87.3251 39.9876 87.5302 38.9585C87.7096 38.0349 87.0688 37.7974 85.864 37.5863L83.0698 37.1377C81.1217 36.8211 79.3016 36.1877 79.8143 33.76C80.3526 31.1212 82.6853 30.0393 86.3254 30.0393C88.6837 30.0393 92.1444 30.4351 91.6573 33.8128H88.1711Z" fill="#231F20"/>
<path d="M0.681641 5.9209H11.3711C14.4216 5.9209 17.3439 7.4778 17.3439 11.8055C17.3439 15.6581 14.8573 17.7428 10.4483 17.7428H2.73237V26.3189H0.681641V5.9209ZM2.73237 15.8164H10.679C14.114 15.8164 15.1137 14.1804 15.1137 11.8055C15.1137 8.74443 13.4475 7.84723 11.0891 7.84723H2.73237V15.8164Z" fill="#231F20"/>
<path d="M39.5686 18.5606C39.1072 23.1258 35.4415 26.8465 29.7507 26.8465C23.3166 26.8465 19.1895 22.6772 19.1895 16.1329C19.1895 11.4622 22.0092 5.39294 29.7507 5.39294C34.0829 5.39294 38.774 7.42483 39.3892 12.808H37.3385C36.7232 8.90257 33.3395 7.34567 29.7507 7.34567C24.829 7.34567 21.4196 10.1692 21.4196 16.1329C21.4196 20.6717 23.7267 24.8938 29.7507 24.8938C34.4931 24.8938 36.8001 22.4397 37.4923 18.5606H39.5686Z" fill="#231F20"/>
<path d="M42.7476 5.9209H44.7983V26.3189H42.7476V5.9209Z" fill="#231F20"/>
<path d="M2.45014 30.3561H13.2678L12.8063 32.6255H5.14173L4.62904 35.1059H11.9092L11.4477 37.2698H4.16763L3.60368 40.0141H11.3452L10.8838 42.2835H-0.0107422L2.45014 30.3561Z" fill="#231F20"/>
<path d="M17.3951 36.1351L14.0883 30.3561H17.8565L19.6509 34.0768L22.9577 30.3561H26.726L21.0352 36.1351L24.6752 42.2835H20.7788L18.7794 38.2461L15.1393 42.2835H11.2173L17.3951 36.1351Z" fill="#231F20"/>
<path d="M64.4596 13.4151L54.7443 5.78894H50.1045L58.9739 12.861L64.4596 13.4151Z" fill="#195DAD"/>
<path d="M58.897 19.1673L50.1045 26.1866H54.7443L64.4853 18.6132L58.897 19.1673Z" fill="#195DAD"/>
<path d="M90.5034 16.0009L58.23 5.81506L69.8679 13.9426L90.5034 16.0009Z" fill="#195DAD"/>
<path d="M69.791 18.0859L58.23 26.187L90.529 16.0276L69.791 18.0859Z" fill="#195DAD"/>
<path d="M95.528 32.8102C95.1948 33.1269 94.8359 33.2852 94.4001 33.2852C93.9387 33.2852 93.5798 33.1269 93.2722 32.8102C92.939 32.4936 92.7852 32.0977 92.7852 31.6491C92.7852 31.1742 92.939 30.8047 93.2722 30.4881C93.5798 30.1714 93.9387 29.9867 94.4001 29.9867C94.8359 29.9867 95.1948 30.1714 95.528 30.4881C95.8356 30.8047 95.9894 31.1742 95.9894 31.6491C95.9894 32.0977 95.8356 32.4936 95.528 32.8102ZM93.4004 30.6464C93.144 30.9103 93.0159 31.2533 93.0159 31.6491C93.0159 32.045 93.144 32.3616 93.4004 32.6519C93.6824 32.9422 94.0156 33.0741 94.4001 33.0741C94.7846 33.0741 95.0922 32.9422 95.3742 32.6519C95.6306 32.3616 95.7844 32.045 95.7844 31.6491C95.7844 31.2533 95.6306 30.9103 95.3742 30.6464C95.0922 30.3561 94.7846 30.2242 94.4001 30.2242C94.0156 30.2242 93.6824 30.3561 93.4004 30.6464ZM94.3488 30.7256C94.5796 30.7256 94.7334 30.752 94.8359 30.8047C95.0153 30.8839 95.1179 31.0158 95.1179 31.2533C95.1179 31.4117 95.0666 31.5436 94.9384 31.6228C94.8872 31.6491 94.8103 31.6755 94.6821 31.7019C94.8359 31.7283 94.9128 31.7811 94.9897 31.8866C95.0666 31.9658 95.0922 32.0714 95.0922 32.1505V32.2825C95.0922 32.3352 95.0922 32.3616 95.0922 32.4144C95.0922 32.4672 95.0922 32.4936 95.1179 32.52V32.5463H94.8359C94.8359 32.52 94.8103 32.52 94.8103 32.52V32.4936V32.4408V32.2825C94.8103 32.0977 94.759 31.9658 94.6308 31.8866C94.5796 31.8339 94.4514 31.8339 94.2976 31.8339H94.0412V32.5463H93.7336V30.7256H94.3488ZM94.6821 31.0158C94.6308 30.9894 94.5026 30.9631 94.3232 30.9631H94.0412V31.5964H94.3232C94.4514 31.5964 94.5539 31.5964 94.6308 31.57C94.759 31.5172 94.8103 31.4117 94.8103 31.2797C94.8103 31.1478 94.7846 31.0686 94.6821 31.0158Z" fill="#231F20"/>
</g>
<rect x="297" width="47.1682" height="45.7944" fill="#C70751"/>
<rect x="298.374" y="9.20898" width="44.4886" height="30.3331" fill="white"/>
<path d="M301.623 8.1976C301.005 8.1976 300.401 8.13636 299.812 8.01389C299.23 7.88497 298.75 7.71415 298.374 7.50143L299.184 5.83836C299.539 6.02529 299.936 6.17677 300.377 6.2928C300.817 6.40238 301.239 6.45718 301.644 6.45718C301.992 6.45718 302.241 6.42817 302.39 6.37015C302.539 6.30569 302.614 6.21223 302.614 6.08975C302.614 5.94794 302.514 5.84158 302.315 5.77067C302.124 5.69977 301.804 5.62242 301.357 5.53862C300.781 5.42904 300.302 5.31301 299.919 5.19053C299.535 5.06161 299.201 4.85534 298.917 4.57171C298.633 4.28164 298.491 3.89166 298.491 3.40176C298.491 2.97633 298.623 2.58956 298.885 2.24148C299.148 1.89339 299.539 1.61944 300.057 1.41961C300.583 1.21979 301.218 1.11987 301.964 1.11987C302.475 1.11987 302.976 1.17144 303.466 1.27458C303.963 1.37127 304.4 1.5163 304.776 1.70968L304.02 3.36309C303.288 3.02789 302.596 2.8603 301.943 2.8603C301.296 2.8603 300.973 3.00211 300.973 3.28573C300.973 3.4211 301.069 3.52424 301.261 3.59514C301.453 3.6596 301.769 3.73051 302.209 3.80786C302.777 3.90455 303.256 4.01736 303.647 4.14628C304.037 4.26875 304.375 4.4718 304.659 4.75543C304.95 5.03905 305.096 5.42581 305.096 5.91571C305.096 6.34115 304.964 6.72791 304.701 7.07599C304.439 7.41763 304.045 7.69159 303.519 7.89786C303.001 8.09769 302.369 8.1976 301.623 8.1976Z" fill="white"/>
<path d="M312.789 6.32181V8.0429H306.589V1.27458H312.65V2.99566H309.061V3.78852H312.214V5.43226H309.061V6.32181H312.789Z" fill="white"/>
<path d="M317.698 6.34115H317.016V8.0429H314.502V1.27458H318.092C318.781 1.27458 319.381 1.37771 319.892 1.58399C320.404 1.79026 320.798 2.08678 321.075 2.47354C321.352 2.8603 321.49 3.31152 321.49 3.8272C321.49 4.31065 321.369 4.73287 321.128 5.09384C320.886 5.45482 320.539 5.74167 320.084 5.95439L321.65 8.0429H318.966L317.698 6.34115ZM318.955 3.8272C318.955 3.57581 318.87 3.38242 318.699 3.24706C318.529 3.10525 318.273 3.03434 317.932 3.03434H317.016V4.62006H317.932C318.273 4.62006 318.529 4.55238 318.699 4.41701C318.87 4.2752 318.955 4.07859 318.955 3.8272Z" fill="white"/>
<path d="M323.185 1.27458H325.699V8.0429H323.185V1.27458Z" fill="white"/>
<path d="M332.736 6.86327H329.902L329.402 8.0429H326.845L330.105 1.27458H332.576L335.836 8.0429H333.237L332.736 6.86327ZM332.044 5.21954L331.319 3.51779L330.595 5.21954H332.044Z" fill="white"/>
<path d="M336.983 1.27458H339.497V6.27346H342.863V8.0429H336.983V1.27458Z" fill="white"/>
<path d="M303.897 10.2196H309.918L314.525 38.5305H310.08L309.271 32.9088V32.9897H304.22L303.412 38.5305H299.29L303.897 10.2196ZM308.746 29.1475L306.766 15.1538H306.685L304.745 29.1475H308.746Z" fill="#00529B"/>
<path d="M318.302 14.264H313.655V10.2196H327.395V14.264H322.748V38.5305H318.302V14.264Z" fill="#00529B"/>
<path d="M331.127 10.2196H337.149L341.756 38.5305H337.311L336.502 32.9088V32.9897H331.451L330.643 38.5305H326.52L331.127 10.2196ZM335.977 29.1475L333.997 15.1538H333.916L331.976 29.1475H335.977Z" fill="#00529B"/>
<path d="M341.155 12.7478C329.864 14.2645 307.485 18.3089 308.294 22.3533C309.305 27.4088 331.044 20.8366 331.55 24.3755C332.055 27.9144 321.944 33.4754 300.206 36.0032" stroke="#FFD65A" stroke-width="2.74766" stroke-linecap="round"/>
<path d="M312.998 29.1475L314.525 38.5306H310.08L309.271 32.9088V32.9897H304.22L303.412 38.5306H299.29L300.816 29.1475H312.998Z" fill="#00529B"/>
<path d="M322.748 21.0654V38.5306H318.302V21.0654H322.748Z" fill="#00529B"/>
<path d="M434.642 29.0492C434.642 29.0986 434.608 29.6789 434.538 30.79H420.819C421.097 31.8271 421.631 32.6297 422.42 33.1976C423.233 33.7409 424.243 34.0125 425.45 34.0125C426.355 34.0125 427.133 33.8767 427.783 33.6051C428.456 33.3334 429.129 32.889 429.802 32.2716L433.284 36.1237C431.451 38.2967 428.769 39.3832 425.241 39.3832C423.036 39.3832 421.097 38.9388 419.426 38.0498C417.754 37.1609 416.455 35.9262 415.526 34.3458C414.621 32.7655 414.168 30.9752 414.168 28.9751C414.168 26.9997 414.609 25.2341 415.491 23.6784C416.396 22.0981 417.638 20.8634 419.217 19.9745C420.795 19.0855 422.571 18.6411 424.545 18.6411C426.425 18.6411 428.131 19.0608 429.663 19.9004C431.195 20.7153 432.402 21.9129 433.284 23.4932C434.19 25.0489 434.642 26.9009 434.642 29.0492ZM424.579 23.6414C423.558 23.6414 422.699 23.9501 422.003 24.5674C421.329 25.1847 420.9 26.0243 420.714 27.0861H428.444C428.259 26.0243 427.818 25.1847 427.121 24.5674C426.448 23.9501 425.601 23.6414 424.579 23.6414Z" fill="#C32558"/>
<path fill-rule="evenodd" clip-rule="evenodd" d="M427.663 9.2128C426.121 9.2128 424.871 10.4792 424.871 12.0413V18.6411H423.009V12.0413C423.009 9.43774 425.093 7.32715 427.663 7.32715H443.018V9.2128H427.663Z" fill="#C32558"/>
<path d="M421.613 17.5097C421.613 16.5724 422.363 15.8126 423.288 15.8126H424.591C425.517 15.8126 426.267 16.5724 426.267 17.5097V19.7724C426.267 20.7097 425.517 21.4695 424.591 21.4695H423.288C422.363 21.4695 421.613 20.7097 421.613 19.7724V17.5097Z" fill="#C32558"/>
<rect x="437.523" width="47.1682" height="45.7944" fill="#C70751"/>
<rect x="438.897" y="9.20898" width="44.4886" height="30.3331" fill="white"/>
<path d="M442.146 8.1976C441.528 8.1976 440.924 8.13636 440.335 8.01389C439.753 7.88497 439.273 7.71415 438.897 7.50143L439.707 5.83836C440.062 6.02529 440.459 6.17677 440.9 6.2928C441.34 6.40238 441.762 6.45718 442.167 6.45718C442.515 6.45718 442.764 6.42817 442.913 6.37015C443.062 6.30569 443.137 6.21223 443.137 6.08975C443.137 5.94794 443.037 5.84158 442.838 5.77067C442.647 5.69977 442.327 5.62242 441.88 5.53862C441.304 5.42904 440.825 5.31301 440.442 5.19053C440.058 5.06161 439.724 4.85534 439.44 4.57171C439.156 4.28164 439.014 3.89166 439.014 3.40176C439.014 2.97633 439.146 2.58956 439.408 2.24148C439.671 1.89339 440.062 1.61944 440.58 1.41961C441.106 1.21979 441.741 1.11987 442.487 1.11987C442.998 1.11987 443.499 1.17144 443.989 1.27458C444.486 1.37127 444.923 1.5163 445.299 1.70968L444.543 3.36309C443.811 3.02789 443.119 2.8603 442.465 2.8603C441.819 2.8603 441.496 3.00211 441.496 3.28573C441.496 3.4211 441.592 3.52424 441.784 3.59514C441.975 3.6596 442.291 3.73051 442.732 3.80786C443.3 3.90455 443.779 4.01736 444.17 4.14628C444.56 4.26875 444.898 4.4718 445.182 4.75543C445.473 5.03905 445.619 5.42581 445.619 5.91571C445.619 6.34115 445.487 6.72791 445.224 7.07599C444.962 7.41763 444.567 7.69159 444.042 7.89786C443.524 8.09769 442.892 8.1976 442.146 8.1976Z" fill="white"/>
<path d="M453.312 6.32181V8.0429H447.112V1.27458H453.173V2.99566H449.584V3.78852H452.737V5.43226H449.584V6.32181H453.312Z" fill="white"/>
<path d="M458.221 6.34115H457.539V8.0429H455.025V1.27458H458.615C459.304 1.27458 459.904 1.37771 460.415 1.58399C460.927 1.79026 461.321 2.08678 461.598 2.47354C461.875 2.8603 462.013 3.31152 462.013 3.8272C462.013 4.31065 461.892 4.73287 461.651 5.09384C461.409 5.45482 461.061 5.74167 460.607 5.95439L462.173 8.0429H459.489L458.221 6.34115ZM459.478 3.8272C459.478 3.57581 459.393 3.38242 459.222 3.24706C459.052 3.10525 458.796 3.03434 458.455 3.03434H457.539V4.62006H458.455C458.796 4.62006 459.052 4.55238 459.222 4.41701C459.393 4.2752 459.478 4.07859 459.478 3.8272Z" fill="white"/>
<path d="M463.708 1.27458H466.222V8.0429H463.708V1.27458Z" fill="white"/>
<path d="M473.259 6.86327H470.425L469.925 8.0429H467.368L470.628 1.27458H473.099L476.359 8.0429H473.76L473.259 6.86327ZM472.566 5.21954L471.842 3.51779L471.118 5.21954H472.566Z" fill="white"/>
<path d="M477.506 1.27458H480.019V6.27346H483.386V8.0429H477.506V1.27458Z" fill="white"/>
<path d="M444.42 10.2196H450.441L455.048 38.5305H450.603L449.795 32.9088V32.9897H444.743L443.935 38.5305H439.813L444.42 10.2196ZM449.269 29.1475L447.289 15.1538H447.208L445.269 29.1475H449.269Z" fill="#00529B"/>
<path d="M458.826 14.264H454.178V10.2196H467.918V14.264H463.271V38.5305H458.826V14.264Z" fill="#00529B"/>
<path d="M471.651 10.2196H477.672L482.279 38.5305H477.834L477.026 32.9088V32.9897H471.974L471.166 38.5305H467.044L471.651 10.2196ZM476.5 29.1475L474.52 15.1538H474.439L472.5 29.1475H476.5Z" fill="#00529B"/>
<path d="M481.678 12.7478C470.388 14.2645 448.009 18.3089 448.817 22.3533C449.829 27.4088 471.568 20.8366 472.073 24.3755C472.579 27.9144 462.468 33.4754 440.729 36.0032" stroke="#FFD65A" stroke-width="2.74766" stroke-linecap="round"/>
<path d="M453.522 29.1475L455.048 38.5306H450.603L449.795 32.9088V32.9897H444.743L443.935 38.5306H439.813L441.34 29.1475H453.522Z" fill="#00529B"/>
<path d="M463.271 21.0654V38.5306H458.826V21.0654H463.271Z" fill="#00529B"/>
<path d="M0 175H27.0936C38.2481 175 47.2906 184.043 47.2906 195.197V195.197C47.2906 206.352 38.2481 215.394 27.0936 215.394H0V175Z" fill="white"/>
<path d="M117.249 197.439V201.837H115V190H119.95C121.396 190 122.543 190.344 123.39 191.033C124.243 191.721 124.67 192.631 124.67 193.764C124.67 194.924 124.252 195.827 123.417 196.472C122.587 197.117 121.423 197.439 119.924 197.439H117.249ZM117.249 195.789H119.95C120.75 195.789 121.361 195.618 121.781 195.276C122.202 194.93 122.412 194.431 122.412 193.78C122.412 193.141 122.199 192.631 121.772 192.252C121.346 191.867 120.759 191.669 120.013 191.659H117.249V195.789Z" fill="#766661"/>
<path d="M124.842 197.358C124.842 196.496 125.029 195.721 125.402 195.033C125.775 194.339 126.3 193.808 126.975 193.439C127.651 193.065 128.427 192.878 129.304 192.878C130.601 192.878 131.653 193.26 132.459 194.024C133.271 194.789 133.709 195.802 133.774 197.065L133.783 197.528C133.783 198.396 133.599 199.171 133.232 199.854C132.871 200.537 132.349 201.065 131.668 201.439C130.992 201.813 130.21 202 129.322 202C127.965 202 126.877 201.588 126.06 200.764C125.248 199.935 124.842 198.832 124.842 197.455V197.358ZM127.002 197.528C127.002 198.434 127.206 199.144 127.615 199.659C128.024 200.168 128.593 200.423 129.322 200.423C130.05 200.423 130.616 200.163 131.019 199.642C131.428 199.122 131.632 198.36 131.632 197.358C131.632 196.469 131.422 195.764 131.001 195.244C130.587 194.724 130.021 194.463 129.304 194.463C128.599 194.463 128.039 194.721 127.624 195.236C127.209 195.745 127.002 196.509 127.002 197.528Z" fill="#766661"/>
<path d="M140.189 194.846C139.905 194.802 139.612 194.78 139.309 194.78C138.32 194.78 137.653 195.127 137.31 195.821V201.837H135.15V193.041H137.212L137.265 194.024C137.787 193.26 138.51 192.878 139.434 192.878C139.742 192.878 139.997 192.916 140.198 192.992L140.189 194.846Z" fill="#766661"/>
<path d="M144.249 190.902V193.041H145.947V194.504H144.249V199.415C144.249 199.751 144.32 199.995 144.462 200.146C144.611 200.293 144.871 200.366 145.245 200.366C145.493 200.366 145.745 200.339 146 200.285V201.813C145.508 201.938 145.034 202 144.578 202C142.919 202 142.089 201.163 142.089 199.488V194.504H140.507V193.041H142.089V190.902H144.249Z" fill="#766661"/>
<path fill-rule="evenodd" clip-rule="evenodd" d="M27.0936 175H0V215.394H8.86699V182.882H26.1084C32.9099 182.882 38.4236 188.396 38.4236 195.197C38.4236 201.999 32.9099 207.512 26.1084 207.512H14.7783V215.394H27.0936C38.2481 215.394 47.2906 206.352 47.2906 195.197C47.2906 184.043 38.2481 175 27.0936 175Z" fill="#E84B37"/>
<path d="M14.7783 187.808H25.1232C29.2041 187.808 32.5123 191.116 32.5123 195.197C32.5123 199.278 29.2041 202.586 25.1232 202.586H14.7783V187.808Z" fill="#E84B37"/>
<path d="M69.5865 202.235H67.3913V192.912H69.5865V202.235Z" fill="#E84B37"/>
<path d="M77.0014 199.701C77.0014 199.328 76.8388 199.044 76.5136 198.848C76.1944 198.653 75.6614 198.481 74.9146 198.331C74.1678 198.182 73.5445 197.993 73.0446 197.763C71.9485 197.257 71.4005 196.525 71.4005 195.566C71.4005 194.761 71.7558 194.089 72.4665 193.549C73.1771 193.009 74.0805 192.739 75.1766 192.739C76.345 192.739 77.2875 193.015 78.0042 193.567C78.7269 194.118 79.0882 194.833 79.0882 195.712H76.893C76.893 195.31 76.7364 194.977 76.4233 194.713C76.1101 194.443 75.6945 194.308 75.1766 194.308C74.6948 194.308 74.3003 194.414 73.9932 194.626C73.692 194.839 73.5415 195.123 73.5415 195.479C73.5415 195.801 73.683 196.051 73.9661 196.229C74.2491 196.407 74.8213 196.588 75.6825 196.772C76.5437 196.95 77.2182 197.165 77.7061 197.418C78.1999 197.665 78.5643 197.964 78.7991 198.314C79.04 198.665 79.1605 199.09 79.1605 199.589C79.1605 200.428 78.7961 201.109 78.0674 201.632C77.3387 202.149 76.3841 202.407 75.2037 202.407C74.4027 202.407 73.689 202.269 73.0627 201.993C72.4364 201.718 71.9485 201.339 71.5992 200.856C71.2499 200.374 71.0753 199.854 71.0753 199.297H73.2072C73.2373 199.791 73.4331 200.172 73.7944 200.442C74.1558 200.707 74.6346 200.839 75.2308 200.839C75.809 200.839 76.2486 200.735 76.5497 200.529C76.8509 200.316 77.0014 200.04 77.0014 199.701Z" fill="#E84B37"/>
<path d="M89.1771 197.668C89.1771 199.11 88.8338 200.262 88.1473 201.123C87.4607 201.979 86.5393 202.407 85.3829 202.407C84.3109 202.407 83.4527 202.071 82.8083 201.399V205.819H80.6131V192.912H82.6367L82.727 193.86C83.3714 193.113 84.2477 192.739 85.3558 192.739C86.5483 192.739 87.4818 193.165 88.1563 194.015C88.8368 194.859 89.1771 196.034 89.1771 197.539V197.668ZM86.9909 197.487C86.9909 196.557 86.7952 195.818 86.4037 195.273C86.0183 194.727 85.4642 194.454 84.7415 194.454C83.8442 194.454 83.1998 194.807 82.8083 195.514V199.65C83.2058 200.374 83.8562 200.735 84.7596 200.735C85.4582 200.735 86.0033 200.468 86.3947 199.934C86.7922 199.394 86.9909 198.578 86.9909 197.487Z" fill="#E84B37"/>
<path d="M92.9153 202.235H90.7201V189H92.9153V202.235Z" fill="#E84B37"/>
<path d="M100.692 202.235C100.595 202.057 100.511 201.767 100.439 201.364C99.74 202.059 98.8848 202.407 97.873 202.407C96.8913 202.407 96.0903 202.14 95.47 201.606C94.8497 201.071 94.5395 200.411 94.5395 199.624C94.5395 198.63 94.925 197.869 95.6959 197.341C96.4728 196.806 97.5809 196.539 99.0203 196.539H100.366V195.928C100.366 195.445 100.225 195.06 99.9417 194.773C99.6587 194.48 99.2281 194.334 98.6499 194.334C98.15 194.334 97.7405 194.454 97.4213 194.695C97.1021 194.931 96.9425 195.232 96.9425 195.6H94.7473C94.7473 195.089 94.925 194.612 95.2803 194.17C95.6356 193.722 96.1174 193.371 96.7257 193.119C97.34 192.866 98.0236 192.739 98.7764 192.739C99.9207 192.739 100.833 193.015 101.514 193.567C102.194 194.112 102.543 194.882 102.562 195.876V200.081C102.562 200.919 102.685 201.588 102.932 202.088V202.235H100.692ZM98.2795 200.727C98.7131 200.727 99.1197 200.626 99.4991 200.425C99.8845 200.224 100.174 199.954 100.366 199.615V197.858H99.1829C98.3699 197.858 97.7586 197.993 97.349 198.263C96.9395 198.533 96.7348 198.915 96.7348 199.409C96.7348 199.811 96.8733 200.132 97.1503 200.374C97.4334 200.609 97.8098 200.727 98.2795 200.727Z" fill="#E84B37"/>
<path d="M107.673 199.236L109.66 192.912H112L108.115 203.648C107.519 205.216 106.507 206 105.08 206C104.761 206 104.409 205.948 104.023 205.845V204.225L104.439 204.251C104.993 204.251 105.408 204.153 105.685 203.958C105.968 203.768 106.191 203.447 106.354 202.993L106.67 202.192L103.237 192.912H105.604L107.673 199.236Z" fill="#E84B37"/>
<path d="M69.5865 202.235H67.3913V192.912H69.5865V202.235Z" fill="#E84B37"/>
<path d="M69.5865 191.853H67.3913V189.882H69.5865V191.853Z" fill="#E84B37"/>
<path d="M55 202.222V189.63H59.4157C60.737 189.63 61.9076 189.878 62.9277 190.373C63.9546 190.869 64.7487 191.573 65.3101 192.484C65.8715 193.395 66.1522 194.438 66.1522 195.615V196.246C66.1522 197.439 65.8681 198.489 65.2998 199.394C64.7385 200.299 63.9341 200.997 62.8866 201.487C61.846 201.977 60.6514 202.222 59.3027 202.222H55ZM57.5981 191.394V200.475H59.2925C60.6548 200.475 61.6988 200.118 62.4245 199.403C63.157 198.682 63.5301 197.65 63.5438 196.306V195.606C63.5438 194.239 63.1913 193.196 62.4861 192.475C61.781 191.754 60.7575 191.394 59.4157 191.394H57.5981Z" fill="#E84B37"/>
<defs>
<clipPath id="clip0">
<rect width="149.265" height="35" fill="white" transform="translate(190 180)"/>
</clipPath>
<clipPath id="clip1">
<rect width="60" height="42" fill="white" transform="translate(383 174)"/>
</clipPath>
<clipPath id="clip2">
<rect width="96" height="40" fill="white" transform="translate(0 4)"/>
</clipPath>
</defs>
</svg>
