<svg width="246" height="46" viewBox="0 0 246 46" fill="none" xmlns="http://www.w3.org/2000/svg">
<path d="M11.102 9.69238C14.1864 9.69238 16.6257 10.5709 18.4199 12.328C20.2141 14.0623 21.1112 16.5496 21.1112 19.7899H14.7307C14.7307 18.4208 14.4082 17.3369 13.7631 16.5382C13.1381 15.7395 12.241 15.3402 11.0718 15.3402C9.72111 15.3402 8.72322 15.8194 8.07811 16.7778C7.45317 17.7362 7.1407 19.0711 7.1407 20.7826V22.9732C7.1407 24.6619 7.45317 25.9968 8.07811 26.978C8.72322 27.9365 9.70095 28.4157 11.0113 28.4157C12.3015 28.4157 13.2793 28.0391 13.9445 27.2861C14.6098 26.5331 14.9424 25.472 14.9424 24.1028H21.1112C21.1112 27.3203 20.2343 29.7848 18.4804 31.4963C16.7467 33.2077 14.2872 34.0634 11.102 34.0634C7.55397 34.0634 4.86268 33.0366 3.02817 30.9828C1.21382 28.9291 0.306641 25.8941 0.306641 21.8779C0.306641 17.8617 1.21382 14.8267 3.02817 12.773C4.86268 10.7193 7.55397 9.69238 11.102 9.69238Z" fill="#E13237"/>
<path d="M38.2368 33.1685V26.6316H33.3149V33.1685H28.8386V15.9371H33.3149V22.2235H38.2368V15.9371H42.713V33.1685H38.2368Z" fill="#E13237"/>
<path d="M63.1667 21.2217C63.1667 22.2736 62.9371 23.2254 62.478 24.0769C62.0189 24.9285 61.2806 25.2307 60.9371 25.4444C63.0175 27.2277 63.1667 33.1685 63.1667 33.1685H59.1538C59.1538 33.1685 58.8566 26.882 57.0734 26.882C55.2901 26.882 54.4167 26.882 54.4167 26.882V33.1685H49.9404V15.9371H58.4676C59.4668 15.9371 60.3175 16.1792 61.0197 16.6634C61.7353 17.1309 62.2687 17.7738 62.6198 18.5919C62.9844 19.3934 63.1667 20.27 63.1667 21.2217ZM58.6094 21.4471C58.6094 20.9963 58.4879 20.6206 58.2448 20.3201C58.0017 20.0195 57.7047 19.8693 57.3536 19.8693H54.4167V23.0501H57.3536C57.7047 23.0501 58.0017 22.8998 58.2448 22.5992C58.4879 22.282 58.6094 21.898 58.6094 21.4471Z" fill="#E13237"/>
<path d="M70.3785 33.1685V15.9371H75.4492V33.1685H70.3785Z" fill="#E13237"/>
<path d="M88.8466 15.6365C90.629 15.6365 92.0941 16.0874 93.2419 16.989C94.3896 17.874 94.977 19.193 95.004 20.9462V21.2468H90.8113V21.1466C90.8113 20.6457 90.6628 20.2282 90.3657 19.8943C90.0687 19.5604 89.6163 19.3934 89.0087 19.3934C88.4145 19.3934 87.9554 19.5019 87.6313 19.719C87.3208 19.936 87.1655 20.2032 87.1655 20.5204C87.1655 20.9713 87.3815 21.3052 87.8136 21.5223C88.2457 21.7393 88.9412 21.9647 89.8999 22.1985C91.0206 22.4824 91.9388 22.7829 92.6545 23.1001C93.3837 23.4007 94.0183 23.9016 94.5584 24.6029C95.0986 25.3042 95.3754 26.2559 95.3889 27.4581C95.3889 29.4951 94.8285 31.0062 93.7077 31.9913C92.6005 32.9765 91.1151 33.469 89.2517 33.469C87.0777 33.469 85.3831 33.0182 84.1678 32.1166C82.966 31.2149 82.3651 29.6204 82.3651 27.3329H86.5984C86.5984 28.2011 86.7807 28.7855 87.1452 29.086C87.5098 29.3699 88.077 29.5118 88.8466 29.5118C89.4138 29.5118 89.8796 29.4367 90.2442 29.2864C90.6223 29.1361 90.8113 28.8272 90.8113 28.3597C90.8113 27.9423 90.602 27.6334 90.1834 27.433C89.7783 27.216 89.1099 26.9906 88.1782 26.7568C87.044 26.4563 86.1055 26.1474 85.3628 25.8301C84.6202 25.4962 83.972 24.9535 83.4184 24.2022C82.8648 23.4508 82.5879 22.4323 82.5879 21.1466C82.5879 19.2598 83.1753 17.874 84.3501 16.989C85.5384 16.0874 87.0372 15.6365 88.8466 15.6365Z" fill="#E13237"/>
<path d="M109.981 20.3451V33.1685H104.911V20.3451H100.928V15.9371H114.539V20.3451H109.981Z" fill="#E13237"/>
<path d="M120.536 33.1685V15.9371H125.607V33.1685H120.536Z" fill="#E13237"/>
<path d="M132.556 15.9371H145.202V20.0696H137.627V22.449H144.109V26.4062H137.627V29.036H145.344V33.1685H132.556V15.9371Z" fill="#E13237"/>
<path d="M160.205 10.2937H166.489V27.8724H174.867V33.4693H160.205V10.2937Z" stroke="#E13237"/>
<path d="M183.046 33.1687V15.9373H188.142V33.1687H183.046Z" stroke="#E13237"/>
<path d="M203.012 20.3453V33.1687H197.916V20.3453H193.908V15.9373H207.594V20.3453H203.012Z" stroke="#E13237"/>
<path d="M213.398 15.9373H226.111V20.0698H218.494V22.4492H225.011V26.4064H218.494V29.0362H226.253V33.1687H213.398V15.9373Z" stroke="#E13237"/>
<path d="M238.628 15.6368C240.42 15.6368 241.893 16.0876 243.047 16.9892C244.201 17.8742 244.792 19.1932 244.819 20.9464V21.247H240.603V21.1468C240.603 20.6459 240.454 20.2285 240.155 19.8945C239.856 19.5606 239.401 19.3936 238.79 19.3936C238.193 19.3936 237.731 19.5021 237.406 19.7192C237.093 19.9363 236.937 20.2034 236.937 20.5207C236.937 20.9715 237.154 21.3054 237.589 21.5225C238.023 21.7396 238.723 21.965 239.687 22.1987C240.814 22.4826 241.737 22.7831 242.456 23.1004C243.19 23.4009 243.828 23.9018 244.371 24.6031C244.914 25.3044 245.192 26.2561 245.206 27.4583C245.206 29.4953 244.642 31.0064 243.515 31.9916C242.402 32.9767 240.909 33.4693 239.035 33.4693C236.849 33.4693 235.145 33.0184 233.923 32.1168C232.714 31.2151 232.11 29.6206 232.11 27.3331H236.367C236.367 28.2013 236.55 28.7857 236.917 29.0863C237.283 29.3701 237.854 29.512 238.628 29.512C239.198 29.512 239.666 29.4369 240.033 29.2866C240.413 29.1364 240.603 28.8275 240.603 28.3599C240.603 27.9425 240.393 27.6336 239.972 27.4333C239.564 27.2162 238.892 26.9908 237.955 26.757C236.815 26.4565 235.871 26.1476 235.124 25.8303C234.378 25.4964 233.726 24.9537 233.169 24.2024C232.613 23.451 232.334 22.4325 232.334 21.1468C232.334 19.26 232.925 17.8742 234.106 16.9892C235.301 16.0876 236.808 15.6368 238.628 15.6368Z" stroke="#E13237"/>
</svg>
