<svg width="454" height="159" viewBox="0 0 454 159" fill="none" xmlns="http://www.w3.org/2000/svg">
<path d="M3.99643 123.758L7.01791 131.299L10.0394 123.758H11.62V133H10.4012V129.401L10.5155 125.516L7.48129 133H6.54818L3.52035 125.535L3.64096 129.401V133H2.42221V123.758H3.99643ZM14.7336 133H13.5593V126.132H14.7336V133ZM13.4641 124.31C13.4641 124.12 13.5212 123.959 13.6355 123.828C13.754 123.696 13.9275 123.631 14.156 123.631C14.3845 123.631 14.558 123.696 14.6765 123.828C14.795 123.959 14.8542 124.12 14.8542 124.31C14.8542 124.5 14.795 124.659 14.6765 124.786C14.558 124.913 14.3845 124.977 14.156 124.977C13.9275 124.977 13.754 124.913 13.6355 124.786C13.5212 124.659 13.4641 124.5 13.4641 124.31ZM19.2437 132.168C19.6627 132.168 20.0287 132.042 20.3419 131.788C20.655 131.534 20.8285 131.216 20.8624 130.835H21.9732C21.9521 131.229 21.8167 131.604 21.567 131.959C21.3173 132.314 20.983 132.598 20.5641 132.81C20.1493 133.021 19.7092 133.127 19.2437 133.127C18.3085 133.127 17.5637 132.816 17.0094 132.194C16.4592 131.568 16.1842 130.713 16.1842 129.629V129.433C16.1842 128.764 16.3069 128.169 16.5523 127.649C16.7978 127.128 17.149 126.724 17.6061 126.437C18.0673 126.149 18.6111 126.005 19.2374 126.005C20.0076 126.005 20.6466 126.236 21.1544 126.697C21.6664 127.158 21.9394 127.757 21.9732 128.493H20.8624C20.8285 128.049 20.6593 127.685 20.3546 127.401C20.0541 127.114 19.6817 126.97 19.2374 126.97C18.6407 126.97 18.1773 127.186 17.8473 127.617C17.5214 128.045 17.3585 128.665 17.3585 129.477V129.699C17.3585 130.491 17.5214 131.1 17.8473 131.527C18.1731 131.955 18.6386 132.168 19.2437 132.168ZM26.4834 127.186C26.3056 127.156 26.1131 127.141 25.9057 127.141C25.1356 127.141 24.6129 127.469 24.3379 128.125V133H23.1636V126.132H24.3061L24.3252 126.925C24.7103 126.312 25.2562 126.005 25.9629 126.005C26.1914 126.005 26.3649 126.035 26.4834 126.094V127.186ZM27.0008 129.502C27.0008 128.83 27.132 128.224 27.3944 127.687C27.661 127.15 28.0292 126.735 28.4989 126.443C28.9728 126.151 29.5124 126.005 30.1175 126.005C31.0528 126.005 31.8081 126.329 32.3837 126.976C32.9634 127.624 33.2533 128.485 33.2533 129.56V129.642C33.2533 130.311 33.1242 130.912 32.8661 131.445C32.6122 131.974 32.2461 132.386 31.7679 132.683C31.294 132.979 30.7481 133.127 30.1302 133.127C29.1992 133.127 28.4439 132.803 27.8641 132.156C27.2886 131.508 27.0008 130.651 27.0008 129.585V129.502ZM28.1815 129.642C28.1815 130.404 28.3571 131.015 28.7084 131.477C29.0638 131.938 29.5378 132.168 30.1302 132.168C30.7269 132.168 31.2009 131.936 31.5521 131.47C31.9033 131 32.079 130.345 32.079 129.502C32.079 128.749 31.8991 128.14 31.5394 127.674C31.1839 127.205 30.71 126.97 30.1175 126.97C29.5378 126.97 29.0702 127.2 28.7147 127.662C28.3592 128.123 28.1815 128.783 28.1815 129.642ZM38.595 131.178C38.595 130.861 38.4744 130.615 38.2331 130.442C37.9962 130.264 37.5793 130.112 36.9827 129.985C36.3902 129.858 35.9184 129.706 35.5671 129.528C35.2201 129.35 34.962 129.139 34.7927 128.893C34.6277 128.648 34.5452 128.356 34.5452 128.017C34.5452 127.454 34.7821 126.978 35.2561 126.589C35.7343 126.2 36.3437 126.005 37.0842 126.005C37.8629 126.005 38.4934 126.206 38.9758 126.608C39.4625 127.01 39.7058 127.524 39.7058 128.15H38.5251C38.5251 127.829 38.3876 127.552 38.1125 127.319C37.8417 127.086 37.4989 126.97 37.0842 126.97C36.6568 126.97 36.3225 127.063 36.0813 127.249C35.8401 127.435 35.7195 127.679 35.7195 127.979C35.7195 128.263 35.8316 128.476 36.0559 128.62C36.2802 128.764 36.6843 128.902 37.2683 129.033C37.8565 129.164 38.3326 129.32 38.6965 129.502C39.0605 129.684 39.3292 129.904 39.5027 130.163C39.6804 130.417 39.7693 130.728 39.7693 131.096C39.7693 131.709 39.5238 132.202 39.0329 132.575C38.5421 132.943 37.9052 133.127 37.1223 133.127C36.5722 133.127 36.0855 133.03 35.6623 132.835C35.2392 132.64 34.907 132.369 34.6658 132.022C34.4288 131.671 34.3103 131.292 34.3103 130.886H35.4846C35.5058 131.28 35.6623 131.593 35.9543 131.826C36.2506 132.054 36.6399 132.168 37.1223 132.168C37.5666 132.168 37.9221 132.08 38.1887 131.902C38.4595 131.72 38.595 131.479 38.595 131.178ZM40.858 129.502C40.858 128.83 40.9892 128.224 41.2516 127.687C41.5182 127.15 41.8863 126.735 42.3561 126.443C42.83 126.151 43.3696 126.005 43.9747 126.005C44.9099 126.005 45.6653 126.329 46.2408 126.976C46.8206 127.624 47.1105 128.485 47.1105 129.56V129.642C47.1105 130.311 46.9814 130.912 46.7233 131.445C46.4694 131.974 46.1033 132.386 45.6251 132.683C45.1512 132.979 44.6053 133.127 43.9874 133.127C43.0564 133.127 42.3011 132.803 41.7213 132.156C41.1458 131.508 40.858 130.651 40.858 129.585V129.502ZM42.0387 129.642C42.0387 130.404 42.2143 131.015 42.5655 131.477C42.921 131.938 43.395 132.168 43.9874 132.168C44.5841 132.168 45.0581 131.936 45.4093 131.47C45.7605 131 45.9362 130.345 45.9362 129.502C45.9362 128.749 45.7563 128.14 45.3966 127.674C45.0411 127.205 44.5672 126.97 43.9747 126.97C43.395 126.97 42.9274 127.2 42.5719 127.662C42.2164 128.123 42.0387 128.783 42.0387 129.642ZM49.0308 133V127.04H47.9453V126.132H49.0308V125.427C49.0308 124.691 49.2275 124.122 49.6211 123.72C50.0146 123.318 50.5711 123.117 51.2905 123.117C51.5614 123.117 51.8301 123.153 52.0967 123.225L52.0332 124.177C51.8343 124.139 51.6227 124.12 51.3984 124.12C51.0176 124.12 50.7235 124.232 50.5161 124.456C50.3088 124.676 50.2051 124.993 50.2051 125.408V126.132H51.6714V127.04H50.2051V133H49.0308ZM54.4359 124.469V126.132H55.7181V127.04H54.4359V131.299C54.4359 131.574 54.493 131.781 54.6073 131.921C54.7216 132.056 54.9162 132.124 55.1913 132.124C55.3267 132.124 55.5129 132.099 55.7499 132.048V133C55.441 133.085 55.1405 133.127 54.8485 133.127C54.3238 133.127 53.9281 132.968 53.6615 132.651C53.3949 132.333 53.2616 131.883 53.2616 131.299V127.04H52.0111V126.132H53.2616V124.469H54.4359ZM67.068 131.788C66.7549 132.236 66.3169 132.573 65.754 132.797C65.1954 133.017 64.5438 133.127 63.799 133.127C63.0457 133.127 62.3771 132.951 61.7931 132.6C61.2091 132.245 60.7563 131.741 60.4347 131.089C60.1173 130.438 59.9544 129.682 59.9459 128.823V128.017C59.9459 126.625 60.2697 125.546 60.9171 124.78C61.5688 124.014 62.4829 123.631 63.6593 123.631C64.6242 123.631 65.4007 123.878 65.9889 124.374C66.5771 124.864 66.9368 125.563 67.068 126.468H65.8493C65.6207 125.245 64.8929 124.634 63.6657 124.634C62.8489 124.634 62.229 124.922 61.8058 125.497C61.3869 126.068 61.1753 126.898 61.171 127.985V128.741C61.171 129.778 61.408 130.603 61.882 131.216C62.3559 131.826 62.997 132.13 63.8053 132.13C64.2623 132.13 64.6622 132.08 65.005 131.978C65.3478 131.876 65.6313 131.705 65.8556 131.464V129.388H63.7164V128.398H67.068V131.788ZM68.4805 129.502C68.4805 128.83 68.6117 128.224 68.874 127.687C69.1406 127.15 69.5088 126.735 69.9785 126.443C70.4525 126.151 70.992 126.005 71.5972 126.005C72.5324 126.005 73.2878 126.329 73.8633 126.976C74.443 127.624 74.7329 128.485 74.7329 129.56V129.642C74.7329 130.311 74.6039 130.912 74.3457 131.445C74.0918 131.974 73.7258 132.386 73.2476 132.683C72.7736 132.979 72.2277 133.127 71.6099 133.127C70.6789 133.127 69.9235 132.803 69.3438 132.156C68.7682 131.508 68.4805 130.651 68.4805 129.585V129.502ZM69.6611 129.642C69.6611 130.404 69.8368 131.015 70.188 131.477C70.5435 131.938 71.0174 132.168 71.6099 132.168C72.2066 132.168 72.6805 131.936 73.0318 131.47C73.383 131 73.5586 130.345 73.5586 129.502C73.5586 128.749 73.3788 128.14 73.0191 127.674C72.6636 127.205 72.1896 126.97 71.5972 126.97C71.0174 126.97 70.5498 127.2 70.1944 127.662C69.8389 128.123 69.6611 128.783 69.6611 129.642ZM77.3515 133H76.1772V123.25H77.3515V133ZM78.8211 129.509C78.8211 128.455 79.0707 127.609 79.5701 126.97C80.0694 126.326 80.7233 126.005 81.5315 126.005C82.3356 126.005 82.9724 126.28 83.4422 126.83V123.25H84.6165V133H83.5374L83.4803 132.264C83.0105 132.839 82.3567 133.127 81.5188 133.127C80.7233 133.127 80.0737 132.801 79.5701 132.149C79.0707 131.498 78.8211 130.647 78.8211 129.598V129.509ZM79.9954 129.642C79.9954 130.421 80.1562 131.03 80.4778 131.47C80.7994 131.91 81.2438 132.13 81.8108 132.13C82.5556 132.13 83.0994 131.796 83.4422 131.127V127.973C83.0909 127.325 82.5514 127.001 81.8235 127.001C81.248 127.001 80.7994 127.224 80.4778 127.668C80.1562 128.112 79.9954 128.77 79.9954 129.642ZM26.3597 149.382V153H25.141V143.758H28.5497C29.5611 143.758 30.3524 144.016 30.9237 144.532C31.4992 145.049 31.787 145.732 31.787 146.583C31.787 147.48 31.5056 148.172 30.9427 148.658C30.3841 149.141 29.5822 149.382 28.537 149.382H26.3597ZM26.3597 148.385H28.5497C29.2014 148.385 29.7007 148.233 30.0477 147.928C30.3947 147.619 30.5682 147.175 30.5682 146.595C30.5682 146.045 30.3947 145.605 30.0477 145.275C29.7007 144.945 29.2246 144.773 28.6195 144.761H26.3597V148.385ZM37.1921 153C37.1244 152.865 37.0694 152.623 37.0271 152.276C36.4812 152.843 35.8295 153.127 35.072 153.127C34.3949 153.127 33.8384 152.937 33.4026 152.556C32.9709 152.171 32.7551 151.684 32.7551 151.096C32.7551 150.381 33.0259 149.826 33.5676 149.433C34.1135 149.035 34.8795 148.836 35.8655 148.836H37.008V148.296C37.008 147.886 36.8853 147.56 36.6399 147.319C36.3944 147.073 36.0326 146.951 35.5544 146.951C35.1355 146.951 34.7842 147.056 34.5007 147.268C34.2172 147.48 34.0754 147.736 34.0754 148.036H32.8948C32.8948 147.693 33.0154 147.363 33.2566 147.046C33.502 146.724 33.8321 146.47 34.2468 146.284C34.6658 146.098 35.1249 146.005 35.6243 146.005C36.4156 146.005 37.0356 146.204 37.4841 146.602C37.9327 146.995 38.1654 147.539 38.1824 148.233V151.394C38.1824 152.025 38.2628 152.526 38.4236 152.898V153H37.1921ZM35.2434 152.105C35.6116 152.105 35.9607 152.01 36.2908 151.819C36.6208 151.629 36.8599 151.381 37.008 151.077V149.667H36.0876C34.6488 149.667 33.9294 150.089 33.9294 150.931C33.9294 151.299 34.0522 151.587 34.2976 151.794C34.543 152.001 34.8583 152.105 35.2434 152.105ZM43.213 147.186C43.0353 147.156 42.8427 147.141 42.6354 147.141C41.8652 147.141 41.3426 147.469 41.0675 148.125V153H39.8932V146.132H41.0358L41.0548 146.925C41.4399 146.312 41.9858 146.005 42.6925 146.005C42.921 146.005 43.0945 146.035 43.213 146.094V147.186ZM46.0791 144.469V146.132H47.3613V147.04H46.0791V151.299C46.0791 151.574 46.1362 151.781 46.2505 151.921C46.3647 152.056 46.5594 152.124 46.8345 152.124C46.9699 152.124 47.1561 152.099 47.3931 152.048V153C47.0841 153.085 46.7837 153.127 46.4917 153.127C45.967 153.127 45.5713 152.968 45.3047 152.651C45.0381 152.333 44.9048 151.883 44.9048 151.299V147.04H43.6543V146.132H44.9048V144.469H46.0791ZM49.7196 146.132L49.7577 146.995C50.2824 146.335 50.968 146.005 51.8143 146.005C53.2658 146.005 53.9979 146.824 54.0106 148.461V153H52.8363V148.455C52.8321 147.96 52.7178 147.594 52.4935 147.357C52.2735 147.12 51.9286 147.001 51.4589 147.001C51.078 147.001 50.7437 147.103 50.4559 147.306C50.1682 147.509 49.9439 147.776 49.7831 148.106V153H48.6088V146.132H49.7196ZM58.5017 153.127C57.5707 153.127 56.8132 152.822 56.2293 152.213C55.6453 151.599 55.3533 150.78 55.3533 149.756V149.541C55.3533 148.859 55.4823 148.252 55.7405 147.719C56.0029 147.181 56.3668 146.762 56.8323 146.462C57.302 146.157 57.8098 146.005 58.3557 146.005C59.2486 146.005 59.9426 146.299 60.4378 146.887C60.9329 147.475 61.1804 148.318 61.1804 149.414V149.902H56.5276C56.5445 150.579 56.7413 151.127 57.1179 151.546C57.4988 151.961 57.9812 152.168 58.5652 152.168C58.9799 152.168 59.3311 152.084 59.6189 151.915C59.9067 151.745 60.1585 151.521 60.3743 151.242L61.0916 151.8C60.516 152.685 59.6528 153.127 58.5017 153.127ZM58.3557 146.97C57.8818 146.97 57.484 147.143 57.1624 147.49C56.8407 147.833 56.6419 148.315 56.5657 148.938H60.0061V148.849C59.9723 148.252 59.8114 147.791 59.5237 147.465C59.2359 147.135 58.8466 146.97 58.3557 146.97ZM65.735 147.186C65.5573 147.156 65.3647 147.141 65.1574 147.141C64.3872 147.141 63.8646 147.469 63.5895 148.125V153H62.4152V146.132H63.5578L63.5768 146.925C63.9619 146.312 64.5078 146.005 65.2145 146.005C65.443 146.005 65.6165 146.035 65.735 146.094V147.186Z" fill="#939393"/>
<path d="M45.284 1.03664L45.2841 1.03661C45.4462 0.9878 45.6133 0.987795 45.7754 1.0366C45.7754 1.03661 45.7755 1.03661 45.7755 1.03661L83.1116 12.2803C83.1129 12.2808 83.1143 12.2812 83.1156 12.2816C83.4836 12.3985 83.7403 12.7486 83.7403 13.1358V54.3796C83.7403 62.176 77.7808 69.7449 69.8477 75.9929C61.9656 82.2007 52.4097 86.8846 45.7827 88.9577L45.7604 88.9647L45.7384 88.9728C45.6933 88.9892 45.6449 89 45.521 89C45.4472 89 45.3547 88.986 45.2535 88.9559C38.6267 86.8819 29.0742 82.1989 21.1944 75.9929C13.2612 69.7449 7.30176 62.176 7.30176 54.3796V13.1358C7.30176 12.7486 7.55847 12.3984 7.92653 12.2816C7.92784 12.2812 7.92916 12.2807 7.93047 12.2803L45.284 1.03664Z" stroke="#383838" stroke-width="2"/>
<rect x="24.7581" y="23.0708" width="18.9311" height="18.9311" fill="#383838"/>
<rect x="47.3527" y="23.0708" width="18.9311" height="18.9311" fill="#383838"/>
<rect x="24.7581" y="45.6655" width="18.9311" height="18.9311" fill="#383838"/>
<rect x="47.3527" y="45.6655" width="18.9311" height="18.9311" fill="#383838"/>
<circle cx="218" cy="45" r="44" fill="white" stroke="#383838" stroke-width="2"/>
<path d="M196.535 58.639H191V32.361H196.535V58.639Z" fill="#383838"/>
<path d="M215.614 51.7447C215.614 50.7219 215.245 49.9398 214.507 49.3984C213.769 48.8449 212.441 48.2674 210.522 47.6658C208.603 47.0521 207.083 46.4505 205.964 45.861C202.913 44.2487 201.388 42.0769 201.388 39.3456C201.388 37.9258 201.794 36.6624 202.606 35.5555C203.43 34.4365 204.605 33.5642 206.13 32.9385C207.668 32.3128 209.39 32 211.297 32C213.215 32 214.925 32.3429 216.426 33.0287C217.927 33.7025 219.089 34.6591 219.913 35.8984C220.75 37.1377 221.168 38.5455 221.168 40.1217H215.633C215.633 38.9184 215.245 37.986 214.47 37.3242C213.695 36.6504 212.607 36.3135 211.204 36.3135C209.851 36.3135 208.799 36.5963 208.049 37.1618C207.299 37.7152 206.924 38.4492 206.924 39.3636C206.924 40.2179 207.36 40.9338 208.234 41.5114C209.119 42.0889 210.417 42.6303 212.127 43.1357C215.276 44.0622 217.57 45.2112 219.009 46.5829C220.448 47.9545 221.168 49.6631 221.168 51.7086C221.168 53.9826 220.289 55.7694 218.529 57.0688C216.77 58.3563 214.403 59 211.426 59C209.359 59 207.477 58.633 205.78 57.8991C204.082 57.1531 202.784 56.1364 201.886 54.8489C201.001 53.5615 200.558 52.0695 200.558 50.373H206.112C206.112 53.2727 207.883 54.7226 211.426 54.7226C212.742 54.7226 213.769 54.4639 214.507 53.9465C215.245 53.4171 215.614 52.6832 215.614 51.7447Z" fill="#383838"/>
<path d="M247 46.0956C247 48.6825 246.533 50.9505 245.598 52.8997C244.663 54.8489 243.322 56.3529 241.575 57.4118C239.841 58.4706 237.848 59 235.597 59C233.371 59 231.384 58.4766 229.637 57.4298C227.89 56.383 226.537 54.891 225.578 52.9539C224.618 51.0047 224.133 48.7667 224.12 46.24V44.9405C224.12 42.3536 224.594 40.0795 225.541 38.1183C226.5 36.1451 227.847 34.635 229.582 33.5882C231.329 32.5294 233.321 32 235.56 32C237.799 32 239.786 32.5294 241.52 33.5882C243.267 34.635 244.614 36.1451 245.561 38.1183C246.52 40.0795 247 42.3476 247 44.9225V46.0956ZM241.391 44.9044C241.391 42.1491 240.886 40.0555 239.878 38.6237C238.869 37.1918 237.43 36.4759 235.56 36.4759C233.703 36.4759 232.27 37.1858 231.261 38.6056C230.252 40.0134 229.742 42.0829 229.729 44.8142V46.0956C229.729 48.7787 230.234 50.8603 231.243 52.3402C232.251 53.8202 233.703 54.5602 235.597 54.5602C237.454 54.5602 238.881 53.8503 239.878 52.4305C240.874 50.9987 241.378 48.9171 241.391 46.1858V44.9044Z" fill="#383838"/>
<path d="M192.487 133H191.268V123.758H192.487V133ZM197.314 128.88C196.269 128.58 195.507 128.212 195.029 127.776C194.555 127.336 194.318 126.794 194.318 126.151C194.318 125.423 194.608 124.822 195.188 124.348C195.772 123.87 196.529 123.631 197.46 123.631C198.095 123.631 198.66 123.754 199.155 123.999C199.654 124.244 200.04 124.583 200.31 125.015C200.585 125.446 200.723 125.918 200.723 126.43H199.498C199.498 125.872 199.32 125.434 198.965 125.116C198.609 124.795 198.108 124.634 197.46 124.634C196.859 124.634 196.39 124.767 196.051 125.034C195.717 125.296 195.55 125.662 195.55 126.132C195.55 126.508 195.708 126.828 196.026 127.09C196.347 127.348 196.891 127.585 197.657 127.801C198.427 128.017 199.028 128.256 199.46 128.519C199.896 128.777 200.217 129.079 200.425 129.426C200.636 129.773 200.742 130.182 200.742 130.651C200.742 131.4 200.45 132.001 199.866 132.454C199.282 132.903 198.501 133.127 197.524 133.127C196.889 133.127 196.297 133.006 195.746 132.765C195.196 132.52 194.771 132.185 194.471 131.762C194.174 131.339 194.026 130.859 194.026 130.321H195.251C195.251 130.88 195.457 131.322 195.867 131.648C196.282 131.97 196.834 132.13 197.524 132.13C198.167 132.13 198.66 131.999 199.003 131.737C199.346 131.474 199.517 131.117 199.517 130.664C199.517 130.211 199.358 129.862 199.041 129.617C198.723 129.367 198.148 129.122 197.314 128.88ZM209.289 128.677C209.289 129.583 209.137 130.374 208.832 131.051C208.528 131.724 208.096 132.238 207.537 132.594C206.979 132.949 206.327 133.127 205.582 133.127C204.854 133.127 204.209 132.949 203.646 132.594C203.083 132.234 202.645 131.724 202.332 131.064C202.023 130.4 201.865 129.632 201.856 128.76V128.093C201.856 127.205 202.011 126.42 202.32 125.738C202.628 125.057 203.064 124.536 203.627 124.177C204.194 123.813 204.842 123.631 205.57 123.631C206.31 123.631 206.962 123.811 207.525 124.17C208.092 124.526 208.528 125.044 208.832 125.726C209.137 126.403 209.289 127.192 209.289 128.093V128.677ZM208.077 128.081C208.077 126.985 207.857 126.145 207.417 125.561C206.977 124.972 206.361 124.678 205.57 124.678C204.799 124.678 204.192 124.972 203.748 125.561C203.308 126.145 203.081 126.957 203.069 127.998V128.677C203.069 129.739 203.291 130.575 203.735 131.185C204.184 131.79 204.799 132.092 205.582 132.092C206.369 132.092 206.979 131.807 207.41 131.235C207.842 130.66 208.064 129.837 208.077 128.766V128.081ZM216.738 133H210.683V132.156L213.882 128.601C214.356 128.064 214.682 127.628 214.859 127.293C215.041 126.955 215.132 126.606 215.132 126.246C215.132 125.764 214.986 125.368 214.694 125.059C214.402 124.75 214.013 124.596 213.526 124.596C212.942 124.596 212.488 124.763 212.162 125.097C211.84 125.427 211.679 125.889 211.679 126.481H210.505C210.505 125.63 210.778 124.943 211.324 124.418C211.874 123.893 212.608 123.631 213.526 123.631C214.385 123.631 215.065 123.857 215.564 124.31C216.063 124.759 216.313 125.357 216.313 126.106C216.313 127.016 215.733 128.1 214.574 129.356L212.098 132.042H216.738V133ZM223.819 124.418L219.992 133H218.76L222.575 124.723H217.573V123.758H223.819V124.418ZM230.818 129.058C230.818 130.433 230.583 131.455 230.113 132.124C229.643 132.793 228.909 133.127 227.91 133.127C226.924 133.127 226.194 132.801 225.721 132.149C225.247 131.493 225.001 130.516 224.984 129.217V127.649C224.984 126.291 225.219 125.281 225.689 124.621C226.159 123.961 226.895 123.631 227.898 123.631C228.892 123.631 229.624 123.95 230.094 124.589C230.564 125.224 230.805 126.206 230.818 127.535V129.058ZM229.643 127.452C229.643 126.458 229.504 125.734 229.224 125.281C228.945 124.824 228.503 124.596 227.898 124.596C227.297 124.596 226.859 124.822 226.584 125.275C226.309 125.728 226.167 126.424 226.159 127.363V129.242C226.159 130.241 226.302 130.979 226.59 131.458C226.882 131.931 227.322 132.168 227.91 132.168C228.49 132.168 228.92 131.944 229.199 131.496C229.483 131.047 229.631 130.34 229.643 129.375V127.452ZM237.988 129.058C237.988 130.433 237.753 131.455 237.283 132.124C236.813 132.793 236.079 133.127 235.08 133.127C234.094 133.127 233.364 132.801 232.89 132.149C232.416 131.493 232.171 130.516 232.154 129.217V127.649C232.154 126.291 232.389 125.281 232.859 124.621C233.328 123.961 234.065 123.631 235.068 123.631C236.062 123.631 236.794 123.95 237.264 124.589C237.734 125.224 237.975 126.206 237.988 127.535V129.058ZM236.813 127.452C236.813 126.458 236.674 125.734 236.394 125.281C236.115 124.824 235.673 124.596 235.068 124.596C234.467 124.596 234.029 124.822 233.754 125.275C233.479 125.728 233.337 126.424 233.328 127.363V129.242C233.328 130.241 233.472 130.979 233.76 131.458C234.052 131.931 234.492 132.168 235.08 132.168C235.66 132.168 236.09 131.944 236.369 131.496C236.652 131.047 236.8 130.34 236.813 129.375V127.452ZM243.221 133H242.041V125.173L239.673 126.043V124.977L243.037 123.713H243.221V133Z" fill="#939393"/>
<path d="M345.505 123.758L348.527 131.299L351.548 123.758H353.129V133H351.91V129.401L352.024 125.516L348.99 133H348.057L345.029 125.535L345.15 129.401V133H343.931V123.758H345.505ZM356.242 133H355.068V126.132H356.242V133ZM354.973 124.31C354.973 124.12 355.03 123.959 355.144 123.828C355.263 123.696 355.436 123.631 355.665 123.631C355.893 123.631 356.067 123.696 356.185 123.828C356.304 123.959 356.363 124.12 356.363 124.31C356.363 124.5 356.304 124.659 356.185 124.786C356.067 124.913 355.893 124.977 355.665 124.977C355.436 124.977 355.263 124.913 355.144 124.786C355.03 124.659 354.973 124.5 354.973 124.31ZM360.753 132.168C361.172 132.168 361.538 132.042 361.851 131.788C362.164 131.534 362.337 131.216 362.371 130.835H363.482C363.461 131.229 363.326 131.604 363.076 131.959C362.826 132.314 362.492 132.598 362.073 132.81C361.658 133.021 361.218 133.127 360.753 133.127C359.817 133.127 359.073 132.816 358.518 132.194C357.968 131.568 357.693 130.713 357.693 129.629V129.433C357.693 128.764 357.816 128.169 358.061 127.649C358.307 127.128 358.658 126.724 359.115 126.437C359.576 126.149 360.12 126.005 360.746 126.005C361.516 126.005 362.155 126.236 362.663 126.697C363.175 127.158 363.448 127.757 363.482 128.493H362.371C362.337 128.049 362.168 127.685 361.863 127.401C361.563 127.114 361.191 126.97 360.746 126.97C360.15 126.97 359.686 127.186 359.356 127.617C359.03 128.045 358.867 128.665 358.867 129.477V129.699C358.867 130.491 359.03 131.1 359.356 131.527C359.682 131.955 360.147 132.168 360.753 132.168ZM367.992 127.186C367.814 127.156 367.622 127.141 367.415 127.141C366.644 127.141 366.122 127.469 365.847 128.125V133H364.672V126.132H365.815L365.834 126.925C366.219 126.312 366.765 126.005 367.472 126.005C367.7 126.005 367.874 126.035 367.992 126.094V127.186ZM368.51 129.502C368.51 128.83 368.641 128.224 368.903 127.687C369.17 127.15 369.538 126.735 370.008 126.443C370.482 126.151 371.021 126.005 371.626 126.005C372.562 126.005 373.317 126.329 373.892 126.976C374.472 127.624 374.762 128.485 374.762 129.56V129.642C374.762 130.311 374.633 130.912 374.375 131.445C374.121 131.974 373.755 132.386 373.277 132.683C372.803 132.979 372.257 133.127 371.639 133.127C370.708 133.127 369.953 132.803 369.373 132.156C368.797 131.508 368.51 130.651 368.51 129.585V129.502ZM369.69 129.642C369.69 130.404 369.866 131.015 370.217 131.477C370.573 131.938 371.047 132.168 371.639 132.168C372.236 132.168 372.71 131.936 373.061 131.47C373.412 131 373.588 130.345 373.588 129.502C373.588 128.749 373.408 128.14 373.048 127.674C372.693 127.205 372.219 126.97 371.626 126.97C371.047 126.97 370.579 127.2 370.224 127.662C369.868 128.123 369.69 128.783 369.69 129.642ZM380.104 131.178C380.104 130.861 379.983 130.615 379.742 130.442C379.505 130.264 379.088 130.112 378.492 129.985C377.899 129.858 377.427 129.706 377.076 129.528C376.729 129.35 376.471 129.139 376.302 128.893C376.137 128.648 376.054 128.356 376.054 128.017C376.054 127.454 376.291 126.978 376.765 126.589C377.243 126.2 377.853 126.005 378.593 126.005C379.372 126.005 380.002 126.206 380.485 126.608C380.971 127.01 381.215 127.524 381.215 128.15H380.034C380.034 127.829 379.896 127.552 379.621 127.319C379.351 127.086 379.008 126.97 378.593 126.97C378.166 126.97 377.831 127.063 377.59 127.249C377.349 127.435 377.228 127.679 377.228 127.979C377.228 128.263 377.34 128.476 377.565 128.62C377.789 128.764 378.193 128.902 378.777 129.033C379.365 129.164 379.841 129.32 380.205 129.502C380.569 129.684 380.838 129.904 381.012 130.163C381.189 130.417 381.278 130.728 381.278 131.096C381.278 131.709 381.033 132.202 380.542 132.575C380.051 132.943 379.414 133.127 378.631 133.127C378.081 133.127 377.594 133.03 377.171 132.835C376.748 132.64 376.416 132.369 376.175 132.022C375.938 131.671 375.819 131.292 375.819 130.886H376.993C377.015 131.28 377.171 131.593 377.463 131.826C377.759 132.054 378.149 132.168 378.631 132.168C379.075 132.168 379.431 132.08 379.698 131.902C379.968 131.72 380.104 131.479 380.104 131.178ZM382.367 129.502C382.367 128.83 382.498 128.224 382.76 127.687C383.027 127.15 383.395 126.735 383.865 126.443C384.339 126.151 384.878 126.005 385.484 126.005C386.419 126.005 387.174 126.329 387.75 126.976C388.329 127.624 388.619 128.485 388.619 129.56V129.642C388.619 130.311 388.49 130.912 388.232 131.445C387.978 131.974 387.612 132.386 387.134 132.683C386.66 132.979 386.114 133.127 385.496 133.127C384.565 133.127 383.81 132.803 383.23 132.156C382.655 131.508 382.367 130.651 382.367 129.585V129.502ZM383.548 129.642C383.548 130.404 383.723 131.015 384.074 131.477C384.43 131.938 384.904 132.168 385.496 132.168C386.093 132.168 386.567 131.936 386.918 131.47C387.269 131 387.445 130.345 387.445 129.502C387.445 128.749 387.265 128.14 386.905 127.674C386.55 127.205 386.076 126.97 385.484 126.97C384.904 126.97 384.436 127.2 384.081 127.662C383.725 128.123 383.548 128.783 383.548 129.642ZM390.54 133V127.04H389.454V126.132H390.54V125.427C390.54 124.691 390.736 124.122 391.13 123.72C391.523 123.318 392.08 123.117 392.799 123.117C393.07 123.117 393.339 123.153 393.606 123.225L393.542 124.177C393.343 124.139 393.132 124.12 392.907 124.12C392.526 124.12 392.232 124.232 392.025 124.456C391.818 124.676 391.714 124.993 391.714 125.408V126.132H393.18V127.04H391.714V133H390.54ZM395.945 124.469V126.132H397.227V127.04H395.945V131.299C395.945 131.574 396.002 131.781 396.116 131.921C396.23 132.056 396.425 132.124 396.7 132.124C396.836 132.124 397.022 132.099 397.259 132.048V133C396.95 133.085 396.649 133.127 396.357 133.127C395.833 133.127 395.437 132.968 395.17 132.651C394.904 132.333 394.77 131.883 394.77 131.299V127.04H393.52V126.132H394.77V124.469H395.945ZM404.476 128.88C403.431 128.58 402.669 128.212 402.191 127.776C401.717 127.336 401.48 126.794 401.48 126.151C401.48 125.423 401.77 124.822 402.35 124.348C402.934 123.87 403.691 123.631 404.622 123.631C405.257 123.631 405.822 123.754 406.317 123.999C406.816 124.244 407.202 124.583 407.472 125.015C407.747 125.446 407.885 125.918 407.885 126.43H406.66C406.66 125.872 406.482 125.434 406.127 125.116C405.771 124.795 405.27 124.634 404.622 124.634C404.021 124.634 403.552 124.767 403.213 125.034C402.879 125.296 402.712 125.662 402.712 126.132C402.712 126.508 402.87 126.828 403.188 127.09C403.509 127.348 404.053 127.585 404.819 127.801C405.589 128.017 406.19 128.256 406.622 128.519C407.058 128.777 407.379 129.079 407.587 129.426C407.798 129.773 407.904 130.182 407.904 130.651C407.904 131.4 407.612 132.001 407.028 132.454C406.444 132.903 405.663 133.127 404.686 133.127C404.051 133.127 403.459 133.006 402.908 132.765C402.358 132.52 401.933 132.185 401.633 131.762C401.336 131.339 401.188 130.859 401.188 130.321H402.413C402.413 130.88 402.619 131.322 403.029 131.648C403.444 131.97 403.996 132.13 404.686 132.13C405.329 132.13 405.822 131.999 406.165 131.737C406.508 131.474 406.679 131.117 406.679 130.664C406.679 130.211 406.52 129.862 406.203 129.617C405.885 129.367 405.31 129.122 404.476 128.88ZM414.96 129.642C414.96 130.687 414.72 131.529 414.242 132.168C413.764 132.807 413.117 133.127 412.3 133.127C411.466 133.127 410.81 132.862 410.332 132.333V135.641H409.158V126.132H410.231L410.288 126.894C410.766 126.301 411.43 126.005 412.281 126.005C413.106 126.005 413.758 126.316 414.236 126.938C414.718 127.56 414.96 128.425 414.96 129.534V129.642ZM413.785 129.509C413.785 128.734 413.62 128.123 413.29 127.674C412.96 127.226 412.507 127.001 411.932 127.001C411.221 127.001 410.688 127.317 410.332 127.947V131.229C410.683 131.855 411.221 132.168 411.944 132.168C412.507 132.168 412.954 131.946 413.284 131.502C413.618 131.053 413.785 130.389 413.785 129.509ZM416.017 129.502C416.017 128.83 416.148 128.224 416.41 127.687C416.677 127.15 417.045 126.735 417.515 126.443C417.989 126.151 418.528 126.005 419.133 126.005C420.068 126.005 420.824 126.329 421.399 126.976C421.979 127.624 422.269 128.485 422.269 129.56V129.642C422.269 130.311 422.14 130.912 421.882 131.445C421.628 131.974 421.262 132.386 420.784 132.683C420.31 132.979 419.764 133.127 419.146 133.127C418.215 133.127 417.46 132.803 416.88 132.156C416.304 131.508 416.017 130.651 416.017 129.585V129.502ZM417.197 129.642C417.197 130.404 417.373 131.015 417.724 131.477C418.08 131.938 418.554 132.168 419.146 132.168C419.743 132.168 420.217 131.936 420.568 131.47C420.919 131 421.095 130.345 421.095 129.502C421.095 128.749 420.915 128.14 420.555 127.674C420.2 127.205 419.726 126.97 419.133 126.97C418.554 126.97 418.086 127.2 417.73 127.662C417.375 128.123 417.197 128.783 417.197 129.642ZM426.931 127.186C426.754 127.156 426.561 127.141 426.354 127.141C425.584 127.141 425.061 127.469 424.786 128.125V133H423.612V126.132H424.754L424.773 126.925C425.158 126.312 425.704 126.005 426.411 126.005C426.639 126.005 426.813 126.035 426.931 126.094V127.186ZM429.798 124.469V126.132H431.08V127.04H429.798V131.299C429.798 131.574 429.855 131.781 429.969 131.921C430.083 132.056 430.278 132.124 430.553 132.124C430.688 132.124 430.875 132.099 431.112 132.048V133C430.803 133.085 430.502 133.127 430.21 133.127C429.685 133.127 429.29 132.968 429.023 132.651C428.757 132.333 428.623 131.883 428.623 131.299V127.04H427.373V126.132H428.623V124.469H429.798ZM436.326 131.178C436.326 130.861 436.206 130.615 435.964 130.442C435.727 130.264 435.311 130.112 434.714 129.985C434.122 129.858 433.65 129.706 433.298 129.528C432.951 129.35 432.693 129.139 432.524 128.893C432.359 128.648 432.276 128.356 432.276 128.017C432.276 127.454 432.513 126.978 432.987 126.589C433.466 126.2 434.075 126.005 434.816 126.005C435.594 126.005 436.225 126.206 436.707 126.608C437.194 127.01 437.437 127.524 437.437 128.15H436.256C436.256 127.829 436.119 127.552 435.844 127.319C435.573 127.086 435.23 126.97 434.816 126.97C434.388 126.97 434.054 127.063 433.813 127.249C433.571 127.435 433.451 127.679 433.451 127.979C433.451 128.263 433.563 128.476 433.787 128.62C434.011 128.764 434.416 128.902 435 129.033C435.588 129.164 436.064 129.32 436.428 129.502C436.792 129.684 437.06 129.904 437.234 130.163C437.412 130.417 437.501 130.728 437.501 131.096C437.501 131.709 437.255 132.202 436.764 132.575C436.273 132.943 435.636 133.127 434.854 133.127C434.303 133.127 433.817 133.03 433.394 132.835C432.97 132.64 432.638 132.369 432.397 132.022C432.16 131.671 432.042 131.292 432.042 130.886H433.216C433.237 131.28 433.394 131.593 433.686 131.826C433.982 132.054 434.371 132.168 434.854 132.168C435.298 132.168 435.653 132.08 435.92 131.902C436.191 131.72 436.326 131.479 436.326 131.178ZM329.604 149.382V153H328.385V143.758H331.794C332.805 143.758 333.597 144.016 334.168 144.532C334.744 145.049 335.031 145.732 335.031 146.583C335.031 147.48 334.75 148.172 334.187 148.658C333.629 149.141 332.827 149.382 331.781 149.382H329.604ZM329.604 148.385H331.794C332.446 148.385 332.945 148.233 333.292 147.928C333.639 147.619 333.813 147.175 333.813 146.595C333.813 146.045 333.639 145.605 333.292 145.275C332.945 144.945 332.469 144.773 331.864 144.761H329.604V148.385ZM339.034 153.127C338.103 153.127 337.345 152.822 336.761 152.213C336.177 151.599 335.885 150.78 335.885 149.756V149.541C335.885 148.859 336.014 148.252 336.272 147.719C336.535 147.181 336.899 146.762 337.364 146.462C337.834 146.157 338.342 146.005 338.888 146.005C339.781 146.005 340.475 146.299 340.97 146.887C341.465 147.475 341.712 148.318 341.712 149.414V149.902H337.06C337.077 150.579 337.273 151.127 337.65 151.546C338.031 151.961 338.513 152.168 339.097 152.168C339.512 152.168 339.863 152.084 340.151 151.915C340.439 151.745 340.69 151.521 340.906 151.242L341.624 151.8C341.048 152.685 340.185 153.127 339.034 153.127ZM338.888 146.97C338.414 146.97 338.016 147.143 337.694 147.49C337.373 147.833 337.174 148.315 337.098 148.938H340.538V148.849C340.504 148.252 340.343 147.791 340.056 147.465C339.768 147.135 339.379 146.97 338.888 146.97ZM346.267 147.186C346.089 147.156 345.897 147.141 345.689 147.141C344.919 147.141 344.397 147.469 344.121 148.125V153H342.947V146.132H344.09L344.109 146.925C344.494 146.312 345.04 146.005 345.746 146.005C345.975 146.005 346.149 146.035 346.267 146.094V147.186ZM347.902 153V147.04H346.816V146.132H347.902V145.427C347.902 144.691 348.098 144.122 348.492 143.72C348.886 143.318 349.442 143.117 350.161 143.117C350.432 143.117 350.701 143.153 350.968 143.225L350.904 144.177C350.705 144.139 350.494 144.12 350.269 144.12C349.888 144.12 349.594 144.232 349.387 144.456C349.18 144.676 349.076 144.993 349.076 145.408V146.132H350.542V147.04H349.076V153H347.902ZM351.403 149.502C351.403 148.83 351.534 148.224 351.796 147.687C352.063 147.15 352.431 146.735 352.901 146.443C353.375 146.151 353.914 146.005 354.519 146.005C355.454 146.005 356.21 146.329 356.785 146.976C357.365 147.624 357.655 148.485 357.655 149.56V149.642C357.655 150.311 357.526 150.912 357.268 151.445C357.014 151.974 356.648 152.386 356.17 152.683C355.696 152.979 355.15 153.127 354.532 153.127C353.601 153.127 352.846 152.803 352.266 152.156C351.69 151.508 351.403 150.651 351.403 149.585V149.502ZM352.583 149.642C352.583 150.404 352.759 151.015 353.11 151.477C353.465 151.938 353.939 152.168 354.532 152.168C355.129 152.168 355.603 151.936 355.954 151.47C356.305 151 356.481 150.345 356.481 149.502C356.481 148.749 356.301 148.14 355.941 147.674C355.586 147.205 355.112 146.97 354.519 146.97C353.939 146.97 353.472 147.2 353.116 147.662C352.761 148.123 352.583 148.783 352.583 149.642ZM362.317 147.186C362.14 147.156 361.947 147.141 361.74 147.141C360.97 147.141 360.447 147.469 360.172 148.125V153H358.998V146.132H360.14L360.159 146.925C360.544 146.312 361.09 146.005 361.797 146.005C362.025 146.005 362.199 146.035 362.317 146.094V147.186ZM364.377 146.132L364.409 146.894C364.913 146.301 365.592 146.005 366.447 146.005C367.407 146.005 368.061 146.373 368.408 147.109C368.637 146.779 368.933 146.513 369.297 146.31C369.665 146.106 370.099 146.005 370.598 146.005C372.105 146.005 372.871 146.803 372.896 148.398V153H371.722V148.468C371.722 147.977 371.609 147.611 371.385 147.37C371.161 147.124 370.784 147.001 370.255 147.001C369.819 147.001 369.458 147.133 369.17 147.395C368.882 147.653 368.715 148.002 368.668 148.442V153H367.488V148.5C367.488 147.501 366.999 147.001 366.021 147.001C365.251 147.001 364.724 147.329 364.441 147.985V153H363.267V146.132H364.377ZM378.783 153C378.716 152.865 378.661 152.623 378.618 152.276C378.073 152.843 377.421 153.127 376.663 153.127C375.986 153.127 375.43 152.937 374.994 152.556C374.562 152.171 374.346 151.684 374.346 151.096C374.346 150.381 374.617 149.826 375.159 149.433C375.705 149.035 376.471 148.836 377.457 148.836H378.599V148.296C378.599 147.886 378.477 147.56 378.231 147.319C377.986 147.073 377.624 146.951 377.146 146.951C376.727 146.951 376.376 147.056 376.092 147.268C375.809 147.48 375.667 147.736 375.667 148.036H374.486C374.486 147.693 374.607 147.363 374.848 147.046C375.093 146.724 375.423 146.47 375.838 146.284C376.257 146.098 376.716 146.005 377.216 146.005C378.007 146.005 378.627 146.204 379.075 146.602C379.524 146.995 379.757 147.539 379.774 148.233V151.394C379.774 152.025 379.854 152.526 380.015 152.898V153H378.783ZM376.835 152.105C377.203 152.105 377.552 152.01 377.882 151.819C378.212 151.629 378.451 151.381 378.599 151.077V149.667H377.679C376.24 149.667 375.521 150.089 375.521 150.931C375.521 151.299 375.644 151.587 375.889 151.794C376.134 152.001 376.45 152.105 376.835 152.105ZM382.595 146.132L382.633 146.995C383.158 146.335 383.844 146.005 384.69 146.005C386.142 146.005 386.874 146.824 386.886 148.461V153H385.712V148.455C385.708 147.96 385.594 147.594 385.369 147.357C385.149 147.12 384.804 147.001 384.335 147.001C383.954 147.001 383.619 147.103 383.332 147.306C383.044 147.509 382.82 147.776 382.659 148.106V153H381.485V146.132H382.595ZM391.282 152.168C391.701 152.168 392.067 152.042 392.38 151.788C392.694 151.534 392.867 151.216 392.901 150.835H394.012C393.991 151.229 393.855 151.604 393.606 151.959C393.356 152.314 393.022 152.598 392.603 152.81C392.188 153.021 391.748 153.127 391.282 153.127C390.347 153.127 389.602 152.816 389.048 152.194C388.498 151.568 388.223 150.713 388.223 149.629V149.433C388.223 148.764 388.345 148.169 388.591 147.649C388.836 147.128 389.188 146.724 389.645 146.437C390.106 146.149 390.65 146.005 391.276 146.005C392.046 146.005 392.685 146.236 393.193 146.697C393.705 147.158 393.978 147.757 394.012 148.493H392.901C392.867 148.049 392.698 147.685 392.393 147.401C392.093 147.114 391.72 146.97 391.276 146.97C390.679 146.97 390.216 147.186 389.886 147.617C389.56 148.045 389.397 148.665 389.397 149.477V149.699C389.397 150.491 389.56 151.1 389.886 151.527C390.212 151.955 390.677 152.168 391.282 152.168ZM398.052 153.127C397.121 153.127 396.364 152.822 395.78 152.213C395.196 151.599 394.904 150.78 394.904 149.756V149.541C394.904 148.859 395.033 148.252 395.291 147.719C395.553 147.181 395.917 146.762 396.383 146.462C396.852 146.157 397.36 146.005 397.906 146.005C398.799 146.005 399.493 146.299 399.988 146.887C400.483 147.475 400.731 148.318 400.731 149.414V149.902H396.078C396.095 150.579 396.292 151.127 396.668 151.546C397.049 151.961 397.532 152.168 398.116 152.168C398.53 152.168 398.882 152.084 399.169 151.915C399.457 151.745 399.709 151.521 399.925 151.242L400.642 151.8C400.067 152.685 399.203 153.127 398.052 153.127ZM397.906 146.97C397.432 146.97 397.034 147.143 396.713 147.49C396.391 147.833 396.192 148.315 396.116 148.938H399.557V148.849C399.523 148.252 399.362 147.791 399.074 147.465C398.786 147.135 398.397 146.97 397.906 146.97ZM406.463 149.382V153H405.244V143.758H408.653C409.664 143.758 410.456 144.016 411.027 144.532C411.603 145.049 411.89 145.732 411.89 146.583C411.89 147.48 411.609 148.172 411.046 148.658C410.488 149.141 409.686 149.382 408.64 149.382H406.463ZM406.463 148.385H408.653C409.305 148.385 409.804 148.233 410.151 147.928C410.498 147.619 410.672 147.175 410.672 146.595C410.672 146.045 410.498 145.605 410.151 145.275C409.804 144.945 409.328 144.773 408.723 144.761H406.463V148.385ZM414.407 153H413.233V143.25H414.407V153ZM420.403 153C420.335 152.865 420.28 152.623 420.238 152.276C419.692 152.843 419.04 153.127 418.283 153.127C417.606 153.127 417.049 152.937 416.613 152.556C416.182 152.171 415.966 151.684 415.966 151.096C415.966 150.381 416.237 149.826 416.778 149.433C417.324 149.035 418.09 148.836 419.076 148.836H420.219V148.296C420.219 147.886 420.096 147.56 419.851 147.319C419.605 147.073 419.243 146.951 418.765 146.951C418.346 146.951 417.995 147.056 417.711 147.268C417.428 147.48 417.286 147.736 417.286 148.036H416.105C416.105 147.693 416.226 147.363 416.467 147.046C416.713 146.724 417.043 146.47 417.457 146.284C417.876 146.098 418.336 146.005 418.835 146.005C419.626 146.005 420.246 146.204 420.695 146.602C421.143 146.995 421.376 147.539 421.393 148.233V151.394C421.393 152.025 421.473 152.526 421.634 152.898V153H420.403ZM418.454 152.105C418.822 152.105 419.171 152.01 419.501 151.819C419.832 151.629 420.071 151.381 420.219 151.077V149.667H419.298C417.859 149.667 417.14 150.089 417.14 150.931C417.14 151.299 417.263 151.587 417.508 151.794C417.754 152.001 418.069 152.105 418.454 152.105ZM424.697 144.469V146.132H425.979V147.04H424.697V151.299C424.697 151.574 424.754 151.781 424.868 151.921C424.983 152.056 425.177 152.124 425.452 152.124C425.588 152.124 425.774 152.099 426.011 152.048V153C425.702 153.085 425.402 153.127 425.11 153.127C424.585 153.127 424.189 152.968 423.923 152.651C423.656 152.333 423.523 151.883 423.523 151.299V147.04H422.272V146.132H423.523V144.469H424.697ZM427.804 153V147.04H426.719V146.132H427.804V145.427C427.804 144.691 428.001 144.122 428.395 143.72C428.788 143.318 429.345 143.117 430.064 143.117C430.335 143.117 430.604 143.153 430.87 143.225L430.807 144.177C430.608 144.139 430.396 144.12 430.172 144.12C429.791 144.12 429.497 144.232 429.29 144.456C429.082 144.676 428.979 144.993 428.979 145.408V146.132H430.445V147.04H428.979V153H427.804ZM431.305 149.502C431.305 148.83 431.436 148.224 431.699 147.687C431.965 147.15 432.334 146.735 432.803 146.443C433.277 146.151 433.817 146.005 434.422 146.005C435.357 146.005 436.113 146.329 436.688 146.976C437.268 147.624 437.558 148.485 437.558 149.56V149.642C437.558 150.311 437.429 150.912 437.171 151.445C436.917 151.974 436.551 152.386 436.072 152.683C435.598 152.979 435.053 153.127 434.435 153.127C433.504 153.127 432.748 152.803 432.169 152.156C431.593 151.508 431.305 150.651 431.305 149.585V149.502ZM432.486 149.642C432.486 150.404 432.662 151.015 433.013 151.477C433.368 151.938 433.842 152.168 434.435 152.168C435.031 152.168 435.505 151.936 435.857 151.47C436.208 151 436.383 150.345 436.383 149.502C436.383 148.749 436.204 148.14 435.844 147.674C435.488 147.205 435.014 146.97 434.422 146.97C433.842 146.97 433.375 147.2 433.019 147.662C432.664 148.123 432.486 148.783 432.486 149.642ZM442.22 147.186C442.042 147.156 441.85 147.141 441.643 147.141C440.872 147.141 440.35 147.469 440.075 148.125V153H438.9V146.132H440.043L440.062 146.925C440.447 146.312 440.993 146.005 441.7 146.005C441.928 146.005 442.102 146.035 442.22 146.094V147.186ZM444.28 146.132L444.312 146.894C444.815 146.301 445.495 146.005 446.349 146.005C447.31 146.005 447.964 146.373 448.311 147.109C448.539 146.779 448.836 146.513 449.2 146.31C449.568 146.106 450.001 146.005 450.501 146.005C452.007 146.005 452.773 146.803 452.799 148.398V153H451.624V148.468C451.624 147.977 451.512 147.611 451.288 147.37C451.064 147.124 450.687 147.001 450.158 147.001C449.722 147.001 449.36 147.133 449.073 147.395C448.785 147.653 448.618 148.002 448.571 148.442V153H447.39V148.5C447.39 147.501 446.902 147.001 445.924 147.001C445.154 147.001 444.627 147.329 444.344 147.985V153H443.169V146.132H444.28Z" fill="#939393"/>
<path d="M389.982 1.03664L389.982 1.03661C390.144 0.9878 390.312 0.987795 390.474 1.0366C390.474 1.03661 390.474 1.03661 390.474 1.03661L427.81 12.2803C427.811 12.2808 427.812 12.2812 427.814 12.2816C428.182 12.3985 428.439 12.7486 428.439 13.1358V54.3796C428.439 62.176 422.479 69.7449 414.546 75.9929C406.664 82.2007 397.108 86.8846 390.481 88.9577L390.459 88.9647L390.437 88.9728C390.392 88.9892 390.343 89 390.219 89C390.145 89 390.053 88.986 389.952 88.9559C383.325 86.8819 373.772 82.1989 365.893 75.9929C357.959 69.7449 352 62.176 352 54.3796V13.1358C352 12.7486 352.257 12.3984 352.625 12.2816C352.626 12.2812 352.627 12.2807 352.629 12.2803L389.982 1.03664Z" stroke="#383838" stroke-width="2"/>
<rect x="386" y="38" width="12" height="12" fill="#383838"/>
<rect x="401" y="38" width="12" height="12" fill="#383838"/>
<rect x="386" y="53" width="12" height="12" fill="#383838"/>
<rect x="401" y="53" width="12" height="12" fill="#383838"/>
<path d="M398 34.5C398 25.9396 391.06 19 382.5 19C373.94 19 367 25.9396 367 34.5C367 43.0604 373.94 50 382.5 50" stroke="#383838" stroke-width="3"/>
<path d="M392 34.4999C392 29.7636 388.534 25.8368 384 25.1177M382.5 43.9999C377.764 43.9999 373.837 40.5339 373.118 35.9999" stroke="#383838" stroke-width="2" stroke-dasharray="1 1"/>
<path d="M383 35V24C376.925 24 372 28.925 372 35H383Z" fill="#383838"/>
</svg>
