<svg width="397" height="47" viewBox="0 0 397 47" fill="none" xmlns="http://www.w3.org/2000/svg">
<path d="M310.218 10.2178H316.217C322.702 10.2178 325.203 14.2593 325.203 18.3917C325.203 22.5239 322.702 26.5656 316.217 26.5656H310.218V22.2059H314.665C317.328 22.2059 319.691 21.6386 319.691 18.3917C319.691 15.1448 317.328 14.5772 314.665 14.5772H310.218V10.2178Z" fill="#9EC8EB"/>
<path d="M326.565 17.5498H331.536V21.1223H331.606C332.567 18.709 335.145 17.0293 337.677 17.0293C338.053 17.0293 338.498 17.1003 338.826 17.2185V22.1393C338.358 22.0212 337.584 21.9497 336.95 21.9497C333.129 21.9497 331.793 24.7415 331.793 28.1246V36.7829H326.565V17.5498Z" fill="#9EC8EB"/>
<path d="M343.364 28.5228C343.505 31.8844 345.128 33.4345 348.067 33.4345C350.183 33.4345 351.877 32.1231 352.206 30.9307H356.838C355.356 35.5092 352.206 37.4641 347.903 37.4641C341.883 37.4641 338.145 33.2679 338.145 27.2589C338.145 21.4404 342.095 17.0293 347.903 17.0293C354.416 17.0293 357.543 22.5852 357.19 28.5466H343.364V28.5228ZM351.9 25.1605C351.43 22.4662 350.277 21.0353 347.714 21.0353C344.399 21.0353 343.435 23.6579 343.364 25.1605H351.9Z" fill="#9EC8EB"/>
<path d="M362.885 30.6609C362.932 32.9763 364.837 33.931 366.907 33.931C368.412 33.931 370.34 33.3345 370.34 31.4481C370.34 29.8254 368.153 29.2757 364.39 28.4401C361.356 27.7721 358.322 26.6736 358.322 23.2597C358.322 18.2945 362.532 17.0293 366.647 17.0293C370.834 17.0293 374.668 18.4616 375.068 23.2121H370.082C369.941 21.1596 368.388 20.5863 366.507 20.5863C365.331 20.5863 363.59 20.8011 363.59 22.3765C363.59 24.2867 366.553 24.5489 369.541 25.2653C372.598 25.9818 375.609 27.1033 375.609 30.7086C375.609 35.8167 371.234 37.4641 366.883 37.4641C362.438 37.4641 358.11 35.7691 357.898 30.6363H362.885" fill="#9EC8EB"/>
<path d="M381.765 30.6609C381.81 32.9763 383.642 33.931 385.632 33.931C387.08 33.931 388.934 33.3345 388.934 31.4481C388.934 29.8254 386.83 29.2757 383.212 28.4401C380.295 27.7721 377.378 26.6736 377.378 23.2597C377.378 18.2945 381.426 17.0293 385.383 17.0293C389.409 17.0293 393.094 18.4616 393.479 23.2121H388.708C388.572 21.1596 387.08 20.5863 385.247 20.5863C384.117 20.5863 382.443 20.8011 382.443 22.3765C382.443 24.2867 385.292 24.5489 388.165 25.2653C391.104 25.9818 394 27.1033 394 30.7086C394 35.8167 389.815 37.4641 385.609 37.4641C381.336 37.4641 377.174 35.7691 376.971 30.6363H381.765" fill="#9EC8EB"/>
<path d="M308.855 10.245H303.661V36.7546H308.855V10.245ZM302.451 10.245H297.257V36.7546H302.451V10.245ZM282.861 24.9886C283.169 22.4132 284.45 20.8535 286.893 20.8535C288.553 20.8535 290.593 21.8221 290.901 24.9886H282.861ZM290.687 31.0135C290.284 32.4073 288.79 33.1636 287.343 33.1636C283.145 33.1636 282.861 29.832 282.718 28.3674H296.261V27.4453C296.261 18.4672 290.877 16.6243 286.987 16.6243C278.354 16.6243 277.524 24.1852 277.524 26.5475C277.524 34.6281 281.793 37.2978 287.343 37.2978C290.711 37.2978 294.648 35.7389 296.024 31.0135H290.687ZM276.741 18.9161C276.433 14.9941 273.231 9.53613 265.238 9.53613C258.384 9.53613 253 14.2615 253 23.5469C253 32.7147 258.076 37.4637 265.167 37.4637C271.832 37.4637 275.627 33.4466 276.741 27.6819H271.191C270.527 30.9427 268.369 32.6675 265.286 32.6675C260.566 32.6675 258.692 28.391 258.692 23.6177C258.692 16.1281 262.629 14.3561 265.286 14.3561C269.887 14.3561 270.741 17.3567 271.191 18.9398H276.741V18.9161Z" fill="#004E84"/>
<path d="M66.3165 13.36H61.7008V10H60V18H61.7008V14.6546H66.3165V18H68V10H66.3165V13.36Z" fill="black"/>
<path d="M71.7265 14.3782V18H73.1041V14.3782L76 10H74.4537L72.4856 13.0982L70.5323 10H69L71.7265 14.3782Z" fill="black"/>
<path d="M78 18H79.6896V14.8727C79.7704 14.8824 79.8847 14.8921 80.0344 14.9018C80.1841 14.9115 80.3221 14.9163 80.4482 14.9163C81.7812 14.9066 82.8728 14.7321 83.724 14.3927C84.586 14.0436 85.0107 13.3648 84.9998 12.3564C84.9998 10.7855 83.7004 10 81.1033 10H78V18ZM80.9309 11.28C81.6668 11.28 82.2412 11.3576 82.655 11.5127C83.0797 11.6582 83.2929 11.9491 83.2929 12.3854C83.2929 12.8897 83.0452 13.2242 82.5516 13.389C82.0688 13.5442 81.391 13.6218 80.5172 13.6218L80.1206 13.6073C79.9364 13.5879 79.7931 13.5782 79.6896 13.5782V11.28H80.9309Z" fill="black"/>
<path d="M90 18V16.7055H87.086V14.5818H89.6675V13.2872H87.086V11.28H90V10H86V18H90Z" fill="black"/>
<path d="M93 18H94.6258V14.8727C94.9576 14.8921 95.2003 14.9018 95.3557 14.9018C95.6648 14.9018 95.9023 14.8969 96.0682 14.8873L98.1585 18H100L97.7106 14.6546C99.0605 14.257 99.7345 13.4909 99.7345 12.3564C99.7345 10.7855 98.4851 10 95.9853 10H93V18ZM95.8194 11.28C96.5275 11.28 97.0802 11.3576 97.4784 11.5127C97.8879 11.6582 98.0922 11.9491 98.0922 12.3854C98.0922 12.8897 97.8547 13.2242 97.3788 13.389C96.9143 13.5442 96.2621 13.6218 95.4221 13.6218C95.1671 13.6218 94.9017 13.6073 94.6258 13.5782V11.28H95.8194Z" fill="black"/>
<path d="M101 18H106V16.7055H102.361V10H101V18Z" fill="black"/>
<path d="M113 18V16.7055H108.629V14.5818H112.501V13.2872H108.629V11.28H113V10H107V18H113Z" fill="black"/>
<path d="M115 18H116.998C117.474 18 117.863 17.9903 118.165 17.9709C118.476 17.9515 118.787 17.9078 119.098 17.84C120.129 17.5491 120.868 17.0351 121.315 16.2982C121.772 15.5612 122 14.7127 122 13.7527C122 13.1224 121.869 12.526 121.606 11.9636C121.344 11.4012 120.892 10.9358 120.251 10.5673C119.618 10.1891 118.772 10 117.713 10H115V18ZM117.742 11.28C118.655 11.28 119.351 11.5079 119.828 11.9636C120.304 12.4097 120.542 13.0691 120.542 13.9418C120.542 14.2812 120.508 14.5818 120.439 14.8436C120.372 15.0958 120.289 15.2945 120.192 15.44C119.92 15.9733 119.536 16.3176 119.04 16.4727C118.544 16.6278 117.985 16.7055 117.363 16.7055H116.429V11.28H117.742Z" fill="black"/>
<path d="M127.105 13.5177V14.7518H129.442V16.4113C129.226 16.5153 129.004 16.591 128.777 16.6383C128.561 16.6856 128.28 16.7092 127.933 16.7092C127.295 16.7092 126.722 16.591 126.212 16.3546C125.715 16.1087 125.321 15.773 125.029 15.3475C124.747 14.922 124.607 14.4444 124.607 13.9149C124.607 13.3853 124.753 12.922 125.045 12.5248C125.337 12.1182 125.72 11.8109 126.196 11.6028C126.673 11.3853 127.181 11.2766 127.722 11.2766C128.133 11.2766 128.533 11.3286 128.923 11.4326C129.323 11.5272 129.675 11.6454 129.978 11.7872L130.205 11.8723L130.87 10.8085L130.643 10.695C129.724 10.2317 128.734 10 127.673 10C126.71 10 125.872 10.1844 125.158 10.5532C124.455 10.922 123.919 11.409 123.552 12.0142C123.184 12.6194 123 13.2719 123 13.9716C123 14.6431 123.173 15.286 123.519 15.9007C123.865 16.5153 124.39 17.0213 125.094 17.4185C125.796 17.8062 126.657 18 127.673 18C129.101 17.9716 130.21 17.6596 131 17.0639V13.5177H127.105Z" fill="black"/>
<path d="M139 18V16.7055H135.357V14.5818H138.584V13.2872H135.357V11.28H139V10H134V18H139Z" fill="black"/>
<path d="M140 18H141.626V14.8727C141.957 14.8921 142.201 14.9018 142.355 14.9018C142.665 14.9018 142.903 14.8969 143.069 14.8873L145.159 18H147L144.711 14.6546C146.06 14.257 146.735 13.4909 146.735 12.3564C146.735 10.7855 145.485 10 142.986 10H140V18ZM142.82 11.28C143.528 11.28 144.081 11.3576 144.479 11.5127C144.888 11.6582 145.092 11.9491 145.092 12.3854C145.092 12.8897 144.855 13.2242 144.379 13.389C143.915 13.5442 143.263 13.6218 142.422 13.6218C142.168 13.6218 141.902 13.6073 141.626 13.5782V11.28H142.82Z" fill="black"/>
<path d="M68.6039 37C71.2502 37 73.5045 36.1459 75 34.5625L73.0677 32.8958C71.8941 34.0625 70.445 34.625 68.7653 34.625C65.4295 34.625 63.0138 32.5 63.0138 29.5C63.0138 26.5 65.4295 24.375 68.7653 24.375C70.445 24.375 71.8941 24.9375 73.0677 26.0833L75 24.4375C73.5045 22.8541 71.2502 22 68.6276 22C63.6805 22 60 25.1458 60 29.5C60 33.8542 63.6805 37 68.6039 37Z" fill="#546EB5"/>
<path d="M84.5004 37C89.3923 37 93 33.8333 93 29.5C93 25.1667 89.3923 22 84.5004 22C79.6077 22 76 25.1875 76 29.5C76 33.8125 79.6077 37 84.5004 37ZM84.5004 34.625C81.3208 34.625 78.9535 32.4792 78.9535 29.5C78.9535 26.5208 81.3208 24.375 84.5004 24.375C87.6792 24.375 90.0465 26.5208 90.0465 29.5C90.0465 32.4792 87.6792 34.625 84.5004 34.625Z" fill="#546EB5"/>
<path d="M114 37L113.977 22H111.463L105.047 31.9428L98.5148 22H96V37H98.9144V27.1857L104.319 35.2857H105.681L111.086 27.0572L111.11 37H114Z" fill="#546EB5"/>
<path d="M124.389 22H118V37H120.884V32.6715H124.389C128.471 32.6715 131 30.6357 131 27.3357C131 24.0142 128.471 22 124.389 22ZM124.256 30.3143H120.884V24.3572H124.256C126.785 24.3572 128.094 25.45 128.094 27.3357C128.094 29.2214 126.785 30.3143 124.256 30.3143Z" fill="#546EB5"/>
<path d="M142 37C146.605 37 150 33.8333 150 29.5C150 25.1667 146.605 22 142 22C137.395 22 134 25.1875 134 29.5C134 33.8125 137.395 37 142 37ZM142 34.625C139.008 34.625 136.78 32.4792 136.78 29.5C136.78 26.5208 139.008 24.375 142 24.375C144.992 24.375 147.22 26.5208 147.22 29.5C147.22 32.4792 144.992 34.625 142 34.625Z" fill="#546EB5"/>
<path d="M157.925 37C162.046 37 164 35 164 32.6667C164 27.3125 155.091 29.3333 155.091 26.2291C155.091 25.125 156.036 24.25 158.354 24.25C159.663 24.25 161.144 24.625 162.497 25.3958L163.377 23.2917C162.068 22.4584 160.179 22 158.376 22C154.254 22 152.322 24 152.322 26.3542C152.322 31.7708 161.252 29.7083 161.252 32.8542C161.252 33.9375 160.265 34.75 157.925 34.75C156.078 34.75 154.168 34.0834 152.966 33.1459L152 35.25C153.245 36.2917 155.585 37 157.925 37Z" fill="#546EB5"/>
<path d="M170.723 34.6643V30.5286H177.806V28.2357H170.723V24.3357H178.707V22H168V37H179V34.6643H170.723Z" fill="#546EB5"/>
<path d="M196 37L192.5 32.0715C194.565 31.2786 195.739 29.6071 195.739 27.3357C195.739 24.0142 193.261 22 189.261 22H183V37H185.826V32.6286H189.261C189.456 32.6286 189.652 32.6286 189.848 32.6072L192.957 37H196ZM192.891 27.3357C192.891 29.2214 191.608 30.3357 189.13 30.3357H185.826V24.3572H189.13C191.608 24.3572 192.891 25.45 192.891 27.3357Z" fill="#546EB5"/>
<path fill-rule="evenodd" clip-rule="evenodd" d="M29.0584 0.174768C29.2313 0.0768586 29.4434 0.0800532 29.6136 0.183119L37.2879 4.84272C37.4517 4.94213 37.5518 5.11977 37.5518 5.31131V14.9046C37.5518 15.1013 37.4463 15.283 37.2752 15.3806L29.6009 19.7661C29.4334 19.8617 29.2286 19.8625 29.0602 19.7679L24.6743 17.3011C24.4103 17.1526 24.3175 16.8184 24.4659 16.5546C24.6142 16.2906 24.9482 16.1971 25.2122 16.3455L29.3269 18.66L36.4551 14.5865V6.3154L29.6254 10.7061C29.4498 10.8189 29.2259 10.8224 29.0466 10.7151L21.6544 6.27952V9.4227C21.6544 9.60601 21.5625 9.7772 21.4105 9.87887L20.4494 10.5191L21.4105 11.1593C21.5625 11.261 21.6544 11.4322 21.6544 11.6155V14.3371L23.0551 15.2708C23.3063 15.4387 23.3746 15.779 23.2071 16.031C23.0387 16.2829 22.6983 16.351 22.4462 16.183L20.8016 15.0866C20.6496 14.9849 20.5577 14.8138 20.5577 14.6305V11.9088L19.157 10.9752C19.005 10.8736 18.9131 10.7024 18.9131 10.5191C18.9131 10.3358 19.005 10.1646 19.157 10.063L20.5577 9.12937V5.31131C20.5577 5.11388 20.6642 4.93171 20.8362 4.83437L29.0584 0.174768ZM22.1942 5.32484L29.3187 9.59973L35.9691 5.32459L29.3196 1.28722L22.1942 5.32484ZM30.8496 11.8166C31.0416 12.0508 31.007 12.3962 30.7722 12.588L28.5305 14.4224C28.9082 14.5455 29.3114 14.6753 29.6855 14.7928C30.0468 14.9066 30.3772 15.0077 30.6293 15.08C30.7558 15.1164 30.8587 15.1441 30.9324 15.1623C30.9706 15.1715 30.9961 15.1771 31.0116 15.18C31.2965 15.1995 31.5213 15.4369 31.5213 15.7269C31.5213 16.0297 31.2764 16.2751 30.9734 16.2751C30.9042 16.2751 30.8387 16.2632 30.8077 16.2572C30.7658 16.2493 30.7194 16.2387 30.6721 16.2273C30.5775 16.2041 30.4591 16.1718 30.3272 16.1339C30.0623 16.0578 29.721 15.9534 29.356 15.8387C28.6261 15.609 27.7869 15.3339 27.2372 15.1506C27.047 15.0874 26.9068 14.9261 26.8713 14.7297C26.8349 14.5333 26.9087 14.3327 27.0634 14.2062L30.0778 11.7394C30.3126 11.5477 30.6575 11.5822 30.8496 11.8166ZM31.0225 15.1819C31.0225 15.1819 31.0216 15.1818 31.0189 15.1813C31.0207 15.1815 31.0225 15.1818 31.0225 15.1819Z" fill="#FFC40F"/>
<path fill-rule="evenodd" clip-rule="evenodd" d="M33.996 19.9057C34.1653 19.8125 34.3719 19.8156 34.5384 19.9138L45.228 26.218C45.3891 26.313 45.4911 26.4832 45.4974 26.6699L45.7714 34.0705C45.7832 34.3731 45.5466 34.6274 45.2444 34.6386C44.9413 34.6498 44.6874 34.4137 44.6765 34.111L44.4362 27.6376L34.2681 33.7386C34.0897 33.8457 33.8658 33.8424 33.6902 33.73L23.8443 27.4187V31.6239C23.8443 31.823 23.7369 32.0064 23.5622 32.1032L21.771 33.0982L23.6604 34.7774C23.7779 34.8815 23.8443 35.0305 23.8443 35.1872V39.2663L33.9933 45.5116L44.6756 39.2583V36.8317C44.6756 36.529 44.9213 36.2835 45.2235 36.2835C45.5266 36.2835 45.7723 36.529 45.7723 36.8317V39.5727C45.7723 39.7674 45.6685 39.9474 45.5011 40.0458L34.2627 46.624C34.0879 46.7263 33.8713 46.7239 33.6984 46.6178L23.0088 40.0395C22.8468 39.9397 22.7485 39.763 22.7485 39.5727V35.4334L20.4649 33.4041C20.3321 33.2861 20.2647 33.111 20.2847 32.9343C20.3038 32.7577 20.4076 32.6015 20.5632 32.5152L22.7485 31.3013V26.4162C22.7485 26.2162 22.8568 26.0322 23.0324 25.9358L33.996 19.9057ZM24.3685 26.4522L33.9951 32.6235L43.8774 26.6943L34.2508 21.0169L24.3685 26.4522ZM36.8993 36.239C37.075 36.4854 37.0177 36.8277 36.771 37.0037L33.6301 39.2472L36.7246 41.0154C36.9876 41.1656 37.0786 41.5005 36.9285 41.7633C36.7783 42.0262 36.4434 42.1175 36.1812 41.9673L32.3432 39.7746C32.1812 39.6818 32.0774 39.5129 32.0683 39.3263C32.0583 39.1396 32.1448 38.9611 32.2968 38.8525L36.1339 36.1115C36.3806 35.9356 36.7228 35.9927 36.8993 36.239Z" fill="#242729"/>
<path fill-rule="evenodd" clip-rule="evenodd" d="M10.4293 11.4077C10.5959 11.3176 10.797 11.32 10.9617 11.414L20.5546 16.896C20.7257 16.9935 20.8313 17.1752 20.8313 17.3719V20.9351L22.8045 22.4152C22.9428 22.5187 23.0238 22.6812 23.0238 22.8538C23.0238 23.0263 22.9428 23.1888 22.8045 23.2923L20.8313 24.7724V29.4321C20.8313 29.6206 20.7339 29.7958 20.5746 29.8961L10.9818 35.9263C10.807 36.0358 10.5868 36.0385 10.4093 35.9333L0.267587 29.9032C0.101941 29.8044 0 29.6254 0 29.4321V23.1279C0 22.8251 0.245729 22.5797 0.547895 22.5797C0.850972 22.5797 1.09671 22.8251 1.09671 23.1279V29.1202L10.6814 34.8196L19.7346 29.1292V24.4984C19.7346 24.3258 19.8165 24.1634 19.9539 24.0598L21.5621 22.8538L19.9539 21.6477C19.8165 21.5442 19.7346 21.3818 19.7346 21.2092V18.3881L10.9908 24.1342C10.8125 24.2515 10.5813 24.2545 10.4002 24.1416L1.09671 18.3581V20.3869C1.09671 20.6897 0.850972 20.9351 0.547895 20.9351C0.245729 20.9351 0 20.6897 0 20.3869V17.3719C0 17.1706 0.110136 16.9854 0.287613 16.8896L10.4293 11.4077ZM1.64007 17.405L10.6814 23.0255L19.2349 17.4045L10.6823 12.5171L1.64007 17.405ZM8.06202 25.5346C8.24678 25.2946 8.59082 25.2497 8.83109 25.4343L12.3943 28.1753C12.5399 28.2871 12.62 28.4642 12.6073 28.6472C12.5945 28.8301 12.4917 28.9947 12.3324 29.0858L8.49526 31.2785C8.23223 31.4287 7.89728 31.3373 7.74711 31.0745C7.59693 30.8117 7.68795 30.4767 7.95098 30.3266L11.0737 28.5423L8.16304 26.3034C7.92276 26.1187 7.87817 25.7746 8.06202 25.5346Z" fill="#546EB5"/>
</svg>
