<svg width="339" height="51" viewBox="0 0 339 51" fill="none" xmlns="http://www.w3.org/2000/svg">
<path d="M44.9242 15.0025C44.9239 14.1472 44.7423 13.3915 44.3751 12.7429C44.0144 12.1051 43.4742 11.5706 42.7496 11.1479C36.7687 7.67404 30.7819 4.21082 24.8029 0.733429C23.191 -0.203954 21.6281 -0.169781 20.0282 0.78106C17.6476 2.19528 5.72871 9.07374 2.17705 11.146C0.714375 11.9989 0.00263672 13.3042 0.00228516 15.0009C0 21.987 0.00228516 28.9729 0 35.9592C0.000351562 36.7957 0.174199 37.5367 0.525234 38.1755C0.886113 38.8326 1.43385 39.3819 2.17512 39.8141C5.72695 41.8863 17.6474 48.7642 20.0275 50.1788C21.6281 51.1302 23.191 51.1642 24.8034 50.2264C30.7826 46.7489 36.7697 43.2858 42.7516 39.812C43.4928 39.3799 44.0406 38.8303 44.4015 38.1738C44.752 37.5349 44.9262 36.7939 44.9265 35.9573C44.9265 35.9573 44.9265 21.9887 44.9242 15.0025Z" fill="#5C8DBC"/>
<path d="M22.5321 25.4102L0.525391 38.1738C0.886269 38.8309 1.434 39.3801 2.17527 39.8124C5.72711 41.8846 17.6475 48.7625 20.0276 50.1771C21.6283 51.1284 23.1911 51.1624 24.8036 50.2247C30.7828 46.7471 36.7699 43.2841 42.7517 39.8102C43.493 39.3782 44.0407 38.8286 44.4016 38.172L22.5321 25.4102Z" fill="#1A4674"/>
<path d="M16.0137 29.1909C17.2943 31.4428 19.7016 32.9616 22.4631 32.9616C25.2417 32.9616 27.6627 31.4235 28.9367 29.1475L22.5318 25.4102L16.0137 29.1909Z" fill="#1A4674"/>
<path d="M44.9244 15.0008C44.9241 14.1455 44.7425 13.3898 44.3753 12.7412L22.5322 25.4103L44.4016 38.1721C44.7522 37.5333 44.9264 36.7922 44.9267 35.9556C44.9267 35.9556 44.9267 21.9871 44.9244 15.0008Z" fill="#1B598E"/>
<path d="M43.7218 26.3226H42.0129V28.0444H40.3036V26.3226H38.5948V24.6014H40.3036V22.8799H42.0129V24.6014H43.7218V26.3226ZM37.486 26.3226H35.7772V28.0444H34.0683V26.3226H32.3594V24.6014H34.0683V22.8799H35.7772V24.6014H37.486V26.3226Z" fill="white"/>
<path d="M28.937 29.1478C27.6629 31.4238 25.2419 32.9619 22.4633 32.9619C19.7018 32.9619 17.2945 31.4431 16.0139 29.1911C15.3706 28.0612 15.0328 26.781 15.0341 25.4784C15.0341 21.3455 18.3604 17.9951 22.4633 17.9951C25.2071 17.9951 27.6018 19.495 28.8887 21.7239L35.3822 17.9574C32.8012 13.4695 27.9825 10.4502 22.4633 10.4502C14.2234 10.4502 7.54395 17.1786 7.54395 25.4784C7.54395 28.2013 8.26307 30.7548 9.51991 32.9573C12.0944 37.4689 16.9268 40.5069 22.4633 40.5069C28.0101 40.5069 32.8501 37.4567 35.4209 32.9318L28.937 29.1478Z" fill="white"/>
<path fill-rule="evenodd" clip-rule="evenodd" d="M114.136 31.7471C114.136 31.7471 112.667 32.602 115.183 32.8908C118.231 33.2389 119.789 33.1888 123.147 32.5535C123.147 32.5535 124.031 33.1071 125.265 33.5861C117.735 36.813 108.222 33.3994 114.136 31.7471ZM113.216 27.5361C113.216 27.5361 111.567 28.756 114.085 29.0163C117.342 29.3527 119.913 29.3801 124.364 28.5237C124.364 28.5237 124.978 29.1475 125.945 29.4883C116.841 32.1511 106.702 29.6979 113.216 27.5361Z" fill="#3174B9"/>
<path fill-rule="evenodd" clip-rule="evenodd" d="M120.973 20.3919C122.829 22.5288 120.486 24.4507 120.486 24.4507C120.486 24.4507 125.198 22.0189 123.034 18.9726C121.013 16.133 119.463 14.7222 127.852 9.85742C127.852 9.85702 114.684 13.145 120.973 20.3919Z" fill="#EE282F"/>
<path fill-rule="evenodd" clip-rule="evenodd" d="M130.932 34.8623C130.932 34.8623 132.02 35.759 129.735 36.4524C125.389 37.7686 111.644 38.1656 107.826 36.5047C106.455 35.9074 109.028 35.0793 109.837 34.9045C110.682 34.7219 111.163 34.7551 111.163 34.7551C109.637 33.6804 101.298 36.8659 106.928 37.7798C122.281 40.269 134.914 36.6591 130.932 34.8623ZM114.843 23.1727C114.843 23.1727 107.852 24.8336 112.368 25.4373C114.275 25.6923 118.074 25.6335 121.616 25.3365C124.509 25.0936 127.413 24.5742 127.413 24.5742C127.413 24.5742 126.394 25.0116 125.655 25.5152C118.555 27.3828 104.841 26.513 108.79 24.6038C112.128 22.9889 114.843 23.1727 114.843 23.1727ZM127.384 30.1822C134.601 26.4329 131.265 22.829 128.935 23.3147C128.365 23.4337 128.11 23.5365 128.11 23.5365C128.11 23.5365 128.322 23.204 128.726 23.061C133.334 21.4416 136.877 27.8385 127.24 30.3717C127.24 30.3717 127.351 30.2716 127.384 30.1822Z" fill="#3174B9"/>
<path fill-rule="evenodd" clip-rule="evenodd" d="M123.033 2C123.033 2 127.029 5.99855 119.242 12.1452C112.997 17.0777 117.818 19.8893 119.24 23.1028C115.594 19.814 112.92 16.9182 114.714 14.2238C117.348 10.2686 124.646 8.3506 123.033 2Z" fill="#EE282F"/>
<path fill-rule="evenodd" clip-rule="evenodd" d="M115.553 40.3454C122.479 40.7883 133.117 40.0994 133.37 36.8213C133.37 36.8213 132.885 38.0639 127.645 39.0495C121.732 40.1625 114.439 40.033 110.114 39.3192C110.114 39.3192 111 40.0525 115.553 40.3454Z" fill="#3174B9"/>
<path fill-rule="evenodd" clip-rule="evenodd" d="M178.466 21.4379H178.186V21.2783H178.943V21.4379H178.662V22.2352H178.466V21.4379ZM179.978 21.4776H179.975L179.696 22.2347H179.568L179.29 21.4776H179.287V22.2347H179.101V21.2779H179.374L179.631 21.9548L179.888 21.2779H180.159V22.2347H179.979V21.4776H179.978ZM153.628 30.4221C152.758 31.1874 151.837 31.6179 151.011 31.6179C149.833 31.6179 149.194 30.9005 149.194 29.7525C149.194 28.5096 149.878 27.6002 152.616 27.6002H153.628V30.4221ZM156.032 33.1719V24.6593C156.032 22.4837 154.808 21.0479 151.859 21.0479C150.139 21.0479 148.63 21.4789 147.404 22.0281L147.757 23.5359C148.723 23.1761 149.972 22.8426 151.198 22.8426C152.897 22.8426 153.628 23.5359 153.628 24.9712V26.0476H152.779C148.652 26.0476 146.79 27.6714 146.79 30.1127C146.79 32.2163 148.017 33.4122 150.327 33.4122C151.812 33.4122 152.921 32.7905 153.957 31.8807L154.146 33.1719H156.032ZM164.053 33.1719H161.056L157.448 21.2645H160.066L162.305 28.5817L162.804 30.7801C163.934 27.6002 164.736 24.372 165.137 21.2645H167.682C167.001 25.1852 165.773 29.4898 164.053 33.1719ZM175.554 30.4221C174.681 31.1874 173.76 31.6179 172.936 31.6179C171.758 31.6179 171.12 30.9005 171.12 29.7525C171.12 28.5096 171.804 27.6002 174.541 27.6002H175.554V30.4221ZM177.958 33.1719V24.6593C177.958 22.4837 176.731 21.0479 173.785 21.0479C172.063 21.0479 170.555 21.4789 169.328 22.0281L169.681 23.5359C170.647 23.1761 171.899 22.8426 173.125 22.8426C174.822 22.8426 175.554 23.5359 175.554 24.9712V26.0476H174.705C170.577 26.0476 168.716 27.6714 168.716 30.1127C168.716 32.2163 169.941 33.4122 172.252 33.4122C173.738 33.4122 174.846 32.7905 175.884 31.8807L176.073 33.1719H177.958ZM144.154 35.1952C143.47 36.2103 142.362 37.014 141.151 37.4674L139.964 36.0498C140.887 35.5697 141.677 34.7944 142.045 34.0731C142.362 33.4303 142.494 32.6037 142.494 30.6253V17.0293H145.049V30.4376C145.049 33.0839 144.84 34.1533 144.154 35.1952Z" fill="#EE282F"/>
<path d="M275.169 16.5664L265.14 22.1197C264.958 22.2178 264.806 22.3628 264.699 22.5399C264.592 22.7169 264.535 22.9193 264.533 23.126V34.2407C264.533 34.6559 264.764 35.0384 265.14 35.247L275.169 40.8085C275.546 41.0069 276.008 41.0069 276.384 40.8085L286.413 35.245C286.595 35.1471 286.747 35.0023 286.854 34.8257C286.961 34.6491 287.018 34.4471 287.02 34.2407V23.126C287.018 22.9193 286.961 22.7169 286.854 22.5399C286.747 22.3628 286.595 22.2178 286.413 22.1197L276.384 16.5664C276.197 16.466 275.988 16.414 275.777 16.4151C275.565 16.414 275.356 16.466 275.169 16.5664Z" fill="#388E3C"/>
<path d="M326.783 26.5715L325.113 27.498C325.05 27.5287 325.017 27.5942 325.017 27.6657V29.5189C325.017 29.5905 325.05 29.6559 325.113 29.6866L326.781 30.6132C326.845 30.6459 326.924 30.6459 326.99 30.6132L328.658 29.6866C328.689 29.6712 328.716 29.6474 328.734 29.6177C328.753 29.5881 328.762 29.5538 328.762 29.5189V27.6657C328.762 27.631 328.753 27.5969 328.735 27.5673C328.717 27.5377 328.691 27.5137 328.66 27.498L326.99 26.5715C326.957 26.5557 326.922 26.5473 326.885 26.5469C326.85 26.5476 326.815 26.556 326.783 26.5715Z" fill="#388E3C"/>
<path d="M313.085 4.78941L308.205 2.06494C308.13 2.02106 308.044 1.99862 307.957 2.00007C307.87 2.00151 307.785 2.02677 307.711 2.07312C307.636 2.1158 307.574 2.17739 307.53 2.2517C307.487 2.32601 307.464 2.41044 307.463 2.49652V18.9722L302.96 16.4707C302.773 16.3702 302.564 16.3182 302.353 16.3193C302.141 16.3182 301.932 16.3702 301.745 16.4707L291.716 22.0239C291.534 22.122 291.382 22.2671 291.275 22.4441C291.168 22.6211 291.111 22.8235 291.109 23.0303V34.1449C291.109 34.5602 291.34 34.9427 291.716 35.1513L301.745 40.7127C302.121 40.9111 302.584 40.9111 302.96 40.7127L312.989 35.1513C313.171 35.0532 313.323 34.9081 313.43 34.7311C313.537 34.5541 313.594 34.3517 313.596 34.1449V5.66075C313.595 5.48337 313.547 5.30941 313.458 5.15642C313.368 5.00344 313.24 4.87684 313.085 4.78941ZM307.191 31.5718L302.633 34.0959C302.548 34.1432 302.453 34.168 302.357 34.168C302.26 34.168 302.165 34.1432 302.081 34.0959L297.522 31.5718C297.438 31.5281 297.368 31.4626 297.319 31.3823C297.27 31.302 297.243 31.2099 297.242 31.1157V26.0677C297.242 25.8754 297.344 25.6995 297.522 25.6034L302.081 23.0793H302.072C302.159 23.034 302.255 23.0115 302.353 23.0139C302.449 23.0139 302.545 23.0384 302.633 23.0793L307.183 25.6034C307.268 25.648 307.338 25.7148 307.388 25.7966C307.437 25.8784 307.463 25.9721 307.463 26.0677V31.1157C307.462 31.2089 307.436 31.3001 307.388 31.3802C307.341 31.4602 307.273 31.5263 307.191 31.5718Z" fill="#37474F"/>
<path d="M275.169 16.5664L264.533 34.2387C264.533 34.6559 264.764 35.0384 265.14 35.247L275.169 40.8085C275.546 41.0069 276.008 41.0069 276.384 40.8085L287.02 23.126C287.018 22.9193 286.961 22.7169 286.854 22.5399C286.747 22.3628 286.595 22.2178 286.413 22.1197L276.384 16.5664C276.197 16.466 275.988 16.414 275.777 16.4151C275.565 16.414 275.356 16.466 275.169 16.5664Z" fill="#2E7D32"/>
<path d="M275.169 16.5664L265.14 22.1197C264.958 22.2178 264.806 22.3628 264.699 22.5399C264.592 22.7169 264.535 22.9193 264.533 23.126L275.169 40.8085C275.546 41.0069 276.008 41.0069 276.384 40.8085L286.413 35.245C286.595 35.1471 286.747 35.0023 286.854 34.8257C286.961 34.6491 287.018 34.4471 287.02 34.2407L276.384 16.5685C276.197 16.4673 275.989 16.4146 275.777 16.4151C275.565 16.414 275.356 16.466 275.169 16.5664Z" fill="#4CAF50"/>
<path d="M337.521 22.0261L327.492 16.4708C327.305 16.3704 327.096 16.3183 326.884 16.3194C326.673 16.3183 326.464 16.3704 326.277 16.4708L316.248 22.0241C316.064 22.1263 315.911 22.2758 315.804 22.457C315.697 22.6382 315.641 22.8446 315.641 23.0549V34.1205C315.641 34.5521 315.872 34.9428 316.248 35.1514L326.277 40.7128C326.662 40.9194 327.115 40.9194 327.492 40.7128L332.124 38.1479C332.547 37.9168 332.539 37.3093 332.116 37.07L322.054 31.5801C321.97 31.5332 321.9 31.465 321.851 31.3824C321.802 31.2999 321.775 31.2058 321.774 31.1097V26.0678C321.774 25.9754 321.799 25.8847 321.845 25.8048C321.891 25.7248 321.958 25.6582 322.037 25.6117L326.604 23.0877C326.69 23.0399 326.786 23.0146 326.884 23.014C326.98 23.0137 327.074 23.0391 327.156 23.0877L331.723 25.6199C331.805 25.6629 331.873 25.7273 331.921 25.8062C331.969 25.8851 331.995 25.9755 331.995 26.0678V30.1811C331.995 30.357 332.091 30.5247 332.243 30.6127C332.394 30.6945 332.578 30.6945 332.737 30.6045L337.642 27.7614C337.79 27.6728 337.912 27.5475 337.997 27.3977C338.082 27.248 338.128 27.0788 338.128 26.9064V23.0611C338.129 22.8498 338.072 22.6423 337.966 22.4599C337.859 22.2776 337.706 22.1271 337.521 22.0241V22.0261Z" fill="#37474F"/>
<path d="M261.881 22.0261L251.851 16.4708C251.664 16.3704 251.456 16.3183 251.244 16.3194C251.032 16.3183 250.823 16.3704 250.637 16.4708L240.607 22.0261C240.423 22.1284 240.27 22.2778 240.164 22.459C240.057 22.6402 240 22.8466 240 23.057V38.3259C240 38.5018 240.096 38.6695 240.247 38.7554C240.323 38.7984 240.408 38.8211 240.495 38.8211C240.581 38.8211 240.667 38.7984 240.742 38.7554L245.646 35.9041C245.796 35.8165 245.919 35.6912 246.004 35.5408C246.09 35.3904 246.134 35.2201 246.133 35.0471V26.0678C246.133 25.8755 246.235 25.6996 246.397 25.6117L250.964 23.0877C251.05 23.0406 251.146 23.0159 251.244 23.0159C251.342 23.0159 251.438 23.0406 251.524 23.0877L256.091 25.6117C256.171 25.6582 256.237 25.7248 256.283 25.8048C256.33 25.8847 256.354 25.9754 256.355 26.0678V35.0471C256.355 35.3989 256.539 35.7262 256.841 35.9021L261.746 38.7554C261.821 38.7984 261.906 38.8211 261.993 38.8211C262.08 38.8211 262.165 38.7984 262.24 38.7554C262.315 38.7111 262.378 38.648 262.421 38.5723C262.464 38.4967 262.487 38.411 262.488 38.3238V23.0631C262.488 22.8515 262.432 22.6435 262.326 22.4608C262.219 22.2781 262.065 22.1273 261.881 22.0241V22.0261Z" fill="#37474F"/>
</svg>
