<svg width="271" height="64" viewBox="0 0 271 64" fill="none" xmlns="http://www.w3.org/2000/svg">
<path fill-rule="evenodd" clip-rule="evenodd" d="M127.46 15.6543C123.82 15.6543 120.66 17.6417 118.95 20.5773L125.647 24.4482C126.774 25.0977 128.147 25.0977 129.273 24.4482L135.957 20.5773C134.273 17.6287 131.1 15.6543 127.46 15.6543Z" fill="#E1BEE7"/>
<path fill-rule="evenodd" clip-rule="evenodd" d="M125.647 24.448L118.95 20.5771C118.108 22.032 117.629 23.7076 117.629 25.5002C117.629 30.9427 122.02 35.3462 127.447 35.3462C132.874 35.3462 137.265 30.9427 137.265 25.5002C137.265 23.7076 136.786 22.019 135.944 20.5771L129.26 24.448C128.159 25.0975 126.773 25.0975 125.647 24.448Z" fill="#FAFAFA"/>
<path fill-rule="evenodd" clip-rule="evenodd" d="M148.223 37.5281L135.97 30.4229C134.273 33.3715 131.1 35.3459 127.46 35.3459V50.9722C128.043 50.9722 128.613 50.8163 129.131 50.5175L148.236 39.4505C148.236 39.4505 148.249 39.4505 148.249 39.4375C148.987 39.0219 148.961 37.9437 148.223 37.5281Z" fill="#7B1FA2"/>
<path fill-rule="evenodd" clip-rule="evenodd" d="M127.46 35.3459C123.82 35.3459 120.647 33.3715 118.95 30.4229L105.453 38.2425C105.738 38.7491 106.166 39.1648 106.671 39.4635L125.776 50.5306C126.294 50.8293 126.864 50.9852 127.447 50.9852V35.3459H127.46Z" fill="#4A148C"/>
<path fill-rule="evenodd" clip-rule="evenodd" d="M127.459 15.6537V0.0273438C126.876 0.0273438 126.307 0.183217 125.788 0.481975L106.683 11.549C106.165 11.8478 105.751 12.2764 105.466 12.77L118.962 20.5897C120.659 17.6281 123.833 15.6537 127.459 15.6537Z" fill="#7B1FA2"/>
<path fill-rule="evenodd" clip-rule="evenodd" d="M148.249 11.5493C148.249 11.5493 148.236 11.5493 148.236 11.5363L129.131 0.46928C128.613 0.170522 128.043 0.0146484 127.46 0.0146484V15.641C131.1 15.641 134.273 17.6154 135.97 20.564L148.223 13.4717C148.961 13.0561 148.987 11.9779 148.249 11.5493Z" fill="#4A148C"/>
<path fill-rule="evenodd" clip-rule="evenodd" d="M117.642 25.4995C117.642 23.707 118.121 22.0183 118.95 20.5765L105.453 12.7568C105.168 13.2634 105 13.835 105 14.4325V36.5535C105 37.151 105.155 37.7226 105.453 38.2292L118.95 30.4095C118.121 28.9807 117.642 27.292 117.642 25.4995Z" fill="#BA68C8"/>
<path fill-rule="evenodd" clip-rule="evenodd" d="M135.97 30.4229C134.273 33.3715 131.099 35.3459 127.473 35.3459C126.022 35.3459 124.636 35.0211 123.393 34.4626L140.14 44.1657L148.249 39.4765C149 39.0479 149 37.9568 148.249 37.5281L135.97 30.4229Z" fill="url(#paint0_linear)"/>
<path d="M111.501 63.0004H112.861L109.701 56.0004H108.421L105.271 63.0004H106.611L107.301 61.3804H110.801L111.501 63.0004ZM107.741 60.3604L109.051 57.3004L110.371 60.3604H107.741ZM119.532 63.0004L117.922 60.7004C118.872 60.3304 119.412 59.5504 119.412 58.4904C119.412 56.9404 118.272 56.0004 116.432 56.0004H113.552V63.0004H114.852V60.9604H116.432C116.522 60.9604 116.612 60.9604 116.702 60.9504L118.132 63.0004H119.532ZM118.102 58.4904C118.102 59.3704 117.512 59.8904 116.372 59.8904H114.852V57.1004H116.372C117.512 57.1004 118.102 57.6104 118.102 58.4904ZM123.906 63.1004C125.056 63.1004 126.036 62.6904 126.686 61.9304L125.846 61.1304C125.336 61.6904 124.706 61.9604 123.976 61.9604C122.526 61.9604 121.476 60.9404 121.476 59.5004C121.476 58.0604 122.526 57.0404 123.976 57.0404C124.706 57.0404 125.336 57.3104 125.846 57.8604L126.686 57.0704C126.036 56.3104 125.056 55.9004 123.916 55.9004C121.766 55.9004 120.166 57.4104 120.166 59.5004C120.166 61.5904 121.766 63.1004 123.906 63.1004ZM130.855 63.1004C133.025 63.1004 134.625 61.5804 134.625 59.5004C134.625 57.4204 133.025 55.9004 130.855 55.9004C128.685 55.9004 127.085 57.4304 127.085 59.5004C127.085 61.5704 128.685 63.1004 130.855 63.1004ZM130.855 61.9604C129.445 61.9604 128.395 60.9304 128.395 59.5004C128.395 58.0704 129.445 57.0404 130.855 57.0404C132.265 57.0404 133.315 58.0704 133.315 59.5004C133.315 60.9304 132.265 61.9604 130.855 61.9604ZM141.783 63.0004L140.173 60.7004C141.123 60.3304 141.663 59.5504 141.663 58.4904C141.663 56.9404 140.523 56.0004 138.683 56.0004H135.803V63.0004H137.103V60.9604H138.683C138.773 60.9604 138.863 60.9604 138.953 60.9504L140.383 63.0004H141.783ZM140.353 58.4904C140.353 59.3704 139.763 59.8904 138.623 59.8904H137.103V57.1004H138.623C139.763 57.1004 140.353 57.6104 140.353 58.4904ZM144.218 61.9104V59.9804H147.598V58.9104H144.218V57.0904H148.028V56.0004H142.918V63.0004H148.168V61.9104H144.218Z" fill="#4A148C"/>
<path d="M231.803 63L231.793 56H230.723L227.993 60.64L225.213 56H224.143V63H225.383V58.42L227.683 62.2H228.263L230.563 58.36L230.573 63H231.803ZM233.493 63H238.453V61.9H234.793V56H233.493V63ZM246.723 63H248.243L245.123 59.13L248.063 56H246.603L243.143 59.59V56H241.843V63H243.143V61.21L244.253 60.07L246.723 63ZM248.928 63H250.228V56H248.928V63ZM253.342 63H254.642V57.1H256.962V56H251.022V57.1H253.342V63Z" fill="#4285F4"/>
<path d="M4.35426 63.1004C5.50426 63.1004 6.48426 62.6904 7.13426 61.9304L6.29426 61.1304C5.78426 61.6904 5.15426 61.9604 4.42426 61.9604C2.97426 61.9604 1.92426 60.9404 1.92426 59.5004C1.92426 58.0604 2.97426 57.0404 4.42426 57.0404C5.15426 57.0404 5.78426 57.3104 6.29426 57.8604L7.13426 57.0704C6.48426 56.3104 5.50426 55.9004 4.36426 55.9004C2.21426 55.9004 0.614258 57.4104 0.614258 59.5004C0.614258 61.5904 2.21426 63.1004 4.35426 63.1004ZM11.3034 63.1004C13.4734 63.1004 15.0734 61.5804 15.0734 59.5004C15.0734 57.4204 13.4734 55.9004 11.3034 55.9004C9.1334 55.9004 7.5334 57.4304 7.5334 59.5004C7.5334 61.5704 9.1334 63.1004 11.3034 63.1004ZM11.3034 61.9604C9.8934 61.9604 8.8434 60.9304 8.8434 59.5004C8.8434 58.0704 9.8934 57.0404 11.3034 57.0404C12.7134 57.0404 13.7634 58.0704 13.7634 59.5004C13.7634 60.9304 12.7134 61.9604 11.3034 61.9604ZM22.2313 63.0004L20.6213 60.7004C21.5713 60.3304 22.1113 59.5504 22.1113 58.4904C22.1113 56.9404 20.9713 56.0004 19.1313 56.0004H16.2513V63.0004H17.5513V60.9604H19.1313C19.2213 60.9604 19.3113 60.9604 19.4013 60.9504L20.8313 63.0004H22.2313ZM20.8013 58.4904C20.8013 59.3704 20.2113 59.8904 19.0713 59.8904H17.5513V57.1004H19.0713C20.2113 57.1004 20.8013 57.6104 20.8013 58.4904ZM24.6658 61.9104V59.9804H28.0458V58.9104H24.6658V57.0904H28.4758V56.0004H23.3658V63.0004H28.6158V61.9104H24.6658ZM40.0887 63.0004L40.0787 56.0004H39.0087L36.2787 60.6404L33.4987 56.0004H32.4287V63.0004H33.6687V58.4204L35.9687 62.2004H36.5487L38.8487 58.3604L38.8587 63.0004H40.0887ZM41.7795 63.0004H46.7395V61.9004H43.0795V56.0004H41.7795V63.0004Z" fill="#14C8AC"/>
<path d="M18.9232 48.8893C14.0658 45.3023 7.62037 40.1086 5.00484 37.9602C1.59342 35.158 2.20227 32.5246 2.01554 27.6672C1.77287 21.355 17.1483 18.3438 18.4561 17.3162C19.7639 16.2887 25.1817 12.5523 30.7864 16.6624C36.3911 20.7725 48.2543 24.2397 48.2543 25.8923C48.2543 33.3653 48.2543 35.5221 45.5454 37.68C39.9392 42.1459 32.7481 47.7684 31.6271 48.6091C30.5062 49.4498 24.9949 53.3731 18.9232 48.8893Z" fill="url(#paint1_linear)"/>
<path d="M18.9242 43.8473C14.0668 40.2603 7.6214 35.0667 5.00588 32.9182C1.59445 30.116 2.01661 29.0706 2.01662 22.6252C2.01664 16.3083 17.1494 13.3018 18.4571 12.2743C19.7649 11.2467 25.1828 7.51026 30.7874 11.6204C36.3921 15.7305 48.2553 20.8791 48.2553 22.5318C48.2553 30.0981 48.2553 30.1041 45.5465 32.638C42.8376 35.1718 32.749 42.8955 31.6281 43.5671C30.4262 44.2873 24.9959 48.3311 18.9242 43.8473Z" fill="url(#paint2_linear)"/>
<path d="M18.9242 38.988C14.0668 35.401 7.62142 30.2073 5.0059 28.0588C1.59448 25.2566 2.01659 23.6507 2.01663 17.6724C2.01667 11.3555 17.1494 8.4424 18.4572 7.41488C19.7649 6.38735 25.1828 2.65089 30.7875 6.761C36.3922 10.8711 48.2553 16.0198 48.2553 17.6724C48.2553 21.7825 48.9092 25.0998 45.5465 27.7786C40.0352 32.1689 32.8424 37.7971 31.6282 38.7077C30.5072 39.5484 24.996 43.4717 18.9242 38.988Z" fill="url(#paint3_linear)"/>
<path d="M18.9224 34.113C14.065 30.526 7.61956 25.3323 5.00404 23.1838C1.59262 20.3816 0.613643 16.5516 4.63034 13.1888C9.47384 9.13377 17.1475 3.5674 18.4553 2.53988C19.7631 1.51235 25.1809 -2.22411 30.7856 1.886C36.3903 5.9961 44.3303 12.0679 45.5446 13.1888C46.759 14.3097 51.0559 18.5132 45.5446 22.9036C40.0334 27.2939 32.7473 32.992 31.6263 33.8327C30.5054 34.6734 24.9941 38.5967 18.9224 34.113Z" fill="url(#paint4_linear)"/>
<path d="M18.9224 34.113C14.065 30.526 7.61956 25.3323 5.00404 23.1838C1.59262 20.3816 0.613643 16.5516 4.63034 13.1888C9.47384 9.13377 17.1475 3.5674 18.4553 2.53988C19.7631 1.51235 25.1809 -2.22411 30.7856 1.886C36.3903 5.9961 44.3303 12.0679 45.5446 13.1888C46.759 14.3097 51.0559 18.5132 45.5446 22.9036C40.0334 27.2939 32.7473 32.992 31.6263 33.8327C30.5054 34.6734 24.9941 38.5967 18.9224 34.113Z" fill="#C4C4C4"/>
<path d="M18.9224 38.2243C14.065 34.6373 7.61956 29.4436 5.00404 27.2951C1.59262 24.4929 0.613643 20.6629 4.63034 17.3001C9.47384 13.2451 17.1475 7.67873 18.4553 6.65121C19.7631 5.62368 25.1809 1.88722 30.7856 5.99733C36.3903 10.1074 44.3303 16.1792 45.5446 17.3001C46.759 18.4211 51.0559 22.6246 45.5446 27.0149C40.0334 31.4053 32.7473 37.1034 31.6263 37.9441C30.5054 38.7848 24.9941 42.708 18.9224 38.2243Z" fill="url(#paint5_linear)"/>
<path opacity="0.5" d="M18.9224 34.113C14.065 30.526 7.61956 25.3323 5.00404 23.1838C1.59262 20.3816 0.613643 16.5516 4.63034 13.1888C9.47384 9.13377 17.1475 3.5674 18.4553 2.53988C19.7631 1.51235 25.1809 -2.22411 30.7856 1.886C36.3903 5.9961 44.3303 12.0679 45.5446 13.1888C46.759 14.3097 51.0559 18.5132 45.5446 22.9036C40.0334 27.2939 32.7473 32.992 31.6263 33.8327C30.5054 34.6734 24.9941 38.5967 18.9224 34.113Z" fill="url(#paint6_linear)"/>
<path opacity="0.1" fill-rule="evenodd" clip-rule="evenodd" d="M24.465 5.01869L24.3019 4.54553L27.7986 3.79622V6.68551L24.465 5.01869ZM24.2262 4.89929L24.132 4.6262L24.0902 4.83128L24.2262 4.89929ZM24.0515 5.02081L24.3132 5.15167L25.9228 9.81943L23.3268 9.04061L23.2992 8.8917H23.2615L24.0515 5.02081ZM23.9172 4.74477L21.0214 3.29688L20.9378 3.46396L23.8785 4.9343L23.0604 8.94312C23.039 8.95217 23.0156 8.96238 22.9903 8.97366C22.8819 9.02188 22.7343 9.09135 22.5573 9.17686C22.2032 9.348 21.7285 9.58474 21.2084 9.84753C20.2467 10.3334 19.1281 10.9091 18.3248 11.3254L18.2568 11.3231L17.5424 7.03665L23.0047 8.88677L23.0646 8.70982L17.5076 6.82759L17.4815 6.67129L17.4055 6.79301L17.2731 6.74817L17.2132 6.92511L17.3037 6.9558L14.5797 11.3143L11.3264 10.9425L7.73561 14.2498L6.3072 16.5997L5.43228 16.0071L5.3275 16.1617L6.21005 16.7596L4.83301 19.025L4.96312 19.1523L7.42256 17.581L8.15868 18.0796L6.3941 22.0731L8.42783 24.9785L11.215 23.9065L11.455 26.967L14.6715 29.6158L17.2313 30.7535L16.3654 31.3833L17.9731 33.5938L19.9615 31.967L20.0154 31.9909L19.9865 31.9465L20.1046 31.8498L19.9863 31.7052L19.8841 31.7889L18.5756 29.7758L17.4058 30.6266L14.7706 29.4555L11.6351 26.8732L11.3969 23.8365L12.1202 23.5583L15.1681 23.7376L14.1283 28.7476L18.5157 27.1261L19.6843 28.7955L19.6616 29.1179L19.9305 29.0091L23.6374 30.4213L20.898 34.3886L28.4541 34.5799L31.6955 34.3893L32.5549 32.002L37.0737 30.4637L33.477 29.3945L36.2185 26.2992L38.8516 28.2741L41.7375 22.9678L43.3139 26.3061L43.4828 26.2264L41.9693 23.0212L45.0397 23.4727L46.7055 20.141L46.948 20.2402V16.0182L43.4437 14.787L41.7699 13.4851L39.9986 12.4224L40.0007 12.4207L39.911 12.2615L39.5495 10.2735L35.6217 11.1712L35.1728 10.3526L34.1425 5.95031L32.5626 4.26515V7.47653L30.9121 7.24547L31.3721 6.34543L28.0102 3.55982L23.9829 4.42283L23.9172 4.74477ZM30.7163 7.21806L31.1376 6.39375L27.9855 3.78197V6.83574L30.7163 7.21806ZM27.9062 6.9902L29.0848 10.8206L30.8221 7.42152L32.664 7.67937L32.8386 11.7834L23.9973 11.4262L25.9837 9.99597L25.9993 10.0413L26.0636 9.93845L26.1389 9.88424L26.104 9.87378L27.9062 6.9902ZM27.7584 6.87425L24.552 5.27108L26.0483 9.61034L27.7584 6.87425ZM23.7578 11.3684L25.722 9.95422L23.365 9.24713L23.7578 11.3684ZM23.0486 9.15221L23.1638 9.18678L23.5756 11.4102L23.4084 11.4184L23.4107 11.4647L23.3739 11.4995L18.7058 11.3386C19.474 10.9413 20.4445 10.4428 21.2926 10.0143C21.8125 9.75163 22.286 9.51548 22.6386 9.34508C22.8054 9.26446 22.9446 9.19886 23.0486 9.15221ZM18.0788 11.3912L17.3784 7.18882L14.7134 11.4528L13.2126 16.3966L16.0543 14.2438L18.0788 11.3912ZM16.1483 14.407L13.4822 16.4267L19.38 14.8109L16.1483 14.407ZM19.6062 14.9426L13.7341 16.5514H18.3192L19.6062 14.9426ZM18.2388 16.7383H13.4928L17.6993 18.5494L18.2388 16.7383ZM17.6456 18.7297L13.3497 16.88L15.0701 19.0102L16.9061 20.7627L16.9983 20.6143L17.0384 20.768L17.6456 18.7297ZM16.8055 20.9249L14.9324 19.137L13.2808 17.0922L15.2891 23.368L16.8055 20.9249ZM15.0355 23.1883L13.0564 17.0039L12.2923 20.4849V20.5259L15.0355 23.1883ZM12.1149 20.4217L12.9145 16.779L10.8416 17.3887L10.8909 17.3848L11.1857 21.1444L12.1149 20.4217ZM11.0091 21.2818L10.7069 17.4283L8.39487 18.1083L9.77314 22.2431L11.0091 21.2818ZM9.83579 22.4311L11.0266 21.5049L11.1997 23.7122L8.67035 24.685L9.8719 22.5394L9.83579 22.4311ZM9.63359 22.4153L8.26343 18.3048L6.64159 21.9753L9.63359 22.4153ZM6.69089 22.1714L8.45367 24.6896L9.62246 22.6025L6.69089 22.1714ZM11.3817 23.6422L11.2032 21.3675L12.1055 20.6657V23.3703L12.0908 23.3695L11.3817 23.6422ZM12.2923 23.3813V20.7862L15.1386 23.5487L12.2923 23.3813ZM15.3532 23.765L14.3797 28.4555L18.4506 26.951L15.3532 23.765ZM18.676 27.0294L17.6417 23.0746L20.1301 22.4642L19.7051 28.4995L18.676 27.0294ZM20.1849 28.9061L23.7076 30.2481L23.967 28.6057L23.6876 27.4883L20.1849 28.9061ZM23.7975 27.3827L26.105 26.9554L20.6354 22.5968L23.7975 27.3827ZM20.2971 22.0883L26.0062 26.6378L25.0897 24.8881V24.815L19.8658 19.7909L20.2971 22.0883ZM19.8999 19.5644L25.1173 24.5823L26.4332 24.6319L26.9771 20.7034L30.3208 22.4735V24.821L31.7378 25.988L32.1685 23.7482L31.8899 23.5732L37.2465 23.2862L35.5688 20.9021L35.7216 20.7946L37.4645 23.2714L41.4575 22.8177L41.4666 22.7859L38.6448 21.3295L42.6974 18.3383L42.6811 18.3263H42.6511C42.6511 18.3205 42.6514 18.3133 42.6519 18.3046L39.8944 16.2587L38.0787 15.4334L37.8482 15.5575L37.8249 15.5131L36.2003 18.0403L35.288 16.4183L35.1825 16.2942L35.1607 16.3116L34.9224 15.9882L33.7033 14.5539L28.2068 16.2944L26.811 12.2068L33.5824 14.2199L32.8033 11.969L23.7514 11.6033L23.6238 11.6951L23.6091 11.6946L23.8753 17.1073L23.6887 17.1165L23.6877 17.0979L19.8999 19.5644ZM23.6735 16.8078L23.4228 11.7105L20.1998 14.7592L23.6735 16.8078ZM20.0676 14.6271L23.1832 11.6799L18.3673 11.5138C18.3469 11.5244 18.3266 11.5349 18.3066 11.5453L20.0676 14.6271ZM23.5603 16.9579L19.9767 14.8445L19.9516 14.8006L19.8621 19.3661L23.5603 16.9579ZM19.6795 19.1489L19.7599 15.0496L18.4738 16.6572L19.6795 19.1489ZM18.3849 16.9023L17.8721 18.6238L19.572 19.3557L18.3849 16.9023ZM19.5531 19.551L17.8184 18.8041L17.211 20.8432L19.5531 19.551ZM19.6597 19.7055L17.2776 21.0198L20.1097 22.1027L19.6597 19.7055ZM20.0686 22.2869L17.1432 21.1684L17.5944 22.8938L20.0686 22.2869ZM17.413 22.9383L16.9276 21.0824L15.4816 23.412L17.413 22.9383ZM15.4622 23.6092L18.3709 26.6009L17.4602 23.1191L15.4622 23.6092ZM20.318 22.4553L19.8753 28.7426L19.9187 28.8047L19.9284 28.8084L23.5477 27.3434L20.318 22.4553ZM19.8861 14.6859L18.1392 11.6289L16.2888 14.2363L19.8861 14.6859ZM32.9496 11.9737L36.4972 13.1562L35.5258 11.3848L32.9496 11.9737ZM35.4324 11.2145L34.9967 10.42L33.972 6.04159L32.7495 4.73757V7.49053L32.8428 7.48656L33.0248 11.7648L35.4324 11.2145ZM35.7151 11.3415L36.6937 13.126L39.1891 10.5475L35.7151 11.3415ZM39.4157 10.582L36.6547 13.435L36.8297 13.3803L39.7326 12.3247L39.4157 10.582ZM39.4442 12.6284L36.9919 13.5201L37.3899 14.2799L39.4442 12.6284ZM37.2414 14.3992L36.813 13.5813L34.0233 14.4531L35.069 15.8721L35.2071 16.0347L37.2414 14.3992ZM35.3282 16.1771L37.3298 14.5679L37.7252 15.3228L36.211 17.6782L35.442 16.311L35.3282 16.1771ZM37.8414 15.142L37.4782 14.4486L39.8435 12.5471L41.3577 13.4556L38.0717 15.225L37.8522 15.1252L37.8414 15.142ZM38.2854 15.3221L39.9898 16.0969L42.6753 18.0893C42.683 18.0275 42.6923 17.9553 42.703 17.8744C42.7346 17.6344 42.7785 17.3177 42.8271 16.9728C42.9245 16.2828 43.0413 15.4793 43.1191 14.9499L43.1427 14.7895L41.6641 13.6395L41.544 13.5675L38.2854 15.3221ZM43.2774 14.8943L46.7452 19.9554L46.7612 19.9619V16.1506L43.353 14.9531L43.2774 14.8943ZM46.4305 19.8267L43.2693 15.2131C43.194 15.7278 43.0959 16.4054 43.0121 16.9989C42.9635 17.3436 42.9197 17.6597 42.8882 17.8989C42.8724 18.0185 42.8597 18.1185 42.8509 18.1931C42.8499 18.2017 42.849 18.2098 42.8481 18.2175L42.9455 18.2898L42.917 18.3893L46.4305 19.8267ZM42.6639 18.5953L41.5189 22.6027L38.9976 21.3013L42.6639 18.5953ZM41.6882 22.6901L42.8654 18.5701L46.4423 20.0333L41.8418 22.7759L41.8446 22.7708L41.6882 22.6901ZM41.5073 23L37.4278 23.4636L37.4247 23.4638L38.8436 27.8979L41.5073 23ZM38.643 27.8841L37.3139 23.7307L36.2915 26.1162L36.2783 26.1106L38.643 27.8841ZM36.1313 26.0158L37.2203 23.4747L32.4881 23.7282L36.1313 26.0158ZM32.3383 23.8548L31.9105 26.0794H35.8813L32.3383 23.8548ZM35.9982 26.2662H31.9135L33.3339 29.2743L35.9982 26.2662ZM33.0646 29.1415L31.6737 26.1961L29.1393 26.5921L30.9325 27.446L30.8854 27.5071L33.0646 29.1415ZM30.6432 27.5152L28.8134 26.6438L26.4496 27.0816L28.2808 30.5775L30.6432 27.5152ZM28.0467 30.5331L26.2574 27.1172L23.8967 27.5543L24.1425 28.5377L28.0467 30.5331ZM24.1344 28.7433L23.8822 30.3402L28.3482 34.2702L28.1751 30.8086L24.1344 28.7433ZM28.3655 30.8761L28.5411 34.3877L31.5615 34.21L32.3286 32.0791L32.22 32.1161L32.2623 32.0018L28.3655 30.8761ZM32.5316 31.8126L36.4586 30.4758L33.3671 29.5567L32.5316 31.8126ZM33.1981 29.4751L30.7713 27.655L28.4235 30.6984L32.3274 31.8261L33.1981 29.4751ZM28.1976 34.3866L21.248 34.2106L23.7991 30.5159L28.1976 34.3866ZM26.3589 26.9084L28.7742 26.4611L29.9483 24.9515L26.595 24.825L26.3175 26.8294L26.3589 26.9084ZM26.1683 26.5446L26.4074 24.8179L25.3196 24.7769L25.3413 24.7977L25.2843 24.857L26.1683 26.5446ZM26.6208 24.639L30.0313 24.7677L27.1139 21.078L26.6208 24.639ZM27.3999 21.1386L30.1339 22.586V24.5963L27.3999 21.1386ZM30.1852 24.9513L31.5 26.0341L29.0446 26.4178L30.1852 24.9513ZM46.4415 20.2513L42.0837 22.8492L44.9331 23.2682L46.4415 20.2513ZM33.8697 14.3053L36.6508 13.4362L36.5744 13.2969L36.5498 13.3707L33.0866 12.2162L33.8028 14.2854L33.8697 14.3053ZM33.5521 14.4058L28.3246 16.0612L27.1048 12.4891L33.5521 14.4058ZM8.29156 17.944L12.2281 16.7862L8.30543 17.0169L7.59399 17.4714L8.29156 17.944ZM7.42557 17.3573L8.1727 16.88L7.76007 14.5692L6.46207 16.7047L7.42557 17.3573ZM6.36491 16.8645L5.20171 18.7782L7.25414 17.4669L6.36491 16.8645ZM7.93155 14.4668L8.35301 16.827L12.652 16.5741L7.93155 14.4668ZM13.0388 16.3261L11.9386 12.7718L14.4774 11.587L13.0388 16.3261ZM14.2884 11.4691L11.7883 12.6357L8.24123 14.0381L11.3901 11.1378L14.2884 11.4691ZM8.04944 14.3148L12.8894 16.4755L11.7659 12.8455L8.04944 14.3148ZM30.6263 7.3941L29.128 10.3256L28.1179 7.04293L30.6263 7.3941ZM17.4284 30.8412L16.6263 31.4245L18.0078 33.324L19.7703 31.882L17.4284 30.8412ZM17.6029 30.7143L18.5262 30.0427L19.5151 31.5641L17.6029 30.7143Z" fill="white"/>
<path d="M22.1005 31.2171L24.0622 29.6291L15.5617 22.9035L27.6118 26.8267L29.013 25.6124L24.0622 16.1778L32.5626 22.9035L34.5243 21.2221L22.4742 11.8809L19.9521 13.8425L25.4633 23.931L12.666 19.6341L9.95703 21.6891L22.1005 31.2171Z" fill="white" fill-opacity="0.6"/>
<path d="M41.9041 12.7218L43.5855 14.2164L36.0191 20.1947L24.0625 10.6668L26.1175 8.98535L36.3928 17.1122L41.9041 12.7218Z" fill="white" fill-opacity="0.6"/>
<path fill-rule="evenodd" clip-rule="evenodd" d="M26.1158 8.86523L36.3919 16.9927L41.9067 12.5995L43.7301 14.2204L36.0182 20.3137L23.9131 10.6675L26.1158 8.86523ZM26.1178 9.105L24.2104 10.6656L36.0187 20.0752L43.4394 14.2119L41.9001 12.8436L36.3923 17.2312L26.1178 9.105ZM22.4737 11.7626L34.6716 21.2184L32.5646 23.0244L24.349 16.5242L29.1297 25.6345L27.6327 26.9319L16.0281 23.1536L24.2113 29.6282L22.101 31.3365L9.80371 21.6878L12.6485 19.5297L25.2667 23.7665L19.8316 13.8176L22.4737 11.7626ZM22.4739 11.9991L20.0717 13.8675L25.6592 24.0954L12.6827 19.7383L10.1095 21.6903L22.0992 31.0976L23.9123 29.6299L15.5034 22.9767L15.5902 22.8146L27.5901 26.7215L28.8955 25.5902L23.979 16.2212L24.1197 16.1045L32.5598 22.7824L34.3761 21.2257L22.4739 11.9991Z" fill="white"/>
<path d="M12.9452 19.7275C12.9452 19.8823 12.8198 20.0077 12.665 20.0077C12.5102 20.0077 12.3848 19.8823 12.3848 19.7275C12.3848 19.5727 12.5102 19.4473 12.665 19.4473C12.8198 19.4473 12.9452 19.5727 12.9452 19.7275Z" fill="#FEFFFF"/>
<path d="M10.33 21.5956C10.33 21.7504 10.2045 21.8759 10.0498 21.8759C9.895 21.8759 9.76953 21.7504 9.76953 21.5956C9.76953 21.4409 9.895 21.3154 10.0498 21.3154C10.2045 21.3154 10.33 21.4409 10.33 21.5956Z" fill="#FEFFFF"/>
<path d="M22.2871 31.123C22.2871 31.2778 22.1616 31.4032 22.0068 31.4032C21.8521 31.4032 21.7266 31.2778 21.7266 31.123C21.7266 30.9682 21.8521 30.8428 22.0068 30.8428C22.1616 30.8428 22.2871 30.9682 22.2871 31.123Z" fill="#FEFFFF"/>
<path d="M24.3417 29.6288C24.3417 29.7836 24.2163 29.9091 24.0615 29.9091C23.9067 29.9091 23.7812 29.7836 23.7812 29.6288C23.7812 29.474 23.9067 29.3486 24.0615 29.3486C24.2163 29.3486 24.3417 29.474 24.3417 29.6288Z" fill="#FEFFFF"/>
<path d="M15.9345 22.9032C15.9345 23.058 15.809 23.1834 15.6543 23.1834C15.4995 23.1834 15.374 23.058 15.374 22.9032C15.374 22.7484 15.4995 22.623 15.6543 22.623C15.809 22.623 15.9345 22.7484 15.9345 22.9032Z" fill="#FEFFFF"/>
<path d="M25.8359 24.0243C25.8359 24.1791 25.7104 24.3046 25.5557 24.3046C25.4009 24.3046 25.2754 24.1791 25.2754 24.0243C25.2754 23.8696 25.4009 23.7441 25.5557 23.7441C25.7104 23.7441 25.8359 23.8696 25.8359 24.0243Z" fill="#FEFFFF"/>
<path d="M27.8916 26.8262C27.8916 26.9809 27.7661 27.1064 27.6113 27.1064C27.4566 27.1064 27.3311 26.9809 27.3311 26.8262C27.3311 26.6714 27.4566 26.5459 27.6113 26.5459C27.7661 26.5459 27.8916 26.6714 27.8916 26.8262Z" fill="#FEFFFF"/>
<path d="M29.3856 25.5185C29.3856 25.6733 29.2602 25.7987 29.1054 25.7987C28.9506 25.7987 28.8252 25.6733 28.8252 25.5185C28.8252 25.3637 28.9506 25.2383 29.1054 25.2383C29.2602 25.2383 29.3856 25.3637 29.3856 25.5185Z" fill="#FEFFFF"/>
<path d="M32.9355 22.9032C32.9355 23.058 32.81 23.1834 32.6552 23.1834C32.5005 23.1834 32.375 23.058 32.375 22.9032C32.375 22.7484 32.5005 22.623 32.6552 22.623C32.81 22.623 32.9355 22.7484 32.9355 22.9032Z" fill="#FEFFFF"/>
<path d="M24.3417 16.1778C24.3417 16.3325 24.2163 16.458 24.0615 16.458C23.9067 16.458 23.7812 16.3325 23.7812 16.1778C23.7812 16.023 23.9067 15.8975 24.0615 15.8975C24.2163 15.8975 24.3417 16.023 24.3417 16.1778Z" fill="#FEFFFF"/>
<path d="M20.2313 13.7491C20.2313 13.9038 20.1059 14.0293 19.9511 14.0293C19.7963 14.0293 19.6709 13.9038 19.6709 13.7491C19.6709 13.5943 19.7963 13.4688 19.9511 13.4688C20.1059 13.4688 20.2313 13.5943 20.2313 13.7491Z" fill="#FEFFFF"/>
<path d="M22.8475 11.8808C22.8475 12.0356 22.7221 12.1611 22.5673 12.1611C22.4125 12.1611 22.2871 12.0356 22.2871 11.8808C22.2871 11.7261 22.4125 11.6006 22.5673 11.6006C22.7221 11.6006 22.8475 11.7261 22.8475 11.8808Z" fill="#FEFFFF"/>
<path d="M24.3417 10.5723C24.3417 10.727 24.2163 10.8525 24.0615 10.8525C23.9067 10.8525 23.7812 10.727 23.7812 10.5723C23.7812 10.4175 23.9067 10.292 24.0615 10.292C24.2163 10.292 24.3417 10.4175 24.3417 10.5723Z" fill="#FEFFFF"/>
<path d="M26.3964 9.07809C26.3964 9.23286 26.2709 9.35832 26.1161 9.35832C25.9614 9.35832 25.8359 9.23286 25.8359 9.07809C25.8359 8.92332 25.9614 8.79785 26.1161 8.79785C26.2709 8.79785 26.3964 8.92332 26.3964 9.07809Z" fill="#FEFFFF"/>
<path d="M36.6717 17.1114C36.6717 17.2661 36.5463 17.3916 36.3915 17.3916C36.2367 17.3916 36.1113 17.2661 36.1113 17.1114C36.1113 16.9566 36.2367 16.8311 36.3915 16.8311C36.5463 16.8311 36.6717 16.9566 36.6717 17.1114Z" fill="#FEFFFF"/>
<path d="M36.2988 20.1005C36.2988 20.2553 36.1733 20.3808 36.0186 20.3808C35.8638 20.3808 35.7383 20.2553 35.7383 20.1005C35.7383 19.9458 35.8638 19.8203 36.0186 19.8203C36.1733 19.8203 36.2988 19.9458 36.2988 20.1005Z" fill="#FEFFFF"/>
<path d="M43.7714 14.122C43.7714 14.2768 43.646 14.4022 43.4912 14.4022C43.3364 14.4022 43.2109 14.2768 43.2109 14.122C43.2109 13.9672 43.3364 13.8418 43.4912 13.8418C43.646 13.8418 43.7714 13.9672 43.7714 14.122Z" fill="#FEFFFF"/>
<path d="M42.2772 12.6279C42.2772 12.7827 42.1518 12.9082 41.997 12.9082C41.8422 12.9082 41.7168 12.7827 41.7168 12.6279C41.7168 12.4732 41.8422 12.3477 41.997 12.3477C42.1518 12.3477 42.2772 12.4732 42.2772 12.6279Z" fill="#FEFFFF"/>
<path d="M34.8037 21.2217C34.8037 21.3765 34.6782 21.5019 34.5235 21.5019C34.3687 21.5019 34.2432 21.3765 34.2432 21.2217C34.2432 21.0669 34.3687 20.9414 34.5235 20.9414C34.6782 20.9414 34.8037 21.0669 34.8037 21.2217Z" fill="#FEFFFF"/>
<path d="M6.59435 16.6458C6.59435 16.749 6.51071 16.8326 6.40753 16.8326C6.30435 16.8326 6.2207 16.749 6.2207 16.6458C6.2207 16.5426 6.30435 16.459 6.40753 16.459C6.51071 16.459 6.59435 16.5426 6.59435 16.6458Z" fill="#FEFFFF"/>
<path d="M13.3199 16.6458C13.3199 16.749 13.2363 16.8326 13.1331 16.8326C13.0299 16.8326 12.9463 16.749 12.9463 16.6458C12.9463 16.5426 13.0299 16.459 13.1331 16.459C13.2363 16.459 13.3199 16.5426 13.3199 16.6458Z" fill="#FEFFFF"/>
<path d="M14.6276 11.4153C14.6276 11.5185 14.5439 11.6022 14.4407 11.6022C14.3375 11.6022 14.2539 11.5185 14.2539 11.4153C14.2539 11.3122 14.3375 11.2285 14.4407 11.2285C14.5439 11.2285 14.6276 11.3122 14.6276 11.4153Z" fill="#FEFFFF"/>
<path d="M18.3629 11.4153C18.3629 11.5185 18.2793 11.6022 18.1761 11.6022C18.0729 11.6022 17.9893 11.5185 17.9893 11.4153C17.9893 11.3122 18.0729 11.2285 18.1761 11.2285C18.2793 11.2285 18.3629 11.3122 18.3629 11.4153Z" fill="#FEFFFF"/>
<path d="M28.0797 6.92999C28.0797 7.03317 27.9961 7.11681 27.8929 7.11681C27.7897 7.11681 27.7061 7.03317 27.7061 6.92999C27.7061 6.82681 27.7897 6.74316 27.8929 6.74316C27.9961 6.74316 28.0797 6.82681 28.0797 6.92999Z" fill="#FEFFFF"/>
<path d="M20.0445 19.4466C20.0445 19.5498 19.9609 19.6334 19.8577 19.6334C19.7545 19.6334 19.6709 19.5498 19.6709 19.4466C19.6709 19.3434 19.7545 19.2598 19.8577 19.2598C19.9609 19.2598 20.0445 19.3434 20.0445 19.4466Z" fill="#FEFFFF"/>
<path d="M18.5504 16.6458C18.5504 16.749 18.4668 16.8326 18.3636 16.8326C18.2604 16.8326 18.1768 16.749 18.1768 16.6458C18.1768 16.5426 18.2604 16.459 18.3636 16.459C18.4668 16.459 18.5504 16.5426 18.5504 16.6458Z" fill="#FEFFFF"/>
<path d="M6.59435 22.0638C6.59435 22.167 6.51071 22.2506 6.40753 22.2506C6.30435 22.2506 6.2207 22.167 6.2207 22.0638C6.2207 21.9606 6.30435 21.877 6.40753 21.877C6.51071 21.877 6.59435 21.9606 6.59435 22.0638Z" fill="#FEFFFF"/>
<path d="M14.2526 28.7884C14.2526 28.8916 14.1689 28.9752 14.0657 28.9752C13.9625 28.9752 13.8789 28.8916 13.8789 28.7884C13.8789 28.6852 13.9625 28.6016 14.0657 28.6016C14.1689 28.6016 14.2526 28.6852 14.2526 28.7884Z" fill="#FEFFFF"/>
<path d="M28.4518 30.8421C28.4518 30.9453 28.3681 31.0289 28.2649 31.0289C28.1618 31.0289 28.0781 30.9453 28.0781 30.8421C28.0781 30.7389 28.1618 30.6553 28.2649 30.6553C28.3681 30.6553 28.4518 30.7389 28.4518 30.8421Z" fill="#FEFFFF"/>
<path d="M30.3199 24.8665C30.3199 24.9697 30.2363 25.0533 30.1331 25.0533C30.0299 25.0533 29.9463 24.9697 29.9463 24.8665C29.9463 24.7633 30.0299 24.6797 30.1331 24.6797C30.2363 24.6797 30.3199 24.7633 30.3199 24.8665Z" fill="#FEFFFF"/>
<path d="M27.3317 20.7562C27.3317 20.8593 27.248 20.943 27.1448 20.943C27.0417 20.943 26.958 20.8593 26.958 20.7562C26.958 20.653 27.0417 20.5693 27.1448 20.5693C27.248 20.5693 27.3317 20.653 27.3317 20.7562Z" fill="#FEFFFF"/>
<path d="M37.609 23.3724C37.609 23.4755 37.5253 23.5592 37.4221 23.5592C37.3189 23.5592 37.2354 23.4755 37.2354 23.3724C37.2354 23.2692 37.3189 23.1855 37.4221 23.1855C37.5253 23.1855 37.609 23.2692 37.609 23.3724Z" fill="#FEFFFF"/>
<path d="M36.2985 26.1722C36.2985 26.2754 36.2148 26.359 36.1116 26.359C36.0084 26.359 35.9248 26.2754 35.9248 26.1722C35.9248 26.069 36.0084 25.9854 36.1116 25.9854C36.2148 25.9854 36.2985 26.069 36.2985 26.1722Z" fill="#FEFFFF"/>
<path d="M33.3092 29.5364C33.3092 29.6396 33.2255 29.7233 33.1224 29.7233C33.0192 29.7233 32.9355 29.6396 32.9355 29.5364C32.9355 29.4333 33.0192 29.3496 33.1224 29.3496C33.2255 29.3496 33.3092 29.4333 33.3092 29.5364Z" fill="#FEFFFF"/>
<path d="M41.9029 22.8099C41.9029 22.913 41.8193 22.9967 41.7161 22.9967C41.6129 22.9967 41.5293 22.913 41.5293 22.8099C41.5293 22.7067 41.6129 22.623 41.7161 22.623C41.8193 22.623 41.9029 22.7067 41.9029 22.8099Z" fill="#FEFFFF"/>
<path d="M36.859 13.2825C36.859 13.3857 36.7753 13.4693 36.6721 13.4693C36.5689 13.4693 36.4854 13.3857 36.4854 13.2825C36.4854 13.1793 36.5689 13.0957 36.6721 13.0957C36.7753 13.0957 36.859 13.1793 36.859 13.2825Z" fill="#FEFFFF"/>
<path d="M39.6627 10.4788C39.6627 10.582 39.5791 10.6656 39.4759 10.6656C39.3727 10.6656 39.2891 10.582 39.2891 10.4788C39.2891 10.3756 39.3727 10.292 39.4759 10.292C39.5791 10.292 39.6627 10.3756 39.6627 10.4788Z" fill="#FEFFFF"/>
<path d="M33.1227 11.9749C33.1227 12.0781 33.039 12.1617 32.9358 12.1617C32.8327 12.1617 32.749 12.0781 32.749 11.9749C32.749 11.8717 32.8327 11.7881 32.9358 11.7881C33.039 11.7881 33.1227 11.8717 33.1227 11.9749Z" fill="#FEFFFF"/>
<path d="M31.067 7.30401C31.067 7.40719 30.9834 7.49083 30.8802 7.49083C30.777 7.49083 30.6934 7.40719 30.6934 7.30401C30.6934 7.20083 30.777 7.11719 30.8802 7.11719C30.9834 7.11719 31.067 7.20083 31.067 7.30401Z" fill="#FEFFFF"/>
<path d="M227.698 4.41866C228.482 2.76487 230.458 2.05968 232.112 2.84358C233.766 3.62747 234.471 5.60361 233.687 7.2574L215.339 45.9652C214.555 47.619 212.579 48.3242 210.925 47.5403C209.272 46.7564 208.567 44.7803 209.35 43.1265L227.698 4.41866Z" fill="#4285F4"/>
<path d="M227.328 6.06219C227.328 4.14123 228.885 2.58398 230.806 2.58398C232.727 2.58398 234.285 4.14123 234.285 6.06219V44.3225C234.285 46.2434 232.727 47.8007 230.806 47.8007C228.885 47.8007 227.328 46.2434 227.328 44.3225V6.06219Z" fill="#ABCCFC"/>
<path d="M246.092 4.41866C246.876 2.76487 248.853 2.05968 250.506 2.84358C252.16 3.62747 252.865 5.60361 252.081 7.2574L233.734 45.9652C232.95 47.619 230.974 48.3242 229.32 47.5403C227.666 46.7564 226.961 44.7803 227.745 43.1265L246.092 4.41866Z" fill="#4285F4"/>
<path d="M245.88 5.86798C245.88 4.05374 247.351 2.58301 249.165 2.58301C250.979 2.58301 252.45 4.05374 252.45 5.86798V44.5147C252.45 46.329 250.979 47.7997 249.165 47.7997C247.351 47.7997 245.88 46.329 245.88 44.5147V5.86798Z" fill="#ABCCFC"/>
<path d="M267.731 41.2412C269.536 41.2412 271 42.5669 271 44.4999C271 46.433 269.536 48.1607 267.731 48.1607H249.269C247.463 48.1607 246 46.433 246 44.4999C246 42.5669 247.463 41.2412 249.269 41.2412H267.731Z" fill="#4285F4"/>
<path d="M252.45 5.86798C252.45 7.68222 250.979 9.15295 249.165 9.15295C247.351 9.15295 245.88 7.68222 245.88 5.86798C245.88 4.05374 247.351 2.58301 249.165 2.58301C250.979 2.58301 252.45 4.05374 252.45 5.86798Z" fill="#0D47A1"/>
<path d="M233.898 5.86798C233.898 7.68222 232.427 9.15295 230.613 9.15295C228.799 9.15295 227.328 7.68222 227.328 5.86798C227.328 4.05374 228.799 2.58301 230.613 2.58301C232.427 2.58301 233.898 4.05374 233.898 5.86798Z" fill="#0D47A1"/>
<path d="M252.45 44.7087C252.45 46.6296 250.979 48.1869 249.165 48.1869C247.351 48.1869 245.88 46.6296 245.88 44.7087C245.88 42.7877 247.351 41.2305 249.165 41.2305C250.979 41.2305 252.45 42.7877 252.45 44.7087Z" fill="#0D47A1"/>
<path d="M271 44.7087C271 46.6296 269.529 48.1869 267.715 48.1869C265.9 48.1869 264.43 46.6296 264.43 44.7087C264.43 42.7877 265.9 41.2305 267.715 41.2305C269.529 41.2305 271 42.7877 271 44.7087Z" fill="#0D47A1"/>
<path d="M215.735 44.7087C215.735 46.6296 214.177 48.1869 212.257 48.1869C210.336 48.1869 208.778 46.6296 208.778 44.7087C208.778 42.7877 210.336 41.2305 212.257 41.2305C214.177 41.2305 215.735 42.7877 215.735 44.7087Z" fill="#0D47A1"/>
<path d="M234.285 44.7087C234.285 46.6296 232.727 48.1869 230.806 48.1869C228.885 48.1869 227.328 46.6296 227.328 44.7087C227.328 42.7877 228.885 41.2305 230.806 41.2305C232.727 41.2305 234.285 42.7877 234.285 44.7087Z" fill="#0D47A1"/>
<defs>
<linearGradient id="paint0_linear" x1="143.794" y1="43.9753" x2="138.595" y2="26.1387" gradientUnits="userSpaceOnUse">
<stop stop-color="#1A237E" stop-opacity="0.01"/>
<stop offset="1" stop-color="#1A237E" stop-opacity="0.3"/>
</linearGradient>
<linearGradient id="paint1_linear" x1="2.29585" y1="34.206" x2="48.2544" y2="34.8598" gradientUnits="userSpaceOnUse">
<stop stop-color="#00F3D4"/>
<stop offset="1" stop-color="#00C1B9"/>
</linearGradient>
<linearGradient id="paint2_linear" x1="2.20343" y1="28.3233" x2="48.2553" y2="27.1089" gradientUnits="userSpaceOnUse">
<stop stop-color="#00CBC9"/>
<stop offset="1" stop-color="#00A3AA"/>
</linearGradient>
<linearGradient id="paint3_linear" x1="1.92319" y1="22.9968" x2="47.4146" y2="24.2112" gradientUnits="userSpaceOnUse">
<stop stop-color="#00B3B6"/>
<stop offset="1" stop-color="#0085A7"/>
</linearGradient>
<linearGradient id="paint4_linear" x1="48.2535" y1="17.4858" x2="17.3343" y2="3.75434" gradientUnits="userSpaceOnUse">
<stop stop-color="#00759A"/>
<stop offset="1" stop-color="#00C6A7"/>
</linearGradient>
<linearGradient id="paint5_linear" x1="47.4128" y1="22.251" x2="14.999" y2="13.7506" gradientUnits="userSpaceOnUse">
<stop stop-color="#005E94"/>
<stop offset="1" stop-color="#00E1BD"/>
</linearGradient>
<linearGradient id="paint6_linear" x1="25.1479" y1="1.19848e-07" x2="25.1479" y2="36.2239" gradientUnits="userSpaceOnUse">
<stop stop-color="#00CDAF"/>
<stop offset="1" stop-color="#C4C4C4" stop-opacity="0"/>
</linearGradient>
</defs>
</svg>
