<svg width="144" height="31" viewBox="0 0 144 31" fill="none" xmlns="http://www.w3.org/2000/svg">
<path d="M23.6407 23.443C23.6325 23.5561 23.5915 23.6573 23.5178 23.7463C23.4475 23.8258 23.3329 23.8932 23.1737 23.9486C23.0157 24.0051 22.805 24.0448 22.5417 24.0677C22.276 24.1014 21.9407 24.1183 21.5358 24.1183C21.1191 24.1183 20.7809 24.1014 20.521 24.0677C20.26 24.0436 20.0494 24.0039 19.889 23.9486C19.7392 23.892 19.6339 23.8246 19.573 23.7463C19.5262 23.6561 19.5063 23.5549 19.5134 23.443L20.1594 14.5055C20.1945 13.9999 20.1787 13.5383 20.112 13.1206C20.0535 12.7042 19.9364 12.3491 19.7609 12.0554C19.597 11.7508 19.3729 11.5197 19.0885 11.362C18.8158 11.1935 18.4764 11.1092 18.0703 11.1092C17.5787 11.1092 17.0661 11.3066 16.5324 11.7015C15.9999 12.0963 15.4106 12.671 14.7646 13.4258L14.0395 23.4466C14.0313 23.5598 13.9904 23.6609 13.9166 23.7499C13.8464 23.8294 13.7265 23.8968 13.5568 23.9522C13.3988 24.0087 13.1881 24.0485 12.9248 24.0713C12.6591 24.105 12.329 24.1219 11.9346 24.1219C11.5297 24.1219 11.1961 24.105 10.9339 24.0713C10.673 24.0473 10.4623 24.0075 10.3019 23.9522C10.1521 23.8956 10.0468 23.8282 9.98595 23.7499C9.92743 23.6597 9.90168 23.5586 9.90871 23.4466L10.5547 14.5091C10.5899 14.0035 10.5741 13.5419 10.5073 13.1242C10.4488 12.7078 10.3376 12.3527 10.1738 12.059C10.0099 11.7544 9.78582 11.5233 9.50142 11.3656C9.21819 11.1971 8.87878 11.1129 8.48319 11.1129C7.97993 11.1129 7.46205 11.3103 6.92953 11.7051C6.39701 12.0999 5.81299 12.6747 5.17748 13.4294L4.45244 23.4502C4.44425 23.5634 4.40328 23.6645 4.32955 23.7536C4.25933 23.833 4.13936 23.9004 3.96966 23.9558C3.81166 24.0123 3.60099 24.0521 3.33766 24.0749C3.07199 24.1086 2.73668 24.1255 2.33173 24.1255C1.92678 24.1255 1.59322 24.1086 1.33106 24.0749C1.07007 24.0509 0.859402 24.0111 0.699061 23.9558C0.549253 23.8992 0.44392 23.8318 0.383061 23.7536C0.324542 23.6633 0.298794 23.5622 0.305816 23.4502L1.39426 8.37744C1.40245 8.26429 1.43756 8.16799 1.49959 8.08855C1.56045 7.99827 1.66462 7.92484 1.81208 7.86827C1.95838 7.81169 2.14213 7.77197 2.36333 7.7491C2.5974 7.7154 2.88414 7.69855 3.22355 7.69855C3.57466 7.69855 3.86374 7.7154 4.09079 7.7491C4.31902 7.77318 4.49165 7.8129 4.60868 7.86827C4.73742 7.92484 4.8252 7.99827 4.87202 8.08855C4.92117 8.16799 4.94165 8.26429 4.93346 8.37744L4.80706 10.118C5.6825 9.21521 6.53687 8.53933 7.37017 8.09035C8.21284 7.64017 9.07306 7.41507 9.95084 7.41507C10.5536 7.41507 11.0908 7.48248 11.5624 7.6173C12.0353 7.74128 12.449 7.92785 12.8036 8.17702C13.1699 8.41415 13.4778 8.70123 13.727 9.03827C13.9763 9.37531 14.1788 9.75267 14.3345 10.1704C14.8073 9.68646 15.2649 9.26938 15.7073 8.9191C16.1602 8.57003 16.5968 8.28836 17.017 8.0741C17.45 7.84901 17.8725 7.68651 18.2845 7.5866C18.7093 7.47345 19.1353 7.41688 19.5625 7.41688C20.5374 7.41688 21.3467 7.5854 21.9904 7.92244C22.6341 8.25947 23.1374 8.72109 23.5002 9.3073C23.8747 9.88146 24.1217 10.5573 24.2411 11.3349C24.3604 12.1125 24.3885 12.9347 24.3253 13.8013L23.6266 23.4502L23.6407 23.443ZM40.2131 23.4917C40.2014 23.6482 40.137 23.7722 40.02 23.8637C39.903 23.954 39.7233 24.016 39.481 24.0497C39.247 24.0942 38.9005 24.1165 38.4417 24.1165C37.9502 24.1165 37.5903 24.0942 37.3621 24.0497C37.1456 24.016 36.9911 23.954 36.8986 23.8637C36.8167 23.7734 36.7816 23.6494 36.7933 23.4917L36.8811 22.2929C36.2303 22.9573 35.5029 23.4749 34.6989 23.8456C33.9054 24.2188 33.0376 24.4054 32.0954 24.4054C31.3183 24.4054 30.6085 24.2982 29.9659 24.084C29.3339 23.8817 28.792 23.5778 28.3403 23.1722C27.8991 22.7557 27.569 22.2429 27.3501 21.6338C27.1313 21.026 27.0511 20.3158 27.1096 19.5033C27.1728 18.6246 27.3923 17.8644 27.768 17.2229C28.1542 16.5692 28.6914 16.0336 29.3796 15.6159C30.0783 15.1874 30.928 14.872 31.9286 14.6698C32.9293 14.4676 34.0809 14.3665 35.3836 14.3665H36.8126L36.8793 13.4547C36.9144 12.9816 36.8951 12.5705 36.8214 12.2215C36.7593 11.8604 36.6277 11.5618 36.4264 11.3259C36.2356 11.0888 35.9635 10.9142 35.61 10.8023C35.2671 10.6891 34.8329 10.6326 34.3074 10.6326C33.6169 10.6326 32.9925 10.7108 32.4342 10.8673C31.8865 11.0238 31.3973 11.1983 30.9666 11.3909C30.5371 11.5835 30.1743 11.758 29.8781 11.9145C29.5926 12.071 29.3626 12.1492 29.1882 12.1492C29.0677 12.1492 28.9612 12.1095 28.8687 12.0301C28.7868 11.9506 28.7183 11.8381 28.6633 11.6924C28.6188 11.5456 28.5878 11.365 28.5703 11.1508C28.5527 10.9365 28.5533 10.7 28.572 10.4412C28.5978 10.0921 28.6446 9.81526 28.7125 9.61063C28.7827 9.40841 28.8997 9.22785 29.0636 9.06896C29.2274 8.90044 29.5083 8.71989 29.9062 8.5273C30.3042 8.32507 30.7665 8.1385 31.2931 7.96757C31.8198 7.79906 32.3874 7.66364 32.996 7.56132C33.6163 7.44818 34.2501 7.3916 34.8973 7.3916C36.0478 7.3916 37.0192 7.51017 37.8115 7.7473C38.6167 7.97239 39.2645 8.32748 39.7549 8.81257C40.2465 9.28563 40.5859 9.89952 40.7731 10.6542C40.9604 11.409 41.016 12.3045 40.9399 13.3409L40.2061 23.4791L40.2131 23.4917ZM36.6212 17.0369H35.0447C34.3776 17.0369 33.8042 17.0874 33.3243 17.1885C32.8445 17.2897 32.45 17.4419 32.1411 17.6454C31.8309 17.8476 31.5939 18.0955 31.4301 18.3892C31.2779 18.6709 31.1884 18.9977 31.1615 19.3697C31.1146 20.0004 31.2703 20.4963 31.6284 20.8574C31.9971 21.2186 32.5261 21.3991 33.2155 21.3991C33.796 21.3991 34.3384 21.2468 34.8429 20.9423C35.3578 20.6378 35.8886 20.1924 36.4351 19.6062L36.6212 17.0369V17.0369Z" fill="#11557C"/>
<path d="M52.8105 21.9576C52.7754 22.4536 52.7151 22.8363 52.6297 23.106C52.5559 23.3648 52.4658 23.5513 52.3593 23.6657C52.254 23.7668 52.0989 23.8631 51.8941 23.9546C51.7021 24.034 51.4727 24.1014 51.2059 24.1568C50.9484 24.2242 50.6652 24.2748 50.3562 24.3085C50.0578 24.3422 49.7552 24.359 49.4486 24.359C48.627 24.359 47.923 24.2519 47.3367 24.0376C46.7515 23.8234 46.2775 23.4966 45.9147 23.0572C45.5518 22.607 45.3026 22.0437 45.1668 21.3672C45.0299 20.6907 44.9947 19.8903 45.0615 18.9658L45.6197 11.2435H43.8642C43.6558 11.2435 43.5066 11.1141 43.4165 10.8553C43.3264 10.5844 43.303 10.1391 43.3463 9.51917C43.3697 9.19417 43.4007 8.91732 43.4393 8.68862C43.4885 8.46352 43.5447 8.28899 43.6079 8.165C43.6722 8.03019 43.7448 7.93389 43.8255 7.87611C43.9168 7.81954 44.0175 7.79125 44.1275 7.79125H45.869L46.1148 4.42931C46.123 4.31616 46.1581 4.21505 46.2201 4.12598C46.2927 4.0357 46.4074 3.96227 46.5642 3.9057C46.7339 3.83829 46.9504 3.79315 47.2138 3.77028C47.49 3.73658 47.8253 3.71973 48.2197 3.71973C48.6247 3.71973 48.9582 3.73658 49.2204 3.77028C49.4931 3.79436 49.7037 3.83949 49.8524 3.9057C50.0022 3.96227 50.1063 4.0357 50.1649 4.12598C50.2234 4.21625 50.2491 4.31737 50.2421 4.42931L49.9963 7.79125H53.1844C53.2944 7.79125 53.3857 7.81954 53.4583 7.87611C53.5402 7.93269 53.6046 8.02899 53.6514 8.165C53.6982 8.28899 53.724 8.46352 53.7286 8.68862C53.745 8.91371 53.7415 9.19056 53.7181 9.51917C53.6736 10.1391 53.5859 10.5844 53.4548 10.8553C53.326 11.1141 53.1581 11.2435 52.9509 11.2435H49.747L49.2344 18.3213C49.1759 19.1434 49.2578 19.7633 49.4802 20.181C49.7026 20.5866 50.1368 20.7894 50.7828 20.7894C51.0017 20.7894 51.2006 20.7726 51.3797 20.7389C51.5588 20.6944 51.7156 20.6492 51.8502 20.6035C51.9965 20.5469 52.1147 20.5018 52.2048 20.4681C52.3066 20.4235 52.3962 20.4013 52.4734 20.4013C52.539 20.4013 52.5975 20.4235 52.649 20.4681C52.7122 20.5018 52.7555 20.58 52.7789 20.7028C52.8023 20.8159 52.8181 20.9736 52.8263 21.1758C52.845 21.3781 52.8427 21.6369 52.8193 21.9522L52.8105 21.9576Z" fill="#11557C"/>
<path d="M71.0418 15.6857C70.9447 17.0266 70.7147 18.2376 70.3519 19.3185C70.0008 20.3898 69.5297 21.3022 68.9387 22.0557C68.3476 22.8104 67.6378 23.3906 66.8092 23.7963C65.9805 24.2019 65.0513 24.4047 64.0213 24.4047C63.5942 24.4047 63.2033 24.3596 62.8486 24.2693C62.5034 24.1899 62.1675 24.0659 61.8409 23.8974C61.5249 23.7168 61.2125 23.4971 60.9035 23.2383C60.5933 22.9795 60.2756 22.6756 59.9502 22.3265L59.4376 29.4224C59.4294 29.5355 59.3884 29.6366 59.3147 29.7257C59.2421 29.816 59.1216 29.8894 58.9531 29.946C58.7951 30.0134 58.5832 30.0639 58.3175 30.0976C58.0519 30.1314 57.7166 30.1482 57.3116 30.1482C56.9067 30.1482 56.5731 30.1314 56.3109 30.0976C56.05 30.0639 55.8393 30.0134 55.6789 29.946C55.5291 29.8894 55.425 29.816 55.3665 29.7257C55.3079 29.6354 55.2822 29.5343 55.2892 29.4224L56.813 8.36959C56.8212 8.25644 56.8563 8.16014 56.9184 8.0807C56.9792 7.99042 57.0775 7.917 57.2133 7.86042C57.3596 7.80385 57.5433 7.76412 57.7645 7.74125C57.9986 7.70755 58.2854 7.6907 58.6248 7.6907C58.9525 7.6907 59.2252 7.70755 59.4429 7.74125C59.6711 7.76533 59.849 7.80505 59.9765 7.86042C60.1147 7.917 60.2083 7.99042 60.2574 8.0807C60.3066 8.16014 60.3271 8.25644 60.3189 8.36959L60.1907 10.1444C60.6507 9.69426 61.0954 9.30005 61.5249 8.96181C61.9662 8.61274 62.4086 8.32565 62.8521 8.10056C63.2969 7.86343 63.7475 7.68889 64.2039 7.57695C64.6721 7.4638 65.1636 7.40723 65.6786 7.40723C66.7518 7.40723 67.6507 7.6269 68.3751 8.06625C69.1008 8.49477 69.6713 9.08639 70.0868 9.84112C70.514 10.5958 70.8007 11.4745 70.947 12.4772C71.0933 13.4799 71.1255 14.55 71.0436 15.6875L71.0418 15.6857ZM66.7144 15.989C66.7612 15.3475 66.7565 14.7336 66.7003 14.1474C66.6558 13.5503 66.5353 13.0207 66.3387 12.5585C66.1514 12.0963 65.8822 11.7303 65.5311 11.4607C65.1917 11.179 64.747 11.0382 64.1969 11.0382C63.923 11.0382 63.6457 11.0833 63.3648 11.1736C63.0956 11.2531 62.8118 11.3885 62.5133 11.5799C62.2254 11.7725 61.9229 12.0204 61.6057 12.3238C61.2897 12.6283 60.9503 13.0057 60.5875 13.4558L60.2276 18.4211C60.7543 19.1758 61.2651 19.7614 61.7602 20.1779C62.2564 20.5836 62.7889 20.7864 63.3577 20.7864C63.8961 20.7864 64.3608 20.6456 64.7517 20.3639C65.1554 20.0822 65.4948 19.7163 65.7699 19.2661C66.0437 18.8039 66.2567 18.2863 66.4089 17.7133C66.5704 17.1392 66.6722 16.5644 66.7144 15.989V15.989Z" fill="#11557C"/>
<path d="M77.9417 23.4429C77.9335 23.556 77.8926 23.6572 77.8188 23.7462C77.7486 23.8257 77.6286 23.8931 77.4589 23.9485C77.3009 24.005 77.0903 24.0448 76.8269 24.0676C76.5613 24.1013 76.2259 24.1182 75.821 24.1182C75.416 24.1182 75.0825 24.1013 74.8203 24.0676C74.5593 24.0436 74.3487 24.0038 74.1883 23.9485C74.0385 23.8919 73.9332 23.8245 73.8723 23.7462C73.8138 23.656 73.7881 23.5548 73.7951 23.4429L75.4032 1.22193C75.4114 1.10878 75.4523 1.00767 75.5261 0.918593C75.5986 0.828316 75.7133 0.75489 75.8701 0.698316C76.0399 0.630908 76.2564 0.580353 76.5197 0.546649C76.7854 0.512945 77.1207 0.496094 77.5256 0.496094C77.9306 0.496094 78.2642 0.512945 78.5263 0.546649C78.7873 0.580353 78.9921 0.630908 79.1408 0.698316C79.3011 0.75489 79.4105 0.828316 79.4691 0.918593C79.5276 1.00887 79.5533 1.10998 79.5463 1.22193L77.9382 23.4429H77.9417Z" fill="#11557C"/>
<path d="M97.4545 15.7543C97.3609 17.0387 97.1116 18.2105 96.7066 19.2697C96.3017 20.329 95.7376 21.2414 95.0143 22.0069C94.291 22.7725 93.4103 23.3641 92.3722 23.7818C91.3341 24.1983 90.1415 24.4065 88.7944 24.4065C87.4906 24.4065 86.3705 24.22 85.4343 23.8468C84.498 23.4737 83.7372 22.9332 83.152 22.2254C82.5669 21.5152 82.159 20.6425 81.9284 19.6074C81.6967 18.5722 81.6288 17.3895 81.7248 16.0594C81.8184 14.7751 82.0677 13.6033 82.4726 12.544C82.8893 11.4727 83.4593 10.5603 84.1825 9.80681C84.9058 9.04125 85.7813 8.44963 86.8088 8.03195C87.847 7.61547 89.0396 7.40723 90.3867 7.40723C91.701 7.40723 92.8269 7.5938 93.7643 7.96695C94.7006 8.32806 95.4555 8.86371 96.029 9.57389C96.6142 10.2841 97.0221 11.1568 97.2526 12.1919C97.4844 13.2271 97.5516 14.4158 97.4545 15.7579V15.7543ZM93.1885 15.924C93.2424 15.1801 93.2306 14.4988 93.1534 13.8801C93.089 13.2494 92.9369 12.7029 92.697 12.2407C92.457 11.7785 92.1165 11.4174 91.6752 11.1574C91.2445 10.8986 90.6845 10.7692 89.9952 10.7692C89.3819 10.7692 88.8365 10.8877 88.359 11.1249C87.8827 11.35 87.4801 11.6882 87.1512 12.1396C86.8235 12.5789 86.5601 13.1146 86.3612 13.7465C86.1739 14.3664 86.051 15.0766 85.9925 15.8771C85.9387 16.621 85.9492 17.3083 86.0241 17.939C86.1002 18.5589 86.2523 19.0994 86.4806 19.5604C86.7205 20.0226 87.0611 20.3838 87.5023 20.6438C87.9447 20.8917 88.5053 21.0157 89.1841 21.0157C89.8079 21.0157 90.358 20.9032 90.8343 20.6781C91.3118 20.4409 91.7144 20.1027 92.0421 19.6633C92.3698 19.224 92.6273 18.6944 92.8146 18.0744C93.0018 17.4437 93.1247 16.7275 93.1832 15.9258L93.1885 15.924Z" fill="#11557C"/>
<path d="M108.935 21.9576C108.9 22.4536 108.84 22.8363 108.755 23.106C108.681 23.3648 108.591 23.5513 108.484 23.6657C108.379 23.7668 108.224 23.8631 108.019 23.9546C107.827 24.034 107.598 24.1014 107.331 24.1568C107.073 24.2242 106.79 24.2748 106.481 24.3085C106.183 24.3422 105.88 24.359 105.574 24.359C104.752 24.359 104.048 24.2519 103.462 24.0376C102.876 23.8234 102.402 23.4966 102.04 23.0572C101.677 22.607 101.428 22.0437 101.292 21.3672C101.155 20.6907 101.12 19.8903 101.186 18.9658L101.745 11.2435H99.9892C99.7808 11.2435 99.6316 11.1141 99.5415 10.8553C99.4514 10.5844 99.428 10.1391 99.4713 9.51917C99.4947 9.19417 99.5257 8.91732 99.5643 8.68862C99.6135 8.46352 99.6697 8.28899 99.7329 8.165C99.7972 8.03019 99.8698 7.93389 99.9505 7.87611C100.042 7.81954 100.142 7.79125 100.253 7.79125H101.994L102.24 4.42931C102.248 4.31616 102.283 4.21505 102.345 4.12598C102.418 4.0357 102.532 3.96227 102.689 3.9057C102.859 3.83829 103.075 3.79315 103.339 3.77028C103.615 3.73658 103.95 3.71973 104.345 3.71973C104.75 3.71973 105.083 3.73658 105.345 3.77028C105.618 3.79436 105.829 3.83949 105.977 3.9057C106.127 3.96227 106.231 4.0357 106.29 4.12598C106.348 4.21625 106.374 4.31737 106.367 4.42931L106.121 7.79125H109.309C109.419 7.79125 109.511 7.81954 109.583 7.87611C109.665 7.93269 109.73 8.02899 109.776 8.165C109.823 8.28899 109.849 8.46352 109.854 8.68862C109.87 8.91371 109.866 9.19056 109.843 9.51917C109.799 10.1391 109.711 10.5844 109.58 10.8553C109.451 11.1141 109.283 11.2435 109.076 11.2435H105.872L105.359 18.3213C105.301 19.1434 105.383 19.7633 105.605 20.181C105.828 20.5866 106.262 20.7894 106.908 20.7894C107.127 20.7894 107.326 20.7726 107.505 20.7389C107.684 20.6944 107.841 20.6492 107.975 20.6035C108.121 20.5469 108.24 20.5018 108.33 20.4681C108.432 20.4235 108.521 20.4013 108.598 20.4013C108.664 20.4013 108.722 20.4235 108.774 20.4681C108.837 20.5018 108.88 20.58 108.904 20.7028C108.927 20.8159 108.943 20.9736 108.951 21.1758C108.97 21.3781 108.968 21.6369 108.944 21.9522L108.935 21.9576Z" fill="#11557C"/>
<path d="M115.993 23.4429C115.985 23.556 115.944 23.6572 115.871 23.7462C115.8 23.8257 115.68 23.8931 115.511 23.9485C115.353 24.005 115.142 24.0448 114.879 24.0676C114.613 24.1013 114.278 24.1182 113.873 24.1182C113.468 24.1182 113.134 24.1013 112.872 24.0676C112.611 24.0436 112.4 24.0038 112.24 23.9485C112.09 23.8919 111.985 23.8245 111.924 23.7462C111.866 23.656 111.84 23.5548 111.847 23.4429L113.455 1.22193C113.463 1.10878 113.504 1.00767 113.578 0.918593C113.65 0.828316 113.765 0.75489 113.922 0.698316C114.092 0.630908 114.308 0.580353 114.571 0.546649C114.837 0.512945 115.172 0.496094 115.577 0.496094C115.982 0.496094 116.316 0.512945 116.578 0.546649C116.839 0.580353 117.044 0.630908 117.193 0.698316C117.353 0.75489 117.462 0.828316 117.521 0.918593C117.579 1.00887 117.605 1.10998 117.598 1.22193L115.99 23.4429H115.993Z" fill="#11557C"/>
<path d="M124.272 23.4429C124.264 23.556 124.223 23.6572 124.149 23.7462C124.079 23.8257 123.959 23.8931 123.789 23.9485C123.631 24.005 123.42 24.0447 123.157 24.0676C122.891 24.1013 122.556 24.1182 122.151 24.1182C121.746 24.1182 121.413 24.1013 121.15 24.0676C120.889 24.0435 120.679 24.0038 120.518 23.9485C120.369 23.8919 120.263 23.8245 120.202 23.7462C120.144 23.656 120.118 23.5548 120.125 23.4429L121.214 8.40262C121.222 8.28947 121.262 8.19318 121.333 8.11373C121.406 8.02345 121.52 7.95003 121.677 7.89345C121.847 7.82605 122.063 7.77549 122.327 7.74179C122.592 7.70808 122.928 7.69123 123.333 7.69123C123.738 7.69123 124.071 7.70808 124.333 7.74179C124.594 7.77549 124.799 7.82605 124.948 7.89345C125.108 7.95003 125.217 8.02345 125.276 8.11373C125.334 8.19318 125.36 8.28947 125.353 8.40262L124.265 23.4429H124.272ZM126.045 3.26762C125.983 4.12225 125.77 4.71387 125.408 5.04248C125.045 5.36748 124.403 5.52998 123.484 5.52998C122.553 5.52998 121.935 5.3723 121.628 5.05693C121.333 4.74156 121.216 4.17281 121.277 3.35068C121.339 2.49605 121.546 1.90443 121.898 1.57582C122.261 1.23878 122.908 1.07026 123.84 1.07026C124.76 1.07026 125.373 1.23276 125.678 1.55776C125.982 1.87313 126.105 2.44188 126.047 3.26401L126.045 3.26762ZM143.723 15.7043C143.626 17.0452 143.397 18.2507 143.035 19.3208C142.672 20.3921 142.195 21.3045 141.604 22.058C141.013 22.8128 140.309 23.3929 139.491 23.7986C138.683 24.2042 137.782 24.4071 136.787 24.4071C136.296 24.4071 135.839 24.3565 135.418 24.2554C134.996 24.1651 134.597 24.0129 134.219 23.7986C133.851 23.5843 133.487 23.3135 133.127 22.9861C132.778 22.6611 132.423 22.2669 132.063 21.8035L131.944 23.4429C131.934 23.5669 131.893 23.674 131.821 23.7643C131.76 23.8437 131.656 23.9111 131.51 23.9665C131.374 24.0231 131.19 24.0628 130.959 24.0857C130.727 24.1097 130.446 24.1218 130.116 24.1218C129.777 24.1218 129.493 24.1097 129.265 24.0857C129.047 24.0616 128.869 24.0219 128.731 23.9665C128.602 23.9099 128.514 23.8425 128.468 23.7643C128.421 23.674 128.401 23.5669 128.408 23.4429L130.016 1.22193C130.024 1.10878 130.065 1.00767 130.139 0.918593C130.211 0.828316 130.326 0.75489 130.483 0.698316C130.653 0.630908 130.869 0.580353 131.132 0.546649C131.398 0.512945 131.733 0.496094 132.138 0.496094C132.543 0.496094 132.877 0.512945 133.139 0.546649C133.4 0.580353 133.605 0.630908 133.754 0.698316C133.914 0.75489 134.023 0.828316 134.082 0.918593C134.14 1.00887 134.166 1.10998 134.159 1.22193L133.557 9.55276C133.957 9.16998 134.353 8.84318 134.745 8.57234C135.137 8.30151 135.526 8.08183 135.911 7.91331C136.297 7.73276 136.689 7.60336 137.087 7.52512C137.488 7.44568 137.907 7.40595 138.344 7.40595C139.429 7.40595 140.333 7.63105 141.055 8.08123C141.781 8.52058 142.35 9.11762 142.765 9.87234C143.192 10.6271 143.479 11.5118 143.625 12.5265C143.771 13.5292 143.804 14.5885 143.723 15.7043V15.7043ZM139.413 16.0076C139.46 15.366 139.456 14.7461 139.399 14.1479C139.355 13.5509 139.234 13.0212 139.038 12.559C138.841 12.0968 138.566 11.7309 138.213 11.4612C137.873 11.1796 137.423 11.0387 136.861 11.0387C136.587 11.0387 136.316 11.0785 136.048 11.1579C135.779 11.2373 135.495 11.3728 135.197 11.5641C134.909 11.7567 134.606 12.0047 134.289 12.308C133.973 12.6126 133.634 12.9899 133.271 13.4401L132.909 18.4415C133.436 19.2071 133.947 19.7927 134.442 20.1983C134.95 20.5931 135.494 20.7905 136.074 20.7905C136.613 20.7905 137.077 20.6497 137.468 20.368C137.862 20.0864 138.195 19.7204 138.469 19.2703C138.753 18.8201 138.971 18.3073 139.122 17.7319C139.274 17.1578 139.371 16.583 139.412 16.0076H139.413Z" fill="#11557C"/>
<path d="M89.8611 28.407C96.7186 28.407 102.278 22.6895 102.278 15.6366C102.278 8.58371 96.7186 2.86621 89.8611 2.86621C83.0035 2.86621 77.4443 8.58371 77.4443 15.6366C77.4443 22.6895 83.0035 28.407 89.8611 28.407Z" fill="white"/>
<path fill-rule="evenodd" clip-rule="evenodd" d="M89.8615 3.57072C83.4001 3.57072 78.1415 8.96135 78.1415 15.6368C78.1415 22.3122 83.4001 27.7029 89.8615 27.7029C96.323 27.7029 101.581 22.3122 101.581 15.6368C101.581 8.96135 96.323 3.57072 89.8615 3.57072ZM76.748 15.6368C76.748 8.20646 82.6078 2.16211 89.8615 2.16211C97.1152 2.16211 102.975 8.20646 102.975 15.6368C102.975 23.0671 97.1152 29.1115 89.8615 29.1115C82.6078 29.1115 76.748 23.0671 76.748 15.6368Z" fill="white"/>
<path opacity="0.05" d="M89.7755 27.6724C92.9008 27.6724 95.8982 26.3955 98.1082 24.1226C100.318 21.8496 101.56 18.7669 101.56 15.5525C101.56 12.3381 100.318 9.25537 98.1082 6.98245C95.8982 4.70953 92.9008 3.43262 89.7755 3.43262C88.2279 3.43262 86.6955 3.74611 85.2658 4.35519C83.8361 4.96427 82.537 5.85701 81.4427 6.98245C80.3485 8.10788 79.4804 9.44397 78.8882 10.9144C78.296 12.3849 77.9912 13.9609 77.9912 15.5525C77.9912 17.1441 78.296 18.7201 78.8882 20.1906C79.4804 21.661 80.3485 22.9971 81.4427 24.1226C82.537 25.248 83.8361 26.1407 85.2658 26.7498C86.6955 27.3589 88.2279 27.6724 89.7755 27.6724V27.6724Z" fill="white"/>
<path opacity="0.9" fill-rule="evenodd" clip-rule="evenodd" d="M89.8175 15.5078C89.8121 15.5027 89.806 15.4988 89.7995 15.496ZM89.8195 15.5098L98.1514 24.0789C98.175 24.1032 98.1747 24.1423 98.1506 24.1662C98.1266 24.1901 98.0879 24.1898 98.0643 24.1655L89.8369 15.7038V27.6723C89.8369 27.7064 89.8096 27.734 89.7758 27.734C89.7421 27.734 89.7148 27.7064 89.7148 27.6723V15.7038L81.4874 24.1655C81.4638 24.1898 81.4251 24.1901 81.4011 24.1662C81.377 24.1423 81.3767 24.1032 81.4003 24.0789L89.7322 15.5097C89.7379 15.5039 89.7447 15.4992 89.7522 15.496M89.8195 15.5098L89.8194 15.5097C89.8193 15.5096 89.8192 15.5095 89.8192 15.5094M89.799 15.4958C89.7918 15.4928 89.784 15.4912 89.7758 15.4912ZM89.7756 15.4912C89.7675 15.4912 89.7598 15.4929 89.7527 15.4958ZM89.7522 15.496C89.7453 15.4989 89.7388 15.5032 89.733 15.5089Z" fill="#858585"/>
<path opacity="0.9" fill-rule="evenodd" clip-rule="evenodd" d="M89.9108 14.1592C89.9158 14.1591 89.9208 14.1596 89.9256 14.1607L90.2407 14.2327C90.2456 14.2338 90.2504 14.2356 90.2549 14.2379L90.535 14.3819C90.5395 14.3842 90.5437 14.3871 90.5474 14.3904L90.7925 14.6064C90.7964 14.6099 90.7999 14.6139 90.8028 14.6182L90.9849 14.8882C90.9876 14.8922 90.9898 14.8965 90.9915 14.901L91.107 15.207C91.1088 15.212 91.1101 15.2171 91.1106 15.2224L91.141 15.5038L91.1478 15.5044L91.1447 15.5381L91.1523 15.6078L91.1384 15.6093L91.1213 15.7999C91.1209 15.8041 91.1201 15.8083 91.1188 15.8123L91.0243 16.1256C91.0229 16.1303 91.0209 16.1348 91.0185 16.139L90.8539 16.4199C90.8514 16.4242 90.8484 16.4281 90.8449 16.4317L90.6209 16.6621C90.6174 16.6657 90.6135 16.6688 90.6092 16.6715L90.3362 16.8407C90.3319 16.8433 90.3274 16.8454 90.3226 16.8469L90.0181 16.9442C90.0132 16.9457 90.0082 16.9466 90.0031 16.9469L89.6881 16.9649C89.6831 16.9652 89.678 16.9649 89.6731 16.9639L89.358 16.9027C89.3527 16.9017 89.3475 16.8999 89.3427 16.8975L89.0521 16.7535C89.0478 16.7513 89.0437 16.7487 89.04 16.7456L88.795 16.5404C88.7912 16.5372 88.7878 16.5336 88.7848 16.5296L88.5923 16.2667C88.5894 16.2628 88.587 16.2585 88.5851 16.254L88.4591 15.9515C88.4571 15.9468 88.4557 15.9419 88.455 15.9369L88.406 15.6128C88.4052 15.608 88.4051 15.603 88.4055 15.5981L88.4335 15.2741C88.4339 15.2691 88.435 15.2642 88.4366 15.2594L88.5416 14.9498C88.5432 14.945 88.5454 14.9405 88.5481 14.9363L88.7231 14.6627C88.7258 14.6585 88.729 14.6546 88.7325 14.6512L88.9671 14.428C88.9707 14.4245 88.9748 14.4215 88.9791 14.4191L89.2592 14.2607C89.2635 14.2582 89.268 14.2564 89.2727 14.255L89.5808 14.1686C89.5856 14.1673 89.5907 14.1665 89.5957 14.1664L89.9108 14.1592ZM91.022 15.5392L90.9901 15.2436L90.8799 14.9518L90.7063 14.6943L90.4729 14.4885L90.2063 14.3514L89.906 14.2828L89.6061 14.2896L89.3124 14.372L89.0453 14.5231L88.8217 14.736L88.6547 14.997L88.5545 15.2923L88.5278 15.6015L88.5746 15.9107L88.6948 16.1992L88.8786 16.4501L89.1124 16.6459L89.3891 16.783L89.6887 16.8412L89.9886 16.8241L90.2787 16.7315L90.539 16.5702L90.7526 16.3505L90.9096 16.0825L91.0002 15.7824L91.022 15.5392Z" fill="#818181"/>
<path opacity="0.9" fill-rule="evenodd" clip-rule="evenodd" d="M89.9149 11.4512L90.4611 11.5088C90.464 11.5091 90.4669 11.5096 90.4698 11.5104L91.0019 11.6472C91.0048 11.6479 91.0077 11.6489 91.0105 11.6501L91.5255 11.8693L92.0013 12.1506C92.0039 12.152 92.0063 12.1537 92.0085 12.1555L92.4457 12.5064L92.8304 12.9137C92.8324 12.9159 92.8343 12.9181 92.836 12.9206L93.163 13.3849L93.4218 13.8894L93.6133 14.4269L93.7282 14.9779C93.7288 14.9808 93.7292 14.9838 93.7294 14.9868L93.7613 15.4978L93.7683 15.4982L93.7648 15.5542L93.7683 15.6101L93.7613 15.6105L93.7294 16.1215C93.7292 16.1245 93.7288 16.1275 93.7282 16.1304L93.6109 16.6897L93.4186 17.2265L93.1586 17.7308L92.836 18.1877C92.8343 18.1902 92.8324 18.1925 92.8304 18.1946L92.4395 18.6076L92.0085 18.9528C92.0063 18.9546 92.0039 18.9563 92.0013 18.9578L91.5184 19.2427L91.0105 19.4582C91.0077 19.4594 91.0048 19.4604 91.0019 19.4611L90.4698 19.598C90.4669 19.5987 90.464 19.5992 90.4611 19.5995L89.9066 19.658L89.3605 19.6394C89.3575 19.6393 89.3546 19.639 89.3517 19.6385L88.8042 19.5398L88.2793 19.3664C88.2763 19.3654 88.2733 19.3642 88.2705 19.3627L87.7731 19.107L87.3112 18.7847L87.3116 18.7842L86.8992 18.4003L86.5443 17.9613L86.2498 17.4749L86.0228 16.9519L85.8706 16.4035L85.793 15.8368L85.7936 15.2629L85.8723 14.6965L86.0257 14.1483L86.2537 13.6259L86.5491 13.1401L86.9051 12.7017L87.318 12.3181L87.3183 12.3187L87.7802 11.9971L88.2705 11.7456C88.2733 11.7441 88.2763 11.7429 88.2793 11.7419L88.8125 11.5664L89.3517 11.4698C89.3546 11.4693 89.3575 11.469 89.3605 11.4689L89.9149 11.4512ZM93.6424 15.5542L93.6078 14.9991L93.4941 14.4568L93.3079 13.9353L93.0561 13.4459L92.7391 12.9958L92.3599 12.5952L91.936 12.2549L91.4671 11.9784L90.9674 11.7657L90.444 11.6311L89.9064 11.5744L89.3688 11.5921L88.8382 11.6878L88.3216 11.8578L87.8394 12.1058L87.3912 12.4178L86.9914 12.79L86.6467 13.2155L86.3604 13.6872L86.1398 14.1943L85.9915 14.7261L85.9157 15.2758V15.8325L85.9915 16.3822L86.1398 16.9141L86.3604 17.4211L86.6467 17.8928L86.9914 18.3183L87.3912 18.6905L87.8394 19.0025L88.3216 19.2505L88.8382 19.4205L89.3688 19.5162L89.9064 19.5339L90.444 19.4772L90.9674 19.3426L91.4671 19.13L91.936 18.8534L92.3599 18.5131L92.7391 18.1125L93.0561 17.6624L93.3079 17.173L93.4941 16.6516L93.6078 16.1093L93.6424 15.5542Z" fill="#818181"/>
<path opacity="0.9" fill-rule="evenodd" clip-rule="evenodd" d="M89.7835 8.75781L90.4726 8.79416L91.1545 8.90352L91.8261 9.08563L92.4731 9.34056L93.0875 9.66789L93.6669 10.0571L94.2036 10.5078L94.691 11.0095L95.1252 11.562L95.5029 12.1578L95.8207 12.7906L96.0678 13.4558L96.244 14.1461L96.3497 14.8472L96.3818 15.4972L96.3874 15.4975L96.3846 15.5542L96.3874 15.611L96.3818 15.6113L96.349 16.2675L96.2428 16.9686L96.0658 17.659L95.818 18.3242L95.4998 18.956L95.1216 19.5516L94.6868 20.1038L94.1989 20.6051L93.6614 21.052L93.0752 21.4402L92.4597 21.7672L91.8127 22.0214L91.1412 22.2027L90.4592 22.3114L89.7701 22.3474L89.0811 22.3107L88.3991 22.2014L87.7275 22.0193L87.0805 21.7643L86.4661 21.437L85.8869 21.0479L85.35 20.6007L84.8626 20.0989L84.4284 19.5465L84.0507 18.9507L83.7329 18.3179L83.4859 17.6527L83.3096 16.9624L83.204 16.2613L83.1689 15.5529L83.2046 14.8446L83.3109 14.1435L83.4878 13.4531L83.7356 12.7879L84.0538 12.1561L84.432 11.5604L84.8669 11.0083L85.3615 10.5001L85.8922 10.0529L86.4785 9.66471L87.0939 9.33765L87.7409 9.08352L88.4124 8.90217L89.0944 8.79348L89.7835 8.75781ZM96.2623 15.5542L96.2275 14.8566L96.1234 14.1679L95.95 13.49L95.7073 12.8374L95.3951 12.2167L95.0238 11.6314L94.5972 11.0891L94.1185 10.5968L93.5912 10.1544L93.0224 9.77274L92.4191 9.45179L91.7848 9.20225L91.1259 9.02393L90.4566 8.91693L89.7803 8.88126L89.104 8.91693L88.4347 9.02393L87.7758 9.20225L87.1415 9.45179L86.5381 9.77282L85.9623 10.1545L85.4422 10.5931L84.9564 11.0927L84.5298 11.635L84.1585 12.2203L83.8463 12.841L83.6036 13.4936L83.4302 14.1715L83.3261 14.8602L83.2914 15.556L83.3261 16.2519L83.4302 16.9406L83.6036 17.6185L83.8463 18.2711L84.1585 18.8918L84.5298 19.4771L84.9564 20.0194L85.4351 20.5116L85.9623 20.9504L86.5312 21.3321L87.1345 21.6531L87.7689 21.9026L88.4277 22.081L89.097 22.188L89.7733 22.2236L90.4496 22.188L91.1189 22.081L91.7778 21.9026L92.4121 21.6531L93.0156 21.3321L93.5915 20.9503L94.1186 20.5116L94.5972 20.0194L95.0238 19.4771L95.3951 18.8918L95.7073 18.2711L95.95 17.6185L96.1234 16.9406L96.2275 16.2519L96.2623 15.5542Z" fill="#818181"/>
<path opacity="0.9" fill-rule="evenodd" clip-rule="evenodd" d="M89.7828 6.06836L90.7486 6.11912L91.7 6.27531L92.634 6.52941L93.5362 6.88498L94.3961 7.33485L95.2063 7.87872L95.9568 8.50244L96.6403 9.20587L97.246 9.97789L97.7744 10.8118L98.211 11.6962L98.5561 12.6242L98.8023 13.5843L98.9535 14.5629L98.9996 15.4975L99.0018 15.4976L99.0007 15.5191L99.0053 15.6111L98.9961 15.6116L98.9494 16.5523L98.7976 17.5305L98.5506 18.4909L98.205 19.4185L97.7676 20.3028L97.2389 21.1359L96.636 21.9042L95.952 22.6072L95.2013 23.2302L94.3904 23.7737L93.5302 24.2229L92.6277 24.5779L91.6938 24.8312L90.742 24.9868L89.7764 25.0371L88.8105 24.986L87.8592 24.8299L86.9251 24.5758L86.023 24.2202L85.163 23.7703L84.3529 23.2264L83.6023 22.6027L82.9189 21.8993L82.3132 21.1273L81.7848 20.2934L81.3482 19.409L81.0031 18.481L80.7569 17.5209L80.6056 16.5422L80.5566 15.5495L80.6063 14.5564L80.7581 13.5783L81.0051 12.6179L81.3507 11.6903L81.788 10.806L82.3168 9.9728L82.9232 9.20095L83.6072 8.49799L84.3579 7.87496L85.1688 7.33143L86.0289 6.88228L86.9315 6.5273L87.8653 6.27398L88.8172 6.1184L89.7828 6.06836ZM98.8784 15.5191L98.8314 14.5724L98.6818 13.6065L98.4383 12.6584L98.0975 11.7427L97.6663 10.87L97.1446 10.0473L96.5464 9.28539L95.8718 8.59156L95.131 7.97636L94.3312 7.43987L93.4828 6.99645L92.5927 6.646L91.6712 6.39566L90.7323 6.24187L89.7796 6.19181L88.8268 6.24187L87.888 6.39565L86.9665 6.646L86.0764 6.99645L85.228 7.43987L84.4282 7.97635L83.6874 8.59156L83.0128 9.28539L82.4146 10.0473L81.8929 10.87L81.4617 11.7427L81.1208 12.6584L80.8773 13.6065L80.7278 14.5724L80.6791 15.5526L80.7278 16.5328L80.8773 17.4987L81.1208 18.4467L81.4617 19.3624L81.8929 20.2351L82.4146 21.0579L83.0128 21.8198L83.6874 22.5136L84.4282 23.1288L85.228 23.6653L86.0764 24.1087L86.9665 24.4592L87.888 24.7095L88.8268 24.8633L89.7796 24.9134L90.7323 24.8633L91.6712 24.7095L92.5927 24.4592L93.4828 24.1087L94.3312 23.6653L95.131 23.1288L95.8718 22.5136L96.5463 21.8198L97.1411 21.0615L97.6628 20.2388L98.094 19.366L98.4348 18.4503L98.6783 17.5023L98.8279 16.5364L98.8784 15.5191Z" fill="#818181"/>
<path opacity="0.56" d="M89.7754 15.5527L92.2715 14.7354L92.275 14.7426L92.2855 14.7786L92.289 14.7966L92.2995 14.8326L92.303 14.8506L92.3135 14.8866L92.3275 14.9442L92.338 14.9946L92.3485 15.0522L92.3555 15.0954L92.359 15.1134L92.3625 15.1494V15.1674L92.3695 15.2106V15.2286L92.373 15.2646L92.3765 15.2826L92.38 15.3186L92.3835 15.3438V15.369L92.387 15.405V15.4231V15.4591V15.4843V15.5095V15.5347V15.5707H89.7964L89.7754 15.5527Z" fill="#004CFF"/>
<path opacity="0.56" fill-rule="evenodd" clip-rule="evenodd" d="M92.228 14.6007C92.2944 14.5789 92.3665 14.6098 92.3973 14.6731L92.4008 14.6803C92.4043 14.6875 92.4072 14.6951 92.4095 14.7028L92.42 14.7388C92.4212 14.743 92.4222 14.7473 92.4231 14.7516L92.4253 14.7631L92.434 14.7928C92.4352 14.797 92.4362 14.8013 92.4371 14.8056L92.4393 14.8171L92.4498 14.853L92.4648 14.9153L92.4759 14.9692L92.4869 15.0296L92.4935 15.0706L92.4966 15.0864C92.4975 15.0909 92.4981 15.0954 92.4986 15.0999L92.5021 15.1359C92.5025 15.1405 92.5027 15.1452 92.5027 15.1498V15.1562L92.5079 15.1881C92.5091 15.1956 92.5097 15.2033 92.5097 15.211V15.222L92.5119 15.2443L92.5141 15.2556C92.515 15.2601 92.5156 15.2646 92.5161 15.2691L92.5193 15.3022L92.5224 15.3245C92.5233 15.331 92.5237 15.3376 92.5237 15.3442V15.3625L92.5266 15.3915C92.527 15.3962 92.5272 15.4008 92.5272 15.4054V15.5711C92.5272 15.6495 92.4644 15.713 92.3868 15.713H89.7962C89.7629 15.713 89.7308 15.7011 89.7054 15.6793L89.6844 15.6613C89.6455 15.628 89.6276 15.5761 89.6374 15.5255C89.6473 15.475 89.6835 15.4339 89.7319 15.418L92.228 14.6007ZM92.1754 14.9163L90.6095 15.4291H92.2464V15.4124L92.2435 15.3833C92.2431 15.3787 92.2429 15.3741 92.2429 15.3694V15.3541L92.2399 15.3329L92.2372 15.3037L92.235 15.2924C92.2341 15.2879 92.2335 15.2834 92.233 15.2789L92.2295 15.2429C92.2291 15.2383 92.2288 15.2336 92.2288 15.229V15.2226L92.2237 15.1907C92.2225 15.1832 92.2218 15.1755 92.2218 15.1678V15.1568L92.2197 15.1345L92.2166 15.1187L92.2099 15.0769L92.2 15.0225L92.1903 14.9761L92.1777 14.924L92.1754 14.9163Z" fill="black"/>
<path opacity="0.56" d="M89.7754 15.5535L92.583 8.00684L92.7231 8.06084L92.8631 8.11845L92.8841 8.12925L92.9961 8.17966L93.0171 8.19046L93.1502 8.25527L93.3042 8.33448L93.4092 8.39209L93.4512 8.4173L93.5388 8.4641L93.5808 8.48931L93.6858 8.55052L93.7068 8.56492L93.8328 8.64413L93.9589 8.72334L93.9799 8.73774L94.0849 8.80975L94.1059 8.82416L94.2284 8.91057L94.3509 8.99698L94.3719 9.01138L94.47 9.08339L94.505 9.1122L94.582 9.17341L94.617 9.20941L94.652 9.24542L89.8034 15.4995L89.7754 15.5535Z" fill="#CEFF29"/>
<path opacity="0.56" fill-rule="evenodd" clip-rule="evenodd" d="M92.5252 7.87679C92.5592 7.86127 92.598 7.86012 92.6329 7.87358L92.7759 7.92871L92.9159 7.98635C92.9195 7.98785 92.9231 7.9895 92.9266 7.99131L92.9444 8.00044L93.0597 8.05235L93.0793 8.06262L93.2137 8.1281L93.371 8.20905L93.4808 8.26931L93.5198 8.29283L93.6103 8.34126L93.6515 8.36615L93.7558 8.42692C93.7587 8.42864 93.7616 8.43047 93.7644 8.43241L93.7831 8.44523L94.0376 8.60515L94.0585 8.61964L94.1635 8.69165L94.1861 8.7071L94.4304 8.87941L94.4544 8.89587L94.5586 8.97251L94.5925 9.00073L94.6686 9.06119C94.6733 9.06493 94.6778 9.06897 94.682 9.07328L94.752 9.14529C94.8015 9.19616 94.8059 9.27623 94.7624 9.33237L89.9217 15.5763L89.8996 15.6188C89.8652 15.6853 89.7855 15.7132 89.7178 15.6825C89.6501 15.6518 89.6177 15.5732 89.6438 15.503L92.4514 7.95625C92.4646 7.9209 92.4911 7.8923 92.5252 7.87679ZM90.2411 14.704L94.4627 9.25867L94.4161 9.2217L94.3841 9.19534L94.291 9.12696L94.2704 9.11281L94.0261 8.9405L94.0059 8.92663L93.9009 8.85462L93.8822 8.8418L93.7585 8.76408L93.6277 8.68189L93.611 8.6703L93.5089 8.61078L93.4699 8.58735L93.3793 8.53891L93.3397 8.51495L93.2387 8.45955L93.0877 8.38188L92.9533 8.31641L92.9355 8.30725L92.8202 8.25534L92.8045 8.24708L92.6714 8.19231L92.6646 8.18971L90.2411 14.704Z" fill="black"/>
<path opacity="0.56" d="M89.7756 15.5525L83.0645 7.28213L83.2185 7.15251L83.411 6.99409L83.5301 6.90408L83.5651 6.87527L83.6841 6.78526L83.7646 6.72765L83.8451 6.67004L83.9257 6.61243L84.0062 6.55483L84.1287 6.47201L84.1707 6.44321L84.2967 6.364L84.3388 6.33879L84.5138 6.23078L84.6888 6.12996L84.9059 6.00755L85.0389 5.93553L85.0844 5.91393L85.2595 5.82392L85.4345 5.73751L85.6621 5.63669L85.8021 5.57908L85.8476 5.56108L86.0297 5.48907L86.2152 5.41706L86.4498 5.33425L86.5898 5.28744L86.6353 5.27304L86.8243 5.21543L87.0134 5.16142L87.2514 5.09661L87.3915 5.06061L87.4405 5.0498L89.751 15.4481L89.7756 15.5525Z" fill="#FF6800"/>
<path opacity="0.56" fill-rule="evenodd" clip-rule="evenodd" d="M87.4104 4.91149C87.4858 4.89486 87.5604 4.94293 87.5773 5.01908L89.8875 15.4158L89.8878 15.4174L89.912 15.5202C89.9271 15.5845 89.8963 15.6508 89.8377 15.6801C89.7791 15.7095 89.7082 15.6941 89.6667 15.643L82.9557 7.37256C82.9067 7.31225 82.9151 7.22332 82.9744 7.17342L83.1296 7.0428L83.3267 6.88071L83.4434 6.79253L83.4807 6.7619L83.6028 6.66973L83.6833 6.61217L83.9279 6.43716L84.0501 6.35465L84.0963 6.32295L84.2249 6.24228L84.2661 6.21756L84.4441 6.10777L84.6202 6.00638L84.8394 5.88277L84.979 5.80725L85.0225 5.78678L85.1976 5.69673L85.3779 5.60776L85.6089 5.50554L85.7507 5.44726L85.7962 5.42927L85.9791 5.35693L86.1687 5.28336L86.4055 5.19983L86.5476 5.15233L86.5946 5.1375L86.7859 5.07919L86.9767 5.02472L87.2166 4.95941L87.3613 4.92221L87.4104 4.91149ZM89.5068 14.9982L87.3345 5.22207L87.2868 5.23434L87.0505 5.29866L86.8635 5.3521L86.6763 5.40913L86.6326 5.42297L86.4948 5.46905L86.2633 5.55076L86.0806 5.62166L86.0798 5.62199L85.854 5.71133L85.7165 5.76786L85.4933 5.86675L85.3219 5.95137L85.144 6.04289L85.1018 6.06284L84.9731 6.13251L84.7576 6.25402L84.585 6.35346L84.4102 6.46128L84.3695 6.48573L84.2471 6.56267L84.2066 6.59042L84.0856 6.67218L84.0066 6.7287L83.8456 6.84392L83.7666 6.90045L83.6513 6.9876L83.6141 7.01824L83.4973 7.10642L83.3076 7.26251L83.2613 7.30146L89.5068 14.9982Z" fill="black"/>
<path opacity="0.56" d="M89.7755 15.5527L80.7574 17.2342L80.7469 17.1766L80.7294 17.0613L80.7119 16.9425L80.7049 16.8849L80.6909 16.7661L80.6839 16.7085L80.6699 16.5897L80.6629 16.5321L80.6454 16.352L80.6314 16.172L80.6209 15.992L80.6174 15.9344L80.6139 15.8156V15.758L80.6104 15.6391V15.5815V15.4627V15.3439V15.2863L80.6139 15.1675L80.6174 15.1099L80.6244 14.991L80.6314 14.8722V14.8146L80.6419 14.6958L80.6489 14.6382L80.6594 14.5194L80.6734 14.4006L80.6804 14.3429L80.6944 14.2241L80.7014 14.1665L80.7189 14.0477L80.7294 13.9901L80.7644 13.8101L80.7994 13.6372L80.8344 13.4644L80.8484 13.4068L80.8764 13.2916L80.8904 13.234L80.9184 13.1188L80.9324 13.0612L80.9674 12.9459L81.0024 12.8307L81.0199 12.7731L81.055 12.6651L81.0725 12.6075L81.1075 12.4995L81.1425 12.3915L81.1635 12.3375L81.1985 12.2294L81.2195 12.1754L81.2615 12.0674L81.2825 12.0134L81.3525 11.8478L81.4225 11.6858L81.4926 11.5237L81.5171 11.4697L89.6915 15.5167L89.7755 15.5527Z" fill="#FFC400"/>
<path opacity="0.56" fill-rule="evenodd" clip-rule="evenodd" d="M81.4698 11.3354C81.5054 11.3225 81.5447 11.3248 81.5787 11.3416L89.7497 15.3869L89.8302 15.4214C89.8873 15.4459 89.9217 15.5053 89.915 15.5676C89.9082 15.6299 89.8618 15.6804 89.8008 15.6917L80.7827 17.3732C80.7461 17.38 80.7083 17.3718 80.6776 17.3505C80.6469 17.3291 80.6259 17.2963 80.6191 17.2593L80.6079 17.1975L80.5904 17.0823L80.5903 17.0817L80.5723 16.9592L80.5654 16.9016L80.5514 16.7828L80.5444 16.7252L80.5304 16.6064L80.5229 16.5454L80.5052 16.3626L80.491 16.1798L80.4806 16.0001L80.4768 15.938L80.4732 15.815L80.4733 15.7595L80.4697 15.6385L80.4698 15.2814L80.4735 15.1582L80.4908 14.8674V14.814C80.4908 14.8098 80.491 14.8056 80.4914 14.8014L80.5023 14.6779L80.5091 14.6226L80.5197 14.502L80.5338 14.3832L80.5408 14.3255L80.5548 14.2067L80.5623 14.145L80.5806 14.0213L80.5914 13.9621L80.6267 13.781L80.6617 13.6082L80.6978 13.4299L80.7399 13.2571L80.7978 13.0188L80.8681 12.7884L80.8863 12.7283L80.921 12.6215L80.9389 12.5627L81.0114 12.3388L81.0312 12.2887L81.0674 12.1768L81.0887 12.1229L81.1307 12.0149L81.1532 11.957L81.2237 11.7903L81.2937 11.6283L81.3648 11.4639L81.3893 11.4099C81.4051 11.3751 81.4341 11.3483 81.4698 11.3354ZM89.3234 15.492L81.586 11.6614L81.4813 11.9035L81.4123 12.0667L81.3921 12.1187L81.3501 12.2268L81.3306 12.2769L81.2943 12.3889L81.2745 12.439L81.2408 12.5431L81.2062 12.6498L81.1883 12.7087L81.1537 12.8154L81.1366 12.8718L81.0677 13.0984L81.0547 13.152L81.0267 13.2672L80.9847 13.4401L80.9713 13.495L80.9369 13.6651L80.902 13.8374L80.8672 14.016L80.8573 14.0704L80.8404 14.185L80.8337 14.2403L80.8197 14.3591L80.8127 14.4167L80.7989 14.5335L80.7882 14.6549L80.7814 14.7102L80.7717 14.8203V14.8801L80.7644 14.9989L80.754 15.1733L80.7507 15.2878V15.6364L80.7542 15.7573L80.7542 15.8128L80.7575 15.9273L80.7609 15.9827L80.7713 16.1617L80.7851 16.3389L80.8023 16.5159L80.8091 16.5718L80.8231 16.6906L80.8301 16.7482L80.8441 16.867L80.8509 16.9228L80.8681 17.0392L80.8682 17.0398L80.8724 17.0677L89.3234 15.492Z" fill="black"/>
<path opacity="0.6" d="M89.7757 15.5527L85.4487 18.5844L85.4312 18.5556L85.3892 18.4908L85.3717 18.462L85.3367 18.4044L85.3157 18.3683L85.2807 18.3107L85.2597 18.2747L85.2317 18.2243L85.2072 18.1811L85.1792 18.1307L85.1547 18.0875L85.1302 18.0443L85.1022 17.9903L85.0811 17.9435L85.0566 17.8895L89.7267 15.5743L89.7757 15.5527Z" fill="#29FFCE"/>
<path opacity="0.6" fill-rule="evenodd" clip-rule="evenodd" d="M89.8983 15.483C89.9335 15.5468 89.915 15.6272 89.8556 15.6688L85.5286 18.7005C85.4969 18.7227 85.4575 18.7307 85.4197 18.7227C85.382 18.7147 85.3491 18.6913 85.3289 18.6581L85.3125 18.6311L85.2694 18.5645L85.2519 18.5357L85.2156 18.4759L85.1952 18.441L85.1595 18.3823L85.1371 18.3437L85.1094 18.2938L85.0846 18.25L85.0569 18.2002L85.0055 18.1097L84.9739 18.0484L84.9533 18.0021L84.9288 17.9481C84.8971 17.8781 84.9263 17.7953 84.9946 17.7614L89.6704 15.4435L89.7195 15.422C89.7857 15.3928 89.8631 15.4192 89.8983 15.483ZM85.4887 18.3829L88.174 16.5015L85.2425 17.9548L85.2532 17.9754L85.3015 18.0606L85.3292 18.1105L85.354 18.1542L85.3813 18.2033L85.4009 18.2369L85.4365 18.2956L85.4569 18.3306L85.4887 18.3829Z" fill="black"/>
<path opacity="0.56" d="M89.7757 15.5527L90.8715 22.1921L90.7455 22.2137H90.721L90.6159 22.2281L90.5914 22.2317L90.4864 22.2425H90.4619L90.3569 22.2533L90.3324 22.2569L90.2273 22.2641H90.2028L90.0978 22.2713H90.0453L89.9683 22.2749H89.9438H89.8143H89.7372H89.7127H89.6077H89.5832L89.4782 22.2713H89.4537L89.3487 22.2641H89.3241L89.2191 22.2569L89.1666 22.2533L89.1141 22.2497H89.0371L88.9601 22.2389L88.9076 22.2317L88.8305 22.2209H88.778L88.701 22.2101L88.652 22.2029L88.575 22.1885L88.526 22.1777L88.449 22.1633L88.3999 22.1525L88.2949 22.1309L89.7372 15.6319L89.7757 15.5527Z" fill="#7DFF7A"/>
<path opacity="0.56" fill-rule="evenodd" clip-rule="evenodd" d="M89.795 15.4126C89.8554 15.4216 89.9031 15.4689 89.9131 15.5297L91.0089 22.1691C91.0216 22.2463 90.9702 22.3194 90.8938 22.3324L90.7678 22.354C90.7601 22.3554 90.7522 22.356 90.7443 22.356H90.7293L90.635 22.369L90.6337 22.3692L90.6045 22.3734L90.4995 22.3841C90.4948 22.3846 90.49 22.3848 90.4853 22.3848H90.4679L90.373 22.3946L90.3514 22.3978C90.3479 22.3983 90.3443 22.3987 90.3407 22.3989L90.2357 22.4061C90.2326 22.4063 90.2294 22.4064 90.2262 22.4064H90.2065L90.1062 22.4133C90.103 22.4135 90.0999 22.4136 90.0967 22.4136H90.0474L89.9672 22.4174L89.5773 22.4172L89.4747 22.4136H89.4525C89.4494 22.4136 89.4462 22.4135 89.443 22.4133L89.3428 22.4064H89.323C89.3198 22.4064 89.3167 22.4063 89.3135 22.4061L89.1082 22.392H89.0359C89.0295 22.392 89.023 22.3916 89.0166 22.3907L88.94 22.38L88.8875 22.3728L88.8197 22.3632H88.7769C88.7704 22.3632 88.764 22.3628 88.7576 22.3619L88.6806 22.3511L88.6797 22.351L88.6253 22.343L88.5439 22.3276L88.4971 22.3173L88.4179 22.3024L88.3698 22.2918L88.2658 22.2704C88.2288 22.2628 88.1964 22.2404 88.1759 22.2084C88.1554 22.1764 88.1485 22.1374 88.1567 22.1002L89.5991 15.6012C89.6015 15.5903 89.6052 15.5797 89.6101 15.5697L89.6486 15.4905C89.6755 15.4351 89.7346 15.4037 89.795 15.4126ZM88.4621 22.0215L88.4755 22.0245L88.5547 22.0393L88.6016 22.0497L88.6737 22.0632L88.7192 22.0699L88.7201 22.07L88.7866 22.0793H88.8294C88.8358 22.0793 88.8423 22.0798 88.8487 22.0807L88.9253 22.0914L88.9778 22.0986L89.0456 22.1081H89.113C89.1161 22.1081 89.1193 22.1082 89.1225 22.1084L89.3278 22.1225H89.3475C89.3507 22.1225 89.3538 22.1226 89.357 22.1228L89.4573 22.1297H89.4818L89.5844 22.1333H89.9639L90.0442 22.1296L90.0919 22.1297L90.1922 22.1228C90.1954 22.1226 90.1985 22.1225 90.2017 22.1225H90.2215L90.3164 22.116L90.3415 22.1123L90.4466 22.1016C90.4513 22.1012 90.456 22.1009 90.4608 22.1009H90.4782L90.5731 22.0912L90.5959 22.0878L90.701 22.0734C90.7034 22.0731 90.7058 22.0728 90.7082 22.0726L89.7454 16.2389L88.4621 22.0215Z" fill="black"/>
<path opacity="0.56" d="M89.7754 15.5527L98.0233 22.1957L97.9008 22.3541L97.7607 22.5342L97.6312 22.689L97.4842 22.8582L97.3441 23.0022L97.1901 23.1643L97.0501 23.3083L96.889 23.4667L96.742 23.6035L96.574 23.7547L96.4234 23.8844L96.3079 23.9816L89.8454 15.6355L89.7754 15.5527Z" fill="#FF6800"/>
<path opacity="0.56" fill-rule="evenodd" clip-rule="evenodd" d="M89.6742 15.4545C89.7245 15.4018 89.8061 15.3965 89.8627 15.4421L98.1106 22.085C98.1709 22.1336 98.1812 22.2221 98.1338 22.2835L98.0112 22.4419L97.8679 22.6263L97.7366 22.783L97.5843 22.9582L97.4452 23.101L97.4441 23.1021L97.2901 23.2641L97.1479 23.4104L96.984 23.5716L96.8352 23.7099L96.6649 23.8632L96.5131 23.9938L96.3976 24.091C96.3684 24.1156 96.3306 24.1272 96.2928 24.1231C96.2551 24.119 96.2205 24.0997 96.1971 24.0694L89.7365 15.7258L89.6684 15.6453C89.6214 15.5897 89.6239 15.5071 89.6742 15.4545ZM90.6382 16.4297L96.3291 23.7792L96.3322 23.7767L96.4815 23.648L96.6476 23.4986L96.7923 23.364L96.9508 23.208L97.0887 23.0663L97.0898 23.0651L97.2438 22.9031L97.3811 22.7619L97.5246 22.5967L97.6517 22.4448L97.79 22.2671L97.8268 22.2195L90.6382 16.4297Z" fill="black"/>
<path fill-rule="evenodd" clip-rule="evenodd" d="M85.1476 4.07176C86.6147 3.44676 88.1873 3.125 89.7756 3.125C92.9835 3.125 96.059 4.43569 98.3257 6.76697C100.592 9.09807 101.865 12.2586 101.865 15.553C101.865 18.8474 100.592 22.008 98.3257 24.3391C96.059 26.6703 92.9835 27.981 89.7756 27.981C88.1873 27.981 86.6147 27.6593 85.1476 27.0343C83.6805 26.4093 82.3478 25.4933 81.2255 24.3391C80.1032 23.1848 79.2132 21.8147 78.606 20.3073C77.9989 18.7998 77.6865 17.1844 77.6865 15.553C77.6865 13.9217 77.9989 12.3062 78.606 10.7988C79.2132 9.2913 80.1032 7.92126 81.2255 6.76697C82.3478 5.61268 83.6805 4.69675 85.1476 4.07176ZM89.7756 3.74126C88.2688 3.74126 86.7767 4.04649 85.3843 4.63965C83.992 5.23282 82.7265 6.10238 81.6603 7.19895C80.594 8.29554 79.748 9.59767 79.1707 11.0311C78.5934 12.4646 78.2962 14.0011 78.2962 15.553C78.2962 17.1049 78.5934 18.6414 79.1707 20.0749C79.748 21.5084 80.594 22.8105 81.6603 23.9071C82.7265 25.0036 83.992 25.8732 85.3843 26.4664C86.7767 27.0595 88.2688 27.3648 89.7756 27.3648C92.8184 27.3648 95.7377 26.1216 97.8909 23.9071C100.044 21.6923 101.255 18.6874 101.255 15.553C101.255 12.4186 100.044 9.41369 97.8909 7.19895C95.7377 4.9844 92.8184 3.74126 89.7756 3.74126Z" fill="#11557C"/>
<path opacity="0.6" fill-rule="evenodd" clip-rule="evenodd" d="M92.229 14.6007C92.2954 14.5789 92.3675 14.6098 92.3983 14.6731L92.4018 14.6803C92.4053 14.6875 92.4082 14.6951 92.4105 14.7028L92.421 14.7388C92.4222 14.743 92.4233 14.7473 92.4241 14.7516L92.4263 14.7631L92.435 14.7928C92.4362 14.797 92.4373 14.8013 92.4381 14.8056L92.4403 14.8171L92.4508 14.853L92.4658 14.9153L92.477 14.9692L92.4879 15.0296L92.4945 15.0706L92.4976 15.0864C92.4985 15.0909 92.4991 15.0954 92.4996 15.0999L92.5031 15.1359C92.5035 15.1405 92.5037 15.1452 92.5037 15.1498V15.1562L92.5089 15.1881C92.5101 15.1956 92.5107 15.2033 92.5107 15.211V15.222L92.5129 15.2443L92.5151 15.2556C92.516 15.2601 92.5166 15.2646 92.5171 15.2691L92.5203 15.3022L92.5234 15.3245C92.5243 15.331 92.5248 15.3376 92.5248 15.3442V15.3625L92.5276 15.3915C92.528 15.3962 92.5283 15.4008 92.5283 15.4054V15.5711C92.5283 15.6495 92.4654 15.713 92.3878 15.713H89.7972C89.7639 15.713 89.7317 15.7011 89.7064 15.6793L89.6854 15.6613C89.6465 15.628 89.6285 15.5761 89.6384 15.5255C89.6483 15.475 89.6844 15.4339 89.7329 15.418L92.229 14.6007ZM92.1764 14.9163L90.6105 15.4291H92.2474V15.4124L92.2445 15.3833C92.2441 15.3787 92.2439 15.3741 92.2439 15.3694V15.3541L92.2409 15.3329L92.2382 15.3037L92.236 15.2924C92.2351 15.2879 92.2345 15.2834 92.234 15.2789L92.2305 15.2429C92.2301 15.2383 92.2299 15.2336 92.2299 15.229V15.2226L92.2247 15.1907C92.2235 15.1832 92.2229 15.1755 92.2229 15.1678V15.1568L92.2207 15.1345L92.2176 15.1187L92.2109 15.0769L92.201 15.0225L92.1914 14.9761L92.1787 14.924L92.1764 14.9163Z" fill="black"/>
<path opacity="0.6" fill-rule="evenodd" clip-rule="evenodd" d="M92.5262 7.87679C92.5602 7.86127 92.599 7.86012 92.6339 7.87358L92.7769 7.92871L92.9169 7.98635C92.9205 7.98785 92.9241 7.9895 92.9276 7.99131L92.9454 8.00044L93.0607 8.05235L93.0803 8.06262L93.2147 8.1281L93.372 8.20905L93.4818 8.26931L93.5208 8.29283L93.6114 8.34126L93.6525 8.36615L93.7568 8.42692C93.7597 8.42864 93.7626 8.43047 93.7655 8.43241L93.7842 8.44523L94.0386 8.60515L94.0595 8.61964L94.1645 8.69165L94.1871 8.7071L94.4314 8.87941L94.4554 8.89587L94.5596 8.97251L94.5935 9.00072L94.6696 9.06119C94.6743 9.06493 94.6788 9.06897 94.683 9.07328L94.753 9.14529C94.8025 9.19616 94.8069 9.27623 94.7634 9.33237L89.9227 15.5763L89.9006 15.6188C89.8661 15.6853 89.7865 15.7132 89.7188 15.6825C89.6511 15.6518 89.6186 15.5732 89.6448 15.503L92.4524 7.95625C92.4656 7.9209 92.4921 7.8923 92.5262 7.87679ZM90.2421 14.704L94.4637 9.25867L94.4171 9.2217L94.3851 9.19534L94.2921 9.12697L94.2714 9.1128L94.0271 8.9405L94.0069 8.92663L93.9019 8.85462L93.8832 8.8418L93.7595 8.76407L93.6287 8.68189L93.612 8.6703L93.5099 8.61078L93.4709 8.58735L93.3803 8.53891L93.3407 8.51495L93.2397 8.45955L93.0887 8.38188L92.9543 8.31641L92.9365 8.30725L92.8212 8.25534L92.8055 8.24708L92.6724 8.19231L92.6656 8.18971L90.2421 14.704Z" fill="black"/>
<path opacity="0.6" fill-rule="evenodd" clip-rule="evenodd" d="M87.4114 4.91149C87.4868 4.89486 87.5614 4.94293 87.5783 5.01908L89.8885 15.4158L89.8888 15.4174L89.913 15.5202C89.9281 15.5845 89.8973 15.6508 89.8387 15.6801C89.7801 15.7095 89.7092 15.6941 89.6677 15.643L82.9567 7.37256C82.9077 7.31225 82.9161 7.22332 82.9754 7.17342L83.1306 7.0428L83.3276 6.88071L83.4444 6.79253L83.4817 6.76189L83.6037 6.66973L83.9289 6.43716L84.051 6.35466L84.0973 6.32295L84.2258 6.24228L84.2671 6.21755L84.445 6.10777L84.6212 6.00638L84.8404 5.88277L84.9799 5.80725L85.0235 5.78677L85.1986 5.69673L85.3789 5.60776L85.6099 5.50554L85.7517 5.44726L85.9801 5.35693L86.1697 5.28336L86.4064 5.19983L86.5486 5.15233L86.5955 5.1375L86.7869 5.07919L86.9777 5.02472L87.2176 4.95941L87.3623 4.92221L87.4114 4.91149ZM89.5078 14.9982L87.3355 5.22207L87.2878 5.23434L87.0515 5.29866L86.8645 5.3521L86.6773 5.40913L86.6336 5.42297L86.4957 5.46905L86.2643 5.55076L86.0816 5.62166L86.0808 5.62199L85.855 5.71133L85.7175 5.76786L85.4943 5.86675L85.3229 5.95137L85.1449 6.04289L85.1028 6.06284L84.974 6.13251L84.7586 6.25402L84.586 6.35345L84.4112 6.46128L84.3705 6.48572L84.248 6.56267L84.2076 6.59042L84.0866 6.67218L83.8465 6.84392L83.7675 6.90044L83.6523 6.9876L83.6151 7.01824L83.4983 7.10642L83.3085 7.26252L83.2623 7.30146L89.5078 14.9982Z" fill="black"/>
<path opacity="0.56" fill-rule="evenodd" clip-rule="evenodd" d="M89.8992 15.483C89.9344 15.5468 89.916 15.6272 89.8566 15.6688L85.5296 18.7005C85.4978 18.7227 85.4585 18.7307 85.4207 18.7227C85.3829 18.7147 85.3501 18.6913 85.3299 18.6581L85.3135 18.631L85.2703 18.5645L85.2529 18.5357L85.2165 18.4759L85.1962 18.441L85.1605 18.3823L85.138 18.3437L85.1104 18.2938L85.0855 18.25L85.0578 18.2002L85.0065 18.1097L84.9749 18.0484L84.9543 18.0021L84.9298 17.9481C84.8981 17.8781 84.9273 17.7953 84.9956 17.7614L89.6714 15.4435L89.7204 15.422C89.7867 15.3928 89.864 15.4192 89.8992 15.483ZM85.4897 18.3829L88.175 16.5015L85.2434 17.9548L85.2541 17.9754L85.3024 18.0606L85.3301 18.1105L85.355 18.1542L85.3822 18.2033L85.4018 18.2369L85.4375 18.2956L85.4579 18.3305L85.4897 18.3829Z" fill="black"/>
<path opacity="0.6" fill-rule="evenodd" clip-rule="evenodd" d="M89.7969 15.4126C89.8573 15.4216 89.905 15.4689 89.9151 15.5297L91.0108 22.1691C91.0236 22.2463 90.9721 22.3194 90.8958 22.3324L90.7697 22.354C90.762 22.3554 90.7541 22.356 90.7463 22.356H90.7312L90.6369 22.369L90.6356 22.3692L90.6065 22.3734L90.5014 22.3841C90.4967 22.3846 90.492 22.3848 90.4872 22.3848H90.4698L90.3749 22.3946L90.3534 22.3978C90.3498 22.3983 90.3463 22.3987 90.3427 22.3989L90.2377 22.4061C90.2345 22.4063 90.2313 22.4064 90.2281 22.4064H90.2084L90.1081 22.4133C90.105 22.4135 90.1018 22.4136 90.0986 22.4136H90.0493L89.9691 22.4174L89.5792 22.4172L89.4766 22.4136H89.4545C89.4513 22.4136 89.4481 22.4135 89.445 22.4133L89.3447 22.4064H89.3249C89.3218 22.4064 89.3186 22.4063 89.3154 22.4061L89.1101 22.392H89.0379C89.0314 22.392 89.025 22.3916 89.0186 22.3907L88.942 22.38L88.8895 22.3728L88.8216 22.3632H88.7788C88.7724 22.3632 88.7659 22.3628 88.7595 22.3619L88.6825 22.3511L88.6816 22.351L88.6272 22.343L88.5458 22.3276L88.499 22.3173L88.4198 22.3024L88.3718 22.2918L88.2677 22.2704C88.2307 22.2628 88.1983 22.2404 88.1778 22.2084C88.1573 22.1764 88.1504 22.1374 88.1587 22.1002L89.601 15.6012C89.6034 15.5903 89.6071 15.5797 89.612 15.5697L89.6505 15.4905C89.6774 15.4351 89.7366 15.4037 89.7969 15.4126ZM88.464 22.0215L88.4775 22.0245L88.5567 22.0393L88.6035 22.0497L88.6757 22.0632L88.7211 22.0699L88.722 22.07L88.7885 22.0793H88.8313C88.8378 22.0793 88.8442 22.0798 88.8506 22.0807L88.9272 22.0914L88.9797 22.0986L89.0476 22.1081H89.1149C89.1181 22.1081 89.1212 22.1082 89.1244 22.1084L89.3297 22.1225H89.3495C89.3526 22.1225 89.3558 22.1226 89.359 22.1228L89.4592 22.1297H89.4837L89.5864 22.1333H89.9658L90.0461 22.1296L90.0939 22.1297L90.1941 22.1228C90.1973 22.1226 90.2005 22.1225 90.2036 22.1225H90.2234L90.3183 22.116L90.3435 22.1123L90.4485 22.1016C90.4532 22.1012 90.458 22.1009 90.4627 22.1009H90.4801L90.575 22.0912L90.5979 22.0878L90.7029 22.0734C90.7053 22.0731 90.7077 22.0728 90.7101 22.0726L89.7473 16.2389L88.464 22.0215Z" fill="black"/>
<path opacity="0.6" fill-rule="evenodd" clip-rule="evenodd" d="M89.6752 15.4545C89.7255 15.4018 89.8071 15.3965 89.8637 15.4421L98.1116 22.085C98.1719 22.1336 98.1822 22.2221 98.1347 22.2835L98.0122 22.4419L97.8688 22.6263L97.7375 22.783L97.5853 22.9582L97.4462 23.101L97.2911 23.2641L97.1488 23.4104L96.985 23.5715L96.8362 23.7099L96.6658 23.8632L96.5141 23.9938L96.3985 24.091C96.3693 24.1156 96.3316 24.1272 96.2938 24.1231C96.256 24.119 96.2215 24.0997 96.1981 24.0694L89.7375 15.7258L89.6694 15.6453C89.6224 15.5897 89.6249 15.5071 89.6752 15.4545ZM90.6392 16.4297L96.3301 23.7792L96.3331 23.7766L96.4825 23.648L96.6485 23.4986L96.7933 23.364L96.9518 23.208L97.0896 23.0662L97.0907 23.0651L97.2448 22.9031L97.382 22.7619L97.5256 22.5967L97.6527 22.4448L97.7909 22.2671L97.8277 22.2194L90.6392 16.4297Z" fill="black"/>
</svg>
