<svg width="538" height="131" viewBox="0 0 538 131" fill="none" xmlns="http://www.w3.org/2000/svg">
<g clip-path="url(#clip0)">
<path d="M256.242 81H307.969V117.295C305.191 120.131 302.404 122.957 299.611 125.776H248V89.3727C250.736 86.5713 253.496 83.7909 256.242 81Z" fill="#41CD52"/>
<path d="M263.884 90.4215C265.848 89.0994 268.277 88.7652 270.586 88.7863C272.785 88.8141 275.093 89.2064 276.915 90.5417C278.239 91.4887 279.1 92.9509 279.674 94.4633C280.602 96.9464 280.874 99.6277 280.905 102.267C280.909 104.924 280.791 107.64 279.927 110.172C279.348 111.894 278.246 113.424 276.792 114.486C277.838 116.211 278.905 117.923 279.951 119.648C278.636 120.264 277.325 120.885 276.009 121.499C274.889 119.618 273.774 117.734 272.65 115.855C271.13 116.109 269.575 116.089 268.047 115.917C266.217 115.694 264.352 115.126 262.939 113.873C261.854 112.917 261.173 111.579 260.707 110.218C259.944 107.917 259.739 105.468 259.703 103.054C259.685 100.444 259.849 97.7931 260.622 95.2888C261.221 93.4053 262.211 91.5257 263.884 90.4215Z" fill="white"/>
<path d="M286.18 90.3369C287.555 90.3356 288.931 90.3356 290.307 90.3369C290.311 92.1887 290.306 94.0392 290.31 95.891C292.069 95.8937 293.828 95.891 295.586 95.8923C295.556 97.0943 295.524 98.2963 295.49 99.4982C293.733 99.5022 291.977 99.4969 290.219 99.5009C290.223 102.536 290.21 105.571 290.226 108.607C290.259 109.437 290.241 110.314 290.601 111.082C290.863 111.674 291.569 111.826 292.144 111.845C293.228 111.841 294.31 111.777 295.394 111.757C295.46 112.861 295.524 113.967 295.586 115.071C293.43 115.439 291.168 115.88 289.026 115.191C288.124 114.919 287.283 114.31 286.917 113.403C286.261 111.859 286.208 110.14 286.18 108.483C286.177 105.488 286.18 102.495 286.178 99.5009C285.219 99.4982 284.26 99.5022 283.301 99.4982C283.298 98.2976 283.298 97.0956 283.301 95.8937C284.26 95.8897 285.218 95.895 286.177 95.891C286.181 94.0392 286.176 92.1887 286.18 90.3369Z" fill="white"/>
<path d="M268.835 92.5837C270.171 92.4067 271.573 92.4542 272.837 92.968C273.861 93.3801 274.731 94.1872 275.19 95.2095C275.895 96.7588 276.165 98.4693 276.301 100.159C276.449 102.407 276.429 104.676 276.123 106.911C275.909 108.241 275.604 109.642 274.719 110.691C273.821 111.744 272.436 112.195 271.107 112.301C269.705 112.405 268.226 112.301 266.961 111.626C266.222 111.226 265.595 110.598 265.229 109.83C264.785 108.909 264.541 107.904 264.37 106.898C263.853 103.706 263.729 100.404 264.435 97.2317C264.725 96.035 265.149 94.8066 266.008 93.9045C266.756 93.1318 267.797 92.7329 268.835 92.5837Z" fill="#41CD52"/>
</g>
<path d="M50.5127 11.4682C50.5127 11.3688 50.4854 11.2978 50.4292 11.2514C50.367 11.2014 50.2594 11.1747 50.1096 11.1747H49.8943V11.7654H50.1542C50.3942 11.7654 50.5127 11.6661 50.5127 11.4682ZM50.8485 12.6998H50.5526L50.3638 12.2842C50.268 12.0759 50.1655 11.9718 50.0536 11.9718H49.8943V12.6998H49.6504V10.9674H50.139C50.3563 10.9674 50.5193 11.0144 50.6313 11.1123C50.7262 11.1965 50.7736 11.3045 50.7736 11.4389C50.7736 11.5582 50.7349 11.6585 50.6569 11.7417C50.581 11.826 50.4719 11.8828 50.3325 11.9122V11.9197C50.4293 11.9424 50.526 12.0485 50.6199 12.2397L50.8485 12.7007V12.6998ZM51.3892 11.8506C51.3892 11.5099 51.2726 11.2221 51.0401 10.9939C50.8068 10.7658 50.5222 10.6513 50.1864 10.6513C49.8401 10.6513 49.5518 10.7658 49.3232 10.9959C49.0945 11.2268 48.9808 11.5126 48.9808 11.8506C48.9808 12.1962 49.0993 12.4849 49.3346 12.7149C49.567 12.9449 49.8516 13.0585 50.1864 13.0585C50.5193 13.0585 50.8039 12.944 51.0382 12.7111C51.2726 12.482 51.3892 12.1943 51.3892 11.8506ZM51.5533 11.8431C51.5533 12.2256 51.4215 12.5465 51.1569 12.8049C50.8922 13.0653 50.5677 13.1949 50.1797 13.1949C49.789 13.1949 49.4646 13.0672 49.2065 12.8163C48.9485 12.5617 48.8204 12.2417 48.8204 11.8536C48.8204 11.474 48.9513 11.155 49.2131 10.8928C49.475 10.6315 49.8013 10.5009 50.1912 10.5009C50.5734 10.5009 50.8941 10.6259 51.154 10.8748C51.4205 11.1304 51.5533 11.4522 51.5533 11.8431Z" fill="black"/>
<path d="M14.4508 16.6737H13.6094V11.8686C13.6094 11.4891 13.6345 11.0271 13.6793 10.4819H13.6603C13.5815 10.8009 13.5094 11.0318 13.4459 11.1748L11.0004 16.6737H10.5906L8.1403 11.2146C8.07124 11.0621 7.999 10.8169 7.92592 10.4819H7.90771C7.93351 10.7687 7.94793 11.2335 7.94793 11.8781V16.6737H7.13683V9.51822H8.2467L10.4466 14.5079C10.6125 14.8837 10.7198 15.1696 10.7719 15.3646H10.8068C10.95 14.9736 11.0638 14.6801 11.1502 14.487L13.3974 9.51822H14.4504V16.6737H14.4508Z" fill="black"/>
<path d="M17.039 16.6735H16.2214V11.5636H17.039V16.6735ZM17.1804 9.73186C17.1804 9.8824 17.1273 10.0083 17.0219 10.1115C16.9186 10.2146 16.7905 10.2667 16.6406 10.2667C16.4945 10.2667 16.3674 10.2167 16.2631 10.1172C16.1588 10.0168 16.1075 9.889 16.1075 9.73186C16.1075 9.58419 16.1591 9.45832 16.2631 9.35609C16.3674 9.25385 16.4945 9.20464 16.6406 9.20464C16.7905 9.20464 16.9186 9.25385 17.0219 9.35609C17.1273 9.45832 17.1804 9.58419 17.1804 9.73186Z" fill="black"/>
<path d="M22.149 16.4371C21.7563 16.6775 21.2877 16.7968 20.746 16.7968C20.0119 16.7968 19.4209 16.5536 18.9693 16.0679C18.5311 15.5965 18.3101 14.9878 18.3101 14.2419C18.3101 13.405 18.55 12.7273 19.0338 12.2123C19.5148 11.6964 20.1618 11.4389 20.9757 11.4389C21.4205 11.4389 21.8152 11.526 22.1604 11.6983V12.538C21.7782 12.27 21.3741 12.1375 20.9405 12.1375C20.4188 12.1375 19.9948 12.3193 19.6656 12.6819C19.3231 13.0529 19.1496 13.549 19.1496 14.1681C19.1496 14.7625 19.308 15.233 19.6229 15.5804C19.9388 15.9259 20.3591 16.0992 20.8893 16.0992C21.337 16.0992 21.7563 15.9524 22.149 15.6599V16.4371Z" fill="black"/>
<path d="M26.0602 12.3926C25.916 12.2819 25.7083 12.2279 25.4341 12.2279C25.1012 12.2279 24.8213 12.3766 24.5947 12.6766C24.3375 13.0117 24.2095 13.4756 24.2095 14.0682V16.6733H23.3899V11.5634H24.2095V12.617H24.2292C24.3498 12.2441 24.5357 11.9572 24.7842 11.7537C25.0166 11.5682 25.2794 11.4744 25.5687 11.4744C25.7869 11.4744 25.9491 11.4979 26.06 11.5441V12.3923L26.0602 12.3926Z" fill="black"/>
<path d="M30.6282 14.1278C30.6282 13.4738 30.4802 12.9739 30.1842 12.6312C29.8968 12.3018 29.4955 12.1371 28.9786 12.1371C28.4691 12.1371 28.0603 12.3037 27.7548 12.6369C27.4313 12.9929 27.2701 13.4955 27.2701 14.1478C27.2701 14.7593 27.4238 15.2392 27.734 15.5819C28.0422 15.9264 28.4578 16.0987 28.9786 16.0987C29.5174 16.0987 29.93 15.9236 30.2127 15.5753C30.4897 15.2345 30.6282 14.7526 30.6282 14.1278ZM31.4687 14.0991C31.4687 14.9132 31.2382 15.5673 30.779 16.0577C30.318 16.5499 29.6976 16.796 28.9179 16.796C28.1495 16.796 27.5376 16.5499 27.089 16.0577C26.6497 15.5834 26.4287 14.9567 26.4287 14.1777C26.4287 13.2887 26.6782 12.6034 27.179 12.1168C27.6419 11.6653 28.2614 11.4381 29.0374 11.4381C29.801 11.4381 30.3977 11.6757 30.8274 12.1462C31.2534 12.6195 31.4687 13.2708 31.4687 14.0991Z" fill="black"/>
<path d="M35.5333 15.3064C35.5333 15.7248 35.3768 16.0713 35.0628 16.3477C34.7204 16.6468 34.2499 16.7964 33.658 16.7964C33.1732 16.7964 32.7482 16.6952 32.3877 16.4888V15.6094C32.789 15.935 33.232 16.0988 33.7187 16.0988C34.3675 16.0988 34.6929 15.8602 34.6929 15.385C34.6929 15.1852 34.6215 15.0196 34.4776 14.8918C34.3333 14.7612 34.0535 14.605 33.6371 14.4223C33.2083 14.2348 32.9028 14.0427 32.7226 13.843C32.5063 13.6063 32.3972 13.2987 32.3972 12.92C32.3972 12.4959 32.567 12.1428 32.9028 11.8617C33.2396 11.5796 33.6722 11.4385 34.2034 11.4385C34.6104 11.4385 34.9746 11.518 35.2981 11.678V12.5016C34.9604 12.2583 34.5743 12.1371 34.136 12.1371C33.8648 12.1371 33.6466 12.2045 33.4843 12.3359C33.3203 12.4703 33.2377 12.6417 33.2377 12.8509C33.2377 13.0772 33.3067 13.2532 33.4436 13.3791C33.565 13.4956 33.823 13.6376 34.2119 13.8032C34.6492 13.9859 34.9651 14.1753 35.1577 14.3693C35.4072 14.6145 35.5333 14.9269 35.5333 15.3064Z" fill="black"/>
<path d="M40.5423 14.1278C40.5423 13.4738 40.3943 12.9739 40.0974 12.6312C39.8109 12.3018 39.4087 12.1371 38.8927 12.1371C38.3832 12.1371 37.9744 12.3037 37.6671 12.6369C37.3445 12.9929 37.1842 13.4955 37.1842 14.1478C37.1842 14.7593 37.3379 15.2392 37.6452 15.5819C37.9574 15.9264 38.3728 16.0987 38.8927 16.0987C39.4324 16.0987 39.8441 15.9236 40.1268 15.5753C40.4038 15.2345 40.5423 14.7526 40.5423 14.1278ZM41.3846 14.0991C41.3846 14.9132 41.1523 15.5673 40.6921 16.0577C40.233 16.5499 39.6126 16.796 38.8329 16.796C38.0636 16.796 37.4517 16.5499 37.003 16.0577C36.5638 15.5834 36.3428 14.9567 36.3428 14.1777C36.3428 13.2887 36.5942 12.6034 37.0922 12.1168C37.5551 11.6653 38.1755 11.4381 38.9524 11.4381C39.7161 11.4381 40.3118 11.6757 40.7406 12.1462C41.1674 12.6195 41.3846 13.2708 41.3846 14.0991Z" fill="black"/>
<path d="M44.9963 9.82736C44.835 9.73838 44.6557 9.69294 44.4517 9.69294C43.8778 9.69294 43.5932 10.0535 43.5932 10.7759V11.5635H44.7933V12.2564H43.5932V16.6734H42.7727V12.2564H41.9019V11.5635H42.7727V10.7352C42.7727 10.1728 42.9454 9.73173 43.2964 9.41366C43.5971 9.13723 43.9651 9 44.4024 9C44.6558 9 44.8531 9.0303 44.9963 9.089V9.82736Z" fill="black"/>
<path d="M48.2312 16.622C48.0377 16.7328 47.7796 16.7877 47.4609 16.7877C46.5673 16.7877 46.1205 16.285 46.1205 15.2797V12.2571H45.2421V11.5632H46.1205V10.3166C46.3824 10.2342 46.6546 10.1443 46.942 10.0515V11.5632H48.2312V12.2571H46.942V15.1406C46.942 15.4833 46.9982 15.7284 47.1156 15.8704C47.2342 16.0172 47.4277 16.0891 47.7009 16.0891C47.9049 16.0891 48.0813 16.0346 48.2312 15.9244V16.622Z" fill="black"/>
<path d="M3.92362 36.6167C3.92362 37.0171 3.78042 37.3636 3.49105 37.6561C3.20268 37.9477 2.8526 38.0944 2.44189 38.0944C2.04059 38.0944 1.69909 37.9477 1.41929 37.6561C1.13942 37.3636 1 37.0171 1 36.6167C1 36.205 1.13942 35.8575 1.41929 35.5698C1.69909 35.281 2.04059 35.1381 2.44189 35.1381C2.8526 35.1381 3.20268 35.283 3.49105 35.5755C3.78042 35.868 3.92362 36.2153 3.92362 36.6167Z" fill="black"/>
<path d="M19.6019 37.7935L9.89864 22.8397C9.67189 22.48 9.47647 22.089 9.3105 21.6621H9.23074C9.2998 22.0625 9.33517 22.922 9.33517 24.2388V37.7935H7.13151V19.0323H9.9916L19.4046 33.7505C19.7794 34.3345 20.0354 34.7529 20.1654 35.0047H20.2178C20.1305 34.4652 20.085 33.5451 20.085 32.2463V19.0323H22.2753V37.7935H19.6019Z" fill="black"/>
<path d="M36.4023 37.7935H26.4381V19.0323H35.9697V21.0203H28.6398V27.2613H35.4319V29.2502H28.6398V35.8047H36.4023V37.7935Z" fill="black"/>
<path d="M51.5161 21.0205H46.1006V37.7938H43.8979V21.0205H38.4719V19.0317H51.5161V21.0205Z" fill="black"/>
<path d="M116.172 35.2303H115.546V37.1758H115.29V35.2303H114.662V34.9988H116.172V35.2303Z" fill="black"/>
<path d="M118.732 37.1746H118.478V35.7127C118.478 35.5974 118.487 35.4562 118.499 35.2901C118.473 35.3895 118.451 35.4585 118.431 35.5025L117.69 37.1746H117.566L116.823 35.515C116.801 35.4689 116.78 35.3941 116.756 35.2901H116.747C116.756 35.3778 116.759 35.5195 116.759 35.7161V37.1746H116.515V34.9976H116.852L117.519 36.5171C117.57 36.6312 117.601 36.7193 117.617 36.7781H117.627C117.671 36.6583 117.708 36.569 117.732 36.5103L118.413 34.9976H118.734V37.1746H118.732Z" fill="black"/>
<path d="M82.2483 15.6108C84.7788 23.3532 85.7375 37.1649 93.1372 37.1649C93.7007 37.1649 94.2698 37.1098 94.8412 37.0011C88.1145 35.4318 87.3173 21.7703 83.2126 14.6956C82.8908 14.9882 82.5712 15.2933 82.2483 15.6108Z" fill="url(#paint0_linear)"/>
<path d="M83.2169 14.6959C87.3216 21.7706 88.1188 35.4321 94.8455 37.0014C95.3739 36.9042 95.9035 36.7573 96.4343 36.572C90.3964 33.612 88.7274 20.346 84.0661 13.9592C83.7838 14.1943 83.5004 14.4406 83.2169 14.6959Z" fill="url(#paint1_linear)"/>
<path d="M89.1275 10.4883C88.5651 10.4883 87.9949 10.5434 87.4224 10.6522C85.9251 10.9346 84.4041 11.5797 82.8706 12.5558C83.2895 12.9693 83.6881 13.4426 84.063 13.959C85.6224 12.6643 87.1717 11.7074 88.7154 11.1323C89.2946 10.9176 89.8717 10.7561 90.4509 10.6499C90.0331 10.5436 89.5927 10.4883 89.1275 10.4883Z" fill="#14559A"/>
<path d="M101.144 33.8432C101.762 33.3518 102.381 32.8084 103.001 32.2153C100.429 24.5089 99.5092 10.4995 92.0576 10.4995C91.5246 10.4995 90.9871 10.5492 90.4507 10.6487C97.2383 12.3377 98.1078 27.1131 101.144 33.8432Z" fill="url(#paint2_linear)"/>
<path d="M90.451 10.6495C90.0332 10.5433 89.5928 10.488 89.1276 10.488L92.0579 10.4988C91.5249 10.4988 90.9874 10.5485 90.451 10.6491" fill="#3092C4"/>
<path d="M101.014 35.4804C100.723 35.2025 100.446 34.8974 100.174 34.572C98.9208 35.46 97.6719 36.1334 96.4309 36.5717C96.8724 36.7876 97.3353 36.948 97.8266 37.0474C98.2071 37.1252 98.6012 37.1649 99.0156 37.1649C100.408 37.1649 101.509 37 102.446 36.5503C101.93 36.2712 101.457 35.9097 101.014 35.4804Z" fill="#1969BC"/>
<path d="M88.7145 11.1332C94.7941 14.3146 95.3226 28.7218 100.174 34.5718C100.499 34.3425 100.821 34.0996 101.143 33.843C98.1061 27.1129 97.2377 12.3363 90.4512 10.6484C89.8719 10.7569 89.2938 10.9174 88.7145 11.1332Z" fill="url(#paint3_linear)"/>
<path d="M84.064 13.9596C88.7253 20.3463 90.3943 33.6123 96.4322 36.5724C97.6732 36.134 98.9221 35.4607 100.175 34.5727C95.3244 28.7226 94.796 14.3155 88.7163 11.134C87.1727 11.708 85.6234 12.6648 84.064 13.9596Z" fill="url(#paint4_linear)"/>
<path d="M79.2695 15.4246C78.5389 17.0775 77.7925 19.2501 76.8903 22.0858C78.6846 19.5562 80.4732 17.3769 82.2517 15.6111C82.0067 14.8575 81.7436 14.1627 81.4602 13.5435C80.733 14.1005 80.0001 14.7275 79.2695 15.4246Z" fill="url(#paint5_linear)"/>
<path d="M82.1072 13.0669C81.8925 13.2205 81.6767 13.3776 81.4598 13.5437C81.7434 14.1628 82.0055 14.8577 82.2507 15.6112C82.5737 15.2948 82.8946 14.9887 83.2154 14.6961C82.8709 14.104 82.5049 13.5572 82.1072 13.0669Z" fill="#2B74B1"/>
<path d="M82.874 12.5557C82.6188 12.7173 82.3648 12.8878 82.1084 13.0663C82.5059 13.5567 82.8717 14.1035 83.2173 14.6967C83.5007 14.4402 83.7841 14.1928 84.0665 13.9589C83.6916 13.4426 83.293 12.9692 82.874 12.5557Z" fill="#125A9E"/>
<path d="M124.34 9.89838C120.901 23.1655 113.719 33.8217 107.698 36.5083H107.687C107.578 36.558 107.469 36.6032 107.362 36.6472C107.347 36.6562 107.334 36.6573 107.322 36.6627C107.291 36.6754 107.261 36.6853 107.23 36.6979C107.215 36.7069 107.202 36.7098 107.188 36.7152C107.137 36.7333 107.087 36.7486 107.038 36.7685C107.016 36.7774 106.996 36.783 106.976 36.7902C106.953 36.7992 106.927 36.8074 106.901 36.8146C106.879 36.8236 106.855 36.8301 106.829 36.8399C106.807 36.8489 106.785 36.8527 106.765 36.8616C106.72 36.8744 106.68 36.8851 106.636 36.9005C106.618 36.9005 106.601 36.9103 106.582 36.915C106.554 36.924 106.524 36.9305 106.495 36.9385C106.474 36.9475 106.457 36.9504 106.436 36.9549C106.405 36.9638 106.371 36.9721 106.341 36.9793C106.3 36.9882 106.264 36.9965 106.226 37.0046C106.498 37.1052 106.781 37.156 107.087 37.156C112.797 37.156 118.553 26.919 128.078 9.89526H124.338L124.34 9.89838Z" fill="url(#paint6_linear)"/>
<path d="M75.649 11.0297C75.6526 11.0297 75.6571 11.0207 75.6593 11.0207C75.6638 11.0207 75.6707 11.0207 75.6729 11.0117C75.6729 11.0117 75.6774 11.0117 75.6801 11.0117C75.7117 11.001 75.7411 10.9883 75.7727 10.9765C75.7807 10.9765 75.785 10.9765 75.7908 10.9676C75.7989 10.9676 75.8067 10.9586 75.8146 10.9575C75.8484 10.9467 75.8823 10.934 75.9139 10.9222C75.9139 10.9222 75.9175 10.9222 75.9193 10.9222C75.995 10.8997 76.065 10.8716 76.1384 10.8454C76.1487 10.8454 76.1587 10.8365 76.1711 10.8365C76.2016 10.8266 76.2332 10.8157 76.2648 10.8085C76.2796 10.7995 76.2942 10.7995 76.3077 10.7948C76.3404 10.785 76.3721 10.774 76.4026 10.7668C76.4162 10.7668 76.4286 10.7578 76.4387 10.7569C76.5437 10.728 76.6476 10.7009 76.7526 10.6756C76.7674 10.6756 76.7797 10.6666 76.7955 10.6657C76.826 10.6568 76.8543 10.6521 76.887 10.6476C76.9006 10.6386 76.9164 10.6387 76.9322 10.634C76.9626 10.625 76.992 10.6241 77.0248 10.6167C77.0328 10.6167 77.0371 10.6167 77.0462 10.6167C77.1095 10.604 77.1738 10.5932 77.2371 10.5815C77.2485 10.5815 77.263 10.5815 77.2755 10.5815C77.3059 10.5725 77.333 10.5716 77.3636 10.566C77.3803 10.566 77.3974 10.5571 77.4132 10.5571C77.4414 10.5571 77.4697 10.5481 77.4979 10.5443C77.5126 10.5443 77.5272 10.5443 77.5442 10.5354C77.6108 10.5264 77.6797 10.5228 77.7497 10.5172C77.5521 10.4982 77.3489 10.4856 77.1422 10.4856C70.7125 10.4856 61.8539 22.4218 57.8633 37.8796C57.8633 37.8796 58.1546 37.8796 58.6323 37.8796C59.9094 35.6009 61.0567 33.4452 62.1057 31.4217C64.9005 20.4729 70.5928 13.0061 75.6494 11.0279" fill="url(#paint7_linear)"/>
<path d="M79.2686 15.4244C79.9992 14.7274 80.732 14.1003 81.4592 13.5434C81.2933 13.1796 81.1216 12.8429 80.9375 12.5344C80.3492 13.2484 79.8117 14.1907 79.2686 15.4244Z" fill="#0D82CA"/>
<path d="M79.7964 11.1165C80.2167 11.469 80.5929 11.9537 80.9375 12.5344C81.046 12.4011 81.1556 12.2779 81.2697 12.1627C80.7918 11.7164 80.2755 11.3504 79.7151 11.0747C79.7377 11.0872 79.7603 11.0973 79.7838 11.1072C79.7838 11.1072 79.7927 11.1162 79.7965 11.1162" fill="#0D82CA"/>
<path d="M62.106 31.42C67.9688 20.1164 70.7466 12.9626 75.6497 11.0261C70.5942 13.0056 64.9007 20.4723 62.106 31.42Z" fill="url(#paint8_linear)"/>
<path d="M81.269 12.1631C81.1549 12.2796 81.0464 12.4017 80.9366 12.5351C81.121 12.8437 81.2928 13.1795 81.4602 13.5447C81.6772 13.3785 81.8932 13.2214 82.108 13.0676C81.8423 12.7397 81.5619 12.4356 81.269 12.1631Z" fill="#127BCA"/>
<path d="M64.7657 37.8269C64.7296 37.8359 64.6934 37.8359 64.6596 37.8397C64.6483 37.8397 64.646 37.8397 64.6392 37.8397C64.6087 37.8397 64.5771 37.8486 64.5489 37.8486C64.5489 37.8486 64.5376 37.8486 64.5342 37.8486C64.4608 37.8576 64.3885 37.8576 64.3185 37.8632H64.2959C70.2299 37.697 72.9422 34.7245 74.2883 30.4132C75.3113 27.1448 76.1514 24.3914 76.8877 22.0811C74.4023 25.5812 71.9056 29.7534 69.3954 34.4274C68.1849 36.6802 66.3443 37.6213 64.7657 37.8225" fill="url(#paint9_linear)"/>
<path d="M64.7651 37.825C66.3438 37.6238 68.1844 36.6839 69.3949 34.43C71.9051 29.7571 74.4029 25.5837 76.886 22.0836C77.7894 19.2466 78.5347 17.0753 79.2664 15.4224C74.3171 20.1359 69.3486 27.9733 64.7651 37.8228" fill="url(#paint10_linear)"/>
<path d="M62.1063 31.4199C61.0573 33.4434 59.91 35.5991 58.6328 37.8778C59.185 37.8778 59.9845 37.8778 60.8698 37.8778C61.1657 35.6148 61.5857 33.4569 62.1063 31.421" fill="#05A1E6"/>
<path d="M77.5459 10.5379C77.5278 10.5379 77.5143 10.5469 77.4985 10.5469C77.4714 10.5559 77.4431 10.5559 77.4149 10.5588C77.3981 10.5588 77.3822 10.5588 77.3652 10.5677C77.3347 10.5767 77.3065 10.5776 77.2772 10.5832C77.2635 10.5832 77.2501 10.5832 77.2388 10.5921C77.1743 10.6029 77.1112 10.6147 77.0479 10.6256C77.0367 10.6256 77.0332 10.6256 77.0264 10.6256C76.9937 10.6345 76.9643 10.6392 76.9339 10.6437C76.918 10.6526 76.9022 10.6526 76.8875 10.6562C76.8571 10.6652 76.8265 10.669 76.7972 10.6744C76.7813 10.6833 76.769 10.6833 76.7543 10.6842C76.6493 10.7095 76.5454 10.7366 76.4403 10.7655C76.4291 10.7655 76.4178 10.7745 76.4042 10.7763C76.3726 10.7852 76.3421 10.7944 76.3094 10.8043C76.2957 10.8133 76.28 10.8132 76.2665 10.8168C76.2348 10.8258 76.2032 10.835 76.1727 10.8449C76.1604 10.8449 76.1501 10.8538 76.1389 10.8538C76.0666 10.8809 75.9954 10.908 75.9209 10.9306C75.8893 10.9405 75.8554 10.9532 75.8215 10.965C75.8079 10.9739 75.7955 10.9759 75.7798 10.9822C75.7482 10.992 75.7166 11.0048 75.6872 11.0166C75.676 11.0255 75.6646 11.0264 75.6568 11.0311C70.7538 12.9676 67.9759 20.1214 62.1131 31.425C61.5925 33.4609 61.1713 35.6188 60.8766 37.8817H61.1905C62.0747 37.8817 62.3242 37.8728 63.3417 37.8728H63.3936H63.5449H63.5969H63.6116H63.6635H63.6929H63.7132H63.7538H63.8803H64.0068H64.1129H64.1411C64.2021 37.8728 64.2642 37.8728 64.3274 37.8728C64.3974 37.8638 64.4697 37.8638 64.5431 37.8582C64.5431 37.8582 64.5544 37.8582 64.5567 37.8582C64.5872 37.8582 64.6177 37.8493 64.647 37.8493C64.6583 37.8493 64.6594 37.8493 64.6684 37.8493C64.7011 37.8493 64.7384 37.8403 64.7746 37.8365C69.358 27.987 74.3265 20.1496 79.2758 15.4361C79.8201 14.2024 80.3565 13.2601 80.9437 12.5473C80.6004 11.9666 80.2244 11.4808 79.8043 11.1282C79.8043 11.1282 79.7929 11.1282 79.792 11.1192C79.7682 11.1094 79.7458 11.0975 79.722 11.0858C79.6982 11.0731 79.6779 11.0632 79.6531 11.0505C79.6317 11.0416 79.6068 11.0297 79.5854 11.018C79.5561 11.0091 79.5323 10.9963 79.5064 10.9845C79.4849 10.9756 79.4657 10.9664 79.4442 10.9574C79.4001 10.9402 79.3562 10.9222 79.3144 10.9032C79.2951 10.8943 79.2771 10.8896 79.259 10.8824C79.2285 10.8715 79.1935 10.8571 79.1619 10.8435C79.146 10.8346 79.128 10.8328 79.1099 10.8263C79.0637 10.8109 79.0185 10.7947 78.9755 10.7802C78.9643 10.7802 78.9644 10.7802 78.9644 10.7802C78.9124 10.763 78.8616 10.7504 78.8085 10.7359C78.7962 10.727 78.7859 10.727 78.7736 10.7252C78.7272 10.7124 78.6866 10.6998 78.6426 10.6881C78.6314 10.6881 78.6211 10.6792 78.6121 10.6792C78.506 10.6511 78.3965 10.6285 78.2858 10.6077C78.2744 10.6077 78.2632 10.5988 78.2519 10.5988C78.2045 10.5899 78.1582 10.5816 78.1108 10.5762C78.0994 10.5672 78.0927 10.5673 78.0826 10.5673C78.0261 10.5583 77.9708 10.5518 77.9154 10.5455C77.9043 10.5455 77.8962 10.5455 77.8861 10.5455C77.8409 10.5366 77.7992 10.5357 77.7574 10.531C77.6862 10.54 77.6185 10.5438 77.5518 10.55" fill="url(#paint11_linear)"/>
<path d="M110.908 17.2433C109.78 20.8587 108.866 23.8413 108.071 26.2952C111.166 22.0336 114.215 16.6727 117.118 10.4861C113.732 11.5502 111.925 13.9862 110.908 17.2433Z" fill="url(#paint12_linear)"/>
<path d="M108.17 36.2827C108.012 36.3631 107.854 36.4397 107.698 36.5086C113.719 33.822 120.9 23.1658 124.339 9.89868H123.642C115.742 24.0176 113.202 33.4695 108.17 36.2827Z" fill="url(#paint13_linear)"/>
<path d="M104.239 35.0967C105.548 33.4969 106.616 30.7776 108.072 26.2957C106.392 28.6049 104.7 30.59 103.008 32.209C103.008 32.2179 103.008 32.2179 102.999 32.2235C103.368 33.3307 103.773 34.3079 104.235 35.0965" fill="#079AE1"/>
<path d="M104.241 35.0964C103.795 35.641 103.323 36.0557 102.798 36.363C102.683 36.4299 102.567 36.4929 102.448 36.5505C103.002 36.8499 103.608 37.0499 104.285 37.1301C104.384 37.1399 104.483 37.1491 104.586 37.1563H104.604C104.65 37.1563 104.699 37.1563 104.748 37.1652H104.768C104.818 37.1652 104.868 37.1652 104.916 37.1652C104.969 37.1652 105.022 37.1652 105.075 37.1652C105.093 37.1652 105.109 37.1652 105.125 37.1652C105.161 37.1652 105.2 37.1652 105.238 37.1652C105.256 37.1652 105.275 37.1652 105.293 37.1563C105.328 37.1563 105.365 37.1563 105.401 37.1473C105.41 37.1473 105.41 37.1473 105.414 37.1473C105.429 37.1473 105.441 37.1473 105.455 37.1473C105.492 37.1473 105.533 37.1384 105.572 37.1346H105.581C105.593 37.1346 105.606 37.1256 105.617 37.1256C105.659 37.1167 105.702 37.1129 105.743 37.1066C105.756 37.1066 105.766 37.1066 105.78 37.1066C105.826 37.0976 105.874 37.0921 105.921 37.0831H105.93C105.939 37.0831 105.94 37.0831 105.944 37.0831C106.038 37.065 106.131 37.047 106.225 37.0235C105.448 36.7387 104.797 36.0676 104.237 35.1118" fill="#1969BC"/>
<path d="M93.1401 37.165C93.7036 37.165 94.2728 37.1098 94.8441 37C95.3726 36.904 95.9022 36.7571 96.4329 36.5718C96.8745 36.7876 97.3374 36.9481 97.8275 37.0475C98.208 37.1252 98.6032 37.165 99.0177 37.165H93.1401Z" fill="#1E5CB3"/>
<path d="M99.0152 37.1654C100.406 37.1654 101.508 37.0004 102.445 36.5508C102.999 36.8501 103.604 37.0501 104.282 37.1304C104.381 37.1402 104.479 37.1494 104.582 37.1566H104.6C104.646 37.1566 104.695 37.1566 104.745 37.1656H104.766C104.815 37.1656 104.865 37.1656 104.914 37.1656H99.0112L99.0152 37.1654Z" fill="#1E5CB3"/>
<path d="M104.919 37.165C104.973 37.165 105.026 37.165 105.079 37.165C105.095 37.165 105.113 37.165 105.129 37.165C105.165 37.165 105.202 37.165 105.241 37.165C105.26 37.165 105.278 37.165 105.296 37.1561C105.331 37.1561 105.368 37.156 105.405 37.1471C105.414 37.1471 105.414 37.1471 105.417 37.1471C105.432 37.1471 105.445 37.1471 105.459 37.1471C105.496 37.1471 105.536 37.1382 105.575 37.1346C105.575 37.1346 105.584 37.1346 105.585 37.1346C105.597 37.1346 105.608 37.1256 105.62 37.1256C105.662 37.1167 105.705 37.1131 105.746 37.1066C105.759 37.1066 105.77 37.1066 105.784 37.0976C105.83 37.0887 105.878 37.084 105.926 37.075H105.935C105.943 37.075 105.944 37.075 105.948 37.075C106.043 37.0569 106.136 37.0389 106.229 37.0154C106.501 37.1159 106.785 37.1668 107.091 37.1668L104.92 37.1757L104.919 37.165Z" fill="#1D60B5"/>
<path d="M103.003 32.2236V32.2146C102.383 32.8077 101.764 33.3512 101.147 33.8426C100.824 34.0991 100.502 34.342 100.177 34.5714C100.449 34.8967 100.725 35.2018 101.017 35.4797C101.459 35.9089 101.932 36.2706 102.449 36.5496C102.566 36.4917 102.683 36.4286 102.797 36.362C103.324 36.0547 103.796 35.6401 104.242 35.0956C103.78 34.307 103.375 33.3297 103.005 32.2225" fill="#175FAB"/>
<path d="M121.437 9.89868H118.507C118.409 9.89868 118.312 9.89868 118.216 9.89868C118.122 9.89868 118.032 9.89868 117.941 9.89868H117.93C117.74 9.90763 117.556 9.91413 117.374 9.92581C117.289 10.11 117.2 10.2942 117.116 10.4795C114.213 16.6661 111.164 22.0271 108.069 26.2886C106.613 30.7705 105.545 33.4899 104.235 35.0897C104.795 36.0455 105.447 36.7177 106.221 37.0024C106.244 36.9934 106.262 36.9935 106.282 36.9888C106.282 36.9888 106.293 36.9888 106.295 36.9888C106.308 36.9888 106.323 36.9798 106.338 36.9798C106.369 36.9709 106.403 36.9653 106.435 36.9554C106.455 36.9465 106.472 36.9456 106.492 36.9391C106.522 36.9301 106.552 36.9236 106.579 36.9165C106.597 36.9075 106.615 36.9046 106.633 36.901C106.679 36.8865 106.719 36.8757 106.762 36.8621C106.783 36.8532 106.804 36.8458 106.827 36.8404C106.851 36.8315 106.876 36.825 106.899 36.8142C106.925 36.8053 106.951 36.8006 106.973 36.7907C106.994 36.7818 107.015 36.7762 107.034 36.7681C107.085 36.75 107.135 36.7347 107.186 36.7148C107.199 36.7148 107.213 36.7023 107.227 36.6994C107.258 36.6866 107.29 36.6768 107.32 36.6632C107.331 36.6542 107.345 36.6533 107.36 36.6486C107.466 36.6043 107.575 36.5592 107.685 36.5097H107.696C107.852 36.441 108.01 36.3639 108.167 36.2838C113.2 33.4706 115.741 24.0187 123.641 9.89977H121.434L121.437 9.89868Z" fill="url(#paint14_linear)"/>
<path d="M77.7505 10.5195C77.763 10.5195 77.7742 10.5195 77.7866 10.5285C77.8171 10.5285 77.8476 10.5285 77.8781 10.5383C77.8895 10.5383 77.8996 10.5383 77.9086 10.5383C77.9639 10.5473 78.0193 10.552 78.0757 10.56C78.086 10.56 78.095 10.5601 78.1039 10.569C78.1502 10.578 78.1976 10.5853 78.245 10.5925C78.2553 10.5925 78.2688 10.6015 78.2801 10.6015C78.3885 10.6232 78.4992 10.6457 78.6053 10.6737C78.6154 10.6737 78.6257 10.6827 78.6347 10.6827C78.6799 10.6935 78.7205 10.7071 78.7657 10.7198C78.7793 10.7198 78.7893 10.7287 78.8018 10.7307C78.8549 10.7444 78.9046 10.7579 78.9565 10.775C78.9588 10.775 78.9619 10.775 78.9679 10.784C79.0119 10.7974 79.0571 10.8147 79.1034 10.83C79.1215 10.839 79.1384 10.8428 79.1554 10.8473C79.187 10.8609 79.222 10.8744 79.2525 10.887C79.2706 10.887 79.2886 10.8996 79.3078 10.9061C79.3495 10.9251 79.3936 10.9422 79.4365 10.9603C79.4591 10.9693 79.4782 10.9793 79.4997 10.9874C79.5246 11.0002 79.5505 11.0118 79.5776 11.0208C79.6002 11.0316 79.625 11.0434 79.6464 11.0534C79.6702 11.0661 79.6927 11.076 79.7153 11.0886C80.2754 11.3643 80.7915 11.7315 81.2691 12.1767C81.4453 11.9914 81.6293 11.8253 81.8202 11.6761C80.7757 10.935 79.5923 10.5125 78.2271 10.5125C78.069 10.5125 77.9109 10.5214 77.7505 10.5333" fill="#7DCBEC"/>
<path d="M81.2672 12.1631C81.5598 12.4354 81.84 12.7393 82.1055 13.067C82.362 12.8885 82.6162 12.7167 82.8715 12.5563C82.5371 12.2219 82.1846 11.9214 81.8174 11.6626C81.6265 11.8106 81.4435 11.9779 81.2672 12.1631Z" fill="#5EC5ED"/>
<path d="M77.7521 10.5192C77.9125 10.5057 78.0707 10.5 78.2288 10.5C79.5948 10.5 80.7788 10.9226 81.8238 11.6626C82.9265 10.7927 84.2597 10.4887 86.1115 10.4887H77.1443C77.351 10.4887 77.5532 10.5012 77.7521 10.5192Z" fill="url(#paint15_linear)"/>
<path d="M86.1072 10.4891C84.2555 10.4891 82.9223 10.793 81.8196 11.663C82.1856 11.9217 82.5381 12.2222 82.8726 12.5566C84.4079 11.5805 85.9286 10.9343 87.4279 10.6518C87.9995 10.5445 88.5701 10.4891 89.1327 10.4891H86.1072Z" fill="url(#paint16_linear)"/>
<path d="M108.072 26.2979C108.868 23.8418 109.78 20.8603 110.91 17.2438C111.929 13.9855 113.732 11.5496 117.118 10.4866C117.208 10.3046 117.292 10.1171 117.379 9.93286C111.859 10.2639 109.278 13.0737 107.98 17.2348C105.709 24.4993 104.334 29.2083 103.009 32.209C104.701 30.5911 106.392 28.605 108.072 26.2979Z" fill="url(#paint17_linear)"/>
<path d="M12.6896 91.4802C7.59458 90.5411 3.56608 91.5242 1.96058 94.3381C0.762581 96.4379 1.10458 99.2224 2.79058 102.199C2.85954 102.32 2.97345 102.409 3.10726 102.446C3.24106 102.483 3.38381 102.464 3.50408 102.394C3.62436 102.325 3.71231 102.209 3.7486 102.074C3.78489 101.939 3.76654 101.794 3.69758 101.672C2.17858 98.9917 1.88258 96.5887 2.86558 94.8668C4.19908 92.5291 7.79208 91.6523 12.5021 92.5205C12.5701 92.5342 12.6401 92.534 12.708 92.52C12.7759 92.506 12.8404 92.4785 12.8977 92.439C12.955 92.3995 13.0039 92.3489 13.0417 92.2901C13.0795 92.2313 13.1054 92.1655 13.1178 92.0965C13.1302 92.0275 13.1289 91.9567 13.114 91.8882C13.0991 91.8197 13.0708 91.7549 13.031 91.6975C12.9911 91.6402 12.9403 91.5914 12.8816 91.5541C12.8229 91.5168 12.758 91.4917 12.6896 91.4802ZM5.44008 105.816C7.50008 108.107 10.1766 110.256 13.2291 112.04C20.6196 116.358 28.4876 117.512 32.3651 114.836C32.4785 114.757 32.5562 114.635 32.5813 114.498C32.6065 114.361 32.577 114.219 32.4994 114.104C32.4217 113.988 32.3022 113.909 32.1668 113.882C32.0314 113.856 31.8911 113.885 31.7766 113.962C28.3061 116.357 20.8321 115.261 13.7516 111.124C10.7901 109.393 8.19858 107.313 6.21308 105.105C6.16727 105.052 6.11157 105.009 6.04921 104.978C5.98685 104.948 5.91909 104.93 5.84986 104.926C5.78064 104.922 5.71135 104.932 5.64602 104.956C5.58069 104.979 5.52063 105.016 5.46934 105.063C5.41805 105.11 5.37655 105.167 5.34727 105.231C5.31799 105.294 5.30151 105.363 5.29878 105.433C5.29606 105.503 5.30715 105.573 5.33141 105.639C5.35567 105.705 5.39261 105.765 5.44008 105.816Z" fill="#47848F"/>
<path d="M47.4916 111.712H57.2846C57.4205 111.71 57.5503 111.653 57.6464 111.554C57.7425 111.455 57.7972 111.321 57.799 111.181C57.7972 111.041 57.7425 110.907 57.6464 110.808C57.5503 110.709 57.4205 110.652 57.2846 110.65H48.0488V104.441H56.213C56.3489 104.439 56.4787 104.383 56.5748 104.284C56.6709 104.184 56.7256 104.051 56.7274 103.91C56.7255 103.77 56.6707 103.637 56.5746 103.538C56.4786 103.439 56.3488 103.382 56.213 103.38H48.0488V97.3031H57.1772C57.3131 97.3013 57.4429 97.2448 57.539 97.1457C57.6351 97.0466 57.6898 96.9127 57.6916 96.7726C57.6898 96.6325 57.6351 96.4986 57.539 96.3995C57.4429 96.3004 57.3131 96.2439 57.1772 96.2421H47.4916C47.1917 96.2421 46.9344 96.5073 46.9344 96.8167V111.137C46.9344 111.447 47.1917 111.712 47.4916 111.712ZM64.5979 111.137C64.5979 111.446 64.8551 111.712 65.1547 111.712H74.0906C74.2264 111.71 74.3562 111.653 74.4523 111.554C74.5484 111.455 74.6032 111.321 74.605 111.181C74.6032 111.041 74.5484 110.907 74.4523 110.808C74.3562 110.709 74.2264 110.652 74.0906 110.65H65.7119V96.7285C65.7119 96.4192 65.4547 96.1539 65.1547 96.1539C64.8548 96.1539 64.5979 96.4192 64.5979 96.7285V111.137ZM81.7254 111.712H91.518C91.6539 111.71 91.7837 111.653 91.8798 111.554C91.9759 111.455 92.0306 111.321 92.0324 111.181C92.0306 111.041 91.9759 110.907 91.8798 110.808C91.7837 110.709 91.6539 110.652 91.518 110.65H82.2826V104.441H90.4467C90.5826 104.439 90.7124 104.383 90.8085 104.284C90.9046 104.184 90.9594 104.051 90.9612 103.91C90.9593 103.77 90.9045 103.637 90.8084 103.538C90.7123 103.439 90.5826 103.382 90.4467 103.38H82.2826V97.3031H91.4109C91.5468 97.3013 91.6766 97.2448 91.7727 97.1457C91.8688 97.0466 91.9236 96.9127 91.9254 96.7726C91.9236 96.6325 91.8688 96.4986 91.7727 96.3995C91.6766 96.3004 91.5468 96.2439 91.4109 96.2421H81.7254C81.4254 96.2421 81.1682 96.5073 81.1682 96.8167V111.137C81.1682 111.447 81.4254 111.712 81.7254 111.712ZM105.624 111.977C108.131 111.977 109.781 111.027 111.303 109.568C111.389 109.479 111.474 109.347 111.474 109.17C111.474 108.883 111.217 108.618 110.939 108.618C110.767 108.618 110.639 108.706 110.553 108.794C109.138 110.187 107.702 110.938 105.667 110.938C102.089 110.938 99.3242 107.888 99.3242 103.976V103.932C99.3242 100.043 102.046 97.0153 105.646 97.0153C107.746 97.0153 109.181 97.8552 110.424 99.0263C110.51 99.1149 110.66 99.1812 110.81 99.1812C111.11 99.1812 111.389 98.9159 111.389 98.6066C111.389 98.4076 111.281 98.2531 111.174 98.1423C109.717 96.8608 108.153 95.9768 105.667 95.9768C101.338 95.9768 98.167 99.6009 98.167 103.977V104.021C98.167 108.463 101.338 111.977 105.624 111.977ZM122.109 111.225C122.109 111.535 122.366 111.8 122.666 111.8C122.966 111.8 123.223 111.534 123.223 111.225V97.3024H128.023C128.159 97.3006 128.289 97.2441 128.385 97.1451C128.481 97.0461 128.536 96.9123 128.538 96.7723C128.536 96.6321 128.481 96.4983 128.385 96.3992C128.289 96.3001 128.159 96.2436 128.023 96.2417H117.309C117.173 96.2436 117.043 96.3001 116.947 96.3992C116.851 96.4983 116.796 96.6321 116.794 96.7723C116.796 96.9124 116.851 97.0463 116.947 97.1453C117.043 97.2444 117.173 97.3009 117.309 97.3028H122.109V111.225ZM135.144 111.225C135.144 111.535 135.401 111.8 135.701 111.8C136.001 111.8 136.258 111.534 136.258 111.225V105.303H141.165L145.772 111.49C145.901 111.667 146.051 111.8 146.265 111.8C146.565 111.8 146.843 111.513 146.843 111.203C146.843 111.071 146.779 110.938 146.672 110.805L142.408 105.104C144.936 104.75 146.801 103.27 146.801 100.684V100.64C146.801 99.5346 146.372 98.4961 145.665 97.7667C144.765 96.8386 143.286 96.2421 141.444 96.2421H135.701C135.401 96.2421 135.144 96.5073 135.144 96.8163V111.225ZM136.258 104.264V97.3024H141.379C144.101 97.3024 145.686 98.6066 145.686 100.684V100.728C145.686 102.96 143.822 104.264 141.315 104.264H136.258ZM160.8 111.977C165.343 111.977 168.364 108.198 168.364 103.977V103.932C168.364 99.7114 165.385 95.9768 160.843 95.9768C156.3 95.9768 153.278 99.7558 153.278 103.977V104.021C153.278 108.242 156.257 111.977 160.8 111.977ZM160.843 110.938C157.135 110.938 154.436 107.8 154.436 103.976V103.932C154.436 100.109 157.092 97.0153 160.8 97.0153C164.507 97.0153 167.207 100.153 167.207 103.977V104.021C167.207 107.844 164.55 110.938 160.843 110.938ZM175.463 111.247C175.463 111.557 175.699 111.8 175.999 111.8C176.299 111.8 176.534 111.557 176.534 111.248V97.9212L186.841 111.402C187.013 111.623 187.184 111.777 187.398 111.777H187.484C187.742 111.777 187.934 111.556 187.934 111.291V96.7059C187.934 96.3966 187.698 96.1535 187.398 96.1535C187.098 96.1535 186.863 96.3966 186.863 96.7059V109.745L176.748 96.507C176.599 96.3084 176.427 96.1758 176.191 96.1758H176.02C175.72 96.1758 175.463 96.441 175.463 96.7504V111.247Z" fill="#47848F"/>
<path d="M31.1286 105.173C34.4646 101.185 35.6296 97.1733 34.0276 94.365C32.8486 92.2985 30.3561 91.2076 27.0441 91.1641C26.9755 91.1632 26.9074 91.1759 26.8436 91.2016C26.7799 91.2274 26.7217 91.2655 26.6726 91.314C26.6234 91.3624 26.5842 91.4202 26.557 91.484C26.5299 91.5478 26.5155 91.6163 26.5146 91.6858C26.5137 91.7552 26.5263 91.8242 26.5517 91.8887C26.5771 91.9532 26.6148 92.012 26.6627 92.0618C26.7105 92.1115 26.7676 92.1512 26.8307 92.1787C26.8937 92.2061 26.9615 92.2207 27.0301 92.2216C30.0091 92.2606 32.1566 93.2007 33.1226 94.8938C34.4531 97.2264 33.4146 100.804 30.3311 104.49C30.2852 104.543 30.2502 104.604 30.2281 104.671C30.206 104.737 30.1972 104.808 30.2023 104.878C30.2074 104.948 30.2263 105.016 30.2578 105.079C30.2893 105.142 30.3329 105.197 30.3859 105.243C30.4389 105.288 30.5003 105.322 30.5666 105.343C30.6328 105.365 30.7025 105.372 30.7717 105.366C30.8408 105.359 30.908 105.339 30.9693 105.306C31.0306 105.273 31.0847 105.227 31.1286 105.173ZM22.5551 91.6564C19.5386 92.3107 16.3281 93.5893 13.2451 95.3907C5.61509 99.8484 0.638094 106.421 1.32959 111.188C1.33788 111.258 1.35997 111.326 1.39456 111.387C1.42915 111.448 1.47554 111.502 1.53099 111.545C1.58643 111.588 1.64982 111.619 1.71739 111.637C1.78497 111.655 1.85537 111.658 1.92443 111.648C1.99349 111.638 2.05982 111.614 2.11949 111.577C2.17917 111.54 2.23098 111.492 2.27187 111.435C2.31276 111.377 2.3419 111.312 2.35757 111.244C2.37324 111.175 2.37511 111.103 2.36309 111.034C1.74959 106.802 6.46709 100.571 13.7671 96.3065C16.7581 94.5588 19.8671 93.3211 22.7741 92.6902C22.9068 92.6581 23.0218 92.5747 23.0946 92.4579C23.1674 92.3411 23.1921 92.2001 23.1635 92.0651C23.1349 91.9301 23.0552 91.8117 22.9415 91.7354C22.8278 91.659 22.6891 91.6307 22.5551 91.6564Z" fill="#47848F"/>
<path d="M10.1945 114.492C11.9395 119.42 14.7925 122.455 18.0015 122.455C20.3415 122.455 22.5065 120.841 24.195 117.999C24.2329 117.939 24.2586 117.873 24.2705 117.803C24.2825 117.733 24.2805 117.662 24.2647 117.593C24.2488 117.524 24.2195 117.459 24.1783 117.402C24.1372 117.344 24.0851 117.296 24.0251 117.26C23.9652 117.223 23.8986 117.199 23.8293 117.189C23.7601 117.179 23.6895 117.183 23.6219 117.202C23.5543 117.22 23.491 117.251 23.4357 117.295C23.3804 117.338 23.3342 117.392 23.3 117.454C21.7825 120.008 19.9185 121.398 18.0015 121.398C15.3365 121.398 12.791 118.691 11.1785 114.135C11.1564 114.068 11.1214 114.007 11.0755 113.954C11.0296 113.901 10.9737 113.858 10.9112 113.827C10.8486 113.797 10.7806 113.779 10.7111 113.775C10.6417 113.771 10.5722 113.781 10.5067 113.805C10.4412 113.829 10.3811 113.866 10.3298 113.913C10.2786 113.961 10.2372 114.018 10.2082 114.082C10.1792 114.146 10.163 114.215 10.1608 114.286C10.1585 114.356 10.1702 114.426 10.195 114.492H10.1945ZM26.1275 113.528C27.0305 110.608 27.515 107.239 27.515 103.729C27.515 94.9698 24.486 87.4189 20.171 85.48C20.0448 85.4254 19.9024 85.4233 19.7746 85.4742C19.6469 85.525 19.544 85.6247 19.4883 85.7517C19.4326 85.8787 19.4285 86.0227 19.4769 86.1527C19.5253 86.2827 19.6224 86.3882 19.747 86.4464C23.5955 88.1759 26.4705 95.3417 26.4705 103.729C26.4705 107.134 26.0005 110.396 25.1305 113.212C25.1081 113.279 25.099 113.349 25.104 113.42C25.1089 113.49 25.1277 113.559 25.1592 113.622C25.1908 113.684 25.2345 113.74 25.2877 113.786C25.3409 113.831 25.4026 113.866 25.4691 113.887C25.5356 113.908 25.6056 113.915 25.675 113.909C25.7444 113.902 25.8118 113.881 25.8731 113.848C25.9345 113.814 25.9886 113.769 26.0323 113.714C26.076 113.659 26.1084 113.595 26.1275 113.528ZM35.967 113.01C35.967 112.339 35.7036 111.695 35.2347 111.221C34.7657 110.746 34.1297 110.479 33.4665 110.479C32.8034 110.479 32.1673 110.746 31.6984 111.221C31.2295 111.695 30.966 112.339 30.966 113.01C30.966 113.681 31.2295 114.325 31.6984 114.799C32.1673 115.274 32.8034 115.54 33.4665 115.54C34.1297 115.54 34.7657 115.274 35.2347 114.799C35.7036 114.325 35.967 113.681 35.967 113.01ZM34.922 113.01C34.922 113.401 34.7687 113.775 34.4957 114.051C34.2228 114.328 33.8526 114.483 33.4665 114.483C33.0805 114.483 32.7103 114.328 32.4373 114.051C32.1644 113.775 32.011 113.401 32.011 113.01C32.011 112.619 32.1644 112.245 32.4373 111.968C32.7103 111.692 33.0805 111.537 33.4665 111.537C33.8526 111.537 34.2228 111.692 34.4957 111.968C34.7687 112.245 34.922 112.619 34.922 113.01ZM2.5005 115.54C3.16368 115.54 3.79969 115.274 4.26862 114.799C4.73756 114.325 5.001 113.681 5.001 113.01C5.001 112.339 4.73756 111.695 4.26862 111.221C3.79969 110.746 3.16368 110.479 2.5005 110.479C1.83733 110.479 1.20132 110.746 0.73238 111.221C0.263445 111.695 0 112.339 0 113.01C0 113.681 0.263445 114.325 0.73238 114.799C1.20132 115.274 1.83733 115.54 2.5005 115.54ZM2.5005 114.483C2.11441 114.483 1.74414 114.328 1.47113 114.051C1.19812 113.775 1.04475 113.4 1.04475 113.01C1.04475 112.619 1.19812 112.244 1.47113 111.968C1.74414 111.692 2.11441 111.536 2.5005 111.536C2.88659 111.536 3.25687 111.692 3.52987 111.968C3.80288 112.244 3.95625 112.619 3.95625 113.01C3.95625 113.4 3.80288 113.775 3.52987 114.051C3.25687 114.328 2.88659 114.483 2.5005 114.483Z" fill="#47848F"/>
<path d="M18.0015 88.0609C18.3299 88.0609 18.655 87.9955 18.9584 87.8683C19.2618 87.7411 19.5374 87.5547 19.7696 87.3198C20.0018 87.0848 20.186 86.8058 20.3116 86.4988C20.4373 86.1918 20.502 85.8628 20.502 85.5305C20.502 85.1982 20.4373 84.8691 20.3116 84.5621C20.186 84.2551 20.0018 83.9761 19.7696 83.7412C19.5374 83.5062 19.2618 83.3198 18.9584 83.1926C18.655 83.0655 18.3299 83 18.0015 83C17.3383 83 16.7023 83.2666 16.2334 83.7412C15.7644 84.2157 15.501 84.8593 15.501 85.5305C15.501 86.2016 15.7644 86.8452 16.2334 87.3198C16.7023 87.7943 17.3383 88.0609 18.0015 88.0609ZM18.0015 87.0034C17.8103 87.0034 17.6211 86.9653 17.4445 86.8913C17.2679 86.8173 17.1074 86.7088 16.9723 86.572C16.8371 86.4352 16.7299 86.2728 16.6568 86.0941C16.5836 85.9154 16.546 85.7239 16.546 85.5305C16.546 85.337 16.5836 85.1455 16.6568 84.9668C16.7299 84.7881 16.8371 84.6257 16.9723 84.4889C17.1074 84.3522 17.2679 84.2437 17.4445 84.1696C17.6211 84.0956 17.8103 84.0575 18.0015 84.0575C18.3876 84.0575 18.7578 84.2127 19.0309 84.489C19.3039 84.7653 19.4572 85.14 19.4572 85.5307C19.4572 85.9214 19.3039 86.2961 19.0309 86.5724C18.7578 86.8487 18.3876 87.0039 18.0015 87.0039V87.0034ZM18.3835 105.519C18.1512 105.569 17.9113 105.573 17.6775 105.53C17.4437 105.487 17.2206 105.398 17.0209 105.268C16.6176 105.005 16.334 104.59 16.2327 104.115C16.1314 103.641 16.2206 103.145 16.4807 102.736C16.7407 102.328 17.1504 102.041 17.6195 101.939C18.0854 101.844 18.5692 101.939 18.9665 102.203C19.3638 102.467 19.6427 102.878 19.743 103.348C19.8433 103.818 19.757 104.309 19.5026 104.715C19.2482 105.121 18.8463 105.409 18.3835 105.518V105.519Z" fill="#47848F"/>
<path d="M429.709 103.231C429.709 98.2092 428.278 95.6311 425.416 95.4899C424.277 95.4361 423.165 95.6176 422.083 96.0378C421.22 96.347 420.638 96.6529 420.333 96.9622V108.949C422.164 110.098 423.79 110.633 425.207 110.549C428.208 110.35 429.709 107.913 429.709 103.231ZM433.24 103.439C433.24 105.991 432.642 108.108 431.439 109.792C430.099 111.698 428.241 112.68 425.866 112.733C424.075 112.79 422.231 112.229 420.333 111.053V121.947L417.262 120.851V96.6697C417.766 96.0513 418.414 95.5202 419.201 95.0698C421.028 94.0042 423.249 93.4563 425.863 93.4294L425.906 93.4731C428.295 93.4429 430.136 94.4244 431.429 96.4143C432.635 98.2395 433.24 100.579 433.24 103.439Z" fill="#646464"/>
<path d="M452.002 110.589C452.002 114.011 451.659 116.38 450.974 117.698C450.285 119.016 448.975 120.068 447.04 120.851C445.471 121.469 443.775 121.805 441.954 121.863L441.446 119.927C443.298 119.674 444.601 119.422 445.357 119.17C446.845 118.666 447.867 117.893 448.428 116.858C448.878 116.014 449.099 114.404 449.099 112.021V111.221C447 112.175 444.799 112.649 442.498 112.649C440.986 112.649 439.652 112.175 438.503 111.221C437.213 110.182 436.568 108.864 436.568 107.268V94.4815L439.639 93.4294V106.3C439.639 107.675 440.082 108.733 440.969 109.476C441.856 110.219 443.005 110.575 444.413 110.549C445.821 110.518 447.329 109.974 448.932 108.908V93.8933H452.002V110.589Z" fill="#646464"/>
<path d="M463.985 112.565C463.619 112.595 463.283 112.609 462.974 112.609C461.237 112.609 459.883 112.195 458.916 111.365C457.952 110.535 457.468 109.389 457.468 107.926V95.8258H455.365V93.8931H457.468V88.7604L460.535 87.668V93.8931H463.985V95.8258H460.535V107.842C460.535 108.995 460.844 109.812 461.462 110.289C461.993 110.683 462.836 110.908 463.985 110.965V112.565Z" fill="#646464"/>
<path d="M482.584 112.314H479.513V100.455C479.513 99.2485 479.231 98.2099 478.67 97.3426C478.021 96.3611 477.121 95.8704 475.965 95.8704C474.558 95.8704 472.797 96.6132 470.684 98.0989V112.314H467.614V83.9681L470.684 83V95.9107C472.646 94.4822 474.79 93.7662 477.118 93.7662C478.744 93.7662 480.061 94.3141 481.069 95.4065C482.08 96.499 482.584 97.8603 482.584 99.4871V112.314Z" fill="#646464"/>
<path d="M498.901 102.747C498.901 100.818 498.535 99.2243 497.806 97.9638C496.939 96.4277 495.592 95.6176 493.771 95.5336C490.405 95.7286 488.725 98.142 488.725 102.767C488.725 104.888 489.074 106.659 489.78 108.081C490.68 109.893 492.031 110.787 493.831 110.757C497.211 110.73 498.901 108.061 498.901 102.747ZM502.264 102.767C502.264 105.513 501.562 107.799 500.161 109.624C498.619 111.668 496.489 112.693 493.771 112.693C491.077 112.693 488.977 111.668 487.462 109.624C486.088 107.799 485.402 105.513 485.402 102.767C485.402 100.186 486.145 98.0142 487.63 96.2462C489.199 94.3706 491.261 93.4294 493.811 93.4294C496.361 93.4294 498.437 94.3706 500.037 96.2462C501.521 98.0142 502.264 100.186 502.264 102.767Z" fill="#646464"/>
<path d="M519.87 112.313H516.799V99.7823C516.799 98.4075 516.386 97.3353 515.559 96.5622C514.733 95.7924 513.631 95.4193 512.257 95.4496C510.799 95.4765 509.411 95.9538 508.094 96.8781V112.313H505.024V96.4983C506.791 95.2109 508.417 94.3706 509.902 93.9773C511.303 93.611 512.539 93.4294 513.604 93.4294C514.333 93.4294 515.018 93.5 515.664 93.6412C516.87 93.9202 517.851 94.4378 518.606 95.1975C519.45 96.0378 519.87 97.0462 519.87 98.226V112.313Z" fill="#646464"/>
<path d="M386.929 84.0831C385.349 84.0904 383.84 84.2252 382.513 84.4603C378.602 85.1515 377.892 86.5984 377.892 89.2666V92.7906H387.134V93.9652H377.892H374.424C371.738 93.9652 369.386 95.5804 368.651 98.653C367.802 102.175 367.764 104.373 368.651 108.05C369.308 110.788 370.876 112.738 373.562 112.738H376.74V108.514C376.74 105.462 379.379 102.77 382.513 102.77H391.744C394.313 102.77 396.364 100.653 396.364 98.0711V89.2666C396.364 86.7608 394.252 84.8785 391.744 84.4603C390.156 84.1959 388.509 84.0757 386.929 84.0831ZM381.931 86.9173C382.886 86.9173 383.665 87.71 383.665 88.6847C383.665 89.6559 382.886 90.4413 381.931 90.4413C380.973 90.4413 380.197 89.6559 380.197 88.6847C380.197 87.71 380.973 86.9173 381.931 86.9173Z" fill="url(#paint18_linear)"/>
<path d="M397.514 93.9661V98.0719C397.514 101.255 394.817 103.934 391.741 103.934H382.51C379.982 103.934 377.889 106.1 377.889 108.633V117.437C377.889 119.943 380.067 121.417 382.51 122.136C385.435 122.997 388.241 123.152 391.741 122.136C394.067 121.462 396.362 120.106 396.362 117.437V113.914H387.131V112.739H396.362H400.982C403.668 112.739 404.669 110.864 405.603 108.051C406.568 105.155 406.527 102.369 405.603 98.6539C404.939 95.9787 403.672 93.9661 400.982 93.9661H397.514ZM392.322 116.263C393.28 116.263 394.057 117.048 394.057 118.019C394.057 118.994 393.28 119.787 392.322 119.787C391.368 119.787 390.588 118.994 390.588 118.019C390.588 117.048 391.368 116.263 392.322 116.263Z" fill="url(#paint19_linear)"/>
<path d="M525.847 91.1579H526.385V87.7796H527.66V87.377H524.571V87.7796H525.847V91.1579ZM528.138 91.1579H528.598V88.0725L529.596 91.1575H530.108L531.148 88.0829V91.1579H531.65V87.377H530.986L529.85 90.6161L528.88 87.377H528.138V91.1579Z" fill="#646464"/>
<path opacity="0.44382" d="M399.62 128.119C399.62 128.434 399.299 128.747 398.677 129.038C398.054 129.33 397.142 129.595 395.992 129.818C394.842 130.041 393.477 130.218 391.974 130.339C390.472 130.459 388.861 130.521 387.235 130.521C385.609 130.521 383.998 130.459 382.496 130.339C380.993 130.218 379.628 130.041 378.478 129.818C377.328 129.595 376.416 129.33 375.793 129.038C375.171 128.747 374.851 128.434 374.851 128.119C374.851 127.803 375.171 127.491 375.793 127.199C376.416 126.908 377.328 126.643 378.478 126.42C379.628 126.197 380.993 126.02 382.496 125.899C383.998 125.778 385.609 125.716 387.235 125.716C388.861 125.716 390.472 125.778 391.974 125.899C393.477 126.02 394.842 126.197 395.992 126.42C397.142 126.643 398.054 126.908 398.677 127.199C399.299 127.491 399.62 127.803 399.62 128.119Z" fill="url(#paint20_radial)"/>
<path d="M452.703 35.2925L444.777 22.002L452.703 8.7115L456.524 22.002L452.703 35.2925ZM435.063 33.9955L425.104 24.1494H440.956L448.882 37.4398L435.063 33.9955ZM435.063 9.96775L448.842 6.52346L440.916 19.8139H425.064L435.063 9.96775ZM455.304 0L437.298 4.65987L434.616 9.2384L429.21 9.19774L416 22.002L429.21 34.8062L434.616 34.7656L437.298 39.3441L455.304 44.0446L460.141 26.5805L457.418 22.0427L460.141 17.5043L455.304 0ZM496.194 12.9258C493.796 12.9258 492.17 13.9385 490.95 15.8025H490.869V13.412H486.642V30.9973H490.95V21.0295C490.95 18.639 492.454 16.9774 494.527 16.9774C496.478 16.9774 497.942 18.1528 497.942 20.2193V31.0379H502.25V19.5302C502.29 15.681 499.852 12.9258 496.194 12.9258ZM480.098 23.5822C480.098 25.9325 478.757 27.553 476.562 27.553C474.57 27.553 473.31 26.4187 473.31 24.3522V13.412H469.002V25.1625C469.002 29.0117 471.197 31.5242 475.139 31.5242C477.619 31.5242 479.001 30.5919 480.18 28.9715H480.301V31.0379H484.447V13.412H480.139V23.5822H480.098ZM504.567 13.412H508.875V30.9973H504.567V13.412ZM504.567 7.94193H508.875V11.4671H504.567V7.94193ZM533.303 13.412L530.743 21.3535C530.174 22.9744 529.726 25.2032 529.726 25.2032H529.604C529.604 25.2032 529.035 22.9744 528.467 21.3535L525.58 13.412H520.947L525.702 25.9325C526.719 28.6068 527.044 29.741 527.044 30.7135C527.044 32.1722 526.272 33.1044 524.443 33.1044H522.776V36.7914H525.54C529.117 36.7914 530.377 35.3734 531.718 31.4835L537.937 13.4523H533.303V13.412ZM516.923 25.8512V16.5319H519.687V13.4523H516.923V7.94193H512.615V13.412H510.176V16.4912H512.615V26.8236C512.615 30.1464 515.135 31.0379 517.411 31.0379C519.28 31.0379 519.768 30.9566 519.768 30.9566V27.553H518.671C517.655 27.5936 516.923 27.1481 516.923 25.8512Z" fill="#110B09"/>
<path fill-rule="evenodd" clip-rule="evenodd" d="M257.122 32.4809L252.854 24.2877L248.489 32.4809H243.795L250.45 21.9067L244.461 11.3977H249.22L253.106 19.3819L257.317 11.3977H261.669L255.518 21.8416L261.767 32.4809H257.122ZM272.34 32.4809V30.1863H272.275C271.116 31.9872 269.476 32.8877 267.353 32.8877C265.718 32.8877 264.43 32.4429 263.488 31.5533C262.546 30.6528 262.075 29.4485 262.075 27.9405C262.075 24.7074 263.888 22.8684 267.516 22.4236L272.372 21.7563C272.372 19.4889 271.322 18.3551 269.221 18.3551C267.218 18.3551 265.377 18.9735 263.699 20.2103V16.8904C264.327 16.5107 265.226 16.169 266.395 15.8652C267.575 15.5614 268.647 15.4095 269.611 15.4095C273.899 15.4095 276.043 17.5794 276.043 21.9191V32.4809H272.34ZM268.783 24.8484C267.667 24.9894 266.882 25.2661 266.428 25.6784C265.984 26.0798 265.762 26.7036 265.762 27.5499C265.762 28.2442 266.016 28.8138 266.525 29.2586C267.034 29.6926 267.7 29.9096 268.523 29.9096C269.638 29.9096 270.558 29.5244 271.284 28.7541C272.009 27.9838 272.372 27.0237 272.372 25.8737V24.3764L268.783 24.8484ZM299.99 32.4809V23.0745C299.99 21.5231 299.746 20.3731 299.259 19.6245C298.783 18.865 297.927 18.4853 296.693 18.4853C295.707 18.4853 294.879 18.941 294.208 19.8523C293.536 20.7528 293.201 21.8432 293.201 23.1234V32.4809H289.449V22.7491C289.449 19.9065 288.361 18.4853 286.184 18.4853C285.166 18.4853 284.327 18.9138 283.667 19.7709C283.017 20.628 282.692 21.7455 282.692 23.1234V32.4809H278.94V15.8164H282.692V18.3876H282.757C283.959 16.4022 285.713 15.4095 288.02 15.4095C289.124 15.4095 290.099 15.7025 290.943 16.2883C291.799 16.8633 292.4 17.6607 292.746 18.6806C294.013 16.4999 295.875 15.4095 298.333 15.4095C301.95 15.4095 303.758 17.6662 303.758 22.1795V32.4809H299.99ZM316.231 32.4809V30.1863H316.166C315.008 31.9872 313.367 32.8877 311.245 32.8877C309.61 32.8877 308.321 32.4429 307.379 31.5533C306.437 30.6528 305.966 29.4485 305.966 27.9405C305.966 24.7074 307.78 22.8684 311.407 22.4236L316.264 21.7563C316.264 19.4889 315.213 18.3551 313.113 18.3551C311.11 18.3551 309.269 18.9735 307.59 20.2103V16.8904C308.219 16.5107 309.117 16.169 310.287 15.8652C311.467 15.5614 312.539 15.4095 313.503 15.4095C317.79 15.4095 319.934 17.5794 319.934 21.9191V32.4809H316.231ZM312.674 24.8484C311.559 24.9894 310.774 25.2661 310.319 25.6784C309.875 26.0798 309.653 26.7036 309.653 27.5499C309.653 28.2442 309.908 28.8138 310.417 29.2586C310.925 29.6926 311.591 29.9096 312.414 29.9096C313.53 29.9096 314.45 29.5244 315.176 28.7541C315.901 27.9838 316.264 27.0237 316.264 25.8737V24.3764L312.674 24.8484ZM332.502 19.478C331.885 19.0983 331.16 18.9084 330.326 18.9084C329.243 18.9084 328.36 19.3749 327.678 20.308C327.007 21.241 326.671 22.4561 326.671 23.9533V32.4809H322.919V15.8164H326.671V19.0549H326.736C327.538 16.7006 328.956 15.5234 330.992 15.5234C331.652 15.5234 332.156 15.5994 332.502 15.7513L332.502 19.478ZM336.237 12.0896C335.598 12.0896 335.057 11.8835 334.613 11.4712C334.169 11.0481 333.947 10.5328 333.947 9.92518C333.947 9.29595 334.169 8.76975 334.613 8.34662C335.057 7.92351 335.598 7.71195 336.237 7.71192C336.887 7.71195 337.434 7.92894 337.878 8.36289C338.322 8.78603 338.544 9.3068 338.544 9.92518C338.544 10.5328 338.322 11.0481 337.878 11.4712C337.434 11.8835 336.887 12.0896 336.237 12.0896ZM334.321 32.4809V15.8164H338.073V32.4809H334.321ZM352.253 32.4809V23.1234C352.253 20.0313 351.143 18.4853 348.923 18.4853C347.808 18.4853 346.871 18.9138 346.113 19.7709C345.366 20.6172 344.992 21.6967 344.992 23.0094V32.4809H341.24V15.8164H344.992V18.4853H345.057C346.27 16.4348 348.068 15.4095 350.45 15.4095C354.153 15.4095 356.004 17.6879 356.005 22.2446V32.4809H352.253ZM203.176 3C202.036 3.00242 200.92 3.65141 200.347 4.64147L191.424 20.1916C190.859 21.1843 190.859 22.4818 191.424 23.4745L200.347 39.0247C200.92 40.0147 202.036 40.6639 203.176 40.6661H221.022C222.161 40.6637 223.277 40.0147 223.851 39.0247L232.774 23.4745C233.339 22.4818 233.338 21.1843 232.774 20.1916L223.851 4.64147C223.277 3.65141 222.161 3.00224 221.022 3H203.176ZM203.338 12.097C203.362 12.0946 203.388 12.0946 203.412 12.097H206.491C206.627 12.0998 206.759 12.1788 206.827 12.2975L212.049 21.6326C212.075 21.6787 212.092 21.7302 212.098 21.7829C212.105 21.7302 212.122 21.6787 212.148 21.6326L217.357 12.2975C217.428 12.1752 217.566 12.0958 217.706 12.097H220.784C221.057 12.0994 221.261 12.4439 221.133 12.6859L216.036 21.8331L221.133 30.9677C221.273 31.2111 221.064 31.5715 220.784 31.5691H217.706C217.563 31.5679 217.424 31.483 217.357 31.3561L212.148 22.021C212.122 21.9749 212.105 21.9234 212.098 21.8707C212.092 21.9235 212.075 21.9749 212.049 22.021L206.827 31.3561C206.762 31.4794 206.629 31.5635 206.491 31.5691H203.412C203.133 31.5716 202.924 31.2111 203.063 30.9677L208.161 21.8331L203.063 12.6859C202.941 12.4651 203.09 12.1442 203.338 12.097Z" fill="#3498DB"/>
<defs>
<linearGradient id="paint0_linear" x1="88.5444" y1="10.3104" x2="88.5444" y2="43.8215" gradientUnits="userSpaceOnUse">
<stop stop-color="#0994DC"/>
<stop offset="0.350006" stop-color="#66CEF5"/>
<stop offset="0.846161" stop-color="#127BCA"/>
<stop offset="1" stop-color="#127BCA"/>
</linearGradient>
<linearGradient id="paint1_linear" x1="89.8257" y1="9.46228" x2="89.8257" y2="43.8274" gradientUnits="userSpaceOnUse">
<stop stop-color="#0E76BC"/>
<stop offset="0.360001" stop-color="#36AEE8"/>
<stop offset="0.846161" stop-color="#00ADEF"/>
<stop offset="1" stop-color="#00ADEF"/>
</linearGradient>
<linearGradient id="paint2_linear" x1="96.7256" y1="36.3928" x2="96.7256" y2="9.04894" gradientUnits="userSpaceOnUse">
<stop stop-color="#1C63B7"/>
<stop offset="0.5" stop-color="#33BDF2"/>
<stop offset="1" stop-color="#33BDF2" stop-opacity="0.419608"/>
</linearGradient>
<linearGradient id="paint3_linear" x1="94.9286" y1="5.97979" x2="94.9286" y2="41.6597" gradientUnits="userSpaceOnUse">
<stop stop-color="#166AB8"/>
<stop offset="0.399994" stop-color="#36AEE8"/>
<stop offset="0.846161" stop-color="#0798DD"/>
<stop offset="1" stop-color="#0798DD"/>
</linearGradient>
<linearGradient id="paint4_linear" x1="92.1195" y1="6.16818" x2="92.1195" y2="44.109" gradientUnits="userSpaceOnUse">
<stop stop-color="#124379"/>
<stop offset="0.389999" stop-color="#1487CB"/>
<stop offset="0.780228" stop-color="#165197"/>
<stop offset="1" stop-color="#165197"/>
</linearGradient>
<linearGradient id="paint5_linear" x1="76.8903" y1="17.8147" x2="82.2517" y2="17.8147" gradientUnits="userSpaceOnUse">
<stop stop-color="#33BDF2" stop-opacity="0.698039"/>
<stop offset="1" stop-color="#1DACD8"/>
</linearGradient>
<linearGradient id="paint6_linear" x1="117.154" y1="35.7074" x2="117.154" y2="9.07074" gradientUnits="userSpaceOnUse">
<stop stop-color="#136AB4"/>
<stop offset="0.6" stop-color="#59CAF5" stop-opacity="0.54902"/>
<stop offset="1" stop-color="#59CAF5" stop-opacity="0.235294"/>
</linearGradient>
<linearGradient id="paint7_linear" x1="57.8631" y1="24.1825" x2="77.7496" y2="24.1825" gradientUnits="userSpaceOnUse">
<stop stop-color="#05A1E6" stop-opacity="0.247059"/>
<stop offset="1" stop-color="#05A1E6"/>
</linearGradient>
<linearGradient id="paint8_linear" x1="68.8776" y1="36.3785" x2="68.8776" y2="9.10474" gradientUnits="userSpaceOnUse">
<stop stop-color="#318ED5"/>
<stop offset="1" stop-color="#38A7E4"/>
</linearGradient>
<linearGradient id="paint9_linear" x1="70.5916" y1="36.4743" x2="70.5916" y2="9.96269" gradientUnits="userSpaceOnUse">
<stop stop-color="#05A1E6"/>
<stop offset="1" stop-color="#05A1E6" stop-opacity="0.54902"/>
</linearGradient>
<linearGradient id="paint10_linear" x1="72.0158" y1="37.8274" x2="72.0158" y2="15.4246" gradientUnits="userSpaceOnUse">
<stop stop-color="#1959A6"/>
<stop offset="0.5" stop-color="#05A1E6"/>
<stop offset="0.917587" stop-color="#7EC5EA"/>
<stop offset="1" stop-color="#7EC5EA"/>
</linearGradient>
<linearGradient id="paint11_linear" x1="72.8775" y1="36.396" x2="68.5923" y2="12.1058" gradientUnits="userSpaceOnUse">
<stop stop-color="#165096"/>
<stop offset="1" stop-color="#0D82CA"/>
</linearGradient>
<linearGradient id="paint12_linear" x1="112.594" y1="22.6588" x2="112.594" y2="9.96455" gradientUnits="userSpaceOnUse">
<stop stop-color="#05A1E6"/>
<stop offset="0.873627" stop-color="#0495D6"/>
<stop offset="1" stop-color="#0495D6"/>
</linearGradient>
<linearGradient id="paint13_linear" x1="118.558" y1="8.79133" x2="113.394" y2="38.0627" gradientUnits="userSpaceOnUse">
<stop stop-color="#38A7E4" stop-opacity="0.329412"/>
<stop offset="0.961533" stop-color="#0E88D3"/>
<stop offset="1" stop-color="#0E88D3"/>
</linearGradient>
<linearGradient id="paint14_linear" x1="113.941" y1="9.81852" x2="113.941" y2="37.5125" gradientUnits="userSpaceOnUse">
<stop stop-color="#168CD4"/>
<stop offset="0.5" stop-color="#1C87CC"/>
<stop offset="1" stop-color="#154B8D"/>
</linearGradient>
<linearGradient id="paint15_linear" x1="78.6395" y1="9.24956" x2="85.0186" y2="11.8954" gradientUnits="userSpaceOnUse">
<stop stop-color="#97D6EE"/>
<stop offset="0.703293" stop-color="#55C1EA"/>
<stop offset="1" stop-color="#55C1EA"/>
</linearGradient>
<linearGradient id="paint16_linear" x1="82.3235" y1="12.4264" x2="87.3617" y2="10.1424" gradientUnits="userSpaceOnUse">
<stop stop-color="#7ACCEC"/>
<stop offset="1" stop-color="#3FB7ED"/>
</linearGradient>
<linearGradient id="paint17_linear" x1="110.194" y1="11.3503" x2="110.194" y2="38.4377" gradientUnits="userSpaceOnUse">
<stop stop-color="#1DA7E7"/>
<stop offset="1" stop-color="#37ABE7" stop-opacity="0"/>
</linearGradient>
<linearGradient id="paint18_linear" x1="368" y1="84.0828" x2="389.319" y2="102.24" gradientUnits="userSpaceOnUse">
<stop stop-color="#5A9FD4"/>
<stop offset="1" stop-color="#306998"/>
</linearGradient>
<linearGradient id="paint19_linear" x1="392.1" y1="117.723" x2="384.45" y2="107.008" gradientUnits="userSpaceOnUse">
<stop stop-color="#FFD43B"/>
<stop offset="1" stop-color="#FFE873"/>
</linearGradient>
<radialGradient id="paint20_radial" cx="0" cy="0" r="1" gradientUnits="userSpaceOnUse" gradientTransform="translate(387.235 128.119) rotate(-90) scale(2.40269 10.5554)">
<stop stop-color="#B8B8B8" stop-opacity="0.498039"/>
<stop offset="1" stop-color="#7F7F7F" stop-opacity="0"/>
</radialGradient>
<clipPath id="clip0">
<rect width="59.9689" height="44.7761" fill="white" transform="translate(248 81)"/>
</clipPath>
</defs>
</svg>
