<svg width="465" height="226" viewBox="0 0 465 226" fill="none" xmlns="http://www.w3.org/2000/svg">
<path d="M285.196 6H294.995L270.498 47.962L246 6H264.741L270.498 15.7303L276.132 6H285.196Z" fill="#41B883"/>
<path d="M246 6L270.498 47.962L294.995 6H285.196L270.498 31.1772L255.677 6H246Z" fill="#41B883"/>
<path d="M255.677 6L270.498 31.2988L285.196 6H276.132L270.498 15.7303L264.741 6H255.677Z" fill="#35495E"/>
<path d="M0 26.9026C0 31.4384 4.4628 35.6726 11.4984 38.0594C10.0934 45.0791 11.2468 50.7372 15.0985 52.9417C19.0576 55.2079 24.9558 53.6393 30.5541 48.7824C36.0111 53.4431 41.5261 55.2773 45.3746 53.0664C49.33 50.7938 50.5328 44.7522 49.0891 37.5132C56.4173 35.1087 60.5164 31.4981 60.5164 26.9026C60.5164 22.472 56.0455 18.6391 49.1046 16.2676C50.6589 8.72956 49.3419 3.20885 45.3306 0.913178C41.4634 -1.30011 35.8841 0.628963 30.3469 5.41152C24.5862 0.335306 19.0621 -1.21442 15.055 1.08763C11.1914 3.30729 10.0889 9.0683 11.4984 16.2178C4.70017 18.5701 0 22.4899 0 26.9026Z" fill="white"/>
<path d="M47.7393 18.3336C47.1695 18.1369 46.5949 17.9546 46.0159 17.787C46.1119 17.3943 46.2007 16.9998 46.2822 16.6038C47.5867 10.2291 46.7338 5.09368 43.8211 3.40318C41.0285 1.78185 36.4611 3.47235 31.8483 7.51328C31.3938 7.91238 30.9493 8.32297 30.5154 8.74467C30.2248 8.46426 29.9291 8.1893 29.6283 7.91993C24.794 3.59875 19.9482 1.77803 17.0386 3.47354C14.2486 5.09941 13.4222 9.9274 14.5967 15.9686C14.7135 16.5669 14.8454 17.1621 14.9923 17.7536C14.3067 17.9496 13.6445 18.1586 13.0109 18.3808C7.34331 20.37 3.72363 23.4876 3.72363 26.7213C3.72363 30.0612 7.60914 33.4112 13.5127 35.4423C13.9914 35.6062 14.4741 35.7581 14.9603 35.8978C14.8024 36.5351 14.6621 37.1767 14.5398 37.8218C13.4201 43.7581 14.2946 48.4717 17.0772 50.0875C19.9513 51.7558 24.775 50.041 29.4722 45.9078C29.8435 45.581 30.2161 45.2345 30.5893 44.8712C31.0593 45.3277 31.5419 45.771 32.0364 46.2004C36.5862 50.1416 41.0797 51.7332 43.86 50.113C46.7314 48.4397 47.6644 43.3761 46.4528 37.2153C46.3604 36.7448 46.2526 36.2642 46.1318 35.7748C46.4706 35.6741 46.803 35.5701 47.1273 35.4619C53.2645 33.415 57.2574 30.1058 57.2574 26.7213C57.2574 23.476 53.5211 20.3373 47.7393 18.3336Z" fill="#53C1DE"/>
<path d="M46.3817 33.268C46.0896 33.3654 45.7897 33.4595 45.4841 33.5507C44.8076 31.3946 43.8947 29.1017 42.7778 26.7331C43.8438 24.4205 44.7213 22.1572 45.3789 20.0149C45.9255 20.1745 46.4562 20.3424 46.9676 20.5198C51.9134 22.2339 54.93 24.7687 54.93 26.7217C54.93 28.8021 51.6719 31.5029 46.382 33.268H46.3817ZM44.1868 37.6477C44.7215 40.368 44.7979 42.8276 44.4436 44.7503C44.1253 46.478 43.4852 47.6298 42.6938 48.0911C41.0095 49.0728 37.4074 47.7967 33.5232 44.4309C33.0778 44.0451 32.6291 43.6331 32.1793 43.1972C33.6852 41.5386 35.1902 39.6104 36.6591 37.4693C39.2429 37.2385 41.6838 36.861 43.8975 36.3458C44.0063 36.7888 44.1033 37.223 44.1868 37.6477ZM21.9888 47.9215C20.3433 48.5067 19.0327 48.5234 18.2405 48.0635C16.5546 47.0846 15.854 43.3049 16.8098 38.2355C16.9234 37.6364 17.0536 37.0406 17.2001 36.4487C19.3891 36.9363 21.8123 37.2871 24.4023 37.4986C25.8808 39.5937 27.4293 41.5196 28.9899 43.206C28.6583 43.5291 28.3188 43.8439 27.9717 44.1501C25.8981 45.9754 23.8202 47.2701 21.989 47.9215H21.9888ZM14.2797 33.2551C11.6736 32.3582 9.52147 31.1926 8.04625 29.9208C6.72076 28.7776 6.05139 27.6427 6.05139 26.7217C6.05139 24.7623 8.95286 22.2627 13.792 20.5639C14.3993 20.3516 15.0127 20.1572 15.6314 19.9811C16.3003 22.1715 17.1776 24.4617 18.2363 26.7777C17.1639 29.1282 16.2741 31.4548 15.599 33.671C15.1559 33.5433 14.716 33.4046 14.2797 33.2551ZM16.864 15.5426C15.8594 10.3736 16.5264 6.47457 18.2051 5.49617C19.9932 4.45395 23.9467 5.94012 28.1139 9.66578C28.3802 9.90395 28.6477 10.1533 28.9157 10.4112C27.3631 12.0901 25.8288 14.0014 24.363 16.0844C21.8495 16.319 19.4433 16.6958 17.2313 17.2005C17.095 16.6509 16.9725 16.0981 16.864 15.5423V15.5426ZM39.9175 21.2746C39.395 20.3658 38.8531 19.4685 38.2923 18.5833C39.9976 18.8 41.6313 19.0882 43.1654 19.4409C42.7049 20.9273 42.1309 22.4816 41.4549 24.0749C40.961 23.1313 40.4484 22.1976 39.9175 21.2746ZM30.5163 12.0541C31.5693 13.2028 32.6239 14.4856 33.6613 15.8772C31.557 15.7771 29.4491 15.7766 27.3447 15.8758C28.383 14.497 29.4467 13.2162 30.5163 12.0541ZM21.0547 21.2903C20.5304 22.206 20.0274 23.1339 19.5462 24.0733C18.8813 22.4854 18.3124 20.9242 17.8479 19.4166C19.3728 19.0729 20.9989 18.7921 22.6931 18.579C22.126 19.4697 21.5797 20.3737 21.0547 21.2903ZM22.7419 35.0285C20.9916 34.8318 19.3409 34.5653 17.8164 34.2311C18.2883 32.6969 18.8697 31.1021 19.5488 29.4802C20.0321 30.4202 20.5373 31.3487 21.064 32.2648C21.6014 33.1994 22.1608 34.1209 22.7419 35.0285ZM30.5794 41.5517C29.4973 40.3759 28.418 39.0755 27.3638 37.6767C28.387 37.7172 29.4304 37.7377 30.4907 37.7377C31.5801 37.7377 32.657 37.7132 33.7169 37.6655C32.6762 39.0898 31.6253 40.3921 30.5794 41.5517ZM41.4766 29.3975C42.191 31.0371 42.7931 32.6233 43.2714 34.1316C41.7217 34.4876 40.0487 34.7744 38.2859 34.9873C38.8508 34.0856 39.3979 33.1726 39.9267 32.2489C40.4643 31.3101 40.9811 30.3594 41.4766 29.3975ZM37.9489 31.1004C37.1393 32.5166 36.2842 33.9058 35.3849 35.266C33.7992 35.3801 32.1606 35.4389 30.4907 35.4389C28.8277 35.4389 27.2099 35.3867 25.6519 35.285C24.7293 33.928 23.858 32.5364 23.0399 31.113C22.2256 29.6973 21.465 28.2509 20.7598 26.777C21.4632 25.3026 22.2215 23.8554 23.033 22.4385V22.439C23.8443 21.0217 24.7087 19.636 25.6244 18.2848C27.2139 18.1639 28.8435 18.1005 30.4909 18.1005C32.1457 18.1005 33.7775 18.1643 35.3665 18.2863C36.2729 19.6354 37.1318 21.0162 37.9415 22.4263C38.7558 23.8401 39.5242 25.2802 40.2455 26.7443C39.5316 28.2234 38.7657 29.6763 37.9491 31.1004H37.9489ZM42.6588 5.42782C44.4484 6.46718 45.1445 10.6582 44.02 16.1544C43.9463 16.5125 43.8662 16.8691 43.7797 17.2243C41.5625 16.7091 39.1547 16.3257 36.6338 16.0875C35.1652 13.9819 33.6436 12.0672 32.1161 10.4101C32.5164 10.0215 32.9262 9.64301 33.3451 9.27495C37.2908 5.81722 40.9785 4.45204 42.6588 5.42782Z" fill="white"/>
<path d="M30.4905 21.8789C33.1901 21.8789 35.3784 24.0673 35.3784 26.7666C35.3784 29.4662 33.1901 31.6546 30.4905 31.6546C27.7911 31.6546 25.6027 29.4662 25.6027 26.7666C25.6027 24.0673 27.7911 21.8789 30.4905 21.8789Z" fill="#53C1DE"/>
<path d="M132 12.4516L152.926 5L174.416 12.3191L170.936 39.9894L152.926 49.9581L135.198 40.1219L132 12.4516Z" fill="#E23237"/>
<path d="M174.417 12.3191L152.927 5V49.9581L170.937 40.0061L174.417 12.3191Z" fill="#B52E31"/>
<path d="M152.96 10.2494L139.921 39.2445L144.792 39.1617L147.41 32.6207H159.107L161.974 39.2445L166.629 39.3272L152.96 10.2494ZM152.993 19.5391L157.4 28.7459H149.116L152.993 19.5391Z" fill="white"/>
<path d="M134.259 63H135.619L132.459 56H131.179L128.029 63H129.369L130.059 61.38H133.559L134.259 63ZM130.499 60.36L131.809 57.3L133.129 60.36H130.499ZM141.24 56V60.74L137.38 56H136.31V63H137.6V58.26L141.46 63H142.53V56H141.24ZM148.985 61.6C148.535 61.86 148.045 61.96 147.545 61.96C146.065 61.96 145.015 60.92 145.015 59.5C145.015 58.05 146.065 57.04 147.555 57.04C148.305 57.04 148.935 57.29 149.485 57.84L150.305 57.04C149.645 56.29 148.665 55.9 147.495 55.9C145.305 55.9 143.705 57.41 143.705 59.5C143.705 61.59 145.305 63.1 147.475 63.1C148.465 63.1 149.485 62.8 150.215 62.21V59.42H148.985V61.6ZM154.74 63.1C156.65 63.1 157.8 61.99 157.8 59.95V56H156.52V59.9C156.52 61.34 155.88 61.96 154.75 61.96C153.62 61.96 152.97 61.34 152.97 59.9V56H151.67V59.95C151.67 61.99 152.82 63.1 154.74 63.1ZM159.421 63H164.381V61.9H160.721V56H159.421V63ZM170.496 63H171.856L168.696 56H167.416L164.266 63H165.606L166.296 61.38H169.796L170.496 63ZM166.736 60.36L168.046 57.3L169.366 60.36H166.736ZM178.526 63L176.916 60.7C177.866 60.33 178.406 59.55 178.406 58.49C178.406 56.94 177.266 56 175.426 56H172.546V63H173.846V60.96H175.426C175.516 60.96 175.606 60.96 175.696 60.95L177.126 63H178.526ZM177.096 58.49C177.096 59.37 176.506 59.89 175.366 59.89H173.846V57.1H175.366C176.506 57.1 177.096 57.61 177.096 58.49Z" fill="#E23237"/>
<path d="M20.5153 63L18.9053 60.7C19.8553 60.33 20.3953 59.55 20.3953 58.49C20.3953 56.94 19.2553 56 17.4153 56H14.5353V63H15.8353V60.96H17.4153C17.5053 60.96 17.5953 60.96 17.6853 60.95L19.1153 63H20.5153ZM19.0853 58.49C19.0853 59.37 18.4953 59.89 17.3553 59.89H15.8353V57.1H17.3553C18.4953 57.1 19.0853 57.61 19.0853 58.49ZM22.9498 61.91V59.98H26.3298V58.91H22.9498V57.09H26.7598V56H21.6498V63H26.8998V61.91H22.9498ZM33.389 63H34.749L31.589 56H30.309L27.159 63H28.499L29.189 61.38H32.689L33.389 63ZM29.629 60.36L30.939 57.3L32.259 60.36H29.629ZM38.5816 63.1C39.7316 63.1 40.7116 62.69 41.3616 61.93L40.5216 61.13C40.0116 61.69 39.3816 61.96 38.6516 61.96C37.2016 61.96 36.1516 60.94 36.1516 59.5C36.1516 58.06 37.2016 57.04 38.6516 57.04C39.3816 57.04 40.0116 57.31 40.5216 57.86L41.3616 57.07C40.7116 56.31 39.7316 55.9 38.5916 55.9C36.4416 55.9 34.8416 57.41 34.8416 59.5C34.8416 61.59 36.4416 63.1 38.5816 63.1ZM43.7491 63H45.0491V57.1H47.3691V56H41.4291V57.1H43.7491V63Z" fill="#53C1DE"/>
<path d="M265.803 56L263.453 61.4L261.123 56H259.713L262.773 63H264.053L267.103 56H265.803ZM270.798 63.1C272.708 63.1 273.858 61.99 273.858 59.95V56H272.578V59.9C272.578 61.34 271.938 61.96 270.808 61.96C269.678 61.96 269.028 61.34 269.028 59.9V56H267.728V59.95C267.728 61.99 268.878 63.1 270.798 63.1ZM276.778 61.91V59.98H280.158V58.91H276.778V57.09H280.588V56H275.478V63H280.728V61.91H276.778Z" fill="#41B883"/>
<path d="M53.5127 98.4682C53.5127 98.3688 53.4854 98.2978 53.4292 98.2514C53.367 98.2014 53.2594 98.1747 53.1096 98.1747H52.8943V98.7654H53.1542C53.3942 98.7654 53.5127 98.6661 53.5127 98.4682ZM53.8485 99.6998H53.5526L53.3638 99.2842C53.268 99.0759 53.1655 98.9718 53.0536 98.9718H52.8943V99.6998H52.6504V97.9674H53.139C53.3563 97.9674 53.5193 98.0144 53.6313 98.1123C53.7262 98.1965 53.7736 98.3045 53.7736 98.4389C53.7736 98.5582 53.7349 98.6585 53.6569 98.7417C53.581 98.826 53.4719 98.8828 53.3325 98.9122V98.9197C53.4293 98.9424 53.526 99.0485 53.6199 99.2397L53.8485 99.7007V99.6998ZM54.3892 98.8506C54.3892 98.5099 54.2726 98.2221 54.0401 97.9939C53.8068 97.7658 53.5222 97.6513 53.1864 97.6513C52.8401 97.6513 52.5518 97.7658 52.3232 97.9959C52.0945 98.2268 51.9808 98.5126 51.9808 98.8506C51.9808 99.1962 52.0993 99.4849 52.3346 99.7149C52.567 99.9449 52.8516 100.059 53.1864 100.059C53.5193 100.059 53.8039 99.944 54.0382 99.7111C54.2726 99.482 54.3892 99.1943 54.3892 98.8506ZM54.5533 98.8431C54.5533 99.2256 54.4215 99.5465 54.1569 99.8049C53.8922 100.065 53.5677 100.195 53.1797 100.195C52.789 100.195 52.4646 100.067 52.2065 99.8163C51.9485 99.5617 51.8204 99.2417 51.8204 98.8536C51.8204 98.474 51.9513 98.155 52.2131 97.8928C52.475 97.6315 52.8013 97.5009 53.1912 97.5009C53.5734 97.5009 53.8941 97.6259 54.154 97.8748C54.4205 98.1304 54.5533 98.4522 54.5533 98.8431Z" fill="black"/>
<path d="M17.4508 103.674H16.6094V98.8686C16.6094 98.4891 16.6345 98.0271 16.6793 97.4819H16.6603C16.5815 97.8009 16.5094 98.0318 16.4459 98.1748L14.0004 103.674H13.5906L11.1403 98.2146C11.0712 98.0621 10.999 97.8169 10.9259 97.4819H10.9077C10.9335 97.7687 10.9479 98.2335 10.9479 98.8781V103.674H10.1368V96.5182H11.2467L13.4466 101.508C13.6125 101.884 13.7198 102.17 13.7719 102.365H13.8068C13.95 101.974 14.0638 101.68 14.1502 101.487L16.3974 96.5182H17.4504V103.674H17.4508Z" fill="black"/>
<path d="M20.039 103.673H19.2214V98.5636H20.039V103.673ZM20.1804 96.7319C20.1804 96.8824 20.1273 97.0083 20.0219 97.1115C19.9186 97.2146 19.7905 97.2667 19.6406 97.2667C19.4945 97.2667 19.3674 97.2167 19.2631 97.1172C19.1588 97.0168 19.1075 96.889 19.1075 96.7319C19.1075 96.5842 19.1591 96.4583 19.2631 96.3561C19.3674 96.2539 19.4945 96.2046 19.6406 96.2046C19.7905 96.2046 19.9186 96.2539 20.0219 96.3561C20.1273 96.4583 20.1804 96.5842 20.1804 96.7319Z" fill="black"/>
<path d="M25.149 103.437C24.7563 103.678 24.2877 103.797 23.746 103.797C23.0119 103.797 22.4209 103.554 21.9693 103.068C21.5311 102.596 21.3101 101.988 21.3101 101.242C21.3101 100.405 21.55 99.7273 22.0338 99.2123C22.5148 98.6964 23.1618 98.4389 23.9757 98.4389C24.4205 98.4389 24.8152 98.526 25.1604 98.6983V99.538C24.7782 99.27 24.3741 99.1375 23.9405 99.1375C23.4188 99.1375 22.9948 99.3193 22.6656 99.6819C22.3231 100.053 22.1496 100.549 22.1496 101.168C22.1496 101.763 22.308 102.233 22.6229 102.58C22.9388 102.926 23.3591 103.099 23.8893 103.099C24.337 103.099 24.7563 102.952 25.149 102.66V103.437Z" fill="black"/>
<path d="M29.0602 99.3926C28.916 99.2819 28.7083 99.2279 28.4341 99.2279C28.1012 99.2279 27.8213 99.3766 27.5947 99.6766C27.3375 100.012 27.2095 100.476 27.2095 101.068V103.673H26.3899V98.5634H27.2095V99.617H27.2292C27.3498 99.2441 27.5357 98.9572 27.7842 98.7537C28.0166 98.5682 28.2794 98.4744 28.5687 98.4744C28.7869 98.4744 28.9491 98.4979 29.06 98.5441V99.3923L29.0602 99.3926Z" fill="black"/>
<path d="M33.6282 101.128C33.6282 100.474 33.4802 99.9739 33.1842 99.6312C32.8968 99.3018 32.4955 99.1371 31.9786 99.1371C31.4691 99.1371 31.0603 99.3037 30.7548 99.6369C30.4313 99.9929 30.2701 100.496 30.2701 101.148C30.2701 101.759 30.4238 102.239 30.734 102.582C31.0422 102.926 31.4578 103.099 31.9786 103.099C32.5174 103.099 32.93 102.924 33.2127 102.575C33.4897 102.234 33.6282 101.753 33.6282 101.128ZM34.4687 101.099C34.4687 101.913 34.2382 102.567 33.779 103.058C33.318 103.55 32.6976 103.796 31.9179 103.796C31.1495 103.796 30.5376 103.55 30.089 103.058C29.6497 102.583 29.4287 101.957 29.4287 101.178C29.4287 100.289 29.6782 99.6034 30.179 99.1168C30.6419 98.6653 31.2614 98.4381 32.0374 98.4381C32.801 98.4381 33.3977 98.6757 33.8274 99.1462C34.2534 99.6195 34.4687 100.271 34.4687 101.099Z" fill="black"/>
<path d="M38.5333 102.306C38.5333 102.725 38.3768 103.071 38.0628 103.348C37.7204 103.647 37.2499 103.796 36.658 103.796C36.1732 103.796 35.7482 103.695 35.3877 103.489V102.609C35.789 102.935 36.232 103.099 36.7187 103.099C37.3675 103.099 37.6929 102.86 37.6929 102.385C37.6929 102.185 37.6215 102.02 37.4776 101.892C37.3333 101.761 37.0535 101.605 36.6371 101.422C36.2083 101.235 35.9028 101.043 35.7226 100.843C35.5063 100.606 35.3972 100.299 35.3972 99.92C35.3972 99.4959 35.567 99.1428 35.9028 98.8617C36.2396 98.5796 36.6722 98.4385 37.2034 98.4385C37.6104 98.4385 37.9746 98.518 38.2981 98.678V99.5016C37.9604 99.2583 37.5743 99.1371 37.136 99.1371C36.8648 99.1371 36.6466 99.2045 36.4843 99.3359C36.3203 99.4703 36.2377 99.6417 36.2377 99.8509C36.2377 100.077 36.3067 100.253 36.4436 100.379C36.565 100.496 36.823 100.638 37.2119 100.803C37.6492 100.986 37.9651 101.175 38.1577 101.369C38.4072 101.614 38.5333 101.927 38.5333 102.306Z" fill="black"/>
<path d="M43.5423 101.128C43.5423 100.474 43.3943 99.9739 43.0974 99.6312C42.8109 99.3018 42.4087 99.1371 41.8927 99.1371C41.3832 99.1371 40.9744 99.3037 40.6671 99.6369C40.3445 99.9929 40.1842 100.496 40.1842 101.148C40.1842 101.759 40.3379 102.239 40.6452 102.582C40.9574 102.926 41.3728 103.099 41.8927 103.099C42.4324 103.099 42.8441 102.924 43.1268 102.575C43.4038 102.234 43.5423 101.753 43.5423 101.128ZM44.3846 101.099C44.3846 101.913 44.1523 102.567 43.6921 103.058C43.233 103.55 42.6126 103.796 41.8329 103.796C41.0636 103.796 40.4517 103.55 40.003 103.058C39.5638 102.583 39.3428 101.957 39.3428 101.178C39.3428 100.289 39.5942 99.6034 40.0922 99.1168C40.5551 98.6653 41.1755 98.4381 41.9524 98.4381C42.7161 98.4381 43.3118 98.6757 43.7406 99.1462C44.1674 99.6195 44.3846 100.271 44.3846 101.099Z" fill="black"/>
<path d="M47.9963 96.8274C47.835 96.7384 47.6557 96.6929 47.4517 96.6929C46.8778 96.6929 46.5932 97.0535 46.5932 97.7759V98.5635H47.7933V99.2564H46.5932V103.673H45.7727V99.2564H44.9019V98.5635H45.7727V97.7352C45.7727 97.1728 45.9454 96.7317 46.2964 96.4137C46.5971 96.1372 46.9651 96 47.4024 96C47.6558 96 47.8531 96.0303 47.9963 96.089V96.8274Z" fill="black"/>
<path d="M51.2312 103.622C51.0377 103.733 50.7796 103.788 50.4609 103.788C49.5673 103.788 49.1205 103.285 49.1205 102.28V99.2571H48.2421V98.5632H49.1205V97.3166C49.3824 97.2342 49.6546 97.1443 49.942 97.0515V98.5632H51.2312V99.2571H49.942V102.141C49.942 102.483 49.9982 102.728 50.1156 102.87C50.2342 103.017 50.4277 103.089 50.7009 103.089C50.9049 103.089 51.0813 103.035 51.2312 102.924V103.622Z" fill="black"/>
<path d="M6.92362 123.617C6.92362 124.017 6.78042 124.364 6.49105 124.656C6.20268 124.948 5.8526 125.094 5.44189 125.094C5.04059 125.094 4.69909 124.948 4.41929 124.656C4.13942 124.364 4 124.017 4 123.617C4 123.205 4.13942 122.858 4.41929 122.57C4.69909 122.281 5.04059 122.138 5.44189 122.138C5.8526 122.138 6.20268 122.283 6.49105 122.575C6.78042 122.868 6.92362 123.215 6.92362 123.617Z" fill="black"/>
<path d="M22.6019 124.794L12.8986 109.84C12.6719 109.48 12.4765 109.089 12.3105 108.662H12.2307C12.2998 109.062 12.3352 109.922 12.3352 111.239V124.794H10.1315V106.032H12.9916L22.4046 120.75C22.7794 121.335 23.0354 121.753 23.1654 122.005H23.2178C23.1305 121.465 23.085 120.545 23.085 119.246V106.032H25.2753V124.794H22.6019Z" fill="black"/>
<path d="M39.4023 124.794H29.4381V106.032H38.9697V108.02H31.6398V114.261H38.4319V116.25H31.6398V122.805H39.4023V124.794Z" fill="black"/>
<path d="M54.5161 108.02H49.1006V124.794H46.8979V108.02H41.4719V106.032H54.5161V108.02Z" fill="black"/>
<path d="M119.172 122.23H118.546V124.176H118.29V122.23H117.662V121.999H119.172V122.23Z" fill="black"/>
<path d="M121.732 124.175H121.478V122.713C121.478 122.597 121.487 122.456 121.499 122.29C121.473 122.39 121.451 122.458 121.431 122.503L120.69 124.175H120.566L119.823 122.515C119.801 122.469 119.78 122.394 119.756 122.29H119.747C119.756 122.378 119.759 122.52 119.759 122.716V124.175H119.515V121.998H119.852L120.519 123.517C120.57 123.631 120.601 123.719 120.617 123.778H120.627C120.671 123.658 120.708 123.569 120.732 123.51L121.413 121.998H121.734V124.175H121.732Z" fill="black"/>
<path d="M85.2483 102.611C87.7788 110.353 88.7375 124.165 96.1372 124.165C96.7007 124.165 97.2698 124.11 97.8412 124.001C91.1145 122.432 90.3173 108.77 86.2126 101.696C85.8908 101.988 85.5712 102.293 85.2483 102.611Z" fill="url(#paint0_linear)"/>
<path d="M86.2169 101.696C90.3216 108.771 91.1188 122.432 97.8455 124.001C98.3739 123.904 98.9035 123.757 99.4343 123.572C93.3964 120.612 91.7274 107.346 87.0661 100.959C86.7838 101.194 86.5004 101.441 86.2169 101.696Z" fill="url(#paint1_linear)"/>
<path d="M92.1275 97.4885C91.5651 97.4885 90.9949 97.5437 90.4224 97.6524C88.9251 97.9349 87.4041 98.5799 85.8706 99.5561C86.2895 99.9696 86.6881 100.443 87.063 100.959C88.6224 99.6645 90.1717 98.7076 91.7154 98.1325C92.2946 97.9179 92.8717 97.7563 93.4509 97.6501C93.0331 97.5438 92.5927 97.4885 92.1275 97.4885Z" fill="#14559A"/>
<path d="M104.144 120.843C104.762 120.352 105.381 119.808 106.001 119.215C103.429 111.509 102.509 97.4995 95.0576 97.4995C94.5246 97.4995 93.9871 97.5492 93.4507 97.6487C100.238 99.3377 101.108 114.113 104.144 120.843Z" fill="url(#paint2_linear)"/>
<path d="M93.451 97.6498C93.0332 97.5436 92.5928 97.4883 92.1276 97.4883L95.0579 97.499C94.5249 97.499 93.9874 97.5487 93.451 97.6493" fill="#3092C4"/>
<path d="M104.014 122.48C103.723 122.203 103.446 121.898 103.174 121.572C101.921 122.46 100.672 123.134 99.4309 123.572C99.8724 123.788 100.335 123.948 100.827 124.048C101.207 124.125 101.601 124.165 102.016 124.165C103.408 124.165 104.509 124 105.446 123.55C104.93 123.271 104.457 122.91 104.014 122.48Z" fill="#1969BC"/>
<path d="M91.7145 98.1334C97.7941 101.315 98.3226 115.722 103.174 121.572C103.499 121.343 103.821 121.1 104.143 120.843C101.106 114.113 100.238 99.3366 93.4512 97.6487C92.8719 97.7571 92.2938 97.9177 91.7145 98.1334Z" fill="url(#paint3_linear)"/>
<path d="M87.064 100.96C91.7253 107.347 93.3943 120.613 99.4322 123.573C100.673 123.134 101.922 122.461 103.175 121.573C98.3244 115.723 97.796 101.316 91.7163 98.1343C90.1727 98.7082 88.6234 99.6651 87.064 100.96Z" fill="url(#paint4_linear)"/>
<path d="M82.2695 102.425C81.5389 104.078 80.7925 106.25 79.8903 109.086C81.6846 106.556 83.4732 104.377 85.2517 102.611C85.0067 101.857 84.7436 101.163 84.4602 100.543C83.733 101.1 83.0001 101.728 82.2695 102.425Z" fill="url(#paint5_linear)"/>
<path d="M85.1072 100.067C84.8925 100.221 84.6767 100.378 84.4598 100.544C84.7434 101.163 85.0055 101.858 85.2507 102.611C85.5737 102.295 85.8946 101.989 86.2154 101.696C85.8709 101.104 85.5049 100.557 85.1072 100.067Z" fill="#2B74B1"/>
<path d="M85.874 99.5559C85.6188 99.7175 85.3648 99.8881 85.1084 100.067C85.5059 100.557 85.8717 101.104 86.2173 101.697C86.5007 101.44 86.7841 101.193 87.0665 100.959C86.6916 100.443 86.293 99.9694 85.874 99.5559Z" fill="#125A9E"/>
<path d="M127.34 96.8985C123.901 110.166 116.719 120.822 110.698 123.508H110.687C110.578 123.558 110.469 123.603 110.362 123.647C110.347 123.656 110.334 123.657 110.322 123.663C110.291 123.676 110.261 123.685 110.23 123.698C110.215 123.707 110.202 123.71 110.188 123.715C110.137 123.733 110.087 123.749 110.038 123.769C110.016 123.778 109.996 123.783 109.976 123.79C109.953 123.799 109.927 123.808 109.901 123.815C109.879 123.824 109.855 123.83 109.829 123.84C109.807 123.849 109.785 123.853 109.765 123.862C109.72 123.874 109.68 123.885 109.636 123.901C109.618 123.901 109.601 123.91 109.582 123.915C109.554 123.924 109.524 123.931 109.495 123.939C109.474 123.948 109.457 123.951 109.436 123.955C109.405 123.964 109.371 123.972 109.341 123.979C109.3 123.988 109.264 123.997 109.226 124.005C109.498 124.105 109.781 124.156 110.087 124.156C115.797 124.156 121.553 113.919 131.078 96.8954H127.338L127.34 96.8985Z" fill="url(#paint6_linear)"/>
<path d="M78.649 98.0299C78.6526 98.0299 78.6571 98.021 78.6593 98.021C78.6638 98.021 78.6707 98.0209 78.6729 98.012C78.6729 98.012 78.6774 98.012 78.6801 98.012C78.7117 98.0012 78.7411 97.9885 78.7727 97.9767C78.7807 97.9767 78.785 97.9768 78.7908 97.9678C78.7989 97.9678 78.8067 97.9589 78.8146 97.9577C78.8484 97.947 78.8823 97.9342 78.9139 97.9225C78.9139 97.9225 78.9175 97.9225 78.9193 97.9225C78.995 97.8999 79.065 97.8719 79.1384 97.8457C79.1487 97.8457 79.1587 97.8367 79.1711 97.8367C79.2016 97.8269 79.2332 97.8159 79.2648 97.8087C79.2796 97.7998 79.2942 97.7997 79.3077 97.795C79.3404 97.7852 79.3721 97.7742 79.4026 97.767C79.4162 97.767 79.4286 97.7581 79.4387 97.7572C79.5437 97.7283 79.6476 97.7011 79.7526 97.6758C79.7674 97.6758 79.7797 97.6669 79.7955 97.666C79.826 97.657 79.8543 97.6523 79.887 97.6478C79.9006 97.6389 79.9164 97.6389 79.9322 97.6342C79.9626 97.6253 79.992 97.6244 80.0248 97.617C80.0328 97.617 80.0371 97.617 80.0462 97.617C80.1095 97.6042 80.1738 97.5935 80.2371 97.5817C80.2485 97.5817 80.263 97.5817 80.2755 97.5817C80.3059 97.5728 80.333 97.5719 80.3636 97.5663C80.3803 97.5663 80.3974 97.5573 80.4132 97.5573C80.4414 97.5573 80.4697 97.5484 80.4979 97.5446C80.5126 97.5446 80.5272 97.5446 80.5442 97.5356C80.6108 97.5267 80.6797 97.5231 80.7497 97.5175C80.5521 97.4985 80.3489 97.4858 80.1422 97.4858C73.7125 97.4858 64.8539 109.422 60.8633 124.88C60.8633 124.88 61.1546 124.88 61.6323 124.88C62.9094 122.601 64.0567 120.445 65.1057 118.422C67.9005 107.473 73.5928 100.006 78.6494 98.0281" fill="url(#paint7_linear)"/>
<path d="M82.2686 102.424C82.9992 101.727 83.732 101.1 84.4592 100.543C84.2933 100.18 84.1216 99.8429 83.9375 99.5344C83.3492 100.248 82.8117 101.191 82.2686 102.424Z" fill="#0D82CA"/>
<path d="M82.7964 98.1167C83.2167 98.4692 83.5929 98.9539 83.9375 99.5346C84.046 99.4013 84.1556 99.2781 84.2697 99.1629C83.7918 98.7167 83.2755 98.3506 82.7151 98.075C82.7377 98.0875 82.7603 98.0976 82.7838 98.1075C82.7838 98.1075 82.7927 98.1164 82.7965 98.1164" fill="#0D82CA"/>
<path d="M65.106 118.42C70.9688 107.116 73.7466 99.9626 78.6497 98.0261C73.5942 100.006 67.9007 107.472 65.106 118.42Z" fill="url(#paint8_linear)"/>
<path d="M84.269 99.1631C84.1549 99.2796 84.0464 99.4017 83.9366 99.5351C84.121 99.8437 84.2928 100.18 84.4602 100.545C84.6772 100.379 84.8932 100.221 85.108 100.068C84.8423 99.7397 84.5619 99.4356 84.269 99.1631Z" fill="#127BCA"/>
<path d="M67.7657 124.827C67.7296 124.836 67.6934 124.836 67.6596 124.84C67.6483 124.84 67.646 124.84 67.6392 124.84C67.6087 124.84 67.5771 124.849 67.5489 124.849C67.5489 124.849 67.5376 124.849 67.5342 124.849C67.4608 124.858 67.3885 124.858 67.3185 124.863H67.2959C73.2299 124.697 75.9422 121.725 77.2883 117.413C78.3113 114.145 79.1514 111.392 79.8877 109.081C77.4023 112.581 74.9056 116.754 72.3954 121.428C71.1849 123.68 69.3443 124.621 67.7657 124.823" fill="url(#paint9_linear)"/>
<path d="M67.7651 124.825C69.3438 124.624 71.1844 123.684 72.3949 121.43C74.9051 116.757 77.4029 112.584 79.886 109.084C80.7894 106.247 81.5347 104.075 82.2664 102.422C77.3171 107.136 72.3486 114.973 67.7651 124.823" fill="url(#paint10_linear)"/>
<path d="M65.1063 118.42C64.0573 120.444 62.91 122.599 61.6328 124.878C62.185 124.878 62.9845 124.878 63.8698 124.878C64.1657 122.615 64.5857 120.457 65.1063 118.421" fill="#05A1E6"/>
<path d="M80.5459 97.5379C80.5278 97.5379 80.5143 97.5469 80.4985 97.5469C80.4714 97.5559 80.4431 97.5559 80.4149 97.5588C80.3981 97.5588 80.3822 97.5588 80.3652 97.5677C80.3347 97.5767 80.3065 97.5776 80.2772 97.5832C80.2635 97.5832 80.2501 97.5832 80.2388 97.5921C80.1743 97.6029 80.1112 97.6147 80.0479 97.6256C80.0367 97.6256 80.0332 97.6256 80.0264 97.6256C79.9937 97.6345 79.9643 97.6392 79.9339 97.6437C79.918 97.6526 79.9022 97.6526 79.8875 97.6562C79.8571 97.6652 79.8265 97.669 79.7972 97.6744C79.7813 97.6833 79.769 97.6833 79.7543 97.6842C79.6493 97.7095 79.5454 97.7366 79.4403 97.7655C79.4291 97.7655 79.4178 97.7745 79.4042 97.7763C79.3726 97.7852 79.3421 97.7944 79.3094 97.8043C79.2957 97.8133 79.28 97.8132 79.2665 97.8168C79.2348 97.8258 79.2032 97.835 79.1727 97.8449C79.1604 97.8449 79.1501 97.8538 79.1389 97.8538C79.0666 97.8809 78.9954 97.908 78.9209 97.9306C78.8893 97.9405 78.8554 97.9532 78.8215 97.965C78.8079 97.9739 78.7955 97.9759 78.7798 97.9822C78.7482 97.992 78.7166 98.0048 78.6872 98.0166C78.676 98.0255 78.6646 98.0264 78.6568 98.0311C73.7538 99.9676 70.9759 107.121 65.1131 118.425C64.5925 120.461 64.1713 122.619 63.8766 124.882H64.1905C65.0747 124.882 65.3242 124.873 66.3417 124.873H66.3936H66.5449H66.5969H66.6116H66.6635H66.6929H66.7132H66.7538H66.8803H67.0068H67.1129H67.1411C67.2021 124.873 67.2642 124.873 67.3274 124.873C67.3974 124.864 67.4697 124.864 67.5431 124.858C67.5431 124.858 67.5544 124.858 67.5567 124.858C67.5872 124.858 67.6177 124.849 67.647 124.849C67.6583 124.849 67.6594 124.849 67.6684 124.849C67.7011 124.849 67.7384 124.84 67.7746 124.837C72.358 114.987 77.3265 107.15 82.2758 102.436C82.8201 101.202 83.3565 100.26 83.9437 99.5473C83.6004 98.9666 83.2244 98.4808 82.8043 98.1282C82.8043 98.1282 82.7929 98.1282 82.792 98.1192C82.7682 98.1094 82.7458 98.0975 82.722 98.0858C82.6982 98.0731 82.6779 98.0632 82.6531 98.0505C82.6317 98.0416 82.6068 98.0297 82.5854 98.018C82.5561 98.0091 82.5323 97.9963 82.5064 97.9845C82.4849 97.9756 82.4657 97.9664 82.4442 97.9574C82.4001 97.9402 82.3562 97.9222 82.3144 97.9032C82.2951 97.8943 82.2771 97.8896 82.259 97.8824C82.2285 97.8715 82.1935 97.8571 82.1619 97.8435C82.146 97.8346 82.128 97.8328 82.1099 97.8263C82.0637 97.8109 82.0185 97.7947 81.9755 97.7802C81.9643 97.7802 81.9644 97.7802 81.9644 97.7802C81.9124 97.763 81.8616 97.7504 81.8085 97.7359C81.7962 97.727 81.7859 97.727 81.7736 97.7252C81.7272 97.7124 81.6866 97.6998 81.6426 97.6881C81.6314 97.6881 81.6211 97.6792 81.6121 97.6792C81.506 97.6511 81.3965 97.6285 81.2858 97.6077C81.2744 97.6077 81.2632 97.5988 81.2519 97.5988C81.2045 97.5899 81.1582 97.5816 81.1108 97.5762C81.0994 97.5672 81.0927 97.5673 81.0826 97.5673C81.0261 97.5583 80.9708 97.5518 80.9154 97.5455C80.9043 97.5455 80.8962 97.5455 80.8861 97.5455C80.8409 97.5366 80.7992 97.5357 80.7574 97.531C80.6862 97.54 80.6185 97.5438 80.5518 97.55" fill="url(#paint11_linear)"/>
<path d="M113.908 104.244C112.78 107.859 111.866 110.842 111.071 113.295C114.166 109.034 117.215 103.673 120.118 97.4863C116.732 98.5505 114.925 100.986 113.908 104.244Z" fill="url(#paint12_linear)"/>
<path d="M111.17 123.283C111.012 123.363 110.854 123.44 110.698 123.509C116.719 120.822 123.9 110.166 127.339 96.8988H126.642C118.742 111.018 116.202 120.47 111.17 123.283Z" fill="url(#paint13_linear)"/>
<path d="M107.239 122.097C108.548 120.497 109.616 117.778 111.072 113.296C109.392 115.605 107.7 117.59 106.008 119.209C106.008 119.218 106.008 119.218 105.999 119.224C106.368 120.331 106.773 121.308 107.235 122.097" fill="#079AE1"/>
<path d="M107.241 122.097C106.795 122.641 106.323 123.056 105.798 123.363C105.683 123.43 105.567 123.493 105.448 123.551C106.002 123.85 106.608 124.05 107.285 124.13C107.384 124.14 107.483 124.149 107.586 124.156H107.604C107.65 124.156 107.699 124.156 107.748 124.165H107.768C107.818 124.165 107.868 124.165 107.916 124.165C107.969 124.165 108.022 124.165 108.075 124.165C108.093 124.165 108.109 124.165 108.125 124.165C108.161 124.165 108.2 124.165 108.238 124.165C108.256 124.165 108.275 124.165 108.293 124.156C108.328 124.156 108.365 124.156 108.401 124.147C108.41 124.147 108.41 124.147 108.414 124.147C108.429 124.147 108.441 124.147 108.455 124.147C108.492 124.147 108.533 124.138 108.572 124.135H108.581C108.593 124.135 108.606 124.126 108.617 124.126C108.659 124.117 108.702 124.113 108.743 124.107C108.756 124.107 108.766 124.107 108.78 124.107C108.826 124.098 108.874 124.092 108.921 124.083H108.93C108.939 124.083 108.94 124.083 108.944 124.083C109.038 124.065 109.131 124.047 109.225 124.024C108.448 123.739 107.797 123.068 107.237 122.112" fill="#1969BC"/>
<path d="M96.1401 124.165C96.7036 124.165 97.2728 124.11 97.8441 124C98.3726 123.904 98.9022 123.757 99.4329 123.572C99.8745 123.788 100.337 123.948 100.827 124.048C101.208 124.125 101.603 124.165 102.018 124.165H96.1401Z" fill="#1E5CB3"/>
<path d="M102.015 124.166C103.406 124.166 104.508 124.001 105.445 123.551C105.999 123.85 106.604 124.05 107.282 124.131C107.381 124.14 107.479 124.15 107.582 124.157H107.6C107.646 124.157 107.695 124.157 107.745 124.166H107.766C107.815 124.166 107.865 124.166 107.914 124.166H102.011L102.015 124.166Z" fill="#1E5CB3"/>
<path d="M107.919 124.165C107.973 124.165 108.026 124.165 108.079 124.165C108.095 124.165 108.113 124.165 108.129 124.165C108.165 124.165 108.202 124.165 108.241 124.165C108.26 124.165 108.278 124.165 108.296 124.156C108.331 124.156 108.368 124.156 108.405 124.147C108.414 124.147 108.414 124.147 108.417 124.147C108.432 124.147 108.445 124.147 108.459 124.147C108.496 124.147 108.536 124.138 108.575 124.135C108.575 124.135 108.584 124.135 108.585 124.135C108.597 124.135 108.608 124.126 108.62 124.126C108.662 124.117 108.705 124.113 108.746 124.107C108.759 124.107 108.77 124.107 108.784 124.098C108.83 124.089 108.878 124.084 108.926 124.075H108.935C108.943 124.075 108.944 124.075 108.948 124.075C109.043 124.057 109.136 124.039 109.229 124.016C109.501 124.116 109.785 124.167 110.091 124.167L107.92 124.176L107.919 124.165Z" fill="#1D60B5"/>
<path d="M106.003 119.224V119.215C105.383 119.808 104.764 120.351 104.147 120.843C103.824 121.099 103.502 121.342 103.177 121.572C103.449 121.897 103.725 122.202 104.017 122.48C104.459 122.909 104.932 123.271 105.449 123.55C105.566 123.492 105.683 123.429 105.797 123.362C106.324 123.055 106.796 122.64 107.242 122.096C106.78 121.307 106.375 120.33 106.005 119.223" fill="#175FAB"/>
<path d="M124.437 96.8988H121.507C121.409 96.8988 121.312 96.8988 121.216 96.8988C121.122 96.8988 121.032 96.8988 120.941 96.8988H120.93C120.74 96.9078 120.556 96.9142 120.374 96.9259C120.289 97.1101 120.2 97.2943 120.116 97.4796C117.213 103.666 114.164 109.027 111.069 113.289C109.613 117.771 108.545 120.49 107.235 122.09C107.795 123.046 108.447 123.718 109.221 124.003C109.244 123.994 109.262 123.994 109.282 123.989C109.282 123.989 109.293 123.989 109.295 123.989C109.308 123.989 109.323 123.98 109.338 123.98C109.369 123.971 109.403 123.965 109.435 123.956C109.455 123.947 109.472 123.946 109.492 123.939C109.522 123.93 109.552 123.924 109.579 123.917C109.597 123.908 109.615 123.905 109.633 123.901C109.679 123.887 109.719 123.876 109.762 123.862C109.783 123.853 109.804 123.846 109.827 123.841C109.851 123.832 109.876 123.825 109.899 123.814C109.925 123.805 109.951 123.801 109.973 123.791C109.994 123.782 110.015 123.776 110.034 123.768C110.085 123.75 110.135 123.735 110.186 123.715C110.199 123.715 110.213 123.702 110.227 123.699C110.258 123.687 110.29 123.677 110.32 123.663C110.331 123.654 110.345 123.653 110.36 123.649C110.466 123.604 110.575 123.559 110.685 123.51H110.696C110.852 123.441 111.01 123.364 111.167 123.284C116.2 120.471 118.741 111.019 126.641 96.8999H124.434L124.437 96.8988Z" fill="url(#paint14_linear)"/>
<path d="M80.7505 97.5196C80.763 97.5196 80.7742 97.5197 80.7866 97.5286C80.8171 97.5286 80.8476 97.5286 80.8781 97.5384C80.8895 97.5384 80.8996 97.5384 80.9086 97.5384C80.9639 97.5474 81.0193 97.5521 81.0757 97.5602C81.086 97.5602 81.095 97.5602 81.1039 97.5691C81.1502 97.5781 81.1976 97.5855 81.245 97.5926C81.2553 97.5926 81.2688 97.6016 81.2801 97.6016C81.3885 97.6233 81.4992 97.6458 81.6053 97.6739C81.6154 97.6739 81.6257 97.6828 81.6347 97.6828C81.6799 97.6936 81.7205 97.7072 81.7657 97.7199C81.7793 97.7199 81.7893 97.7288 81.8018 97.7308C81.8549 97.7445 81.9046 97.758 81.9565 97.7751C81.9588 97.7751 81.9619 97.7751 81.9679 97.7841C82.0119 97.7975 82.0571 97.8148 82.1034 97.8302C82.1215 97.8391 82.1384 97.8429 82.1554 97.8474C82.187 97.8611 82.222 97.8745 82.2525 97.8872C82.2706 97.8872 82.2886 97.8997 82.3078 97.9062C82.3495 97.9252 82.3936 97.9423 82.4365 97.9604C82.4591 97.9694 82.4782 97.9794 82.4997 97.9875C82.5246 98.0003 82.5505 98.0119 82.5776 98.021C82.6002 98.0317 82.625 98.0436 82.6464 98.0535C82.6702 98.0663 82.6927 98.0761 82.7153 98.0887C83.2754 98.3644 83.7915 98.7316 84.2691 99.1768C84.4453 98.9915 84.6293 98.8254 84.8202 98.6763C83.7757 97.9351 82.5923 97.5126 81.2271 97.5126C81.069 97.5126 80.9109 97.5215 80.7505 97.5334" fill="#7DCBEC"/>
<path d="M84.2672 99.1634C84.5598 99.4356 84.84 99.7396 85.1055 100.067C85.362 99.8887 85.6162 99.717 85.8715 99.5566C85.5371 99.2221 85.1846 98.9216 84.8174 98.6628C84.6265 98.8109 84.4435 98.9781 84.2672 99.1634Z" fill="#5EC5ED"/>
<path d="M80.7521 97.5195C80.9125 97.5059 81.0707 97.5003 81.2288 97.5003C82.5948 97.5003 83.7788 97.9228 84.8238 98.6628C85.9265 97.7929 87.2597 97.489 89.1115 97.489H80.1443C80.351 97.489 80.5532 97.5014 80.7521 97.5195Z" fill="url(#paint15_linear)"/>
<path d="M89.1072 97.4891C87.2555 97.4891 85.9223 97.793 84.8196 98.663C85.1856 98.9217 85.5381 99.2222 85.8726 99.5566C87.4079 98.5805 88.9286 97.9343 90.4279 97.6518C90.9995 97.5445 91.5701 97.4891 92.1327 97.4891H89.1072Z" fill="url(#paint16_linear)"/>
<path d="M111.072 113.298C111.868 110.842 112.78 107.861 113.91 104.244C114.929 100.986 116.732 98.5499 120.118 97.4868C120.208 97.3048 120.292 97.1173 120.379 96.9331C114.859 97.2642 112.278 100.074 110.98 104.235C108.709 111.5 107.334 116.209 106.009 119.209C107.701 117.591 109.392 115.605 111.072 113.298Z" fill="url(#paint17_linear)"/>
<path d="M421 198.25L421.249 197.912L433.015 176.205L433.04 175.975L427.853 166.503C427.418 165.709 426.195 165.91 426.052 166.798L421 198.25Z" fill="#FFC24A"/>
<path d="M421.147 197.99L421.335 197.633L432.978 176.154L427.804 166.643C427.374 165.858 426.282 166.058 426.141 166.937L421.147 197.99Z" fill="#FFA712"/>
<path d="M436.821 183.138L440.683 179.292L436.82 172.122C436.453 171.444 435.429 171.442 435.066 172.122L433.002 175.949V176.275L436.821 183.138H436.821Z" fill="#F4BD62"/>
<path d="M436.752 182.978L440.507 179.239L436.752 172.288C436.396 171.629 435.529 171.559 435.177 172.221L433.102 176.107L433.04 176.306L436.752 182.978Z" fill="#FFA50E"/>
<path d="M421 198.248L421.113 198.138L421.522 197.976L436.578 183.392L436.769 182.887L433.013 175.928L421 198.248Z" fill="#F6820C"/>
<path d="M437.303 205.603L450.929 198.215L447.038 174.915C446.916 174.186 445.997 173.898 445.46 174.42L421 198.248L434.548 205.603C434.969 205.831 435.443 205.951 435.925 205.951C436.408 205.951 436.882 205.831 437.303 205.603Z" fill="#FDE068"/>
<path d="M450.807 198.153L446.945 175.03C446.825 174.306 446.06 174.007 445.527 174.526L421.151 198.203L434.55 205.484C434.968 205.711 435.439 205.83 435.917 205.83C436.396 205.831 436.867 205.712 437.285 205.485L450.807 198.153L450.807 198.153Z" fill="#FCCA3F"/>
<path d="M437.303 205.386C436.882 205.614 436.408 205.734 435.925 205.734C435.443 205.734 434.969 205.614 434.548 205.385L421.109 198.136L421 198.248L434.548 205.603C434.969 205.831 435.443 205.951 435.925 205.951C436.408 205.952 436.882 205.832 437.303 205.603L450.929 198.215L450.896 198.015L437.303 205.386L437.303 205.386Z" fill="#EEAB37"/>
<path d="M416.42 212.09V211H411.31V218H412.61V215.32H415.99V214.22H412.61V212.09H416.42ZM417.477 218H418.777V211H417.477V218ZM426.45 218L424.84 215.7C425.79 215.33 426.33 214.55 426.33 213.49C426.33 211.94 425.19 211 423.35 211H420.47V218H421.77V215.96H423.35C423.44 215.96 423.53 215.96 423.62 215.95L425.05 218H426.45ZM425.02 213.49C425.02 214.37 424.43 214.89 423.29 214.89H421.77V212.1H423.29C424.43 212.1 425.02 212.61 425.02 213.49ZM428.885 216.91V214.98H432.265V213.91H428.885V212.09H432.695V211H427.585V218H432.835V216.91H428.885ZM439.044 214.36C439.584 214.07 439.944 213.54 439.944 212.82C439.944 211.71 439.044 211 437.364 211H434.084V218H437.564C439.364 218 440.304 217.3 440.304 216.1C440.304 215.19 439.794 214.6 439.044 214.36ZM437.224 212.02C438.124 212.02 438.634 212.34 438.634 212.99C438.634 213.63 438.124 213.95 437.224 213.95H435.384V212.02H437.224ZM437.484 216.98H435.384V214.96H437.484C438.464 214.96 438.994 215.27 438.994 215.97C438.994 216.67 438.464 216.98 437.484 216.98ZM446.732 218H448.092L444.932 211H443.652L440.502 218H441.842L442.532 216.38H446.032L446.732 218ZM442.972 215.36L444.282 212.3L445.602 215.36H442.972ZM450.952 218.1C452.872 218.1 453.782 217.14 453.782 216.02C453.782 213.45 449.632 214.42 449.632 212.93C449.632 212.4 450.072 211.98 451.152 211.98C451.762 211.98 452.452 212.16 453.082 212.53L453.492 211.52C452.882 211.12 452.002 210.9 451.162 210.9C449.242 210.9 448.342 211.86 448.342 212.99C448.342 215.59 452.502 214.6 452.502 216.11C452.502 216.63 452.042 217.02 450.952 217.02C450.092 217.02 449.202 216.7 448.642 216.25L448.192 217.26C448.772 217.76 449.862 218.1 450.952 218.1ZM456.171 216.91V214.98H459.551V213.91H456.171V212.09H459.981V211H454.871V218H460.121V216.91H456.171Z" fill="#F6820C"/>
<path d="M33.8962 171L19.3839 183.711L7 206.161H18.1659L33.8962 171ZM35.8267 173.974L29.6332 191.605L41.5086 206.674L18.4704 210.672H56.228L35.8267 173.974Z" fill="#0072C6"/>
<path d="M10.18 221.558H11.54L8.38 214.558H7.1L3.95 221.558H5.29L5.98 219.938H9.48L10.18 221.558ZM6.42 218.918L7.73 215.858L9.05 218.918H6.42ZM13.4202 220.458L17.5402 215.428V214.558H11.7702V215.658H15.8202L11.7002 220.688V221.558H17.6702V220.458H13.4202ZM21.6711 221.658C23.5811 221.658 24.7311 220.548 24.7311 218.508V214.558H23.4511V218.458C23.4511 219.898 22.8111 220.518 21.6811 220.518C20.5511 220.518 19.9011 219.898 19.9011 218.458V214.558H18.6011V218.508C18.6011 220.548 19.7511 221.658 21.6711 221.658ZM32.3317 221.558L30.7217 219.258C31.6717 218.888 32.2117 218.108 32.2117 217.048C32.2117 215.498 31.0717 214.558 29.2317 214.558H26.3517V221.558H27.6517V219.518H29.2317C29.3217 219.518 29.4117 219.518 29.5017 219.508L30.9317 221.558H32.3317ZM30.9017 217.048C30.9017 217.928 30.3117 218.448 29.1717 218.448H27.6517V215.658H29.1717C30.3117 215.658 30.9017 216.168 30.9017 217.048ZM34.7662 220.468V218.538H38.1462V217.468H34.7662V215.648H38.5762V214.558H33.4662V221.558H38.7162V220.468H34.7662Z" fill="#0072C6"/>
<path fill-rule="evenodd" clip-rule="evenodd" d="M197.798 121.928C197.798 121.928 195.58 123.219 199.379 123.655C203.983 124.181 206.335 124.105 211.408 123.146C211.408 123.146 212.743 123.982 214.607 124.705C203.233 129.579 188.866 124.423 197.798 121.928ZM196.408 115.568C196.408 115.568 193.919 117.41 197.722 117.804C202.64 118.312 206.523 118.353 213.245 117.059C213.245 117.059 214.173 118.002 215.634 118.516C201.884 122.538 186.57 118.833 196.408 115.568Z" fill="#3174B9"/>
<path fill-rule="evenodd" clip-rule="evenodd" d="M208.124 104.778C210.927 108.005 207.389 110.908 207.389 110.908C207.389 110.908 214.505 107.235 211.236 102.634C208.185 98.3457 205.844 96.2151 218.514 88.8676C218.514 88.8671 198.625 93.8329 208.124 104.778Z" fill="#EE282F"/>
<path fill-rule="evenodd" clip-rule="evenodd" d="M223.166 126.633C223.166 126.633 224.809 127.987 221.357 129.034C214.794 131.022 194.034 131.622 188.268 129.113C186.197 128.211 190.083 126.96 191.306 126.696C192.581 126.421 193.309 126.471 193.309 126.471C191.004 124.848 178.409 129.659 186.912 131.039C210.099 134.799 229.18 129.346 223.166 126.633ZM198.866 108.978C198.866 108.978 188.308 111.486 195.127 112.398C198.008 112.783 203.746 112.694 209.095 112.246C213.465 111.879 217.851 111.094 217.851 111.094C217.851 111.094 216.312 111.755 215.196 112.516C204.473 115.336 183.76 114.023 189.724 111.139C194.765 108.7 198.866 108.978 198.866 108.978ZM217.808 119.564C228.707 113.902 223.668 108.459 220.149 109.192C219.289 109.372 218.903 109.527 218.903 109.527C218.903 109.527 219.224 109.025 219.834 108.809C226.794 106.363 232.145 116.024 217.59 119.85C217.59 119.85 217.757 119.699 217.808 119.564Z" fill="#3174B9"/>
<path fill-rule="evenodd" clip-rule="evenodd" d="M211.236 77C211.236 77 217.271 83.0391 205.51 92.3225C196.078 99.7722 203.36 104.018 205.507 108.872C200 103.905 195.961 99.5312 198.671 95.4618C202.649 89.4883 213.671 86.5914 211.236 77Z" fill="#EE282F"/>
<path fill-rule="evenodd" clip-rule="evenodd" d="M199.938 134.913C210.399 135.582 226.466 134.542 226.847 129.591C226.847 129.591 226.115 131.467 218.201 132.956C209.271 134.637 198.255 134.441 191.724 133.363C191.724 133.363 193.063 134.471 199.938 134.913Z" fill="#3174B9"/>
<path fill-rule="evenodd" clip-rule="evenodd" d="M294.957 106.358H294.533V106.117H295.678V106.358H295.254V107.562H294.957V106.358ZM297.241 106.418H297.236L296.814 107.561H296.621L296.202 106.418H296.197V107.561H295.915V106.116H296.328L296.716 107.138L297.104 106.116H297.514V107.561H297.241V106.418H297.241ZM257.444 119.927C256.129 121.082 254.739 121.733 253.491 121.733C251.712 121.733 250.747 120.649 250.747 118.915C250.747 117.038 251.78 115.665 255.915 115.665H257.444V119.927H257.444ZM261.074 124.08V111.223C261.074 107.937 259.226 105.769 254.772 105.769C252.174 105.769 249.895 106.42 248.043 107.249L248.576 109.526C250.035 108.983 251.922 108.479 253.773 108.479C256.339 108.479 257.444 109.526 257.444 111.694V113.32H256.161C249.928 113.32 247.116 115.772 247.116 119.459C247.116 122.636 248.969 124.443 252.458 124.443C254.701 124.443 256.377 123.504 257.941 122.13L258.226 124.08H261.074ZM273.189 124.08H268.663L263.213 106.096H267.167L270.549 117.147L271.302 120.467C273.008 115.665 274.219 110.789 274.825 106.096H278.67C277.641 112.017 275.786 118.519 273.189 124.08ZM290.559 119.927C289.24 121.082 287.85 121.733 286.604 121.733C284.826 121.733 283.862 120.649 283.862 118.915C283.862 117.038 284.896 115.665 289.028 115.665H290.559V119.927ZM294.19 124.08V111.223C294.19 107.937 292.337 105.769 287.887 105.769C285.286 105.769 283.008 106.42 281.156 107.249L281.689 109.526C283.148 108.983 285.038 108.479 286.891 108.479C289.453 108.479 290.558 109.526 290.558 111.694V113.32H289.276C283.042 113.32 280.232 115.772 280.232 119.459C280.232 122.636 282.081 124.443 285.571 124.443C287.816 124.443 289.489 123.504 291.057 122.13L291.343 124.08H294.19ZM243.135 127.136C242.101 128.669 240.428 129.883 238.599 130.567L236.807 128.426C238.2 127.701 239.394 126.53 239.95 125.441C240.428 124.47 240.628 123.222 240.628 120.233V99.6993H244.486V119.95C244.486 123.947 244.171 125.562 243.135 127.136Z" fill="#EE282F"/>
<path d="M390.169 103.208L380.14 108.761C379.958 108.859 379.806 109.004 379.699 109.181C379.592 109.358 379.535 109.56 379.533 109.767V120.882C379.533 121.297 379.764 121.68 380.14 121.888L390.169 127.45C390.546 127.648 391.008 127.648 391.384 127.45L401.413 121.886C401.595 121.788 401.747 121.644 401.854 121.467C401.961 121.29 402.018 121.088 402.02 120.882V109.767C402.018 109.56 401.961 109.358 401.854 109.181C401.747 109.004 401.595 108.859 401.413 108.761L391.384 103.208C391.197 103.107 390.988 103.055 390.777 103.056C390.565 103.055 390.356 103.107 390.169 103.208Z" fill="#388E3C"/>
<path d="M441.783 113.212L440.113 114.139C440.05 114.169 440.017 114.235 440.017 114.306V116.16C440.017 116.231 440.05 116.297 440.113 116.327L441.781 117.254C441.845 117.287 441.924 117.287 441.99 117.254L443.658 116.327C443.689 116.312 443.716 116.288 443.734 116.258C443.753 116.229 443.762 116.195 443.762 116.16V114.306C443.762 114.272 443.753 114.238 443.735 114.208C443.717 114.178 443.691 114.154 443.66 114.139L441.99 113.212C441.957 113.196 441.922 113.188 441.885 113.188C441.85 113.188 441.815 113.197 441.783 113.212Z" fill="#388E3C"/>
<path d="M428.085 91.4305L423.205 88.7061C423.13 88.6622 423.044 88.6397 422.957 88.6412C422.87 88.6426 422.785 88.6679 422.711 88.7142C422.636 88.7569 422.574 88.8185 422.53 88.8928C422.487 88.9671 422.464 89.0516 422.463 89.1376V105.613L417.96 103.112C417.773 103.011 417.564 102.959 417.353 102.96C417.141 102.959 416.932 103.011 416.745 103.112L406.716 108.665C406.534 108.763 406.382 108.908 406.275 109.085C406.168 109.262 406.111 109.465 406.109 109.671V120.786C406.109 121.201 406.34 121.584 406.716 121.792L416.745 127.354C417.121 127.552 417.584 127.552 417.96 127.354L427.989 121.792C428.171 121.694 428.323 121.549 428.43 121.372C428.537 121.195 428.594 120.993 428.596 120.786V92.3019C428.595 92.1245 428.547 91.9505 428.458 91.7975C428.368 91.6445 428.24 91.518 428.085 91.4305ZM422.191 118.213L417.633 120.737C417.548 120.784 417.453 120.809 417.357 120.809C417.26 120.809 417.165 120.784 417.081 120.737L412.522 118.213C412.438 118.169 412.368 118.104 412.319 118.023C412.27 117.943 412.243 117.851 412.242 117.757V112.709C412.242 112.517 412.344 112.341 412.522 112.244L417.081 109.72H417.072C417.159 109.675 417.255 109.653 417.353 109.655C417.449 109.655 417.545 109.68 417.633 109.72L422.183 112.244C422.268 112.289 422.338 112.356 422.388 112.438C422.437 112.52 422.463 112.613 422.463 112.709V117.757C422.462 117.85 422.436 117.941 422.388 118.021C422.341 118.101 422.273 118.167 422.191 118.213Z" fill="#37474F"/>
<path d="M390.169 103.208L379.533 120.88C379.533 121.297 379.764 121.68 380.14 121.888L390.169 127.45C390.546 127.648 391.008 127.648 391.384 127.45L402.02 109.767C402.018 109.56 401.961 109.358 401.854 109.181C401.747 109.004 401.595 108.859 401.413 108.761L391.384 103.208C391.197 103.107 390.988 103.055 390.777 103.056C390.565 103.055 390.356 103.107 390.169 103.208Z" fill="#2E7D32"/>
<path d="M390.169 103.208L380.14 108.761C379.958 108.859 379.806 109.004 379.699 109.181C379.592 109.358 379.535 109.56 379.533 109.767L390.169 127.45C390.546 127.648 391.008 127.648 391.384 127.45L401.413 121.886C401.595 121.788 401.747 121.644 401.854 121.467C401.961 121.29 402.018 121.088 402.02 120.882L391.384 103.21C391.197 103.109 390.989 103.056 390.777 103.056C390.565 103.055 390.356 103.107 390.169 103.208Z" fill="#4CAF50"/>
<path d="M452.521 108.668L442.492 103.112C442.305 103.012 442.096 102.96 441.884 102.961C441.673 102.96 441.464 103.012 441.277 103.112L431.248 108.666C431.064 108.768 430.911 108.917 430.804 109.098C430.697 109.28 430.641 109.486 430.641 109.696V120.762C430.641 121.194 430.872 121.584 431.248 121.793L441.277 127.354C441.662 127.561 442.115 127.561 442.492 127.354L447.124 124.789C447.547 124.558 447.539 123.951 447.116 123.712L437.054 118.222C436.97 118.175 436.9 118.107 436.851 118.024C436.802 117.941 436.775 117.847 436.774 117.751V112.709C436.774 112.617 436.799 112.526 436.845 112.446C436.891 112.366 436.958 112.3 437.037 112.253L441.604 109.729C441.69 109.681 441.786 109.656 441.884 109.656C441.98 109.655 442.074 109.681 442.156 109.729L446.723 112.261C446.805 112.304 446.873 112.369 446.921 112.448C446.969 112.527 446.995 112.617 446.995 112.709V116.823C446.995 116.999 447.091 117.166 447.243 117.254C447.394 117.336 447.578 117.336 447.737 117.246L452.642 114.403C452.79 114.314 452.912 114.189 452.997 114.039C453.082 113.889 453.128 113.72 453.128 113.548V109.703C453.129 109.491 453.072 109.284 452.966 109.101C452.859 108.919 452.706 108.769 452.521 108.666V108.668Z" fill="#37474F"/>
<path d="M376.881 108.668L366.851 103.112C366.664 103.012 366.456 102.96 366.244 102.961C366.032 102.96 365.823 103.012 365.637 103.112L355.607 108.668C355.423 108.77 355.27 108.919 355.164 109.101C355.057 109.282 355 109.488 355 109.698V124.967C355 125.143 355.096 125.311 355.247 125.397C355.323 125.44 355.408 125.463 355.495 125.463C355.581 125.463 355.667 125.44 355.742 125.397L360.646 122.546C360.796 122.458 360.919 122.333 361.004 122.182C361.09 122.032 361.134 121.862 361.133 121.689V112.709C361.133 112.517 361.235 112.341 361.397 112.253L365.964 109.729C366.05 109.682 366.146 109.657 366.244 109.657C366.342 109.657 366.438 109.682 366.524 109.729L371.091 112.253C371.171 112.3 371.237 112.366 371.283 112.446C371.33 112.526 371.354 112.617 371.355 112.709V121.689C371.355 122.04 371.539 122.368 371.841 122.544L376.746 125.397C376.821 125.44 376.906 125.463 376.993 125.463C377.08 125.463 377.165 125.44 377.24 125.397C377.315 125.353 377.378 125.29 377.421 125.214C377.464 125.138 377.487 125.053 377.488 124.965V109.705C377.488 109.493 377.432 109.285 377.326 109.102C377.219 108.92 377.065 108.769 376.881 108.666V108.668Z" fill="#37474F"/>
<path d="M268.752 211.757L277.705 196.329L268.752 180.9H250.847L241.894 196.329L250.847 211.757H268.752" fill="#CAC9C2"/>
<path d="M259.501 203.371C263.349 203.371 266.479 200.257 266.479 196.428C266.479 192.599 263.349 189.485 259.501 189.485C255.653 189.485 252.523 192.599 252.523 196.428C252.523 200.257 255.653 203.371 259.501 203.371Z" fill="white"/>
<path d="M245.462 175.728C246.011 174.782 247.358 174.009 248.455 174.009H270.517C271.614 174.009 272.961 174.782 273.509 175.728L279.956 186.838C280.006 187.555 279.874 188.305 279.556 188.853L275.192 196.276L267.403 182.886H242.781C242.199 182.886 241.547 183.106 240.98 183.451L245.462 175.728Z" fill="#5072AA"/>
<path d="M279.675 186.351L279.958 186.838C280.008 187.555 279.876 188.305 279.558 188.853L275.194 196.276L272.872 192.286L279.675 186.351Z" fill="#4D6796"/>
<path d="M269.948 179.716C270.305 179.716 270.647 179.574 270.9 179.323C271.152 179.072 271.294 178.732 271.295 178.377C271.294 178.021 271.152 177.681 270.9 177.43C270.647 177.179 270.305 177.037 269.948 177.037C269.591 177.037 269.249 177.179 268.997 177.43C268.744 177.681 268.602 178.021 268.602 178.377C268.602 178.732 268.744 179.072 268.997 179.323C269.249 179.575 269.591 179.716 269.948 179.716ZM247.886 178.377C247.884 178.541 247.915 178.704 247.977 178.856C248.038 179.008 248.13 179.147 248.246 179.264C248.362 179.381 248.5 179.473 248.652 179.537C248.805 179.6 248.968 179.633 249.133 179.633C249.298 179.633 249.461 179.6 249.614 179.537C249.766 179.473 249.904 179.381 250.02 179.264C250.136 179.147 250.228 179.008 250.289 178.856C250.351 178.704 250.382 178.541 250.38 178.377C250.375 178.05 250.242 177.739 250.009 177.51C249.776 177.28 249.461 177.152 249.133 177.152C248.805 177.152 248.49 177.28 248.257 177.51C248.024 177.739 247.89 178.05 247.886 178.377Z" fill="white"/>
<path d="M234.431 194.739L240.98 183.451C241.547 183.105 242.199 182.886 242.781 182.886H251.66L243.983 196.35L256.137 217.717C256.405 218.178 256.862 218.597 257.387 218.906H248.455C247.357 218.906 246.011 218.133 245.462 217.187L234.431 198.177C233.882 197.231 233.882 195.684 234.431 194.739Z" fill="#CC4232"/>
<path d="M240.685 183.958L240.978 183.451C241.544 183.105 242.196 182.886 242.779 182.886H251.657L249.347 186.939L240.685 183.958Z" fill="#B23F33"/>
<path d="M249.133 215.623C249.49 215.622 249.832 215.481 250.085 215.23C250.337 214.978 250.479 214.638 250.479 214.283C250.479 213.928 250.337 213.587 250.085 213.336C249.832 213.085 249.49 212.944 249.133 212.943C248.776 212.944 248.434 213.085 248.181 213.336C247.929 213.587 247.787 213.928 247.787 214.283C247.787 214.638 247.929 214.979 248.181 215.23C248.434 215.481 248.776 215.622 249.133 215.623ZM238.655 197.768C239.012 197.767 239.354 197.626 239.607 197.375C239.859 197.124 240.001 196.783 240.001 196.428C240.001 196.073 239.859 195.732 239.607 195.481C239.354 195.23 239.012 195.089 238.655 195.088C238.298 195.089 237.956 195.23 237.703 195.481C237.451 195.732 237.309 196.073 237.309 196.428C237.309 196.783 237.451 197.124 237.703 197.375C237.956 197.626 238.298 197.767 238.655 197.768Z" fill="white"/>
<path d="M267.233 209.816L279.556 188.853C279.874 188.305 280.006 187.555 279.956 186.837L284.54 194.738C285.089 195.684 285.089 197.231 284.54 198.177L273.509 217.187C272.961 218.133 271.614 218.906 270.517 218.906H257.387C256.862 218.597 256.405 218.178 256.137 217.717L251.643 209.816H267.233" fill="#ECB02A"/>
<path d="M258.134 218.906H257.37C256.845 218.597 256.388 218.178 256.12 217.717L251.626 209.816H256.412L258.134 218.906Z" fill="#C79732"/>
<path d="M269.948 215.623C270.305 215.622 270.647 215.481 270.9 215.23C271.152 214.979 271.294 214.638 271.295 214.283C271.294 213.928 271.152 213.587 270.9 213.336C270.647 213.085 270.305 212.944 269.948 212.943C269.591 212.944 269.249 213.085 268.997 213.336C268.744 213.587 268.602 213.928 268.602 214.283C268.602 214.638 268.744 214.979 268.996 215.23C269.249 215.481 269.591 215.622 269.948 215.623ZM280.445 197.768C280.802 197.767 281.144 197.626 281.397 197.375C281.649 197.124 281.791 196.783 281.791 196.428C281.791 196.073 281.649 195.732 281.397 195.481C281.144 195.23 280.802 195.089 280.445 195.089C280.088 195.089 279.746 195.23 279.493 195.481C279.241 195.732 279.099 196.073 279.099 196.428C279.099 196.783 279.241 197.124 279.493 197.375C279.746 197.626 280.088 197.767 280.445 197.768Z" fill="white"/>
<path opacity="0.5" d="M298.72 195.6C298.27 195.86 297.78 195.96 297.28 195.96C295.8 195.96 294.75 194.92 294.75 193.5C294.75 192.05 295.8 191.04 297.29 191.04C298.04 191.04 298.67 191.29 299.22 191.84L300.04 191.04C299.38 190.29 298.4 189.9 297.23 189.9C295.04 189.9 293.44 191.41 293.44 193.5C293.44 195.59 295.04 197.1 297.21 197.1C298.2 197.1 299.22 196.8 299.95 196.21V193.42H298.72V195.6ZM304.735 197.1C306.905 197.1 308.505 195.58 308.505 193.5C308.505 191.42 306.905 189.9 304.735 189.9C302.565 189.9 300.965 191.43 300.965 193.5C300.965 195.57 302.565 197.1 304.735 197.1ZM304.735 195.96C303.325 195.96 302.275 194.93 302.275 193.5C302.275 192.07 303.325 191.04 304.735 191.04C306.145 191.04 307.195 192.07 307.195 193.5C307.195 194.93 306.145 195.96 304.735 195.96ZM312.953 197.1C315.123 197.1 316.723 195.58 316.723 193.5C316.723 191.42 315.123 189.9 312.953 189.9C310.783 189.9 309.183 191.43 309.183 193.5C309.183 195.57 310.783 197.1 312.953 197.1ZM312.953 195.96C311.543 195.96 310.493 194.93 310.493 193.5C310.493 192.07 311.543 191.04 312.953 191.04C314.363 191.04 315.413 192.07 315.413 193.5C315.413 194.93 314.363 195.96 312.953 195.96ZM322.681 195.6C322.231 195.86 321.741 195.96 321.241 195.96C319.761 195.96 318.711 194.92 318.711 193.5C318.711 192.05 319.761 191.04 321.251 191.04C322.001 191.04 322.631 191.29 323.181 191.84L324.001 191.04C323.341 190.29 322.361 189.9 321.191 189.9C319.001 189.9 317.401 191.41 317.401 193.5C317.401 195.59 319.001 197.1 321.171 197.1C322.161 197.1 323.181 196.8 323.911 196.21V193.42H322.681V195.6ZM325.425 197H330.385V195.9H326.725V190H325.425V197ZM332.511 195.91V193.98H335.891V192.91H332.511V191.09H336.321V190H331.211V197H336.461V195.91H332.511ZM297.18 207.1C298.33 207.1 299.31 206.69 299.96 205.93L299.12 205.13C298.61 205.69 297.98 205.96 297.25 205.96C295.8 205.96 294.75 204.94 294.75 203.5C294.75 202.06 295.8 201.04 297.25 201.04C297.98 201.04 298.61 201.31 299.12 201.86L299.96 201.07C299.31 200.31 298.33 199.9 297.19 199.9C295.04 199.9 293.44 201.41 293.44 203.5C293.44 205.59 295.04 207.1 297.18 207.1ZM301.006 207H305.966V205.9H302.306V200H301.006V207ZM309.935 207.1C312.105 207.1 313.705 205.58 313.705 203.5C313.705 201.42 312.105 199.9 309.935 199.9C307.765 199.9 306.165 201.43 306.165 203.5C306.165 205.57 307.765 207.1 309.935 207.1ZM309.935 205.96C308.525 205.96 307.475 204.93 307.475 203.5C307.475 202.07 308.525 201.04 309.935 201.04C311.345 201.04 312.395 202.07 312.395 203.5C312.395 204.93 311.345 205.96 309.935 205.96ZM317.893 207.1C319.803 207.1 320.953 205.99 320.953 203.95V200H319.673V203.9C319.673 205.34 319.033 205.96 317.903 205.96C316.773 205.96 316.123 205.34 316.123 203.9V200H314.823V203.95C314.823 205.99 315.973 207.1 317.893 207.1ZM322.574 207H325.634C327.904 207 329.454 205.6 329.454 203.5C329.454 201.4 327.904 200 325.634 200H322.574V207ZM323.874 205.9V201.1H325.574C327.134 201.1 328.144 202.05 328.144 203.5C328.144 204.95 327.134 205.9 325.574 205.9H323.874ZM296.82 211H293.94V218H295.24V215.98H296.82C298.66 215.98 299.8 215.03 299.8 213.49C299.8 211.94 298.66 211 296.82 211ZM296.76 214.88H295.24V212.1H296.76C297.9 212.1 298.49 212.61 298.49 213.49C298.49 214.37 297.9 214.88 296.76 214.88ZM300.898 218H305.858V216.9H302.198V211H300.898V218ZM311.973 218H313.333L310.173 211H308.893L305.743 218H307.083L307.773 216.38H311.273L311.973 218ZM308.213 215.36L309.523 212.3L310.843 215.36H308.213ZM315.092 218H316.392V212.1H318.712V211H312.772V212.1H315.092V218ZM324.598 212.09V211H319.488V218H320.788V215.32H324.168V214.22H320.788V212.09H324.598ZM328.847 218.1C331.017 218.1 332.617 216.58 332.617 214.5C332.617 212.42 331.017 210.9 328.847 210.9C326.677 210.9 325.077 212.43 325.077 214.5C325.077 216.57 326.677 218.1 328.847 218.1ZM328.847 216.96C327.437 216.96 326.387 215.93 326.387 214.5C326.387 213.07 327.437 212.04 328.847 212.04C330.257 212.04 331.307 213.07 331.307 214.5C331.307 215.93 330.257 216.96 328.847 216.96ZM339.775 218L338.165 215.7C339.115 215.33 339.655 214.55 339.655 213.49C339.655 211.94 338.515 211 336.675 211H333.795V218H335.095V215.96H336.675C336.765 215.96 336.855 215.96 336.945 215.95L338.375 218H339.775ZM338.345 213.49C338.345 214.37 337.755 214.89 336.615 214.89H335.095V212.1H336.615C337.755 212.1 338.345 212.61 338.345 213.49ZM348.569 218L348.559 211H347.489L344.759 215.64L341.979 211H340.909V218H342.149V213.42L344.449 217.2H345.029L347.329 213.36L347.339 218H348.569Z" fill="black"/>
<path d="M132.718 203.949L127.783 206.062L132.354 208.011L137.654 206.062L132.718 203.949ZM125.298 206.591L125.133 216.102L132.353 219.272V209.398L125.298 206.591ZM140.138 206.591L133.613 209.068V218.381L140.138 215.739V206.591ZM147.923 177L142.954 179.114L147.558 181.062L152.859 179.114L147.923 177ZM141.033 179.808V189.319L147.194 191.103L147.393 182.45L141.033 179.808ZM154.813 180.336L148.983 182.814V192.16L154.813 189.518V180.336H154.813ZM124.586 190.387L119.65 192.5L124.221 194.449L129.521 192.5L124.586 190.387ZM117.165 193.029L117 202.54L124.221 205.71V195.836L117.165 193.029ZM132.006 193.029L125.48 195.506V204.818L132.006 202.176V193.029ZM140.486 190.036L135.551 192.149L140.121 194.098L145.422 192.149L140.486 190.036ZM133.066 192.678L132.9 202.189L140.121 205.36V195.486L133.066 192.678ZM147.906 192.678L141.381 195.155V204.468L147.906 201.826V192.678ZM163.454 177L158.518 179.114L163.089 181.062L168.389 179.114L163.454 177ZM156.033 179.642L155.868 189.153L163.089 192.324V182.45L156.033 179.642ZM170.874 179.642L164.348 182.119V191.432L170.874 188.79V179.642Z" fill="#F7A80D"/>
<path d="M153.18 207.558H154.54L151.38 200.558H150.1L146.95 207.558H148.29L148.98 205.938H152.48L153.18 207.558ZM149.42 204.918L150.73 201.858L152.05 204.918H149.42ZM163.849 200.558L162.059 205.908L160.289 200.558H159.089L157.279 205.878L155.539 200.558H154.189L156.509 207.558H157.899L159.659 202.378L161.389 207.558H162.769L165.089 200.558H163.849ZM168.118 207.658C170.038 207.658 170.948 206.698 170.948 205.578C170.948 203.008 166.798 203.978 166.798 202.488C166.798 201.958 167.238 201.538 168.318 201.538C168.928 201.538 169.618 201.718 170.248 202.088L170.658 201.078C170.048 200.678 169.168 200.458 168.328 200.458C166.408 200.458 165.508 201.418 165.508 202.548C165.508 205.148 169.668 204.158 169.668 205.668C169.668 206.188 169.208 206.578 168.118 206.578C167.258 206.578 166.368 206.258 165.808 205.808L165.358 206.818C165.938 207.318 167.028 207.658 168.118 207.658Z" fill="#F7A80D"/>
<defs>
<linearGradient id="paint0_linear" x1="91.5444" y1="97.3105" x2="91.5444" y2="130.822" gradientUnits="userSpaceOnUse">
<stop stop-color="#0994DC"/>
<stop offset="0.350006" stop-color="#66CEF5"/>
<stop offset="0.846161" stop-color="#127BCA"/>
<stop offset="1" stop-color="#127BCA"/>
</linearGradient>
<linearGradient id="paint1_linear" x1="92.8257" y1="96.4624" x2="92.8257" y2="130.828" gradientUnits="userSpaceOnUse">
<stop stop-color="#0E76BC"/>
<stop offset="0.360001" stop-color="#36AEE8"/>
<stop offset="0.846161" stop-color="#00ADEF"/>
<stop offset="1" stop-color="#00ADEF"/>
</linearGradient>
<linearGradient id="paint2_linear" x1="99.7256" y1="123.393" x2="99.7256" y2="96.0489" gradientUnits="userSpaceOnUse">
<stop stop-color="#1C63B7"/>
<stop offset="0.5" stop-color="#33BDF2"/>
<stop offset="1" stop-color="#33BDF2" stop-opacity="0.419608"/>
</linearGradient>
<linearGradient id="paint3_linear" x1="97.9286" y1="92.98" x2="97.9286" y2="128.66" gradientUnits="userSpaceOnUse">
<stop stop-color="#166AB8"/>
<stop offset="0.399994" stop-color="#36AEE8"/>
<stop offset="0.846161" stop-color="#0798DD"/>
<stop offset="1" stop-color="#0798DD"/>
</linearGradient>
<linearGradient id="paint4_linear" x1="95.1195" y1="93.1684" x2="95.1195" y2="131.109" gradientUnits="userSpaceOnUse">
<stop stop-color="#124379"/>
<stop offset="0.389999" stop-color="#1487CB"/>
<stop offset="0.780228" stop-color="#165197"/>
<stop offset="1" stop-color="#165197"/>
</linearGradient>
<linearGradient id="paint5_linear" x1="79.8903" y1="104.815" x2="85.2517" y2="104.815" gradientUnits="userSpaceOnUse">
<stop stop-color="#33BDF2" stop-opacity="0.698039"/>
<stop offset="1" stop-color="#1DACD8"/>
</linearGradient>
<linearGradient id="paint6_linear" x1="120.154" y1="122.708" x2="120.154" y2="96.0709" gradientUnits="userSpaceOnUse">
<stop stop-color="#136AB4"/>
<stop offset="0.6" stop-color="#59CAF5" stop-opacity="0.54902"/>
<stop offset="1" stop-color="#59CAF5" stop-opacity="0.235294"/>
</linearGradient>
<linearGradient id="paint7_linear" x1="60.8631" y1="111.183" x2="80.7496" y2="111.183" gradientUnits="userSpaceOnUse">
<stop stop-color="#05A1E6" stop-opacity="0.247059"/>
<stop offset="1" stop-color="#05A1E6"/>
</linearGradient>
<linearGradient id="paint8_linear" x1="71.8776" y1="123.379" x2="71.8776" y2="96.1047" gradientUnits="userSpaceOnUse">
<stop stop-color="#318ED5"/>
<stop offset="1" stop-color="#38A7E4"/>
</linearGradient>
<linearGradient id="paint9_linear" x1="73.5916" y1="123.474" x2="73.5916" y2="96.9628" gradientUnits="userSpaceOnUse">
<stop stop-color="#05A1E6"/>
<stop offset="1" stop-color="#05A1E6" stop-opacity="0.54902"/>
</linearGradient>
<linearGradient id="paint10_linear" x1="75.0158" y1="124.827" x2="75.0158" y2="102.425" gradientUnits="userSpaceOnUse">
<stop stop-color="#1959A6"/>
<stop offset="0.5" stop-color="#05A1E6"/>
<stop offset="0.917587" stop-color="#7EC5EA"/>
<stop offset="1" stop-color="#7EC5EA"/>
</linearGradient>
<linearGradient id="paint11_linear" x1="75.8775" y1="123.396" x2="71.5923" y2="99.1058" gradientUnits="userSpaceOnUse">
<stop stop-color="#165096"/>
<stop offset="1" stop-color="#0D82CA"/>
</linearGradient>
<linearGradient id="paint12_linear" x1="115.594" y1="109.659" x2="115.594" y2="96.9648" gradientUnits="userSpaceOnUse">
<stop stop-color="#05A1E6"/>
<stop offset="0.873627" stop-color="#0495D6"/>
<stop offset="1" stop-color="#0495D6"/>
</linearGradient>
<linearGradient id="paint13_linear" x1="121.558" y1="95.7914" x2="116.394" y2="125.063" gradientUnits="userSpaceOnUse">
<stop stop-color="#38A7E4" stop-opacity="0.329412"/>
<stop offset="0.961533" stop-color="#0E88D3"/>
<stop offset="1" stop-color="#0E88D3"/>
</linearGradient>
<linearGradient id="paint14_linear" x1="116.941" y1="96.8186" x2="116.941" y2="124.513" gradientUnits="userSpaceOnUse">
<stop stop-color="#168CD4"/>
<stop offset="0.5" stop-color="#1C87CC"/>
<stop offset="1" stop-color="#154B8D"/>
</linearGradient>
<linearGradient id="paint15_linear" x1="81.6395" y1="96.2498" x2="88.0186" y2="98.8957" gradientUnits="userSpaceOnUse">
<stop stop-color="#97D6EE"/>
<stop offset="0.703293" stop-color="#55C1EA"/>
<stop offset="1" stop-color="#55C1EA"/>
</linearGradient>
<linearGradient id="paint16_linear" x1="85.3235" y1="99.4264" x2="90.3617" y2="97.1424" gradientUnits="userSpaceOnUse">
<stop stop-color="#7ACCEC"/>
<stop offset="1" stop-color="#3FB7ED"/>
</linearGradient>
<linearGradient id="paint17_linear" x1="113.194" y1="98.3505" x2="113.194" y2="125.438" gradientUnits="userSpaceOnUse">
<stop stop-color="#1DA7E7"/>
<stop offset="1" stop-color="#37ABE7" stop-opacity="0"/>
</linearGradient>
</defs>
</svg>
