<svg width="68" height="57" viewBox="0 0 68 57" fill="none" xmlns="http://www.w3.org/2000/svg">
<path fill-rule="evenodd" clip-rule="evenodd" d="M10.8881 45.7483V41.5079C10.8881 40.9507 11.2368 40.5031 11.8143 40.5031H11.9741C12.5514 40.5031 12.8985 40.9512 12.8985 41.5079V50.4353C12.8985 52.6122 11.8218 54.3445 9.94551 55.448C9.08601 55.9566 8.1049 56.2239 7.10587 56.2216H6.7071C4.52723 56.2216 2.79543 55.1453 1.68889 53.2723C1.17895 52.4139 0.911406 51.4334 0.914703 50.4353V50.0374C0.914703 47.8597 1.99192 46.1285 3.86668 45.0229C4.72603 44.5132 5.70768 44.2458 6.7071 44.2493H7.10587C8.58108 44.2493 9.83265 44.8205 10.8881 45.7483V45.7483ZM2.92489 50.236C2.92489 51.8086 3.68793 52.9909 5.0674 53.745C5.62521 54.0498 6.23076 54.2136 6.86718 54.2136C8.41244 54.2136 9.55868 53.4853 10.3492 52.1773C10.7168 51.5688 10.8881 50.903 10.8881 50.1953C10.8881 48.8321 10.2421 47.7682 9.14227 46.978C8.47549 46.4991 7.72491 46.2589 6.90636 46.2589C5.22203 46.2589 4.0099 47.1089 3.28241 48.6188C3.03697 49.1293 2.92489 49.6712 2.92489 50.236V50.236ZM19.873 44.2493H20.1516C22.4809 44.2493 24.2524 45.378 25.3751 47.409C25.8239 48.2215 26.0641 49.1083 26.0641 50.0374V50.4353C26.0641 52.6122 24.9895 54.3468 23.1103 55.4482C22.2404 55.958 21.2794 56.2216 20.2712 56.2216H19.873C17.6931 56.2216 15.9608 55.1453 14.8548 53.2723C14.3446 52.4139 14.0768 51.4335 14.0798 50.4353V50.0374C14.0798 47.8594 15.1614 46.1339 17.0315 45.0234C17.9009 44.5074 18.8627 44.2493 19.873 44.2493ZM16.0902 50.236C16.0902 51.7624 16.84 52.8854 18.1308 53.6751C18.7369 54.0457 19.4044 54.2136 20.1124 54.2136C21.6224 54.2136 22.7386 53.4488 23.5153 52.1758C23.8858 51.5688 24.0534 50.902 24.0534 50.1953C24.0534 48.7758 23.369 47.6915 22.1989 46.9057C21.5578 46.4747 20.8441 46.2589 20.072 46.2589C18.3876 46.2589 17.1755 47.1089 16.4483 48.6188C16.2023 49.1293 16.0902 49.6712 16.0902 50.236V50.236ZM34.4217 46.4193C34.1181 46.2773 33.5499 46.2301 33.222 46.2177C31.5424 46.1544 30.3271 47.0993 29.6141 48.5794C29.3679 49.0899 29.2556 49.6303 29.2556 50.1953C29.2556 51.9153 30.1598 53.1197 31.6967 53.8539C32.2582 54.1218 32.9831 54.1726 33.5966 54.1726C34.1363 54.1726 34.8991 53.8425 35.378 53.6152L35.461 53.5758H35.8328L35.8738 53.5841C36.331 53.6792 36.676 53.9687 36.676 54.4601V54.6588C36.676 55.8816 34.4391 56.1615 33.5855 56.2211C30.5733 56.4292 28.3205 54.7767 27.4618 51.9068C27.3126 51.4084 27.2454 50.9134 27.2454 50.3941V49.9968C27.2454 47.819 28.3273 46.094 30.1971 44.9846C31.0665 44.4688 32.028 44.2097 33.0381 44.2097H33.4366C34.5081 44.2097 35.495 44.5137 36.3797 45.1172L36.4524 45.1675L36.4983 45.2432C36.5938 45.4013 36.676 45.5843 36.676 45.7724V45.9712C36.676 46.4838 36.292 46.7596 35.8287 46.8487L35.7903 46.8554H35.6714C35.3715 46.8554 34.6894 46.5452 34.4217 46.4193V46.4193ZM40.9426 47.7791C41.7235 46.998 42.5071 46.2184 43.2997 45.4503C43.5205 45.2359 44.3567 44.3289 44.6859 44.3289H45.046L45.087 44.3374C45.5457 44.4325 45.8892 44.7225 45.8892 45.215V45.4135C45.8892 45.7493 45.4954 46.1396 45.2782 46.3695C44.8164 46.8586 44.3302 47.3315 43.8575 47.8105L41.4286 50.2735C42.4744 51.3206 43.5192 52.3684 44.5564 53.4234C44.8441 53.7146 45.1296 54.008 45.4129 54.3035C45.5128 54.4085 45.6601 54.5391 45.7439 54.6845C45.834 54.8208 45.8892 54.9745 45.8892 55.1385V55.3459L45.8775 55.3938C45.7647 55.852 45.4736 56.2216 44.9653 56.2216H44.8052C44.4726 56.2216 44.097 55.8458 43.8692 55.6309C43.3996 55.1888 42.9463 54.7239 42.4861 54.2722L40.9426 52.7586V55.1777C40.9426 55.7349 40.5934 56.1827 40.0167 56.1827H39.8584C39.2809 56.1827 38.9322 55.7349 38.9322 55.1777V41.5468C38.9322 40.9896 39.2811 40.5438 39.8584 40.5438H40.0167C40.5934 40.5438 40.9426 40.9896 40.9426 41.5468V47.7791V47.7791ZM65.9992 44.3289H66.1989C66.8019 44.3289 67.2043 44.7347 67.2043 45.3336C67.2043 46.165 66.4086 46.3778 65.7203 46.3778C64.8174 46.3778 63.9552 46.9239 63.3328 47.5363C62.5568 48.3005 62.2172 49.2794 62.2172 50.3554V55.2171C62.2172 55.7743 61.8688 56.2216 61.291 56.2216H61.1322C60.5544 56.2216 60.2063 55.7745 60.2063 55.2171V50.0763C60.2063 48.1023 61.1683 46.4908 62.7722 45.3606C63.7298 44.6855 64.8267 44.3291 65.9992 44.3291V44.3289ZM51.7104 53.9635C52.4421 54.2188 53.2762 54.1822 54.0268 54.0516C54.4107 53.8886 55.3925 53.4607 55.7536 53.5234L55.8099 53.533L55.8618 53.5584C56.0824 53.6652 56.2928 53.8163 56.4054 54.0405C56.6684 54.5658 56.5421 55.094 56.0253 55.3923L55.8533 55.4915C53.9463 56.5909 51.918 56.4385 50.017 55.4117C49.1082 54.9208 48.4129 54.1923 47.8999 53.3042L47.7801 53.0966C46.5557 50.9787 46.721 48.751 48.1018 46.737C48.5784 46.0409 49.2013 45.5031 49.9296 45.0825L50.2051 44.9237C52.001 43.888 53.9258 43.9591 55.7702 44.8679C56.7621 45.3567 57.5656 46.0852 58.1193 47.0433L58.2189 47.2159C58.621 47.9121 58.1001 48.5185 57.5622 48.9332C56.938 49.4142 56.3078 49.9931 55.7095 50.5089C54.3755 51.6593 53.0435 52.8123 51.7104 53.9635V53.9635ZM49.9838 52.7522C51.4756 51.4745 52.968 50.1955 54.4559 48.9124C54.9644 48.4744 55.5219 48.0199 56.0263 47.5593C55.6216 47.0498 54.9455 46.6826 54.371 46.4636C53.2113 46.0222 52.0679 46.1705 51.0045 46.7837C49.6125 47.5865 49.0197 48.865 49.0716 50.456C49.0923 51.0826 49.261 51.6865 49.5939 52.2196C49.7111 52.4075 49.8421 52.584 49.9838 52.7522ZM39.1343 12.5102H45.0668V18.5681H48.0662C49.4517 18.5681 50.8763 18.3217 52.1881 17.8777C52.8328 17.6593 53.5561 17.3555 54.192 16.9733C53.3545 15.8811 52.927 14.5021 52.8014 13.1428C52.6302 11.2937 53.0038 8.88713 54.2564 7.43996L54.8801 6.71949L55.6231 7.31634C57.494 8.81767 59.0675 10.9158 59.3449 13.3077C61.5977 12.6458 64.2427 12.8023 66.2283 13.947L67.0429 14.4166L66.6143 15.2527C64.9349 18.5264 61.4238 19.5408 57.9914 19.3612C52.8551 32.1402 41.6727 38.1901 28.1143 38.1901C21.1092 38.1901 14.6827 35.5744 11.023 29.3664L10.9631 29.2653L10.4299 28.1815C9.19286 25.4489 8.7819 22.4553 9.06054 19.4641L9.14434 18.5681H14.2176V12.5102H20.1498V6.58421H32.0151V0.658203H39.1343V12.5102Z" fill="#364548"/>
<path fill-rule="evenodd" clip-rule="evenodd" d="M58.3555 14.7512C58.7532 11.663 56.4397 9.23753 55.005 8.08582C53.3515 9.99532 53.0947 14.9997 55.6886 17.1067C54.2409 18.3911 51.1906 19.5553 48.0671 19.5553H10.0466C9.74302 22.8122 10.3154 25.8115 11.6227 28.3785L12.0552 29.1689C12.3291 29.6329 12.6283 30.0814 12.9516 30.5124C14.5148 30.6127 15.956 30.6472 17.2745 30.6182H17.275C19.8661 30.5612 21.9803 30.2553 23.5827 29.7007C23.6959 29.6655 23.8185 29.6757 23.9244 29.7292C24.0303 29.7826 24.1112 29.8751 24.1501 29.987C24.1889 30.099 24.1826 30.2217 24.1326 30.3291C24.0825 30.4365 23.9926 30.5203 23.8818 30.5627C23.6685 30.6368 23.4465 30.7058 23.2171 30.7713H23.2163C21.9546 31.1313 20.6016 31.3734 18.8561 31.4809C18.9598 31.4827 18.7481 31.4965 18.7476 31.4965C18.6882 31.5004 18.6135 31.5089 18.5538 31.512C17.8668 31.5506 17.1253 31.5587 16.3672 31.5587C15.538 31.5587 14.7215 31.5431 13.8085 31.4965L13.7852 31.512C16.953 35.0688 21.9064 37.2019 28.1155 37.2019C41.2559 37.2019 52.4017 31.3832 57.3374 18.3201C60.8389 18.6791 64.2042 17.787 65.7349 14.802C63.2966 13.3966 60.161 13.8447 58.3555 14.7512" fill="#22A0C8"/>
<path fill-rule="evenodd" clip-rule="evenodd" d="M58.3548 14.7512C58.7525 11.663 56.439 9.23753 55.0043 8.08582C53.3508 9.99533 53.094 14.9998 55.6879 17.1067C54.2402 18.3912 51.1899 19.5553 48.0664 19.5553H12.2974C12.1422 24.5432 13.9952 28.3293 17.2735 30.6182H17.2743C19.8654 30.5612 21.9796 30.2554 23.582 29.7007C23.6952 29.6656 23.8178 29.6757 23.9237 29.7292C24.0296 29.7826 24.1105 29.8751 24.1494 29.9871C24.1882 30.099 24.1819 30.2217 24.1319 30.3291C24.0818 30.4366 23.9919 30.5203 23.8811 30.5627C23.6678 30.6368 23.4458 30.7058 23.2164 30.7713H23.2156C21.9539 31.1313 20.4847 31.4045 18.7391 31.512C18.7386 31.512 18.6969 31.4719 18.6963 31.4719C23.1684 33.7634 29.6527 33.7551 37.0872 30.9025C45.4232 27.7034 53.1804 21.6089 58.5927 14.6382C58.5112 14.675 58.4318 14.7126 58.3548 14.7512" fill="#37B1D9"/>
<path fill-rule="evenodd" clip-rule="evenodd" d="M10.1171 23.5126C10.3532 25.2573 10.8643 26.8908 11.6219 28.3786L12.0544 29.1691C12.3282 29.633 12.6274 30.0815 12.9507 30.5125C14.5142 30.6128 15.9554 30.6473 17.2742 30.6183C19.8653 30.5613 21.9795 30.2555 23.5818 29.7009C23.6951 29.6657 23.8176 29.6759 23.9235 29.7293C24.0294 29.7827 24.1104 29.8752 24.1492 29.9872C24.1881 30.0991 24.1818 30.2218 24.1317 30.3292C24.0817 30.4367 23.9917 30.5204 23.881 30.5628C23.6677 30.6369 23.4456 30.7059 23.2163 30.7715H23.2155C21.9538 31.1314 20.4923 31.389 18.7468 31.4968C18.6868 31.5005 18.5823 31.5013 18.5218 31.5046C17.8353 31.543 17.1014 31.5666 16.343 31.5666C15.5141 31.5666 14.6662 31.5508 13.7537 31.5044C16.9216 35.0611 21.9055 37.202 28.1146 37.202C39.3642 37.202 49.1516 32.9368 54.8322 23.5126H10.1171Z" fill="#1B81A5"/>
<path fill-rule="evenodd" clip-rule="evenodd" d="M12.6399 23.5126C13.3124 26.5759 14.9285 28.9806 17.2746 30.6183C19.8657 30.5613 21.98 30.2555 23.5823 29.7009C23.6956 29.6657 23.8181 29.6758 23.924 29.7293C24.0299 29.7827 24.1108 29.8752 24.1497 29.9872C24.1885 30.0991 24.1823 30.2218 24.1322 30.3292C24.0822 30.4367 23.9922 30.5204 23.8814 30.5628C23.6682 30.6369 23.4461 30.7059 23.2167 30.7715H23.216C21.9543 31.1314 20.4619 31.389 18.7161 31.4968C23.1879 33.7878 29.6536 33.7549 37.0875 30.9026C41.5848 29.1766 45.9131 26.6072 49.7962 23.5126H12.6399Z" fill="#1D91B4"/>
<path fill-rule="evenodd" clip-rule="evenodd" d="M15.2068 13.4977H20.3485V18.6337H15.2068V13.4977ZM15.6351 13.9258H16.0409V18.2059H15.6351V13.9258ZM16.3979 13.9258H16.82V18.2059H16.3982V13.9258H16.3979ZM17.1768 13.9258H17.5989V18.2059H17.1768V13.9258ZM17.9561 13.9258H18.378V18.2059H17.9561V13.9258ZM18.7353 13.9258H19.1571V18.2059H18.7353V13.9258ZM19.5141 13.9258H19.9201V18.2059H19.5141V13.9258ZM21.1393 7.57166H26.2813V12.7075H21.139V7.57166H21.1393ZM21.5679 7.99979H21.9734V12.2796H21.5679V7.99979ZM22.3307 7.99979H22.7525V12.2796H22.3309V7.99979H22.3307ZM23.1095 7.99979H23.5314V12.2796H23.1095V7.99979ZM23.8886 7.99979H24.3105V12.2796H23.8886V7.99979ZM24.6678 7.99979H25.0899V12.2796H24.6678V7.99979ZM25.4466 7.99979H25.8529V12.2796H25.4466V7.99979Z" fill="#23A3C2"/>
<path fill-rule="evenodd" clip-rule="evenodd" d="M21.1394 13.4973H26.2814V18.6334H21.1392V13.4973H21.1394ZM21.568 13.9255H21.9735V18.2055H21.568V13.9255ZM22.3308 13.9255H22.7527V18.2055H22.3311V13.9255H22.3308ZM23.1097 13.9255H23.5315V18.2055H23.1097V13.9255ZM23.8888 13.9255H24.3106V18.2055H23.8888V13.9255ZM24.6679 13.9255H25.09V18.2055H24.6679V13.9255ZM25.4467 13.9255H25.853V18.2055H25.4467V13.9255Z" fill="#34BBDE"/>
<path fill-rule="evenodd" clip-rule="evenodd" d="M27.0717 13.4973H32.2134V18.6334H27.0717V13.4973ZM27.5 13.9255H27.9055V18.2055H27.5V13.9255ZM28.2628 13.9255H28.6846V18.2055H28.2628V13.9255ZM29.0419 13.9255H29.4637V18.2055H29.0419V13.9255ZM29.821 13.9255H30.2429V18.2055H29.821V13.9255ZM30.5999 13.9255H31.0222V18.2055H30.5999V13.9255ZM31.379 13.9255H31.7847V18.2055H31.379V13.9255V13.9255Z" fill="#23A3C2"/>
<path fill-rule="evenodd" clip-rule="evenodd" d="M27.0717 7.57166H32.2134V12.7075H27.0717V7.57166ZM27.5 7.99979H27.9055V12.2796H27.5V7.99979ZM28.2628 7.99979H28.6846V12.2796H28.2628V7.99979ZM29.0419 7.99979H29.4638V12.2796H29.0419V7.99979ZM29.821 7.99979H30.2429V12.2796H29.821V7.99979ZM30.5999 7.99979H31.0222V12.2796H30.5999V7.99979ZM31.379 7.99979H31.7848V12.2796H31.379V7.99979V7.99979ZM33.0042 13.4977H38.1459V18.6337H33.0042V13.4977ZM33.4328 13.9258H33.8383V18.2059H33.4328V13.9258ZM34.1955 13.9258H34.6174V18.2059H34.1955V13.9258ZM34.9744 13.9258H35.3963V18.2059H34.9744V13.9258ZM35.7535 13.9258H36.1756V18.2059H35.7535V13.9258ZM36.5326 13.9258H36.9547V18.2059H36.5326V13.9258ZM37.3117 13.9258H37.7175V18.2059H37.3117V13.9258Z" fill="#34BBDE"/>
<path fill-rule="evenodd" clip-rule="evenodd" d="M33.0044 7.57166H38.1461V12.7075H33.0044V7.57166ZM33.433 7.99979H33.8385V12.2796H33.433V7.99979ZM34.1958 7.99979H34.6176V12.2796H34.1958V7.99979ZM34.9746 7.99979H35.3965V12.2796H34.9746V7.99979ZM35.7537 7.99979H36.1759V12.2796H35.7537V7.99979ZM36.5329 7.99979H36.955V12.2796H36.5329V7.99979ZM37.312 7.99979H37.7178V12.2796H37.312V7.99979Z" fill="#23A3C2"/>
<path fill-rule="evenodd" clip-rule="evenodd" d="M33.0044 1.64575H38.1461V6.78235H33.0044V1.64575ZM33.433 2.07363H33.8385V6.35395H33.433V2.07337V2.07363ZM34.1958 2.07363H34.6176V6.35395H34.1958V2.07337V2.07363ZM34.9746 2.07363H35.3965V6.35395H34.9746V2.07337V2.07363ZM35.7537 2.07363H36.1759V6.35395H35.7537V2.07337V2.07363ZM36.5329 2.07363H36.955V6.35395H36.5329V2.07337V2.07363ZM37.312 2.07363H37.7178V6.35395H37.312V2.07337V2.07363Z" fill="#34BBDE"/>
<path fill-rule="evenodd" clip-rule="evenodd" d="M38.9369 13.4973H44.0786V18.6334H38.9369V13.4973ZM39.365 13.9255H39.771V18.2055H39.3652V13.9255H39.365ZM40.1277 13.9255H40.5499V18.2055H40.128V13.9255H40.1277ZM40.9071 13.9255H41.3292V18.2055H40.9071V13.9255ZM41.686 13.9255H42.1081V18.2055H41.686V13.9255ZM42.4653 13.9255H42.8872V18.2055H42.4653V13.9255ZM43.2442 13.9255H43.65V18.2055H43.2442V13.9255Z" fill="#23A3C2"/>
<path fill-rule="evenodd" clip-rule="evenodd" d="M25.9589 26.9614C26.1468 26.9589 26.3333 26.9937 26.5077 27.0638C26.682 27.1339 26.8406 27.2379 26.9744 27.3698C27.1081 27.5017 27.2143 27.6587 27.2868 27.8319C27.3592 28.0051 27.3965 28.191 27.3965 28.3787C27.3965 28.5664 27.3591 28.7522 27.2866 28.9254C27.214 29.0985 27.1078 29.2556 26.974 29.3874C26.8402 29.5192 26.6815 29.6231 26.5072 29.6932C26.3328 29.7632 26.1463 29.798 25.9584 29.7954C25.5855 29.7903 25.2296 29.6387 24.9678 29.3735C24.7059 29.1082 24.5591 28.7507 24.5592 28.3782C24.5593 28.0056 24.7062 27.6481 24.9681 27.383C25.2301 27.1178 25.586 26.9664 25.9589 26.9614Z" fill="#D3ECEC"/>
<path fill-rule="evenodd" clip-rule="evenodd" d="M25.9591 27.363C26.0889 27.363 26.2126 27.3873 26.3268 27.4317C26.248 27.4773 26.1865 27.5477 26.1517 27.6318C26.1169 27.7159 26.1109 27.8091 26.1344 27.8969C26.158 27.9848 26.2099 28.0625 26.2821 28.118C26.3542 28.1735 26.4427 28.2037 26.5338 28.204C26.6908 28.204 26.827 28.1171 26.8975 27.9886C26.9811 28.1896 26.9977 28.4122 26.9449 28.6234C26.8921 28.8346 26.7727 29.0233 26.6043 29.1615C26.4359 29.2997 26.2275 29.3802 26.0099 29.391C25.7922 29.4018 25.5768 29.3424 25.3956 29.2215C25.2143 29.1007 25.0768 28.9248 25.0032 28.7199C24.9297 28.5149 24.9241 28.2918 24.9873 28.0835C25.0505 27.8751 25.1791 27.6926 25.3541 27.5629C25.5291 27.4331 25.7412 27.363 25.9591 27.363V27.363ZM0.869629 24.0247H66.8538C65.4173 23.6609 62.3083 23.169 62.821 21.288C60.2084 24.3077 53.9082 23.4066 52.3181 21.9177C50.5476 24.4829 40.2398 23.5077 39.5209 21.5093C37.3011 24.1115 30.4229 24.1115 28.2031 21.5093C27.4836 23.5077 17.1761 24.4829 15.4054 21.9175C13.8155 23.4066 7.51561 24.3077 4.90298 21.2882C5.41565 23.169 2.3067 23.6609 0.869629 24.025" fill="#364548"/>
<path fill-rule="evenodd" clip-rule="evenodd" d="M29.7295 37.1718C26.2166 35.5067 24.2886 33.2429 23.2158 30.7721C21.9108 31.144 20.3424 31.3819 18.5198 31.484C17.8333 31.5224 17.111 31.5421 16.3534 31.5421C15.4796 31.5421 14.5589 31.5161 13.5922 31.4651C16.8137 34.6813 20.7767 37.1573 28.1149 37.2024C28.6566 37.2024 29.1942 37.1921 29.7295 37.1718" fill="#BDD9D7"/>
<path fill-rule="evenodd" clip-rule="evenodd" d="M24.5211 33.0518C24.0352 32.3927 23.5638 31.5644 23.2172 30.7711C21.9121 31.1435 20.3433 31.3814 18.5204 31.4838C19.7725 32.1626 21.5629 32.7916 24.5214 33.0518" fill="#D3ECEC"/>
</svg>
