<svg width="510" height="127" viewBox="0 0 510 127" fill="none" xmlns="http://www.w3.org/2000/svg">
<path d="M246.331 15.3906C245.251 15.3906 244.366 14.5165 244.366 13.4392C244.366 12.3619 245.251 11.4778 246.331 11.4778C247.409 11.4778 248.295 12.3619 248.295 13.4392C248.295 14.5165 247.409 15.3906 246.331 15.3906ZM246.331 11C244.986 11 243.887 12.0976 243.887 13.4392C243.887 14.7807 244.986 15.8784 246.331 15.8784C247.674 15.8784 248.774 14.7807 248.774 13.4392C248.774 12.0976 247.674 11 246.331 11Z" fill="black"/>
<path d="M246.493 13.3372L245.974 13.3473L245.964 12.7172H246.483C246.677 12.707 246.829 12.829 246.829 13.0221C246.84 13.2152 246.687 13.3372 246.493 13.3372ZM247.338 13.012C247.328 12.5851 247.033 12.2802 246.555 12.2802L245.465 12.3005L245.495 14.5974H245.995L245.984 13.7742H246.341L246.809 14.5873L247.369 14.577L246.84 13.7031C247.084 13.6421 247.338 13.4184 247.338 13.012ZM57.4837 29.7101H51.3761V15.6503H57.3168C58.9193 15.6503 59.9201 16.6829 59.9201 18.0824C59.9201 19.4818 58.9193 20.4809 57.3168 20.4809H50.5259V24.5462H57.4837C59.353 24.5462 60.3548 25.7454 60.3548 27.1439C60.3548 28.7436 59.2858 29.7101 57.4837 29.7101ZM60.9209 22.3468C63.0243 21.9139 64.7602 20.0479 64.7602 17.25C64.7602 14.2844 62.5917 11.5861 58.3512 11.5861H46.6367V33.808H58.7188C62.9571 33.808 65.194 31.1421 65.194 27.8116C65.194 25.0116 63.2911 22.7138 60.9209 22.3468ZM79.0669 21.7472H73.9426V25.9121H77.5651L81.9369 33.8089H87.3767L82.3706 25.3451C84.7734 24.7789 87.2433 22.6802 87.2433 18.7491L79.0669 21.7472ZM87.2433 18.7491C87.2433 14.6177 84.4068 11.5861 79.7673 11.5861H69.354V33.808H74.0934V15.7509H79.0669C80.9697 15.7509 82.4043 16.8831 82.4043 18.7491C82.4043 20.6151 80.9686 21.7472 79.0669 21.7472L87.2433 18.7491ZM123.274 25.8786L126.745 16.317L130.217 25.8786H123.274ZM123.774 11.5861L115.163 33.808H120.569L121.971 30.0435H131.518L132.886 33.808H138.293L129.715 11.587L123.774 11.5861ZM151.166 29.6441H147.127V15.7509H151.165C155.739 15.7509 158.141 18.7826 158.141 22.7147C158.141 26.4792 155.571 29.6441 151.166 29.6441ZM151.166 11.587H142.387V33.8089H151.165C158.141 33.8089 162.98 29.4113 162.98 22.7147C162.98 16.0182 158.141 11.5861 151.166 11.5861V11.587ZM234.781 11.582L228.943 21.0033L223.105 11.582H217.866V33.8089H222.606V19.2806L227.709 27.027C227.844 27.2311 228.027 27.3985 228.242 27.5144C228.458 27.6303 228.698 27.6909 228.943 27.6909C229.188 27.6909 229.429 27.6303 229.644 27.5144C229.86 27.3985 230.043 27.2311 230.177 27.027L235.28 19.2806V33.8069H240.022V11.582H234.781Z" fill="black"/>
<path d="M102.272 29.8776C100.38 29.8776 98.5649 29.1272 97.2268 27.7916C95.8888 26.4558 95.1371 24.6442 95.1371 22.7552C95.1371 21.3466 95.5555 19.9695 96.3395 18.7982C97.1236 17.627 98.2379 16.7141 99.5416 16.175C100.845 15.636 102.28 15.4949 103.664 15.7697C105.048 16.0445 106.319 16.7228 107.317 17.7189C108.315 18.7151 108.995 19.9841 109.27 21.3657C109.545 22.7474 109.404 24.1795 108.864 25.4808C108.324 26.7823 107.409 27.8947 106.236 28.6772C105.063 29.4599 103.683 29.8776 102.272 29.8776ZM102.272 11.0391C95.7897 11.0391 90.5352 16.2844 90.5352 22.7552C90.5352 29.2251 95.7897 34.4704 102.272 34.4704C108.753 34.4704 114.008 29.2262 114.008 22.7552C114.008 16.2844 108.753 11.0391 102.272 11.0391Z" fill="black"/>
<path d="M202.445 29.8776C200.553 29.8776 198.739 29.1272 197.401 27.7916C196.063 26.4558 195.31 24.6442 195.31 22.7552C195.31 21.3466 195.729 19.9695 196.513 18.7982C197.297 17.627 198.411 16.7141 199.715 16.175C201.019 15.636 202.453 15.4949 203.838 15.7697C205.222 16.0445 206.493 16.7228 207.49 17.7189C208.489 18.7151 209.168 19.9841 209.443 21.3657C209.718 22.7474 209.578 24.1795 209.037 25.4808C208.497 26.7823 207.583 27.8947 206.41 28.6772C205.237 29.4599 203.857 29.8776 202.445 29.8776ZM202.445 11.0391C195.964 11.0391 190.708 16.2844 190.708 22.7552C190.708 29.2252 195.964 34.4703 202.445 34.4703C208.927 34.4703 214.183 29.2262 214.183 22.7552C214.183 16.2844 208.927 11.0391 202.445 11.0391Z" fill="black"/>
<path d="M184.311 26.2016C183.702 27.301 182.813 28.2204 181.734 28.8662C180.654 29.512 179.422 29.8614 178.164 29.879C176.906 29.8965 175.666 29.5817 174.568 28.9662C173.472 28.3508 172.556 27.4566 171.918 26.3745C171.279 25.2924 170.937 24.0609 170.929 22.8047C170.92 21.5485 171.245 20.3125 171.869 19.2218C172.494 18.1311 173.395 17.2247 174.484 16.5944C175.572 15.9642 176.809 15.6323 178.067 15.6329C179.331 15.6329 180.572 15.9683 181.664 16.605C182.755 17.2417 183.657 18.1566 184.278 19.2561L187.606 15.9326C186.522 14.4178 185.09 13.1835 183.43 12.3325C181.772 11.4813 179.932 11.0379 178.067 11.0391C171.584 11.0391 166.331 16.2833 166.331 22.7552C166.331 29.2252 171.584 34.4714 178.067 34.4714C182.021 34.4714 185.516 32.518 187.642 29.5271L184.311 26.2016Z" fill="black"/>
<path d="M19.4999 42C30.2695 42 39 33.2695 39 22.5C39 11.7305 30.2695 3 19.4999 3C8.73044 3 0 11.7305 0 22.5C0 33.2695 8.73044 42 19.4999 42Z" fill="#CC092F"/>
<path d="M36.599 27.6669C34.3795 26.814 32.3475 27.0999 30.3119 28.2906C30.3119 28.2906 29.5684 28.7286 29.3461 28.8622C28.397 29.4363 27.5018 29.9802 26.6412 29.9802C25.82 29.9802 25.0121 29.7681 24.6701 28.2364C24.1371 25.847 22.8366 19.9759 22.2688 17.0679C21.9354 15.3586 21.7524 14.4378 21.5636 13.8119C21.2289 12.7124 20.6158 12.1142 19.7468 12.0185C19.7468 12.0185 19.6105 12 19.4994 12C19.3894 12 19.2388 12.0208 19.2388 12.0208C18.3782 12.1199 17.7699 12.7181 17.4375 13.8119C17.2475 14.4378 17.0646 15.3586 16.7323 17.0679C16.1633 19.9759 14.8629 25.847 14.3298 28.2364C13.988 29.7693 13.1799 29.9802 12.3588 29.9802C11.4982 29.9802 10.6029 29.4363 9.65384 28.8622C9.33269 28.6704 9.01075 28.4799 8.68805 28.2906C6.65248 27.0999 4.61932 26.8152 2.40087 27.6681C1.92276 27.8526 1.44943 28.0577 1 28.2675C1.30719 29.1953 1.68968 30.1105 2.13552 30.9691C2.62677 30.7363 3.14195 30.5047 3.66787 30.3548C4.42568 30.1392 5.2026 30.1278 5.95564 30.3709C6.68715 30.6073 7.33858 31.0256 7.98762 31.4197C9.21039 32.1598 10.5957 33 12.3588 33C14.9717 33 16.8052 31.4959 17.3909 28.8737C17.8451 26.8395 18.8515 22.3006 19.4981 19.1702C19.4981 19.1702 21.1548 26.8395 21.6079 28.8726C22.1935 31.4959 24.0282 33 26.6412 33C28.4043 33 29.7895 32.1598 31.0124 31.4186C31.6614 31.0268 32.3127 30.6073 33.0443 30.3709C33.7973 30.1288 34.5743 30.1404 35.332 30.3548C35.858 30.5047 36.3719 30.7351 36.8645 30.9691C37.3115 30.1105 37.6928 29.1953 38 28.2663C37.5402 28.0512 37.0731 27.8513 36.599 27.6669Z" fill="white"/>
<path d="M260.572 85.001H258.22L249.545 98.9002L240.868 85.001H238.509V126.817H240.868L249.545 112.918L258.22 126.817H260.597L260.572 126.781V85.001Z" fill="#6DACDE"/>
<path d="M238.508 85.001H225.643L238.492 105.909L225.643 126.817H238.509V85.001H238.508Z" fill="#938647"/>
<path d="M273.447 85.001H260.573V126.781L260.598 126.817L273.445 126.814L260.597 105.908L273.447 85V85.001Z" fill="#6D9A45"/>
<path d="M291.792 85.001H273.449L260.6 105.909L273.449 126.815H273.454L273.449 117.578H295.159C304.272 117.578 307.001 110.433 307.001 104.208V99.2944C307.001 91.1116 304.039 85.002 291.792 85.002V85.001ZM295 101.872C295 104.351 293.841 107.204 290.821 107.204H273.466V95.375H289.717C293.607 95.375 295 96.9892 295 99.8129V101.872Z" fill="#BFD730"/>
<path d="M238.494 105.91L225.644 85.002H225.639L225.638 110.271L203.866 85.001H191V126.818L203.877 126.815L203.873 101.548L225.644 126.818L238.494 105.91Z" fill="#FCB316"/>
<path fill-rule="evenodd" clip-rule="evenodd" d="M355.212 11.1726C355.767 11.1726 356.268 11.631 356.268 12.237V32.4133C356.268 32.9705 355.767 33.4191 355.212 33.4191H352.48C351.95 33.4191 351.448 33.0047 351.448 32.4485V30.5915C350.073 32.6401 347.709 34.0446 344.24 34.0446C338.433 34.0446 334.856 30.1868 334.856 24.4876V12.2018C334.856 11.631 335.386 11.1775 335.946 11.1775H338.678C339.234 11.1775 339.686 11.631 339.686 12.2018V23.6852C339.686 27.4042 341.641 29.8428 345.483 29.8428C349.227 29.8428 351.448 27.3055 351.448 23.739V12.2067C351.448 11.6359 351.95 11.1824 352.48 11.1824L355.212 11.1726ZM314.902 0.00488429C305.552 -2.68439e-06 298 7.26595 298 17.0145C298 26.7484 305.547 34.0446 314.902 34.0446C316.494 34.0446 318.057 33.8227 319.516 33.4191L321.344 38.1477C321.526 38.6892 321.899 39 322.587 39H325.501C326.188 39 326.729 38.5318 326.38 37.6453L324.022 31.4379C328.709 28.4823 331.809 23.2708 331.809 17.0145C331.809 7.26106 324.262 0 314.907 0L314.902 0.00488429ZM322.272 26.8715L320.125 21.3199C319.943 20.8527 319.57 20.4481 318.749 20.4481H315.968C315.276 20.4481 314.72 20.9065 315.035 21.7734L317.84 29.0687C316.881 29.3189 315.893 29.443 314.902 29.4381C308.038 29.4381 303.189 24.0693 303.189 17.0096C303.189 9.97528 308.038 4.58593 314.902 4.58593C321.771 4.58593 326.616 9.97528 326.616 17.0096C326.616 21.1137 324.97 24.6401 322.272 26.8617V26.8715ZM509.917 32.2999C510.157 32.8571 509.867 33.4132 509.169 33.4132H506.133C505.588 33.4132 505.101 33.1571 504.905 32.601L499.274 17.3791L493.52 32.601C493.274 33.1923 492.877 33.4132 492.321 33.4132H489.599C489.045 33.4132 488.612 33.1923 488.371 32.601L482.598 17.2862L476.898 32.601C476.81 32.8483 476.643 33.0613 476.425 33.2079C476.206 33.3536 475.947 33.4259 475.685 33.4132H472.82C472.558 33.4269 472.299 33.3546 472.082 33.2079C471.864 33.0613 471.698 32.8483 471.612 32.601L465.955 17.2862L460.134 32.601C459.888 33.1923 459.456 33.4132 458.9 33.4132H456.183C455.628 33.4132 455.201 33.1923 454.985 32.601L449.285 17.2862L443.6 32.601C443.408 33.1571 442.922 33.4132 442.366 33.4132H439.399C438.711 33.4132 438.451 32.8571 438.657 32.2999L446.411 12.0395C446.632 11.4482 447.064 11.1726 447.619 11.1726H450.96C451.52 11.1726 451.918 11.4482 452.139 12.0395L457.599 26.8422L463.121 12.0395C463.357 11.4482 463.789 11.1726 464.344 11.1726H467.622C468.176 11.1726 468.609 11.4482 468.821 12.0395L474.299 26.8422L479.753 12.0395C479.999 11.4482 480.397 11.1726 480.952 11.1726H484.263C484.799 11.1726 485.217 11.4482 485.457 12.0395L491.019 26.8422L496.429 12.0395C496.674 11.4482 497.087 11.1726 497.643 11.1726H500.984C501.544 11.1726 501.941 11.4482 502.188 12.0395L509.922 32.2999H509.917ZM381.72 11.1726H378.964C378.423 11.1726 377.883 11.631 377.883 12.237V14.094C376.517 11.9956 373.809 10.5373 370.64 10.5373C364.631 10.5373 359.428 15.3158 359.428 22.266C359.428 29.3199 364.631 34.0446 370.586 34.0446C373.809 34.0446 376.463 32.5511 377.887 30.4478V32.4182C377.887 32.9704 378.423 33.4191 378.964 33.4191H381.715C381.847 33.42 381.978 33.3946 382.101 33.3448C382.223 33.2949 382.335 33.2207 382.429 33.1278C382.522 33.034 382.597 32.9226 382.647 32.8004C382.697 32.6772 382.723 32.5463 382.722 32.4133V12.237C382.722 11.631 382.275 11.1775 381.72 11.1775V11.1726ZM371.141 29.576C367.157 29.576 364.331 26.3447 364.331 22.3149C364.331 18.2362 367.157 15.0744 371.141 15.0744C375.072 15.0744 377.956 18.2362 377.956 22.3149C377.956 26.3447 375.077 29.576 371.141 29.576ZM414.306 30.2758C414.91 31.0244 414.404 31.5816 414.1 31.8025C412.183 33.2461 409.677 34.0446 406.941 34.0446C400.052 34.0446 395.463 28.97 395.463 22.3149C395.463 15.6305 400.052 10.5373 406.941 10.5373C409.677 10.5373 412.188 11.2957 414.1 12.7442C414.409 12.9651 414.856 13.4685 414.306 14.2709L413.009 16.0742C412.498 16.7887 411.898 16.6157 411.387 16.2707C410.111 15.4282 408.625 14.9639 407.097 14.9307C403.039 14.9307 400.367 18.1825 400.367 22.3149C400.367 26.4141 403.039 29.6307 407.097 29.6307C408.739 29.6307 410.09 28.9749 411.308 28.276C411.81 28.0151 412.375 27.7736 412.93 28.5223L414.306 30.2758ZM427.184 10.5715C425.645 10.5578 424.118 10.853 422.693 11.4394C421.269 12.0259 419.976 12.8908 418.889 13.9846C417.803 15.0783 416.945 16.3792 416.366 17.8091C415.788 19.24 415.5 20.7716 415.52 22.3149C415.499 23.8582 415.787 25.3898 416.365 26.8197C416.943 28.2496 417.802 29.5496 418.889 30.6423C419.975 31.735 421.269 32.599 422.694 33.1835C424.118 33.767 425.645 34.0602 427.184 34.0446C428.725 34.0622 430.253 33.7709 431.679 33.1874C433.105 32.6039 434.401 31.7409 435.49 30.6472C436.578 29.5545 437.437 28.2545 438.016 26.8236C438.596 25.3927 438.884 23.8592 438.864 22.3149C438.882 20.7706 438.593 19.2381 438.014 17.8062C437.434 16.3753 436.575 15.0743 435.487 13.9806C434.4 12.8869 433.104 12.0219 431.678 11.4365C430.253 10.851 428.725 10.5568 427.184 10.5715ZM427.184 29.532C423.209 29.532 420.374 26.3447 420.374 22.3149C420.374 18.2362 423.209 15.0744 427.184 15.0744C431.188 15.0744 433.999 18.2362 433.999 22.3149C433.999 26.3447 431.188 29.532 427.184 29.532ZM391.291 0.615756C391.428 0.617711 391.562 0.646054 391.688 0.69981C391.813 0.753567 391.927 0.831759 392.022 0.929499C392.117 1.02724 392.191 1.14355 392.241 1.27061C392.292 1.39767 392.316 1.53352 392.313 1.67036V32.3596C392.317 32.4964 392.293 32.6332 392.243 32.7603C392.193 32.8883 392.119 33.0047 392.023 33.1034C391.928 33.2021 391.815 33.2803 391.689 33.335C391.563 33.3888 391.428 33.4171 391.291 33.4191H388.55C388.273 33.4093 388.01 33.294 387.814 33.0975C387.618 32.9011 387.503 32.6372 387.493 32.3596V1.67036C387.493 1.11324 387.994 0.610872 388.55 0.610872L391.291 0.615756Z" fill="#3051DC"/>
<path fill-rule="evenodd" clip-rule="evenodd" d="M22.9832 88.3954C25.1822 88.3954 27.7792 88.5958 28.5792 88.9958V91.7934C28.5792 94.5909 30.1782 94.9909 30.1782 94.9909V97.5888C30.1782 99.3872 29.7782 100.587 29.7782 100.587C28.9792 100.786 26.9812 101.386 24.7822 102.985C23.1842 104.184 21.7841 105.982 21.7841 107.781C21.7841 108.98 21.9842 109.779 22.3842 110.578C22.3842 110.578 21.5852 110.977 20.1862 110.977C18.3872 110.778 16.3892 109.379 15.1902 107.181C13.5912 104.383 12.7922 100.985 10.9932 100.985C9.19416 100.985 9.19417 102.784 7.79617 102.784C6.19717 102.784 5.19716 100.186 4.79816 98.9872C3.79916 97.1887 1.40217 96.589 1.20117 93.7915H8.79517V83H15.9902V87.596C16.1902 87.7957 16.7892 87.9961 17.5882 88.1957L16.7892 91.7927H14.5912L13.7912 94.9902H15.9902L15.1902 98.9872C15.1902 99.5869 14.9912 100.985 15.1902 101.586C15.5902 103.185 16.5892 103.784 17.9882 103.784C19.9872 103.784 21.7852 102.784 21.7852 102.784L22.5842 100.186H21.1852C20.7862 100.186 20.3862 100.186 20.5862 99.1869L21.5852 94.9902H23.7832L24.5832 91.7927H22.3852L22.9832 88.3954Z" fill="#A64938"/>
<path fill-rule="evenodd" clip-rule="evenodd" d="M18.5876 89.5952H21.3846L19.1866 99.9873H16.3896L18.5876 89.5952ZM20.5857 85.7979C21.3847 85.7979 22.1847 86.3976 22.1847 87.3967C22.1847 88.1961 21.3847 88.7958 20.5857 88.7958C19.7867 88.7958 18.9867 88.1961 18.9867 87.3967C18.9867 86.3976 19.7867 85.7979 20.5857 85.7979Z" fill="#A64938"/>
<path fill-rule="evenodd" clip-rule="evenodd" d="M90.1315 98.5879C91.7305 98.5879 92.7295 98.7876 92.9285 98.9873C93.3285 98.9873 93.1285 98.7876 93.3285 98.5879H93.5275L94.5265 101.385L94.1275 101.586C93.5275 100.786 92.3295 99.9863 90.3305 99.9863C89.5315 99.9863 87.9315 100.186 87.9315 101.385C87.9315 103.784 95.3265 102.384 95.3265 107.181C95.3265 109.379 93.5275 110.977 90.1315 110.977C88.9325 110.977 87.9315 110.778 86.9325 110.378C86.7335 110.378 86.5335 110.577 86.5335 110.777L86.1345 110.977L84.9355 107.38L85.3345 107.18C86.3335 108.38 87.7335 109.378 90.1315 109.378C92.1305 109.378 92.7295 108.579 92.7295 107.78C92.7295 104.982 85.5355 106.78 85.5355 101.984C85.5335 99.7867 87.7335 98.5879 90.1315 98.5879ZM48.5635 110.778V110.378C49.3625 110.179 49.7625 109.979 49.7625 108.78V100.586C49.7625 99.3873 49.3625 99.1876 48.5635 98.9873V98.5879H57.9555L58.9545 101.186L58.5555 101.386C57.7565 100.386 56.9565 100.187 55.5575 100.187H53.3595C52.5605 100.187 52.3605 100.386 52.3605 100.986V103.585H55.5575C56.7575 103.585 56.9565 103.384 57.1565 102.785H57.5555V105.983H57.1565C56.9565 105.383 56.7575 105.183 55.5575 105.183H52.3605V108.381C52.3605 109.18 52.5605 109.18 53.3595 109.18H56.1575C57.3565 109.18 58.3555 109.18 59.3545 107.981L59.5545 108.181L58.7555 110.778H48.5635V110.778Z" fill="#0C0E0F"/>
<path fill-rule="evenodd" clip-rule="evenodd" d="M45.566 108.78C45.566 109.979 45.965 110.179 46.565 110.378V110.778H41.369V110.378C41.969 110.179 42.568 109.979 42.568 108.78V97.1895C42.568 96.5897 42.168 96.5897 41.369 96.5897C38.771 96.5897 37.772 96.5897 36.772 97.5895H36.572L37.572 94.792H50.562L51.561 97.5895H51.161C50.362 96.5897 49.163 96.5897 46.565 96.5897C45.765 96.5897 45.566 96.5897 45.566 97.1895V108.78ZM64.75 104.783L61.353 100.387C60.753 99.388 60.353 99.1883 59.554 98.9886V98.5893H65.15V98.9886C64.55 98.9886 64.151 99.5883 64.75 100.387L66.35 102.785L68.348 100.187C68.747 99.5876 68.747 98.9886 67.949 98.9886V98.5893H72.545V98.9886C71.745 99.1883 71.146 99.388 70.347 100.187L67.549 104.184L70.946 108.981C71.345 109.58 71.745 109.98 71.745 109.98C71.745 109.98 72.345 109.78 73.144 107.782L76.94 98.5893H79.339L83.735 108.981C83.935 109.58 84.534 110.18 85.133 110.38V110.779H79.938V110.38C80.338 110.38 81.137 110.18 80.538 108.981L79.938 107.383H74.942L74.342 108.981C73.742 110.18 74.741 110.38 74.942 110.38V110.779H67.149V110.38C67.548 110.38 68.547 109.98 67.747 108.981L65.749 106.383L63.751 109.181C63.151 109.98 63.751 110.38 64.15 110.38V110.779H59.553V110.38C60.353 110.18 61.152 109.78 61.752 108.782L64.75 104.783ZM77.539 100.987L75.541 105.783H79.339L77.539 100.987ZM2.19901 112.577C2.19901 111.38 1.6 111.178 1 110.978V110.778H6.19601V110.978C5.79601 111.178 5.19702 111.379 5.19702 112.577V124.768C5.19702 125.967 5.79601 126.167 6.19601 126.367V126.766H1V126.367C1.6 126.167 2.19901 125.968 2.19901 124.768V112.577ZM18.786 126.766H18.387L10.193 118.173V124.768C10.193 125.967 10.793 126.167 11.193 126.367V126.766H7.59601V126.367C8.19501 126.167 8.595 125.968 8.595 124.768V116.575C8.595 115.376 8.19501 115.176 7.59601 114.976V114.576H10.992L17.188 121.37V116.575C17.188 115.376 16.788 115.176 16.189 114.976V114.576H19.985V114.976C19.385 115.175 18.786 115.375 18.786 116.575V126.766ZM66.148 122.57C66.148 126.167 62.951 126.966 60.952 126.966C58.755 126.966 55.557 126.167 55.557 122.77V116.575C55.557 115.376 54.957 114.976 54.358 114.976V114.576H59.354V114.976C58.755 114.976 58.156 115.375 58.156 116.575V122.57C58.156 124.568 59.354 125.368 61.353 125.368C63.152 125.368 64.55 124.568 64.55 122.57V116.575C64.55 115.376 63.95 115.176 63.351 114.976V114.576H67.149V114.976C66.548 115.175 66.148 115.375 66.148 116.575V122.57ZM34.973 116.974C34.973 116.174 34.973 116.174 34.374 116.174C32.375 116.174 31.976 116.174 30.777 117.573L30.577 117.373L31.376 114.576H41.368L42.367 117.373L41.968 117.573C40.968 116.174 40.569 116.174 38.571 116.174C37.971 116.174 37.771 116.174 37.771 116.974V124.768C37.771 125.967 38.171 126.167 38.97 126.367V126.766H33.974V126.367C34.774 126.167 34.973 125.968 34.973 124.768V116.974ZM25.781 114.377C27.18 114.377 28.179 114.776 28.379 114.776C28.778 114.976 28.778 114.576 28.778 114.576L29.178 114.377L29.977 117.374H29.578C28.978 116.774 27.979 115.976 25.98 115.976C24.981 115.976 23.382 116.175 23.382 117.374C23.382 119.572 30.976 118.373 30.976 123.17C30.976 125.368 29.178 126.767 25.781 126.767C24.381 126.767 23.382 126.567 22.383 126.368C22.184 126.368 22.184 126.567 21.983 126.567C21.983 126.767 21.584 126.767 21.584 126.767L20.384 123.37L20.785 123.171C21.784 124.37 23.183 125.369 25.58 125.369C27.579 125.369 28.179 124.569 28.179 123.77C28.179 120.971 20.984 122.771 20.984 117.974C20.985 115.775 23.383 114.377 25.781 114.377ZM82.336 124.768C82.336 125.967 82.936 126.167 83.535 126.367V126.766H78.54V126.367C79.14 126.167 79.739 125.968 79.739 124.768V118.972L75.342 126.966H74.942L70.547 118.772V124.768C70.547 125.967 71.146 126.167 71.745 126.367V126.766H67.949V126.367C68.348 126.167 68.948 125.968 68.948 124.768V116.575C68.948 115.376 68.348 115.176 67.949 114.976V114.576H71.745L75.742 122.57L80.139 114.576H83.535V114.976C82.935 115.175 82.336 115.375 82.336 116.575V124.768ZM107.516 126.766H107.116L98.924 118.173V124.768C98.924 125.967 99.524 126.167 99.923 126.367V126.766H96.125V126.367C96.725 126.167 97.324 125.968 97.324 124.768V116.575C97.324 115.376 96.925 115.176 96.125 114.976V114.576H99.723L105.918 121.37V116.575C105.918 115.376 105.318 115.176 104.719 114.976V114.576H108.517V114.976C108.117 115.175 107.516 115.375 107.516 116.575V126.766ZM84.934 126.766V126.367C85.533 126.167 85.933 125.767 85.933 124.768V116.575C85.933 115.376 85.533 115.176 84.934 114.976V114.576H94.326L95.125 117.174L94.926 117.374C94.126 116.375 93.127 116.175 91.928 116.175H89.531C88.931 116.175 88.732 116.375 88.732 116.975V119.572H91.729C92.928 119.572 93.328 119.173 93.328 118.773H93.727V121.97H93.328C93.328 121.37 92.928 121.171 91.729 121.171H88.732V124.369C88.732 124.969 88.931 125.168 89.531 125.168H92.329C93.527 125.168 94.726 125.168 95.525 123.969L95.925 124.169L94.926 126.767H84.934V126.766ZM113.112 116.974C113.112 116.174 112.912 116.174 112.512 116.174C110.315 116.174 110.115 116.174 108.915 117.573L108.716 117.373L109.515 114.576H119.507L120.506 117.373L120.107 117.573C119.108 116.174 118.709 116.174 116.709 116.174C116.109 116.174 115.91 116.174 115.91 116.974V124.768C115.91 125.967 116.309 126.167 117.108 126.367V126.766H112.113V126.367C112.713 126.167 113.112 125.968 113.112 124.768V116.974ZM125.702 114.377C127.1 114.377 128.099 114.776 128.5 114.776C128.701 114.976 128.701 114.576 128.701 114.576C128.9 114.576 129.1 114.377 129.1 114.377L129.899 117.374H129.7C129.1 116.774 127.9 115.976 125.902 115.976C124.903 115.976 123.504 116.175 123.504 117.374C123.504 119.572 130.898 118.373 130.898 123.17C130.898 125.368 129.1 126.767 125.702 126.767C124.304 126.767 123.305 126.567 122.305 126.368C122.106 126.368 122.106 126.567 122.106 126.567C121.906 126.767 121.706 126.767 121.706 126.767L120.308 123.37L120.707 123.171C121.706 124.37 123.305 125.369 125.503 125.369C127.501 125.369 128.101 124.569 128.101 123.77C128.101 120.971 120.908 122.771 120.908 117.974C120.906 115.775 123.304 114.377 125.702 114.377Z" fill="#0C0E0F"/>
<path fill-rule="evenodd" clip-rule="evenodd" d="M48.9622 114.576C51.5602 114.576 53.5592 115.575 53.5592 117.773C53.5592 120.17 51.3602 120.57 50.1622 120.77C53.3592 121.969 53.5592 126.166 55.5572 126.166V126.366C55.1582 126.565 54.7582 126.765 53.7592 126.765C49.3622 126.765 50.3612 121.369 47.5642 121.369H46.1652V124.767C46.1652 125.966 46.5642 126.165 47.1642 126.366V126.765H42.3672V126.366C42.9672 126.166 43.3672 125.966 43.3672 124.767V116.573C43.3672 115.375 42.9682 115.175 42.3672 114.974V114.575H48.9622V114.576ZM46.1652 119.971H47.7642C49.1622 119.971 50.7612 119.371 50.7612 117.972C50.7612 117.173 50.1622 115.974 48.3632 115.974H46.9642C46.3652 115.974 46.1652 116.174 46.1652 116.973V119.971Z" fill="#0C0E0F"/>
</svg>
