<svg width="519" height="219" viewBox="0 0 519 219" fill="none" xmlns="http://www.w3.org/2000/svg">
<path d="M7.82082 65H9.18082L6.02082 58H4.74082L1.59082 65H2.93082L3.62082 63.38H7.12082L7.82082 65ZM4.06082 62.36L5.37082 59.3L6.69082 62.36H4.06082ZM11.0611 63.9L15.1811 58.87V58H9.41105V59.1H13.4611L9.34105 64.13V65H15.3111V63.9H11.0611ZM19.3119 65.1C21.2219 65.1 22.3719 63.99 22.3719 61.95V58H21.0919V61.9C21.0919 63.34 20.4519 63.96 19.3219 63.96C18.1919 63.96 17.5419 63.34 17.5419 61.9V58H16.2419V61.95C16.2419 63.99 17.3919 65.1 19.3119 65.1ZM29.9725 65L28.3625 62.7C29.3125 62.33 29.8525 61.55 29.8525 60.49C29.8525 58.94 28.7125 58 26.8725 58H23.9925V65H25.2925V62.96H26.8725C26.9625 62.96 27.0525 62.96 27.1425 62.95L28.5725 65H29.9725ZM28.5425 60.49C28.5425 61.37 27.9525 61.89 26.8125 61.89H25.2925V59.1H26.8125C27.9525 59.1 28.5425 59.61 28.5425 60.49ZM32.407 63.91V61.98H35.787V60.91H32.407V59.09H36.217V58H31.107V65H36.357V63.91H32.407ZM40.1699 65H41.4699V58H40.1699V65ZM46.4332 65.1C48.6032 65.1 50.2032 63.58 50.2032 61.5C50.2032 59.42 48.6032 57.9 46.4332 57.9C44.2632 57.9 42.6632 59.43 42.6632 61.5C42.6632 63.57 44.2632 65.1 46.4332 65.1ZM46.4332 63.96C45.0232 63.96 43.9732 62.93 43.9732 61.5C43.9732 60.07 45.0232 59.04 46.4332 59.04C47.8432 59.04 48.8932 60.07 48.8932 61.5C48.8932 62.93 47.8432 63.96 46.4332 63.96ZM52.7036 65H54.0036V59.1H56.3236V58H50.3836V59.1H52.7036V65Z" fill="#0178D7"/>
<path fill-rule="evenodd" clip-rule="evenodd" d="M28.576 3L50 15.2359V39.7587L28.5665 52L7 39.456V34.6625L28.5854 47.1798L45.8342 37.3285V17.6661L28.576 7.8094L11.3177 17.6661V20.8258L14.9688 23.1333V28.0716L7.15197 23.1333V15.2359L28.576 3Z" fill="#0178D7"/>
<path d="M28.576 16.1524L38.1106 21.6756V32.7219L28.576 38.245L19.0414 32.7219V21.6756L28.576 16.1524Z" fill="#0178D7"/>
<path d="M7.27772 197.712H18.2056V202.541H1V176.5H7.27772V197.712Z" fill="black"/>
<path d="M19.449 192.686C19.449 190.755 19.8246 189.038 20.5757 187.535C21.3269 186.021 22.406 184.858 23.813 184.048C25.22 183.237 26.8713 182.831 28.7672 182.831C31.6646 182.831 33.9479 183.732 35.6172 185.532C37.2865 187.321 38.1212 189.759 38.1212 192.847V193.062C38.1212 196.078 37.2806 198.475 35.5993 200.252C33.9301 202.016 31.6646 202.899 28.803 202.899C26.0486 202.899 23.8368 202.076 22.1675 200.43C20.4982 198.773 19.598 196.531 19.4669 193.706L19.449 192.686ZM25.4763 193.062C25.4763 194.85 25.7565 196.162 26.3169 196.996C26.8773 197.831 27.706 198.248 28.803 198.248C30.9492 198.248 32.0462 196.597 32.0938 193.294V192.686C32.0938 189.216 30.985 187.482 28.7672 187.482C26.7521 187.482 25.6611 188.978 25.4942 191.971L25.4763 193.062Z" fill="black"/>
<path d="M50.364 193.348H46.9658V202.541H40.6881V176.5H50.9363C54.0245 176.5 56.439 177.186 58.1798 178.557C59.9206 179.928 60.7911 181.866 60.7911 184.37C60.7911 186.182 60.4214 187.684 59.6822 188.877C58.9548 190.069 57.8102 191.035 56.2482 191.774L61.6853 202.273V202.541H54.9605L50.364 193.348ZM46.9658 188.501H50.9363C52.1286 188.501 53.0229 188.191 53.6191 187.571C54.2272 186.939 54.5312 186.063 54.5312 184.942C54.5312 183.821 54.2272 182.945 53.6191 182.313C53.011 181.669 52.1167 181.347 50.9363 181.347H46.9658V188.501Z" fill="black"/>
<path d="M74.8403 202.541C74.6256 202.147 74.4349 201.569 74.268 200.806C73.1591 202.201 71.609 202.899 69.6178 202.899C67.7935 202.899 66.2434 202.35 64.9676 201.253C63.6918 200.144 63.0539 198.755 63.0539 197.086C63.0539 194.987 63.8289 193.402 65.379 192.328C66.929 191.255 69.1826 190.719 72.1396 190.719H73.9997V189.699C73.9997 187.923 73.2306 187.034 71.6925 187.034C70.2617 187.034 69.5462 187.738 69.5462 189.145H63.5189C63.5189 187.273 64.3118 185.753 65.8977 184.584C67.4954 183.416 69.5284 182.831 71.9965 182.831C74.4647 182.831 76.4142 183.434 77.845 184.638C79.2758 185.842 80.0091 187.493 80.0449 189.592V198.159C80.0687 199.936 80.343 201.295 80.8676 202.237V202.541H74.8403ZM71.0665 198.606C71.8177 198.606 72.4377 198.445 72.9266 198.123C73.4273 197.801 73.785 197.438 73.9997 197.032V193.938H72.2469C70.1484 193.938 69.0991 194.88 69.0991 196.764C69.0991 197.312 69.2839 197.76 69.6536 198.105C70.0232 198.439 70.4942 198.606 71.0665 198.606Z" fill="black"/>
<path fill-rule="evenodd" clip-rule="evenodd" d="M35.5937 181.414C31.3523 179.529 25.6474 179.529 21.4059 181.414L20.5938 179.586C25.3522 177.471 31.6474 177.471 36.406 179.586L35.5937 181.414Z" fill="#00A0E9"/>
<path fill-rule="evenodd" clip-rule="evenodd" d="M37.5195 177.529C31.8272 175.157 25.1733 175.157 19.4809 177.529L18.5195 175.221C24.8271 172.593 32.1732 172.593 38.4809 175.221L37.5195 177.529Z" fill="#00A0E9"/>
<path fill-rule="evenodd" clip-rule="evenodd" d="M39.4834 172.908C32.554 170.364 24.4467 170.364 17.5173 172.908L16.4834 170.092C24.0803 167.303 32.9204 167.303 40.5173 170.092L39.4834 172.908Z" fill="#00A0E9"/>
<path fill-rule="evenodd" clip-rule="evenodd" d="M21.4073 204.5C25.6487 206.385 31.3536 206.385 35.5951 204.5L36.4072 206.328C31.6487 208.443 25.3536 208.443 20.595 206.328L21.4073 204.5Z" fill="#00A0E9"/>
<path fill-rule="evenodd" clip-rule="evenodd" d="M19.4815 208.385C25.1738 210.757 31.8277 210.757 37.5201 208.385L38.4814 210.693C32.1738 213.321 24.8277 213.321 18.52 210.693L19.4815 208.385Z" fill="#00A0E9"/>
<path fill-rule="evenodd" clip-rule="evenodd" d="M17.5176 213.006C24.447 215.55 32.5542 215.55 39.4837 213.006L40.5176 215.822C32.9207 218.611 24.0806 218.612 16.4836 215.822L17.5176 213.006Z" fill="#00A0E9"/>
<path d="M241.007 13V38.7062H236.033L222.983 23.0989V38.7062H219.72C218.218 38.7062 217 37.5105 217 36.0354V15.3369C217 14.0463 218.065 13 219.38 13H222.011L235.024 28.6073V13H241.007Z" fill="#067351"/>
<path d="M262.549 24.928C262.299 25.0947 262.336 25.5005 262.614 25.617C263.75 26.0925 264.666 26.7833 265.363 27.6893C266.21 28.7665 266.634 30.1008 266.634 31.6921C266.634 33.9444 265.737 35.6827 263.942 36.9068C262.172 38.1064 259.579 38.7062 256.164 38.7062H244.327V13H255.416C258.607 13 261.05 13.5998 262.745 14.7994C264.465 15.9991 265.325 17.6271 265.325 19.6836C265.325 20.9322 265.014 22.0461 264.391 23.0254C263.927 23.7847 263.313 24.4189 262.549 24.928ZM251.707 17.4802V23.5395H253.988C255.484 23.5395 256.618 23.2825 257.391 22.7684C258.164 22.2542 258.55 21.4953 258.55 20.4915C258.55 19.4878 258.164 18.7411 257.391 18.2514C256.618 17.7373 255.484 17.4802 253.988 17.4802H251.707ZM255.035 34.226C256.631 34.226 257.827 33.9689 258.625 33.4548C259.448 32.9407 259.859 32.4789 259.859 31.4016C259.859 29.2717 258.251 28.5406 255.035 28.5406H251.707V34.226H255.035Z" fill="#067351"/>
<path d="M270.928 26.0734H281.51V30.6638H270.928V26.0734Z" fill="#067351"/>
<path d="M286.699 13H291.736V38.7062H286.699V13Z" fill="#067351"/>
<path d="M306.277 39C304.158 39 302.251 38.5716 300.556 37.7147C298.886 36.8333 297.577 35.6215 296.63 34.0791C295.682 32.5367 295.209 30.7863 295.209 28.8277C295.209 26.8691 295.682 25.1186 296.63 23.5763C297.577 22.0339 298.886 20.8343 300.556 19.9774C302.251 19.096 304.158 18.6554 306.277 18.6554C308.396 18.6554 310.291 19.096 311.961 19.9774C313.631 20.8343 314.94 22.0339 315.887 23.5763C316.835 25.1186 317.308 26.8691 317.308 28.8277C317.308 30.7863 316.835 32.5367 315.887 34.0791C314.94 35.6215 313.631 36.8333 311.961 37.7147C310.291 38.5716 308.396 39 306.277 39ZM306.277 34.2994C307.773 34.2994 308.994 33.8098 309.942 32.8305C310.914 31.8267 311.4 30.4925 311.4 28.8277C311.4 27.1629 310.914 25.8409 309.942 24.8616C308.994 23.8578 307.773 23.3559 306.277 23.3559C304.781 23.3559 303.547 23.8578 302.575 24.8616C301.603 25.8409 301.117 27.1629 301.117 28.8277C301.117 30.4925 301.603 31.8267 302.575 32.8305C303.547 33.8098 304.781 34.2994 306.277 34.2994Z" fill="#067351"/>
<path d="M322.808 17.1798H313.412V13H336.223V17.1798H327.167V38.7062H322.808V17.1798Z" fill="#067351"/>
<path d="M339.682 13.8912H338.565V13.2448H341.607V13.8912H340.49V16.6723H339.682V13.8912Z" fill="#067351"/>
<path d="M345.242 16.6723L345.237 14.6158L344.21 16.31H343.846L342.824 14.6599V16.6723H342.066V13.2448H342.734L344.041 15.3748L345.327 13.2448H345.99L346 16.6723H345.242Z" fill="#067351"/>
<path d="M437.799 7.55994C441.189 11.2668 435.642 23.5682 423.956 34.2562C412.271 44.9441 401.475 51.476 398.085 47.7691C394.694 44.0623 399.681 29.9797 411.366 19.2917C423.051 8.60378 434.409 3.85309 437.799 7.55994Z" fill="#2A2865"/>
<path d="M430.4 47.6769C426.661 51.0316 414.414 45.366 403.838 33.5787C393.263 21.7914 386.835 10.933 390.574 7.57821C394.314 4.22347 407.55 9.89845 418.125 21.6857C428.701 33.473 434.14 44.3221 430.4 47.6769Z" fill="url(#paint0_linear)"/>
<path d="M413.673 42.7209C406.361 47.9814 400.438 50.3425 398.085 47.7691C394.694 44.0623 399.681 29.9797 411.366 19.2917C412.137 18.5864 412.907 17.9069 413.673 17.254C413.673 31.1963 413.673 32.9693 413.673 42.7209Z" fill="#2A2865"/>
<path d="M449.947 32.6376C449.947 32.2504 449.782 31.9405 449.453 31.7082C449.124 31.4758 448.717 31.2628 448.233 31.0692C447.749 30.8756 447.216 30.682 446.635 30.4883C446.055 30.2753 445.522 29.9946 445.038 29.646C444.554 29.2781 444.147 28.8231 443.818 28.2809C443.489 27.7194 443.324 27.003 443.324 26.1316C443.324 24.6988 443.75 23.6048 444.602 22.8496C445.454 22.0945 446.684 21.7169 448.291 21.7169C449.395 21.7169 450.392 21.8331 451.283 22.0654C452.173 22.2978 452.87 22.5592 453.374 22.8496L452.531 25.5798C452.086 25.4055 451.525 25.2216 450.847 25.028C450.169 24.8343 449.482 24.7375 448.785 24.7375C447.662 24.7375 447.1 25.1732 447.1 26.0445C447.1 26.393 447.265 26.6738 447.594 26.8868C447.923 27.0998 448.33 27.3031 448.814 27.4967C449.298 27.671 449.83 27.8646 450.411 28.0776C450.992 28.2906 451.525 28.5714 452.009 28.9199C452.493 29.2491 452.899 29.6848 453.229 30.2269C453.558 30.7691 453.722 31.4662 453.722 32.3181C453.722 33.7897 453.248 34.9515 452.299 35.8035C451.37 36.6361 449.966 37.0524 448.088 37.0524C447.061 37.0524 446.093 36.9168 445.183 36.6458C444.293 36.394 443.566 36.0939 443.005 35.7454L444.05 32.9281C444.496 33.1798 445.086 33.4315 445.822 33.6832C446.558 33.9156 447.313 34.0317 448.088 34.0317C448.649 34.0317 449.095 33.9253 449.424 33.7123C449.772 33.4993 449.947 33.1411 449.947 32.6376Z" fill="#2A2865"/>
<path d="M456.507 22.1235H460.283V36.6458H456.507V22.1235ZM455.955 18.0282C455.955 17.4667 456.158 16.9923 456.565 16.6051C456.991 16.1984 457.572 15.9951 458.308 15.9951C459.043 15.9951 459.634 16.1984 460.079 16.6051C460.544 16.9923 460.776 17.4667 460.776 18.0282C460.776 18.5898 460.544 19.0642 460.079 19.4514C459.634 19.8193 459.043 20.0033 458.308 20.0033C457.572 20.0033 456.991 19.8193 456.565 19.4514C456.158 19.0642 455.955 18.5898 455.955 18.0282Z" fill="#2A2865"/>
<path d="M476.273 36.6458C476.273 38.7563 475.702 40.3054 474.56 41.2929C473.417 42.2997 471.82 42.8032 469.767 42.8032C468.373 42.8032 467.27 42.7064 466.456 42.5127C465.662 42.3191 465.062 42.1158 464.656 41.9028L465.44 38.9112C465.885 39.0855 466.398 39.2598 466.979 39.434C467.579 39.6083 468.315 39.6954 469.186 39.6954C470.503 39.6954 471.394 39.405 471.859 38.8241C472.343 38.2626 472.585 37.4687 472.585 36.4424V35.513H472.468C471.791 36.4231 470.59 36.8781 468.867 36.8781C466.989 36.8781 465.585 36.2972 464.656 35.1354C463.745 33.9737 463.29 32.1535 463.29 29.6751C463.29 27.0804 463.91 25.1151 465.149 23.779C466.389 22.443 468.189 21.775 470.552 21.775C471.791 21.775 472.894 21.8621 473.863 22.0364C474.85 22.2106 475.654 22.414 476.273 22.6463V36.6458ZM469.884 33.8575C470.619 33.8575 471.181 33.6929 471.568 33.3637C471.975 33.0346 472.285 32.5408 472.498 31.8825V25.3474C471.897 25.0957 471.152 24.9699 470.261 24.9699C469.293 24.9699 468.538 25.3378 467.996 26.0736C467.453 26.79 467.182 27.9421 467.182 29.5299C467.182 30.9433 467.415 32.018 467.879 32.7538C468.344 33.4896 469.012 33.8575 469.884 33.8575Z" fill="#2A2865"/>
<path d="M480.227 22.1235V21.3103C480.227 19.4708 480.614 18.1444 481.389 17.3312C482.164 16.4986 483.287 16.0823 484.758 16.0823C486.307 16.0823 487.595 16.2662 488.621 16.6341L487.895 19.6547C487.45 19.4998 487.053 19.403 486.704 19.3643C486.375 19.3062 486.026 19.2771 485.659 19.2771C485.271 19.2771 484.961 19.3352 484.729 19.4514C484.516 19.5676 484.352 19.7515 484.235 20.0033C484.139 20.2356 484.071 20.5357 484.032 20.9036C484.013 21.2522 484.003 21.6588 484.003 22.1235H487.857V25.3184H484.003V36.6458H480.227V25.3184V22.1235Z" fill="#2A2865"/>
<path d="M488.052 29.3846C488.052 26.9255 488.652 25.0376 489.853 23.721C491.053 22.3849 492.738 21.7169 494.906 21.7169C496.068 21.7169 497.075 21.9008 497.927 22.2687C498.779 22.6366 499.486 23.1594 500.047 23.8371C500.609 24.4955 501.025 25.299 501.296 26.2478C501.587 27.1966 501.732 28.2422 501.732 29.3846C501.732 31.8437 501.132 33.7413 499.931 35.0773C498.75 36.394 497.075 37.0524 494.906 37.0524C493.745 37.0524 492.738 36.8684 491.886 36.5005C491.034 36.1326 490.317 35.6195 489.737 34.9612C489.175 34.2835 488.749 33.4702 488.459 32.5214C488.188 31.5726 488.052 30.527 488.052 29.3846ZM491.944 29.3846C491.944 30.0236 492.002 30.6142 492.118 31.1563C492.234 31.6985 492.409 32.1729 492.641 32.5795C492.873 32.9861 493.174 33.3056 493.541 33.538C493.929 33.751 494.384 33.8575 494.906 33.8575C495.894 33.8575 496.63 33.4993 497.114 32.7828C497.598 32.0664 497.84 30.9337 497.84 29.3846C497.84 28.0486 497.617 26.9739 497.172 26.1607C496.727 25.3281 495.971 24.9118 494.906 24.9118C493.977 24.9118 493.251 25.2603 492.728 25.9574C492.205 26.6544 491.944 27.7969 491.944 29.3846Z" fill="#2A2865"/>
<path d="M506.922 29.2104L502.565 22.1235H507.067L508.955 25.2313L509.768 27.2644L510.64 25.2313L512.615 22.1235H516.71L512.324 29.0942L517.001 36.6458H512.615L510.378 33.1604L509.507 31.0111L508.578 33.1604L506.341 36.6458H502.217L506.922 29.2104Z" fill="#2A2865"/>
<path fill-rule="evenodd" clip-rule="evenodd" d="M94.8919 91H86.593C85.4132 91 84.2729 91.9567 84.046 93.1364L82.0117 103.7C81.7848 104.881 82.5562 105.837 83.7365 105.837H86.8734L86.4904 107.768H71.4823L71.8653 105.837H75.0022C76.182 105.837 77.3223 104.881 77.5502 103.7L79.5835 93.1364C79.8115 91.9567 79.039 91 77.8587 91H69.5598C68.38 91 67.2397 91.9567 67.0128 93.1364L64.9784 103.7C64.7516 104.881 65.524 105.837 66.7033 105.837H69.8401L69.4571 107.768H54.5712L54.9542 105.837H57.9684C59.1493 105.837 60.2896 104.881 60.5165 103.7L62.5508 93.1364C62.7777 91.9567 62.0052 91 60.826 91H52.5266C51.3462 91 50.2059 91.9567 49.9785 93.1364L47.9447 103.7C47.7178 104.881 48.4897 105.837 49.6695 105.837H52.9284L52.5455 107.768H37.4153L37.7983 105.837H40.9352C42.1155 105.837 43.2558 104.881 43.4827 103.7L45.5171 93.1364C45.7439 91.9567 44.9715 91 43.7922 91H35.4917C34.3119 91 33.1716 91.9567 32.9442 93.1364L30.9104 103.7C30.6835 104.881 31.4554 105.837 32.6352 105.837H35.7721L35.3891 107.768H20.381L20.764 105.837H23.9009C25.0806 105.837 26.221 104.881 26.4479 103.7L28.4822 93.1364C28.7091 91.9567 27.9372 91 26.7574 91H18.4585C17.2782 91 16.1384 91.9567 15.9109 93.1364L13.8771 103.7C13.6497 104.881 14.4222 105.837 15.602 105.837H18.7388L18.3564 107.768H4.97104L3.84042 113.232H9.14075L8.75776 115.163H5.62088C4.44111 115.163 3.30077 116.119 3.07335 117.299L1.03954 127.864C0.812665 129.043 1.58513 130 2.76437 130H11.0633C12.2431 130 13.3834 129.043 13.6108 127.864L15.6441 117.299C15.8715 116.119 15.099 115.163 13.9193 115.163H10.7829L11.1654 113.232H26.174L25.791 115.163H22.6541C21.4743 115.163 20.334 116.119 20.1066 117.299L18.0728 127.864C17.8459 129.043 18.6178 130 19.7976 130H28.0971C29.2768 130 30.4172 129.043 30.6446 127.864L32.6784 117.299C32.9058 116.119 32.1333 115.163 30.9536 115.163H27.8167L28.1997 113.232H43.3298L42.9474 115.163H39.6879C38.5081 115.163 37.3678 116.119 37.1404 117.299L35.1071 127.864C34.8797 129.043 35.6521 130 36.8319 130H45.1308C46.3106 130 47.4509 129.043 47.6784 127.864L49.7122 117.299C49.9396 116.119 49.1671 115.163 47.9873 115.163H44.9725L45.3555 113.232H60.2421L59.8591 115.163H56.7211C55.5413 115.163 54.401 116.119 54.1741 117.299L52.1398 127.864C51.9129 129.043 52.6854 130 53.8646 130H62.1635C63.3444 130 64.4847 129.043 64.7116 127.864L66.7459 117.299C66.9728 116.119 66.2003 115.163 65.0211 115.163H61.8832L62.2662 113.232H77.2753L76.8923 115.163H73.7543C72.5746 115.163 71.4342 116.119 71.2074 117.299L69.173 127.864C68.9461 129.043 69.7186 130 70.8978 130H79.1967C80.3765 130 81.5179 129.043 81.7448 127.864L83.7792 117.299C84.006 116.119 83.2336 115.163 82.0533 115.163H78.9164L79.2994 113.232H92.0116L93.1417 107.768H88.5155L88.8985 105.837H92.0354C93.2152 105.837 94.3555 104.881 94.5824 103.7L96.6168 93.1364C96.8442 91.9567 96.0717 91 94.8919 91Z" fill="#2CA67B"/>
<path d="M30.5 118L28.68 127.1H26.951L23.558 121.406L22.414 127.1H20.334L22.154 118H23.896L27.289 123.707L28.42 118H30.5Z" fill="white"/>
<path d="M41.394 119.69L41.004 121.666H45.229L44.904 123.304H40.666L40.25 125.41H45.216L44.865 127.1H37.819L39.639 118H46.516L46.165 119.69H41.394Z" fill="white"/>
<path d="M58.969 119.716H56.057L56.408 118H64.338L63.987 119.716H61.088L59.606 127.1H57.5L58.969 119.716Z" fill="white"/>
<path fill-rule="evenodd" clip-rule="evenodd" d="M22.0707 95.5061C22.6298 95.5061 22.9901 95.5358 23.1516 95.5942C23.3131 95.653 23.4384 95.7476 23.5281 95.8767C23.6172 96.0063 23.6621 96.1711 23.6621 96.3726C23.6621 96.6735 23.5745 96.9484 23.3995 97.1996C23.2226 97.4521 22.9715 97.6433 22.6811 97.7468C22.377 97.8608 21.7703 97.918 20.8617 97.918H20.3313L20.8385 95.5056L22.0707 95.5061ZM21.1469 99.3042C21.8886 99.3042 22.3942 99.2847 22.6638 99.2475C23.1278 99.1826 23.4968 99.0886 23.7706 98.9649C24.0578 98.8324 24.3178 98.6477 24.5377 98.4204C24.7754 98.1811 24.9758 97.8619 25.1395 97.4627C25.3032 97.0635 25.3847 96.6529 25.3847 96.2305C25.3847 95.7746 25.2826 95.3824 25.0768 95.0529C24.8821 94.7331 24.5891 94.4851 24.2417 94.3458C23.8895 94.2032 23.4114 94.1319 22.8069 94.1319H19.4081L17.6562 102.492H19.3784L20.0455 99.3042H21.1469ZM39.2125 95.5288C39.7186 95.5288 40.047 95.5742 40.1994 95.6655C40.4462 95.8178 40.5699 96.0458 40.5699 96.3504C40.5699 96.6092 40.4841 96.856 40.3128 97.0916C40.1416 97.3276 39.9055 97.5005 39.603 97.6107C39.3005 97.7214 38.6874 97.776 37.7637 97.776H36.8508L37.3186 95.5293L39.2125 95.5288ZM37.2905 99.0303C37.6972 99.0303 37.9824 99.0854 38.1456 99.1961C38.4119 99.3825 38.6631 99.7455 38.8986 100.286C39.3324 101.286 39.623 102.021 39.7715 102.492H41.6195C41.1479 101.299 40.7201 100.374 40.336 99.7207C40.1421 99.3971 39.9352 99.1367 39.7143 98.939C40.5775 98.8288 41.222 98.5425 41.6482 98.0806C42.0738 97.6188 42.2872 97.0321 42.2872 96.3212C42.2872 95.8232 42.1775 95.3991 41.9593 95.0496C41.7405 94.7001 41.4537 94.4592 41.0982 94.328C40.7423 94.1967 40.2453 94.1308 39.6062 94.1308H35.893L34.1422 102.492H35.8644L36.5888 99.0303H37.2905ZM53.676 96.6005C54.2027 95.8173 54.886 95.4256 55.7271 95.4256C56.2737 95.4256 56.7253 95.6131 57.0786 95.988C57.4319 96.3628 57.6091 96.8782 57.6091 97.5361C57.6091 98.1255 57.4686 98.731 57.1894 99.3528C56.9106 99.9745 56.5563 100.439 56.129 100.744C55.7006 101.05 55.2555 101.204 54.7909 101.204C54.22 101.204 53.7603 101.01 53.4108 100.622C53.0607 100.234 52.8852 99.7531 52.8852 99.1788C52.8809 98.2591 53.1568 97.3598 53.676 96.6005ZM51.5174 100.796C51.7378 101.319 52.1121 101.757 52.641 102.11C53.1698 102.464 53.8235 102.641 54.6035 102.641C55.5002 102.641 56.304 102.418 57.0154 101.974C57.7263 101.529 58.2897 100.894 58.7046 100.069C59.1184 99.2442 59.3258 98.3902 59.3258 97.508C59.3258 96.4471 59.0071 95.5952 58.3697 94.953C57.7333 94.3107 56.8977 93.9893 55.8637 93.9893C55.0913 93.9893 54.4036 94.1459 53.7981 94.4598C53.2047 94.7641 52.6904 95.2024 52.2958 95.74C51.8982 96.2802 51.6022 96.9165 51.4088 97.6507C51.2608 98.1979 51.1868 98.7191 51.1868 99.2134C51.1868 99.7455 51.2965 100.273 51.5174 100.796ZM70.3699 102.492H68.6468L70.3986 94.1308H76.251L75.9533 95.5288H71.8236L71.4028 97.5361H75.452L75.1609 98.9331H71.1116L70.3699 102.492ZM89.1258 102.492H87.4026L89.1539 94.1308H90.8706L89.1258 102.492Z" fill="white"/>
<path fill-rule="evenodd" clip-rule="evenodd" d="M240.892 90H232.593C231.413 90 230.273 90.9567 230.046 92.1364L228.012 102.7C227.785 103.881 228.556 104.837 229.736 104.837H232.873L232.49 106.768H217.482L217.865 104.837H221.002C222.182 104.837 223.322 103.881 223.55 102.7L225.584 92.1364C225.811 90.9567 225.039 90 223.859 90H215.56C214.38 90 213.24 90.9567 213.013 92.1364L210.978 102.7C210.752 103.881 211.524 104.837 212.703 104.837H215.84L215.457 106.768H200.571L200.954 104.837H203.968C205.149 104.837 206.29 103.881 206.516 102.7L208.551 92.1364C208.778 90.9567 208.005 90 206.826 90H198.527C197.346 90 196.206 90.9567 195.978 92.1364L193.945 102.7C193.718 103.881 194.49 104.837 195.669 104.837H198.928L198.545 106.768H183.415L183.798 104.837H186.935C188.115 104.837 189.256 103.881 189.483 102.7L191.517 92.1364C191.744 90.9567 190.971 90 189.792 90H181.492C180.312 90 179.172 90.9567 178.944 92.1364L176.91 102.7C176.683 103.881 177.455 104.837 178.635 104.837H181.772L181.389 106.768H166.381L166.764 104.837H169.901C171.081 104.837 172.221 103.881 172.448 102.7L174.482 92.1364C174.709 90.9567 173.937 90 172.757 90H164.458C163.278 90 162.138 90.9567 161.911 92.1364L159.877 102.7C159.65 103.881 160.422 104.837 161.602 104.837H164.739L164.356 106.768H150.971L149.84 112.232H155.141L154.758 114.163H151.621C150.441 114.163 149.301 115.119 149.073 116.299L147.04 126.864C146.813 128.043 147.585 129 148.764 129H157.063C158.243 129 159.383 128.043 159.611 126.864L161.644 116.299C161.872 115.119 161.099 114.163 159.919 114.163H156.783L157.165 112.232H172.174L171.791 114.163H168.654C167.474 114.163 166.334 115.119 166.107 116.299L164.073 126.864C163.846 128.043 164.618 129 165.798 129H174.097C175.277 129 176.417 128.043 176.645 126.864L178.678 116.299C178.906 115.119 178.133 114.163 176.954 114.163H173.817L174.2 112.232H189.33L188.947 114.163H185.688C184.508 114.163 183.368 115.119 183.14 116.299L181.107 126.864C180.88 128.043 181.652 129 182.832 129H191.131C192.311 129 193.451 128.043 193.678 126.864L195.712 116.299C195.94 115.119 195.167 114.163 193.987 114.163H190.973L191.356 112.232H206.242L205.859 114.163H202.721C201.541 114.163 200.401 115.119 200.174 116.299L198.14 126.864C197.913 128.043 198.685 129 199.865 129H208.164C209.344 129 210.485 128.043 210.712 126.864L212.746 116.299C212.973 115.119 212.2 114.163 211.021 114.163H207.883L208.266 112.232H223.275L222.892 114.163H219.754C218.575 114.163 217.434 115.119 217.207 116.299L215.173 126.864C214.946 128.043 215.719 129 216.898 129H225.197C226.377 129 227.518 128.043 227.745 126.864L229.779 116.299C230.006 115.119 229.234 114.163 228.053 114.163H224.916L225.299 112.232H238.012L239.142 106.768H234.516L234.899 104.837H238.035C239.215 104.837 240.356 103.881 240.582 102.7L242.617 92.1364C242.844 90.9567 242.072 90 240.892 90Z" fill="#1E71B8"/>
<path fill-rule="evenodd" clip-rule="evenodd" d="M168.515 108.548C168.749 108.548 168.9 108.56 168.968 108.585C169.032 108.607 169.087 108.648 169.126 108.703C169.166 108.765 169.185 108.838 169.182 108.912C169.182 109.038 169.146 109.153 169.072 109.259C168.999 109.363 168.898 109.44 168.771 109.488C168.643 109.536 168.389 109.56 168.007 109.56H167.785L167.998 108.548H168.515ZM168.128 110.14C168.439 110.14 168.651 110.133 168.764 110.117C168.959 110.089 169.113 110.051 169.228 109.998C169.343 109.946 169.45 109.87 169.55 109.77C169.65 109.669 169.733 109.535 169.803 109.368C169.871 109.2 169.905 109.029 169.905 108.851C169.905 108.66 169.862 108.495 169.776 108.358C169.694 108.223 169.571 108.119 169.425 108.061C169.278 108.001 169.078 107.971 168.824 107.971H167.399L166.665 111.477H167.387L167.667 110.14H168.128V110.14ZM172.05 108.557C172.261 108.557 172.399 108.577 172.463 108.615C172.513 108.644 172.554 108.686 172.581 108.737C172.609 108.787 172.622 108.845 172.619 108.902C172.617 109.015 172.58 109.123 172.512 109.213C172.44 109.311 172.34 109.384 172.213 109.43C172.086 109.477 171.83 109.5 171.442 109.5H171.06L171.256 108.557H172.05ZM171.244 110.026C171.414 110.026 171.534 110.05 171.603 110.095C171.714 110.174 171.82 110.327 171.918 110.552C172.1 110.972 172.222 111.281 172.285 111.478H173.06C172.862 110.978 172.683 110.59 172.521 110.316C172.452 110.194 172.364 110.084 172.261 109.988C172.623 109.942 172.893 109.823 173.071 109.629C173.251 109.435 173.34 109.19 173.34 108.891C173.34 108.682 173.294 108.504 173.202 108.358C173.111 108.211 172.99 108.11 172.841 108.055C172.692 107.999 172.483 107.972 172.216 107.972H170.659L169.925 111.478H170.647L170.95 110.026H171.244V110.026ZM174.693 109.007C174.914 108.678 175.201 108.514 175.553 108.514C175.783 108.514 175.972 108.593 176.12 108.75C176.269 108.907 176.343 109.123 176.343 109.399C176.343 109.647 176.284 109.9 176.167 110.161C176.05 110.422 175.901 110.616 175.722 110.745C175.543 110.872 175.356 110.936 175.161 110.936C174.922 110.936 174.729 110.855 174.583 110.693C174.436 110.53 174.363 110.329 174.363 110.087C174.36 109.702 174.476 109.325 174.693 109.007ZM173.788 110.766C173.88 110.986 174.038 111.169 174.259 111.318C174.481 111.465 174.755 111.539 175.082 111.539C175.458 111.539 175.795 111.446 176.094 111.26C176.392 111.073 176.628 110.807 176.802 110.461C176.972 110.128 177.061 109.76 177.063 109.387C177.063 108.942 176.928 108.585 176.661 108.315C176.394 108.046 176.044 107.911 175.61 107.911C175.286 107.911 174.998 107.977 174.744 108.108C174.495 108.236 174.28 108.42 174.114 108.645C173.94 108.886 173.814 109.158 173.742 109.447C173.679 109.677 173.649 109.895 173.649 110.102C173.649 110.326 173.695 110.546 173.788 110.766ZM179.747 110.215L180.474 110.325C180.332 110.719 180.12 111.019 179.836 111.227C179.552 111.436 179.22 111.539 178.838 111.539C178.409 111.539 178.074 111.411 177.833 111.152C177.591 110.893 177.47 110.519 177.47 110.028C177.47 109.63 177.551 109.265 177.713 108.934C177.875 108.603 178.099 108.35 178.387 108.174C178.668 108.001 178.993 107.91 179.324 107.911C179.704 107.911 180.011 108.013 180.245 108.217C180.48 108.42 180.618 108.697 180.659 109.047L179.968 109.114C179.929 108.91 179.855 108.762 179.746 108.671C179.637 108.579 179.492 108.534 179.309 108.534C179.11 108.534 178.924 108.594 178.751 108.715C178.578 108.836 178.44 109.026 178.336 109.283C178.235 109.528 178.182 109.79 178.18 110.055C178.18 110.336 178.248 110.552 178.383 110.705C178.518 110.859 178.685 110.935 178.887 110.935C179.073 110.935 179.244 110.875 179.4 110.753C179.556 110.632 179.671 110.453 179.747 110.215ZM183.46 111.477H180.721L181.453 107.971H184.053L183.931 108.557H182.053L181.886 109.354H183.701L183.579 109.94H181.763L181.543 110.892H183.584L183.46 111.477ZM184.073 110.342L184.76 110.307C184.769 110.525 184.807 110.672 184.872 110.748C184.977 110.873 185.172 110.935 185.456 110.935C185.692 110.935 185.862 110.893 185.968 110.809C186.072 110.725 186.125 110.622 186.125 110.503C186.125 110.452 186.114 110.402 186.091 110.356C186.069 110.311 186.037 110.271 185.996 110.24C185.936 110.187 185.769 110.102 185.497 109.984C185.226 109.865 185.027 109.766 184.902 109.688C184.78 109.612 184.678 109.506 184.606 109.381C184.532 109.246 184.495 109.093 184.499 108.938C184.499 108.643 184.606 108.398 184.82 108.204C185.033 108.01 185.343 107.912 185.748 107.912C186.159 107.912 186.477 108.009 186.703 108.202C186.928 108.394 187.052 108.651 187.075 108.971L186.384 109.003C186.366 108.835 186.306 108.707 186.202 108.617C186.099 108.528 185.945 108.483 185.743 108.483C185.544 108.483 185.401 108.519 185.316 108.588C185.276 108.62 185.243 108.66 185.221 108.706C185.199 108.752 185.187 108.803 185.188 108.854C185.188 108.955 185.227 109.038 185.305 109.103C185.384 109.17 185.556 109.262 185.824 109.378C186.228 109.552 186.485 109.694 186.594 109.802C186.759 109.96 186.841 110.166 186.841 110.416C186.841 110.725 186.718 110.99 186.474 111.209C186.229 111.429 185.888 111.538 185.451 111.538C185.15 111.538 184.889 111.487 184.668 111.386C184.447 111.285 184.291 111.144 184.2 110.964C184.107 110.771 184.063 110.557 184.073 110.342ZM187.316 110.342L188.003 110.307C188.012 110.525 188.05 110.672 188.115 110.748C188.22 110.873 188.415 110.935 188.699 110.935C188.935 110.935 189.106 110.893 189.21 110.809C189.316 110.725 189.369 110.622 189.369 110.503C189.369 110.452 189.357 110.402 189.335 110.356C189.312 110.311 189.28 110.271 189.24 110.24C189.179 110.187 189.013 110.102 188.741 109.984C188.469 109.866 188.27 109.767 188.145 109.689C188.023 109.612 187.921 109.507 187.85 109.382C187.776 109.246 187.738 109.093 187.742 108.939C187.742 108.644 187.849 108.399 188.062 108.205C188.276 108.01 188.585 107.913 188.991 107.913C189.402 107.913 189.72 108.009 189.946 108.202C190.171 108.395 190.295 108.651 190.318 108.972L189.626 109.003C189.609 108.835 189.548 108.707 189.444 108.618C189.341 108.529 189.188 108.484 188.985 108.484C188.786 108.484 188.643 108.519 188.558 108.589C188.517 108.62 188.485 108.66 188.462 108.707C188.44 108.753 188.429 108.803 188.43 108.855C188.43 108.956 188.469 109.038 188.547 109.104C188.625 109.171 188.798 109.262 189.066 109.379C189.47 109.553 189.726 109.694 189.836 109.803C190.001 109.961 190.083 110.167 190.083 110.417C190.083 110.726 189.96 110.991 189.715 111.209C189.471 111.43 189.13 111.538 188.693 111.538C188.391 111.538 188.131 111.487 187.91 111.386C187.689 111.285 187.533 111.145 187.442 110.965C187.349 110.771 187.306 110.557 187.316 110.342ZM192.498 111.477H191.776L192.51 107.971H194.964L194.84 108.557H193.108L192.931 109.399H194.629L194.507 109.985H192.809L192.498 111.477ZM195.444 111.477H194.722L195.456 107.971H196.176L195.444 111.477ZM198.827 111.477H196.089L196.821 107.971H199.422L199.299 108.557H197.421L197.254 109.354H199.069L198.948 109.94H197.132L196.912 110.892H198.952L198.827 111.477ZM201.858 111.477H199.352L200.085 107.971H200.806L200.196 110.892H201.98L201.858 111.477ZM204.063 108.55C204.275 108.55 204.422 108.565 204.505 108.594C204.623 108.635 204.722 108.718 204.803 108.843C204.883 108.969 204.924 109.155 204.924 109.404C204.924 109.696 204.875 109.95 204.778 110.165C204.68 110.38 204.561 110.552 204.42 110.682C204.321 110.77 204.212 110.831 204.093 110.864C203.974 110.897 203.783 110.914 203.518 110.914H203.152L203.645 108.55H204.063ZM204.239 111.425C204.504 111.361 204.72 111.263 204.888 111.129C205.106 110.956 205.287 110.724 205.431 110.431C205.576 110.139 205.648 109.804 205.648 109.426C205.648 109.25 205.629 109.088 205.593 108.942C205.561 108.804 205.508 108.672 205.436 108.55C205.372 108.441 205.29 108.343 205.195 108.259C205.102 108.18 204.997 108.116 204.883 108.072C204.759 108.025 204.628 107.995 204.495 107.983C204.327 107.973 204.159 107.969 203.99 107.971H203.045L202.311 111.477H203.548C203.859 111.477 204.09 111.46 204.239 111.425ZM209.036 108.557C209.238 108.557 209.364 108.562 209.416 108.572C209.5 108.585 209.576 108.625 209.634 108.687C209.687 108.748 209.714 108.827 209.711 108.907C209.711 109.004 209.679 109.098 209.62 109.175C209.562 109.253 209.479 109.308 209.386 109.334C209.277 109.369 209.1 109.387 208.853 109.387H208.302L208.477 108.557H209.036ZM209.661 111.354C209.871 111.271 210.036 111.135 210.156 110.946C210.275 110.757 210.335 110.557 210.335 110.347C210.335 110.187 210.284 110.044 210.183 109.917C210.082 109.791 209.942 109.703 209.761 109.654C209.988 109.58 210.155 109.472 210.264 109.329C210.372 109.186 210.426 109.018 210.426 108.823C210.426 108.678 210.395 108.546 210.333 108.426C210.271 108.307 210.176 108.207 210.06 108.139C209.926 108.063 209.777 108.014 209.623 107.996C209.519 107.98 209.337 107.972 209.077 107.972H207.879L207.145 111.478H208.798C209.162 111.477 209.45 111.436 209.661 111.354ZM209.036 109.997C209.238 109.997 209.38 110.035 209.467 110.111C209.553 110.187 209.597 110.283 209.597 110.399C209.596 110.497 209.564 110.592 209.507 110.671C209.448 110.756 209.365 110.821 209.268 110.857C209.167 110.895 208.972 110.914 208.68 110.914H207.985L208.176 109.997H209.036ZM211.009 109.818L211.396 107.972H212.117L211.719 109.876L211.621 110.344C211.615 110.381 211.612 110.419 211.611 110.456C211.611 110.596 211.662 110.711 211.763 110.8C211.864 110.89 212.012 110.935 212.204 110.935C212.378 110.935 212.522 110.902 212.636 110.837C212.749 110.772 212.836 110.674 212.898 110.546C212.959 110.416 213.022 110.197 213.087 109.887L213.489 107.972H214.209L213.809 109.89C213.725 110.294 213.627 110.602 213.518 110.816C213.408 111.029 213.241 111.203 213.018 111.337C212.794 111.471 212.512 111.538 212.171 111.538C211.763 111.538 211.45 111.437 211.234 111.238C211.017 111.037 210.908 110.781 210.908 110.467C210.908 110.401 210.914 110.329 210.925 110.253C210.931 110.202 210.959 110.057 211.009 109.818ZM214.285 110.342L214.972 110.307C214.982 110.525 215.018 110.672 215.084 110.748C215.189 110.873 215.384 110.935 215.667 110.935C215.904 110.935 216.074 110.893 216.179 110.809C216.284 110.725 216.337 110.622 216.337 110.503C216.337 110.452 216.326 110.402 216.303 110.357C216.281 110.311 216.249 110.271 216.208 110.24C216.147 110.187 215.982 110.102 215.709 109.984C215.437 109.866 215.239 109.767 215.114 109.689C214.992 109.612 214.89 109.507 214.819 109.382C214.744 109.246 214.707 109.093 214.71 108.939C214.71 108.644 214.817 108.399 215.031 108.205C215.245 108.01 215.554 107.913 215.959 107.913C216.371 107.913 216.69 108.009 216.916 108.202C217.14 108.395 217.264 108.651 217.287 108.972L216.596 109.003C216.58 108.835 216.518 108.707 216.415 108.618C216.312 108.529 216.157 108.484 215.955 108.484C215.756 108.484 215.613 108.519 215.528 108.589C215.488 108.62 215.455 108.661 215.433 108.707C215.411 108.753 215.4 108.803 215.401 108.855C215.401 108.956 215.439 109.038 215.518 109.104C215.595 109.171 215.769 109.262 216.037 109.379C216.44 109.553 216.697 109.694 216.806 109.803C216.971 109.961 217.053 110.167 217.053 110.417C217.053 110.726 216.931 110.991 216.686 111.209C216.441 111.43 216.1 111.538 215.663 111.538C215.361 111.538 215.101 111.487 214.88 111.386C214.659 111.285 214.503 111.145 214.412 110.965C214.322 110.784 214.279 110.576 214.285 110.342ZM168.071 94.5061C168.63 94.5061 168.99 94.5358 169.152 94.5942C169.313 94.653 169.438 94.7476 169.528 94.8767C169.617 95.0063 169.662 95.1711 169.662 95.3726C169.662 95.6735 169.575 95.9484 169.4 96.1996C169.223 96.4521 168.972 96.6433 168.681 96.7468C168.377 96.8608 167.77 96.918 166.862 96.918H166.331L166.838 94.5056H168.071V94.5061ZM167.147 98.3042C167.889 98.3042 168.394 98.2847 168.664 98.2475C169.128 98.1826 169.497 98.0886 169.771 97.9649C170.058 97.8324 170.318 97.6477 170.538 97.4204C170.775 97.1811 170.976 96.8619 171.139 96.4627C171.303 96.0635 171.385 95.6529 171.385 95.2305C171.385 94.7746 171.283 94.3824 171.077 94.0529C170.882 93.7331 170.589 93.4851 170.242 93.3458C169.889 93.2032 169.411 93.1319 168.807 93.1319H165.408L163.656 101.492H165.378L166.046 98.3042H167.147ZM185.212 94.5288C185.719 94.5288 186.047 94.5742 186.199 94.6655C186.446 94.8178 186.57 95.0458 186.57 95.3504C186.57 95.6092 186.484 95.856 186.313 96.0916C186.142 96.3276 185.906 96.5005 185.603 96.6107C185.301 96.7214 184.687 96.776 183.764 96.776H182.851L183.319 94.5293H185.212V94.5288ZM183.29 98.0303C183.697 98.0303 183.982 98.0854 184.146 98.1961C184.412 98.3825 184.663 98.7455 184.899 99.2857C185.332 100.286 185.623 101.021 185.772 101.492H187.62C187.148 100.299 186.72 99.3743 186.336 98.7207C186.142 98.3971 185.935 98.1367 185.714 97.939C186.578 97.8288 187.222 97.5425 187.648 97.0806C188.074 96.6188 188.287 96.0321 188.287 95.3212C188.287 94.8232 188.178 94.3991 187.959 94.0496C187.741 93.7001 187.454 93.4592 187.098 93.328C186.742 93.1967 186.245 93.1308 185.606 93.1308H181.893L180.142 101.492H181.864L182.589 98.0303H183.29ZM199.676 95.6005C200.203 94.8173 200.886 94.4256 201.727 94.4256C202.274 94.4256 202.725 94.6131 203.079 94.988C203.432 95.3628 203.609 95.8782 203.609 96.5361C203.609 97.1255 203.469 97.731 203.189 98.3528C202.911 98.9745 202.556 99.4386 202.129 99.7443C201.701 100.05 201.255 100.204 200.791 100.204C200.22 100.204 199.76 100.01 199.411 99.6222C199.061 99.2344 198.885 98.7531 198.885 98.1788C198.881 97.2591 199.157 96.3598 199.676 95.6005ZM197.517 99.7962C197.738 100.319 198.112 100.757 198.641 101.11C199.17 101.464 199.823 101.641 200.603 101.641C201.5 101.641 202.304 101.418 203.015 100.974C203.726 100.529 204.29 99.8939 204.705 99.0691C205.118 98.2442 205.326 97.3902 205.326 96.508C205.326 95.4471 205.007 94.5952 204.37 93.953C203.733 93.3107 202.898 92.9893 201.864 92.9893C201.091 92.9893 200.404 93.1459 199.798 93.4598C199.205 93.7641 198.69 94.2024 198.296 94.74C197.898 95.2802 197.602 95.9165 197.409 96.6507C197.261 97.1979 197.187 97.7191 197.187 98.2134C197.187 98.7455 197.296 99.2733 197.517 99.7962ZM216.37 101.492H214.647L216.399 93.1308H222.251L221.953 94.5288H217.824L217.403 96.5361H221.452L221.161 97.9331H217.112L216.37 101.492ZM235.126 101.492H233.403L235.154 93.1308H236.871L235.126 101.492ZM171.89 119.115C172.369 119.115 172.672 119.126 172.797 119.148C173.022 119.195 173.194 119.286 173.316 119.423C173.438 119.56 173.498 119.735 173.498 119.948C173.498 120.165 173.434 120.368 173.305 120.558C173.175 120.748 172.981 120.885 172.722 120.969C172.463 121.053 172.04 121.094 171.451 121.094H170.139L170.556 119.115H171.89ZM173.379 125.782C173.868 125.595 174.282 125.254 174.559 124.81C174.845 124.359 174.987 123.883 174.987 123.381C174.987 123 174.866 122.659 174.625 122.357C174.384 122.054 174.048 121.845 173.618 121.726C174.159 121.551 174.558 121.294 174.817 120.954C175.075 120.613 175.204 120.211 175.204 119.747C175.208 119.418 175.132 119.093 174.982 118.801C174.834 118.515 174.617 118.287 174.331 118.116C174.046 117.944 173.698 117.831 173.288 117.774C173.04 117.736 172.607 117.717 171.988 117.717H169.13L167.379 126.079H171.319C172.191 126.079 172.877 125.98 173.379 125.782ZM171.89 122.549C172.369 122.549 172.712 122.639 172.917 122.819C173.123 123.001 173.225 123.23 173.225 123.507C173.225 123.735 173.154 123.952 173.011 124.157C172.872 124.36 172.673 124.514 172.441 124.598C172.204 124.688 171.737 124.732 171.041 124.732H169.381L169.838 122.548H171.89V122.549ZM184.891 122.121L185.815 117.718H187.532L186.585 122.258L186.351 123.375C186.337 123.463 186.329 123.553 186.328 123.643C186.328 123.974 186.449 124.246 186.69 124.462C186.932 124.677 187.282 124.785 187.743 124.785C188.158 124.785 188.499 124.706 188.77 124.55C189.039 124.394 189.249 124.162 189.397 123.855C189.545 123.547 189.695 123.024 189.848 122.286L190.806 117.718H192.522L191.569 122.292C191.368 123.254 191.136 123.99 190.874 124.499C190.612 125.009 190.214 125.423 189.682 125.743C189.149 126.063 188.476 126.222 187.663 126.222C186.689 126.222 185.943 125.984 185.427 125.507C184.909 125.029 184.651 124.416 184.651 123.667C184.651 123.512 184.664 123.342 184.691 123.16C184.706 123.037 184.773 122.692 184.891 122.121ZM202.219 123.37L203.855 123.285C203.878 123.806 203.968 124.157 204.124 124.34C204.374 124.636 204.838 124.785 205.515 124.785C206.078 124.785 206.485 124.683 206.736 124.482C206.987 124.28 207.112 124.037 207.112 123.751C207.112 123.505 207.01 123.295 206.804 123.124C206.659 122.998 206.264 122.796 205.615 122.514C204.967 122.233 204.493 121.998 204.196 121.81C203.903 121.628 203.661 121.376 203.49 121.077C203.32 120.776 203.233 120.425 203.233 120.022C203.233 119.318 203.489 118.735 203.998 118.271C204.506 117.808 205.245 117.575 206.211 117.575C207.192 117.575 207.952 117.806 208.49 118.265C209.028 118.725 209.323 119.337 209.377 120.102L207.728 120.175C207.686 119.776 207.542 119.47 207.294 119.257C207.047 119.045 206.682 118.937 206.199 118.937C205.724 118.937 205.385 119.021 205.181 119.189C204.978 119.356 204.876 119.567 204.876 119.823C204.876 120.061 204.969 120.26 205.156 120.416C205.343 120.575 205.755 120.793 206.394 121.071C207.356 121.486 207.968 121.822 208.23 122.081C208.622 122.461 208.818 122.95 208.818 123.547C208.818 124.285 208.526 124.914 207.942 125.438C207.359 125.96 206.546 126.222 205.504 126.222C204.786 126.222 204.163 126.1 203.636 125.86C203.109 125.618 202.738 125.283 202.522 124.852C202.304 124.424 202.202 123.929 202.219 123.37Z" fill="white"/>
<path fill-rule="evenodd" clip-rule="evenodd" d="M245.943 90.0137C247.096 90.0137 248.062 90.9239 248.062 92.1161C248.065 92.3954 248.012 92.6724 247.906 92.931C247.8 93.1897 247.644 93.4247 247.447 93.6225C247.25 93.8203 247.015 93.9769 246.757 94.0832C246.499 94.1895 246.222 94.2434 245.943 94.2417C244.784 94.2417 243.812 93.3315 243.812 92.1161C243.812 90.9239 244.784 90.0137 245.943 90.0137ZM245.943 93.9306C246.921 93.9306 247.677 93.1506 247.677 92.1161C247.677 91.1049 246.921 90.3248 245.943 90.3248C244.954 90.3248 244.197 91.1049 244.197 92.1161C244.197 93.1506 244.954 93.9306 245.943 93.9306ZM245.118 90.8899H246.073C246.66 90.8899 246.937 91.1216 246.937 91.5964C246.937 92.0426 246.656 92.229 246.287 92.269L246.994 93.3602H246.582L245.91 92.2971H245.502V93.3602H245.118V90.8899H245.118ZM245.502 91.9864H245.903C246.242 91.9864 246.552 91.9697 246.552 91.5797C246.552 91.2518 246.27 91.201 246.01 91.201H245.502V91.9864Z" fill="#1E71B8"/>
<path fill-rule="evenodd" clip-rule="evenodd" d="M391.737 108.949L391.737 108.949C392.137 109.218 392.523 109.477 392.867 109.786C395.276 111.866 394.864 115.472 392.064 116.978C391.711 117.156 391.359 117.334 390.987 117.433C388.245 118.166 385.503 118.047 382.8 117.215C382.311 117.077 382.056 116.839 382.056 116.245C382.076 111.569 382.076 106.874 382.076 102.199C382.076 101.446 382.409 100.891 383.114 100.693C385.699 99.9207 388.323 99.6433 390.889 100.614C391.809 100.971 392.749 101.664 393.317 102.476C394.669 104.358 393.944 106.953 391.927 108.083C391.653 108.221 391.378 108.36 391.085 108.499C391.303 108.658 391.522 108.805 391.737 108.949ZM387.364 115.412C389.655 115.373 390.634 114.204 390.301 111.965C390.086 110.46 389.048 109.747 387.148 109.628C386.345 109.588 385.934 109.925 385.914 110.658C385.856 111.807 385.856 112.976 385.934 114.125C385.973 114.996 386.463 115.531 387.364 115.412ZM385.929 104.04V104.041V104.041V104.041V104.042V104.042V104.042C385.925 105.006 385.921 105.906 385.934 106.815C385.934 107.27 386.091 107.746 386.678 107.568C386.788 107.533 386.898 107.499 387.01 107.465C387.733 107.243 388.479 107.014 389.107 106.636C389.968 106.121 390.184 105.21 389.968 104.2C389.753 103.209 389.165 102.595 388.206 102.476C387.708 102.408 387.201 102.424 386.673 102.441C386.431 102.449 386.186 102.456 385.934 102.456C385.934 103.007 385.932 103.53 385.929 104.036V104.037V104.038V104.039V104.04ZM369.943 121.478L369.944 121.478C370.03 121.248 370.109 121.038 370.188 120.821C370.482 120.048 370.971 119.83 371.813 120.029C372.695 120.227 373.615 120.346 374.497 120.266C375.025 120.207 375.652 119.791 376.005 119.335C376.194 119.102 376.215 118.727 376.236 118.354C376.245 118.188 376.255 118.022 376.279 117.869C376.175 117.853 376.07 117.834 375.964 117.814L375.964 117.814C375.671 117.758 375.372 117.701 375.084 117.731C371.265 118.008 368.817 115.512 368.993 111.431C369.032 110.579 369.15 109.707 369.365 108.895C369.973 106.716 371.402 105.329 373.635 104.893C375.417 104.537 377.199 104.675 378.942 105.19C379.647 105.408 379.98 105.745 379.961 106.577C379.919 109.139 379.927 111.711 379.935 114.279V114.279V114.279V114.279V114.28V114.28V114.28C379.938 115.306 379.941 116.331 379.941 117.354C379.941 121.039 378.276 122.861 374.634 123C372.989 123.04 371.343 122.861 369.738 122.029C369.812 121.828 369.88 121.648 369.943 121.479L369.943 121.478ZM376.377 110.995C376.377 110.684 376.373 110.372 376.37 110.061C376.362 109.283 376.354 108.504 376.396 107.726C376.416 107.132 376.161 106.914 375.632 106.855C374.477 106.716 373.341 107.251 373.145 108.42C372.871 110.004 372.871 111.669 372.871 113.293C372.871 113.828 373.204 114.442 373.537 114.898C374.046 115.591 374.927 115.849 375.632 115.512C376.044 115.294 376.279 114.462 376.357 113.867C376.425 113.208 376.408 112.54 376.391 111.875V111.875V111.875V111.875V111.875V111.875V111.875V111.875V111.875V111.875V111.874C376.384 111.58 376.377 111.287 376.377 110.995ZM353.443 117.691H356.968C357.3 117.691 357.633 117.692 357.967 117.693H357.967H357.968H357.968H357.968H357.968H357.968H357.968H357.968C358.973 117.697 359.984 117.701 360.983 117.671C361.904 117.651 362.315 117.116 362.295 116.185C362.256 115.314 361.864 114.818 360.963 114.818H358.613C357.223 114.818 357.066 114.581 357.536 113.233C358.907 109.371 360.277 105.489 361.648 101.607L361.649 101.605C362.021 100.535 361.825 100.119 360.885 100.119C358.398 100.099 355.93 100.099 353.443 100.119C352.601 100.139 352.248 100.614 352.248 101.466C352.248 102.298 352.483 102.912 353.423 102.932C353.88 102.945 354.337 102.941 354.794 102.936C355.023 102.934 355.251 102.932 355.48 102.932C356.733 102.932 356.929 103.229 356.498 104.418C355.793 106.349 355.083 108.281 354.373 110.212C353.663 112.144 352.953 114.075 352.248 116.007C351.739 117.394 351.955 117.691 353.443 117.691ZM410.806 112.619C411.139 115.294 412.863 115.868 417.015 114.699C417.072 114.857 417.133 115.014 417.194 115.173C417.279 115.394 417.366 115.618 417.446 115.848C417.681 116.621 417.426 117.156 416.662 117.374C414.88 117.889 413.078 118.107 411.257 117.572C409.181 116.977 407.888 115.512 407.516 113.412C407.281 112.084 407.222 110.638 407.438 109.311C407.986 106.022 410.924 104.101 414.175 104.715C415.526 104.972 416.564 105.745 417.073 106.993C417.459 107.908 417.658 108.91 417.854 109.9L417.854 109.9C417.888 110.067 417.921 110.234 417.955 110.4C418.111 111.153 417.72 111.549 416.956 111.648C415.382 111.852 413.826 112.09 412.255 112.331L412.254 112.331L411.923 112.381C411.551 112.481 411.178 112.56 410.806 112.619ZM411.516 110.585L411.516 110.585C412.422 110.44 413.22 110.311 414.018 110.242C414.762 110.182 414.9 109.846 414.762 109.212C414.749 109.145 414.737 109.08 414.725 109.015C414.683 108.789 414.643 108.571 414.567 108.34C414.312 107.508 413.783 106.973 412.902 106.914C412.06 106.854 411.296 107.171 410.983 107.984C410.778 108.55 410.649 109.155 410.504 109.838L410.504 109.838C410.441 110.135 410.374 110.447 410.297 110.777C410.728 110.712 411.132 110.647 411.516 110.585ZM405.127 114.739C400.857 115.829 399.251 115.294 398.918 112.599L399.735 112.475C401.53 112.2 403.299 111.929 405.068 111.688C405.93 111.569 406.263 111.133 406.126 110.282C406.096 110.103 406.072 109.925 406.047 109.747C406.023 109.568 405.998 109.39 405.969 109.212C405.323 105.23 401.895 103.506 398.35 105.369C396.039 106.597 395.413 108.736 395.354 111.173C395.276 114.323 396.647 116.68 399.056 117.512C400.994 118.186 402.914 117.948 404.833 117.394C405.518 117.195 405.734 116.661 405.577 116.007C405.506 115.689 405.382 115.381 405.26 115.076L405.26 115.076L405.26 115.076L405.259 115.076L405.259 115.076C405.214 114.964 405.169 114.851 405.127 114.739ZM402.463 110.163C401.229 110.361 399.976 110.539 398.409 110.757C398.476 110.464 398.532 110.185 398.585 109.919L398.585 109.919L398.585 109.919C398.719 109.25 398.837 108.661 399.075 108.122C399.506 107.052 400.661 106.636 401.66 107.052C402.424 107.369 403.168 109.034 402.874 109.826C402.816 109.965 402.62 110.143 402.463 110.163ZM363.901 111.312V106.26C363.901 105.23 364.234 104.933 365.253 104.913H365.351C367.485 104.893 367.564 104.972 367.564 107.092V115.789C367.564 117.453 367.348 117.671 365.703 117.671C364.117 117.671 363.901 117.453 363.901 115.848V111.312ZM363.764 101.842C363.784 102.793 364.626 103.526 365.703 103.526C366.859 103.526 367.681 102.813 367.662 101.763C367.642 100.793 366.839 100.079 365.742 100.079C364.646 100.079 363.745 100.872 363.764 101.842Z" fill="black"/>
<path d="M300 109.5C300 121.928 310.072 132 322.5 132C334.928 132 345 121.928 345 109.5C345 97.0723 334.928 87 322.5 87C310.072 87 300 97.0723 300 109.5Z" fill="url(#paint1_radial)"/>
<path d="M307.359 97.6059C307.359 102.635 314.101 101.259 322.412 101.259C330.724 101.259 337.465 102.635 337.465 97.6059C337.465 92.594 330.724 88.5176 322.412 88.5176C314.1 88.5001 307.359 92.5764 307.359 97.6059Z" fill="url(#paint2_linear)"/>
<path d="M315.742 122.453C315.706 122.4 320.877 116.7 326.93 110.753C332.93 104.806 338.03 99.5465 338.047 99.5465C337.853 95.4174 334.818 93.4231 332.083 93.0878C330.354 92.7348 317.559 92.276 310.289 93.4054C308.931 93.5689 307.574 93.7478 306.202 93.9697C306.148 93.9784 305.61 94.5381 305.131 95.1164C304.64 95.7095 304.209 96.3213 304.253 96.3149C308.394 95.7304 312.56 95.3423 316.737 95.152C321.01 94.9579 325.289 94.9757 329.559 95.2054C329.648 95.2761 324.777 100.676 318.777 106.553C312.812 112.411 307.412 117.829 306.883 118.464C306.848 122.77 310.5 124.429 312.459 124.817C321.548 125.7 330.723 125.384 339.811 123.919C339.811 123.919 340.618 123.01 340.716 122.844C340.813 122.677 341.512 121.631 341.49 121.634C332.772 122.877 324.06 123.263 315.442 122.788C315.63 122.63 315.636 122.576 315.742 122.453Z" fill="white"/>
<path d="M90.9292 65.1729H92.2892L89.1292 58.1729H87.8492L84.6992 65.1729H86.0392L86.7292 63.5529H90.2292L90.9292 65.1729ZM87.1692 62.5329L88.4792 59.4729L89.7992 62.5329H87.1692ZM101.598 58.1729L99.8084 63.5229L98.0384 58.1729H96.8384L95.0284 63.4929L93.2884 58.1729H91.9384L94.2584 65.1729H95.6484L97.4084 59.9929L99.1384 65.1729H100.518L102.838 58.1729H101.598ZM105.867 65.2729C107.787 65.2729 108.697 64.3129 108.697 63.1929C108.697 60.6229 104.547 61.5929 104.547 60.1029C104.547 59.5729 104.987 59.1529 106.067 59.1529C106.677 59.1529 107.367 59.3329 107.997 59.7029L108.407 58.6929C107.797 58.2929 106.917 58.0729 106.077 58.0729C104.157 58.0729 103.257 59.0329 103.257 60.1629C103.257 62.7629 107.417 61.7729 107.417 63.2829C107.417 63.8029 106.957 64.1929 105.867 64.1929C105.007 64.1929 104.117 63.8729 103.557 63.4229L103.107 64.4329C103.687 64.9329 104.777 65.2729 105.867 65.2729ZM117.13 63.7729C116.68 64.0329 116.19 64.1329 115.69 64.1329C114.21 64.1329 113.16 63.0929 113.16 61.6729C113.16 60.2229 114.21 59.2129 115.7 59.2129C116.45 59.2129 117.08 59.4629 117.63 60.0129L118.45 59.2129C117.79 58.4629 116.81 58.0729 115.64 58.0729C113.45 58.0729 111.85 59.5829 111.85 61.6729C111.85 63.7629 113.45 65.2729 115.62 65.2729C116.61 65.2729 117.63 64.9729 118.36 64.3829V61.5929H117.13V63.7729ZM125.855 65.1729L124.245 62.8729C125.195 62.5029 125.735 61.7229 125.735 60.6629C125.735 59.1129 124.595 58.1729 122.755 58.1729H119.875V65.1729H121.175V63.1329H122.755C122.845 63.1329 122.935 63.1329 123.025 63.1229L124.455 65.1729H125.855ZM124.425 60.6629C124.425 61.5429 123.835 62.0629 122.695 62.0629H121.175V59.2729H122.695C123.835 59.2729 124.425 59.7829 124.425 60.6629ZM128.289 64.0829V62.1529H131.669V61.0829H128.289V59.2629H132.099V58.1729H126.989V65.1729H132.239V64.0829H128.289ZM134.788 64.0829V62.1529H138.168V61.0829H134.788V59.2629H138.598V58.1729H133.488V65.1729H138.738V64.0829H134.788ZM144.918 58.1729V62.9129L141.058 58.1729H139.988V65.1729H141.278V60.4329L145.138 65.1729H146.208V58.1729H144.918ZM152.663 63.7729C152.213 64.0329 151.723 64.1329 151.223 64.1329C149.743 64.1329 148.693 63.0929 148.693 61.6729C148.693 60.2229 149.743 59.2129 151.233 59.2129C151.983 59.2129 152.613 59.4629 153.163 60.0129L153.983 59.2129C153.323 58.4629 152.343 58.0729 151.173 58.0729C148.983 58.0729 147.383 59.5829 147.383 61.6729C147.383 63.7629 148.983 65.2729 151.153 65.2729C152.143 65.2729 153.163 64.9729 153.893 64.3829V61.5929H152.663V63.7729ZM161.388 65.1729L159.778 62.8729C160.728 62.5029 161.268 61.7229 161.268 60.6629C161.268 59.1129 160.128 58.1729 158.288 58.1729H155.408V65.1729H156.708V63.1329H158.288C158.378 63.1329 158.468 63.1329 158.558 63.1229L159.988 65.1729H161.388ZM159.958 60.6629C159.958 61.5429 159.368 62.0629 158.228 62.0629H156.708V59.2729H158.228C159.368 59.2729 159.958 59.7829 159.958 60.6629ZM167.762 65.1729H169.122L165.962 58.1729H164.682L161.532 65.1729H162.872L163.562 63.5529H167.062L167.762 65.1729ZM164.002 62.5329L165.312 59.4729L166.632 62.5329H164.002ZM171.983 65.2729C173.903 65.2729 174.813 64.3129 174.813 63.1929C174.813 60.6229 170.663 61.5929 170.663 60.1029C170.663 59.5729 171.103 59.1529 172.183 59.1529C172.793 59.1529 173.483 59.3329 174.113 59.7029L174.523 58.6929C173.913 58.2929 173.033 58.0729 172.193 58.0729C170.273 58.0729 169.373 59.0329 169.373 60.1629C169.373 62.7629 173.533 61.7729 173.533 63.2829C173.533 63.8029 173.073 64.1929 171.983 64.1929C171.123 64.1929 170.233 63.8729 169.673 63.4229L169.223 64.4329C169.803 64.9329 170.893 65.2729 171.983 65.2729ZM178.072 65.2729C179.992 65.2729 180.902 64.3129 180.902 63.1929C180.902 60.6229 176.752 61.5929 176.752 60.1029C176.752 59.5729 177.192 59.1529 178.272 59.1529C178.882 59.1529 179.572 59.3329 180.202 59.7029L180.612 58.6929C180.002 58.2929 179.122 58.0729 178.282 58.0729C176.362 58.0729 175.462 59.0329 175.462 60.1629C175.462 62.7629 179.622 61.7729 179.622 63.2829C179.622 63.8029 179.162 64.1929 178.072 64.1929C177.212 64.1929 176.322 63.8729 175.762 63.4229L175.312 64.4329C175.892 64.9329 176.982 65.2729 178.072 65.2729Z" fill="#044851"/>
<path d="M130.15 3.81166C132.024 2.72945 134.334 2.72945 136.208 3.81166L152.329 13.119C154.203 14.2012 155.358 16.2012 155.358 18.3656V36.9802C155.358 39.1446 154.203 41.1447 152.329 42.2269L136.208 51.5342C134.334 52.6164 132.024 52.6164 130.15 51.5342L114.029 42.2269C112.155 41.1447 111 39.1446 111 36.9802V18.3656C111 16.2012 112.155 14.2012 114.029 13.119L130.15 3.81166Z" fill="#044851"/>
<path fill-rule="evenodd" clip-rule="evenodd" d="M151.044 15.3448L134.923 6.03751C133.844 5.41442 132.514 5.41442 131.435 6.03751L115.314 15.3448C114.235 15.9679 113.57 17.1194 113.57 18.3656V36.9802C113.57 38.2264 114.235 39.3779 115.314 40.001L131.435 49.3083C132.514 49.9314 133.844 49.9314 134.923 49.3083L151.044 40.001C152.123 39.3779 152.788 38.2264 152.788 36.9802V18.3656C152.788 17.1194 152.123 15.9679 151.044 15.3448ZM136.208 3.81166C134.334 2.72945 132.024 2.72945 130.15 3.81166L114.029 13.119C112.155 14.2012 111 16.2012 111 18.3656V36.9802C111 39.1446 112.155 41.1447 114.029 42.2269L130.15 51.5342C132.024 52.6164 134.334 52.6164 136.208 51.5342L152.329 42.2269C154.203 41.1447 155.358 39.1446 155.358 36.9802V18.3656C155.358 16.2012 154.203 14.2012 152.329 13.119L136.208 3.81166Z" fill="#00A9E0"/>
<path d="M119.591 36.5047H118.499L118.291 37.1275H117.629L118.754 34.105H119.331L120.463 37.1275H119.8L119.591 36.5047ZM118.667 36.0003H119.422L119.043 34.8689L118.667 36.0003Z" fill="white"/>
<path d="M123.058 36.2556L123.465 34.105H124.086L123.415 37.1275H122.789L122.297 35.1056L121.805 37.1275H121.178L120.507 34.105H121.128L121.537 36.2515L122.035 34.105H122.562L123.058 36.2556Z" fill="white"/>
<path d="M126.034 36.3345C126.034 36.2169 125.993 36.1269 125.91 36.0646C125.827 36.001 125.677 35.9346 125.461 35.8654C125.245 35.7948 125.074 35.7256 124.948 35.6578C124.605 35.4723 124.434 35.2225 124.434 34.9084C124.434 34.7451 124.479 34.5998 124.571 34.4724C124.663 34.3437 124.796 34.2434 124.967 34.1714C125.14 34.0995 125.334 34.0635 125.548 34.0635C125.764 34.0635 125.957 34.1029 126.125 34.1818C126.294 34.2593 126.425 34.3693 126.518 34.5119C126.612 34.6544 126.659 34.8163 126.659 34.9976H126.036C126.036 34.8592 125.993 34.752 125.905 34.6759C125.818 34.5984 125.696 34.5596 125.538 34.5596C125.386 34.5596 125.267 34.5921 125.183 34.6572C125.099 34.7208 125.056 34.8053 125.056 34.9104C125.056 35.0087 125.106 35.091 125.204 35.1575C125.303 35.2239 125.449 35.2862 125.642 35.3443C125.996 35.4509 126.254 35.583 126.416 35.7408C126.578 35.8986 126.659 36.0951 126.659 36.3304C126.659 36.5919 126.56 36.7974 126.362 36.9469C126.164 37.095 125.898 37.169 125.563 37.169C125.33 37.169 125.119 37.1268 124.928 37.0424C124.737 36.9566 124.591 36.8396 124.49 36.6916C124.39 36.5435 124.34 36.3719 124.34 36.1767H124.965C124.965 36.5103 125.164 36.677 125.563 36.677C125.711 36.677 125.827 36.6473 125.91 36.5878C125.993 36.5269 126.034 36.4425 126.034 36.3345Z" fill="white"/>
<path d="M130.52 36.7684C130.432 36.8943 130.292 36.9926 130.103 37.0632C129.915 37.1337 129.704 37.169 129.47 37.169C129.233 37.169 129.023 37.1123 128.839 36.9988C128.655 36.8853 128.512 36.7248 128.411 36.5172C128.31 36.3096 128.259 36.0716 128.257 35.8031V35.4211C128.257 35.0018 128.363 34.671 128.575 34.4288C128.787 34.1853 129.071 34.0635 129.428 34.0635C129.74 34.0635 129.99 34.1431 130.18 34.3022C130.369 34.46 130.482 34.6779 130.518 34.9561H130.263C130.225 34.7347 130.135 34.5672 129.991 34.4537C129.848 34.3389 129.661 34.2814 129.43 34.2814C129.148 34.2814 128.924 34.3818 128.76 34.5825C128.595 34.7831 128.513 35.0661 128.513 35.4315V35.7886C128.513 36.0183 128.551 36.2217 128.629 36.3989C128.708 36.5746 128.82 36.7109 128.965 36.8078C129.112 36.9047 129.28 36.9531 129.47 36.9531C129.69 36.9531 129.879 36.9185 130.036 36.8493C130.139 36.8037 130.215 36.7504 130.265 36.6895V35.909H129.453V35.6931H130.52V36.7684Z" fill="white"/>
<path d="M132.267 35.0931C132.214 35.0834 132.158 35.0786 132.099 35.0786C131.944 35.0786 131.812 35.1222 131.704 35.2094C131.598 35.2952 131.522 35.4204 131.476 35.5851V37.1275H131.229V34.8814H131.472L131.476 35.2384C131.607 34.9727 131.819 34.8399 132.109 34.8399C132.178 34.8399 132.233 34.8489 132.273 34.8669L132.267 35.0931Z" fill="white"/>
<path d="M133.532 37.169C133.341 37.169 133.168 37.122 133.013 37.0279C132.86 36.9338 132.74 36.803 132.654 36.6355C132.568 36.4667 132.525 36.2778 132.525 36.0688V35.9795C132.525 35.7636 132.567 35.5692 132.65 35.3962C132.734 35.2232 132.851 35.0876 133.001 34.9893C133.15 34.8897 133.312 34.8399 133.486 34.8399C133.759 34.8399 133.975 34.9333 134.134 35.1201C134.295 35.3056 134.375 35.5595 134.375 35.882V36.0211H132.772V36.0688C132.772 36.3234 132.845 36.5359 132.99 36.7061C133.137 36.8749 133.321 36.9594 133.543 36.9594C133.675 36.9594 133.792 36.9351 133.893 36.8867C133.996 36.8383 134.088 36.7608 134.172 36.6542L134.327 36.7725C134.145 37.0369 133.88 37.169 133.532 37.169ZM133.486 35.0516C133.3 35.0516 133.142 35.1201 133.013 35.2571C132.886 35.3941 132.808 35.5782 132.781 35.8093H134.128V35.7823C134.121 35.5664 134.059 35.3907 133.943 35.255C133.827 35.1194 133.675 35.0516 133.486 35.0516Z" fill="white"/>
<path d="M135.771 37.169C135.58 37.169 135.407 37.122 135.252 37.0279C135.098 36.9338 134.979 36.803 134.893 36.6355C134.807 36.4667 134.764 36.2778 134.764 36.0688V35.9795C134.764 35.7636 134.806 35.5692 134.889 35.3962C134.973 35.2232 135.09 35.0876 135.24 34.9893C135.389 34.8897 135.551 34.8399 135.725 34.8399C135.998 34.8399 136.214 34.9333 136.373 35.1201C136.534 35.3056 136.614 35.5595 136.614 35.882V36.0211H135.011V36.0688C135.011 36.3234 135.084 36.5359 135.229 36.7061C135.376 36.8749 135.56 36.9594 135.781 36.9594C135.914 36.9594 136.031 36.9351 136.132 36.8867C136.235 36.8383 136.327 36.7608 136.41 36.6542L136.566 36.7725C136.383 37.0369 136.118 37.169 135.771 37.169ZM135.725 35.0516C135.538 35.0516 135.381 35.1201 135.252 35.2571C135.125 35.3941 135.047 35.5782 135.019 35.8093H136.367V35.7823C136.36 35.5664 136.298 35.3907 136.182 35.255C136.066 35.1194 135.914 35.0516 135.725 35.0516Z" fill="white"/>
<path d="M137.377 34.8814L137.385 35.2654C137.469 35.127 137.575 35.0219 137.7 34.9499C137.826 34.8765 137.965 34.8399 138.118 34.8399C138.359 34.8399 138.538 34.9077 138.655 35.0433C138.773 35.1789 138.833 35.3824 138.834 35.6536V37.1275H138.587V35.6515C138.585 35.4509 138.543 35.3014 138.458 35.2031C138.375 35.1049 138.242 35.0558 138.058 35.0558C137.904 35.0558 137.768 35.1042 137.649 35.2011C137.531 35.2966 137.444 35.426 137.387 35.5893V37.1275H137.14V34.8814H137.377Z" fill="white"/>
<path d="M139.42 35.9837C139.42 35.6322 139.498 35.354 139.653 35.1492C139.809 34.943 140.021 34.8399 140.288 34.8399C140.594 34.8399 140.826 34.9617 140.986 35.2052L140.998 34.8814H141.231V37.0818C141.231 37.3711 141.15 37.6001 140.988 37.769C140.826 37.9378 140.606 38.0222 140.33 38.0222C140.173 38.0222 140.024 37.9869 139.881 37.9164C139.74 37.8472 139.629 37.7544 139.547 37.6382L139.686 37.4887C139.862 37.7046 140.071 37.8126 140.313 37.8126C140.521 37.8126 140.682 37.751 140.799 37.6278C140.915 37.506 140.975 37.3365 140.979 37.1192V36.8369C140.82 37.0583 140.588 37.169 140.284 37.169C140.024 37.169 139.815 37.0652 139.657 36.8576C139.499 36.6501 139.42 36.3698 139.42 36.0169V35.9837ZM139.672 36.0273C139.672 36.3138 139.729 36.54 139.844 36.7061C139.959 36.8708 140.121 36.9531 140.33 36.9531C140.635 36.9531 140.852 36.8161 140.979 36.5421V35.4979C140.921 35.354 140.837 35.2447 140.728 35.1699C140.619 35.0938 140.487 35.0558 140.334 35.0558C140.125 35.0558 139.962 35.1381 139.846 35.3028C139.73 35.4661 139.672 35.7076 139.672 36.0273Z" fill="white"/>
<path d="M142.959 35.0931C142.906 35.0834 142.85 35.0786 142.791 35.0786C142.636 35.0786 142.504 35.1222 142.396 35.2094C142.29 35.2952 142.213 35.4204 142.168 35.5851V37.1275H141.921V34.8814H142.164L142.168 35.2384C142.299 34.9727 142.51 34.8399 142.801 34.8399C142.87 34.8399 142.925 34.8489 142.965 34.8669L142.959 35.0931Z" fill="white"/>
<path d="M144.73 37.1275C144.705 37.0569 144.69 36.9524 144.683 36.814C144.595 36.9275 144.484 37.0154 144.348 37.0777C144.214 37.1386 144.072 37.169 143.921 37.169C143.705 37.169 143.53 37.1088 143.396 36.9884C143.263 36.868 143.196 36.7158 143.196 36.5317C143.196 36.3131 143.287 36.1401 143.468 36.0127C143.651 35.8854 143.905 35.8218 144.23 35.8218H144.681V35.5664C144.681 35.4059 144.631 35.28 144.531 35.1886C144.433 35.0959 144.289 35.0495 144.099 35.0495C143.926 35.0495 143.783 35.0938 143.67 35.1824C143.556 35.271 143.499 35.3775 143.499 35.5021L143.25 35.5C143.25 35.3215 143.333 35.1672 143.499 35.0371C143.665 34.9056 143.87 34.8399 144.112 34.8399C144.362 34.8399 144.559 34.9028 144.703 35.0288C144.849 35.1533 144.923 35.3277 144.928 35.5519V36.6148C144.928 36.832 144.95 36.9947 144.996 37.1026V37.1275H144.73ZM143.95 36.949C144.116 36.949 144.264 36.9088 144.394 36.8286C144.526 36.7483 144.621 36.6411 144.681 36.5068V36.0127H144.236C143.989 36.0155 143.795 36.0612 143.655 36.1498C143.515 36.2369 143.445 36.3573 143.445 36.511C143.445 36.6369 143.492 36.7414 143.584 36.8244C143.679 36.9075 143.8 36.949 143.95 36.949Z" fill="white"/>
<path d="M146.98 36.5566C146.98 36.4335 146.93 36.3345 146.83 36.2598C146.732 36.185 146.583 36.1269 146.384 36.0854C146.185 36.0425 146.03 35.9941 145.919 35.9401C145.809 35.8847 145.728 35.8176 145.674 35.7387C145.621 35.6598 145.595 35.5644 145.595 35.4523C145.595 35.2751 145.669 35.1291 145.817 35.0142C145.965 34.898 146.155 34.8399 146.386 34.8399C146.636 34.8399 146.837 34.9021 146.988 35.0267C147.14 35.1499 147.216 35.3111 147.216 35.5104H146.967C146.967 35.3789 146.912 35.2696 146.801 35.1824C146.692 35.0952 146.553 35.0516 146.386 35.0516C146.223 35.0516 146.091 35.0883 145.991 35.1616C145.893 35.2336 145.844 35.3277 145.844 35.444C145.844 35.5561 145.885 35.6432 145.967 35.7055C146.05 35.7664 146.2 35.8225 146.417 35.8737C146.636 35.9249 146.799 35.9795 146.907 36.0377C147.016 36.0958 147.097 36.1657 147.15 36.2473C147.202 36.329 147.229 36.4279 147.229 36.5442C147.229 36.7338 147.152 36.8853 146.998 36.9988C146.846 37.1123 146.647 37.169 146.4 37.169C146.139 37.169 145.926 37.1061 145.763 36.9801C145.601 36.8528 145.52 36.6923 145.52 36.4985H145.769C145.779 36.6438 145.84 36.7573 145.952 36.839C146.066 36.9192 146.215 36.9594 146.4 36.9594C146.573 36.9594 146.713 36.9213 146.82 36.8452C146.926 36.7691 146.98 36.6729 146.98 36.5566Z" fill="white"/>
<path d="M149.177 36.5566C149.177 36.4335 149.127 36.3345 149.027 36.2598C148.929 36.185 148.78 36.1269 148.581 36.0854C148.382 36.0425 148.227 35.9941 148.116 35.9401C148.007 35.8847 147.925 35.8176 147.871 35.7387C147.819 35.6598 147.792 35.5644 147.792 35.4523C147.792 35.2751 147.866 35.1291 148.014 35.0142C148.162 34.898 148.352 34.8399 148.583 34.8399C148.834 34.8399 149.034 34.9021 149.185 35.0267C149.337 35.1499 149.414 35.3111 149.414 35.5104H149.164C149.164 35.3789 149.109 35.2696 148.998 35.1824C148.889 35.0952 148.751 35.0516 148.583 35.0516C148.42 35.0516 148.288 35.0883 148.189 35.1616C148.091 35.2336 148.041 35.3277 148.041 35.444C148.041 35.5561 148.082 35.6432 148.164 35.7055C148.247 35.7664 148.397 35.8225 148.614 35.8737C148.833 35.9249 148.996 35.9795 149.104 36.0377C149.214 36.0958 149.295 36.1657 149.347 36.2473C149.4 36.329 149.426 36.4279 149.426 36.5442C149.426 36.7338 149.349 36.8853 149.196 36.9988C149.043 37.1123 148.844 37.169 148.598 37.169C148.336 37.169 148.124 37.1061 147.96 36.9801C147.798 36.8528 147.718 36.6923 147.718 36.4985H147.967C147.976 36.6438 148.037 36.7573 148.149 36.839C148.263 36.9192 148.412 36.9594 148.598 36.9594C148.771 36.9594 148.91 36.9213 149.017 36.8452C149.124 36.7691 149.177 36.6729 149.177 36.5566Z" fill="white"/>
<path d="M125.279 41.3254C125.244 41.6437 125.13 41.8873 124.936 42.0562C124.744 42.225 124.487 42.3094 124.166 42.3094C123.942 42.3094 123.743 42.2534 123.57 42.1413C123.398 42.0292 123.266 41.8707 123.171 41.6659C123.077 41.4597 123.03 41.2244 123.028 40.9601V40.5677C123.028 40.2992 123.075 40.0612 123.169 39.8536C123.264 39.646 123.398 39.4862 123.574 39.3741C123.751 39.2606 123.955 39.2039 124.185 39.2039C124.508 39.2039 124.764 39.2917 124.951 39.4675C125.139 39.6419 125.248 39.8834 125.279 40.192H125.021C124.957 39.6786 124.679 39.4218 124.185 39.4218C123.911 39.4218 123.692 39.5242 123.529 39.7291C123.367 39.9339 123.286 40.2169 123.286 40.5781V40.9476C123.286 41.2964 123.365 41.5745 123.522 41.7821C123.681 41.9897 123.896 42.0935 124.166 42.0935C124.433 42.0935 124.634 42.0299 124.77 41.9025C124.906 41.7738 124.989 41.5815 125.021 41.3254H125.279Z" fill="white"/>
<path d="M125.747 41.1116C125.747 40.8957 125.788 40.7013 125.871 40.5283C125.956 40.3553 126.074 40.2211 126.226 40.1256C126.38 40.0287 126.553 39.9803 126.747 39.9803C127.046 39.9803 127.288 40.0854 127.474 40.2958C127.659 40.5048 127.752 40.7822 127.752 41.1282V41.1801C127.752 41.3974 127.71 41.5932 127.625 41.7676C127.542 41.9406 127.425 42.0741 127.272 42.1683C127.12 42.2624 126.946 42.3094 126.751 42.3094C126.454 42.3094 126.212 42.2049 126.025 41.996C125.839 41.7856 125.747 41.5074 125.747 41.1614V41.1116ZM125.996 41.1801C125.996 41.4486 126.065 41.6693 126.203 41.8423C126.343 42.0139 126.526 42.0997 126.751 42.0997C126.976 42.0997 127.157 42.0139 127.295 41.8423C127.435 41.6693 127.505 41.4417 127.505 41.1594V41.1116C127.505 40.94 127.473 40.7829 127.409 40.6404C127.346 40.4978 127.256 40.3878 127.142 40.3103C127.027 40.2314 126.895 40.192 126.747 40.192C126.526 40.192 126.345 40.2792 126.205 40.4536C126.066 40.6265 125.996 40.8535 125.996 41.1345V41.1801Z" fill="white"/>
<path d="M128.536 40.0218L128.544 40.3871C128.627 40.2515 128.731 40.1498 128.855 40.082C128.98 40.0142 129.118 39.9803 129.27 39.9803C129.625 39.9803 129.85 40.1256 129.945 40.4162C130.025 40.2764 130.133 40.1692 130.267 40.0944C130.401 40.0183 130.549 39.9803 130.711 39.9803C131.193 39.9803 131.438 40.2432 131.448 40.7691V42.2679H131.199V40.7878C131.198 40.5871 131.154 40.4383 131.068 40.3415C130.984 40.2446 130.845 40.1961 130.653 40.1961C130.474 40.1989 130.324 40.257 130.2 40.3705C130.077 40.4826 130.009 40.6196 129.995 40.7815V42.2679H129.746V40.7691C129.744 40.5767 129.699 40.4335 129.609 40.3394C129.52 40.2439 129.383 40.1961 129.198 40.1961C129.041 40.1961 128.907 40.2411 128.795 40.3311C128.683 40.4197 128.6 40.5518 128.546 40.7276V42.2679H128.297V40.0218H128.536Z" fill="white"/>
<path d="M133.928 41.1677C133.928 41.5178 133.85 41.796 133.695 42.0022C133.54 42.207 133.333 42.3094 133.072 42.3094C132.765 42.3094 132.53 42.2015 132.367 41.9856V43.1315H132.12V40.0218H132.35L132.362 40.3394C132.524 40.1 132.759 39.9803 133.066 39.9803C133.335 39.9803 133.545 40.082 133.697 40.2854C133.851 40.4888 133.928 40.7712 133.928 41.1324V41.1677ZM133.679 41.1241C133.679 40.8376 133.62 40.6113 133.502 40.4453C133.384 40.2792 133.22 40.1961 133.01 40.1961C132.858 40.1961 132.727 40.2328 132.618 40.3062C132.508 40.3795 132.425 40.4861 132.367 40.6259V41.7033C132.426 41.832 132.511 41.9302 132.622 41.998C132.733 42.0658 132.863 42.0997 133.014 42.0997C133.223 42.0997 133.386 42.0167 133.502 41.8506C133.62 41.6832 133.679 41.441 133.679 41.1241Z" fill="white"/>
<path d="M135.94 42.2679C135.915 42.1973 135.899 42.0928 135.892 41.9544C135.805 42.0679 135.694 42.1558 135.558 42.2181C135.424 42.279 135.281 42.3094 135.131 42.3094C134.915 42.3094 134.74 42.2492 134.605 42.1288C134.473 42.0084 134.406 41.8562 134.406 41.6721C134.406 41.4535 134.497 41.2805 134.678 41.1531C134.861 41.0258 135.115 40.9622 135.44 40.9622H135.89V40.7068C135.89 40.5463 135.841 40.4203 135.741 40.329C135.643 40.2363 135.499 40.1899 135.309 40.1899C135.136 40.1899 134.993 40.2342 134.879 40.3228C134.766 40.4113 134.709 40.5179 134.709 40.6425L134.46 40.6404C134.46 40.4619 134.543 40.3076 134.709 40.1775C134.875 40.046 135.079 39.9803 135.322 39.9803C135.572 39.9803 135.769 40.0432 135.913 40.1692C136.059 40.2937 136.133 40.4681 136.137 40.6923V41.7551C136.137 41.9724 136.16 42.135 136.206 42.243V42.2679H135.94ZM135.16 42.0894C135.326 42.0894 135.474 42.0492 135.604 41.969C135.735 41.8887 135.831 41.7814 135.89 41.6472V41.1531H135.446C135.198 41.1559 135.005 41.2016 134.865 41.2901C134.725 41.3773 134.655 41.4977 134.655 41.6514C134.655 41.7773 134.702 41.8818 134.794 41.9648C134.888 42.0479 135.01 42.0894 135.16 42.0894Z" fill="white"/>
<path d="M137.23 39.4467V40.0218H137.695V40.2252H137.23V41.7219C137.23 41.8465 137.252 41.9392 137.297 42.0001C137.342 42.061 137.418 42.0914 137.523 42.0914C137.565 42.0914 137.632 42.0845 137.724 42.0707L137.735 42.2741C137.67 42.2977 137.581 42.3094 137.469 42.3094C137.299 42.3094 137.175 42.2603 137.097 42.162C137.02 42.0624 136.981 41.9164 136.981 41.724V40.2252H136.568V40.0218H136.981V39.4467H137.23Z" fill="white"/>
<path d="M138.531 42.2679H138.282V40.0218H138.531V42.2679ZM138.238 39.372C138.238 39.325 138.253 39.2855 138.284 39.2537C138.314 39.2205 138.356 39.2039 138.408 39.2039C138.461 39.2039 138.502 39.2205 138.533 39.2537C138.565 39.2855 138.581 39.325 138.581 39.372C138.581 39.4191 138.565 39.4585 138.533 39.4903C138.502 39.5222 138.461 39.5381 138.408 39.5381C138.356 39.5381 138.314 39.5222 138.284 39.4903C138.253 39.4585 138.238 39.4191 138.238 39.372Z" fill="white"/>
<path d="M141.058 41.1677C141.058 41.5178 140.981 41.796 140.826 42.0022C140.671 42.207 140.462 42.3094 140.201 42.3094C139.888 42.3094 139.651 42.1932 139.491 41.9607L139.481 42.2679H139.248V39.0793H139.495V40.3477C139.653 40.1027 139.887 39.9803 140.197 39.9803C140.462 39.9803 140.672 40.082 140.826 40.2854C140.981 40.4875 141.058 40.7691 141.058 41.1303V41.1677ZM140.809 41.1241C140.809 40.8279 140.752 40.5996 140.637 40.439C140.522 40.2771 140.36 40.1961 140.151 40.1961C139.992 40.1961 139.857 40.2356 139.746 40.3145C139.636 40.392 139.552 40.5061 139.495 40.657V41.67C139.62 41.9524 139.84 42.0935 140.155 42.0935C140.36 42.0935 140.52 42.0126 140.635 41.8506C140.751 41.6887 140.809 41.4465 140.809 41.1241Z" fill="white"/>
<path d="M141.929 42.2679H141.68V39.0793H141.929V42.2679Z" fill="white"/>
<path d="M143.518 42.3094C143.327 42.3094 143.154 42.2624 142.999 42.1683C142.845 42.0741 142.726 41.9434 142.64 41.7759C142.554 41.6071 142.511 41.4182 142.511 41.2092V41.1199C142.511 40.904 142.553 40.7096 142.636 40.5366C142.72 40.3636 142.837 40.228 142.987 40.1297C143.136 40.0301 143.298 39.9803 143.472 39.9803C143.745 39.9803 143.961 40.0737 144.12 40.2605C144.281 40.4459 144.361 40.6999 144.361 41.0224V41.1614H142.758V41.2092C142.758 41.4638 142.831 41.6763 142.976 41.8465C143.123 42.0153 143.307 42.0997 143.528 42.0997C143.661 42.0997 143.778 42.0755 143.879 42.0271C143.982 41.9787 144.074 41.9012 144.157 41.7946L144.313 41.9129C144.13 42.1772 143.865 42.3094 143.518 42.3094ZM143.472 40.192C143.286 40.192 143.128 40.2605 142.999 40.3975C142.872 40.5345 142.794 40.7186 142.767 40.9497H144.114V40.9227C144.107 40.7068 144.045 40.5311 143.929 40.3954C143.813 40.2598 143.661 40.192 143.472 40.192Z" fill="white"/>
<path fill-rule="evenodd" clip-rule="evenodd" d="M135.306 24.26L127.596 16.5495L128.115 16.0302L135.825 23.7408L135.306 24.26Z" fill="white"/>
<path fill-rule="evenodd" clip-rule="evenodd" d="M137.126 16.7488C137.329 16.7488 137.493 16.9132 137.493 17.116V17.8993C137.493 18.102 137.329 18.2664 137.126 18.2664C136.924 18.2664 136.759 18.102 136.759 17.8993V17.116C136.759 16.9132 136.924 16.7488 137.126 16.7488ZM137.126 18.9029C137.329 18.9029 137.493 19.0672 137.493 19.27V19.9187C137.493 20.1215 137.329 20.2859 137.126 20.2859C136.924 20.2859 136.759 20.1215 136.759 19.9187V19.27C136.759 19.0672 136.924 18.9029 137.126 18.9029ZM137.126 20.9223C137.329 20.9223 137.493 21.0867 137.493 21.2895V22.0728C137.493 22.2755 137.329 22.4399 137.126 22.4399C136.924 22.4399 136.759 22.2755 136.759 22.0728V21.2895C136.759 21.0867 136.924 20.9223 137.126 20.9223Z" fill="white"/>
<path fill-rule="evenodd" clip-rule="evenodd" d="M128.498 25.1937C128.498 24.9909 128.662 24.8265 128.865 24.8265H129.648C129.851 24.8265 130.015 24.9909 130.015 25.1937C130.015 25.3965 129.851 25.5609 129.648 25.5609H128.865C128.662 25.5609 128.498 25.3965 128.498 25.1937ZM130.652 25.1937C130.652 24.9909 130.816 24.8265 131.019 24.8265H131.668C131.87 24.8265 132.035 24.9909 132.035 25.1937C132.035 25.3965 131.87 25.5609 131.668 25.5609H131.019C130.816 25.5609 130.652 25.3965 130.652 25.1937ZM132.671 25.1937C132.671 24.9909 132.836 24.8265 133.038 24.8265H133.822C134.025 24.8265 134.189 24.9909 134.189 25.1937C134.189 25.3965 134.025 25.5609 133.822 25.5609H133.038C132.836 25.5609 132.671 25.3965 132.671 25.1937Z" fill="white"/>
<path fill-rule="evenodd" clip-rule="evenodd" d="M141.532 21.7224C141.532 19.1308 140.306 16.8245 138.396 15.3487L139.07 14.4772C141.237 16.152 142.634 18.7745 142.634 21.7224C142.634 26.7844 138.517 30.8849 133.443 30.8849C130.403 30.8849 127.708 29.4129 126.035 27.1463L126.922 26.4923C128.395 28.4888 130.767 29.7833 133.443 29.7833C137.912 29.7833 141.532 26.1727 141.532 21.7224Z" fill="white"/>
<path fill-rule="evenodd" clip-rule="evenodd" d="M125.469 26.2952C126.128 26.2952 126.662 25.761 126.662 25.1019C126.662 24.4429 126.128 23.9086 125.469 23.9086C124.81 23.9086 124.275 24.4429 124.275 25.1019C124.275 25.761 124.81 26.2952 125.469 26.2952ZM125.469 27.2132C126.635 27.2132 127.58 26.2679 127.58 25.1019C127.58 23.9359 126.635 22.9907 125.469 22.9907C124.303 22.9907 123.357 23.9359 123.357 25.1019C123.357 26.2679 124.303 27.2132 125.469 27.2132Z" fill="white"/>
<path fill-rule="evenodd" clip-rule="evenodd" d="M137.218 15.0965C137.877 15.0965 138.411 14.5623 138.411 13.9032C138.411 13.2442 137.877 12.7099 137.218 12.7099C136.559 12.7099 136.025 13.2442 136.025 13.9032C136.025 14.5623 136.559 15.0965 137.218 15.0965ZM137.218 16.0145C138.384 16.0145 139.329 15.0692 139.329 13.9032C139.329 12.7372 138.384 11.792 137.218 11.792C136.052 11.792 135.107 12.7372 135.107 13.9032C135.107 15.0692 136.052 16.0145 137.218 16.0145Z" fill="white"/>
<path fill-rule="evenodd" clip-rule="evenodd" d="M137.035 26.4788C137.694 26.4788 138.228 25.9446 138.228 25.2855C138.228 24.6265 137.694 24.0922 137.035 24.0922C136.375 24.0922 135.841 24.6265 135.841 25.2855C135.841 25.9446 136.375 26.4788 137.035 26.4788ZM137.035 27.3967C138.201 27.3967 139.146 26.4515 139.146 25.2855C139.146 24.1195 138.201 23.1743 137.035 23.1743C135.869 23.1743 134.923 24.1195 134.923 25.2855C134.923 26.4515 135.869 27.3967 137.035 27.3967Z" fill="white"/>
<path d="M128.865 15.6473C128.865 16.5598 128.125 17.2996 127.213 17.2996C126.3 17.2996 125.56 16.5598 125.56 15.6473C125.56 14.7348 126.3 13.995 127.213 13.995C128.125 13.995 128.865 14.7348 128.865 15.6473Z" fill="white"/>
<path fill-rule="evenodd" clip-rule="evenodd" d="M167.036 179.296C170.709 179.296 173.95 179.944 176.327 181.349C178.812 182.97 180.433 185.455 180.433 189.776C180.433 193.234 179.028 196.15 176.436 197.987C174.275 199.284 170.818 200.148 167.036 200.148C163.254 200.148 159.797 199.284 157.636 197.987C155.043 196.15 153.639 193.234 153.639 189.776C153.639 185.455 155.26 182.97 157.744 181.349C160.121 179.944 163.362 179.296 167.036 179.296ZM187.239 205.118C185.078 205.442 183.458 205.658 181.513 205.658C177.516 205.658 174.058 204.794 170.169 201.337C174.923 201.121 179.029 200.256 181.945 198.635C185.186 196.8 187.239 193.882 187.239 189.776C187.239 185.563 185.078 182.43 181.081 180.485C177.407 178.756 172.437 178 167.036 178C161.634 178 156.664 178.756 152.991 180.485C148.993 182.43 146.832 185.563 146.832 189.776C146.832 193.882 148.777 196.799 152.127 198.635C154.936 200.256 158.825 201.121 163.579 201.337C168.441 205.875 175.031 206.955 180.001 206.955C182.918 206.955 185.295 206.631 187.24 206.199V205.118H187.239ZM141.646 178.108C142.943 178.108 144.023 179.08 144.023 180.701C144.023 182.213 142.943 183.294 141.646 183.294C140.242 183.294 139.161 182.213 139.161 180.701C139.161 179.08 140.242 178.108 141.646 178.108ZM144.023 198.095C144.023 200.364 144.239 200.688 146.724 200.688V201.876H137V200.688C139.701 200.688 139.809 200.364 139.809 198.095V190.208C139.809 187.94 139.701 187.724 137 187.724V186.535C139.269 186.427 141.322 185.887 143.482 185.022L144.023 185.238V198.095ZM195.234 191.937C195.234 193.558 193.83 194.854 192.101 194.854C190.373 194.854 188.968 193.558 188.968 191.937C188.968 190.208 190.372 188.912 192.101 188.912C193.83 188.912 195.234 190.208 195.234 191.937Z" fill="black"/>
<path fill-rule="evenodd" clip-rule="evenodd" d="M197.395 182.753C197.395 180.592 197.287 180.376 194.262 180.376V179.62C196.962 179.296 198.043 178.972 199.772 178.107L200.096 178.323V198.743C200.096 200.795 200.204 201.121 203.121 201.121V201.984H194.262V201.121C197.287 201.121 197.395 200.795 197.395 198.743V182.753ZM208.955 180.16C209.927 180.16 210.683 180.916 210.683 182.213C210.683 183.509 209.927 184.265 208.955 184.265C207.982 184.265 207.226 183.509 207.226 182.213C207.226 180.916 207.982 180.16 208.955 180.16ZM210.575 198.743C210.575 200.795 210.791 201.121 213.601 201.121V201.984H204.741V201.121C207.766 201.121 207.875 200.795 207.875 198.743V190.532C207.875 188.479 207.766 188.372 204.741 188.372V187.507C207.118 187.399 208.523 186.859 210.251 186.103L210.575 186.318V198.743V198.743ZM231.212 198.743C231.212 200.795 231.427 201.121 233.156 201.121V201.984H226.565V201.121C228.294 201.121 228.402 200.795 228.402 198.743V191.505C228.402 190.099 228.185 189.019 227.43 188.263C226.89 187.723 226.133 187.399 224.945 187.399C223.216 187.399 221.379 188.695 219.651 190.64V198.743C219.651 200.795 219.758 201.121 221.488 201.121V201.984H214.681V201.121C216.733 201.121 216.842 200.795 216.842 198.743V190.64C216.842 188.587 216.733 188.372 214.681 188.372V187.507C216.517 187.291 217.813 186.966 219.003 186.103L219.434 186.318L219.543 189.127H219.651C221.379 187.183 223.54 186.103 225.701 186.103C227.538 186.103 228.835 186.535 229.806 187.399C230.671 188.155 231.212 189.451 231.212 191.396V198.743V198.743ZM239.313 193.558L245.148 188.804C246.229 187.939 246.553 187.399 244.715 187.399V186.535H250.441V187.399C249.361 187.507 248.82 187.723 247.849 188.48L243.527 191.937L249.901 199.824C250.766 200.905 251.738 201.121 252.818 201.121V201.985H248.28L241.474 193.341L239.206 195.286V198.743C239.206 200.795 239.313 201.121 241.366 201.121V201.984H234.127V201.121C236.397 201.121 236.397 200.688 236.397 198.743V182.645C236.397 180.701 236.288 180.376 234.127 180.376V179.62C236.071 179.296 237.477 178.972 238.882 178.107L239.206 178.323V193.557H239.313V193.558ZM254.008 201.661H253.899V200.364H254.44C254.656 200.364 254.872 200.472 254.872 200.688C254.872 200.905 254.764 201.012 254.656 201.012C254.764 201.121 254.872 201.121 254.872 201.229V201.662H254.764C254.656 201.553 254.656 201.336 254.656 201.336C254.656 201.229 254.656 201.121 254.44 201.121H254.008V201.661V201.661ZM254.008 201.012H254.44C254.548 201.012 254.656 200.904 254.656 200.795C254.656 200.58 254.548 200.58 254.44 200.58H254.008V201.012Z" fill="black"/>
<path fill-rule="evenodd" clip-rule="evenodd" d="M255.413 201.012C255.413 201.553 254.98 202.092 254.332 202.092C253.792 202.092 253.252 201.552 253.252 201.012C253.36 200.472 253.792 199.932 254.332 199.932C254.98 199.932 255.413 200.472 255.413 201.012Z" fill="black"/>
<defs>
<linearGradient id="paint0_linear" x1="421.253" y1="27.53" x2="387.306" y2="11.8749" gradientUnits="userSpaceOnUse">
<stop stop-color="#645EAA"/>
<stop offset="1" stop-color="#3FC3E8"/>
</linearGradient>
<radialGradient id="paint1_radial" cx="0" cy="0" r="1" gradientUnits="userSpaceOnUse" gradientTransform="translate(322.5 109.5) scale(22.5)">
<stop stop-color="#DC001F"/>
<stop offset="0.64215" stop-color="#D5001D"/>
<stop offset="0.82382" stop-color="#AE0017"/>
<stop offset="1" stop-color="#590E0A"/>
</radialGradient>
<linearGradient id="paint2_linear" x1="322.381" y1="101.431" x2="322.386" y2="88.2691" gradientUnits="userSpaceOnUse">
<stop stop-color="#D4001C"/>
<stop offset="0.53134" stop-color="#EC8A6C"/>
<stop offset="0.88757" stop-color="#FCEFE7"/>
<stop offset="1" stop-color="#FDF7F1"/>
</linearGradient>
</defs>
</svg>
