<svg width="487" height="148" viewBox="0 0 487 148" fill="none" xmlns="http://www.w3.org/2000/svg">
<path d="M125.851 10.1429L121.061 9.08599V39.0869L125.851 38.028V10.1429Z" fill="#F68536"/>
<path d="M131.827 8.37197L125.851 6.72944V41.402L131.827 39.7615V8.37197V8.37197ZM139.495 6.55262L131.827 3.83922V44.2922L139.495 41.5801V6.55262ZM159.995 10.0523L139.495 0.139968V48L159.995 38.0877V10.0523Z" fill="#F68536"/>
<path d="M135.408 46.0238L139.495 48V0.139968L135.408 2.11556V46.0238V46.0238ZM128.664 42.7634L131.828 44.2929V3.84712L128.664 5.37661V42.7634ZM123.331 40.1842L125.851 41.4026V6.73734L123.331 7.95654V40.1842ZM121.06 39.0867L119.005 38.093V10.0464L121.06 9.05326V39.0867Z" fill="#9D5025"/>
<path d="M122.196 62H123.556L120.396 55H119.116L115.966 62H117.306L117.996 60.38H121.496L122.196 62ZM118.436 59.36L119.746 56.3L121.066 59.36H118.436ZM132.865 55L131.075 60.35L129.305 55H128.105L126.295 60.32L124.555 55H123.205L125.525 62H126.915L128.675 56.82L130.405 62H131.785L134.105 55H132.865ZM137.134 62.1C139.054 62.1 139.964 61.14 139.964 60.02C139.964 57.45 135.814 58.42 135.814 56.93C135.814 56.4 136.254 55.98 137.334 55.98C137.944 55.98 138.634 56.16 139.264 56.53L139.674 55.52C139.064 55.12 138.184 54.9 137.344 54.9C135.424 54.9 134.524 55.86 134.524 56.99C134.524 59.59 138.684 58.6 138.684 60.11C138.684 60.63 138.224 61.02 137.134 61.02C136.274 61.02 135.384 60.7 134.824 60.25L134.374 61.26C134.954 61.76 136.044 62.1 137.134 62.1ZM144.917 60.91V58.98H148.297V57.91H144.917V56.09H148.727V55H143.617V62H148.867V60.91H144.917ZM153.327 62.1C154.477 62.1 155.457 61.69 156.107 60.93L155.267 60.13C154.757 60.69 154.127 60.96 153.397 60.96C151.947 60.96 150.897 59.94 150.897 58.5C150.897 57.06 151.947 56.04 153.397 56.04C154.127 56.04 154.757 56.31 155.267 56.86L156.107 56.07C155.457 55.31 154.477 54.9 153.337 54.9C151.187 54.9 149.587 56.41 149.587 58.5C149.587 60.59 151.187 62.1 153.327 62.1ZM158.374 60.9L160.244 59.12C161.214 58.21 161.404 57.59 161.404 56.91C161.404 55.67 160.424 54.9 158.904 54.9C157.754 54.9 156.784 55.33 156.244 56.06L157.154 56.76C157.544 56.26 158.114 56.03 158.794 56.03C159.654 56.03 160.094 56.4 160.094 57.04C160.094 57.43 159.974 57.84 159.294 58.49L156.514 61.13V62H161.674V60.9H158.374Z" fill="#F58536"/>
<path d="M216.629 134H217.989L214.829 127H213.549L210.399 134H211.739L212.429 132.38H215.929L216.629 134ZM212.869 131.36L214.179 128.3L215.499 131.36H212.869ZM219.869 132.9L223.989 127.87V127H218.219V128.1H222.269L218.149 133.13V134H224.119V132.9H219.869ZM228.12 134.1C230.03 134.1 231.18 132.99 231.18 130.95V127H229.9V130.9C229.9 132.34 229.26 132.96 228.13 132.96C227 132.96 226.35 132.34 226.35 130.9V127H225.05V130.95C225.05 132.99 226.2 134.1 228.12 134.1ZM238.781 134L237.171 131.7C238.121 131.33 238.661 130.55 238.661 129.49C238.661 127.94 237.521 127 235.681 127H232.801V134H234.101V131.96H235.681C235.771 131.96 235.861 131.96 235.951 131.95L237.381 134H238.781ZM237.351 129.49C237.351 130.37 236.761 130.89 235.621 130.89H234.101V128.1H235.621C236.761 128.1 237.351 128.61 237.351 129.49ZM241.215 132.91V130.98H244.595V129.91H241.215V128.09H245.025V127H239.915V134H245.165V132.91H241.215ZM252.218 134.1C253.368 134.1 254.348 133.69 254.998 132.93L254.158 132.13C253.648 132.69 253.018 132.96 252.288 132.96C250.838 132.96 249.788 131.94 249.788 130.5C249.788 129.06 250.838 128.04 252.288 128.04C253.018 128.04 253.648 128.31 254.158 128.86L254.998 128.07C254.348 127.31 253.368 126.9 252.228 126.9C250.078 126.9 248.478 128.41 248.478 130.5C248.478 132.59 250.078 134.1 252.218 134.1ZM259.167 134.1C261.337 134.1 262.937 132.58 262.937 130.5C262.937 128.42 261.337 126.9 259.167 126.9C256.997 126.9 255.397 128.43 255.397 130.5C255.397 132.57 256.997 134.1 259.167 134.1ZM259.167 132.96C257.757 132.96 256.707 131.93 256.707 130.5C256.707 129.07 257.757 128.04 259.167 128.04C260.577 128.04 261.627 129.07 261.627 130.5C261.627 131.93 260.577 132.96 259.167 132.96ZM268.895 132.6C268.445 132.86 267.955 132.96 267.455 132.96C265.975 132.96 264.925 131.92 264.925 130.5C264.925 129.05 265.975 128.04 267.465 128.04C268.215 128.04 268.845 128.29 269.395 128.84L270.215 128.04C269.555 127.29 268.575 126.9 267.405 126.9C265.215 126.9 263.615 128.41 263.615 130.5C263.615 132.59 265.215 134.1 267.385 134.1C268.375 134.1 269.395 133.8 270.125 133.21V130.42H268.895V132.6ZM276.57 127V131.74L272.71 127H271.64V134H272.93V129.26L276.79 134H277.86V127H276.57ZM279.536 134H280.836V127H279.536V134ZM283.949 134H285.249V128.1H287.569V127H281.629V128.1H283.949V134ZM288.345 134H289.645V127H288.345V134ZM296.389 127L294.039 132.4L291.709 127H290.299L293.359 134H294.639L297.689 127H296.389ZM299.528 132.91V130.98H302.908V129.91H299.528V128.09H303.338V127H298.228V134H303.478V132.91H299.528ZM236.866 144.1C238.786 144.1 239.696 143.14 239.696 142.02C239.696 139.45 235.546 140.42 235.546 138.93C235.546 138.4 235.986 137.98 237.066 137.98C237.676 137.98 238.366 138.16 238.996 138.53L239.406 137.52C238.796 137.12 237.916 136.9 237.076 136.9C235.156 136.9 234.256 137.86 234.256 138.99C234.256 141.59 238.416 140.6 238.416 142.11C238.416 142.63 237.956 143.02 236.866 143.02C236.006 143.02 235.116 142.7 234.556 142.25L234.106 143.26C234.686 143.76 235.776 144.1 236.866 144.1ZM242.085 142.91V140.98H245.465V139.91H242.085V138.09H245.895V137H240.785V144H246.035V142.91H242.085ZM253.264 144L251.654 141.7C252.604 141.33 253.144 140.55 253.144 139.49C253.144 137.94 252.004 137 250.164 137H247.284V144H248.584V141.96H250.164C250.254 141.96 250.344 141.96 250.434 141.95L251.864 144H253.264ZM251.834 139.49C251.834 140.37 251.244 140.89 250.104 140.89H248.584V138.1H250.104C251.244 138.1 251.834 138.61 251.834 139.49ZM259.498 137L257.148 142.4L254.818 137H253.408L256.468 144H257.748L260.798 137H259.498ZM261.337 144H262.637V137H261.337V144ZM267.57 144.1C268.72 144.1 269.7 143.69 270.35 142.93L269.51 142.13C269 142.69 268.37 142.96 267.64 142.96C266.19 142.96 265.14 141.94 265.14 140.5C265.14 139.06 266.19 138.04 267.64 138.04C268.37 138.04 269 138.31 269.51 138.86L270.35 138.07C269.7 137.31 268.72 136.9 267.58 136.9C265.43 136.9 263.83 138.41 263.83 140.5C263.83 142.59 265.43 144.1 267.57 144.1ZM272.696 142.91V140.98H276.076V139.91H272.696V138.09H276.506V137H271.396V144H276.646V142.91H272.696ZM280.065 144.1C281.985 144.1 282.895 143.14 282.895 142.02C282.895 139.45 278.745 140.42 278.745 138.93C278.745 138.4 279.185 137.98 280.265 137.98C280.875 137.98 281.565 138.16 282.195 138.53L282.605 137.52C281.995 137.12 281.115 136.9 280.275 136.9C278.355 136.9 277.455 137.86 277.455 138.99C277.455 141.59 281.615 140.6 281.615 142.11C281.615 142.63 281.155 143.02 280.065 143.02C279.205 143.02 278.315 142.7 277.755 142.25L277.305 143.26C277.885 143.76 278.975 144.1 280.065 144.1Z" fill="#0079D6"/>
<path d="M277.19 92.7927C275.729 89.4809 272.447 87.153 268.612 87.0788C266.977 85.7775 264.906 85 262.654 85C261.52 85 260.432 85.197 259.423 85.5586C258.414 85.197 257.326 85 256.192 85C253.934 85 251.858 85.7817 250.221 87.0892C250.058 87.0811 249.895 87.0769 249.731 87.0769C245.833 87.0769 242.479 89.4054 240.984 92.7472C236.453 93.5057 233 97.4457 233 102.192C233 107.481 237.288 111.769 242.577 111.769C243.41 111.769 244.218 111.663 244.988 111.463C246.532 112.529 248.405 113.154 250.423 113.154C251.086 113.154 251.733 113.087 252.358 112.958C253.986 114.237 256.038 115 258.269 115C260.245 115 262.081 114.402 263.606 113.376C264.541 113.681 265.54 113.846 266.577 113.846C269.004 113.846 271.219 112.944 272.907 111.456C273.686 111.66 274.503 111.769 275.346 111.769C280.635 111.769 284.923 107.481 284.923 102.192C284.923 97.5338 281.597 93.6521 277.19 92.7927Z" fill="#0079D6"/>
<mask id="mask0" mask-type="alpha" maskUnits="userSpaceOnUse" x="233" y="85" width="52" height="30">
<path d="M277.19 92.7927C275.729 89.4809 272.447 87.153 268.612 87.0788C266.977 85.7775 264.906 85 262.654 85C261.52 85 260.432 85.197 259.423 85.5586C258.414 85.197 257.326 85 256.192 85C253.934 85 251.858 85.7817 250.221 87.0892C250.058 87.0811 249.895 87.0769 249.731 87.0769C245.833 87.0769 242.479 89.4054 240.984 92.7472C236.453 93.5057 233 97.4457 233 102.192C233 107.481 237.288 111.769 242.577 111.769C243.41 111.769 244.218 111.663 244.988 111.463C246.532 112.529 248.405 113.154 250.423 113.154C251.086 113.154 251.733 113.087 252.358 112.958C253.986 114.237 256.038 115 258.269 115C260.245 115 262.081 114.402 263.606 113.376C264.541 113.681 265.54 113.846 266.577 113.846C269.004 113.846 271.219 112.944 272.907 111.456C273.686 111.66 274.503 111.769 275.346 111.769C280.635 111.769 284.923 107.481 284.923 102.192C284.923 97.5338 281.597 93.6521 277.19 92.7927Z" fill="#0079D6"/>
</mask>
<g mask="url(#mask0)">
<path fill-rule="evenodd" clip-rule="evenodd" d="M250.424 97.2305V85.9229H251.577V97.2305C251.577 97.6766 251.939 98.0382 252.385 98.0382H256.654C257.738 98.0382 258.616 98.9164 258.616 99.9998V103.461H257.462V99.9998C257.462 99.5537 257.1 99.1921 256.654 99.1921H252.385C251.302 99.1921 250.424 98.3139 250.424 97.2305ZM263.116 92.269H265.885C266.968 92.269 267.847 93.1472 267.847 94.2305V104.038H273.5C273.947 104.038 274.308 103.677 274.308 103.231V102.769H275.462V103.231C275.462 104.314 274.584 105.192 273.5 105.192H267.847V113.961H266.693V94.2305C266.693 93.7845 266.331 93.4229 265.885 93.4229H263.116V92.269ZM248.693 103.346H245.462V102.192H248.693C249.776 102.192 250.654 103.07 250.654 104.154V113.5H249.5V104.154C249.5 103.708 249.139 103.346 248.693 103.346Z" fill="white"/>
<path fill-rule="evenodd" clip-rule="evenodd" d="M260.231 94.6921C261.251 94.6921 262.077 93.8655 262.077 92.8459C262.077 91.8263 261.251 90.9998 260.231 90.9998C259.212 90.9998 258.385 91.8263 258.385 92.8459C258.385 93.8655 259.212 94.6921 260.231 94.6921ZM260.231 95.8459C261.888 95.8459 263.231 94.5028 263.231 92.8459C263.231 91.1891 261.888 89.8459 260.231 89.8459C258.574 89.8459 257.231 91.1891 257.231 92.8459C257.231 94.5028 258.574 95.8459 260.231 95.8459Z" fill="white"/>
<path fill-rule="evenodd" clip-rule="evenodd" d="M257.924 107.846C258.943 107.846 259.77 107.019 259.77 106C259.77 104.98 258.943 104.154 257.924 104.154C256.904 104.154 256.077 104.98 256.077 106C256.077 107.019 256.904 107.846 257.924 107.846ZM257.924 109C259.58 109 260.924 107.657 260.924 106C260.924 104.343 259.58 103 257.924 103C256.267 103 254.924 104.343 254.924 106C254.924 107.657 256.267 109 257.924 109Z" fill="white"/>
<path fill-rule="evenodd" clip-rule="evenodd" d="M243.154 104.615C244.174 104.615 245 103.789 245 102.769C245 101.749 244.174 100.923 243.154 100.923C242.135 100.923 241.308 101.749 241.308 102.769C241.308 103.789 242.135 104.615 243.154 104.615ZM243.154 105.769C244.811 105.769 246.154 104.426 246.154 102.769C246.154 101.112 244.811 99.769 243.154 99.769C241.497 99.769 240.154 101.112 240.154 102.769C240.154 104.426 241.497 105.769 243.154 105.769Z" fill="white"/>
<path fill-rule="evenodd" clip-rule="evenodd" d="M274.77 101.846C275.789 101.846 276.616 101.019 276.616 99.9998C276.616 98.9802 275.789 98.1536 274.77 98.1536C273.75 98.1536 272.924 98.9802 272.924 99.9998C272.924 101.019 273.75 101.846 274.77 101.846ZM274.77 103C276.427 103 277.77 101.657 277.77 99.9998C277.77 98.3429 276.427 96.9998 274.77 96.9998C273.113 96.9998 271.77 98.3429 271.77 99.9998C271.77 101.657 273.113 103 274.77 103Z" fill="white"/>
</g>
<path d="M121.514 109.185C120.829 107.998 120.829 106.535 121.514 105.348L132.154 86.9192C132.839 85.7319 134.106 85.0005 135.477 85.0005L156.756 85.0005C158.127 85.0005 159.394 85.7319 160.08 86.9192L170.719 105.348C171.405 106.535 171.405 107.998 170.719 109.185L160.08 127.614C159.394 128.801 158.127 129.532 156.756 129.532L135.477 129.532C134.106 129.532 132.839 128.801 132.154 127.614L121.514 109.185Z" fill="#4386F8"/>
<mask id="mask1" mask-type="alpha" maskUnits="userSpaceOnUse" x="121" y="85" width="51" height="45">
<path d="M121.514 109.184C120.829 107.997 120.829 106.534 121.514 105.347L132.154 86.9182C132.839 85.7309 134.106 84.9995 135.477 84.9995L156.756 84.9995C158.127 84.9995 159.394 85.7309 160.08 86.9182L170.719 105.347C171.405 106.534 171.405 107.997 170.719 109.184L160.08 127.613C159.394 128.8 158.127 129.531 156.756 129.531L135.477 129.531C134.106 129.531 132.839 128.8 132.154 127.613L121.514 109.184Z" fill="#4386F8"/>
</mask>
<g mask="url(#mask1)">
<path d="M158.396 130.866L134.604 107.267L146.308 114.366L157.629 107.267L168.373 117.244L158.396 130.866Z" fill="#407ADE"/>
</g>
<path fill-rule="evenodd" clip-rule="evenodd" d="M134.412 107.265L146.308 116.091L157.82 107.265L146.308 98.4395L134.412 107.265ZM139.564 107.265L146.278 112.246L152.775 107.265L146.278 102.285L139.564 107.265Z" fill="white"/>
<path d="M148.036 107.266C148.036 108.326 147.177 109.185 146.117 109.185C145.057 109.185 144.198 108.326 144.198 107.266C144.198 106.207 145.057 105.348 146.117 105.348C147.177 105.348 148.036 106.207 148.036 107.266Z" fill="white"/>
<path d="M102.984 144.632C104.134 144.632 105.114 144.222 105.764 143.462L104.924 142.662C104.414 143.222 103.784 143.492 103.054 143.492C101.604 143.492 100.554 142.472 100.554 141.032C100.554 139.592 101.604 138.572 103.054 138.572C103.784 138.572 104.414 138.842 104.924 139.392L105.764 138.602C105.114 137.842 104.134 137.432 102.994 137.432C100.844 137.432 99.2437 138.942 99.2437 141.032C99.2437 143.122 100.844 144.632 102.984 144.632ZM106.809 144.532H111.769V143.432H108.109V137.532H106.809V144.532ZM115.739 144.632C117.909 144.632 119.509 143.112 119.509 141.032C119.509 138.952 117.909 137.432 115.739 137.432C113.569 137.432 111.969 138.962 111.969 141.032C111.969 143.102 113.569 144.632 115.739 144.632ZM115.739 143.492C114.329 143.492 113.279 142.462 113.279 141.032C113.279 139.602 114.329 138.572 115.739 138.572C117.149 138.572 118.199 139.602 118.199 141.032C118.199 142.462 117.149 143.492 115.739 143.492ZM123.697 144.632C125.607 144.632 126.757 143.522 126.757 141.482V137.532H125.477V141.432C125.477 142.872 124.837 143.492 123.707 143.492C122.577 143.492 121.927 142.872 121.927 141.432V137.532H120.627V141.482C120.627 143.522 121.777 144.632 123.697 144.632ZM128.377 144.532H131.437C133.707 144.532 135.257 143.132 135.257 141.032C135.257 138.932 133.707 137.532 131.437 137.532H128.377V144.532ZM129.677 143.432V138.632H131.377C132.937 138.632 133.947 139.582 133.947 141.032C133.947 142.482 132.937 143.432 131.377 143.432H129.677ZM144.103 137.532L141.753 142.932L139.423 137.532H138.013L141.073 144.532H142.353L145.403 137.532H144.103ZM145.941 144.532H147.241V137.532H145.941V144.532ZM151.105 144.632C153.025 144.632 153.935 143.672 153.935 142.552C153.935 139.982 149.785 140.952 149.785 139.462C149.785 138.932 150.225 138.512 151.305 138.512C151.915 138.512 152.605 138.692 153.235 139.062L153.645 138.052C153.035 137.652 152.155 137.432 151.315 137.432C149.395 137.432 148.495 138.392 148.495 139.522C148.495 142.122 152.655 141.132 152.655 142.642C152.655 143.162 152.195 143.552 151.105 143.552C150.245 143.552 149.355 143.232 148.795 142.782L148.345 143.792C148.925 144.292 150.015 144.632 151.105 144.632ZM155.024 144.532H156.324V137.532H155.024V144.532ZM161.287 144.632C163.457 144.632 165.057 143.112 165.057 141.032C165.057 138.952 163.457 137.432 161.287 137.432C159.117 137.432 157.517 138.962 157.517 141.032C157.517 143.102 159.117 144.632 161.287 144.632ZM161.287 143.492C159.877 143.492 158.827 142.462 158.827 141.032C158.827 139.602 159.877 138.572 161.287 138.572C162.697 138.572 163.747 139.602 163.747 141.032C163.747 142.462 162.697 143.492 161.287 143.492ZM171.165 137.532V142.272L167.305 137.532H166.235V144.532H167.525V139.792L171.385 144.532H172.455V137.532H171.165ZM181.934 144.532H183.294L180.134 137.532H178.854L175.704 144.532H177.044L177.734 142.912H181.234L181.934 144.532ZM178.174 141.892L179.484 138.832L180.804 141.892H178.174ZM186.865 137.532H183.985V144.532H185.285V142.512H186.865C188.705 142.512 189.845 141.562 189.845 140.022C189.845 138.472 188.705 137.532 186.865 137.532ZM186.805 141.412H185.285V138.632H186.805C187.945 138.632 188.535 139.142 188.535 140.022C188.535 140.902 187.945 141.412 186.805 141.412ZM190.943 144.532H192.243V137.532H190.943V144.532Z" fill="#407ADE"/>
<g clip-path="url(#clip0)">
<path d="M38.5 36.4071L55.72 40.4815V8.42871L38.5 12.5031V36.4071Z" fill="#205B97"/>
<path d="M55.7203 8.42871L59.0003 10.0585V38.8517L55.7203 40.4815V8.42871ZM38.5003 36.4071L21.2803 40.4815V8.42871L38.5003 12.5031V36.4071Z" fill="#5193CE"/>
<path d="M21.28 8.42871L18 10.0585V38.8517L21.28 40.4815V8.42871Z" fill="#205B97"/>
<path d="M42.8747 47L49.4348 43.7405V5.25952L42.8747 2L40.8691 23.3685L42.8747 47Z" fill="#5193CE"/>
<path d="M34.1264 47L27.5664 43.7405V5.25952L34.1264 2L36.132 23.3685L34.1264 47Z" fill="#205B97"/>
<path d="M34.126 2H42.9632V46.9092H34.126V2Z" fill="#2E73B7"/>
</g>
<path d="M6.40695 62H7.76695L4.60695 55H3.32695L0.176952 62H1.51695L2.20695 60.38H5.70695L6.40695 62ZM2.64695 59.36L3.95695 56.3L5.27695 59.36H2.64695ZM17.0761 55L15.2861 60.35L13.5161 55H12.3161L10.5061 60.32L8.76609 55H7.41609L9.73609 62H11.1261L12.8861 56.82L14.6161 62H15.9961L18.3161 55H17.0761ZM21.3452 62.1C23.2652 62.1 24.1752 61.14 24.1752 60.02C24.1752 57.45 20.0252 58.42 20.0252 56.93C20.0252 56.4 20.4652 55.98 21.5452 55.98C22.1552 55.98 22.8452 56.16 23.4752 56.53L23.8852 55.52C23.2752 55.12 22.3952 54.9 21.5552 54.9C19.6352 54.9 18.7352 55.86 18.7352 56.99C18.7352 59.59 22.8952 58.6 22.8952 60.11C22.8952 60.63 22.4352 61.02 21.3452 61.02C20.4852 61.02 19.5952 60.7 19.0352 60.25L18.5852 61.26C19.1652 61.76 20.2552 62.1 21.3452 62.1ZM33.8079 62L32.1979 59.7C33.1479 59.33 33.6879 58.55 33.6879 57.49C33.6879 55.94 32.5479 55 30.7079 55H27.8279V62H29.1279V59.96H30.7079C30.7979 59.96 30.8879 59.96 30.9779 59.95L32.4079 62H33.8079ZM32.3779 57.49C32.3779 58.37 31.7879 58.89 30.6479 58.89H29.1279V56.1H30.6479C31.7879 56.1 32.3779 56.61 32.3779 57.49ZM36.2423 60.91V58.98H39.6223V57.91H36.2423V56.09H40.0523V55H34.9423V62H40.1923V60.91H36.2423ZM41.4416 62H44.5016C46.7716 62 48.3216 60.6 48.3216 58.5C48.3216 56.4 46.7716 55 44.5016 55H41.4416V62ZM42.7416 60.9V56.1H44.4416C46.0016 56.1 47.0116 57.05 47.0116 58.5C47.0116 59.95 46.0016 60.9 44.4416 60.9H42.7416ZM51.6733 62.1C53.5933 62.1 54.5033 61.14 54.5033 60.02C54.5033 57.45 50.3533 58.42 50.3533 56.93C50.3533 56.4 50.7933 55.98 51.8733 55.98C52.4833 55.98 53.1733 56.16 53.8033 56.53L54.2133 55.52C53.6033 55.12 52.7233 54.9 51.8833 54.9C49.9633 54.9 49.0633 55.86 49.0633 56.99C49.0633 59.59 53.2233 58.6 53.2233 60.11C53.2233 60.63 52.7633 61.02 51.6733 61.02C50.8133 61.02 49.9233 60.7 49.3633 60.25L48.9133 61.26C49.4933 61.76 50.5833 62.1 51.6733 62.1ZM60.5123 55V57.89H56.8923V55H55.5923V62H56.8923V59H60.5123V62H61.8123V55H60.5123ZM63.488 62H64.788V55H63.488V62ZM71.5914 56.09V55H66.4814V62H67.7814V59.32H71.1614V58.22H67.7814V56.09H71.5914ZM74.1174 62H75.4174V56.1H77.7374V55H71.7974V56.1H74.1174V62Z" fill="#2D72B8"/>
<path d="M230.374 18.4323L224.188 17.8926V31.0525L230.374 30.4298V18.4323Z" fill="#5294CF"/>
<path d="M230.374 18.4321L224.188 17.8925L241.583 14.4053V16.9376L230.374 18.4321Z" fill="#19486F"/>
<path d="M252.709 18.4737L258.894 17.9755L241.583 14.4053V16.9376L252.709 18.4737Z" fill="#19486F"/>
<path d="M241.499 31.9652L230.373 30.3877L224.271 31.0104L241.499 34.4561V31.9652Z" fill="#99BCE3"/>
<path d="M241.5 31.9648L252.75 30.3457L258.936 30.9684L241.5 34.4556V31.9648Z" fill="#99BCE3"/>
<path d="M252.708 18.4738L258.935 17.9756V30.9695L252.708 30.3883V18.4738Z" fill="#205B99"/>
<path d="M241.458 14.613V0L262.962 10.1294V38.6911L241.458 48.7791V34.3737L258.686 31.011V17.9756L241.458 14.613Z" fill="#5294CF"/>
<path d="M241.5 14.6545V0L220.037 10.1294V38.7327L241.5 48.8206V34.3322L224.355 31.011V17.8926L241.5 14.6545Z" fill="#205B99"/>
<path d="M230.084 24.4521L241.459 14.6963V34.3325L230.084 24.4521Z" fill="#205B99"/>
<path d="M252.917 24.4725L241.459 14.7373V34.332L252.917 24.4725Z" fill="#5294CF"/>
<path d="M198.721 61.8203H200.081L196.921 54.8203H195.641L192.491 61.8203H193.831L194.521 60.2003H198.021L198.721 61.8203ZM194.961 59.1803L196.271 56.1203L197.591 59.1803H194.961ZM209.39 54.8203L207.6 60.1703L205.83 54.8203H204.63L202.82 60.1403L201.08 54.8203H199.73L202.05 61.8203H203.44L205.2 56.6403L206.93 61.8203H208.31L210.63 54.8203H209.39ZM213.659 61.9203C215.579 61.9203 216.489 60.9603 216.489 59.8403C216.489 57.2703 212.339 58.2403 212.339 56.7503C212.339 56.2203 212.779 55.8003 213.859 55.8003C214.469 55.8003 215.159 55.9803 215.789 56.3503L216.199 55.3403C215.589 54.9403 214.709 54.7203 213.869 54.7203C211.949 54.7203 211.049 55.6803 211.049 56.8103C211.049 59.4103 215.209 58.4203 215.209 59.9303C215.209 60.4503 214.749 60.8403 213.659 60.8403C212.799 60.8403 211.909 60.5203 211.349 60.0703L210.899 61.0803C211.479 61.5803 212.569 61.9203 213.659 61.9203ZM226.122 61.8203L224.512 59.5203C225.462 59.1503 226.002 58.3703 226.002 57.3103C226.002 55.7603 224.862 54.8203 223.022 54.8203H220.142V61.8203H221.442V59.7803H223.022C223.112 59.7803 223.202 59.7803 223.292 59.7703L224.722 61.8203H226.122ZM224.692 57.3103C224.692 58.1903 224.102 58.7103 222.962 58.7103H221.442V55.9203H222.962C224.102 55.9203 224.692 56.4303 224.692 57.3103ZM228.556 60.7303V58.8003H231.936V57.7303H228.556V55.9103H232.366V54.8203H227.256V61.8203H232.506V60.7303H228.556ZM236.966 61.9203C238.116 61.9203 239.096 61.5103 239.746 60.7503L238.906 59.9503C238.396 60.5103 237.766 60.7803 237.036 60.7803C235.586 60.7803 234.536 59.7603 234.536 58.3203C234.536 56.8803 235.586 55.8603 237.036 55.8603C237.766 55.8603 238.396 56.1303 238.906 56.6803L239.746 55.8903C239.096 55.1303 238.116 54.7203 236.976 54.7203C234.826 54.7203 233.226 56.2303 233.226 58.3203C233.226 60.4103 234.826 61.9203 236.966 61.9203ZM243.915 61.9203C246.085 61.9203 247.685 60.4003 247.685 58.3203C247.685 56.2403 246.085 54.7203 243.915 54.7203C241.745 54.7203 240.145 56.2503 240.145 58.3203C240.145 60.3903 241.745 61.9203 243.915 61.9203ZM243.915 60.7803C242.505 60.7803 241.455 59.7503 241.455 58.3203C241.455 56.8903 242.505 55.8603 243.915 55.8603C245.325 55.8603 246.375 56.8903 246.375 58.3203C246.375 59.7503 245.325 60.7803 243.915 60.7803ZM253.643 60.4203C253.193 60.6803 252.703 60.7803 252.203 60.7803C250.723 60.7803 249.673 59.7403 249.673 58.3203C249.673 56.8703 250.723 55.8603 252.213 55.8603C252.963 55.8603 253.593 56.1103 254.143 56.6603L254.963 55.8603C254.303 55.1103 253.323 54.7203 252.153 54.7203C249.963 54.7203 248.363 56.2303 248.363 58.3203C248.363 60.4103 249.963 61.9203 252.133 61.9203C253.123 61.9203 254.143 61.6203 254.873 61.0303V58.2403H253.643V60.4203ZM261.318 54.8203V59.5603L257.458 54.8203H256.388V61.8203H257.678V57.0803L261.538 61.8203H262.608V54.8203H261.318ZM264.283 61.8203H265.583V54.8203H264.283V61.8203ZM268.697 61.8203H269.997V55.9203H272.317V54.8203H266.377V55.9203H268.697V61.8203ZM273.092 61.8203H274.392V54.8203H273.092V61.8203ZM279.356 61.9203C281.526 61.9203 283.126 60.4003 283.126 58.3203C283.126 56.2403 281.526 54.7203 279.356 54.7203C277.186 54.7203 275.586 56.2503 275.586 58.3203C275.586 60.3903 277.186 61.9203 279.356 61.9203ZM279.356 60.7803C277.946 60.7803 276.896 59.7503 276.896 58.3203C276.896 56.8903 277.946 55.8603 279.356 55.8603C280.766 55.8603 281.816 56.8903 281.816 58.3203C281.816 59.7503 280.766 60.7803 279.356 60.7803ZM289.234 54.8203V59.5603L285.374 54.8203H284.304V61.8203H285.594V57.0803L289.454 61.8203H290.524V54.8203H289.234Z" fill="#2D72B8"/>
<path d="M9.18059 144H10.5406L7.38059 137H6.10059L2.95059 144H4.29059L4.98059 142.38H8.48059L9.18059 144ZM5.42059 141.36L6.73059 138.3L8.05059 141.36H5.42059ZM19.8497 137L18.0597 142.35L16.2897 137H15.0897L13.2797 142.32L11.5397 137H10.1897L12.5097 144H13.8997L15.6597 138.82L17.3897 144H18.7697L21.0897 137H19.8497ZM24.1188 144.1C26.0388 144.1 26.9488 143.14 26.9488 142.02C26.9488 139.45 22.7988 140.42 22.7988 138.93C22.7988 138.4 23.2388 137.98 24.3188 137.98C24.9288 137.98 25.6188 138.16 26.2488 138.53L26.6588 137.52C26.0488 137.12 25.1688 136.9 24.3288 136.9C22.4088 136.9 21.5088 137.86 21.5088 138.99C21.5088 141.59 25.6688 140.6 25.6688 142.11C25.6688 142.63 25.2088 143.02 24.1188 143.02C23.2588 143.02 22.3688 142.7 21.8088 142.25L21.3588 143.26C21.9388 143.76 23.0288 144.1 24.1188 144.1ZM30.6015 144H35.5615V142.9H31.9015V137H30.6015V144ZM41.6767 144H43.0367L39.8767 137H38.5967L35.4467 144H36.7867L37.4767 142.38H40.9767L41.6767 144ZM37.9167 141.36L39.2267 138.3L40.5467 141.36H37.9167ZM51.3869 144L51.3769 137H50.3069L47.5769 141.64L44.7969 137H43.7269V144H44.9669V139.42L47.2669 143.2H47.8469L50.1469 139.36L50.1569 144H51.3869ZM58.0377 140.36C58.5777 140.07 58.9377 139.54 58.9377 138.82C58.9377 137.71 58.0377 137 56.3577 137H53.0777V144H56.5577C58.3577 144 59.2977 143.3 59.2977 142.1C59.2977 141.19 58.7877 140.6 58.0377 140.36ZM56.2177 138.02C57.1177 138.02 57.6277 138.34 57.6277 138.99C57.6277 139.63 57.1177 139.95 56.2177 139.95H54.3777V138.02H56.2177ZM56.4777 142.98H54.3777V140.96H56.4777C57.4577 140.96 57.9877 141.27 57.9877 141.97C57.9877 142.67 57.4577 142.98 56.4777 142.98ZM60.4851 144H63.5451C65.8151 144 67.3651 142.6 67.3651 140.5C67.3651 138.4 65.8151 137 63.5451 137H60.4851V144ZM61.7851 142.9V138.1H63.4851C65.0451 138.1 66.0551 139.05 66.0551 140.5C66.0551 141.95 65.0451 142.9 63.4851 142.9H61.7851ZM73.6892 144H75.0492L71.8892 137H70.6092L67.4592 144H68.7992L69.4892 142.38H72.9892L73.6892 144ZM69.9292 141.36L71.2392 138.3L72.5592 141.36H69.9292Z" fill="#FB7E14"/>
<path d="M39.0997 107.625C38.9421 107.849 38.8092 108.034 38.6813 108.22C36.6418 111.223 34.6028 114.226 32.5646 117.229C30.6684 120.022 28.7703 122.813 26.8701 125.603C26.8386 125.647 26.7982 125.684 26.7516 125.711C26.705 125.738 26.6531 125.755 26.5995 125.761C23.9169 125.738 21.2349 125.708 18.5535 125.673C18.5238 125.673 18.4931 125.665 18.4346 125.656C18.4562 125.6 18.4814 125.545 18.5099 125.492C20.381 122.59 22.252 119.688 24.1231 116.788C25.7826 114.217 27.4432 111.647 29.1047 109.077C30.946 106.222 32.7863 103.365 34.6256 100.506C34.8973 100.084 35.1798 99.6705 35.4376 99.2411C35.5037 99.1261 35.5235 98.9903 35.4931 98.8612C34.9974 97.2802 34.4918 95.7032 33.9872 94.1262C33.7711 93.4508 33.5451 92.7793 33.3428 92.0999C33.2774 91.8817 33.1693 91.8152 32.9463 91.8162C31.2609 91.8232 29.5855 91.8212 27.9051 91.8212C27.5859 91.8212 27.5849 91.8212 27.5849 91.5058C27.5849 89.4388 27.5849 87.3718 27.579 85.3048C27.579 85.0747 27.6543 85.0231 27.8704 85.0231C31.2537 85.0291 34.6375 85.0291 38.0221 85.0231C38.1007 85.0131 38.1803 85.032 38.2459 85.0764C38.3116 85.1207 38.3589 85.1875 38.379 85.2642C40.1634 89.7545 41.9479 94.2432 43.7324 98.7303C45.8143 103.963 47.8961 109.197 49.978 114.431C50.6244 116.056 51.2757 117.679 51.9152 119.308C51.9915 119.506 52.0708 119.544 52.2711 119.482C54.0446 118.934 55.8222 118.4 57.5947 117.851C57.8178 117.781 57.8991 117.828 57.9685 118.049C58.5732 119.951 59.1898 121.848 59.8025 123.747C59.8233 123.813 59.8392 123.879 59.864 123.97C59.7371 124.017 59.6181 124.07 59.4962 124.103C55.4646 125.382 51.4353 126.66 47.4084 127.94C47.2161 128 47.1586 127.935 47.0941 127.773C45.8642 124.655 44.6312 121.538 43.3953 118.422C42.1865 115.371 40.977 112.32 39.7669 109.27C39.5855 108.811 39.407 108.351 39.2256 107.893C39.1969 107.814 39.1572 107.746 39.0997 107.625V107.625Z" fill="#FA7E14"/>
<path d="M438.061 33.5477V14.9849V7.81196L430.233 5.44727L426.161 7.6149V31.2619L438.061 33.5477Z" fill="#3494D4"/>
<path d="M432.225 19.4975L426.735 19.006L430.225 18.3506L435.911 18.9241L432.225 19.4975Z" fill="#00436A"/>
<path d="M432.223 19.48L432.184 24.5162H435.911V18.9248L432.223 19.48Z" fill="#005A9F"/>
<path d="M441.072 48.3148V33.8549L430.252 31.9243V24.2806H426.763V18.9616L430.252 18.3706V5.44727L421 10.0177V38.3071L441.072 48.3148Z" fill="#005A9F"/>
<path d="M444.513 8.23006L451.896 5.59082L456.412 8.46641V31.6287L444.513 33.8347V8.23006Z" fill="#005A9F"/>
<path d="M440.981 30.251L430.176 31.9052L441.059 33.8352L451.825 31.9052L440.981 30.251Z" fill="#95BDE6"/>
<path d="M441.071 48.315V33.8636L451.841 31.9341V24.2162H455.457V19.0578L451.841 18.2703V5.59082L461 10.2373V38.2738L441.071 48.315Z" fill="#3494D4"/>
<path d="M449.973 19.4983L455.408 19.0548L451.811 18.208L446.376 18.8532L449.973 19.4983Z" fill="#00436A"/>
<path d="M449.922 19.5504L449.96 24.5162H446.376V18.9248L449.922 19.5504Z" fill="#3494D4"/>
<path d="M441.072 0L435.051 3.02828V15.7707L441.072 14.3942V0Z" fill="#005A9F"/>
<path d="M441.072 0L446.95 3.02828V15.7707L441.072 14.3942V0Z" fill="#3494D4"/>
<path d="M435.051 15.7719L441.02 16.6308L446.95 15.772L441.02 14.3369L435.051 15.7719Z" fill="#00436A"/>
<path d="M401.427 62H402.787L399.627 55H398.347L395.197 62H396.537L397.227 60.38H400.727L401.427 62ZM397.667 59.36L398.977 56.3L400.297 59.36H397.667ZM412.096 55L410.306 60.35L408.536 55H407.336L405.526 60.32L403.786 55H402.436L404.756 62H406.146L407.906 56.82L409.636 62H411.016L413.336 55H412.096ZM416.365 62.1C418.285 62.1 419.195 61.14 419.195 60.02C419.195 57.45 415.045 58.42 415.045 56.93C415.045 56.4 415.485 55.98 416.565 55.98C417.175 55.98 417.865 56.16 418.495 56.53L418.905 55.52C418.295 55.12 417.415 54.9 416.575 54.9C414.655 54.9 413.755 55.86 413.755 56.99C413.755 59.59 417.915 58.6 417.915 60.11C417.915 60.63 417.455 61.02 416.365 61.02C415.505 61.02 414.615 60.7 414.055 60.25L413.605 61.26C414.185 61.76 415.275 62.1 416.365 62.1ZM425.018 62.1C426.938 62.1 427.848 61.14 427.848 60.02C427.848 57.45 423.698 58.42 423.698 56.93C423.698 56.4 424.138 55.98 425.218 55.98C425.828 55.98 426.518 56.16 427.148 56.53L427.558 55.52C426.948 55.12 426.068 54.9 425.228 54.9C423.308 54.9 422.408 55.86 422.408 56.99C422.408 59.59 426.568 58.6 426.568 60.11C426.568 60.63 426.108 61.02 425.018 61.02C424.158 61.02 423.268 60.7 422.708 60.25L422.258 61.26C422.838 61.76 423.928 62.1 425.018 62.1ZM434.177 62H435.537L432.377 55H431.097L427.947 62H429.287L429.977 60.38H433.477L434.177 62ZM430.417 59.36L431.727 56.3L433.047 59.36H430.417ZM440.909 60.6C440.459 60.86 439.969 60.96 439.469 60.96C437.989 60.96 436.939 59.92 436.939 58.5C436.939 57.05 437.989 56.04 439.479 56.04C440.229 56.04 440.859 56.29 441.409 56.84L442.229 56.04C441.569 55.29 440.589 54.9 439.419 54.9C437.229 54.9 435.629 56.41 435.629 58.5C435.629 60.59 437.229 62.1 439.399 62.1C440.389 62.1 441.409 61.8 442.139 61.21V58.42H440.909V60.6ZM444.954 60.91V58.98H448.334V57.91H444.954V56.09H448.764V55H443.654V62H448.904V60.91H444.954ZM457.813 62L457.803 55H456.733L454.003 59.64L451.223 55H450.153V62H451.393V57.42L453.693 61.2H454.273L456.573 57.36L456.583 62H457.813ZM464.744 62H466.104L462.944 55H461.664L458.514 62H459.854L460.544 60.38H464.044L464.744 62ZM460.984 59.36L462.294 56.3L463.614 59.36H460.984ZM471.674 62H473.194L470.074 58.13L473.014 55H471.554L468.094 58.59V55H466.794V62H468.094V60.21L469.204 59.07L471.674 62ZM475.179 60.91V58.98H478.559V57.91H475.179V56.09H478.989V55H473.879V62H479.129V60.91H475.179ZM486.359 62L484.749 59.7C485.699 59.33 486.239 58.55 486.239 57.49C486.239 55.94 485.099 55 483.259 55H480.379V62H481.679V59.96H483.259C483.349 59.96 483.439 59.96 483.529 59.95L484.959 62H486.359ZM484.929 57.49C484.929 58.37 484.339 58.89 483.199 58.89H481.679V56.1H483.199C484.339 56.1 484.929 56.61 484.929 57.49Z" fill="#2D72B8"/>
<g clip-path="url(#clip1)">
<path d="M329.268 24.2262H324.885V38.8447L329.268 37.8759V24.2262Z" fill="#F68536"/>
<path d="M334.736 24.1948H329.268L329.268 40.9634L334.736 39.4625L334.736 24.1948ZM341.751 24.1948H334.736L334.736 43.6077L341.751 41.1263V24.1948ZM360.507 24.1948H341.751V47L360.507 37.9311V24.1948Z" fill="#F68536"/>
<path d="M338.011 45.1919L341.75 47V24.2019H338.011V45.1919ZM331.841 42.2089L334.735 43.6083V24.2019H331.841V42.2089ZM326.962 39.8492L329.267 40.964V24.2019H326.962V39.8492ZM324.884 38.8451L323.004 37.9359V24.2019H324.884V38.8451Z" fill="#9D5025"/>
<path d="M322.564 20.0441V11.3706L341.306 2V16.869L322.564 20.0441Z" fill="#9D5025"/>
<path d="M360.434 20.0441V11.3706L341.306 2V16.869L360.434 20.0441Z" fill="#F68536"/>
<path d="M360.434 20.0443L341.306 21.6706L322.564 20.0443L341.306 16.8691L360.434 20.0443Z" fill="#8C4720"/>
</g>
<path d="M323.267 62H324.627L321.467 55H320.187L317.037 62H318.377L319.067 60.38H322.567L323.267 62ZM319.507 59.36L320.817 56.3L322.137 59.36H319.507ZM333.936 55L332.146 60.35L330.376 55H329.176L327.366 60.32L325.626 55H324.276L326.596 62H327.986L329.746 56.82L331.476 62H332.856L335.176 55H333.936ZM338.206 62.1C340.126 62.1 341.036 61.14 341.036 60.02C341.036 57.45 336.886 58.42 336.886 56.93C336.886 56.4 337.326 55.98 338.406 55.98C339.016 55.98 339.706 56.16 340.336 56.53L340.746 55.52C340.136 55.12 339.256 54.9 338.416 54.9C336.496 54.9 335.596 55.86 335.596 56.99C335.596 59.59 339.756 58.6 339.756 60.11C339.756 60.63 339.296 61.02 338.206 61.02C337.346 61.02 336.456 60.7 335.896 60.25L335.446 61.26C336.026 61.76 337.116 62.1 338.206 62.1ZM345.988 60.91V58.98H349.368V57.91H345.988V56.09H349.798V55H344.688V62H349.938V60.91H345.988ZM358.847 62L358.837 55H357.767L355.037 59.64L352.257 55H351.187V62H352.427V57.42L354.727 61.2H355.307L357.607 57.36L357.617 62H358.847ZM366.518 62L364.908 59.7C365.858 59.33 366.398 58.55 366.398 57.49C366.398 55.94 365.258 55 363.418 55H360.538V62H361.838V59.96H363.418C363.508 59.96 363.598 59.96 363.688 59.95L365.118 62H366.518ZM365.088 57.49C365.088 58.37 364.498 58.89 363.358 58.89H361.838V56.1H363.358C364.498 56.1 365.088 56.61 365.088 57.49Z" fill="#F58536"/>
<defs>
<clipPath id="clip0">
<rect width="41" height="45" fill="white" transform="translate(18 2)"/>
</clipPath>
<clipPath id="clip1">
<rect width="37.5114" height="45" fill="white" transform="matrix(1 0 0 -1 323 47)"/>
</clipPath>
</defs>
</svg>
