<svg width="472" height="130" viewBox="0 0 472 130" fill="none" xmlns="http://www.w3.org/2000/svg">
<path d="M121.184 119.677L116.019 112.25C119.067 111.055 120.799 108.536 120.799 105.112C120.799 100.107 117.142 97.0713 111.239 97.0713H102V119.677H106.17V113.089H111.239C111.528 113.089 111.817 113.089 112.105 113.057L116.693 119.677H121.184ZM116.596 105.112C116.596 107.954 114.704 109.634 111.047 109.634H106.17V100.624H111.047C114.704 100.624 116.596 102.271 116.596 105.112Z" fill="#8BB907"/>
<path d="M129.066 119.677H133.236V100.624H140.679V97.0713H121.624V100.624H129.066V119.677Z" fill="#8BB907"/>
<path d="M153.342 120C160.304 120 165.437 115.092 165.437 108.374C165.437 101.657 160.304 96.748 153.342 96.748C146.381 96.748 141.248 101.689 141.248 108.374C141.248 115.059 146.381 120 153.342 120ZM153.342 116.319C148.819 116.319 145.451 112.992 145.451 108.374C145.451 103.756 148.819 100.43 153.342 100.43C157.866 100.43 161.234 103.756 161.234 108.374C161.234 112.992 157.866 116.319 153.342 116.319Z" fill="#8BB907"/>
<path d="M176.178 120C182.337 120 185.257 116.9 185.257 113.282C185.257 104.983 171.943 108.116 171.943 103.304C171.943 101.592 173.355 100.236 176.819 100.236C178.776 100.236 180.99 100.817 183.011 102.012L184.327 98.7503C182.37 97.4585 179.547 96.748 176.852 96.748C170.692 96.748 167.805 99.8483 167.805 103.498C167.805 111.894 181.15 108.697 181.15 113.573C181.15 115.253 179.675 116.512 176.178 116.512C173.419 116.512 170.564 115.479 168.767 114.026L167.324 117.287C169.184 118.902 172.681 120 176.178 120Z" fill="#8BB907"/>
<path d="M243.56 5.2025C243.578 5.07741 243.56 5.00589 243.578 4.95232C244.266 3.14801 244.266 3.14801 245.963 4.02338C254.494 8.34664 259.687 17.6181 258.697 27.176C257.797 35.8589 253.363 42.1999 245.697 46.2198C244.285 46.952 244.285 46.9349 243.701 45.4693C243.631 45.3094 243.595 45.13 243.524 44.9335C251.791 40.9502 256.579 34.4652 256.579 25.1038C256.579 15.7253 251.862 9.20419 243.56 5.2025Z" fill="black"/>
<path d="M240.645 38.4655C246.244 35.7319 249.618 31.4801 249.6 24.9951C249.564 18.5821 246.279 14.2944 240.715 11.6681C240.697 11.5968 240.68 11.561 240.68 11.5432C241.174 9.68518 241.387 9.54228 243.029 10.4356C248.134 13.2224 251.084 17.5094 251.738 23.3696C252.532 30.4624 248.576 36.9108 242.746 39.7701C241.439 40.4132 241.439 40.4303 240.857 39.0549C240.768 38.8939 240.715 38.6974 240.645 38.4655Z" fill="black"/>
<path d="M244.56 24.8252C244.486 26.7583 244.008 28.3704 243.149 29.7055C242.285 31.0479 241.012 32.1462 239.295 33.0078C239.16 33.0761 239.057 33.1212 238.976 33.1481C238.932 33.1615 238.904 33.1676 238.887 33.1688C238.865 33.1457 238.822 33.0859 238.768 32.9589L238.767 32.9577C238.744 32.9016 238.722 32.8491 238.701 32.8003C238.606 32.5794 238.541 32.4269 238.499 32.306C238.583 32.2633 238.702 32.2084 238.883 32.1254L238.889 32.123C240.364 31.4311 241.514 30.4816 242.295 29.2869C243.077 28.0909 243.468 26.6826 243.478 25.1071C243.487 23.4938 243.098 22.0587 242.301 20.8505C241.506 19.6436 240.329 18.699 238.823 18.0254L238.818 18.0241C238.617 17.9363 238.527 17.8679 238.489 17.8325L238.486 17.8301C238.489 17.8118 238.495 17.7801 238.511 17.7276C238.544 17.6251 238.595 17.5042 238.673 17.3249L238.675 17.3188C238.784 17.0637 238.86 16.999 238.878 16.9868C238.887 16.9856 238.913 16.9844 238.966 16.9954C239.045 17.0124 239.159 17.0527 239.32 17.1296C242.654 18.7808 244.344 21.3838 244.56 24.8252Z" fill="black"/>
<path d="M238.883 16.9844C238.883 16.9844 238.882 16.9844 238.879 16.9856M244.56 24.8252C244.486 26.7583 244.008 28.3704 243.149 29.7055C242.285 31.0479 241.012 32.1462 239.295 33.0078C239.16 33.0761 239.057 33.1212 238.976 33.1481C238.932 33.1615 238.904 33.1676 238.887 33.1688C238.865 33.1457 238.822 33.0859 238.768 32.9589L238.767 32.9577C238.744 32.9016 238.722 32.8491 238.701 32.8003C238.606 32.5794 238.541 32.4269 238.499 32.306C238.583 32.2633 238.702 32.2084 238.883 32.1254L238.889 32.123C240.364 31.4311 241.514 30.4816 242.295 29.2869C243.077 28.0909 243.468 26.6826 243.478 25.1071C243.487 23.4938 243.098 22.0587 242.301 20.8505C241.506 19.6436 240.329 18.699 238.823 18.0254L238.818 18.0241C238.617 17.9363 238.527 17.8679 238.489 17.8325L238.486 17.8301C238.489 17.8118 238.495 17.7801 238.511 17.7276C238.544 17.6251 238.595 17.5042 238.673 17.3249L238.675 17.3188C238.784 17.0637 238.86 16.999 238.878 16.9868C238.887 16.9856 238.913 16.9844 238.966 16.9954C239.045 17.0124 239.159 17.0527 239.32 17.1296C242.654 18.7808 244.344 21.3838 244.56 24.8252Z" stroke="black"/>
<path d="M226.258 5.2025C226.239 5.07741 226.258 5.00589 226.239 4.95232C225.551 3.14801 225.551 3.14801 223.855 4.02338C215.323 8.34664 210.131 17.6181 211.12 27.176C212.021 35.8589 216.455 42.1999 224.121 46.2198C225.533 46.952 225.533 46.9349 226.116 45.4693C226.187 45.3094 226.222 45.13 226.293 44.9335C218.026 40.9502 213.239 34.4652 213.239 25.1038C213.239 15.7253 217.956 9.20419 226.258 5.2025Z" fill="black"/>
<path d="M229.172 38.4655C223.573 35.7319 220.199 31.4801 220.217 24.9951C220.252 18.5821 223.538 14.2944 229.101 11.6681C229.12 11.5968 229.137 11.561 229.137 11.5432C228.642 9.68518 228.43 9.54228 226.787 10.4356C221.683 13.2224 218.733 17.5094 218.079 23.3696C217.284 30.4624 221.241 36.9108 227.071 39.7701C228.378 40.4132 228.378 40.4303 228.96 39.0549C229.049 38.8939 229.101 38.6974 229.172 38.4655Z" fill="black"/>
<path d="M225.259 24.8252C225.333 26.7583 225.81 28.3704 226.67 29.7055C227.534 31.0479 228.806 32.1462 230.523 33.0078C230.659 33.0761 230.761 33.1212 230.843 33.1481C230.887 33.1615 230.915 33.1676 230.932 33.1688C230.954 33.1457 230.997 33.0859 231.051 32.9589L231.052 32.9577C231.075 32.9016 231.097 32.8491 231.118 32.8003C231.213 32.5794 231.278 32.4269 231.32 32.306C231.236 32.2633 231.117 32.2084 230.936 32.1254L230.93 32.123C229.454 31.4311 228.305 30.4816 227.524 29.2869C226.742 28.0909 226.351 26.6826 226.341 25.1071C226.332 23.4938 226.721 22.0587 227.518 20.8505C228.313 19.6436 229.49 18.699 230.996 18.0254L231.001 18.0241C231.202 17.9363 231.292 17.8679 231.33 17.8325L231.333 17.8301C231.33 17.8118 231.324 17.7801 231.308 17.7276C231.275 17.6251 231.224 17.5042 231.146 17.3249L231.143 17.3188C231.035 17.0637 230.959 16.999 230.941 16.9868C230.932 16.9856 230.905 16.9844 230.853 16.9954C230.774 17.0124 230.66 17.0527 230.499 17.1296C227.165 18.7808 225.475 21.3838 225.259 24.8252Z" fill="black"/>
<path d="M230.936 16.9844C230.936 16.9844 230.937 16.9844 230.94 16.9856M225.259 24.8252C225.333 26.7583 225.81 28.3704 226.67 29.7055C227.534 31.0479 228.806 32.1462 230.523 33.0078C230.659 33.0761 230.761 33.1212 230.843 33.1481C230.887 33.1615 230.915 33.1676 230.932 33.1688C230.954 33.1457 230.997 33.0859 231.051 32.9589L231.052 32.9577C231.075 32.9016 231.097 32.8491 231.118 32.8003C231.213 32.5794 231.278 32.4269 231.32 32.306C231.236 32.2633 231.117 32.2084 230.936 32.1254L230.93 32.123C229.454 31.4311 228.305 30.4816 227.524 29.2869C226.742 28.0909 226.351 26.6826 226.341 25.1071C226.332 23.4938 226.721 22.0587 227.518 20.8505C228.313 19.6436 229.49 18.699 230.996 18.0254L231.001 18.0241C231.202 17.9363 231.292 17.8679 231.33 17.8325L231.333 17.8301C231.33 17.8118 231.324 17.7801 231.308 17.7276C231.275 17.6251 231.224 17.5042 231.146 17.3249L231.143 17.3188C231.035 17.0637 230.959 16.999 230.941 16.9868C230.932 16.9856 230.905 16.9844 230.853 16.9954C230.774 17.0124 230.66 17.0527 230.499 17.1296C227.165 18.7808 225.475 21.3838 225.259 24.8252Z" stroke="black"/>
<path d="M235.02 28.1555C236.705 28.1555 238.071 26.7896 238.071 25.1046C238.071 23.4196 236.705 22.0537 235.02 22.0537C233.335 22.0537 231.969 23.4196 231.969 25.1046C231.969 26.7896 233.335 28.1555 235.02 28.1555Z" fill="black"/>
<path d="M152.924 15.0024C152.924 14.1472 152.742 13.3914 152.375 12.7428C152.014 12.1051 151.474 11.5705 150.75 11.1478C144.769 7.67403 138.782 4.21081 132.803 0.733429C131.191 -0.203954 129.628 -0.169781 128.028 0.78106C125.648 2.19528 113.729 9.07373 110.177 11.1459C108.714 11.9988 108.003 13.3041 108.002 15.0008C108 21.9869 108.002 28.9728 108 35.9591C108 36.7956 108.174 37.5366 108.525 38.1754C108.886 38.8325 109.434 39.3818 110.175 39.814C113.727 41.8862 125.647 48.7641 128.027 50.1787C129.628 51.1301 131.191 51.1641 132.803 50.2263C138.783 46.7488 144.77 43.2857 150.752 39.8119C151.493 39.3798 152.041 38.8302 152.401 38.1737C152.752 37.5348 152.926 36.7938 152.927 35.9572C152.927 35.9572 152.927 21.9887 152.924 15.0024Z" fill="#9A4993"/>
<path d="M130.532 25.4102L108.525 38.1738C108.886 38.8309 109.434 39.3802 110.175 39.8124C113.727 41.8846 125.647 48.7625 128.027 50.1771C129.628 51.1285 131.191 51.1625 132.803 50.2247C138.783 46.7472 144.77 43.2841 150.752 39.8103C151.493 39.3782 152.041 38.8286 152.401 38.172L130.532 25.4102Z" fill="#6A1577"/>
<path d="M124.014 29.1909C125.294 31.4428 127.702 32.9616 130.463 32.9616C133.242 32.9616 135.663 31.4235 136.937 29.1475L130.532 25.4102L124.014 29.1909Z" fill="#6A1577"/>
<path d="M152.924 15.0007C152.924 14.1455 152.742 13.3897 152.375 12.7412L130.532 25.4102L152.401 38.172C152.752 37.5332 152.926 36.7922 152.927 35.9555C152.927 35.9555 152.927 21.987 152.924 15.0007Z" fill="#813084"/>
<path d="M136.937 29.1478C135.663 31.4238 133.242 32.9619 130.463 32.9619C127.702 32.9619 125.294 31.4431 124.014 29.1912C123.37 28.0612 123.033 26.781 123.034 25.4784C123.034 21.3456 126.36 17.9951 130.463 17.9951C133.207 17.9951 135.602 19.495 136.888 21.7239L143.382 17.9574C140.801 13.4695 135.982 10.4502 130.463 10.4502C122.223 10.4502 115.544 17.1787 115.544 25.4784C115.544 28.2014 116.263 30.7548 117.52 32.9573C120.094 37.469 124.927 40.5069 130.463 40.5069C136.01 40.5069 140.85 37.4568 143.421 32.9318L136.937 29.1478Z" fill="white"/>
<path fill-rule="evenodd" clip-rule="evenodd" d="M143.6 30V28.4H142V26.8H143.6V25.2H142V23.6H143.6V22H145.2V23.6H146.8V22H148.4V23.6H150V25.2H148.4V26.8H150V28.4H148.4V30H146.8V28.4H145.2V30H143.6ZM146.8 26.8V25.2H145.2V26.8H146.8Z" fill="white"/>
<path d="M16.5891 88C12.5493 88 6.27203 88.0121 5.09116 88.0851C3.32606 88.1703 2.14519 89.4233 2.07061 91.0291C1.99602 92.6227 1.95873 122.306 2.07061 123.923C2.17005 125.517 3.4255 126.733 5.09116 126.831C6.93083 126.94 12.8725 126.965 14.5878 126.965C11.5176 124.896 11.1074 121.016 10.8215 113.802C10.6475 109.532 10.809 94.5569 10.8215 93.9122L10.9085 89.8369L26.956 105.542V110.457L14.1777 97.9631C14.1403 100.433 14.1155 103.656 14.1155 106.601C14.1155 109.471 14.1653 112.075 14.2522 113.437C14.7371 121.296 15.4829 124.994 19.6718 126.429C20.9521 126.867 22.1454 126.965 24.1343 126.989C25.7751 127.014 37.2606 127.001 38.9138 126.903C40.6665 126.818 41.8474 125.566 41.9344 123.948C42.009 122.354 42.0339 92.7443 41.9344 91.1385C41.8101 89.5571 40.5671 88.3528 38.9138 88.2554C37.0742 88.1459 31.1325 88.0608 29.4172 88.0608C32.4626 90.1289 32.8852 93.9973 33.1711 101.199C33.3451 105.469 33.1835 120.444 33.1711 121.077L33.0841 125.176L17.049 109.483V104.569L29.8149 117.05C29.8523 114.581 29.8771 111.357 29.8771 108.413C29.8771 105.542 29.8273 102.95 29.7404 101.576C29.268 93.7175 28.5097 90.0437 24.3208 88.5961C23.0404 88.1581 21.8472 88.0365 19.8583 88.0121H16.5891V88Z" fill="url(#paint0_linear)"/>
<path d="M256.981 107.441C260.078 110.545 263.089 113.561 266.042 116.532C261.569 121.056 257.169 125.491 252.711 130C252.711 124.042 252.711 118.099 252.711 112.141C252.639 112.126 252.581 112.097 252.508 112.082C249.917 114.746 247.327 117.411 244.75 120.046C243.795 119.05 242.955 118.186 242 117.206C245.199 114.058 248.455 110.852 251.799 107.573C248.427 104.133 245.213 100.854 242.043 97.6187C242.912 96.7258 243.737 95.8767 244.649 94.9398C247.24 97.5602 249.859 100.21 252.653 103.035C252.653 96.8282 252.653 90.8702 252.653 85C257.053 89.4502 261.468 93.9151 265.984 98.4678C263.089 101.352 260.064 104.367 256.981 107.441ZM256.46 102.493C256.633 102.42 256.72 102.406 256.764 102.362C258.008 101.103 259.253 99.8439 260.512 98.5995C260.86 98.2628 260.628 98.0579 260.397 97.8237C259.253 96.6672 258.11 95.5107 256.966 94.3543C256.851 94.2372 256.691 94.1493 256.46 93.9736C256.46 96.8722 256.46 99.6389 256.46 102.493ZM256.503 112.316C256.503 115.303 256.503 118.084 256.503 121.056C257.951 119.592 259.268 118.274 260.541 116.927C260.643 116.825 260.541 116.386 260.397 116.239C259.47 115.244 258.501 114.292 257.545 113.326C257.241 113.019 256.923 112.726 256.503 112.316ZM256.257 94.6763C256.228 94.6763 256.214 94.6763 256.185 94.6763C256.185 96.9746 256.185 99.2729 256.185 101.571C256.214 101.571 256.228 101.571 256.257 101.571C256.257 99.2729 256.257 96.9746 256.257 94.6763ZM256.17 120.075C256.199 120.075 256.228 120.075 256.243 120.075C256.243 117.82 256.243 115.581 256.243 113.326C256.214 113.326 256.185 113.326 256.17 113.326C256.17 115.581 256.17 117.82 256.17 120.075Z" fill="#287FB9"/>
<path d="M272.497 91.1921C272.512 91.0896 272.497 91.0311 272.512 90.9872C273.076 89.5086 273.076 89.5086 274.466 90.2259C281.457 93.7686 285.712 101.366 284.902 109.198C284.163 116.313 280.53 121.509 274.249 124.803C273.091 125.403 273.091 125.389 272.613 124.188C272.555 124.057 272.526 123.91 272.468 123.749C279.242 120.485 283.165 115.171 283.165 107.5C283.165 99.8144 279.3 94.4712 272.497 91.1921Z" fill="#94A4A4"/>
<path d="M270.109 118.45C274.697 116.21 277.462 112.726 277.447 107.412C277.418 102.157 274.726 98.644 270.167 96.4921C270.152 96.4335 270.138 96.4043 270.138 96.3896C270.543 94.8672 270.717 94.7501 272.063 95.482C276.246 97.7657 278.663 101.279 279.199 106.08C279.85 111.892 276.608 117.176 271.831 119.519C270.76 120.046 270.76 120.06 270.283 118.933C270.21 118.801 270.167 118.64 270.109 118.45Z" fill="#94A4A4"/>
<path d="M273.568 107.266C273.453 110.603 271.991 112.946 269.168 114.424C268.72 114.658 268.358 114.776 268.097 114.131C267.692 113.136 267.663 113.165 268.43 112.799C270.616 111.731 271.745 109.915 271.759 107.5C271.774 105.026 270.616 103.196 268.387 102.157C267.648 101.82 267.793 101.483 268.025 100.927C268.285 100.283 268.604 100.224 269.183 100.517C271.962 101.952 273.395 104.25 273.568 107.266Z" fill="#94A4A4"/>
<path d="M256.214 103.006C256.246 103.006 256.272 100.823 256.272 98.1307C256.272 95.4384 256.246 93.2559 256.214 93.2559C256.182 93.2559 256.156 95.4384 256.156 98.1307C256.156 100.823 256.182 103.006 256.214 103.006Z" fill="#979797"/>
<path d="M256.17 120.075C256.17 117.835 256.17 115.581 256.17 113.341C256.199 113.341 256.228 113.341 256.243 113.341C256.243 115.595 256.243 117.835 256.243 120.089C256.214 120.075 256.185 120.075 256.17 120.075Z" fill="#979797"/>
<path d="M338.537 27.1932C340.115 27.1932 341.394 25.9292 341.394 24.3701C341.394 22.8109 340.115 21.5469 338.537 21.5469C336.96 21.5469 335.681 22.8109 335.681 24.3701C335.681 25.9292 336.96 27.1932 338.537 27.1932Z" fill="url(#paint1_radial)"/>
<path d="M338.537 18.5107C335.271 18.5107 332.609 21.1421 332.609 24.37C332.609 26.5752 333.848 28.5035 335.681 29.5049V28.7592C334.226 27.8323 333.255 26.213 333.255 24.37C333.255 21.4936 335.627 19.1499 338.537 19.1499C341.448 19.1499 343.819 21.4936 343.819 24.37C343.819 26.213 342.849 27.8323 341.394 28.7592V29.5049C343.226 28.5035 344.466 26.5752 344.466 24.37C344.466 21.1421 341.803 18.5107 338.537 18.5107Z" fill="url(#paint2_radial)"/>
<path d="M338.537 15.4326C333.546 15.4326 329.493 19.4382 329.493 24.3706C329.493 28.3123 332.091 31.6681 335.681 32.8506V32.1795C332.447 31.0183 330.14 27.9608 330.14 24.3706C330.14 19.7897 333.913 16.0717 338.537 16.0717C343.172 16.0717 346.934 19.8004 346.934 24.3706C346.934 27.9608 344.617 31.0183 341.394 32.1795V32.8506C344.983 31.6681 347.581 28.3123 347.581 24.3706C347.581 19.4382 343.517 15.4326 338.537 15.4326Z" fill="url(#paint3_radial)"/>
<path d="M338.537 12.332C331.822 12.332 326.357 17.7333 326.357 24.3703C326.357 30.0378 330.345 34.7998 335.681 36.0782V35.4177C330.701 34.1606 327.003 29.6862 327.003 24.3703C327.003 18.0848 332.178 12.9712 338.537 12.9712C344.897 12.9712 350.071 18.0848 350.071 24.3703C350.071 29.6862 346.374 34.1606 341.394 35.4177V36.0782C346.741 34.7998 350.718 30.0378 350.718 24.3703C350.718 17.7333 345.253 12.332 338.537 12.332Z" fill="url(#paint4_radial)"/>
<path d="M338.537 9.27441C330.108 9.27441 323.252 16.0499 323.252 24.3701C323.252 31.7315 328.609 37.8784 335.67 39.2101V38.5602C328.965 37.2392 323.899 31.3799 323.899 24.3701C323.899 16.4014 330.464 9.91361 338.537 9.91361C346.611 9.91361 353.165 16.4014 353.165 24.3701C353.165 31.3799 348.099 37.2392 341.394 38.5496V39.1994C348.454 37.8784 353.812 31.7315 353.812 24.3594C353.812 16.0499 346.956 9.27441 338.537 9.27441Z" fill="url(#paint5_radial)"/>
<path d="M338.537 6.19629C328.394 6.19629 320.137 14.3461 320.137 24.3708C320.137 33.4367 326.885 40.9686 335.681 42.3322V41.6823C327.24 40.3294 320.784 33.0851 320.784 24.3708C320.784 14.6976 328.75 6.82484 338.537 6.82484C348.325 6.82484 356.291 14.6976 356.291 24.3708C356.291 33.0851 349.834 40.3294 341.394 41.6823V42.3322C350.19 40.9686 356.938 33.4367 356.938 24.3708C356.927 14.3461 348.67 6.19629 338.537 6.19629Z" fill="url(#paint6_radial)"/>
<path d="M338.537 3.09668C326.658 3.09668 317 12.642 317 24.3712C317 35.1523 325.149 44.0798 335.681 45.4647V44.8148C325.505 43.4406 317.647 34.8008 317.647 24.3712C317.647 12.9936 327.014 3.73588 338.537 3.73588C350.05 3.73588 359.428 12.9936 359.428 24.3819C359.428 34.8114 351.57 43.4512 341.394 44.8255V45.4753C351.925 44.0904 360.075 35.163 360.075 24.3819C360.064 12.642 350.405 3.09668 338.537 3.09668Z" fill="url(#paint7_radial)"/>
<path d="M338.537 27.0975C340.115 27.0975 341.394 25.8335 341.394 24.2744C341.394 22.7152 340.115 21.4512 338.537 21.4512C336.96 21.4512 335.681 22.7152 335.681 24.2744C335.681 25.8335 336.96 27.0975 338.537 27.0975Z" fill="url(#paint8_radial)"/>
<path d="M338.537 45.5598C326.658 45.5598 317 36.0145 317 24.2746C317 12.5347 326.658 3 338.537 3C350.405 3 360.075 12.5453 360.075 24.2852C360.075 36.0251 350.405 45.5598 338.537 45.5598ZM338.537 3.6392C327.014 3.6392 317.647 12.8969 317.647 24.2746C317.647 35.6522 327.014 44.9206 338.537 44.9206C350.061 44.9206 359.428 35.6629 359.428 24.2746C359.428 12.8862 350.05 3.6392 338.537 3.6392Z" fill="url(#paint9_radial)"/>
<path d="M338.537 18.415C335.271 18.415 332.609 21.0463 332.609 24.2743C332.609 26.4795 333.848 28.4077 335.681 29.4091V28.6634C334.226 27.7366 333.255 26.1173 333.255 24.2743C333.255 21.3979 335.627 19.0542 338.537 19.0542C341.448 19.0542 343.819 21.3979 343.819 24.2743C343.819 26.1173 342.849 27.7366 341.394 28.6634V29.4091C343.226 28.4077 344.466 26.4795 344.466 24.2743C344.466 21.0463 341.803 18.415 338.537 18.415Z" fill="url(#paint10_radial)"/>
<path d="M338.537 15.3359C333.546 15.3359 329.493 19.3416 329.493 24.274C329.493 28.2157 332.091 31.5715 335.681 32.754V32.0828C332.447 30.9216 330.14 27.8642 330.14 24.274C330.14 19.6931 333.913 15.9751 338.537 15.9751C343.162 15.9751 346.934 19.7038 346.934 24.274C346.934 27.8642 344.617 30.9216 341.394 32.0828V32.754C344.983 31.5715 347.581 28.2157 347.581 24.274C347.581 19.3522 343.517 15.3359 338.537 15.3359Z" fill="url(#paint11_radial)"/>
<path d="M338.537 12.2363C331.822 12.2363 326.357 17.6375 326.357 24.2745C326.357 29.9421 330.345 34.7041 335.681 35.9825V35.3219C330.701 34.0649 327.003 29.5905 327.003 24.2745C327.003 17.9891 332.178 12.8755 338.537 12.8755C344.897 12.8755 350.071 17.9891 350.071 24.2745C350.071 29.5905 346.374 34.0649 341.394 35.3219V35.9825C346.741 34.7041 350.718 29.9421 350.718 24.2745C350.718 17.6375 345.253 12.2363 338.537 12.2363Z" fill="url(#paint12_radial)"/>
<path d="M338.537 9.17871C330.108 9.17871 323.252 15.9542 323.252 24.2744C323.252 31.6358 328.609 37.7828 335.67 39.1144V38.4646C328.965 37.1436 323.899 31.2843 323.899 24.2744C323.899 16.3058 330.464 9.8179 338.537 9.8179C346.611 9.8179 353.165 16.3058 353.165 24.2744C353.165 31.2843 348.099 37.1436 341.394 38.4539V39.1038C348.454 37.7828 353.812 31.6358 353.812 24.2638C353.812 15.9542 346.956 9.17871 338.537 9.17871Z" fill="url(#paint13_radial)"/>
<path d="M338.537 6.10059C328.394 6.10059 320.137 14.2503 320.137 24.2751C320.137 33.341 326.885 40.8728 335.681 42.2365V41.5866C327.24 40.2336 320.784 32.9894 320.784 24.2751C320.784 14.6019 328.75 6.73978 338.537 6.73978C348.325 6.73978 356.28 14.6019 356.28 24.2751C356.28 32.9894 349.823 40.2336 341.383 41.5866V42.2365C350.179 40.8728 356.927 33.341 356.927 24.2751C356.927 14.2503 348.67 6.10059 338.537 6.10059Z" fill="url(#paint14_radial)"/>
<path d="M316.277 63H317.577V56H316.277V63ZM324.231 59.36C324.771 59.07 325.131 58.54 325.131 57.82C325.131 56.71 324.231 56 322.551 56H319.271V63H322.751C324.551 63 325.491 62.3 325.491 61.1C325.491 60.19 324.981 59.6 324.231 59.36ZM322.411 57.02C323.311 57.02 323.821 57.34 323.821 57.99C323.821 58.63 323.311 58.95 322.411 58.95H320.571V57.02H322.411ZM322.671 61.98H320.571V59.96H322.671C323.651 59.96 324.181 60.27 324.181 60.97C324.181 61.67 323.651 61.98 322.671 61.98ZM327.978 61.91V59.98H331.358V58.91H327.978V57.09H331.788V56H326.678V63H331.928V61.91H327.978ZM338.417 63H339.777L336.617 56H335.337L332.187 63H333.527L334.217 61.38H337.717L338.417 63ZM334.657 60.36L335.967 57.3L337.287 60.36H334.657ZM343.61 63.1C344.76 63.1 345.74 62.69 346.39 61.93L345.55 61.13C345.04 61.69 344.41 61.96 343.68 61.96C342.23 61.96 341.18 60.94 341.18 59.5C341.18 58.06 342.23 57.04 343.68 57.04C344.41 57.04 345.04 57.31 345.55 57.86L346.39 57.07C345.74 56.31 344.76 55.9 343.62 55.9C341.47 55.9 339.87 57.41 339.87 59.5C339.87 61.59 341.47 63.1 343.61 63.1ZM350.559 63.1C352.729 63.1 354.329 61.58 354.329 59.5C354.329 57.42 352.729 55.9 350.559 55.9C348.389 55.9 346.789 57.43 346.789 59.5C346.789 61.57 348.389 63.1 350.559 63.1ZM350.559 61.96C349.149 61.96 348.099 60.93 348.099 59.5C348.099 58.07 349.149 57.04 350.559 57.04C351.969 57.04 353.019 58.07 353.019 59.5C353.019 60.93 351.969 61.96 350.559 61.96ZM360.437 56V60.74L356.577 56H355.507V63H356.797V58.26L360.657 63H361.727V56H360.437Z" fill="#558EB6"/>
<path d="M419.013 63.1C420.933 63.1 421.843 62.14 421.843 61.02C421.843 58.45 417.693 59.42 417.693 57.93C417.693 57.4 418.133 56.98 419.213 56.98C419.823 56.98 420.513 57.16 421.143 57.53L421.553 56.52C420.943 56.12 420.063 55.9 419.223 55.9C417.303 55.9 416.403 56.86 416.403 57.99C416.403 60.59 420.563 59.6 420.563 61.11C420.563 61.63 420.103 62.02 419.013 62.02C418.153 62.02 417.263 61.7 416.703 61.25L416.253 62.26C416.833 62.76 417.923 63.1 419.013 63.1ZM424.232 61.91V59.98H427.612V58.91H424.232V57.09H428.042V56H422.932V63H428.182V61.91H424.232ZM434.361 56V60.74L430.501 56H429.431V63H430.721V58.26L434.581 63H435.651V56H434.361ZM439.497 63.1C441.417 63.1 442.327 62.14 442.327 61.02C442.327 58.45 438.177 59.42 438.177 57.93C438.177 57.4 438.617 56.98 439.697 56.98C440.307 56.98 440.997 57.16 441.627 57.53L442.037 56.52C441.427 56.12 440.547 55.9 439.707 55.9C437.787 55.9 436.887 56.86 436.887 57.99C436.887 60.59 441.047 59.6 441.047 61.11C441.047 61.63 440.587 62.02 439.497 62.02C438.637 62.02 437.747 61.7 437.187 61.25L436.737 62.26C437.317 62.76 438.407 63.1 439.497 63.1ZM446.686 63.1C448.856 63.1 450.456 61.58 450.456 59.5C450.456 57.42 448.856 55.9 446.686 55.9C444.516 55.9 442.916 57.43 442.916 59.5C442.916 61.57 444.516 63.1 446.686 63.1ZM446.686 61.96C445.276 61.96 444.226 60.93 444.226 59.5C444.226 58.07 445.276 57.04 446.686 57.04C448.096 57.04 449.146 58.07 449.146 59.5C449.146 60.93 448.096 61.96 446.686 61.96ZM457.614 63L456.004 60.7C456.954 60.33 457.494 59.55 457.494 58.49C457.494 56.94 456.354 56 454.514 56H451.634V63H452.934V60.96H454.514C454.604 60.96 454.694 60.96 454.784 60.95L456.214 63H457.614ZM456.184 58.49C456.184 59.37 455.594 59.89 454.454 59.89H452.934V57.1H454.454C455.594 57.1 456.184 57.61 456.184 58.49ZM460.918 63.1C462.838 63.1 463.748 62.14 463.748 61.02C463.748 58.45 459.598 59.42 459.598 57.93C459.598 57.4 460.038 56.98 461.118 56.98C461.728 56.98 462.418 57.16 463.048 57.53L463.458 56.52C462.848 56.12 461.968 55.9 461.128 55.9C459.208 55.9 458.308 56.86 458.308 57.99C458.308 60.59 462.468 59.6 462.468 61.11C462.468 61.63 462.008 62.02 460.918 62.02C460.058 62.02 459.168 61.7 458.608 61.25L458.158 62.26C458.738 62.76 459.828 63.1 460.918 63.1Z" fill="#289A9F"/>
<path d="M46.9242 15.0024C46.9239 14.1472 46.7423 13.3914 46.3751 12.7429C46.0144 12.1051 45.4742 11.5705 44.7496 11.1478C38.7687 7.67403 32.7819 4.21081 26.8029 0.733429C25.191 -0.203954 23.6281 -0.169781 22.0282 0.78106C19.6476 2.19528 7.72871 9.07373 4.17705 11.1459C2.71437 11.9988 2.00264 13.3041 2.00229 15.0008C2 21.9869 2.00229 28.9728 2 35.9591C2.00035 36.7956 2.1742 37.5366 2.52523 38.1754C2.88611 38.8325 3.43385 39.3818 4.17512 39.814C7.72695 41.8862 19.6474 48.7641 22.0275 50.1787C23.6281 51.1301 25.191 51.1641 26.8034 50.2263C32.7826 46.7488 38.7697 43.2857 44.7516 39.8119C45.4928 39.3798 46.0406 38.8302 46.4015 38.1737C46.752 37.5348 46.9262 36.7938 46.9265 35.9572C46.9265 35.9572 46.9265 21.9887 46.9242 15.0024Z" fill="#5C8DBC"/>
<path d="M24.5321 25.4102L2.52539 38.1738C2.88627 38.8309 3.434 39.3802 4.17527 39.8124C7.72711 41.8846 19.6475 48.7625 22.0276 50.1771C23.6283 51.1285 25.1911 51.1625 26.8036 50.2247C32.7828 46.7472 38.7699 43.2841 44.7517 39.8103C45.493 39.3782 46.0407 38.8286 46.4016 38.172L24.5321 25.4102Z" fill="#1A4674"/>
<path d="M18.0137 29.1909C19.2943 31.4428 21.7016 32.9616 24.4631 32.9616C27.2417 32.9616 29.6627 31.4235 30.9367 29.1475L24.5318 25.4102L18.0137 29.1909Z" fill="#1A4674"/>
<path d="M46.9244 15.0007C46.9241 14.1455 46.7425 13.3897 46.3753 12.7412L24.5322 25.4102L46.4016 38.172C46.7522 37.5332 46.9264 36.7922 46.9267 35.9555C46.9267 35.9555 46.9267 21.987 46.9244 15.0007Z" fill="#1B598E"/>
<path d="M45.7218 26.3227H44.0129V28.0445H42.3036V26.3227H40.5948V24.6014H42.3036V22.8799H44.0129V24.6014H45.7218V26.3227ZM39.486 26.3227H37.7772V28.0445H36.0683V26.3227H34.3594V24.6014H36.0683V22.8799H37.7772V24.6014H39.486V26.3227Z" fill="white"/>
<path d="M30.937 29.1478C29.6629 31.4238 27.2419 32.9619 24.4633 32.9619C21.7018 32.9619 19.2945 31.4431 18.0139 29.1912C17.3706 28.0612 17.0328 26.781 17.0341 25.4784C17.0341 21.3456 20.3604 17.9951 24.4633 17.9951C27.2071 17.9951 29.6018 19.495 30.8887 21.7239L37.3822 17.9574C34.8012 13.4695 29.9825 10.4502 24.4633 10.4502C16.2234 10.4502 9.54395 17.1787 9.54395 25.4784C9.54395 28.2014 10.263 30.7548 11.5199 32.9573C14.0944 37.469 18.9268 40.5069 24.4633 40.5069C30.0101 40.5069 34.8501 37.4568 37.4209 32.9318L30.937 29.1478Z" fill="white"/>
<path d="M439.5 3C434.692 3 430.168 4.87591 426.763 8.28219L428.462 9.98057C431.413 7.02825 435.333 5.40234 439.5 5.40234C443.667 5.40234 447.587 7.02825 450.538 9.98057L452.237 8.28219C448.832 4.87591 444.309 3 439.5 3Z" fill="#289A9F"/>
<path d="M439.5 12.6777C437.248 12.6777 435.082 13.5519 433.559 15.0762L435.259 16.7742C436.335 15.6975 437.88 15.08 439.5 15.08C441.12 15.08 442.665 15.6975 443.741 16.7742L445.441 15.0762C443.918 13.5519 441.752 12.6777 439.5 12.6777Z" fill="#289A9F"/>
<path d="M439.5 7.80469C435.976 7.80469 432.659 9.18051 430.161 11.6788L431.86 13.3775C433.904 11.333 436.618 10.207 439.5 10.207C442.382 10.207 445.095 11.333 447.14 13.3775L448.839 11.6788C446.34 9.18051 443.024 7.80469 439.5 7.80469Z" fill="#289A9F"/>
<path d="M451.592 19.8965H427.408C422.772 19.8965 419 23.6684 419 28.3047C419 32.941 422.772 36.7129 427.408 36.7129H433.035L431.424 41.5977H428.689V44C430.003 44 449.572 44 450.311 44V41.5977H447.576L445.965 36.7129H451.592C456.228 36.7129 460 32.941 460 28.3047C460 23.6684 456.228 19.8965 451.592 19.8965ZM433.954 41.5977L435.564 36.7129H443.436L445.046 41.5977H433.954ZM451.592 34.3105C450.301 34.3105 428.683 34.3105 427.408 34.3105C424.097 34.3105 421.402 31.6163 421.402 28.3047C421.402 24.9931 424.097 22.2988 427.408 22.2988H451.592C454.903 22.2988 457.598 24.9931 457.598 28.3047C457.598 31.6163 454.903 34.3105 451.592 34.3105Z" fill="#289A9F"/>
<path d="M427.408 24.7012C425.421 24.7012 423.805 26.3177 423.805 28.3047C423.805 30.2917 425.421 31.9082 427.408 31.9082C429.395 31.9082 431.012 30.2917 431.012 28.3047C431.012 26.3177 429.395 24.7012 427.408 24.7012ZM427.408 29.5059C426.746 29.5059 426.207 28.967 426.207 28.3047C426.207 27.6424 426.746 27.1035 427.408 27.1035C428.071 27.1035 428.609 27.6424 428.609 28.3047C428.609 28.967 428.071 29.5059 427.408 29.5059Z" fill="#289A9F"/>
<path d="M439.5 24.7012C437.513 24.7012 435.896 26.3177 435.896 28.3047C435.896 30.2917 437.513 31.9082 439.5 31.9082C441.487 31.9082 443.104 30.2917 443.104 28.3047C443.104 26.3177 441.487 24.7012 439.5 24.7012ZM439.5 29.5059C438.838 29.5059 438.299 28.967 438.299 28.3047C438.299 27.6424 438.838 27.1035 439.5 27.1035C440.162 27.1035 440.701 27.6424 440.701 28.3047C440.701 28.967 440.162 29.5059 439.5 29.5059Z" fill="#289A9F"/>
<path d="M451.592 24.7012C449.605 24.7012 447.988 26.3177 447.988 28.3047C447.988 30.2917 449.605 31.9082 451.592 31.9082C453.579 31.9082 455.195 30.2917 455.195 28.3047C455.195 26.3177 453.579 24.7012 451.592 24.7012ZM451.592 29.5059C450.929 29.5059 450.391 28.967 450.391 28.3047C450.391 27.6424 450.929 27.1035 451.592 27.1035C452.254 27.1035 452.793 27.6424 452.793 28.3047C452.793 28.967 452.254 29.5059 451.592 29.5059Z" fill="#289A9F"/>
<path d="M229.469 63L227.859 60.7C228.809 60.33 229.349 59.55 229.349 58.49C229.349 56.94 228.209 56 226.369 56H223.489V63H224.789V60.96H226.369C226.459 60.96 226.549 60.96 226.639 60.95L228.069 63H229.469ZM228.039 58.49C228.039 59.37 227.449 59.89 226.309 59.89H224.789V57.1H226.309C227.449 57.1 228.039 57.61 228.039 58.49Z" fill="black"/>
<path d="M235.714 57.09V56H230.604V63H231.904V60.32H235.284V59.22H231.904V57.09H235.714Z" fill="black"/>
<path d="M236.771 63H238.071V56H236.771V63Z" fill="black"/>
<path d="M239.764 63H242.824C245.094 63 246.644 61.6 246.644 59.5C246.644 57.4 245.094 56 242.824 56H239.764V63ZM241.064 61.9V57.1H242.764C244.324 57.1 245.334 58.05 245.334 59.5C245.334 60.95 244.324 61.9 242.764 61.9H241.064Z" fill="black"/>
<path d="M344 119.465H347.481V102.286H347.578L353.089 119.465H356.345L361.888 102.286H362.017V119.465H365.982V97.3545H360.438L355.055 114.018H354.959L349.576 97.3545H344V119.465ZM370.519 119.465H384.508V116.339H374.484V109.635H382.123V106.54H374.484V100.481H384.314V97.3545H370.519V119.465ZM393.636 119.852C398.987 119.852 401.533 117.241 401.533 113.051C401.533 109.119 399.438 107.669 395.957 106.669L393.894 106.025C391.702 105.412 391.058 104.671 391.058 102.931C391.058 101.158 392.347 100.191 394.668 100.191C397.117 100.191 398.922 100.707 400.308 101.287V98.1926C399.083 97.5479 397.504 97 394.603 97C389.607 97 387.19 99.5463 387.19 103.285C387.19 107.024 389.092 108.7 392.218 109.57L394.313 110.15C396.73 110.892 397.536 111.601 397.536 113.438C397.536 115.436 396.279 116.661 393.314 116.661C390.897 116.661 388.802 116.081 387.029 115.307V118.434C388.544 119.24 390.735 119.852 393.636 119.852ZM404.892 119.465H408.856V109.602H418.268V119.465H422.232V97.3545H418.268V106.476H408.856V97.3545H404.892V119.465Z" fill="black"/>
<defs>
<linearGradient id="paint0_linear" x1="57825.1" y1="127.007" x2="57825.1" y2="87.948" gradientUnits="userSpaceOnUse">
<stop stop-color="#78C3ED"/>
<stop offset="0.004" stop-color="#77C3ED"/>
<stop offset="0.008" stop-color="#76C3ED"/>
<stop offset="0.012" stop-color="#75C2ED"/>
<stop offset="0.016" stop-color="#74C2EC"/>
<stop offset="0.02" stop-color="#72C1EC"/>
<stop offset="0.023" stop-color="#71C1EC"/>
<stop offset="0.027" stop-color="#70C1EC"/>
<stop offset="0.031" stop-color="#6FC0EB"/>
<stop offset="0.035" stop-color="#6EC0EB"/>
<stop offset="0.039" stop-color="#6DC0EB"/>
<stop offset="0.043" stop-color="#6CC0EB"/>
<stop offset="0.047" stop-color="#6BBFEB"/>
<stop offset="0.051" stop-color="#6ABFEB"/>
<stop offset="0.055" stop-color="#69BFEB"/>
<stop offset="0.059" stop-color="#68BEEB"/>
<stop offset="0.063" stop-color="#67BEEA"/>
<stop offset="0.066" stop-color="#66BDEA"/>
<stop offset="0.07" stop-color="#65BDEA"/>
<stop offset="0.074" stop-color="#64BDEA"/>
<stop offset="0.078" stop-color="#63BCEA"/>
<stop offset="0.082" stop-color="#62BCEA"/>
<stop offset="0.086" stop-color="#61BCEA"/>
<stop offset="0.09" stop-color="#60BBE9"/>
<stop offset="0.094" stop-color="#5FBAE9"/>
<stop offset="0.098" stop-color="#5EBAE9"/>
<stop offset="0.102" stop-color="#5DBAE9"/>
<stop offset="0.105" stop-color="#5CB9E9"/>
<stop offset="0.109" stop-color="#5BB9E9"/>
<stop offset="0.113" stop-color="#5AB9E9"/>
<stop offset="0.117" stop-color="#58B9E9"/>
<stop offset="0.121" stop-color="#57B8E8"/>
<stop offset="0.125" stop-color="#56B8E8"/>
<stop offset="0.129" stop-color="#55B8E8"/>
<stop offset="0.133" stop-color="#54B8E8"/>
<stop offset="0.137" stop-color="#53B7E8"/>
<stop offset="0.141" stop-color="#52B7E8"/>
<stop offset="0.144" stop-color="#50B7E8"/>
<stop offset="0.148" stop-color="#4FB6E8"/>
<stop offset="0.152" stop-color="#4EB6E7"/>
<stop offset="0.156" stop-color="#4DB5E7"/>
<stop offset="0.16" stop-color="#4BB5E7"/>
<stop offset="0.164" stop-color="#4AB5E7"/>
<stop offset="0.168" stop-color="#49B4E7"/>
<stop offset="0.172" stop-color="#48B4E7"/>
<stop offset="0.176" stop-color="#46B4E7"/>
<stop offset="0.18" stop-color="#45B4E7"/>
<stop offset="0.184" stop-color="#43B3E6"/>
<stop offset="0.188" stop-color="#41B3E6"/>
<stop offset="0.191" stop-color="#40B3E6"/>
<stop offset="0.195" stop-color="#3EB2E6"/>
<stop offset="0.199" stop-color="#3DB2E6"/>
<stop offset="0.203" stop-color="#3BB1E6"/>
<stop offset="0.207" stop-color="#3AB1E6"/>
<stop offset="0.211" stop-color="#38B1E6"/>
<stop offset="0.215" stop-color="#36B0E5"/>
<stop offset="0.219" stop-color="#34B0E5"/>
<stop offset="0.223" stop-color="#32B0E5"/>
<stop offset="0.227" stop-color="#30B0E5"/>
<stop offset="0.231" stop-color="#2EAFE5"/>
<stop offset="0.234" stop-color="#2CAFE5"/>
<stop offset="0.238" stop-color="#2AAFE5"/>
<stop offset="0.242" stop-color="#27AEE4"/>
<stop offset="0.246" stop-color="#25AEE4"/>
<stop offset="0.25" stop-color="#23AEE4"/>
<stop offset="0.254" stop-color="#20ADE4"/>
<stop offset="0.258" stop-color="#1CADE4"/>
<stop offset="0.262" stop-color="#19ACE4"/>
<stop offset="0.266" stop-color="#16ACE4"/>
<stop offset="0.27" stop-color="#0FACE4"/>
<stop offset="0.273" stop-color="#0AABE3"/>
<stop offset="0.277" stop-color="#06ABE3"/>
<stop offset="0.281" stop-color="#01ABE3"/>
<stop offset="0.297" stop-color="#00AAE3"/>
<stop offset="0.313" stop-color="#00A9E2"/>
<stop offset="0.328" stop-color="#00A8E2"/>
<stop offset="0.344" stop-color="#00A7E1"/>
<stop offset="0.359" stop-color="#00A6E1"/>
<stop offset="0.375" stop-color="#00A5E0"/>
<stop offset="0.379" stop-color="#00A4E0"/>
<stop offset="0.383" stop-color="#00A3E0"/>
<stop offset="0.398" stop-color="#00A2E0"/>
<stop offset="0.414" stop-color="#00A1DF"/>
<stop offset="0.43" stop-color="#00A0DF"/>
<stop offset="0.445" stop-color="#009FDE"/>
<stop offset="0.461" stop-color="#009EDE"/>
<stop offset="0.477" stop-color="#009DDD"/>
<stop offset="0.492" stop-color="#009CDD"/>
<stop offset="0.508" stop-color="#009BDD"/>
<stop offset="0.523" stop-color="#009ADC"/>
<stop offset="0.547" stop-color="#0099DC"/>
<stop offset="0.563" stop-color="#0099DB"/>
<stop offset="0.57" stop-color="#0098DB"/>
<stop offset="0.586" stop-color="#0097DA"/>
<stop offset="0.602" stop-color="#0096DA"/>
<stop offset="0.617" stop-color="#0095DA"/>
<stop offset="0.621" stop-color="#0094D9"/>
<stop offset="0.625" stop-color="#0094D8"/>
<stop offset="0.629" stop-color="#0093D8"/>
<stop offset="0.637" stop-color="#0092D7"/>
<stop offset="0.648" stop-color="#0091D6"/>
<stop offset="0.652" stop-color="#0090D5"/>
<stop offset="0.66" stop-color="#008FD4"/>
<stop offset="0.672" stop-color="#008ED4"/>
<stop offset="0.68" stop-color="#008ED3"/>
<stop offset="0.684" stop-color="#008CD2"/>
<stop offset="0.695" stop-color="#008BD1"/>
<stop offset="0.707" stop-color="#0089D0"/>
<stop offset="0.711" stop-color="#0089CF"/>
<stop offset="0.719" stop-color="#0088CF"/>
<stop offset="0.723" stop-color="#0088CE"/>
<stop offset="0.727" stop-color="#0087CD"/>
<stop offset="0.731" stop-color="#0086CD"/>
<stop offset="0.738" stop-color="#0085CC"/>
<stop offset="0.75" stop-color="#0085CB"/>
<stop offset="0.754" stop-color="#0084CA"/>
<stop offset="0.758" stop-color="#0083CA"/>
<stop offset="0.762" stop-color="#0082C9"/>
<stop offset="0.773" stop-color="#0081C9"/>
<stop offset="0.777" stop-color="#0080C8"/>
<stop offset="0.785" stop-color="#007FC7"/>
<stop offset="0.797" stop-color="#007EC6"/>
<stop offset="0.801" stop-color="#007DC5"/>
<stop offset="0.809" stop-color="#007CC4"/>
<stop offset="0.82" stop-color="#007BC4"/>
<stop offset="0.828" stop-color="#007BC3"/>
<stop offset="0.832" stop-color="#0079C2"/>
<stop offset="0.844" stop-color="#0078C1"/>
<stop offset="0.856" stop-color="#0077C0"/>
<stop offset="0.859" stop-color="#0076BF"/>
<stop offset="0.871" stop-color="#0075BE"/>
<stop offset="0.875" stop-color="#0074BE"/>
<stop offset="0.879" stop-color="#0074BD"/>
<stop offset="0.883" stop-color="#0073BD"/>
<stop offset="0.891" stop-color="#0073BC"/>
<stop offset="0.894" stop-color="#0072BC"/>
<stop offset="0.898" stop-color="#0071BB"/>
<stop offset="0.906" stop-color="#0070BB"/>
<stop offset="0.914" stop-color="#0070BA"/>
<stop offset="0.918" stop-color="#006FBA"/>
<stop offset="0.922" stop-color="#006EB9"/>
<stop offset="0.934" stop-color="#006DB8"/>
<stop offset="0.941" stop-color="#006CB7"/>
<stop offset="0.945" stop-color="#006BB7"/>
<stop offset="0.957" stop-color="#006AB6"/>
<stop offset="0.965" stop-color="#0069B5"/>
<stop offset="0.969" stop-color="#0068B5"/>
<stop offset="0.981" stop-color="#0067B4"/>
<stop offset="0.984" stop-color="#0067B3"/>
<stop offset="1" stop-color="#0066B3"/>
</linearGradient>
<radialGradient id="paint1_radial" cx="0" cy="0" r="1" gradientUnits="userSpaceOnUse" gradientTransform="translate(338.568 45.6425) scale(30.5305 30.173)">
<stop stop-color="#6A4479"/>
<stop offset="1" stop-color="#3BB8DD"/>
</radialGradient>
<radialGradient id="paint2_radial" cx="0" cy="0" r="1" gradientUnits="userSpaceOnUse" gradientTransform="translate(338.568 43.9594) scale(28.8798 28.5418)">
<stop stop-color="#6A4479"/>
<stop offset="1" stop-color="#3BB8DD"/>
</radialGradient>
<radialGradient id="paint3_radial" cx="0" cy="0" r="1" gradientUnits="userSpaceOnUse" gradientTransform="translate(338.568 44.8667) scale(30.017 29.6657)">
<stop stop-color="#6A4479"/>
<stop offset="1" stop-color="#3BB8DD"/>
</radialGradient>
<radialGradient id="paint4_radial" cx="0" cy="0" r="1" gradientUnits="userSpaceOnUse" gradientTransform="translate(338.568 45.1792) scale(30.3733 30.0178)">
<stop stop-color="#6A4479"/>
<stop offset="1" stop-color="#3BB8DD"/>
</radialGradient>
<radialGradient id="paint5_radial" cx="0" cy="0" r="1" gradientUnits="userSpaceOnUse" gradientTransform="translate(338.568 45.3224) scale(30.4919 30.135)">
<stop stop-color="#6A4479"/>
<stop offset="1" stop-color="#3BB8DD"/>
</radialGradient>
<radialGradient id="paint6_radial" cx="0" cy="0" r="1" gradientUnits="userSpaceOnUse" gradientTransform="translate(338.532 45.4051) scale(30.5833 30.2253)">
<stop stop-color="#6A4479"/>
<stop offset="1" stop-color="#3BB8DD"/>
</radialGradient>
<radialGradient id="paint7_radial" cx="0" cy="0" r="1" gradientUnits="userSpaceOnUse" gradientTransform="translate(338.532 45.4561) scale(30.5813 30.2234)">
<stop stop-color="#6A4479"/>
<stop offset="1" stop-color="#3BB8DD"/>
</radialGradient>
<radialGradient id="paint8_radial" cx="0" cy="0" r="1" gradientUnits="userSpaceOnUse" gradientTransform="translate(338.611 24.2246) scale(21.4414 21.1904)">
<stop stop-color="#568EB6"/>
<stop offset="1" stop-color="#568EB6" stop-opacity="0"/>
</radialGradient>
<radialGradient id="paint9_radial" cx="0" cy="0" r="1" gradientUnits="userSpaceOnUse" gradientTransform="translate(338.612 24.2248) scale(21.4414 21.1904)">
<stop stop-color="#568EB6"/>
<stop offset="1" stop-color="#568EB6" stop-opacity="0"/>
</radialGradient>
<radialGradient id="paint10_radial" cx="0" cy="0" r="1" gradientUnits="userSpaceOnUse" gradientTransform="translate(338.612 23.8643) scale(20.7719 20.5287)">
<stop stop-color="#568EB6"/>
<stop offset="1" stop-color="#568EB6" stop-opacity="0"/>
</radialGradient>
<radialGradient id="paint11_radial" cx="0" cy="0" r="1" gradientUnits="userSpaceOnUse" gradientTransform="translate(338.611 23.9959) scale(21.1637 20.9159)">
<stop stop-color="#568EB6"/>
<stop offset="1" stop-color="#568EB6" stop-opacity="0"/>
</radialGradient>
<radialGradient id="paint12_radial" cx="0" cy="0" r="1" gradientUnits="userSpaceOnUse" gradientTransform="translate(338.612 24.0578) scale(21.2911 21.0419)">
<stop stop-color="#568EB6"/>
<stop offset="1" stop-color="#568EB6" stop-opacity="0"/>
</radialGradient>
<radialGradient id="paint13_radial" cx="0" cy="0" r="1" gradientUnits="userSpaceOnUse" gradientTransform="translate(338.611 24.0922) scale(21.3464 21.0966)">
<stop stop-color="#568EB6"/>
<stop offset="1" stop-color="#568EB6" stop-opacity="0"/>
</radialGradient>
<radialGradient id="paint14_radial" cx="0" cy="0" r="1" gradientUnits="userSpaceOnUse" gradientTransform="translate(338.612 24.1159) scale(21.3763 21.1261)">
<stop stop-color="#568EB6"/>
<stop offset="1" stop-color="#568EB6" stop-opacity="0"/>
</radialGradient>
</defs>
</svg>
