<svg width="547" height="68" viewBox="0 0 547 68" fill="none" xmlns="http://www.w3.org/2000/svg">
<path d="M252.143 11.8073C252.143 14.2609 250.16 16.25 247.714 16.25C245.268 16.25 243.286 14.2609 243.286 11.8073C243.286 9.3537 245.268 7.36465 247.714 7.36465C250.16 7.36465 252.143 9.3537 252.143 11.8073Z" fill="#2184CE"/>
<path d="M271 41.4729C271 43.9266 269.017 45.9156 266.571 45.9156C264.126 45.9156 262.143 43.9266 262.143 41.4729C262.143 39.0193 264.126 37.0303 266.571 37.0303C269.017 37.0303 271 39.0193 271 41.4729Z" fill="#2184CE"/>
<path d="M239.857 28.2166C239.857 30.2349 238.226 31.871 236.214 31.871C234.202 31.871 232.571 30.2349 232.571 28.2166C232.571 26.1983 234.202 24.5621 236.214 24.5621C238.226 24.5621 239.857 26.1983 239.857 28.2166Z" fill="#2184CE"/>
<path d="M254 38.8217C254 40.84 252.369 42.4761 250.357 42.4761C248.345 42.4761 246.714 40.84 246.714 38.8217C246.714 36.8034 248.345 35.1672 250.357 35.1672C252.369 35.1672 254 36.8034 254 38.8217Z" fill="#2184CE"/>
<path d="M263 26.1385C263 29.0671 260.634 31.4411 257.714 31.4411C254.795 31.4411 252.429 29.0671 252.429 26.1385C252.429 23.21 254.795 20.836 257.714 20.836C260.634 20.836 263 23.21 263 26.1385Z" fill="#2184CE"/>
<path d="M273.429 5H261.786C261.47 5 261.214 5.25665 261.214 5.57325V10.0876C261.214 10.4042 261.47 10.6608 261.786 10.6608H267.643C267.958 10.6608 268.214 10.9175 268.214 11.2341V17.1099C268.214 17.4265 268.47 17.6831 268.786 17.6831H273.429C273.744 17.6831 274 17.4265 274 17.1099V5.57325C274 5.25665 273.744 5 273.429 5Z" fill="#2184CE"/>
<path d="M229.571 50H241.214C241.53 50 241.786 49.7433 241.786 49.4268V44.9124C241.786 44.5958 241.53 44.3392 241.214 44.3392H235.357C235.042 44.3392 234.786 44.0825 234.786 43.7659L234.786 37.8901C234.786 37.5735 234.53 37.3169 234.214 37.3169H229.571C229.256 37.3169 229 37.5735 229 37.8901L229 49.4268C229 49.7433 229.256 50 229.571 50Z" fill="#2184CE"/>
<path fill-rule="evenodd" clip-rule="evenodd" d="M249.751 12.6465L256.965 23.0366L254.035 25.0844L246.82 14.6943L249.751 12.6465ZM237.917 26.5035L253.56 25.1421L253.869 28.7114L238.226 30.0729L237.917 26.5035ZM259.954 28.288L266.739 39.4663L263.689 41.3298L257.319 30.8358L252.903 38.4999L249.811 36.7071L254.311 28.8966L257.136 30.5344L256.903 30.1515L259.954 28.288Z" fill="#2184CE"/>
<path d="M217.542 65H218.902L215.742 58H214.462L211.312 65H212.652L213.342 63.38H216.842L217.542 65ZM213.782 62.36L215.092 59.3L216.412 62.36H213.782ZM220.782 63.9L224.902 58.87V58H219.132V59.1H223.182L219.062 64.13V65H225.032V63.9H220.782ZM229.033 65.1C230.943 65.1 232.093 63.99 232.093 61.95V58H230.813V61.9C230.813 63.34 230.173 63.96 229.043 63.96C227.913 63.96 227.263 63.34 227.263 61.9V58H225.963V61.95C225.963 63.99 227.113 65.1 229.033 65.1ZM239.694 65L238.084 62.7C239.034 62.33 239.574 61.55 239.574 60.49C239.574 58.94 238.434 58 236.594 58H233.714V65H235.014V62.96H236.594C236.684 62.96 236.774 62.96 236.864 62.95L238.294 65H239.694ZM238.264 60.49C238.264 61.37 237.674 61.89 236.534 61.89H235.014V59.1H236.534C237.674 59.1 238.264 59.61 238.264 60.49ZM242.128 63.91V61.98H245.508V60.91H242.128V59.09H245.938V58H240.828V65H246.078V63.91H242.128ZM249.891 65H251.191V58H249.891V65ZM256.155 65.1C258.325 65.1 259.925 63.58 259.925 61.5C259.925 59.42 258.325 57.9 256.155 57.9C253.985 57.9 252.385 59.43 252.385 61.5C252.385 63.57 253.985 65.1 256.155 65.1ZM256.155 63.96C254.745 63.96 253.695 62.93 253.695 61.5C253.695 60.07 254.745 59.04 256.155 59.04C257.565 59.04 258.615 60.07 258.615 61.5C258.615 62.93 257.565 63.96 256.155 63.96ZM262.425 65H263.725V59.1H266.045V58H260.105V59.1H262.425V65ZM274.304 58V60.89H270.684V58H269.384V65H270.684V62H274.304V65H275.604V58H274.304ZM280.29 65.1C282.2 65.1 283.35 63.99 283.35 61.95V58H282.07V61.9C282.07 63.34 281.43 63.96 280.3 63.96C279.17 63.96 278.52 63.34 278.52 61.9V58H277.22V61.95C277.22 63.99 278.37 65.1 280.29 65.1ZM289.93 61.36C290.47 61.07 290.83 60.54 290.83 59.82C290.83 58.71 289.93 58 288.25 58H284.97V65H288.45C290.25 65 291.19 64.3 291.19 63.1C291.19 62.19 290.68 61.6 289.93 61.36ZM288.11 59.02C289.01 59.02 289.52 59.34 289.52 59.99C289.52 60.63 289.01 60.95 288.11 60.95H286.27V59.02H288.11ZM288.37 63.98H286.27V61.96H288.37C289.35 61.96 289.88 62.27 289.88 62.97C289.88 63.67 289.35 63.98 288.37 63.98Z" fill="#2184CE"/>
<path d="M16.7322 33.6873L11.4783 35.9373L16.3441 38.0118L21.9861 35.9373L16.7322 33.6873ZM8.83325 36.4998L8.65721 46.6247L16.344 49.9997V39.4878L8.83325 36.4998ZM24.6311 36.4998L17.6845 39.1368V49.0503L24.6311 46.2378V36.4998ZM32.9182 5L27.6282 7.25003L32.53 9.32451L38.1721 7.25003L32.9182 5ZM25.5835 7.98914V18.1141L32.1419 20.013L32.354 10.8016L25.5835 7.98914ZM40.253 8.55159L34.0467 11.1886V21.1381L40.253 18.3256V8.55159H40.253ZM8.07496 19.2503L2.82104 21.5003L7.6868 23.5748L13.3289 21.5003L8.07496 19.2503ZM0.176045 22.0628L0 32.1878L7.6868 35.5627V25.0508L0.176045 22.0628ZM15.9739 22.0628L9.02738 24.6997V34.6132L15.9739 31.8007V22.0628ZM25.0013 18.8768L19.7473 21.1268L24.6131 23.2013L30.2552 21.1268L25.0013 18.8768ZM17.1023 21.6893L16.9262 31.8142L24.613 35.1892V24.6784L17.1023 21.6893ZM32.9002 21.6893L25.9536 24.3263V34.2397L32.9002 31.4272V21.6893ZM49.4507 5L44.1968 7.24998L49.0626 9.32445L54.7046 7.24998L49.4507 5ZM41.5517 7.81248L41.3757 17.9374L49.0625 21.3124V10.8016L41.5517 7.81248ZM57.3496 7.81248L50.4031 10.4494V20.3629L57.3496 17.5504V7.81248Z" fill="#F7A80D"/>
<path d="M38.1155 36.7744H39.4755L36.3155 29.7744H35.0355L31.8855 36.7744H33.2255L33.9155 35.1544H37.4155L38.1155 36.7744ZM34.3555 34.1344L35.6655 31.0744L36.9855 34.1344H34.3555ZM48.7847 29.7744L46.9947 35.1244L45.2247 29.7744H44.0247L42.2147 35.0944L40.4747 29.7744H39.1247L41.4447 36.7744H42.8347L44.5947 31.5944L46.3247 36.7744H47.7047L50.0247 29.7744H48.7847ZM53.0538 36.8744C54.9738 36.8744 55.8838 35.9144 55.8838 34.7944C55.8838 32.2244 51.7338 33.1944 51.7338 31.7044C51.7338 31.1744 52.1738 30.7544 53.2538 30.7544C53.8638 30.7544 54.5538 30.9344 55.1838 31.3044L55.5938 30.2944C54.9838 29.8944 54.1038 29.6744 53.2638 29.6744C51.3438 29.6744 50.4438 30.6344 50.4438 31.7644C50.4438 34.3644 54.6038 33.3744 54.6038 34.8844C54.6038 35.4044 54.1438 35.7944 53.0538 35.7944C52.1938 35.7944 51.3038 35.4744 50.7438 35.0244L50.2938 36.0344C50.8738 36.5344 51.9638 36.8744 53.0538 36.8744Z" fill="#F7A80D"/>
<path d="M116.915 63.6C116.465 63.86 115.975 63.96 115.475 63.96C113.995 63.96 112.945 62.92 112.945 61.5C112.945 60.05 113.995 59.04 115.485 59.04C116.235 59.04 116.865 59.29 117.415 59.84L118.235 59.04C117.575 58.29 116.595 57.9 115.425 57.9C113.235 57.9 111.635 59.41 111.635 61.5C111.635 63.59 113.235 65.1 115.405 65.1C116.395 65.1 117.415 64.8 118.145 64.21V61.42H116.915V63.6ZM119.27 62.74H122.02V61.7H119.27V62.74ZM126.596 65.1C127.746 65.1 128.726 64.69 129.376 63.93L128.536 63.13C128.026 63.69 127.396 63.96 126.666 63.96C125.216 63.96 124.166 62.94 124.166 61.5C124.166 60.06 125.216 59.04 126.666 59.04C127.396 59.04 128.026 59.31 128.536 59.86L129.376 59.07C128.726 58.31 127.746 57.9 126.606 57.9C124.456 57.9 122.856 59.41 122.856 61.5C122.856 63.59 124.456 65.1 126.596 65.1ZM130.422 65H135.382V63.9H131.722V58H130.422V65ZM139.351 65.1C141.521 65.1 143.121 63.58 143.121 61.5C143.121 59.42 141.521 57.9 139.351 57.9C137.181 57.9 135.581 59.43 135.581 61.5C135.581 63.57 137.181 65.1 139.351 65.1ZM139.351 63.96C137.941 63.96 136.891 62.93 136.891 61.5C136.891 60.07 137.941 59.04 139.351 59.04C140.761 59.04 141.811 60.07 141.811 61.5C141.811 62.93 140.761 63.96 139.351 63.96ZM147.309 65.1C149.219 65.1 150.369 63.99 150.369 61.95V58H149.089V61.9C149.089 63.34 148.449 63.96 147.319 63.96C146.189 63.96 145.539 63.34 145.539 61.9V58H144.239V61.95C144.239 63.99 145.389 65.1 147.309 65.1ZM151.99 65H155.05C157.32 65 158.87 63.6 158.87 61.5C158.87 59.4 157.32 58 155.05 58H151.99V65ZM153.29 63.9V59.1H154.99C156.55 59.1 157.56 60.05 157.56 61.5C157.56 62.95 156.55 63.9 154.99 63.9H153.29ZM162.615 65H163.915V58H162.615V65ZM168.879 65.1C171.049 65.1 172.649 63.58 172.649 61.5C172.649 59.42 171.049 57.9 168.879 57.9C166.709 57.9 165.109 59.43 165.109 61.5C165.109 63.57 166.709 65.1 168.879 65.1ZM168.879 63.96C167.469 63.96 166.419 62.93 166.419 61.5C166.419 60.07 167.469 59.04 168.879 59.04C170.289 59.04 171.339 60.07 171.339 61.5C171.339 62.93 170.289 63.96 168.879 63.96ZM175.149 65H176.449V59.1H178.769V58H172.829V59.1H175.149V65Z" fill="#4386F8"/>
<path d="M117.438 29.4893C116.548 27.9489 116.548 26.051 117.438 24.5106L127.563 6.97264C128.452 5.43221 130.096 4.48328 131.875 4.48328L152.126 4.48327C153.905 4.48327 155.548 5.43221 156.438 6.97264L166.563 24.5106C167.452 26.051 167.452 27.9489 166.563 29.4893L156.438 47.0272C155.548 48.5677 153.905 49.5166 152.126 49.5166L131.875 49.5166C130.096 49.5166 128.452 48.5677 127.563 47.0272L117.438 29.4893Z" fill="#4386F8"/>
<mask id="mask0" mask-type="alpha" maskUnits="userSpaceOnUse" x="119" y="4" width="46" height="46">
<path d="M122.5 38.2583C118.478 31.2917 118.478 22.7083 122.5 15.7417C126.522 8.77499 133.956 4.48334 142 4.48334C150.044 4.48334 157.478 8.77499 161.5 15.7417C165.522 22.7083 165.522 31.2916 161.5 38.2583C157.478 45.225 150.044 49.5167 142 49.5167C133.956 49.5167 126.522 45.225 122.5 38.2583Z" fill="#4386F8"/>
</mask>
<g mask="url(#mask0)">
<path d="M140.063 39.3546V35.2979H143.751L157.766 46.8227L154.539 51.3404L140.063 39.3546Z" fill="#3C7BE1"/>
<path d="M156.568 49.773L131.213 27.7375L151.404 19.624L168.553 34.3758L156.568 49.773Z" fill="#3C7BE1"/>
</g>
<path d="M135.178 28.8438L136.284 28.8439L136.284 32.5317H135.178V28.8438Z" fill="#FBFCFE"/>
<path d="M141.078 28.8439H142.185V35.2977H141.078V28.8439Z" fill="#FBFCFE"/>
<path d="M147.164 28.8439H148.27V32.3473H147.164V28.8439Z" fill="#FBFCFE"/>
<path fill-rule="evenodd" clip-rule="evenodd" d="M135.639 36.0352C136.403 36.0352 137.022 35.4161 137.022 34.6523C137.022 33.8885 136.403 33.2693 135.639 33.2693C134.875 33.2693 134.256 33.8885 134.256 34.6523C134.256 35.4161 134.875 36.0352 135.639 36.0352ZM135.639 37.1416C137.014 37.1416 138.128 36.0271 138.128 34.6523C138.128 33.2774 137.014 32.1629 135.639 32.1629C134.264 32.1629 133.149 33.2774 133.149 34.6523C133.149 36.0271 134.264 37.1416 135.639 37.1416Z" fill="#FBFCFE"/>
<path fill-rule="evenodd" clip-rule="evenodd" d="M141.539 38.6168C142.303 38.6168 142.922 37.9976 142.922 37.2338C142.922 36.47 142.303 35.8508 141.539 35.8508C140.776 35.8508 140.157 36.47 140.157 37.2338C140.157 37.9976 140.776 38.6168 141.539 38.6168ZM141.539 39.7232C142.914 39.7232 144.029 38.6087 144.029 37.2338C144.029 35.859 142.914 34.7445 141.539 34.7445C140.165 34.7445 139.05 35.859 139.05 37.2338C139.05 38.6087 140.165 39.7232 141.539 39.7232Z" fill="#FBFCFE"/>
<path fill-rule="evenodd" clip-rule="evenodd" d="M147.809 35.6664C148.573 35.6664 149.192 35.0473 149.192 34.2835C149.192 33.5197 148.573 32.9005 147.809 32.9005C147.045 32.9005 146.426 33.5197 146.426 34.2835C146.426 35.0473 147.045 35.6664 147.809 35.6664ZM147.809 36.7728C149.184 36.7728 150.298 35.6583 150.298 34.2835C150.298 32.9086 149.184 31.7941 147.809 31.7941C146.434 31.7941 145.32 32.9086 145.32 34.2835C145.32 35.6583 146.434 36.7728 147.809 36.7728Z" fill="#FBFCFE"/>
<path d="M148.004 22.3318C148.004 25.9657 149.101 28.9116 149.101 28.9116H134.346C134.346 28.9116 134.844 24.5987 134.844 22.3318C134.844 18.6978 137.79 15.752 141.424 15.752C145.058 15.752 148.004 18.6978 148.004 22.3318Z" fill="#FBFCFE"/>
<path d="M139.231 24.0266C139.231 26.7245 137.044 28.9116 134.346 28.9116C131.648 28.9116 129.461 26.7245 129.461 24.0266C129.461 21.3287 131.648 19.1416 134.346 19.1416C137.044 19.1416 139.231 21.3287 139.231 24.0266Z" fill="#FBFCFE"/>
<path d="M153.986 24.0266C153.986 26.7245 151.799 28.9116 149.101 28.9116C146.403 28.9116 144.216 26.7245 144.216 24.0266C144.216 21.3287 146.403 19.1416 149.101 19.1416C151.799 19.1416 153.986 21.3287 153.986 24.0266Z" fill="#FBFCFE"/>
<circle cx="141.631" cy="21.2838" r="1.47518" fill="#4386F8"/>
<path d="M141.077 22.6436H142.184V28.9131H141.077V22.6436Z" fill="#4386F8"/>
<circle cx="135.731" cy="23.8648" r="1.47518" fill="#4386F8"/>
<path d="M135.177 22.7588H136.283V28.9361H135.177V22.7588Z" fill="#4386F8"/>
<circle cx="147.716" cy="23.8648" r="1.47518" fill="#4386F8"/>
<path d="M147.163 22.7588H148.269V28.9361H147.163V22.7588Z" fill="#4386F8"/>
<path d="M335 5H380V50H335V5Z" fill="#41BDF5"/>
<path d="M343.3 30.1001H340.346C339.631 30.1001 339.275 29.2343 339.783 28.7315L356.751 11.9398C357.221 11.4754 357.977 11.4774 358.444 11.9442L367 20.5001V18.4001C367 18.1792 367.179 18.0001 367.4 18.0001H371C371.221 18.0001 371.4 18.1792 371.4 18.4001V24.6345C371.4 24.7405 371.442 24.8423 371.517 24.9173L375.334 28.7345C375.838 29.2384 375.481 30.1001 374.768 30.1001H371.8C371.579 30.1001 371.4 30.2792 371.4 30.5001V42.4001C371.4 42.6211 371.221 42.8001 371 42.8001H344.1C343.879 42.8001 343.7 42.6211 343.7 42.4001V30.5001C343.7 30.2792 343.521 30.1001 343.3 30.1001Z" fill="white"/>
<path fill-rule="evenodd" clip-rule="evenodd" d="M357.053 24.7542L354.984 22.6821L355.55 22.1168L357.453 24.0226L359.356 22.1168L359.922 22.6821L357.853 24.7542V37.8523L360.233 35.469V32.8482H361.033V34.6679L363.513 32.1851V30.3269L361.741 28.5533L362.307 27.988L363.513 29.1948V24.6882H364.313V29.1948L365.717 27.789L366.283 28.3543L364.313 30.3269V32.5162L361.797 35.0355H365.701V35.8355H360.998L357.853 38.9845V42.0319L360.269 39.6131H363.416V40.4131H360.6L357.935 43.0821L357.652 42.7994H357.254L356.971 43.0821L354.405 40.5126H351.59V39.7126H353.606L350.412 36.5143L350.978 35.949L354.171 39.146V37.1272H354.971V39.9471L357.053 42.0319V35.3025L353.312 31.5565H350.695V30.7565H352.513L349.6 27.8391V24.6882H350.4V27.508L353.078 30.1899V28.0716H353.878V30.991L357.053 34.1704V24.7542Z" fill="#41BDF5"/>
<path fill-rule="evenodd" clip-rule="evenodd" d="M350 24.1994C350.221 24.1994 350.4 24.0203 350.4 23.7994C350.4 23.5785 350.221 23.3994 350 23.3994C349.779 23.3994 349.6 23.5785 349.6 23.7994C349.6 24.0203 349.779 24.1994 350 24.1994ZM350 24.9994C350.662 24.9994 351.2 24.4622 351.2 23.7994C351.2 23.1367 350.662 22.5994 350 22.5994C349.337 22.5994 348.8 23.1367 348.8 23.7994C348.8 24.4622 349.337 24.9994 350 24.9994Z" fill="#41BDF5"/>
<path fill-rule="evenodd" clip-rule="evenodd" d="M353.4 27.3994C353.621 27.3994 353.8 27.2203 353.8 26.9994C353.8 26.7785 353.621 26.5994 353.4 26.5994C353.179 26.5994 353 26.7785 353 26.9994C353 27.2203 353.179 27.3994 353.4 27.3994ZM353.4 28.1994C354.062 28.1994 354.6 27.6622 354.6 26.9994C354.6 26.3367 354.062 25.7994 353.4 25.7994C352.737 25.7994 352.2 26.3367 352.2 26.9994C352.2 27.6622 352.737 28.1994 353.4 28.1994Z" fill="#41BDF5"/>
<path fill-rule="evenodd" clip-rule="evenodd" d="M349.8 31.5994C350.021 31.5994 350.2 31.4203 350.2 31.1994C350.2 30.9785 350.021 30.7994 349.8 30.7994C349.579 30.7994 349.4 30.9785 349.4 31.1994C349.4 31.4203 349.579 31.5994 349.8 31.5994ZM349.8 32.3994C350.462 32.3994 351 31.8622 351 31.1994C351 30.5367 350.462 29.9994 349.8 29.9994C349.137 29.9994 348.6 30.5367 348.6 31.1994C348.6 31.8622 349.137 32.3994 349.8 32.3994Z" fill="#41BDF5"/>
<path fill-rule="evenodd" clip-rule="evenodd" d="M354.6 36.3994C354.821 36.3994 355 36.2203 355 35.9994C355 35.7785 354.821 35.5994 354.6 35.5994C354.379 35.5994 354.2 35.7785 354.2 35.9994C354.2 36.2203 354.379 36.3994 354.6 36.3994ZM354.6 37.1994C355.262 37.1994 355.8 36.6622 355.8 35.9994C355.8 35.3367 355.262 34.7994 354.6 34.7994C353.937 34.7994 353.4 35.3367 353.4 35.9994C353.4 36.6622 353.937 37.1994 354.6 37.1994Z" fill="#41BDF5"/>
<path fill-rule="evenodd" clip-rule="evenodd" d="M350.2 35.9994C350.421 35.9994 350.6 35.8203 350.6 35.5994C350.6 35.3785 350.421 35.1994 350.2 35.1994C349.979 35.1994 349.8 35.3785 349.8 35.5994C349.8 35.8203 349.979 35.9994 350.2 35.9994ZM350.2 36.7994C350.862 36.7994 351.4 36.2622 351.4 35.5994C351.4 34.9367 350.862 34.3994 350.2 34.3994C349.537 34.3994 349 34.9367 349 35.5994C349 36.2622 349.537 36.7994 350.2 36.7994Z" fill="#41BDF5"/>
<path fill-rule="evenodd" clip-rule="evenodd" d="M350.6 40.3994C350.821 40.3994 351 40.2203 351 39.9994C351 39.7785 350.821 39.5994 350.6 39.5994C350.379 39.5994 350.2 39.7785 350.2 39.9994C350.2 40.2203 350.379 40.3994 350.6 40.3994ZM350.6 41.1994C351.262 41.1994 351.8 40.6622 351.8 39.9994C351.8 39.3367 351.262 38.7994 350.6 38.7994C349.937 38.7994 349.4 39.3367 349.4 39.9994C349.4 40.6622 349.937 41.1994 350.6 41.1994Z" fill="#41BDF5"/>
<path fill-rule="evenodd" clip-rule="evenodd" d="M364.4 40.3994C364.621 40.3994 364.8 40.2203 364.8 39.9994C364.8 39.7785 364.621 39.5994 364.4 39.5994C364.179 39.5994 364 39.7785 364 39.9994C364 40.2203 364.179 40.3994 364.4 40.3994ZM364.4 41.1994C365.062 41.1994 365.6 40.6622 365.6 39.9994C365.6 39.3367 365.062 38.7994 364.4 38.7994C363.737 38.7994 363.2 39.3367 363.2 39.9994C363.2 40.6622 363.737 41.1994 364.4 41.1994Z" fill="#41BDF5"/>
<path fill-rule="evenodd" clip-rule="evenodd" d="M366.6 35.7994C366.821 35.7994 367 35.6203 367 35.3994C367 35.1785 366.821 34.9994 366.6 34.9994C366.379 34.9994 366.2 35.1785 366.2 35.3994C366.2 35.6203 366.379 35.7994 366.6 35.7994ZM366.6 36.5994C367.262 36.5994 367.8 36.0622 367.8 35.3994C367.8 34.7367 367.262 34.1994 366.6 34.1994C365.937 34.1994 365.4 34.7367 365.4 35.3994C365.4 36.0622 365.937 36.5994 366.6 36.5994Z" fill="#41BDF5"/>
<path fill-rule="evenodd" clip-rule="evenodd" d="M360.6 32.3994C360.821 32.3994 361 32.2203 361 31.9994C361 31.7785 360.821 31.5994 360.6 31.5994C360.379 31.5994 360.2 31.7785 360.2 31.9994C360.2 32.2203 360.379 32.3994 360.6 32.3994ZM360.6 33.1994C361.262 33.1994 361.8 32.6622 361.8 31.9994C361.8 31.3367 361.262 30.7994 360.6 30.7994C359.937 30.7994 359.4 31.3367 359.4 31.9994C359.4 32.6622 359.937 33.1994 360.6 33.1994Z" fill="#41BDF5"/>
<path fill-rule="evenodd" clip-rule="evenodd" d="M361.4 27.9994C361.621 27.9994 361.8 27.8203 361.8 27.5994C361.8 27.3785 361.621 27.1994 361.4 27.1994C361.179 27.1994 361 27.3785 361 27.5994C361 27.8203 361.179 27.9994 361.4 27.9994ZM361.4 28.7994C362.062 28.7994 362.6 28.2622 362.6 27.5994C362.6 26.9367 362.062 26.3994 361.4 26.3994C360.737 26.3994 360.2 26.9367 360.2 27.5994C360.2 28.2622 360.737 28.7994 361.4 28.7994Z" fill="#41BDF5"/>
<path fill-rule="evenodd" clip-rule="evenodd" d="M364 24.1994C364.221 24.1994 364.4 24.0203 364.4 23.7994C364.4 23.5785 364.221 23.3994 364 23.3994C363.779 23.3994 363.6 23.5785 363.6 23.7994C363.6 24.0203 363.779 24.1994 364 24.1994ZM364 24.9994C364.662 24.9994 365.2 24.4622 365.2 23.7994C365.2 23.1367 364.662 22.5994 364 22.5994C363.337 22.5994 362.8 23.1367 362.8 23.7994C362.8 24.4622 363.337 24.9994 364 24.9994Z" fill="#41BDF5"/>
<path fill-rule="evenodd" clip-rule="evenodd" d="M366.6 27.5994C366.821 27.5994 367 27.4203 367 27.1994C367 26.9785 366.821 26.7994 366.6 26.7994C366.379 26.7994 366.2 26.9785 366.2 27.1994C366.2 27.4203 366.379 27.5994 366.6 27.5994ZM366.6 28.3994C367.262 28.3994 367.8 27.8622 367.8 27.1994C367.8 26.5367 367.262 25.9994 366.6 25.9994C365.937 25.9994 365.4 26.5367 365.4 27.1994C365.4 27.8622 365.937 28.3994 366.6 28.3994Z" fill="#41BDF5"/>
<path fill-rule="evenodd" clip-rule="evenodd" d="M354.6 21.9994C354.821 21.9994 355 21.8203 355 21.5994C355 21.3785 354.821 21.1994 354.6 21.1994C354.379 21.1994 354.2 21.3785 354.2 21.5994C354.2 21.8203 354.379 21.9994 354.6 21.9994ZM354.6 22.7994C355.262 22.7994 355.8 22.2622 355.8 21.5994C355.8 20.9367 355.262 20.3994 354.6 20.3994C353.937 20.3994 353.4 20.9367 353.4 21.5994C353.4 22.2622 353.937 22.7994 354.6 22.7994Z" fill="#41BDF5"/>
<path fill-rule="evenodd" clip-rule="evenodd" d="M360.4 21.9994C360.621 21.9994 360.8 21.8203 360.8 21.5994C360.8 21.3785 360.621 21.1994 360.4 21.1994C360.179 21.1994 360 21.3785 360 21.5994C360 21.8203 360.179 21.9994 360.4 21.9994ZM360.4 22.7994C361.062 22.7994 361.6 22.2622 361.6 21.5994C361.6 20.9367 361.062 20.3994 360.4 20.3994C359.737 20.3994 359.2 20.9367 359.2 21.5994C359.2 22.2622 359.737 22.7994 360.4 22.7994Z" fill="#41BDF5"/>
<path d="M318.037 58V60.89H314.417V58H313.117V65H314.417V62H318.037V65H319.337V58H318.037ZM324.283 65.1C326.453 65.1 328.053 63.58 328.053 61.5C328.053 59.42 326.453 57.9 324.283 57.9C322.113 57.9 320.513 59.43 320.513 61.5C320.513 63.57 322.113 65.1 324.283 65.1ZM324.283 63.96C322.873 63.96 321.823 62.93 321.823 61.5C321.823 60.07 322.873 59.04 324.283 59.04C325.693 59.04 326.743 60.07 326.743 61.5C326.743 62.93 325.693 63.96 324.283 63.96ZM336.891 65L336.881 58H335.811L333.081 62.64L330.301 58H329.231V65H330.471V60.42L332.771 64.2H333.351L335.651 60.36L335.661 65H336.891ZM339.881 63.91V61.98H343.261V60.91H339.881V59.09H343.691V58H338.581V65H343.831V63.91H339.881ZM352.884 65H354.244L351.084 58H349.804L346.654 65H347.994L348.684 63.38H352.184L352.884 65ZM349.124 62.36L350.434 59.3L351.754 62.36H349.124ZM357.105 65.1C359.025 65.1 359.935 64.14 359.935 63.02C359.935 60.45 355.785 61.42 355.785 59.93C355.785 59.4 356.225 58.98 357.305 58.98C357.915 58.98 358.605 59.16 359.235 59.53L359.645 58.52C359.035 58.12 358.155 57.9 357.315 57.9C355.395 57.9 354.495 58.86 354.495 59.99C354.495 62.59 358.655 61.6 358.655 63.11C358.655 63.63 358.195 64.02 357.105 64.02C356.245 64.02 355.355 63.7 354.795 63.25L354.345 64.26C354.925 64.76 356.015 65.1 357.105 65.1ZM363.194 65.1C365.114 65.1 366.024 64.14 366.024 63.02C366.024 60.45 361.874 61.42 361.874 59.93C361.874 59.4 362.314 58.98 363.394 58.98C364.004 58.98 364.694 59.16 365.324 59.53L365.734 58.52C365.124 58.12 364.244 57.9 363.404 57.9C361.484 57.9 360.584 58.86 360.584 59.99C360.584 62.59 364.744 61.6 364.744 63.11C364.744 63.63 364.284 64.02 363.194 64.02C362.334 64.02 361.444 63.7 360.884 63.25L360.434 64.26C361.014 64.76 362.104 65.1 363.194 65.1ZM367.113 65H368.413V58H367.113V65ZM372.276 65.1C374.196 65.1 375.106 64.14 375.106 63.02C375.106 60.45 370.956 61.42 370.956 59.93C370.956 59.4 371.396 58.98 372.476 58.98C373.086 58.98 373.776 59.16 374.406 59.53L374.816 58.52C374.206 58.12 373.326 57.9 372.486 57.9C370.566 57.9 369.666 58.86 369.666 59.99C369.666 62.59 373.826 61.6 373.826 63.11C373.826 63.63 373.366 64.02 372.276 64.02C371.416 64.02 370.526 63.7 369.966 63.25L369.516 64.26C370.096 64.76 371.186 65.1 372.276 65.1ZM377.517 65H378.817V59.1H381.137V58H375.197V59.1H377.517V65ZM386.801 65H388.161L385.001 58H383.721L380.571 65H381.911L382.601 63.38H386.101L386.801 65ZM383.041 62.36L384.351 59.3L385.671 62.36H383.041ZM393.782 58V62.74L389.922 58H388.852V65H390.142V60.26L394.002 65H395.072V58H393.782ZM398.167 65H399.467V59.1H401.787V58H395.847V59.1H398.167V65Z" fill="#41BDF5"/>
<path d="M449.75 19.7401C447.234 19.7401 445.198 17.5532 445.198 14.8342C445.198 12.1666 447.234 9.94706 449.75 9.94706C451.422 9.94706 453.094 10.7569 453.805 12.2366C453.855 12.3393 453.92 12.477 453.92 12.6497V16.9861C453.92 17.0724 453.87 17.2615 453.837 17.3128C453.06 18.7925 451.471 19.7401 449.75 19.7401ZM458.009 23.4743V6.26417H453.92V7.70885C452.777 6.55591 451.222 5.92109 449.303 5.92109C444.619 5.92109 441.062 9.87938 441.062 14.8342C441.062 19.8101 444.619 23.8197 449.303 23.8197C451.222 23.8197 452.777 23.1476 453.92 21.9946V23.4743H458.009ZM475.767 23.4743V14.1644C475.767 9.58531 472.342 5.92109 467.972 5.92109C463.586 5.92109 460.177 9.58531 460.177 14.1644V23.4743H464.264V14.1644C464.264 11.9099 465.788 10.1875 467.972 10.1875C470.14 10.1875 471.68 11.9099 471.68 14.1644V23.4743H475.767ZM486.161 19.7401C483.645 19.7401 481.609 17.5532 481.609 14.8342C481.609 12.1666 483.645 9.94706 486.161 9.94706C487.833 9.94706 489.422 10.8083 490.216 12.2366C490.266 12.3393 490.331 12.477 490.331 12.6497V17.0048C490.331 17.0911 490.281 17.2615 490.25 17.3128C489.471 18.7925 487.882 19.7401 486.161 19.7401ZM494.42 23.4743V1.1016H490.331V7.70885C489.191 6.55591 487.633 5.86741 485.714 5.86741C481.03 5.86741 477.472 9.87938 477.472 14.8342C477.472 19.8101 481.03 23.8197 485.714 23.8197C487.633 23.8197 489.191 23.1476 490.331 21.9946V23.4743H494.42ZM500.675 23.4743V14.2834C500.675 11.5644 502.049 10.1198 504.663 10.1198V5.92109C499.4 5.92109 496.588 8.82912 496.588 14.2834V23.4743H500.675ZM513.601 19.5347C511.118 19.5347 509.101 17.4342 509.101 14.8342C509.101 12.2529 511.118 10.1548 513.601 10.1548C516.117 10.1548 518.121 12.2529 518.121 14.8342C518.121 17.4342 516.117 19.5347 513.601 19.5347ZM513.601 23.8197C518.386 23.8197 522.257 19.8101 522.257 14.8342C522.257 9.87938 518.386 5.92109 513.601 5.92109C508.836 5.92109 504.962 9.87938 504.962 14.8342C504.962 19.8101 508.836 23.8197 513.601 23.8197ZM526.163 4.95719C527.471 4.95719 528.53 3.83692 528.53 2.4786C528.53 1.1016 527.471 0 526.163 0C524.856 0 523.797 1.1016 523.797 2.4786C523.797 3.83692 524.856 4.95719 526.163 4.95719ZM528.198 6.26417H524.109V23.4743H528.198V6.26417ZM538.742 19.7401C536.226 19.7401 534.191 17.5532 534.191 14.8342C534.191 12.1666 536.226 9.94706 538.742 9.94706C540.415 9.94706 542.001 10.8083 542.796 12.2366C542.847 12.3393 542.913 12.477 542.913 12.6497V17.0211C542.913 17.1074 542.863 17.2615 542.83 17.3128C542.053 18.7925 540.464 19.7401 538.742 19.7401ZM547 23.4743V1.1016H542.913V7.70885C541.77 6.55591 540.215 5.92109 538.296 5.92109C533.612 5.92109 530.052 9.87938 530.052 14.8342C530.052 19.8101 533.612 23.8361 538.296 23.8361C540.215 23.8361 541.77 23.1476 542.913 21.9946V23.4743H547Z" fill="#77C159"/>
<path d="M493.692 39.4977V49.1525H490.269V39.4977C490.269 37.1596 488.908 34.1843 485.339 34.1488C481.769 34.1132 480.335 37.1596 480.335 39.4977V49.1525H476.985V39.4977C476.985 34.7489 480.639 30.9489 485.339 30.9489C490.022 30.9489 493.692 34.7489 493.692 39.4977Z" fill="#666666"/>
<path fill-rule="evenodd" clip-rule="evenodd" d="M441 26.0425H444.142V31.02H448.854V34.1488H444.142V42.2551C444.142 44.3757 445.868 46.0949 447.997 46.0949H448.854V49.2236H447.997C444.133 49.2236 441 46.1037 441 42.2551V26.0425ZM451.067 26.0425H454.209V49.0459H451.067V26.0425ZM470.702 49.0459V31.34H473.844V49.0459H470.702Z" fill="#666666"/>
<path d="M467.346 39.4977V49.1525H464.011V39.4977C464.011 37.1596 462.685 34.1843 459.207 34.1488C455.729 34.1132 454.331 37.1596 454.331 39.4977V49.1525H451.067V39.4977C451.067 34.7489 454.627 30.9489 459.207 30.9489C463.77 30.9489 467.346 34.7489 467.346 39.4977Z" fill="#666666"/>
<path d="M474.129 27.4647C474.129 28.5643 473.234 29.4557 472.13 29.4557C471.026 29.4557 470.131 28.5643 470.131 27.4647C470.131 26.365 471.026 25.4736 472.13 25.4736C473.234 25.4736 474.129 26.365 474.129 27.4647Z" fill="#666666"/>
<path fill-rule="evenodd" clip-rule="evenodd" d="M516.481 33.6114C518.196 30.5603 522.56 29.4372 527.608 32.0095L526.177 34.7948C522.015 32.674 519.811 34.093 519.223 35.1394C518.897 35.7199 518.888 36.3604 519.198 36.9152C519.51 37.4722 520.276 38.1616 521.911 38.4799C524.183 38.9222 525.91 39.9832 526.907 41.4448C527.91 42.9155 528.095 44.6975 527.402 46.2635C525.972 49.4965 521.597 50.7516 516.08 48.7758L517.143 45.8316C522.05 47.589 524.102 45.9642 524.527 45.0019C524.763 44.4702 524.733 43.8257 524.308 43.2031C523.878 42.5715 522.962 41.8725 521.308 41.5505C519.016 41.1043 517.327 39.9983 516.454 38.4387C515.58 36.8769 515.656 35.0798 516.481 33.6114ZM510.4 31.34H513.541V46.486C513.541 46.6032 513.542 46.7344 513.544 46.8778C513.55 47.6534 513.56 48.7828 513.412 49.9461C513.235 51.329 512.819 52.9511 511.773 54.3152C510.685 55.7342 509.03 56.7246 506.697 56.9898C504.425 57.2482 501.536 56.8202 497.85 55.5355L498.888 52.5824C502.342 53.7865 504.723 54.0652 506.34 53.8813C507.896 53.7044 508.749 53.1037 509.276 52.4162C509.846 51.6737 510.152 50.6737 510.295 49.5523C510.414 48.6182 510.408 47.7325 510.402 46.9529C510.401 46.7926 510.4 46.6368 510.4 46.486V31.34Z" fill="#666666"/>
<path fill-rule="evenodd" clip-rule="evenodd" d="M504.931 34.4332C501.676 34.4332 499.047 37.0495 499.047 40.2641C499.047 43.4786 501.676 46.0949 504.931 46.0949C507.565 46.0949 509.794 44.3791 510.544 42.0168L513.54 42.96C512.386 46.5924 508.968 49.2236 504.931 49.2236C499.952 49.2236 495.906 45.218 495.906 40.2641C495.906 35.3101 499.952 31.3045 504.931 31.3045C508.968 31.3045 512.386 33.9357 513.54 37.5681L510.544 38.5114C509.794 36.1491 507.565 34.4332 504.931 34.4332Z" fill="#666666"/>
</svg>
