<svg width="454" height="159" viewBox="0 0 454 159" fill="none" xmlns="http://www.w3.org/2000/svg">
<path d="M6.04373 123.758L9.06522 131.299L12.0867 123.758H13.6673V133H12.4485V129.401L12.5628 125.516L9.52859 133H8.59549L5.56766 125.535L5.68826 129.401V133H4.46951V123.758H6.04373ZM16.7809 133H15.6066V126.132H16.7809V133ZM15.5114 124.31C15.5114 124.12 15.5685 123.959 15.6828 123.828C15.8013 123.696 15.9748 123.631 16.2033 123.631C16.4318 123.631 16.6053 123.696 16.7238 123.828C16.8423 123.959 16.9015 124.12 16.9015 124.31C16.9015 124.5 16.8423 124.659 16.7238 124.786C16.6053 124.913 16.4318 124.977 16.2033 124.977C15.9748 124.977 15.8013 124.913 15.6828 124.786C15.5685 124.659 15.5114 124.5 15.5114 124.31ZM21.2911 132.168C21.71 132.168 22.076 132.042 22.3892 131.788C22.7024 131.534 22.8759 131.216 22.9097 130.835H24.0205C23.9994 131.229 23.864 131.604 23.6143 131.959C23.3646 132.314 23.0303 132.598 22.6114 132.81C22.1967 133.021 21.7566 133.127 21.2911 133.127C20.3558 133.127 19.611 132.816 19.0567 132.194C18.5066 131.568 18.2315 130.713 18.2315 129.629V129.433C18.2315 128.764 18.3542 128.169 18.5996 127.649C18.8451 127.128 19.1963 126.724 19.6534 126.437C20.1146 126.149 20.6584 126.005 21.2847 126.005C22.0549 126.005 22.6939 126.236 23.2017 126.697C23.7137 127.158 23.9867 127.757 24.0205 128.493H22.9097C22.8759 128.049 22.7066 127.685 22.4019 127.401C22.1014 127.114 21.729 126.97 21.2847 126.97C20.688 126.97 20.2246 127.186 19.8946 127.617C19.5687 128.045 19.4058 128.665 19.4058 129.477V129.699C19.4058 130.491 19.5687 131.1 19.8946 131.527C20.2204 131.955 20.6859 132.168 21.2911 132.168ZM28.5307 127.186C28.353 127.156 28.1604 127.141 27.953 127.141C27.1829 127.141 26.6602 127.469 26.3852 128.125V133H25.2109V126.132H26.3534L26.3725 126.925C26.7576 126.312 27.3035 126.005 28.0102 126.005C28.2387 126.005 28.4122 126.035 28.5307 126.094V127.186ZM29.0481 129.502C29.0481 128.83 29.1793 128.224 29.4417 127.687C29.7083 127.15 30.0765 126.735 30.5462 126.443C31.0202 126.151 31.5597 126.005 32.1648 126.005C33.1001 126.005 33.8554 126.329 34.431 126.976C35.0107 127.624 35.3006 128.485 35.3006 129.56V129.642C35.3006 130.311 35.1715 130.912 34.9134 131.445C34.6595 131.974 34.2934 132.386 33.8152 132.683C33.3413 132.979 32.7954 133.127 32.1775 133.127C31.2466 133.127 30.4912 132.803 29.9114 132.156C29.3359 131.508 29.0481 130.651 29.0481 129.585V129.502ZM30.2288 129.642C30.2288 130.404 30.4044 131.015 30.7557 131.477C31.1111 131.938 31.5851 132.168 32.1775 132.168C32.7742 132.168 33.2482 131.936 33.5994 131.47C33.9507 131 34.1263 130.345 34.1263 129.502C34.1263 128.749 33.9464 128.14 33.5867 127.674C33.2313 127.205 32.7573 126.97 32.1648 126.97C31.5851 126.97 31.1175 127.2 30.762 127.662C30.4065 128.123 30.2288 128.783 30.2288 129.642ZM40.6423 131.178C40.6423 130.861 40.5217 130.615 40.2804 130.442C40.0435 130.264 39.6266 130.112 39.03 129.985C38.4375 129.858 37.9657 129.706 37.6144 129.528C37.2674 129.35 37.0093 129.139 36.84 128.893C36.675 128.648 36.5925 128.356 36.5925 128.017C36.5925 127.454 36.8294 126.978 37.3034 126.589C37.7816 126.2 38.391 126.005 39.1315 126.005C39.9102 126.005 40.5407 126.206 41.0231 126.608C41.5098 127.01 41.7531 127.524 41.7531 128.15H40.5724C40.5724 127.829 40.4349 127.552 40.1598 127.319C39.889 127.086 39.5462 126.97 39.1315 126.97C38.7041 126.97 38.3698 127.063 38.1286 127.249C37.8874 127.435 37.7668 127.679 37.7668 127.979C37.7668 128.263 37.8789 128.476 38.1032 128.62C38.3275 128.764 38.7316 128.902 39.3156 129.033C39.9038 129.164 40.3799 129.32 40.7438 129.502C41.1078 129.684 41.3765 129.904 41.55 130.163C41.7277 130.417 41.8166 130.728 41.8166 131.096C41.8166 131.709 41.5711 132.202 41.0803 132.575C40.5894 132.943 39.9525 133.127 39.1696 133.127C38.6195 133.127 38.1328 133.03 37.7096 132.835C37.2865 132.64 36.9543 132.369 36.7131 132.022C36.4761 131.671 36.3576 131.292 36.3576 130.886H37.5319C37.5531 131.28 37.7096 131.593 38.0016 131.826C38.2979 132.054 38.6872 132.168 39.1696 132.168C39.6139 132.168 39.9694 132.08 40.236 131.902C40.5068 131.72 40.6423 131.479 40.6423 131.178ZM42.9053 129.502C42.9053 128.83 43.0365 128.224 43.2989 127.687C43.5655 127.15 43.9337 126.735 44.4034 126.443C44.8773 126.151 45.4169 126.005 46.022 126.005C46.9573 126.005 47.7126 126.329 48.2881 126.976C48.8679 127.624 49.1578 128.485 49.1578 129.56V129.642C49.1578 130.311 49.0287 130.912 48.7706 131.445C48.5167 131.974 48.1506 132.386 47.6724 132.683C47.1985 132.979 46.6526 133.127 46.0347 133.127C45.1037 133.127 44.3484 132.803 43.7686 132.156C43.1931 131.508 42.9053 130.651 42.9053 129.585V129.502ZM44.086 129.642C44.086 130.404 44.2616 131.015 44.6129 131.477C44.9683 131.938 45.4423 132.168 46.0347 132.168C46.6314 132.168 47.1054 131.936 47.4566 131.47C47.8078 131 47.9835 130.345 47.9835 129.502C47.9835 128.749 47.8036 128.14 47.4439 127.674C47.0884 127.205 46.6145 126.97 46.022 126.97C45.4423 126.97 44.9747 127.2 44.6192 127.662C44.2637 128.123 44.086 128.783 44.086 129.642ZM51.0781 133V127.04H49.9926V126.132H51.0781V125.427C51.0781 124.691 51.2748 124.122 51.6684 123.72C52.062 123.318 52.6184 123.117 53.3378 123.117C53.6087 123.117 53.8774 123.153 54.144 123.225L54.0805 124.177C53.8816 124.139 53.67 124.12 53.4457 124.12C53.0649 124.12 52.7708 124.232 52.5634 124.456C52.3561 124.676 52.2524 124.993 52.2524 125.408V126.132H53.7187V127.04H52.2524V133H51.0781ZM56.4832 124.469V126.132H57.7654V127.04H56.4832V131.299C56.4832 131.574 56.5404 131.781 56.6546 131.921C56.7689 132.056 56.9635 132.124 57.2386 132.124C57.374 132.124 57.5602 132.099 57.7972 132.048V133C57.4883 133.085 57.1878 133.127 56.8958 133.127C56.3711 133.127 55.9754 132.968 55.7088 132.651C55.4422 132.333 55.3089 131.883 55.3089 131.299V127.04H54.0584V126.132H55.3089V124.469H56.4832ZM69.1153 131.788C68.8022 132.236 68.3642 132.573 67.8013 132.797C67.2428 133.017 66.5911 133.127 65.8463 133.127C65.093 133.127 64.4244 132.951 63.8404 132.6C63.2564 132.245 62.8036 131.741 62.482 131.089C62.1646 130.438 62.0017 129.682 61.9932 128.823V128.017C61.9932 126.625 62.317 125.546 62.9644 124.78C63.6161 124.014 64.5302 123.631 65.7066 123.631C66.6715 123.631 67.448 123.878 68.0362 124.374C68.6244 124.864 68.9841 125.563 69.1153 126.468H67.8966C67.668 125.245 66.9402 124.634 65.713 124.634C64.8962 124.634 64.2763 124.922 63.8531 125.497C63.4342 126.068 63.2226 126.898 63.2183 127.985V128.741C63.2183 129.778 63.4553 130.603 63.9293 131.216C64.4032 131.826 65.0444 132.13 65.8526 132.13C66.3097 132.13 66.7096 132.08 67.0523 131.978C67.3951 131.876 67.6786 131.705 67.9029 131.464V129.388H65.7638V128.398H69.1153V131.788ZM70.5278 129.502C70.5278 128.83 70.659 128.224 70.9213 127.687C71.188 127.15 71.5561 126.735 72.0258 126.443C72.4998 126.151 73.0393 126.005 73.6445 126.005C74.5797 126.005 75.3351 126.329 75.9106 126.976C76.4904 127.624 76.7802 128.485 76.7802 129.56V129.642C76.7802 130.311 76.6512 130.912 76.393 131.445C76.1391 131.974 75.7731 132.386 75.2949 132.683C74.8209 132.979 74.275 133.127 73.6572 133.127C72.7262 133.127 71.9708 132.803 71.3911 132.156C70.8156 131.508 70.5278 130.651 70.5278 129.585V129.502ZM71.7085 129.642C71.7085 130.404 71.8841 131.015 72.2353 131.477C72.5908 131.938 73.0647 132.168 73.6572 132.168C74.2539 132.168 74.7278 131.936 75.0791 131.47C75.4303 131 75.6059 130.345 75.6059 129.502C75.6059 128.749 75.4261 128.14 75.0664 127.674C74.7109 127.205 74.2369 126.97 73.6445 126.97C73.0647 126.97 72.5971 127.2 72.2417 127.662C71.8862 128.123 71.7085 128.783 71.7085 129.642ZM79.3988 133H78.2245V123.25H79.3988V133ZM80.8684 129.509C80.8684 128.455 81.1181 127.609 81.6174 126.97C82.1168 126.326 82.7706 126.005 83.5788 126.005C84.3829 126.005 85.0197 126.28 85.4895 126.83V123.25H86.6638V133H85.5847L85.5276 132.264C85.0578 132.839 84.404 133.127 83.5661 133.127C82.7706 133.127 82.121 132.801 81.6174 132.149C81.1181 131.498 80.8684 130.647 80.8684 129.598V129.509ZM82.0427 129.642C82.0427 130.421 82.2035 131.03 82.5251 131.47C82.8467 131.91 83.2911 132.13 83.8581 132.13C84.6029 132.13 85.1467 131.796 85.4895 131.127V127.973C85.1382 127.325 84.5987 127.001 83.8708 127.001C83.2953 127.001 82.8467 127.224 82.5251 127.668C82.2035 128.112 82.0427 128.77 82.0427 129.642ZM26.8597 149.382V153H25.641V143.758H29.0497C30.0611 143.758 30.8524 144.016 31.4237 144.532C31.9992 145.049 32.287 145.732 32.287 146.583C32.287 147.48 32.0056 148.172 31.4427 148.658C30.8841 149.141 30.0822 149.382 29.037 149.382H26.8597ZM26.8597 148.385H29.0497C29.7014 148.385 30.2007 148.233 30.5477 147.928C30.8947 147.619 31.0682 147.175 31.0682 146.595C31.0682 146.045 30.8947 145.605 30.5477 145.275C30.2007 144.945 29.7246 144.773 29.1195 144.761H26.8597V148.385ZM37.6921 153C37.6244 152.865 37.5694 152.623 37.5271 152.276C36.9812 152.843 36.3295 153.127 35.572 153.127C34.8949 153.127 34.3384 152.937 33.9026 152.556C33.4709 152.171 33.2551 151.684 33.2551 151.096C33.2551 150.381 33.5259 149.826 34.0676 149.433C34.6135 149.035 35.3795 148.836 36.3655 148.836H37.508V148.296C37.508 147.886 37.3853 147.56 37.1399 147.319C36.8944 147.073 36.5326 146.951 36.0544 146.951C35.6355 146.951 35.2842 147.056 35.0007 147.268C34.7172 147.48 34.5754 147.736 34.5754 148.036H33.3948C33.3948 147.693 33.5154 147.363 33.7566 147.046C34.002 146.724 34.3321 146.47 34.7468 146.284C35.1658 146.098 35.6249 146.005 36.1243 146.005C36.9156 146.005 37.5356 146.204 37.9841 146.602C38.4327 146.995 38.6654 147.539 38.6824 148.233V151.394C38.6824 152.025 38.7628 152.526 38.9236 152.898V153H37.6921ZM35.7434 152.105C36.1116 152.105 36.4607 152.01 36.7908 151.819C37.1208 151.629 37.3599 151.381 37.508 151.077V149.667H36.5876C35.1488 149.667 34.4294 150.089 34.4294 150.931C34.4294 151.299 34.5522 151.587 34.7976 151.794C35.043 152.001 35.3583 152.105 35.7434 152.105ZM43.713 147.186C43.5353 147.156 43.3427 147.141 43.1354 147.141C42.3652 147.141 41.8426 147.469 41.5675 148.125V153H40.3932V146.132H41.5358L41.5548 146.925C41.9399 146.312 42.4858 146.005 43.1925 146.005C43.421 146.005 43.5945 146.035 43.713 146.094V147.186ZM46.5791 144.469V146.132H47.8613V147.04H46.5791V151.299C46.5791 151.574 46.6362 151.781 46.7505 151.921C46.8647 152.056 47.0594 152.124 47.3345 152.124C47.4699 152.124 47.6561 152.099 47.8931 152.048V153C47.5841 153.085 47.2837 153.127 46.9917 153.127C46.467 153.127 46.0713 152.968 45.8047 152.651C45.5381 152.333 45.4048 151.883 45.4048 151.299V147.04H44.1543V146.132H45.4048V144.469H46.5791ZM50.2196 146.132L50.2577 146.995C50.7824 146.335 51.468 146.005 52.3143 146.005C53.7658 146.005 54.4979 146.824 54.5106 148.461V153H53.3363V148.455C53.3321 147.96 53.2178 147.594 52.9935 147.357C52.7735 147.12 52.4286 147.001 51.9589 147.001C51.578 147.001 51.2437 147.103 50.9559 147.306C50.6682 147.509 50.4439 147.776 50.2831 148.106V153H49.1088V146.132H50.2196ZM59.0017 153.127C58.0707 153.127 57.3132 152.822 56.7293 152.213C56.1453 151.599 55.8533 150.78 55.8533 149.756V149.541C55.8533 148.859 55.9823 148.252 56.2405 147.719C56.5029 147.181 56.8668 146.762 57.3323 146.462C57.802 146.157 58.3098 146.005 58.8557 146.005C59.7486 146.005 60.4426 146.299 60.9378 146.887C61.4329 147.475 61.6804 148.318 61.6804 149.414V149.902H57.0276C57.0445 150.579 57.2413 151.127 57.6179 151.546C57.9988 151.961 58.4812 152.168 59.0652 152.168C59.4799 152.168 59.8311 152.084 60.1189 151.915C60.4067 151.745 60.6585 151.521 60.8743 151.242L61.5916 151.8C61.016 152.685 60.1528 153.127 59.0017 153.127ZM58.8557 146.97C58.3818 146.97 57.984 147.143 57.6624 147.49C57.3407 147.833 57.1419 148.315 57.0657 148.938H60.5061V148.849C60.4723 148.252 60.3114 147.791 60.0237 147.465C59.7359 147.135 59.3466 146.97 58.8557 146.97ZM66.235 147.186C66.0573 147.156 65.8647 147.141 65.6574 147.141C64.8872 147.141 64.3646 147.469 64.0895 148.125V153H62.9152V146.132H64.0578L64.0768 146.925C64.4619 146.312 65.0078 146.005 65.7145 146.005C65.943 146.005 66.1165 146.035 66.235 146.094V147.186Z" fill="#939393"/>
<path d="M45.284 1.03664L45.2841 1.03661C45.4462 0.9878 45.6133 0.987795 45.7754 1.0366C45.7754 1.03661 45.7755 1.03661 45.7755 1.03661L83.1116 12.2803C83.1129 12.2808 83.1143 12.2812 83.1156 12.2816C83.4836 12.3985 83.7403 12.7486 83.7403 13.1358V54.3796C83.7403 62.176 77.7808 69.7449 69.8477 75.9929C61.9656 82.2007 52.4097 86.8846 45.7827 88.9577L45.7604 88.9647L45.7384 88.9728C45.6933 88.9892 45.6449 89 45.521 89C45.4472 89 45.3547 88.986 45.2535 88.9559C38.6267 86.8819 29.0742 82.1989 21.1944 75.9929C13.2612 69.7449 7.30176 62.176 7.30176 54.3796V13.1358C7.30176 12.7486 7.55847 12.3984 7.92653 12.2816C7.92784 12.2812 7.92916 12.2807 7.93047 12.2803L45.284 1.03664Z" stroke="#383838" stroke-width="2"/>
<rect x="24.7581" y="23.071" width="18.9311" height="18.9311" fill="#383838"/>
<rect x="47.3526" y="23.0708" width="18.9311" height="18.9311" fill="#383838"/>
<rect x="24.758" y="45.6656" width="18.9311" height="18.9311" fill="#383838"/>
<rect x="47.3526" y="45.6656" width="18.9311" height="18.9311" fill="#383838"/>
<circle cx="218" cy="45" r="44" fill="white" stroke="#383838" stroke-width="2"/>
<path d="M196.535 58.639H191V32.361H196.535V58.639Z" fill="#383838"/>
<path d="M215.614 51.7447C215.614 50.7219 215.245 49.9398 214.507 49.3984C213.769 48.8449 212.441 48.2674 210.522 47.6658C208.603 47.0521 207.083 46.4505 205.964 45.861C202.913 44.2487 201.388 42.0769 201.388 39.3456C201.388 37.9258 201.794 36.6624 202.606 35.5555C203.43 34.4365 204.605 33.5642 206.13 32.9385C207.668 32.3128 209.39 32 211.297 32C213.215 32 214.925 32.3429 216.426 33.0287C217.927 33.7025 219.089 34.6591 219.913 35.8984C220.75 37.1377 221.168 38.5455 221.168 40.1217H215.633C215.633 38.9184 215.245 37.986 214.47 37.3242C213.695 36.6504 212.607 36.3135 211.204 36.3135C209.851 36.3135 208.799 36.5963 208.049 37.1618C207.299 37.7152 206.924 38.4492 206.924 39.3636C206.924 40.2179 207.36 40.9338 208.234 41.5114C209.119 42.0889 210.417 42.6303 212.127 43.1357C215.276 44.0622 217.57 45.2112 219.009 46.5829C220.448 47.9545 221.168 49.6631 221.168 51.7086C221.168 53.9826 220.289 55.7694 218.529 57.0688C216.77 58.3563 214.403 59 211.426 59C209.359 59 207.477 58.633 205.78 57.8991C204.082 57.1531 202.784 56.1364 201.886 54.8489C201.001 53.5615 200.558 52.0695 200.558 50.373H206.112C206.112 53.2727 207.883 54.7226 211.426 54.7226C212.742 54.7226 213.769 54.4639 214.507 53.9465C215.245 53.4171 215.614 52.6832 215.614 51.7447Z" fill="#383838"/>
<path d="M247 46.0956C247 48.6825 246.533 50.9505 245.598 52.8997C244.663 54.8489 243.322 56.3529 241.575 57.4118C239.841 58.4706 237.848 59 235.597 59C233.371 59 231.384 58.4766 229.637 57.4298C227.89 56.383 226.537 54.891 225.578 52.9539C224.618 51.0047 224.133 48.7667 224.12 46.24V44.9405C224.12 42.3536 224.594 40.0795 225.541 38.1183C226.5 36.1451 227.847 34.635 229.582 33.5882C231.329 32.5294 233.321 32 235.56 32C237.799 32 239.786 32.5294 241.52 33.5882C243.267 34.635 244.614 36.1451 245.561 38.1183C246.52 40.0795 247 42.3476 247 44.9225V46.0956ZM241.391 44.9044C241.391 42.1491 240.886 40.0555 239.878 38.6237C238.869 37.1918 237.43 36.4759 235.56 36.4759C233.703 36.4759 232.27 37.1858 231.261 38.6056C230.252 40.0134 229.742 42.0829 229.729 44.8142V46.0956C229.729 48.7787 230.234 50.8603 231.243 52.3402C232.251 53.8202 233.703 54.5602 235.597 54.5602C237.454 54.5602 238.881 53.8503 239.878 52.4305C240.874 50.9987 241.378 48.9171 241.391 46.1858V44.9044Z" fill="#383838"/>
<path d="M192.487 133H191.268V123.758H192.487V133ZM197.314 128.88C196.269 128.58 195.507 128.212 195.029 127.776C194.555 127.336 194.318 126.794 194.318 126.151C194.318 125.423 194.608 124.822 195.188 124.348C195.772 123.87 196.529 123.631 197.46 123.631C198.095 123.631 198.66 123.754 199.155 123.999C199.654 124.244 200.04 124.583 200.31 125.015C200.585 125.446 200.723 125.918 200.723 126.43H199.498C199.498 125.872 199.32 125.434 198.965 125.116C198.609 124.795 198.108 124.634 197.46 124.634C196.859 124.634 196.39 124.767 196.051 125.034C195.717 125.296 195.55 125.662 195.55 126.132C195.55 126.508 195.708 126.828 196.026 127.09C196.347 127.348 196.891 127.585 197.657 127.801C198.427 128.017 199.028 128.256 199.46 128.519C199.896 128.777 200.217 129.079 200.425 129.426C200.636 129.773 200.742 130.182 200.742 130.651C200.742 131.4 200.45 132.001 199.866 132.454C199.282 132.903 198.501 133.127 197.524 133.127C196.889 133.127 196.297 133.006 195.746 132.765C195.196 132.52 194.771 132.185 194.471 131.762C194.174 131.339 194.026 130.859 194.026 130.321H195.251C195.251 130.88 195.457 131.322 195.867 131.648C196.282 131.97 196.834 132.13 197.524 132.13C198.167 132.13 198.66 131.999 199.003 131.737C199.346 131.474 199.517 131.117 199.517 130.664C199.517 130.211 199.358 129.862 199.041 129.617C198.723 129.367 198.148 129.122 197.314 128.88ZM209.289 128.677C209.289 129.583 209.137 130.374 208.832 131.051C208.528 131.724 208.096 132.238 207.537 132.594C206.979 132.949 206.327 133.127 205.582 133.127C204.854 133.127 204.209 132.949 203.646 132.594C203.083 132.234 202.645 131.724 202.332 131.064C202.023 130.4 201.865 129.632 201.856 128.76V128.093C201.856 127.205 202.011 126.42 202.32 125.738C202.628 125.057 203.064 124.536 203.627 124.177C204.194 123.813 204.842 123.631 205.57 123.631C206.31 123.631 206.962 123.811 207.525 124.17C208.092 124.526 208.528 125.044 208.832 125.726C209.137 126.403 209.289 127.192 209.289 128.093V128.677ZM208.077 128.081C208.077 126.985 207.857 126.145 207.417 125.561C206.977 124.972 206.361 124.678 205.57 124.678C204.799 124.678 204.192 124.972 203.748 125.561C203.308 126.145 203.081 126.957 203.069 127.998V128.677C203.069 129.739 203.291 130.575 203.735 131.185C204.184 131.79 204.799 132.092 205.582 132.092C206.369 132.092 206.979 131.807 207.41 131.235C207.842 130.66 208.064 129.837 208.077 128.766V128.081ZM216.738 133H210.683V132.156L213.882 128.601C214.356 128.064 214.682 127.628 214.859 127.293C215.041 126.955 215.132 126.606 215.132 126.246C215.132 125.764 214.986 125.368 214.694 125.059C214.402 124.75 214.013 124.596 213.526 124.596C212.942 124.596 212.488 124.763 212.162 125.097C211.84 125.427 211.679 125.889 211.679 126.481H210.505C210.505 125.63 210.778 124.943 211.324 124.418C211.874 123.893 212.608 123.631 213.526 123.631C214.385 123.631 215.065 123.857 215.564 124.31C216.063 124.759 216.313 125.357 216.313 126.106C216.313 127.016 215.733 128.1 214.574 129.356L212.098 132.042H216.738V133ZM223.819 124.418L219.992 133H218.76L222.575 124.723H217.573V123.758H223.819V124.418ZM230.818 129.058C230.818 130.433 230.583 131.455 230.113 132.124C229.643 132.793 228.909 133.127 227.91 133.127C226.924 133.127 226.194 132.801 225.721 132.149C225.247 131.493 225.001 130.516 224.984 129.217V127.649C224.984 126.291 225.219 125.281 225.689 124.621C226.159 123.961 226.895 123.631 227.898 123.631C228.892 123.631 229.624 123.95 230.094 124.589C230.564 125.224 230.805 126.206 230.818 127.535V129.058ZM229.643 127.452C229.643 126.458 229.504 125.734 229.224 125.281C228.945 124.824 228.503 124.596 227.898 124.596C227.297 124.596 226.859 124.822 226.584 125.275C226.309 125.728 226.167 126.424 226.159 127.363V129.242C226.159 130.241 226.302 130.979 226.59 131.458C226.882 131.931 227.322 132.168 227.91 132.168C228.49 132.168 228.92 131.944 229.199 131.496C229.483 131.047 229.631 130.34 229.643 129.375V127.452ZM237.988 129.058C237.988 130.433 237.753 131.455 237.283 132.124C236.813 132.793 236.079 133.127 235.08 133.127C234.094 133.127 233.364 132.801 232.89 132.149C232.416 131.493 232.171 130.516 232.154 129.217V127.649C232.154 126.291 232.389 125.281 232.859 124.621C233.328 123.961 234.065 123.631 235.068 123.631C236.062 123.631 236.794 123.95 237.264 124.589C237.734 125.224 237.975 126.206 237.988 127.535V129.058ZM236.813 127.452C236.813 126.458 236.674 125.734 236.394 125.281C236.115 124.824 235.673 124.596 235.068 124.596C234.467 124.596 234.029 124.822 233.754 125.275C233.479 125.728 233.337 126.424 233.328 127.363V129.242C233.328 130.241 233.472 130.979 233.76 131.458C234.052 131.931 234.492 132.168 235.08 132.168C235.66 132.168 236.09 131.944 236.369 131.496C236.652 131.047 236.8 130.34 236.813 129.375V127.452ZM243.221 133H242.041V125.173L239.673 126.043V124.977L243.037 123.713H243.221V133Z" fill="#939393"/>
<path d="M345.505 123.758L348.527 131.299L351.548 123.758H353.129V133H351.91V129.401L352.024 125.516L348.99 133H348.057L345.029 125.535L345.15 129.401V133H343.931V123.758H345.505ZM356.242 133H355.068V126.132H356.242V133ZM354.973 124.31C354.973 124.12 355.03 123.959 355.144 123.828C355.263 123.696 355.436 123.631 355.665 123.631C355.893 123.631 356.067 123.696 356.185 123.828C356.304 123.959 356.363 124.12 356.363 124.31C356.363 124.5 356.304 124.659 356.185 124.786C356.067 124.913 355.893 124.977 355.665 124.977C355.436 124.977 355.263 124.913 355.144 124.786C355.03 124.659 354.973 124.5 354.973 124.31ZM360.753 132.168C361.172 132.168 361.538 132.042 361.851 131.788C362.164 131.534 362.337 131.216 362.371 130.835H363.482C363.461 131.229 363.326 131.604 363.076 131.959C362.826 132.314 362.492 132.598 362.073 132.81C361.658 133.021 361.218 133.127 360.753 133.127C359.817 133.127 359.073 132.816 358.518 132.194C357.968 131.568 357.693 130.713 357.693 129.629V129.433C357.693 128.764 357.816 128.169 358.061 127.649C358.307 127.128 358.658 126.724 359.115 126.437C359.576 126.149 360.12 126.005 360.746 126.005C361.516 126.005 362.155 126.236 362.663 126.697C363.175 127.158 363.448 127.757 363.482 128.493H362.371C362.337 128.049 362.168 127.685 361.863 127.401C361.563 127.114 361.191 126.97 360.746 126.97C360.15 126.97 359.686 127.186 359.356 127.617C359.03 128.045 358.867 128.665 358.867 129.477V129.699C358.867 130.491 359.03 131.1 359.356 131.527C359.682 131.955 360.147 132.168 360.753 132.168ZM367.992 127.186C367.814 127.156 367.622 127.141 367.415 127.141C366.644 127.141 366.122 127.469 365.847 128.125V133H364.672V126.132H365.815L365.834 126.925C366.219 126.312 366.765 126.005 367.472 126.005C367.7 126.005 367.874 126.035 367.992 126.094V127.186ZM368.51 129.502C368.51 128.83 368.641 128.224 368.903 127.687C369.17 127.15 369.538 126.735 370.008 126.443C370.482 126.151 371.021 126.005 371.626 126.005C372.562 126.005 373.317 126.329 373.892 126.976C374.472 127.624 374.762 128.485 374.762 129.56V129.642C374.762 130.311 374.633 130.912 374.375 131.445C374.121 131.974 373.755 132.386 373.277 132.683C372.803 132.979 372.257 133.127 371.639 133.127C370.708 133.127 369.953 132.803 369.373 132.156C368.797 131.508 368.51 130.651 368.51 129.585V129.502ZM369.69 129.642C369.69 130.404 369.866 131.015 370.217 131.477C370.573 131.938 371.047 132.168 371.639 132.168C372.236 132.168 372.71 131.936 373.061 131.47C373.412 131 373.588 130.345 373.588 129.502C373.588 128.749 373.408 128.14 373.048 127.674C372.693 127.205 372.219 126.97 371.626 126.97C371.047 126.97 370.579 127.2 370.224 127.662C369.868 128.123 369.69 128.783 369.69 129.642ZM380.104 131.178C380.104 130.861 379.983 130.615 379.742 130.442C379.505 130.264 379.088 130.112 378.492 129.985C377.899 129.858 377.427 129.706 377.076 129.528C376.729 129.35 376.471 129.139 376.302 128.893C376.137 128.648 376.054 128.356 376.054 128.017C376.054 127.454 376.291 126.978 376.765 126.589C377.243 126.2 377.853 126.005 378.593 126.005C379.372 126.005 380.002 126.206 380.485 126.608C380.971 127.01 381.215 127.524 381.215 128.15H380.034C380.034 127.829 379.896 127.552 379.621 127.319C379.351 127.086 379.008 126.97 378.593 126.97C378.166 126.97 377.831 127.063 377.59 127.249C377.349 127.435 377.228 127.679 377.228 127.979C377.228 128.263 377.34 128.476 377.565 128.62C377.789 128.764 378.193 128.902 378.777 129.033C379.365 129.164 379.841 129.32 380.205 129.502C380.569 129.684 380.838 129.904 381.012 130.163C381.189 130.417 381.278 130.728 381.278 131.096C381.278 131.709 381.033 132.202 380.542 132.575C380.051 132.943 379.414 133.127 378.631 133.127C378.081 133.127 377.594 133.03 377.171 132.835C376.748 132.64 376.416 132.369 376.175 132.022C375.938 131.671 375.819 131.292 375.819 130.886H376.993C377.015 131.28 377.171 131.593 377.463 131.826C377.759 132.054 378.149 132.168 378.631 132.168C379.075 132.168 379.431 132.08 379.698 131.902C379.968 131.72 380.104 131.479 380.104 131.178ZM382.367 129.502C382.367 128.83 382.498 128.224 382.76 127.687C383.027 127.15 383.395 126.735 383.865 126.443C384.339 126.151 384.878 126.005 385.484 126.005C386.419 126.005 387.174 126.329 387.75 126.976C388.329 127.624 388.619 128.485 388.619 129.56V129.642C388.619 130.311 388.49 130.912 388.232 131.445C387.978 131.974 387.612 132.386 387.134 132.683C386.66 132.979 386.114 133.127 385.496 133.127C384.565 133.127 383.81 132.803 383.23 132.156C382.655 131.508 382.367 130.651 382.367 129.585V129.502ZM383.548 129.642C383.548 130.404 383.723 131.015 384.074 131.477C384.43 131.938 384.904 132.168 385.496 132.168C386.093 132.168 386.567 131.936 386.918 131.47C387.269 131 387.445 130.345 387.445 129.502C387.445 128.749 387.265 128.14 386.905 127.674C386.55 127.205 386.076 126.97 385.484 126.97C384.904 126.97 384.436 127.2 384.081 127.662C383.725 128.123 383.548 128.783 383.548 129.642ZM390.54 133V127.04H389.454V126.132H390.54V125.427C390.54 124.691 390.736 124.122 391.13 123.72C391.523 123.318 392.08 123.117 392.799 123.117C393.07 123.117 393.339 123.153 393.606 123.225L393.542 124.177C393.343 124.139 393.132 124.12 392.907 124.12C392.526 124.12 392.232 124.232 392.025 124.456C391.818 124.676 391.714 124.993 391.714 125.408V126.132H393.18V127.04H391.714V133H390.54ZM395.945 124.469V126.132H397.227V127.04H395.945V131.299C395.945 131.574 396.002 131.781 396.116 131.921C396.23 132.056 396.425 132.124 396.7 132.124C396.836 132.124 397.022 132.099 397.259 132.048V133C396.95 133.085 396.649 133.127 396.357 133.127C395.833 133.127 395.437 132.968 395.17 132.651C394.904 132.333 394.77 131.883 394.77 131.299V127.04H393.52V126.132H394.77V124.469H395.945ZM404.476 128.88C403.431 128.58 402.669 128.212 402.191 127.776C401.717 127.336 401.48 126.794 401.48 126.151C401.48 125.423 401.77 124.822 402.35 124.348C402.934 123.87 403.691 123.631 404.622 123.631C405.257 123.631 405.822 123.754 406.317 123.999C406.816 124.244 407.202 124.583 407.472 125.015C407.747 125.446 407.885 125.918 407.885 126.43H406.66C406.66 125.872 406.482 125.434 406.127 125.116C405.771 124.795 405.27 124.634 404.622 124.634C404.021 124.634 403.552 124.767 403.213 125.034C402.879 125.296 402.712 125.662 402.712 126.132C402.712 126.508 402.87 126.828 403.188 127.09C403.509 127.348 404.053 127.585 404.819 127.801C405.589 128.017 406.19 128.256 406.622 128.519C407.058 128.777 407.379 129.079 407.587 129.426C407.798 129.773 407.904 130.182 407.904 130.651C407.904 131.4 407.612 132.001 407.028 132.454C406.444 132.903 405.663 133.127 404.686 133.127C404.051 133.127 403.459 133.006 402.908 132.765C402.358 132.52 401.933 132.185 401.633 131.762C401.336 131.339 401.188 130.859 401.188 130.321H402.413C402.413 130.88 402.619 131.322 403.029 131.648C403.444 131.97 403.996 132.13 404.686 132.13C405.329 132.13 405.822 131.999 406.165 131.737C406.508 131.474 406.679 131.117 406.679 130.664C406.679 130.211 406.52 129.862 406.203 129.617C405.885 129.367 405.31 129.122 404.476 128.88ZM414.96 129.642C414.96 130.687 414.72 131.529 414.242 132.168C413.764 132.807 413.117 133.127 412.3 133.127C411.466 133.127 410.81 132.862 410.332 132.333V135.641H409.158V126.132H410.231L410.288 126.894C410.766 126.301 411.43 126.005 412.281 126.005C413.106 126.005 413.758 126.316 414.236 126.938C414.718 127.56 414.96 128.425 414.96 129.534V129.642ZM413.785 129.509C413.785 128.734 413.62 128.123 413.29 127.674C412.96 127.226 412.507 127.001 411.932 127.001C411.221 127.001 410.688 127.317 410.332 127.947V131.229C410.683 131.855 411.221 132.168 411.944 132.168C412.507 132.168 412.954 131.946 413.284 131.502C413.618 131.053 413.785 130.389 413.785 129.509ZM416.017 129.502C416.017 128.83 416.148 128.224 416.41 127.687C416.677 127.15 417.045 126.735 417.515 126.443C417.989 126.151 418.528 126.005 419.133 126.005C420.068 126.005 420.824 126.329 421.399 126.976C421.979 127.624 422.269 128.485 422.269 129.56V129.642C422.269 130.311 422.14 130.912 421.882 131.445C421.628 131.974 421.262 132.386 420.784 132.683C420.31 132.979 419.764 133.127 419.146 133.127C418.215 133.127 417.46 132.803 416.88 132.156C416.304 131.508 416.017 130.651 416.017 129.585V129.502ZM417.197 129.642C417.197 130.404 417.373 131.015 417.724 131.477C418.08 131.938 418.554 132.168 419.146 132.168C419.743 132.168 420.217 131.936 420.568 131.47C420.919 131 421.095 130.345 421.095 129.502C421.095 128.749 420.915 128.14 420.555 127.674C420.2 127.205 419.726 126.97 419.133 126.97C418.554 126.97 418.086 127.2 417.73 127.662C417.375 128.123 417.197 128.783 417.197 129.642ZM426.931 127.186C426.754 127.156 426.561 127.141 426.354 127.141C425.584 127.141 425.061 127.469 424.786 128.125V133H423.612V126.132H424.754L424.773 126.925C425.158 126.312 425.704 126.005 426.411 126.005C426.639 126.005 426.813 126.035 426.931 126.094V127.186ZM429.798 124.469V126.132H431.08V127.04H429.798V131.299C429.798 131.574 429.855 131.781 429.969 131.921C430.083 132.056 430.278 132.124 430.553 132.124C430.688 132.124 430.875 132.099 431.112 132.048V133C430.803 133.085 430.502 133.127 430.21 133.127C429.685 133.127 429.29 132.968 429.023 132.651C428.757 132.333 428.623 131.883 428.623 131.299V127.04H427.373V126.132H428.623V124.469H429.798ZM436.326 131.178C436.326 130.861 436.206 130.615 435.964 130.442C435.727 130.264 435.311 130.112 434.714 129.985C434.122 129.858 433.65 129.706 433.298 129.528C432.951 129.35 432.693 129.139 432.524 128.893C432.359 128.648 432.276 128.356 432.276 128.017C432.276 127.454 432.513 126.978 432.987 126.589C433.466 126.2 434.075 126.005 434.816 126.005C435.594 126.005 436.225 126.206 436.707 126.608C437.194 127.01 437.437 127.524 437.437 128.15H436.256C436.256 127.829 436.119 127.552 435.844 127.319C435.573 127.086 435.23 126.97 434.816 126.97C434.388 126.97 434.054 127.063 433.813 127.249C433.571 127.435 433.451 127.679 433.451 127.979C433.451 128.263 433.563 128.476 433.787 128.62C434.011 128.764 434.416 128.902 435 129.033C435.588 129.164 436.064 129.32 436.428 129.502C436.792 129.684 437.06 129.904 437.234 130.163C437.412 130.417 437.501 130.728 437.501 131.096C437.501 131.709 437.255 132.202 436.764 132.575C436.273 132.943 435.636 133.127 434.854 133.127C434.303 133.127 433.817 133.03 433.394 132.835C432.97 132.64 432.638 132.369 432.397 132.022C432.16 131.671 432.042 131.292 432.042 130.886H433.216C433.237 131.28 433.394 131.593 433.686 131.826C433.982 132.054 434.371 132.168 434.854 132.168C435.298 132.168 435.653 132.08 435.92 131.902C436.191 131.72 436.326 131.479 436.326 131.178ZM329.604 149.382V153H328.385V143.758H331.794C332.805 143.758 333.597 144.016 334.168 144.532C334.744 145.049 335.031 145.732 335.031 146.583C335.031 147.48 334.75 148.172 334.187 148.658C333.629 149.141 332.827 149.382 331.781 149.382H329.604ZM329.604 148.385H331.794C332.446 148.385 332.945 148.233 333.292 147.928C333.639 147.619 333.813 147.175 333.813 146.595C333.813 146.045 333.639 145.605 333.292 145.275C332.945 144.945 332.469 144.773 331.864 144.761H329.604V148.385ZM339.034 153.127C338.103 153.127 337.345 152.822 336.761 152.213C336.177 151.599 335.885 150.78 335.885 149.756V149.541C335.885 148.859 336.014 148.252 336.272 147.719C336.535 147.181 336.899 146.762 337.364 146.462C337.834 146.157 338.342 146.005 338.888 146.005C339.781 146.005 340.475 146.299 340.97 146.887C341.465 147.475 341.712 148.318 341.712 149.414V149.902H337.06C337.077 150.579 337.273 151.127 337.65 151.546C338.031 151.961 338.513 152.168 339.097 152.168C339.512 152.168 339.863 152.084 340.151 151.915C340.439 151.745 340.69 151.521 340.906 151.242L341.624 151.8C341.048 152.685 340.185 153.127 339.034 153.127ZM338.888 146.97C338.414 146.97 338.016 147.143 337.694 147.49C337.373 147.833 337.174 148.315 337.098 148.938H340.538V148.849C340.504 148.252 340.343 147.791 340.056 147.465C339.768 147.135 339.379 146.97 338.888 146.97ZM346.267 147.186C346.089 147.156 345.897 147.141 345.689 147.141C344.919 147.141 344.397 147.469 344.121 148.125V153H342.947V146.132H344.09L344.109 146.925C344.494 146.312 345.04 146.005 345.746 146.005C345.975 146.005 346.149 146.035 346.267 146.094V147.186ZM347.902 153V147.04H346.816V146.132H347.902V145.427C347.902 144.691 348.098 144.122 348.492 143.72C348.886 143.318 349.442 143.117 350.161 143.117C350.432 143.117 350.701 143.153 350.968 143.225L350.904 144.177C350.705 144.139 350.494 144.12 350.269 144.12C349.888 144.12 349.594 144.232 349.387 144.456C349.18 144.676 349.076 144.993 349.076 145.408V146.132H350.542V147.04H349.076V153H347.902ZM351.403 149.502C351.403 148.83 351.534 148.224 351.796 147.687C352.063 147.15 352.431 146.735 352.901 146.443C353.375 146.151 353.914 146.005 354.519 146.005C355.454 146.005 356.21 146.329 356.785 146.976C357.365 147.624 357.655 148.485 357.655 149.56V149.642C357.655 150.311 357.526 150.912 357.268 151.445C357.014 151.974 356.648 152.386 356.17 152.683C355.696 152.979 355.15 153.127 354.532 153.127C353.601 153.127 352.846 152.803 352.266 152.156C351.69 151.508 351.403 150.651 351.403 149.585V149.502ZM352.583 149.642C352.583 150.404 352.759 151.015 353.11 151.477C353.465 151.938 353.939 152.168 354.532 152.168C355.129 152.168 355.603 151.936 355.954 151.47C356.305 151 356.481 150.345 356.481 149.502C356.481 148.749 356.301 148.14 355.941 147.674C355.586 147.205 355.112 146.97 354.519 146.97C353.939 146.97 353.472 147.2 353.116 147.662C352.761 148.123 352.583 148.783 352.583 149.642ZM362.317 147.186C362.14 147.156 361.947 147.141 361.74 147.141C360.97 147.141 360.447 147.469 360.172 148.125V153H358.998V146.132H360.14L360.159 146.925C360.544 146.312 361.09 146.005 361.797 146.005C362.025 146.005 362.199 146.035 362.317 146.094V147.186ZM364.377 146.132L364.409 146.894C364.913 146.301 365.592 146.005 366.447 146.005C367.407 146.005 368.061 146.373 368.408 147.109C368.637 146.779 368.933 146.513 369.297 146.31C369.665 146.106 370.099 146.005 370.598 146.005C372.105 146.005 372.871 146.803 372.896 148.398V153H371.722V148.468C371.722 147.977 371.609 147.611 371.385 147.37C371.161 147.124 370.784 147.001 370.255 147.001C369.819 147.001 369.458 147.133 369.17 147.395C368.882 147.653 368.715 148.002 368.668 148.442V153H367.488V148.5C367.488 147.501 366.999 147.001 366.021 147.001C365.251 147.001 364.724 147.329 364.441 147.985V153H363.267V146.132H364.377ZM378.783 153C378.716 152.865 378.661 152.623 378.618 152.276C378.073 152.843 377.421 153.127 376.663 153.127C375.986 153.127 375.43 152.937 374.994 152.556C374.562 152.171 374.346 151.684 374.346 151.096C374.346 150.381 374.617 149.826 375.159 149.433C375.705 149.035 376.471 148.836 377.457 148.836H378.599V148.296C378.599 147.886 378.477 147.56 378.231 147.319C377.986 147.073 377.624 146.951 377.146 146.951C376.727 146.951 376.376 147.056 376.092 147.268C375.809 147.48 375.667 147.736 375.667 148.036H374.486C374.486 147.693 374.607 147.363 374.848 147.046C375.093 146.724 375.423 146.47 375.838 146.284C376.257 146.098 376.716 146.005 377.216 146.005C378.007 146.005 378.627 146.204 379.075 146.602C379.524 146.995 379.757 147.539 379.774 148.233V151.394C379.774 152.025 379.854 152.526 380.015 152.898V153H378.783ZM376.835 152.105C377.203 152.105 377.552 152.01 377.882 151.819C378.212 151.629 378.451 151.381 378.599 151.077V149.667H377.679C376.24 149.667 375.521 150.089 375.521 150.931C375.521 151.299 375.644 151.587 375.889 151.794C376.134 152.001 376.45 152.105 376.835 152.105ZM382.595 146.132L382.633 146.995C383.158 146.335 383.844 146.005 384.69 146.005C386.142 146.005 386.874 146.824 386.886 148.461V153H385.712V148.455C385.708 147.96 385.594 147.594 385.369 147.357C385.149 147.12 384.804 147.001 384.335 147.001C383.954 147.001 383.619 147.103 383.332 147.306C383.044 147.509 382.82 147.776 382.659 148.106V153H381.485V146.132H382.595ZM391.282 152.168C391.701 152.168 392.067 152.042 392.38 151.788C392.694 151.534 392.867 151.216 392.901 150.835H394.012C393.991 151.229 393.855 151.604 393.606 151.959C393.356 152.314 393.022 152.598 392.603 152.81C392.188 153.021 391.748 153.127 391.282 153.127C390.347 153.127 389.602 152.816 389.048 152.194C388.498 151.568 388.223 150.713 388.223 149.629V149.433C388.223 148.764 388.345 148.169 388.591 147.649C388.836 147.128 389.188 146.724 389.645 146.437C390.106 146.149 390.65 146.005 391.276 146.005C392.046 146.005 392.685 146.236 393.193 146.697C393.705 147.158 393.978 147.757 394.012 148.493H392.901C392.867 148.049 392.698 147.685 392.393 147.401C392.093 147.114 391.72 146.97 391.276 146.97C390.679 146.97 390.216 147.186 389.886 147.617C389.56 148.045 389.397 148.665 389.397 149.477V149.699C389.397 150.491 389.56 151.1 389.886 151.527C390.212 151.955 390.677 152.168 391.282 152.168ZM398.052 153.127C397.121 153.127 396.364 152.822 395.78 152.213C395.196 151.599 394.904 150.78 394.904 149.756V149.541C394.904 148.859 395.033 148.252 395.291 147.719C395.553 147.181 395.917 146.762 396.383 146.462C396.852 146.157 397.36 146.005 397.906 146.005C398.799 146.005 399.493 146.299 399.988 146.887C400.483 147.475 400.731 148.318 400.731 149.414V149.902H396.078C396.095 150.579 396.292 151.127 396.668 151.546C397.049 151.961 397.532 152.168 398.116 152.168C398.53 152.168 398.882 152.084 399.169 151.915C399.457 151.745 399.709 151.521 399.925 151.242L400.642 151.8C400.067 152.685 399.203 153.127 398.052 153.127ZM397.906 146.97C397.432 146.97 397.034 147.143 396.713 147.49C396.391 147.833 396.192 148.315 396.116 148.938H399.557V148.849C399.523 148.252 399.362 147.791 399.074 147.465C398.786 147.135 398.397 146.97 397.906 146.97ZM406.463 149.382V153H405.244V143.758H408.653C409.664 143.758 410.456 144.016 411.027 144.532C411.603 145.049 411.89 145.732 411.89 146.583C411.89 147.48 411.609 148.172 411.046 148.658C410.488 149.141 409.686 149.382 408.64 149.382H406.463ZM406.463 148.385H408.653C409.305 148.385 409.804 148.233 410.151 147.928C410.498 147.619 410.672 147.175 410.672 146.595C410.672 146.045 410.498 145.605 410.151 145.275C409.804 144.945 409.328 144.773 408.723 144.761H406.463V148.385ZM414.407 153H413.233V143.25H414.407V153ZM420.403 153C420.335 152.865 420.28 152.623 420.238 152.276C419.692 152.843 419.04 153.127 418.283 153.127C417.606 153.127 417.049 152.937 416.613 152.556C416.182 152.171 415.966 151.684 415.966 151.096C415.966 150.381 416.237 149.826 416.778 149.433C417.324 149.035 418.09 148.836 419.076 148.836H420.219V148.296C420.219 147.886 420.096 147.56 419.851 147.319C419.605 147.073 419.243 146.951 418.765 146.951C418.346 146.951 417.995 147.056 417.711 147.268C417.428 147.48 417.286 147.736 417.286 148.036H416.105C416.105 147.693 416.226 147.363 416.467 147.046C416.713 146.724 417.043 146.47 417.457 146.284C417.876 146.098 418.336 146.005 418.835 146.005C419.626 146.005 420.246 146.204 420.695 146.602C421.143 146.995 421.376 147.539 421.393 148.233V151.394C421.393 152.025 421.473 152.526 421.634 152.898V153H420.403ZM418.454 152.105C418.822 152.105 419.171 152.01 419.501 151.819C419.832 151.629 420.071 151.381 420.219 151.077V149.667H419.298C417.859 149.667 417.14 150.089 417.14 150.931C417.14 151.299 417.263 151.587 417.508 151.794C417.754 152.001 418.069 152.105 418.454 152.105ZM424.697 144.469V146.132H425.979V147.04H424.697V151.299C424.697 151.574 424.754 151.781 424.868 151.921C424.983 152.056 425.177 152.124 425.452 152.124C425.588 152.124 425.774 152.099 426.011 152.048V153C425.702 153.085 425.402 153.127 425.11 153.127C424.585 153.127 424.189 152.968 423.923 152.651C423.656 152.333 423.523 151.883 423.523 151.299V147.04H422.272V146.132H423.523V144.469H424.697ZM427.804 153V147.04H426.719V146.132H427.804V145.427C427.804 144.691 428.001 144.122 428.395 143.72C428.788 143.318 429.345 143.117 430.064 143.117C430.335 143.117 430.604 143.153 430.87 143.225L430.807 144.177C430.608 144.139 430.396 144.12 430.172 144.12C429.791 144.12 429.497 144.232 429.29 144.456C429.082 144.676 428.979 144.993 428.979 145.408V146.132H430.445V147.04H428.979V153H427.804ZM431.305 149.502C431.305 148.83 431.436 148.224 431.699 147.687C431.965 147.15 432.334 146.735 432.803 146.443C433.277 146.151 433.817 146.005 434.422 146.005C435.357 146.005 436.113 146.329 436.688 146.976C437.268 147.624 437.558 148.485 437.558 149.56V149.642C437.558 150.311 437.429 150.912 437.171 151.445C436.917 151.974 436.551 152.386 436.072 152.683C435.598 152.979 435.053 153.127 434.435 153.127C433.504 153.127 432.748 152.803 432.169 152.156C431.593 151.508 431.305 150.651 431.305 149.585V149.502ZM432.486 149.642C432.486 150.404 432.662 151.015 433.013 151.477C433.368 151.938 433.842 152.168 434.435 152.168C435.031 152.168 435.505 151.936 435.857 151.47C436.208 151 436.383 150.345 436.383 149.502C436.383 148.749 436.204 148.14 435.844 147.674C435.488 147.205 435.014 146.97 434.422 146.97C433.842 146.97 433.375 147.2 433.019 147.662C432.664 148.123 432.486 148.783 432.486 149.642ZM442.22 147.186C442.042 147.156 441.85 147.141 441.643 147.141C440.872 147.141 440.35 147.469 440.075 148.125V153H438.9V146.132H440.043L440.062 146.925C440.447 146.312 440.993 146.005 441.7 146.005C441.928 146.005 442.102 146.035 442.22 146.094V147.186ZM444.28 146.132L444.312 146.894C444.815 146.301 445.495 146.005 446.349 146.005C447.31 146.005 447.964 146.373 448.311 147.109C448.539 146.779 448.836 146.513 449.2 146.31C449.568 146.106 450.001 146.005 450.501 146.005C452.007 146.005 452.773 146.803 452.799 148.398V153H451.624V148.468C451.624 147.977 451.512 147.611 451.288 147.37C451.064 147.124 450.687 147.001 450.158 147.001C449.722 147.001 449.36 147.133 449.073 147.395C448.785 147.653 448.618 148.002 448.571 148.442V153H447.39V148.5C447.39 147.501 446.902 147.001 445.924 147.001C445.154 147.001 444.627 147.329 444.344 147.985V153H443.169V146.132H444.28Z" fill="#939393"/>
<path d="M389.982 1.03664L389.982 1.03661C390.144 0.9878 390.312 0.987795 390.474 1.0366C390.474 1.03661 390.474 1.03661 390.474 1.03661L427.81 12.2803C427.811 12.2808 427.812 12.2812 427.814 12.2816C428.182 12.3985 428.439 12.7486 428.439 13.1358V54.3796C428.439 62.176 422.479 69.7449 414.546 75.9929C406.664 82.2007 397.108 86.8846 390.481 88.9577L390.459 88.9647L390.437 88.9728C390.392 88.9892 390.343 89 390.219 89C390.145 89 390.053 88.986 389.952 88.9559C383.325 86.8819 373.772 82.1989 365.893 75.9929C357.959 69.7449 352 62.176 352 54.3796V13.1358C352 12.7486 352.257 12.3984 352.625 12.2816C352.626 12.2812 352.627 12.2807 352.629 12.2803L389.982 1.03664Z" stroke="#383838" stroke-width="2"/>
<rect x="386" y="38" width="12" height="12" fill="#383838"/>
<rect x="401" y="38" width="12" height="12" fill="#383838"/>
<rect x="386" y="53" width="12" height="12" fill="#383838"/>
<rect x="401" y="53" width="12" height="12" fill="#383838"/>
<path d="M398 34.5C398 25.9396 391.06 19 382.5 19C373.94 19 367 25.9396 367 34.5C367 43.0604 373.94 50 382.5 50" stroke="#383838" stroke-width="3"/>
<path d="M392 34.5C392 29.7637 388.534 25.837 384 25.1178M382.5 44C377.764 44 373.837 40.534 373.118 36" stroke="#383838" stroke-width="2" stroke-dasharray="1 1"/>
<path d="M383 35V24C376.925 24 372 28.925 372 35H383Z" fill="#383838"/>
</svg>
