<svg width="160" height="45" viewBox="0 0 160 45" fill="none" xmlns="http://www.w3.org/2000/svg">
<path d="M33.4069 42.0797C19.6254 50.2986 0 40.2984 0 22.9856H5.37511C5.37511 40.6734 23.5005 46.736 33.4069 42.0797Z" fill="#E60412"/>
<path d="M22.563 17.6104H0.437509C0.437509 17.6104 0.937519 14.6729 2.12504 13.0166H24.6255C28.0631 13.0166 32.1257 16.1729 32.1257 20.1417C32.1257 24.1106 28.0943 26.3606 27.0318 26.4856C28.5318 27.9857 36.0737 34.2983 39.6571 37.2671H31.0944L14.094 23.0168H22.563C27.3131 23.0168 27.0631 17.6104 22.563 17.6104Z" fill="#E60412"/>
<path d="M16.2502 3.14112L16.4377 0.922321C14.6564 0.922321 9.03132 3.45362 5.5625 7.60996C10.8439 3.60988 14.1773 3.26612 16.2502 3.14112Z" fill="#2E282A"/>
<path d="M23.5316 2.82862C23.417 2.26611 23.1254 0.916081 22.8754 0.0160622C22.8754 0.0160622 25.0317 -0.171442 28.4067 0.734827C31.7818 1.6411 33.6256 2.89112 33.6256 2.89112C33.5318 2.97446 32.7943 3.57864 30.5943 5.32867C28.1942 3.42863 24.8858 2.87029 23.5316 2.82862Z" fill="#2E282A"/>
<path d="M44.1258 16.3601C43.407 13.6101 42.5945 11.3288 38.6882 6.8912L36.3444 10.7038C36.5423 10.9225 37.1194 11.685 37.8444 12.9851C38.5694 14.2851 38.9382 15.631 39.0319 16.1414C39.1465 16.131 40.3257 16.1601 44.1258 16.3601Z" fill="#2E282A"/>
<path d="M44.9383 22.7978L39.8132 24.2041C39.782 24.5166 39.6445 25.4728 39.3445 26.7979C39.0444 28.1229 38.5528 29.1208 38.3444 29.4542L42.1258 33.423C42.5216 32.8605 43.4758 31.1417 44.1258 28.7666C44.7758 26.3916 44.9383 23.7978 44.9383 22.7978Z" fill="#2E282A"/>
<path d="M65.0687 24.1551L63.0553 21.2468H62.936H60.8331V24.1551H58.417V13.7151H62.936C63.8607 13.7151 64.6611 13.8692 65.3372 14.1774C66.0233 14.4857 66.5502 14.9232 66.9181 15.4899C67.286 16.0566 67.4699 16.7278 67.4699 17.5033C67.4699 18.2789 67.281 18.95 66.9032 19.5167C66.5353 20.0735 66.0083 20.5011 65.3223 20.7994L67.6638 24.1551H65.0687ZM65.024 17.5033C65.024 16.9167 64.8351 16.4693 64.4573 16.161C64.0794 15.8429 63.5276 15.6838 62.8018 15.6838H60.8331V19.3229H62.8018C63.5276 19.3229 64.0794 19.1638 64.4573 18.8456C64.8351 18.5274 65.024 18.08 65.024 17.5033Z" fill="#2E282A"/>
<path d="M77.4677 22.2162V24.1551H69.3842V13.7151H77.2738V15.654H71.7854V17.9209H76.6325V19.8001H71.7854V22.2162H77.4677Z" fill="#2E282A"/>
<path d="M89.2818 13.7151L84.7627 24.1551H82.3765L77.8724 13.7151H80.4824L83.6591 21.1722L86.8806 13.7151H89.2818Z" fill="#2E282A"/>
<path d="M95.0783 24.334C93.9945 24.334 93.0151 24.1004 92.1402 23.6331C91.2751 23.1658 90.5941 22.5244 90.0969 21.7091C89.6097 20.8839 89.3661 19.9592 89.3661 18.9351C89.3661 17.911 89.6097 16.9913 90.0969 16.176C90.5941 15.3507 91.2751 14.7044 92.1402 14.2371C93.0151 13.7698 93.9945 13.5361 95.0783 13.5361C96.162 13.5361 97.1364 13.7698 98.0015 14.2371C98.8665 14.7044 99.5476 15.3507 100.045 16.176C100.542 16.9913 100.79 17.911 100.79 18.9351C100.79 19.9592 100.542 20.8839 100.045 21.7091C99.5476 22.5244 98.8665 23.1658 98.0015 23.6331C97.1364 24.1004 96.162 24.334 95.0783 24.334ZM95.0783 22.2759C95.6947 22.2759 96.2515 22.1367 96.7487 21.8583C97.2458 21.5699 97.6336 21.1722 97.912 20.6651C98.2003 20.1581 98.3445 19.5814 98.3445 18.9351C98.3445 18.2888 98.2003 17.7121 97.912 17.205C97.6336 16.6979 97.2458 16.3052 96.7487 16.0268C96.2515 15.7385 95.6947 15.5943 95.0783 15.5943C94.4618 15.5943 93.905 15.7385 93.4079 16.0268C92.9107 16.3052 92.518 16.6979 92.2297 17.205C91.9513 17.7121 91.8121 18.2888 91.8121 18.9351C91.8121 19.5814 91.9513 20.1581 92.2297 20.6651C92.518 21.1722 92.9107 21.5699 93.4079 21.8583C93.905 22.1367 94.4618 22.2759 95.0783 22.2759Z" fill="#2E282A"/>
<path d="M102.606 13.7151H105.022V22.1864H110.257V24.1551H102.606V13.7151Z" fill="#2E282A"/>
<path d="M116.114 24.334C114.623 24.334 113.46 23.9214 112.625 23.0962C111.799 22.2709 111.387 21.0927 111.387 19.5615V13.7151H113.803V19.472C113.803 21.3412 114.578 22.2759 116.129 22.2759C116.885 22.2759 117.462 22.0522 117.859 21.6047C118.257 21.1474 118.456 20.4365 118.456 19.472V13.7151H120.842V19.5615C120.842 21.0927 120.425 22.2709 119.589 23.0962C118.764 23.9214 117.606 24.334 116.114 24.334Z" fill="#2E282A"/>
<path d="M125.218 15.6838H121.877V13.7151H130.974V15.6838H127.634V24.1551H125.218V15.6838Z" fill="#2E282A"/>
<path d="M132.274 13.7151H134.691V24.1551H132.274V13.7151Z" fill="#2E282A"/>
<path d="M142.224 24.334C141.14 24.334 140.161 24.1004 139.286 23.6331C138.421 23.1658 137.74 22.5244 137.243 21.7091C136.756 20.8839 136.512 19.9592 136.512 18.9351C136.512 17.911 136.756 16.9913 137.243 16.176C137.74 15.3507 138.421 14.7044 139.286 14.2371C140.161 13.7698 141.14 13.5361 142.224 13.5361C143.308 13.5361 144.282 13.7698 145.147 14.2371C146.012 14.7044 146.693 15.3507 147.191 16.176C147.688 16.9913 147.936 17.911 147.936 18.9351C147.936 19.9592 147.688 20.8839 147.191 21.7091C146.693 22.5244 146.012 23.1658 145.147 23.6331C144.282 24.1004 143.308 24.334 142.224 24.334ZM142.224 22.2759C142.841 22.2759 143.397 22.1367 143.895 21.8583C144.392 21.5699 144.779 21.1722 145.058 20.6651C145.346 20.1581 145.49 19.5814 145.49 18.9351C145.49 18.2888 145.346 17.7121 145.058 17.205C144.779 16.6979 144.392 16.3052 143.895 16.0268C143.397 15.7385 142.841 15.5943 142.224 15.5943C141.608 15.5943 141.051 15.7385 140.554 16.0268C140.057 16.3052 139.664 16.6979 139.376 17.205C139.097 17.7121 138.958 18.2888 138.958 18.9351C138.958 19.5814 139.097 20.1581 139.376 20.6651C139.664 21.1722 140.057 21.5699 140.554 21.8583C141.051 22.1367 141.608 22.2759 142.224 22.2759Z" fill="#2E282A"/>
<path d="M159.327 13.7151V24.1551H157.343L152.138 17.8165V24.1551H149.752V13.7151H151.751L156.941 20.0537V13.7151H159.327Z" fill="#2E282A"/>
<path d="M65.0687 37.1597L63.0553 34.2514H62.936H60.8331V37.1597H58.417V26.7197H62.936C63.8607 26.7197 64.6611 26.8738 65.3372 27.182C66.0233 27.4903 66.5502 27.9278 66.9181 28.4945C67.286 29.0612 67.4699 29.7324 67.4699 30.5079C67.4699 31.2835 67.281 31.9546 66.9032 32.5213C66.5353 33.0781 66.0083 33.5057 65.3223 33.804L67.6638 37.1597H65.0687ZM65.024 30.5079C65.024 29.9213 64.8351 29.4739 64.4573 29.1656C64.0794 28.8475 63.5276 28.6884 62.8018 28.6884H60.8331V32.3275H62.8018C63.5276 32.3275 64.0794 32.1684 64.4573 31.8502C64.8351 31.532 65.024 31.0846 65.024 30.5079Z" fill="#2E282A"/>
<path d="M74.4401 37.3386C73.3564 37.3386 72.377 37.105 71.502 36.6377C70.637 36.1704 69.9559 35.529 69.4588 34.7137C68.9716 33.8885 68.728 32.9638 68.728 31.9397C68.728 30.9156 68.9716 29.9959 69.4588 29.1806C69.9559 28.3553 70.637 27.709 71.502 27.2417C72.377 26.7744 73.3564 26.5407 74.4401 26.5407C75.5239 26.5407 76.4983 26.7744 77.3633 27.2417C78.2283 27.709 78.9094 28.3553 79.4066 29.1806C79.9037 29.9959 80.1523 30.9156 80.1523 31.9397C80.1523 32.9638 79.9037 33.8885 79.4066 34.7137C78.9094 35.529 78.2283 36.1704 77.3633 36.6377C76.4983 37.105 75.5239 37.3386 74.4401 37.3386ZM74.4401 35.2805C75.0566 35.2805 75.6134 35.1413 76.1105 34.8629C76.6077 34.5745 76.9954 34.1768 77.2738 33.6697C77.5622 33.1627 77.7063 32.586 77.7063 31.9397C77.7063 31.2934 77.5622 30.7167 77.2738 30.2096C76.9954 29.7026 76.6077 29.3098 76.1105 29.0314C75.6134 28.7431 75.0566 28.5989 74.4401 28.5989C73.8237 28.5989 73.2669 28.7431 72.7697 29.0314C72.2726 29.3098 71.8798 29.7026 71.5915 30.2096C71.3131 30.7167 71.1739 31.2934 71.1739 31.9397C71.1739 32.586 71.3131 33.1627 71.5915 33.6697C71.8798 34.1768 72.2726 34.5745 72.7697 34.8629C73.2669 35.1413 73.8237 35.2805 74.4401 35.2805Z" fill="#2E282A"/>
<path d="M89.634 31.7309C90.2306 31.9198 90.6979 32.238 91.0359 32.6854C91.374 33.1229 91.543 33.6648 91.543 34.311C91.543 35.2258 91.1851 35.9317 90.4692 36.4289C89.7633 36.9161 88.7292 37.1597 87.367 37.1597H81.9681V26.7197H87.0687C88.3414 26.7197 89.3158 26.9633 89.9919 27.4505C90.678 27.9377 91.021 28.5989 91.021 29.4341C91.021 29.9412 90.8967 30.3936 90.6482 30.7913C90.4095 31.189 90.0715 31.5022 89.634 31.7309ZM84.3693 28.5392V31.0001H86.7705C87.367 31.0001 87.8194 30.8957 88.1277 30.6869C88.4359 30.4781 88.59 30.1699 88.59 29.7622C88.59 29.3546 88.4359 29.0513 88.1277 28.8524C87.8194 28.6436 87.367 28.5392 86.7705 28.5392H84.3693ZM87.1881 35.3401C87.8244 35.3401 88.3017 35.2357 88.6198 35.0269C88.9479 34.8181 89.112 34.495 89.112 34.0575C89.112 33.1925 88.4707 32.76 87.1881 32.76H84.3693V35.3401H87.1881Z" fill="#2E282A"/>
<path d="M98.4281 37.3386C97.3444 37.3386 96.365 37.105 95.49 36.6377C94.625 36.1704 93.9439 35.529 93.4468 34.7137C92.9596 33.8885 92.716 32.9638 92.716 31.9397C92.716 30.9156 92.9596 29.9959 93.4468 29.1806C93.9439 28.3553 94.625 27.709 95.49 27.2417C96.365 26.7744 97.3444 26.5407 98.4281 26.5407C99.5119 26.5407 100.486 26.7744 101.351 27.2417C102.216 27.709 102.897 28.3553 103.395 29.1806C103.892 29.9959 104.14 30.9156 104.14 31.9397C104.14 32.9638 103.892 33.8885 103.395 34.7137C102.897 35.529 102.216 36.1704 101.351 36.6377C100.486 37.105 99.5119 37.3386 98.4281 37.3386ZM98.4281 35.2805C99.0446 35.2805 99.6014 35.1413 100.099 34.8629C100.596 34.5745 100.983 34.1768 101.262 33.6697C101.55 33.1627 101.694 32.586 101.694 31.9397C101.694 31.2934 101.55 30.7167 101.262 30.2096C100.983 29.7026 100.596 29.3098 100.099 29.0314C99.6014 28.7431 99.0446 28.5989 98.4281 28.5989C97.8117 28.5989 97.2549 28.7431 96.7578 29.0314C96.2606 29.3098 95.8679 29.7026 95.5795 30.2096C95.3011 30.7167 95.1619 31.2934 95.1619 31.9397C95.1619 32.586 95.3011 33.1627 95.5795 33.6697C95.8679 34.1768 96.2606 34.5745 96.7578 34.8629C97.2549 35.1413 97.8117 35.2805 98.4281 35.2805Z" fill="#2E282A"/>
<path d="M107.973 28.6884H104.632V26.7197H113.73V28.6884H110.389V37.1597H107.973V28.6884Z" fill="#2E282A"/>
<path d="M115.03 26.7197H117.446V37.1597H115.03V26.7197Z" fill="#2E282A"/>
<path d="M124.92 37.3386C123.856 37.3386 122.892 37.11 122.027 36.6526C121.171 36.1853 120.495 35.544 119.998 34.7286C119.511 33.9034 119.267 32.9737 119.267 31.9397C119.267 30.9056 119.511 29.9809 119.998 29.1656C120.495 28.3404 121.171 27.6991 122.027 27.2417C122.892 26.7744 123.861 26.5407 124.935 26.5407C125.84 26.5407 126.655 26.6998 127.381 27.018C128.117 27.3362 128.733 27.7935 129.23 28.3901L127.679 29.8219C126.973 29.0066 126.098 28.5989 125.054 28.5989C124.408 28.5989 123.831 28.7431 123.324 29.0314C122.817 29.3098 122.419 29.7026 122.131 30.2096C121.853 30.7167 121.713 31.2934 121.713 31.9397C121.713 32.586 121.853 33.1627 122.131 33.6697C122.419 34.1768 122.817 34.5745 123.324 34.8629C123.831 35.1413 124.408 35.2805 125.054 35.2805C126.098 35.2805 126.973 34.8678 127.679 34.0426L129.23 35.4744C128.733 36.0809 128.117 36.5432 127.381 36.8614C126.645 37.1796 125.825 37.3386 124.92 37.3386Z" fill="#2E282A"/>
<path d="M134.205 37.3386C133.379 37.3386 132.579 37.2293 131.803 37.0105C131.038 36.7818 130.421 36.4885 129.954 36.1306L130.774 34.311C131.222 34.6392 131.754 34.9026 132.37 35.1015C132.987 35.3004 133.603 35.3998 134.22 35.3998C134.906 35.3998 135.413 35.3004 135.741 35.1015C136.069 34.8927 136.233 34.6193 136.233 34.2812C136.233 34.0327 136.134 33.8288 135.935 33.6697C135.746 33.5007 135.497 33.3665 135.189 33.2671C134.891 33.1676 134.483 33.0583 133.966 32.9389C133.171 32.75 132.519 32.5611 132.012 32.3722C131.505 32.1833 131.068 31.88 130.7 31.4624C130.342 31.0448 130.163 30.488 130.163 29.792C130.163 29.1855 130.327 28.6387 130.655 28.1515C130.983 27.6543 131.475 27.2616 132.132 26.9732C132.798 26.6849 133.608 26.5407 134.563 26.5407C135.229 26.5407 135.88 26.6203 136.516 26.7794C137.153 26.9384 137.709 27.1671 138.187 27.4654L137.441 29.2999C136.477 28.753 135.512 28.4796 134.548 28.4796C133.872 28.4796 133.369 28.589 133.041 28.8077C132.723 29.0264 132.564 29.3148 132.564 29.6727C132.564 30.0307 132.748 30.2991 133.116 30.4781C133.494 30.6471 134.065 30.8161 134.831 30.9852C135.626 31.1741 136.278 31.363 136.785 31.5519C137.292 31.7408 137.724 32.0391 138.082 32.4468C138.45 32.8544 138.634 33.4063 138.634 34.1023C138.634 34.6988 138.465 35.2457 138.127 35.7428C137.799 36.23 137.302 36.6178 136.636 36.9061C135.969 37.1945 135.159 37.3386 134.205 37.3386Z" fill="#2E282A"/>
</svg>
