<svg width="147" height="22" viewBox="0 0 147 22" fill="none" xmlns="http://www.w3.org/2000/svg">
<path d="M139.566 9.66264V12.6575H141.72V15.6288C141.727 15.8943 141.712 16.1807 141.665 16.4098C141.58 16.9641 141.041 17.9078 139.512 17.9078C137.992 17.9078 137.463 16.9641 137.371 16.4098C137.333 16.1807 137.316 15.8943 137.316 15.6288V6.24383C137.316 5.91186 137.339 5.54852 137.411 5.2735C137.516 4.77331 137.969 3.7869 139.501 3.7869C141.108 3.7869 141.51 4.82684 141.602 5.2735C141.662 5.56935 141.665 6.06559 141.665 6.06559V7.20519H146.958V6.5315C146.958 6.5315 146.982 5.82854 146.918 5.17252C146.52 1.32049 143.272 0.10178 139.547 0.10178C135.816 0.10178 132.634 1.33183 132.17 5.17252C132.129 5.52373 132.065 6.1555 132.065 6.5315V15.1647C132.065 15.5408 132.077 15.8318 132.148 16.519C132.494 20.265 135.816 21.5929 139.533 21.5929C143.272 21.5929 146.572 20.265 146.923 16.519C146.985 15.8318 146.992 15.5408 147 15.1647V9.66264H139.566ZM103.074 0.65418H97.7592V15.8453C97.7676 16.11 97.7592 16.4075 97.7125 16.6255C97.6016 17.1355 97.1594 18.1169 95.693 18.1169C94.2456 18.1169 93.7917 17.1355 93.6892 16.6255C93.636 16.4075 93.6293 16.11 93.636 15.8453V0.65418H88.3228V15.3738C88.316 15.7533 88.3465 16.5285 88.3695 16.7315C88.7362 20.5672 91.8299 21.8125 95.693 21.8125C99.5637 21.8125 102.656 20.5672 103.029 16.7315C103.058 16.5285 103.097 15.7533 103.074 15.3738V0.65418ZM54.2405 0.65418L51.5892 16.7057L48.9396 0.65418H40.3664L39.9118 21.1887H45.164L45.3062 2.17928L48.9199 21.1887H54.2488L57.8658 2.17928L58.0086 21.1887H63.274L62.8039 0.65418H54.2405ZM22.4985 0.65418L18.6057 21.1887H24.2824L27.2159 2.17928L30.0789 21.1887H35.7162L31.8397 0.65418H22.4985ZM121.648 17.1869L116.7 0.65418H108.901V20.9746H114.06L113.76 3.91294L119.075 20.9746H126.555V0.65418H121.362L121.648 17.1869ZM73.9299 5.99835C73.8365 5.59282 73.8635 5.16197 73.9118 4.93679C74.0621 4.27945 74.5141 3.56252 75.8163 3.56252C77.0301 3.56252 77.7417 4.30186 77.7417 5.41141V6.66703H82.9227V5.2358C82.9227 0.81133 78.8631 0.116282 75.924 0.116282C72.2223 0.116282 69.1992 1.30862 68.6471 4.63778C68.5011 5.54377 68.465 6.34798 68.6973 7.3742C69.5975 11.5252 76.9931 12.7294 78.0666 15.3546C78.256 15.8519 78.2018 16.486 78.1052 16.8597C77.9443 17.5428 77.474 18.23 76.0797 18.23C74.772 18.23 73.9849 17.4954 73.9849 16.3882L73.9833 14.4175H68.4067V15.984C68.4067 20.5232 72.0453 21.8927 75.9642 21.8927C79.7175 21.8927 82.8174 20.6394 83.3148 17.2422C83.5519 15.487 83.373 14.3437 83.2778 13.9131C82.4089 9.65552 74.5265 8.37485 73.9299 5.99835V5.99835ZM5.58576 5.94799C5.48403 5.53402 5.50777 5.09711 5.56444 4.86929C5.70799 4.21511 6.16268 3.48552 7.48788 3.48552C8.71702 3.48552 9.44074 4.23199 9.44074 5.3505V6.62141H14.6825V5.17885C14.6825 0.711926 10.5609 1.17646e-06 7.58962 1.17646e-06C3.85687 1.17646e-06 0.806832 1.2108 0.248795 4.56396C0.0960635 5.48445 0.0698801 6.29419 0.290612 7.33175C1.20052 11.53 8.66926 12.7439 9.75592 15.4005C9.95938 15.8943 9.89786 16.5285 9.79693 16.9166C9.6245 17.6069 9.15039 18.3038 7.74451 18.3038C6.43172 18.3038 5.64647 17.5565 5.64647 16.4341L5.63919 14.4581H0V16.0283C0 20.6194 3.6901 22 7.63954 22C11.4365 22 14.5545 20.7357 15.0632 17.2992C15.316 15.5278 15.1264 14.375 15.0411 13.9379C14.1541 9.6281 6.184 8.35165 5.58576 5.94799" fill="#959595"/>
</svg>
