<svg width="127" height="24" viewBox="0 0 127 24" fill="none" xmlns="http://www.w3.org/2000/svg">
<path d="M59.3647 0.217473H55.4698C55.3203 0.33085 55.201 0.477655 55.1219 0.645472C55.0429 0.81329 55.0065 0.997186 55.0158 1.18161C55.0158 1.99942 55.4698 2.17896 55.4698 2.17896H58.938C63.9559 2.17896 67.1103 5.44027 67.1103 11.8699C67.1103 18.7882 63.9972 21.7935 58.4741 21.7935H56.2485C56.0929 21.7719 55.9488 21.7015 55.838 21.593C55.7271 21.4844 55.6555 21.3437 55.6341 21.192C55.6341 19.9053 55.6341 11.7936 55.6341 11.1121C55.6341 7.78753 53.2924 5.94577 49.4897 5.94577C46.9398 5.94577 45.1068 7.06284 44.0759 8.96772V6.87982C44.0825 6.8156 44.0746 6.75075 44.0528 6.68981C44.031 6.62887 43.9957 6.57332 43.9496 6.52706C43.9034 6.4808 43.8474 6.44496 43.7854 6.42204C43.7235 6.39913 43.6572 6.38969 43.5912 6.39441H37.1631C37.0286 6.52511 36.9222 6.68063 36.8501 6.85188C36.778 7.02313 36.7417 7.20666 36.7432 7.39176C36.7293 7.57392 36.7602 7.75669 36.8332 7.92492C36.9062 8.09316 37.0193 8.24203 37.1631 8.3592H38.6002C38.8153 8.38273 39.0141 8.48239 39.1588 8.63927C39.3035 8.79615 39.3841 8.99934 39.3853 9.2103V21.1985C39.3625 21.342 39.292 21.4743 39.1848 21.5752C39.0775 21.676 38.9393 21.7399 38.7913 21.757H37.409L36.7774 23.4723H45.9495C46.1728 23.2242 46.288 22.9009 46.2704 22.5714C46.2813 22.4191 46.2589 22.2662 46.2048 22.123C46.1507 21.9797 46.066 21.8493 45.9563 21.7402H44.8742C44.729 21.7395 44.5896 21.6841 44.4853 21.5856C44.3809 21.4871 44.3197 21.3531 44.3144 21.2116V11.8932C45.2156 9.50618 46.9701 8.09654 48.4106 8.09654C49.776 8.09654 50.6465 9.09388 50.6465 10.5966V21.1021C50.6602 21.2599 50.6112 21.4169 50.5097 21.5406C50.4081 21.6643 50.2618 21.7453 50.1007 21.7669H48.7827C48.6614 21.8693 48.566 21.9975 48.5038 22.1417C48.4417 22.2858 48.4144 22.442 48.4243 22.598C48.4167 22.7651 48.4457 22.9318 48.5092 23.0871C48.5728 23.2424 48.6695 23.3828 48.7929 23.499H59.5798C70.3255 23.499 73.0939 17.2223 73.0939 11.8632C73.0939 3.45922 67.1031 0.217473 59.3647 0.217473Z" fill="#959595"/>
<path d="M35.2138 21.7692C34.0532 21.6461 33.9133 20.9774 33.8962 20.2289V11.0604C33.8962 9.72969 33.4114 8.1694 32.2475 7.22128C30.8001 6.04032 28.694 5.7342 26.8572 5.7342C24.7648 5.68448 22.6795 5.99185 20.6958 6.64241C20.4739 6.72223 20.4227 6.92202 20.4227 7.19798V9.72631C20.4204 9.77137 20.4275 9.81642 20.4436 9.85872C20.4597 9.90102 20.4845 9.93968 20.5164 9.97236C20.5484 10.005 20.5868 10.031 20.6293 10.0488C20.6719 10.0666 20.7177 10.0757 20.764 10.0756H21.7881C21.9028 10.0678 22.014 10.0336 22.1125 9.97577C22.211 9.91794 22.294 9.83817 22.3547 9.743C22.8479 9.1029 23.4591 8.55799 24.1571 8.13619C24.8186 7.77606 25.5603 7.5785 26.3179 7.56062C28.2704 7.56062 29.0965 8.94459 29.0965 10.5547V13.1128C21.7097 12.6969 18.6784 14.8158 18.6784 18.206C18.6784 22.085 21.4093 23.7049 24.1093 23.7049C26.5602 23.7049 28.3899 22.8 29.4174 21.4095C29.6324 22.6171 30.3664 23.4587 31.3427 23.4587H35.1931L35.8212 21.7421L35.2138 21.7692ZM29.0695 19.2309C28.3218 20.1823 27.0862 20.9908 25.7891 20.9908C24.0823 20.9908 23.1334 20.1724 23.1334 18.3294C23.1334 16.2036 24.1574 15.0326 29.0695 15.0326V19.2309Z" fill="#959595"/>
<path d="M84.9731 21.7625H82.942C82.8782 21.7692 82.8136 21.762 82.7529 21.7414C82.6922 21.7208 82.637 21.6874 82.5913 21.6434C82.5455 21.5995 82.5103 21.5462 82.4883 21.4874C82.4663 21.4286 82.4579 21.3658 82.4639 21.3034C82.4639 21.3034 82.4639 7.44078 82.4639 7.03823C82.4639 6.63569 82.3171 6.37286 81.8256 6.37286H75.5653C75.3087 6.63386 75.1624 6.97954 75.1557 7.34097C75.1639 7.70308 75.3099 8.04929 75.5653 8.31239H77.3062C77.4359 8.31239 77.5315 8.40221 77.5315 8.57183V21.2634C77.5287 21.3862 77.48 21.5037 77.3945 21.5938C77.309 21.6839 77.1925 21.7403 77.0672 21.7525H75.0602C74.9341 21.8526 74.8342 21.9806 74.7689 22.1258C74.7036 22.271 74.6748 22.4293 74.6847 22.5875C74.6857 22.919 74.8206 23.2368 75.0602 23.4721H84.9833C85.1927 23.2146 85.307 22.8958 85.3075 22.5672C85.3111 22.4179 85.2832 22.2694 85.2257 22.131C85.1682 21.9926 85.0823 21.8673 84.9731 21.7625Z" fill="#959595"/>
<path d="M8.09351 8.61173C4.66289 7.46145 3.95973 6.49731 3.95973 5.14758C3.95973 3.68176 5.35249 2.20535 8.33928 2.20535C9.46164 2.23456 10.5531 2.56971 11.49 3.17279C12.1246 3.55509 12.7767 4.17014 13.5176 5.42023C13.554 5.48007 13.6034 5.53135 13.6624 5.57043C13.7214 5.60951 13.7885 5.63541 13.859 5.64629H14.941C15.1014 5.64629 15.1561 5.53657 15.1561 5.35703V1.40415C15.1549 1.30091 15.1188 1.20094 15.0534 1.11974C14.988 1.03854 14.8969 0.98066 14.7943 0.955084C12.6486 0.280008 10.4023 -0.0413488 8.1481 0.00425345C3.25995 0.00425345 0 2.70712 0 6.84284C0 10.9021 3.16771 12.6143 7.30836 13.8544C9.91966 14.639 13.0192 15.6962 13.0192 18.2094C13.0192 19.6988 11.6163 21.4207 8.80006 21.4207C6.6325 21.4207 5.21582 20.6826 4.38634 19.8482C3.41041 18.9425 2.6102 17.8726 2.0242 16.6899C1.94231 16.4905 1.80572 16.3175 1.6282 16.3175H0.365231C0.191353 16.3175 0.0579877 16.4406 0.0579877 16.6899V21.3077C0.0591871 21.4157 0.0859961 21.5221 0.136321 21.6184C0.186646 21.7146 0.259127 21.7983 0.348104 21.8628C2.79222 23.1931 5.97359 23.7379 8.61601 23.7246C13.2993 23.6947 16.9314 20.6693 16.9314 15.8055C16.9311 10.5832 12.0088 9.92495 8.09351 8.61173Z" fill="#959595"/>
<path d="M94.9166 12.6838C91.3222 11.8421 90.5917 11.2233 90.5917 9.98942C90.5917 8.94149 91.5202 7.8373 93.3941 7.8373C94.2638 7.852 95.1169 8.07144 95.8807 8.47693C96.6444 8.88242 97.2963 9.46191 97.7806 10.166C97.8283 10.2483 97.8995 10.3154 97.9855 10.3591C98.0715 10.4028 98.1687 10.4212 98.2653 10.4122H99.146C99.2093 10.4131 99.2705 10.3894 99.3159 10.3464C99.3614 10.3033 99.3874 10.2444 99.3883 10.1827V7.15802C99.3974 7.05157 99.3683 6.94536 99.3061 6.85743C99.2438 6.7695 99.1523 6.70528 99.047 6.67566C97.1878 6.20866 95.273 5.9849 93.3532 6.01028C90.3289 6.01028 87.045 7.70029 87.045 11.3331C87.045 14.4469 89.6256 16.1403 91.841 16.7257C95.5959 17.7238 96.7018 18.2424 96.7018 19.8099C96.7018 21.1672 95.6095 21.9889 93.7082 21.9889C91.8068 21.9889 90.025 20.6149 88.9668 18.1864C88.7995 17.9369 88.7006 17.8537 88.5264 17.8537H87.3215C87.277 17.8507 87.2325 17.8575 87.1911 17.8736C87.1497 17.8897 87.1126 17.9146 87.0824 17.9465C87.0523 17.9785 87.0299 18.0166 87.0169 18.0581C87.0039 18.0996 87.0007 18.1435 87.0074 18.1864V21.756C87.0074 22.0322 87.3932 22.3282 87.3932 22.3282C88.1291 22.7536 88.9052 23.109 89.711 23.3894C91.0022 23.8152 92.359 24.0211 93.7219 23.9982C98.1595 23.9982 100.303 21.3069 100.303 18.1664C100.307 15.3121 98.651 13.5554 94.9166 12.6838Z" fill="#959595"/>
<path d="M77.9104 3.99658H82.3718C82.4783 4.00764 82.5853 3.98252 82.675 3.92546C82.7646 3.86841 82.8312 3.78294 82.8636 3.68351L83.8876 0.566315C83.9627 0.306789 83.792 0.17707 83.5463 0.17707H78.8696C78.7714 0.175618 78.6759 0.208303 78.6002 0.269263C78.5245 0.330223 78.4736 0.415469 78.4565 0.509716L77.5929 3.38738C77.4632 3.7174 77.6373 3.99658 77.9104 3.99658Z" fill="#959595"/>
<path d="M122.338 21.7734C121.279 21.7734 120.467 21.4609 120.003 20.776C119.794 20.4735 114.224 12.1888 114.104 11.9896C115.51 10.0946 116.248 9.3969 117.483 8.76482C118.58 8.28737 119.767 8.03719 120.969 8.03013C120.969 8.03013 121.245 7.82398 121.245 7.21232C121.259 7.06094 121.241 6.90833 121.192 6.76413C121.142 6.61993 121.063 6.48727 120.958 6.37452H115.384C115.245 6.38897 115.111 6.43459 114.992 6.50782C114.874 6.58105 114.774 6.67992 114.702 6.79673C114.579 6.96957 110.199 13.1133 109.032 14.7423V0.779082C109.038 0.697796 109.026 0.616182 108.996 0.539829C108.967 0.463477 108.921 0.394192 108.862 0.336725C108.803 0.279257 108.731 0.234964 108.653 0.206882C108.574 0.178801 108.491 0.167595 108.407 0.174031H101.433C101.317 0.28121 101.227 0.411656 101.168 0.556324C101.109 0.700991 101.083 0.856419 101.092 1.01183C101.086 1.3431 101.208 1.6644 101.433 1.91276H103.693C103.966 1.91276 104.089 2.03909 104.089 2.31506V21.3345C104.089 21.6038 103.952 21.7334 103.748 21.7334H101.597C101.373 21.9609 101.25 22.2657 101.256 22.5811C101.256 22.9084 101.377 23.2245 101.597 23.472H110.926C111.092 23.2003 111.182 22.8907 111.186 22.5744C111.189 22.278 111.098 21.9877 110.926 21.7433H109.397C109.346 21.7421 109.296 21.7308 109.249 21.7103C109.203 21.6897 109.161 21.6602 109.127 21.6236C109.092 21.587 109.066 21.5439 109.049 21.4971C109.032 21.4503 109.025 21.4006 109.028 21.351V16.9594C109.462 16.5173 110.257 15.7224 110.36 15.6296C110.405 15.5724 110.465 15.5273 110.533 15.4985C110.602 15.4696 110.676 15.458 110.75 15.4646C110.824 15.4712 110.896 15.4959 110.957 15.5364C111.019 15.5768 111.069 15.6317 111.104 15.6961C111.285 15.982 114.838 21.2882 114.92 21.4242C115.084 21.6902 114.985 21.8065 114.784 21.8065H113.681C113.52 22.0603 113.429 22.3498 113.415 22.6476C113.427 22.9432 113.509 23.2321 113.653 23.492H122.962C123.143 23.2451 123.244 22.951 123.252 22.6476C123.233 22.3289 123.114 22.0237 122.911 21.7733L122.338 21.7734Z" fill="#959595"/>
<path d="M125.874 8.43626V8.17359C125.883 8.08204 125.869 7.98979 125.833 7.90465C125.797 7.81952 125.741 7.74402 125.669 7.68454C125.568 7.61638 125.45 7.57408 125.328 7.56151C125.471 7.55182 125.607 7.50085 125.72 7.4151C125.777 7.36528 125.822 7.30335 125.85 7.23412C125.878 7.16488 125.89 7.0902 125.884 7.01585C125.892 6.90967 125.868 6.80353 125.815 6.71065C125.761 6.61778 125.681 6.54228 125.584 6.49358C125.446 6.42445 125.295 6.38582 125.14 6.38047H124.068V8.57284H124.655V7.78774H124.908C124.975 7.79177 125.041 7.80294 125.106 7.82103C125.144 7.83402 125.18 7.85545 125.209 7.8837C125.238 7.91195 125.26 7.94627 125.273 7.98406C125.297 8.07327 125.31 8.16476 125.314 8.25688C125.315 8.3599 125.328 8.46248 125.351 8.56293H125.918V8.50302C125.901 8.48205 125.887 8.45971 125.874 8.43626ZM125.191 7.31181C125.09 7.37599 124.97 7.40529 124.85 7.39502H124.621V6.76328H124.761C124.876 6.75927 124.991 6.77273 125.102 6.80318C125.157 6.81999 125.204 6.8539 125.237 6.89962C125.27 6.94535 125.286 7.00033 125.283 7.05602C125.292 7.10382 125.288 7.15302 125.272 7.19897C125.256 7.24492 125.228 7.28611 125.191 7.31868L125.191 7.31181Z" fill="#959595"/>
<path d="M126.376 6.06824C126.191 5.87929 125.967 5.72972 125.72 5.62896C125.473 5.5282 125.207 5.47842 124.939 5.48276C124.681 5.47934 124.425 5.52547 124.185 5.61851C123.946 5.71156 123.727 5.84969 123.542 6.02503C123.336 6.20613 123.172 6.42861 123.062 6.67721C122.952 6.92582 122.898 7.1947 122.904 7.46543C122.898 7.79662 122.976 8.12416 123.132 8.41852C123.288 8.71287 123.516 8.96478 123.797 9.15155C124.078 9.33831 124.402 9.45404 124.74 9.48832C125.078 9.5226 125.42 9.47434 125.734 9.34789C126.048 9.22145 126.325 9.02079 126.539 8.76402C126.754 8.50724 126.9 8.20242 126.964 7.87704C127.027 7.55165 127.007 7.21593 126.904 6.90015C126.802 6.58436 126.62 6.29853 126.376 6.06824ZM126.12 8.63317C125.967 8.7865 125.784 8.90801 125.581 8.99035C125.379 9.0727 125.161 9.11416 124.942 9.11223C124.722 9.11559 124.504 9.0748 124.3 8.99239C124.097 8.90997 123.914 8.7877 123.761 8.63317C123.448 8.3276 123.273 7.91366 123.273 7.48212C123.273 7.05058 123.448 6.63664 123.761 6.33107C123.914 6.1755 124.098 6.05173 124.302 5.96717C124.505 5.88262 124.724 5.83903 124.945 5.83903C125.167 5.83903 125.386 5.88262 125.589 5.96717C125.793 6.05173 125.977 6.1755 126.13 6.33107C126.284 6.47959 126.406 6.65684 126.489 6.8523C126.572 7.04775 126.613 7.25741 126.611 7.46882C126.616 7.68792 126.575 7.90568 126.49 8.10877C126.406 8.31185 126.28 8.49597 126.12 8.64986V8.63317Z" fill="#959595"/>
</svg>
