<svg width="122" height="25" viewBox="0 0 122 25" fill="none" xmlns="http://www.w3.org/2000/svg">
<path d="M51.1333 5.36182C48.9304 5.36182 46.425 6.3757 44.8942 8.40551L44.8952 8.4014L44.8942 8.40242L44.8952 5.68058H39.641V24.6769H44.8942V13.8677C44.8942 11.9222 46.4136 9.85435 49.2266 9.85435C51.4006 9.85435 53.6501 11.3556 53.6501 13.8677V24.6769H58.9043V12.9011C58.9043 8.53199 55.7557 5.36182 51.1333 5.36182Z" fill="#959595"/>
<path d="M96.2468 5.68262L91.497 18.6224L86.7472 5.68262H80.7452L88.6177 24.6728H94.3753L102.248 5.68262H96.2468Z" fill="#959595"/>
<path d="M23.9556 11.404C24.8505 10.2112 26.2756 9.51096 27.997 9.51096C29.8903 9.51096 31.3268 10.5845 32.0694 12.169L22.8899 15.95C22.6392 14.0097 23.1395 12.4919 23.9556 11.404ZM34.0497 18.8364C31.8384 20.4611 30.5749 20.8487 28.5583 20.8487C26.7437 20.8487 25.3227 20.2893 24.3212 19.3084L37.7534 13.7762C37.4603 11.7145 36.6721 9.87291 35.4593 8.4724C33.6944 6.43744 31.0824 5.36084 27.9017 5.36084C22.1245 5.36084 17.7682 9.59219 17.7682 15.1809C17.7682 20.9145 22.1348 24.9999 28.4806 24.9999C32.0363 24.9999 35.6716 23.3269 37.3723 21.3721L34.0497 18.8364Z" fill="#959595"/>
<path d="M17.2674 19.8879H5.32565V0H0V24.6776H17.2674V19.8879Z" fill="#959595"/>
<path d="M111.682 9.83124C108.748 9.83124 106.618 12.0389 106.618 15.1793C106.618 18.1777 108.874 20.5274 111.753 20.5274C114.688 20.5274 116.817 18.259 116.817 15.1793C116.817 12.1808 114.561 9.83124 111.682 9.83124ZM111.682 24.9973C105.936 24.9973 101.434 20.7474 101.434 15.1793C101.434 9.67391 105.967 5.36133 111.753 5.36133C117.499 5.36133 122 9.61119 122 15.1793C122 20.6837 117.468 24.9973 111.682 24.9973Z" fill="#959595"/>
<path d="M71.2303 9.83124C68.2962 9.83124 66.1667 12.0389 66.1667 15.1793C66.1667 18.1777 68.4225 20.5274 71.3018 20.5274C74.236 20.5274 76.3654 18.259 76.3654 15.1793C76.3654 12.1808 74.1096 9.83124 71.2303 9.83124ZM71.2303 24.9973C65.4842 24.9973 60.983 20.7474 60.983 15.1793C60.983 9.67391 65.5153 5.36133 71.3018 5.36133C77.0469 5.36133 81.5492 9.61119 81.5492 15.1793C81.5492 20.6837 77.0158 24.9973 71.2303 24.9973Z" fill="#959595"/>
</svg>
