<svg width="473" height="150" viewBox="0 0 473 150" fill="none" xmlns="http://www.w3.org/2000/svg">
<path d="M5.62082 137.38H2.12082L1.43082 139H0.0908195L3.24082 132H4.52082L7.68082 139H6.32082L5.62082 137.38ZM5.19082 136.36L3.87082 133.3L2.56082 136.36H5.19082ZM13.8111 137.9V139H7.84105V138.13L11.9611 133.1H7.91105V132H13.6811V132.87L9.56105 137.9H13.8111ZM17.8119 139.1C16.8452 139.1 16.0919 138.83 15.5519 138.29C15.0119 137.743 14.7419 136.963 14.7419 135.95V132H16.0419V135.9C16.0419 137.273 16.6352 137.96 17.8219 137.96C19.0019 137.96 19.5919 137.273 19.5919 135.9V132H20.8719V135.95C20.8719 136.963 20.6019 137.743 20.0619 138.29C19.5286 138.83 18.7786 139.1 17.8119 139.1ZM27.0725 139L25.6425 136.95C25.5825 136.957 25.4925 136.96 25.3725 136.96H23.7925V139H22.4925V132H25.3725C25.9792 132 26.5059 132.1 26.9525 132.3C27.4059 132.5 27.7525 132.787 27.9925 133.16C28.2325 133.533 28.3525 133.977 28.3525 134.49C28.3525 135.017 28.2225 135.47 27.9625 135.85C27.7092 136.23 27.3425 136.513 26.8625 136.7L28.4725 139H27.0725ZM27.0425 134.49C27.0425 134.043 26.8959 133.7 26.6025 133.46C26.3092 133.22 25.8792 133.1 25.3125 133.1H23.7925V135.89H25.3125C25.8792 135.89 26.3092 135.77 26.6025 135.53C26.8959 135.283 27.0425 134.937 27.0425 134.49ZM34.857 137.91V139H29.607V132H34.717V133.09H30.907V134.91H34.287V135.98H30.907V137.91H34.857ZM38.6699 132H39.9699V139H38.6699V132ZM44.9332 139.1C44.2199 139.1 43.5766 138.947 43.0032 138.64C42.4299 138.327 41.9799 137.897 41.6532 137.35C41.3266 136.797 41.1632 136.18 41.1632 135.5C41.1632 134.82 41.3266 134.207 41.6532 133.66C41.9799 133.107 42.4299 132.677 43.0032 132.37C43.5766 132.057 44.2199 131.9 44.9332 131.9C45.6466 131.9 46.2899 132.057 46.8632 132.37C47.4366 132.677 47.8866 133.103 48.2132 133.65C48.5399 134.197 48.7032 134.813 48.7032 135.5C48.7032 136.187 48.5399 136.803 48.2132 137.35C47.8866 137.897 47.4366 138.327 46.8632 138.64C46.2899 138.947 45.6466 139.1 44.9332 139.1ZM44.9332 137.96C45.3999 137.96 45.8199 137.857 46.1932 137.65C46.5666 137.437 46.8599 137.143 47.0732 136.77C47.2866 136.39 47.3932 135.967 47.3932 135.5C47.3932 135.033 47.2866 134.613 47.0732 134.24C46.8599 133.86 46.5666 133.567 46.1932 133.36C45.8199 133.147 45.3999 133.04 44.9332 133.04C44.4666 133.04 44.0466 133.147 43.6732 133.36C43.2999 133.567 43.0066 133.86 42.7932 134.24C42.5799 134.613 42.4732 135.033 42.4732 135.5C42.4732 135.967 42.5799 136.39 42.7932 136.77C43.0066 137.143 43.2999 137.437 43.6732 137.65C44.0466 137.857 44.4666 137.96 44.9332 137.96ZM51.2036 133.1H48.8836V132H54.8236V133.1H52.5036V139H51.2036V133.1Z" fill="#0178D7"/>
<path fill-rule="evenodd" clip-rule="evenodd" d="M27.2524 82L46.3692 92.9182V114.8L27.244 125.723L8 114.53V110.253L27.2609 121.422L42.6521 112.632V95.0867L27.2524 86.2915L11.8528 95.0867V97.9061L15.1106 99.9651V104.372L8.1356 99.9651V92.9182L27.2524 82Z" fill="#0178D7"/>
<path d="M27.2524 93.736L35.7602 98.6644V108.521L27.2524 113.449L18.7447 108.521V98.6644L27.2524 93.736Z" fill="#0178D7"/>
<path d="M382.23 57.1732H383.59L380.43 50.1732H379.15L376 57.1732H377.34L378.03 55.5532H381.53L382.23 57.1732ZM378.47 54.5332L379.78 51.4732L381.1 54.5332H378.47ZM392.899 50.1732L391.109 55.5232L389.339 50.1732H388.139L386.329 55.4932L384.589 50.1732H383.239L385.559 57.1732H386.949L388.709 51.9932L390.439 57.1732H391.819L394.139 50.1732H392.899ZM397.168 57.2732C399.088 57.2732 399.998 56.3132 399.998 55.1932C399.998 52.6232 395.848 53.5932 395.848 52.1032C395.848 51.5732 396.288 51.1532 397.368 51.1532C397.978 51.1532 398.668 51.3332 399.298 51.7032L399.708 50.6932C399.098 50.2932 398.218 50.0732 397.378 50.0732C395.458 50.0732 394.558 51.0332 394.558 52.1632C394.558 54.7632 398.718 53.7732 398.718 55.2832C398.718 55.8032 398.258 56.1932 397.168 56.1932C396.308 56.1932 395.418 55.8732 394.858 55.4232L394.408 56.4332C394.988 56.9332 396.078 57.2732 397.168 57.2732ZM408.431 55.7732C407.981 56.0332 407.491 56.1332 406.991 56.1332C405.511 56.1332 404.461 55.0932 404.461 53.6732C404.461 52.2232 405.511 51.2132 407.001 51.2132C407.751 51.2132 408.381 51.4632 408.931 52.0132L409.751 51.2132C409.091 50.4632 408.111 50.0732 406.941 50.0732C404.751 50.0732 403.151 51.5832 403.151 53.6732C403.151 55.7632 404.751 57.2732 406.921 57.2732C407.911 57.2732 408.931 56.9732 409.661 56.3832V53.5932H408.431V55.7732ZM417.156 57.1732L415.546 54.8732C416.496 54.5032 417.036 53.7232 417.036 52.6632C417.036 51.1132 415.896 50.1732 414.056 50.1732H411.176V57.1732H412.476V55.1332H414.056C414.146 55.1332 414.236 55.1332 414.326 55.1232L415.756 57.1732H417.156ZM415.726 52.6632C415.726 53.5432 415.136 54.0632 413.996 54.0632H412.476V51.2732H413.996C415.136 51.2732 415.726 51.7832 415.726 52.6632ZM419.59 56.0832V54.1532H422.97V53.0832H419.59V51.2632H423.4V50.1732H418.29V57.1732H423.54V56.0832H419.59ZM426.089 56.0832V54.1532H429.469V53.0832H426.089V51.2632H429.899V50.1732H424.789V57.1732H430.039V56.0832H426.089ZM436.219 50.1732V54.9132L432.359 50.1732H431.289V57.1732H432.579V52.4332L436.439 57.1732H437.509V50.1732H436.219ZM443.964 55.7732C443.514 56.0332 443.024 56.1332 442.524 56.1332C441.044 56.1332 439.994 55.0932 439.994 53.6732C439.994 52.2232 441.044 51.2132 442.534 51.2132C443.284 51.2132 443.914 51.4632 444.464 52.0132L445.284 51.2132C444.624 50.4632 443.644 50.0732 442.474 50.0732C440.284 50.0732 438.684 51.5832 438.684 53.6732C438.684 55.7632 440.284 57.2732 442.454 57.2732C443.444 57.2732 444.464 56.9732 445.194 56.3832V53.5932H443.964V55.7732ZM452.689 57.1732L451.079 54.8732C452.029 54.5032 452.569 53.7232 452.569 52.6632C452.569 51.1132 451.429 50.1732 449.589 50.1732H446.709V57.1732H448.009V55.1332H449.589C449.679 55.1332 449.769 55.1332 449.859 55.1232L451.289 57.1732H452.689ZM451.259 52.6632C451.259 53.5432 450.669 54.0632 449.529 54.0632H448.009V51.2732H449.529C450.669 51.2732 451.259 51.7832 451.259 52.6632ZM459.063 57.1732H460.423L457.263 50.1732H455.983L452.833 57.1732H454.173L454.863 55.5532H458.363L459.063 57.1732ZM455.303 54.5332L456.613 51.4732L457.933 54.5332H455.303ZM463.284 57.2732C465.204 57.2732 466.114 56.3132 466.114 55.1932C466.114 52.6232 461.964 53.5932 461.964 52.1032C461.964 51.5732 462.404 51.1532 463.484 51.1532C464.094 51.1532 464.784 51.3332 465.414 51.7032L465.824 50.6932C465.214 50.2932 464.334 50.0732 463.494 50.0732C461.574 50.0732 460.674 51.0332 460.674 52.1632C460.674 54.7632 464.834 53.7732 464.834 55.2832C464.834 55.8032 464.374 56.1932 463.284 56.1932C462.424 56.1932 461.534 55.8732 460.974 55.4232L460.524 56.4332C461.104 56.9332 462.194 57.2732 463.284 57.2732ZM469.373 57.2732C471.293 57.2732 472.203 56.3132 472.203 55.1932C472.203 52.6232 468.053 53.5932 468.053 52.1032C468.053 51.5732 468.493 51.1532 469.573 51.1532C470.183 51.1532 470.873 51.3332 471.503 51.7032L471.913 50.6932C471.303 50.2932 470.423 50.0732 469.583 50.0732C467.663 50.0732 466.763 51.0332 466.763 52.1632C466.763 54.7632 470.923 53.7732 470.923 55.2832C470.923 55.8032 470.463 56.1932 469.373 56.1932C468.513 56.1932 467.623 55.8732 467.063 55.4232L466.613 56.4332C467.193 56.9332 468.283 57.2732 469.373 57.2732Z" fill="#044851"/>
<path d="M421.463 0.740175C423.172 -0.246725 425.279 -0.246725 426.988 0.740175L441.689 9.22783C443.398 10.2147 444.451 12.0386 444.451 14.0124V30.9876C444.451 32.9614 443.398 34.7853 441.689 35.7722L426.988 44.2598C425.279 45.2467 423.172 45.2467 421.463 44.2598L406.762 35.7722C405.053 34.7853 404 32.9614 404 30.9876V14.0124C404 12.0386 405.053 10.2147 406.762 9.22783L421.463 0.740175Z" fill="#044851"/>
<path fill-rule="evenodd" clip-rule="evenodd" d="M440.517 11.2576L425.816 2.77C424.832 2.20178 423.619 2.20178 422.635 2.77L407.934 11.2576C406.95 11.8258 406.344 12.8759 406.344 14.0124V30.9876C406.344 32.124 406.95 33.1741 407.934 33.7423L422.635 42.23C423.619 42.7982 424.832 42.7982 425.816 42.23L440.517 33.7423C441.501 33.1741 442.108 32.124 442.108 30.9876V14.0124C442.108 12.8759 441.501 11.8258 440.517 11.2576ZM426.988 0.740175C425.279 -0.246725 423.172 -0.246725 421.463 0.740175L406.762 9.22783C405.053 10.2147 404 12.0386 404 14.0124V30.9876C404 32.9614 405.053 34.7853 406.762 35.7722L421.463 44.2598C423.172 45.2467 425.279 45.2467 426.988 44.2598L441.689 35.7722C443.398 34.7853 444.451 32.9614 444.451 30.9876V14.0124C444.451 12.0386 443.398 10.2147 441.689 9.22783L426.988 0.740175Z" fill="#00A9E0"/>
<path d="M411.834 30.5544H410.839L410.649 31.1223H410.045L411.071 28.366H411.597L412.63 31.1223H412.025L411.834 30.5544ZM410.992 30.0944H411.68L411.335 29.0627L410.992 30.0944Z" fill="white"/>
<path d="M414.996 30.3272L415.367 28.366H415.933L415.321 31.1223H414.751L414.302 29.2785L413.853 31.1223H413.281L412.67 28.366H413.236L413.609 30.3235L414.063 28.366H414.544L414.996 30.3272Z" fill="white"/>
<path d="M417.71 30.3987C417.71 30.2915 417.672 30.2094 417.597 30.1526C417.521 30.0946 417.384 30.0341 417.187 29.971C416.99 29.9066 416.834 29.8435 416.719 29.7816C416.407 29.6125 416.251 29.3847 416.251 29.0982C416.251 28.9493 416.292 28.8168 416.376 28.7006C416.46 28.5833 416.581 28.4918 416.737 28.4261C416.895 28.3606 417.071 28.3277 417.267 28.3277C417.464 28.3277 417.64 28.3637 417.793 28.4356C417.947 28.5063 418.066 28.6066 418.151 28.7367C418.237 28.8666 418.28 29.0142 418.28 29.1796H417.712C417.712 29.0534 417.672 28.9556 417.592 28.8862C417.513 28.8155 417.402 28.7802 417.258 28.7802C417.119 28.7802 417.01 28.8098 416.934 28.8692C416.857 28.9272 416.818 29.0042 416.818 29.1001C416.818 29.1897 416.864 29.2648 416.953 29.3254C417.043 29.3859 417.176 29.4428 417.352 29.4957C417.675 29.593 417.91 29.7134 418.058 29.8573C418.206 30.0012 418.28 30.1804 418.28 30.395C418.28 30.6335 418.19 30.8209 418.009 30.9572C417.828 31.0923 417.586 31.1597 417.28 31.1597C417.068 31.1597 416.875 31.1213 416.701 31.0443C416.527 30.9661 416.394 30.8594 416.302 30.7244C416.211 30.5893 416.165 30.4328 416.165 30.2548H416.735C416.735 30.5591 416.916 30.7111 417.28 30.7111C417.415 30.7111 417.521 30.684 417.597 30.6297C417.672 30.5742 417.71 30.4972 417.71 30.3987Z" fill="white"/>
<path d="M421.801 30.7944C421.721 30.9092 421.593 30.9989 421.42 31.0633C421.249 31.1276 421.057 31.1597 420.843 31.1597C420.627 31.1597 420.436 31.108 420.268 31.0045C420.1 30.901 419.97 30.7547 419.877 30.5653C419.785 30.376 419.739 30.159 419.737 29.9141V29.5658C419.737 29.1834 419.834 28.8817 420.027 28.6609C420.22 28.4388 420.479 28.3277 420.805 28.3277C421.089 28.3277 421.317 28.4003 421.491 28.5454C421.663 28.6893 421.766 28.888 421.799 29.1417H421.566C421.532 28.9398 421.45 28.7871 421.318 28.6836C421.188 28.5789 421.017 28.5265 420.807 28.5265C420.55 28.5265 420.345 28.618 420.196 28.801C420.045 28.984 419.971 29.242 419.971 29.5753V29.9009C419.971 30.1104 420.005 30.2959 420.076 30.4575C420.148 30.6177 420.25 30.742 420.383 30.8304C420.517 30.9187 420.67 30.9629 420.843 30.9629C421.044 30.9629 421.216 30.9313 421.359 30.8682C421.453 30.8266 421.523 30.778 421.568 30.7225V30.0107H420.828V29.8138H421.801V30.7944Z" fill="white"/>
<path d="M423.394 29.2666C423.345 29.2578 423.294 29.2534 423.24 29.2534C423.099 29.2534 422.979 29.2932 422.88 29.3727C422.784 29.4509 422.714 29.5651 422.672 29.7153V31.1219H422.447V29.0736H422.669L422.672 29.3991C422.792 29.1568 422.985 29.0357 423.25 29.0357C423.312 29.0357 423.363 29.0439 423.399 29.0604L423.394 29.2666Z" fill="white"/>
<path d="M424.548 31.1597C424.374 31.1597 424.216 31.1169 424.075 31.031C423.935 30.9452 423.826 30.8259 423.747 30.6732C423.669 30.5193 423.63 30.347 423.63 30.1564V30.075C423.63 29.8781 423.668 29.7008 423.744 29.543C423.82 29.3853 423.927 29.2616 424.064 29.172C424.2 29.0811 424.347 29.0357 424.506 29.0357C424.755 29.0357 424.952 29.1209 425.097 29.2913C425.244 29.4604 425.317 29.692 425.317 29.9861V30.1129H423.855V30.1564C423.855 30.3886 423.921 30.5824 424.054 30.7376C424.188 30.8915 424.356 30.9686 424.558 30.9686C424.678 30.9686 424.785 30.9464 424.877 30.9023C424.971 30.8581 425.055 30.7875 425.132 30.6903L425.273 30.7981C425.107 31.0392 424.865 31.1597 424.548 31.1597ZM424.506 29.2288C424.336 29.2288 424.192 29.2913 424.075 29.4162C423.959 29.5411 423.888 29.709 423.863 29.9198H425.091V29.8951C425.085 29.6983 425.029 29.538 424.923 29.4143C424.817 29.2906 424.678 29.2288 424.506 29.2288Z" fill="white"/>
<path d="M426.589 31.1597C426.415 31.1597 426.257 31.1169 426.116 31.031C425.975 30.9452 425.867 30.8259 425.789 30.6732C425.71 30.5193 425.671 30.347 425.671 30.1564V30.075C425.671 29.8781 425.709 29.7008 425.785 29.543C425.861 29.3853 425.968 29.2616 426.105 29.172C426.241 29.0811 426.389 29.0357 426.547 29.0357C426.796 29.0357 426.993 29.1209 427.138 29.2913C427.285 29.4604 427.358 29.692 427.358 29.9861V30.1129H425.896V30.1564C425.896 30.3886 425.963 30.5824 426.095 30.7376C426.229 30.8915 426.397 30.9686 426.598 30.9686C426.72 30.9686 426.826 30.9464 426.918 30.9023C427.012 30.8581 427.096 30.7875 427.172 30.6903L427.314 30.7981C427.147 31.0392 426.906 31.1597 426.589 31.1597ZM426.547 29.2288C426.377 29.2288 426.234 29.2913 426.116 29.4162C426 29.5411 425.929 29.709 425.903 29.9198H427.133V29.8951C427.126 29.6983 427.07 29.538 426.964 29.4143C426.858 29.2906 426.72 29.2288 426.547 29.2288Z" fill="white"/>
<path d="M428.054 29.0736L428.061 29.4238C428.138 29.2976 428.234 29.2017 428.348 29.136C428.463 29.0691 428.59 29.0357 428.729 29.0357C428.949 29.0357 429.112 29.0976 429.219 29.2212C429.327 29.3449 429.381 29.5305 429.382 29.7778V31.1219H429.157V29.7759C429.155 29.5929 429.117 29.4566 429.039 29.3669C428.964 29.2774 428.842 29.2326 428.675 29.2326C428.534 29.2326 428.41 29.2768 428.302 29.3651C428.194 29.4522 428.115 29.5702 428.063 29.7191V31.1219H427.838V29.0736H428.054Z" fill="white"/>
<path d="M429.917 30.0788C429.917 29.7583 429.988 29.5046 430.129 29.3178C430.272 29.1298 430.465 29.0357 430.709 29.0357C430.988 29.0357 431.199 29.1468 431.345 29.3689L431.356 29.0736H431.569V31.0802C431.569 31.344 431.495 31.5528 431.347 31.7069C431.199 31.8608 430.999 31.9378 430.747 31.9378C430.604 31.9378 430.468 31.9056 430.337 31.8413C430.209 31.7782 430.108 31.6936 430.033 31.5876L430.16 31.4513C430.32 31.6481 430.511 31.7466 430.731 31.7466C430.921 31.7466 431.068 31.6905 431.175 31.5781C431.28 31.467 431.335 31.3125 431.339 31.1143V30.8569C431.194 31.0588 430.982 31.1597 430.705 31.1597C430.468 31.1597 430.277 31.0651 430.133 30.8757C429.989 30.6865 429.917 30.4309 429.917 30.1091V30.0788ZM430.147 30.1186C430.147 30.3798 430.199 30.5861 430.304 30.7376C430.409 30.8878 430.556 30.9628 430.747 30.9628C431.025 30.9628 431.223 30.8379 431.339 30.588V29.6358C431.286 29.5046 431.209 29.4049 431.11 29.3367C431.01 29.2673 430.89 29.2326 430.75 29.2326C430.56 29.2326 430.411 29.3077 430.305 29.4579C430.2 29.6068 430.147 29.827 430.147 30.1186Z" fill="white"/>
<path d="M433.144 29.2666C433.096 29.2578 433.045 29.2534 432.991 29.2534C432.85 29.2534 432.729 29.2932 432.631 29.3727C432.534 29.4509 432.464 29.5651 432.423 29.7153V31.1219H432.198V29.0736H432.419L432.423 29.3991C432.542 29.1568 432.735 29.0357 433 29.0357C433.063 29.0357 433.113 29.0439 433.15 29.0604L433.144 29.2666Z" fill="white"/>
<path d="M434.76 31.1219C434.737 31.0575 434.723 30.9622 434.717 30.836C434.637 30.9395 434.535 31.0196 434.411 31.0765C434.289 31.132 434.16 31.1597 434.022 31.1597C433.825 31.1597 433.665 31.1048 433.543 30.995C433.422 30.8852 433.361 30.7464 433.361 30.5785C433.361 30.3792 433.444 30.2214 433.609 30.1052C433.776 29.9892 434.007 29.9312 434.304 29.9312H434.715V29.6983C434.715 29.5519 434.669 29.4371 434.578 29.3537C434.489 29.2692 434.358 29.2269 434.184 29.2269C434.027 29.2269 433.896 29.2673 433.793 29.3481C433.689 29.4289 433.637 29.526 433.637 29.6396L433.41 29.6377C433.41 29.4749 433.486 29.3342 433.637 29.2156C433.789 29.0957 433.975 29.0357 434.196 29.0357C434.424 29.0357 434.604 29.0931 434.735 29.208C434.868 29.3215 434.936 29.4806 434.94 29.685V30.6543C434.94 30.8524 434.96 31.0008 435.002 31.0992V31.1219H434.76ZM434.048 30.9591C434.2 30.9591 434.335 30.9224 434.453 30.8493C434.574 30.7761 434.66 30.6783 434.715 30.5558V30.1052H434.309C434.084 30.1078 433.907 30.1495 433.779 30.2303C433.652 30.3097 433.588 30.4195 433.588 30.5597C433.588 30.6745 433.631 30.7698 433.715 30.8455C433.801 30.9212 433.912 30.9591 434.048 30.9591Z" fill="white"/>
<path d="M436.811 30.6012C436.811 30.489 436.765 30.3987 436.674 30.3306C436.585 30.2624 436.449 30.2094 436.267 30.1715C436.086 30.1324 435.944 30.0883 435.843 30.039C435.743 29.9885 435.669 29.9273 435.62 29.8554C435.571 29.7834 435.548 29.6964 435.548 29.5942C435.548 29.4326 435.615 29.2995 435.75 29.1947C435.885 29.0887 436.058 29.0357 436.269 29.0357C436.497 29.0357 436.68 29.0925 436.818 29.2061C436.957 29.3184 437.026 29.4654 437.026 29.6472H436.799C436.799 29.5273 436.749 29.4276 436.648 29.3481C436.548 29.2686 436.421 29.2288 436.269 29.2288C436.12 29.2288 436 29.2623 435.909 29.3291C435.82 29.3948 435.775 29.4806 435.775 29.5866C435.775 29.6889 435.812 29.7683 435.887 29.8251C435.963 29.8806 436.099 29.9318 436.297 29.9785C436.497 30.0252 436.646 30.075 436.744 30.128C436.844 30.181 436.917 30.2448 436.966 30.3192C437.013 30.3937 437.038 30.4839 437.038 30.5899C437.038 30.7628 436.968 30.901 436.827 31.0045C436.689 31.108 436.507 31.1597 436.282 31.1597C436.044 31.1597 435.85 31.1024 435.701 30.9874C435.553 30.8714 435.479 30.725 435.479 30.5483H435.706C435.716 30.6808 435.771 30.7843 435.873 30.8588C435.977 30.9319 436.113 30.9686 436.282 30.9686C436.44 30.9686 436.567 30.9338 436.665 30.8644C436.762 30.795 436.811 30.7073 436.811 30.6012Z" fill="white"/>
<path d="M438.815 30.6012C438.815 30.489 438.769 30.3987 438.678 30.3306C438.588 30.2624 438.453 30.2094 438.271 30.1715C438.09 30.1324 437.948 30.0883 437.847 30.039C437.748 29.9885 437.673 29.9273 437.624 29.8554C437.576 29.7834 437.552 29.6964 437.552 29.5942C437.552 29.4326 437.619 29.2995 437.754 29.1947C437.889 29.0887 438.062 29.0357 438.273 29.0357C438.502 29.0357 438.684 29.0925 438.822 29.2061C438.961 29.3184 439.031 29.4654 439.031 29.6472H438.803C438.803 29.5273 438.753 29.4276 438.651 29.3481C438.552 29.2686 438.426 29.2288 438.273 29.2288C438.124 29.2288 438.004 29.2623 437.914 29.3291C437.824 29.3948 437.779 29.4806 437.779 29.5866C437.779 29.6889 437.816 29.7683 437.891 29.8251C437.967 29.8806 438.103 29.9318 438.301 29.9785C438.501 30.0252 438.65 30.075 438.748 30.128C438.848 30.181 438.922 30.2448 438.97 30.3192C439.018 30.3937 439.042 30.4839 439.042 30.5899C439.042 30.7628 438.971 30.901 438.832 31.0045C438.692 31.108 438.511 31.1597 438.287 31.1597C438.048 31.1597 437.854 31.1024 437.705 30.9874C437.557 30.8714 437.484 30.725 437.484 30.5483H437.711C437.719 30.6808 437.775 30.7843 437.877 30.8588C437.981 30.9319 438.117 30.9686 438.287 30.9686C438.444 30.9686 438.571 30.9338 438.669 30.8644C438.766 30.795 438.815 30.7073 438.815 30.6012Z" fill="white"/>
<path d="M417.022 34.9503C416.99 35.2406 416.886 35.4627 416.709 35.6167C416.534 35.7707 416.3 35.8476 416.007 35.8476C415.802 35.8476 415.621 35.7966 415.463 35.6943C415.306 35.5921 415.186 35.4476 415.099 35.2608C415.014 35.0728 414.971 34.8582 414.969 34.6172V34.2593C414.969 34.0145 415.012 33.7974 415.098 33.6081C415.184 33.4188 415.306 33.2731 415.467 33.1708C415.628 33.0673 415.814 33.0156 416.024 33.0156C416.319 33.0156 416.552 33.0957 416.723 33.256C416.894 33.4151 416.993 33.6353 417.022 33.9167H416.786C416.728 33.4485 416.475 33.2143 416.024 33.2143C415.774 33.2143 415.575 33.3077 415.426 33.4946C415.278 33.6813 415.204 33.9394 415.204 34.2688V34.6058C415.204 34.9238 415.276 35.1775 415.419 35.3668C415.564 35.5561 415.761 35.6507 416.007 35.6507C416.25 35.6507 416.434 35.5927 416.558 35.4766C416.682 35.3592 416.757 35.1838 416.786 34.9503H417.022Z" fill="white"/>
<path d="M417.448 34.7553C417.448 34.5584 417.486 34.3811 417.561 34.2234C417.639 34.0656 417.746 33.9432 417.885 33.8561C418.025 33.7678 418.183 33.7236 418.36 33.7236C418.633 33.7236 418.854 33.8195 419.023 34.0113C419.192 34.2019 419.277 34.4549 419.277 34.7704V34.8178C419.277 35.0159 419.238 35.1945 419.161 35.3535C419.085 35.5113 418.978 35.633 418.839 35.7189C418.7 35.8047 418.542 35.8476 418.364 35.8476C418.093 35.8476 417.872 35.7523 417.702 35.5618C417.532 35.3699 417.448 35.1162 417.448 34.8007V34.7553ZM417.675 34.8178C417.675 35.0626 417.738 35.2639 417.864 35.4216C417.992 35.5781 418.159 35.6564 418.364 35.6564C418.569 35.6564 418.734 35.5781 418.86 35.4216C418.988 35.2639 419.051 35.0563 419.051 34.7989V34.7553C419.051 34.5988 419.022 34.4555 418.964 34.3256C418.906 34.1956 418.824 34.0952 418.72 34.0246C418.616 33.9526 418.495 33.9167 418.36 33.9167C418.159 33.9167 417.994 33.9962 417.866 34.1553C417.739 34.3129 417.675 34.5199 417.675 34.7762V34.8178Z" fill="white"/>
<path d="M419.991 33.7615L419.999 34.0946C420.074 33.9709 420.169 33.8782 420.282 33.8164C420.396 33.7545 420.522 33.7236 420.661 33.7236C420.984 33.7236 421.19 33.8561 421.276 34.1211C421.349 33.9937 421.448 33.8959 421.57 33.8277C421.692 33.7583 421.827 33.7236 421.975 33.7236C422.414 33.7236 422.638 33.9634 422.647 34.443V35.8098H422.42V34.46C422.419 34.277 422.379 34.1413 422.3 34.053C422.224 33.9647 422.097 33.9204 421.922 33.9204C421.759 33.923 421.622 33.976 421.509 34.0795C421.397 34.1817 421.335 34.3066 421.322 34.4543V35.8098H421.095V34.443C421.093 34.2675 421.052 34.1369 420.97 34.0511C420.889 33.964 420.764 33.9204 420.595 33.9204C420.452 33.9204 420.33 33.9615 420.228 34.0435C420.125 34.1243 420.05 34.2448 420.001 34.4051V35.8098H419.773V33.7615H419.991Z" fill="white"/>
<path d="M424.909 34.8065C424.909 35.1257 424.838 35.3794 424.696 35.5675C424.555 35.7542 424.366 35.8476 424.128 35.8476C423.848 35.8476 423.634 35.7492 423.485 35.5523V36.5973H423.26V33.7615H423.47L423.481 34.0511C423.628 33.8328 423.843 33.7236 424.123 33.7236C424.368 33.7236 424.56 33.8164 424.698 34.0019C424.839 34.1873 424.909 34.4449 424.909 34.7743V34.8065ZM424.682 34.7667C424.682 34.5054 424.628 34.2991 424.52 34.1477C424.413 33.9962 424.263 33.9204 424.072 33.9204C423.933 33.9204 423.814 33.9539 423.714 34.0208C423.614 34.0877 423.538 34.1849 423.485 34.3124V35.2949C423.539 35.4123 423.617 35.5018 423.718 35.5636C423.819 35.6255 423.938 35.6564 424.075 35.6564C424.266 35.6564 424.415 35.5807 424.52 35.4292C424.628 35.2766 424.682 35.0557 424.682 34.7667Z" fill="white"/>
<path d="M426.744 35.8098C426.721 35.7454 426.706 35.6501 426.7 35.5239C426.621 35.6274 426.519 35.7075 426.395 35.7644C426.273 35.8199 426.143 35.8476 426.006 35.8476C425.809 35.8476 425.649 35.7927 425.526 35.6829C425.406 35.5731 425.345 35.4343 425.345 35.2664C425.345 35.0671 425.428 34.9093 425.593 34.7931C425.76 34.6771 425.991 34.6191 426.288 34.6191H426.698V34.3861C426.698 34.2398 426.653 34.1249 426.562 34.0416C426.473 33.9571 426.342 33.9148 426.168 33.9148C426.011 33.9148 425.88 33.9552 425.776 34.036C425.673 34.1167 425.621 34.2139 425.621 34.3275L425.394 34.3256C425.394 34.1628 425.47 34.0221 425.621 33.9035C425.773 33.7835 425.959 33.7236 426.18 33.7236C426.408 33.7236 426.588 33.781 426.719 33.8959C426.852 34.0094 426.92 34.1685 426.923 34.3729V35.3421C426.923 35.5403 426.944 35.6886 426.986 35.7871V35.8098H426.744ZM426.032 35.647C426.184 35.647 426.319 35.6103 426.437 35.5372C426.557 35.464 426.644 35.3661 426.698 35.2437V34.7931H426.293C426.067 34.7957 425.891 34.8374 425.763 34.9181C425.636 34.9976 425.572 35.1074 425.572 35.2476C425.572 35.3624 425.615 35.4577 425.699 35.5334C425.784 35.6091 425.896 35.647 426.032 35.647Z" fill="white"/>
<path d="M427.92 33.2365V33.7609H428.344V33.9464H427.92V35.3113C427.92 35.4249 427.94 35.5095 427.981 35.565C428.022 35.6206 428.092 35.6483 428.187 35.6483C428.226 35.6483 428.287 35.642 428.371 35.6294L428.381 35.8149C428.321 35.8364 428.24 35.8471 428.138 35.8471C427.983 35.8471 427.87 35.8023 427.799 35.7127C427.729 35.6218 427.693 35.4887 427.693 35.3132V33.9464H427.317V33.7609H427.693V33.2365H427.92Z" fill="white"/>
<path d="M429.107 35.8098H428.88V33.7615H429.107V35.8098ZM428.839 33.1689C428.839 33.1261 428.853 33.09 428.881 33.061C428.909 33.0308 428.947 33.0156 428.995 33.0156C429.043 33.0156 429.08 33.0308 429.108 33.061C429.138 33.09 429.152 33.1261 429.152 33.1689C429.152 33.2119 429.138 33.2478 429.108 33.2768C429.08 33.3059 429.043 33.3204 428.995 33.3204C428.947 33.3204 428.909 33.3059 428.881 33.2768C428.853 33.2478 428.839 33.2119 428.839 33.1689Z" fill="white"/>
<path d="M431.411 34.8061C431.411 35.1254 431.341 35.3791 431.199 35.5671C431.058 35.7539 430.867 35.8473 430.629 35.8473C430.344 35.8473 430.128 35.7413 429.982 35.5293L429.973 35.8094H429.76V32.9016H429.985V34.0583C430.13 33.8349 430.343 33.7233 430.626 33.7233C430.867 33.7233 431.059 33.816 431.199 34.0015C431.341 34.1858 431.411 34.4426 431.411 34.772V34.8061ZM431.184 34.7664C431.184 34.4962 431.132 34.288 431.027 34.1416C430.922 33.994 430.774 33.9201 430.584 33.9201C430.439 33.9201 430.316 33.9561 430.214 34.0281C430.114 34.0987 430.037 34.2028 429.985 34.3404V35.2642C430.099 35.5217 430.3 35.6504 430.587 35.6504C430.774 35.6504 430.92 35.5766 431.025 35.4289C431.131 35.2812 431.184 35.0604 431.184 34.7664Z" fill="white"/>
<path d="M432.205 35.8094H431.978V32.9016H432.205V35.8094Z" fill="white"/>
<path d="M433.654 35.8476C433.48 35.8476 433.322 35.8047 433.181 35.7189C433.04 35.633 432.932 35.5138 432.853 35.3611C432.775 35.2072 432.736 35.0349 432.736 34.8443V34.7629C432.736 34.566 432.774 34.3887 432.85 34.2309C432.926 34.0732 433.033 33.9495 433.17 33.8599C433.306 33.769 433.453 33.7236 433.612 33.7236C433.861 33.7236 434.058 33.8088 434.203 33.9792C434.35 34.1482 434.423 34.3799 434.423 34.674V34.8007H432.961V34.8443C432.961 35.0765 433.027 35.2703 433.16 35.4255C433.294 35.5794 433.461 35.6564 433.663 35.6564C433.784 35.6564 433.891 35.6343 433.983 35.5902C434.077 35.546 434.161 35.4754 434.237 35.3781L434.379 35.486C434.212 35.7271 433.97 35.8476 433.654 35.8476ZM433.612 33.9167C433.442 33.9167 433.298 33.9792 433.181 34.1041C433.065 34.229 432.994 34.3969 432.969 34.6077H434.197V34.583C434.191 34.3861 434.134 34.2259 434.029 34.1022C433.923 33.9785 433.784 33.9167 433.612 33.9167Z" fill="white"/>
<path fill-rule="evenodd" clip-rule="evenodd" d="M426.165 19.3877L419.134 12.3563L419.607 11.8827L426.638 18.9142L426.165 19.3877Z" fill="white"/>
<path fill-rule="evenodd" clip-rule="evenodd" d="M427.825 12.5382C428.01 12.5382 428.16 12.6881 428.16 12.873V13.5873C428.16 13.7722 428.01 13.9221 427.825 13.9221C427.641 13.9221 427.49 13.7722 427.49 13.5873V12.873C427.49 12.6881 427.641 12.5382 427.825 12.5382ZM427.825 14.5026C428.01 14.5026 428.16 14.6524 428.16 14.8373V15.4289C428.16 15.6138 428.01 15.7638 427.825 15.7638C427.641 15.7638 427.49 15.6138 427.49 15.4289V14.8373C427.49 14.6524 427.641 14.5026 427.825 14.5026ZM427.825 16.3441C428.01 16.3441 428.16 16.494 428.16 16.679V17.3933C428.16 17.5781 428.01 17.7281 427.825 17.7281C427.641 17.7281 427.49 17.5781 427.49 17.3933V16.679C427.49 16.494 427.641 16.3441 427.825 16.3441Z" fill="white"/>
<path fill-rule="evenodd" clip-rule="evenodd" d="M419.957 20.2388C419.957 20.0539 420.107 19.904 420.292 19.904H421.006C421.191 19.904 421.34 20.0539 421.34 20.2388C421.34 20.4238 421.191 20.5737 421.006 20.5737H420.292C420.107 20.5737 419.957 20.4238 419.957 20.2388ZM421.921 20.2388C421.921 20.0539 422.071 19.904 422.256 19.904H422.848C423.032 19.904 423.183 20.0539 423.183 20.2388C423.183 20.4238 423.032 20.5737 422.848 20.5737H422.256C422.071 20.5737 421.921 20.4238 421.921 20.2388ZM423.763 20.2388C423.763 20.0539 423.913 19.904 424.097 19.904H424.812C424.997 19.904 425.147 20.0539 425.147 20.2388C425.147 20.4238 424.997 20.5737 424.812 20.5737H424.097C423.913 20.5737 423.763 20.4238 423.763 20.2388Z" fill="white"/>
<path fill-rule="evenodd" clip-rule="evenodd" d="M431.843 17.0738C431.843 14.7105 430.725 12.6073 428.983 11.2615L429.598 10.4667C431.574 11.994 432.848 14.3856 432.848 17.0738C432.848 21.69 429.094 25.4294 424.467 25.4294C421.694 25.4294 419.237 24.087 417.711 22.0201L418.52 21.4237C419.863 23.2443 422.026 24.4248 424.467 24.4248C428.542 24.4248 431.843 21.1322 431.843 17.0738Z" fill="white"/>
<path fill-rule="evenodd" clip-rule="evenodd" d="M417.195 21.2432C417.796 21.2432 418.283 20.756 418.283 20.155C418.283 19.554 417.796 19.0668 417.195 19.0668C416.594 19.0668 416.106 19.554 416.106 20.155C416.106 20.756 416.594 21.2432 417.195 21.2432ZM417.195 22.0803C418.258 22.0803 419.12 21.2183 419.12 20.155C419.12 19.0917 418.258 18.2297 417.195 18.2297C416.132 18.2297 415.269 19.0917 415.269 20.155C415.269 21.2183 416.132 22.0803 417.195 22.0803Z" fill="white"/>
<path fill-rule="evenodd" clip-rule="evenodd" d="M427.909 11.0312C428.51 11.0312 428.997 10.544 428.997 9.94295C428.997 9.34199 428.51 8.85475 427.909 8.85475C427.309 8.85475 426.822 9.34199 426.822 9.94295C426.822 10.544 427.309 11.0312 427.909 11.0312ZM427.909 11.8683C428.973 11.8683 429.835 11.0063 429.835 9.94295C429.835 8.87964 428.973 8.01768 427.909 8.01768C426.846 8.01768 425.984 8.87964 425.984 9.94295C425.984 11.0063 426.846 11.8683 427.909 11.8683Z" fill="white"/>
<path fill-rule="evenodd" clip-rule="evenodd" d="M427.742 21.4106C428.343 21.4106 428.83 20.9235 428.83 20.3224C428.83 19.7214 428.343 19.2342 427.742 19.2342C427.14 19.2342 426.653 19.7214 426.653 20.3224C426.653 20.9235 427.14 21.4106 427.742 21.4106ZM427.742 22.2477C428.805 22.2477 429.667 21.3857 429.667 20.3224C429.667 19.2591 428.805 18.3971 427.742 18.3971C426.679 18.3971 425.816 19.2591 425.816 20.3224C425.816 21.3857 426.679 22.2477 427.742 22.2477Z" fill="white"/>
<path d="M420.291 11.5336C420.291 12.3657 419.616 13.0404 418.785 13.0404C417.952 13.0404 417.277 12.3657 417.277 11.5336C417.277 10.7014 417.952 10.0268 418.785 10.0268C419.616 10.0268 420.291 10.7014 420.291 11.5336Z" fill="white"/>
<path d="M382.775 138.078H379.275L378.585 139.698H377.245L380.395 132.698H381.675L384.835 139.698H383.475L382.775 138.078ZM382.345 137.058L381.025 133.998L379.715 137.058H382.345ZM391.955 139.698L391.945 135.058L389.645 138.898H389.065L386.765 135.118V139.698H385.525V132.698H386.595L389.375 137.338L392.105 132.698H393.175L393.185 139.698H391.955ZM399.416 138.078H395.916L395.226 139.698H393.886L397.036 132.698H398.316L401.476 139.698H400.116L399.416 138.078ZM398.986 137.058L397.666 133.998L396.356 137.058H398.986ZM407.606 138.598V139.698H401.636V138.828L405.756 133.798H401.706V132.698H407.476V133.568L403.356 138.598H407.606ZM411.789 139.798C411.075 139.798 410.432 139.645 409.859 139.338C409.285 139.025 408.835 138.595 408.509 138.048C408.182 137.495 408.019 136.878 408.019 136.198C408.019 135.518 408.182 134.905 408.509 134.358C408.835 133.805 409.285 133.375 409.859 133.068C410.432 132.755 411.075 132.598 411.789 132.598C412.502 132.598 413.145 132.755 413.719 133.068C414.292 133.375 414.742 133.802 415.069 134.348C415.395 134.895 415.559 135.512 415.559 136.198C415.559 136.885 415.395 137.502 415.069 138.048C414.742 138.595 414.292 139.025 413.719 139.338C413.145 139.645 412.502 139.798 411.789 139.798ZM411.789 138.658C412.255 138.658 412.675 138.555 413.049 138.348C413.422 138.135 413.715 137.842 413.929 137.468C414.142 137.088 414.249 136.665 414.249 136.198C414.249 135.732 414.142 135.312 413.929 134.938C413.715 134.558 413.422 134.265 413.049 134.058C412.675 133.845 412.255 133.738 411.789 133.738C411.322 133.738 410.902 133.845 410.529 134.058C410.155 134.265 409.862 134.558 409.649 134.938C409.435 135.312 409.329 135.732 409.329 136.198C409.329 136.665 409.435 137.088 409.649 137.468C409.862 137.842 410.155 138.135 410.529 138.348C410.902 138.555 411.322 138.658 411.789 138.658ZM422.957 132.698V139.698H421.887L418.027 134.958V139.698H416.737V132.698H417.807L421.667 137.438V132.698H422.957ZM427.196 132.698H428.496V138.598H432.156V139.698H427.196V132.698ZM437.571 138.078H434.071L433.381 139.698H432.041L435.191 132.698H436.471L439.631 139.698H438.271L437.571 138.078ZM437.141 137.058L435.821 133.998L434.511 137.058H437.141ZM446.752 139.698L446.742 135.058L444.442 138.898H443.862L441.562 135.118V139.698H440.322V132.698H441.392L444.172 137.338L446.902 132.698H447.972L447.982 139.698H446.752ZM454.632 136.058C455.019 136.185 455.326 136.398 455.552 136.698C455.779 136.992 455.892 137.358 455.892 137.798C455.892 138.405 455.659 138.875 455.192 139.208C454.726 139.535 454.046 139.698 453.152 139.698H449.672V132.698H452.952C453.779 132.698 454.416 132.862 454.862 133.188C455.309 133.508 455.532 133.952 455.532 134.518C455.532 134.865 455.452 135.172 455.292 135.438C455.132 135.705 454.912 135.912 454.632 136.058ZM450.972 133.718V135.648H452.812C453.266 135.648 453.612 135.568 453.852 135.408C454.099 135.242 454.222 135.002 454.222 134.688C454.222 134.368 454.099 134.128 453.852 133.968C453.612 133.802 453.266 133.718 452.812 133.718H450.972ZM453.072 138.678C454.079 138.678 454.582 138.342 454.582 137.668C454.582 136.995 454.079 136.658 453.072 136.658H450.972V138.678H453.072ZM457.08 132.698H460.14C460.886 132.698 461.55 132.845 462.13 133.138C462.71 133.425 463.16 133.835 463.48 134.368C463.8 134.895 463.96 135.505 463.96 136.198C463.96 136.892 463.8 137.505 463.48 138.038C463.16 138.565 462.71 138.975 462.13 139.268C461.55 139.555 460.886 139.698 460.14 139.698H457.08V132.698ZM460.08 138.598C460.593 138.598 461.043 138.502 461.43 138.308C461.823 138.108 462.123 137.828 462.33 137.468C462.543 137.102 462.65 136.678 462.65 136.198C462.65 135.718 462.543 135.298 462.33 134.938C462.123 134.572 461.823 134.292 461.43 134.098C461.043 133.898 460.593 133.798 460.08 133.798H458.38V138.598H460.08ZM469.584 138.078H466.084L465.394 139.698H464.054L467.204 132.698H468.484L471.644 139.698H470.284L469.584 138.078ZM469.154 137.058L467.834 133.998L466.524 137.058H469.154Z" fill="#FB7E14"/>
<g clip-path="url(#clip0)">
<path d="M424.403 104.925C424.243 105.152 424.109 105.339 423.979 105.528C421.91 108.572 419.842 111.614 417.774 114.657C415.851 117.487 413.925 120.315 411.998 123.142C411.966 123.187 411.925 123.224 411.878 123.251C411.83 123.279 411.778 123.296 411.723 123.302C409.002 123.279 406.282 123.249 403.562 123.214C403.532 123.214 403.501 123.205 403.441 123.195C403.463 123.139 403.489 123.083 403.518 123.03C405.416 120.089 407.314 117.149 409.211 114.21C410.895 111.605 412.579 109 414.265 106.397C416.132 103.504 417.999 100.608 419.865 97.7113C420.14 97.2842 420.427 96.8651 420.688 96.4299C420.756 96.3134 420.776 96.1758 420.745 96.045C420.242 94.443 419.729 92.845 419.217 91.2471C418.998 90.5626 418.769 89.8823 418.564 89.1938C418.497 88.9727 418.388 88.9054 418.161 88.9064C416.452 88.9134 414.752 88.9114 413.048 88.9114C412.724 88.9114 412.723 88.9114 412.723 88.5918C412.723 86.4974 412.723 84.4029 412.717 82.3085C412.717 82.0753 412.793 82.023 413.013 82.023C416.444 82.0291 419.877 82.0291 423.31 82.023C423.39 82.0129 423.471 82.032 423.537 82.077C423.604 82.1219 423.652 82.1896 423.672 82.2673C425.482 86.8173 427.292 91.3657 429.102 95.9123C431.214 101.215 433.326 106.518 435.438 111.822C436.093 113.468 436.754 115.113 437.403 116.763C437.48 116.964 437.561 117.003 437.764 116.94C439.563 116.384 441.366 115.844 443.164 115.287C443.39 115.217 443.473 115.264 443.543 115.488C444.156 117.415 444.782 119.337 445.403 121.262C445.424 121.328 445.441 121.395 445.466 121.488C445.337 121.535 445.216 121.588 445.093 121.623C441.003 122.918 436.916 124.214 432.831 125.51C432.636 125.571 432.578 125.505 432.512 125.341C431.265 122.181 430.014 119.023 428.76 115.866C427.534 112.774 426.307 109.683 425.08 106.592C424.896 106.127 424.715 105.661 424.531 105.197C424.502 105.117 424.462 105.048 424.403 104.925Z" fill="#FA7E14"/>
</g>
<path d="M5.58488 56.0247H2.08488L1.39488 57.6447H0.0548832L3.20488 50.6447H4.48488L7.64488 57.6447H6.28488L5.58488 56.0247ZM5.15488 55.0047L3.83488 51.9447L2.52488 55.0047H5.15488ZM18.194 50.6447L15.874 57.6447H14.494L12.764 52.4647L11.004 57.6447H9.61402L7.29402 50.6447H8.64402L10.384 55.9647L12.194 50.6447H13.394L15.164 55.9947L16.954 50.6447H18.194ZM21.2231 57.7447C20.6831 57.7447 20.1598 57.668 19.6531 57.5147C19.1531 57.3614 18.7564 57.158 18.4631 56.9047L18.9131 55.8947C19.1998 56.1214 19.5498 56.308 19.9631 56.4547C20.3831 56.5947 20.8031 56.6647 21.2231 56.6647C21.7431 56.6647 22.1298 56.5814 22.3831 56.4147C22.6431 56.248 22.7731 56.028 22.7731 55.7547C22.7731 55.5547 22.6998 55.3914 22.5531 55.2647C22.4131 55.1314 22.2331 55.028 22.0131 54.9547C21.7931 54.8814 21.4931 54.798 21.1131 54.7047C20.5798 54.578 20.1464 54.4514 19.8131 54.3247C19.4864 54.198 19.2031 54.0014 18.9631 53.7347C18.7298 53.4614 18.6131 53.0947 18.6131 52.6347C18.6131 52.248 18.7164 51.898 18.9231 51.5847C19.1364 51.2647 19.4531 51.0114 19.8731 50.8247C20.2998 50.638 20.8198 50.5447 21.4331 50.5447C21.8598 50.5447 22.2798 50.598 22.6931 50.7047C23.1064 50.8114 23.4631 50.9647 23.7631 51.1647L23.3531 52.1747C23.0464 51.9947 22.7264 51.858 22.3931 51.7647C22.0598 51.6714 21.7364 51.6247 21.4231 51.6247C20.9098 51.6247 20.5264 51.7114 20.2731 51.8847C20.0264 52.058 19.9031 52.288 19.9031 52.5747C19.9031 52.7747 19.9731 52.938 20.1131 53.0647C20.2598 53.1914 20.4431 53.2914 20.6631 53.3647C20.8831 53.438 21.1831 53.5214 21.5631 53.6147C22.0831 53.7347 22.5098 53.8614 22.8431 53.9947C23.1764 54.1214 23.4598 54.318 23.6931 54.5847C23.9331 54.8514 24.0531 55.2114 24.0531 55.6647C24.0531 56.0514 23.9464 56.4014 23.7331 56.7147C23.5264 57.028 23.2098 57.278 22.7831 57.4647C22.3564 57.6514 21.8364 57.7447 21.2231 57.7447ZM27.7058 50.6447H29.0058V57.6447H27.7058V50.6447ZM33.9692 57.7447C33.2558 57.7447 32.6125 57.5914 32.0392 57.2847C31.4658 56.9714 31.0158 56.5414 30.6892 55.9947C30.3625 55.4414 30.1992 54.8247 30.1992 54.1447C30.1992 53.4647 30.3625 52.8514 30.6892 52.3047C31.0158 51.7514 31.4658 51.3214 32.0392 51.0147C32.6125 50.7014 33.2558 50.5447 33.9692 50.5447C34.6825 50.5447 35.3258 50.7014 35.8992 51.0147C36.4725 51.3214 36.9225 51.748 37.2492 52.2947C37.5758 52.8414 37.7392 53.458 37.7392 54.1447C37.7392 54.8314 37.5758 55.448 37.2492 55.9947C36.9225 56.5414 36.4725 56.9714 35.8992 57.2847C35.3258 57.5914 34.6825 57.7447 33.9692 57.7447ZM33.9692 56.6047C34.4358 56.6047 34.8558 56.5014 35.2292 56.2947C35.6025 56.0814 35.8958 55.788 36.1092 55.4147C36.3225 55.0347 36.4292 54.6114 36.4292 54.1447C36.4292 53.678 36.3225 53.258 36.1092 52.8847C35.8958 52.5047 35.6025 52.2114 35.2292 52.0047C34.8558 51.7914 34.4358 51.6847 33.9692 51.6847C33.5025 51.6847 33.0825 51.7914 32.7092 52.0047C32.3358 52.2114 32.0425 52.5047 31.8292 52.8847C31.6158 53.258 31.5092 53.678 31.5092 54.1447C31.5092 54.6114 31.6158 55.0347 31.8292 55.4147C32.0425 55.788 32.3358 56.0814 32.7092 56.2947C33.0825 56.5014 33.5025 56.6047 33.9692 56.6047ZM40.2395 51.7447H37.9195V50.6447H43.8595V51.7447H41.5395V57.6447H40.2395V51.7447Z" fill="#19A2C6"/>
<path d="M19.9843 0.442422C21.0069 -0.147474 22.2668 -0.147474 23.2894 0.442422L39.591 9.84617C40.6137 10.4361 41.2436 11.5262 41.2436 12.706V31.5135C41.2436 32.6933 40.6137 33.7835 39.591 34.3734L23.2894 43.7771C22.2668 44.367 21.0069 44.367 19.9843 43.7771L3.68258 34.3734C2.65998 33.7835 2.03003 32.6933 2.03003 31.5135V12.706C2.03003 11.5262 2.65998 10.4361 3.68258 9.84617L19.9843 0.442422Z" fill="#19A2C6"/>
<path fill-rule="evenodd" clip-rule="evenodd" d="M10.1425 23.461C11.5935 23.461 12.7698 22.2592 12.7698 20.7767C12.7698 19.2941 11.5935 18.0923 10.1425 18.0923C8.69155 18.0923 7.51529 19.2941 7.51529 20.7767C7.51529 22.2592 8.69155 23.461 10.1425 23.461ZM10.1425 24.8032C12.319 24.8032 14.0834 23.0005 14.0834 20.7767C14.0834 18.5529 12.319 16.7501 10.1425 16.7501C7.96605 16.7501 6.20166 18.5529 6.20166 20.7767C6.20166 23.0005 7.96605 24.8032 10.1425 24.8032Z" fill="white"/>
<path fill-rule="evenodd" clip-rule="evenodd" d="M33.131 23.461C34.582 23.461 35.7583 22.2592 35.7583 20.7767C35.7583 19.2941 34.582 18.0923 33.131 18.0923C31.68 18.0923 30.5038 19.2941 30.5038 20.7767C30.5038 22.2592 31.68 23.461 33.131 23.461ZM33.131 24.8032C35.3075 24.8032 37.0719 23.0005 37.0719 20.7767C37.0719 18.5529 35.3075 16.7501 33.131 16.7501C30.9545 16.7501 29.1902 18.5529 29.1902 20.7767C29.1902 23.0005 30.9545 24.8032 33.131 24.8032Z" fill="white"/>
<path fill-rule="evenodd" clip-rule="evenodd" d="M21.6368 11.7169C23.0878 11.7169 24.264 10.5151 24.264 9.03254C24.264 7.55 23.0878 6.34817 21.6368 6.34817C20.1858 6.34817 19.0095 7.55 19.0095 9.03254C19.0095 10.5151 20.1858 11.7169 21.6368 11.7169ZM21.6368 13.0591C23.8133 13.0591 25.5777 11.2563 25.5777 9.03254C25.5777 6.80873 23.8133 5.00598 21.6368 5.00598C19.4603 5.00598 17.6959 6.80873 17.6959 9.03254C17.6959 11.2563 19.4603 13.0591 21.6368 13.0591Z" fill="white"/>
<path fill-rule="evenodd" clip-rule="evenodd" d="M25.0836 10.9863C25.3984 10.4078 25.5777 9.7414 25.5777 9.03254C25.5777 9.03135 25.5776 9.03045 25.5776 9.02926C29.1184 10.2689 31.9212 13.1327 33.1345 16.7504L33.131 16.7501C32.4373 16.7501 31.7853 16.9336 31.2191 17.2552C30.1938 14.3434 27.9334 12.0339 25.0836 10.9863ZM18.1899 10.9863C15.3401 12.0339 13.0797 14.3434 12.0544 17.2552C11.4882 16.9336 10.8363 16.7501 10.1425 16.7501L10.139 16.7504C11.3523 13.1327 14.1551 10.2689 17.6959 9.02926C17.6959 9.03045 17.6959 9.03135 17.6959 9.03254C17.6959 9.7414 17.8752 10.4078 18.1899 10.9863ZM21.6368 31.1789C26.0495 31.1789 29.8066 28.3103 31.2191 24.2987C31.7853 24.6203 32.4373 24.8032 33.131 24.8032L33.1345 24.8035C31.4977 29.6839 26.9682 33.1922 21.6368 33.1922C16.3053 33.1922 11.7758 29.6839 10.139 24.8035L10.1425 24.8032C10.8363 24.8032 11.4882 24.6203 12.0544 24.2987C13.467 28.3103 17.224 31.1789 21.6368 31.1789Z" fill="white"/>
<path fill-rule="evenodd" clip-rule="evenodd" d="M22.2936 13.0591V35.8762H20.98V13.0591H22.2936ZM15.3971 21.4478H13.755V20.1056H15.3971C17.0294 20.1056 18.3527 21.4576 18.3527 23.1255V35.8762H17.0391V23.1255C17.0391 22.1989 16.3039 21.4478 15.3971 21.4478ZM27.5481 21.6155C26.6412 21.6155 25.9061 22.3667 25.9061 23.2933V35.8762H24.5925V23.2933C24.5925 21.6254 25.9157 20.2733 27.5481 20.2733H29.3544V21.6155H27.5481Z" fill="white"/>
<path d="M110.517 137.38H107.017L106.327 139H104.987L108.137 132H109.417L112.577 139H111.217L110.517 137.38ZM110.087 136.36L108.767 133.3L107.457 136.36H110.087ZM123.126 132L120.806 139H119.426L117.696 133.82L115.936 139H114.546L112.226 132H113.576L115.316 137.32L117.126 132H118.326L120.096 137.35L121.886 132H123.126ZM126.156 139.1C125.616 139.1 125.092 139.023 124.586 138.87C124.086 138.717 123.689 138.513 123.396 138.26L123.846 137.25C124.132 137.477 124.482 137.663 124.896 137.81C125.316 137.95 125.736 138.02 126.156 138.02C126.676 138.02 127.062 137.937 127.316 137.77C127.576 137.603 127.706 137.383 127.706 137.11C127.706 136.91 127.632 136.747 127.486 136.62C127.346 136.487 127.166 136.383 126.946 136.31C126.726 136.237 126.426 136.153 126.046 136.06C125.512 135.933 125.079 135.807 124.746 135.68C124.419 135.553 124.136 135.357 123.896 135.09C123.662 134.817 123.546 134.45 123.546 133.99C123.546 133.603 123.649 133.253 123.856 132.94C124.069 132.62 124.386 132.367 124.806 132.18C125.232 131.993 125.752 131.9 126.366 131.9C126.792 131.9 127.212 131.953 127.626 132.06C128.039 132.167 128.396 132.32 128.696 132.52L128.286 133.53C127.979 133.35 127.659 133.213 127.326 133.12C126.992 133.027 126.669 132.98 126.356 132.98C125.842 132.98 125.459 133.067 125.206 133.24C124.959 133.413 124.836 133.643 124.836 133.93C124.836 134.13 124.906 134.293 125.046 134.42C125.192 134.547 125.376 134.647 125.596 134.72C125.816 134.793 126.116 134.877 126.496 134.97C127.016 135.09 127.442 135.217 127.776 135.35C128.109 135.477 128.392 135.673 128.626 135.94C128.866 136.207 128.986 136.567 128.986 137.02C128.986 137.407 128.879 137.757 128.666 138.07C128.459 138.383 128.142 138.633 127.716 138.82C127.289 139.007 126.769 139.1 126.156 139.1ZM132.638 132H133.938V139H132.638V132ZM138.902 139.1C138.188 139.1 137.545 138.947 136.972 138.64C136.398 138.327 135.948 137.897 135.622 137.35C135.295 136.797 135.132 136.18 135.132 135.5C135.132 134.82 135.295 134.207 135.622 133.66C135.948 133.107 136.398 132.677 136.972 132.37C137.545 132.057 138.188 131.9 138.902 131.9C139.615 131.9 140.258 132.057 140.832 132.37C141.405 132.677 141.855 133.103 142.182 133.65C142.508 134.197 142.672 134.813 142.672 135.5C142.672 136.187 142.508 136.803 142.182 137.35C141.855 137.897 141.405 138.327 140.832 138.64C140.258 138.947 139.615 139.1 138.902 139.1ZM138.902 137.96C139.368 137.96 139.788 137.857 140.162 137.65C140.535 137.437 140.828 137.143 141.042 136.77C141.255 136.39 141.362 135.967 141.362 135.5C141.362 135.033 141.255 134.613 141.042 134.24C140.828 133.86 140.535 133.567 140.162 133.36C139.788 133.147 139.368 133.04 138.902 133.04C138.435 133.04 138.015 133.147 137.642 133.36C137.268 133.567 136.975 133.86 136.762 134.24C136.548 134.613 136.442 135.033 136.442 135.5C136.442 135.967 136.548 136.39 136.762 136.77C136.975 137.143 137.268 137.437 137.642 137.65C138.015 137.857 138.435 137.96 138.902 137.96ZM145.172 133.1H142.852V132H148.792V133.1H146.472V139H145.172V133.1ZM157.381 137.91V139H152.131V132H157.241V133.09H153.431V134.91H156.811V135.98H153.431V137.91H157.381ZM164.933 132L161.883 139H160.603L157.543 132H158.953L161.283 137.4L163.633 132H164.933ZM170.721 137.91V139H165.471V132H170.581V133.09H166.771V134.91H170.151V135.98H166.771V137.91H170.721ZM178.191 132V139H177.121L173.261 134.26V139H171.971V132H173.041L176.901 136.74V132H178.191ZM181.286 133.1H178.966V132H184.906V133.1H182.586V139H181.286V133.1ZM187.784 139.1C187.244 139.1 186.72 139.023 186.214 138.87C185.714 138.717 185.317 138.513 185.024 138.26L185.474 137.25C185.76 137.477 186.11 137.663 186.524 137.81C186.944 137.95 187.364 138.02 187.784 138.02C188.304 138.02 188.69 137.937 188.944 137.77C189.204 137.603 189.334 137.383 189.334 137.11C189.334 136.91 189.26 136.747 189.114 136.62C188.974 136.487 188.794 136.383 188.574 136.31C188.354 136.237 188.054 136.153 187.674 136.06C187.14 135.933 186.707 135.807 186.374 135.68C186.047 135.553 185.764 135.357 185.524 135.09C185.29 134.817 185.174 134.45 185.174 133.99C185.174 133.603 185.277 133.253 185.484 132.94C185.697 132.62 186.014 132.367 186.434 132.18C186.86 131.993 187.38 131.9 187.994 131.9C188.42 131.9 188.84 131.953 189.254 132.06C189.667 132.167 190.024 132.32 190.324 132.52L189.914 133.53C189.607 133.35 189.287 133.213 188.954 133.12C188.62 133.027 188.297 132.98 187.984 132.98C187.47 132.98 187.087 133.067 186.834 133.24C186.587 133.413 186.464 133.643 186.464 133.93C186.464 134.13 186.534 134.293 186.674 134.42C186.82 134.547 187.004 134.647 187.224 134.72C187.444 134.793 187.744 134.877 188.124 134.97C188.644 135.09 189.07 135.217 189.404 135.35C189.737 135.477 190.02 135.673 190.254 135.94C190.494 136.207 190.614 136.567 190.614 137.02C190.614 137.407 190.507 137.757 190.294 138.07C190.087 138.383 189.77 138.633 189.344 138.82C188.917 139.007 188.397 139.1 187.784 139.1Z" fill="#19A2C6"/>
<path d="M156.983 111.725C151.987 111.725 147.899 107.637 147.899 102.641C147.899 97.6449 151.987 93.557 156.983 93.557C161.374 93.557 165.108 96.686 165.916 101.026L163.948 101.379C163.342 98.0486 160.415 95.5757 156.983 95.5757C153.097 95.5757 149.918 98.7551 149.918 102.641C149.918 106.527 153.097 109.707 156.983 109.707C159.658 109.707 162.08 108.193 163.292 105.821L165.108 106.729C163.544 109.807 160.465 111.725 156.983 111.725Z" fill="#00A9E0"/>
<path d="M168.035 101.279C167.379 95.7271 162.635 91.5383 157.034 91.5383C151.432 91.5383 146.688 95.7271 146.032 101.279L144.013 101.026C144.821 94.4654 150.422 89.4692 157.034 89.4692C163.695 89.4692 169.247 94.415 170.054 101.026L168.035 101.279Z" fill="#00A9E0"/>
<path d="M156.983 115.763C151.331 115.763 146.335 112.179 144.568 106.83L146.486 106.174C148 110.665 152.239 113.693 156.983 113.693C161.879 113.693 166.118 110.564 167.581 105.922L169.499 106.527C167.783 112.079 162.736 115.763 156.983 115.763Z" fill="#00A9E0"/>
<path d="M171.871 112.129L170.155 111.019C171.114 109.505 171.821 107.789 172.224 106.022L174.193 106.477C173.789 108.495 172.981 110.413 171.871 112.129Z" fill="#00A9E0"/>
<path d="M172.578 101.279C172.426 99.7645 172.073 98.2505 171.518 96.8374L173.385 96.0804C174.041 97.6953 174.445 99.3608 174.596 101.077L172.578 101.279Z" fill="#00A9E0"/>
<path d="M157.135 120.254C155.52 120.254 153.854 120.052 152.239 119.598C147.041 118.135 142.852 114.551 140.733 109.707L142.6 108.899C144.467 113.189 148.151 116.368 152.794 117.63C157.387 118.892 162.232 118.135 166.017 115.409L167.178 117.075C164.25 119.144 160.718 120.254 157.135 120.254Z" fill="#00A9E0"/>
<path d="M142.146 97.6953L140.228 97.0393C142.398 90.4785 148.303 85.785 155.166 85.0785L155.368 87.0972C149.262 87.7028 144.064 91.8916 142.146 97.6953Z" fill="#00A9E0"/>
<path d="M137.268 88.4252L135.84 89.8526L141.265 95.2768L142.692 93.8494L137.268 88.4252Z" fill="#00A9E0"/>
<path d="M148.908 102.692H129.579V104.71H148.908V102.692Z" fill="#00A9E0"/>
<path d="M141.763 110.991L135.827 117.933L137.361 119.245L143.298 112.303L141.763 110.991Z" fill="#00A9E0"/>
<path d="M134.172 91.5888C131.497 91.5888 129.378 89.4187 129.378 86.7944C129.378 84.1701 131.548 82 134.172 82C136.796 82 138.966 84.1701 138.966 86.7944C138.966 89.4187 136.847 91.5888 134.172 91.5888ZM134.172 83.9682C132.607 83.9682 131.396 85.2299 131.396 86.7439C131.396 88.2579 132.658 89.5196 134.172 89.5196C135.686 89.5196 136.948 88.2579 136.948 86.7439C136.948 85.2299 135.736 83.9682 134.172 83.9682Z" fill="#00A9E0"/>
<path d="M125.794 108.546C123.12 108.546 121 106.376 121 103.751C121 101.127 123.17 98.957 125.794 98.957C128.419 98.957 130.589 101.127 130.589 103.751C130.589 106.376 128.419 108.546 125.794 108.546ZM125.794 100.925C124.23 100.925 123.019 102.187 123.019 103.701C123.019 105.265 124.28 106.477 125.794 106.477C127.308 106.477 128.57 105.215 128.57 103.701C128.57 102.187 127.308 100.925 125.794 100.925Z" fill="#00A9E0"/>
<path d="M134.172 126.209C131.497 126.209 129.378 124.039 129.378 121.415C129.378 118.74 131.548 116.621 134.172 116.621C136.796 116.621 138.966 118.791 138.966 121.415C139.017 124.039 136.847 126.209 134.172 126.209ZM134.172 118.589C132.607 118.589 131.396 119.85 131.396 121.365C131.396 122.879 132.658 124.14 134.172 124.14C135.686 124.14 136.948 122.879 136.948 121.365C136.948 119.85 135.736 118.589 134.172 118.589Z" fill="#00A9E0"/>
<path d="M175 102.692H160.97V104.71H175V102.692Z" fill="#00A9E0"/>
<path d="M251.372 137.38H247.872L247.182 139H245.842L248.992 132H250.272L253.432 139H252.072L251.372 137.38ZM250.942 136.36L249.622 133.3L248.312 136.36H250.942ZM263.981 132L261.661 139H260.281L258.551 133.82L256.791 139H255.401L253.081 132H254.431L256.171 137.32L257.981 132H259.181L260.951 137.35L262.741 132H263.981ZM267.01 139.1C266.47 139.1 265.947 139.023 265.44 138.87C264.94 138.717 264.544 138.513 264.25 138.26L264.7 137.25C264.987 137.477 265.337 137.663 265.75 137.81C266.17 137.95 266.59 138.02 267.01 138.02C267.53 138.02 267.917 137.937 268.17 137.77C268.43 137.603 268.56 137.383 268.56 137.11C268.56 136.91 268.487 136.747 268.34 136.62C268.2 136.487 268.02 136.383 267.8 136.31C267.58 136.237 267.28 136.153 266.9 136.06C266.367 135.933 265.934 135.807 265.6 135.68C265.274 135.553 264.99 135.357 264.75 135.09C264.517 134.817 264.4 134.45 264.4 133.99C264.4 133.603 264.504 133.253 264.71 132.94C264.924 132.62 265.24 132.367 265.66 132.18C266.087 131.993 266.607 131.9 267.22 131.9C267.647 131.9 268.067 131.953 268.48 132.06C268.894 132.167 269.25 132.32 269.55 132.52L269.14 133.53C268.834 133.35 268.514 133.213 268.18 133.12C267.847 133.027 267.524 132.98 267.21 132.98C266.697 132.98 266.314 133.067 266.06 133.24C265.814 133.413 265.69 133.643 265.69 133.93C265.69 134.13 265.76 134.293 265.9 134.42C266.047 134.547 266.23 134.647 266.45 134.72C266.67 134.793 266.97 134.877 267.35 134.97C267.87 135.09 268.297 135.217 268.63 135.35C268.964 135.477 269.247 135.673 269.48 135.94C269.72 136.207 269.84 136.567 269.84 137.02C269.84 137.407 269.734 137.757 269.52 138.07C269.314 138.383 268.997 138.633 268.57 138.82C268.144 139.007 267.624 139.1 267.01 139.1ZM273.493 132H274.793V139H273.493V132ZM279.756 139.1C279.043 139.1 278.4 138.947 277.826 138.64C277.253 138.327 276.803 137.897 276.476 137.35C276.15 136.797 275.986 136.18 275.986 135.5C275.986 134.82 276.15 134.207 276.476 133.66C276.803 133.107 277.253 132.677 277.826 132.37C278.4 132.057 279.043 131.9 279.756 131.9C280.47 131.9 281.113 132.057 281.686 132.37C282.26 132.677 282.71 133.103 283.036 133.65C283.363 134.197 283.526 134.813 283.526 135.5C283.526 136.187 283.363 136.803 283.036 137.35C282.71 137.897 282.26 138.327 281.686 138.64C281.113 138.947 280.47 139.1 279.756 139.1ZM279.756 137.96C280.223 137.96 280.643 137.857 281.016 137.65C281.39 137.437 281.683 137.143 281.896 136.77C282.11 136.39 282.216 135.967 282.216 135.5C282.216 135.033 282.11 134.613 281.896 134.24C281.683 133.86 281.39 133.567 281.016 133.36C280.643 133.147 280.223 133.04 279.756 133.04C279.29 133.04 278.87 133.147 278.496 133.36C278.123 133.567 277.83 133.86 277.616 134.24C277.403 134.613 277.296 135.033 277.296 135.5C277.296 135.967 277.403 136.39 277.616 136.77C277.83 137.143 278.123 137.437 278.496 137.65C278.87 137.857 279.29 137.96 279.756 137.96ZM286.027 133.1H283.707V132H289.647V133.1H287.327V139H286.027V133.1ZM296.226 139.1C295.519 139.1 294.879 138.947 294.306 138.64C293.739 138.327 293.293 137.897 292.966 137.35C292.646 136.803 292.486 136.187 292.486 135.5C292.486 134.813 292.649 134.197 292.976 133.65C293.303 133.103 293.749 132.677 294.316 132.37C294.889 132.057 295.529 131.9 296.236 131.9C296.809 131.9 297.333 132 297.806 132.2C298.279 132.4 298.679 132.69 299.006 133.07L298.166 133.86C297.659 133.313 297.036 133.04 296.296 133.04C295.816 133.04 295.386 133.147 295.006 133.36C294.626 133.567 294.329 133.857 294.116 134.23C293.903 134.603 293.796 135.027 293.796 135.5C293.796 135.973 293.903 136.397 294.116 136.77C294.329 137.143 294.626 137.437 295.006 137.65C295.386 137.857 295.816 137.96 296.296 137.96C297.036 137.96 297.659 137.683 298.166 137.13L299.006 137.93C298.679 138.31 298.276 138.6 297.796 138.8C297.323 139 296.799 139.1 296.226 139.1ZM303.175 139.1C302.462 139.1 301.818 138.947 301.245 138.64C300.672 138.327 300.222 137.897 299.895 137.35C299.568 136.797 299.405 136.18 299.405 135.5C299.405 134.82 299.568 134.207 299.895 133.66C300.222 133.107 300.672 132.677 301.245 132.37C301.818 132.057 302.462 131.9 303.175 131.9C303.888 131.9 304.532 132.057 305.105 132.37C305.678 132.677 306.128 133.103 306.455 133.65C306.782 134.197 306.945 134.813 306.945 135.5C306.945 136.187 306.782 136.803 306.455 137.35C306.128 137.897 305.678 138.327 305.105 138.64C304.532 138.947 303.888 139.1 303.175 139.1ZM303.175 137.96C303.642 137.96 304.062 137.857 304.435 137.65C304.808 137.437 305.102 137.143 305.315 136.77C305.528 136.39 305.635 135.967 305.635 135.5C305.635 135.033 305.528 134.613 305.315 134.24C305.102 133.86 304.808 133.567 304.435 133.36C304.062 133.147 303.642 133.04 303.175 133.04C302.708 133.04 302.288 133.147 301.915 133.36C301.542 133.567 301.248 133.86 301.035 134.24C300.822 134.613 300.715 135.033 300.715 135.5C300.715 135.967 300.822 136.39 301.035 136.77C301.248 137.143 301.542 137.437 301.915 137.65C302.288 137.857 302.708 137.96 303.175 137.96ZM312.703 139L311.273 136.95C311.213 136.957 311.123 136.96 311.003 136.96H309.423V139H308.123V132H311.003C311.61 132 312.136 132.1 312.583 132.3C313.036 132.5 313.383 132.787 313.623 133.16C313.863 133.533 313.983 133.977 313.983 134.49C313.983 135.017 313.853 135.47 313.593 135.85C313.34 136.23 312.973 136.513 312.493 136.7L314.103 139H312.703ZM312.673 134.49C312.673 134.043 312.526 133.7 312.233 133.46C311.94 133.22 311.51 133.1 310.943 133.1H309.423V135.89H310.943C311.51 135.89 311.94 135.77 312.233 135.53C312.526 135.283 312.673 134.937 312.673 134.49ZM320.488 137.91V139H315.238V132H320.348V133.09H316.538V134.91H319.918V135.98H316.538V137.91H320.488Z" fill="#FB7E14"/>
<path d="M298.583 96.0426L298.662 95.7784C298.814 95.2638 298.892 94.73 298.893 94.1934C298.894 93.1342 298.585 92.0979 298.004 91.2119C297.424 90.3259 296.597 89.6287 295.626 89.2061C294.655 88.7834 293.581 88.6536 292.538 88.8327C291.494 89.0118 290.525 89.492 289.75 90.2142C289.522 89.5978 289.246 89.0002 288.924 88.4268C287.665 86.1462 285.721 84.3185 283.368 83.2015C281.014 82.0845 278.369 81.7346 275.806 82.2011C273.243 82.6676 270.891 83.9269 269.082 85.8015C267.272 87.6762 266.097 90.0715 265.722 92.6496C265.668 93.0046 265.64 93.3595 265.619 93.7063C263.458 94.3928 261.615 95.8299 260.421 97.7575C259.228 99.6852 258.764 101.976 259.113 104.216C259.462 106.456 260.601 108.497 262.325 109.971C264.048 111.444 266.241 112.252 268.508 112.248C268.764 112.248 269.037 112.248 269.334 112.211L270.159 112.141L270.019 110.49L269.194 110.56C268.962 110.581 268.735 110.589 268.525 110.589C266.61 110.599 264.758 109.909 263.318 108.648C261.877 107.388 260.947 105.643 260.703 103.744C260.46 101.845 260.919 99.923 261.995 98.3393C263.071 96.7556 264.688 95.6202 266.544 95.1469L267.34 94.9364L267.254 94.6226V94.1191C267.267 93.7047 267.303 93.2913 267.361 92.8807C267.71 90.4817 268.857 88.2702 270.616 86.6026C272.376 84.9351 274.646 83.9086 277.06 83.6888C279.474 83.469 281.892 84.0686 283.924 85.3909C285.956 86.7133 287.483 88.6813 288.26 90.9778L288.516 91.7373L288.479 91.7951L289.837 92.7321L290.307 92.051C290.764 91.3764 291.426 90.8667 292.194 90.5974C292.963 90.3281 293.798 90.3134 294.576 90.5555C295.354 90.7977 296.033 91.2838 296.513 91.9419C296.993 92.6 297.249 93.3953 297.242 94.2099C297.24 94.5873 297.184 94.9626 297.077 95.3244L296.842 96.1128H296.879V97.6359H297.704C301.919 97.6896 305.345 100.818 305.345 104.612C305.337 105.561 305.126 106.497 304.724 107.357C304.322 108.217 303.74 108.98 303.017 109.594L302.398 110.139L303.491 111.377L304.111 110.832C305.01 110.063 305.733 109.11 306.232 108.036C306.73 106.963 306.992 105.795 307 104.612C306.979 100.199 303.285 96.509 298.583 96.0426Z" fill="#F58535"/>
<path d="M297.262 107.563C297.196 107.563 297.135 107.563 297.068 107.563C296.512 106.071 295.641 104.716 294.515 103.59C293.389 102.464 292.034 101.594 290.542 101.037C290.542 100.988 290.542 100.938 290.542 100.889C290.542 99.8486 290.129 98.8512 289.394 98.1158C288.658 97.3804 287.661 96.9672 286.621 96.9672C285.581 96.9672 284.584 97.3804 283.848 98.1158C283.113 98.8512 282.7 99.8486 282.7 100.889C282.7 100.938 282.7 100.988 282.7 101.037C281.209 101.595 279.856 102.466 278.73 103.591C277.604 104.716 276.733 106.069 276.174 107.559C275.134 107.559 274.136 107.972 273.401 108.708C272.665 109.443 272.252 110.441 272.252 111.481C272.252 112.521 272.665 113.518 273.401 114.253C274.136 114.989 275.134 115.402 276.174 115.402C276.695 116.804 277.495 118.087 278.525 119.172C279.555 120.258 280.794 121.123 282.167 121.717V126.646H283.818V122.279C284.464 122.445 285.123 122.553 285.787 122.601V126.65H287.438V122.601C288.217 122.544 288.988 122.406 289.738 122.188V126.658H291.389V121.556C294.004 120.32 296.033 118.11 297.04 115.398H297.238C298.278 115.398 299.275 114.985 300.011 114.249C300.746 113.514 301.159 112.516 301.159 111.476C301.159 110.436 300.746 109.439 300.011 108.704C299.275 107.968 298.278 107.555 297.238 107.555L297.262 107.563ZM286.629 98.6307C287.078 98.6307 287.517 98.7639 287.891 99.0133C288.264 99.2628 288.555 99.6174 288.727 100.032C288.899 100.447 288.944 100.904 288.856 101.344C288.768 101.784 288.552 102.189 288.235 102.506C287.917 102.824 287.513 103.04 287.072 103.128C286.632 103.215 286.175 103.17 285.761 102.998C285.346 102.827 284.991 102.536 284.742 102.162C284.492 101.789 284.359 101.35 284.359 100.901C284.36 100.299 284.6 99.7224 285.025 99.2969C285.451 98.8714 286.028 98.6318 286.629 98.6307ZM274.04 111.485C274.04 111.036 274.173 110.597 274.422 110.223C274.672 109.85 275.026 109.559 275.441 109.387C275.856 109.215 276.312 109.17 276.753 109.258C277.193 109.346 277.598 109.562 277.915 109.879C278.233 110.197 278.449 110.601 278.536 111.042C278.624 111.482 278.579 111.939 278.407 112.353C278.235 112.768 277.944 113.123 277.571 113.372C277.198 113.622 276.759 113.755 276.31 113.755C275.708 113.754 275.131 113.514 274.706 113.089C274.28 112.663 274.041 112.086 274.04 111.485ZM277.845 115.096C278.439 114.842 278.961 114.445 279.366 113.941C279.77 113.437 280.045 112.842 280.165 112.207H282.192V119.897C280.222 118.859 278.683 117.159 277.845 115.096ZM283.843 120.562V112.199V110.548H280.128C279.981 109.958 279.7 109.41 279.306 108.946C278.912 108.483 278.416 108.117 277.858 107.877C278.343 106.698 279.061 105.628 279.969 104.733C280.877 103.837 281.956 103.133 283.141 102.664C283.406 103.184 283.784 103.64 284.246 103.997C284.709 104.354 285.245 104.603 285.816 104.727V120.937C285.147 120.882 284.486 120.757 283.843 120.562ZM287.459 120.941V104.736C288.03 104.611 288.566 104.362 289.029 104.005C289.491 103.648 289.869 103.193 290.134 102.672C291.342 103.148 292.439 103.868 293.356 104.787C294.274 105.706 294.992 106.804 295.467 108.013C294.972 108.271 294.537 108.63 294.192 109.069C293.847 109.507 293.599 110.014 293.465 110.556H289.75V112.207V120.463C289.016 120.715 288.253 120.876 287.48 120.941H287.459ZM291.413 119.703V112.199H293.411C293.522 112.787 293.765 113.343 294.123 113.823C294.48 114.303 294.943 114.695 295.475 114.969C294.695 116.958 293.263 118.624 291.413 119.695V119.703ZM297.262 113.763C296.813 113.763 296.375 113.63 296.001 113.381C295.628 113.131 295.337 112.777 295.165 112.362C294.993 111.947 294.948 111.49 295.036 111.05C295.123 110.61 295.34 110.205 295.657 109.888C295.975 109.57 296.379 109.354 296.82 109.266C297.26 109.179 297.716 109.224 298.131 109.395C298.546 109.567 298.901 109.858 299.15 110.232C299.4 110.605 299.533 111.044 299.533 111.493C299.531 112.094 299.29 112.669 298.865 113.093C298.439 113.517 297.863 113.755 297.262 113.755V113.763Z" fill="#F58535"/>
<path d="M237.919 55.38H234.419L233.729 57H232.389L235.539 50H236.819L239.979 57H238.619L237.919 55.38ZM237.489 54.36L236.169 51.3L234.859 54.36H237.489ZM250.528 50L248.208 57H246.828L245.098 51.82L243.338 57H241.948L239.628 50H240.978L242.718 55.32L244.528 50H245.728L247.498 55.35L249.288 50H250.528ZM253.557 57.1C253.017 57.1 252.494 57.0233 251.987 56.87C251.487 56.7167 251.09 56.5133 250.797 56.26L251.247 55.25C251.534 55.4767 251.884 55.6633 252.297 55.81C252.717 55.95 253.137 56.02 253.557 56.02C254.077 56.02 254.464 55.9367 254.717 55.77C254.977 55.6033 255.107 55.3833 255.107 55.11C255.107 54.91 255.034 54.7467 254.887 54.62C254.747 54.4867 254.567 54.3833 254.347 54.31C254.127 54.2367 253.827 54.1533 253.447 54.06C252.914 53.9333 252.48 53.8067 252.147 53.68C251.82 53.5533 251.537 53.3567 251.297 53.09C251.064 52.8167 250.947 52.45 250.947 51.99C250.947 51.6033 251.05 51.2533 251.257 50.94C251.47 50.62 251.787 50.3667 252.207 50.18C252.634 49.9933 253.154 49.9 253.767 49.9C254.194 49.9 254.614 49.9533 255.027 50.06C255.44 50.1667 255.797 50.32 256.097 50.52L255.687 51.53C255.38 51.35 255.06 51.2133 254.727 51.12C254.394 51.0267 254.07 50.98 253.757 50.98C253.244 50.98 252.86 51.0667 252.607 51.24C252.36 51.4133 252.237 51.6433 252.237 51.93C252.237 52.13 252.307 52.2933 252.447 52.42C252.594 52.5467 252.777 52.6467 252.997 52.72C253.217 52.7933 253.517 52.8767 253.897 52.97C254.417 53.09 254.844 53.2167 255.177 53.35C255.51 53.4767 255.794 53.6733 256.027 53.94C256.267 54.2067 256.387 54.5667 256.387 55.02C256.387 55.4067 256.28 55.7567 256.067 56.07C255.86 56.3833 255.544 56.6333 255.117 56.82C254.69 57.0067 254.17 57.1 253.557 57.1ZM260.04 50H261.34V57H260.04V50ZM266.303 57.1C265.59 57.1 264.946 56.9467 264.373 56.64C263.8 56.3267 263.35 55.8967 263.023 55.35C262.696 54.7967 262.533 54.18 262.533 53.5C262.533 52.82 262.696 52.2067 263.023 51.66C263.35 51.1067 263.8 50.6767 264.373 50.37C264.946 50.0567 265.59 49.9 266.303 49.9C267.016 49.9 267.66 50.0567 268.233 50.37C268.806 50.6767 269.256 51.1033 269.583 51.65C269.91 52.1967 270.073 52.8133 270.073 53.5C270.073 54.1867 269.91 54.8033 269.583 55.35C269.256 55.8967 268.806 56.3267 268.233 56.64C267.66 56.9467 267.016 57.1 266.303 57.1ZM266.303 55.96C266.77 55.96 267.19 55.8567 267.563 55.65C267.936 55.4367 268.23 55.1433 268.443 54.77C268.656 54.39 268.763 53.9667 268.763 53.5C268.763 53.0333 268.656 52.6133 268.443 52.24C268.23 51.86 267.936 51.5667 267.563 51.36C267.19 51.1467 266.77 51.04 266.303 51.04C265.836 51.04 265.416 51.1467 265.043 51.36C264.67 51.5667 264.376 51.86 264.163 52.24C263.95 52.6133 263.843 53.0333 263.843 53.5C263.843 53.9667 263.95 54.39 264.163 54.77C264.376 55.1433 264.67 55.4367 265.043 55.65C265.416 55.8567 265.836 55.96 266.303 55.96ZM272.573 51.1H270.253V50H276.193V51.1H273.873V57H272.573V51.1ZM284.073 55.38H280.573L279.883 57H278.543L281.693 50H282.973L286.133 57H284.773L284.073 55.38ZM283.643 54.36L282.323 51.3L281.013 54.36H283.643ZM293.043 50V57H291.973L288.113 52.26V57H286.823V50H287.893L291.753 54.74V50H293.043ZM299.259 55.38H295.759L295.069 57H293.729L296.879 50H298.159L301.319 57H299.959L299.259 55.38ZM298.829 54.36L297.509 51.3L296.199 54.36H298.829ZM302.009 50H303.309V55.9H306.969V57H302.009V50ZM310.083 54.53V57H308.783V54.55L306.033 50H307.423L309.473 53.41L311.543 50H312.823L310.083 54.53ZM314.797 51.1H312.477V50H318.417V51.1H316.097V57H314.797V51.1ZM319.192 50H320.492V57H319.192V50ZM325.426 57.1C324.719 57.1 324.079 56.9467 323.506 56.64C322.939 56.3267 322.492 55.8967 322.166 55.35C321.846 54.8033 321.686 54.1867 321.686 53.5C321.686 52.8133 321.849 52.1967 322.176 51.65C322.502 51.1033 322.949 50.6767 323.516 50.37C324.089 50.0567 324.729 49.9 325.436 49.9C326.009 49.9 326.532 50 327.006 50.2C327.479 50.4 327.879 50.69 328.206 51.07L327.366 51.86C326.859 51.3133 326.236 51.04 325.496 51.04C325.016 51.04 324.586 51.1467 324.206 51.36C323.826 51.5667 323.529 51.8567 323.316 52.23C323.102 52.6033 322.996 53.0267 322.996 53.5C322.996 53.9733 323.102 54.3967 323.316 54.77C323.529 55.1433 323.826 55.4367 324.206 55.65C324.586 55.8567 325.016 55.96 325.496 55.96C326.236 55.96 326.859 55.6833 327.366 55.13L328.206 55.93C327.879 56.31 327.476 56.6 326.996 56.8C326.522 57 325.999 57.1 325.426 57.1ZM331.382 57.1C330.842 57.1 330.319 57.0233 329.812 56.87C329.312 56.7167 328.915 56.5133 328.622 56.26L329.072 55.25C329.359 55.4767 329.709 55.6633 330.122 55.81C330.542 55.95 330.962 56.02 331.382 56.02C331.902 56.02 332.289 55.9367 332.542 55.77C332.802 55.6033 332.932 55.3833 332.932 55.11C332.932 54.91 332.859 54.7467 332.712 54.62C332.572 54.4867 332.392 54.3833 332.172 54.31C331.952 54.2367 331.652 54.1533 331.272 54.06C330.739 53.9333 330.305 53.8067 329.972 53.68C329.645 53.5533 329.362 53.3567 329.122 53.09C328.889 52.8167 328.772 52.45 328.772 51.99C328.772 51.6033 328.875 51.2533 329.082 50.94C329.295 50.62 329.612 50.3667 330.032 50.18C330.459 49.9933 330.979 49.9 331.592 49.9C332.019 49.9 332.439 49.9533 332.852 50.06C333.265 50.1667 333.622 50.32 333.922 50.52L333.512 51.53C333.205 51.35 332.885 51.2133 332.552 51.12C332.219 51.0267 331.895 50.98 331.582 50.98C331.069 50.98 330.685 51.0667 330.432 51.24C330.185 51.4133 330.062 51.6433 330.062 51.93C330.062 52.13 330.132 52.2933 330.272 52.42C330.419 52.5467 330.602 52.6467 330.822 52.72C331.042 52.7933 331.342 52.8767 331.722 52.97C332.242 53.09 332.669 53.2167 333.002 53.35C333.335 53.4767 333.619 53.6733 333.852 53.94C334.092 54.2067 334.212 54.5667 334.212 55.02C334.212 55.4067 334.105 55.7567 333.892 56.07C333.685 56.3833 333.369 56.6333 332.942 56.82C332.515 57.0067 331.995 57.1 331.382 57.1Z" fill="#044851"/>
<path d="M300.337 10.6509L284.722 1.63507C284.225 1.34795 283.66 1.19679 283.086 1.19679C282.512 1.19679 281.948 1.34795 281.45 1.63507L265.835 10.6509C265.338 10.9382 264.924 11.3515 264.637 11.8492C264.35 12.3469 264.199 12.9115 264.2 13.4861V31.5177C264.199 32.0923 264.35 32.6569 264.637 33.1546C264.924 33.6523 265.338 34.0656 265.835 34.3529L281.45 43.3687C281.948 43.6558 282.512 43.807 283.086 43.807C283.66 43.807 284.225 43.6558 284.722 43.3687L300.337 34.3529C300.835 34.0656 301.248 33.6523 301.535 33.1546C301.822 32.6569 301.973 32.0923 301.973 31.5177V13.4839C301.973 12.9097 301.822 12.3455 301.534 11.8483C301.247 11.351 300.834 10.938 300.337 10.6509Z" fill="#044851"/>
<path d="M283.086 45C282.301 45.0011 281.53 44.795 280.851 44.4024L265.235 35.3866C264.556 34.9936 263.993 34.4292 263.6 33.7498C263.208 33.0705 263.001 32.3 263 31.5155V13.4839C263.001 12.6994 263.208 11.9289 263.6 11.2496C263.993 10.5702 264.556 10.0058 265.235 9.61279L280.851 0.596964C281.531 0.205843 282.302 0 283.086 0C283.871 0 284.641 0.205843 285.321 0.596964L300.937 9.61279C301.615 10.0061 302.179 10.5706 302.571 11.2499C302.963 11.9292 303.171 12.6995 303.172 13.4839V31.5155C303.171 32.2999 302.963 33.0702 302.571 33.7495C302.179 34.4288 301.615 34.9933 300.937 35.3866L285.321 44.4024C284.642 44.7947 283.871 45.0008 283.086 45V45ZM283.086 2.3962C282.722 2.39653 282.365 2.49202 282.05 2.67317L266.433 11.689C266.118 11.8714 265.857 12.1331 265.675 12.4481C265.493 12.7631 265.397 13.1202 265.397 13.4839V31.5155C265.397 31.8792 265.493 32.2363 265.675 32.5513C265.857 32.8662 266.118 33.128 266.433 33.3104L282.048 42.3262C282.363 42.5074 282.72 42.6028 283.084 42.6028C283.447 42.6028 283.805 42.5074 284.12 42.3262L299.735 33.3104C300.05 33.128 300.311 32.8662 300.493 32.5513C300.674 32.2363 300.77 31.8792 300.771 31.5155V13.4839C300.77 13.1202 300.674 12.7631 300.493 12.4481C300.311 12.1331 300.05 11.8714 299.735 11.689L284.12 2.67317C283.805 2.49267 283.449 2.39721 283.086 2.3962V2.3962Z" fill="#00A9E0"/>
<path d="M281.496 34.0584C279.357 34.0614 277.264 33.4332 275.479 32.2527L275.959 31.5242C277.408 32.4805 279.079 33.0455 280.811 33.1644C282.543 33.2833 284.276 32.952 285.842 32.2027C287.407 31.4534 288.753 30.3116 289.747 28.8883C290.74 27.4651 291.349 25.8089 291.513 24.0808L292.385 24.1637C292.14 26.8774 290.885 29.4 288.868 31.2324C286.852 33.0648 284.221 34.0733 281.496 34.0584V34.0584Z" fill="white"/>
<path d="M272.299 29.0424C271.285 27.465 270.694 25.6532 270.582 23.7812C270.471 21.9093 270.843 20.0401 271.662 18.3535C272.482 16.6668 273.722 15.2194 275.263 14.1504C276.803 13.0814 278.593 12.4268 280.46 12.2495L280.543 13.1218C278.826 13.2859 277.18 13.8885 275.763 14.8719C274.347 15.8553 273.206 17.1864 272.452 18.7375C271.698 20.2885 271.355 22.0074 271.457 23.7291C271.558 25.4508 272.101 27.1175 273.032 28.5691L272.299 29.0424Z" fill="white"/>
<path d="M291.105 20.1487C290.619 18.5723 289.751 17.1401 288.579 15.9791C287.407 14.8181 285.967 13.964 284.386 13.4926L284.637 12.6551C286.355 13.167 287.921 14.0941 289.197 15.3546C290.472 16.6151 291.417 18.1702 291.949 19.8826L291.105 20.1487Z" fill="white"/>
<path d="M282.587 14.6637C282.069 14.6637 281.563 14.5102 281.133 14.2227C280.702 13.9351 280.367 13.5264 280.169 13.0482C279.971 12.57 279.919 12.0438 280.02 11.5361C280.121 11.0284 280.37 10.5621 280.736 10.1961C281.102 9.8301 281.568 9.58085 282.076 9.47987C282.584 9.37889 283.11 9.43072 283.588 9.6288C284.066 9.82688 284.475 10.1623 284.763 10.5927C285.05 11.0231 285.204 11.5291 285.204 12.0467C285.204 12.7407 284.928 13.4064 284.437 13.8972C283.946 14.388 283.281 14.6637 282.587 14.6637ZM282.587 10.3019C282.242 10.3019 281.904 10.4043 281.617 10.596C281.33 10.7877 281.107 11.0602 280.975 11.379C280.843 11.6978 280.808 12.0486 280.875 12.387C280.943 12.7255 281.109 13.0364 281.353 13.2804C281.597 13.5244 281.908 13.6905 282.246 13.7579C282.585 13.8252 282.936 13.7906 283.254 13.6586C283.573 13.5265 283.846 13.3029 284.037 13.016C284.229 12.7291 284.331 12.3917 284.331 12.0467C284.331 11.5839 284.148 11.1402 283.82 10.813C283.493 10.4858 283.049 10.3019 282.587 10.3019Z" fill="white"/>
<path d="M291.216 15.957C290.699 15.957 290.193 15.8035 289.762 15.5159C289.332 15.2284 288.997 14.8196 288.799 14.3414C288.601 13.8632 288.549 13.337 288.65 12.8294C288.751 12.3217 289 11.8554 289.366 11.4894C289.732 11.1234 290.198 10.8741 290.706 10.7731C291.214 10.6722 291.74 10.724 292.218 10.9221C292.696 11.1201 293.105 11.4556 293.392 11.886C293.68 12.3163 293.834 12.8223 293.834 13.3399C293.834 14.034 293.558 14.6997 293.067 15.1905C292.576 15.6813 291.911 15.957 291.216 15.957ZM291.216 11.5952C290.871 11.5952 290.534 11.6975 290.247 11.8892C289.96 12.081 289.737 12.3534 289.605 12.6723C289.472 12.9911 289.438 13.3419 289.505 13.6803C289.573 14.0187 289.739 14.3296 289.983 14.5736C290.227 14.8176 290.538 14.9838 290.876 15.0511C291.215 15.1184 291.565 15.0839 291.884 14.9518C292.203 14.8198 292.475 14.5962 292.667 14.3092C292.859 14.0223 292.961 13.685 292.961 13.3399C292.961 12.8772 292.777 12.4334 292.45 12.1062C292.123 11.779 291.679 11.5952 291.216 11.5952Z" fill="white"/>
<path d="M292.438 24.6152C291.92 24.6152 291.414 24.4617 290.984 24.1741C290.553 23.8865 290.218 23.4778 290.02 22.9996C289.822 22.5214 289.77 21.9952 289.871 21.4875C289.972 20.9799 290.221 20.5135 290.587 20.1475C290.953 19.7815 291.42 19.5323 291.927 19.4313C292.435 19.3303 292.961 19.3821 293.439 19.5802C293.917 19.7783 294.326 20.1137 294.614 20.5441C294.901 20.9745 295.055 21.4805 295.055 21.9981C295.055 22.6922 294.779 23.3578 294.288 23.8486C293.798 24.3394 293.132 24.6152 292.438 24.6152V24.6152ZM292.438 20.2534C292.093 20.2534 291.755 20.3557 291.468 20.5474C291.182 20.7391 290.958 21.0116 290.826 21.3304C290.694 21.6492 290.659 22 290.727 22.3385C290.794 22.6769 290.96 22.9878 291.204 23.2318C291.448 23.4758 291.759 23.642 292.097 23.7093C292.436 23.7766 292.787 23.742 293.105 23.61C293.424 23.4779 293.697 23.2543 293.888 22.9674C294.08 22.6805 294.182 22.3432 294.182 21.9981C294.182 21.5354 293.999 21.0916 293.671 20.7644C293.344 20.4372 292.9 20.2534 292.438 20.2534Z" fill="white"/>
<path d="M274.044 33.1076C273.526 33.1076 273.02 32.9541 272.59 32.6665C272.16 32.3789 271.824 31.9702 271.626 31.492C271.428 31.0138 271.376 30.4876 271.477 29.9799C271.578 29.4723 271.828 29.006 272.194 28.6399C272.56 28.2739 273.026 28.0247 273.534 27.9237C274.041 27.8227 274.567 27.8746 275.046 28.0726C275.524 28.2707 275.933 28.6062 276.22 29.0365C276.508 29.4669 276.661 29.9729 276.661 30.4905C276.661 31.1846 276.385 31.8503 275.895 32.341C275.404 32.8318 274.738 33.1076 274.044 33.1076V33.1076ZM274.044 28.7458C273.699 28.7458 273.362 28.8481 273.075 29.0398C272.788 29.2315 272.564 29.504 272.432 29.8228C272.3 30.1416 272.266 30.4924 272.333 30.8309C272.4 31.1693 272.566 31.4802 272.81 31.7242C273.054 31.9682 273.365 32.1344 273.704 32.2017C274.042 32.269 274.393 32.2345 274.712 32.1024C275.031 31.9704 275.303 31.7467 275.495 31.4598C275.686 31.1729 275.789 30.8356 275.789 30.4905C275.789 30.0278 275.605 29.584 275.278 29.2568C274.951 28.9296 274.507 28.7458 274.044 28.7458Z" fill="white"/>
<path d="M281.404 13.8735L274.198 28.1088L274.976 28.5028L282.182 14.2675L281.404 13.8735Z" fill="white"/>
<path d="M289.428 14.6347L275.371 28.7404L275.989 29.3561L290.046 15.2504L289.428 14.6347Z" fill="white"/>
<path d="M290.259 22.5195L276.026 29.8122L276.423 30.5886L290.656 23.2959L290.259 22.5195Z" fill="white"/>
<path d="M121.815 55.38H118.315L117.625 57H116.285L119.435 50H120.715L123.875 57H122.515L121.815 55.38ZM121.385 54.36L120.065 51.3L118.755 54.36H121.385ZM134.424 50L132.104 57H130.724L128.994 51.82L127.234 57H125.844L123.524 50H124.874L126.614 55.32L128.424 50H129.624L131.394 55.35L133.184 50H134.424ZM137.453 57.1C136.913 57.1 136.39 57.0233 135.883 56.87C135.383 56.7167 134.986 56.5133 134.693 56.26L135.143 55.25C135.43 55.4767 135.78 55.6633 136.193 55.81C136.613 55.95 137.033 56.02 137.453 56.02C137.973 56.02 138.36 55.9367 138.613 55.77C138.873 55.6033 139.003 55.3833 139.003 55.11C139.003 54.91 138.93 54.7467 138.783 54.62C138.643 54.4867 138.463 54.3833 138.243 54.31C138.023 54.2367 137.723 54.1533 137.343 54.06C136.81 53.9333 136.376 53.8067 136.043 53.68C135.716 53.5533 135.433 53.3567 135.193 53.09C134.96 52.8167 134.843 52.45 134.843 51.99C134.843 51.6033 134.946 51.2533 135.153 50.94C135.366 50.62 135.683 50.3667 136.103 50.18C136.53 49.9933 137.05 49.9 137.663 49.9C138.09 49.9 138.51 49.9533 138.923 50.06C139.336 50.1667 139.693 50.32 139.993 50.52L139.583 51.53C139.276 51.35 138.956 51.2133 138.623 51.12C138.29 51.0267 137.966 50.98 137.653 50.98C137.14 50.98 136.756 51.0667 136.503 51.24C136.256 51.4133 136.133 51.6433 136.133 51.93C136.133 52.13 136.203 52.2933 136.343 52.42C136.49 52.5467 136.673 52.6467 136.893 52.72C137.113 52.7933 137.413 52.8767 137.793 52.97C138.313 53.09 138.74 53.2167 139.073 53.35C139.406 53.4767 139.69 53.6733 139.923 53.94C140.163 54.2067 140.283 54.5667 140.283 55.02C140.283 55.4067 140.176 55.7567 139.963 56.07C139.756 56.3833 139.44 56.6333 139.013 56.82C138.586 57.0067 138.066 57.1 137.453 57.1ZM143.936 50H145.236V57H143.936V50ZM150.199 57.1C149.486 57.1 148.843 56.9467 148.269 56.64C147.696 56.3267 147.246 55.8967 146.919 55.35C146.593 54.7967 146.429 54.18 146.429 53.5C146.429 52.82 146.593 52.2067 146.919 51.66C147.246 51.1067 147.696 50.6767 148.269 50.37C148.843 50.0567 149.486 49.9 150.199 49.9C150.913 49.9 151.556 50.0567 152.129 50.37C152.703 50.6767 153.153 51.1033 153.479 51.65C153.806 52.1967 153.969 52.8133 153.969 53.5C153.969 54.1867 153.806 54.8033 153.479 55.35C153.153 55.8967 152.703 56.3267 152.129 56.64C151.556 56.9467 150.913 57.1 150.199 57.1ZM150.199 55.96C150.666 55.96 151.086 55.8567 151.459 55.65C151.833 55.4367 152.126 55.1433 152.339 54.77C152.553 54.39 152.659 53.9667 152.659 53.5C152.659 53.0333 152.553 52.6133 152.339 52.24C152.126 51.86 151.833 51.5667 151.459 51.36C151.086 51.1467 150.666 51.04 150.199 51.04C149.733 51.04 149.313 51.1467 148.939 51.36C148.566 51.5667 148.273 51.86 148.059 52.24C147.846 52.6133 147.739 53.0333 147.739 53.5C147.739 53.9667 147.846 54.39 148.059 54.77C148.273 55.1433 148.566 55.4367 148.939 55.65C149.313 55.8567 149.733 55.96 150.199 55.96ZM156.47 51.1H154.15V50H160.09V51.1H157.77V57H156.47V51.1ZM165.993 50H169.053C169.799 50 170.463 50.1467 171.043 50.44C171.623 50.7267 172.073 51.1367 172.393 51.67C172.713 52.1967 172.873 52.8067 172.873 53.5C172.873 54.1933 172.713 54.8067 172.393 55.34C172.073 55.8667 171.623 56.2767 171.043 56.57C170.463 56.8567 169.799 57 169.053 57H165.993V50ZM168.993 55.9C169.506 55.9 169.956 55.8033 170.343 55.61C170.736 55.41 171.036 55.13 171.243 54.77C171.456 54.4033 171.563 53.98 171.563 53.5C171.563 53.02 171.456 52.6 171.243 52.24C171.036 51.8733 170.736 51.5933 170.343 51.4C169.956 51.2 169.506 51.1 168.993 51.1H167.293V55.9H168.993ZM180.484 57L180.474 52.36L178.174 56.2H177.594L175.294 52.42V57H174.054V50H175.124L177.904 54.64L180.634 50H181.704L181.714 57H180.484Z" fill="#044851"/>
<path d="M132.375 10.2256L147.033 1.76235C147.702 1.37601 148.461 1.17262 149.234 1.17262C150.006 1.17262 150.765 1.37601 151.435 1.76235L166.107 10.2256C166.777 10.6122 167.333 11.1683 167.719 11.838C168.106 12.5077 168.309 13.2673 168.308 14.0405V30.967C168.309 31.7401 168.106 32.4998 167.719 33.1695C167.333 33.8392 166.777 34.3953 166.107 34.7819L151.435 43.2451C150.765 43.6315 150.006 43.8349 149.234 43.8349C148.461 43.8349 147.702 43.6315 147.033 43.2451L132.375 34.7819C131.705 34.3953 131.149 33.8392 130.763 33.1695C130.376 32.4998 130.173 31.7401 130.174 30.967V14.0376C130.174 13.2649 130.377 12.5059 130.764 11.8367C131.15 11.1676 131.706 10.6119 132.375 10.2256V10.2256Z" fill="#044851"/>
<path d="M149.234 45C148.255 45.0019 147.293 44.7447 146.446 44.2546L131.788 35.7914C130.94 35.3021 130.237 34.5985 129.747 33.7511C129.258 32.9038 129 31.9425 129 30.964V14.0376C129 13.0591 129.258 12.0978 129.747 11.2505C130.237 10.4031 130.94 9.69949 131.788 9.21023L146.446 0.746999C147.293 0.257634 148.255 0 149.234 0C150.212 0 151.174 0.257634 152.022 0.746999L166.694 9.21023C167.542 9.69949 168.245 10.4031 168.735 11.2505C169.224 12.0978 169.482 13.0591 169.482 14.0376V30.964C169.482 31.9425 169.224 32.9038 168.735 33.7511C168.245 34.5985 167.542 35.3021 166.694 35.7914L152.022 44.2546C151.174 44.7434 150.212 45.0005 149.234 45ZM132.962 11.2527C132.471 11.5361 132.063 11.9438 131.78 12.4347C131.497 12.9256 131.347 13.4825 131.348 14.0493V30.9758C131.347 31.5426 131.497 32.0995 131.78 32.5904C132.063 33.0813 132.471 33.489 132.962 33.7724L147.62 42.2356C148.111 42.517 148.667 42.665 149.234 42.665C149.8 42.665 150.356 42.517 150.848 42.2356L165.52 33.7724C166.011 33.489 166.419 33.0813 166.702 32.5904C166.986 32.0995 167.135 31.5426 167.134 30.9758V14.0376C167.135 13.4708 166.986 12.9139 166.702 12.4229C166.419 11.932 166.011 11.5243 165.52 11.2409L150.848 2.7777C150.357 2.49438 149.8 2.34523 149.234 2.34523C148.667 2.34523 148.11 2.49438 147.62 2.7777L132.962 11.2527Z" fill="#00A9E0"/>
<path d="M152.362 25.183V25.18H153.536L152.362 25.183Z" fill="white"/>
<path d="M142.22 23.2961C140.883 21.6661 140.151 19.6235 140.148 17.515C140.148 17.0085 140.191 16.5028 140.277 16.0037C140.637 13.8557 141.755 11.908 143.429 10.5145C145.102 9.12094 147.221 8.37407 149.398 8.4096C151.576 8.44512 153.668 9.26068 155.296 10.7081C156.923 12.1554 157.977 14.1386 158.266 16.2972C158.322 16.6997 158.349 17.1057 158.348 17.5121C158.356 19.5747 157.654 21.5772 156.362 23.1846L155.446 22.4509C156.113 21.6148 156.604 20.6523 156.889 19.6214C157.174 18.5905 157.247 17.5127 157.104 16.4527C156.854 14.5707 155.937 12.8411 154.519 11.5785C153.101 10.316 151.277 9.6045 149.379 9.57357C147.481 9.54265 145.634 10.1943 144.176 11.41C142.718 12.6257 141.745 14.3246 141.434 16.1974C141.359 16.6317 141.322 17.0715 141.322 17.5121C141.325 19.3486 141.962 21.1277 143.127 22.5478L142.22 23.2961Z" fill="white"/>
<path d="M149.245 26.615C148.529 26.6163 147.814 26.5315 147.118 26.3627L147.256 25.7992V25.2123H147.326L147.4 25.2299C148.655 25.5308 149.964 25.5217 151.215 25.2035L151.508 26.3392C150.769 26.5265 150.008 26.6192 149.245 26.615V26.615Z" fill="white"/>
<path d="M146.358 21.7114L145.237 21.3681C145.553 20.324 146.057 19.3464 146.725 18.4834L147.652 19.2024C147.073 19.9536 146.634 20.8037 146.358 21.7114V21.7114Z" fill="white"/>
<path d="M153.941 33.1239C152.038 33.1235 150.184 32.5267 148.639 31.4176C147.093 30.3085 145.934 28.7428 145.325 26.9408L146.437 26.5681C146.856 27.8028 147.574 28.9149 148.526 29.8058C149.478 30.6968 150.635 31.339 151.895 31.6755C153.155 32.012 154.478 32.0324 155.747 31.7349C157.017 31.4374 158.193 30.8312 159.173 29.9701C160.152 29.109 160.903 28.0195 161.36 26.7983C161.817 25.5772 161.966 24.2621 161.793 22.9697C161.62 21.6773 161.131 20.4476 160.369 19.3896C159.607 18.3316 158.595 17.478 157.424 16.9046C155.681 16.0515 153.686 15.8677 151.816 16.3881L151.502 15.2583C152.855 14.879 154.277 14.8182 155.657 15.0805C157.037 15.3428 158.338 15.9212 159.457 16.7703C160.576 17.6194 161.483 18.7161 162.108 19.9746C162.732 21.2331 163.056 22.619 163.055 24.0238C163.056 25.2202 162.82 26.4049 162.362 27.5101C161.904 28.6153 161.232 29.6193 160.386 30.4646C159.539 31.3099 158.534 31.9799 157.428 32.4362C156.322 32.8925 155.137 33.1262 153.941 33.1239Z" fill="white"/>
<path d="M152.362 25.183V25.18H153.536L152.362 25.183Z" fill="white"/>
<path d="M144.568 32.8686C142.155 32.8686 139.841 31.9101 138.135 30.2041C136.429 28.498 135.471 26.1842 135.471 23.7715C135.471 21.3588 136.429 19.0449 138.135 17.3388C139.841 15.6328 142.155 14.6744 144.568 14.6744C145.439 14.6716 146.306 14.7972 147.141 15.047L146.804 16.171C144.917 15.6146 142.891 15.7799 141.12 16.6346C139.503 17.4144 138.198 18.7201 137.421 20.338C136.643 21.9558 136.437 23.7899 136.838 25.5398C137.238 27.2897 138.221 28.8516 139.626 29.9699C141.03 31.0881 142.773 31.6962 144.568 31.6947C146.193 31.695 147.779 31.1953 149.111 30.2635C150.443 29.3318 151.456 28.0129 152.013 26.4859L153.116 26.885C152.477 28.6389 151.314 30.1538 149.785 31.2242C148.256 32.2946 146.434 32.8687 144.568 32.8686V32.8686Z" fill="white"/>
<path d="M152.198 21.7055C151.945 20.7521 151.513 19.8557 150.924 19.0644L151.869 18.3631C152.544 19.2735 153.042 20.3029 153.336 21.3974L152.198 21.7055Z" fill="white"/>
<path d="M149.263 20.3762C148.608 20.3797 147.968 20.1887 147.422 19.8275C146.876 19.4663 146.45 18.9511 146.197 18.3473C145.944 17.7435 145.877 17.0782 146.003 16.436C146.129 15.7937 146.443 15.2033 146.905 14.7396C147.367 14.276 147.956 13.96 148.598 13.8317C149.24 13.7034 149.905 13.7687 150.51 14.0191C151.115 14.2696 151.631 14.694 151.994 15.2386C152.358 15.7831 152.551 16.4232 152.55 17.0778C152.547 17.9498 152.201 18.7857 151.585 19.4034C150.97 20.0212 150.135 20.3708 149.263 20.3762V20.3762ZM149.263 14.9414C148.841 14.9379 148.428 15.0598 148.075 15.2915C147.723 15.5232 147.447 15.8543 147.283 16.243C147.119 16.6316 147.074 17.0602 147.153 17.4745C147.233 17.8887 147.434 18.27 147.731 18.5699C148.027 18.8699 148.406 19.075 148.82 19.1593C149.233 19.2436 149.662 19.2033 150.052 19.0435C150.443 18.8837 150.777 18.6115 151.013 18.2616C151.248 17.9116 151.375 17.4996 151.376 17.0778C151.377 16.515 151.155 15.9747 150.759 15.5745C150.364 15.1744 149.826 14.9468 149.263 14.9414V14.9414Z" fill="white"/>
<path d="M145.087 27.4602C144.433 27.4619 143.794 27.2696 143.249 26.9076C142.704 26.5456 142.28 26.0301 142.028 25.4265C141.777 24.8229 141.71 24.1582 141.836 23.5167C141.963 22.8751 142.277 22.2855 142.739 21.8225C143.201 21.3595 143.789 21.044 144.43 20.9157C145.072 20.7875 145.737 20.8524 146.341 21.1023C146.945 21.3521 147.462 21.7756 147.825 22.3192C148.189 22.8628 148.383 23.502 148.383 24.1559C148.382 25.0305 148.035 25.8692 147.417 26.4884C146.799 27.1077 145.962 27.4571 145.087 27.4602V27.4602ZM145.087 22.0254C144.666 22.0254 144.254 22.1504 143.904 22.3845C143.553 22.6186 143.28 22.9513 143.119 23.3406C142.958 23.7299 142.915 24.1583 142.998 24.5715C143.08 24.9848 143.283 25.3644 143.581 25.6624C143.879 25.9603 144.258 26.1632 144.672 26.2454C145.085 26.3276 145.513 26.2854 145.902 26.1242C146.292 25.9629 146.624 25.6899 146.859 25.3395C147.093 24.9892 147.218 24.5773 147.218 24.1559C147.217 23.5911 146.992 23.0496 146.593 22.6503C146.193 22.2509 145.652 22.0262 145.087 22.0254V22.0254Z" fill="white"/>
<path d="M153.539 27.4602C152.885 27.4602 152.246 27.2664 151.703 26.9033C151.16 26.5402 150.736 26.0242 150.486 25.4204C150.236 24.8166 150.17 24.1522 150.298 23.5112C150.425 22.8703 150.74 22.2815 151.202 21.8194C151.664 21.3573 152.253 21.0426 152.894 20.9151C153.535 20.7876 154.199 20.853 154.803 21.1031C155.407 21.3532 155.923 21.7767 156.286 22.3201C156.649 22.8635 156.843 23.5024 156.843 24.1559C156.842 25.032 156.494 25.872 155.874 26.4915C155.255 27.111 154.415 27.4594 153.539 27.4602ZM153.539 22.0254C153.117 22.0254 152.705 22.1503 152.355 22.3844C152.005 22.6186 151.732 22.9513 151.57 23.3406C151.409 23.7299 151.367 24.1582 151.449 24.5715C151.531 24.9848 151.734 25.3644 152.032 25.6624C152.33 25.9603 152.71 26.1632 153.123 26.2454C153.536 26.3276 153.965 26.2854 154.354 26.1242C154.743 25.9629 155.076 25.6899 155.31 25.3395C155.544 24.9892 155.669 24.5773 155.669 24.1559C155.668 23.5911 155.444 23.0496 155.044 22.6503C154.645 22.2509 154.103 22.0262 153.539 22.0254Z" fill="white"/>
<defs>
<clipPath id="clip0">
<rect x="403" y="82" width="42.6032" height="43.5714" fill="white"/>
</clipPath>
</defs>
</svg>
