<svg width="521" height="292" viewBox="0 0 521 292" fill="none" xmlns="http://www.w3.org/2000/svg">
<path d="M113.589 1C109.549 1 103.272 1.01217 102.091 1.08516C100.326 1.17031 99.1452 2.42332 99.0706 4.02912C98.996 5.62275 98.9587 35.3056 99.0706 36.9236C99.17 38.5172 100.426 39.7337 102.091 39.8311C103.931 39.9406 109.872 39.9649 111.588 39.9649C108.518 37.8968 108.107 34.0161 107.822 26.8022C107.647 22.5323 107.809 7.557 107.822 6.91225L107.909 2.83693L123.956 18.5421V23.4568L111.178 10.9632C111.14 13.4328 111.116 16.6565 111.116 19.6005C111.116 22.4714 111.165 25.0748 111.252 26.4373C111.737 34.2959 112.483 37.9941 116.672 39.4296C117.952 39.8676 119.145 39.9649 121.134 39.9892C122.775 40.0135 134.261 40.0014 135.914 39.9041C137.667 39.8189 138.847 38.5659 138.934 36.9479C139.009 35.3543 139.034 5.7444 138.934 4.1386C138.81 2.55714 137.567 1.35279 135.914 1.25547C134.074 1.14598 128.133 1.06083 126.417 1.06083C129.463 3.1289 129.885 6.9974 130.171 14.1992C130.345 18.4691 130.184 33.4444 130.171 34.077L130.084 38.1766L114.049 22.4836V17.5689L126.815 30.0503C126.852 27.5808 126.877 24.357 126.877 21.4131C126.877 18.5421 126.827 15.9509 126.74 14.5763C126.268 6.71761 125.51 3.04374 121.321 1.59609C120.04 1.15815 118.847 1.0365 116.858 1.01217H113.589V1Z" fill="url(#paint0_linear)"/>
<path d="M115.535 51V58H114.465L110.605 53.26V58H109.315V51H110.385L114.245 55.74V51H115.535ZM118.511 52.09V54.22H121.891V55.32H118.511V58H117.211V51H122.321V52.09H118.511ZM126.54 58.1C125.833 58.1 125.193 57.9467 124.62 57.64C124.053 57.3267 123.606 56.8967 123.28 56.35C122.96 55.8033 122.8 55.1867 122.8 54.5C122.8 53.8133 122.963 53.1967 123.29 52.65C123.616 52.1033 124.063 51.6767 124.63 51.37C125.203 51.0567 125.843 50.9 126.55 50.9C127.123 50.9 127.646 51 128.12 51.2C128.593 51.4 128.993 51.69 129.32 52.07L128.48 52.86C127.973 52.3133 127.35 52.04 126.61 52.04C126.13 52.04 125.7 52.1467 125.32 52.36C124.94 52.5667 124.643 52.8567 124.43 53.23C124.216 53.6033 124.11 54.0267 124.11 54.5C124.11 54.9733 124.216 55.3967 124.43 55.77C124.643 56.1433 124.94 56.4367 125.32 56.65C125.7 56.8567 126.13 56.96 126.61 56.96C127.35 56.96 127.973 56.6833 128.48 56.13L129.32 56.93C128.993 57.31 128.59 57.6 128.11 57.8C127.636 58 127.113 58.1 126.54 58.1Z" fill="#3DB2E6"/>
<path d="M5.5339 108.191H15.167V112.448H0V89.4929H5.5339V108.191Z" fill="black"/>
<path d="M16.2631 103.761C16.2631 102.058 16.5941 100.545 17.2563 99.2206C17.9185 97.8857 18.8697 96.8609 20.11 96.1462C21.3503 95.4314 22.806 95.0741 24.4772 95.0741C27.0313 95.0741 29.0441 95.8676 30.5156 97.4548C31.9871 99.0314 32.7229 101.181 32.7229 103.903V104.092C32.7229 106.752 31.9819 108.864 30.4998 110.43C29.0283 111.986 27.0313 112.764 24.5087 112.764C22.0807 112.764 20.131 112.038 18.6595 110.588C17.188 109.127 16.3944 107.151 16.2788 104.66L16.2631 103.761ZM21.5762 104.092C21.5762 105.669 21.8232 106.825 22.3172 107.561C22.8112 108.297 23.5417 108.664 24.5087 108.664C26.4007 108.664 27.3676 107.209 27.4097 104.297V103.761C27.4097 100.703 26.4322 99.1733 24.4772 99.1733C22.7009 99.1733 21.7391 100.492 21.592 103.131L21.5762 104.092Z" fill="black"/>
<path d="M43.5151 104.345H40.5195V112.448H34.9856V89.4929H44.0196C46.7419 89.4929 48.8703 90.0972 50.4049 91.306C51.9394 92.5147 52.7067 94.2227 52.7067 96.43C52.7067 98.0276 52.3809 99.3519 51.7292 100.403C51.0881 101.454 50.079 102.305 48.7021 102.957L53.495 112.212V112.448H47.567L43.5151 104.345ZM40.5195 100.072H44.0196C45.0707 100.072 45.859 99.7987 46.3845 99.2521C46.9206 98.695 47.1886 97.9225 47.1886 96.9345C47.1886 95.9465 46.9206 95.1739 46.3845 94.6169C45.8485 94.0493 45.0602 93.7655 44.0196 93.7655H40.5195V100.072Z" fill="black"/>
<path d="M65.0913 112.448C64.9021 112.101 64.734 111.592 64.5868 110.919C63.6093 112.149 62.2429 112.764 60.4876 112.764C58.8795 112.764 57.5131 112.28 56.3884 111.313C55.2638 110.336 54.7015 109.111 54.7015 107.64C54.7015 105.79 55.3846 104.392 56.751 103.446C58.1174 102.5 60.104 102.027 62.7106 102.027H64.3503V101.128C64.3503 99.5622 63.6724 98.7791 62.3165 98.7791C61.0552 98.7791 60.4246 99.3992 60.4246 100.64H55.1114C55.1114 98.9893 55.8103 97.6492 57.2083 96.6192C58.6167 95.5891 60.4088 95.0741 62.5845 95.0741C64.7602 95.0741 66.4787 95.6049 67.74 96.6665C69.0013 97.728 69.6477 99.1838 69.6793 101.034V108.586C69.7003 110.152 69.942 111.35 70.4045 112.18V112.448H65.0913ZM61.7647 108.98C62.4268 108.98 62.9734 108.838 63.4043 108.554C63.8458 108.27 64.1611 107.95 64.3503 107.592V104.865H62.8052C60.9553 104.865 60.0304 105.695 60.0304 107.356C60.0304 107.839 60.1933 108.234 60.5192 108.538C60.845 108.833 61.2602 108.98 61.7647 108.98Z" fill="black"/>
<path fill-rule="evenodd" clip-rule="evenodd" d="M30.4949 93.8244C26.756 92.1627 21.7271 92.1629 17.9882 93.8244L17.2722 92.2133C21.4669 90.3493 27.0161 90.349 31.2109 92.2133L30.4949 93.8244Z" fill="#00A0E9"/>
<path fill-rule="evenodd" clip-rule="evenodd" d="M32.1924 90.3996C27.1745 88.309 21.309 88.3092 16.2911 90.3996L15.4436 88.3653C21.0039 86.049 27.4796 86.0487 33.0399 88.3653L32.1924 90.3996Z" fill="#00A0E9"/>
<path fill-rule="evenodd" clip-rule="evenodd" d="M33.9237 86.3265C27.8154 84.0838 20.6687 84.084 14.5603 86.3265L13.6489 83.844C20.3457 81.3855 28.1384 81.3852 34.8352 83.844L33.9237 86.3265Z" fill="#00A0E9"/>
<path fill-rule="evenodd" clip-rule="evenodd" d="M17.9892 114.176C21.7281 115.837 26.757 115.837 30.496 114.176L31.2119 115.787C27.0172 117.651 21.468 117.651 17.2732 115.787L17.9892 114.176Z" fill="#00A0E9"/>
<path fill-rule="evenodd" clip-rule="evenodd" d="M16.2918 117.6C21.3096 119.691 27.1751 119.691 32.1931 117.6L33.0405 119.635C27.4803 121.951 21.0046 121.951 15.4442 119.635L16.2918 117.6Z" fill="#00A0E9"/>
<path fill-rule="evenodd" clip-rule="evenodd" d="M14.5604 121.673C20.6687 123.916 27.8154 123.916 33.9238 121.673L34.8352 124.156C28.1385 126.615 20.3458 126.615 13.6489 124.156L14.5604 121.673Z" fill="#00A0E9"/>
<path d="M183.956 112.1C183.956 119.224 178.18 125 171.056 125C163.931 125 158.156 119.224 158.156 112.1C158.156 104.976 163.931 99.2 171.056 99.2C178.18 99.2 183.956 104.976 183.956 112.1Z" fill="#1B365D"/>
<path d="M188.256 105.889H183.956L187.3 118.311H191.6L193.033 111.622L194.467 118.311H198.767L202.111 105.889H197.811L196.378 113.533L194.467 105.889H191.6L189.689 113.533L188.256 105.889Z" fill="#1B365D"/>
<path d="M205.456 118.311H200.678L204.978 105.889H210.711L215.011 118.311H210.233L209.756 116.4H205.933L205.456 118.311Z" fill="#1B365D"/>
<path d="M217.4 105.889H212.622L217.4 118.311H221.7L226.478 105.889H222.178L219.789 113.056L217.4 105.889Z" fill="#1B365D"/>
<path d="M236.033 105.889H227.911V118.311H236.033V114.967H232.211V113.533H235.556V110.667H232.211V109.233H236.033V105.889Z" fill="#1B365D"/>
<path fill-rule="evenodd" clip-rule="evenodd" d="M170.578 85.8222C155.801 85.8222 143.822 97.8011 143.822 112.578H140C140 95.6901 153.69 82 170.578 82V85.8222Z" fill="#1B365D"/>
<path fill-rule="evenodd" clip-rule="evenodd" d="M170.578 94.4222C160.551 94.4222 152.422 102.551 152.422 112.578H148.6C148.6 100.44 158.44 90.6 170.578 90.6V94.4222Z" fill="#1B365D"/>
<path d="M166.756 105.889L164.844 109.233H169.622L163.889 118.311H174.4L176.789 114.489H171.533L176.789 105.889H166.756Z" fill="white"/>
<path d="M209.278 113.533H206.411L206.889 108.756H208.8L209.278 113.533Z" fill="white"/>
<g clip-path="url(#clip0)">
<path d="M515.592 9.90371V10.373H516.438V12.5838H516.975V10.3799H517.806V9.89682L515.592 9.90328V9.90371ZM518.308 9.92418V12.5772H518.738V10.5297L519.409 12.3087L519.861 12.3057L520.558 10.5568V12.611H520.995V9.9175H520.192L519.626 11.8107L519.046 9.92418H518.308V9.92418ZM452.007 25.8681V18.3587C452.007 18.3587 451.921 15.1209 455.332 11.8831C458.743 8.64532 461.981 8.99913 461.981 8.99913H466.453C466.453 8.99913 472.07 0.99971 483.191 0.99971C494.311 0.99971 500.674 8.8901 500.674 8.8901H505.719C505.719 8.8901 506.992 8.83537 508.592 9.59838C510.21 10.3698 511.666 11.2584 513.147 13.4414C514.633 15.6307 514.832 17.208 514.832 18.3584V26.5753C514.832 28.2883 514.66 29.6226 511.622 32.5065C508.584 35.3905 504.686 35.0641 504.686 35.0641H500.043C500.043 35.0641 494.244 42.9993 483.363 42.9993C472.479 42.9993 466.911 35.1186 466.911 35.1186H461.752C461.752 35.1186 458.341 35.3091 455.045 32.1799C451.749 29.0514 452.064 25.8681 452.007 25.8681ZM457.481 15.0661L460.692 28.2082H464.217L465.793 20.6442L467.312 28.2082H470.924L474.134 15.148H470.293L469.176 22.3041L467.599 15.1211H464.131L462.555 22.3857L461.38 15.0939L457.481 15.0666V15.0661ZM475.948 18.7429V28.1963H479.336V18.7429H475.948ZM479.849 16.0724C479.849 16.9869 478.892 17.7292 477.713 17.7292C476.535 17.7292 475.578 16.9869 475.578 16.0722C475.578 15.1575 476.535 14.4156 477.713 14.4156C478.892 14.4156 479.849 15.1579 479.849 16.0724V16.0724ZM480.67 33.2051C480.67 33.2051 484.9 30.158 484.9 25.6231V17.9822C484.9 16.754 485.563 15.0136 487.548 13.1292C489.533 11.2446 491.283 10.9462 492.496 10.9462H505.103C507.246 10.9742 508.911 11.8271 510.442 13.1876C511.86 14.602 512.782 16.3745 512.782 18.3138V25.6229C512.782 27.0618 512.376 29.147 510.359 30.9051C508.343 32.6634 506.789 33.2051 505.185 33.2051H480.67V33.2051ZM503.954 18.7526V28.2056H507.341V18.7526H503.954ZM507.855 16.0821C507.855 16.9966 506.898 17.7387 505.719 17.7387C504.541 17.7387 503.584 16.9966 503.584 16.0821C503.584 15.1676 504.541 14.4251 505.719 14.4251C506.898 14.4251 507.855 15.1676 507.855 16.0821ZM489.704 28.1377H493.503V24.2003H500.73V21.2568H493.482V18.1777H501.674V15.1174H489.684L489.704 28.1377Z" fill="black"/>
<path d="M460.712 28.0106C460.61 27.7229 457.631 15.4051 457.631 15.2726C457.631 15.168 458.08 15.1346 459.489 15.1346C460.511 15.1346 461.347 15.1717 461.347 15.2174C461.346 15.357 462.397 21.8972 462.468 22.1914C462.529 22.4473 462.54 22.451 462.618 22.2465C462.665 22.1254 463.038 20.4742 463.448 18.5778L464.193 15.1295L465.872 15.1596L467.551 15.1902L468.312 18.6825C468.73 20.6033 469.105 22.2051 469.144 22.2422C469.237 22.3306 469.255 22.2342 469.837 18.4705L470.335 15.2454H472.171C473.181 15.2454 474.008 15.2769 474.008 15.3154C474.008 15.3952 471.008 27.6559 470.916 27.9528C470.862 28.1252 470.673 28.1457 469.129 28.1457C467.586 28.1457 467.396 28.1254 467.342 27.9528C467.309 27.8468 466.964 26.1756 466.577 24.239C466.19 22.3025 465.849 20.6953 465.82 20.6673C465.729 20.5811 465.674 20.8166 464.918 24.5071L464.183 28.0905L462.472 28.1213C461.165 28.1439 460.75 28.1181 460.712 28.0106V28.0106ZM475.982 23.4594V18.7732H479.234V28.1452H475.982V23.4594ZM476.947 17.5547C476.743 17.4954 476.394 17.2847 476.173 17.086C475.404 16.3976 475.526 15.4242 476.455 14.8405C476.857 14.5882 477.076 14.5315 477.655 14.53C480.334 14.5229 480.51 17.4644 477.84 17.6299C477.553 17.6478 477.151 17.6139 476.947 17.5545V17.5547ZM481.814 32.2439C483.176 30.8907 484.033 29.573 484.586 27.98C484.846 27.2333 484.857 27.0437 484.924 22.1914C484.998 16.7994 484.989 16.8824 485.65 15.6309C486.036 14.8998 486.973 13.767 487.812 13.015C488.742 12.1828 489.684 11.6161 490.733 11.2578L491.488 10.9998H498.689C506.613 10.9998 506.496 10.9912 508.097 11.7034C510.128 12.6069 512.005 14.781 512.51 16.8158C512.765 17.8436 512.763 26.3772 512.507 27.323C511.977 29.2808 510.505 31.029 508.362 32.2445C506.735 33.1668 507.765 33.1073 493.552 33.1073H480.946L481.814 32.2439V32.2439ZM507.342 23.4594V18.6629H503.857V28.2556H507.342V23.4594ZM493.52 26.2158V24.2865H500.837V21.1991H493.52V18.222H501.767V15.0243H489.535L489.611 16.8615C489.653 17.8717 489.688 20.8239 489.688 23.422V28.1452H493.52V26.2158ZM506.56 17.6644C507.81 17.3347 508.325 15.883 507.48 15.0719C506.496 14.1277 504.803 14.154 503.94 15.1275C503.352 15.7901 503.382 16.5508 504.019 17.1552C504.619 17.7241 505.593 17.9195 506.56 17.6644H506.56Z" fill="white"/>
</g>
<path d="M241.338 2.57545C241.354 2.4629 241.338 2.39857 241.354 2.35033C241.964 0.726244 241.964 0.726244 243.465 1.51417C251.018 5.40555 255.614 13.7511 254.739 22.354C253.942 30.1689 250.017 35.8773 243.23 39.4954C241.979 40.1547 241.979 40.1386 241.463 38.82C241.401 38.6753 241.37 38.5145 241.307 38.3376C248.625 34.7517 252.863 28.9147 252.863 20.4887C252.863 12.0466 248.688 6.1774 241.338 2.57545Z" fill="black"/>
<path d="M238.467 34.0832C244.164 31.3025 247.595 26.9769 247.578 20.3795C247.542 13.8549 244.199 9.49294 238.539 6.82127C238.521 6.74857 238.503 6.71222 238.503 6.69405C239.006 4.80389 239.222 4.65849 240.893 5.56722C246.086 8.40243 249.087 12.7644 249.752 18.7256C250.561 25.9409 246.535 32.502 240.605 35.4099C239.275 36.0642 239.275 36.0823 238.682 34.6829C238.593 34.5193 238.539 34.3194 238.467 34.0832Z" fill="black"/>
<path d="M242.647 20.203C242.571 22.2036 242.077 23.883 241.18 25.2782C240.278 26.678 238.954 27.8168 237.182 28.707C236.877 28.8597 236.725 28.9027 236.636 28.8923L236.634 28.8921C236.613 28.89 236.51 28.8795 236.374 28.5573L236.373 28.5565C236.35 28.5009 236.328 28.4486 236.307 28.3994C236.207 28.1651 236.137 27.999 236.09 27.8668C236.065 27.7954 236.054 27.7499 236.049 27.7233C236.056 27.7177 236.066 27.711 236.079 27.7032C236.176 27.6424 236.326 27.5739 236.582 27.4566L236.592 27.4527L236.595 27.451C238.069 26.7599 239.208 25.8171 239.98 24.6368C240.751 23.4559 241.14 22.061 241.15 20.4914C241.16 18.884 240.772 17.4635 239.986 16.2712C239.2 15.0795 238.035 14.141 236.532 13.4687L236.528 13.4674C236.093 13.2765 236.076 13.1535 236.073 13.1343L236.072 13.1333C236.068 13.1016 236.071 13.0414 236.106 12.9261C236.143 12.8092 236.201 12.6762 236.279 12.4969L236.28 12.4928C236.435 12.1265 236.555 12.0588 236.609 12.0424C236.682 12.0201 236.842 12.0243 237.204 12.1994C240.663 13.9115 242.425 16.6245 242.647 20.203Z" fill="black"/>
<path d="M236.416 27.0679C235.956 27.2779 235.718 27.383 235.645 27.5574C235.56 27.7603 235.702 28.057 235.984 28.7218C236.322 29.5215 236.791 29.3761 237.371 29.0853M236.021 27.7459L236.021 27.7448M242.647 20.203C242.571 22.2036 242.077 23.883 241.18 25.2782C240.278 26.678 238.954 27.8168 237.182 28.707C236.877 28.8597 236.725 28.9027 236.636 28.8923L236.634 28.8921C236.613 28.89 236.51 28.8795 236.374 28.5573L236.373 28.5565C236.35 28.5009 236.328 28.4486 236.307 28.3994C236.207 28.1651 236.137 27.999 236.09 27.8668C236.065 27.7954 236.054 27.7499 236.049 27.7233C236.056 27.7177 236.066 27.711 236.079 27.7032C236.176 27.6424 236.326 27.5739 236.582 27.4566L236.592 27.4527L236.595 27.451C238.069 26.7599 239.208 25.8171 239.98 24.6368C240.751 23.4559 241.14 22.061 241.15 20.4914C241.16 18.884 240.772 17.4635 239.986 16.2712C239.2 15.0795 238.035 14.141 236.532 13.4687L236.528 13.4674C236.093 13.2765 236.076 13.1535 236.073 13.1343L236.072 13.1333C236.068 13.1016 236.071 13.0414 236.106 12.9261C236.143 12.8092 236.201 12.6762 236.279 12.4969L236.28 12.4928C236.435 12.1265 236.555 12.0588 236.609 12.0424C236.682 12.0201 236.842 12.0243 237.204 12.1994C240.663 13.9115 242.425 16.6245 242.647 20.203Z" stroke="black"/>
<path d="M224.351 2.57545C224.334 2.4629 224.351 2.39857 224.334 2.35033C223.687 0.726244 223.687 0.726244 222.092 1.51417C214.067 5.40555 209.182 13.7511 210.113 22.354C210.96 30.1689 215.13 35.8773 222.341 39.4954C223.67 40.1547 223.67 40.1386 224.218 38.82C224.284 38.6753 224.318 38.5145 224.384 38.3376C216.609 34.7517 212.106 28.9147 212.106 20.4887C212.106 12.0466 216.543 6.1774 224.351 2.57545Z" fill="black"/>
<path d="M226.795 34.0832C221.098 31.3025 217.666 26.9769 217.684 20.3795C217.72 13.8549 221.063 9.49294 226.723 6.82127C226.741 6.74857 226.759 6.71222 226.759 6.69405C226.256 4.80389 226.041 4.65849 224.369 5.56722C219.176 8.40243 216.175 12.7644 215.51 18.7256C214.702 25.9409 218.727 32.502 224.656 35.4099C225.987 36.0642 225.986 36.0823 226.58 34.6829C226.669 34.5193 226.723 34.3194 226.795 34.0832Z" fill="black"/>
<path d="M222.616 20.203C222.692 22.2036 223.185 23.883 224.083 25.2782C224.984 26.678 226.308 27.8168 228.08 28.707C228.385 28.8597 228.538 28.9027 228.626 28.8923L228.628 28.8921C228.649 28.89 228.752 28.8795 228.888 28.5573L228.889 28.5565C228.912 28.5009 228.934 28.4486 228.956 28.3994C229.055 28.1651 229.126 27.999 229.172 27.8668C229.197 27.7954 229.208 27.7499 229.214 27.7233C229.206 27.7177 229.196 27.711 229.183 27.7032C229.086 27.6424 228.936 27.5739 228.68 27.4566L228.671 27.4527L228.667 27.451C227.193 26.7599 226.054 25.8171 225.282 24.6368C224.511 23.4559 224.122 22.061 224.112 20.4914C224.103 18.884 224.49 17.4635 225.276 16.2712C226.062 15.0795 227.227 14.141 228.73 13.4687L228.734 13.4674C229.17 13.2765 229.187 13.1535 229.189 13.1343L229.19 13.1333C229.194 13.1016 229.192 13.0414 229.156 12.9261C229.119 12.8092 229.061 12.6762 228.983 12.4969L228.982 12.4928C228.827 12.1265 228.708 12.0588 228.653 12.0424C228.58 12.0201 228.42 12.0243 228.058 12.1994C224.6 13.9115 222.837 16.6245 222.616 20.203Z" fill="black"/>
<path d="M228.846 27.0679C229.306 27.2779 229.544 27.383 229.617 27.5574C229.702 27.7603 229.561 28.057 229.278 28.7218C228.94 29.5215 228.472 29.3761 227.891 29.0853M229.242 27.7459L229.241 27.7448M222.616 20.203C222.692 22.2036 223.185 23.883 224.083 25.2782C224.984 26.678 226.308 27.8168 228.08 28.707C228.385 28.8597 228.538 28.9027 228.626 28.8923L228.628 28.8921C228.649 28.89 228.752 28.8795 228.888 28.5573L228.889 28.5565C228.912 28.5009 228.934 28.4486 228.956 28.3994C229.055 28.1651 229.126 27.999 229.172 27.8668C229.197 27.7954 229.208 27.7499 229.214 27.7233C229.206 27.7177 229.196 27.711 229.183 27.7032C229.086 27.6424 228.936 27.5739 228.68 27.4566L228.671 27.4527L228.667 27.451C227.193 26.7599 226.054 25.8171 225.282 24.6368C224.511 23.4559 224.122 22.061 224.112 20.4914C224.103 18.884 224.49 17.4635 225.276 16.2712C226.062 15.0795 227.227 14.141 228.73 13.4687L228.734 13.4674C229.17 13.2765 229.187 13.1535 229.189 13.1343L229.19 13.1333C229.194 13.1016 229.192 13.0414 229.156 12.9261C229.119 12.8092 229.061 12.6762 228.983 12.4969L228.982 12.4928C228.827 12.1265 228.708 12.0588 228.653 12.0424C228.58 12.0201 228.42 12.0243 228.058 12.1994C224.6 13.9115 222.837 16.6245 222.616 20.203Z" stroke="black"/>
<path d="M232.603 23.3588C234.337 23.3588 235.744 21.9525 235.744 20.2178C235.744 18.483 234.337 17.0767 232.603 17.0767C230.868 17.0767 229.461 18.483 229.461 20.2178C229.461 21.9525 230.868 23.3588 232.603 23.3588Z" fill="black"/>
<path d="M225.829 58.0764L224.399 56.0264C224.339 56.033 224.249 56.0364 224.129 56.0364H222.549V58.0764H221.249V51.0764H224.129C224.736 51.0764 225.262 51.1764 225.709 51.3764C226.162 51.5764 226.509 51.863 226.749 52.2364C226.989 52.6097 227.109 53.053 227.109 53.5664C227.109 54.093 226.979 54.5464 226.719 54.9264C226.466 55.3064 226.099 55.5897 225.619 55.7764L227.229 58.0764H225.829ZM225.799 53.5664C225.799 53.1197 225.652 52.7764 225.359 52.5364C225.066 52.2964 224.636 52.1764 224.069 52.1764H222.549V54.9664H224.069C224.636 54.9664 225.066 54.8464 225.359 54.6064C225.652 54.3597 225.799 54.013 225.799 53.5664ZM229.663 52.1664V54.2964H233.043V55.3964H229.663V58.0764H228.363V51.0764H233.473V52.1664H229.663ZM234.531 51.0764H235.831V58.0764H234.531V51.0764ZM237.524 51.0764H240.584C241.331 51.0764 241.994 51.223 242.574 51.5164C243.154 51.803 243.604 52.213 243.924 52.7464C244.244 53.273 244.404 53.883 244.404 54.5764C244.404 55.2697 244.244 55.883 243.924 56.4164C243.604 56.943 243.154 57.353 242.574 57.6464C241.994 57.933 241.331 58.0764 240.584 58.0764H237.524V51.0764ZM240.524 56.9764C241.037 56.9764 241.487 56.8797 241.874 56.6864C242.267 56.4864 242.567 56.2064 242.774 55.8464C242.987 55.4797 243.094 55.0564 243.094 54.5764C243.094 54.0964 242.987 53.6764 242.774 53.3164C242.567 52.9497 242.267 52.6697 241.874 52.4764C241.487 52.2764 241.037 52.1764 240.524 52.1764H238.824V56.9764H240.524Z" fill="#6D6B6C"/>
<g clip-path="url(#clip1)">
<path d="M367.56 31.7371H374.651V14.9959L366.662 7.14069L361.648 12.0709L367.56 17.8842V31.7368V31.7371ZM374.67 35.2322H349.936L344.023 29.4191L346.53 26.954L351.414 31.7555H361.461L351.563 22.0054L354.089 19.5218L363.987 29.2537V19.3744L359.122 14.5913L361.61 12.1444L349.318 0.0026741H324.621L331.693 6.95661V6.97504H346.362L351.545 12.0709L343.967 19.5216L338.784 14.4257V10.4704H331.693V17.314L343.967 29.3823L338.971 34.2941L346.961 42.1495H381.742L374.67 35.2322Z" fill="#231F20"/>
</g>
<path d="M331.368 50.3333L329.048 57.3333H327.668L325.938 52.1533L324.178 57.3333H322.788L320.468 50.3333H321.818L323.558 55.6533L325.368 50.3333H326.568L328.338 55.6833L330.128 50.3333H331.368ZM337.477 56.2433V57.3333H332.227V50.3333H337.337V51.4233H333.527V53.2433H336.907V54.3133H333.527V56.2433H337.477ZM343.686 53.6933C344.073 53.82 344.379 54.0333 344.606 54.3333C344.833 54.6267 344.946 54.9933 344.946 55.4333C344.946 56.04 344.713 56.51 344.246 56.8433C343.779 57.17 343.099 57.3333 342.206 57.3333H338.726V50.3333H342.006C342.833 50.3333 343.469 50.4967 343.916 50.8233C344.363 51.1433 344.586 51.5867 344.586 52.1533C344.586 52.5 344.506 52.8067 344.346 53.0733C344.186 53.34 343.966 53.5467 343.686 53.6933ZM340.026 51.3533V53.2833H341.866C342.319 53.2833 342.666 53.2033 342.906 53.0433C343.153 52.8767 343.276 52.6367 343.276 52.3233C343.276 52.0033 343.153 51.7633 342.906 51.6033C342.666 51.4367 342.319 51.3533 341.866 51.3533H340.026ZM342.126 56.3133C343.133 56.3133 343.636 55.9767 343.636 55.3033C343.636 54.63 343.133 54.2933 342.126 54.2933H340.026V56.3133H342.126ZM348.303 57.4333C347.763 57.4333 347.24 57.3567 346.733 57.2033C346.233 57.05 345.837 56.8467 345.543 56.5933L345.993 55.5833C346.28 55.81 346.63 55.9967 347.043 56.1433C347.463 56.2833 347.883 56.3533 348.303 56.3533C348.823 56.3533 349.21 56.27 349.463 56.1033C349.723 55.9367 349.853 55.7167 349.853 55.4433C349.853 55.2433 349.78 55.08 349.633 54.9533C349.493 54.82 349.313 54.7167 349.093 54.6433C348.873 54.57 348.573 54.4867 348.193 54.3933C347.66 54.2667 347.227 54.14 346.893 54.0133C346.567 53.8867 346.283 53.69 346.043 53.4233C345.81 53.15 345.693 52.7833 345.693 52.3233C345.693 51.9367 345.797 51.5867 346.003 51.2733C346.217 50.9533 346.533 50.7 346.953 50.5133C347.38 50.3267 347.9 50.2333 348.513 50.2333C348.94 50.2333 349.36 50.2867 349.773 50.3933C350.187 50.5 350.543 50.6533 350.843 50.8533L350.433 51.8633C350.127 51.6833 349.807 51.5467 349.473 51.4533C349.14 51.36 348.817 51.3133 348.503 51.3133C347.99 51.3133 347.607 51.4 347.353 51.5733C347.107 51.7467 346.983 51.9767 346.983 52.2633C346.983 52.4633 347.053 52.6267 347.193 52.7533C347.34 52.88 347.523 52.98 347.743 53.0533C347.963 53.1267 348.263 53.21 348.643 53.3033C349.163 53.4233 349.59 53.55 349.923 53.6833C350.257 53.81 350.54 54.0067 350.773 54.2733C351.013 54.54 351.133 54.9 351.133 55.3533C351.133 55.74 351.027 56.09 350.813 56.4033C350.607 56.7167 350.29 56.9667 349.863 57.1533C349.437 57.34 348.917 57.4333 348.303 57.4333ZM355.492 57.4333C354.779 57.4333 354.136 57.28 353.562 56.9733C352.989 56.66 352.539 56.23 352.212 55.6833C351.886 55.13 351.722 54.5133 351.722 53.8333C351.722 53.1533 351.886 52.54 352.212 51.9933C352.539 51.44 352.989 51.01 353.562 50.7033C354.136 50.39 354.779 50.2333 355.492 50.2333C356.206 50.2333 356.849 50.39 357.422 50.7033C357.996 51.01 358.446 51.4367 358.772 51.9833C359.099 52.53 359.262 53.1467 359.262 53.8333C359.262 54.52 359.099 55.1367 358.772 55.6833C358.446 56.23 357.996 56.66 357.422 56.9733C356.849 57.28 356.206 57.4333 355.492 57.4333ZM355.492 56.2933C355.959 56.2933 356.379 56.19 356.752 55.9833C357.126 55.77 357.419 55.4767 357.632 55.1033C357.846 54.7233 357.952 54.3 357.952 53.8333C357.952 53.3667 357.846 52.9467 357.632 52.5733C357.419 52.1933 357.126 51.9 356.752 51.6933C356.379 51.48 355.959 51.3733 355.492 51.3733C355.026 51.3733 354.606 51.48 354.232 51.6933C353.859 51.9 353.566 52.1933 353.352 52.5733C353.139 52.9467 353.032 53.3667 353.032 53.8333C353.032 54.3 353.139 54.7233 353.352 55.1033C353.566 55.4767 353.859 55.77 354.232 55.9833C354.606 56.19 355.026 56.2933 355.492 56.2933ZM363.68 57.4333C362.974 57.4333 362.334 57.28 361.76 56.9733C361.194 56.66 360.747 56.23 360.42 55.6833C360.1 55.1367 359.94 54.52 359.94 53.8333C359.94 53.1467 360.104 52.53 360.43 51.9833C360.757 51.4367 361.204 51.01 361.77 50.7033C362.344 50.39 362.984 50.2333 363.69 50.2333C364.264 50.2333 364.787 50.3333 365.26 50.5333C365.734 50.7333 366.134 51.0233 366.46 51.4033L365.62 52.1933C365.114 51.6467 364.49 51.3733 363.75 51.3733C363.27 51.3733 362.84 51.48 362.46 51.6933C362.08 51.9 361.784 52.19 361.57 52.5633C361.357 52.9367 361.25 53.36 361.25 53.8333C361.25 54.3067 361.357 54.73 361.57 55.1033C361.784 55.4767 362.08 55.77 362.46 55.9833C362.84 56.19 363.27 56.2933 363.75 56.2933C364.49 56.2933 365.114 56.0167 365.62 55.4633L366.46 56.2633C366.134 56.6433 365.73 56.9333 365.25 57.1333C364.777 57.3333 364.254 57.4333 363.68 57.4333ZM369.916 54.4033L368.806 55.5433V57.3333H367.506V50.3333H368.806V53.9233L372.266 50.3333H373.726L370.786 53.4633L373.906 57.3333H372.386L369.916 54.4033ZM379.841 56.2433V57.3333H374.591V50.3333H379.701V51.4233H375.891V53.2433H379.271V54.3133H375.891V56.2433H379.841ZM382.51 51.4333H380.19V50.3333H386.13V51.4333H383.81V57.3333H382.51V51.4333Z" fill="#231F20"/>
<path fill-rule="evenodd" clip-rule="evenodd" d="M81.638 186.533L81.6381 186.533C81.9942 186.772 82.3374 187.002 82.6436 187.278C84.7874 189.129 84.4214 192.338 81.9291 193.677C81.6154 193.836 81.3016 193.995 80.9705 194.083C78.5305 194.735 76.0905 194.629 73.6853 193.889C73.2496 193.766 73.0231 193.554 73.0231 193.025C73.0405 188.865 73.0405 184.686 73.0405 180.526C73.0405 179.856 73.3368 179.362 73.9642 179.186C76.2648 178.498 78.6002 178.251 80.8834 179.115C81.7025 179.433 82.5391 180.05 83.0445 180.773C84.2471 182.447 83.6022 184.757 81.8071 185.762C81.5631 185.885 81.3191 186.009 81.0576 186.132C81.2523 186.273 81.447 186.404 81.638 186.533ZM77.7462 192.285C79.7854 192.249 80.6568 191.209 80.3605 189.217C80.1688 187.877 79.2451 187.243 77.5545 187.137C76.8399 187.102 76.4739 187.401 76.4565 188.054C76.4042 189.076 76.4042 190.116 76.4739 191.139C76.5088 191.914 76.9445 192.39 77.7462 192.285ZM76.4698 182.164V182.165V182.165V182.165V182.166V182.166V182.166C76.466 183.024 76.4625 183.825 76.4739 184.633C76.4739 185.039 76.6133 185.462 77.1362 185.303C77.2337 185.273 77.3322 185.243 77.4311 185.212C78.0747 185.015 78.7384 184.811 79.2974 184.475C80.0642 184.016 80.2559 183.205 80.0642 182.306C79.8725 181.425 79.3496 180.878 78.4956 180.773C78.0529 180.712 77.6019 180.726 77.1314 180.741C76.9167 180.748 76.6979 180.755 76.4739 180.755C76.4739 181.245 76.4718 181.711 76.4698 182.16V182.161V182.162V182.163V182.164ZM62.2438 197.683L62.2439 197.683C62.3208 197.478 62.3911 197.291 62.4614 197.098C62.7228 196.41 63.1585 196.216 63.9079 196.393C64.6922 196.569 65.5114 196.675 66.2957 196.604C66.7662 196.551 67.3239 196.181 67.6377 195.776C67.8065 195.568 67.8251 195.234 67.8437 194.902C67.8519 194.754 67.8602 194.607 67.8817 194.471C67.7894 194.457 67.6959 194.439 67.6019 194.421L67.6018 194.421C67.3405 194.372 67.0748 194.322 66.8185 194.348C63.4199 194.594 61.2414 192.373 61.3982 188.741C61.4331 187.983 61.5377 187.208 61.7294 186.485C62.2697 184.545 63.5419 183.311 65.5288 182.924C67.1148 182.606 68.7008 182.73 70.2519 183.188C70.8794 183.382 71.1757 183.682 71.1582 184.422C71.1209 186.702 71.128 188.991 71.1351 191.276V191.276V191.276V191.276V191.276V191.277V191.277C71.138 192.19 71.1408 193.102 71.1408 194.013C71.1408 197.292 69.6594 198.914 66.4177 199.037C64.9537 199.072 63.4897 198.914 62.0605 198.173C62.1269 197.994 62.187 197.834 62.2436 197.684L62.2438 197.683ZM67.9688 188.353C67.9688 188.076 67.966 187.799 67.9631 187.522C67.956 186.83 67.9489 186.137 67.9862 185.445C68.0037 184.916 67.7771 184.722 67.3065 184.669C66.2782 184.545 65.2674 185.021 65.0931 186.062C64.8491 187.472 64.8491 188.953 64.8491 190.399C64.8491 190.875 65.1454 191.421 65.4417 191.827C65.8948 192.444 66.6791 192.673 67.3065 192.373C67.6725 192.179 67.8817 191.439 67.9514 190.91C68.0118 190.323 67.9968 189.728 67.982 189.137V189.137V189.137V189.137V189.137V189.137V189.137V189.136V189.136V189.136V189.136C67.9754 188.874 67.9688 188.613 67.9688 188.353ZM47.5598 194.312H50.6969C50.9923 194.312 51.2888 194.313 51.5858 194.314H51.5861H51.5863H51.5866H51.5869H51.5869H51.587H51.587H51.587C52.4813 194.318 53.3805 194.321 54.2698 194.295C55.0889 194.277 55.4549 193.801 55.4375 192.972C55.4027 192.197 55.0541 191.756 54.2524 191.756H52.1609C50.9235 191.756 50.7841 191.544 51.2024 190.346C52.4221 186.908 53.6418 183.454 54.8616 179.999L54.8624 179.997C55.1935 179.045 55.0192 178.675 54.1827 178.675C51.9692 178.657 49.7732 178.657 47.5598 178.675C46.8104 178.692 46.4966 179.115 46.4966 179.873C46.4966 180.614 46.7058 181.16 47.5424 181.178C47.949 181.19 48.3557 181.186 48.7624 181.182C48.9657 181.18 49.169 181.178 49.3724 181.178C50.4878 181.178 50.6621 181.443 50.2787 182.5C49.6512 184.219 49.0194 185.938 48.3877 187.657C47.7559 189.376 47.1241 191.095 46.4966 192.814C46.0435 194.048 46.2352 194.312 47.5598 194.312ZM98.6083 189.799C98.9046 192.179 100.438 192.69 104.133 191.65C104.184 191.79 104.238 191.93 104.293 192.072C104.369 192.268 104.446 192.467 104.517 192.673C104.726 193.36 104.499 193.836 103.819 194.03C102.233 194.488 100.63 194.682 99.0091 194.206C97.1617 193.677 96.0114 192.373 95.6803 190.504C95.4711 189.323 95.4189 188.036 95.6106 186.855C96.0986 183.928 98.7129 182.218 101.606 182.765C102.809 182.994 103.732 183.681 104.185 184.792C104.528 185.606 104.705 186.498 104.88 187.379L104.88 187.379C104.91 187.528 104.939 187.676 104.97 187.824C105.109 188.494 104.761 188.847 104.081 188.935C102.681 189.116 101.295 189.328 99.8971 189.542L99.8968 189.542L99.6017 189.587C99.2706 189.675 98.9394 189.746 98.6083 189.799ZM99.2396 187.989L99.2398 187.989C100.046 187.859 100.757 187.745 101.467 187.683C102.129 187.63 102.251 187.331 102.129 186.767C102.117 186.707 102.106 186.649 102.096 186.591C102.058 186.391 102.022 186.196 101.955 185.991C101.728 185.25 101.257 184.774 100.473 184.722C99.7237 184.669 99.044 184.951 98.7651 185.674C98.5829 186.177 98.4684 186.716 98.339 187.324L98.339 187.324C98.2828 187.588 98.2238 187.866 98.1551 188.159C98.5389 188.102 98.8979 188.044 99.2396 187.989ZM93.5539 191.685C89.7545 192.655 88.3253 192.179 88.029 189.781L88.7558 189.67C90.353 189.426 91.9273 189.185 93.5016 188.97C94.2685 188.865 94.5648 188.477 94.4428 187.719C94.4166 187.56 94.3948 187.401 94.373 187.243C94.3513 187.084 94.3295 186.925 94.3033 186.767C93.7282 183.223 90.6782 181.689 87.5236 183.346C85.467 184.44 84.9093 186.344 84.857 188.512C84.7873 191.315 86.0073 193.413 88.151 194.153C89.8765 194.753 91.5845 194.541 93.2925 194.048C93.9025 193.871 94.0942 193.395 93.9548 192.814C93.8911 192.531 93.7811 192.257 93.6721 191.986L93.6721 191.986L93.6721 191.986L93.672 191.986L93.672 191.985C93.6317 191.885 93.5915 191.785 93.5539 191.685ZM91.1836 187.613C90.0856 187.789 88.9702 187.948 87.5759 188.142C87.6354 187.881 87.6851 187.633 87.7325 187.396L87.7325 187.396L87.7325 187.396C87.8516 186.801 87.9565 186.276 88.1685 185.797C88.5519 184.845 89.5802 184.475 90.469 184.845C91.1487 185.127 91.811 186.608 91.5496 187.313C91.4973 187.437 91.323 187.595 91.1836 187.613ZM56.8668 188.635V184.14C56.8668 183.223 57.1631 182.959 58.0694 182.941H58.1566C60.0563 182.923 60.126 182.994 60.126 184.88V192.62C60.126 194.101 59.9343 194.295 58.4703 194.295C57.0586 194.295 56.8668 194.101 56.8668 192.673V188.635ZM56.7448 180.209C56.7622 181.055 57.5117 181.707 58.4702 181.707C59.4985 181.707 60.2305 181.072 60.2131 180.138C60.1957 179.274 59.4811 178.639 58.5051 178.639C57.5291 178.639 56.7274 179.345 56.7448 180.209Z" fill="black"/>
<path d="M0 187.023C0 198.083 8.96346 207.046 20.0231 207.046C31.0827 207.046 40.0462 198.083 40.0462 187.023C40.0462 175.963 31.0827 167 20.0231 167C8.96346 167 0 175.963 0 187.023Z" fill="url(#paint1_radial)"/>
<path d="M6.54883 176.438C6.54883 180.914 12.5479 179.689 19.9446 179.689C27.3414 179.689 33.3405 180.914 33.3405 176.438C33.3405 171.978 27.3414 168.351 19.9446 168.351C12.5478 168.335 6.54883 171.963 6.54883 176.438V176.438Z" fill="url(#paint2_linear)"/>
<path d="M14.0084 198.55C13.9769 198.503 18.5783 193.431 23.9649 188.138C29.3045 182.846 33.843 178.166 33.8586 178.166C33.6859 174.491 30.9848 172.716 28.5506 172.418C27.0117 172.104 15.6259 171.696 9.15577 172.701C7.9475 172.846 6.73939 173.005 5.51876 173.203C5.4712 173.211 4.99237 173.709 4.5661 174.223C4.12887 174.751 3.74484 175.296 3.78457 175.29C7.46944 174.77 11.1769 174.424 14.8944 174.255C18.6964 174.082 22.5045 174.098 26.3049 174.303C26.3834 174.365 22.0491 179.171 16.7095 184.401C11.4015 189.614 6.59594 194.436 6.12477 195.001C6.09348 198.833 9.34411 200.309 11.0874 200.654C19.1751 201.44 27.3405 201.159 35.4284 199.855C35.4284 199.855 36.1464 199.046 36.2331 198.898C36.3199 198.75 36.9417 197.819 36.9218 197.822C29.1638 198.928 21.4105 199.271 13.7414 198.848C13.9094 198.708 13.9141 198.66 14.0084 198.55Z" fill="white"/>
<path fill-rule="evenodd" clip-rule="evenodd" d="M13.7815 3C6.30193 3.14817 1.1435 7.13408 0.468076 14.1989C0.243226 16.5487 0.0673675 18.9536 0 21.2998V25.161C0.116362 28.67 0.583568 31.8798 1.63783 34.3534C3.63873 39.0539 7.12259 41.8663 13.358 42H14.3458C21.2059 41.8455 25.6513 39.914 27.9111 32.1156C30.1719 24.3154 28.5341 13.1166 26.4299 9.17944C24.3249 5.2396 21.051 3.12467 14.6581 3.0009H13.7815V3Z" fill="#2761AB"/>
<path fill-rule="evenodd" clip-rule="evenodd" d="M23 29.1002L16.1046 22.3864L22.9607 15.7108L12.8309 6V19.2004L7.10465 13.6235L5.03936 15.6336L12.0501 22.4627L5 29.3274L7.06529 31.3375L12.8309 25.7243V39L23 29.1002ZM15.4812 12.2967L18.9866 15.7871L15.4812 19.2004V12.2967ZM15.4812 25.497L18.9866 28.9866L15.4812 32.4016V25.497Z" fill="white"/>
<path d="M194.882 200.1H190.6V189.106H179.538V200.1H175.239V175.359H179.538V185.657H190.6V175.359H194.882V200.1ZM216.65 178.826H208.935V200.1H204.67V178.826H197.024V175.359H216.65V178.826ZM237.364 178.826H229.649V200.1H225.384V178.826H217.738V175.359H237.364V178.826ZM244.229 190.907V200.1H239.93V175.359H249.395C252.159 175.359 254.351 176.079 255.971 177.517C257.602 178.956 258.418 180.859 258.418 183.227C258.418 185.651 257.619 187.537 256.022 188.885C254.436 190.233 252.21 190.907 249.344 190.907H244.229ZM244.229 187.458H249.395C250.924 187.458 252.091 187.101 252.895 186.387C253.7 185.662 254.102 184.62 254.102 183.261C254.102 181.924 253.694 180.859 252.878 180.066C252.063 179.262 250.941 178.848 249.514 178.826H244.229V187.458ZM262.259 202.224H259.013L268.75 175.359H271.995L262.259 202.224ZM290.534 200.1H273.899V197.262L282.14 188.273C283.33 186.948 284.174 185.844 284.672 184.96C285.182 184.065 285.437 183.17 285.437 182.275C285.437 181.097 285.103 180.146 284.434 179.421C283.777 178.696 282.888 178.333 281.766 178.333C280.43 178.333 279.393 178.741 278.657 179.556C277.921 180.372 277.552 181.488 277.552 182.904H273.423C273.423 181.397 273.763 180.044 274.443 178.843C275.134 177.631 276.114 176.69 277.382 176.022C278.663 175.354 280.135 175.02 281.8 175.02C284.202 175.02 286.094 175.626 287.476 176.838C288.869 178.038 289.566 179.704 289.566 181.833C289.566 183.068 289.215 184.365 288.512 185.725C287.821 187.073 286.683 188.608 285.097 190.329L279.048 196.804H290.534V200.1Z" fill="black"/>
<path d="M28 278.067V251H38.6556V288.956L28 278.067Z" fill="#CACCCE"/>
<path d="M0 288.956V278.144H28.0778L38.6556 288.956H0Z" fill="black"/>
<path d="M14.1555 264.222V251H24.8111V275.111L14.1555 264.222Z" fill="#A3AFD6"/>
<path d="M0 275.111V264.378H14.2333L24.8111 275.111H0Z" fill="#283879"/>
<path d="M0 261.033H10.0333L0 251V261.033Z" fill="black"/>
<path d="M10.0333 251H0L10.0333 261.033V251Z" fill="#CACCCE"/>
<path d="M66.9667 278.378H61.3667L59.1112 272.544H48.9223L46.8223 278.378H41.3L51.2556 252.789H56.7001L66.9667 278.378ZM57.4778 268.267L53.9778 258.778L50.4778 268.267H57.4778Z" fill="black"/>
<path d="M69.689 278.378V252.789H77.4667L82.1334 270.289L86.7223 252.789H94.5001V278.378H89.6779V258.233L84.6223 278.378H79.6445L74.5112 258.233V278.378H69.689Z" fill="black"/>
<path d="M120.167 275.189C121.411 276.122 122.811 276.822 124.289 277.367L122.422 281.022C121.645 280.789 120.867 280.478 120.167 280.089C120.011 280.011 118.845 279.233 116.745 277.833C115.034 278.533 113.245 278.922 111.145 278.922C107.178 278.922 104.145 277.756 101.889 275.422C99.6336 273.089 98.5447 269.822 98.5447 265.622C98.5447 261.422 99.6336 258.156 101.889 255.9C104.145 253.644 107.178 252.4 110.989 252.4C114.8 252.4 117.834 253.567 120.011 255.9C122.267 258.233 123.356 261.5 123.356 265.622C123.356 267.8 123.045 269.744 122.422 271.456C121.956 272.7 121.178 273.944 120.167 275.189ZM115.967 272.233C116.667 271.456 117.134 270.522 117.445 269.433C117.756 268.344 117.911 267.022 117.911 265.622C117.911 262.667 117.289 260.489 115.967 259.011C114.645 257.533 112.934 256.833 110.834 256.833C108.734 256.833 107.022 257.533 105.7 259.011C104.378 260.489 103.756 262.667 103.756 265.622C103.756 268.578 104.378 270.833 105.7 272.311C107.022 273.789 108.656 274.567 110.678 274.567C111.456 274.567 112.156 274.411 112.778 274.178C111.767 273.478 110.678 272.933 109.589 272.544L111.067 269.589C112.856 270.211 114.489 271.067 115.967 272.233Z" fill="black"/>
<path d="M127.4 278.378V252.789H135.722C138.833 252.789 140.933 252.944 141.867 253.178C143.345 253.567 144.589 254.422 145.522 255.667C146.533 256.989 147 258.622 147 260.644C147 262.2 146.689 263.522 146.145 264.611C145.6 265.7 144.822 266.556 143.967 267.1C143.111 267.722 142.178 268.111 141.322 268.344C140.078 268.578 138.289 268.733 135.956 268.733H132.611V278.378H127.4ZM132.533 257.144V264.378H135.333C137.356 264.378 138.756 264.222 139.456 263.989C140.156 263.756 140.7 263.289 141.089 262.744C141.478 262.2 141.711 261.5 141.711 260.722C141.711 259.789 141.4 259.011 140.856 258.389C140.311 257.767 139.611 257.378 138.756 257.222C138.133 257.144 136.889 257.067 135.022 257.067H132.533V257.144Z" fill="black"/>
<path d="M45.7333 288.956H44.7222L44.3333 287.944H42.5444L42.1555 288.956H41.2222L42.9333 284.522H43.8666L45.7333 288.956ZM44.0999 287.167L43.4777 285.533L42.8555 287.167H44.0999Z" fill="black"/>
<path d="M49 288.956H48.2222V288.489C48.0667 288.644 47.9111 288.8 47.7556 288.878C47.6 288.956 47.3667 289.033 47.2111 289.033C46.8223 289.033 46.5111 288.878 46.2778 288.567C46.0445 288.256 45.8889 287.867 45.8889 287.322C45.8889 286.778 46.0445 286.389 46.2778 286.078C46.5111 285.767 46.8223 285.689 47.2889 285.689C47.6778 285.689 47.9889 285.844 48.2222 286.156V284.522H49.0778V288.956H49ZM46.7445 287.244C46.7445 287.556 46.8223 287.867 46.9 288.022C47.0556 288.256 47.2111 288.333 47.4445 288.333C47.6778 288.333 47.8334 288.256 47.9111 288.1C47.9889 287.944 48.1445 287.711 48.1445 287.322C48.1445 286.933 48.0667 286.7 47.9111 286.544C47.7556 286.389 47.6 286.311 47.3667 286.311C47.1334 286.311 46.9778 286.389 46.8223 286.544C46.6667 286.7 46.7445 286.933 46.7445 287.244Z" fill="black"/>
<path d="M50.5556 288.956L49.2334 285.767H50.1667L50.789 287.4L50.9445 287.944C51.0223 287.789 51.0223 287.711 51.0223 287.633C51.0223 287.556 51.1001 287.478 51.1001 287.322L51.7223 285.689H52.5778L51.3334 288.878H50.5556V288.956Z" fill="black"/>
<path d="M53.589 286.7L52.8112 286.544C52.889 286.233 53.0445 286 53.2778 285.844C53.5112 285.689 53.8223 285.611 54.2112 285.611C54.6001 285.611 54.9112 285.689 55.0667 285.767C55.2223 285.844 55.3778 286 55.4556 286.078C55.5334 286.156 55.5334 286.467 55.5334 286.856V287.867C55.5334 288.178 55.5334 288.333 55.6112 288.489C55.689 288.644 55.689 288.8 55.7667 288.956H54.9112C54.9112 288.878 54.8334 288.8 54.8334 288.722C54.8334 288.644 54.8334 288.644 54.8334 288.644C54.6778 288.8 54.5223 288.878 54.3667 288.956C54.2112 289.033 54.0556 289.033 53.8223 289.033C53.5112 289.033 53.2001 288.956 53.0445 288.8C52.889 288.644 52.7334 288.411 52.7334 288.1C52.7334 287.944 52.8112 287.789 52.889 287.633C52.9667 287.478 53.1223 287.4 53.2778 287.322C53.4334 287.244 53.6667 287.167 53.9778 287.089C54.3667 287.011 54.6778 286.933 54.8334 286.856V286.778C54.8334 286.622 54.7556 286.467 54.6778 286.389C54.6001 286.311 54.4445 286.311 54.2112 286.311C54.0556 286.311 53.9778 286.311 53.8223 286.389C53.6667 286.467 53.6667 286.544 53.589 286.7ZM54.7556 287.4C54.6778 287.4 54.4445 287.478 54.2112 287.556C53.9778 287.633 53.8223 287.633 53.7445 287.711C53.6667 287.789 53.589 287.867 53.589 288.022C53.589 288.178 53.6667 288.256 53.7445 288.333C53.8223 288.411 53.9778 288.489 54.0556 288.489C54.2112 288.489 54.3667 288.411 54.5223 288.333C54.6001 288.256 54.6778 288.178 54.7556 288.022C54.7556 287.944 54.7556 287.789 54.7556 287.633V287.4Z" fill="black"/>
<path d="M59.1111 288.956H58.2555V287.322C58.2555 287.011 58.2555 286.778 58.1777 286.622C58.1 286.467 58.1 286.467 58.0222 286.389C57.9444 286.311 57.8666 286.311 57.7111 286.311C57.5555 286.311 57.4 286.389 57.3222 286.467C57.2444 286.544 57.0888 286.622 57.0888 286.778C57.0888 286.933 57.0111 287.167 57.0111 287.556V289.033H56.1555V285.844H56.9333V286.311C57.2444 285.922 57.5555 285.767 58.0222 285.767C58.1777 285.767 58.4111 285.767 58.5666 285.844C58.7222 285.922 58.8777 286 58.9555 286.078C59.0333 286.156 59.1111 286.311 59.1111 286.467C59.1111 286.622 59.1888 286.778 59.1888 287.011V288.956H59.1111Z" fill="black"/>
<path d="M62.6111 286.7L61.7555 286.856C61.7555 286.7 61.6777 286.544 61.6 286.467C61.5222 286.389 61.3666 286.311 61.2111 286.311C60.9777 286.311 60.8222 286.389 60.6666 286.544C60.5111 286.7 60.5111 286.933 60.5111 287.244C60.5111 287.633 60.5888 287.867 60.6666 288.022C60.7444 288.178 60.9777 288.256 61.2111 288.256C61.3666 288.256 61.5222 288.178 61.6 288.1C61.6777 288.022 61.7555 287.867 61.8333 287.633L62.6888 287.789C62.6111 288.178 62.4555 288.489 62.2222 288.644C61.9888 288.8 61.6777 288.956 61.2111 288.956C60.7444 288.956 60.3555 288.8 60.0444 288.489C59.7333 288.178 59.6555 287.789 59.6555 287.244C59.6555 286.7 59.8111 286.311 60.0444 286C60.2777 285.689 60.7444 285.533 61.2111 285.533C61.6 285.533 61.9111 285.611 62.1444 285.767C62.3777 285.922 62.5333 286.311 62.6111 286.7Z" fill="black"/>
<path d="M64.9445 287.944L65.8 288.1C65.7223 288.411 65.4889 288.644 65.2556 288.8C65.0223 288.956 64.7111 289.033 64.4 289.033C63.8556 289.033 63.3889 288.878 63.1556 288.489C62.9223 288.178 62.8445 287.789 62.8445 287.4C62.8445 286.856 63 286.467 63.2334 286.156C63.4667 285.844 63.8556 285.689 64.3223 285.689C64.7889 285.689 65.1778 285.844 65.4889 286.156C65.8 286.467 65.8778 286.933 65.8778 287.633H63.7C63.7 287.867 63.7778 288.1 63.9334 288.256C64.0889 288.411 64.2445 288.489 64.4 288.489C64.5556 288.489 64.6334 288.489 64.7112 288.411C64.7889 288.333 64.9445 288.1 64.9445 287.944ZM65.0223 287.089C65.0223 286.856 64.9445 286.622 64.8667 286.544C64.7889 286.467 64.6334 286.389 64.4 286.389C64.2445 286.389 64.0889 286.467 63.9334 286.622C63.7778 286.778 63.7778 286.933 63.7778 287.167H65.0223V287.089Z" fill="black"/>
<path d="M69.3001 288.956H68.5223V288.489C68.3667 288.644 68.2112 288.8 68.0556 288.878C67.9001 288.956 67.6667 289.033 67.5112 289.033C67.1223 289.033 66.8112 288.878 66.5779 288.567C66.3445 288.256 66.189 287.867 66.189 287.322C66.189 286.778 66.3445 286.389 66.5779 286.078C66.8112 285.767 67.1223 285.689 67.589 285.689C67.9779 285.689 68.289 285.844 68.5223 286.156V284.522H69.3779V288.956H69.3001ZM67.0445 287.244C67.0445 287.556 67.1223 287.867 67.2001 288.022C67.3556 288.256 67.5112 288.333 67.7445 288.333C67.9779 288.333 68.1334 288.256 68.2112 288.1C68.289 287.944 68.4445 287.711 68.4445 287.322C68.4445 286.933 68.3667 286.7 68.2112 286.544C68.0556 286.389 67.9001 286.311 67.6667 286.311C67.4334 286.311 67.2779 286.389 67.1223 286.544C66.9667 286.7 67.0445 286.933 67.0445 287.244Z" fill="black"/>
<path d="M71.5557 288.956V284.522H72.8779L73.6557 287.556L74.4334 284.522H75.7557V288.956H74.9001V285.456L74.0446 288.956H73.189L72.3334 285.456V288.956H71.5557Z" fill="black"/>
<path d="M78.4 287.944L79.2556 288.1C79.1778 288.411 78.9445 288.644 78.7112 288.8C78.4778 288.956 78.1667 289.033 77.8556 289.033C77.3112 289.033 76.8445 288.878 76.6112 288.489C76.3778 288.178 76.3 287.789 76.3 287.4C76.3 286.856 76.4556 286.467 76.6889 286.156C76.9223 285.844 77.3112 285.689 77.7778 285.689C78.2445 285.689 78.6334 285.844 78.9445 286.156C79.2556 286.467 79.3334 286.933 79.3334 287.633H77.1556C77.1556 287.867 77.2334 288.1 77.3889 288.256C77.5445 288.411 77.7 288.489 77.8556 288.489C78.0112 288.489 78.0889 288.489 78.1667 288.411C78.2445 288.333 78.3223 288.1 78.4 287.944ZM78.4778 287.089C78.4778 286.856 78.4001 286.622 78.3223 286.544C78.2445 286.467 78.0889 286.389 77.8556 286.389C77.7 286.389 77.5445 286.467 77.3889 286.622C77.2334 286.778 77.2334 286.933 77.2334 287.167H78.4778V287.089Z" fill="black"/>
<path d="M79.4888 288.022L80.3443 287.867C80.3443 288.022 80.4221 288.178 80.5777 288.256C80.7332 288.333 80.811 288.411 81.0443 288.411C81.2777 288.411 81.4332 288.333 81.511 288.256C81.5888 288.178 81.5888 288.1 81.5888 288.022C81.5888 287.944 81.5888 287.867 81.511 287.867C81.4332 287.789 81.3554 287.789 81.1999 287.789C80.4999 287.633 80.111 287.478 79.8777 287.4C79.6443 287.244 79.4888 287.011 79.4888 286.7C79.4888 286.389 79.5665 286.156 79.7999 286C80.0332 285.844 80.3443 285.689 80.811 285.689C81.2777 285.689 81.5888 285.767 81.8221 285.922C82.0554 286.078 82.211 286.311 82.2888 286.544L81.511 286.7C81.511 286.544 81.4332 286.467 81.2777 286.389C81.1221 286.311 81.0443 286.311 80.8888 286.311C80.6554 286.311 80.4999 286.311 80.4221 286.389C80.3443 286.467 80.3443 286.467 80.3443 286.544C80.3443 286.622 80.3443 286.622 80.4221 286.7C80.4999 286.778 80.7332 286.856 81.1999 286.933C81.6665 287.011 81.9777 287.167 82.1332 287.322C82.2888 287.478 82.3665 287.711 82.3665 287.944C82.3665 288.256 82.211 288.489 81.9777 288.722C81.7443 288.956 81.3554 289.033 80.8888 289.033C80.4221 289.033 80.111 288.956 79.8777 288.8C79.6443 288.644 79.5665 288.333 79.4888 288.022Z" fill="black"/>
<path d="M82.7556 288.022L83.6112 287.867C83.6112 288.022 83.6889 288.178 83.8445 288.256C84.0001 288.333 84.0778 288.411 84.3112 288.411C84.5445 288.411 84.7001 288.333 84.7778 288.256C84.8556 288.178 84.8556 288.1 84.8556 288.022C84.8556 287.944 84.8556 287.867 84.7778 287.867C84.7001 287.789 84.6223 287.789 84.4667 287.789C83.7667 287.633 83.3778 287.478 83.1445 287.4C82.9112 287.244 82.7556 287.011 82.7556 286.7C82.7556 286.389 82.8334 286.156 83.0667 286C83.3001 285.844 83.6112 285.689 84.0778 285.689C84.5445 285.689 84.8556 285.767 85.0889 285.922C85.3223 286.078 85.4778 286.311 85.5556 286.544L84.7778 286.7C84.7778 286.544 84.7001 286.467 84.5445 286.389C84.389 286.311 84.3112 286.311 84.1556 286.311C83.9223 286.311 83.7667 286.311 83.6889 286.389C83.6112 286.467 83.6112 286.467 83.6112 286.544C83.6112 286.622 83.6112 286.622 83.6889 286.7C83.7667 286.778 84.0001 286.856 84.4667 286.933C84.9334 287.011 85.2445 287.167 85.4001 287.322C85.5556 287.478 85.6334 287.711 85.6334 287.944C85.6334 288.256 85.4778 288.489 85.2445 288.722C85.0112 288.956 84.6223 289.033 84.1556 289.033C83.689 289.033 83.3778 288.956 83.1445 288.8C82.9112 288.644 82.8334 288.333 82.7556 288.022Z" fill="black"/>
<path d="M86.9556 286.7L86.1779 286.544C86.2556 286.233 86.4112 286 86.6445 285.844C86.8779 285.689 87.189 285.611 87.5779 285.611C87.9668 285.611 88.2779 285.689 88.4334 285.767C88.589 285.844 88.7445 286 88.8223 286.078C88.9001 286.156 88.9001 286.467 88.9001 286.856V287.867C88.9001 288.178 88.9001 288.333 88.9779 288.489C89.0557 288.644 89.0556 288.8 89.1334 288.956H88.2779C88.2779 288.878 88.2001 288.8 88.2001 288.722C88.2001 288.644 88.2001 288.644 88.2001 288.644C88.0445 288.8 87.889 288.878 87.7334 288.956C87.5779 289.033 87.4223 289.033 87.189 289.033C86.8779 289.033 86.5668 288.956 86.4112 288.8C86.2556 288.644 86.1001 288.411 86.1001 288.1C86.1001 287.944 86.1779 287.789 86.2557 287.633C86.3334 287.478 86.489 287.4 86.6445 287.322C86.8001 287.244 87.0334 287.167 87.3445 287.089C87.7334 287.011 88.0445 286.933 88.2001 286.856V286.778C88.2001 286.622 88.1223 286.467 88.0445 286.389C87.9668 286.311 87.8112 286.311 87.5779 286.311C87.4223 286.311 87.3445 286.311 87.189 286.389C87.0334 286.467 87.0334 286.544 86.9556 286.7ZM88.1223 287.4C88.0445 287.4 87.8112 287.478 87.5779 287.556C87.3445 287.633 87.189 287.633 87.1112 287.711C87.0334 287.789 86.9556 287.867 86.9556 288.022C86.9556 288.178 87.0334 288.256 87.1112 288.333C87.189 288.411 87.3445 288.489 87.4223 288.489C87.5779 288.489 87.7334 288.411 87.889 288.333C87.9668 288.256 88.0445 288.178 88.1223 288.022C88.1223 287.944 88.1223 287.789 88.1223 287.633V287.4V287.4Z" fill="black"/>
<path d="M89.5224 289.189L90.5335 289.344C90.5335 289.422 90.6112 289.5 90.6112 289.578C90.689 289.656 90.8446 289.656 91.0001 289.656C91.2335 289.656 91.389 289.656 91.4668 289.578C91.5446 289.5 91.6223 289.5 91.6223 289.344C91.6223 289.267 91.7001 289.111 91.7001 288.956V288.489C91.4668 288.8 91.1557 289.033 90.7668 289.033C90.3001 289.033 89.989 288.878 89.7557 288.489C89.5224 288.178 89.4446 287.867 89.4446 287.4C89.4446 286.856 89.6001 286.467 89.8335 286.156C90.0668 285.844 90.4557 285.689 90.7668 285.689C91.1557 285.689 91.4668 285.844 91.7779 286.233V285.767H92.5557V288.644C92.5557 289.033 92.5557 289.344 92.4779 289.5C92.4001 289.656 92.3224 289.811 92.2446 289.967C92.1668 290.122 92.0112 290.122 91.7779 290.2C91.5446 290.278 91.3112 290.278 91.0779 290.278C90.5335 290.278 90.1446 290.2 89.9112 289.967C89.6779 289.733 89.6001 289.578 89.6001 289.267C89.5224 289.267 89.5224 289.189 89.5224 289.189ZM90.3001 287.244C90.3001 287.556 90.3779 287.867 90.5335 288.022C90.689 288.178 90.8446 288.256 91.0001 288.256C91.2335 288.256 91.389 288.178 91.5446 288.022C91.7001 287.867 91.7779 287.633 91.7779 287.322C91.7779 287.011 91.7001 286.778 91.5446 286.544C91.389 286.311 91.2335 286.311 91.0001 286.311C90.7668 286.311 90.6112 286.389 90.4557 286.544C90.3001 286.7 90.3001 286.933 90.3001 287.244Z" fill="black"/>
<path d="M95.1222 287.944L95.9778 288.1C95.9 288.411 95.6667 288.644 95.4333 288.8C95.2 288.956 94.8889 289.033 94.5778 289.033C94.0333 289.033 93.5667 288.878 93.3333 288.489C93.1 288.178 93.0222 287.789 93.0222 287.4C93.0222 286.856 93.1778 286.467 93.4111 286.156C93.6444 285.844 94.0333 285.689 94.5 285.689C94.9667 285.689 95.3556 285.844 95.6667 286.156C95.9778 286.467 96.0556 286.933 96.0556 287.633H93.8778C93.8778 287.867 93.9556 288.1 94.1111 288.256C94.2667 288.411 94.4222 288.489 94.5778 288.489C94.7333 288.489 94.8111 288.489 94.8889 288.411C94.9667 288.333 95.0444 288.1 95.1222 287.944ZM95.1222 287.089C95.1222 286.856 95.0444 286.622 94.9667 286.544C94.8889 286.467 94.7333 286.389 94.5 286.389C94.3444 286.389 94.1889 286.467 94.0333 286.622C93.8778 286.778 93.8778 286.933 93.8778 287.167H95.1222V287.089Z" fill="black"/>
<path d="M101.656 288.411C101.889 288.567 102.122 288.722 102.356 288.8L102.045 289.422C101.889 289.344 101.811 289.344 101.656 289.267C101.656 289.267 101.422 289.111 101.033 288.878C100.722 289.033 100.411 289.033 100.1 289.033C99.4001 289.033 98.8557 288.8 98.4668 288.411C98.0779 288.022 97.9224 287.478 97.9224 286.7C97.9224 286 98.0779 285.378 98.5446 284.989C99.0113 284.6 99.4779 284.367 100.1 284.367C100.722 284.367 101.267 284.6 101.656 284.989C102.045 285.378 102.2 285.922 102.2 286.7C102.2 287.089 102.122 287.4 102.045 287.711C101.967 287.944 101.811 288.178 101.656 288.411ZM100.956 287.867C101.033 287.711 101.189 287.556 101.189 287.4C101.189 287.244 101.267 287.011 101.267 286.7C101.267 286.156 101.189 285.767 100.956 285.533C100.722 285.3 100.411 285.144 100.1 285.144C99.789 285.144 99.4001 285.3 99.2446 285.533C99.089 285.767 98.9335 286.156 98.9335 286.7C98.9335 287.244 99.0112 287.633 99.2446 287.867C99.4779 288.1 99.789 288.256 100.1 288.256C100.256 288.256 100.333 288.256 100.489 288.178C100.333 288.022 100.1 287.944 99.9446 287.867L100.178 287.322C100.333 287.556 100.645 287.633 100.956 287.867Z" fill="black"/>
<path d="M104.845 288.956V288.489C104.689 288.644 104.611 288.8 104.378 288.878C104.145 288.956 103.989 289.033 103.756 289.033C103.522 289.033 103.367 288.956 103.133 288.878C102.9 288.8 102.822 288.644 102.745 288.489C102.667 288.333 102.667 288.1 102.667 287.789V285.767H103.522V287.244C103.522 287.711 103.522 287.944 103.6 288.1C103.678 288.256 103.678 288.256 103.756 288.333C103.833 288.411 103.911 288.411 104.067 288.411C104.222 288.411 104.378 288.333 104.456 288.256C104.533 288.178 104.611 288.1 104.689 287.944C104.767 287.789 104.767 287.556 104.767 287.089V285.689H105.622V288.878H104.845V288.956Z" fill="black"/>
<path d="M108.189 287.944L109.044 288.1C108.967 288.411 108.733 288.644 108.5 288.8C108.267 288.956 107.956 289.033 107.644 289.033C107.1 289.033 106.633 288.878 106.4 288.489C106.167 288.178 106.089 287.789 106.089 287.4C106.089 286.856 106.244 286.467 106.478 286.156C106.711 285.844 107.1 285.689 107.567 285.689C108.033 285.689 108.422 285.844 108.733 286.156C109.044 286.467 109.122 286.933 109.122 287.633H106.944C106.944 287.867 107.022 288.1 107.178 288.256C107.333 288.411 107.489 288.489 107.644 288.489C107.8 288.489 107.878 288.489 107.956 288.411C108.033 288.333 108.111 288.1 108.189 287.944ZM108.267 287.089C108.267 286.856 108.189 286.622 108.111 286.544C108.033 286.467 107.878 286.389 107.644 286.389C107.489 286.389 107.333 286.467 107.178 286.622C107.022 286.778 107.022 286.933 107.022 287.167H108.267V287.089Z" fill="black"/>
<path d="M111.689 288.956V288.489C111.533 288.644 111.456 288.8 111.222 288.878C110.989 288.956 110.833 289.033 110.6 289.033C110.367 289.033 110.211 288.956 109.978 288.878C109.745 288.8 109.667 288.644 109.589 288.489C109.511 288.333 109.511 288.1 109.511 287.789V285.767H110.367V287.244C110.367 287.711 110.367 287.944 110.445 288.1C110.522 288.256 110.522 288.256 110.6 288.333C110.678 288.411 110.756 288.411 110.911 288.411C111.067 288.411 111.222 288.333 111.3 288.256C111.378 288.178 111.456 288.1 111.533 287.944C111.611 287.789 111.611 287.556 111.611 287.089V285.689H112.467V288.878H111.689V288.956Z" fill="black"/>
<path d="M113.244 285.3V284.522H114.1V285.3H113.244ZM113.244 288.956V285.767H114.1V288.956H113.244Z" fill="black"/>
<path d="M117.678 288.956H116.822V287.322C116.822 287.011 116.822 286.778 116.744 286.622C116.667 286.467 116.667 286.467 116.589 286.389C116.511 286.311 116.433 286.311 116.278 286.311C116.122 286.311 115.967 286.389 115.889 286.467C115.811 286.544 115.655 286.622 115.655 286.778C115.655 286.933 115.578 287.167 115.578 287.556V289.033H114.722V285.844H115.5V286.311C115.811 285.922 116.122 285.767 116.589 285.767C116.744 285.767 116.978 285.767 117.133 285.844C117.289 285.922 117.444 286 117.522 286.078C117.6 286.156 117.678 286.311 117.678 286.467C117.678 286.622 117.755 286.778 117.755 287.011V288.956H117.678Z" fill="black"/>
<path d="M118.3 289.189L119.311 289.344C119.311 289.422 119.389 289.5 119.389 289.578C119.467 289.656 119.622 289.656 119.778 289.656C120.011 289.656 120.167 289.656 120.244 289.578C120.322 289.5 120.4 289.5 120.4 289.344C120.4 289.267 120.478 289.111 120.478 288.956V288.489C120.244 288.8 119.933 289.033 119.544 289.033C119.078 289.033 118.767 288.878 118.533 288.489C118.3 288.178 118.222 287.867 118.222 287.4C118.222 286.856 118.378 286.467 118.611 286.156C118.844 285.844 119.233 285.689 119.544 285.689C119.933 285.689 120.244 285.844 120.556 286.233V285.767H121.333V288.644C121.333 289.033 121.333 289.344 121.255 289.5C121.178 289.656 121.1 289.811 121.022 289.967C120.944 290.122 120.789 290.122 120.556 290.2C120.322 290.278 120.089 290.278 119.855 290.278C119.311 290.278 118.922 290.2 118.689 289.967C118.455 289.733 118.378 289.578 118.378 289.267C118.3 289.267 118.3 289.189 118.3 289.189ZM119.078 287.244C119.078 287.556 119.155 287.867 119.311 288.022C119.467 288.178 119.622 288.256 119.778 288.256C120.011 288.256 120.167 288.178 120.322 288.022C120.478 287.867 120.556 287.633 120.556 287.322C120.556 287.011 120.478 286.778 120.322 286.544C120.167 286.311 120.011 286.311 119.778 286.311C119.544 286.311 119.389 286.389 119.233 286.544C119.078 286.7 119.078 286.933 119.078 287.244Z" fill="black"/>
<path d="M123.511 288.956V284.522H124.989C125.533 284.522 125.922 284.522 126.078 284.6C126.311 284.678 126.545 284.833 126.7 285.067C126.856 285.3 126.933 285.611 126.933 285.922C126.933 286.233 126.856 286.389 126.778 286.622C126.7 286.856 126.545 286.933 126.389 287.089C126.233 287.244 126.078 287.244 125.922 287.322C125.689 287.4 125.378 287.4 124.989 287.4H124.367V289.111H123.511V288.956ZM124.445 285.222V286.467H124.911C125.3 286.467 125.533 286.467 125.611 286.389C125.689 286.311 125.845 286.233 125.922 286.156C126 286.078 126 285.922 126 285.844C126 285.689 125.922 285.533 125.845 285.456C125.767 285.378 125.611 285.3 125.456 285.222C125.378 285.222 125.145 285.222 124.833 285.222H124.445Z" fill="black"/>
<path d="M128.333 288.956H127.478V285.767H128.256V286.233C128.411 286 128.489 285.844 128.644 285.767C128.8 285.689 128.878 285.689 129.033 285.689C129.189 285.689 129.422 285.767 129.578 285.844L129.344 286.622C129.189 286.544 129.033 286.467 128.956 286.467C128.8 286.467 128.722 286.467 128.644 286.544C128.567 286.622 128.489 286.7 128.411 286.933C128.333 287.167 128.333 287.478 128.333 288.022V288.956V288.956Z" fill="black"/>
<path d="M129.5 287.322C129.5 287.011 129.578 286.778 129.733 286.467C129.889 286.156 130.044 286 130.356 285.844C130.667 285.689 130.9 285.611 131.211 285.611C131.678 285.611 132.067 285.767 132.378 286.078C132.689 286.389 132.844 286.778 132.844 287.244C132.844 287.711 132.689 288.1 132.378 288.489C132.067 288.878 131.678 288.956 131.211 288.956C130.9 288.956 130.667 288.878 130.356 288.722C130.044 288.567 129.889 288.411 129.733 288.1C129.578 287.789 129.5 287.633 129.5 287.322ZM130.433 287.322C130.433 287.633 130.511 287.867 130.667 288.022C130.822 288.178 130.978 288.256 131.211 288.256C131.444 288.256 131.6 288.178 131.756 288.022C131.911 287.867 131.989 287.633 131.989 287.244C131.989 286.933 131.911 286.7 131.756 286.544C131.6 286.389 131.444 286.311 131.211 286.311C130.978 286.311 130.822 286.389 130.667 286.544C130.511 286.7 130.433 287.011 130.433 287.322Z" fill="black"/>
<path d="M134.789 285.689V286.389H134.167V287.711C134.167 287.944 134.167 288.1 134.167 288.178C134.167 288.256 134.167 288.256 134.244 288.256C134.322 288.256 134.322 288.333 134.4 288.333C134.478 288.333 134.555 288.333 134.711 288.256L134.789 288.956C134.555 289.033 134.4 289.111 134.089 289.111C133.933 289.111 133.778 289.111 133.7 289.033C133.622 288.956 133.467 288.878 133.467 288.8C133.467 288.722 133.389 288.644 133.311 288.489C133.311 288.411 133.311 288.178 133.311 287.867V286.467H132.922V285.767H133.311V285.144L134.167 284.678V285.844H134.789V285.689Z" fill="black"/>
<path d="M135.022 287.322C135.022 287.011 135.1 286.778 135.256 286.467C135.411 286.156 135.567 286 135.878 285.844C136.189 285.689 136.422 285.611 136.733 285.611C137.2 285.611 137.589 285.767 137.9 286.078C138.211 286.389 138.367 286.778 138.367 287.244C138.367 287.711 138.211 288.1 137.9 288.489C137.589 288.878 137.2 288.956 136.733 288.956C136.422 288.956 136.189 288.878 135.878 288.722C135.567 288.567 135.411 288.411 135.256 288.1C135.1 287.789 135.022 287.633 135.022 287.322ZM135.878 287.322C135.878 287.633 135.956 287.867 136.111 288.022C136.267 288.178 136.422 288.256 136.656 288.256C136.889 288.256 137.044 288.178 137.2 288.022C137.356 287.867 137.433 287.633 137.433 287.244C137.433 286.933 137.356 286.7 137.2 286.544C137.044 286.389 136.889 286.311 136.656 286.311C136.422 286.311 136.267 286.389 136.111 286.544C135.956 286.7 135.878 287.011 135.878 287.322Z" fill="black"/>
<path d="M141.633 286.7L140.778 286.856C140.778 286.7 140.7 286.544 140.622 286.467C140.544 286.389 140.389 286.311 140.233 286.311C140 286.311 139.844 286.389 139.689 286.544C139.533 286.7 139.533 286.933 139.533 287.244C139.533 287.633 139.611 287.867 139.689 288.022C139.767 288.178 140 288.256 140.233 288.256C140.389 288.256 140.544 288.178 140.622 288.1C140.7 288.022 140.778 287.867 140.856 287.633L141.711 287.789C141.633 288.178 141.478 288.489 141.244 288.644C141.011 288.8 140.7 288.956 140.233 288.956C139.767 288.956 139.378 288.8 139.067 288.489C138.756 288.178 138.678 287.789 138.678 287.244C138.678 286.7 138.833 286.311 139.067 286C139.3 285.689 139.767 285.533 140.233 285.533C140.622 285.533 140.933 285.611 141.167 285.767C141.4 285.922 141.556 286.311 141.633 286.7Z" fill="black"/>
<path d="M141.945 287.322C141.945 287.011 142.022 286.778 142.178 286.467C142.333 286.156 142.489 286 142.8 285.844C143.111 285.689 143.345 285.611 143.656 285.611C144.122 285.611 144.511 285.767 144.822 286.078C145.133 286.389 145.289 286.778 145.289 287.244C145.289 287.711 145.133 288.1 144.822 288.489C144.511 288.878 144.122 288.956 143.656 288.956C143.345 288.956 143.111 288.878 142.8 288.722C142.489 288.567 142.333 288.411 142.178 288.1C142.022 287.789 141.945 287.633 141.945 287.322ZM142.8 287.322C142.8 287.633 142.878 287.867 143.033 288.022C143.189 288.178 143.345 288.256 143.578 288.256C143.811 288.256 143.967 288.178 144.122 288.022C144.278 287.867 144.356 287.633 144.356 287.244C144.356 286.933 144.278 286.7 144.122 286.544C143.967 286.389 143.811 286.311 143.578 286.311C143.345 286.311 143.189 286.389 143.033 286.544C142.878 286.7 142.8 287.011 142.8 287.322Z" fill="black"/>
<path d="M145.756 288.956V284.522H146.611V288.956H145.756Z" fill="black"/>
<g clip-path="url(#clip2)">
<path d="M364.346 122.506L361.015 111.153C361.015 111.152 361.015 111.151 361.015 111.151L359.826 107.099C359.826 107.099 359.826 107.099 359.826 107.098L358.184 101.5C358.183 101.499 358.183 101.498 358.183 101.497L355.57 92.5898C356.72 92.1624 357.542 91.0539 357.542 89.7568C357.542 88.091 356.187 86.7358 354.521 86.7358C352.855 86.7358 351.5 88.0911 351.5 89.7568C351.5 91.0539 352.322 92.1625 353.472 92.5898L348.027 111.151C348.027 111.151 348.026 111.152 348.026 111.153L344.696 122.506C344.567 122.944 344.818 123.403 345.256 123.532C345.695 123.661 346.154 123.41 346.282 122.971L346.789 121.245L354.521 116.138L362.253 121.245L362.759 122.971C362.865 123.332 363.195 123.566 363.552 123.566C363.63 123.566 363.708 123.555 363.786 123.532C364.223 123.403 364.474 122.944 364.346 122.506ZM353.153 89.7567C353.153 89.0027 353.767 88.3892 354.521 88.3892C355.275 88.3892 355.888 89.0027 355.888 89.7567C355.888 90.5107 355.275 91.1241 354.521 91.1241C353.767 91.1241 353.153 90.5108 353.153 89.7567ZM354.521 94.8882L356.289 100.917H352.752L354.521 94.8882ZM352.267 102.571H356.774L357.932 106.518H351.109L352.267 102.571ZM347.51 118.787L349.299 112.689L353.021 115.147L347.51 118.787ZM349.786 111.028L350.624 108.171H358.417L359.256 111.028L354.521 114.156L349.786 111.028ZM356.021 115.147L359.743 112.689L361.532 118.787L356.021 115.147Z" fill="black"/>
<path d="M350.59 85.8263C350.913 85.5034 350.913 84.9799 350.59 84.6571C350.267 84.3342 349.744 84.3342 349.421 84.6571C346.609 87.469 346.609 92.0444 349.421 94.8564C349.582 95.0178 349.794 95.0986 350.006 95.0986C350.217 95.0986 350.429 95.0177 350.59 94.8564C350.913 94.5335 350.913 94.01 350.59 93.6872C348.423 91.5199 348.423 87.9935 350.59 85.8263Z" fill="#188ADC"/>
<path d="M359.62 84.6571C359.298 84.3342 358.774 84.3342 358.451 84.6571C358.128 84.98 358.128 85.5036 358.451 85.8264C360.618 87.9936 360.618 91.52 358.451 93.6872C358.128 94.01 358.128 94.5336 358.451 94.8564C358.613 95.0178 358.824 95.0985 359.036 95.0985C359.248 95.0985 359.459 95.0177 359.621 94.8564C362.432 92.0444 362.432 87.469 359.62 84.6571Z" fill="#188ADC"/>
<path d="M347.61 82.8457C347.933 82.5228 347.933 81.9993 347.61 81.6765C347.287 81.3536 346.763 81.3536 346.44 81.6765C344.282 83.8348 343.094 86.7044 343.094 89.7568C343.094 92.8091 344.282 95.6787 346.44 97.837C346.602 97.9984 346.813 98.0792 347.025 98.0792C347.237 98.0792 347.448 97.9984 347.61 97.837C347.933 97.5141 347.933 96.9906 347.61 96.6678C343.799 92.8569 343.799 86.6565 347.61 82.8457Z" fill="#188ADC"/>
<path d="M364.257 83.7697C364.017 83.3809 363.508 83.2598 363.119 83.4993C362.73 83.7388 362.609 84.2481 362.849 84.6368C365.231 88.5038 364.648 93.4511 361.432 96.6676C361.109 96.9905 361.109 97.514 361.432 97.8369C361.593 97.9984 361.805 98.0791 362.016 98.0791C362.228 98.0791 362.439 97.9984 362.601 97.8369C364.43 96.0082 365.593 93.5883 365.878 91.023C366.158 88.4974 365.582 85.9214 364.257 83.7697Z" fill="#188ADC"/>
<path d="M362.016 81.4343C360.952 81.4343 360.95 83.0879 362.016 83.0879C363.08 83.0879 363.082 81.4343 362.016 81.4343Z" fill="#1889DC"/>
<line x1="0.5" y1="-0.5" x2="5.37879" y2="-0.5" transform="matrix(0.906308 -0.422619 0.422618 0.906308 345.488 123.828)" stroke="black" stroke-linecap="round" stroke-linejoin="round"/>
<line x1="363.828" y1="123.096" x2="367.278" y2="119.646" stroke="black" stroke-linecap="round" stroke-linejoin="round"/>
</g>
<path d="M330.515 113.536C330.217 116.69 329.052 119.153 327.019 120.926C324.987 122.686 322.284 123.566 318.91 123.566C316.552 123.566 314.473 123.011 312.67 121.901C310.882 120.777 309.5 119.187 308.524 117.129C307.549 115.072 307.041 112.683 307 109.962V107.201C307 104.413 307.495 101.956 308.484 99.8311C309.473 97.706 310.889 96.0682 312.731 94.9177C314.588 93.7672 316.729 93.1919 319.154 93.1919C322.419 93.1919 325.048 94.0785 327.04 95.8516C329.031 97.6248 330.19 100.129 330.515 103.364H325.393C325.15 101.239 324.526 99.7093 323.524 98.7753C322.534 97.8278 321.078 97.3541 319.154 97.3541C316.918 97.3541 315.197 98.173 313.992 99.8108C312.799 101.435 312.189 103.824 312.162 106.978V109.597C312.162 112.791 312.731 115.228 313.87 116.906C315.021 118.584 316.701 119.424 318.91 119.424C320.929 119.424 322.446 118.97 323.463 118.063C324.479 117.157 325.122 115.647 325.393 113.536H330.515Z" fill="black"/>
<path d="M338.145 123.566C336.459 123.566 335.091 123.048 334.04 122.013C332.997 120.972 332.475 119.587 332.475 117.86V117.539C332.475 116.383 332.701 115.352 333.153 114.445C333.613 113.532 334.255 112.822 335.08 112.315C335.905 111.808 336.824 111.555 337.838 111.555C339.451 111.555 340.695 112.058 341.571 113.064C342.454 114.071 342.895 115.494 342.895 117.335V118.385H335.157C335.237 119.341 335.562 120.097 336.131 120.654C336.707 121.211 337.43 121.489 338.298 121.489C339.517 121.489 340.509 121.007 341.275 120.044L342.709 121.382C342.235 122.074 341.6 122.613 340.805 122.998C340.017 123.376 339.13 123.566 338.145 123.566ZM337.827 113.642C337.098 113.642 336.507 113.892 336.054 114.392C335.609 114.891 335.324 115.587 335.2 116.479H340.268V116.286C340.21 115.416 339.973 114.759 339.557 114.317C339.141 113.867 338.564 113.642 337.827 113.642ZM375.988 122.217C375.207 123.116 374.098 123.566 372.661 123.566C371.376 123.566 370.402 123.198 369.738 122.463C369.081 121.728 368.753 120.665 368.753 119.273V111.769H371.413V119.241C371.413 120.711 372.037 121.446 373.285 121.446C374.576 121.446 375.448 120.993 375.901 120.087V111.769H378.56V123.352H376.054L375.988 122.217ZM383.651 123.352H380.991V106.909H383.651V123.352ZM393.185 123.352C393.068 123.13 392.966 122.77 392.879 122.27C392.032 123.134 390.996 123.566 389.77 123.566C388.58 123.566 387.61 123.234 386.858 122.57C386.107 121.906 385.731 121.086 385.731 120.108C385.731 118.873 386.198 117.928 387.132 117.271C388.073 116.608 389.416 116.276 391.16 116.276H392.791V115.516C392.791 114.916 392.619 114.438 392.277 114.081C391.934 113.717 391.412 113.535 390.711 113.535C390.106 113.535 389.609 113.685 389.223 113.985C388.836 114.277 388.642 114.652 388.642 115.109H385.983C385.983 114.474 386.198 113.881 386.628 113.332C387.059 112.775 387.643 112.34 388.38 112.026C389.124 111.712 389.952 111.555 390.864 111.555C392.251 111.555 393.357 111.897 394.181 112.583C395.006 113.261 395.429 114.217 395.451 115.451V120.675C395.451 121.717 395.6 122.549 395.9 123.17V123.352H393.185ZM390.262 121.478C390.788 121.478 391.28 121.353 391.74 121.104C392.207 120.854 392.557 120.518 392.791 120.097V117.914H391.357C390.372 117.914 389.631 118.081 389.135 118.417C388.639 118.752 388.391 119.227 388.391 119.84C388.391 120.34 388.559 120.74 388.894 121.039C389.237 121.332 389.693 121.478 390.262 121.478ZM403.989 114.145C403.639 114.088 403.278 114.06 402.905 114.06C401.687 114.06 400.866 114.517 400.443 115.43V123.352H397.783V111.769H400.322L400.388 113.064C401.03 112.058 401.92 111.555 403.059 111.555C403.438 111.555 403.752 111.605 404 111.705L403.989 114.145Z" fill="black"/>
<path d="M217 253.963C217 252.327 218.327 251 219.963 251H253.549C255.185 251 256.512 252.327 256.512 253.963V287.549C256.512 289.185 255.185 290.512 253.549 290.512H219.963C218.327 290.512 217 289.185 217 287.549V253.963Z" fill="#C4C4C4"/>
<path fill-rule="evenodd" clip-rule="evenodd" d="M253.549 251.988H219.963C218.872 251.988 217.988 252.872 217.988 253.963V287.549C217.988 288.64 218.872 289.524 219.963 289.524H253.549C254.64 289.524 255.524 288.64 255.524 287.549V253.963C255.524 252.872 254.64 251.988 253.549 251.988ZM219.963 251C218.327 251 217 252.327 217 253.963V287.549C217 289.185 218.327 290.512 219.963 290.512H253.549C255.185 290.512 256.512 289.185 256.512 287.549V253.963C256.512 252.327 255.185 251 253.549 251H219.963Z" fill="#E3D7EB"/>
<path d="M275.068 289L267.313 259.648H267.132C267.162 260.347 267.207 261.395 267.268 262.793C267.328 264.191 267.388 265.693 267.448 267.301C267.508 268.873 267.538 270.306 267.538 271.599V289H261.451V251.577H270.739L278.359 280.195H278.495L286.565 251.577H295.854V289H289.496V271.284C289.496 270.096 289.511 268.733 289.541 267.196C289.601 265.658 289.646 264.208 289.676 262.846C289.737 261.448 289.782 260.4 289.812 259.701H289.631L281.335 289H275.068Z" fill="url(#paint3_linear)"/>
<path d="M330.326 270.236C330.326 274.115 329.769 277.504 328.657 280.404C327.575 283.27 325.907 285.506 323.653 287.113C321.398 288.721 316.537 289.524 313.02 289.524C309.533 289.524 304.672 288.721 302.387 287.113C300.133 285.506 298.45 283.252 297.337 280.352C296.255 277.452 295.714 274.062 295.714 270.184C295.714 266.305 296.255 262.933 297.337 260.068C298.45 257.202 300.133 254.983 302.387 253.411C304.672 251.804 309.548 251 313.065 251C316.552 251 321.398 251.804 323.653 253.411C325.907 254.983 327.575 257.22 328.657 260.12C329.769 262.985 330.326 266.357 330.326 270.236ZM302.883 270.236C302.883 274.15 303.53 277.242 304.822 279.513C306.115 281.75 310.164 282.868 313.02 282.868C315.936 282.868 320 281.75 321.263 279.513C322.525 277.242 323.157 274.15 323.157 270.236C323.157 266.287 322.525 263.195 321.263 260.959C320 258.722 315.951 257.604 313.065 257.604C310.179 257.604 306.115 258.722 304.822 260.959C303.53 263.195 302.883 266.287 302.883 270.236Z" fill="url(#paint4_linear)"/>
<path d="M343.175 289H336.367V258.181H327.62V251.577H351.923V258.181H343.175V289Z" fill="url(#paint5_linear)"/>
<path d="M367.289 289H360.481V258.181H351.734V251.577H379V258.181H367.289V289Z" fill="url(#paint6_linear)"/>
<path d="M315.015 275.322L313.039 279.767C314.85 280.59 318.867 282.731 320.448 284.706C322.028 286.682 327.691 290.139 330.326 291.621L333.067 286.561C331.091 285.738 327.362 283.323 325.387 281.743C323.411 280.162 317.649 276.804 315.015 275.322Z" fill="url(#paint7_linear)"/>
<path d="M370.122 260.878C370.491 260.878 370.748 260.982 370.893 261.19C371.045 261.398 371.122 261.651 371.122 261.95C371.122 262.241 371.045 262.491 370.893 262.698C370.748 262.906 370.491 263.01 370.122 263.01C369.768 263.01 369.511 262.906 369.351 262.698C369.198 262.491 369.122 262.241 369.122 261.95C369.122 261.651 369.198 261.398 369.351 261.19C369.511 260.982 369.768 260.878 370.122 260.878Z" fill="#3C0F51"/>
<path d="M373.591 272.054C372.7 272.054 371.921 271.9 371.254 271.592C370.596 271.293 370.082 270.832 369.712 270.208C369.343 269.585 369.158 268.787 369.158 267.815C369.158 266.85 369.343 266.052 369.712 265.421C370.082 264.797 370.6 264.332 371.266 264.024C371.933 263.725 372.712 263.575 373.603 263.575C374.495 263.575 375.27 263.725 375.928 264.024C376.587 264.332 377.097 264.797 377.458 265.421C377.827 266.052 378.012 266.854 378.012 267.827C378.012 268.791 377.827 269.585 377.458 270.208C377.097 270.832 376.583 271.293 375.916 271.592C375.258 271.9 374.483 272.054 373.591 272.054ZM373.591 265.558C372.692 265.558 371.981 265.737 371.459 266.094C370.945 266.451 370.688 267.025 370.688 267.815C370.688 268.621 370.945 269.198 371.459 269.548C371.981 269.897 372.692 270.071 373.591 270.071C374.499 270.071 375.209 269.897 375.723 269.548C376.237 269.198 376.494 268.625 376.494 267.827C376.494 267.029 376.237 266.451 375.723 266.094C375.209 265.737 374.499 265.558 373.591 265.558Z" fill="#3C0F51"/>
<path d="M377.88 276.241C377.88 277.455 377.667 278.348 377.241 278.922C376.816 279.504 376.169 279.795 375.302 279.795C374.908 279.795 374.563 279.716 374.266 279.558C373.977 279.408 373.728 279.205 373.519 278.947C373.318 278.698 373.153 278.427 373.025 278.137L369.279 280.755L369.279 278.66L372.579 276.541L372.579 275.531L369.279 275.531L369.279 273.648L377.88 273.648L377.88 276.241ZM376.386 276.104L376.386 275.531L374.061 275.531L374.061 276.142C374.061 276.765 374.161 277.21 374.362 277.476C374.563 277.75 374.86 277.887 375.254 277.887C375.663 277.887 375.952 277.742 376.121 277.451C376.298 277.168 376.386 276.719 376.386 276.104Z" fill="#3C0F51"/>
<path d="M374.109 285.008L374.109 288.537L369.652 288.537C369.499 288.071 369.379 287.585 369.291 287.078C369.202 286.579 369.158 286.01 369.158 285.37C369.158 284.04 369.536 283.018 370.29 282.303C371.045 281.588 372.146 281.23 373.591 281.23C374.491 281.23 375.27 281.409 375.928 281.767C376.587 282.132 377.097 282.66 377.458 283.35C377.819 284.04 378 284.884 378 285.881C378 286.355 377.952 286.82 377.856 287.277C377.759 287.734 377.631 288.15 377.47 288.524L376.013 287.901C376.149 287.626 376.261 287.315 376.35 286.966C376.438 286.617 376.482 286.251 376.482 285.868C376.482 285.32 376.362 284.842 376.121 284.435C375.88 284.036 375.539 283.724 375.097 283.5C374.663 283.284 374.149 283.175 373.555 283.175C372.993 283.175 372.495 283.254 372.061 283.412C371.628 283.57 371.286 283.82 371.037 284.16C370.796 284.501 370.676 284.946 370.676 285.494C370.676 285.76 370.688 285.985 370.712 286.168C370.736 286.359 370.764 286.533 370.796 286.691L372.591 286.691L372.591 285.008L374.109 285.008Z" fill="#3C0F51"/>
<mask id="mask0" mask-type="alpha" maskUnits="userSpaceOnUse" x="217" y="251" width="40" height="40">
<path d="M217 253.963C217 252.327 218.327 251 219.963 251H253.549C255.185 251 256.512 252.327 256.512 253.963V287.549C256.512 289.185 255.185 290.512 253.549 290.512H219.963C218.327 290.512 217 289.185 217 287.549V253.963Z" fill="#C4C4C4"/>
</mask>
<g mask="url(#mask0)">
<path d="M273.305 289.524C273.305 320.075 248.539 344.841 217.988 344.841C187.437 344.841 162.671 320.075 162.671 289.524C162.671 258.974 187.437 234.207 217.988 234.207C248.539 234.207 273.305 258.974 273.305 289.524Z" fill="#B3B0D4"/>
<path fill-rule="evenodd" clip-rule="evenodd" d="M217.988 343.854C247.993 343.854 272.317 319.53 272.317 289.524C272.317 259.519 247.993 235.195 217.988 235.195C187.983 235.195 163.658 259.519 163.658 289.524C163.658 319.53 187.983 343.854 217.988 343.854ZM217.988 344.841C248.539 344.841 273.305 320.075 273.305 289.524C273.305 258.974 248.539 234.207 217.988 234.207C187.437 234.207 162.671 258.974 162.671 289.524C162.671 320.075 187.437 344.841 217.988 344.841Z" fill="#8381B1"/>
<path d="M268.366 289.524C268.366 317.347 245.811 339.902 217.988 339.902C190.165 339.902 167.61 317.347 167.61 289.524C167.61 261.701 190.165 239.146 217.988 239.146C245.811 239.146 268.366 261.701 268.366 289.524Z" fill="#B3B0D4"/>
<path fill-rule="evenodd" clip-rule="evenodd" d="M217.988 338.915C245.265 338.915 267.378 316.802 267.378 289.524C267.378 262.247 245.265 240.134 217.988 240.134C190.71 240.134 168.598 262.247 168.598 289.524C168.598 316.802 190.71 338.915 217.988 338.915ZM217.988 339.902C245.811 339.902 268.366 317.347 268.366 289.524C268.366 261.701 245.811 239.146 217.988 239.146C190.165 239.146 167.61 261.701 167.61 289.524C167.61 317.347 190.165 339.902 217.988 339.902Z" fill="#8381B1"/>
<path d="M258.488 289.524C258.488 311.892 240.355 330.024 217.988 330.024C195.62 330.024 177.488 311.892 177.488 289.524C177.488 267.157 195.62 249.024 217.988 249.024C240.355 249.024 258.488 267.157 258.488 289.524Z" fill="#B3B0D4"/>
<path fill-rule="evenodd" clip-rule="evenodd" d="M217.988 329.037C239.81 329.037 257.5 311.346 257.5 289.524C257.5 267.702 239.81 250.012 217.988 250.012C196.166 250.012 178.476 267.702 178.476 289.524C178.476 311.346 196.166 329.037 217.988 329.037ZM217.988 330.024C240.355 330.024 258.488 311.892 258.488 289.524C258.488 267.157 240.355 249.024 217.988 249.024C195.62 249.024 177.488 267.157 177.488 289.524C177.488 311.892 195.62 330.024 217.988 330.024Z" fill="#8381B1"/>
<path d="M248.61 289.524C248.61 306.436 234.9 320.146 217.988 320.146C201.076 320.146 187.366 306.436 187.366 289.524C187.366 272.612 201.076 258.902 217.988 258.902C234.9 258.902 248.61 272.612 248.61 289.524Z" fill="#B3B0D4"/>
<path fill-rule="evenodd" clip-rule="evenodd" d="M217.988 319.159C234.354 319.159 247.622 305.891 247.622 289.524C247.622 273.158 234.354 259.89 217.988 259.89C201.621 259.89 188.354 273.158 188.354 289.524C188.354 305.891 201.621 319.159 217.988 319.159ZM217.988 320.146C234.9 320.146 248.61 306.436 248.61 289.524C248.61 272.612 234.9 258.902 217.988 258.902C201.076 258.902 187.366 272.612 187.366 289.524C187.366 306.436 201.076 320.146 217.988 320.146Z" fill="#8381B1"/>
<path d="M238.732 289.524C238.732 300.981 229.444 310.268 217.988 310.268C206.531 310.268 197.244 300.981 197.244 289.524C197.244 278.068 206.531 268.78 217.988 268.78C229.444 268.78 238.732 278.068 238.732 289.524Z" fill="url(#paint8_radial)"/>
</g>
<defs>
<linearGradient id="paint0_linear" x1="57922.1" y1="40.0068" x2="57922.1" y2="0.947991" gradientUnits="userSpaceOnUse">
<stop stop-color="#78C3ED"/>
<stop offset="0.004" stop-color="#77C3ED"/>
<stop offset="0.008" stop-color="#76C3ED"/>
<stop offset="0.012" stop-color="#75C2ED"/>
<stop offset="0.016" stop-color="#74C2EC"/>
<stop offset="0.02" stop-color="#72C1EC"/>
<stop offset="0.023" stop-color="#71C1EC"/>
<stop offset="0.027" stop-color="#70C1EC"/>
<stop offset="0.031" stop-color="#6FC0EB"/>
<stop offset="0.035" stop-color="#6EC0EB"/>
<stop offset="0.039" stop-color="#6DC0EB"/>
<stop offset="0.043" stop-color="#6CC0EB"/>
<stop offset="0.047" stop-color="#6BBFEB"/>
<stop offset="0.051" stop-color="#6ABFEB"/>
<stop offset="0.055" stop-color="#69BFEB"/>
<stop offset="0.059" stop-color="#68BEEB"/>
<stop offset="0.063" stop-color="#67BEEA"/>
<stop offset="0.066" stop-color="#66BDEA"/>
<stop offset="0.07" stop-color="#65BDEA"/>
<stop offset="0.074" stop-color="#64BDEA"/>
<stop offset="0.078" stop-color="#63BCEA"/>
<stop offset="0.082" stop-color="#62BCEA"/>
<stop offset="0.086" stop-color="#61BCEA"/>
<stop offset="0.09" stop-color="#60BBE9"/>
<stop offset="0.094" stop-color="#5FBAE9"/>
<stop offset="0.098" stop-color="#5EBAE9"/>
<stop offset="0.102" stop-color="#5DBAE9"/>
<stop offset="0.105" stop-color="#5CB9E9"/>
<stop offset="0.109" stop-color="#5BB9E9"/>
<stop offset="0.113" stop-color="#5AB9E9"/>
<stop offset="0.117" stop-color="#58B9E9"/>
<stop offset="0.121" stop-color="#57B8E8"/>
<stop offset="0.125" stop-color="#56B8E8"/>
<stop offset="0.129" stop-color="#55B8E8"/>
<stop offset="0.133" stop-color="#54B8E8"/>
<stop offset="0.137" stop-color="#53B7E8"/>
<stop offset="0.141" stop-color="#52B7E8"/>
<stop offset="0.144" stop-color="#50B7E8"/>
<stop offset="0.148" stop-color="#4FB6E8"/>
<stop offset="0.152" stop-color="#4EB6E7"/>
<stop offset="0.156" stop-color="#4DB5E7"/>
<stop offset="0.16" stop-color="#4BB5E7"/>
<stop offset="0.164" stop-color="#4AB5E7"/>
<stop offset="0.168" stop-color="#49B4E7"/>
<stop offset="0.172" stop-color="#48B4E7"/>
<stop offset="0.176" stop-color="#46B4E7"/>
<stop offset="0.18" stop-color="#45B4E7"/>
<stop offset="0.184" stop-color="#43B3E6"/>
<stop offset="0.188" stop-color="#41B3E6"/>
<stop offset="0.191" stop-color="#40B3E6"/>
<stop offset="0.195" stop-color="#3EB2E6"/>
<stop offset="0.199" stop-color="#3DB2E6"/>
<stop offset="0.203" stop-color="#3BB1E6"/>
<stop offset="0.207" stop-color="#3AB1E6"/>
<stop offset="0.211" stop-color="#38B1E6"/>
<stop offset="0.215" stop-color="#36B0E5"/>
<stop offset="0.219" stop-color="#34B0E5"/>
<stop offset="0.223" stop-color="#32B0E5"/>
<stop offset="0.227" stop-color="#30B0E5"/>
<stop offset="0.231" stop-color="#2EAFE5"/>
<stop offset="0.234" stop-color="#2CAFE5"/>
<stop offset="0.238" stop-color="#2AAFE5"/>
<stop offset="0.242" stop-color="#27AEE4"/>
<stop offset="0.246" stop-color="#25AEE4"/>
<stop offset="0.25" stop-color="#23AEE4"/>
<stop offset="0.254" stop-color="#20ADE4"/>
<stop offset="0.258" stop-color="#1CADE4"/>
<stop offset="0.262" stop-color="#19ACE4"/>
<stop offset="0.266" stop-color="#16ACE4"/>
<stop offset="0.27" stop-color="#0FACE4"/>
<stop offset="0.273" stop-color="#0AABE3"/>
<stop offset="0.277" stop-color="#06ABE3"/>
<stop offset="0.281" stop-color="#01ABE3"/>
<stop offset="0.297" stop-color="#00AAE3"/>
<stop offset="0.313" stop-color="#00A9E2"/>
<stop offset="0.328" stop-color="#00A8E2"/>
<stop offset="0.344" stop-color="#00A7E1"/>
<stop offset="0.359" stop-color="#00A6E1"/>
<stop offset="0.375" stop-color="#00A5E0"/>
<stop offset="0.379" stop-color="#00A4E0"/>
<stop offset="0.383" stop-color="#00A3E0"/>
<stop offset="0.398" stop-color="#00A2E0"/>
<stop offset="0.414" stop-color="#00A1DF"/>
<stop offset="0.43" stop-color="#00A0DF"/>
<stop offset="0.445" stop-color="#009FDE"/>
<stop offset="0.461" stop-color="#009EDE"/>
<stop offset="0.477" stop-color="#009DDD"/>
<stop offset="0.492" stop-color="#009CDD"/>
<stop offset="0.508" stop-color="#009BDD"/>
<stop offset="0.523" stop-color="#009ADC"/>
<stop offset="0.547" stop-color="#0099DC"/>
<stop offset="0.563" stop-color="#0099DB"/>
<stop offset="0.57" stop-color="#0098DB"/>
<stop offset="0.586" stop-color="#0097DA"/>
<stop offset="0.602" stop-color="#0096DA"/>
<stop offset="0.617" stop-color="#0095DA"/>
<stop offset="0.621" stop-color="#0094D9"/>
<stop offset="0.625" stop-color="#0094D8"/>
<stop offset="0.629" stop-color="#0093D8"/>
<stop offset="0.637" stop-color="#0092D7"/>
<stop offset="0.648" stop-color="#0091D6"/>
<stop offset="0.652" stop-color="#0090D5"/>
<stop offset="0.66" stop-color="#008FD4"/>
<stop offset="0.672" stop-color="#008ED4"/>
<stop offset="0.68" stop-color="#008ED3"/>
<stop offset="0.684" stop-color="#008CD2"/>
<stop offset="0.695" stop-color="#008BD1"/>
<stop offset="0.707" stop-color="#0089D0"/>
<stop offset="0.711" stop-color="#0089CF"/>
<stop offset="0.719" stop-color="#0088CF"/>
<stop offset="0.723" stop-color="#0088CE"/>
<stop offset="0.727" stop-color="#0087CD"/>
<stop offset="0.731" stop-color="#0086CD"/>
<stop offset="0.738" stop-color="#0085CC"/>
<stop offset="0.75" stop-color="#0085CB"/>
<stop offset="0.754" stop-color="#0084CA"/>
<stop offset="0.758" stop-color="#0083CA"/>
<stop offset="0.762" stop-color="#0082C9"/>
<stop offset="0.773" stop-color="#0081C9"/>
<stop offset="0.777" stop-color="#0080C8"/>
<stop offset="0.785" stop-color="#007FC7"/>
<stop offset="0.797" stop-color="#007EC6"/>
<stop offset="0.801" stop-color="#007DC5"/>
<stop offset="0.809" stop-color="#007CC4"/>
<stop offset="0.82" stop-color="#007BC4"/>
<stop offset="0.828" stop-color="#007BC3"/>
<stop offset="0.832" stop-color="#0079C2"/>
<stop offset="0.844" stop-color="#0078C1"/>
<stop offset="0.856" stop-color="#0077C0"/>
<stop offset="0.859" stop-color="#0076BF"/>
<stop offset="0.871" stop-color="#0075BE"/>
<stop offset="0.875" stop-color="#0074BE"/>
<stop offset="0.879" stop-color="#0074BD"/>
<stop offset="0.883" stop-color="#0073BD"/>
<stop offset="0.891" stop-color="#0073BC"/>
<stop offset="0.894" stop-color="#0072BC"/>
<stop offset="0.898" stop-color="#0071BB"/>
<stop offset="0.906" stop-color="#0070BB"/>
<stop offset="0.914" stop-color="#0070BA"/>
<stop offset="0.918" stop-color="#006FBA"/>
<stop offset="0.922" stop-color="#006EB9"/>
<stop offset="0.934" stop-color="#006DB8"/>
<stop offset="0.941" stop-color="#006CB7"/>
<stop offset="0.945" stop-color="#006BB7"/>
<stop offset="0.957" stop-color="#006AB6"/>
<stop offset="0.965" stop-color="#0069B5"/>
<stop offset="0.969" stop-color="#0068B5"/>
<stop offset="0.981" stop-color="#0067B4"/>
<stop offset="0.984" stop-color="#0067B3"/>
<stop offset="1" stop-color="#0066B3"/>
</linearGradient>
<radialGradient id="paint1_radial" cx="0" cy="0" r="1" gradientUnits="userSpaceOnUse" gradientTransform="translate(20.0231 187.023) scale(20.0231)">
<stop stop-color="#DC001F"/>
<stop offset="0.64215" stop-color="#D5001D"/>
<stop offset="0.82382" stop-color="#AE0017"/>
<stop offset="1" stop-color="#590E0A"/>
</radialGradient>
<linearGradient id="paint2_linear" x1="19.9165" y1="179.842" x2="19.9214" y2="168.129" gradientUnits="userSpaceOnUse">
<stop stop-color="#D4001C"/>
<stop offset="0.53134" stop-color="#EC8A6C"/>
<stop offset="0.88757" stop-color="#FCEFE7"/>
<stop offset="1" stop-color="#FDF7F1"/>
</linearGradient>
<linearGradient id="paint3_linear" x1="318.744" y1="251" x2="318.744" y2="291.621" gradientUnits="userSpaceOnUse">
<stop stop-color="#3C0F51"/>
<stop offset="1" stop-color="#9A79A7"/>
</linearGradient>
<linearGradient id="paint4_linear" x1="318.744" y1="251" x2="318.744" y2="291.621" gradientUnits="userSpaceOnUse">
<stop stop-color="#3C0F51"/>
<stop offset="1" stop-color="#9A79A7"/>
</linearGradient>
<linearGradient id="paint5_linear" x1="318.744" y1="251" x2="318.744" y2="291.621" gradientUnits="userSpaceOnUse">
<stop stop-color="#3C0F51"/>
<stop offset="1" stop-color="#9A79A7"/>
</linearGradient>
<linearGradient id="paint6_linear" x1="318.744" y1="251" x2="318.744" y2="291.621" gradientUnits="userSpaceOnUse">
<stop stop-color="#3C0F51"/>
<stop offset="1" stop-color="#9A79A7"/>
</linearGradient>
<linearGradient id="paint7_linear" x1="318.744" y1="251" x2="318.744" y2="291.621" gradientUnits="userSpaceOnUse">
<stop stop-color="#3C0F51"/>
<stop offset="1" stop-color="#9A79A7"/>
</linearGradient>
<radialGradient id="paint8_radial" cx="0" cy="0" r="1" gradientUnits="userSpaceOnUse" gradientTransform="translate(217.988 289.524) rotate(90) scale(20.7439)">
<stop stop-color="#AC81B4"/>
<stop offset="1" stop-color="#6E1170"/>
</radialGradient>
<clipPath id="clip0">
<rect x="452" y="1" width="69" height="42" fill="white"/>
</clipPath>
<clipPath id="clip1">
<rect x="324.621" width="57.1212" height="42.3485" fill="white"/>
</clipPath>
<clipPath id="clip2">
<rect x="333.455" y="81.4343" width="42.1313" height="42.1313" fill="white"/>
</clipPath>
</defs>
</svg>
