<svg width="502" height="50" viewBox="0 0 502 50" fill="none" xmlns="http://www.w3.org/2000/svg">
<path d="M258.513 15.9799C258.513 15.8806 258.485 15.8095 258.429 15.7631C258.367 15.7131 258.259 15.6865 258.11 15.6865H257.894V16.2772H258.154C258.394 16.2772 258.513 16.1778 258.513 15.9799ZM258.849 17.2115H258.553L258.364 16.7959C258.268 16.5877 258.166 16.4835 258.054 16.4835H257.894V17.2115H257.65V15.4791H258.139C258.356 15.4791 258.519 15.5261 258.631 15.624C258.726 15.7082 258.774 15.8162 258.774 15.9506C258.774 16.0699 258.735 16.1702 258.657 16.2535C258.581 16.3378 258.472 16.3945 258.332 16.4239V16.4314C258.429 16.4542 258.526 16.5602 258.62 16.7514L258.849 17.2115ZM259.389 16.3624C259.389 16.0216 259.273 15.7338 259.04 15.5056C258.807 15.2775 258.522 15.163 258.186 15.163C257.84 15.163 257.552 15.2775 257.323 15.5076C257.095 15.7386 256.981 16.0244 256.981 16.3624C256.981 16.7079 257.099 16.9966 257.335 17.2267C257.567 17.4566 257.852 17.5703 258.186 17.5703C258.519 17.5703 258.804 17.4557 259.038 17.2228C259.273 16.9937 259.389 16.706 259.389 16.3624ZM259.553 16.3548C259.553 16.7374 259.421 17.0582 259.157 17.3166C258.892 17.577 258.568 17.7066 258.18 17.7066C257.789 17.7066 257.465 17.5789 257.206 17.328C256.949 17.0734 256.82 16.7534 256.82 16.3653C256.82 15.9857 256.951 15.6667 257.213 15.4045C257.475 15.1432 257.801 15.0126 258.191 15.0126C258.573 15.0126 258.894 15.1376 259.154 15.3865C259.421 15.6421 259.553 15.9639 259.553 16.3548Z" fill="black"/>
<path d="M222.451 21.1854H221.609V16.3804C221.609 16.0008 221.634 15.5389 221.679 14.9936H221.66C221.582 15.3126 221.509 15.5436 221.446 15.6866L219 21.1854H218.591L216.14 15.7263C216.071 15.5738 215.999 15.3286 215.926 14.9936H215.908C215.934 15.2804 215.948 15.7452 215.948 16.3898V21.1854H215.137V14.0299H216.247L218.447 19.0196C218.613 19.3954 218.72 19.6813 218.772 19.8763H218.807C218.95 19.4853 219.064 19.1919 219.15 18.9987L221.397 14.0299H222.45L222.451 21.1854Z" fill="black"/>
<path d="M225.039 21.1852H224.221V16.0753H225.039V21.1852ZM225.18 14.2436C225.18 14.3941 225.127 14.52 225.022 14.6232C224.919 14.7264 224.791 14.7785 224.641 14.7785C224.495 14.7785 224.367 14.7285 224.263 14.6289C224.159 14.5286 224.107 14.4007 224.107 14.2436C224.107 14.0959 224.159 13.97 224.263 13.8678C224.367 13.7656 224.495 13.7164 224.641 13.7164C224.79 13.7164 224.919 13.7656 225.022 13.8678C225.127 13.97 225.18 14.0959 225.18 14.2436Z" fill="black"/>
<path d="M230.149 20.9488C229.756 21.1892 229.288 21.3085 228.746 21.3085C228.012 21.3085 227.421 21.0653 226.969 20.5796C226.531 20.1082 226.31 19.4995 226.31 18.7536C226.31 17.9167 226.55 17.239 227.034 16.724C227.515 16.2081 228.162 15.9506 228.976 15.9506C229.421 15.9506 229.815 16.0377 230.16 16.21V17.0497C229.778 16.7818 229.374 16.6492 228.941 16.6492C228.419 16.6492 227.995 16.831 227.666 17.1936C227.323 17.5647 227.15 18.0607 227.15 18.6798C227.15 19.2742 227.308 19.7447 227.623 20.0921C227.939 20.4376 228.359 20.6109 228.889 20.6109C229.337 20.6109 229.756 20.4641 230.149 20.1717V20.9488Z" fill="black"/>
<path d="M234.06 16.9044C233.916 16.7936 233.708 16.7396 233.434 16.7396C233.101 16.7396 232.821 16.8883 232.595 17.1883C232.338 17.5235 232.209 17.9873 232.209 18.5799V21.185H231.39V16.0751H232.209V17.1287H232.229C232.35 16.7558 232.536 16.4689 232.784 16.2654C233.017 16.0799 233.279 15.9861 233.569 15.9861C233.787 15.9861 233.949 16.0096 234.06 16.0558L234.06 16.9044Z" fill="black"/>
<path d="M238.628 18.6396C238.628 17.9855 238.48 17.4857 238.184 17.143C237.897 16.8135 237.496 16.6488 236.979 16.6488C236.469 16.6488 236.06 16.8155 235.755 17.1487C235.431 17.5046 235.27 18.0072 235.27 18.6595C235.27 19.271 235.424 19.7509 235.734 20.0936C236.042 20.4381 236.458 20.6104 236.979 20.6104C237.517 20.6104 237.93 20.4353 238.213 20.087C238.49 19.7462 238.628 19.2643 238.628 18.6396ZM239.469 18.6108C239.469 19.4249 239.238 20.079 238.779 20.5694C238.318 21.0616 237.698 21.3078 236.918 21.3078C236.15 21.3078 235.538 21.0616 235.089 20.5694C234.65 20.0951 234.429 19.4684 234.429 18.6894C234.429 17.8005 234.678 17.1151 235.179 16.6285C235.642 16.177 236.261 15.9498 237.037 15.9498C237.801 15.9498 238.398 16.1874 238.827 16.6579C239.253 17.1312 239.469 17.7825 239.469 18.6108Z" fill="black"/>
<path d="M243.533 19.8181C243.533 20.2366 243.377 20.583 243.063 20.8594C242.72 21.1586 242.25 21.3081 241.658 21.3081C241.173 21.3081 240.748 21.2069 240.388 21.0005V20.1211C240.789 20.4467 241.232 20.6105 241.719 20.6105C242.368 20.6105 242.693 20.372 242.693 19.8967C242.693 19.697 242.622 19.5314 242.478 19.4035C242.333 19.2729 242.053 19.1167 241.637 18.934C241.208 18.7466 240.903 18.5544 240.723 18.3547C240.506 18.118 240.397 17.8104 240.397 17.4317C240.397 17.0076 240.567 16.6545 240.903 16.3734C241.24 16.0913 241.672 15.9502 242.203 15.9502C242.61 15.9502 242.975 16.0297 243.298 16.1898V17.0133C242.96 16.77 242.574 16.6488 242.136 16.6488C241.865 16.6488 241.647 16.7162 241.484 16.8476C241.32 16.982 241.238 17.1534 241.238 17.3626C241.238 17.5889 241.307 17.765 241.444 17.8908C241.565 18.0073 241.823 18.1493 242.212 18.3149C242.649 18.4976 242.965 18.687 243.158 18.881C243.407 19.1262 243.533 19.4386 243.533 19.8181Z" fill="black"/>
<path d="M248.542 18.6396C248.542 17.9855 248.394 17.4857 248.097 17.143C247.811 16.8135 247.409 16.6488 246.893 16.6488C246.383 16.6488 245.974 16.8155 245.667 17.1487C245.345 17.5046 245.184 18.0072 245.184 18.6595C245.184 19.271 245.338 19.7509 245.645 20.0936C245.957 20.4381 246.373 20.6104 246.893 20.6104C247.432 20.6104 247.844 20.4353 248.127 20.087C248.404 19.7462 248.542 19.2643 248.542 18.6396ZM249.385 18.6108C249.385 19.4249 249.152 20.079 248.692 20.5694C248.233 21.0616 247.613 21.3078 246.833 21.3078C246.064 21.3078 245.452 21.0616 245.003 20.5694C244.564 20.0951 244.343 19.4684 244.343 18.6894C244.343 17.8005 244.594 17.1151 245.092 16.6285C245.555 16.177 246.176 15.9498 246.952 15.9498C247.716 15.9498 248.312 16.1874 248.741 16.6579C249.167 17.1312 249.385 17.7825 249.385 18.6108Z" fill="black"/>
<path d="M252.996 14.3391C252.835 14.2501 252.656 14.2047 252.452 14.2047C251.878 14.2047 251.593 14.5653 251.593 15.2876V16.0752H252.793V16.7681H251.593V21.1851H250.773V16.7681H249.902V16.0752H250.773V15.2469C250.773 14.6845 250.945 14.2434 251.296 13.9254C251.597 13.649 251.965 13.5117 252.402 13.5117C252.656 13.5117 252.853 13.542 252.996 13.6007V14.3391Z" fill="black"/>
<path d="M256.231 21.1337C256.038 21.2445 255.78 21.2994 255.461 21.2994C254.567 21.2994 254.121 20.7967 254.121 19.7914V16.7689H253.242V16.075H254.121V14.8283C254.382 14.7459 254.655 14.656 254.942 14.5632V16.075H256.231V16.7689H254.942V19.6523C254.942 19.995 254.998 20.2401 255.116 20.3821C255.234 20.5289 255.428 20.6008 255.701 20.6008C255.905 20.6008 256.081 20.5463 256.231 20.4361V21.1337Z" fill="black"/>
<path d="M211.924 41.1284C211.924 41.5288 211.78 41.8753 211.491 42.1678C211.203 42.4594 210.853 42.6061 210.442 42.6061C210.041 42.6061 209.699 42.4594 209.419 42.1678C209.139 41.8753 209 41.5288 209 41.1284C209 40.7167 209.139 40.3693 209.419 40.0815C209.699 39.7927 210.041 39.6498 210.442 39.6498C210.853 39.6498 211.203 39.7947 211.491 40.0872C211.78 40.3797 211.924 40.7271 211.924 41.1284Z" fill="black"/>
<path d="M227.602 42.3052L217.899 27.3514C217.672 26.9917 217.476 26.6007 217.31 26.1738H217.231C217.3 26.5742 217.335 27.4337 217.335 28.7505V42.3052H215.132V23.5441H217.992L227.405 38.2622C227.779 38.8462 228.035 39.2646 228.165 39.5165H228.218C228.13 38.9769 228.085 38.0568 228.085 36.758V23.5441H230.275V42.3052H227.602Z" fill="black"/>
<path d="M244.402 42.3052H234.438V23.5441H243.97V25.532H236.64V31.773H243.432V33.762H236.64V40.3164H244.402V42.3052Z" fill="black"/>
<path d="M259.516 25.5322H254.101V42.3055H251.898V25.5322H246.472V23.5434H259.516V25.5322Z" fill="black"/>
<path d="M324.172 39.742H323.546V41.6875H323.29V39.742H322.662V39.5105H324.172V39.742V39.742Z" fill="black"/>
<path d="M326.732 41.6863H326.478V40.2244C326.478 40.1091 326.487 39.9679 326.499 39.8018C326.473 39.9013 326.451 39.9702 326.431 40.0142L325.69 41.6863H325.566L324.823 40.0267C324.801 39.9806 324.78 39.9058 324.756 39.8018H324.747C324.756 39.8895 324.759 40.0312 324.759 40.2278V41.6863H324.515V39.5093H324.852L325.519 41.0288C325.57 41.1429 325.601 41.2311 325.617 41.2898H325.627C325.671 41.1701 325.708 41.0807 325.732 41.022L326.413 39.5093H326.734V41.6863H326.732Z" fill="black"/>
<path d="M290.248 20.1228C292.779 27.8652 293.738 41.6769 301.137 41.6769C301.701 41.6769 302.27 41.6218 302.841 41.513C296.115 39.9438 295.317 26.2823 291.213 19.2075C290.891 19.5002 290.571 19.8052 290.248 20.1228" fill="url(#paint0_linear)"/>
<path d="M291.217 19.2078C295.321 26.2826 296.119 39.9441 302.845 41.5133C303.374 41.4162 303.903 41.2693 304.434 41.084C298.396 38.124 296.727 24.8579 292.066 18.4712C291.784 18.7063 291.5 18.9526 291.217 19.2078" fill="url(#paint1_linear)"/>
<path d="M297.127 15C296.565 15 295.995 15.0551 295.422 15.1639C293.925 15.4463 292.404 16.0914 290.871 17.0675C291.29 17.481 291.688 17.9544 292.063 18.4707C293.622 17.176 295.172 16.2191 296.715 15.644C297.295 15.4293 297.872 15.2678 298.451 15.1616C298.033 15.0553 297.593 15 297.127 15" fill="#14559A"/>
<path d="M309.144 38.355C309.762 37.8636 310.381 37.3201 311.001 36.727C308.429 29.0207 307.509 15.0112 300.058 15.0112C299.525 15.0112 298.987 15.061 298.451 15.1604C305.238 16.8495 306.108 31.6248 309.144 38.355Z" fill="url(#paint2_linear)"/>
<path d="M298.451 15.1615C298.033 15.0553 297.593 15 297.127 15L300.058 15.0107C299.525 15.0107 298.987 15.0605 298.451 15.161" fill="#3092C4"/>
<path d="M309.014 39.9921C308.723 39.7142 308.446 39.4091 308.174 39.0837C306.921 39.9717 305.672 40.6451 304.431 41.0835C304.872 41.2993 305.335 41.4597 305.827 41.5592C306.207 41.6369 306.601 41.6767 307.016 41.6767C308.408 41.6767 309.509 41.5117 310.446 41.062C309.93 40.7829 309.457 40.4214 309.014 39.9921" fill="#1969BC"/>
<path d="M296.714 15.6451C302.794 18.8266 303.322 33.2337 308.174 39.0838C308.499 38.8545 308.821 38.6115 309.142 38.355C306.106 31.6249 305.238 16.8483 298.451 15.1604C297.872 15.2689 297.294 15.4294 296.714 15.6451" fill="url(#paint3_linear)"/>
<path d="M292.064 18.4715C296.725 24.8583 298.394 38.1243 304.432 41.0844C305.673 40.646 306.922 39.9726 308.175 39.0846C303.324 33.2346 302.796 18.8275 296.716 15.646C295.173 16.2199 293.623 17.1768 292.064 18.4715" fill="url(#paint4_linear)"/>
<path d="M287.269 19.9363C286.539 21.5892 285.792 23.7618 284.89 26.5976C286.684 24.0679 288.473 21.8886 290.252 20.1228C290.007 19.3692 289.743 18.6744 289.46 18.0552C288.733 18.6122 288 19.2393 287.269 19.9363Z" fill="url(#paint5_linear)"/>
<path d="M290.107 17.5786C289.893 17.7323 289.677 17.8894 289.46 18.0554C289.743 18.6745 290.006 19.3694 290.251 20.1229C290.574 19.8066 290.895 19.5004 291.216 19.2078C290.871 18.6157 290.505 18.0689 290.107 17.5786" fill="#2B74B1"/>
<path d="M290.874 17.0676C290.619 17.2292 290.365 17.3998 290.108 17.5783C290.506 18.0686 290.872 18.6154 291.217 19.2086C291.501 18.9521 291.784 18.7047 292.066 18.4708C291.692 17.9546 291.293 17.4811 290.874 17.0676Z" fill="#125A9E"/>
<path d="M332.34 14.4103C328.901 27.6774 321.719 38.3336 315.698 41.0203H315.687C315.578 41.07 315.469 41.1152 315.362 41.1592C315.347 41.1682 315.334 41.1693 315.322 41.1746C315.291 41.1874 315.261 41.1973 315.23 41.2099C315.215 41.2189 315.202 41.2217 315.188 41.2271C315.137 41.2452 315.087 41.2606 315.038 41.2804C315.016 41.2894 314.996 41.295 314.976 41.3022C314.953 41.3111 314.927 41.3194 314.901 41.3266C314.879 41.3355 314.855 41.342 314.829 41.3519C314.807 41.3608 314.785 41.3646 314.765 41.3736C314.72 41.3863 314.68 41.3971 314.636 41.4124C314.618 41.4124 314.601 41.4223 314.582 41.427C314.554 41.4359 314.524 41.4424 314.495 41.4505C314.474 41.4594 314.457 41.4623 314.436 41.4668C314.405 41.4758 314.371 41.4841 314.341 41.4912C314.3 41.5002 314.264 41.5085 314.226 41.5165C314.498 41.6171 314.781 41.6679 315.087 41.6679C320.797 41.6679 326.553 31.4309 336.078 14.4072H332.338L332.34 14.4103Z" fill="url(#paint6_linear)"/>
<path d="M283.649 15.5416C283.653 15.5416 283.657 15.5327 283.659 15.5327C283.664 15.5327 283.671 15.5327 283.673 15.5237C283.673 15.5237 283.677 15.5237 283.68 15.5237C283.712 15.513 283.741 15.5002 283.773 15.4885C283.781 15.4885 283.785 15.4885 283.791 15.4795C283.799 15.4795 283.807 15.4706 283.815 15.4695C283.848 15.4587 283.882 15.446 283.914 15.4342C283.914 15.4342 283.918 15.4342 283.919 15.4342C283.995 15.4116 284.065 15.3836 284.138 15.3574C284.149 15.3574 284.159 15.3484 284.171 15.3484C284.202 15.3386 284.233 15.3276 284.265 15.3204C284.28 15.3115 284.294 15.3115 284.308 15.3068C284.34 15.2969 284.372 15.2859 284.403 15.2787C284.416 15.2787 284.429 15.2698 284.439 15.2689C284.544 15.24 284.648 15.2129 284.753 15.1875C284.767 15.1875 284.78 15.1786 284.796 15.1777C284.826 15.1688 284.854 15.164 284.887 15.1596C284.901 15.1506 284.916 15.1506 284.932 15.1459C284.963 15.137 284.992 15.1361 285.025 15.1287C285.033 15.1287 285.037 15.1287 285.046 15.1287C285.109 15.1159 285.174 15.1052 285.237 15.0935C285.248 15.0935 285.263 15.0935 285.275 15.0935C285.306 15.0845 285.333 15.0836 285.364 15.078C285.38 15.078 285.397 15.0691 285.413 15.0691C285.441 15.0691 285.47 15.0601 285.498 15.0563C285.513 15.0563 285.527 15.0563 285.544 15.0473C285.611 15.0384 285.68 15.0348 285.75 15.0292C285.552 15.0102 285.349 14.9976 285.142 14.9976C278.713 14.9976 269.854 26.9338 265.863 42.3916C265.863 42.3916 266.155 42.3916 266.632 42.3916C267.909 40.1128 269.057 37.9572 270.106 35.9337C272.9 24.9849 278.593 17.5181 283.649 15.5399" fill="url(#paint7_linear)"/>
<path d="M287.269 19.9361C287.999 19.2391 288.732 18.612 289.459 18.0551C289.293 17.6913 289.122 17.3546 288.937 17.0461C288.349 17.7602 287.812 18.7024 287.269 19.9361Z" fill="#0D82CA"/>
<path d="M287.796 15.6284C288.217 15.9809 288.593 16.4656 288.938 17.0464C289.046 16.913 289.156 16.7899 289.27 16.6746C288.792 16.2284 288.275 15.8623 287.715 15.5867C287.738 15.5992 287.76 15.6093 287.784 15.6192C287.784 15.6192 287.793 15.6282 287.797 15.6282" fill="#0D82CA"/>
<path d="M270.106 35.9317C275.969 24.6281 278.747 17.4743 283.65 15.5378C278.594 17.5173 272.901 24.9841 270.106 35.9317Z" fill="url(#paint8_linear)"/>
<path d="M289.269 16.6748C289.155 16.7913 289.046 16.9134 288.937 17.0468C289.121 17.3554 289.293 17.6913 289.46 18.0564C289.677 17.8903 289.893 17.7331 290.108 17.5793C289.842 17.2514 289.562 16.9473 289.269 16.6748" fill="#127BCA"/>
<path d="M272.766 42.3386C272.73 42.3476 272.693 42.3476 272.66 42.3514C272.648 42.3514 272.646 42.3514 272.639 42.3514C272.609 42.3514 272.577 42.3603 272.549 42.3603C272.549 42.3603 272.538 42.3603 272.534 42.3603C272.461 42.3693 272.389 42.3693 272.318 42.3749H272.296C278.23 42.2088 280.942 39.2362 282.288 34.9249C283.311 31.6565 284.151 28.9032 284.888 26.5928C282.402 30.0929 279.906 34.2652 277.395 38.9391C276.185 41.1919 274.344 42.133 272.766 42.3342" fill="url(#paint9_linear)"/>
<path d="M272.765 42.3368C274.344 42.1356 276.184 41.1956 277.395 38.9417C279.905 34.2689 282.403 30.0954 284.886 26.5953C285.789 23.7584 286.535 21.587 287.266 19.9341C282.317 24.6476 277.349 32.485 272.765 42.3345" fill="url(#paint10_linear)"/>
<path d="M270.106 35.9319C269.057 37.9554 267.91 40.111 266.633 42.3898C267.185 42.3898 267.985 42.3898 268.87 42.3898C269.166 40.1267 269.586 37.9689 270.106 35.933" fill="#05A1E6"/>
<path d="M285.546 15.0497C285.528 15.0497 285.514 15.0586 285.498 15.0586C285.471 15.0676 285.443 15.0676 285.415 15.0705C285.398 15.0705 285.382 15.0705 285.365 15.0794C285.335 15.0884 285.306 15.0893 285.277 15.0949C285.263 15.0949 285.25 15.0949 285.239 15.1038C285.174 15.1146 285.111 15.1264 285.048 15.1373C285.037 15.1373 285.033 15.1373 285.026 15.1373C284.994 15.1462 284.964 15.1509 284.934 15.1554C284.918 15.1643 284.902 15.1644 284.887 15.1679C284.857 15.1769 284.826 15.1807 284.797 15.1861C284.781 15.195 284.769 15.195 284.754 15.1959C284.649 15.2212 284.545 15.2483 284.44 15.2773C284.429 15.2773 284.418 15.2862 284.404 15.288C284.372 15.297 284.342 15.3061 284.309 15.316C284.296 15.325 284.28 15.325 284.266 15.3285C284.235 15.3375 284.203 15.3467 284.173 15.3566C284.16 15.3566 284.15 15.3655 284.139 15.3655C284.066 15.3926 283.995 15.4198 283.921 15.4424C283.889 15.4522 283.855 15.4649 283.821 15.4767C283.808 15.4857 283.795 15.4876 283.78 15.4939C283.748 15.5038 283.716 15.5165 283.687 15.5283C283.676 15.5372 283.665 15.5381 283.657 15.5428C278.754 17.4793 275.976 24.6331 270.113 35.9367C269.592 37.9726 269.171 40.1305 268.876 42.3935H269.19C270.075 42.3935 270.324 42.3845 271.342 42.3845H271.393H271.545H271.597H271.611H271.663H271.693H271.713H271.754H271.88H272.007H272.113H272.141C272.202 42.3845 272.264 42.3845 272.327 42.3845C272.397 42.3756 272.47 42.3756 272.543 42.37C272.543 42.37 272.554 42.37 272.557 42.37C272.587 42.37 272.618 42.361 272.647 42.361C272.658 42.361 272.659 42.361 272.668 42.361C272.701 42.361 272.738 42.3521 272.774 42.3482C277.358 32.4987 282.326 24.6613 287.276 19.9478C287.82 18.7141 288.356 17.7719 288.944 17.059C288.6 16.4783 288.224 15.9925 287.804 15.6399C287.804 15.6399 287.793 15.6399 287.792 15.6309C287.768 15.6211 287.746 15.6093 287.722 15.5975C287.698 15.5848 287.678 15.5749 287.653 15.5623C287.632 15.5533 287.607 15.5415 287.585 15.5297C287.556 15.5208 287.532 15.508 287.506 15.4963C287.485 15.4873 287.466 15.4781 287.444 15.4692C287.4 15.4519 287.356 15.4339 287.314 15.4149C287.295 15.406 287.277 15.4013 287.259 15.3941C287.228 15.3832 287.193 15.3688 287.162 15.3553C287.146 15.3463 287.128 15.3445 287.11 15.338C287.064 15.3226 287.018 15.3064 286.975 15.2919C286.964 15.2919 286.964 15.2919 286.964 15.2919C286.912 15.2747 286.861 15.2621 286.808 15.2476C286.796 15.2387 286.786 15.2387 286.773 15.2369C286.727 15.2241 286.686 15.2116 286.642 15.1998C286.631 15.1998 286.621 15.1909 286.612 15.1909C286.506 15.1629 286.396 15.1403 286.286 15.1195C286.274 15.1195 286.263 15.1105 286.252 15.1105C286.204 15.1016 286.158 15.0933 286.111 15.0879C286.099 15.079 286.093 15.079 286.082 15.079C286.026 15.07 285.971 15.0635 285.915 15.0573C285.904 15.0573 285.896 15.0573 285.886 15.0573C285.841 15.0483 285.799 15.0474 285.757 15.0427C285.686 15.0517 285.618 15.0555 285.552 15.0617" fill="url(#paint11_linear)"/>
<path d="M318.908 21.7553C317.78 25.3706 316.866 28.3533 316.071 30.8072C319.166 26.5456 322.215 21.1847 325.118 14.998C321.732 16.0622 319.925 18.4981 318.908 21.7553" fill="url(#paint12_linear)"/>
<path d="M316.17 40.7946C316.012 40.8751 315.854 40.9516 315.698 41.0206C321.719 38.3339 328.9 27.6777 332.339 14.4106H331.642C323.742 28.5296 321.202 37.9815 316.17 40.7946" fill="url(#paint13_linear)"/>
<path d="M312.239 39.6084C313.548 38.0087 314.616 35.2893 316.072 30.8074C314.392 33.1167 312.7 35.1018 311.008 36.7207C311.008 36.7297 311.008 36.7297 310.999 36.7353C311.368 37.8425 311.773 38.8197 312.235 39.6083" fill="#079AE1"/>
<path d="M312.241 39.6082C311.795 40.1527 311.323 40.5674 310.798 40.8747C310.683 40.9416 310.567 41.0046 310.448 41.0622C311.002 41.3616 311.608 41.5616 312.285 41.6418C312.384 41.6517 312.483 41.6608 312.586 41.668H312.604C312.65 41.668 312.699 41.668 312.748 41.677H312.768C312.818 41.677 312.868 41.677 312.916 41.677C312.969 41.677 313.022 41.677 313.075 41.677C313.093 41.677 313.109 41.677 313.125 41.677C313.161 41.677 313.2 41.677 313.238 41.677C313.256 41.677 313.275 41.677 313.293 41.668C313.328 41.668 313.365 41.668 313.401 41.659C313.41 41.659 313.41 41.659 313.414 41.659C313.429 41.659 313.441 41.659 313.455 41.659C313.492 41.659 313.533 41.6501 313.572 41.6463H313.581C313.593 41.6463 313.606 41.6374 313.617 41.6374C313.659 41.6284 313.702 41.6246 313.743 41.6183C313.756 41.6183 313.766 41.6183 313.78 41.6183C313.826 41.6094 313.874 41.6038 313.921 41.5948H313.93C313.939 41.5948 313.94 41.5948 313.944 41.5948C314.038 41.5767 314.131 41.5587 314.225 41.5352C313.448 41.2505 312.797 40.5794 312.237 39.6236" fill="#1969BC"/>
<path d="M301.14 41.6767C301.704 41.6767 302.273 41.6216 302.844 41.5117C303.373 41.4157 303.902 41.2688 304.433 41.0835C304.874 41.2993 305.337 41.4598 305.827 41.5592C306.208 41.6369 306.603 41.6767 307.018 41.6767H301.14Z" fill="#1E5CB3"/>
<path d="M307.015 41.6771C308.406 41.6771 309.508 41.5122 310.445 41.0625C310.999 41.3619 311.604 41.5619 312.282 41.6421C312.381 41.652 312.479 41.6611 312.582 41.6683H312.6C312.646 41.6683 312.695 41.6683 312.745 41.6773H312.766C312.815 41.6773 312.865 41.6773 312.914 41.6773H307.011L307.015 41.6771Z" fill="#1E5CB3"/>
<path d="M312.919 41.677C312.973 41.677 313.026 41.677 313.079 41.677C313.095 41.677 313.113 41.677 313.129 41.677C313.165 41.677 313.202 41.677 313.241 41.677C313.26 41.677 313.278 41.677 313.296 41.668C313.331 41.668 313.368 41.668 313.406 41.6591C313.414 41.6591 313.414 41.6591 313.417 41.6591C313.432 41.6591 313.445 41.6591 313.459 41.6591C313.496 41.6591 313.537 41.6501 313.575 41.6465C313.575 41.6465 313.584 41.6465 313.585 41.6465C313.597 41.6465 313.609 41.6376 313.62 41.6376C313.662 41.6286 313.705 41.6251 313.746 41.6186C313.759 41.6186 313.77 41.6186 313.784 41.6096C313.831 41.6007 313.878 41.5959 313.926 41.587H313.935C313.944 41.587 313.944 41.587 313.948 41.587C314.043 41.5689 314.136 41.5508 314.229 41.5273C314.502 41.6279 314.785 41.6787 315.091 41.6787L312.921 41.6877L312.919 41.677Z" fill="#1D60B5"/>
<path d="M311.003 36.7355V36.7266C310.383 37.3197 309.764 37.8632 309.147 38.3546C308.824 38.6111 308.502 38.8539 308.177 39.0833C308.449 39.4087 308.726 39.7137 309.017 39.9917C309.46 40.4209 309.933 40.7825 310.449 41.0615C310.566 41.0037 310.684 40.9406 310.798 40.874C311.324 40.5667 311.796 40.1521 312.242 39.6075C311.78 38.8189 311.375 37.8416 311.005 36.7345" fill="#175FAB"/>
<path d="M329.437 14.4106H326.507C326.409 14.4106 326.312 14.4106 326.216 14.4106C326.122 14.4106 326.032 14.4106 325.941 14.4106H325.93C325.74 14.4196 325.556 14.4261 325.374 14.4378C325.289 14.622 325.2 14.8062 325.116 14.9915C322.213 21.1781 319.164 26.539 316.069 30.8006C314.613 35.2824 313.545 38.0019 312.235 39.6017C312.795 40.5575 313.447 41.2296 314.221 41.5144C314.244 41.5054 314.262 41.5054 314.282 41.5007C314.282 41.5007 314.293 41.5007 314.295 41.5007C314.308 41.5007 314.323 41.4918 314.338 41.4918C314.369 41.4828 314.403 41.4772 314.435 41.4674C314.455 41.4584 314.472 41.4575 314.492 41.451C314.522 41.4421 314.552 41.4356 314.579 41.4284C314.597 41.4195 314.615 41.4166 314.633 41.413C314.679 41.3984 314.719 41.3877 314.762 41.3741C314.783 41.3651 314.804 41.3578 314.827 41.3524C314.851 41.3435 314.876 41.3369 314.899 41.3262C314.925 41.3172 314.951 41.3125 314.973 41.3027C314.994 41.2937 315.015 41.2882 315.034 41.2801C315.085 41.262 315.135 41.2467 315.186 41.2268C315.199 41.2268 315.213 41.2142 315.227 41.2113C315.258 41.1986 315.29 41.1887 315.32 41.1752C315.331 41.1662 315.345 41.1653 315.36 41.1606C315.466 41.1163 315.575 41.0711 315.685 41.0217H315.696C315.852 40.953 316.01 40.8759 316.167 40.7957C321.2 37.9826 323.741 28.5307 331.641 14.4117H329.434L329.437 14.4106Z" fill="url(#paint14_linear)"/>
<path d="M285.75 15.0315C285.763 15.0315 285.774 15.0315 285.787 15.0405C285.817 15.0405 285.848 15.0404 285.878 15.0503C285.889 15.0503 285.9 15.0503 285.909 15.0503C285.964 15.0592 286.019 15.0639 286.076 15.072C286.086 15.072 286.095 15.072 286.104 15.081C286.15 15.0899 286.198 15.0973 286.245 15.1045C286.255 15.1045 286.269 15.1134 286.28 15.1134C286.389 15.1351 286.499 15.1577 286.605 15.1857C286.615 15.1857 286.626 15.1947 286.635 15.1947C286.68 15.2054 286.72 15.2191 286.766 15.2317C286.779 15.2317 286.789 15.2407 286.802 15.2427C286.855 15.2563 286.905 15.2698 286.957 15.287C286.959 15.287 286.962 15.287 286.968 15.2959C287.012 15.3093 287.057 15.3267 287.103 15.342C287.122 15.351 287.138 15.3548 287.155 15.3592C287.187 15.3729 287.222 15.3863 287.252 15.399C287.271 15.399 287.289 15.4115 287.308 15.418C287.349 15.4371 287.394 15.4542 287.436 15.4723C287.459 15.4812 287.478 15.4913 287.5 15.4994C287.525 15.5121 287.551 15.5238 287.578 15.5328C287.6 15.5435 287.625 15.5554 287.646 15.5653C287.67 15.5781 287.693 15.5879 287.715 15.6006C288.275 15.8763 288.791 16.2435 289.269 16.6886C289.445 16.5033 289.629 16.3372 289.82 16.1881C288.776 15.447 287.592 15.0244 286.227 15.0244C286.069 15.0244 285.911 15.0334 285.751 15.0452" fill="#7DCBEC"/>
<path d="M289.267 16.6751C289.56 16.9473 289.84 17.2513 290.105 17.579C290.362 17.4005 290.616 17.2287 290.871 17.0683C290.537 16.7338 290.184 16.4333 289.817 16.1746C289.626 16.3226 289.443 16.4898 289.267 16.6751Z" fill="#5EC5ED"/>
<path d="M285.752 15.0312C285.913 15.0177 286.071 15.012 286.229 15.012C287.595 15.012 288.779 15.4345 289.824 16.1746C290.927 15.3046 292.26 15.0007 294.111 15.0007H285.144C285.351 15.0007 285.553 15.0131 285.752 15.0312" fill="url(#paint15_linear)"/>
<path d="M294.107 15.0008C292.255 15.0008 290.922 15.3048 289.82 16.1747C290.186 16.4334 290.538 16.7339 290.873 17.0684C292.408 16.0922 293.929 15.446 295.428 15.1635C296 15.0562 296.57 15.0008 297.133 15.0008H294.107V15.0008Z" fill="url(#paint16_linear)"/>
<path d="M316.072 30.8099C316.868 28.3537 317.78 25.3723 318.91 21.7557C319.929 18.4974 321.732 16.0616 325.118 14.9985C325.208 14.8166 325.292 14.629 325.379 14.4448C319.859 14.7759 317.278 17.5856 315.98 21.7467C313.709 29.0113 312.334 33.7202 311.009 36.721C312.701 35.1031 314.392 33.1169 316.072 30.8099" fill="url(#paint17_linear)"/>
<path fill-rule="evenodd" clip-rule="evenodd" d="M416.748 37.9961C416.748 37.9961 414.871 39.088 418.085 39.4569C421.979 39.9016 423.967 39.8376 428.257 39.0261C428.257 39.0261 429.387 39.7332 430.963 40.345C421.344 44.4668 409.193 40.1066 416.748 37.9961ZM415.572 32.6174C415.572 32.6174 413.467 34.1755 416.683 34.5081C420.843 34.9377 424.126 34.9728 429.811 33.8788C429.811 33.8788 430.596 34.6756 431.832 35.1109C420.203 38.5121 407.252 35.3787 415.572 32.6174Z" fill="#3174B9"/>
<path fill-rule="evenodd" clip-rule="evenodd" d="M425.48 23.4922C427.851 26.2217 424.858 28.6766 424.858 28.6766C424.858 28.6766 430.877 25.5704 428.112 21.6793C425.532 18.0523 423.552 16.2504 434.268 10.0365C434.267 10.0361 417.447 14.2358 425.48 23.4922Z" fill="#EE282F"/>
<path fill-rule="evenodd" clip-rule="evenodd" d="M438.202 41.975C438.202 41.975 439.591 43.1203 436.671 44.0059C431.121 45.6872 413.564 46.1942 408.688 44.0728C406.936 43.3098 410.223 42.2522 411.257 42.0288C412.335 41.7957 412.951 41.8381 412.951 41.8381C411.001 40.4653 400.35 44.5342 407.541 45.7015C427.151 48.8809 443.287 44.2701 438.202 41.975ZM417.65 27.0439C417.65 27.0439 408.721 29.1653 414.489 29.9365C416.925 30.2621 421.777 30.1871 426.301 29.8077C429.997 29.4975 433.707 28.834 433.707 28.834C433.707 28.834 432.405 29.3928 431.461 30.0359C422.392 32.4215 404.875 31.3104 409.919 28.8719C414.183 26.8092 417.65 27.0439 417.65 27.0439V27.0439ZM433.67 35.9971C442.888 31.2081 438.626 26.605 435.65 27.2253C434.923 27.3773 434.596 27.5085 434.596 27.5085C434.596 27.5085 434.868 27.0839 435.384 26.9013C441.269 24.8328 445.795 33.0035 433.486 36.2392C433.485 36.2392 433.627 36.1112 433.67 35.9971V35.9971Z" fill="#3174B9"/>
<path fill-rule="evenodd" clip-rule="evenodd" d="M428.112 0C428.112 0 433.216 5.10732 423.269 12.9584C415.293 19.2587 421.451 22.8499 423.267 26.9545C418.61 22.7537 415.194 19.0549 417.486 15.6134C420.85 10.5615 430.171 8.11155 428.112 0V0Z" fill="#EE282F"/>
<path fill-rule="evenodd" clip-rule="evenodd" d="M418.557 48.978C427.404 49.5437 440.992 48.6637 441.314 44.4767C441.314 44.4767 440.696 46.0638 434.002 47.3228C426.45 48.7444 417.134 48.579 411.611 47.6672C411.611 47.6672 412.742 48.6038 418.557 48.978V48.978Z" fill="#3174B9"/>
<path fill-rule="evenodd" clip-rule="evenodd" d="M498.916 24.8282H498.558V24.6243H499.525V24.8282H499.167V25.8465H498.916V24.8282ZM500.847 24.8789H500.843L500.486 25.8459H500.323L499.969 24.8789H499.964V25.8459H499.726V24.6237H500.076L500.404 25.4883L500.732 24.6237H501.078V25.8459H500.848V24.8789H500.847V24.8789ZM467.191 36.3036C466.079 37.2811 464.903 37.831 463.847 37.831C462.343 37.831 461.527 36.9147 461.527 35.4483C461.527 33.8608 462.401 32.6992 465.898 32.6992H467.19V36.3036H467.191V36.3036ZM470.261 39.8159V28.9428C470.261 26.1639 468.698 24.33 464.931 24.33C462.733 24.33 460.807 24.8805 459.24 25.582L459.691 27.5079C460.925 27.0483 462.52 26.6224 464.086 26.6224C466.256 26.6224 467.19 27.5079 467.19 29.3412V30.716H466.106C460.834 30.716 458.456 32.7901 458.456 35.9085C458.456 38.5953 460.023 40.1228 462.974 40.1228C464.871 40.1228 466.288 39.3288 467.611 38.1666L467.852 39.8159H470.261V39.8159ZM480.506 39.8159H476.679L472.07 24.6067H475.413L478.274 33.9528L478.911 36.7609C480.354 32.6992 481.378 28.5758 481.89 24.6067H485.142C484.271 29.6145 482.703 35.1128 480.506 39.8159V39.8159ZM495.197 36.3036C494.081 37.2811 492.905 37.831 491.852 37.831C490.348 37.831 489.533 36.9147 489.533 35.4483C489.533 33.8608 490.407 32.6992 493.902 32.6992H495.197V36.3036V36.3036ZM498.267 39.8159V28.9428C498.267 26.1639 496.7 24.33 492.937 24.33C490.737 24.33 488.811 24.8805 487.244 25.582L487.695 27.5079C488.929 27.0483 490.528 26.6224 492.094 26.6224C494.261 26.6224 495.196 27.5079 495.196 29.3412V30.716H494.112C488.84 30.716 486.462 32.7901 486.462 35.9085C486.462 38.5953 488.027 40.1228 490.978 40.1228C492.877 40.1228 494.291 39.3288 495.618 38.1666L495.859 39.8159H498.267V39.8159ZM455.09 42.4002C454.215 43.6968 452.8 44.7234 451.253 45.3026L449.737 43.4919C450.916 42.8786 451.925 41.8883 452.395 40.967C452.8 40.146 452.969 39.0902 452.969 36.5631V19.1971H456.232V36.3234C456.232 39.7035 455.966 41.0695 455.09 42.4002V42.4002Z" fill="#EE282F"/>
<path d="M37.9979 18.1598C37.9976 17.4365 37.844 16.7972 37.5334 16.2487C37.2283 15.7092 36.7714 15.257 36.1585 14.8995C31.0998 11.9613 26.036 9.03202 20.9788 6.09077C19.6154 5.29791 18.2935 5.32681 16.9403 6.13106C14.9267 7.32724 4.84547 13.1452 1.8414 14.8979C0.60423 15.6193 0.00223298 16.7233 0.00193694 18.1584C8.86199e-09 24.0674 0.00193693 29.9763 0 35.8854C0.000296038 36.593 0.147342 37.2197 0.444251 37.76C0.749491 38.3158 1.21278 38.7804 1.83976 39.146C4.84398 40.8987 14.9266 46.7162 16.9397 47.9127C18.2935 48.7174 19.6154 48.7461 20.9792 47.9529C26.0366 45.0116 31.1006 42.0824 36.1602 39.1442C36.7871 38.7787 37.2505 38.3139 37.5557 37.7586C37.8522 37.2182 37.9995 36.5914 37.9998 35.8838C37.9998 35.8838 37.9998 24.069 37.9979 18.1598Z" fill="#7F8B99"/>
<path d="M19.0581 26.9629L0.444336 37.7586C0.749576 38.3144 1.21286 38.779 1.83984 39.1446C4.84406 40.8973 14.9266 46.7148 16.9397 47.9113C18.2936 48.716 19.6155 48.7447 20.9794 47.9515C26.0367 45.0102 31.1007 42.081 36.1603 39.1428C36.7873 38.7773 37.2505 38.3124 37.5558 37.7571L19.0581 26.9629Z" fill="#A9B9CB"/>
<path d="M13.5447 30.1607C14.6278 32.0654 16.664 33.35 18.9997 33.35C21.3499 33.35 23.3977 32.0491 24.4752 30.124L19.0578 26.9629L13.5447 30.1607Z" fill="#A9B9CB"/>
<path d="M37.9982 18.1583C37.9979 17.435 37.8443 16.7957 37.5337 16.2472L19.0583 26.9629L37.556 37.7571C37.8525 37.2168 37.9998 36.5901 38.0001 35.8824C38.0001 35.8824 38.0001 24.0675 37.9982 18.1583Z" fill="#A9B9CB"/>
<path d="M24.4756 30.1243C23.398 32.0493 21.3502 33.3503 19 33.3503C16.6643 33.3503 14.6281 32.0657 13.545 30.161C13.0009 29.2052 12.7151 28.1224 12.7163 27.0206C12.7163 23.525 15.5297 20.6911 19 20.6911C21.3208 20.6911 23.3462 21.9597 24.4347 23.845L29.9271 20.6592C27.7441 16.8632 23.6683 14.3094 19 14.3094C12.0306 14.3094 6.38086 20.0005 6.38086 27.0206C6.38086 29.3238 6.98911 31.4835 8.05215 33.3464C10.2297 37.1625 14.3171 39.732 19 39.732C23.6916 39.732 27.7853 37.1522 29.9598 33.3248L24.4756 30.1243Z" fill="white"/>
<g clip-path="url(#clip0)">
<path d="M144.938 18.1603C144.937 17.4392 144.788 16.802 144.486 16.2552C144.19 15.7175 143.745 15.2667 143.15 14.9104C138.232 11.9815 133.31 9.06149 128.393 6.12958C127.068 5.33923 125.783 5.36805 124.468 6.16974C122.51 7.36212 112.71 13.1616 109.79 14.9087C108.587 15.6279 108.002 16.7284 108.002 18.1589C108 24.0492 108.002 29.9393 108 35.8297C108 36.5349 108.143 37.1597 108.432 37.6984C108.729 38.2524 109.179 38.7155 109.788 39.0799C112.709 40.827 122.51 46.6261 124.467 47.8188C125.783 48.6209 127.068 48.6496 128.394 47.8589C133.31 44.9269 138.233 42.007 143.151 39.0781C143.761 38.7138 144.211 38.2504 144.508 37.6969C144.796 37.1582 144.939 36.5335 144.94 35.8281C144.94 35.8281 144.94 24.0507 144.938 18.1603" fill="#5C8DBC"/>
<path d="M126.526 26.9363L108.432 37.6977C108.729 38.2518 109.179 38.7149 109.788 39.0793C112.709 40.8264 122.51 46.6255 124.467 47.8182C125.783 48.6203 127.068 48.649 128.394 47.8583C133.31 44.9262 138.233 42.0064 143.151 39.0775C143.761 38.7132 144.211 38.2498 144.508 37.6963L126.526 26.9363" fill="#1A4674"/>
<path d="M121.167 30.1239C122.22 32.0226 124.199 33.3032 126.47 33.3032C128.754 33.3032 130.745 32.0063 131.792 30.0873L126.526 26.9363L121.167 30.1239" fill="#1A4674"/>
<path d="M144.938 18.1596C144.937 17.4386 144.788 16.8014 144.486 16.2545L126.526 26.9363L144.508 37.6962C144.796 37.1576 144.939 36.5328 144.94 35.8274C144.94 35.8274 144.94 24.05 144.938 18.1596" fill="#1B598E"/>
<path d="M143.949 27.7055H142.544V29.1572H141.138V27.7055H139.733V26.2542H141.138V24.8028H142.544V26.2542H143.949V27.7055ZM138.822 27.7055H137.417V29.1572H136.012V27.7055H134.606V26.2542H136.012V24.8028H137.417V26.2542H138.822V27.7055Z" fill="white"/>
<path d="M131.793 30.0872C130.745 32.0062 128.754 33.3031 126.47 33.3031C124.199 33.3031 122.22 32.0225 121.167 30.1238C120.638 29.1711 120.36 28.0918 120.361 26.9935C120.361 23.5089 123.096 20.684 126.47 20.684C128.726 20.684 130.695 21.9487 131.753 23.8279L137.092 20.6522C134.97 16.8683 131.008 14.3226 126.47 14.3226C119.695 14.3226 114.203 19.9956 114.203 26.9935C114.203 29.2893 114.794 31.4422 115.827 33.2992C117.944 37.1032 121.917 39.6645 126.47 39.6645C131.03 39.6645 135.01 37.0929 137.124 33.2777L131.793 30.0872Z" fill="white"/>
</g>
<defs>
<linearGradient id="paint0_linear" x1="296.544" y1="14.8224" x2="296.544" y2="48.3335" gradientUnits="userSpaceOnUse">
<stop stop-color="#0994DC"/>
<stop offset="0.350006" stop-color="#66CEF5"/>
<stop offset="0.846161" stop-color="#127BCA"/>
<stop offset="1" stop-color="#127BCA"/>
</linearGradient>
<linearGradient id="paint1_linear" x1="297.826" y1="13.9742" x2="297.826" y2="48.3394" gradientUnits="userSpaceOnUse">
<stop stop-color="#0E76BC"/>
<stop offset="0.360001" stop-color="#36AEE8"/>
<stop offset="0.846161" stop-color="#00ADEF"/>
<stop offset="1" stop-color="#00ADEF"/>
</linearGradient>
<linearGradient id="paint2_linear" x1="304.726" y1="40.9045" x2="304.726" y2="13.5607" gradientUnits="userSpaceOnUse">
<stop stop-color="#1C63B7"/>
<stop offset="0.5" stop-color="#33BDF2"/>
<stop offset="1" stop-color="#33BDF2" stop-opacity="0.419608"/>
</linearGradient>
<linearGradient id="paint3_linear" x1="302.928" y1="10.4918" x2="302.928" y2="46.1716" gradientUnits="userSpaceOnUse">
<stop stop-color="#166AB8"/>
<stop offset="0.399994" stop-color="#36AEE8"/>
<stop offset="0.846161" stop-color="#0798DD"/>
<stop offset="1" stop-color="#0798DD"/>
</linearGradient>
<linearGradient id="paint4_linear" x1="300.119" y1="10.6801" x2="300.119" y2="48.621" gradientUnits="userSpaceOnUse">
<stop stop-color="#124379"/>
<stop offset="0.389999" stop-color="#1487CB"/>
<stop offset="0.780228" stop-color="#165197"/>
<stop offset="1" stop-color="#165197"/>
</linearGradient>
<linearGradient id="paint5_linear" x1="284.89" y1="22.3264" x2="290.252" y2="22.3264" gradientUnits="userSpaceOnUse">
<stop stop-color="#33BDF2" stop-opacity="0.698039"/>
<stop offset="1" stop-color="#1DACD8"/>
</linearGradient>
<linearGradient id="paint6_linear" x1="325.154" y1="40.2194" x2="325.154" y2="13.5827" gradientUnits="userSpaceOnUse">
<stop stop-color="#136AB4"/>
<stop offset="0.6" stop-color="#59CAF5" stop-opacity="0.54902"/>
<stop offset="1" stop-color="#59CAF5" stop-opacity="0.235294"/>
</linearGradient>
<linearGradient id="paint7_linear" x1="265.863" y1="28.6945" x2="285.75" y2="28.6945" gradientUnits="userSpaceOnUse">
<stop stop-color="#05A1E6" stop-opacity="0.247059"/>
<stop offset="1" stop-color="#05A1E6"/>
</linearGradient>
<linearGradient id="paint8_linear" x1="276.878" y1="40.8903" x2="276.878" y2="13.6165" gradientUnits="userSpaceOnUse">
<stop stop-color="#318ED5"/>
<stop offset="1" stop-color="#38A7E4"/>
</linearGradient>
<linearGradient id="paint9_linear" x1="278.592" y1="40.9861" x2="278.592" y2="14.4744" gradientUnits="userSpaceOnUse">
<stop stop-color="#05A1E6"/>
<stop offset="1" stop-color="#05A1E6" stop-opacity="0.54902"/>
</linearGradient>
<linearGradient id="paint10_linear" x1="280.016" y1="42.3391" x2="280.016" y2="19.9364" gradientUnits="userSpaceOnUse">
<stop stop-color="#1959A6"/>
<stop offset="0.5" stop-color="#05A1E6"/>
<stop offset="0.917587" stop-color="#7EC5EA"/>
<stop offset="1" stop-color="#7EC5EA"/>
</linearGradient>
<linearGradient id="paint11_linear" x1="280.877" y1="40.9077" x2="276.592" y2="16.6176" gradientUnits="userSpaceOnUse">
<stop stop-color="#165096"/>
<stop offset="1" stop-color="#0D82CA"/>
</linearGradient>
<linearGradient id="paint12_linear" x1="320.594" y1="27.1708" x2="320.594" y2="14.4765" gradientUnits="userSpaceOnUse">
<stop stop-color="#05A1E6"/>
<stop offset="0.873627" stop-color="#0495D6"/>
<stop offset="1" stop-color="#0495D6"/>
</linearGradient>
<linearGradient id="paint13_linear" x1="326.558" y1="13.3033" x2="321.394" y2="42.5747" gradientUnits="userSpaceOnUse">
<stop stop-color="#38A7E4" stop-opacity="0.329412"/>
<stop offset="0.961533" stop-color="#0E88D3"/>
<stop offset="1" stop-color="#0E88D3"/>
</linearGradient>
<linearGradient id="paint14_linear" x1="321.941" y1="14.3305" x2="321.941" y2="42.0244" gradientUnits="userSpaceOnUse">
<stop stop-color="#168CD4"/>
<stop offset="0.5" stop-color="#1C87CC"/>
<stop offset="1" stop-color="#154B8D"/>
</linearGradient>
<linearGradient id="paint15_linear" x1="286.639" y1="13.7615" x2="293.019" y2="16.4074" gradientUnits="userSpaceOnUse">
<stop stop-color="#97D6EE"/>
<stop offset="0.703293" stop-color="#55C1EA"/>
<stop offset="1" stop-color="#55C1EA"/>
</linearGradient>
<linearGradient id="paint16_linear" x1="290.323" y1="16.9381" x2="295.362" y2="14.6541" gradientUnits="userSpaceOnUse">
<stop stop-color="#7ACCEC"/>
<stop offset="1" stop-color="#3FB7ED"/>
</linearGradient>
<linearGradient id="paint17_linear" x1="318.194" y1="15.8622" x2="318.194" y2="42.9497" gradientUnits="userSpaceOnUse">
<stop stop-color="#1DA7E7"/>
<stop offset="1" stop-color="#37ABE7" stop-opacity="0"/>
</linearGradient>
<clipPath id="clip0">
<rect x="108" y="5.51172" width="37" height="43" fill="white"/>
</clipPath>
</defs>
</svg>
