<svg width="479" height="38" viewBox="0 0 479 38" fill="none" xmlns="http://www.w3.org/2000/svg">
<path fill-rule="evenodd" clip-rule="evenodd" d="M66.1216 29.4809L61.8539 21.2877L57.4887 29.4809H52.7947L59.4501 18.9067L53.4607 8.39766H58.2196L62.1056 16.3819L66.3165 8.39766H70.6694L64.5176 18.8416L70.7668 29.4809H66.1216ZM81.3397 29.4809V27.1863H81.2747C80.1161 28.9872 78.4757 29.8877 76.3534 29.8877C74.7184 29.8877 73.4298 29.4429 72.4878 28.5533C71.5458 27.6528 71.0747 26.4485 71.0747 24.9405C71.0747 21.7074 72.8885 19.8684 76.5158 19.4236L81.3722 18.7563C81.3722 16.4889 80.3219 15.3551 78.2213 15.3551C76.2181 15.3551 74.3773 15.9735 72.699 17.2103V13.8904C73.327 13.5107 74.2257 13.169 75.3951 12.8652C76.5754 12.5614 77.6474 12.4095 78.6111 12.4095C82.8989 12.4095 85.0428 14.5794 85.0429 18.9191V29.4809H81.3397ZM77.7827 21.8484C76.6674 21.9894 75.8824 22.2661 75.4276 22.6784C74.9837 23.0798 74.7617 23.7036 74.7617 24.5499C74.7617 25.2442 75.0162 25.8138 75.5251 26.2586C76.034 26.6926 76.6999 26.9096 77.5228 26.9096C78.6381 26.9096 79.5585 26.5244 80.284 25.7541C81.0094 24.9838 81.3722 24.0237 81.3722 22.8737V21.3764L77.7827 21.8484ZM108.99 29.4809V20.0745C108.99 18.5231 108.746 17.3731 108.259 16.6245C107.783 15.865 106.927 15.4853 105.693 15.4853C104.707 15.4853 103.879 15.941 103.208 16.8523C102.536 17.7528 102.201 18.8432 102.201 20.1234V29.4809H98.4489V19.7491C98.4488 16.9065 97.3606 15.4853 95.1842 15.4853C94.1664 15.4853 93.3272 15.9138 92.6667 16.7709C92.017 17.628 91.6922 18.7455 91.6922 20.1234V29.4809H87.9403V12.8164H91.6922V15.3876H91.7572C92.9591 13.4022 94.7132 12.4095 97.0196 12.4095C98.124 12.4095 99.0986 12.7025 99.9432 13.2883C100.799 13.8633 101.4 14.6607 101.746 15.6806C103.013 13.4999 104.875 12.4095 107.333 12.4095C110.95 12.4095 112.758 14.6662 112.758 19.1795V29.4809H108.99ZM125.231 29.4809V27.1863H125.166C124.008 28.9872 122.367 29.8877 120.245 29.8877C118.61 29.8877 117.321 29.4429 116.379 28.5533C115.437 27.6528 114.966 26.4485 114.966 24.9405C114.966 21.7074 116.78 19.8684 120.407 19.4236L125.264 18.7563C125.264 16.4889 124.213 15.3551 122.113 15.3551C120.11 15.3551 118.269 15.9735 116.59 17.2103V13.8904C117.219 13.5107 118.117 13.169 119.287 12.8652C120.467 12.5614 121.539 12.4095 122.503 12.4095C126.79 12.4095 128.934 14.5794 128.934 18.9191V29.4809H125.231ZM121.674 21.8484C120.559 21.9894 119.774 22.2661 119.319 22.6784C118.875 23.0798 118.653 23.7036 118.653 24.5499C118.653 25.2442 118.908 25.8138 119.417 26.2586C119.925 26.6926 120.591 26.9096 121.414 26.9096C122.53 26.9096 123.45 26.5244 124.176 25.7541C124.901 24.9838 125.264 24.0237 125.264 22.8737V21.3764L121.674 21.8484ZM141.502 16.478C140.885 16.0983 140.159 15.9084 139.326 15.9084C138.243 15.9084 137.36 16.3749 136.678 17.308C136.007 18.241 135.671 19.4561 135.671 20.9533V29.4809H131.919V12.8164H135.671V16.0549H135.736C136.538 13.7006 137.956 12.5234 139.992 12.5234C140.652 12.5234 141.156 12.5994 141.502 12.7513L141.502 16.478ZM145.237 9.08963C144.598 9.08964 144.057 8.88351 143.613 8.47121C143.169 8.04812 142.947 7.53276 142.947 6.92518C142.947 6.29595 143.169 5.76975 143.613 5.34662C144.057 4.92351 144.598 4.71195 145.237 4.71192C145.887 4.71195 146.434 4.92894 146.878 5.36289C147.322 5.78603 147.544 6.3068 147.544 6.92518C147.544 7.53276 147.322 8.04812 146.878 8.47121C146.434 8.88351 145.887 9.08964 145.237 9.08963ZM143.321 29.4809V12.8164H147.073V29.4809H143.321ZM161.253 29.4809V20.1234C161.253 17.0313 160.143 15.4853 157.923 15.4853C156.808 15.4853 155.871 15.9138 155.113 16.7709C154.366 17.6172 153.992 18.6967 153.992 20.0094V29.4809H150.24V12.8164H153.992V15.4853H154.057C155.27 13.4348 157.068 12.4095 159.45 12.4095C163.153 12.4095 165.004 14.6879 165.005 19.2446V29.4809H161.253ZM12.1756 0C11.036 0.0024245 9.92036 0.651414 9.34665 1.64147L0.423583 17.1916C-0.141194 18.1843 -0.141194 19.4818 0.423583 20.4745L9.34665 36.0247C9.92042 37.0147 11.036 37.6639 12.1756 37.6661H30.0217C31.1614 37.6637 32.2769 37.0147 32.8507 36.0247L41.7737 20.4745C42.3385 19.4818 42.3384 18.1843 41.7737 17.1916L32.8507 1.64147C32.2769 0.651414 31.1614 0.00224267 30.0217 0H12.1756ZM12.3376 9.09701C12.3621 9.09459 12.3878 9.09459 12.4124 9.09701H15.4906C15.6268 9.09984 15.759 9.17884 15.827 9.29749L21.0488 18.6326C21.0751 18.6787 21.092 18.7302 21.0985 18.7829C21.1049 18.7301 21.1218 18.6787 21.1481 18.6326L26.3574 9.29749C26.4276 9.17524 26.5659 9.09581 26.7063 9.09701H29.7845C30.057 9.09944 30.2612 9.44386 30.1334 9.68594L25.0364 18.8331L30.1334 27.9677C30.2732 28.2111 30.0641 28.5715 29.7845 28.5691H26.7063C26.5635 28.5679 26.4243 28.483 26.3574 28.3561L21.1481 19.021C21.1218 18.9749 21.1049 18.9234 21.0985 18.8707C21.092 18.9235 21.0751 18.9749 21.0488 19.021L15.827 28.3561C15.7621 28.4794 15.6292 28.5635 15.4906 28.5691H12.4124C12.1328 28.5716 11.9237 28.2111 12.0635 27.9677L17.1605 18.8331L12.0635 9.68594C11.9413 9.46507 12.0904 9.14416 12.3376 9.09701Z" fill="#3498DB"/>
<path d="M432.218 30.1223H436.105V13.4492H432.218V30.1223ZM434.154 11.2627C435.372 11.2627 436.324 10.3189 436.324 9.1392C436.324 7.94375 435.372 7 434.154 7C432.952 7 432 7.94379 432 9.1392C432 10.3189 432.952 11.2627 434.154 11.2627ZM449.046 7.04707C442.474 7.04707 438.353 11.5614 438.353 18.7814C438.353 26.0013 442.474 30.5 449.046 30.5C455.601 30.5 459.722 26.0013 459.722 18.7814C459.722 11.5614 455.602 7.04707 449.046 7.04707ZM449.046 10.5076C453.057 10.5076 455.617 13.7164 455.617 18.7813C455.617 23.8304 453.057 27.0393 449.046 27.0393C445.018 27.0393 442.474 23.8305 442.474 18.7813C442.474 13.7165 445.019 10.5076 449.046 10.5076ZM461.362 23.7362C461.533 27.9204 464.936 30.4999 470.118 30.4999C475.566 30.4999 479 27.7944 479 23.4845C479 20.1027 477.064 18.1994 472.491 17.1456L469.9 16.5479C467.137 15.8873 465.998 15.0064 465.998 13.4964C465.998 11.6089 467.715 10.3505 470.259 10.3505C472.834 10.3505 474.598 11.6246 474.786 13.7481H478.625C478.532 9.7528 475.254 7.04719 470.29 7.04719C465.389 7.04719 461.908 9.76838 461.908 13.7952C461.908 17.0355 463.875 19.0489 468.027 20.0085L470.946 20.7006C473.786 21.3769 474.941 22.3207 474.941 23.9566C474.941 25.8441 473.053 27.1968 470.337 27.1968C467.59 27.1968 465.514 25.8284 465.264 23.7363L461.362 23.7362Z" fill="black"/>
<path d="M245.403 28.637C242.391 28.637 239.953 26.0185 239.953 22.7627C239.953 19.5684 242.391 16.9107 245.403 16.9107C247.405 16.9107 249.408 17.8805 250.26 19.6523C250.319 19.7752 250.397 19.9401 250.397 20.1469V25.3394C250.397 25.4428 250.337 25.6691 250.297 25.7306C249.367 27.5024 247.465 28.637 245.403 28.637ZM255.293 33.1085V12.5008H250.397V14.2307C249.029 12.8501 247.166 12.09 244.868 12.09C239.26 12.09 235 16.8297 235 22.7627C235 28.7209 239.26 33.5221 244.868 33.5221C247.166 33.5221 249.029 32.7172 250.397 31.3367V33.1085H255.293ZM276.556 33.1085V21.9607C276.556 16.4776 272.455 12.09 267.223 12.09C261.972 12.09 257.889 16.4776 257.889 21.9607V33.1085H262.783V21.9607C262.783 19.261 264.608 17.1986 267.223 17.1986C269.819 17.1986 271.663 19.261 271.663 21.9607V33.1085H276.556ZM289.002 28.637C285.99 28.637 283.552 26.0185 283.552 22.7627C283.552 19.5684 285.99 16.9107 289.002 16.9107C291.004 16.9107 292.907 17.942 293.858 19.6523C293.918 19.7752 293.996 19.9401 293.996 20.1469V25.3617C293.996 25.4651 293.936 25.6691 293.899 25.7306C292.966 27.5024 291.064 28.637 289.002 28.637ZM298.892 33.1085V6.31907H293.996V14.2307C292.63 12.8501 290.765 12.0257 288.467 12.0257C282.859 12.0257 278.599 16.8297 278.599 22.7627C278.599 28.7209 282.859 33.5221 288.467 33.5221C290.765 33.5221 292.63 32.7172 293.996 31.3367V33.1085H298.892ZM306.382 33.1085V22.1032C306.382 18.8474 308.027 17.1175 311.158 17.1175V12.09C304.856 12.09 301.488 15.5721 301.488 22.1032V33.1085H306.382ZM321.859 28.3911C318.887 28.3911 316.471 25.8759 316.471 22.7627C316.471 19.6718 318.887 17.1595 321.859 17.1595C324.872 17.1595 327.272 19.6718 327.272 22.7627C327.272 25.8759 324.872 28.3911 321.859 28.3911ZM321.859 33.5221C327.589 33.5221 332.225 28.7209 332.225 22.7627C332.225 16.8297 327.589 12.09 321.859 12.09C316.154 12.09 311.515 16.8297 311.515 22.7627C311.515 28.7209 316.154 33.5221 321.859 33.5221ZM336.901 10.9358C338.468 10.9358 339.736 9.59438 339.736 7.9679C339.736 6.31907 338.468 5 336.901 5C335.337 5 334.069 6.31907 334.069 7.9679C334.069 9.59438 335.337 10.9358 336.901 10.9358ZM339.339 12.5008H334.442V33.1085H339.339V12.5008ZM351.964 28.637C348.952 28.637 346.514 26.0185 346.514 22.7627C346.514 19.5684 348.952 16.9107 351.964 16.9107C353.967 16.9107 355.867 17.942 356.818 19.6523C356.88 19.7752 356.958 19.9401 356.958 20.1469V25.3813C356.958 25.4847 356.899 25.6691 356.858 25.7306C355.928 27.5024 354.026 28.637 351.964 28.637ZM361.852 33.1085V6.31907H356.958V14.2307C355.59 12.8501 353.727 12.09 351.43 12.09C345.821 12.09 341.559 16.8297 341.559 22.7627C341.559 28.7209 345.821 33.5416 351.43 33.5416C353.727 33.5416 355.59 32.7172 356.958 31.3367V33.1085H361.852Z" fill="#77C159"/>
</svg>
