<svg width="215" height="80" viewBox="0 0 215 80" fill="none" xmlns="http://www.w3.org/2000/svg">
<g clip-path="url(#clip0_111_4313)">
<path d="M106.232 30.1739H103.072C103.072 30.1739 102.696 30.4058 102.696 30.9855C102.696 31.6811 103.072 31.8261 103.072 31.8261H105.884C109.942 31.8261 112.522 34.5507 112.522 39.913C112.522 45.6811 110 48.1739 105.507 48.1739H103.681C103.42 48.1739 103.188 47.8551 103.188 47.6812C103.188 46.6087 103.188 39.8261 103.188 39.2754C103.188 36.4928 101.275 34.9565 98.2029 34.9565C96.116 34.9565 94.6377 35.8841 93.7971 37.4783C93.7971 36.9565 93.7971 36 93.7971 35.7391C93.7971 35.4783 93.6232 35.3333 93.4203 35.3333C93.1884 35.3333 88.2029 35.3333 88.2029 35.3333C88.2029 35.3333 87.8551 35.6232 87.8551 36.1739C87.8551 36.7536 88.1739 36.9855 88.1739 36.9855C88.1739 36.9855 88.9855 36.9855 89.3623 36.9855C89.6522 36.9855 90 37.3044 90 37.6812C90 38 90 47.6812 90 47.6812C90 47.913 89.7102 48.1449 89.5073 48.1449H88.3768L87.8841 49.5942C91.2754 49.5942 95.3334 49.5942 95.3334 49.5942C95.3334 49.5942 95.5942 49.3623 95.5942 48.8406C95.5942 48.3478 95.3334 48.1449 95.3334 48.1449H94.4348C94.1739 48.1449 94 47.942 94 47.7101V39.913C94.7247 37.913 96.145 36.7536 97.3334 36.7536C98.4348 36.7536 99.1305 37.5942 99.1305 38.8406C99.1305 39.4783 99.1305 46.4348 99.1305 47.5942C99.1305 47.913 98.8986 48.1449 98.6957 48.1449H97.6232C97.6232 48.1449 97.3334 48.3478 97.3334 48.8406C97.3334 49.3623 97.6232 49.5942 97.6232 49.5942H106.406C115.13 49.5942 117.391 44.3478 117.391 39.913C117.391 32.8696 112.522 30.1739 106.232 30.1739Z" fill="white"/>
<path d="M86.6086 48.1449C85.6521 48.058 85.5362 47.5072 85.5362 46.8696V39.2174C85.5362 38.1159 85.1304 36.8116 84.2028 36.029C83.0144 35.0435 81.3043 34.7826 79.826 34.7826C77.884 34.7826 76.3768 35.0145 74.8115 35.5362C74.6376 35.6232 74.5797 35.7681 74.5797 36C74.5797 36.7826 74.5797 37.2174 74.5797 38.1159C74.5797 38.2899 74.6956 38.4058 74.8405 38.4058C74.8405 38.4058 75.5651 38.4058 75.6521 38.4058C75.826 38.4058 75.9999 38.3188 76.1159 38.1449C76.5796 37.5362 77.1304 37.0435 77.5941 36.7826C77.9999 36.5797 78.6666 36.3188 79.3333 36.3188C80.9275 36.3188 81.5941 37.4783 81.5941 38.8406V40.9565C75.5941 40.6087 73.1304 42.3768 73.1304 45.1884C73.1304 48.4348 75.3623 49.7971 77.5652 49.7971C79.5362 49.7971 81.0434 49.0435 81.855 47.8841C82.0289 48.8985 82.6376 49.5942 83.4202 49.5942C83.826 49.5942 85.0434 49.5942 86.5507 49.5942L87.0724 48.1449H86.6086ZM81.5941 46.029C80.9854 46.8406 79.9999 47.5072 78.9275 47.5072C77.5652 47.5072 76.7826 46.8406 76.7826 45.3043C76.7826 43.5072 77.6231 42.5507 81.5941 42.5507V46.029Z" fill="white"/>
<path d="M127.043 48.1449H125.391C125.13 48.1449 124.985 48 124.985 47.7681C124.985 47.7681 124.985 36.2029 124.985 35.884C124.985 35.5362 124.87 35.3333 124.464 35.3333C124.058 35.3333 119.391 35.3333 119.391 35.3333C119.391 35.3333 119.043 35.6522 119.043 36.1449C119.043 36.6087 119.391 36.9565 119.391 36.9565C119.391 36.9565 120.696 36.9565 120.812 36.9565C120.899 36.9565 120.985 37.0145 120.985 37.1594C120.985 37.3043 120.985 47.7391 120.985 47.7391C120.985 47.971 120.783 48.1449 120.609 48.1449H118.985C118.985 48.1449 118.667 48.3478 118.667 48.8406C118.667 49.3044 118.985 49.5942 118.985 49.5942H127.043C127.043 49.5942 127.304 49.3044 127.304 48.8406C127.304 48.3768 127.043 48.1449 127.043 48.1449Z" fill="white"/>
<path d="M64.5507 37.1884C61.7681 36.2318 61.2174 35.4203 61.2174 34.2898C61.2174 33.0724 62.3478 31.826 64.7826 31.826C65.6232 31.826 66.4928 32.1159 67.3334 32.6376C67.8261 32.9565 68.3768 33.4782 68.9855 34.5217C69.0435 34.6376 69.1884 34.6956 69.2754 34.6956C69.5072 34.6956 70.1449 34.6956 70.1449 34.6956C70.2609 34.6956 70.3188 34.6086 70.3188 34.4637C70.3188 33.855 70.3188 32.1739 70.3188 31.1594C70.3188 30.9854 70.2029 30.8695 70.029 30.7826C68.3768 30.2608 66.7536 29.9999 64.6087 29.9999C60.6377 29.9999 58 32.2608 58 35.7101C58 39.1014 60.5797 40.5217 63.9131 41.5652C66.058 42.2029 68.5797 43.1014 68.5797 45.1884C68.5797 46.4347 67.4203 47.884 65.1305 47.884C63.3913 47.884 62.2319 47.2463 61.5652 46.5507C60.8696 45.855 60.2319 45.1883 59.6232 43.913C59.5652 43.7681 59.4493 43.6231 59.3043 43.6231C58.9565 43.6231 58.2899 43.5942 58.2899 43.5942C58.1449 43.6231 58.029 43.7101 58.029 43.913C58.029 44.7246 58.029 46.8695 58.029 47.7681C58.029 47.913 58.1159 48.1449 58.2609 48.2318C60.2609 49.3623 62.8406 49.7971 64.9855 49.7971C68.8116 49.7681 71.7391 47.2463 71.7391 43.1884C71.7391 38.8405 67.7391 38.2898 64.5507 37.1884Z" fill="white"/>
<path d="M135.101 40.5797C132.203 39.884 131.594 39.3623 131.594 38.3478C131.594 37.4783 132.348 36.5507 133.884 36.5507C135.391 36.5507 136.783 37.4493 137.449 38.4638C137.536 38.6087 137.652 38.6667 137.826 38.6667C138.087 38.6667 138.406 38.6667 138.551 38.6667C138.696 38.6667 138.754 38.5797 138.754 38.4927C138.754 38.4058 138.754 36.7246 138.754 35.971C138.754 35.7971 138.667 35.6232 138.464 35.5652C137.362 35.2464 135.681 35.0145 133.855 35.0145C131.391 35.0145 128.725 36.4348 128.725 39.4493C128.725 42.058 130.812 43.4783 132.609 43.942C135.681 44.7826 136.58 45.2174 136.58 46.5217C136.58 47.6522 135.681 48.3478 134.145 48.3478C132.58 48.3478 131.13 47.2174 130.29 45.1594C130.145 44.9565 130.058 44.8985 129.913 44.8985C129.507 44.8696 129.072 44.8985 128.957 44.8985C128.812 44.8985 128.696 44.9565 128.696 45.1594C128.696 45.8841 128.696 47.942 128.696 48.1449C128.696 48.3768 129.015 48.6087 129.015 48.6087C129.015 48.6087 129.884 49.1594 130.87 49.5072C131.71 49.7681 132.725 50 134.145 50C137.768 50 139.478 47.7681 139.478 45.1304C139.478 42.7826 138.145 41.3043 135.101 40.5797Z" fill="white"/>
<path d="M121.304 33.3333H124.928C125.13 33.3333 125.275 33.2464 125.333 33.0725L126.174 30.4638C126.232 30.2609 126.087 30.1449 125.884 30.1449H122.087C121.884 30.1449 121.768 30.2609 121.739 30.4348L121.043 32.8116C120.928 33.1014 121.072 33.3333 121.304 33.3333Z" fill="white"/>
<path d="M157.391 48.1739C156.522 48.1739 155.884 47.8841 155.507 47.3333C155.333 47.0725 150.812 40.1739 150.696 40C151.855 38.4348 152.435 37.8261 153.449 37.3044C154.116 36.9565 155.362 36.6957 156.29 36.6957C156.29 36.6957 156.493 36.5217 156.493 36.029C156.493 35.5073 156.29 35.3044 156.29 35.3044L151.739 35.3334C151.565 35.3334 151.362 35.4493 151.188 35.6812C151.101 35.8261 147.536 40.9276 146.58 42.2899C146.58 37.3333 146.58 30.7826 146.58 30.6667C146.58 30.3768 146.406 30.1739 146.087 30.1739C145.739 30.1739 140.406 30.1449 140.406 30.1449C140.406 30.1449 140.116 30.3768 140.116 30.8406C140.116 31.3333 140.406 31.5942 140.406 31.5942C140.406 31.5942 142.029 31.5942 142.232 31.5942C142.464 31.5942 142.551 31.7102 142.551 31.942C142.551 32.1739 142.551 47.7971 142.551 47.7971C142.551 48.029 142.435 48.1449 142.29 48.1449H140.551C140.551 48.1449 140.261 48.3768 140.261 48.8406C140.261 49.3044 140.551 49.5942 140.551 49.5942H148.116C148.116 49.5942 148.348 49.2754 148.348 48.8406C148.348 48.4058 148.116 48.1449 148.116 48.1449H146.899C146.725 48.1449 146.58 48 146.58 47.8261C146.58 47.8261 146.58 46.2899 146.58 44.1449C146.928 43.7681 147.594 43.1015 147.652 43.0145C147.884 42.7826 148.145 42.8696 148.261 43.0725C148.435 43.3044 151.304 47.7391 151.362 47.8551C151.507 48.058 151.42 48.1739 151.275 48.1739H150.377C150.377 48.1739 150.145 48.5218 150.145 48.8696C150.145 49.2464 150.348 49.5942 150.348 49.5942H157.913C157.913 49.5942 158.145 49.3044 158.145 48.8986C158.145 48.4928 157.855 48.1739 157.855 48.1739C157.855 48.1739 157.652 48.1739 157.391 48.1739" fill="white"/>
</g>
<defs>
<clipPath id="clip0_111_4313">
<rect width="100.145" height="20" fill="white" transform="translate(58 30)"/>
</clipPath>
</defs>
</svg>
