<svg width="215" height="80" viewBox="0 0 215 80" fill="none" xmlns="http://www.w3.org/2000/svg">
<path d="M115.857 50.0922H108.247C108.027 50.0923 107.81 50.0483 107.608 49.9626C107.406 49.8771 107.223 49.7517 107.071 49.5939C106.918 49.4362 106.799 49.2494 106.72 49.0447C106.641 48.8398 106.604 48.6212 106.611 48.4019V31.2138C106.608 30.9985 106.649 30.7849 106.73 30.5855C106.811 30.3861 106.932 30.2051 107.084 30.0532C107.237 29.9013 107.419 29.7815 107.618 29.701C107.818 29.6205 108.032 29.5809 108.247 29.5846H115.361C119.271 29.5846 121.613 31.8587 121.613 34.8116C121.613 37.7646 119.787 38.8846 119.149 39.095C120.133 39.3463 122.815 40.4527 122.815 44.2203C122.815 47.4244 120.228 50.0922 115.857 50.0922ZM115.219 32.5986H109.91V37.7713H115.219C117.323 37.7713 118.314 36.6037 118.314 35.185C118.314 33.7662 117.384 32.5986 115.219 32.5986ZM115.972 40.7446H109.91V47.0442H115.972C118.402 47.0442 119.516 45.4693 119.516 43.9012C119.516 42.3331 118.416 40.7582 115.972 40.7582V40.7446ZM132.264 50.0787H127.248C127.027 50.0834 126.807 50.043 126.602 49.9603C126.398 49.8775 126.212 49.754 126.056 49.5971C125.901 49.4403 125.779 49.2534 125.698 49.0479C125.616 48.8425 125.578 48.6227 125.584 48.4019V31.2138C125.584 30.9969 125.628 30.7823 125.712 30.5824C125.796 30.3825 125.919 30.2013 126.074 30.0496C126.228 29.8979 126.412 29.7786 126.614 29.6987C126.815 29.6189 127.031 29.5801 127.248 29.5846H132.298C139.141 29.5846 142.956 34.1464 142.956 39.835C142.956 45.5236 139.1 50.0922 132.298 50.0922L132.264 50.0787ZM132.094 32.5986H128.911V47.0442H132.094C136.941 47.0442 139.643 44.1795 139.643 39.8078C139.643 35.4361 136.975 32.5986 132.094 32.5986Z" fill="white"/>
<path d="M78.9016 39.1021L71.1358 41.7564C71.046 41.1176 71.0006 40.4734 71 39.8284C70.9982 37.8836 71.4101 35.9607 72.2083 34.1873L78.9288 38.9391C78.9695 38.9731 78.9899 39.0003 78.9899 39.0274C78.9899 39.0546 78.9492 39.1021 78.9016 39.1156V39.1021ZM84.6989 26.082C82.0925 26.085 79.5414 26.8341 77.3471 28.2407L82.9883 34.2145C83.0289 34.2552 83.0561 34.2756 83.0901 34.2756C83.124 34.2756 83.1579 34.2756 83.1715 34.1873C83.2191 33.8072 84.6989 26.082 84.6989 26.082ZM80.3679 35.993C80.3727 35.9707 80.3727 35.9475 80.3679 35.9251L77.2589 28.295C75.0769 29.7149 73.3404 31.7221 72.2491 34.0855L80.2254 36.0609H80.2933C80.3027 36.0619 80.3123 36.0608 80.3213 36.0578C80.3304 36.0548 80.3387 36.05 80.3457 36.0436C80.3527 36.0372 80.3584 36.0294 80.3622 36.0207C80.366 36.012 80.368 36.0025 80.3679 35.993ZM90.5911 39.1021L98.3638 41.7564C98.4514 41.1174 98.4945 40.4733 98.4929 39.8284C98.4968 37.8842 98.0872 35.9613 97.2913 34.1873L90.564 38.9391C90.5233 38.9731 90.5029 39.0003 90.5029 39.0274C90.5029 39.0546 90.5505 39.0885 90.5911 39.1021ZM86.3213 34.1873C86.3213 34.2552 86.3756 34.2756 86.4095 34.2756C86.4435 34.2756 86.4707 34.2756 86.5046 34.2145L92.1525 28.2407C89.9575 26.8358 87.4069 26.0869 84.8008 26.082C84.8008 26.082 86.2534 33.8072 86.3213 34.1873ZM89.1995 36.0677H89.2674L97.2437 34.0923C96.1525 31.7288 94.416 29.7217 92.234 28.3018C92.234 28.3018 89.1589 35.898 89.1385 35.9319C89.1372 35.9545 89.1372 35.9772 89.1385 35.9998C89.1384 36.0167 89.1446 36.033 89.1559 36.0456C89.1672 36.0581 89.1827 36.066 89.1995 36.0677Z" fill="white"/>
<path d="M84.7472 53.5741C88.0321 53.5679 91.2066 52.3868 93.6965 50.2441C96.1866 48.1014 97.8279 45.1387 98.3238 41.8912L93.1986 42.6108C93.1677 42.6105 93.1377 42.6213 93.1139 42.6412C93.0903 42.6611 93.0745 42.6889 93.0697 42.7195C92.5575 44.1963 91.6623 45.5107 90.4755 46.5281C89.2888 47.5456 87.8531 48.2294 86.3153 48.5099C87.0541 48.1506 87.6492 47.5514 88.0035 46.8102C88.3577 46.0689 88.4502 45.2295 88.2659 44.4289C88.0815 43.6284 87.6312 42.9139 86.9884 42.4023C86.3455 41.8908 85.5483 41.6122 84.7268 41.6122C83.9053 41.6122 83.108 41.8908 82.4652 42.4023C81.8224 42.9139 81.372 43.6284 81.1876 44.4289C81.0033 45.2295 81.0958 46.0689 81.4501 46.8102C81.8044 47.5514 82.3996 48.1506 83.1383 48.5099C81.6091 48.2218 80.1833 47.5344 79.0054 46.5175C77.8276 45.5005 76.9396 44.1903 76.4314 42.7195C76.4253 42.6895 76.4092 42.6625 76.3858 42.6426C76.3624 42.6229 76.333 42.6117 76.3024 42.6108L71.1569 41.8912C71.6514 45.1392 73.2924 48.1029 75.7827 50.2458C78.273 52.3887 81.4482 53.5694 84.7335 53.5741" fill="white"/>
</svg>
