<svg width="215" height="80" viewBox="0 0 215 80" fill="none" xmlns="http://www.w3.org/2000/svg">
<path d="M77.188 36.6755C75.702 32.3521 71.4398 30.9601 68.6147 31.0583C65.1526 31.1566 63.2583 33.9406 63.1604 33.9406V32.3521C63.1604 32.0082 63.1604 31.5496 62.5725 31.5496L58.8492 31.5988C58.3593 31.5988 58 31.697 58 32.2866V55.0502C58 55.5906 58.245 55.9509 58.9961 55.9509H62.7194C63.2093 55.9509 63.7156 55.5578 63.6666 55.0502V47.9427C63.6666 47.7953 63.6666 47.7462 63.8626 47.9427C64.2055 48.434 65.5446 50.1863 69.2679 50.2354C76.7961 50.3828 78.968 41.7359 77.188 36.6755ZM72.191 40.9498C72.093 42.8332 70.9989 45.175 67.8798 45.2733C64.5158 45.3715 63.3237 43.2426 63.2257 40.7042C63.0787 37.9693 64.8587 36.086 67.6838 36.0368C70.9499 36.0368 72.24 38.5261 72.142 40.9498H72.191ZM109.44 31.1075C107.954 31.1075 106.468 31.0583 105.178 31.9591C104.329 32.4995 103.692 33.2528 103.202 34.1535C103.104 34.3501 103.006 34.6448 103.006 34.3501V32.3685C102.957 31.8772 102.614 31.5169 101.961 31.5169H98.1397C97.5518 31.5169 97.3395 32.0573 97.3395 32.4176V48.7124C97.3395 49.7114 97.8294 49.7605 98.3847 49.7605H101.961C102.549 49.7605 102.957 49.6131 102.957 48.7615V42.7022C102.957 41.3593 102.908 39.9181 103.349 38.6244C103.643 37.6254 104.345 36.8884 105.227 36.4299C106.125 36.0368 107.056 35.9386 108.003 35.9386C108.803 36.0368 110.24 36.4299 110.24 35.1361V31.9427C110.24 31.5496 109.897 31.0911 109.44 31.1402V31.1075ZM131.094 40.4913C131.045 35.0706 127.73 32.434 125.64 31.697C122.962 30.6981 120.333 30.7963 118.161 32.2866C117.524 32.7451 116.952 33.3019 116.479 33.9243H116.381V32.2375C116.381 31.8444 115.989 31.4841 115.58 31.4841H112.118C111.58 31.4841 111.269 31.9754 111.269 32.4831V55.0993C111.269 55.3449 111.269 55.9509 112.118 56H115.94C116.332 56 116.887 55.9017 116.887 55.001V47.8936C116.936 47.697 117.083 47.8936 117.181 48.0901C117.981 49.2364 119.957 50.1208 121.982 50.219C124.807 50.3664 126.93 49.3675 128.628 47.4841C130.229 45.5026 131.078 43.0297 131.061 40.4749H131.094V40.4913ZM125.395 40.8516C125.444 43.3408 123.566 45.3224 121.084 45.3224C117.36 45.2242 116.479 42.4893 116.43 40.9498C116.43 37.4289 118.667 36.1842 120.545 36.0368C124.105 35.824 125.346 38.3623 125.395 40.8516ZM155.981 40.8025C156.373 33.8424 150.527 28.3726 142.199 32.3521C136.989 34.7922 135.863 42.2927 139.325 46.567C143.538 51.8403 151.458 50.9887 154.642 47.2549C155.083 46.7636 154.789 46.3541 154.348 46.0102L151.817 44.2252C151.474 43.9795 150.968 44.0778 150.723 44.3726C150.233 44.913 148.992 46.0594 147.163 46.0102C144.828 46.0102 143.391 44.52 142.95 42.4893L155.132 42.391C155.883 42.3419 155.818 41.7523 155.932 40.7533L155.981 40.8025ZM142.999 38.5589C143.146 36.3644 144.975 35.087 147.016 35.087C149.09 35.1361 150.282 36.5773 150.478 38.5589H143.048H142.999ZM94.0898 31.5496H90.8238C89.9746 31.5496 89.6317 32.1883 89.6317 32.8925C89.6317 32.8925 89.7786 40.5404 89.5337 42.0798C89.3377 43.6684 88.6845 45.1095 86.3656 45.2569C83.7364 45.3552 83.4915 42.7677 83.3935 42.2764V32.6796C83.3935 32.0901 82.9526 31.4841 82.2504 31.4841H78.2332C77.8902 31.4841 77.7433 31.7789 77.6943 31.9754L77.7433 32.827C77.8412 33.1218 78.4291 33.9243 78.7394 34.4647C80.1928 37.3961 80.5357 40.7533 79.6866 43.914C79.2456 45.5026 78.9354 45.9447 78.6904 46.5507C78.3475 47.3531 79.7845 49.0399 81.1236 49.5312C82.9526 50.219 87.3618 51.0215 89.795 47.1894V48.5322C89.795 49.0235 90.1869 49.6786 91.0361 49.6786H94.1061C94.694 49.6786 95.2003 49.1873 95.2003 48.4831V32.7288C95.1676 32.1064 94.6777 31.5496 94.0898 31.5496ZM135.405 24H131.682C130.833 24 130.588 24 130.588 24.8025V30.4688C130.588 31.3204 130.441 32.4995 130.882 33.2037C131.731 34.5466 133.07 36.7738 133.217 39.1157C133.315 41.3593 133.07 43.5865 132.123 45.6827C131.633 46.6817 130.882 47.4678 130.637 48.5159C130.539 48.9089 130.49 49.3019 130.49 49.7114C130.49 50.0061 130.637 50.563 131.29 50.563H135.111C135.552 50.563 136.108 50.4647 136.108 49.7114V24.8516C136.108 24.3439 135.863 24 135.405 24Z" fill="white"/>
</svg>
