<svg width="215" height="80" viewBox="0 0 215 80" fill="none" xmlns="http://www.w3.org/2000/svg">
<path d="M97.8953 34.3L93.6307 41.0375L89.4168 34.3H87.5313V45.675H89.4168V38.35C89.4168 38.2125 89.4168 38.075 89.4041 37.9375C89.3915 37.8 89.3915 37.6625 89.3662 37.5C89.4548 37.7375 89.594 38 89.7585 38.25L92.8208 43.1125H94.3394L97.3764 38.25C97.4524 38.125 97.5283 38.0125 97.6169 37.8875C97.7055 37.7625 97.7814 37.6375 97.8573 37.5C97.8447 37.65 97.832 37.8 97.8194 37.9375C97.8067 38.075 97.8067 38.2125 97.8067 38.35V45.675H99.6669V34.3H97.8953ZM103.704 45.675L107.411 36.7375C107.437 36.65 107.475 36.55 107.513 36.45C107.551 36.35 107.589 36.2375 107.614 36.1C107.639 36.2375 107.677 36.35 107.715 36.45C107.753 36.55 107.791 36.65 107.816 36.7375L109.841 41.6H105.501L106.627 43.2625H110.524L111.537 45.675H113.524L108.664 34.3H106.64L101.78 45.675H103.704V45.675ZM132.72 45.675L137.402 34.3H135.378L132.075 42.875C131.974 43.1625 131.86 43.5 131.759 43.875C131.657 43.5 131.543 43.1625 131.442 42.875L128.152 34.3H126.039L130.721 45.675H132.72ZM150.563 34.3V45.675H158.067V43.9875H152.449V34.3H150.563ZM160.358 34.3V45.675H167.938V43.9875H162.243V34.3H160.358ZM141.427 35.9875H147.463V34.3H139.566V45.675H147.577V43.9875H141.427V35.9875ZM124.634 37.7125C124.634 36.65 124.305 35.8125 123.634 35.2125C122.964 34.6125 121.85 34.3 120.281 34.3H115.586V45.675H117.472V35.9875H120.357C121.901 35.9875 122.685 36.6125 122.685 37.875C122.685 39.225 121.85 39.9 120.18 39.9H118.661L117.586 41.5375H120.142L123.318 45.675H125.596L122.103 41.125C123.786 40.525 124.634 39.3875 124.634 37.7125ZM146.653 39.125H141.54L142.692 40.8125H146.653V39.125ZM58.1603 35.8875L61.9693 39.7375C62.0579 39.825 62.1465 39.875 62.2224 39.875C62.2983 39.875 62.3869 39.825 62.4755 39.7375L66.2845 35.8875C66.3731 35.8 66.4237 35.7125 66.4237 35.6375C66.4237 35.5125 66.3604 35.4625 66.2212 35.4625H58.2363C58.0971 35.4625 58.0338 35.525 58.0338 35.6375C58.0211 35.7125 58.0717 35.8 58.1603 35.8875ZM80.4448 22.2C80.4448 22.0625 80.3815 22 80.255 22C80.1791 22 80.1031 22.0375 80.0272 22.1125L76.9016 25.2375V54.7375L80.0272 57.8875C80.1031 57.9625 80.1791 58 80.255 58C80.3815 58 80.4448 57.9375 80.4448 57.8V22.2ZM44 57.8C44 57.9375 44.0633 58 44.1898 58C44.2657 58 44.3417 57.9625 44.4176 57.8875L47.5432 54.7375V25.2375L44.4176 22.1125C44.3417 22.0375 44.2531 22 44.1898 22C44.0633 22 44 22.0625 44 22.2V57.8ZM52.1242 29.85H72.3333L75.1679 27C75.2438 26.925 75.2818 26.85 75.2818 26.775C75.2818 26.65 75.2185 26.5875 75.0793 26.5875H49.3655C49.2263 26.5875 49.163 26.65 49.163 26.775C49.163 26.85 49.201 26.925 49.2769 27L52.1242 29.85ZM49.2769 53C49.201 53.075 49.163 53.15 49.163 53.225C49.163 53.35 49.2263 53.4 49.3655 53.4H75.0667C75.2059 53.4 75.2691 53.3375 75.2691 53.225C75.2691 53.15 75.2312 53.075 75.1552 53L72.3206 50.15H52.1242L49.2769 53ZM70.8021 48.625C70.878 48.7 70.954 48.7375 71.0299 48.7375C71.1564 48.7375 71.2071 48.675 71.2071 48.5375V31.4625C71.2071 31.325 71.1438 31.2625 71.0299 31.2625C70.954 31.2625 70.878 31.3 70.8021 31.375L67.841 34.35V45.6625L70.8021 48.625ZM56.6038 45.65V34.35L53.6427 31.375C53.5668 31.3 53.4908 31.2625 53.4149 31.2625C53.2884 31.2625 53.2377 31.3375 53.2377 31.4625V48.5375C53.2377 48.675 53.301 48.7375 53.4149 48.7375C53.4908 48.7375 53.5668 48.7 53.6427 48.625L56.6038 45.65ZM167.862 34.3V34.5125H168.393V35.7375H168.634V34.5125H169.165V34.3H167.862ZM170.772 34.3L170.228 35.15L169.697 34.3H169.456V35.7375H169.697V34.8125C169.697 34.8 169.697 34.775 169.697 34.7625C169.697 34.75 169.697 34.725 169.697 34.7125C169.709 34.7375 169.722 34.775 169.747 34.8125L170.14 35.425H170.329L170.709 34.8125C170.722 34.8 170.734 34.7875 170.734 34.7625C170.734 34.7375 170.76 34.7375 170.76 34.7125C170.76 34.7375 170.76 34.75 170.76 34.7625C170.76 34.775 170.76 34.8 170.76 34.8125V35.7375H171V34.3H170.772Z" fill="white"/>
</svg>
