<svg width="215" height="80" viewBox="0 0 215 80" fill="none" xmlns="http://www.w3.org/2000/svg">
<path d="M107.413 25.8193C108.028 25.8462 108.614 26.0661 109.079 26.4435C109.712 27.0054 109.878 27.9422 109.578 28.6917C108.413 30.9395 105.643 32.4408 103.75 32.9375C102.618 33.1872 101.186 33.1872 100.154 32.8127C99.6537 33.0936 99.232 34.0015 98.6216 33.6242C97.7382 32.9773 98.5029 31.965 97.9929 31.2466C97.8877 31.0987 97.6228 31.0879 97.4897 30.8458C96.79 29.4096 97.6561 28.0358 98.6216 26.9434C100.231 25.2597 104.849 23.3838 107.413 25.8193ZM102.052 26.9429C101.152 27.099 100.137 27.4659 99.5876 28.067C99.038 28.6678 98.6887 29.2536 99.0216 29.8778C100.187 29.0663 100.753 27.9422 102.052 27.2555C102.052 27.1302 102.252 27.0366 102.052 26.9429ZM107.481 27.2555C105.182 27.0678 103.451 28.6917 101.819 30.2524C101.719 30.5021 101.12 30.783 101.586 31.0639C103.784 31.2512 105.882 30.6586 107.481 29.2843C107.947 28.8786 108.279 28.3479 108.047 27.7857C107.947 27.5676 107.712 27.3492 107.481 27.2555ZM127.394 36.5591C128.46 38.9945 129.359 42.8341 127.394 45.1759C126.861 45.7378 125.929 46.2557 125.33 45.8314C123.132 44.1771 122.2 41.8041 120.834 39.6807C120.635 39.5871 120.635 39.8373 120.535 39.9309C120.035 42.085 120.968 44.895 119.403 46.5805C118.804 46.6741 118.243 46.3851 118.037 45.8314C117.271 43.6149 118.07 41.3042 118.269 39.0877C118.736 37.9636 118.936 36.6527 119.968 35.8095C121.633 36.4338 122.433 38.1826 123.398 39.4627C124.098 40.4303 124.663 41.5232 125.462 42.3971C126.161 42.1162 125.817 41.2595 125.796 40.7424C125.528 38.7132 124.929 36.84 124.363 34.9044C124.33 34.405 124.031 33.5618 124.596 33.2496C126.096 33.8743 126.728 35.3413 127.394 36.5591ZM117.337 35.8095C117.337 36.2781 116.938 36.8635 116.604 36.9336C113.407 37.4018 109.844 37.1209 106.847 38.0573C106.747 38.4006 107.18 38.463 107.413 38.5566C109.977 38.9312 112.675 39.0248 115.173 39.6183C116.493 39.9327 116.971 41.3983 117.071 42.6156C117.133 43.5755 116.739 44.7385 115.739 45.3944C113.275 46.8618 109.512 46.799 107.014 45.4573C106.059 44.9552 105.149 44.1464 105.082 43.1471C105.088 42.3537 105.449 41.729 106.048 41.43C108.446 40.5244 111.41 41.0247 113.475 42.1791C113.607 42.8038 112.887 42.7699 112.542 42.9911C110.243 44.24 108.512 41.587 106.381 42.5536C106.081 42.7409 105.865 43.2634 106.214 43.428C108.845 44.5209 111.776 43.7402 114.373 43.0535C114.673 42.9599 115.04 42.6789 115.072 42.398C114.972 41.3988 113.774 41.1807 113.008 40.8998C110.743 40.3692 108.246 40.3692 105.814 40.1507C105.348 40.0571 104.754 39.7527 104.616 39.4016C104.35 38.6525 104.35 37.6221 104.949 36.9978C108.046 34.4375 112.741 34.6565 116.67 35.3431C116.937 35.435 117.237 35.5286 117.337 35.8095ZM102.785 36.996C103.084 39.9929 103.251 42.7721 103.184 45.925C103.118 46.3303 102.618 46.4244 102.285 46.5805C101.753 46.6741 101.064 46.5678 100.853 46.2996C100.087 45.1438 100.354 43.5836 100.287 42.1786C100.387 39.9626 100.354 37.5583 101.02 35.4974C101.148 35.1979 101.52 34.9356 101.819 35.1224C102.618 35.4974 102.751 36.2469 102.785 36.996ZM139.784 36.5591C139.944 36.8115 140.111 37.2014 139.784 37.3706C138.285 37.9948 136.254 37.7139 134.522 37.9012C134.056 38.2757 133.689 38.9 133.855 39.4623C134.022 39.5559 134.172 39.6984 134.355 39.6803C135.42 39.7432 137.019 39.2121 137.719 40.1485C137.89 40.4271 137.696 41.4675 137.22 41.4911C135.921 41.648 133.784 41.3382 133.156 41.648C132.357 42.1474 132.423 43.115 132.124 43.8962C132.69 44.2396 133.283 43.8881 133.955 43.8021C135.188 43.6149 136.554 43.2715 137.785 43.5212C138.018 43.927 138.352 44.3644 138.118 44.8638C136.019 46.4249 133.311 48.0248 130.426 46.8931C129.343 46.438 128.861 44.895 129.227 43.5846C129.46 42.6477 130.492 41.7426 129.86 40.7433C129.76 40.3059 130.027 39.9318 130.426 39.8382C131.525 39.8382 131.291 38.558 131.858 37.9645C131.225 37.3091 129.627 37.3403 129.794 36.0289C130.56 35.6544 131.493 35.7792 132.357 35.6544C134.322 35.2794 136.52 35.0609 138.519 35.2794C138.917 35.3544 139.451 36.0909 139.784 36.5591ZM92.2279 29.4408C95.301 31.7958 99.288 35.81 98.7886 40.4303C98.1888 44.0835 94.0595 46.8306 90.5627 47.705C87.1659 48.6414 82.9034 48.5478 79.4394 47.7987C79.2064 48.3922 78.9733 49.1096 78.2409 49.3597C77.7748 49.5158 77.175 49.4222 76.8088 49.1413C75.7767 48.2356 76.609 46.4873 75.1104 45.9259C72.1796 44.7706 69.0158 42.4912 67.5176 39.6817C67.3178 39.1198 67.5509 38.558 67.9171 38.121C70.2153 36.4039 73.1123 35.7172 76.0098 35.1862C76.1762 35.2486 76.1096 35.0301 76.2428 34.9677C76.4093 33.0945 76.4759 31.1896 77.1084 29.5037C77.2527 29.2671 77.6078 29.1916 77.8414 29.3477C79.673 30.6586 78.8069 33.1257 79.6064 34.9048C83.1031 35.0609 86.5999 35.2169 89.3637 37.0594C90.2964 37.7772 90.5237 39.1483 90.2293 39.9318C89.9355 40.7139 88.9642 41.2744 88.0648 41.3359C87.465 41.3359 86.3331 41.3906 86.3996 40.9618C86.4662 40.5325 88.4368 39.83 87.8317 39.2442C86.9618 38.4024 82.609 37.9016 79.9113 37.5895C79.5784 37.5271 79.273 37.6207 79.273 37.9641C79.2064 40.3367 79.0066 42.9589 79.4394 45.2388C79.4727 45.3953 79.6725 45.5826 79.8394 45.6129C84.6013 46.3312 89.6301 45.925 93.3599 43.3652C95.0916 42.0547 95.6581 40.2114 95.3579 38.1826C93.8593 32.5318 87.5654 29.1283 82.4035 26.9429C77.3753 24.8825 71.8134 23.8208 65.8524 24.1022C64.9033 24.1673 63.3994 24.4745 63.3883 24.7893C63.3772 25.1041 65.092 25.0051 64.8864 25.6008C64.6814 26.1961 62.9386 25.8428 62.4223 25.6944C61.906 25.5461 61.9562 24.8513 62.0893 24.4143C63.3883 22.2602 67.0129 22.086 68.65 22.0105C77.7077 21.7915 86.4667 25.0254 92.2279 29.4408ZM75.9099 37.808C73.6117 37.8392 71.1808 38.0577 69.0495 38.8068C68.6167 38.9629 68.0836 39.3998 68.4165 39.9309C69.2821 41.0233 70.5202 41.9203 71.6802 42.5532C72.8401 43.1851 74.3779 43.9894 75.7767 44.1771C76.1096 42.1474 76.1096 40.1494 76.0763 38.0577C75.9427 37.9953 76.0759 37.8704 75.9099 37.808ZM144.745 34.9668C144.645 37.6827 141.947 39.3691 141.947 42.085C142.047 42.1786 142.114 42.3035 142.246 42.242C144.412 40.025 146.543 36.8716 149.706 35.9353C150.54 35.8728 151.293 36.5518 151.605 37.0594C152.704 39.1198 152.439 42.0235 150.906 43.8967C149.325 45.7355 146.576 47.5806 143.447 47.2681C142.149 50.2654 141.248 53.4187 140.749 56.6969C140.482 57.3524 139.85 56.7593 139.451 56.6345C136.753 54.6364 138.968 49.3471 139.151 48.6722C139.334 47.9991 140.056 46.4113 140.584 45.0818C139.318 42.9594 140.117 40.3986 141.149 38.4318C141.948 37.1204 143.048 35.8091 144.347 34.8103C144.512 34.8107 144.645 34.8419 144.745 34.9668ZM150.107 38.3386C149.708 38.2762 149.541 38.776 149.208 38.8697C147.677 40.4932 146.145 42.1167 145.378 44.0523C146.411 44.1771 147.276 43.5529 148.176 43.2096C149.708 42.3039 150.674 40.8062 150.574 39.0886C150.507 38.8068 150.241 38.5883 150.107 38.3386Z" fill="white"/>
</svg>
