<svg width="215" height="80" viewBox="0 0 215 80" fill="none" xmlns="http://www.w3.org/2000/svg">
<path d="M106.263 16.067C110.999 15.7059 115.831 16.8125 119.942 19.1897C123.23 21.0853 126.072 23.7599 128.13 26.9521C130.686 30.8551 132.038 35.5268 131.999 40.1912C131.968 45.066 130.416 49.9233 127.581 53.8932C124.705 57.9642 120.523 61.1 115.804 62.7041C111.612 64.1545 107.019 64.3822 102.694 63.4135C98.1584 62.4026 93.945 60.0167 90.7222 56.6706C87.3066 53.133 84.9947 48.528 84.2883 43.6562C83.5936 39.3167 84.168 34.79 85.8635 30.7405C87.4371 26.9739 90 23.6351 93.2082 21.1158C96.927 18.1831 101.536 16.3948 106.263 16.067ZM106.257 17.2186C103.444 17.4202 100.676 18.173 98.1321 19.3898C94.0391 21.3624 90.5394 24.5677 88.2695 28.507C84.8888 34.1896 84.2361 41.3806 86.4523 47.6013C87.8737 51.6465 90.4699 55.2551 93.8261 57.9178C97.7261 61.0115 102.659 62.794 107.641 62.8361C111.279 62.916 114.933 62.0893 118.181 60.4518C122.319 58.4038 125.795 55.0549 128.017 51.0111C130.238 46.9964 131.212 42.293 130.718 37.7286C130.061 30.3215 125.434 23.4583 118.905 19.9397C115.076 17.8292 110.617 16.8633 106.257 17.2186Z" fill="white"/>
<path d="M102.218 19.3894C106.206 18.2755 110.523 18.3234 114.468 19.5968C114.639 19.6505 114.771 19.7766 114.906 19.8898C114.254 19.8419 113.657 19.5475 113.017 19.4372C111.404 19.1153 109.733 18.9557 108.099 19.1994C107.075 19.3836 106 19.7795 105.35 20.6353C104.862 21.2705 104.809 22.2684 105.377 22.8718C106.006 23.5375 107.123 23.5012 107.82 22.9631C108.644 22.3583 109.443 21.6375 110.472 21.4127C112.562 20.8949 114.753 21.3111 116.778 21.913C119.209 22.5759 121.508 23.7753 123.373 25.4766C126.481 28.2222 128.349 32.1644 129.058 36.2066C129.676 39.6556 129.49 43.2598 128.42 46.6015C128.382 46.7581 128.282 46.8495 128.12 46.8741C128.741 44.5986 129.202 42.1836 128.738 39.834C128.494 38.6998 127.936 37.4205 126.742 37.0333C125.828 36.7099 124.716 37.3379 124.642 38.3314C124.468 39.3945 125.337 40.1603 125.878 40.9566C127.04 42.6245 126.896 44.787 126.612 46.7002C126.078 49.2905 125.214 51.8694 123.644 54.0276C121.222 57.5041 117.364 59.7987 113.287 60.7791C109.744 61.6261 105.989 61.6203 102.451 60.7487C101.986 60.6094 101.456 60.547 101.095 60.1903C101.77 60.1887 102.395 60.4818 103.055 60.5861C104.858 60.9139 106.742 61.1169 108.543 60.6658C109.359 60.441 110.186 60.0525 110.7 59.3532C111.175 58.7006 111.165 57.7013 110.581 57.1182C110.075 56.5845 109.232 56.4744 108.585 56.8107C107.816 57.227 107.229 57.9117 106.444 58.3048C104.862 59.0735 103.026 58.9603 101.338 58.6761C98.5383 58.1264 95.7724 57.1111 93.5156 55.3255C90.5188 53.0223 88.4433 49.6632 87.4266 46.046C86.3504 42.259 86.3432 38.1892 87.3251 34.382C87.4948 33.9875 87.4295 33.3653 87.8791 33.1782C87.3048 35.3537 86.8508 37.6338 87.2003 39.8876C87.3773 40.8884 87.7283 41.9486 88.5565 42.5983C89.1308 43.0727 90.0286 43.2467 90.6639 42.7912C91.3412 42.3954 91.5645 41.4555 91.2498 40.7606C90.9191 39.9776 90.2476 39.4074 89.8632 38.6534C89.0322 37.1348 89.1236 35.3218 89.344 33.6597C89.8081 30.9968 90.7117 28.3658 92.2825 26.1438C94.6147 22.7644 98.2856 20.4511 102.218 19.3894V19.3894ZM102.757 27.4753C101.458 28.1758 100.564 29.4275 99.9101 30.7183C99.2153 32.0454 98.9281 33.5277 98.7918 35.0042C98.1507 34.9186 97.6344 34.4212 97.4865 33.7975C97.1877 32.8852 97.5039 31.9497 97.6663 31.049C97.7388 30.7879 97.5401 30.5747 97.4342 30.3601C96.8889 30.3267 96.332 30.595 96.0839 31.0954C95.3413 32.4834 95.4066 34.3559 96.4335 35.5873C97.0225 36.3328 97.952 36.7012 98.8759 36.7998C99.1878 37.7599 99.7969 38.6969 100.776 39.074C101.974 39.557 103.289 39.0508 104.331 38.4213C104.293 38.8071 104.273 39.2031 104.138 39.5715C103.772 39.8659 103.327 40.0385 102.918 40.2662C100.909 41.325 98.8629 42.3909 97.1746 43.9328C95.9447 45.0871 94.9773 46.6231 94.7917 48.3244C94.7017 49.6618 95.234 51.1294 96.4059 51.8648C97.6299 52.6755 99.2443 52.6306 100.579 52.1274C102.261 51.4864 103.516 50.059 104.345 48.5015C105.572 46.2967 105.783 43.7252 105.961 41.2583C106.01 40.9696 105.949 40.5606 106.289 40.4359C108.293 39.3088 110.241 38.0819 112.103 36.7316C112.324 37.0028 112.541 37.2755 112.749 37.5554C111.79 38.1269 110.834 38.7433 110.111 39.6092C107.404 42.5694 107.359 47.65 110.196 50.5391C111.647 52.0694 113.876 52.7235 115.94 52.4175C117.837 52.1477 119.563 50.9539 120.52 49.3006C121.796 47.1945 121.587 44.2489 119.928 42.4113C118.376 40.697 115.355 40.7303 113.838 42.4708C112.645 43.7268 112.605 45.9473 113.851 47.1771C114.356 47.6806 115.235 47.985 115.869 47.5513C116.278 47.257 116.239 46.6276 115.909 46.2866C115.483 45.7717 114.978 45.1756 115.106 44.4562C115.233 43.5207 116.279 42.9478 117.16 43.1467C117.914 43.2641 118.516 43.8528 118.795 44.5432C119.456 46.114 119.081 48.0604 117.896 49.2832C116.64 50.5929 114.456 50.7989 112.94 49.8286C111.594 49.0004 110.829 47.4644 110.592 45.9401C110.344 44.1025 110.697 42.1198 111.837 40.6215C112.571 39.6728 113.595 38.8941 114.772 38.6126C115.761 38.688 116.787 38.8664 117.756 38.5502C118.211 38.3951 118.655 37.8845 118.423 37.3856C118.172 36.8736 117.556 36.7199 117.042 36.6125C116.275 36.4602 115.512 36.6647 114.762 36.8083C114.238 36.6285 113.961 36.0788 113.767 35.5944C115.223 34.5066 116.662 33.3245 117.651 31.777C118.225 30.8473 118.6 29.7058 118.33 28.6137C118.117 27.8899 117.524 27.275 116.766 27.1372C115.505 26.8196 114.214 27.4563 113.357 28.3599C111.979 29.8552 111.28 31.9278 111.343 33.9496C111.325 34.3673 111.487 34.8054 111.368 35.2071C110.335 36.0396 109.181 36.7097 108.068 37.4291C107.429 37.8005 106.82 38.2283 106.141 38.5285C106.153 37.8845 106.186 37.2318 106.37 36.6111C106.859 35.9425 107.474 35.3609 107.863 34.6183C108.147 34.1063 108.415 33.458 108.119 32.8923C107.848 32.4731 107.248 32.5138 106.854 32.7226C106.016 33.1432 105.556 34.0309 105.218 34.8634C104.986 35.3957 104.96 36.0556 104.464 36.4327C103.774 37.036 102.941 37.6423 101.981 37.6075C101.433 37.6104 101.067 37.0941 100.951 36.6096C102.469 36.0206 103.735 34.9212 104.762 33.6799C105.712 32.4586 106.467 31.017 106.595 29.4534C106.666 28.6659 106.385 27.7739 105.665 27.362C104.766 26.8719 103.639 27.0111 102.757 27.4753V27.4753Z" fill="white"/>
<path d="M103.626 28.9205C103.978 28.6536 104.56 28.7667 104.727 29.1975C104.856 29.7284 104.66 30.2664 104.434 30.7407C103.791 32.0519 102.832 33.189 101.736 34.1433C101.465 34.3913 101.148 34.5842 100.813 34.7322C100.858 33.5661 101.259 32.442 101.755 31.3963C102.216 30.4695 102.75 29.5166 103.626 28.9205V28.9205ZM114.963 29.3759C115.275 29.0162 115.812 28.6565 116.288 28.9016C116.81 29.2106 116.537 29.9024 116.331 30.3259C115.613 31.6501 114.549 32.7669 113.394 33.7198C113.377 32.149 113.939 30.5681 114.963 29.3759V29.3759ZM99.437 44.6122C100.79 43.4736 102.291 42.4961 103.898 41.7535C103.729 43.5302 103.312 45.291 102.641 46.9444C102.065 48.2759 101.211 49.6465 99.7952 50.1918C99.0613 50.4672 98.1041 50.64 97.4688 50.0598C96.8669 49.5261 96.9075 48.621 97.083 47.9046C97.4485 46.5688 98.4304 45.5158 99.437 44.6122V44.6122Z" fill="white"/>
</svg>
