<svg width="215" height="80" viewBox="0 0 215 80" fill="none" xmlns="http://www.w3.org/2000/svg">
<g clip-path="url(#clip0_111_4375)">
<path fill-rule="evenodd" clip-rule="evenodd" d="M152.018 25H62.0181V55H152.018V25ZM97.4571 36.9828C98.3919 35.708 99.8366 35.1132 101.196 35.1132C104.001 35.1132 105.956 37.0679 105.871 39.7025V46.8412H102.726V40.2974C102.726 38.7676 101.366 37.8328 100.092 37.8328C98.3919 37.8328 97.4571 39.1076 97.4571 40.2974V46.9263H94.3126V35.3682H97.4571V36.9828ZM125.587 43.1868L128.477 35.2832H132.046L127.372 46.8412H123.888L119.128 35.2832H122.698L125.587 43.1868ZM87.5987 44.4617C88.7884 44.4617 89.5534 44.2916 90.9132 43.2718L92.8677 44.7166C91.8479 45.9065 89.6383 46.9264 87.5136 46.9264C83.6894 46.9264 81.0548 44.4617 81.0548 40.9773C81.0548 37.5779 83.6894 35.0283 87.1738 35.0283C89.1284 35.0283 90.6581 35.6232 91.763 36.898C92.4428 37.7478 92.9528 38.8527 93.1227 40.1275L85.0491 43.5269C85.644 44.1217 86.4939 44.4617 87.5987 44.4617ZM87.2587 37.5779C86.1538 37.5779 85.3042 38.0027 84.7942 38.7676C84.3693 39.4475 84.0294 40.3824 84.1993 41.4873L89.7233 39.1926C89.2983 38.2578 88.3635 37.5779 87.2587 37.5779ZM73.5761 43.9517H80.7999V46.8412H70.3466V31.8838H73.5761V43.9517ZM131.536 41.0621C131.536 44.4617 134.256 47.0111 137.74 47.0111C141.31 47.0111 144.029 44.4617 143.944 41.0621C143.944 37.6627 141.225 35.1132 137.74 35.1132C134.256 35.1132 131.536 37.7476 131.536 41.0621ZM134.681 41.0623C134.681 39.1926 135.956 37.8328 137.74 37.8328C139.525 37.8328 140.885 39.2775 140.8 41.0623C140.8 42.932 139.525 44.2918 137.74 44.2918C136.041 44.2918 134.681 42.8469 134.681 41.0623ZM107.145 41.0621C107.145 44.4617 109.865 47.0111 113.349 47.0111C116.834 47.0111 119.553 44.4615 119.553 41.0621C119.553 37.6627 116.834 35.1132 113.349 35.1132C109.865 35.1132 107.145 37.7476 107.145 41.0621ZM110.29 41.0623C110.29 39.1926 111.565 37.8328 113.349 37.8328C115.134 37.8328 116.494 39.2775 116.409 41.0623C116.409 42.932 115.134 44.2918 113.349 44.2918C111.65 44.2918 110.29 42.8469 110.29 41.0623ZM143.944 45.4814H144.454V46.8412H144.794V45.4814H145.304V45.2265H143.944V45.4814ZM145.984 45.2266H145.644V46.9264H145.984V45.7365L146.494 46.5014L147.004 45.7365V46.9264H147.344V45.2266H147.004L146.494 45.9916L145.984 45.2266Z" fill="white"/>
</g>
<defs>
<clipPath id="clip0_111_4375">
<rect width="90.036" height="30" fill="white" transform="translate(62 25)"/>
</clipPath>
</defs>
</svg>
