<svg width="215" height="80" viewBox="0 0 215 80" fill="none" xmlns="http://www.w3.org/2000/svg">
<path fill-rule="evenodd" clip-rule="evenodd" d="M83.432 44.2549C82.8543 44.2549 82.402 44.6582 82.402 45.2467C82.402 45.8356 82.8567 46.2366 83.432 46.2366C84.007 46.2366 84.4621 45.8329 84.4621 45.2467C84.4621 44.6582 84.0094 44.2549 83.432 44.2549ZM83.432 45.953C83.0201 45.953 82.7146 45.6528 82.7146 45.2467C82.7146 44.8411 83.0178 44.5385 83.432 44.5385C83.8413 44.5385 84.1491 44.8457 84.1491 45.2467C84.1491 45.6454 83.8385 45.953 83.432 45.953ZM93.4547 40.7858H88.4404L89.0104 32.0885L85.7542 40.7858H81.0979L88.4859 21.1275H93.4403L92.8684 29.9441L96.1864 21.1275H100.843L93.4547 40.7858ZM94.0595 40.7858L101.447 21.1275H106.103L98.7158 40.7858H94.0595Z" fill="white"/>
<path fill-rule="evenodd" clip-rule="evenodd" d="M80.561 34.0099C74.0545 41.635 67.9167 51.7807 73.3381 56.4528C78.5915 60.9803 85.1578 58.2997 89.635 56.5124C94.1123 54.7252 143.599 33.28 143.599 33.28C144.076 33.0417 143.987 32.7438 143.39 32.8926C143.149 32.9526 89.5158 47.4573 89.5158 47.4573C82.7099 49.3639 74.9497 45.2087 80.561 34.0099Z" fill="white"/>
<path fill-rule="evenodd" clip-rule="evenodd" d="M83.6076 45.3161C83.752 45.3091 83.865 45.2347 83.865 45.0352C83.865 44.778 83.6965 44.7133 83.415 44.7133H83.0105V45.7799H83.2803V45.3258H83.3258L83.5715 45.7799H83.8817L83.6076 45.3161ZM83.4345 45.1433H83.2807V44.8957H83.4104C83.49 44.8957 83.5812 44.905 83.5812 45.0085C83.5812 45.1193 83.5284 45.1433 83.4345 45.1433ZM130.238 21.0674C129.66 21.0674 129.208 21.4711 129.208 22.0593C129.208 22.6478 129.663 23.0488 130.238 23.0488C130.813 23.0488 131.268 22.6451 131.268 22.0593C131.268 21.4711 130.816 21.0674 130.238 21.0674ZM130.238 22.766C129.826 22.766 129.521 22.4657 129.521 22.0597C129.521 21.654 129.824 21.3514 130.238 21.3514C130.647 21.3514 130.956 21.6587 130.956 22.0597C130.956 22.4583 130.645 22.766 130.238 22.766Z" fill="white"/>
<path fill-rule="evenodd" clip-rule="evenodd" d="M130.413 22.129C130.558 22.1221 130.671 22.0477 130.671 21.8481C130.671 21.5909 130.502 21.5262 130.221 21.5262H129.817V22.5924H130.086V22.1387H130.132L130.377 22.5924H130.688L130.413 22.129ZM130.24 21.9562H130.086V21.7087H130.216C130.295 21.7087 130.387 21.7184 130.387 21.8218C130.387 21.9322 130.334 21.9562 130.24 21.9562ZM127.17 24.4041L128.421 21.1275H114.214L109.336 27.0252L111.588 21.1275H106.872L99.5435 40.786H104.2L107.328 32.5652L107.543 40.786L121.83 40.755L123.19 36.9735H117.758L119.542 32.208H124.019L125.397 28.5443H120.92L122.455 24.4041H127.17ZM112.162 39.4753L111.863 29.2293L118.903 21.5157L112.162 39.4753Z" fill="white"/>
</svg>
