<svg width="160" height="108" viewBox="0 0 160 108" fill="none" xmlns="http://www.w3.org/2000/svg">
<g opacity="0.5">
<path d="M13.7727 46.7952L13.5985 36.7177L19.4821 36.6125L19.0444 11.2923L13.1608 11.3974L12.9735 0.561129L44.3657 0L44.553 10.8363L38.6694 10.9415L39.1071 36.2617L44.9907 36.1566L45.1649 46.2341L13.7727 46.7952Z" fill="white"/>
<path d="M74.1356 45.7178L73.9621 35.6816L78.5364 35.5999L78.3547 25.0864C78.3001 21.9311 76.0599 20.5388 73.1929 20.5901C72.3566 20.5797 71.5271 20.7424 70.7546 21.0685C69.9822 21.3945 69.283 21.877 68.6997 22.4866C68.1163 23.0963 67.661 23.8203 67.3614 24.6146C67.0618 25.4089 66.9242 26.2569 66.957 27.107L67.1073 35.8042L71.7988 35.7203L71.9723 45.7564L47.3287 46.1969L47.1553 36.1608L51.5731 36.0818L51.3114 20.9414L46.8936 21.0204L46.7199 10.971L66.1636 10.6234L66.2835 17.5573C66.6036 17.2584 66.8947 16.929 67.1529 16.5736C70.6392 12.3736 74.6795 10.816 80.0096 10.7208C87.503 10.5868 93.6556 13.5801 93.8018 22.0386L94.031 35.2964L98.0318 35.2249L98.2053 45.261L74.1356 45.7178Z" fill="white"/>
<path d="M136.653 24.2102L123.266 25.9511C123.042 22.161 122.211 18.1538 117.665 18.2351C111.911 18.3379 111.536 23.2515 111.617 27.9558L111.619 28.0497C111.7 32.754 112.245 37.6511 117.999 37.5482C121.021 37.4942 123.67 35.6772 123.606 31.9379L136.954 31.6993L136.869 32.8806C134.853 44.004 125.082 45.9081 118.014 46.0345C106.939 46.2324 95.9651 40.8782 95.7471 28.2663C95.5291 15.6545 106.311 9.91133 117.387 9.71337C117.387 9.75357 134.736 8.29049 136.653 24.2102Z" fill="white"/>
<path d="M146.824 38.9119C146.843 40.001 146.543 41.0714 145.964 41.9874C145.384 42.9035 144.55 43.6241 143.568 44.058C142.585 44.4919 141.498 44.6196 140.444 44.4249C139.39 44.2303 138.417 43.722 137.647 42.9645C136.877 42.207 136.346 41.2343 136.12 40.1695C135.894 39.1047 135.984 37.9956 136.378 36.9828C136.772 35.9699 137.453 35.0987 138.334 34.4796C139.216 33.8604 140.258 33.521 141.329 33.5044C142.039 33.4917 142.745 33.6215 143.405 33.8866C144.066 34.1516 144.669 34.5466 145.179 35.0489C145.69 35.5512 146.098 36.151 146.38 36.8138C146.662 37.4767 146.813 38.1897 146.824 38.9119Z" fill="white"/>
<path d="M57.2139 56.6389C44.5881 56.8645 37.381 65.502 37.6704 82.2482C37.9599 98.9944 45.4633 107.502 58.0891 107.276C70.715 107.05 78.0104 98.1854 77.7226 81.5323C77.4347 64.8791 69.6948 56.4158 57.2139 56.6389ZM57.9139 97.1354C53.3143 97.2176 52.2484 92.7564 52.0639 82.084C51.8795 71.4116 52.7905 66.915 57.3901 66.8328C61.9897 66.7506 63.0555 71.2118 63.24 81.8842C63.4245 92.5566 62.5662 97.0523 57.9534 97.1347L57.9139 97.1354Z" fill="white"/>
<path d="M98.3551 55.9033C85.7251 56.1291 78.5156 64.7666 78.805 81.5128C79.0945 98.259 86.6003 106.766 99.2303 106.541C111.86 106.315 119.145 97.45 118.857 80.7969C118.569 64.1437 110.84 55.6802 98.3551 55.9033ZM99.0551 96.3999C94.4539 96.4821 93.3877 92.0209 93.2033 81.3485C93.0188 70.6761 93.9302 66.1795 98.5313 66.0972C103.132 66.015 104.278 70.4748 104.462 81.1472C104.647 91.8196 103.696 96.3169 99.0946 96.3992L99.0551 96.3999Z" fill="white"/>
<path d="M139.49 55.1679C126.846 55.3939 119.65 64.0312 119.94 80.7774C120.229 97.5236 127.722 106.031 140.365 105.805C153.008 105.579 160.28 96.7146 159.992 80.0614C159.704 63.4083 151.975 54.9447 139.49 55.1679ZM140.19 95.6645C135.589 95.7467 134.522 91.2854 134.338 80.6131C134.153 69.9407 135.065 65.4441 139.666 65.3618C144.267 65.2796 145.333 69.7409 145.518 80.4132C145.702 91.0856 144.83 95.5815 140.229 95.6638L140.19 95.6645Z" fill="white"/>
<path d="M32.132 77.7426C29.6196 75.43 25.9518 74.068 20.8411 74.1593C17.4965 74.1207 14.2646 75.3878 11.811 77.6998L12.6946 69.9698L32.8155 69.6102L32.618 58.18L3.42142 58.7019L0.710923 81.4344L9.32374 85.7859C11.4062 83.7553 14.1139 82.518 16.9896 82.2829C17.7498 82.2414 18.5105 82.3548 19.227 82.6163C19.9436 82.8779 20.6016 83.2824 21.1623 83.8061C21.938 84.6381 22.5384 85.6224 22.9268 86.6987C23.3152 87.775 23.4834 88.9207 23.421 90.0655C23.4481 90.9719 23.3731 91.8784 23.1973 92.7675C23.0198 94.1083 22.3511 95.3315 21.325 96.1924C20.299 97.0534 18.9911 97.4886 17.6631 97.4111C12.1534 97.5095 12.4962 90.5227 13.638 88.04L13.5594 87.9628L0 95.4348C1.1571 104.268 10.019 108.13 17.4855 107.997C22.4385 108.025 27.2337 106.227 30.9835 102.936C32.384 101.669 33.5564 100.163 34.4478 98.4862C35.9422 95.7688 36.723 92.7057 36.715 89.5921C36.6331 84.8524 35.2716 80.5809 32.132 77.7426Z" fill="white"/>
</g>
</svg>
