<svg width="85" height="85" viewBox="0 0 85 85" fill="none" xmlns="http://www.w3.org/2000/svg">
<g opacity="0.3">
<circle cx="42.5" cy="42.5" r="41.5" fill="#191919" stroke="white" stroke-width="2"/>
<path d="M25.6458 48.6925H21V26.3075H25.6458V48.6925Z" fill="white"/>
<path d="M41.6583 42.8195C41.6583 41.9483 41.3486 41.2821 40.7292 40.8209C40.1097 40.3494 38.9947 39.8574 37.3842 39.3449C35.7736 38.8222 34.4986 38.3097 33.5591 37.8075C30.9988 36.434 29.7186 34.584 29.7186 32.2574C29.7186 31.0479 30.0593 29.9717 30.7407 29.0287C31.4324 28.0755 32.4183 27.3324 33.6985 26.7995C34.989 26.2665 36.4344 26 38.0346 26C39.6451 26 41.0802 26.2921 42.3397 26.8763C43.5992 27.4503 44.5748 28.2652 45.2666 29.3209C45.9686 30.3766 46.3196 31.5758 46.3196 32.9184H41.6738C41.6738 31.8935 41.3486 31.0992 40.6982 30.5354C40.0478 29.9615 39.1341 29.6745 37.9572 29.6745C36.8215 29.6745 35.9388 29.9153 35.3091 30.3971C34.6793 30.8685 34.3644 31.4938 34.3644 32.2727C34.3644 33.0004 34.7309 33.6103 35.4639 34.1023C36.2072 34.5943 37.2964 35.0555 38.7315 35.486C41.3744 36.2752 43.2998 37.254 44.5077 38.4225C45.7156 39.5909 46.3196 41.0463 46.3196 42.7888C46.3196 44.7259 45.5814 46.248 44.1051 47.3549C42.6288 48.4516 40.6414 49 38.143 49C36.4086 49 34.829 48.6874 33.4043 48.0622C31.9796 47.4267 30.8904 46.5606 30.1367 45.4639C29.3934 44.3672 29.0217 43.0963 29.0217 41.6511H33.683C33.683 44.1212 35.1697 45.3563 38.143 45.3563C39.2477 45.3563 40.1097 45.1359 40.7292 44.6952C41.3486 44.2442 41.6583 43.619 41.6583 42.8195Z" fill="white"/>
<path d="M68 38.0074C68 40.211 67.6077 42.143 66.8231 43.8035C66.0384 45.4639 64.9131 46.7451 63.4471 47.6471C61.9914 48.549 60.3189 49 58.4297 49C56.561 49 54.8937 48.5541 53.4277 47.6624C51.9617 46.7707 50.826 45.4998 50.0208 43.8496C49.2155 42.1892 48.8077 40.2828 48.7974 38.1303V37.0234C48.7974 34.8197 49.1948 32.8826 49.9898 31.2119C50.7951 29.531 51.9255 28.2447 53.3812 27.3529C54.8472 26.451 56.5197 26 58.3987 26C60.2776 26 61.945 26.451 63.4007 27.3529C64.8667 28.2447 65.9971 29.531 66.7921 31.2119C67.5974 32.8826 68 34.8146 68 37.008V38.0074ZM63.2923 36.9926C63.2923 34.6455 62.869 32.8621 62.0224 31.6424C61.1758 30.4227 59.9679 29.8128 58.3987 29.8128C56.8398 29.8128 55.637 30.4176 54.7904 31.627C53.9439 32.8262 53.5154 34.5891 53.5051 36.9158V38.0074C53.5051 40.293 53.9284 42.0662 54.775 43.3269C55.6215 44.5876 56.8398 45.2179 58.4297 45.2179C59.9886 45.2179 61.1862 44.6132 62.0224 43.4037C62.8586 42.184 63.2819 40.4109 63.2923 38.0842V36.9926Z" fill="white"/>
<path d="M32.278 61.548V63H26.459V61.845L29.429 59.04C29.7443 58.7393 29.957 58.4827 30.067 58.27C30.177 58.05 30.232 57.8337 30.232 57.621C30.232 57.313 30.1256 57.0783 29.913 56.917C29.7076 56.7483 29.4033 56.664 29 56.664C28.6626 56.664 28.3583 56.73 28.087 56.862C27.8156 56.9867 27.5883 57.1773 27.405 57.434L26.107 56.598C26.4076 56.1507 26.822 55.8023 27.35 55.553C27.878 55.2963 28.483 55.168 29.165 55.168C29.737 55.168 30.2356 55.2633 30.661 55.454C31.0936 55.6373 31.4273 55.9013 31.662 56.246C31.904 56.5833 32.025 56.983 32.025 57.445C32.025 57.863 31.937 58.2553 31.761 58.622C31.585 58.9887 31.244 59.4067 30.738 59.876L28.967 61.548H32.278ZM38.9098 55.3V56.455L36.0498 63H34.1138L36.8748 56.752H34.3228V58.006H32.7388V55.3H38.9098ZM42.6782 63.132C42.0402 63.132 41.4719 62.9743 40.9732 62.659C40.4746 62.3437 40.0822 61.889 39.7962 61.295C39.5176 60.6937 39.3782 59.9787 39.3782 59.15C39.3782 58.3213 39.5176 57.61 39.7962 57.016C40.0822 56.4147 40.4746 55.9563 40.9732 55.641C41.4719 55.3257 42.0402 55.168 42.6782 55.168C43.3162 55.168 43.8846 55.3257 44.3832 55.641C44.8819 55.9563 45.2706 56.4147 45.5492 57.016C45.8352 57.61 45.9782 58.3213 45.9782 59.15C45.9782 59.9787 45.8352 60.6937 45.5492 61.295C45.2706 61.889 44.8819 62.3437 44.3832 62.659C43.8846 62.9743 43.3162 63.132 42.6782 63.132ZM42.6782 61.625C43.1476 61.625 43.5142 61.4233 43.7782 61.02C44.0496 60.6167 44.1852 59.9933 44.1852 59.15C44.1852 58.3067 44.0496 57.6833 43.7782 57.28C43.5142 56.8767 43.1476 56.675 42.6782 56.675C42.2162 56.675 41.8496 56.8767 41.5782 57.28C41.3142 57.6833 41.1822 58.3067 41.1822 59.15C41.1822 59.9933 41.3142 60.6167 41.5782 61.02C41.8496 61.4233 42.2162 61.625 42.6782 61.625ZM50.034 63.132C49.396 63.132 48.8277 62.9743 48.329 62.659C47.8304 62.3437 47.438 61.889 47.152 61.295C46.8734 60.6937 46.734 59.9787 46.734 59.15C46.734 58.3213 46.8734 57.61 47.152 57.016C47.438 56.4147 47.8304 55.9563 48.329 55.641C48.8277 55.3257 49.396 55.168 50.034 55.168C50.672 55.168 51.2404 55.3257 51.739 55.641C52.2377 55.9563 52.6264 56.4147 52.905 57.016C53.191 57.61 53.334 58.3213 53.334 59.15C53.334 59.9787 53.191 60.6937 52.905 61.295C52.6264 61.889 52.2377 62.3437 51.739 62.659C51.2404 62.9743 50.672 63.132 50.034 63.132ZM50.034 61.625C50.5034 61.625 50.87 61.4233 51.134 61.02C51.4054 60.6167 51.541 59.9933 51.541 59.15C51.541 58.3067 51.4054 57.6833 51.134 57.28C50.87 56.8767 50.5034 56.675 50.034 56.675C49.572 56.675 49.2054 56.8767 48.934 57.28C48.67 57.6833 48.538 58.3067 48.538 59.15C48.538 59.9933 48.67 60.6167 48.934 61.02C49.2054 61.4233 49.572 61.625 50.034 61.625ZM56.9954 55.3V63H55.2134V56.73H53.6734V55.3H56.9954Z" fill="white"/>
</g>
</svg>
