<svg width="176" height="63" viewBox="0 0 176 63" fill="none" xmlns="http://www.w3.org/2000/svg">
<g clip-path="url(#clip0)">
<path d="M18.9229 1.92773H61.2219V43.0733H18.9229V1.92773Z" fill="url(#paint0_radial)"/>
<path d="M18.9227 1.92754H61.2218V43.073H18.9227V1.92754ZM17 44.9958H63.1445V0.00488281H17V44.9958ZM49.6472 21.6928C50.6277 21.6928 50.9738 21.6928 51.0699 21.6544C51.0699 21.5198 51.1084 21.4236 51.1084 21.3275C51.1084 20.2892 50.6085 18.3666 48.6089 18.3666C46.7631 18.3666 45.9749 19.9815 45.7825 21.6928H49.6472ZM45.7442 24.3268C45.7826 26.9225 47.0131 28.6721 49.9356 28.6721C51.07 28.6721 52.0505 28.5184 53.0696 28.0762C53.2042 28.0185 53.3004 28.0377 53.3004 28.2108V30.6141C53.3004 30.8063 53.2427 30.9025 53.1082 30.9987C52.0891 31.4985 50.8201 31.7293 49.2435 31.7293C44.1677 31.7293 42.2642 27.9801 42.2642 23.8079C42.2642 19.2703 44.6099 15.5596 48.7437 15.5596C52.9351 15.5596 54.3964 19.0781 54.3964 21.9429C54.3964 22.8658 54.3387 23.6156 54.2426 23.981C54.2042 24.1348 54.1465 24.1925 53.9926 24.231C53.6081 24.2886 52.4737 24.3655 50.7817 24.3655H45.7442V24.3268ZM35.4386 22.3657C34.9003 20.2315 33.5928 15.5787 33.1121 13.3291H33.0737C32.67 15.5787 31.6124 19.3855 30.8241 22.3657H35.4386ZM30.0358 25.4805L28.5169 31.2294C28.4784 31.3831 28.4208 31.4408 28.2284 31.4408H25.4021C25.2099 31.4408 25.1713 31.3832 25.2099 31.1525L30.6702 12.0601C30.7664 11.7141 30.824 11.4449 30.8625 10.4836C30.8625 10.349 30.9202 10.2914 31.0163 10.2914H35.0539C35.1885 10.2914 35.2462 10.3298 35.2847 10.4836L41.3988 31.1909C41.4372 31.3446 41.3988 31.4408 41.245 31.4408H38.0726C37.9188 31.4408 37.8226 31.3832 37.7842 31.2487L36.2075 25.4806H30.0358V25.4805Z" fill="#D8A1FF"/>
<path d="M124.922 1.92773H167.193V43.0733H124.922V1.92773Z" fill="url(#paint1_radial)"/>
<path d="M124.921 1.92754H167.193V43.073H124.921V1.92754ZM123 44.9958H169.115V0.00488281H123V44.9958ZM150.669 19.001C150.669 18.7702 150.669 18.2127 150.573 17.1359C150.573 16.9821 150.592 16.9437 150.726 16.886C151.898 16.4053 154.646 15.5594 157.759 15.5594C157.913 15.5594 157.989 15.5978 157.989 15.7516V18.5395C157.989 18.6933 157.932 18.7318 157.778 18.7318C156.568 18.6741 154.819 18.8279 154.147 19.1162V31.2292C154.147 31.383 154.089 31.4599 153.916 31.4599H150.899C150.746 31.4599 150.669 31.4023 150.669 31.2292V19.001ZM138.372 20.7506C138.813 20.7891 139.159 20.7891 139.928 20.7891C142.176 20.7891 144.29 20.0008 144.29 16.9437C144.29 14.502 142.791 13.2714 140.216 13.2714C139.448 13.2714 138.717 13.3098 138.372 13.329V20.7506ZM134.971 10.5411C134.971 10.4066 135.009 10.3104 135.163 10.3104C136.392 10.2527 138.199 10.2142 140.101 10.2142C145.423 10.2142 147.748 13.1367 147.748 16.886C147.748 21.7696 144.213 23.8653 139.87 23.8653C139.14 23.8653 138.89 23.8269 138.372 23.8269V31.21C138.372 31.3638 138.314 31.4407 138.141 31.4407H135.182C135.028 31.4407 134.951 31.383 134.951 31.21V10.5411H134.971Z" fill="#E579FF"/>
<path d="M5.06672 58.38H1.56672L0.87672 60H-0.46328L2.68672 53H3.96672L7.12672 60H5.76672L5.06672 58.38ZM4.63672 57.36L3.31672 54.3L2.00672 57.36H4.63672ZM9.11695 54.09V56.22H12.497V57.32H9.11695V60H7.81695V53H12.927V54.09H9.11695ZM15.453 54.1H13.133V53H19.073V54.1H16.753V60H15.453V54.1ZM25.0986 58.91V60H19.8486V53H24.9586V54.09H21.1486V55.91H24.5286V56.98H21.1486V58.91H25.0986ZM30.9278 60L29.4978 57.95C29.4378 57.9567 29.3478 57.96 29.2278 57.96H27.6478V60H26.3478V53H29.2278C29.8345 53 30.3611 53.1 30.8078 53.3C31.2611 53.5 31.6078 53.7867 31.8478 54.16C32.0878 54.5333 32.2078 54.9767 32.2078 55.49C32.2078 56.0167 32.0778 56.47 31.8178 56.85C31.5645 57.23 31.1978 57.5133 30.7178 57.7L32.3278 60H30.9278ZM30.8978 55.49C30.8978 55.0433 30.7511 54.7 30.4578 54.46C30.1645 54.22 29.7345 54.1 29.1678 54.1H27.6478V56.89H29.1678C29.7345 56.89 30.1645 56.77 30.4578 56.53C30.7511 56.2833 30.8978 55.9367 30.8978 55.49ZM41.2759 58.91V60H36.0259V53H41.1359V54.09H37.3259V55.91H40.7059V56.98H37.3259V58.91H41.2759ZM43.8252 54.09V56.22H47.2052V57.32H43.8252V60H42.5252V53H47.6352V54.09H43.8252ZM49.9923 54.09V56.22H53.3723V57.32H49.9923V60H48.6923V53H53.8023V54.09H49.9923ZM60.1095 58.91V60H54.8595V53H59.9695V54.09H56.1595V55.91H59.5395V56.98H56.1595V58.91H60.1095ZM64.5695 60.1C63.8628 60.1 63.2228 59.9467 62.6495 59.64C62.0828 59.3267 61.6361 58.8967 61.3095 58.35C60.9895 57.8033 60.8295 57.1867 60.8295 56.5C60.8295 55.8133 60.9928 55.1967 61.3195 54.65C61.6461 54.1033 62.0928 53.6767 62.6595 53.37C63.2328 53.0567 63.8728 52.9 64.5795 52.9C65.1528 52.9 65.6761 53 66.1495 53.2C66.6228 53.4 67.0228 53.69 67.3495 54.07L66.5095 54.86C66.0028 54.3133 65.3795 54.04 64.6395 54.04C64.1595 54.04 63.7295 54.1467 63.3495 54.36C62.9695 54.5667 62.6728 54.8567 62.4595 55.23C62.2461 55.6033 62.1395 56.0267 62.1395 56.5C62.1395 56.9733 62.2461 57.3967 62.4595 57.77C62.6728 58.1433 62.9695 58.4367 63.3495 58.65C63.7295 58.8567 64.1595 58.96 64.6395 58.96C65.3795 58.96 66.0028 58.6833 66.5095 58.13L67.3495 58.93C67.0228 59.31 66.6195 59.6 66.1395 59.8C65.6661 60 65.1428 60.1 64.5695 60.1ZM69.737 54.1H67.417V53H73.357V54.1H71.037V60H69.737V54.1ZM76.2342 60.1C75.6942 60.1 75.1709 60.0233 74.6642 59.87C74.1642 59.7167 73.7676 59.5133 73.4742 59.26L73.9242 58.25C74.2109 58.4767 74.5609 58.6633 74.9742 58.81C75.3942 58.95 75.8142 59.02 76.2342 59.02C76.7542 59.02 77.1409 58.9367 77.3942 58.77C77.6542 58.6033 77.7842 58.3833 77.7842 58.11C77.7842 57.91 77.7109 57.7467 77.5642 57.62C77.4242 57.4867 77.2442 57.3833 77.0242 57.31C76.8042 57.2367 76.5042 57.1533 76.1242 57.06C75.5909 56.9333 75.1576 56.8067 74.8242 56.68C74.4976 56.5533 74.2142 56.3567 73.9742 56.09C73.7409 55.8167 73.6242 55.45 73.6242 54.99C73.6242 54.6033 73.7276 54.2533 73.9342 53.94C74.1476 53.62 74.4642 53.3667 74.8842 53.18C75.3109 52.9933 75.8309 52.9 76.4442 52.9C76.8709 52.9 77.2909 52.9533 77.7042 53.06C78.1176 53.1667 78.4742 53.32 78.7742 53.52L78.3642 54.53C78.0576 54.35 77.7376 54.2133 77.4042 54.12C77.0709 54.0267 76.7476 53.98 76.4342 53.98C75.9209 53.98 75.5376 54.0667 75.2842 54.24C75.0376 54.4133 74.9142 54.6433 74.9142 54.93C74.9142 55.13 74.9842 55.2933 75.1242 55.42C75.2709 55.5467 75.4542 55.6467 75.6742 55.72C75.8942 55.7933 76.1942 55.8767 76.5742 55.97C77.0942 56.09 77.5209 56.2167 77.8542 56.35C78.1876 56.4767 78.4709 56.6733 78.7042 56.94C78.9442 57.2067 79.0642 57.5667 79.0642 58.02C79.0642 58.4067 78.9576 58.7567 78.7442 59.07C78.5376 59.3833 78.2209 59.6333 77.7942 59.82C77.3676 60.0067 76.8476 60.1 76.2342 60.1Z" fill="#6D6B6C"/>
<path d="M122.706 53C123.312 53 123.839 53.1 124.286 53.3C124.739 53.5 125.086 53.7867 125.326 54.16C125.566 54.5333 125.686 54.9767 125.686 55.49C125.686 55.9967 125.566 56.44 125.326 56.82C125.086 57.1933 124.739 57.48 124.286 57.68C123.839 57.88 123.312 57.98 122.706 57.98H121.126V60H119.826V53H122.706ZM122.646 56.88C123.212 56.88 123.642 56.76 123.936 56.52C124.229 56.28 124.376 55.9367 124.376 55.49C124.376 55.0433 124.229 54.7 123.936 54.46C123.642 54.22 123.212 54.1 122.646 54.1H121.126V56.88H122.646ZM131.364 60L129.934 57.95C129.874 57.9567 129.784 57.96 129.664 57.96H128.084V60H126.784V53H129.664C130.27 53 130.797 53.1 131.244 53.3C131.697 53.5 132.044 53.7867 132.284 54.16C132.524 54.5333 132.644 54.9767 132.644 55.49C132.644 56.0167 132.514 56.47 132.254 56.85C132 57.23 131.634 57.5133 131.154 57.7L132.764 60H131.364ZM131.334 55.49C131.334 55.0433 131.187 54.7 130.894 54.46C130.6 54.22 130.17 54.1 129.604 54.1H128.084V56.89H129.604C130.17 56.89 130.6 56.77 130.894 56.53C131.187 56.2833 131.334 55.9367 131.334 55.49ZM139.148 58.91V60H133.898V53H139.008V54.09H135.198V55.91H138.578V56.98H135.198V58.91H139.148ZM146.827 60L146.817 55.36L144.517 59.2H143.937L141.637 55.42V60H140.397V53H141.467L144.247 57.64L146.977 53H148.047L148.057 60H146.827ZM149.748 53H151.048V60H149.748V53ZM157.992 58.91V60H152.742V53H157.852V54.09H154.042V55.91H157.422V56.98H154.042V58.91H157.992ZM163.821 60L162.391 57.95C162.331 57.9567 162.241 57.96 162.121 57.96H160.541V60H159.241V53H162.121C162.727 53 163.254 53.1 163.701 53.3C164.154 53.5 164.501 53.7867 164.741 54.16C164.981 54.5333 165.101 54.9767 165.101 55.49C165.101 56.0167 164.971 56.47 164.711 56.85C164.457 57.23 164.091 57.5133 163.611 57.7L165.221 60H163.821ZM163.791 55.49C163.791 55.0433 163.644 54.7 163.351 54.46C163.057 54.22 162.627 54.1 162.061 54.1H160.541V56.89H162.061C162.627 56.89 163.057 56.77 163.351 56.53C163.644 56.2833 163.791 55.9367 163.791 55.49ZM171.605 58.91V60H166.355V53H171.465V54.09H167.655V55.91H171.035V56.98H167.655V58.91H171.605Z" fill="#6D6B6C"/>
</g>
<defs>
<radialGradient id="paint0_radial" cx="0" cy="0" r="1" gradientUnits="userSpaceOnUse" gradientTransform="translate(32.8541 11.1485) scale(32.1473 31.1245)">
<stop stop-color="#442F55" stop-opacity="0.98"/>
<stop offset="1" stop-color="#12002C"/>
</radialGradient>
<radialGradient id="paint1_radial" cx="0" cy="0" r="1" gradientUnits="userSpaceOnUse" gradientTransform="translate(138.844 11.1485) scale(32.1265 31.1245)">
<stop stop-color="#4B2D4F" stop-opacity="0.98"/>
<stop offset="1" stop-color="#180024"/>
</radialGradient>
<clipPath id="clip0">
<rect width="176" height="63" fill="white"/>
</clipPath>
</defs>
</svg>
