<svg width="80" height="81" viewBox="0 0 80 81" fill="none" xmlns="http://www.w3.org/2000/svg">
<path fill-rule="evenodd" clip-rule="evenodd" d="M61.999 24.8947C61.9338 23.2831 60.6255 21.905 59.0215 21.7572C58.9651 21.752 57.6198 21.6266 56.2813 21.4418C54.0826 21.1394 52.02 20.742 50.1515 20.2605C48.2898 19.7816 46.5976 19.2145 45.1198 18.5742C43.5883 17.9105 41.9837 16.7512 41.9665 16.7381C41.4287 16.348 40.7297 16.1323 39.9994 16.1323C39.2686 16.1323 38.5701 16.348 38.0297 16.7407C38.0146 16.7522 36.4142 17.9094 34.8806 18.5748C33.4054 19.2145 31.7127 19.7816 29.8478 20.261C27.9793 20.742 25.9167 21.1399 23.718 21.4423C22.4748 21.6139 21.2266 21.7338 21.0093 21.7547C20.9925 21.7563 20.9819 21.7573 20.9779 21.7577C19.3738 21.9055 18.0655 23.2774 18.0014 24.8733L18.0009 24.8809C17.9963 24.963 18.0018 25.0457 18.1855 27.8447C18.4325 31.6132 19.1001 36.8184 20.7988 42.1529L23.1696 41.243C21.5768 36.1859 20.9485 31.2576 20.7134 27.6771C20.5856 25.7318 20.5465 25.1349 20.5355 24.9511C20.5757 24.632 20.896 24.3114 21.2225 24.2816C21.5689 24.2487 22.7984 24.1286 24.0628 23.9552C26.357 23.6393 28.516 23.2231 30.479 22.7175L30.5228 22.7061C32.4967 22.1958 34.301 21.589 35.8873 20.9013C37.7057 20.1127 39.5038 18.8035 39.5211 18.791C39.7381 18.6327 40.2618 18.6332 40.4767 18.7904L40.479 18.7921C40.5543 18.8466 42.3226 20.1257 44.1157 20.9033C45.7129 21.5953 47.5308 22.2058 49.5198 22.7175C51.4827 23.2225 53.6413 23.6393 55.9365 23.9552C57.2004 24.1291 58.4299 24.2492 58.7888 24.2826C59.1049 24.3119 59.4195 24.6284 59.4644 24.9563L59.2859 27.6781C58.9824 32.3113 58.0194 39.1994 55.1619 45.7042C52.8745 50.9102 49.7426 54.9841 45.8548 57.8114C44.0891 59.0935 41.2284 60.3614 41.1079 60.4136C40.5815 60.6434 39.4167 60.6434 38.8914 60.4136L38.8835 60.4101L38.8835 60.4101C38.6787 60.3189 35.8827 59.0737 34.144 57.8114C31.2659 55.7173 28.8023 52.941 26.7949 49.544L24.4 50.4631C26.6268 54.3388 29.3929 57.4909 32.6553 59.8627C34.6135 61.2863 37.5467 62.5934 37.8753 62.7375C38.458 62.9913 39.2122 63.1323 39.9994 63.1323C40.7866 63.1323 41.5408 62.9913 42.1235 62.7365C42.4516 62.5923 45.3848 61.2852 47.3425 59.8622C51.5986 56.7675 55.0096 52.3469 57.4816 46.7236C60.4873 39.8809 61.4966 32.68 61.8149 27.8442C61.9991 25.0212 62.0031 24.9598 61.9993 24.8988L61.999 24.8947ZM49.9758 30.9253C49.45 30.5018 48.6159 30.5937 48.1949 31.1185L38.8962 42.6884L33.1754 37.533C32.6746 37.0828 31.8358 37.1272 31.3867 37.627C31.1603 37.8787 31.0456 38.2041 31.0633 38.5425C31.0815 38.8809 31.2297 39.1921 31.4816 39.4182L37.8216 45.1319C38.143 45.4222 38.5577 45.5815 38.9896 45.5815C39.0269 45.5815 39.0636 45.5801 39.1027 45.5775C39.1111 45.577 39.1197 45.5764 39.1283 45.5757C39.6025 45.5366 40.0464 45.3011 40.3459 44.9277L50.1688 32.7087C50.3801 32.4445 50.4782 32.1139 50.4411 31.7771C50.4051 31.4402 50.2393 31.1373 49.9758 30.9253Z" fill="#00ADFF"/>
</svg>
