<svg width="80" height="80" viewBox="0 0 80 80" fill="none" xmlns="http://www.w3.org/2000/svg">
<path fill-rule="evenodd" clip-rule="evenodd" d="M14.978 50.0382C14.978 45.2849 17.8448 40.894 21.5266 38.3588C22.1421 43.8093 24.125 48.9036 27.7815 52.6591L28.8625 50.9478C25.5007 47.3376 23.3265 42.6387 22.9489 37.4506C22.9099 36.9148 22.8901 36.3738 22.8901 35.8282C22.8901 35.6635 22.8919 35.4991 22.8955 35.3352C22.5315 35.487 22.1743 35.6516 21.8244 35.8282C21.5161 35.9839 21.2135 36.1491 20.9171 36.3232C16.1755 39.1091 13 44.2087 13 50.0382C13 58.8536 20.2618 66 29.2198 66C34.3974 66 39.0083 63.6126 41.978 59.8954C42.4348 59.3237 42.8527 58.7205 43.2279 58.0896C42.5085 58.0151 41.7992 57.9076 41.1014 57.7686C39.286 57.4071 37.549 56.8329 35.9184 56.0735L34.8679 57.7367C36.4144 58.4742 38.1953 58.9522 39.9011 59.3618C37.2945 62.1813 33.3939 64.0534 29.2198 64.0534C21.3543 64.0534 14.978 57.7786 14.978 50.0382Z" fill="#00ADFF"/>
<path fill-rule="evenodd" clip-rule="evenodd" d="M65.0224 37.3855C65.0224 48.6736 55.7237 57.8244 44.2531 57.8244C41.2816 57.8244 38.4557 57.2103 35.8996 56.1039L34.8454 57.7728C37.7126 59.0562 40.898 59.771 44.2531 59.771C56.8161 59.771 67.0004 49.7487 67.0004 37.3855C67.0004 25.0223 56.8161 15 44.2531 15C31.6902 15 21.5059 25.0223 21.5059 37.3855C21.5059 43.3387 23.8673 48.7492 27.7187 52.7592L28.8021 51.044C25.4957 47.4241 23.4839 42.636 23.4839 37.3855C23.4839 26.0974 32.7826 16.9466 44.2531 16.9466C55.7237 16.9466 65.0224 26.0974 65.0224 37.3855Z" fill="#00ADFF"/>
<path fill-rule="evenodd" clip-rule="evenodd" d="M42.4916 26.3795L53.1483 27.0922C53.8023 27.1359 54.2964 27.6931 54.2519 28.3366L53.5277 38.8239C53.4833 39.4675 52.9171 39.9537 52.2632 39.91C51.6092 39.8662 51.1151 39.3091 51.1595 38.6655L51.6895 30.9914L22.09 57.8244L20.5293 56.0645L50.1288 29.2315L42.3307 28.71C41.6767 28.6662 41.1826 28.1091 41.227 27.4655C41.2715 26.822 41.8377 26.3357 42.4916 26.3795Z" fill="#00ADFF"/>
</svg>
