<svg width="80" height="81" viewBox="0 0 80 81" fill="none" xmlns="http://www.w3.org/2000/svg">
<path fill-rule="evenodd" clip-rule="evenodd" d="M59.9991 26.2031C59.9383 24.6944 58.7192 23.4042 57.2246 23.2658C57.1721 23.2609 55.9185 23.1436 54.6712 22.9705C52.6224 22.6875 50.7005 22.3154 48.9594 21.8647C47.2246 21.4164 45.6478 20.8854 44.2707 20.286C42.8436 19.6647 41.3485 18.5793 41.3324 18.5671C40.8313 18.2019 40.1799 18 39.4994 18C38.8184 18 38.1676 18.2019 37.664 18.5696C37.6499 18.5803 36.1587 19.6637 34.7296 20.2865C33.355 20.8854 31.7777 21.4164 30.04 21.8652C28.2989 22.3154 26.3769 22.688 24.3282 22.971C23.1697 23.1317 22.0066 23.2439 21.8041 23.2635C21.7885 23.265 21.7786 23.2659 21.7748 23.2663C20.2801 23.4047 19.0611 24.689 19.0013 26.183L19.0009 26.1901C18.9966 26.267 19.0016 26.3445 19.1729 28.9648C19.403 32.4928 20.0251 37.3657 21.608 42.3597L23.8171 41.5079C22.3329 36.7736 21.7475 32.1599 21.5284 28.8079C21.4093 26.9868 21.3728 26.428 21.3626 26.2559C21.4001 25.9572 21.6985 25.657 22.0028 25.6291C22.3255 25.5983 23.4712 25.4859 24.6494 25.3236C26.7872 25.0278 28.799 24.6381 30.6281 24.1649L30.669 24.1541C32.5083 23.6765 34.1896 23.1084 35.6677 22.4645C37.3622 21.7263 39.0377 20.5007 39.0537 20.4889C39.2559 20.3408 39.7439 20.3413 39.9442 20.4884L39.9464 20.49C40.0165 20.541 41.6643 21.7385 43.335 22.4665C44.8234 23.1143 46.5174 23.6858 48.3707 24.1649C50.1998 24.6376 52.2112 25.0278 54.3499 25.3236C55.5277 25.4864 56.6733 25.5988 57.0078 25.6301C57.3023 25.6575 57.5954 25.9537 57.6372 26.2608L57.471 28.8088C57.1881 33.1463 56.2908 39.5947 53.6281 45.6843C51.4967 50.558 48.5783 54.3719 44.9556 57.0187C43.3103 58.2189 40.6446 59.406 40.5323 59.4548C40.0419 59.67 38.9565 59.67 38.467 59.4548L38.4596 59.4515C38.2688 59.3662 35.6635 58.2005 34.0433 57.0187C31.3614 55.0582 29.0658 52.4592 27.1953 49.279L24.9636 50.1395C27.0386 53.7678 29.6161 56.7187 32.656 58.9391C34.4808 60.2718 37.2139 61.4955 37.5202 61.6304C38.0631 61.868 38.766 62 39.4994 62C40.2329 62 40.9358 61.868 41.4787 61.6294C41.7845 61.4945 44.5177 60.2708 46.3419 58.9386C50.3078 56.0414 53.4862 51.903 55.7897 46.6386C58.5904 40.2327 59.531 33.4914 59.8275 28.9643C59.9991 26.3215 60.0028 26.264 59.9993 26.2069L59.9991 26.2031ZM48.7957 31.8488C48.3057 31.4523 47.5284 31.5383 47.1362 32.0296L38.4715 42.861L33.1407 38.0347C32.6741 37.6133 31.8925 37.6548 31.474 38.1227C31.263 38.3583 31.1561 38.6629 31.1726 38.9797C31.1896 39.2965 31.3277 39.5879 31.5624 39.7996L37.4702 45.1485C37.7696 45.4203 38.156 45.5694 38.5585 45.5694C38.5933 45.5694 38.6274 45.5681 38.6639 45.5657C38.6717 45.5652 38.6797 45.5647 38.6878 45.564C39.1296 45.5274 39.5433 45.3069 39.8223 44.9573L48.9755 33.5183C49.1723 33.2709 49.2637 32.9615 49.2292 32.6461C49.1957 32.3308 49.0411 32.0473 48.7957 31.8488Z" fill="#00ADFF"/>
</svg>
