<svg width="80" height="81" viewBox="0 0 80 81" fill="none" xmlns="http://www.w3.org/2000/svg">
<path fill-rule="evenodd" clip-rule="evenodd" d="M28.3336 16.8537C29.696 14.4016 33.1493 14.3774 34.5445 16.8102L49.8859 43.5607C51.2846 45.9996 49.5614 49.0672 46.7927 49.0672H38.7907C38.1686 49.0672 37.6642 48.5524 37.6642 47.9174C37.6642 47.2824 38.1686 46.7677 38.7907 46.7677H46.7927C47.8211 46.7677 48.4611 45.6283 47.9416 44.7224L32.6003 17.9719C32.082 17.0683 30.7994 17.0772 30.2933 17.9881L15.4314 44.7386C14.9281 45.6444 15.5692 46.7677 16.5894 46.7677H31.8272C33.8067 46.7677 35.4113 48.4056 35.4113 50.426V62.3417C35.4113 63.0921 36.0074 63.7005 36.7426 63.7005H65.4158C66.1511 63.7005 66.7471 63.0921 66.7471 62.3417V33.0751C66.7471 32.3246 66.1511 31.7163 65.4158 31.7163H47.8023C47.1802 31.7163 46.6758 31.2015 46.6758 30.5665C46.6758 29.9315 47.1802 29.4168 47.8023 29.4168H65.4158C67.3953 29.4168 69 31.0546 69 33.0751V62.3417C69 64.3621 67.3953 66 65.4158 66H36.7426C34.7631 66 33.1584 64.3621 33.1584 62.3417V50.426C33.1584 49.6755 32.5624 49.0672 31.8272 49.0672H16.5894C13.8426 49.0672 12.1167 46.043 13.4717 43.6043L28.3336 16.8537Z" fill="#00ADFF"/>
</svg>
