<svg width="80" height="80" viewBox="0 0 80 80" fill="none" xmlns="http://www.w3.org/2000/svg">
<path fill-rule="evenodd" clip-rule="evenodd" d="M33.6799 13.4068C34.5559 9.65532 37.9324 7 41.8166 7H60.0949C66.6715 7 72 12.2833 72 18.8V25.2C72 31.7169 66.6689 37 60.0925 37H49.4948V35H60.0925C65.5542 35 69.9818 30.6124 69.9818 25.2V18.8C69.9818 13.3873 65.5563 9 60.0949 9H41.8166C38.8702 9 36.3101 11.0146 35.6462 13.8577L33.6799 13.4068ZM42.1613 17.44C40.2641 16.08 37.6405 15.24 34.0481 15.24C30.4557 15.24 27.8319 16.08 25.9348 17.44C24.0377 18.8 22.9882 20.68 22.4231 22.52C21.5047 25.5671 21.8899 28.8099 22.0545 30.1957L22.0598 30.24V30.32C20.9297 31.6 20.849 33.52 21.1719 34.96C21.3737 35.8 21.737 36.64 22.2616 37.28C22.5845 37.72 23.069 38.08 23.6341 38.32C24.1588 40.56 25.2486 42.48 26.2174 43.88C26.7421 44.64 27.2668 45.28 27.6705 45.68C27.7916 45.8 27.8723 45.92 27.953 46V46.04C27.944 46.1028 27.937 46.1696 27.9305 46.24C27.9262 46.288 27.9222 46.3376 27.918 46.3888C27.9012 46.5973 27.8823 46.8309 27.832 47.08C27.7512 47.48 27.6705 47.76 27.5494 47.96C27.533 47.9763 27.5233 47.9925 27.5174 48.0061C27.509 48.0259 27.509 48.04 27.509 48.04C25.8944 48.32 22.9883 49.28 19.961 50.72C16.8528 52.16 13.4219 54.16 11 56.48L12.4532 58C14.6732 55.92 17.8619 54.04 20.8893 52.64C23.9166 51.2 26.6614 50.32 27.953 50.12C28.7603 50 29.2044 49.4 29.4466 48.96C29.6887 48.48 29.8501 47.96 29.9308 47.48C29.996 47.093 30.0348 46.732 30.0686 46.418C30.0768 46.3425 30.0846 46.2698 30.0923 46.2C30.0923 46.1055 30.0923 46.011 30.1006 45.933C30.1064 45.8789 30.1162 45.8328 30.1327 45.8V45.68V45.64V45.2L29.8098 44.88L29.7694 44.84L29.6484 44.72C29.6035 44.6756 29.5337 44.6064 29.4529 44.5195C29.3882 44.4499 29.3165 44.3689 29.2448 44.28C28.9218 43.92 28.4374 43.36 27.953 42.68C26.9843 41.28 25.9348 39.4 25.5716 37.28L25.4101 36.4H24.522C24.4009 36.4 24.1991 36.36 23.9166 36C23.6341 35.64 23.3918 35.12 23.2707 34.52C22.9882 33.2 23.2304 32.04 23.8762 31.56L24.2798 31.24L24.2395 30.72C24.2395 30.6312 24.2315 30.5266 24.2191 30.4062C24.2101 30.3187 24.1987 30.2228 24.1864 30.1185C24.1775 30.0433 24.1682 29.9638 24.1588 29.88L24.1576 29.87V29.8687C23.996 28.347 23.7166 25.7137 24.4816 23.16C24.9257 21.64 25.7734 20.2 27.2265 19.16C28.6796 18.12 30.8189 17.36 34.0885 17.36C37.3579 17.36 39.4973 18.12 40.9504 19.16C42.4035 20.2 43.2108 21.64 43.6951 23.16C44.462 25.72 44.1795 28.4 44.018 29.88L44.0056 29.9886L43.9904 30.1185C43.9611 30.3661 43.9373 30.5666 43.9373 30.72L43.8969 31.24L44.3006 31.56C44.906 32.08 45.1886 33.24 44.906 34.52C44.7446 35.12 44.5024 35.64 44.2602 36C43.9776 36.36 43.7758 36.4 43.6547 36.4H42.7668L42.6053 37.28C42.242 39.4 41.1925 41.32 40.2237 42.68C39.7394 43.36 39.2954 43.92 38.9322 44.28C38.8829 44.341 38.8337 44.3945 38.7868 44.4428C38.7569 44.4737 38.7278 44.5025 38.7003 44.5298C38.6296 44.5999 38.569 44.66 38.5286 44.72L38.4073 44.84L38.367 44.88L38.0441 45.2V45.64V45.68V45.8C38.0441 45.92 38.0441 46.04 38.0845 46.2C38.1065 46.3738 38.1284 46.5949 38.1567 46.8375C38.1806 47.0415 38.2091 47.2607 38.2459 47.48C38.3266 47.96 38.4881 48.48 38.7304 48.96C38.9725 49.4 39.4164 50 40.2237 50.12C41.5558 50.32 44.3813 51.24 47.4893 52.72C50.5974 54.2 53.8266 56.12 56.0062 58.28C56.4906 58.76 56.6521 59.2 56.6925 59.52C56.7328 59.88 56.6117 60.24 56.3695 60.56C55.8448 61.28 54.7146 61.92 53.2211 61.92H14.4714V64H53.2211C55.2393 64 57.0961 63.12 58.0648 61.76C58.5492 61.04 58.8317 60.2 58.751 59.28C58.6703 58.36 58.2263 57.52 57.4594 56.76C55.0375 54.36 51.5662 52.28 48.3774 50.8C45.2694 49.32 42.242 48.28 40.5871 48.04C40.5871 48.02 40.5769 48.01 40.5669 48C40.5625 47.9957 40.5582 47.9914 40.5547 47.9863C40.55 47.9796 40.5468 47.9714 40.5468 47.96C40.4257 47.76 40.3448 47.44 40.2641 47.08C40.1834 46.72 40.1431 46.32 40.1431 46.04V46C40.2238 45.92 40.3448 45.8 40.4256 45.68C40.5007 45.5889 40.5829 45.4909 40.6709 45.386L40.6921 45.3608C41.0256 44.9637 41.44 44.4701 41.8787 43.88C42.8474 42.48 43.9373 40.56 44.462 38.32C45.0271 38.12 45.4712 37.72 45.8344 37.28C46.3592 36.64 46.7224 35.8 46.9243 34.96C47.2472 33.52 47.1665 31.6 46.0363 30.32V30.24L46.0398 30.2101C46.2035 28.8318 46.5946 25.5379 45.6729 22.52C45.1079 20.68 44.0584 18.84 42.1613 17.44ZM57.3417 28.1211C57.2484 28.1674 57.1462 28.194 57.0416 28.1992C56.9169 28.2048 56.7927 28.1798 56.6804 28.1264L52.9186 26.3372L49.2843 28.1212C49.2322 28.147 49.1774 28.1666 49.1211 28.1798C49.0458 28.1975 48.9678 28.2037 48.8898 28.1979C48.7538 28.1877 48.623 28.1413 48.5118 28.0636C48.4008 27.9859 48.3134 27.8799 48.2595 27.7571C48.2055 27.6343 48.1869 27.4994 48.2057 27.367L48.7849 23.3151L45.9263 20.4804C45.8313 20.3852 45.7646 20.2664 45.7333 20.1368C45.7021 20.0072 45.7075 19.8718 45.7491 19.745C45.7906 19.6182 45.8667 19.5049 45.969 19.4173C46.0713 19.3296 46.1962 19.271 46.3301 19.2477L50.4479 18.5299L52.3128 14.9929C52.3759 14.8749 52.4707 14.7759 52.587 14.7066C52.6741 14.6548 52.7708 14.621 52.871 14.6072C52.9046 14.6025 52.9386 14.6001 52.9728 14.6C53.1089 14.5995 53.2425 14.6353 53.3594 14.7036C53.4763 14.7719 53.5718 14.8702 53.6358 14.9877L55.6018 18.5975L59.6186 19.2424C59.7533 19.2643 59.8795 19.3218 59.9831 19.4088C60.0869 19.4958 60.1643 19.609 60.207 19.736C60.2314 19.8084 60.2439 19.8838 60.2445 19.9594C60.2449 20.0163 60.2386 20.0733 60.2254 20.1293C60.1947 20.2597 60.1282 20.3792 60.033 20.4752L57.132 23.4295L57.743 27.3566C57.7589 27.4578 57.7529 27.5612 57.7255 27.6601C57.698 27.7589 57.6497 27.851 57.5835 27.9304C57.5458 27.9757 57.5027 28.0164 57.4553 28.0515C57.4198 28.0779 57.3817 28.1012 57.3417 28.1211ZM53.2374 24.8599L56.0481 26.2019L55.5965 23.289C55.5792 23.1776 55.5884 23.0638 55.6235 22.9564C55.6585 22.849 55.7184 22.751 55.7984 22.67L57.9715 20.4647L54.996 19.9861C54.8828 19.9674 54.7756 19.9234 54.6825 19.8576C54.6142 19.8093 54.5548 19.7501 54.507 19.6829C54.4896 19.6584 54.4737 19.6329 54.4595 19.6064L52.9877 16.9069L51.6062 19.5232C51.5536 19.6229 51.4784 19.7095 51.3863 19.7762C51.3409 19.8091 51.292 19.8368 51.2406 19.8587C51.1876 19.8813 51.1321 19.898 51.0749 19.9082L47.9932 20.4438L50.1079 22.54C50.1881 22.62 50.2485 22.7169 50.2844 22.8233C50.3203 22.9297 50.3308 23.0428 50.3151 23.1538L49.8847 26.1914L52.5732 24.865C52.6761 24.8142 52.7895 24.7873 52.9047 24.7864C53.0199 24.7855 53.1337 24.8106 53.2374 24.8599Z" fill="#00ADFF"/>
</svg>
