<svg width="80" height="81" viewBox="0 0 80 81" fill="none" xmlns="http://www.w3.org/2000/svg">
<path d="M21.0909 16.9896C21.0407 16.9896 21 17.0301 21 17.08V54.3391C21 54.8885 20.5523 55.3339 20 55.3339C19.4477 55.3339 19 54.8885 19 54.3391V17.08C19 15.9312 19.9361 15 21.0909 15H37.0909C37.6432 15 38.0909 15.4454 38.0909 15.9948C38.0909 16.5442 37.6432 16.9896 37.0909 16.9896H21.0909Z" fill="#00ADFF"/>
<path d="M26.0909 21.0591C26.0909 21.0092 26.1316 20.9687 26.1818 20.9687H42.1818C42.7341 20.9687 43.1818 20.5233 43.1818 19.9739C43.1818 19.4245 42.7341 18.9791 42.1818 18.9791H26.1818C25.027 18.9791 24.0909 19.9104 24.0909 21.0591V59.7652C24.0909 60.3146 24.5386 60.76 25.0909 60.76C25.6432 60.76 26.0909 60.3146 26.0909 59.7652V21.0591Z" fill="#00ADFF"/>
<path d="M34.9091 36.3426C34.3568 36.3426 33.9091 36.788 33.9091 37.3374C33.9091 37.8868 34.3568 38.3322 34.9091 38.3322H44.5455C45.0977 38.3322 45.5455 37.8868 45.5455 37.3374C45.5455 36.788 45.0977 36.3426 44.5455 36.3426H34.9091Z" fill="#00ADFF"/>
<path d="M34.9091 42.5613C34.3568 42.5613 33.9091 43.0066 33.9091 43.5561C33.9091 44.1055 34.3568 44.5508 34.9091 44.5508H54.5455C55.0977 44.5508 55.5455 44.1055 55.5455 43.5561C55.5455 43.0066 55.0977 42.5613 54.5455 42.5613H34.9091Z" fill="#00ADFF"/>
<path d="M34.9091 48.6417C34.3568 48.6417 33.9091 49.0871 33.9091 49.6365C33.9091 50.1859 34.3568 50.6313 34.9091 50.6313H49.2727C49.825 50.6313 50.2727 50.1859 50.2727 49.6365C50.2727 49.0871 49.825 48.6417 49.2727 48.6417H34.9091Z" fill="#00ADFF"/>
<path d="M34.9091 55.5148C34.3568 55.5148 33.9091 55.9602 33.9091 56.5096C33.9091 57.059 34.3568 57.5043 34.9091 57.5043H54.5455C55.0977 57.5043 55.5455 57.059 55.5455 56.5096C55.5455 55.9602 55.0977 55.5148 54.5455 55.5148H34.9091Z" fill="#00ADFF"/>
<path fill-rule="evenodd" clip-rule="evenodd" d="M60 34.9861L48.5455 23.953H30.1818C29.5793 23.953 29.0909 24.4389 29.0909 25.0383V65.9148C29.0909 66.5141 29.5793 67 30.1818 67H58.9091C59.5116 67 60 66.5141 60 65.9148V34.9861ZM31.0909 25.9426H47.5455V33.9009C47.5455 35.0496 48.4816 35.9809 49.6364 35.9809H58V65.0104H31.0909V25.9426ZM49.5455 27.6856L56.092 33.9913H49.6364C49.5862 33.9913 49.5455 33.9508 49.5455 33.9009V27.6856Z" fill="#00ADFF"/>
</svg>
