<svg width="80" height="80" viewBox="0 0 80 80" fill="none" xmlns="http://www.w3.org/2000/svg">
<path fill-rule="evenodd" clip-rule="evenodd" d="M21 50.998H31V62.998H21V60.998H29V52.998H23V55.998H21V50.998Z" fill="#00ADFF"/>
<path fill-rule="evenodd" clip-rule="evenodd" d="M33 42.998H45V62.998H33V42.998ZM35 44.998V60.998H43V44.998H35Z" fill="#00ADFF"/>
<path fill-rule="evenodd" clip-rule="evenodd" d="M47 32.998H59V62.998H47V32.998ZM49 34.998V60.998H57V34.998H49Z" fill="#00ADFF"/>
<path fill-rule="evenodd" clip-rule="evenodd" d="M39.1429 24.5695C40.4052 24.5695 41.4286 23.5461 41.4286 22.2838C41.4286 21.0214 40.4052 19.998 39.1429 19.998C37.8805 19.998 36.8571 21.0214 36.8571 22.2838C36.8571 23.5461 37.8805 24.5695 39.1429 24.5695ZM39.1429 26.5695C41.5098 26.5695 43.4286 24.6507 43.4286 22.2838C43.4286 19.9168 41.5098 17.998 39.1429 17.998C36.7759 17.998 34.8571 19.9168 34.8571 22.2838C34.8571 24.6507 36.7759 26.5695 39.1429 26.5695Z" fill="#00ADFF"/>
<path fill-rule="evenodd" clip-rule="evenodd" d="M54.5714 27.998C55.8338 27.998 56.8571 26.9747 56.8571 25.7123C56.8571 24.45 55.8338 23.4266 54.5714 23.4266C53.3091 23.4266 52.2857 24.45 52.2857 25.7123C52.2857 26.9747 53.3091 27.998 54.5714 27.998ZM54.5714 29.998C56.9384 29.998 58.8571 28.0793 58.8571 25.7123C58.8571 23.3454 56.9384 21.4266 54.5714 21.4266C52.2045 21.4266 50.2857 23.3454 50.2857 25.7123C50.2857 28.0793 52.2045 29.998 54.5714 29.998Z" fill="#00ADFF"/>
<path fill-rule="evenodd" clip-rule="evenodd" d="M25.4286 41.7123C26.6909 41.7123 27.7143 40.689 27.7143 39.4266C27.7143 38.1643 26.6909 37.1409 25.4286 37.1409C24.1662 37.1409 23.1429 38.1643 23.1429 39.4266C23.1429 40.689 24.1662 41.7123 25.4286 41.7123ZM25.4286 43.7123C27.7955 43.7123 29.7143 41.7936 29.7143 39.4266C29.7143 37.0597 27.7955 35.1409 25.4286 35.1409C23.0616 35.1409 21.1429 37.0597 21.1429 39.4266C21.1429 41.7936 23.0616 43.7123 25.4286 43.7123Z" fill="#00ADFF"/>
<path fill-rule="evenodd" clip-rule="evenodd" d="M16 37.998H22V39.998H16V37.998Z" fill="#00ADFF"/>
<path fill-rule="evenodd" clip-rule="evenodd" d="M38 25.998L28 36.8555L26.5289 35.5005L36.5289 24.6431L38 25.998Z" fill="#00ADFF"/>
<path fill-rule="evenodd" clip-rule="evenodd" d="M52 25.998L41.7144 23.1406L42.2497 21.2136L52.5353 24.071L52 25.998Z" fill="#00ADFF"/>
<path fill-rule="evenodd" clip-rule="evenodd" d="M63.9998 21.4269L58 25.998L56.7879 24.4072L62.7877 19.836L63.9998 21.4269Z" fill="#00ADFF"/>
</svg>
