<svg width="80" height="80" viewBox="0 0 80 80" fill="none" xmlns="http://www.w3.org/2000/svg">
<path fill-rule="evenodd" clip-rule="evenodd" d="M13.5762 20.4067C13.5762 18.6582 14.9995 17.1943 16.7887 17.1943H65.7876C67.5362 17.1943 69 18.6175 69 20.4067V50.2534C69 52.0019 67.5768 53.4658 65.7876 53.4658H18.9031V51.3513H65.7876C66.3569 51.3513 66.8448 50.8633 66.8448 50.2941V20.4067C66.8448 19.8374 66.3569 19.3495 65.7876 19.3495H16.7887C16.2194 19.3495 15.7314 19.8374 15.7314 20.4067V48.0983H13.6169V20.4067H13.5762ZM21.0176 35.3314V48.0996H27.4017V35.3314H21.0176ZM25.2872 45.9445H23.1728V37.4053H25.2872V45.9445ZM29.5564 48.0588V33.1355H35.9405V48.0588H29.5564ZM31.7116 45.9443H33.826V35.2906H31.7116V45.9443ZM38.0556 31.0594V48.0972H44.4397V31.0594H38.0556ZM42.3253 45.942H40.2107V33.1332H42.3253V45.942ZM46.5945 48.0563V28.8634H52.9785V48.0563H46.5945ZM48.7495 45.9419H50.8641V31.0185H48.7495V45.9419ZM55.1338 26.7873V48.0947H61.5179V26.7873H55.1338ZM59.3627 45.9396H57.2483V28.8611H59.3627V45.9396ZM16.7887 56.5934H65.7877C66.9669 56.5934 67.9021 57.5693 67.9021 58.7079V62.9775C67.9021 64.1567 66.9669 65.092 65.7877 65.092H16.7887C15.6094 65.092 14.6742 64.1567 14.6742 62.9775V58.7079C14.6742 57.5287 15.6094 56.5934 16.7887 56.5934ZM16.7887 62.9775H65.7877V58.7079H16.7887V62.9775Z" fill="#00ADFF"/>
</svg>
