<svg width="80" height="81" viewBox="0 0 80 81" fill="none" xmlns="http://www.w3.org/2000/svg">
<path d="M55.1029 31.3371C55.1029 27.7937 53.1983 24.6046 49.9649 22.2571L48.5918 24.1174C51.3379 26.1105 52.7554 28.6795 52.7554 31.2928C52.7554 33.9061 51.3379 36.475 48.5918 38.4682L49.9649 40.3285C53.1983 38.0253 55.1029 34.8805 55.1029 31.3371Z" fill="#00ADFF"/>
<path d="M64.3605 31.3371C64.3605 26.0663 61.6586 21.2383 56.9193 17.6506L55.502 19.5109C59.7541 22.7443 62.013 26.9521 62.013 31.3371C62.013 35.7221 59.7541 39.9299 55.502 43.1632L56.9193 45.0235C61.6586 41.4358 64.3605 36.5636 64.3605 31.3371Z" fill="#00ADFF"/>
<path d="M71.3137 31.3371C71.3137 24.4717 68.7447 18.005 64.0054 13.1328L62.3223 14.7274C66.6187 19.1566 68.9662 25.0476 68.9662 31.3371C68.9662 37.6267 66.6187 43.5176 62.3223 47.9469L64.0054 49.5414C68.7447 44.6692 71.3137 38.2025 71.3137 31.3371Z" fill="#00ADFF"/>
<path d="M27.2422 31.3371C27.2422 27.7937 29.1468 24.6046 32.3802 22.2571L33.7532 24.1174C31.007 26.1105 29.5897 28.6795 29.5897 31.2928C29.5897 33.9061 31.007 36.475 33.7532 38.4682L32.3802 40.3285C29.1468 38.0253 27.2422 34.8805 27.2422 31.3371Z" fill="#00ADFF"/>
<path d="M17.9414 31.3371C17.9414 26.0663 20.6433 21.2383 25.3826 17.6506L26.7999 19.5109C22.5478 22.7443 20.2889 26.9521 20.2889 31.3371C20.2889 35.7221 22.5478 39.9299 26.7999 43.1632L25.3826 45.0235C20.6433 41.4358 17.9414 36.5636 17.9414 31.3371Z" fill="#00ADFF"/>
<path d="M8.68359 31.3372C8.68359 24.3389 12.1827 17.8279 18.428 13L19.8453 14.816C14.0873 19.2896 11.0311 25.1362 11.0311 31.2929C11.0311 37.4496 14.1316 43.3405 19.8453 47.7698L18.428 49.5858C12.1827 44.8465 8.68359 38.3354 8.68359 31.3372Z" fill="#00ADFF"/>
<path d="M41.15 25.5791C37.961 25.5791 35.3477 28.1924 35.3477 31.3814C35.3477 34.5705 37.961 37.1838 41.15 37.1838C44.3391 37.1838 46.9523 34.5705 46.9523 31.3814C46.9523 28.1924 44.3391 25.5791 41.15 25.5791ZM41.15 34.792C39.2455 34.792 37.6951 33.2417 37.6509 31.2929C37.6509 29.344 39.2012 27.7937 41.15 27.7937C43.0989 27.7937 44.6491 29.3883 44.6491 31.2929C44.6491 33.2417 43.0546 34.792 41.15 34.792Z" fill="#00ADFF"/>
<path d="M39.998 64.9995V34.8362H42.3012V64.9995H39.998Z" fill="#00ADFF"/>
</svg>
