<svg width="80" height="80" viewBox="0 0 80 80" fill="none" xmlns="http://www.w3.org/2000/svg">
<path fill-rule="evenodd" clip-rule="evenodd" d="M46.2296 32.8858C46.6854 33.305 46.6854 33.9846 46.2296 34.4038L41.9611 38.3286L46.2296 42.2533C46.6854 42.6725 46.6854 43.3521 46.2296 43.7713C45.7736 44.1905 45.0346 44.1905 44.5787 43.7713L39.4848 39.0875C39.0289 38.6684 39.0289 37.9888 39.4848 37.5696L44.5787 32.8858C45.0346 32.4666 45.7736 32.4666 46.2296 32.8858Z" fill="#00ADFF"/>
<path fill-rule="evenodd" clip-rule="evenodd" d="M55.7934 32.8858C55.3832 33.305 55.3832 33.9846 55.7934 34.4038L59.635 38.3286L55.7934 42.2533C55.3832 42.6725 55.3832 43.3521 55.7934 43.7713C56.2037 44.1905 56.8689 44.1905 57.2792 43.7713L61.8637 39.0875C62.274 38.6684 62.274 37.9888 61.8637 37.5696L57.2792 32.8858C56.8689 32.4666 56.2037 32.4666 55.7934 32.8858Z" fill="#00ADFF"/>
<path fill-rule="evenodd" clip-rule="evenodd" d="M54.0413 30.4185C54.6075 30.6402 54.8879 31.282 54.6678 31.8521L49.0682 46.3508C48.848 46.9208 48.2106 47.2032 47.6444 46.9816C47.0783 46.7599 46.7978 46.1179 47.0179 45.5478L52.6175 31.0493C52.8377 30.4792 53.4751 30.1967 54.0413 30.4185Z" fill="#00ADFF"/>
<path fill-rule="evenodd" clip-rule="evenodd" d="M54.3469 14L67 26.0161V56.6467C67 57.2994 66.4605 57.8286 65.7949 57.8286H35.5194C34.8538 57.8286 34.3143 57.2994 34.3143 56.6467V30.4909H36.5235V55.6617H64.7907V27.0995H55.5519C54.2763 27.0995 53.2423 26.0853 53.2423 24.8342V16.1669H36.5235V25.1546H34.3143V15.1819C34.3143 14.5292 34.8538 14 35.5194 14H54.3469ZM62.6832 24.9327L55.4515 18.0652V24.8342C55.4515 24.8886 55.4965 24.9327 55.5519 24.9327H62.6832Z" fill="#00ADFF"/>
<path fill-rule="evenodd" clip-rule="evenodd" d="M28.3714 36.1H25.4422V32.2H23.5682V36.1H22.0656C20.3406 36.1 18.9422 37.4858 18.9422 39.1952V40.3095H15V42.1666H18.9422V44.1476H15V46.0048H18.9422V47.9857H15V49.8429H18.9422V51.8238H15V53.6809H18.9422V55.6619H15V57.5191H18.9422V59.0048C18.9422 60.7142 20.3406 62.1 22.0656 62.1H23.5682V66H25.4422V62.1H27.4513V66H29.3253V62.1H31.3344V66H33.2085V62.1H35.2175V66H37.0916V62.1H39.1007V66H40.9747V62.1H42.1059C43.8308 62.1 45.2292 60.7142 45.2292 59.0048V57.5191H49.1714V56.0334H45.2292V55.9714H43.3552V59.0048C43.3552 59.6885 42.7958 60.2428 42.1059 60.2428H22.0656C21.3756 60.2428 20.8162 59.6885 20.8162 59.0048V39.1952C20.8162 38.5115 21.3756 37.9572 22.0656 37.9572H28.3714V36.1Z" fill="#00ADFF"/>
<path d="M28 32.2H29.8571V37.9571H28V32.2Z" fill="#00ADFF"/>
</svg>
