<svg width="80" height="81" viewBox="0 0 80 81" fill="none" xmlns="http://www.w3.org/2000/svg">
<path d="M36.665 31.7905C36.665 29.0082 38.9421 26.7282 41.7208 26.7282H61.9442C64.723 26.7282 67 29.0082 67 31.7905V62.5511C67 65.3335 64.723 67.6135 61.9442 67.6135H41.7208V65.604H61.9442C63.6037 65.604 64.9931 64.2515 64.9931 62.5511V31.7905C64.9931 30.1288 63.6423 28.7377 61.9442 28.7377H41.7208C40.0613 28.7377 38.6719 30.0902 38.6719 31.7905V36.0027H36.665V31.7905Z" fill="#00ADFF"/>
<path d="M60.9793 36.0027H42.8401V34.0705H60.9793V36.0027Z" fill="#00ADFF"/>
<path d="M60.5934 49.9146H42.8401V47.9824H60.5934V49.9146Z" fill="#00ADFF"/>
<path d="M60.5934 42.9586H42.8401V41.0264H60.5934V42.9586Z" fill="#00ADFF"/>
<path d="M54.4183 56.8705H42.8401V54.9383H54.4183V56.8705Z" fill="#00ADFF"/>
<path d="M11.5786 60.8896H13.5855V57.8368H16.9432V65.952H11.54V67.9615H18.9501V55.8273H11.5786V60.8896Z" fill="#00ADFF"/>
<path d="M20.9956 68H28.8688V47.7505H20.9956V68ZM23.0024 49.7987H26.8619V65.9905H23.0024V49.7987Z" fill="#00ADFF"/>
<path d="M31.2618 67.6521H38.7491V40.3695H31.2618V67.6521ZM33.3073 42.3403H36.7808V65.5654H33.3073V42.3403Z" fill="#00ADFF"/>
<path d="M20.4556 35.8094C22.8484 35.8094 24.7781 33.8772 24.7781 31.4813C24.7781 30.2833 24.2763 29.2013 23.5045 28.3898L29.7953 19.3857C30.2585 19.5403 30.7216 19.6563 31.2619 19.6563C33.2302 19.6563 34.8512 18.3424 35.3915 16.5647L44.1138 18.1878C44.1138 18.2651 44.1138 18.3424 44.1138 18.4196C44.0752 20.8156 46.0435 22.7478 48.4363 22.7478C50.8292 22.7478 52.7588 20.8156 52.7588 18.4196C52.7588 18.3037 52.7588 18.1878 52.7588 18.1105L57.9691 14.0915L56.7341 12.4685L52.0641 16.0624C51.2922 14.8644 49.9801 14.0915 48.4363 14.0915C46.8154 14.0915 45.426 14.9803 44.6927 16.2556L35.5073 14.5166C35.1213 12.5071 33.3846 11 31.2619 11C28.8691 11 26.9394 12.9322 26.9394 15.3281C26.9394 16.4488 27.3639 17.4922 28.0972 18.2651L21.7677 27.3464C21.3818 27.2305 20.9573 27.1532 20.5327 27.1532C18.6416 27.1532 17.0592 28.3512 16.4417 30.0515H11V32.061H16.2487C16.4417 34.1864 18.2557 35.8094 20.4556 35.8094ZM48.3977 16.101C49.6713 16.101 50.7133 17.1444 50.7133 18.4196C50.7133 19.6949 49.6713 20.7383 48.3977 20.7383C47.1241 20.7383 46.082 19.6949 46.082 18.4196C46.082 17.1444 47.1241 16.101 48.3977 16.101ZM31.2233 13.0095C32.4969 13.0095 33.5389 14.0529 33.5389 15.3281C33.5389 16.6034 32.4969 17.6468 31.2233 17.6468C29.9497 17.6468 28.9076 16.6034 28.9076 15.3281C28.9076 14.0529 29.9497 13.0095 31.2233 13.0095ZM20.4556 29.2013C21.7292 29.2013 22.7712 30.2447 22.7712 31.52C22.7712 32.7952 21.7292 33.8386 20.4556 33.8386C19.182 33.8386 18.1399 32.7952 18.1399 31.52C18.1399 30.2447 19.182 29.2013 20.4556 29.2013Z" fill="#00ADFF"/>
</svg>
