<svg width="80" height="81" viewBox="0 0 80 81" fill="none" xmlns="http://www.w3.org/2000/svg">
<path fill-rule="evenodd" clip-rule="evenodd" d="M44.3879 21H46.204H65.6776C68.6029 21 71 23.0069 71 25.9555V58.5534C71 61.5019 68.6029 64 65.6776 64H44.3879V61.9524H65.6776C67.4247 61.9524 68.8873 60.3553 68.8873 58.5534V25.9555C68.8873 24.1945 67.4653 23.0477 65.6776 23.0477H44.3879C42.6409 23.0477 41.1782 24.1536 41.1782 25.9555V58.2667H39.0655V58.2663C36.0853 58.2663 33.6765 58.2663 33.5806 58.2665C33.5562 58.2665 33.5319 58.2667 33.5079 58.267L33.5073 58.267C33.2792 58.2692 33.0705 58.2712 32.9001 58.1126L26.0603 51.7087H17.121C16.902 52.6936 16.334 53.5642 15.5235 54.1569C14.7131 54.7495 13.7161 55.0236 12.7195 54.9275C11.7231 54.8315 10.7955 54.372 10.1111 53.6352C9.42676 52.8985 9.03257 51.9352 9.00251 50.9262C8.97246 49.9172 9.30862 48.9318 9.94801 48.155C10.5874 47.3783 11.486 46.8635 12.475 46.7075C13.4641 46.5513 14.4756 46.7646 15.3198 47.3072C16.1639 47.8498 16.7827 48.6844 17.0598 49.6544H26.4626C26.7192 49.654 26.9666 49.7511 27.1553 49.9266L33.995 56.3306H39.0655V53.2493H35.9113C35.6412 53.2493 35.3821 53.1411 35.191 52.9485C35.0001 52.7558 34.8928 52.4946 34.8928 52.2222V46.5731H30.5369C30.2667 46.5731 30.0077 46.4649 29.8166 46.2723C29.6257 46.0796 29.5183 45.8184 29.5183 45.546V39.8969H21.7103C21.4622 40.875 20.8687 41.728 20.0409 42.296C19.2133 42.864 18.2085 43.1078 17.2152 42.9818C16.222 42.8557 15.3085 42.3684 14.6462 41.6112C13.9839 40.8541 13.6186 39.8793 13.6186 38.8699C13.6186 37.8603 13.9839 36.8856 14.6462 36.1285C15.3085 35.3713 16.222 34.884 17.2152 34.7579C18.2085 34.6318 19.2133 34.8757 20.0409 35.4437C20.8687 36.0116 21.4622 36.8647 21.7103 37.8428H29.5183V29.6259C29.5183 29.3535 29.6257 29.0923 29.8166 28.8996C30.0077 28.707 30.2667 28.5988 30.5369 28.5988H39.0655V25.9555C39.0655 24.8232 39.419 23.8299 40.0201 23.0356L33.2383 23.0356L26.1724 30.3449C26.1552 30.3625 26.1376 30.3794 26.1193 30.3956C26.104 30.4093 26.0883 30.4224 26.0723 30.435C26.0582 30.4461 26.0438 30.4568 26.0291 30.4672C25.9697 30.5091 25.906 30.5446 25.839 30.573C25.7139 30.6259 25.5797 30.6531 25.444 30.653H17.0598C16.8482 31.3949 16.4354 32.0625 15.8678 32.5805C15.3001 33.0985 14.6003 33.4463 13.8472 33.5848C13.094 33.7232 12.3175 33.6468 11.6051 33.3641C10.8926 33.0815 10.2728 32.6038 9.81509 31.9849C9.35752 31.3661 9.08038 30.6306 9.01501 29.8615C8.94964 29.0923 9.09863 28.32 9.44521 27.6317C9.79168 26.9433 10.322 26.3662 10.9764 25.9655C11.6307 25.5647 12.383 25.3562 13.1485 25.3634C14.0772 25.3655 14.9774 25.6873 15.6998 26.2757C16.4222 26.8641 16.9236 27.6838 17.121 28.5988H25.0162L32.1106 21.3081C32.2056 21.2105 32.3188 21.1329 32.4439 21.08C32.5052 21.0541 32.5686 21.0343 32.6333 21.021C32.6495 21.0176 32.6657 21.0147 32.6819 21.0121C32.7337 21.004 32.7862 20.9999 32.8388 21L44.3861 21H44.3879ZM39.0655 35.7885V51.1951H36.9299V35.7885H39.0655ZM39.0655 30.653V33.7343H35.9113C35.6412 33.7343 35.3821 33.8425 35.191 34.0352C35.0001 34.2278 34.8928 34.489 34.8928 34.7615V44.5189H31.5555V30.653H39.0655ZM45.5662 30.4192H64.6619V28.3716H45.5662V30.4192ZM64.2556 45.162H45.5662V43.1144H64.2556V45.162ZM45.5662 37.7906H64.2556V35.743H45.5662V37.7906ZM57.7549 52.5334H45.5662V50.4858H57.7549V52.5334ZM40.2844 63.9998V61.9508H31.9106L24.0492 54.5438C23.8598 54.3658 23.6101 54.2668 23.3508 54.2672H19.7441C19.4748 54.267 19.2164 54.3739 19.0253 54.5643L15.7522 57.8068H10.0196C9.74933 57.8068 9.48994 57.9147 9.2986 58.1069C9.10746 58.2989 9.00003 58.5595 9.00003 58.8312C9.00003 59.1029 9.10746 59.3635 9.2986 59.5557C9.48994 59.7478 9.74933 59.8557 10.0196 59.8557H16.1754C16.4447 59.8559 16.7031 59.7492 16.8942 59.5586L20.1622 56.3162H22.948L30.8094 63.7231C30.9988 63.9012 31.2485 64.0002 31.5079 63.9998H40.2844ZM15.5 29.5C15.5 30.8807 14.3807 32 13 32C11.6193 32 10.5 30.8807 10.5 29.5C10.5 28.1193 11.6193 27 13 27C14.3807 27 15.5 28.1193 15.5 29.5ZM20.1928 38.9028C20.1928 40.2835 19.0735 41.4028 17.6928 41.4028C16.3121 41.4028 15.1928 40.2835 15.1928 38.9028C15.1928 37.522 16.3121 36.4028 17.6928 36.4028C19.0735 36.4028 20.1928 37.522 20.1928 38.9028ZM13 53.2949C14.3807 53.2949 15.5 52.1756 15.5 50.7949C15.5 49.4142 14.3807 48.2949 13 48.2949C11.6193 48.2949 10.5 49.4142 10.5 50.7949C10.5 52.1756 11.6193 53.2949 13 53.2949Z" fill="#00ADFF"/>
</svg>
