<svg width="80" height="81" viewBox="0 0 80 81" fill="none" xmlns="http://www.w3.org/2000/svg">
<path fill-rule="evenodd" clip-rule="evenodd" d="M27.8222 33.1838C27.9267 33.1362 28.038 33.108 28.1514 33.1002C28.3174 33.0846 28.4844 33.1133 28.6374 33.1838L44.8638 39.784C45.0424 39.8686 45.1938 40.0069 45.2997 40.182C45.4055 40.3571 45.461 40.5614 45.4594 40.7697V62.3387C45.458 62.5441 45.401 62.7447 45.2954 62.9165C45.1898 63.0884 45.0399 63.2242 44.8638 63.3076L28.6374 69.9078C28.509 69.9686 28.3702 70 28.2298 70C28.0893 70 27.9505 69.9686 27.8222 69.9078L11.5958 63.3076C11.4196 63.2242 11.2697 63.0884 11.1641 62.9165C11.0585 62.7447 11.0015 62.5441 11 62.3387V59.4442H13.0067V61.637L27.2265 67.2849V48.0548L13.0067 42.4069V52.3793H11V40.7697C10.9985 40.5614 11.054 40.3571 11.1598 40.182C11.2657 40.0069 11.4172 39.8686 11.5958 39.784L27.8222 33.1838ZM41.9793 40.753L28.2298 35.3389L14.4803 40.753L28.2298 46.1837L41.9793 40.753ZM43.4529 61.637V42.4069L29.233 48.0548V67.2849L43.4529 61.637Z" fill="#00ADFF"/>
<path d="M32.0811 17.4188C32.0811 14.4405 34.473 12 37.3919 12H62.6892C65.6081 12 68 14.4405 68 17.4188V54.4818C68 57.46 65.6081 59.9006 62.6892 59.9006H51.5811V57.7496H62.6892C64.4324 57.7496 65.8919 56.3018 65.8919 54.4818V17.4188C65.8919 15.6401 64.473 14.151 62.6892 14.151H37.3919C35.6486 14.151 34.1892 15.5987 34.1892 17.4188V36.2812H32.0811V17.4188Z" fill="#00ADFF"/>
<path d="M61.5946 21.9689H38.2432V19.818H61.5946V21.9689Z" fill="#00ADFF"/>
<path d="M61.3919 28.5046H38.0405V26.3536H61.3919V28.5046Z" fill="#00ADFF"/>
<path d="M52.8784 37.1499H38V34.9989H52.8784V37.1499Z" fill="#00ADFF"/>
</svg>
