<svg width="80" height="81" viewBox="0 0 80 81" fill="none" xmlns="http://www.w3.org/2000/svg">
<path fill-rule="evenodd" clip-rule="evenodd" d="M39.5282 53.4505C40.0859 53.4505 40.5379 53.9047 40.5379 54.465V65.1457L45.0348 60.7157C45.4329 60.3234 46.0722 60.3298 46.4626 60.7298C46.853 61.1299 46.8467 61.7722 46.4485 62.1644L39.5099 69L32.9004 62.146C32.5124 61.7436 32.5225 61.1014 32.9229 60.7115C33.3234 60.3216 33.9626 60.3317 34.3507 60.7341L38.5186 65.0562V54.465C38.5186 53.9047 38.9706 53.4505 39.5282 53.4505ZM40.3356 34.9821C39.8696 34.5139 39.1141 34.5139 38.6481 34.9821L33.3271 40.3285C32.8611 40.7967 32.8611 41.5558 33.3271 42.024L34.5347 43.2374L33.1068 44.6721L31.8992 43.4587C30.6446 42.1982 30.6446 40.1544 31.8992 38.8938L37.2202 33.5474C38.4748 32.2868 40.5089 32.2868 41.7635 33.5474L46.9091 38.7175C48.1637 39.9781 48.1637 42.0219 46.9091 43.2825L41.5881 48.6288C40.3335 49.8894 38.2994 49.8894 37.0448 48.6288L35.8546 47.433L37.2825 45.9983L38.4727 47.1941C38.9387 47.6624 39.6942 47.6624 40.1602 47.1941L45.4812 41.8478C45.9472 41.3796 45.9472 40.6204 45.4812 40.1522L40.3356 34.9821ZM58.7691 34.1887C59.1672 33.7964 59.8065 33.8028 60.1969 34.2028L67 41.1745L60.1785 47.8155C59.778 48.2054 59.1388 48.1953 58.7508 47.7929C58.3628 47.3905 58.3729 46.7482 58.7733 46.3583L63.0749 42.1706H52.534C51.9764 42.1706 51.5243 41.7164 51.5243 41.1561C51.5243 40.5958 51.9764 40.1416 52.534 40.1416H63.164L58.755 35.6233C58.3646 35.2232 58.3709 34.5809 58.7691 34.1887ZM20.2309 34.1887C20.6291 34.5809 20.6354 35.2232 20.245 35.6233L15.836 40.1416H26.466C27.0236 40.1416 27.4757 40.5958 27.4757 41.1561C27.4757 41.7164 27.0236 42.1706 26.466 42.1706H15.9251L20.2267 46.3583C20.6271 46.7482 20.6372 47.3905 20.2492 47.7929C19.8612 48.1953 19.222 48.2054 18.8215 47.8155L12 41.1745L18.8031 34.2028C19.1935 33.8028 19.8328 33.7964 20.2309 34.1887ZM39.5099 13L46.4485 19.8356C46.8467 20.2278 46.853 20.8701 46.4626 21.2702C46.0722 21.6703 45.4329 21.6766 45.0348 21.2843L40.5379 16.8543L40.5379 27.535C40.5379 28.0953 40.0859 28.5495 39.5282 28.5495C38.9706 28.5495 38.5186 28.0953 38.5186 27.535L38.5186 16.9438L34.3507 21.2659C33.9626 21.6683 33.3234 21.6784 32.9229 21.2885C32.5225 20.8986 32.5124 20.2564 32.9004 19.854L39.5099 13Z" fill="#00ADFF"/>
</svg>
