<svg width="80" height="81" viewBox="0 0 80 81" fill="none" xmlns="http://www.w3.org/2000/svg">
<path fill-rule="evenodd" clip-rule="evenodd" d="M67.9869 30.0323C67.9935 29.9944 67.9972 29.9573 67.9991 29.9184C68.0009 29.8731 68 29.8295 67.9963 29.7842C67.9925 29.7453 67.9869 29.7083 67.9776 29.6703C67.9673 29.6258 67.9533 29.5832 67.9365 29.5407C67.9329 29.531 67.9305 29.5212 67.9281 29.5115C67.9249 29.4987 67.9218 29.4861 67.916 29.474C67.912 29.4657 67.9065 29.4584 67.9009 29.451C67.896 29.4445 67.891 29.4379 67.887 29.4305C67.8832 29.4233 67.8803 29.4159 67.8774 29.4085C67.874 29.3997 67.8706 29.3909 67.8656 29.3823L58.53 14.5675C58.4871 14.4999 58.4367 14.4388 58.3797 14.3851L58.3769 14.3833C58.2967 14.3083 58.2014 14.2545 58.0997 14.212C58.0934 14.2093 58.0882 14.2053 58.0829 14.2013C58.0772 14.197 58.0715 14.1926 58.0642 14.1897C58.0586 14.1877 58.0527 14.1873 58.0469 14.187C58.042 14.1867 58.0371 14.1864 58.0325 14.1851C57.9382 14.1536 57.8411 14.1323 57.7393 14.1323H22.2643C22.1635 14.1323 22.0673 14.1536 21.9749 14.1842C21.9703 14.1854 21.9656 14.1857 21.9611 14.186C21.9556 14.1864 21.9502 14.1868 21.9451 14.1888C21.9375 14.1913 21.9315 14.1957 21.9256 14.2001C21.9206 14.2038 21.9156 14.2076 21.9096 14.2101C21.8125 14.2499 21.721 14.3018 21.6416 14.3721C21.6389 14.3749 21.6355 14.377 21.6322 14.379C21.6299 14.3804 21.6277 14.3817 21.6258 14.3833C21.5679 14.437 21.5166 14.499 21.4736 14.5666L12.1381 29.3814C12.1329 29.3896 12.1295 29.3986 12.126 29.4078C12.1232 29.4151 12.1204 29.4225 12.1166 29.4295C12.1127 29.437 12.1077 29.4435 12.1027 29.4501C12.0971 29.4574 12.0916 29.4647 12.0877 29.4731C12.0822 29.4845 12.0791 29.4964 12.076 29.5084C12.0733 29.5189 12.0705 29.5294 12.0662 29.5397C12.0494 29.5823 12.0354 29.6249 12.0251 29.6694C12.0167 29.7073 12.0102 29.7453 12.0065 29.7842C11.9999 29.8295 11.999 29.874 12.0008 29.9184C12.0027 29.9573 12.0065 29.9944 12.013 30.0323C12.0205 30.0768 12.0326 30.1203 12.0475 30.1638C12.0597 30.1999 12.0727 30.2351 12.0895 30.2703C12.0934 30.278 12.0961 30.2862 12.0988 30.2944C12.102 30.3038 12.1051 30.3132 12.1101 30.3221C12.1187 30.3376 12.1298 30.3509 12.1408 30.3642C12.149 30.374 12.1571 30.3838 12.1642 30.3944C12.1694 30.4021 12.1738 30.4102 12.1781 30.4183C12.1846 30.4304 12.1911 30.4425 12.2006 30.4536L12.4819 30.7999H27.0675L37.1862 58.2666L19.209 36.1323H16.8129L39.2634 63.774L39.269 63.7805L39.2737 63.787C39.2751 63.7888 39.2769 63.79 39.2788 63.7911C39.2807 63.7923 39.2825 63.7934 39.2839 63.7953C39.3605 63.887 39.4557 63.9564 39.5593 64.012C39.5873 64.0268 39.6135 64.0397 39.6424 64.0518C39.7554 64.099 39.8749 64.1323 40 64.1323C40.1064 64.1323 40.2137 64.1138 40.3202 64.0758C40.3284 64.0729 40.3352 64.068 40.342 64.0631C40.3483 64.0585 40.3546 64.0539 40.3622 64.0508C40.3951 64.0374 40.4232 64.0181 40.4516 63.9987C40.4642 63.99 40.4769 63.9813 40.4901 63.9731C40.561 63.9286 40.6273 63.8823 40.6824 63.8221C40.6885 63.8156 40.6961 63.8107 40.7036 63.8059C40.7122 63.8003 40.7208 63.7948 40.7272 63.787L67.8002 30.4536C67.8081 30.4439 67.8139 30.4331 67.8196 30.4224C67.8248 30.4127 67.83 30.4031 67.8366 30.3944C67.8435 30.3846 67.851 30.3756 67.8584 30.3667C67.8701 30.3525 67.8816 30.3386 67.8908 30.3221C67.8958 30.3132 67.8989 30.3038 67.902 30.2944C67.9047 30.2862 67.9074 30.278 67.9113 30.2703C67.9281 30.2351 67.9412 30.2008 67.9533 30.1638L67.9549 30.1584C67.9675 30.1168 67.9798 30.0758 67.9869 30.0323ZM56.3941 15.9851H41.9623L51.857 28.0638L56.3941 15.9851ZM29.8261 28.9481H50.1747L40 16.5286L29.8261 28.9481ZM23.5974 15.9851L28.0776 28.1444L38.0386 15.9851H23.5974ZM39.8366 60.0647L50.8292 30.7999H29.055L39.8366 60.0647ZM65.3879 28.949L57.9503 17.1453L53.5169 28.949H65.3879ZM26.385 28.9481L22.0412 17.1573L14.612 28.9481H26.385ZM52.8214 30.7999L42.2377 58.9758L65.1219 30.7999H52.8214Z" fill="#00ADFF"/>
</svg>
