<svg width="80" height="79" viewBox="0 0 80 79" fill="none" xmlns="http://www.w3.org/2000/svg">
<path d="M54.9964 25.5854H16.9205C15.2384 25.5854 13.9004 26.9617 13.9004 28.6055V46.6496H15.8883V36.6336H55.9522V58.6534C55.9522 59.1886 55.4934 59.6474 54.9582 59.6474H16.8822C16.347 59.6474 15.8883 59.1886 15.8883 58.6534H13.9004C13.9004 60.3355 15.2766 61.6735 16.9205 61.6735H54.9964C56.6785 61.6735 58.0165 60.2973 58.0165 58.6534V28.6055C58.0165 26.9235 56.6403 25.5854 54.9964 25.5854ZM15.8883 34.6457V28.6055C15.8883 28.0703 16.347 27.6116 16.8822 27.6116H54.9582C55.4934 27.6116 55.9522 28.0703 55.9522 28.6055V34.6457H15.8883Z" fill="#00ADFF"/>
<path d="M20.0176 50.664H33.3977L26.6904 39.1953L20.0176 50.664ZM23.1292 48.8837L26.6904 42.79L30.2169 48.8837H23.1292Z" fill="#00ADFF"/>
<path d="M50.9822 49.8993C50.9822 46.3049 48.0777 43.4004 44.4833 43.4004C40.8889 43.4004 37.9844 46.3049 37.9844 49.8993C37.9844 53.4937 40.8889 56.3982 44.4833 56.3982C48.0777 56.3982 50.9822 53.4937 50.9822 49.8993ZM39.9086 49.8993C39.9086 47.3578 41.9418 45.3247 44.4833 45.3247C47.0248 45.3247 49.0579 47.3578 49.0579 49.8993C49.0579 52.4408 47.0248 54.4739 44.4833 54.4739C41.9418 54.4739 39.9086 52.4408 39.9086 49.8993Z" fill="#00ADFF"/>
<path d="M19.9021 30.6699C19.3669 30.6699 18.9082 31.1287 18.9082 31.6639C18.9082 32.1991 19.3669 32.6578 19.9021 32.6578C20.4373 32.6578 20.8961 32.1991 20.8961 31.6639C20.8961 31.0905 20.4373 30.6699 19.9021 30.6699Z" fill="#00ADFF"/>
<path d="M23.9158 30.6699C23.3806 30.6699 22.9219 31.1287 22.9219 31.6639C22.9219 32.1991 23.3806 32.6578 23.9158 32.6578C24.451 32.6578 24.9098 32.1991 24.9098 31.6639C24.9098 31.0905 24.451 30.6699 23.9158 30.6699Z" fill="#00ADFF"/>
<path d="M27.8924 30.6699C27.3572 30.6699 26.8984 31.1287 26.8984 31.6639C26.8984 32.1991 27.3572 32.6578 27.8924 32.6578C28.4276 32.6578 28.8863 32.1991 28.8863 31.6639C28.8863 31.0905 28.4658 30.6699 27.8924 30.6699Z" fill="#00ADFF"/>
<path d="M31.9061 30.6699C31.3709 30.6699 30.9121 31.1287 30.9121 31.6639C30.9121 32.1991 31.3709 32.6578 31.9061 32.6578C32.4413 32.6578 32.9 32.1991 32.9 31.6639C32.9 31.0905 32.4413 30.6699 31.9061 30.6699Z" fill="#00ADFF"/>
<path d="M51.9373 30.6699C51.4021 30.6699 50.9434 31.1287 50.9434 31.6639C50.9434 32.1991 51.4021 32.6578 51.9373 32.6578C52.4725 32.6578 52.9313 32.1991 52.9313 31.6639C52.9313 31.0905 52.549 30.6699 51.9373 30.6699Z" fill="#00ADFF"/>
<path d="M65.0119 16.6401H46.0504C44.9418 16.6401 44.0625 17.5194 44.0625 18.628V22.6421H46.0504V18.628H65.0119V48.676H60.9979V50.6638H65.0119C66.1206 50.6638 66.9998 49.7846 66.9998 48.676V18.628C66.9998 17.5194 66.1206 16.6401 65.0119 16.6401Z" fill="#00ADFF"/>
</svg>
