<svg width="80" height="80" viewBox="0 0 80 80" fill="none" xmlns="http://www.w3.org/2000/svg">
<path d="M24.0381 17.4952C24.0381 15.019 26.0571 13 28.5333 13H51.5048C53.981 13 56 15.019 56 17.4952V62.4476C56 64.9238 53.981 66.9428 51.5048 66.9428H28.4952C26.019 66.9428 24 64.9238 24 62.4476V55.9714H53.9429V22.0667H26.019V47.9714H24.0381V17.4952ZM26.019 20.0476H53.981V17.4952C53.981 16.1238 52.8381 14.981 51.5048 14.981H28.4952C27.1238 14.981 26.019 16.1238 26.019 17.4952V20.0476ZM53.981 57.9524H26.019V62.4476C26.019 63.819 27.1619 64.9619 28.4952 64.9619H51.4667C52.8381 64.9619 53.9429 63.8571 53.9429 62.4476L53.981 57.9524ZM36.3429 16.3524H43.6952V18.3333H36.3429V16.3524ZM40 60.9238C39.581 60.9238 39.2762 61.2667 39.2762 61.6857C39.2762 62.1048 39.619 62.4476 40 62.4476C40.4191 62.4476 40.7238 62.1048 40.7238 61.6857C40.7619 61.2667 40.4191 60.9238 40 60.9238ZM37.2571 61.6857C37.2571 60.1619 38.4762 58.9428 40 58.9428C41.5238 58.9428 42.7429 60.1619 42.7429 61.6857C42.7429 63.2095 41.5238 64.4286 40 64.4286C38.4762 64.4286 37.2571 63.2095 37.2571 61.6857Z" fill="#00ADFF"/>
</svg>
