<svg width="80" height="80" viewBox="0 0 80 80" fill="none" xmlns="http://www.w3.org/2000/svg">
<path d="M23.379 40.9275C23.0329 40.9275 22.7084 40.7151 22.5814 40.3715C22.4195 39.9316 22.6445 39.4427 23.0852 39.2801C28.4086 37.3172 35.006 36.2366 41.6606 36.2366C48.3211 36.2366 54.6039 37.2383 59.8319 39.134C60.2734 39.2942 60.5008 39.7814 60.3415 40.2229C60.1813 40.6636 59.6933 40.8894 59.2526 40.7325C54.2089 38.9033 48.1252 37.9363 41.6606 37.9363C35.201 37.9363 28.8128 38.9796 23.6728 40.8752C23.5757 40.9109 23.4769 40.9275 23.379 40.9275Z" fill="#00A5FF"/>
<path d="M54.7776 63.0603C54.5875 63.0603 54.4016 62.9964 54.2497 62.8761C54.0464 62.715 53.9277 62.4702 53.9277 62.2104V41.541C53.9277 41.1567 54.1858 40.8206 54.556 40.7201C62.9768 38.4502 68.0039 34.4805 68.0039 30.0999C68.0039 23.3589 55.9387 17.6641 41.6575 17.6641C27.3763 17.6641 15.3111 23.3589 15.3111 30.0999C15.3111 34.5087 19.9456 38.4801 27.7075 40.7243C28.071 40.8297 28.3216 41.1625 28.3216 41.541V61.9498C28.3216 62.2129 28.1996 62.4611 27.9921 62.6221C27.783 62.7831 27.5124 62.8371 27.2584 62.7723C18.4583 60.4924 13.6113 56.0878 13.6113 50.3701V30.0999C13.6113 22.1737 25.9305 15.9644 41.6575 15.9644C57.3845 15.9644 69.7037 22.1737 69.7037 30.0999V51.2707C69.7037 56.8638 64.8849 60.7132 54.9718 63.0379C54.9071 63.0528 54.8423 63.0603 54.7776 63.0603ZM55.6275 42.1875V61.1273C63.9529 59.0026 68.0039 55.7732 68.0039 51.2707V34.9469C65.7912 37.9613 61.5028 40.511 55.6275 42.1875ZM15.3111 35.1345V50.3701C15.3111 55.0188 19.3165 58.7113 26.6219 60.8352V42.1742C21.3034 40.5409 17.391 38.0667 15.3111 35.1345Z" fill="#00A5FF"/>
<path d="M59.8767 56.0337C59.5564 56.0337 59.2501 55.8528 59.1057 55.5432C58.9073 55.1183 59.0908 54.6128 59.5165 54.4136C61.701 53.3936 62.9044 52.2773 62.9044 51.2705C62.9044 50.8008 63.2846 50.4207 63.7543 50.4207C64.2241 50.4207 64.6042 50.8008 64.6042 51.2705C64.6042 53.0243 63.1343 54.5995 60.2353 55.954C60.1191 56.008 59.9971 56.0337 59.8767 56.0337Z" fill="#00A5FF"/>
<path d="M22.3714 55.242C22.2104 55.242 22.0477 55.1964 21.9033 55.1009C19.264 53.353 18.7104 51.5636 18.7104 50.3701C18.7104 49.9004 19.0905 49.5203 19.5603 49.5203C20.03 49.5203 20.4102 49.9004 20.4102 50.3701C20.4102 51.7778 21.7323 52.9488 22.8411 53.6834C23.2329 53.9431 23.3399 54.4702 23.081 54.8611C22.9175 55.1084 22.6469 55.242 22.3714 55.242Z" fill="#00A5FF"/>
<path d="M52.5601 38.9177C52.0903 38.9177 51.7102 38.5376 51.7102 38.0678V17.9258C51.7102 17.4565 52.0903 17.0759 52.5601 17.0759C53.0298 17.0759 53.41 17.4565 53.41 17.9258V38.0678C53.41 38.5376 53.0298 38.9177 52.5601 38.9177Z" fill="#00A5FF"/>
<path d="M30.7519 38.9351C30.2821 38.9351 29.902 38.555 29.902 38.0852V17.9258C29.902 17.4565 30.2821 17.0759 30.7519 17.0759C31.2216 17.0759 31.6017 17.4565 31.6017 17.9258V38.0852C31.6017 38.555 31.2216 38.9351 30.7519 38.9351Z" fill="#00A5FF"/>
<path d="M30.7508 38.935C30.6362 38.935 30.52 38.9117 30.4088 38.8628C29.9789 38.6735 29.7847 38.1714 29.9739 37.7423L35.631 24.9144C35.758 24.6264 36.0327 24.4322 36.3464 24.4098C36.6618 24.384 36.9606 24.5384 37.1274 24.804L44.6021 36.6725C44.8527 37.0701 44.7332 37.5946 44.3365 37.8444C43.9381 38.0959 43.4144 37.9755 43.1646 37.5788L36.5414 27.0623L31.5293 38.4279C31.389 38.7458 31.0778 38.935 30.7508 38.935Z" fill="#00A5FF"/>
<path d="M52.5605 37.9747C52.2716 37.9747 51.9911 37.8278 51.8317 37.563L46.9457 29.4402L43.8815 36.2417C43.689 36.6692 43.1885 36.8601 42.7569 36.6675C42.3295 36.4741 42.1386 35.9712 42.3311 35.5429L46.0627 27.2623C46.193 26.9743 46.4718 26.7818 46.788 26.7635C47.1026 26.7411 47.4031 26.903 47.5666 27.1735L53.2883 36.6866C53.5299 37.0891 53.3995 37.6112 52.9978 37.8535C52.8609 37.9357 52.7098 37.9747 52.5605 37.9747Z" fill="#00A5FF"/>
<path d="M43.1067 25.9121C41.4667 25.9121 40.1321 24.5775 40.1321 22.9375C40.1321 21.2975 41.4667 19.9629 43.1067 19.9629C44.7467 19.9629 46.0813 21.2975 46.0813 22.9375C46.0813 24.5775 44.7467 25.9121 43.1067 25.9121ZM43.1067 21.6627C42.4037 21.6627 41.8318 22.2345 41.8318 22.9375C41.8318 23.6405 42.4037 24.2123 43.1067 24.2123C43.8097 24.2123 44.3815 23.6405 44.3815 22.9375C44.3815 22.2345 43.8097 21.6627 43.1067 21.6627Z" fill="#00A5FF"/>
<path d="M29.9107 16.9973L29.9107 20.1094L24.2186 21.3994L22.2997 18.1999L29.9107 16.9973Z" fill="white"/>
</svg>
