<svg width="80" height="81" viewBox="0 0 80 81" fill="none" xmlns="http://www.w3.org/2000/svg">
<path fill-rule="evenodd" clip-rule="evenodd" d="M49.4308 23.1403C49.4308 25.4824 47.5297 27.3809 45.1846 27.3809C42.8395 27.3809 40.9385 25.4824 40.9385 23.1403C40.9385 20.7983 42.8395 18.8997 45.1846 18.8997C47.5297 18.8997 49.4308 20.7983 49.4308 23.1403ZM47.5423 28.6689C47.0783 28.8665 46.5844 29.0075 46.0692 29.0833V38.8395L53.9496 42.8219C54.6169 41.8049 55.5849 41.0022 56.7274 40.54L47.5423 28.6689ZM39.1692 23.1403C39.1692 26.1581 41.3972 28.6561 44.3 29.0833V37.9454L30.3379 30.8895C30.7803 30.053 31.0308 29.0995 31.0308 28.0877C31.0308 24.7698 28.3376 22.0802 25.0154 22.0802C21.6932 22.0802 19 24.7698 19 28.0877C19 31.1054 21.228 33.6035 24.1308 34.0307V46.1748C21.228 46.602 19 49.1 19 52.1178C19 55.4356 21.6932 58.1253 25.0154 58.1253C27.3796 58.1253 29.4252 56.7632 30.4084 54.7819L39.1838 57.7032C39.1742 57.8427 39.1692 57.9834 39.1692 58.1253C39.1692 61.4432 41.8624 64.1328 45.1846 64.1328C48.5068 64.1328 51.2 61.4432 51.2 58.1253C51.2 57.2901 51.0294 56.4947 50.721 55.7721L56.6539 51.6502C57.3707 51.9513 58.1582 52.1178 58.9846 52.1178C62.3068 52.1178 65 49.4281 65 46.1103C65 42.7924 62.3068 40.1027 58.9846 40.1027C58.8665 40.1027 58.7492 40.1061 58.6328 40.1128L49.0574 27.7373C50.3676 26.6353 51.2 24.9849 51.2 23.1403C51.2 19.8225 48.5068 17.1328 45.1846 17.1328C41.8624 17.1328 39.1692 19.8225 39.1692 23.1403ZM55.0229 50.631C53.7641 49.5298 52.9692 47.9127 52.9692 46.1103C52.9692 45.5262 53.0527 44.9615 53.2084 44.4276L46.0692 40.8198V52.1178H45.1846H44.3V39.9257L30.6507 33.0278L40.066 54.968C41.1261 53.2574 43.0221 52.1178 45.1846 52.1178C47.0347 52.1178 48.6898 52.9519 49.7932 54.2642L55.0229 50.631ZM29.2615 28.0877C29.2615 30.4297 27.3605 32.3283 25.0154 32.3283C22.6703 32.3283 20.7692 30.4297 20.7692 28.0877C20.7692 25.7457 22.6703 23.8471 25.0154 23.8471C27.3605 23.8471 29.2615 25.7457 29.2615 28.0877ZM28.6577 32.8691C27.8687 33.4696 26.9265 33.8796 25.9 34.0307V46.1748C28.8028 46.602 31.0308 49.1 31.0308 52.1178C31.0308 52.4523 31.0034 52.7803 30.9508 53.0999L38.4042 55.5812L28.6577 32.8691ZM29.2615 52.1178C29.2615 54.4598 27.3605 56.3584 25.0154 56.3584C22.6703 56.3584 20.7692 54.4598 20.7692 52.1178C20.7692 49.7758 22.6703 47.8772 25.0154 47.8772C27.3605 47.8772 29.2615 49.7758 29.2615 52.1178ZM45.1846 62.3659C47.5297 62.3659 49.4308 60.4673 49.4308 58.1253C49.4308 55.7833 47.5297 53.8847 45.1846 53.8847C42.8395 53.8847 40.9385 55.7833 40.9385 58.1253C40.9385 60.4673 42.8395 62.3659 45.1846 62.3659ZM58.9846 50.3509C61.3297 50.3509 63.2308 48.4523 63.2308 46.1103C63.2308 43.7682 61.3297 41.8697 58.9846 41.8697C56.6395 41.8697 54.7385 43.7682 54.7385 46.1103C54.7385 48.4523 56.6395 50.3509 58.9846 50.3509Z" fill="#00ADFF"/>
</svg>
