<svg width="80" height="81" viewBox="0 0 80 81" fill="none" xmlns="http://www.w3.org/2000/svg">
<path d="M24.0381 17.6276C24.0381 15.1514 26.0571 13.1323 28.5333 13.1323H51.5048C53.981 13.1323 56 15.1514 56 17.6276V62.5799C56 65.0561 53.981 67.0752 51.5048 67.0752H28.4952C26.019 67.0752 24 65.0561 24 62.5799V56.1037H53.9429V22.199H26.019V48.1037H24.0381V17.6276ZM26.019 20.1799H53.981V17.6276C53.981 16.2561 52.8381 15.1133 51.5048 15.1133H28.4952C27.1238 15.1133 26.019 16.2561 26.019 17.6276V20.1799ZM53.981 58.0847H26.019V62.5799C26.019 63.9514 27.1619 65.0942 28.4952 65.0942H51.4667C52.8381 65.0942 53.9429 63.9895 53.9429 62.5799L53.981 58.0847ZM36.3429 16.4847H43.6952V18.4657H36.3429V16.4847ZM40 61.0561C39.581 61.0561 39.2762 61.399 39.2762 61.818C39.2762 62.2371 39.619 62.5799 40 62.5799C40.4191 62.5799 40.7238 62.2371 40.7238 61.818C40.7619 61.399 40.4191 61.0561 40 61.0561ZM37.2571 61.818C37.2571 60.2942 38.4762 59.0752 40 59.0752C41.5238 59.0752 42.7429 60.2942 42.7429 61.818C42.7429 63.3418 41.5238 64.5609 40 64.5609C38.4762 64.5609 37.2571 63.3418 37.2571 61.818Z" fill="#00ADFF"/>
</svg>
