<svg width="80" height="80" viewBox="0 0 80 80" fill="none" xmlns="http://www.w3.org/2000/svg">
<path fill-rule="evenodd" clip-rule="evenodd" d="M14.1672 38.3666L22.9457 36.066L23.4936 38.1448L14.3226 40.5482C13.1262 40.8617 11.9708 39.936 12.0006 38.7146C12.2722 27.5569 16.8738 20.5755 22.7196 16.4182C28.5123 12.2987 35.4299 11.0168 40.3212 11.0168C45.186 11.0168 52.2015 12.0727 58.0967 16.0904C64.0539 20.1503 68.7407 27.1518 68.9995 38.7469C69.0263 39.9463 67.9067 40.8647 66.7261 40.5909C63.3784 39.8149 61.08 39.2449 59.5647 38.8466C58.0901 38.4589 57.2862 38.2161 56.9986 38.0934L57.8468 36.1174C57.8454 36.1169 57.8572 36.1218 57.8883 36.133C57.9177 36.1436 57.9578 36.1574 58.0101 36.1746C58.115 36.2091 58.259 36.2538 58.4482 36.3096C58.8261 36.4212 59.3696 36.5725 60.1142 36.7683C61.5455 37.1446 63.7055 37.6812 66.8342 38.4092C66.4968 27.6978 62.1642 21.4658 56.8804 17.8648C51.4713 14.1785 44.9381 13.1662 40.3212 13.1662C35.7406 13.1662 29.3003 14.3783 23.9712 18.168C18.7626 21.8721 14.5207 28.1017 14.1672 38.3666ZM28.3862 38.7576C27.3257 40.3121 26.6132 42.36 26.6132 45.0886H24.4577C24.4577 41.9628 25.2818 39.4869 26.6039 37.5488C27.9199 35.6197 29.6896 34.2809 31.5015 33.3549C35.0976 31.5172 38.9854 31.2409 40.3212 31.2409C41.6562 31.2409 45.5861 31.517 49.2248 33.3524C51.0578 34.2769 52.8507 35.6143 54.1848 37.543C55.5258 39.4815 56.3628 41.9595 56.3628 45.0886H54.2073C54.2073 42.3634 53.4856 40.3175 52.4105 38.7634C51.3286 37.1994 49.8481 36.0754 48.2519 35.2702C45.0322 33.6462 41.4802 33.3902 40.3212 33.3902C39.163 33.3902 35.6579 33.646 32.4847 35.2677C30.9119 36.0714 29.4528 37.194 28.3862 38.7576ZM14.1768 46.2863C14.5808 53.4413 18.5926 58.366 23.1548 61.6357C27.3999 64.6781 32.0408 66.222 34.4322 66.7196C33.9551 64.4282 32.5044 60.0222 29.5478 55.8652C26.3556 51.3768 21.4596 47.2431 14.1768 46.2863ZM12.0048 45.9845C11.9624 44.8683 12.9334 43.9769 14.0423 44.1042C22.304 45.0528 27.8099 49.7062 31.306 54.6218C34.7846 59.5127 36.3268 64.7292 36.6811 67.0406C36.8573 68.1897 35.8924 69.1369 34.7506 68.9621C32.3399 68.593 26.8669 66.943 21.8968 63.381C16.9015 59.8009 12.3174 54.2109 12.0048 45.9845Z" fill="#00ADFF"/>
<path fill-rule="evenodd" clip-rule="evenodd" d="M66.8222 46.1153C66.419 53.3341 62.3834 58.3009 57.7964 61.5969C53.5263 64.6651 48.8584 66.2203 46.4583 66.7198C46.9351 64.4143 48.3922 59.9685 51.3664 55.7735C54.5755 51.247 59.4985 47.0782 66.8222 46.1153ZM68.9941 45.8132C69.0361 44.6973 68.0652 43.8057 66.9561 43.9332C58.651 44.8881 53.1183 49.5792 49.6063 54.5327C46.1118 59.4616 44.564 64.7176 44.2101 67.0413C44.0352 68.1895 44.9995 69.137 46.1416 68.962C48.5613 68.5914 54.0617 66.9296 59.0565 63.3406C64.0769 59.7333 68.6822 54.1012 68.9941 45.8132Z" fill="#00ADFF"/>
<path fill-rule="evenodd" clip-rule="evenodd" d="M40.4993 48.6298C42.5556 48.6298 44.2225 46.9677 44.2225 44.9174C44.2225 42.867 42.5556 41.2049 40.4993 41.2049C38.4431 41.2049 36.7762 42.867 36.7762 44.9174C36.7762 46.9677 38.4431 48.6298 40.4993 48.6298ZM40.4993 50.7791C43.746 50.7791 46.378 48.1547 46.378 44.9174C46.378 41.68 43.746 39.0556 40.4993 39.0556C37.2526 39.0556 34.6207 41.68 34.6207 44.9174C34.6207 48.1547 37.2526 50.7791 40.4993 50.7791Z" fill="#00ADFF"/>
</svg>
