<svg width="80" height="81" viewBox="0 0 80 81" fill="none" xmlns="http://www.w3.org/2000/svg">
<path fill-rule="evenodd" clip-rule="evenodd" d="M20.8349 19.1328H60.1651C61.7081 19.1328 63 20.3623 63 21.908V49.5192C63 51.0298 61.744 52.2944 60.1651 52.2944H42.0431V50.4326H60.1292C60.6316 50.4326 61.0622 50.011 61.0622 49.5192V29.285H19.866V49.5544C19.866 50.0462 20.2966 50.4326 20.799 50.4326H30.8797V46.8968C30.8797 46.3825 31.0043 45.7447 31.4846 45.2321C31.9788 44.7047 32.7063 44.4607 33.5853 44.4607C34.4648 44.4607 35.1948 44.7043 35.6998 45.2148C36.197 45.7175 36.3519 46.3539 36.3519 46.8968V53.4676L36.9007 53.6145C37.3129 53.7249 37.8801 53.8768 38.4999 54.0429C39.7393 54.375 41.1901 54.7641 42.0334 54.9915L42.0824 55.0047L42.1296 55.0232C42.7332 55.2605 43.299 55.9922 43.299 57.1L43.2991 62.4757C43.299 62.9171 43.1111 63.3644 42.7164 63.6861C42.3318 63.9995 41.8291 64.1328 41.2897 64.1328H32.1855C31.8929 64.1328 31.5965 64.0923 31.302 63.9344C31.073 63.8117 30.8886 63.6347 30.769 63.52L30.742 63.494C30.6512 63.4074 30.3067 63.0792 29.8357 62.6305L29.8237 62.619L29.8143 62.61L29.7956 62.5923L28.8769 61.7169C27.9533 60.8369 26.9021 59.8351 26.2468 59.2098L26.1983 59.1636L26.1574 59.1107C26.1398 59.0879 26.1135 59.0577 26.054 58.9897C26.0021 58.9305 25.9314 58.8497 25.8599 58.7585C25.7178 58.5772 25.5402 58.3158 25.4385 57.9805C25.2045 57.2089 25.4645 56.4084 26.2273 55.6343C26.8858 54.9662 27.6561 54.7594 28.3758 54.8617C29.0374 54.9559 29.5742 55.2971 29.9081 55.5768C30.1488 55.7784 30.5158 56.1241 30.8797 56.4751V52.2944H20.8349C19.2919 52.2944 18 51.1 18 49.5544V21.908C18 20.3975 19.256 19.1328 20.8349 19.1328ZM19.866 21.908V27.4583H61.0622V21.908C61.0622 21.4162 60.6316 20.9946 60.1292 20.9946H20.799C20.2966 20.9946 19.866 21.4162 19.866 21.908ZM27.2225 23.8049C26.7201 23.8049 26.2895 24.2265 26.2895 24.7183C26.2895 25.2101 26.7201 25.6316 27.2225 25.6316C27.7249 25.6316 28.1555 25.2101 28.1555 24.7183C28.1555 24.1914 27.7249 23.8049 27.2225 23.8049ZM30.0574 24.7183C30.0574 24.2265 30.488 23.8049 30.9904 23.8049C31.4928 23.8049 31.9234 24.1914 31.9234 24.7183C31.9234 25.2101 31.4928 25.6316 30.9904 25.6316C30.488 25.6316 30.0574 25.2101 30.0574 24.7183ZM34.7225 23.8049C34.2201 23.8049 33.7895 24.2265 33.7895 24.7183C33.7895 25.2101 34.2201 25.6316 34.7225 25.6316C35.2249 25.6316 35.6555 25.2101 35.6555 24.7183C35.6555 24.1914 35.2608 23.8049 34.7225 23.8049ZM37.5574 24.7183C37.5574 24.2265 37.988 23.8049 38.4904 23.8049C38.9928 23.8049 39.4234 24.1914 39.4234 24.7183C39.4234 25.2101 38.9928 25.6316 38.4904 25.6316C37.988 25.6316 37.5574 25.2101 37.5574 24.7183ZM57.2943 23.8049C56.7919 23.8049 56.3612 24.2265 56.3612 24.7183C56.3612 25.2101 56.7919 25.6316 57.2943 25.6316C57.7967 25.6316 58.2273 25.2101 58.2273 24.7183C58.2273 24.1914 57.8684 23.8049 57.2943 23.8049ZM32.6739 46.8968C32.6739 46.6321 32.7399 46.4909 32.8069 46.4194C32.8601 46.3626 33.0369 46.2171 33.5853 46.2171C34.1332 46.2171 34.3379 46.363 34.4108 46.4366C34.4915 46.5182 34.5576 46.6607 34.5576 46.8968V53.5178C34.5576 54.1125 34.8456 54.5278 35.1268 54.7739C35.2613 54.8916 35.3934 54.9713 35.4929 55.0225C35.5435 55.0485 35.5882 55.0685 35.6239 55.0832C35.6418 55.0905 35.6577 55.0967 35.6713 55.1017C35.678 55.1042 35.6843 55.1065 35.6899 55.1084L35.6978 55.1112L35.7015 55.1124L35.7032 55.113L35.704 55.1133C35.7044 55.1134 35.7049 55.1136 35.9947 54.2824L35.7049 55.1136L35.7312 55.1224L35.7583 55.1296L36.4273 55.3087C36.8395 55.4191 37.4065 55.571 38.0262 55.737C39.1941 56.05 40.5484 56.4132 41.4052 56.644L41.4081 56.6487C41.4411 56.7017 41.5048 56.8365 41.5048 57.1L41.5048 62.3559C41.46 62.3664 41.3909 62.3764 41.2897 62.3764H32.1855C32.1688 62.3764 32.1551 62.3761 32.1442 62.3756C32.1105 62.3466 32.0688 62.3073 31.9944 62.2362C31.9021 62.1482 31.55 61.8127 31.0703 61.3557L31.0601 61.346L31.0443 61.3309L30.1284 60.4583C29.2244 59.597 28.1988 58.6196 27.5417 57.9926C27.5011 57.9433 27.4599 57.8963 27.428 57.86L27.4279 57.8599L27.4278 57.8598L27.4158 57.8461C27.3636 57.7865 27.3218 57.7383 27.2832 57.6891C27.2051 57.5894 27.1719 57.5246 27.1586 57.4806C27.1502 57.4529 27.1434 57.4183 27.1664 57.3484C27.1942 57.2644 27.2767 57.0993 27.5186 56.8539C27.7774 56.5913 27.9716 56.5791 28.1178 56.5999C28.322 56.629 28.5526 56.7531 28.7417 56.9114C29.096 57.2082 29.7587 57.8585 30.2569 58.3475C30.4542 58.5411 30.6256 58.7094 30.742 58.8204C30.8823 58.9542 31.0772 59.0957 31.3322 59.1598C31.6138 59.2306 31.8876 59.1862 32.1102 59.0679C32.309 58.9622 32.429 58.819 32.4908 58.7318C32.5245 58.6844 32.5497 58.6412 32.5677 58.6071C32.5769 58.5897 32.5847 58.5738 32.5913 58.5599L32.5956 58.5504L32.6002 58.5402L32.604 58.5314L32.6058 58.5272L32.6066 58.5252L32.607 58.5242C32.6073 58.5237 32.6075 58.5233 31.7768 58.1915L32.6075 58.5233L32.6739 58.3637V58.1913V46.8968ZM32.6739 58.1913L31.7768 58.1915C32.6739 58.1915 32.6739 58.1914 32.6739 58.1913ZM35.7583 55.1296L35.9947 54.2824C35.7581 55.1296 35.7582 55.1296 35.7583 55.1296ZM23.2033 34.449C23.2033 33.1879 24.2477 32.1656 25.5359 32.1656H31.9952C33.2834 32.1656 34.3278 33.1879 34.3278 34.449V39.0157C34.3278 40.2768 33.2834 41.2991 31.9952 41.2991H25.5359C24.2477 41.2991 23.2033 40.2768 23.2033 39.0157V34.449ZM25.5359 33.922C25.2386 33.922 24.9976 34.158 24.9976 34.449V39.0157C24.9976 39.3067 25.2386 39.5426 25.5359 39.5426H31.9952C32.2925 39.5426 32.5335 39.3067 32.5335 39.0157V34.449C32.5335 34.158 32.2925 33.922 31.9952 33.922H25.5359ZM42.0431 38.1375H54.9617V36.3811H42.0431V38.1375ZM42.0431 46.5684H54.9617V44.812H42.0431V46.5684ZM54.9617 42.353H42.0431V40.5965H54.9617V42.353Z" fill="#00ADFF"/>
</svg>
