<svg width="80" height="81" viewBox="0 0 80 81" fill="none" xmlns="http://www.w3.org/2000/svg">
<path fill-rule="evenodd" clip-rule="evenodd" d="M54.7776 63.1931C54.5875 63.1931 54.4016 63.1292 54.2497 63.0089C54.0464 62.8479 53.9277 62.603 53.9277 62.3432V41.6738C53.9277 41.2895 54.1858 40.9534 54.556 40.853C55.3997 40.6255 56.2093 40.381 56.9832 40.1208C55.5619 39.7009 54.0736 39.3432 52.5307 39.05C52.4423 39.047 52.3573 39.0305 52.2778 39.0025C49.6242 38.5121 46.8125 38.2107 43.9053 38.1084C43.8713 38.1093 43.8374 38.1081 43.8037 38.1049C43.0947 38.0811 42.38 38.0691 41.6606 38.0691C38.0099 38.0691 34.3819 38.4024 30.9892 39.0344C30.9377 39.0493 30.8843 39.0595 30.8293 39.0644C29.1041 39.3913 27.4408 39.7956 25.8676 40.2729C26.4594 40.4787 27.073 40.6737 27.7075 40.8571C28.071 40.9625 28.3216 41.2953 28.3216 41.6738V62.0826C28.3216 62.3457 28.1996 62.5939 27.9921 62.7549C27.783 62.9159 27.5124 62.9699 27.2584 62.9051C18.4583 60.6252 13.6113 56.2206 13.6113 50.503V30.2327C13.6113 22.3066 25.9305 16.0972 41.6575 16.0972C57.3845 16.0972 69.7037 22.3066 69.7037 30.2327V51.4035C69.7037 56.9966 64.8849 60.846 54.9718 63.1707C54.9071 63.1857 54.8423 63.1931 54.7776 63.1931ZM44.3626 36.425C46.8194 36.5268 49.21 36.7677 51.4986 37.1419L46.9457 29.573L44.0689 35.9587L44.3626 36.425ZM47.5666 27.3064L51.7102 34.1956V18.7741C48.5949 18.1462 45.1942 17.7969 41.6575 17.7969C38.1197 17.7969 34.7179 18.1464 31.6017 18.7747V34.1838L35.631 25.0471C35.7579 24.7591 36.0327 24.5649 36.3464 24.5425C36.6618 24.5168 36.9606 24.6712 37.1274 24.9368L42.9816 34.2323L46.0627 27.3952C46.193 27.1072 46.4718 26.9146 46.788 26.8963C47.1026 26.8739 47.403 27.0358 47.5666 27.3064ZM32.1702 37.1073L36.5414 27.1951L42.3213 36.3727C42.1015 36.3705 41.8813 36.3694 41.6606 36.3694C38.4376 36.3694 35.2281 36.6228 32.1702 37.1073ZM15.3111 30.2327C15.3111 25.4707 21.3321 21.2308 29.902 19.1517V37.5146C27.6026 37.9777 25.4146 38.5755 23.402 39.2976C18.2635 36.9918 15.3111 33.7516 15.3111 30.2327ZM53.41 37.4904C55.5632 37.9243 57.6117 38.4813 59.5231 39.1563C64.9147 36.8482 68.0039 33.6667 68.0039 30.2327C68.0039 25.4701 61.9815 21.2298 53.41 19.151V37.4904ZM59.9222 40.8249C59.8886 40.8417 59.8538 40.8562 59.8182 40.8685C58.5307 41.405 57.1311 41.8913 55.6275 42.3203V61.2601C63.9529 59.1354 68.0039 55.906 68.0039 51.4035V35.0797C66.3728 37.3019 63.6136 39.2715 59.9222 40.8249ZM15.3111 35.2673V50.503C15.3111 55.1516 19.3165 58.8441 26.6219 60.968V42.3071C21.3034 40.6737 17.391 38.1996 15.3111 35.2673ZM59.1057 55.676C59.2501 55.9856 59.5564 56.1666 59.8767 56.1666C59.9971 56.1666 60.1191 56.1408 60.2353 56.0869C63.1344 54.7324 64.6042 53.1571 64.6042 51.4034C64.6042 50.9336 64.2241 50.5535 63.7543 50.5535C63.2846 50.5535 62.9045 50.9336 62.9045 51.4034C62.9045 52.4101 61.701 53.5264 59.5165 54.5465C59.0908 54.7457 58.9073 55.2511 59.1057 55.676ZM22.3714 55.3748C22.2103 55.3748 22.0477 55.3291 21.9033 55.2337C19.264 53.4858 18.7104 51.6964 18.7104 50.5029C18.7104 50.0331 19.0905 49.653 19.5603 49.653C20.03 49.653 20.4101 50.0331 20.4101 50.5029C20.4101 51.9105 21.7323 53.0816 22.8411 53.8161C23.2329 54.0759 23.3399 54.6029 23.081 54.9938C22.9175 55.2411 22.6469 55.3748 22.3714 55.3748ZM40.1321 23.0703C40.1321 24.7103 41.4667 26.0449 43.1067 26.0449C44.7467 26.0449 46.0813 24.7103 46.0813 23.0703C46.0813 21.4303 44.7467 20.0957 43.1067 20.0957C41.4667 20.0957 40.1321 21.4303 40.1321 23.0703ZM41.8318 23.0703C41.8318 22.3673 42.4037 21.7955 43.1067 21.7955C43.8097 21.7955 44.3815 22.3673 44.3815 23.0703C44.3815 23.7733 43.8097 24.3451 43.1067 24.3451C42.4037 24.3451 41.8318 23.7733 41.8318 23.0703Z" fill="#00A5FF"/>
</svg>
