<svg width="80" height="80" viewBox="0 0 80 80" fill="none" xmlns="http://www.w3.org/2000/svg">
<path d="M48.6732 32.2562C48.1845 31.863 47.4093 31.9483 47.018 32.4355L38.3755 43.1769L33.0585 38.3907C32.593 37.9727 31.8134 38.0139 31.396 38.4779C31.1856 38.7116 31.0789 39.0137 31.0954 39.3278C31.1124 39.642 31.2501 39.9309 31.4842 40.1409L37.3768 45.4453C37.6754 45.7149 38.0609 45.8628 38.4623 45.8628C38.5045 45.8628 38.5457 45.8608 38.5913 45.8575C39.032 45.8211 39.4446 45.6024 39.7229 45.2558L48.8526 33.9118C49.049 33.6665 49.1401 33.3596 49.1057 33.0469C49.0722 32.7342 48.9181 32.453 48.6732 32.2562Z" fill="#00ADFF"/>
<path fill-rule="evenodd" clip-rule="evenodd" d="M57.1265 22.7177C58.6173 22.8549 59.8333 24.1343 59.8939 25.6305C59.8978 25.6896 59.8978 25.6896 59.723 28.3648L59.7227 28.3688C59.427 32.8583 58.4888 39.5435 55.6953 45.8962C53.3977 51.1168 50.2274 55.2208 46.2717 58.0939C44.4522 59.415 41.726 60.6286 41.4211 60.7624C40.8795 60.999 40.1785 61.1299 39.4468 61.1299C38.7152 61.1299 38.0142 60.999 37.4726 60.7633C37.1672 60.6295 34.441 59.416 32.621 58.0944C30.0355 56.2168 27.7854 53.8125 25.8954 50.9141L27.995 49.8238C29.6984 52.388 31.7097 54.522 34.0047 56.19C35.621 57.3621 38.2202 58.5183 38.4098 58.6026L38.4171 58.6059C38.9053 58.8192 39.9879 58.8192 40.4771 58.6059C40.5891 58.5574 43.2479 57.3802 44.889 56.19C48.5024 53.5651 51.4133 49.783 53.5393 44.9498C56.1951 38.9108 57.0901 32.516 57.3723 28.2146L57.5381 25.6877C57.4964 25.3832 57.2041 25.0894 56.9103 25.0623C56.5767 25.0312 55.434 24.9197 54.2592 24.7583C52.126 24.465 50.1198 24.0781 48.2954 23.6093C46.4468 23.1341 44.7571 22.5674 43.2726 21.925C41.6064 21.2032 39.9631 20.0158 39.8927 19.965L39.8905 19.9634C39.6907 19.8174 39.204 19.8169 39.0023 19.9639C38.9863 19.9755 37.3151 21.1909 35.625 21.923C34.1506 22.5615 32.4736 23.1249 30.639 23.5986L30.5983 23.6093C28.7739 24.0786 26.7672 24.465 24.635 24.7583C23.4597 24.9192 22.317 25.0308 21.9951 25.0613C21.6916 25.0889 21.3939 25.3866 21.3566 25.6828C21.3667 25.8535 21.4031 26.4077 21.5219 28.2136C21.7771 32.0959 22.5308 37.6848 24.6288 43.1778L22.5261 44.2697C20.2527 38.4409 19.4424 32.4831 19.1724 28.3693V28.3692C18.9964 25.6916 18.9964 25.6916 19.0013 25.6106C19.0609 24.129 20.2769 22.8553 21.7677 22.7181C21.7714 22.7178 21.7813 22.7168 21.7969 22.7153C21.9988 22.6959 23.159 22.5847 24.3145 22.4253C26.358 22.1446 28.275 21.7752 30.0117 21.3286C31.7449 20.8836 33.3182 20.357 34.6893 19.7631C36.1146 19.1455 37.6021 18.0711 37.6161 18.0604C38.1184 17.6958 38.7676 17.4956 39.4468 17.4956C40.1256 17.4956 40.7753 17.6958 41.2751 18.058C41.2911 18.0701 42.7824 19.1464 44.2059 19.7626C45.5794 20.357 47.1522 20.8836 48.8825 21.3281C50.6192 21.7752 52.5362 22.1441 54.5797 22.4248C55.8238 22.5965 57.0741 22.7128 57.1265 22.7177Z" fill="#00ADFF"/>
</svg>
