<svg width="80" height="80" viewBox="0 0 80 80" fill="none" xmlns="http://www.w3.org/2000/svg">
<path d="M11 21.9259C11 20.3333 12.2963 19 13.9259 19H49.4074C51 19 52.3333 20.2963 52.3333 21.9259V49.2592C52.3333 50.8518 51.037 52.1852 49.4074 52.1852H13.9259C12.3333 52.1852 11 50.8889 11 49.2592V43.4444H12.926V49.2592C12.926 49.7778 13.3704 50.2222 13.8889 50.2222H49.3704C49.8889 50.2222 50.3333 49.7778 50.3333 49.2592V21.9259C50.3333 21.4074 49.8889 20.963 49.3704 20.963H13.8889C13.3704 20.963 12.926 21.4074 12.926 21.9259V33.7408H11V21.9259Z" fill="#00A6FE"/>
<path d="M24.8518 50.2593H38.4444V61.8889H24.8518V50.2593ZM26.7778 52.1852V59.963H36.4814V52.1852H26.7778Z" fill="#00A6FE"/>
<path d="M51.2963 45.4074H11.963V43.4814H51.2963V45.4074Z" fill="#00A6FE"/>
<path d="M41.3333 61.9999H21.9259V60.074H41.3333V61.9999Z" fill="#00A6FE"/>
<path d="M55.037 36.1482C55.037 33.7408 57 31.7778 59.4074 31.7778H67.6667C70.0741 31.7778 72.037 33.7408 72.037 36.1482V57.6296C72.037 60.037 70.0741 62 67.6667 62H59.3704C56.963 62 55 60.037 55 57.6296V53.9259H70.037V40.5926H56.963V55.2593H55.037V36.1482ZM56.963 38.6297H70.0741V36.1482C70.0741 34.8148 68.963 33.7037 67.6667 33.7037H59.3704C58.037 33.7037 56.963 34.8148 56.963 36.1482V38.6297ZM70.0741 55.8519H56.963V57.6296C56.963 58.963 58.0741 60.0741 59.3704 60.0741H67.6296C68.963 60.0741 70.037 59 70.037 57.6296L70.0741 55.8519ZM61.8148 35.0371H65.2593V36.963H61.8148V35.0371Z" fill="#00A6FE"/>
</svg>
