<svg width="80" height="80" viewBox="0 0 80 80" fill="none" xmlns="http://www.w3.org/2000/svg">
<path fill-rule="evenodd" clip-rule="evenodd" d="M48.7313 45.1386C48.7276 45.1285 48.707 45.0791 48.6164 44.95L50.3375 43.7435C50.4849 43.9535 50.6417 44.2056 50.7377 44.5116C50.8397 44.8362 50.8516 45.1491 50.8149 45.4607C50.762 45.909 50.5821 46.4848 50.3534 47.2167C50.3154 47.3385 50.276 47.4645 50.2356 47.595C49.8997 48.6807 48.993 50.771 47.7702 52.9878C46.5469 55.2054 44.9528 57.6501 43.2087 59.3933C42.0846 60.5168 40.8821 61.5352 39.6147 62.445C38.9778 62.9022 38.2627 63.0754 37.5658 62.9702C36.8869 62.8678 36.3047 62.5143 35.8702 62.0559C35.0139 61.1526 34.5964 59.6987 35.1196 58.3059C35.9128 56.1941 36.4117 53.9702 36.5949 51.6838L38.6903 51.8514C38.4916 54.333 37.9498 56.749 37.0876 59.0444C36.8703 59.623 37.0462 60.2416 37.3962 60.6108C37.5649 60.7887 37.739 60.8715 37.8796 60.8927C38.0022 60.9112 38.1697 60.8954 38.3884 60.7384C39.5637 59.8947 40.6792 58.9501 41.7223 57.9076C43.2619 56.3687 44.7439 54.1223 45.9293 51.9734C47.115 49.8237 47.9495 47.872 48.2273 46.9743C48.2681 46.8423 48.306 46.7203 48.341 46.6072C48.5901 45.8049 48.6989 45.4542 48.7271 45.215C48.7327 45.1671 48.7317 45.1443 48.7313 45.1386C48.7313 45.1385 48.7313 45.1387 48.7313 45.1386Z" fill="#00ADFF"/>
<path fill-rule="evenodd" clip-rule="evenodd" d="M32.8706 29.2861C32.8807 29.2898 32.9302 29.3104 33.0593 29.4009L34.2664 27.6807C34.0563 27.5334 33.8041 27.3767 33.498 27.2807C33.1732 27.1788 32.8601 27.1669 32.5483 27.2036C32.0998 27.2564 31.5238 27.4362 30.7914 27.6648C30.6696 27.7028 30.5435 27.7422 30.413 27.7825C29.3267 28.1183 27.2353 29.0245 25.0173 30.2467C22.7986 31.4693 20.3526 33.0626 18.6086 34.8058C17.4844 35.9293 16.4656 37.1312 15.5553 38.3979C15.0979 39.0345 14.9246 39.7493 15.0298 40.4458C15.1323 41.1244 15.486 41.7063 15.9446 42.1406C16.8483 42.9964 18.303 43.4137 19.6965 42.8908C21.8094 42.098 24.0344 41.5993 26.3221 41.4163L26.1543 39.3219C23.6714 39.5205 21.2542 40.062 18.9577 40.9237C18.3787 41.141 17.7599 40.9652 17.3904 40.6153C17.2124 40.4468 17.1296 40.2727 17.1084 40.1322C17.0899 40.0096 17.1057 39.8422 17.2627 39.6236C18.1069 38.4489 19.052 37.3341 20.0951 36.2915C21.6347 34.7526 23.8823 33.2714 26.0323 32.0867C28.1831 30.9015 30.1358 30.0675 31.034 29.7898C31.166 29.749 31.2881 29.7112 31.4012 29.6761C32.204 29.4272 32.5548 29.3184 32.7942 29.2903C32.8421 29.2846 32.8649 29.2857 32.8706 29.2861C32.8707 29.2861 32.8705 29.2861 32.8706 29.2861Z" fill="#00ADFF"/>
<path fill-rule="evenodd" clip-rule="evenodd" d="M64 15L63.9637 16.1203C63.8297 20.254 63.0632 24.2848 61.784 28.0957L61.7772 28.1159L60.5734 31.2713L60.5645 31.2919C56.2171 41.3694 48.0307 49.6192 37.5092 53.8171L36.866 54.0738L29.5276 46.7391L31.0141 45.2534L37.3684 51.6045C47.0413 47.5477 54.5768 39.8506 58.6252 30.4805L59.7977 27.4073C60.8934 24.1375 61.5904 20.7045 61.8088 17.1899C58.2918 17.4069 54.8658 18.0975 51.5973 19.2103L48.5096 20.3729C38.9302 24.508 31.0988 32.2822 27.1153 42.2561L25.1629 41.4771C29.3629 30.9611 37.617 22.7789 47.6997 18.4338L47.7223 18.424L50.8874 17.2324L50.9031 17.2271C54.7204 15.9255 58.7447 15.1702 62.8791 15.0363L64 15Z" fill="#00ADFF"/>
<path fill-rule="evenodd" clip-rule="evenodd" d="M50.8433 28.1499C51.4621 28.7685 52.4654 28.7685 53.0843 28.1499C53.7031 27.5314 53.7031 26.5286 53.0843 25.9101C52.4654 25.2915 51.4621 25.2915 50.8433 25.9101C50.2244 26.5286 50.2244 27.5314 50.8433 28.1499ZM49.3568 29.6356C50.7966 31.0747 53.131 31.0747 54.5708 29.6356C56.0106 28.1966 56.0106 25.8634 54.5708 24.4244C53.131 22.9853 50.7966 22.9853 49.3568 24.4244C47.917 25.8634 47.917 28.1966 49.3568 29.6356Z" fill="#00ADFF"/>
<path fill-rule="evenodd" clip-rule="evenodd" d="M17.03 61.9464L29.137 57.4519C32.0088 56.3858 32.8122 52.7064 30.646 50.5412L28.4411 48.3375C26.2749 46.1724 22.5936 46.9754 21.5269 49.8458L17.03 61.9464ZM20.5976 58.3807L28.405 55.4823C29.8409 54.9492 30.2426 53.1095 29.1595 52.027L26.9546 49.8232C25.8715 48.7407 24.0309 49.1422 23.4975 50.5773L20.5976 58.3807Z" fill="#00ADFF"/>
</svg>
