<svg width="80" height="80" viewBox="0 0 80 80" fill="none" xmlns="http://www.w3.org/2000/svg">
<path fill-rule="evenodd" clip-rule="evenodd" d="M48.3475 44.9539C48.3439 44.9443 48.3243 44.8973 48.2382 44.7744L49.8756 43.626C50.0158 43.8259 50.165 44.0658 50.2564 44.3571C50.3534 44.6661 50.3647 44.9639 50.3297 45.2606C50.2795 45.6872 50.1083 46.2353 49.8907 46.9321C49.8545 47.0479 49.8171 47.1679 49.7787 47.2921C49.4591 48.3256 48.5965 50.3153 47.4331 52.4255C46.2693 54.5364 44.7526 56.8634 43.0934 58.5227C42.0239 59.5922 40.8798 60.5615 39.6741 61.4275C39.0681 61.8627 38.3877 62.0276 37.7247 61.9275C37.0788 61.83 36.5249 61.4935 36.1115 61.0572C35.2969 60.1974 34.8997 58.8134 35.3974 57.4876C36.1521 55.4774 36.6268 53.3606 36.801 51.1841L38.7946 51.3437C38.6055 53.7059 38.0901 56.0057 37.2698 58.1906C37.063 58.7414 37.2303 59.3302 37.5634 59.6816C37.7238 59.851 37.8896 59.9297 38.0233 59.9499C38.1399 59.9675 38.2993 59.9525 38.5073 59.8031C39.6255 59 40.6868 58.1009 41.6792 57.1085C43.144 55.6437 44.5539 53.5053 45.6816 51.4598C46.8098 49.4136 47.6037 47.5558 47.8679 46.7013C47.9068 46.5757 47.9428 46.4595 47.9762 46.3519C48.2131 45.5882 48.3167 45.2544 48.3435 45.0266C48.3488 44.9811 48.3479 44.9594 48.3475 44.9539C48.3475 44.9538 48.3475 44.9541 48.3475 44.9539Z" fill="#00ADFF"/>
<path fill-rule="evenodd" clip-rule="evenodd" d="M33.2578 29.8642C33.2674 29.8678 33.3144 29.8874 33.4373 29.9735L34.5857 28.3361C34.3858 28.1959 34.1459 28.0467 33.8546 27.9553C33.5456 27.8584 33.2478 27.847 32.9511 27.882C32.5245 27.9322 31.9764 28.1034 31.2796 28.321C31.1638 28.3572 31.0438 28.3946 30.9196 28.4331C29.8861 28.7526 27.8964 29.6152 25.7863 30.7786C23.6753 31.9424 21.3483 33.4591 19.689 35.1183C18.6195 36.1878 17.6502 37.3319 16.7842 38.5376C16.349 39.1436 16.1841 39.824 16.2842 40.487C16.3817 41.1329 16.7182 41.6868 17.1545 42.1002C18.0143 42.9148 19.3983 43.312 20.7241 42.8143C22.7343 42.0596 24.8511 41.585 27.0276 41.4107L26.868 39.4171C24.5058 39.6062 22.206 40.1216 20.0211 40.9419C19.4703 41.1487 18.8816 40.9814 18.5301 40.6483C18.3607 40.4879 18.282 40.3222 18.2618 40.1884C18.2442 40.0718 18.2592 39.9124 18.4086 39.7044C19.2117 38.5862 20.1108 37.525 21.1032 36.5326C22.5681 35.0678 24.7064 33.6578 26.7519 32.5301C28.7981 31.4019 30.6559 30.608 31.5104 30.3438C31.636 30.3049 31.7522 30.2689 31.8598 30.2355C32.6235 29.9986 32.9574 29.8951 33.1851 29.8682C33.2306 29.8629 33.2523 29.8639 33.2578 29.8642C33.2579 29.8643 33.2576 29.8642 33.2578 29.8642Z" fill="#00ADFF"/>
<path fill-rule="evenodd" clip-rule="evenodd" d="M62.874 16.2656L62.8394 17.332C62.7119 21.2668 61.9827 25.1036 60.7656 28.7311L60.7592 28.7504L59.6139 31.7539L59.6054 31.7736C55.4693 41.3661 47.6809 49.219 37.6709 53.2149L37.059 53.4591L30.0773 46.4775L31.4915 45.0632L37.537 51.1087C46.7397 47.2471 53.9089 39.9204 57.7604 31.0012L58.8759 28.0759C59.9184 24.9634 60.5815 21.6956 60.7893 18.3501C57.4432 18.5567 54.1838 19.2141 51.0742 20.2734L48.1365 21.3799C39.0228 25.3161 31.5721 32.7162 27.7822 42.2101L25.9247 41.4687C29.9206 31.4587 37.7735 23.6702 47.366 19.5342L47.3875 19.5249L50.3988 18.3906L50.4137 18.3855C54.0455 17.1466 57.8741 16.4276 61.8075 16.3002L62.874 16.2656Z" fill="#00ADFF"/>
<path fill-rule="evenodd" clip-rule="evenodd" d="M50.3568 28.7828C50.9455 29.3715 51.9001 29.3715 52.4889 28.7828C53.0776 28.194 53.0776 27.2395 52.4889 26.6507C51.9001 26.0619 50.9455 26.0619 50.3568 26.6507C49.768 27.2395 49.768 28.194 50.3568 28.7828ZM48.9426 30.197C50.3124 31.5668 52.5333 31.5668 53.9031 30.197C55.2729 28.8272 55.2729 26.6063 53.9031 25.2365C52.5333 23.8667 50.3124 23.8667 48.9426 25.2365C47.5727 26.6063 47.5727 28.8272 48.9426 30.197Z" fill="#00ADFF"/>
<path fill-rule="evenodd" clip-rule="evenodd" d="M18.1872 60.953L29.7056 56.6747C32.4378 55.6599 33.2022 52.1575 31.1413 50.0966L29.0436 47.9989C26.9827 45.938 23.4803 46.7024 22.4655 49.4346L18.1872 60.953ZM21.5814 57.5588L29.0092 54.7999C30.3753 54.2925 30.7576 52.5413 29.7271 51.5108L27.6294 49.4131C26.5989 48.3827 24.8477 48.7649 24.3403 50.131L21.5814 57.5588Z" fill="#00ADFF"/>
</svg>
