<svg width="80" height="81" viewBox="0 0 80 81" fill="none" xmlns="http://www.w3.org/2000/svg">
<path fill-rule="evenodd" clip-rule="evenodd" d="M32.4073 40.233C32.7715 40.233 33.0666 40.5253 33.0666 40.8859V53.8861C33.0666 57.1898 35.8004 59.8681 39.1728 59.8681C42.1845 59.8681 44.6868 57.7321 45.1877 54.9222H47.0225C46.5059 58.741 43.1732 61.6634 39.1728 61.6634C34.8175 61.6634 31.2536 58.1995 31.2536 53.8861V50.1074H27.6351V53.9207C27.6351 60.1345 32.7823 65.2047 39.1728 65.2047C45.5633 65.2047 50.7105 60.1345 50.7105 53.9207V50.1074L45.279 50.1076V40.8859C45.279 40.5253 45.5742 40.233 45.9383 40.233H51.8643C52.2284 40.233 52.5236 40.5253 52.5236 40.8859V53.9207C52.5236 61.1442 46.5462 67 39.1728 67C31.7994 67 25.822 61.1442 25.822 53.9207V40.8859C25.822 40.5253 26.1172 40.233 26.4813 40.233H32.4073ZM27.6351 42.0284V48.3121H31.2536V42.0284H27.6351ZM50.7105 48.3121H47.092V42.0284H50.7105V48.3121Z" fill="#00ADFF"/>
<path fill-rule="evenodd" clip-rule="evenodd" d="M28.7592 29.8862L28.0398 30.108C25.971 30.7455 24.7162 32.7551 24.9782 34.812L33.9757 32.0393C33.0128 30.1984 30.828 29.2487 28.7592 29.8862ZM27.501 28.3937C24.2229 29.4039 22.3925 32.8542 23.4127 36.1002C23.5827 36.6412 24.1635 36.9433 24.7098 36.775L35.3217 33.5048C35.868 33.3364 36.1731 32.7613 36.0031 32.2203C34.9829 28.9743 31.4985 27.1618 28.2205 28.172L27.501 28.3937Z" fill="#00ADFF"/>
<path fill-rule="evenodd" clip-rule="evenodd" d="M27.0279 25.6336C28.228 25.2638 28.7893 24.0978 28.4861 23.133C28.1829 22.1682 27.0526 21.5236 25.8524 21.8934C24.6523 22.2632 24.091 23.4292 24.3942 24.394C24.6974 25.3588 25.8278 26.0034 27.0279 25.6336ZM27.5666 27.3478C29.6527 26.705 30.8394 24.5791 30.2173 22.5995C29.5951 20.62 27.3997 19.5363 25.3137 20.1792C23.2276 20.822 22.0409 22.9479 22.6631 24.9275C23.2852 26.907 25.4806 27.9907 27.5666 27.3478Z" fill="#00ADFF"/>
<path fill-rule="evenodd" clip-rule="evenodd" d="M41.2187 22.0904L40.4887 21.9892C38.425 21.7028 36.4995 22.929 35.8548 24.8143L44.8901 26.0679C44.7935 24.0797 43.2824 22.3768 41.2187 22.0904ZM40.7403 20.2112C37.4143 19.7497 34.3402 22.0455 33.8742 25.339C33.7966 25.888 34.183 26.3953 34.7373 26.4722L45.5044 27.966C46.0587 28.043 46.5711 27.6603 46.6487 27.1114C47.1148 23.8179 44.7963 20.7739 41.4703 20.3124L40.7403 20.2112Z" fill="#00ADFF"/>
<path fill-rule="evenodd" clip-rule="evenodd" d="M41.4907 17.5347C42.6884 17.7009 43.6552 16.9145 43.7905 15.9585C43.9258 15.0025 43.2144 13.9833 42.0167 13.8171C40.819 13.651 39.8521 14.4373 39.7169 15.3933C39.5816 16.3494 40.293 17.3685 41.4907 17.5347ZM41.2391 19.3127C43.3556 19.6063 45.3018 18.2162 45.586 16.2076C45.8702 14.1991 44.3848 12.3328 42.2683 12.0391C40.1517 11.7455 38.2055 13.1357 37.9213 15.1442C37.6371 17.1527 39.1225 19.019 41.2391 19.3127Z" fill="#00ADFF"/>
<path fill-rule="evenodd" clip-rule="evenodd" d="M51.9359 32.6673L51.3664 32.3149C49.8808 31.3955 47.994 31.6392 46.7925 32.7976L53.5021 36.95C54.0271 35.3728 53.4215 33.5867 51.9359 32.6673ZM52.3273 30.7924C49.7325 29.1866 46.3145 29.9678 44.6928 32.5372C44.4226 32.9654 44.554 33.5295 44.9865 33.7971L53.3863 38.9954C53.8188 39.2631 54.3885 39.1329 54.6587 38.7046C56.2804 36.1353 55.4915 32.7506 52.8967 31.1448L52.3273 30.7924Z" fill="#00ADFF"/>
<path fill-rule="evenodd" clip-rule="evenodd" d="M54.0399 28.7056C54.9043 29.2406 55.9018 28.9554 56.322 28.2897C56.7421 27.624 56.5639 26.6111 55.6995 26.0762C54.8351 25.5413 53.8376 25.8265 53.4174 26.4922C52.9973 27.1579 53.1755 28.1707 54.0399 28.7056ZM53.0791 30.2281C54.7303 31.25 56.8705 30.8081 57.8595 29.2412C58.8484 27.6742 58.3116 25.5756 56.6603 24.5537C55.0091 23.5319 52.8689 23.9737 51.8799 25.5407C50.891 27.1076 51.4278 29.2063 53.0791 30.2281Z" fill="#00ADFF"/>
<path fill-rule="evenodd" clip-rule="evenodd" d="M60.6711 38.4079C60.1901 38.5409 59.9086 39.0341 60.041 39.5106L60.0424 39.5161C60.0442 39.523 60.0475 39.5359 60.0519 39.5545C60.0608 39.5917 60.0741 39.6515 60.0889 39.7309C60.1187 39.8902 60.1544 40.1265 60.1734 40.4174C60.2117 41.0032 60.181 41.7866 59.9186 42.6053C59.717 43.2345 59.2729 43.5641 58.4957 44.141L58.4854 44.1486C57.7341 44.7063 56.7773 45.4443 56.3151 46.8866C55.9002 48.1814 55.9083 49.2187 56.0441 49.9621C56.1114 50.331 56.209 50.621 56.296 50.8285C56.3395 50.9321 56.3804 51.0151 56.4135 51.0771C56.4301 51.1081 56.4447 51.1338 56.4568 51.1543C56.4629 51.1645 56.4683 51.1734 56.473 51.181L56.4795 51.1914L56.4823 51.1958L56.4836 51.1979L56.4843 51.1989C56.4843 51.1989 56.4849 51.1998 57.248 50.7152L56.4849 51.1998C56.7552 51.6171 57.3159 51.7384 57.7374 51.4708C58.1539 51.2062 58.2784 50.6607 58.0203 50.2451C58.0194 50.2435 58.0178 50.2407 58.0158 50.2369C58.0076 50.2216 57.9911 50.189 57.9703 50.1396C57.9289 50.0408 57.8705 49.8745 57.8282 49.6427C57.7446 49.1846 57.7184 48.4434 58.0433 47.4296C58.3209 46.5632 58.8603 46.1141 59.5729 45.5851C59.6171 45.5524 59.6625 45.519 59.7089 45.4848C60.3787 44.9923 61.2646 44.3408 61.6468 43.1483C61.9956 42.0598 62.031 41.0411 61.9827 40.3015C61.9584 39.9297 61.9126 39.6224 61.8717 39.4039C61.8512 39.2945 61.8319 39.2067 61.8169 39.1437C61.8094 39.1122 61.803 39.0867 61.7981 39.0678C61.7956 39.0584 61.7935 39.0505 61.7919 39.0444L61.7897 39.0364L61.7888 39.0333L61.7883 39.0314C61.7883 39.0314 61.7881 39.0309 60.915 39.2724L61.7881 39.0309C61.6534 38.5534 61.1533 38.2745 60.6711 38.4079Z" fill="#00ADFF"/>
<path fill-rule="evenodd" clip-rule="evenodd" d="M19.8984 45.1605C20.2816 44.8433 20.3333 44.2791 20.0147 43.8988L20.0111 43.8943C20.0066 43.8888 19.9982 43.8783 19.9865 43.8632C19.963 43.8329 19.926 43.7838 19.8795 43.7174C19.7861 43.5843 19.6555 43.3836 19.5173 43.1261C19.2391 42.6078 18.9417 41.8811 18.8408 41.0281C18.7633 40.3725 19.0312 39.8911 19.5 39.0487L19.5061 39.0376C19.9593 38.2233 20.5249 37.1609 20.3472 35.6581C20.1876 34.3088 19.7493 33.3666 19.3168 32.7443C19.1022 32.4355 18.8928 32.2109 18.7273 32.0572C18.6446 31.9805 18.5728 31.9214 18.5169 31.8785C18.4889 31.857 18.4649 31.8395 18.4454 31.8258C18.4356 31.8189 18.427 31.813 18.4195 31.808L18.4093 31.8012L18.4049 31.7983L18.4028 31.7969L18.4018 31.7963C18.4018 31.7963 18.4009 31.7957 17.9066 32.5482L18.4009 31.7957C17.9812 31.5254 17.4197 31.6432 17.1467 32.0588C16.8769 32.4696 16.99 33.0175 17.3979 33.2912C17.3994 33.2923 17.4019 33.2942 17.4054 33.2968C17.4192 33.3075 17.4478 33.3304 17.4873 33.3671C17.5661 33.4402 17.6884 33.5681 17.8232 33.7621C18.0897 34.1456 18.4215 34.8105 18.5464 35.8669C18.6532 36.7697 18.3481 37.3987 17.9182 38.1711C17.8916 38.219 17.8641 38.2679 17.8359 38.318C17.43 39.0397 16.8931 39.9944 17.0401 41.2369C17.1742 42.3712 17.565 43.3142 17.9163 43.9687C18.0929 44.2976 18.2623 44.559 18.3903 44.7416C18.4545 44.833 18.5085 44.9051 18.5483 44.9565C18.5683 44.9822 18.5847 45.0027 18.597 45.0179C18.6032 45.0256 18.6083 45.0318 18.6124 45.0368L18.6177 45.0432L18.6198 45.0456L18.621 45.0471C18.621 45.0471 18.6214 45.0476 19.3169 44.4718L18.6214 45.0476C18.9425 45.4279 19.5142 45.4785 19.8984 45.1605Z" fill="#00ADFF"/>
</svg>
