<svg width="80" height="81" viewBox="0 0 80 81" fill="none" xmlns="http://www.w3.org/2000/svg">
<path d="M20.9834 50.9976C22.0908 50.9976 22.9691 50.1193 22.9691 49.0119V30.9884C22.9691 29.881 22.0908 29.0027 20.9834 29.0027H16.9739C15.8665 29.0027 14.9883 29.881 14.9883 30.9884V49.0119C14.9883 50.1193 15.8665 50.9976 16.9739 50.9976H20.9834ZM16.9739 30.9884H20.9834V49.0119H16.9739V30.9884Z" fill="#10B2FF"/>
<path d="M33.0127 50.9976C34.1201 50.9976 34.9984 50.1193 34.9984 49.0119V30.9884C34.9984 29.881 34.1201 29.0027 33.0127 29.0027H29.0032C27.8958 29.0027 27.0176 29.881 27.0176 30.9884V49.0119C27.0176 50.1193 27.8958 50.9976 29.0032 50.9976H33.0127ZM29.0032 30.9884H33.0127V49.0119H29.0032V30.9884Z" fill="#10B2FF"/>
<path d="M45.0029 50.9976C46.1103 50.9976 46.9886 50.1193 46.9886 49.0119V30.9884C46.9886 29.881 46.1103 29.0027 45.0029 29.0027H40.9934C39.8861 29.0027 39.0078 29.881 39.0078 30.9884V49.0119C39.0078 50.1193 39.8861 50.9976 40.9934 50.9976H45.0029ZM40.9934 30.9884H45.0029V49.0119H40.9934V30.9884Z" fill="#10B2FF"/>
<path d="M57.0303 50.9976C58.1377 50.9976 59.0159 50.1193 59.0159 49.0119V30.9884C59.0159 29.881 58.1377 29.0027 57.0303 29.0027H53.0208C51.9134 29.0027 51.0352 29.881 51.0352 30.9884V49.0119C51.0352 50.1193 51.9134 50.9976 53.0208 50.9976H57.0303ZM52.9826 30.9884H56.9921V49.0119H52.9826V30.9884Z" fill="#10B2FF"/>
<path d="M66.9973 32.0195H64.0189V29.0028C64.0189 26.2534 61.7659 24.0005 59.0166 24.0005H14.9886C12.2393 24.0005 9.98633 26.2534 9.98633 29.0028V40.9931H11.972V29.0028C11.972 27.3226 13.3466 25.9862 14.9886 25.9862H59.0166C60.6968 25.9862 62.0332 27.3608 62.0332 29.0028V32.0195H61.995V48.0574H62.0332V50.9977C62.0332 52.6779 60.6586 54.0143 59.0166 54.0143H14.9886C13.3085 54.0143 11.972 52.6397 11.972 50.9977H9.98633C9.98633 53.7471 12.2393 56 14.9886 56H59.0166C61.7659 56 64.0189 53.7471 64.0189 50.9977V48.0574H66.9973C68.6775 48.0574 70.014 46.6827 70.014 45.0407V35.0361C70.014 33.356 68.6393 32.0195 66.9973 32.0195ZM68.0284 45.0025C68.0284 45.5371 67.5701 45.9954 67.0356 45.9954H64.0189V34.0051H67.0356C67.5701 34.0051 68.0284 34.4633 68.0284 34.9979V45.0025Z" fill="#10B2FF"/>
</svg>
