<svg width="80" height="81" viewBox="0 0 80 81" fill="none" xmlns="http://www.w3.org/2000/svg">
<path fill-rule="evenodd" clip-rule="evenodd" d="M39.625 15.1323C31.2027 15.1323 24.375 21.96 24.375 30.3823C24.375 38.8047 31.2027 45.6323 39.625 45.6323C48.0473 45.6323 54.875 38.8047 54.875 30.3823C54.875 21.96 48.0473 15.1323 39.625 15.1323ZM22.375 30.3823C22.375 20.8554 30.0981 13.1323 39.625 13.1323C49.1519 13.1323 56.875 20.8554 56.875 30.3823C56.875 39.9092 49.1519 47.6323 39.625 47.6323C30.0981 47.6323 22.375 39.9092 22.375 30.3823Z" fill="#00ADFF"/>
<path fill-rule="evenodd" clip-rule="evenodd" d="M52.625 34.6323C44.2027 34.6323 37.375 41.46 37.375 49.8823C37.375 58.3047 44.2027 65.1323 52.625 65.1323C61.0473 65.1323 67.875 58.3047 67.875 49.8823C67.875 41.46 61.0473 34.6323 52.625 34.6323ZM35.375 49.8823C35.375 40.3554 43.0981 32.6323 52.625 32.6323C62.1519 32.6323 69.875 40.3554 69.875 49.8823C69.875 59.4092 62.1519 67.1323 52.625 67.1323C43.0981 67.1323 35.375 59.4092 35.375 49.8823Z" fill="#00ADFF"/>
<path fill-rule="evenodd" clip-rule="evenodd" d="M28.25 34.6323C19.8277 34.6323 13 41.46 13 49.8823C13 53.7187 14.4153 57.2219 16.7536 59.9024L15.2464 61.2171C12.6025 58.1863 11 54.2202 11 49.8823C11 40.3554 18.7231 32.6323 28.25 32.6323C37.7769 32.6323 45.5 40.3554 45.5 49.8823C45.5 59.4092 37.7769 67.1323 28.25 67.1323V65.1323C36.6723 65.1323 43.5 58.3047 43.5 49.8823C43.5 41.46 36.6723 34.6323 28.25 34.6323Z" fill="#00ADFF"/>
</svg>
