<svg version="1.1" id="Layer_1" xmlns="http://www.w3.org/2000/svg" xmlns:xlink="http://www.w3.org/1999/xlink" x="0px" y="0px"
	 viewBox="0 0 72 82" style="enable-background:new 0 0 72 82;" xml:space="preserve">
	<path d="M36.1,1L36.1,1c0.1,0,0.3,0,0.4,0l34,10.2c0,0,0,0,0,0c0.3,0.1,0.5,0.4,0.5,0.7v37.5c0,7-5.4,13.9-12.6,19.6
		c-7.2,5.6-15.8,9.9-21.9,11.8l0,0l0,0c0,0,0,0-0.1,0c0,0-0.1,0-0.1,0c-0.1,0-0.1,0-0.2,0c-6-1.9-14.7-6.1-21.9-11.8
		C7,63.4,1.6,56.5,1.6,49.5V12c0-0.3,0.2-0.6,0.5-0.7c0,0,0,0,0,0L36.1,1z M35.8,0.1L35.8,0.1L35.8,0.1z" fill="none" stroke="#606060" stroke-width="2"/>
	<rect x="17.4" y="21" width="17.2" height="17.2" fill="#606060"/>
	<rect x="38" y="21" width="17.2" height="17.2" fill="#606060"/>
	<rect x="17.4" y="41.5" width="17.2" height="17.2" fill="#606060"/>
	<rect x="38" y="41.5" width="17.2" height="17.2" fill="#606060"/>
</svg>
