<svg width="85" height="85" viewBox="0 0 85 85" fill="none" xmlns="http://www.w3.org/2000/svg">
<g opacity="0.3">
<circle cx="42.5" cy="42.5" r="41.5" fill="#191919" stroke="white" stroke-width="2"/>
<path d="M24.6458 46.6925H20V24.3075H24.6458V46.6925Z" fill="white"/>
<path d="M40.6583 40.8195C40.6583 39.9483 40.3486 39.2821 39.7292 38.8209C39.1097 38.3494 37.9947 37.8574 36.3842 37.3449C34.7736 36.8222 33.4986 36.3097 32.5591 35.8075C29.9988 34.434 28.7186 32.584 28.7186 30.2574C28.7186 29.0479 29.0593 27.9717 29.7407 27.0287C30.4324 26.0755 31.4183 25.3324 32.6985 24.7995C33.989 24.2665 35.4344 24 37.0346 24C38.6451 24 40.0802 24.2921 41.3397 24.8763C42.5992 25.4503 43.5748 26.2652 44.2666 27.3209C44.9686 28.3766 45.3196 29.5758 45.3196 30.9184H40.6738C40.6738 29.8935 40.3486 29.0992 39.6982 28.5354C39.0478 27.9615 38.1341 27.6745 36.9572 27.6745C35.8215 27.6745 34.9388 27.9153 34.3091 28.3971C33.6793 28.8685 33.3644 29.4938 33.3644 30.2727C33.3644 31.0004 33.7309 31.6103 34.4639 32.1023C35.2072 32.5943 36.2964 33.0555 37.7315 33.486C40.3744 34.2752 42.2998 35.254 43.5077 36.4225C44.7156 37.5909 45.3196 39.0463 45.3196 40.7888C45.3196 42.7259 44.5814 44.248 43.1051 45.3549C41.6288 46.4516 39.6414 47 37.143 47C35.4086 47 33.829 46.6874 32.4043 46.0622C30.9796 45.4267 29.8904 44.5606 29.1367 43.4639C28.3934 42.3672 28.0217 41.0963 28.0217 39.6511H32.683C32.683 42.1212 34.1697 43.3563 37.143 43.3563C38.2477 43.3563 39.1097 43.1359 39.7292 42.6952C40.3486 42.2442 40.6583 41.619 40.6583 40.8195Z" fill="white"/>
<path d="M67 36.0074C67 38.211 66.6077 40.143 65.8231 41.8035C65.0384 43.4639 63.9131 44.7451 62.4471 45.6471C60.9914 46.549 59.3189 47 57.4297 47C55.561 47 53.8937 46.5541 52.4277 45.6624C50.9617 44.7707 49.826 43.4998 49.0208 41.8496C48.2155 40.1892 47.8077 38.2828 47.7974 36.1303V35.0234C47.7974 32.8197 48.1948 30.8826 48.9898 29.2119C49.7951 27.531 50.9255 26.2447 52.3812 25.3529C53.8472 24.451 55.5197 24 57.3987 24C59.2776 24 60.945 24.451 62.4007 25.3529C63.8667 26.2447 64.9971 27.531 65.7921 29.2119C66.5974 30.8826 67 32.8146 67 35.008V36.0074ZM62.2923 34.9926C62.2923 32.6455 61.869 30.8621 61.0224 29.6424C60.1758 28.4227 58.9679 27.8128 57.3987 27.8128C55.8398 27.8128 54.637 28.4176 53.7904 29.627C52.9439 30.8262 52.5154 32.5891 52.5051 34.9158V36.0074C52.5051 38.293 52.9284 40.0662 53.775 41.3269C54.6215 42.5876 55.8398 43.2179 57.4297 43.2179C58.9886 43.2179 60.1862 42.6132 61.0224 41.4037C61.8586 40.184 62.2819 38.4109 62.2923 36.0842V34.9926Z" fill="white"/>
<path d="M32.2106 55.168C33.2886 55.168 34.132 55.498 34.7406 56.158C35.3493 56.8107 35.6536 57.753 35.6536 58.985C35.6536 59.8577 35.4886 60.6057 35.1586 61.229C34.836 61.8523 34.3776 62.3253 33.7836 62.648C33.1896 62.9707 32.504 63.132 31.7266 63.132C31.316 63.132 30.9236 63.088 30.5496 63C30.1756 62.9047 29.8566 62.7727 29.5926 62.604L30.2526 61.295C30.6266 61.5517 31.107 61.68 31.6936 61.68C32.3463 61.68 32.8633 61.4893 33.2446 61.108C33.626 60.7193 33.8313 60.162 33.8606 59.436C33.3986 59.898 32.7606 60.129 31.9466 60.129C31.4553 60.129 31.008 60.03 30.6046 59.832C30.2013 59.634 29.8823 59.3553 29.6476 58.996C29.413 58.6293 29.2956 58.2077 29.2956 57.731C29.2956 57.2177 29.424 56.7667 29.6806 56.378C29.9373 55.9893 30.2856 55.6923 30.7256 55.487C31.173 55.2743 31.668 55.168 32.2106 55.168ZM32.3426 58.798C32.7313 58.798 33.0466 58.6917 33.2886 58.479C33.538 58.259 33.6626 57.9803 33.6626 57.643C33.6626 57.3057 33.5416 57.0307 33.2996 56.818C33.065 56.6053 32.7386 56.499 32.3206 56.499C31.9393 56.499 31.6276 56.6017 31.3856 56.807C31.151 57.0123 31.0336 57.291 31.0336 57.643C31.0336 57.995 31.151 58.2773 31.3856 58.49C31.6276 58.6953 31.9466 58.798 32.3426 58.798ZM39.6986 63.132C39.0606 63.132 38.4922 62.9743 37.9936 62.659C37.4949 62.3437 37.1026 61.889 36.8166 61.295C36.5379 60.6937 36.3986 59.9787 36.3986 59.15C36.3986 58.3213 36.5379 57.61 36.8166 57.016C37.1026 56.4147 37.4949 55.9563 37.9936 55.641C38.4922 55.3257 39.0606 55.168 39.6986 55.168C40.3366 55.168 40.9049 55.3257 41.4036 55.641C41.9022 55.9563 42.2909 56.4147 42.5696 57.016C42.8556 57.61 42.9986 58.3213 42.9986 59.15C42.9986 59.9787 42.8556 60.6937 42.5696 61.295C42.2909 61.889 41.9022 62.3437 41.4036 62.659C40.9049 62.9743 40.3366 63.132 39.6986 63.132ZM39.6986 61.625C40.1679 61.625 40.5346 61.4233 40.7986 61.02C41.0699 60.6167 41.2056 59.9933 41.2056 59.15C41.2056 58.3067 41.0699 57.6833 40.7986 57.28C40.5346 56.8767 40.1679 56.675 39.6986 56.675C39.2366 56.675 38.8699 56.8767 38.5986 57.28C38.3346 57.6833 38.2026 58.3067 38.2026 59.15C38.2026 59.9933 38.3346 60.6167 38.5986 61.02C38.8699 61.4233 39.2366 61.625 39.6986 61.625ZM47.0544 63.132C46.4164 63.132 45.848 62.9743 45.3494 62.659C44.8507 62.3437 44.4584 61.889 44.1724 61.295C43.8937 60.6937 43.7544 59.9787 43.7544 59.15C43.7544 58.3213 43.8937 57.61 44.1724 57.016C44.4584 56.4147 44.8507 55.9563 45.3494 55.641C45.848 55.3257 46.4164 55.168 47.0544 55.168C47.6924 55.168 48.2607 55.3257 48.7594 55.641C49.258 55.9563 49.6467 56.4147 49.9254 57.016C50.2114 57.61 50.3544 58.3213 50.3544 59.15C50.3544 59.9787 50.2114 60.6937 49.9254 61.295C49.6467 61.889 49.258 62.3437 48.7594 62.659C48.2607 62.9743 47.6924 63.132 47.0544 63.132ZM47.0544 61.625C47.5237 61.625 47.8904 61.4233 48.1544 61.02C48.4257 60.6167 48.5614 59.9933 48.5614 59.15C48.5614 58.3067 48.4257 57.6833 48.1544 57.28C47.8904 56.8767 47.5237 56.675 47.0544 56.675C46.5924 56.675 46.2257 56.8767 45.9544 57.28C45.6904 57.6833 45.5584 58.3067 45.5584 59.15C45.5584 59.9933 45.6904 60.6167 45.9544 61.02C46.2257 61.4233 46.5924 61.625 47.0544 61.625ZM54.0157 55.3V63H52.2337V56.73H50.6937V55.3H54.0157Z" fill="white"/>
</g>
</svg>
