<svg width="493" height="147" viewBox="0 0 493 147" fill="none" xmlns="http://www.w3.org/2000/svg">
<path d="M36.7327 41.694L45.6855 26.2655L36.7327 10.8369H18.8277L9.87498 26.2655L18.8279 41.694H36.7325" fill="#CAC9C2"/>
<path d="M27.4808 33.3084C31.3287 33.3084 34.459 30.1936 34.459 26.3649C34.459 22.5365 31.3287 19.4219 27.4808 19.4219C23.633 19.4219 20.5027 22.5365 20.5027 26.3649C20.5027 30.1936 23.633 33.3084 27.4808 33.3084Z" fill="white"/>
<path d="M13.443 5.66427C13.9919 4.71877 15.3386 3.94531 16.4357 3.94531H38.4978C39.5951 3.94531 40.9418 4.71896 41.4903 5.66427L47.9368 16.7741C47.9874 17.4918 47.8551 18.2415 47.5369 18.7894L43.1733 26.2127L35.3836 12.8228H10.7622C10.1796 12.8228 9.52779 13.0422 8.96121 13.3879L13.443 5.66427Z" fill="#5072AA"/>
<path d="M47.6557 16.2881L47.9377 16.7743C47.9884 17.4921 47.8561 18.2417 47.5381 18.7896L43.1744 26.2129L40.8527 22.2226L47.6557 16.2881Z" fill="#4D6796"/>
<path d="M37.9291 9.65277C38.286 9.65235 38.6282 9.51108 38.8806 9.25996C39.133 9.00883 39.275 8.66835 39.2754 8.3132C39.275 7.95805 39.133 7.61757 38.8806 7.36645C38.6282 7.11532 38.286 6.97405 37.9291 6.97363C37.5721 6.97395 37.2298 7.11518 36.9774 7.36632C36.7249 7.61746 36.5829 7.958 36.5825 8.3132C36.583 8.66838 36.725 9.00889 36.9774 9.26003C37.2299 9.51116 37.5721 9.6524 37.9291 9.65277V9.65277ZM15.8672 8.3132C15.8651 8.47741 15.8958 8.64039 15.9575 8.7927C16.0192 8.94501 16.1107 9.08361 16.2267 9.20046C16.3426 9.31731 16.4808 9.41009 16.6331 9.47341C16.7853 9.53673 16.9487 9.56934 17.1138 9.56934C17.2788 9.56934 17.4422 9.53673 17.5945 9.47341C17.7468 9.41009 17.8849 9.31731 18.0009 9.20046C18.1169 9.08361 18.2084 8.94501 18.2701 8.7927C18.3318 8.64039 18.3625 8.47741 18.3604 8.3132C18.3563 7.98695 18.2231 7.67547 17.9898 7.44622C17.7564 7.21697 17.4417 7.08842 17.1138 7.08842C16.7859 7.08842 16.4712 7.21697 16.2378 7.44622C16.0045 7.67547 15.8713 7.98695 15.8672 8.3132V8.3132Z" fill="white"/>
<path d="M2.41158 24.6746L8.9609 13.3872C9.52748 13.0415 10.1793 12.8223 10.7618 12.8223H19.6406L11.9633 26.2861L24.1181 47.653C24.3856 48.1137 24.843 48.5329 25.3682 48.8424H16.4354C15.3381 48.8424 13.9914 48.0687 13.4427 47.1234L2.41158 28.1127C1.86273 27.1672 1.86273 25.6201 2.41158 24.6746" fill="#CC4232"/>
<path d="M8.6657 13.8936L8.95935 13.3872C9.52553 13.0415 10.1774 12.8223 10.7599 12.8223H19.6387L17.3277 16.8753L8.6657 13.8936" fill="#B23F33"/>
<path d="M17.1136 45.5586C17.4706 45.5581 17.8128 45.4168 18.0652 45.1657C18.3176 44.9145 18.4596 44.574 18.46 44.2188C18.4595 43.8636 18.3176 43.5232 18.0652 43.272C17.8128 43.0209 17.4706 42.8796 17.1136 42.8792C16.7567 42.8796 16.4144 43.0208 16.162 43.272C15.9095 43.5231 15.7675 43.8636 15.7671 44.2188C15.7675 44.574 15.9095 44.9146 16.1619 45.1657C16.4144 45.4169 16.7566 45.5582 17.1136 45.5586V45.5586ZM6.63553 27.7037C6.99254 27.7034 7.33482 27.5621 7.58726 27.3109C7.8397 27.0598 7.98168 26.7192 7.98205 26.364C7.98163 26.0088 7.83962 25.6683 7.58718 25.4172C7.33475 25.166 6.9925 25.0248 6.63553 25.0244C6.27859 25.0248 5.9364 25.1661 5.684 25.4172C5.43161 25.6684 5.28963 26.0088 5.28921 26.364C5.28953 26.7192 5.43147 27.0597 5.68388 27.3109C5.93629 27.5621 6.27854 27.7034 6.63553 27.7037" fill="white"/>
<path d="M35.2136 39.7525L47.5367 18.7887C47.8546 18.2409 47.9869 17.4912 47.9365 16.7734L52.5211 24.6745C53.0698 25.62 53.0698 27.1671 52.5211 28.1126L41.49 47.1233C40.9415 48.0686 39.5948 48.842 38.4975 48.842H25.3682C24.8431 48.5328 24.3857 48.1136 24.1181 47.6527L19.6239 39.7523H35.2136" fill="#ECB02A"/>
<path d="M26.1143 48.8417H25.3506C24.8253 48.5325 24.3681 48.1132 24.1007 47.6524L19.6064 39.752H24.3924L26.1143 48.8417Z" fill="#C79732"/>
<path d="M37.9293 45.5586C38.2863 45.5581 38.6285 45.4168 38.8809 45.1657C39.1333 44.9145 39.2753 44.574 39.2756 44.2188C39.2752 43.8636 39.1332 43.5232 38.8808 43.272C38.6285 43.0209 38.2863 42.8796 37.9293 42.8792C37.5723 42.8795 37.2301 43.0208 36.9776 43.2719C36.7252 43.5231 36.5832 43.8636 36.5828 44.2188C36.5831 44.574 36.7251 44.9146 36.9775 45.1658C37.23 45.417 37.5723 45.5582 37.9293 45.5586V45.5586ZM48.4259 27.7037C48.7829 27.7034 49.1252 27.5621 49.3777 27.3109C49.6301 27.0598 49.7721 26.7192 49.7725 26.364C49.772 26.0088 49.63 25.6683 49.3776 25.4172C49.1252 25.166 48.7829 25.0248 48.4259 25.0244C48.069 25.0248 47.7268 25.1661 47.4744 25.4172C47.222 25.6684 47.08 26.0088 47.0796 26.364C47.08 26.7192 47.222 27.0597 47.4743 27.3109C47.7267 27.562 48.069 27.7033 48.4259 27.7037" fill="white"/>
<path opacity="0.5" d="M66.7005 25.5365C66.2505 25.7965 65.7605 25.8965 65.2605 25.8965C63.7805 25.8965 62.7305 24.8565 62.7305 23.4365C62.7305 21.9865 63.7805 20.9765 65.2705 20.9765C66.0205 20.9765 66.6505 21.2265 67.2005 21.7765L68.0205 20.9765C67.3605 20.2265 66.3805 19.8365 65.2105 19.8365C63.0205 19.8365 61.4205 21.3465 61.4205 23.4365C61.4205 25.5265 63.0205 27.0365 65.1905 27.0365C66.1805 27.0365 67.2005 26.7365 67.9305 26.1465V23.3565H66.7005V25.5365ZM72.7151 27.0365C74.8851 27.0365 76.4851 25.5165 76.4851 23.4365C76.4851 21.3565 74.8851 19.8365 72.7151 19.8365C70.5451 19.8365 68.9451 21.3665 68.9451 23.4365C68.9451 25.5065 70.5451 27.0365 72.7151 27.0365ZM72.7151 25.8965C71.3051 25.8965 70.2551 24.8665 70.2551 23.4365C70.2551 22.0065 71.3051 20.9765 72.7151 20.9765C74.1251 20.9765 75.1751 22.0065 75.1751 23.4365C75.1751 24.8665 74.1251 25.8965 72.7151 25.8965ZM80.933 27.0365C83.103 27.0365 84.703 25.5165 84.703 23.4365C84.703 21.3565 83.103 19.8365 80.933 19.8365C78.763 19.8365 77.163 21.3665 77.163 23.4365C77.163 25.5065 78.763 27.0365 80.933 27.0365ZM80.933 25.8965C79.523 25.8965 78.473 24.8665 78.473 23.4365C78.473 22.0065 79.523 20.9765 80.933 20.9765C82.343 20.9765 83.393 22.0065 83.393 23.4365C83.393 24.8665 82.343 25.8965 80.933 25.8965ZM90.661 25.5365C90.211 25.7965 89.721 25.8965 89.221 25.8965C87.741 25.8965 86.691 24.8565 86.691 23.4365C86.691 21.9865 87.741 20.9765 89.231 20.9765C89.981 20.9765 90.611 21.2265 91.161 21.7765L91.981 20.9765C91.321 20.2265 90.341 19.8365 89.171 19.8365C86.981 19.8365 85.381 21.3465 85.381 23.4365C85.381 25.5265 86.981 27.0365 89.151 27.0365C90.141 27.0365 91.161 26.7365 91.891 26.1465V23.3565H90.661V25.5365ZM93.4056 26.9365H98.3656V25.8365H94.7056V19.9365H93.4056V26.9365ZM100.492 25.8465V23.9165H103.872V22.8465H100.492V21.0265H104.302V19.9365H99.192V26.9365H104.442V25.8465H100.492ZM65.1605 37.0365C66.3105 37.0365 67.2905 36.6265 67.9405 35.8665L67.1005 35.0665C66.5905 35.6265 65.9605 35.8965 65.2305 35.8965C63.7805 35.8965 62.7305 34.8765 62.7305 33.4365C62.7305 31.9965 63.7805 30.9765 65.2305 30.9765C65.9605 30.9765 66.5905 31.2465 67.1005 31.7965L67.9405 31.0065C67.2905 30.2465 66.3105 29.8365 65.1705 29.8365C63.0205 29.8365 61.4205 31.3465 61.4205 33.4365C61.4205 35.5265 63.0205 37.0365 65.1605 37.0365ZM68.9861 36.9365H73.9461V35.8365H70.2861V29.9365H68.9861V36.9365ZM77.9155 37.0365C80.0855 37.0365 81.6855 35.5165 81.6855 33.4365C81.6855 31.3565 80.0855 29.8365 77.9155 29.8365C75.7455 29.8365 74.1455 31.3665 74.1455 33.4365C74.1455 35.5065 75.7455 37.0365 77.9155 37.0365ZM77.9155 35.8965C76.5055 35.8965 75.4555 34.8665 75.4555 33.4365C75.4555 32.0065 76.5055 30.9765 77.9155 30.9765C79.3255 30.9765 80.3755 32.0065 80.3755 33.4365C80.3755 34.8665 79.3255 35.8965 77.9155 35.8965ZM85.8734 37.0365C87.7834 37.0365 88.9334 35.9265 88.9334 33.8865V29.9365H87.6534V33.8365C87.6534 35.2765 87.0134 35.8965 85.8834 35.8965C84.7534 35.8965 84.1034 35.2765 84.1034 33.8365V29.9365H82.8034V33.8865C82.8034 35.9265 83.9534 37.0365 85.8734 37.0365ZM90.5541 36.9365H93.6141C95.8841 36.9365 97.4341 35.5365 97.4341 33.4365C97.4341 31.3365 95.8841 29.9365 93.6141 29.9365H90.5541V36.9365ZM91.8541 35.8365V31.0365H93.5541C95.1141 31.0365 96.1241 31.9865 96.1241 33.4365C96.1241 34.8865 95.1141 35.8365 93.5541 35.8365H91.8541ZM64.8005 40.9365H61.9205V47.9365H63.2205V45.9165H64.8005C66.6405 45.9165 67.7805 44.9665 67.7805 43.4265C67.7805 41.8765 66.6405 40.9365 64.8005 40.9365ZM64.7405 44.8165H63.2205V42.0365H64.7405C65.8805 42.0365 66.4705 42.5465 66.4705 43.4265C66.4705 44.3065 65.8805 44.8165 64.7405 44.8165ZM68.8787 47.9365H73.8387V46.8365H70.1787V40.9365H68.8787V47.9365ZM79.9538 47.9365H81.3138L78.1538 40.9365H76.8738L73.7238 47.9365H75.0638L75.7538 46.3165H79.2538L79.9538 47.9365ZM76.1938 45.2965L77.5038 42.2365L78.8238 45.2965H76.1938ZM83.0725 47.9365H84.3725V42.0365H86.6925V40.9365H80.7525V42.0365H83.0725V47.9365ZM92.5781 42.0265V40.9365H87.4681V47.9365H88.7681V45.2565H92.1481V44.1565H88.7681V42.0265H92.5781ZM96.8272 48.0365C98.9972 48.0365 100.597 46.5165 100.597 44.4365C100.597 42.3565 98.9972 40.8365 96.8272 40.8365C94.6572 40.8365 93.0572 42.3665 93.0572 44.4365C93.0572 46.5065 94.6572 48.0365 96.8272 48.0365ZM96.8272 46.8965C95.4172 46.8965 94.3672 45.8665 94.3672 44.4365C94.3672 43.0065 95.4172 41.9765 96.8272 41.9765C98.2372 41.9765 99.2872 43.0065 99.2872 44.4365C99.2872 45.8665 98.2372 46.8965 96.8272 46.8965ZM107.755 47.9365L106.145 45.6365C107.095 45.2665 107.635 44.4865 107.635 43.4265C107.635 41.8765 106.495 40.9365 104.655 40.9365H101.775V47.9365H103.075V45.8965H104.655C104.745 45.8965 104.835 45.8965 104.925 45.8865L106.355 47.9365H107.755ZM106.325 43.4265C106.325 44.3065 105.735 44.8265 104.595 44.8265H103.075V42.0365H104.595C105.735 42.0365 106.325 42.5465 106.325 43.4265ZM116.55 47.9365L116.54 40.9365H115.47L112.74 45.5765L109.96 40.9365H108.89V47.9365H110.13V43.3565L112.43 47.1365H113.01L115.31 43.2965L115.32 47.9365H116.55Z" fill="black"/>
<path d="M147.669 81.9453L130.581 96.9112L116 123.345H129.147L147.669 81.9453ZM149.942 85.4469L142.649 106.207L156.632 123.95L129.506 128.657H173.963L149.942 85.4469Z" fill="#0072C6"/>
<path d="M118.48 143.325H114.98L114.29 144.945H112.95L116.1 137.945H117.38L120.54 144.945H119.18L118.48 143.325ZM118.05 142.305L116.73 139.245L115.42 142.305H118.05ZM126.67 143.845V144.945H120.7V144.075L124.82 139.045H120.77V137.945H126.54V138.815L122.42 143.845H126.67ZM130.671 145.045C129.704 145.045 128.951 144.775 128.411 144.235C127.871 143.689 127.601 142.909 127.601 141.895V137.945H128.901V141.845C128.901 143.219 129.494 143.905 130.681 143.905C131.861 143.905 132.451 143.219 132.451 141.845V137.945H133.731V141.895C133.731 142.909 133.461 143.689 132.921 144.235C132.388 144.775 131.638 145.045 130.671 145.045ZM139.932 144.945L138.502 142.895C138.442 142.902 138.352 142.905 138.232 142.905H136.652V144.945H135.352V137.945H138.232C138.838 137.945 139.365 138.045 139.812 138.245C140.265 138.445 140.612 138.732 140.852 139.105C141.092 139.479 141.212 139.922 141.212 140.435C141.212 140.962 141.082 141.415 140.822 141.795C140.568 142.175 140.202 142.459 139.722 142.645L141.332 144.945H139.932ZM139.902 140.435C139.902 139.989 139.755 139.645 139.462 139.405C139.168 139.165 138.738 139.045 138.172 139.045H136.652V141.835H138.172C138.738 141.835 139.168 141.715 139.462 141.475C139.755 141.229 139.902 140.882 139.902 140.435ZM147.716 143.855V144.945H142.466V137.945H147.576V139.035H143.766V140.855H147.146V141.925H143.766V143.855H147.716Z" fill="#0072C6"/>
<path d="M404.673 32.014L398.809 34.5249L404.239 36.8399L410.536 34.5249L404.673 32.014ZM395.858 35.1526L395.661 46.4516L404.239 50.2179V38.4871L395.858 35.1526V35.1526ZM413.487 35.1526L405.735 38.0953V49.1584L413.487 46.0198V35.1526ZM422.735 0L416.832 2.51095L422.302 4.82598L428.599 2.51095L422.735 0V0ZM414.55 3.33577V14.6348L421.869 16.754L422.106 6.47433L414.55 3.33577V3.33577ZM430.921 3.96344L423.995 6.90625V18.0095L430.921 14.8708V3.96344H430.921ZM395.011 15.9028L389.148 18.4137L394.578 20.7288L400.875 18.4137L395.011 15.9028V15.9028ZM386.196 19.0414L386 30.3405L394.578 34.1068V22.3759L386.196 19.0414ZM403.826 19.0414L396.074 21.9842V33.0472L403.826 29.9086V19.0414ZM413.9 15.486L408.037 17.9969L413.467 20.3119L419.764 17.9969L413.9 15.486ZM405.086 18.6246L404.889 29.9237L413.467 33.69V21.9603L405.086 18.6246V18.6246ZM422.715 18.6246L414.963 21.5674V32.6304L422.715 29.4918V18.6246ZM441.185 0L435.322 2.51089L440.752 4.82593L447.048 2.51089L441.185 0ZM432.37 3.13862L432.174 14.4376L440.752 18.204V6.47433L432.37 3.13862ZM450 3.13862L442.248 6.08137V17.1444L450 14.0058V3.13862Z" fill="#F7A80D"/>
<path opacity="0.5" d="M435.18 27.9453H436.54L433.38 20.9453H432.1L428.95 27.9453H430.29L430.98 26.3253H434.48L435.18 27.9453ZM431.42 25.3053L432.73 22.2453L434.05 25.3053H431.42ZM444.89 27.9453L444.88 20.9453H443.81L441.08 25.5853L438.3 20.9453H437.23V27.9453H438.47V23.3653L440.77 27.1453H441.35L443.65 23.3053L443.66 27.9453H444.89ZM451.821 27.9453H453.181L450.021 20.9453H448.741L445.591 27.9453H446.931L447.621 26.3253H451.121L451.821 27.9453ZM448.061 25.3053L449.371 22.2453L450.691 25.3053H448.061ZM455.061 26.8453L459.181 21.8153V20.9453H453.411V22.0453H457.461L453.341 27.0753V27.9453H459.311V26.8453H455.061ZM463.494 28.0453C465.664 28.0453 467.264 26.5253 467.264 24.4453C467.264 22.3653 465.664 20.8453 463.494 20.8453C461.324 20.8453 459.724 22.3753 459.724 24.4453C459.724 26.5153 461.324 28.0453 463.494 28.0453ZM463.494 26.9053C462.084 26.9053 461.034 25.8753 461.034 24.4453C461.034 23.0153 462.084 21.9853 463.494 21.9853C464.904 21.9853 465.954 23.0153 465.954 24.4453C465.954 25.8753 464.904 26.9053 463.494 26.9053ZM473.372 20.9453V25.6853L469.512 20.9453H468.442V27.9453H469.732V23.2053L473.592 27.9453H474.662V20.9453H473.372ZM438.93 30.9453L437.14 36.2953L435.37 30.9453H434.17L432.36 36.2653L430.62 30.9453H429.27L431.59 37.9453H432.98L434.74 32.7653L436.47 37.9453H437.85L440.17 30.9453H438.93ZM442.329 36.8553V34.9253H445.709V33.8553H442.329V32.0353H446.139V30.9453H441.029V37.9453H446.279V36.8553H442.329ZM452.488 34.3053C453.028 34.0153 453.388 33.4853 453.388 32.7653C453.388 31.6553 452.488 30.9453 450.808 30.9453H447.528V37.9453H451.008C452.808 37.9453 453.748 37.2453 453.748 36.0453C453.748 35.1353 453.238 34.5453 452.488 34.3053ZM450.668 31.9653C451.568 31.9653 452.078 32.2853 452.078 32.9353C452.078 33.5753 451.568 33.8953 450.668 33.8953H448.828V31.9653H450.668ZM450.928 36.9253H448.828V34.9053H450.928C451.908 34.9053 452.438 35.2153 452.438 35.9153C452.438 36.6153 451.908 36.9253 450.928 36.9253ZM432.11 49.0453C434.03 49.0453 434.94 48.0853 434.94 46.9653C434.94 44.3953 430.79 45.3653 430.79 43.8753C430.79 43.3453 431.23 42.9253 432.31 42.9253C432.92 42.9253 433.61 43.1053 434.24 43.4753L434.65 42.4653C434.04 42.0653 433.16 41.8453 432.32 41.8453C430.4 41.8453 429.5 42.8053 429.5 43.9353C429.5 46.5353 433.66 45.5453 433.66 47.0553C433.66 47.5753 433.2 47.9653 432.11 47.9653C431.25 47.9653 430.36 47.6453 429.8 47.1953L429.35 48.2053C429.93 48.7053 431.02 49.0453 432.11 49.0453ZM437.329 47.8553V45.9253H440.709V44.8553H437.329V43.0353H441.139V41.9453H436.029V48.9453H441.279V47.8553H437.329ZM448.508 48.9453L446.898 46.6453C447.848 46.2753 448.388 45.4953 448.388 44.4353C448.388 42.8853 447.248 41.9453 445.408 41.9453H442.528V48.9453H443.828V46.9053H445.408C445.498 46.9053 445.588 46.9053 445.678 46.8953L447.108 48.9453H448.508ZM447.078 44.4353C447.078 45.3153 446.488 45.8353 445.348 45.8353H443.828V43.0453H445.348C446.488 43.0453 447.078 43.5553 447.078 44.4353ZM454.743 41.9453L452.393 47.3453L450.063 41.9453H448.653L451.713 48.9453H452.993L456.043 41.9453H454.743ZM456.581 48.9453H457.881V41.9453H456.581V48.9453ZM462.815 49.0453C463.965 49.0453 464.945 48.6353 465.595 47.8753L464.755 47.0753C464.245 47.6353 463.615 47.9053 462.885 47.9053C461.435 47.9053 460.385 46.8853 460.385 45.4453C460.385 44.0053 461.435 42.9853 462.885 42.9853C463.615 42.9853 464.245 43.2553 464.755 43.8053L465.595 43.0153C464.945 42.2553 463.965 41.8453 462.825 41.8453C460.675 41.8453 459.075 43.3553 459.075 45.4453C459.075 47.5353 460.675 49.0453 462.815 49.0453ZM467.94 47.8553V45.9253H471.32V44.8553H467.94V43.0353H471.75V41.9453H466.64V48.9453H471.89V47.8553H467.94ZM475.31 49.0453C477.23 49.0453 478.14 48.0853 478.14 46.9653C478.14 44.3953 473.99 45.3653 473.99 43.8753C473.99 43.3453 474.43 42.9253 475.51 42.9253C476.12 42.9253 476.81 43.1053 477.44 43.4753L477.85 42.4653C477.24 42.0653 476.36 41.8453 475.52 41.8453C473.6 41.8453 472.7 42.8053 472.7 43.9353C472.7 46.5353 476.86 45.5453 476.86 47.0553C476.86 47.5753 476.4 47.9653 475.31 47.9653C474.45 47.9653 473.56 47.6453 473 47.1953L472.55 48.2053C473.13 48.7053 474.22 49.0453 475.31 49.0453Z" fill="black"/>
<g clip-path="url(#clip0)">
<path d="M201.384 3.94531H169.086C166.835 3.94531 165.034 5.74531 165.034 7.99531V44.8953C165.034 47.1453 166.835 48.9453 169.086 48.9453H201.384C203.635 48.9453 205.436 47.1453 205.436 44.8953V7.99531C205.436 5.74531 203.635 3.94531 201.384 3.94531ZM203.185 44.8953C203.185 45.9078 202.397 46.6953 201.384 46.6953H169.086C168.073 46.6953 167.285 45.9078 167.285 44.8953V7.99531C167.285 6.98281 168.073 6.19531 169.086 6.19531H201.384C202.397 6.19531 203.185 6.98281 203.185 7.99531V44.8953ZM175.163 42.1953L180.227 37.6953L175.163 33.1953V42.1953ZM193.394 23.9703C192.494 23.0703 190.806 21.9453 187.992 21.9453C184.954 21.9453 181.802 22.7328 179.552 23.5203V10.6953H175.163V30.1578L178.314 28.6953C178.314 28.6953 183.491 26.3328 187.992 26.3328C190.243 26.3328 190.806 27.5703 190.806 28.6953V42.1953H195.307V28.6953C195.307 28.3578 195.307 25.8828 193.394 23.9703ZM187.429 18.0078H191.931C193.957 15.6453 194.97 13.2828 195.307 10.6953H190.806C190.355 13.2828 189.23 15.6453 187.429 18.0078ZM311.785 28.5828V18.5703H316.287V28.4703C316.287 30.7203 317.074 31.8453 318.875 31.8453C320.676 31.8453 321.351 30.8328 321.351 28.4703V18.5703H325.74V28.5828C325.74 32.9703 323.602 35.5578 318.762 35.5578C313.923 35.5578 311.785 32.9703 311.785 28.5828V28.5828ZM292.878 18.6828H297.38V24.7578L301.994 18.6828H307.171L301.544 25.2078L307.621 35.3328H302.557L298.618 28.6953L297.38 30.1578V35.3328H292.878V18.6828V18.6828ZM271.496 26.8953C271.496 20.8203 275.66 18.2328 279.711 18.2328C283.763 18.2328 287.927 20.8203 287.927 26.8953C287.927 32.9703 283.763 35.5578 279.711 35.5578C275.66 35.5578 271.496 33.0828 271.496 26.8953ZM283.313 26.8953C283.313 23.8578 281.962 21.9453 279.599 21.9453C277.236 21.9453 275.885 23.8578 275.885 26.8953C275.885 29.9328 277.236 31.9578 279.599 31.9578C281.962 31.9578 283.313 30.0453 283.313 26.8953ZM253.377 18.6828H259.905C264.181 18.6828 266.769 20.1453 266.769 24.0828C266.769 26.6703 265.644 28.2453 263.506 28.9203L266.995 35.3328H262.268L259.004 29.5953H257.766V35.3328H253.377V18.6828V18.6828ZM259.792 26.1078C261.593 26.1078 262.493 25.5453 262.493 24.1953C262.493 22.8453 261.705 22.2828 259.792 22.2828H257.879V26.1078H259.792ZM236.159 18.6828H248.088V22.3953H240.66V25.0953H245.95V28.5828H240.66V31.6203H248.426V35.2203H236.159V18.6828V18.6828ZM215.789 18.6828H220.291V24.8703H225.805V18.6828H230.307V35.3328H225.805V28.5828H220.291V35.3328H215.789V18.6828V18.6828Z" fill="#430098"/>
</g>
<g clip-path="url(#clip1)">
<path d="M35.9374 83.9931C46.6697 83.3302 55.1817 90.3999 55.8118 101.348C56.523 113.803 46.7448 126.57 33.9597 129.873C29.5362 131.005 25.3958 130.876 21.7992 129.726C21.5388 124.81 22.4814 119.688 24.5573 116.109C27.94 110.277 33.0632 110.776 35.9952 117.218C37.0995 119.641 37.7357 122.563 37.9207 125.572C38.9441 125.021 39.9388 124.399 40.8871 123.73C37.7182 115.927 36.3016 106.687 47.6584 90.4588C44.3566 87.7775 39.2795 86.4751 32.9419 87.3023C33.8787 86.1934 34.8733 85.0845 35.9372 83.9933H35.9374V83.9931Z" fill="black"/>
<path d="M33.3233 97.2057C32.4038 99.1654 32.774 100.779 34.1445 100.808C35.5092 100.832 37.3653 99.2593 38.2845 97.2939C39.2042 95.3342 38.8397 93.7211 37.4694 93.6916C36.0989 93.6682 34.2427 95.2405 33.3233 97.2059V97.2057ZM32.3925 91.6441C22.7935 103.583 18.7168 119.09 19.2894 132.918C13.6224 130.618 9.47079 125.074 9.03695 118.045V117.963C8.32002 105.496 18.1212 92.7236 30.9235 89.4322C35.8965 88.159 40.5919 88.4994 44.5124 90.1244C43.6973 92.4831 42.3324 95.1818 40.9793 97.2177C38.1459 101.489 34.0751 104.182 31.8892 103.237C29.7092 102.287 30.2354 98.0507 33.0747 93.7738C33.7281 92.7882 34.4509 91.8846 35.2026 91.0925C34.2774 91.2216 33.3407 91.4036 32.3923 91.6439L32.3925 91.6441Z" fill="#B80017"/>
</g>
<path d="M8.93777 145.945L7.32777 143.645C8.27777 143.275 8.81777 142.495 8.81777 141.435C8.81777 139.885 7.67777 138.945 5.83777 138.945H2.95777V145.945H4.25777V143.905H5.83777C5.92777 143.905 6.01777 143.905 6.10777 143.895L7.53777 145.945H8.93777ZM7.50777 141.435C7.50777 142.315 6.91777 142.835 5.77777 142.835H4.25777V140.045H5.77777C6.91777 140.045 7.50777 140.555 7.50777 141.435ZM15.3122 145.945H16.6722L13.5122 138.945H12.2322L9.08223 145.945H10.4222L11.1122 144.325H14.6122L15.3122 145.945ZM11.5522 143.305L12.8622 140.245L14.1822 143.305H11.5522ZM20.5048 146.045C21.6548 146.045 22.6348 145.635 23.2848 144.875L22.4448 144.075C21.9348 144.635 21.3048 144.905 20.5748 144.905C19.1248 144.905 18.0748 143.885 18.0748 142.445C18.0748 141.005 19.1248 139.985 20.5748 139.985C21.3048 139.985 21.9348 140.255 22.4448 140.805L23.2848 140.015C22.6348 139.255 21.6548 138.845 20.5148 138.845C18.3648 138.845 16.7648 140.355 16.7648 142.445C16.7648 144.535 18.3648 146.045 20.5048 146.045ZM29.2104 145.945H30.7304L27.6104 142.075L30.5504 138.945H29.0904L25.6304 142.535V138.945H24.3304V145.945H25.6304V144.155L26.7404 143.015L29.2104 145.945ZM33.4391 146.045C35.3591 146.045 36.2691 145.085 36.2691 143.965C36.2691 141.395 32.1191 142.365 32.1191 140.875C32.1191 140.345 32.5591 139.925 33.6391 139.925C34.2491 139.925 34.9391 140.105 35.5691 140.475L35.9791 139.465C35.3691 139.065 34.4891 138.845 33.6491 138.845C31.7291 138.845 30.8291 139.805 30.8291 140.935C30.8291 143.535 34.9891 142.545 34.9891 144.055C34.9891 144.575 34.5291 144.965 33.4391 144.965C32.5791 144.965 31.6891 144.645 31.1291 144.195L30.6791 145.205C31.2591 145.705 32.3491 146.045 33.4391 146.045ZM40.2382 138.945H37.3582V145.945H38.6582V143.925H40.2382C42.0782 143.925 43.2182 142.975 43.2182 141.435C43.2182 139.885 42.0782 138.945 40.2382 138.945ZM40.1782 142.825H38.6582V140.045H40.1782C41.3182 140.045 41.9082 140.555 41.9082 141.435C41.9082 142.315 41.3182 142.825 40.1782 142.825ZM49.2048 145.945H50.5648L47.4048 138.945H46.1248L42.9748 145.945H44.3148L45.0048 144.325H48.5048L49.2048 145.945ZM45.4448 143.305L46.7548 140.245L48.0748 143.305H45.4448ZM54.3974 146.045C55.5474 146.045 56.5274 145.635 57.1774 144.875L56.3374 144.075C55.8274 144.635 55.1974 144.905 54.4674 144.905C53.0174 144.905 51.9674 143.885 51.9674 142.445C51.9674 141.005 53.0174 139.985 54.4674 139.985C55.1974 139.985 55.8274 140.255 56.3374 140.805L57.1774 140.015C56.5274 139.255 55.5474 138.845 54.4074 138.845C52.2574 138.845 50.6574 140.355 50.6574 142.445C50.6574 144.535 52.2574 146.045 54.3974 146.045ZM59.523 144.855V142.925H62.903V141.855H59.523V140.035H63.333V138.945H58.223V145.945H63.473V144.855H59.523Z" fill="black"/>
<path d="M216.017 145.945H219.077C221.347 145.945 222.897 144.545 222.897 142.445C222.897 140.345 221.347 138.945 219.077 138.945H216.017V145.945ZM217.317 144.845V140.045H219.017C220.577 140.045 221.587 140.995 221.587 142.445C221.587 143.895 220.577 144.845 219.017 144.845H217.317ZM224.079 145.945H225.379V138.945H224.079V145.945ZM231.852 144.545C231.402 144.805 230.912 144.905 230.412 144.905C228.932 144.905 227.882 143.865 227.882 142.445C227.882 140.995 228.932 139.985 230.422 139.985C231.172 139.985 231.802 140.235 232.352 140.785L233.172 139.985C232.512 139.235 231.532 138.845 230.362 138.845C228.172 138.845 226.572 140.355 226.572 142.445C226.572 144.535 228.172 146.045 230.342 146.045C231.332 146.045 232.352 145.745 233.082 145.155V142.365H231.852V144.545ZM234.597 145.945H235.897V138.945H234.597V145.945ZM239.01 145.945H240.31V140.045H242.63V138.945H236.69V140.045H239.01V145.945ZM248.294 145.945H249.654L246.494 138.945H245.214L242.064 145.945H243.404L244.094 144.325H247.594L248.294 145.945ZM244.534 143.305L245.844 140.245L247.164 143.305H244.534ZM250.344 145.945H255.304V144.845H251.644V138.945H250.344V145.945ZM261.964 146.045C264.134 146.045 265.734 144.525 265.734 142.445C265.734 140.365 264.134 138.845 261.964 138.845C259.794 138.845 258.194 140.375 258.194 142.445C258.194 144.515 259.794 146.045 261.964 146.045ZM261.964 144.905C260.554 144.905 259.504 143.875 259.504 142.445C259.504 141.015 260.554 139.985 261.964 139.985C263.374 139.985 264.424 141.015 264.424 142.445C264.424 143.875 263.374 144.905 261.964 144.905ZM270.152 146.045C271.302 146.045 272.282 145.635 272.932 144.875L272.092 144.075C271.582 144.635 270.952 144.905 270.222 144.905C268.772 144.905 267.722 143.885 267.722 142.445C267.722 141.005 268.772 139.985 270.222 139.985C270.952 139.985 271.582 140.255 272.092 140.805L272.932 140.015C272.282 139.255 271.302 138.845 270.162 138.845C268.012 138.845 266.412 140.355 266.412 142.445C266.412 144.535 268.012 146.045 270.152 146.045ZM275.278 144.855V142.925H278.658V141.855H275.278V140.035H279.088V138.945H273.978V145.945H279.228V144.855H275.278ZM285.717 145.945H287.077L283.917 138.945H282.637L279.487 145.945H280.827L281.517 144.325H285.017L285.717 145.945ZM281.957 143.305L283.267 140.245L284.587 143.305H281.957ZM292.697 138.945V143.685L288.837 138.945H287.767V145.945H289.057V141.205L292.917 145.945H293.987V138.945H292.697Z" fill="#0080FF"/>
<path d="M255.503 130.945V121.832C265.15 121.832 272.638 112.265 268.934 102.112C267.575 98.3817 264.564 95.3705 260.806 94.0115C250.653 90.3341 241.087 97.7955 241.087 107.442H232C232 92.0662 246.869 80.0747 262.991 85.1111C270.026 87.3229 275.649 92.9189 277.834 99.9539C282.871 116.076 270.879 130.945 255.503 130.945Z" fill="#0080FF"/>
<path fill-rule="evenodd" clip-rule="evenodd" d="M256 121.575H246.862V111.945H256V121.575ZM246.862 128.945H239.868V121.575H246.862V128.945ZM239.868 121.575H234V115.39H239.868V121.575Z" fill="#0080FF"/>
<defs>
<clipPath id="clip0">
<rect width="161" height="45" fill="white" transform="translate(165 3.94531)"/>
</clipPath>
<clipPath id="clip1">
<rect width="47" height="49" fill="white" transform="translate(9 83.9453)"/>
</clipPath>
</defs>
</svg>
