<svg width="550" height="82" viewBox="0 0 550 82" fill="none" xmlns="http://www.w3.org/2000/svg">
<g clip-path="url(#clip0)">
<path fill-rule="evenodd" clip-rule="evenodd" d="M14.5864 47.4959C14.5864 47.4959 12.2408 48.8608 16.2574 49.3219C21.1249 49.8777 23.6111 49.7977 28.9733 48.7833C28.9733 48.7833 30.385 49.6673 32.3556 50.432C20.3317 55.5842 5.14337 50.1339 14.5864 47.4959ZM13.1166 40.7725C13.1166 40.7725 10.4852 42.7202 14.5054 43.1359C19.705 43.6729 23.8093 43.7167 30.9159 42.3493C30.9159 42.3493 31.8971 43.3453 33.4413 43.8894C18.9057 48.1409 2.71677 44.2241 13.1166 40.7725Z" fill="#3174B9"/>
<path fill-rule="evenodd" clip-rule="evenodd" d="M25.5019 29.3655C28.466 32.7774 24.7249 35.8459 24.7249 35.8459C24.7249 35.8459 32.2477 31.9633 28.7925 27.0994C25.5666 22.5656 23.0921 20.3133 36.4865 12.5459C36.486 12.5454 15.4608 17.7949 25.5019 29.3655Z" fill="#EE282F"/>
<path fill-rule="evenodd" clip-rule="evenodd" d="M41.4041 52.4699C41.4041 52.4699 43.1404 53.9015 39.4916 55.0086C32.5531 57.1102 10.6078 57.7439 4.51198 55.0922C2.32228 54.1384 6.43064 52.8164 7.72316 52.5372C9.07121 52.2458 9.84051 52.2987 9.84051 52.2987C7.40372 50.5829 -5.91022 55.6689 3.07884 57.128C27.5904 61.1024 47.7613 55.3387 41.4041 52.4699ZM15.7152 33.8061C15.7152 33.8061 4.55375 36.4578 11.7632 37.4218C14.8083 37.8288 20.8741 37.7351 26.5287 37.2608C31.1485 36.8731 35.7857 36.0436 35.7857 36.0436C35.7857 36.0436 34.1579 36.7421 32.9785 37.5461C21.6423 40.528 -0.253588 39.1392 6.05057 36.091C11.3806 33.5126 15.7152 33.8061 15.7152 33.8061ZM35.7393 44.9976C47.262 39.0113 41.9345 33.2574 38.2148 34.0328C37.3054 34.2228 36.8974 34.3869 36.8974 34.3869C36.8974 34.3869 37.2367 33.856 37.8817 33.6277C45.2389 31.0422 50.896 41.2555 35.5096 45.3002C35.5091 45.3002 35.6864 45.1402 35.7393 44.9976Z" fill="#3174B9"/>
<path fill-rule="evenodd" clip-rule="evenodd" d="M28.7925 0C28.7925 0 35.1726 6.38415 22.7395 16.198C12.7687 24.0734 20.4663 28.5623 22.7365 33.6932C16.9153 28.4421 12.6454 23.8187 15.5097 19.5167C19.7148 13.2019 31.3669 10.1394 28.7925 0Z" fill="#EE282F"/>
<path fill-rule="evenodd" clip-rule="evenodd" d="M16.8489 61.2232C27.9074 61.9304 44.8926 60.8305 45.2956 55.5967C45.2956 55.5967 44.5222 57.5806 36.1552 59.1543C26.7153 60.9313 15.0703 60.7245 8.16602 59.5848C8.16602 59.5848 9.58081 60.7556 16.8489 61.2232Z" fill="#3174B9"/>
<path fill-rule="evenodd" clip-rule="evenodd" d="M117.298 31.0349H116.849V30.7801H118.059V31.0349H117.611V32.3078H117.298V31.0349ZM119.712 31.0983H119.706L119.261 32.3071H119.056L118.613 31.0983H118.608V32.3071H118.31V30.7794H118.747L119.157 31.8601L119.568 30.7794H120V32.3071H119.712V31.0983ZM77.6411 45.3792C76.2509 46.6011 74.7812 47.2885 73.4615 47.2885C71.5816 47.2885 70.5615 46.143 70.5615 44.3101C70.5615 42.3257 71.6536 40.8737 76.0247 40.8737H77.6405V45.3792H77.6411ZM81.4784 49.7696V36.1782C81.4784 32.7046 79.5251 30.4123 74.8165 30.4123C72.0692 30.4123 69.6609 31.1004 67.7029 31.9772L68.2666 34.3846C69.809 33.8101 71.803 33.2777 73.7604 33.2777C76.473 33.2777 77.6405 34.3846 77.6405 36.6762V38.3947H76.2848C69.6955 38.3947 66.7221 40.9874 66.7221 44.8853C66.7221 48.2439 68.6815 50.1532 72.3701 50.1532C74.7411 50.1532 76.5124 49.1607 78.1661 47.708L78.467 49.7696H81.4784ZM94.2855 49.7696H89.5008L83.7394 30.758H87.919L91.4948 42.4407L92.2908 45.9509C94.0947 40.8737 95.3749 35.7194 96.0153 30.758H100.079C98.9915 37.0178 97.0314 43.8907 94.2855 49.7696ZM112.648 45.3792C111.254 46.6011 109.784 47.2885 108.467 47.2885C106.587 47.2885 105.569 46.143 105.569 44.3101C105.569 42.3257 106.661 40.8737 111.03 40.8737H112.648V45.3792ZM116.487 49.7696V36.1782C116.487 32.7046 114.527 30.4123 109.824 30.4123C107.074 30.4123 104.666 31.1004 102.708 31.9772L103.272 34.3846C104.814 33.8101 106.812 33.2777 108.77 33.2777C111.479 33.2777 112.647 34.3846 112.647 36.6762V38.3947H111.292C104.702 38.3947 101.731 40.9874 101.731 44.8853C101.731 48.2439 103.686 50.1532 107.375 50.1532C109.748 50.1532 111.517 49.1607 113.175 47.708L113.477 49.7696H116.487ZM62.5147 53C61.4212 54.6208 59.6527 55.904 57.7191 56.6279L55.8242 54.3645C57.2973 53.5979 58.5592 52.3601 59.1467 51.2085C59.6527 50.1821 59.8639 48.8624 59.8639 45.7036V23.9961H63.9423V45.404C63.9423 49.629 63.6095 51.3366 62.5147 53Z" fill="#EE282F"/>
<path d="M211.364 29.0069L201.849 34.275C201.677 34.3681 201.532 34.5057 201.431 34.6736C201.33 34.8416 201.275 35.0336 201.273 35.2297V45.7738C201.273 46.1677 201.493 46.5306 201.849 46.7285L211.364 52.0044C211.721 52.1926 212.159 52.1926 212.516 52.0044L222.031 46.7265C222.203 46.6337 222.347 46.4963 222.449 46.3288C222.55 46.1612 222.604 45.9696 222.607 45.7738V35.2297C222.605 35.0336 222.55 34.8416 222.449 34.6736C222.348 34.5057 222.203 34.3681 222.031 34.275L212.516 29.0069C212.339 28.9116 212.141 28.8622 211.94 28.8633C211.739 28.8622 211.541 28.9116 211.364 29.0069Z" fill="#388E3C"/>
<path d="M260.329 38.4989L258.744 39.3779C258.684 39.407 258.653 39.4691 258.653 39.537V41.295C258.653 41.3629 258.684 41.425 258.744 41.4541L260.327 42.3331C260.387 42.3641 260.463 42.3641 260.525 42.3331L262.107 41.4541C262.137 41.4395 262.162 41.4169 262.18 41.3887C262.197 41.3606 262.206 41.3281 262.206 41.295V39.537C262.207 39.5041 262.198 39.4717 262.18 39.4436C262.163 39.4155 262.139 39.3927 262.109 39.3779L260.525 38.4989C260.494 38.4839 260.46 38.476 260.426 38.4756C260.392 38.4762 260.359 38.4842 260.329 38.4989Z" fill="#388E3C"/>
<path d="M247.333 17.8347L242.703 15.2501C242.632 15.2085 242.55 15.1872 242.468 15.1885C242.385 15.1899 242.304 15.2139 242.234 15.2578C242.163 15.2983 242.104 15.3568 242.063 15.4273C242.022 15.4978 242 15.5778 241.999 15.6595V31.2893L237.727 28.9162C237.55 28.821 237.352 28.7716 237.151 28.7727C236.95 28.7716 236.752 28.821 236.575 28.9162L227.06 34.1844C226.888 34.2774 226.743 34.4151 226.642 34.583C226.541 34.7509 226.486 34.943 226.484 35.1391V45.6832C226.484 46.0771 226.704 46.4399 227.06 46.6378L236.575 51.9137C236.932 52.102 237.37 52.102 237.727 51.9137L247.242 46.6378C247.414 46.5448 247.559 46.4072 247.66 46.2392C247.761 46.0713 247.816 45.8793 247.818 45.6832V18.6613C247.817 18.493 247.771 18.328 247.686 18.1829C247.601 18.0377 247.479 17.9176 247.333 17.8347ZM241.742 43.2421L237.417 45.6366C237.337 45.6815 237.247 45.705 237.155 45.705C237.063 45.705 236.973 45.6815 236.893 45.6366L232.568 43.2421C232.489 43.2006 232.423 43.1385 232.376 43.0623C232.329 42.9862 232.304 42.8988 232.303 42.8094V38.0206C232.303 37.8382 232.399 37.6713 232.568 37.5801L236.893 35.1856H236.885C236.967 35.1427 237.059 35.1213 237.151 35.1236C237.242 35.1236 237.333 35.1468 237.417 35.1856L241.734 37.5801C241.814 37.6224 241.881 37.6858 241.928 37.7634C241.975 37.841 241.999 37.9299 241.999 38.0206V42.8094C241.998 42.8979 241.974 42.9844 241.928 43.0603C241.883 43.1363 241.819 43.199 241.742 43.2421Z" fill="#37474F"/>
<path d="M211.364 29.0069L201.273 45.7719C201.273 46.1677 201.493 46.5306 201.849 46.7285L211.364 52.0044C211.721 52.1926 212.159 52.1926 212.516 52.0044L222.607 35.2297C222.605 35.0336 222.55 34.8416 222.449 34.6736C222.348 34.5057 222.203 34.3681 222.031 34.275L212.516 29.0069C212.339 28.9116 212.141 28.8622 211.94 28.8633C211.739 28.8622 211.541 28.9116 211.364 29.0069Z" fill="#2E7D32"/>
<path d="M211.364 29.0069L201.849 34.275C201.677 34.3681 201.532 34.5057 201.431 34.6736C201.33 34.8416 201.275 35.0336 201.273 35.2297L211.364 52.0044C211.721 52.1926 212.159 52.1926 212.516 52.0044L222.031 46.7265C222.203 46.6337 222.347 46.4963 222.449 46.3288C222.55 46.1612 222.604 45.9696 222.607 45.7738L212.516 29.0088C212.339 28.9129 212.141 28.8628 211.94 28.8633C211.739 28.8622 211.541 28.9116 211.364 29.0069Z" fill="#4CAF50"/>
<path d="M270.515 34.1871L261 28.917C260.823 28.8218 260.625 28.7724 260.424 28.7735C260.223 28.7724 260.025 28.8218 259.848 28.917L250.334 34.1852C250.16 34.2822 250.014 34.424 249.913 34.5959C249.812 34.7678 249.758 34.9636 249.758 35.1632V45.6607C249.758 46.0701 249.977 46.4407 250.334 46.6386L259.848 51.9145C260.213 52.1105 260.644 52.1105 261 51.9145L265.395 49.4813C265.797 49.262 265.789 48.6857 265.387 48.4587L255.842 43.2507C255.762 43.2061 255.696 43.1415 255.649 43.0631C255.602 42.9848 255.577 42.8956 255.576 42.8044V38.0214C255.577 37.9337 255.6 37.8477 255.644 37.7718C255.688 37.6959 255.75 37.6328 255.826 37.5886L260.159 35.1942C260.24 35.1489 260.331 35.1249 260.424 35.1244C260.515 35.124 260.604 35.1481 260.682 35.1942L265.015 37.5964C265.092 37.6372 265.157 37.6983 265.203 37.7731C265.248 37.848 265.272 37.9338 265.273 38.0214V41.9235C265.273 42.0903 265.364 42.2495 265.508 42.3329C265.651 42.4105 265.826 42.4105 265.977 42.3251L270.629 39.628C270.77 39.5439 270.886 39.4251 270.967 39.283C271.047 39.1409 271.09 38.9804 271.091 38.8169V35.169C271.091 34.9685 271.038 34.7717 270.937 34.5987C270.836 34.4258 270.69 34.283 270.515 34.1852V34.1871Z" fill="#37474F"/>
<path d="M198.757 34.1871L189.243 28.917C189.066 28.8218 188.868 28.7724 188.667 28.7735C188.466 28.7724 188.268 28.8218 188.091 28.917L178.576 34.1871C178.402 34.2841 178.256 34.4259 178.155 34.5978C178.054 34.7697 178 34.9656 178 35.1651V49.6501C178 49.817 178.091 49.9761 178.235 50.0576C178.306 50.0984 178.387 50.1199 178.469 50.1199C178.552 50.1199 178.633 50.0984 178.704 50.0576L183.357 47.3527C183.498 47.2696 183.615 47.1507 183.696 47.008C183.777 46.8653 183.819 46.7038 183.818 46.5397V38.0214C183.818 37.839 183.915 37.6721 184.068 37.5886L188.401 35.1942C188.482 35.1495 188.574 35.1261 188.667 35.1261C188.759 35.1261 188.851 35.1495 188.932 35.1942L193.265 37.5886C193.341 37.6328 193.403 37.6959 193.447 37.7718C193.491 37.8477 193.515 37.9337 193.515 38.0214V46.5397C193.515 46.8734 193.69 47.1839 193.977 47.3507L198.629 50.0576C198.701 50.0984 198.782 50.1199 198.864 50.1199C198.946 50.1199 199.027 50.0984 199.099 50.0576C199.17 50.0155 199.229 49.9557 199.27 49.8839C199.311 49.8121 199.333 49.7309 199.333 49.6482V35.1709C199.334 34.9701 199.281 34.7729 199.179 34.5995C199.078 34.4262 198.932 34.2832 198.757 34.1852V34.1871Z" fill="#37474F"/>
<path d="M527.83 20.3226C526.175 20.3303 524.595 20.4715 523.204 20.7177C519.107 21.4419 518.363 22.9577 518.363 25.753V29.4448H528.045V30.6754H518.363H514.73C511.916 30.6754 509.452 32.3675 508.682 35.5864C507.793 39.2761 507.753 41.5785 508.682 45.4311C509.37 48.2989 511.013 50.3422 513.827 50.3422H517.156V45.9166C517.156 42.7194 519.921 39.8991 523.204 39.8991H532.874C535.566 39.8991 537.715 37.6816 537.715 34.9768V25.753C537.715 23.1279 535.502 21.1559 532.874 20.7177C531.211 20.4407 529.486 20.3149 527.83 20.3226ZM522.595 23.2918C523.595 23.2918 524.411 24.1223 524.411 25.1433C524.411 26.1608 523.595 26.9836 522.595 26.9836C521.591 26.9836 520.778 26.1608 520.778 25.1433C520.778 24.1223 521.591 23.2918 522.595 23.2918Z" fill="url(#paint0_linear)"/>
<path d="M538.919 30.6758V34.9772C538.919 38.312 536.093 41.1189 532.871 41.1189H523.2C520.551 41.1189 518.359 43.3871 518.359 46.0412V55.265C518.359 57.8902 520.641 59.4342 523.2 60.1874C526.265 61.089 529.204 61.2519 532.871 60.1874C535.308 59.4813 537.711 58.0603 537.711 55.265V51.5732H528.041V50.3426H537.711H542.552C545.366 50.3426 546.414 48.379 547.393 45.4316C548.404 42.3973 548.361 39.4793 547.393 35.5869C546.698 32.7843 545.37 30.6758 542.552 30.6758H538.919ZM533.48 54.0344C534.484 54.0344 535.297 54.8572 535.297 55.8747C535.297 56.8957 534.484 57.7262 533.48 57.7262C532.48 57.7262 531.663 56.8957 531.663 55.8747C531.663 54.8572 532.48 54.0344 533.48 54.0344Z" fill="url(#paint1_linear)"/>
<path d="M510.172 71H507.292V78H508.592V75.98H510.172C512.012 75.98 513.152 75.03 513.152 73.49C513.152 71.94 512.012 71 510.172 71ZM510.112 74.88H508.592V72.1H510.112C511.252 72.1 511.842 72.61 511.842 73.49C511.842 74.37 511.252 74.88 510.112 74.88ZM520.01 71H518.73L516.66 74.41L514.61 71H513.22L515.97 75.55V78H517.27V75.53L520.01 71ZM521.983 78H523.283V72.1H525.603V71H519.663V72.1H521.983V78ZM531.299 71V73.89H527.679V71H526.379V78H527.679V75H531.299V78H532.599V71H531.299ZM537.545 78.1C539.715 78.1 541.315 76.58 541.315 74.5C541.315 72.42 539.715 70.9 537.545 70.9C535.375 70.9 533.775 72.43 533.775 74.5C533.775 76.57 535.375 78.1 537.545 78.1ZM537.545 76.96C536.135 76.96 535.085 75.93 535.085 74.5C535.085 73.07 536.135 72.04 537.545 72.04C538.955 72.04 540.005 73.07 540.005 74.5C540.005 75.93 538.955 76.96 537.545 76.96ZM547.423 71V75.74L543.563 71H542.493V78H543.783V73.26L547.643 78H548.713V71H547.423Z" fill="#6D6B6C"/>
<path d="M374.738 25.668C374.738 25.5682 374.71 25.4968 374.654 25.4502C374.592 25.4 374.483 25.3732 374.333 25.3732H374.117V25.9666H374.378C374.619 25.9666 374.738 25.8668 374.738 25.668ZM375.075 26.9052H374.778L374.588 26.4877C374.492 26.2785 374.389 26.1739 374.277 26.1739H374.117V26.9052H373.872V25.1649H374.362C374.581 25.1649 374.745 25.2121 374.857 25.3105C374.952 25.3951 375 25.5035 375 25.6386C375 25.7584 374.961 25.8592 374.883 25.9428C374.807 26.0275 374.697 26.0845 374.557 26.114V26.1216C374.654 26.1444 374.751 26.2509 374.846 26.443L375.075 26.9061V26.9052ZM375.618 26.0522C375.618 25.7098 375.501 25.4208 375.268 25.1916C375.033 24.9624 374.747 24.8474 374.41 24.8474C374.062 24.8474 373.773 24.9624 373.543 25.1935C373.313 25.4255 373.199 25.7127 373.199 26.0522C373.199 26.3993 373.318 26.6893 373.554 26.9204C373.788 27.1514 374.074 27.2656 374.41 27.2656C374.745 27.2656 375.03 27.1505 375.266 26.9165C375.501 26.6864 375.618 26.3974 375.618 26.0522ZM375.783 26.0446C375.783 26.4289 375.651 26.7512 375.385 27.0108C375.119 27.2723 374.793 27.4026 374.403 27.4026C374.011 27.4026 373.685 27.2742 373.426 27.0222C373.167 26.7665 373.038 26.445 373.038 26.0551C373.038 25.6738 373.169 25.3533 373.432 25.09C373.695 24.8275 374.023 24.6963 374.415 24.6963C374.799 24.6963 375.121 24.8218 375.382 25.0719C375.65 25.3286 375.783 25.6519 375.783 26.0446Z" fill="black"/>
<path d="M338.512 30.897H337.667V26.0701C337.667 25.6888 337.692 25.2247 337.737 24.677H337.718C337.639 24.9974 337.566 25.2295 337.503 25.3731L335.046 30.897H334.634L332.173 25.413C332.103 25.2599 332.031 25.0136 331.957 24.677H331.939C331.965 24.9651 331.98 25.432 331.98 26.0796V30.897H331.165V23.709H332.28L334.49 28.7213C334.656 29.0988 334.764 29.386 334.816 29.5819H334.851C334.995 29.1892 335.11 28.8943 335.196 28.7004L337.454 23.709H338.512V30.897Z" fill="black"/>
<path d="M341.112 30.8965H340.291V25.7633H341.112V30.8965ZM341.254 23.9233C341.254 24.0745 341.201 24.2009 341.095 24.3046C340.991 24.4082 340.862 24.4606 340.712 24.4606C340.565 24.4606 340.437 24.4104 340.333 24.3103C340.228 24.2095 340.176 24.0811 340.176 23.9233C340.176 23.7749 340.228 23.6485 340.333 23.5458C340.437 23.4431 340.565 23.3936 340.712 23.3936C340.862 23.3936 340.991 23.4431 341.095 23.5458C341.201 23.6485 341.254 23.7749 341.254 23.9233Z" fill="black"/>
<path d="M346.245 30.6596C345.851 30.9011 345.38 31.0209 344.836 31.0209C344.098 31.0209 343.505 30.7766 343.051 30.2887C342.611 29.8152 342.389 29.2037 342.389 28.4544C342.389 27.6137 342.63 26.9329 343.116 26.4156C343.599 25.8973 344.249 25.6387 345.067 25.6387C345.513 25.6387 345.91 25.7261 346.257 25.8992V26.7427C345.873 26.4736 345.467 26.3404 345.031 26.3404C344.507 26.3404 344.081 26.523 343.75 26.8873C343.406 27.26 343.232 27.7583 343.232 28.3802C343.232 28.9774 343.391 29.45 343.708 29.799C344.025 30.1461 344.447 30.3201 344.98 30.3201C345.43 30.3201 345.851 30.1727 346.245 29.8789V30.6596Z" fill="black"/>
<path d="M350.174 26.5962C350.029 26.485 349.821 26.4308 349.545 26.4308C349.211 26.4308 348.93 26.5801 348.702 26.8815C348.444 27.2182 348.315 27.6841 348.315 28.2794V30.8964H347.492V25.7632H348.315V26.8217H348.335C348.456 26.447 348.643 26.1588 348.892 25.9544C349.126 25.768 349.39 25.6738 349.68 25.6738C349.9 25.6738 350.063 25.6974 350.174 25.7438V26.5959V26.5962Z" fill="black"/>
<path d="M354.763 28.3396C354.763 27.6826 354.614 27.1805 354.317 26.8362C354.028 26.5053 353.625 26.3399 353.106 26.3399C352.594 26.3399 352.183 26.5072 351.876 26.842C351.552 27.1995 351.39 27.7044 351.39 28.3597C351.39 28.974 351.544 29.456 351.856 29.8003C352.165 30.1464 352.583 30.3195 353.106 30.3195C353.647 30.3195 354.062 30.1436 354.346 29.7937C354.624 29.4513 354.763 28.9672 354.763 28.3396ZM355.607 28.3107C355.607 29.1285 355.376 29.7857 354.914 30.2782C354.451 30.7727 353.828 31.02 353.045 31.02C352.273 31.02 351.658 30.7727 351.208 30.2782C350.766 29.8018 350.544 29.1723 350.544 28.3897C350.544 27.4967 350.795 26.8082 351.298 26.3195C351.763 25.8659 352.385 25.6377 353.165 25.6377C353.932 25.6377 354.531 25.8763 354.963 26.349C355.391 26.8245 355.607 27.4787 355.607 28.3107Z" fill="black"/>
<path d="M359.69 29.5232C359.69 29.9435 359.533 30.2915 359.218 30.5692C358.874 30.8697 358.401 31.0199 357.806 31.0199C357.32 31.0199 356.893 30.9182 356.53 30.7109V29.8275C356.934 30.1546 357.379 30.3192 357.867 30.3192C358.519 30.3192 358.846 30.0795 358.846 29.6021C358.846 29.4015 358.774 29.2351 358.63 29.1067C358.485 28.9755 358.204 28.8186 357.786 28.635C357.355 28.4467 357.048 28.2537 356.867 28.0531C356.65 27.8153 356.54 27.5063 356.54 27.1259C356.54 26.6999 356.711 26.3452 357.048 26.0628C357.386 25.7794 357.821 25.6377 358.354 25.6377C358.763 25.6377 359.129 25.7176 359.454 25.8783V26.7056C359.115 26.4612 358.727 26.3395 358.287 26.3395C358.014 26.3395 357.795 26.4072 357.632 26.5392C357.467 26.6742 357.384 26.8464 357.384 27.0565C357.384 27.2838 357.454 27.4607 357.591 27.5871C357.713 27.7041 357.972 27.8467 358.363 28.0131C358.802 28.1967 359.12 28.3869 359.313 28.5818C359.564 28.8281 359.69 29.1419 359.69 29.5232Z" fill="black"/>
<path d="M364.722 28.3396C364.722 27.6826 364.573 27.1805 364.275 26.8362C363.987 26.5053 363.583 26.3399 363.065 26.3399C362.553 26.3399 362.143 26.5072 361.834 26.842C361.51 27.1995 361.349 27.7044 361.349 28.3597C361.349 28.974 361.503 29.456 361.812 29.8003C362.125 30.1464 362.543 30.3195 363.065 30.3195C363.607 30.3195 364.021 30.1436 364.305 29.7937C364.583 29.4513 364.722 28.9672 364.722 28.3396ZM365.568 28.3107C365.568 29.1285 365.335 29.7857 364.873 30.2782C364.411 30.7727 363.788 31.02 363.005 31.02C362.232 31.02 361.617 30.7727 361.167 30.2782C360.726 29.8018 360.504 29.1723 360.504 28.3897C360.504 27.4967 360.756 26.8082 361.256 26.3195C361.721 25.8659 362.345 25.6377 363.125 25.6377C363.892 25.6377 364.491 25.8763 364.921 26.349C365.35 26.8245 365.568 27.4787 365.568 28.3107Z" fill="black"/>
<path d="M369.196 24.0196C369.034 23.9302 368.854 23.8846 368.649 23.8846C368.073 23.8846 367.787 24.2468 367.787 24.9724V25.7636H368.992V26.4597H367.787V30.8967H366.963V26.4597H366.088V25.7636H366.963V24.9316C366.963 24.3666 367.136 23.9235 367.489 23.604C367.791 23.3263 368.16 23.1885 368.6 23.1885C368.854 23.1885 369.053 23.2189 369.196 23.2779V24.0196Z" fill="black"/>
<path d="M372.446 30.8455C372.252 30.9567 371.992 31.0119 371.672 31.0119C370.775 31.0119 370.326 30.5069 370.326 29.497V26.4607H369.443V25.7637H370.326V24.5113C370.589 24.4286 370.862 24.3382 371.151 24.2451V25.7637H372.446V26.4607H371.151V29.3573C371.151 29.7015 371.207 29.9478 371.325 30.0904C371.444 30.2378 371.639 30.3101 371.913 30.3101C372.118 30.3101 372.295 30.2553 372.446 30.1446V30.8455Z" fill="black"/>
<path d="M327.937 50.9306C327.937 51.3328 327.793 51.6808 327.502 51.9747C327.213 52.2676 326.861 52.415 326.448 52.415C326.045 52.415 325.702 52.2676 325.421 51.9747C325.14 51.6808 325 51.3328 325 50.9306C325 50.517 325.14 50.168 325.421 49.8789C325.702 49.5888 326.045 49.4453 326.448 49.4453C326.861 49.4453 327.213 49.5908 327.502 49.8846C327.793 50.1785 327.937 50.5274 327.937 50.9306Z" fill="black"/>
<path d="M343.687 52.1131L333.939 37.0913C333.711 36.73 333.515 36.3372 333.348 35.9083H333.268C333.338 36.3105 333.373 37.174 333.373 38.4968V52.1131H331.159V33.2666H334.032L343.488 48.0517C343.865 48.6384 344.122 49.0587 344.253 49.3117H344.305C344.217 48.7696 344.172 47.8454 344.172 46.5407V33.2666H346.372V52.1131H343.687Z" fill="black"/>
<path d="M360.563 52.1131H350.554V33.2666H360.129V35.2636H352.766V41.533H359.588V43.531H352.766V50.1153H360.563V52.1131Z" fill="black"/>
<path d="M375.746 35.2634H370.306V52.113H368.093V35.2634H362.642V33.2656H375.746V35.2634Z" fill="black"/>
<path d="M440.357 49.5383H439.728V51.4926H439.472V49.5383H438.841V49.3057H440.357V49.5383Z" fill="black"/>
<path d="M442.929 51.4916H442.674V50.023C442.674 49.9073 442.683 49.7654 442.695 49.5986C442.668 49.6984 442.647 49.7677 442.627 49.8119L441.883 51.4916H441.758L441.011 49.8245C440.99 49.7782 440.968 49.703 440.944 49.5986H440.935C440.944 49.6866 440.947 49.829 440.947 50.0265V51.4916H440.702V49.3047H441.04L441.711 50.8311C441.761 50.9458 441.793 51.0343 441.809 51.0933H441.819C441.864 50.973 441.9 50.8833 441.925 50.8243L442.609 49.3047H442.931V51.4916H442.929Z" fill="black"/>
<path d="M406.278 29.8286C408.82 37.6062 409.783 51.4808 417.217 51.4808C417.783 51.4808 418.355 51.4254 418.928 51.3161C412.171 49.7398 411.37 36.0161 407.247 28.9092C406.924 29.2032 406.603 29.5096 406.278 29.8286Z" fill="url(#paint2_linear)"/>
<path d="M407.252 28.9099C411.375 36.0168 412.176 49.7405 418.933 51.3169C419.464 51.2193 419.996 51.0717 420.529 50.8856C414.464 47.9121 412.788 34.5857 408.105 28.1699C407.821 28.4061 407.537 28.6535 407.252 28.9099Z" fill="url(#paint3_linear)"/>
<path d="M413.191 24.6836C412.626 24.6836 412.053 24.739 411.478 24.8482C409.974 25.132 408.446 25.7799 406.905 26.7605C407.326 27.1759 407.726 27.6514 408.103 28.1701C409.67 26.8695 411.226 25.9082 412.777 25.3305C413.358 25.1149 413.938 24.9526 414.52 24.846C414.1 24.7392 413.658 24.6836 413.191 24.6836Z" fill="#14559A"/>
<path d="M425.262 48.1452C425.882 47.6516 426.504 47.1056 427.127 46.5098C424.544 38.7684 423.619 24.6953 416.134 24.6953C415.598 24.6953 415.058 24.7453 414.52 24.8451C421.338 26.5419 422.212 41.3845 425.262 48.1452Z" fill="url(#paint4_linear)"/>
<path d="M414.519 24.8458C414.099 24.7391 413.657 24.6836 413.189 24.6836L416.133 24.6944C415.598 24.6944 415.058 24.7443 414.519 24.8454" fill="#3092C4"/>
<path d="M425.131 49.7894C424.838 49.5103 424.56 49.2038 424.287 48.877C423.028 49.769 421.773 50.4454 420.526 50.8858C420.97 51.1026 421.435 51.2638 421.928 51.3636C422.311 51.4417 422.707 51.4817 423.123 51.4817C424.522 51.4817 425.627 51.316 426.569 50.8643C426.051 50.5839 425.575 50.2207 425.131 49.7894Z" fill="#1969BC"/>
<path d="M412.775 25.3307C418.883 28.5266 419.414 42.9993 424.287 48.8759C424.613 48.6456 424.937 48.4014 425.26 48.1437C422.21 41.383 421.337 26.5393 414.52 24.8438C413.938 24.9527 413.357 25.114 412.775 25.3307Z" fill="url(#paint5_linear)"/>
<path d="M408.104 28.1714C412.786 34.5872 414.463 47.9136 420.528 50.8871C421.775 50.4467 423.029 49.7703 424.288 48.8782C419.415 43.0016 418.884 28.529 412.777 25.333C411.226 25.9095 409.67 26.8708 408.104 28.1714Z" fill="url(#paint6_linear)"/>
<path d="M403.288 29.6426C402.554 31.3031 401.804 33.4855 400.897 36.3342C402.7 33.793 404.497 31.6038 406.283 29.8299C406.037 29.0729 405.773 28.3749 405.488 27.7529C404.758 28.3125 404.021 28.9424 403.288 29.6426Z" fill="url(#paint7_linear)"/>
<path d="M406.138 27.2744C405.922 27.4288 405.705 27.5866 405.487 27.7534C405.772 28.3753 406.035 29.0733 406.282 29.8303C406.606 29.5125 406.929 29.205 407.251 28.911C406.905 28.3163 406.537 27.767 406.138 27.2744Z" fill="#2B74B1"/>
<path d="M406.908 26.7598C406.651 26.9221 406.396 27.0934 406.139 27.2727C406.538 27.7653 406.905 28.3146 407.253 28.9105C407.537 28.6528 407.822 28.4043 408.106 28.1693C407.729 27.6507 407.329 27.1751 406.908 26.7598Z" fill="#125A9E"/>
<path d="M448.561 24.091C445.107 37.4185 437.893 48.1231 431.845 50.822H431.833C431.723 50.8719 431.614 50.9173 431.506 50.9615C431.492 50.9705 431.478 50.9716 431.467 50.977C431.435 50.9898 431.405 50.9998 431.374 51.0125C431.359 51.0215 431.345 51.0244 431.332 51.0298C431.281 51.048 431.231 51.0634 431.181 51.0833C431.159 51.0923 431.139 51.0979 431.118 51.1051C431.096 51.1141 431.07 51.1225 431.044 51.1297C431.021 51.1387 430.997 51.1452 430.971 51.1551C430.949 51.1641 430.927 51.1679 430.906 51.1769C430.862 51.1897 430.821 51.2005 430.777 51.2159C430.759 51.2159 430.742 51.2258 430.723 51.2305C430.695 51.2395 430.665 51.246 430.635 51.2541C430.615 51.2631 430.598 51.266 430.576 51.2705C430.546 51.2795 430.512 51.2879 430.481 51.2951C430.44 51.3041 430.404 51.3124 430.365 51.3205C430.639 51.4215 430.923 51.4726 431.231 51.4726C436.966 51.4726 442.749 41.189 452.317 24.0879H448.56L448.561 24.091Z" fill="url(#paint8_linear)"/>
<path d="M399.65 25.2282C399.653 25.2282 399.658 25.2192 399.66 25.2192C399.665 25.2192 399.672 25.2192 399.674 25.2102C399.674 25.2102 399.678 25.2102 399.681 25.2102C399.713 25.1994 399.742 25.1866 399.774 25.1748C399.782 25.1748 399.786 25.1748 399.792 25.1658C399.8 25.1658 399.808 25.1568 399.816 25.1557C399.85 25.1449 399.884 25.1321 399.916 25.1203C399.916 25.1203 399.92 25.1203 399.921 25.1203C399.997 25.0976 400.068 25.0694 400.141 25.0431C400.152 25.0431 400.162 25.0341 400.174 25.0341C400.205 25.0242 400.237 25.0132 400.268 25.006C400.283 24.997 400.298 24.997 400.312 24.9923C400.344 24.9824 400.376 24.9713 400.407 24.9641C400.421 24.9641 400.433 24.9551 400.443 24.9542C400.549 24.9252 400.653 24.8979 400.758 24.8725C400.773 24.8725 400.786 24.8635 400.802 24.8626C400.832 24.8536 400.861 24.8489 400.893 24.8444C400.907 24.8354 400.923 24.8354 400.939 24.8307C400.969 24.8217 400.999 24.8208 401.032 24.8134C401.04 24.8134 401.044 24.8134 401.053 24.8134C401.117 24.8006 401.182 24.7898 401.245 24.778C401.257 24.778 401.271 24.778 401.284 24.778C401.314 24.769 401.341 24.7681 401.372 24.7624C401.389 24.7624 401.406 24.7535 401.422 24.7535C401.45 24.7535 401.479 24.7445 401.507 24.7406C401.522 24.7406 401.537 24.7406 401.554 24.7316C401.621 24.7227 401.69 24.719 401.76 24.7134C401.562 24.6943 401.357 24.6816 401.15 24.6816C394.691 24.6816 385.792 36.6721 381.783 52.2002C381.783 52.2002 382.076 52.2002 382.556 52.2002C383.839 49.9111 384.991 47.7457 386.045 45.713C388.852 34.7144 394.571 27.2136 399.65 25.2264" fill="url(#paint9_linear)"/>
<path d="M403.286 29.6414C404.02 28.9412 404.756 28.3113 405.487 27.7518C405.32 27.3864 405.148 27.0482 404.963 26.7383C404.372 27.4556 403.832 28.4021 403.286 29.6414Z" fill="#0D82CA"/>
<path d="M403.816 25.3144C404.238 25.6685 404.616 26.1554 404.962 26.7388C405.071 26.6049 405.181 26.4811 405.296 26.3654C404.816 25.9171 404.297 25.5494 403.734 25.2725C403.757 25.2851 403.78 25.2952 403.803 25.3051C403.803 25.3051 403.812 25.3141 403.816 25.3141" fill="#0D82CA"/>
<path d="M386.045 45.7103C391.934 34.3553 394.725 27.1689 399.65 25.2236C394.572 27.2121 388.852 34.7128 386.045 45.7103Z" fill="url(#paint10_linear)"/>
<path d="M405.295 26.3662C405.18 26.4832 405.071 26.6059 404.961 26.7399C405.146 27.0499 405.319 27.3873 405.487 27.7541C405.705 27.5872 405.922 27.4293 406.138 27.2748C405.871 26.9455 405.589 26.64 405.295 26.3662Z" fill="#127BCA"/>
<path d="M388.717 52.1466C388.681 52.1556 388.644 52.1556 388.61 52.1594C388.599 52.1594 388.597 52.1594 388.59 52.1594C388.559 52.1594 388.528 52.1684 388.499 52.1684C388.499 52.1684 388.488 52.1684 388.484 52.1684C388.411 52.1774 388.338 52.1774 388.268 52.183H388.245C394.206 52.0161 396.931 49.03 398.283 44.6992C399.311 41.4159 400.155 38.65 400.894 36.3291C398.397 39.8451 395.889 44.0364 393.368 48.7316C392.152 50.9947 390.303 51.94 388.717 52.1421" fill="url(#paint11_linear)"/>
<path d="M388.717 52.1452C390.303 51.9431 392.152 50.9988 393.368 48.7347C395.889 44.0406 398.398 39.8482 400.893 36.3322C401.8 33.4823 402.549 31.3011 403.284 29.6406C398.312 34.3756 393.321 42.2486 388.717 52.1429" fill="url(#paint12_linear)"/>
<path d="M386.045 45.71C384.991 47.7427 383.839 49.9081 382.556 52.1972C383.11 52.1972 383.914 52.1972 384.803 52.1972C385.1 49.9239 385.522 47.7562 386.045 45.7111" fill="#05A1E6"/>
<path d="M401.556 24.7335C401.537 24.7335 401.524 24.7425 401.508 24.7425C401.481 24.7515 401.452 24.7515 401.424 24.7544C401.407 24.7544 401.391 24.7545 401.374 24.7634C401.344 24.7724 401.315 24.7733 401.286 24.779C401.272 24.779 401.258 24.779 401.247 24.788C401.182 24.7987 401.119 24.8107 401.055 24.8215C401.044 24.8215 401.041 24.8215 401.034 24.8215C401.001 24.8305 400.971 24.8352 400.941 24.8397C400.925 24.8487 400.909 24.8487 400.894 24.8523C400.864 24.8613 400.833 24.8652 400.804 24.8706C400.788 24.8796 400.775 24.8795 400.76 24.8804C400.655 24.9059 400.551 24.9331 400.445 24.9622C400.434 24.9622 400.422 24.9712 400.409 24.973C400.377 24.9819 400.346 24.9912 400.314 25.0011C400.3 25.0101 400.284 25.0101 400.27 25.0137C400.239 25.0227 400.207 25.0319 400.176 25.0418C400.164 25.0418 400.154 25.0508 400.142 25.0508C400.07 25.0781 399.998 25.1053 399.923 25.128C399.892 25.1379 399.857 25.1507 399.823 25.1625C399.81 25.1715 399.797 25.1735 399.782 25.1798C399.75 25.1897 399.718 25.2025 399.689 25.2143C399.677 25.2233 399.666 25.2242 399.658 25.2289C394.733 27.1742 391.942 34.3606 386.053 45.7156C385.53 47.7608 385.107 49.9285 384.811 52.2017H385.126C386.014 52.2017 386.265 52.1927 387.287 52.1927H387.339H387.491H387.543H387.558H387.61H387.64H387.66H387.701H387.828H387.955H388.062H388.09C388.151 52.1927 388.214 52.1927 388.277 52.1927C388.347 52.1837 388.42 52.1837 388.494 52.1781C388.494 52.1781 388.505 52.1781 388.507 52.1781C388.538 52.1781 388.569 52.1691 388.598 52.1691C388.609 52.1691 388.611 52.1691 388.62 52.1691C388.652 52.1691 388.69 52.1601 388.726 52.1563C393.331 42.262 398.322 34.3889 403.293 29.654C403.84 28.4146 404.379 27.4681 404.969 26.752C404.624 26.1687 404.246 25.6806 403.824 25.3265C403.824 25.3265 403.813 25.3265 403.812 25.3175C403.788 25.3076 403.766 25.2957 403.742 25.2839C403.718 25.2711 403.697 25.2612 403.673 25.2485C403.651 25.2395 403.626 25.2276 403.604 25.2158C403.575 25.2068 403.551 25.194 403.525 25.1822C403.503 25.1732 403.484 25.164 403.463 25.1549C403.418 25.1376 403.374 25.1195 403.332 25.1005C403.313 25.0915 403.295 25.0868 403.277 25.0796C403.246 25.0686 403.211 25.0541 403.179 25.0405C403.163 25.0315 403.145 25.0297 403.127 25.0232C403.08 25.0077 403.035 24.9914 402.992 24.9769C402.981 24.9769 402.981 24.9769 402.981 24.9769C402.928 24.9596 402.877 24.9469 402.824 24.9324C402.812 24.9234 402.801 24.9234 402.789 24.9216C402.742 24.9088 402.702 24.8962 402.657 24.8844C402.646 24.8844 402.636 24.8754 402.627 24.8754C402.52 24.8472 402.41 24.8245 402.299 24.8037C402.287 24.8037 402.276 24.7947 402.265 24.7947C402.217 24.7857 402.171 24.7774 402.123 24.772C402.112 24.763 402.105 24.763 402.095 24.763C402.038 24.754 401.982 24.7475 401.927 24.7412C401.916 24.7412 401.908 24.7412 401.897 24.7412C401.852 24.7322 401.81 24.7313 401.768 24.7266C401.697 24.7356 401.629 24.7394 401.562 24.7457" fill="url(#paint13_linear)"/>
<path d="M435.069 31.4696C433.936 35.1014 433.018 38.0976 432.22 40.5627C435.329 36.2817 438.392 30.8964 441.308 24.6816C437.906 25.7506 436.091 28.1977 435.069 31.4696Z" fill="url(#paint14_linear)"/>
<path d="M432.318 50.5948C432.159 50.6756 432 50.7525 431.844 50.8218C437.892 48.1229 445.106 37.4183 448.561 24.0908H447.861C439.925 38.274 437.373 47.7688 432.318 50.5948Z" fill="url(#paint15_linear)"/>
<path d="M428.369 49.4046C429.685 47.7975 430.757 45.0658 432.221 40.5635C430.533 42.8833 428.833 44.8774 427.133 46.5037C427.133 46.5127 427.133 46.5127 427.124 46.5183C427.495 47.6306 427.902 48.6122 428.366 49.4044" fill="#079AE1"/>
<path d="M428.373 49.4033C427.925 49.9504 427.45 50.3669 426.923 50.6757C426.807 50.7428 426.69 50.8061 426.571 50.864C427.128 51.1647 427.736 51.3657 428.417 51.4462C428.517 51.4561 428.615 51.4653 428.719 51.4725H428.737C428.783 51.4725 428.832 51.4726 428.882 51.4815H428.902C428.952 51.4815 429.002 51.4815 429.051 51.4815C429.104 51.4815 429.157 51.4815 429.211 51.4815C429.228 51.4815 429.244 51.4815 429.261 51.4815C429.297 51.4815 429.336 51.4815 429.374 51.4815C429.392 51.4815 429.411 51.4815 429.429 51.4725C429.465 51.4725 429.502 51.4725 429.538 51.4635C429.547 51.4635 429.547 51.4635 429.551 51.4635C429.566 51.4635 429.578 51.4635 429.592 51.4635C429.629 51.4635 429.67 51.4545 429.71 51.4507H429.719C429.731 51.4507 429.743 51.4417 429.755 51.4417C429.797 51.4328 429.84 51.4289 429.881 51.4226C429.895 51.4226 429.905 51.4226 429.918 51.4226C429.965 51.4136 430.012 51.408 430.06 51.399H430.069C430.078 51.399 430.079 51.399 430.083 51.399C430.178 51.3808 430.271 51.3627 430.365 51.3391C429.585 51.0531 428.931 50.3789 428.369 49.4188" fill="#1969BC"/>
<path d="M417.221 51.4816C417.787 51.4816 418.358 51.4262 418.932 51.3159C419.463 51.2195 419.995 51.0719 420.528 50.8857C420.972 51.1026 421.437 51.2637 421.929 51.3636C422.312 51.4417 422.709 51.4816 423.125 51.4816H417.221Z" fill="#1E5CB3"/>
<path d="M423.123 51.4817C424.521 51.4817 425.628 51.316 426.568 50.8643C427.125 51.165 427.733 51.3659 428.414 51.4465C428.514 51.4564 428.612 51.4656 428.715 51.4728H428.734C428.78 51.4728 428.829 51.4728 428.879 51.4818H428.9C428.95 51.4818 429 51.4818 429.048 51.4818H423.119L423.123 51.4817Z" fill="#1E5CB3"/>
<path d="M429.053 51.4814C429.107 51.4814 429.161 51.4814 429.214 51.4814C429.229 51.4814 429.247 51.4814 429.264 51.4814C429.3 51.4814 429.337 51.4814 429.376 51.4814C429.395 51.4814 429.413 51.4814 429.431 51.4724C429.467 51.4724 429.504 51.4724 429.542 51.4634C429.55 51.4634 429.55 51.4634 429.553 51.4634C429.568 51.4634 429.582 51.4634 429.595 51.4634C429.632 51.4634 429.673 51.4544 429.712 51.4508C429.712 51.4508 429.721 51.4508 429.722 51.4508C429.734 51.4508 429.746 51.4418 429.757 51.4418C429.799 51.4328 429.843 51.4292 429.883 51.4227C429.897 51.4227 429.908 51.4227 429.922 51.4137C429.968 51.4047 430.016 51.4 430.064 51.391H430.073C430.082 51.391 430.083 51.391 430.087 51.391C430.182 51.3728 430.275 51.3547 430.369 51.3311C430.643 51.432 430.927 51.4831 431.235 51.4831L429.054 51.4922L429.053 51.4814Z" fill="#1D60B5"/>
<path d="M427.128 46.5178V46.5088C426.506 47.1046 425.884 47.6506 425.263 48.1442C424.939 48.4019 424.616 48.6458 424.289 48.8763C424.562 49.2031 424.84 49.5096 425.133 49.7888C425.578 50.2199 426.053 50.5832 426.571 50.8635C426.689 50.8054 426.807 50.742 426.922 50.6751C427.45 50.3664 427.925 49.9499 428.373 49.4029C427.909 48.6107 427.502 47.6289 427.131 46.5167" fill="#175FAB"/>
<path d="M445.645 24.0908H442.703C442.604 24.0908 442.506 24.0908 442.41 24.0908C442.316 24.0908 442.225 24.0908 442.133 24.0908H442.123C441.932 24.0998 441.747 24.1063 441.564 24.1181C441.478 24.3031 441.39 24.4881 441.305 24.6743C438.388 30.8891 435.326 36.2744 432.216 40.5553C430.754 45.0575 429.681 47.7894 428.365 49.3964C428.928 50.3566 429.582 51.0318 430.361 51.3178C430.383 51.3088 430.401 51.3088 430.422 51.3041C430.422 51.3041 430.433 51.3041 430.434 51.3041C430.448 51.3041 430.463 51.2951 430.478 51.2951C430.509 51.2861 430.543 51.2805 430.575 51.2706C430.596 51.2616 430.612 51.2607 430.633 51.2542C430.662 51.2452 430.693 51.2387 430.72 51.2315C430.738 51.2225 430.757 51.2196 430.775 51.216C430.82 51.2013 430.861 51.1905 430.904 51.1769C430.924 51.1679 430.946 51.1605 430.969 51.1551C430.994 51.1461 431.019 51.1396 431.041 51.1288C431.067 51.1198 431.093 51.1151 431.116 51.1052C431.137 51.0962 431.158 51.0906 431.177 51.0825C431.228 51.0643 431.278 51.0489 431.329 51.0289C431.343 51.0289 431.357 51.0163 431.371 51.0134C431.402 51.0006 431.434 50.9907 431.464 50.9771C431.476 50.9681 431.489 50.9672 431.504 50.9624C431.611 50.9179 431.721 50.8725 431.831 50.8229H431.842C431.999 50.7539 432.158 50.6764 432.315 50.5959C437.371 47.7699 439.923 38.2751 447.859 24.0919H445.643L445.645 24.0908Z" fill="url(#paint16_linear)"/>
<path d="M401.76 24.7151C401.772 24.7151 401.784 24.7151 401.796 24.7241C401.827 24.7241 401.857 24.7241 401.888 24.734C401.899 24.734 401.91 24.734 401.919 24.734C401.974 24.743 402.03 24.7477 402.086 24.7558C402.097 24.7558 402.106 24.7558 402.115 24.7648C402.161 24.7738 402.209 24.7812 402.257 24.7884C402.267 24.7884 402.28 24.7974 402.292 24.7974C402.401 24.8192 402.512 24.8419 402.618 24.87C402.629 24.87 402.639 24.879 402.648 24.879C402.693 24.8898 402.734 24.9036 402.78 24.9163C402.793 24.9163 402.803 24.9252 402.816 24.9273C402.869 24.941 402.919 24.9545 402.971 24.9718C402.974 24.9718 402.977 24.9718 402.983 24.9807C403.027 24.9942 403.072 25.0116 403.119 25.027C403.137 25.036 403.154 25.0399 403.171 25.0444C403.203 25.0581 403.238 25.0716 403.269 25.0843C403.287 25.0843 403.305 25.0969 403.324 25.1034C403.366 25.1225 403.41 25.1397 403.453 25.1579C403.476 25.1669 403.495 25.177 403.517 25.1851C403.542 25.1979 403.568 25.2096 403.595 25.2187C403.618 25.2295 403.643 25.2414 403.664 25.2514C403.688 25.2642 403.711 25.2741 403.734 25.2868C404.296 25.5637 404.815 25.9326 405.294 26.3798C405.471 26.1937 405.656 26.0268 405.848 25.877C404.799 25.1325 403.61 24.708 402.239 24.708C402.08 24.708 401.921 24.717 401.76 24.7289" fill="#7DCBEC"/>
<path d="M405.294 26.3661C405.588 26.6396 405.869 26.9449 406.136 27.2741C406.394 27.0947 406.649 26.9222 406.906 26.7611C406.57 26.4251 406.216 26.1232 405.847 25.8633C405.655 26.012 405.471 26.18 405.294 26.3661Z" fill="#5EC5ED"/>
<path d="M401.763 24.7152C401.924 24.7016 402.083 24.6959 402.242 24.6959C403.614 24.6959 404.803 25.1204 405.853 25.8638C406.961 24.9899 408.3 24.6846 410.16 24.6846H401.152C401.36 24.6846 401.563 24.6971 401.763 24.7152Z" fill="url(#paint17_linear)"/>
<path d="M410.156 24.6846C408.296 24.6846 406.956 24.9899 405.849 25.8638C406.216 26.1237 406.57 26.4256 406.906 26.7615C408.449 25.7809 409.976 25.1318 411.482 24.848C412.057 24.7402 412.63 24.6846 413.195 24.6846H410.156Z" fill="url(#paint18_linear)"/>
<path d="M432.22 40.5655C433.02 38.0981 433.935 35.1031 435.071 31.4702C436.094 28.197 437.906 25.7501 441.307 24.6822C441.397 24.4994 441.482 24.311 441.569 24.126C436.024 24.4586 433.432 27.2811 432.127 31.4611C429.846 38.7587 428.464 43.4891 427.134 46.5034C428.833 44.8782 430.532 42.883 432.22 40.5655Z" fill="url(#paint19_linear)"/>
</g>
<defs>
<linearGradient id="paint0_linear" x1="508" y1="20.3223" x2="530.335" y2="39.3445" gradientUnits="userSpaceOnUse">
<stop stop-color="#5A9FD4"/>
<stop offset="1" stop-color="#306998"/>
</linearGradient>
<linearGradient id="paint1_linear" x1="533.247" y1="55.5643" x2="525.232" y2="44.339" gradientUnits="userSpaceOnUse">
<stop stop-color="#FFD43B"/>
<stop offset="1" stop-color="#FFE873"/>
</linearGradient>
<linearGradient id="paint2_linear" x1="412.603" y1="24.5041" x2="412.603" y2="58.1676" gradientUnits="userSpaceOnUse">
<stop stop-color="#0994DC"/>
<stop offset="0.350006" stop-color="#66CEF5"/>
<stop offset="0.846161" stop-color="#127BCA"/>
<stop offset="1" stop-color="#127BCA"/>
</linearGradient>
<linearGradient id="paint3_linear" x1="413.891" y1="23.6525" x2="413.891" y2="58.1739" gradientUnits="userSpaceOnUse">
<stop stop-color="#0E76BC"/>
<stop offset="0.360001" stop-color="#36AEE8"/>
<stop offset="0.846161" stop-color="#00ADEF"/>
<stop offset="1" stop-color="#00ADEF"/>
</linearGradient>
<linearGradient id="paint4_linear" x1="420.823" y1="50.7063" x2="420.823" y2="23.2381" gradientUnits="userSpaceOnUse">
<stop stop-color="#1C63B7"/>
<stop offset="0.5" stop-color="#33BDF2"/>
<stop offset="1" stop-color="#33BDF2" stop-opacity="0.419608"/>
</linearGradient>
<linearGradient id="paint5_linear" x1="419.018" y1="20.1538" x2="419.018" y2="55.996" gradientUnits="userSpaceOnUse">
<stop stop-color="#166AB8"/>
<stop offset="0.399994" stop-color="#36AEE8"/>
<stop offset="0.846161" stop-color="#0798DD"/>
<stop offset="1" stop-color="#0798DD"/>
</linearGradient>
<linearGradient id="paint6_linear" x1="416.196" y1="20.3446" x2="416.196" y2="58.4579" gradientUnits="userSpaceOnUse">
<stop stop-color="#124379"/>
<stop offset="0.389999" stop-color="#1487CB"/>
<stop offset="0.780228" stop-color="#165197"/>
<stop offset="1" stop-color="#165197"/>
</linearGradient>
<linearGradient id="paint7_linear" x1="400.897" y1="32.0436" x2="406.283" y2="32.0436" gradientUnits="userSpaceOnUse">
<stop stop-color="#33BDF2" stop-opacity="0.698039"/>
<stop offset="1" stop-color="#1DACD8"/>
</linearGradient>
<linearGradient id="paint8_linear" x1="441.343" y1="50.0175" x2="441.343" y2="23.2596" gradientUnits="userSpaceOnUse">
<stop stop-color="#136AB4"/>
<stop offset="0.6" stop-color="#59CAF5" stop-opacity="0.54902"/>
<stop offset="1" stop-color="#59CAF5" stop-opacity="0.235294"/>
</linearGradient>
<linearGradient id="paint9_linear" x1="381.783" y1="38.4409" x2="401.76" y2="38.4409" gradientUnits="userSpaceOnUse">
<stop stop-color="#05A1E6" stop-opacity="0.247059"/>
<stop offset="1" stop-color="#05A1E6"/>
</linearGradient>
<linearGradient id="paint10_linear" x1="392.847" y1="50.6914" x2="392.847" y2="23.2935" gradientUnits="userSpaceOnUse">
<stop stop-color="#318ED5"/>
<stop offset="1" stop-color="#38A7E4"/>
</linearGradient>
<linearGradient id="paint11_linear" x1="394.569" y1="50.7878" x2="394.569" y2="24.1556" gradientUnits="userSpaceOnUse">
<stop stop-color="#05A1E6"/>
<stop offset="1" stop-color="#05A1E6" stop-opacity="0.54902"/>
</linearGradient>
<linearGradient id="paint12_linear" x1="396" y1="52.1475" x2="396" y2="29.6429" gradientUnits="userSpaceOnUse">
<stop stop-color="#1959A6"/>
<stop offset="0.5" stop-color="#05A1E6"/>
<stop offset="0.917587" stop-color="#7EC5EA"/>
<stop offset="1" stop-color="#7EC5EA"/>
</linearGradient>
<linearGradient id="paint13_linear" x1="396.866" y1="50.7092" x2="392.561" y2="26.3086" gradientUnits="userSpaceOnUse">
<stop stop-color="#165096"/>
<stop offset="1" stop-color="#0D82CA"/>
</linearGradient>
<linearGradient id="paint14_linear" x1="436.763" y1="36.9097" x2="436.763" y2="24.1577" gradientUnits="userSpaceOnUse">
<stop stop-color="#05A1E6"/>
<stop offset="0.873627" stop-color="#0495D6"/>
<stop offset="1" stop-color="#0495D6"/>
</linearGradient>
<linearGradient id="paint15_linear" x1="442.754" y1="22.9784" x2="437.566" y2="52.3829" gradientUnits="userSpaceOnUse">
<stop stop-color="#38A7E4" stop-opacity="0.329412"/>
<stop offset="0.961533" stop-color="#0E88D3"/>
<stop offset="1" stop-color="#0E88D3"/>
</linearGradient>
<linearGradient id="paint16_linear" x1="438.115" y1="24.0103" x2="438.115" y2="51.8302" gradientUnits="userSpaceOnUse">
<stop stop-color="#168CD4"/>
<stop offset="0.5" stop-color="#1C87CC"/>
<stop offset="1" stop-color="#154B8D"/>
</linearGradient>
<linearGradient id="paint17_linear" x1="402.654" y1="23.4398" x2="409.062" y2="26.0977" gradientUnits="userSpaceOnUse">
<stop stop-color="#97D6EE"/>
<stop offset="0.703293" stop-color="#55C1EA"/>
<stop offset="1" stop-color="#55C1EA"/>
</linearGradient>
<linearGradient id="paint18_linear" x1="406.355" y1="26.6307" x2="411.416" y2="24.3363" gradientUnits="userSpaceOnUse">
<stop stop-color="#7ACCEC"/>
<stop offset="1" stop-color="#3FB7ED"/>
</linearGradient>
<linearGradient id="paint19_linear" x1="434.351" y1="25.5498" x2="434.351" y2="52.7605" gradientUnits="userSpaceOnUse">
<stop stop-color="#1DA7E7"/>
<stop offset="1" stop-color="#37ABE7" stop-opacity="0"/>
</linearGradient>
<clipPath id="clip0">
<rect width="550" height="82" fill="white"/>
</clipPath>
</defs>
</svg>
