<svg width="508" height="214" viewBox="0 0 508 214" fill="none" xmlns="http://www.w3.org/2000/svg">
<path d="M136.007 46H136.575L145.846 41.5337L146 41.3236V5.67374L145.846 5.46255L136.575 1H136L136.007 46Z" fill="#5294CF"/>
<path d="M125.992 46H125.367L115.308 41.5337L115.104 41.2222L115 5.8553L115.308 5.46255L125.367 1H126L125.992 46Z" fill="#1F5B98"/>
<path d="M126 1H137V46H126V1Z" fill="#2D72B8"/>
<path d="M150 22.5209L149.705 22.4559L145.496 22.0661L145.434 22.0969L136.703 21.7501H124.297L115.566 22.0969V15.4825L115.557 15.4873L115.566 15.468L124.297 13.4581H136.703L145.434 15.468L148.644 17.1629V16.0732L150 15.9258L149.86 15.6537L145.565 12.6027L145.434 12.6449L136.703 9.95711H124.297L115.566 12.6449V6L111 11.3142V15.9554L111.035 15.93L112.356 16.0732V17.1853L111 17.9065V22.5245L111.035 22.5209L112.356 22.5402V24.4785L111.217 24.4955L111 24.4749V29.0948L112.356 29.8194V30.9444L111.057 31.0869L111 31.0446V35.685L115.566 41V34.3557L124.297 37.0435H136.703L145.46 34.3479L145.576 34.3986L149.814 31.3925L150 31.093L148.644 30.9444V29.842L148.466 29.7714L145.565 31.325L145.46 31.5429L136.703 33.5412V33.5436H124.297V33.5412L115.566 31.5345V24.8958L124.297 25.2415V25.2499H136.703L145.434 24.8958L145.633 24.9866L149.712 24.6376L150 24.4979L148.644 24.4785V22.5402L150 22.5209" fill="#1A476F"/>
<path d="M146 34.3557V41L150 35.685V31.0748L146.023 34.3479L146 34.3557ZM146 31.549L146.023 31.5429L150 29.1172V24.4785L146 24.8958V31.549V31.549ZM146.023 15.474L146 15.468V22.0969L150 22.5209V17.8845L146.023 15.474ZM146.023 12.6709L150 15.9258V11.3154L146 6V12.6449L146.023 12.654V12.6709Z" fill="#2D72B8"/>
<path d="M91.6013 61H92.9613L89.8013 54H88.5213L85.3713 61H86.7113L87.4013 59.38H90.9013L91.6013 61ZM87.8413 58.36L89.1513 55.3L90.4713 58.36H87.8413ZM102.27 54L100.48 59.35L98.7104 54H97.5104L95.7004 59.32L93.9604 54H92.6104L94.9304 61H96.3204L98.0804 55.82L99.8104 61H101.19L103.51 54H102.27ZM106.539 61.1C108.459 61.1 109.369 60.14 109.369 59.02C109.369 56.45 105.219 57.42 105.219 55.93C105.219 55.4 105.659 54.98 106.739 54.98C107.349 54.98 108.039 55.16 108.669 55.53L109.079 54.52C108.469 54.12 107.589 53.9 106.749 53.9C104.829 53.9 103.929 54.86 103.929 55.99C103.929 58.59 108.089 57.6 108.089 59.11C108.089 59.63 107.629 60.02 106.539 60.02C105.679 60.02 104.789 59.7 104.229 59.25L103.779 60.26C104.359 60.76 105.449 61.1 106.539 61.1ZM113.022 61H116.082C118.352 61 119.902 59.6 119.902 57.5C119.902 55.4 118.352 54 116.082 54H113.022V61ZM114.322 59.9V55.1H116.022C117.582 55.1 118.592 56.05 118.592 57.5C118.592 58.95 117.582 59.9 116.022 59.9H114.322ZM126.541 54H125.261L123.191 57.41L121.141 54H119.751L122.501 58.55V61H123.801V58.53L126.541 54ZM132.025 54V58.74L128.165 54H127.095V61H128.385V56.26L132.245 61H133.315V54H132.025ZM140.231 61H141.591L138.431 54H137.151L134.001 61H135.341L136.031 59.38H139.531L140.231 61ZM136.471 58.36L137.781 55.3L139.101 58.36H136.471ZM149.941 61L149.931 54H148.861L146.131 58.64L143.351 54H142.281V61H143.521V56.42L145.821 60.2H146.401L148.701 56.36L148.711 61H149.941ZM154.902 61.1C157.072 61.1 158.672 59.58 158.672 57.5C158.672 55.42 157.072 53.9 154.902 53.9C152.732 53.9 151.132 55.43 151.132 57.5C151.132 59.57 152.732 61.1 154.902 61.1ZM154.902 59.96C153.492 59.96 152.442 58.93 152.442 57.5C152.442 56.07 153.492 55.04 154.902 55.04C156.312 55.04 157.362 56.07 157.362 57.5C157.362 58.93 156.312 59.96 154.902 59.96ZM159.85 61H162.91C165.18 61 166.73 59.6 166.73 57.5C166.73 55.4 165.18 54 162.91 54H159.85V61ZM161.15 59.9V55.1H162.85C164.41 55.1 165.42 56.05 165.42 57.5C165.42 58.95 164.41 59.9 162.85 59.9H161.15ZM172.871 57.36C173.411 57.07 173.771 56.54 173.771 55.82C173.771 54.71 172.871 54 171.191 54H167.911V61H171.391C173.191 61 174.131 60.3 174.131 59.1C174.131 58.19 173.621 57.6 172.871 57.36ZM171.051 55.02C171.951 55.02 172.461 55.34 172.461 55.99C172.461 56.63 171.951 56.95 171.051 56.95H169.211V55.02H171.051ZM171.311 59.98H169.211V57.96H171.311C172.291 57.96 172.821 58.27 172.821 58.97C172.821 59.67 172.291 59.98 171.311 59.98Z" fill="#2D72B8"/>
<g clip-path="url(#clip0)">
<path d="M210.004 35.9945L214.686 41.4638L215.107 40.9653V5.98273L214.686 5.4541L210.004 10.9214V35.9945" fill="#1A476F"/>
<path d="M214.688 41.4637L223.634 45.9221L224.006 45.3253L224.012 1.46713L223.64 1L214.688 5.4441V41.4637Z" fill="#1F5B98"/>
<path d="M249.996 10.9214L245.313 5.4541L244.789 5.61946L244.893 41.0173L245.313 41.4638L249.996 35.9951V10.9214Z" fill="#2D72B8"/>
<path d="M236.366 45.9221L245.313 41.4637V5.4441L236.36 1L235.937 1.57099L235.943 45.2733L236.366 45.9221" fill="#5294CF"/>
<path d="M223.64 1H236.359V45.9228H223.64V1Z" fill="#2D72B8"/>
</g>
<path d="M212.117 61H213.477L210.317 54H209.037L205.887 61H207.227L207.917 59.38H211.417L212.117 61ZM208.357 58.36L209.667 55.3L210.987 58.36H208.357ZM222.786 54L220.996 59.35L219.226 54H218.026L216.216 59.32L214.476 54H213.126L215.446 61H216.836L218.596 55.82L220.326 61H221.706L224.026 54H222.786ZM227.055 61.1C228.975 61.1 229.885 60.14 229.885 59.02C229.885 56.45 225.735 57.42 225.735 55.93C225.735 55.4 226.175 54.98 227.255 54.98C227.865 54.98 228.555 55.16 229.185 55.53L229.595 54.52C228.985 54.12 228.105 53.9 227.265 53.9C225.345 53.9 224.445 54.86 224.445 55.99C224.445 58.59 228.605 57.6 228.605 59.11C228.605 59.63 228.145 60.02 227.055 60.02C226.195 60.02 225.305 59.7 224.745 59.25L224.295 60.26C224.875 60.76 225.965 61.1 227.055 61.1ZM239.518 61L237.908 58.7C238.858 58.33 239.398 57.55 239.398 56.49C239.398 54.94 238.258 54 236.418 54H233.538V61H234.838V58.96H236.418C236.508 58.96 236.598 58.96 236.688 58.95L238.118 61H239.518ZM238.088 56.49C238.088 57.37 237.498 57.89 236.358 57.89H234.838V55.1H236.358C237.498 55.1 238.088 55.61 238.088 56.49ZM240.652 61H243.712C245.982 61 247.532 59.6 247.532 57.5C247.532 55.4 245.982 54 243.712 54H240.652V61ZM241.952 59.9V55.1H243.652C245.212 55.1 246.222 56.05 246.222 57.5C246.222 58.95 245.212 59.9 243.652 59.9H241.952ZM250.884 61.1C252.804 61.1 253.714 60.14 253.714 59.02C253.714 56.45 249.564 57.42 249.564 55.93C249.564 55.4 250.004 54.98 251.084 54.98C251.694 54.98 252.384 55.16 253.014 55.53L253.424 54.52C252.814 54.12 251.934 53.9 251.094 53.9C249.174 53.9 248.274 54.86 248.274 55.99C248.274 58.59 252.434 57.6 252.434 59.11C252.434 59.63 251.974 60.02 250.884 60.02C250.024 60.02 249.134 59.7 248.574 59.25L248.124 60.26C248.704 60.76 249.794 61.1 250.884 61.1Z" fill="#2D72B8"/>
<path d="M48.9918 36.0926C46.2707 37.6139 32.1744 43.8305 29.1734 45.5086C26.1724 47.1869 24.5053 47.1707 22.1345 45.9551C19.7638 44.7395 4.76295 38.2403 2.0607 36.8548C0.710269 36.1627 0 35.5782 0 35.0261V29.4981C0 29.4981 19.5294 24.938 22.6822 23.7248C25.8348 22.5115 26.9287 22.4677 29.6116 23.5218C32.2949 24.5763 48.3379 27.6809 50.9896 28.7226L50.9884 34.1724C50.9888 34.7189 50.3769 35.3184 48.9918 36.0926" fill="#912626"/>
<path d="M48.9908 30.5973C46.2698 32.1179 32.174 38.3347 29.173 40.0126C26.1722 41.6912 24.505 41.6747 22.1344 40.4591C19.7636 39.2444 4.7633 32.7441 2.06125 31.3595C-0.640801 29.9741 -0.697368 29.0206 1.95688 27.9059C4.61113 26.7907 19.5292 20.513 22.6824 19.2997C25.835 18.0869 26.9286 18.0427 29.6116 19.0972C32.2947 20.1513 46.3065 26.1333 48.9578 27.1748C51.61 28.2176 51.7118 29.0762 48.9908 30.5973" fill="#C6302B"/>
<path d="M48.9918 27.1481C46.2707 28.6696 32.1744 34.886 29.1734 36.5648C26.1724 38.2425 24.5053 38.2262 22.1345 37.0106C19.7637 35.7957 4.76295 29.2958 2.0607 27.9104C0.710269 27.2182 0 26.6345 0 26.0823V20.5536C0 20.5536 19.5294 15.9937 22.6822 14.7805C25.8348 13.5673 26.9287 13.5232 29.6116 14.5775C32.2951 15.6318 48.3381 18.7358 50.9896 19.7777L50.9884 25.2282C50.9888 25.7744 50.3769 26.3739 48.9918 27.1481Z" fill="#912626"/>
<path d="M48.9908 21.6518C46.2698 23.1729 32.174 29.3893 29.173 31.0679C26.1722 32.7458 24.505 32.7293 22.1344 31.5137C19.7636 30.299 4.7633 23.7989 2.06125 22.4141C-0.640801 21.0291 -0.697368 20.0754 1.95688 18.9602C4.61113 17.8457 19.5294 11.5676 22.6824 10.3545C25.835 9.1415 26.9286 9.09749 29.6116 10.1518C32.2947 11.2059 46.3065 17.1875 48.9578 18.2294C51.61 19.2719 51.7118 20.1307 48.9908 21.6518" fill="#C6302B"/>
<path d="M48.9918 17.8713C46.2707 19.3924 32.1744 25.6092 29.1734 27.288C26.1724 28.9659 24.5053 28.9494 22.1345 27.7338C19.7637 26.5189 4.76295 20.0188 2.0607 18.634C0.710269 17.9412 0 17.3573 0 16.8057V11.2768C0 11.2768 19.5294 6.71715 22.6822 5.50412C25.8348 4.29067 26.9287 4.24709 29.6116 5.30117C32.2951 6.35546 48.3381 9.45939 50.9896 10.5013L50.9884 15.9516C50.9888 16.4974 50.3769 17.0969 48.9918 17.8713Z" fill="#912626"/>
<path d="M48.9907 12.3762C46.2697 13.8973 32.1739 20.1141 29.1729 21.792C26.1721 23.4699 24.5049 23.4535 22.1343 22.2385C19.7637 21.0229 4.7632 14.5232 2.06135 13.1382C-0.6409 11.7534 -0.697268 10.7996 1.95678 9.68458C4.61103 8.56983 19.5293 2.29255 22.6823 1.0791C25.8349 -0.134146 26.9285 -0.177727 29.6115 0.876568C32.2946 1.93086 46.3064 7.91247 48.9576 8.95437C51.6099 9.99607 51.7117 10.8551 48.9907 12.3762" fill="#C6302B"/>
<path d="M31.7256 6.99811L27.3417 7.48627L26.3603 10.0191L24.7753 7.19274L19.7132 6.70479L23.4904 5.24373L22.357 3.00098L25.8935 4.48447L29.2273 3.31374L28.3262 5.63276L31.7256 6.99811V6.99811ZM26.0986 19.2861L17.917 15.6463L29.6406 13.7161L26.0986 19.2861V19.2861ZM14.7554 8.40598C18.2161 8.40598 21.0216 9.57243 21.0216 11.0111C21.0216 12.4501 18.2161 13.6164 14.7554 13.6164C11.2947 13.6164 8.48926 12.4499 8.48926 11.0111C8.48926 9.57243 11.2947 8.40598 14.7554 8.40598Z" fill="white"/>
<path d="M36.9062 7.69064L43.8448 10.6316L36.9122 13.5697L36.9062 7.69043" fill="#621B1C"/>
<path d="M29.2305 10.9473L36.9068 7.69043L36.9128 13.5695L36.1601 13.8852L29.2305 10.9473Z" fill="#9A2928"/>
<path d="M18.4411 61L16.8311 58.7C17.7811 58.33 18.3211 57.55 18.3211 56.49C18.3211 54.94 17.1811 54 15.3411 54H12.4611V61H13.7611V58.96H15.3411C15.4311 58.96 15.5211 58.96 15.6111 58.95L17.0411 61H18.4411ZM17.0111 56.49C17.0111 57.37 16.4211 57.89 15.2811 57.89H13.7611V55.1H15.2811C16.4211 55.1 17.0111 55.61 17.0111 56.49ZM20.8755 59.91V57.98H24.2555V56.91H20.8755V55.09H24.6855V54H19.5755V61H24.8255V59.91H20.8755ZM26.0748 61H29.1348C31.4048 61 32.9548 59.6 32.9548 57.5C32.9548 55.4 31.4048 54 29.1348 54H26.0748V61ZM27.3748 59.9V55.1H29.0748C30.6348 55.1 31.6448 56.05 31.6448 57.5C31.6448 58.95 30.6348 59.9 29.0748 59.9H27.3748ZM34.1365 61H35.4365V54H34.1365V61ZM39.2998 61.1C41.2198 61.1 42.1298 60.14 42.1298 59.02C42.1298 56.45 37.9798 57.42 37.9798 55.93C37.9798 55.4 38.4198 54.98 39.4998 54.98C40.1098 54.98 40.7998 55.16 41.4298 55.53L41.8398 54.52C41.2298 54.12 40.3498 53.9 39.5098 53.9C37.5898 53.9 36.6898 54.86 36.6898 55.99C36.6898 58.59 40.8498 57.6 40.8498 59.11C40.8498 59.63 40.3898 60.02 39.2998 60.02C38.4398 60.02 37.5498 59.7 36.9898 59.25L36.5398 60.26C37.1198 60.76 38.2098 61.1 39.2998 61.1Z" fill="#912626"/>
<path d="M70.7678 107.573H81.5997L75.8723 98.5517L65.3602 114.862H60.5763L73.3621 95.2697C73.918 94.4783 74.8445 94 75.8723 94C76.8661 94 77.7926 94.4617 78.3318 95.2368L91.1683 114.862H86.3843L84.1271 111.217H73.1604L70.7682 107.573H70.7678ZM120.463 111.217V94.1978H116.404V112.883C116.404 113.394 116.606 113.889 116.993 114.268C117.38 114.647 117.903 114.862 118.475 114.862H136.989L139.381 111.217H120.463L120.463 111.217ZM53.2985 108.166C57.2408 108.166 60.4415 105.049 60.4415 101.19C60.4415 97.3309 57.2408 94.1975 53.2985 94.1975H35.5379V114.862H39.5964V97.8427H53.0293C54.916 97.8427 56.432 99.3437 56.432 101.191C56.432 103.038 54.916 104.538 53.0293 104.538L41.5843 104.522L53.7029 114.862H59.5991L51.4457 108.167H53.2989L53.2985 108.166ZM10.5559 114.862C4.72887 114.862 0 110.244 0 104.538C0 98.8319 4.72887 94.1981 10.5559 94.1981H22.8247C28.653 94.1981 33.3784 98.8319 33.3784 104.538C33.3784 110.244 28.653 114.862 22.8244 114.862H10.5559ZM22.5519 111.217C26.327 111.217 29.3846 108.232 29.3846 104.538C29.3846 100.844 26.327 97.8427 22.5519 97.8427H10.8274C7.0536 97.8427 3.99441 100.844 3.99441 104.538C3.99441 108.232 7.0536 111.217 10.8271 111.217H22.5516H22.5519ZM99.6418 114.862C93.8135 114.862 89.0795 110.244 89.0795 104.538C89.0795 98.8319 93.8135 94.1981 99.6418 94.1981H114.214L111.838 97.8427H99.9114C96.1379 97.8427 93.072 100.844 93.072 104.538C93.072 108.232 96.1379 111.217 99.9114 111.217H114.55L112.158 114.862H99.6418ZM149.287 111.217C146.17 111.217 143.526 109.172 142.717 106.352H160.068L162.46 102.707H142.717C143.526 99.9038 146.17 97.8427 149.287 97.8427H161.197L163.605 94.1975H149.017C143.188 94.1975 138.455 98.8316 138.455 104.538C138.455 110.244 143.188 114.861 149.017 114.861H161.534L163.926 111.217H149.287H149.287Z" fill="#EA1B22"/>
<g clip-path="url(#clip1)">
<path d="M227.482 118.498C228.015 118.498 228.499 118.619 228.765 118.862C228.814 119.25 228.451 119.881 228.233 119.881C227.966 119.784 227.724 119.735 227.409 119.735C226.15 119.735 225.521 121.045 225.521 122.331C225.521 123.132 225.787 123.617 226.441 123.617C227.119 123.617 227.797 123.156 228.184 122.816C228.281 122.889 228.402 123.107 228.402 123.35C228.402 123.617 228.33 123.884 228.063 124.151C227.627 124.587 226.877 124.975 225.787 124.975C224.552 124.975 223.681 124.272 223.681 122.622C223.729 120.439 225.133 118.498 227.482 118.498ZM231.55 123.544C232.228 123.544 233.463 122.355 233.802 120.075C233.826 119.929 233.826 119.905 233.85 119.759C233.705 119.711 233.487 119.662 233.293 119.662C232.785 119.662 232.252 119.808 231.792 120.463C231.308 121.142 231.09 121.991 231.09 122.671C231.09 123.229 231.259 123.544 231.55 123.544V123.544ZM229.322 122.913C229.322 122.088 229.589 120.681 230.63 119.638C231.526 118.716 232.591 118.498 233.584 118.498C234.238 118.498 235.109 118.716 235.666 118.813C235.521 119.42 235.206 121.725 235.037 123.059C234.964 123.617 234.94 124.417 234.964 124.709C234.504 124.903 233.656 124.951 233.414 124.951C233.293 124.951 233.269 124.393 233.293 123.835C233.317 123.665 233.342 123.398 233.342 123.277C232.809 124.175 231.744 124.927 230.63 124.927C229.831 124.951 229.322 124.272 229.322 122.913V122.913ZM239.104 118.498C239.661 118.498 240.218 118.716 240.46 118.959C240.436 119.347 240.146 120.002 239.661 119.808C239.443 119.735 239.25 119.687 238.959 119.687C238.596 119.687 238.257 119.856 238.257 120.196C238.257 120.463 238.451 120.657 239.371 121.312C240.024 121.797 240.291 122.234 240.291 122.841C240.291 123.859 239.346 124.951 237.676 124.951C236.998 124.951 236.392 124.684 236.223 124.417C235.981 124.005 236.175 123.18 236.441 123.326C236.804 123.496 237.385 123.69 237.869 123.69C238.33 123.69 238.62 123.471 238.62 123.204C238.62 122.962 238.402 122.768 237.579 122.161C236.877 121.627 236.659 121.142 236.659 120.609C236.659 119.444 237.652 118.498 239.104 118.498V118.498ZM243.874 118.498C244.431 118.498 244.988 118.716 245.23 118.959C245.206 119.347 244.915 120.002 244.431 119.808C244.213 119.735 244.02 119.687 243.729 119.687C243.366 119.687 243.027 119.856 243.027 120.196C243.027 120.463 243.221 120.657 244.141 121.312C244.794 121.797 245.061 122.234 245.061 122.841C245.061 123.859 244.116 124.951 242.446 124.951C241.768 124.951 241.187 124.684 240.993 124.417C240.751 124.005 240.945 123.18 241.211 123.326C241.574 123.496 242.155 123.69 242.639 123.69C243.1 123.69 243.39 123.471 243.39 123.204C243.39 122.962 243.172 122.768 242.349 122.161C241.647 121.627 241.429 121.142 241.429 120.609C241.429 119.444 242.422 118.498 243.874 118.498V118.498ZM248.208 123.544C248.886 123.544 250.121 122.355 250.46 120.075C250.484 119.929 250.484 119.905 250.509 119.759C250.363 119.711 250.145 119.662 249.952 119.662C249.443 119.662 248.911 119.808 248.451 120.463C247.966 121.142 247.748 121.991 247.748 122.671C247.773 123.229 247.918 123.544 248.208 123.544V123.544ZM245.981 122.913C245.981 122.088 246.247 120.681 247.288 119.638C248.184 118.716 249.25 118.498 250.242 118.498C250.896 118.498 251.768 118.716 252.325 118.813C252.179 119.42 251.865 121.725 251.695 123.059C251.622 123.617 251.598 124.417 251.622 124.709C251.162 124.903 250.315 124.951 250.073 124.951C249.952 124.951 249.928 124.393 249.952 123.835C249.976 123.665 250 123.398 250 123.277C249.468 124.175 248.402 124.927 247.288 124.927C246.514 124.951 245.981 124.272 245.981 122.913V122.913ZM255.448 120.293C256.078 119.274 256.901 118.498 258.063 118.498C259.056 118.498 259.371 119.42 259.177 120.706C259.08 121.312 258.911 122.185 258.814 122.986C258.717 123.665 258.644 124.272 258.668 124.684C258.305 124.854 257.264 124.927 257.022 124.927C256.925 124.927 256.901 124.175 257.046 123.374C257.167 122.719 257.385 121.506 257.506 120.803C257.579 120.39 257.555 119.905 257.167 119.905C256.659 119.905 255.448 120.73 254.843 124.078C254.794 124.345 254.698 124.514 254.528 124.612C254.31 124.733 253.874 124.854 252.978 124.854C253.148 124.005 253.414 122.283 253.608 120.997C253.777 119.832 253.85 119.08 253.826 118.789C254.068 118.716 255.303 118.449 255.424 118.449C255.569 118.449 255.593 118.886 255.472 119.905C255.448 120.002 255.448 120.148 255.424 120.245H255.448V120.293V120.293ZM262.47 123.52C263.075 123.52 264.31 122.38 264.649 120.366C264.673 120.245 264.698 120.051 264.722 119.929C264.552 119.759 264.31 119.662 263.923 119.662C262.518 119.662 261.913 121.336 261.913 122.549C261.937 123.18 262.155 123.52 262.47 123.52ZM261.574 124.951C260.678 124.951 260.145 124.151 260.145 122.816C260.145 120.584 261.55 118.522 263.898 118.522C264.31 118.522 264.698 118.643 264.915 118.765C265.036 118.134 265.327 116.169 265.351 115.587C265.739 115.514 266.562 115.393 266.949 115.393C267.095 115.393 267.143 115.538 267.095 115.902C266.756 117.988 266.175 121.967 266.053 122.841C265.981 123.593 265.957 124.32 265.981 124.733C265.545 124.927 264.649 124.975 264.407 124.975C264.31 124.975 264.262 124.345 264.286 123.762C264.31 123.593 264.334 123.326 264.334 123.277C263.584 124.393 262.639 124.951 261.574 124.951V124.951ZM269.661 120.487C270.388 118.862 271.259 118.498 271.84 118.498C272.01 118.498 272.3 118.619 272.421 118.741C272.47 119.201 272.107 120.099 271.792 120.463C271.622 120.39 271.429 120.293 271.187 120.293C270.727 120.293 269.782 121.021 269.201 124.175C269.153 124.442 269.08 124.539 268.935 124.612C268.693 124.757 267.773 124.854 267.337 124.878C267.555 123.738 267.894 121.433 268.039 120.075C268.087 119.735 268.087 119.08 268.063 118.838C268.329 118.716 269.371 118.474 269.589 118.474C269.71 118.474 269.806 119.226 269.613 120.463H269.661V120.487V120.487ZM274.528 123.544C275.206 123.544 276.441 122.355 276.78 120.075C276.804 119.929 276.804 119.905 276.828 119.759C276.683 119.711 276.465 119.662 276.271 119.662C275.763 119.662 275.23 119.808 274.77 120.463C274.286 121.142 274.068 121.991 274.068 122.671C274.092 123.229 274.237 123.544 274.528 123.544V123.544ZM272.3 122.913C272.3 122.088 272.567 120.681 273.608 119.638C274.504 118.716 275.569 118.498 276.562 118.498C277.216 118.498 278.087 118.716 278.644 118.813C278.499 119.42 278.184 121.725 278.015 123.059C277.942 123.617 277.918 124.417 277.942 124.709C277.482 124.903 276.635 124.951 276.392 124.951C276.271 124.951 276.247 124.393 276.271 123.835C276.296 123.665 276.32 123.398 276.32 123.277C275.787 124.175 274.722 124.927 273.608 124.927C272.833 124.951 272.3 124.272 272.3 122.913V122.913Z" fill="#373535"/>
<path d="M269.758 95.0388C270.218 100.352 261.864 105.422 251.09 106.344C240.315 107.266 231.235 103.7 230.775 98.3867C230.315 93.0737 238.668 88.0033 249.443 87.0814C260.194 86.1595 269.298 89.7015 269.758 95.0388" fill="#BBE6FB"/>
<path d="M249.733 87.6879C245.617 87.6151 240.823 89.2648 237.239 90.7932C236.876 91.8607 236.658 93.0009 236.658 94.1896C236.658 100.497 242.348 105.616 249.37 105.616C256.392 105.616 262.106 100.522 262.106 94.1896C262.106 92.2003 261.525 90.308 260.532 88.6825C257.675 88.2459 253.728 87.7607 249.733 87.6879" fill="white"/>
<path d="M249.394 87.6879C247.118 87.5424 243.196 88.7311 239.927 89.9199C239.419 91.0844 239.152 92.3702 239.152 93.7287C239.152 99.2601 244.164 103.748 249.443 103.748C254.697 103.748 259.346 99.2601 259.733 93.7287C259.854 91.9335 259.249 90.2353 258.377 88.7796C255.012 88.1974 251.428 87.8335 249.394 87.6879" fill="white"/>
<path d="M243.559 93.0245C243.85 92.3937 244.262 92.1026 244.673 91.5931C244.625 91.4718 244.528 91.0594 244.528 90.9381C244.528 90.3073 245.036 89.8221 245.642 89.8221C245.787 89.8221 245.932 89.8464 246.053 89.8949C247.918 88.4635 250.363 87.857 252.833 88.415C253.051 88.4635 253.269 88.5363 253.487 88.5848C251.065 88.2452 248.305 89.1186 246.441 90.6227C246.489 90.7683 246.659 91.1322 246.659 91.302C246.659 91.9328 246.247 92.0783 245.642 92.0783C245.496 92.0783 245.375 92.0541 245.23 92.0055C244.818 92.5635 244.286 93.6553 244.044 94.3345C245.085 95.2564 246.005 95.5961 247.216 96.057C247.216 96.0085 247.264 95.9357 247.264 95.8872C247.264 94.0192 248.91 92.4908 250.775 92.4908C252.446 92.4908 253.85 93.7038 254.116 95.305C254.964 94.7712 255.763 94.3588 256.368 93.5825C256.223 93.4126 256.078 92.9032 256.078 92.6606C256.078 92.1026 256.538 91.6416 257.094 91.6416C257.167 91.6416 257.24 91.6416 257.337 91.6659C257.651 91.0109 257.893 90.3316 258.039 89.628C255.109 87.4446 249.443 87.76 249.443 87.76C249.443 87.76 244.94 87.5174 241.889 89.0215C242.107 90.4286 242.688 91.8357 243.559 93.0245" fill="#373535"/>
<path d="M257.555 92.1757C257.773 92.3698 257.869 92.5154 257.966 92.6852C258.233 93.1704 257.7 93.6313 257.119 93.6313C257.07 93.6313 256.998 93.6313 256.949 93.6071C256.32 94.6018 255.206 95.8633 254.213 96.5183C255.739 96.7609 257.167 97.3674 258.281 98.3136C259.104 96.8337 259.734 94.6745 259.734 92.855C259.734 91.4722 259.128 90.4532 258.208 89.7012C258.184 90.4532 257.773 91.4964 257.555 92.1757ZM245.254 101.589C245.763 100.182 246.998 99.1142 248.184 98.168C248.015 97.9254 247.748 97.3432 247.651 97.0763C246.223 96.6396 244.964 95.8148 243.971 94.7473C243.971 94.7716 243.947 94.8201 243.947 94.8444C243.753 95.6692 243.729 96.5183 243.826 97.3189C244.504 97.4402 245.036 98.0467 245.036 98.7745C245.036 99.2112 244.649 99.8177 244.359 100.109C244.649 100.74 244.867 101.079 245.254 101.589" fill="#373535"/>
<path d="M245.157 102.754C244.552 102.147 244.14 100.958 243.753 100.206C243.68 100.206 243.608 100.231 243.535 100.231C242.712 100.231 241.864 99.5513 242.058 98.7507C242.155 98.314 242.47 98.0229 242.954 97.7803C242.833 96.8584 242.809 95.5726 243.026 94.6264C243.075 94.3596 243.22 94.2383 243.293 93.9714C242.397 92.6614 241.816 90.9146 241.816 89.1921V88.998C240.29 89.7744 239.152 90.9631 239.152 92.8554C239.152 97.0525 241.574 101.177 245.157 102.778V102.754V102.754ZM253.995 96.9554C253.535 98.2655 252.276 99.2359 250.799 99.2359C250 99.2359 249.273 98.969 248.716 98.5081C247.53 99.43 246.44 101.055 245.908 102.487C246.15 102.754 246.319 102.972 246.61 103.215C247.433 103.433 248.595 103.215 249.491 103.215C253.099 103.215 256.319 101.613 258.16 98.775C256.9 97.9016 255.448 97.0767 253.995 96.9554" fill="#373535"/>
<path d="M243.462 93.5103C243.753 92.8796 244.092 92.3216 244.503 91.7879C244.455 91.6666 244.431 91.521 244.431 91.3997C244.431 90.7689 244.939 90.2837 245.544 90.2837C245.69 90.2837 245.835 90.308 245.956 90.3565C247.82 88.9251 250.266 88.3186 252.736 88.8766C252.954 88.9251 253.172 88.9979 253.389 89.0464C250.968 88.7068 248.45 89.4589 246.586 90.963C246.634 91.1086 246.682 91.2541 246.682 91.3997C246.682 92.0305 246.174 92.5157 245.569 92.5157C245.423 92.5157 245.302 92.4914 245.157 92.4429C244.745 93.0009 244.382 93.6317 244.14 94.3109C245.036 95.2571 246.126 96.0334 247.336 96.4701V96.3003C247.336 94.4322 248.862 92.9038 250.726 92.9038C252.397 92.9038 253.801 94.1169 254.067 95.718C254.915 95.1843 255.641 94.505 256.271 93.7044C256.126 93.5346 256.029 93.3163 256.029 93.0737C256.029 92.5157 256.489 92.0547 257.046 92.0547C257.118 92.0547 257.191 92.0547 257.288 92.079C257.603 91.424 257.845 90.7447 257.99 90.0411C255.06 87.8577 249.394 88.1731 249.394 88.1731C249.394 88.1731 244.891 87.9305 241.84 89.4346C242.009 90.9145 242.59 92.3216 243.462 93.5103" fill="#1287B1"/>
<path d="M257.7 92.3457C257.918 92.5398 258.039 92.8066 258.039 93.0978C258.039 93.6558 257.579 94.1167 257.022 94.1167C256.974 94.1167 256.901 94.1167 256.853 94.0924C256.223 95.0871 255.376 95.9362 254.383 96.567C255.836 96.7853 257.216 97.4161 258.354 98.3623C259.177 96.8824 259.661 95.1599 259.661 93.3404C259.661 91.9575 259.056 90.9386 258.136 90.1865C258.087 90.9386 257.942 91.6664 257.7 92.3457V92.3457ZM245.4 101.904C245.908 100.497 246.78 99.2599 247.966 98.3137C247.797 98.0711 247.652 97.8285 247.555 97.5374C246.126 97.1007 244.867 96.2759 243.874 95.2084C243.874 95.2327 243.85 95.2812 243.85 95.3055C243.657 96.1303 243.632 96.9794 243.729 97.78C244.407 97.9013 244.94 98.5078 244.94 99.2356C244.94 99.6723 244.746 100.06 244.456 100.327C244.698 100.885 245.037 101.419 245.4 101.904Z" fill="#1287B1"/>
<path d="M245.157 102.729C244.552 102.122 244.044 101.443 243.656 100.691C243.583 100.691 243.511 100.715 243.438 100.715C242.615 100.715 241.961 100.06 241.961 99.2351C241.961 98.6528 242.3 98.1434 242.784 97.9008C242.663 96.9789 242.712 96.057 242.93 95.1108C242.978 94.844 243.075 94.5771 243.148 94.3102C242.252 93.0002 241.719 91.399 241.719 89.6765V89.4824C240.194 90.2588 239.056 91.4475 239.056 93.3398C239.056 97.5369 241.55 101.152 245.133 102.753C245.157 102.753 245.157 102.753 245.157 102.729V102.729ZM253.898 97.4398C253.438 98.7499 252.179 99.7203 250.702 99.7203C249.903 99.7203 249.177 99.4534 248.62 98.9925C247.433 99.9144 246.537 101.176 245.981 102.607C246.223 102.874 246.489 103.117 246.755 103.359C247.579 103.578 248.45 103.699 249.346 103.699C252.954 103.699 256.15 101.831 257.99 98.9925C256.78 98.1191 255.351 97.5611 253.898 97.4398" fill="#1287B1"/>
<path d="M254.019 96.5671L257.143 95.815L253.995 95.6452L256.562 93.7044L253.656 94.7476L255.618 92.0062L252.881 93.8257L253.826 90.6233L251.961 93.2677L251.913 89.9198L250.678 92.9038L249.661 89.8955L249.71 93.4375L247.942 90.2594L248.911 93.6316L246.029 91.5452L248.281 94.3837L244.697 93.0736L247.506 95.16L243.898 95.2813L247.603 96.2275L243.898 97.0281L247.555 97.2949L244.48 99.26L247.651 98.1198L245.448 100.91L248.233 98.6535L247.24 102.39L249.395 99.3328L249.104 102.923L250.315 99.6482L251.356 103.069L251.598 99.6239L253.148 102.559L252.228 99.2115L255.036 101.395L253.22 98.605L256.32 99.818L253.947 97.489L257.119 97.7316L254.019 96.5671V96.5671Z" fill="white"/>
<path d="M220.678 102.559C230.387 92.8305 238.135 89.8222 245.181 88.4636C246.101 88.2938 246.295 86.2317 246.295 86.2317C246.295 86.2317 246.416 87.7358 247.07 87.9299C247.724 88.124 248.571 85.5767 248.571 85.5767C248.571 85.5767 247.796 87.8571 248.571 88.0027C249.346 88.124 250.799 85.7707 250.799 85.7707C250.799 85.7707 250.218 87.7843 250.605 87.9299C250.992 88.0512 252.954 84.9944 252.954 84.9944C252.954 84.9944 251.791 87.008 252.881 87.2264C253.995 87.4204 255.617 85.8435 255.617 85.8435C255.617 85.8435 254.358 87.2749 254.915 87.4932C257.336 88.3423 259.273 85.2127 259.273 85.2127C259.273 85.2127 258.813 86.5956 257.651 88.0997C260.193 88.7548 262.082 84.9216 262.082 84.9216L260.193 88.7548C261.162 89.24 265.06 84.7275 265.06 84.7275C265.06 84.7275 263.051 88.2453 261.864 88.9731C262.518 89.5068 264.866 87.3962 264.866 87.3962C264.866 87.3962 262.978 89.7494 263.704 89.8707C264.745 90.7198 268.595 85.5039 268.595 85.5039C268.595 85.5039 267.094 88.5849 264.891 90.9867C266.731 91.9329 271.331 85.9891 271.331 85.9891C271.331 85.9891 271.21 87.8814 267.869 90.8897C270.339 90.5743 273.535 85.8678 273.535 85.8678C273.535 85.8678 272.373 89.3855 269.564 91.8843C271.985 91.6417 275.883 85.6252 275.883 85.6252C275.883 85.6252 274.382 89.798 271.331 92.224C274.721 92.9761 279.612 87.9056 279.612 87.9056C279.612 87.9056 277.699 91.4962 275.181 92.9761C277.99 94.0435 281.84 89.6039 281.84 89.6039C281.84 89.6039 277.99 95.5477 271.864 95.2808C269.854 95.1838 263.777 89.1672 250.75 89.6524C233.511 90.2832 229.879 97.6098 220.678 102.559Z" fill="#373535" fill-opacity="0.35"/>
<path d="M221.065 101.832C230.775 92.1033 238.523 89.095 245.569 87.7364C246.489 87.5666 246.683 85.5044 246.683 85.5044C246.683 85.5044 246.804 87.0086 247.458 87.2027C248.111 87.3968 248.959 84.8494 248.959 84.8494C248.959 84.8494 248.184 87.1299 248.959 87.2755C249.734 87.3968 251.186 85.0435 251.186 85.0435C251.186 85.0435 250.605 87.0571 250.993 87.2027C251.38 87.324 253.341 84.2672 253.341 84.2672C253.341 84.2672 252.179 86.2808 253.269 86.4991C254.383 86.6932 256.005 85.1163 256.005 85.1163C256.005 85.1163 254.746 86.5476 255.303 86.766C257.724 87.6151 259.661 84.4855 259.661 84.4855C259.661 84.4855 259.201 85.8684 258.039 87.3725C260.581 88.0275 262.47 84.1944 262.47 84.1944L260.581 88.0275C261.55 88.5613 265.472 84.0488 265.472 84.0488C265.472 84.0488 263.462 87.5666 262.276 88.2944C262.93 88.7553 265.278 86.6689 265.278 86.6689C265.278 86.6689 263.39 89.0222 264.116 89.1435C265.157 89.9926 269.007 84.7766 269.007 84.7766C269.007 84.7766 267.482 87.8577 265.278 90.2595C267.119 91.1814 271.743 85.2376 271.743 85.2376C271.743 85.2376 271.622 87.1299 268.281 90.1382C270.751 89.8228 273.947 85.1163 273.947 85.1163C273.947 85.1163 272.784 88.634 269.976 91.1329C272.397 90.8902 276.295 84.8737 276.295 84.8737C276.295 84.8737 274.794 89.0465 271.743 91.4725C275.133 92.2246 280.024 87.1542 280.024 87.1542C280.024 87.1542 278.111 90.7447 275.593 92.2246C278.402 93.292 282.252 88.8524 282.252 88.8524C282.252 88.8524 278.402 94.7962 272.276 94.5293C270.266 94.4323 264.189 88.4157 251.162 88.9009C233.923 89.5559 230.266 96.8583 221.065 101.832Z" fill="#373535"/>
<path d="M220.436 103.627C225.569 106.198 230.266 103.239 236.174 104.912C240.678 106.174 246.15 107.751 253.583 106.659C261.017 105.592 267.36 102.341 270.411 96.5669C271.356 93.9953 275.205 97.1492 275.205 97.1492C275.205 97.1492 272.397 95.9847 272.469 96.5184C272.542 97.0764 276.682 98.993 276.682 98.993C276.682 98.993 272.929 97.8285 273.171 98.7018C273.389 99.5752 277.869 103.117 277.869 103.117C277.869 103.117 272.76 99.2841 272.348 99.8178C271.912 100.352 274.503 102.462 274.503 102.462C274.503 102.462 270.242 99.8178 268.741 100.594C267.651 101.152 273.171 104.767 273.171 104.767C273.171 104.767 269.588 102.026 268.741 102.753C267.893 103.481 272.784 109.352 272.784 109.352C272.784 109.352 267.215 103.336 266.658 103.627C266.101 103.918 268.184 106.805 268.184 106.805C268.184 106.805 265.472 103.797 264.721 104.306C263.971 104.84 268.644 112.627 268.644 112.627C268.644 112.627 263.583 104.646 261.477 105.98C264.745 113.185 263.535 114.204 263.535 114.204C263.535 114.204 263.123 106.853 259.031 107.047C256.973 107.144 260 112.53 260 112.53C260 112.53 257.215 107.605 255.351 107.702C258.765 114.204 257.554 116.824 257.554 116.824C257.554 116.824 258.111 111.269 253.486 108.188C255.254 109.765 252.373 116.824 252.373 116.824C252.373 116.824 254.891 106.417 250.508 108.406C249.806 108.721 250.46 113.598 250.46 113.598C250.46 113.598 249.588 108.018 248.256 108.309C247.481 108.479 243.365 116.048 243.365 116.048C243.365 116.048 246.731 107.872 245.714 108.212C244.963 108.455 243.559 111.827 243.559 111.827C243.559 111.827 244.237 108.503 243.559 108.309C242.881 108.115 239.055 111.827 239.055 111.827C239.055 111.827 241.888 108.503 241.404 107.799C240.653 106.756 239.806 106.708 238.765 107.12C237.264 107.702 235.254 110.444 235.254 110.444C235.254 110.444 237.264 107.654 236.925 106.635C236.368 104.961 230.581 109.862 230.581 109.862C230.581 109.862 233.995 106.635 233.22 105.931C232.445 105.252 228.184 105.446 226.876 105.446C222.978 105.495 221.622 104.573 220.436 103.627" fill="#373535" fill-opacity="0.35"/>
<path d="M220.218 103.045C225.351 105.616 230.048 102.657 235.956 104.33C240.46 105.592 245.932 107.169 253.365 106.077C260.799 105.01 267.143 101.759 270.193 95.9849C271.138 93.4133 274.988 96.5672 274.988 96.5672C274.988 96.5672 272.179 95.4027 272.252 95.9364C272.324 96.4944 276.465 98.4109 276.465 98.4109C276.465 98.4109 272.712 97.2464 272.954 98.1198C273.172 98.9932 277.651 102.535 277.651 102.535C277.651 102.535 272.591 98.6778 272.179 99.2115C271.767 99.7453 274.334 101.856 274.334 101.856C274.334 101.856 270.072 99.2115 268.571 99.9879C267.482 100.546 273.002 104.161 273.002 104.161C273.002 104.161 269.419 101.419 268.571 102.147C267.724 102.875 272.615 108.746 272.615 108.746C272.615 108.746 267.07 102.729 266.513 103.02C265.956 103.312 268.039 106.199 268.039 106.199C268.039 106.199 265.278 103.214 264.528 103.724C263.777 104.258 268.426 112.045 268.426 112.045C268.426 112.045 263.365 104.039 261.283 105.374C264.576 112.603 263.341 113.622 263.341 113.622C263.341 113.622 262.93 106.271 258.838 106.465C256.779 106.562 259.806 111.948 259.806 111.948C259.806 111.948 257.046 107.048 255.181 107.145C258.595 113.646 257.385 116.267 257.385 116.267C257.385 116.267 257.942 110.711 253.317 107.63C255.085 109.207 252.203 116.267 252.203 116.267C252.203 116.267 254.721 105.859 250.339 107.848C249.637 108.164 250.29 113.04 250.29 113.04C250.29 113.04 249.419 107.46 248.087 107.751C247.312 107.921 243.196 115.49 243.196 115.49C243.196 115.49 246.562 107.314 245.545 107.654C244.794 107.897 243.39 111.269 243.39 111.269C243.39 111.269 244.068 107.945 243.39 107.751C242.712 107.557 238.886 111.269 238.886 111.269C238.886 111.269 241.719 107.945 241.235 107.242C240.484 106.199 239.637 106.15 238.595 106.562C237.094 107.145 235.085 109.886 235.085 109.886C235.085 109.886 237.094 107.096 236.755 106.077C236.198 104.403 230.411 109.304 230.411 109.304C230.411 109.304 233.825 106.077 233.051 105.374C232.276 104.694 228.014 104.888 226.707 104.888C222.76 104.913 221.404 103.991 220.218 103.045" fill="#373535"/>
</g>
<path d="M303.331 54H300.451V61H301.751V58.98H303.331C305.171 58.98 306.311 58.03 306.311 56.49C306.311 54.94 305.171 54 303.331 54ZM303.271 57.88H301.751V55.1H303.271C304.411 55.1 305.001 55.61 305.001 56.49C305.001 57.37 304.411 57.88 303.271 57.88ZM310.777 61.1C312.947 61.1 314.547 59.58 314.547 57.5C314.547 55.42 312.947 53.9 310.777 53.9C308.607 53.9 307.007 55.43 307.007 57.5C307.007 59.57 308.607 61.1 310.777 61.1ZM310.777 59.96C309.367 59.96 308.317 58.93 308.317 57.5C308.317 56.07 309.367 55.04 310.777 55.04C312.187 55.04 313.237 56.07 313.237 57.5C313.237 58.93 312.187 59.96 310.777 59.96ZM317.895 61.1C319.815 61.1 320.725 60.14 320.725 59.02C320.725 56.45 316.575 57.42 316.575 55.93C316.575 55.4 317.015 54.98 318.095 54.98C318.705 54.98 319.395 55.16 320.025 55.53L320.435 54.52C319.825 54.12 318.945 53.9 318.105 53.9C316.185 53.9 315.285 54.86 315.285 55.99C315.285 58.59 319.445 57.6 319.445 59.11C319.445 59.63 318.985 60.02 317.895 60.02C317.035 60.02 316.145 59.7 315.585 59.25L315.135 60.26C315.715 60.76 316.805 61.1 317.895 61.1ZM323.136 61H324.436V55.1H326.756V54H320.816V55.1H323.136V61ZM332.214 59.6C331.764 59.86 331.274 59.96 330.774 59.96C329.294 59.96 328.244 58.92 328.244 57.5C328.244 56.05 329.294 55.04 330.784 55.04C331.534 55.04 332.164 55.29 332.714 55.84L333.534 55.04C332.874 54.29 331.894 53.9 330.724 53.9C328.534 53.9 326.934 55.41 326.934 57.5C326.934 59.59 328.534 61.1 330.704 61.1C331.694 61.1 332.714 60.8 333.444 60.21V57.42H332.214V59.6ZM340.939 61L339.329 58.7C340.279 58.33 340.819 57.55 340.819 56.49C340.819 54.94 339.679 54 337.839 54H334.959V61H336.259V58.96H337.839C337.929 58.96 338.019 58.96 338.109 58.95L339.539 61H340.939ZM339.509 56.49C339.509 57.37 338.919 57.89 337.779 57.89H336.259V55.1H337.779C338.919 55.1 339.509 55.61 339.509 56.49ZM343.373 59.91V57.98H346.753V56.91H343.373V55.09H347.183V54H342.073V61H347.323V59.91H343.373ZM353.306 61.1C355.226 61.1 356.136 60.14 356.136 59.02C356.136 56.45 351.986 57.42 351.986 55.93C351.986 55.4 352.426 54.98 353.506 54.98C354.116 54.98 354.806 55.16 355.436 55.53L355.846 54.52C355.236 54.12 354.356 53.9 353.516 53.9C351.596 53.9 350.696 54.86 350.696 55.99C350.696 58.59 354.856 57.6 354.856 59.11C354.856 59.63 354.396 60.02 353.306 60.02C352.446 60.02 351.556 59.7 350.996 59.25L350.546 60.26C351.126 60.76 352.216 61.1 353.306 61.1ZM364.015 60.98C363.675 61.35 363.275 61.54 362.815 61.54C362.405 61.54 362.045 61.38 361.645 60.95C363.205 60.51 364.265 59.19 364.265 57.5C364.265 55.42 362.665 53.9 360.495 53.9C358.325 53.9 356.725 55.43 356.725 57.5C356.725 59.44 358.135 60.91 360.095 61.08C361.125 62.16 361.835 62.53 362.785 62.53C363.525 62.53 364.155 62.24 364.615 61.7L364.015 60.98ZM358.035 57.5C358.035 56.07 359.085 55.04 360.495 55.04C361.905 55.04 362.955 56.07 362.955 57.5C362.955 58.93 361.905 59.96 360.495 59.96C359.085 59.96 358.035 58.93 358.035 57.5ZM365.443 61H370.403V59.9H366.743V54H365.443V61Z" fill="#336791"/>
<path d="M357.718 28.5942C357.448 27.7808 356.743 27.2143 355.83 27.0784C355.399 27.0143 354.906 27.0416 354.323 27.1615C353.306 27.3705 352.551 27.4501 352.001 27.4655C354.079 23.9691 355.769 19.9818 356.742 16.2285C358.315 10.1595 357.474 7.3947 356.492 6.14412C353.892 2.83397 350.1 1.05573 345.524 1.00132C343.083 0.971575 340.94 1.45183 339.823 1.79719C338.782 1.61418 337.663 1.51201 336.489 1.49312C334.288 1.45812 332.343 1.93628 330.681 2.919C329.761 2.60898 328.285 2.17194 326.58 1.89306C322.569 1.23698 319.337 1.7482 316.973 3.41255C314.11 5.42768 312.783 8.92888 313.029 13.8189C313.107 15.3714 313.978 20.0952 315.35 24.5751C316.139 27.1501 316.98 29.2884 317.85 30.9312C319.084 33.2607 320.404 34.6326 321.886 35.1252C322.716 35.401 324.225 35.5941 325.813 34.2767C326.014 34.5195 326.282 34.7608 326.638 34.9849C327.091 35.2692 327.644 35.5016 328.197 35.6393C330.188 36.1352 332.053 36.0112 333.644 35.3159C333.654 35.598 333.661 35.8674 333.667 36.1001C333.678 36.4775 333.689 36.8475 333.702 37.1936C333.797 39.5334 333.956 41.3528 334.43 42.6257C334.456 42.6957 334.491 42.8024 334.528 42.9156C334.764 43.6361 335.159 44.8422 336.163 45.7868C337.203 46.7653 338.462 47.0654 339.614 47.0654C340.192 47.0654 340.743 46.9898 341.227 46.8866C342.951 46.5183 344.909 45.9574 346.326 43.9475C347.665 42.0475 348.316 39.1858 348.434 34.6766C348.449 34.5491 348.463 34.4273 348.476 34.3113L348.505 34.0731L348.82 34.1007L348.901 34.1061C350.657 34.1859 352.804 33.8148 354.123 33.2044C355.165 32.7226 358.504 30.9659 357.718 28.5942" fill="black"/>
<path d="M354.717 29.0559C349.495 30.1293 349.136 28.3677 349.136 28.3677C354.649 20.216 356.954 9.86863 354.965 7.33615C349.539 0.428055 340.148 3.69516 339.991 3.77984L339.94 3.78894C338.909 3.5755 337.755 3.44848 336.457 3.42731C334.095 3.38882 332.302 4.04455 330.942 5.07224C330.942 5.07224 314.188 -1.80595 314.968 13.7227C315.134 17.0262 319.719 38.7191 325.189 32.1668C327.188 29.7708 329.12 27.745 329.12 27.745C330.079 28.3801 331.227 28.7041 332.431 28.5878L332.525 28.5087C332.496 28.8061 332.509 29.0971 332.562 29.4415C331.153 31.0104 331.567 31.2857 328.751 31.8636C325.9 32.449 327.575 33.4911 328.668 33.7636C329.993 34.0938 333.059 34.5616 335.131 31.6715L335.049 32.0013C335.601 32.442 335.988 34.8676 335.923 37.0666C335.858 39.2654 335.815 40.7751 336.25 41.9543C336.685 43.1335 337.118 45.7867 340.821 44.9961C343.915 44.3353 345.519 42.623 345.742 39.7667C345.9 37.7362 346.258 38.0364 346.281 36.2209L346.568 35.3615C346.9 32.6089 346.621 31.7209 348.527 32.1339L348.991 32.1745C350.393 32.238 352.23 31.9495 353.308 31.4504C355.628 30.3772 357.005 28.5851 354.716 29.0559H354.717" fill="#336791"/>
<path d="M331.922 15.1999C331.452 15.1346 331.026 15.195 330.81 15.3577C330.689 15.4492 330.651 15.5552 330.641 15.6282C330.614 15.8215 330.75 16.0353 330.834 16.1455C331.07 16.4576 331.415 16.6721 331.757 16.7193C331.806 16.7263 331.856 16.7295 331.905 16.7295C332.474 16.7295 332.992 16.2874 333.038 15.9611C333.095 15.5524 332.5 15.28 331.922 15.2V15.1999ZM347.51 15.2128C347.465 14.8925 346.893 14.8011 346.35 14.8764C345.808 14.9516 345.282 15.1955 345.326 15.5165C345.361 15.7662 345.813 16.1924 346.349 16.1924C346.394 16.1924 346.44 16.1894 346.486 16.1829C346.843 16.1336 347.106 15.9074 347.23 15.777C347.42 15.5783 347.53 15.3568 347.51 15.2128" fill="white"/>
<path d="M356.452 28.9329C356.253 28.3329 355.612 28.14 354.548 28.359C351.387 29.0091 350.255 28.5588 349.883 28.2861C352.34 24.556 354.361 20.0471 355.452 15.8403C355.968 13.8475 356.254 11.9969 356.277 10.4884C356.303 8.83281 356.02 7.61617 355.436 6.87297C353.083 3.87686 349.63 2.26973 345.45 2.22564C342.576 2.19345 340.148 2.92633 339.677 3.13243C338.686 2.88679 337.605 2.73598 336.429 2.71674C334.272 2.68192 332.407 3.19664 330.863 4.24584C330.192 3.99706 328.459 3.40413 326.34 3.06385C322.675 2.476 319.763 2.92143 317.685 4.38843C315.206 6.13903 314.061 9.26827 314.283 13.689C314.357 15.1763 315.208 19.7517 316.55 24.1335C318.316 29.9007 320.237 33.1655 322.257 33.8372C322.494 33.9158 322.766 33.9707 323.067 33.9707C323.804 33.9707 324.708 33.6397 325.648 32.5133C326.795 31.1425 327.981 29.8049 329.205 28.5023C329.999 28.9271 330.872 29.1643 331.764 29.1881C331.766 29.2114 331.768 29.2347 331.77 29.2578C331.617 29.4403 331.466 29.6255 331.319 29.8132C330.701 30.5955 330.572 30.7583 328.582 31.1667C328.015 31.2832 326.512 31.592 326.49 32.6424C326.466 33.7901 328.267 34.2721 328.472 34.3232C329.188 34.5017 329.877 34.5897 330.534 34.5897C332.132 34.5897 333.539 34.0662 334.662 33.0534C334.628 37.1449 334.799 41.1766 335.292 42.4049C335.696 43.4106 336.682 45.8681 339.798 45.868C340.255 45.868 340.758 45.815 341.312 45.6967C344.563 45.0021 345.975 43.5699 346.521 40.4125C346.814 38.7251 347.315 34.6957 347.551 32.5343C348.049 32.6891 348.69 32.76 349.383 32.7598C350.828 32.7598 352.496 32.4538 353.542 31.9701C354.717 31.4263 356.837 30.0921 356.452 28.9329V28.9329ZM348.709 14.3276C348.698 14.9657 348.61 15.545 348.517 16.1496C348.416 16.7999 348.312 17.4723 348.286 18.2884C348.26 19.0827 348.36 19.9085 348.456 20.7072C348.65 22.3203 348.85 23.9809 348.077 25.6196C347.949 25.3929 347.835 25.1587 347.735 24.9182C347.639 24.6862 347.431 24.3135 347.142 23.7978C346.018 21.79 343.387 17.0882 344.734 15.1697C345.135 14.5986 346.153 14.0115 348.709 14.3276V14.3276ZM345.611 3.51768C349.357 3.60008 352.32 4.9964 354.417 7.66761C356.026 9.71651 354.254 19.0393 349.126 27.0822C349.074 27.0168 349.022 26.9517 348.97 26.8868L348.905 26.8059C350.231 24.6248 349.971 22.4667 349.741 20.5534C349.646 19.7682 349.556 19.0266 349.579 18.3299C349.603 17.5916 349.701 16.9582 349.796 16.3459C349.912 15.5913 350.03 14.8105 349.998 13.8901C350.022 13.7935 350.032 13.6794 350.019 13.544C349.936 12.6614 348.925 10.0197 346.863 7.62877C345.736 6.32098 344.092 4.85749 341.847 3.87039C342.812 3.67094 344.133 3.48496 345.611 3.51768V3.51768ZM324.653 31.6889C323.617 32.9301 322.902 32.6921 322.667 32.6141C321.134 32.1046 319.355 28.8763 317.787 23.7572C316.431 19.3277 315.638 14.8735 315.575 13.6245C315.377 9.67434 316.338 6.92143 318.431 5.44201C321.838 3.03463 327.439 4.47556 329.689 5.20635C329.657 5.23819 329.623 5.26793 329.591 5.3003C325.898 9.01704 325.986 15.3672 325.995 15.7554C325.994 15.9052 326.007 16.1172 326.024 16.4089C326.088 17.477 326.206 19.4648 325.89 21.716C325.597 23.8079 326.244 25.8554 327.665 27.3336C327.811 27.485 327.964 27.6291 328.125 27.7654C327.492 28.4407 326.117 29.9341 324.653 31.6889V31.6889ZM328.599 26.4415C327.454 25.2501 326.933 23.5929 327.172 21.8944C327.505 19.5164 327.382 17.4453 327.316 16.3326C327.307 16.1769 327.298 16.0404 327.294 15.9328C327.833 15.4561 330.333 14.1212 332.116 14.5283C332.93 14.7139 333.426 15.2661 333.632 16.2157C334.698 21.1325 333.773 23.1817 333.029 24.8286C332.876 25.1678 332.731 25.4885 332.607 25.8202L332.512 26.0767C332.269 26.7251 332.043 27.328 331.903 27.9004C330.685 27.897 329.5 27.3784 328.599 26.4413V26.4415ZM328.786 33.0723C328.431 32.9838 328.111 32.83 327.923 32.7024C328.08 32.629 328.359 32.5289 328.843 32.4295C331.184 31.9493 331.546 31.6102 332.336 30.611C332.517 30.3818 332.722 30.1222 333.006 29.8059L333.006 29.8055C333.43 29.3332 333.623 29.4133 333.974 29.5585C334.259 29.6757 334.536 30.0312 334.649 30.4224C334.702 30.6072 334.761 30.9578 334.566 31.2307C332.916 33.5324 330.513 33.5029 328.786 33.0723V33.0723ZM341.041 44.436C338.176 45.0476 337.162 43.5911 336.493 41.9261C336.062 40.8511 335.85 36.0038 336 30.6507C336.002 30.5795 335.992 30.5108 335.973 30.446C335.955 30.3182 335.928 30.1918 335.892 30.0678C335.669 29.2889 335.124 28.6374 334.47 28.3672C334.21 28.26 333.733 28.0632 333.16 28.2092C333.282 27.7075 333.494 27.1408 333.724 26.5272L333.82 26.2692C333.929 25.9782 334.065 25.6768 334.209 25.3577C334.987 23.6347 336.053 21.2747 334.896 15.9433C334.463 13.9464 333.016 12.9712 330.823 13.1978C329.508 13.3334 328.304 13.8621 327.704 14.1653C327.575 14.2303 327.457 14.2933 327.347 14.3546C327.515 12.3426 328.147 8.58245 330.514 6.20341C332.005 4.7058 333.989 3.96609 336.408 4.00598C341.172 4.08366 344.228 6.52043 345.952 8.55113C347.438 10.3009 348.243 12.0635 348.564 13.0142C346.149 12.7695 344.507 13.2445 343.674 14.4307C341.863 17.0109 344.665 22.0188 346.012 24.4257C346.259 24.8667 346.472 25.248 346.539 25.41C346.978 26.4691 347.545 27.1763 347.96 27.6924C348.087 27.8506 348.21 28.004 348.304 28.138C347.573 28.3482 346.259 28.8337 346.379 31.2605C346.282 32.4781 345.595 38.1792 345.246 40.1935C344.786 42.8546 343.803 43.8457 341.041 44.4361V44.436ZM352.997 30.8007C352.249 31.1466 350.998 31.406 349.809 31.4618C348.495 31.5231 347.827 31.3152 347.67 31.1873C347.596 29.675 348.161 29.517 348.758 29.3498C348.852 29.3235 348.944 29.2978 349.033 29.267C349.087 29.3116 349.148 29.3559 349.214 29.3993C350.269 30.0935 352.152 30.1684 354.81 29.6217L354.839 29.6159C354.48 29.9499 353.867 30.3981 352.997 30.8007Z" fill="white"/>
<path fill-rule="evenodd" clip-rule="evenodd" d="M421 42.1533H423.871V30.779L428.355 40.696C428.863 41.888 429.592 42.3301 431.006 42.3301C432.419 42.3301 433.104 41.888 433.634 40.696L438.096 30.779V42.1533H440.989V30.779C440.989 29.6751 440.547 29.1439 439.62 28.8568C437.433 28.1945 435.975 28.7687 435.313 30.2484L430.918 40.0554L426.677 30.2484C426.036 28.7692 424.556 28.195 422.348 28.8568C421.443 29.1439 421 29.6746 421 30.779V42.1533H421V42.1533ZM443.374 32.8992H446.268V39.15C446.246 39.5029 446.378 40.2985 447.946 40.3197C448.764 40.342 454.175 40.3197 454.219 40.3197V32.8547H457.112V43.081C457.112 45.5987 453.998 46.1507 452.54 46.173H443.44V44.2518H452.562C454.417 44.0528 454.197 43.1256 454.197 42.8162V42.0647H448.079C445.229 42.0424 443.396 40.7836 443.374 39.348C443.374 39.2158 443.44 32.9428 443.374 32.8992ZM505.438 25.6545C503.672 25.6104 502.302 25.7872 501.153 26.2733C500.823 26.4064 500.292 26.4064 500.248 26.8257C500.425 27.0015 500.446 27.2891 500.601 27.5326C500.866 27.9747 501.33 28.5702 501.75 28.8796C502.214 29.2335 502.678 29.5865 503.163 29.8959C504.024 30.4256 504.996 30.735 505.835 31.2651C506.321 31.5745 506.807 31.9721 507.293 32.3037C507.536 32.4804 507.691 32.7681 508 32.878V32.8111C507.846 32.6131 507.801 32.326 507.647 32.1042C507.426 31.8839 507.205 31.6844 506.984 31.4642C506.344 30.6028 505.548 29.8513 504.686 29.2335C503.979 28.7474 502.433 28.0851 502.146 27.2678L502.103 27.2232C502.588 27.1787 503.163 27.002 503.626 26.8693C504.378 26.6713 505.062 26.7148 505.835 26.5163C506.189 26.4277 506.542 26.3173 506.896 26.2069V26.0084C506.498 25.6109 506.211 25.0807 505.792 24.7055C504.665 23.7338 503.428 22.7838 502.147 21.9888C501.462 21.5472 500.579 21.2596 499.85 20.8849C499.584 20.7522 499.143 20.6859 498.989 20.4651C498.59 19.9795 498.37 19.3389 498.083 18.7642C497.443 17.5494 496.824 16.2024 496.272 14.9213C495.875 14.0599 495.631 13.1985 495.146 12.4035C492.871 8.64873 490.397 6.37357 486.598 4.14297C485.781 3.67913 484.809 3.48013 483.771 3.23756C483.219 3.21528 482.667 3.17123 482.114 3.14895C481.76 2.9945 481.407 2.57472 481.098 2.37571C479.839 1.5807 476.592 -0.142008 475.664 2.13265C475.068 3.56824 476.548 4.98155 477.056 5.71073C477.432 6.21863 477.917 6.79286 478.183 7.3671C478.337 7.74233 478.381 8.14033 478.536 8.53784C478.889 9.50958 479.22 10.5917 479.684 11.4976C479.927 11.9615 480.192 12.4476 480.501 12.8674C480.678 13.1104 480.987 13.2208 481.053 13.6183C480.744 14.0604 480.722 14.7227 480.546 15.2752C479.75 17.7711 480.06 20.8631 481.186 22.6962C481.54 23.2481 482.379 24.4629 483.505 23.9991C484.499 23.6016 484.278 22.3427 484.565 21.2383C484.632 20.9735 484.588 20.7968 484.72 20.62V20.6641C485.029 21.2824 485.339 21.8789 485.626 22.4972C486.31 23.5793 487.503 24.706 488.497 25.457C489.027 25.8545 489.447 26.5396 490.109 26.7822V26.7153H490.066C489.933 26.5173 489.734 26.4287 489.557 26.2738C489.16 25.8763 488.718 25.3901 488.409 24.9486C487.482 23.712 486.665 22.3422 485.936 20.9289C485.582 20.2443 485.272 19.4933 484.986 18.8087C484.852 18.5434 484.852 18.1459 484.632 18.0137C484.3 18.4993 483.815 18.9196 483.571 19.5156C483.151 20.4651 483.108 21.6358 482.953 22.8506C482.864 22.8729 482.909 22.8506 482.864 22.8947C482.158 22.7185 481.915 21.9893 481.65 21.371C480.988 19.8027 480.877 17.285 481.451 15.4737C481.606 15.0099 482.269 13.552 482.004 13.1104C481.87 12.6906 481.43 12.4481 481.186 12.1164C480.899 11.6966 480.591 11.1669 480.392 10.7031C479.862 9.46602 479.597 8.09677 479.022 6.85969C478.757 6.28546 478.293 5.68895 477.918 5.15927C477.498 4.56276 477.035 4.14297 476.703 3.43656C476.593 3.1935 476.438 2.79599 476.615 2.53115C476.659 2.35443 476.748 2.28809 476.924 2.24404C477.211 2.00098 478.028 2.31037 478.316 2.44254C479.132 2.77372 479.817 3.08311 480.502 3.54646C480.811 3.76724 481.143 4.18703 481.54 4.29791H482.005C482.711 4.45236 483.506 4.34197 484.168 4.54048C485.339 4.91621 486.399 5.46816 487.349 6.06467C490.242 7.89777 492.628 10.5041 494.24 13.6183C494.505 14.1262 494.615 14.5901 494.859 15.1203C495.323 16.2029 495.898 17.3068 496.36 18.3672C496.825 19.4052 497.266 20.4656 497.929 21.3269C498.26 21.7908 499.585 22.0333 500.181 22.2764C500.624 22.4749 501.308 22.6521 501.706 22.8947C502.457 23.3585 503.208 23.8887 503.915 24.3966C504.267 24.661 505.372 25.2129 505.438 25.6545V25.6545Z" fill="#00678C"/>
<path fill-rule="evenodd" clip-rule="evenodd" d="M482.91 6.46094C482.535 6.46094 482.27 6.505 482.005 6.57133V6.61539H482.048C482.225 6.96884 482.535 7.2119 482.755 7.5208C482.932 7.87425 483.087 8.2277 483.264 8.58115L483.307 8.5371C483.617 8.31631 483.772 7.96286 483.772 7.43268C483.639 7.27823 483.617 7.12329 483.507 6.96884C483.374 6.74806 483.087 6.63766 482.91 6.46094V6.46094Z" fill="#00678C"/>
<path fill-rule="evenodd" clip-rule="evenodd" d="M459.32 42.1534H467.625C468.597 42.1534 469.525 41.9554 470.275 41.6015C471.534 41.0272 472.131 40.2545 472.131 39.2387V37.1185C472.131 36.3017 471.446 35.528 470.077 34.9983C469.37 34.7334 468.487 34.5785 467.625 34.5785H464.136C462.965 34.5785 462.413 34.2245 462.258 33.4523C462.237 33.3642 462.237 33.2756 462.237 33.1874V31.884C462.237 31.8172 462.237 31.7296 462.258 31.6415C462.413 31.045 462.722 30.89 463.738 30.7801H472.242V28.8579H464.157C462.986 28.8579 462.368 28.9247 461.816 29.1015C460.115 29.6312 459.364 30.4707 459.364 31.9499V33.6295C459.364 34.9319 460.822 36.0368 463.296 36.3017C463.561 36.324 463.848 36.324 464.135 36.324H467.117C467.227 36.324 467.337 36.324 467.425 36.3462C468.331 36.4344 468.729 36.5888 468.994 36.9195C469.17 37.0962 469.215 37.2511 469.215 37.4501V39.1288C469.215 39.3268 469.082 39.5931 468.817 39.8134C468.552 40.0337 468.132 40.1887 467.58 40.2109C467.469 40.2109 467.404 40.2332 467.293 40.2332H459.32V42.1534V42.1534ZM490.109 38.8189C490.109 40.7847 491.589 41.8886 494.549 42.1099C494.836 42.1321 495.101 42.1534 495.388 42.1534H502.897V40.2322H495.322C493.642 40.2322 493.002 39.8124 493.002 38.7966V28.8574H490.108V38.8189H490.109V38.8189ZM473.963 38.9065V32.0603C473.963 30.3153 475.2 29.2544 477.608 28.9238C477.873 28.9015 478.138 28.8792 478.381 28.8792H483.858C484.145 28.8792 484.389 28.9015 484.676 28.9238C487.083 29.2544 488.297 30.3153 488.297 32.0603V38.9065C488.297 40.3198 487.79 41.0713 486.596 41.5797L489.424 44.141H486.089L483.792 42.0653L481.472 42.198H478.38C477.873 42.198 477.298 42.1321 476.701 41.9777C474.869 41.4688 473.963 40.4971 473.963 38.9065V38.9065ZM477.078 38.7531C477.078 38.8412 477.122 38.9288 477.144 39.0402C477.299 39.8347 478.049 40.2768 479.198 40.2768H481.805L479.42 38.112H482.754L484.852 40.0119C485.25 39.7907 485.493 39.4813 485.581 39.0838C485.603 38.9956 485.603 38.8857 485.603 38.7966V32.2365C485.603 32.1484 485.603 32.0608 485.581 31.9717C485.427 31.2212 484.676 30.8019 483.55 30.8019H479.198C477.917 30.8019 477.078 31.3539 477.078 32.2365V38.7531ZM504.223 42.1757H504.643V40.5639H505.195V40.2322H503.649V40.5639H504.223V42.1757V42.1757ZM507.425 42.1757H507.823V40.2322H507.227L506.741 41.5579L506.211 40.2322H505.637V42.1757H506.013V40.6966H506.035L506.587 42.1757H506.874L507.426 40.6966V42.1757H507.425V42.1757Z" fill="#CE8B2C"/>
<path fill-rule="evenodd" clip-rule="evenodd" d="M491.016 95.6431C490.871 95.6729 490.724 96.0015 490.724 96.1805C490.695 97.3756 490.666 100.542 490.666 102.693C490.666 102.753 490.754 102.872 490.841 102.872C491.279 102.902 492.331 102.932 493.237 102.932C494.493 102.932 495.223 102.753 495.632 102.574C496.683 102.036 497.18 100.871 497.18 99.5858C497.18 96.6887 495.194 95.5832 492.243 95.5832C492.039 95.5535 491.455 95.5535 491.016 95.6431V95.6431ZM498.553 108.996C498.553 106.039 496.421 104.395 492.565 104.395C492.389 104.395 491.163 104.366 490.87 104.425C490.783 104.455 490.666 104.515 490.666 104.605C490.666 106.725 490.637 110.101 490.724 111.416C490.783 111.983 491.192 112.79 491.689 113.029C492.214 113.327 493.412 113.387 494.23 113.387C496.537 113.387 498.553 112.073 498.553 108.996V108.996ZM485.058 94.0003C485.35 94.0003 486.226 94.0897 488.475 94.0897C490.608 94.0897 492.302 94.0301 494.376 94.0301C496.917 94.0301 500.422 94.9559 500.422 98.8394C500.422 100.751 499.108 102.275 497.384 103.022C497.297 103.051 497.297 103.111 497.384 103.141C499.838 103.768 502 105.322 502 108.249C502 111.117 500.247 112.939 497.706 114.074C496.158 114.761 494.23 115 492.273 115C490.783 115 486.781 114.821 484.561 114.881C484.327 114.791 484.766 113.716 484.97 113.537C485.496 113.506 485.904 113.477 486.46 113.297C487.248 113.089 487.336 112.849 487.453 111.625C487.511 110.579 487.511 106.875 487.511 104.246C487.511 100.632 487.541 98.1823 487.511 96.9875C487.482 96.0617 487.161 95.7626 486.518 95.5832C486.021 95.4939 485.204 95.3741 484.532 95.2848C484.385 95.1352 484.882 94.1194 485.058 94.0003ZM468.202 112.581C468.904 113.148 470.277 113.387 471.504 113.387C473.081 113.387 474.658 113.089 476.177 111.684C477.726 110.251 478.806 108.04 478.806 104.515C478.806 101.139 477.55 98.3911 474.98 96.7784C473.519 95.8519 471.65 95.4641 469.488 95.4641C468.845 95.4641 468.232 95.4939 467.852 95.6729C467.764 95.7328 467.56 96.0015 467.56 96.1507C467.502 96.7482 467.502 101.348 467.502 104.037C467.502 106.815 467.502 110.699 467.56 111.147C467.56 111.595 467.764 112.282 468.203 112.581H468.202ZM461.571 94C462.127 94 464.259 94.0897 465.281 94.0897C467.122 94.0897 468.436 94.0003 471.912 94.0003C474.833 94.0003 477.287 94.8067 479.04 96.33C481.172 98.212 482.283 100.811 482.283 103.977C482.283 108.488 480.267 111.087 478.251 112.581C476.236 114.104 473.607 115 469.868 115C467.881 115 464.464 114.94 461.63 114.91H461.601C461.455 114.642 461.834 113.596 462.068 113.566C462.828 113.477 463.032 113.447 463.412 113.298C464.025 113.058 464.142 112.73 464.23 111.625C464.317 109.563 464.288 107.084 464.288 104.276C464.288 102.275 464.317 98.3613 464.259 97.1066C464.172 96.0613 463.733 95.7924 462.857 95.613C462.419 95.5237 461.835 95.4039 461.017 95.3146C460.9 95.1051 461.426 94.1793 461.571 94.0003V94Z" fill="#8E714E"/>
<path fill-rule="evenodd" clip-rule="evenodd" d="M427.762 113.028C427.034 112.944 426.51 112.832 425.869 112.551C425.782 112.495 425.636 112.215 425.636 112.103C425.578 111.121 425.578 108.318 425.578 106.439C425.578 104.925 425.316 103.607 424.646 102.682C423.859 101.616 422.724 101 421.267 101C419.986 101 418.268 101.841 416.841 103.019C416.812 103.047 416.579 103.243 416.608 102.934C416.608 102.626 416.666 102.009 416.695 101.589C416.725 101.196 416.491 101 416.491 101C415.56 101.448 412.939 102.037 411.977 102.121C411.279 102.262 411.104 102.906 411.832 103.131H411.861C412.647 103.355 413.172 103.607 413.579 103.86C413.87 104.084 413.841 104.392 413.841 104.645C413.87 106.747 413.87 109.972 413.783 111.738C413.754 112.439 413.55 112.691 413.026 112.804L413.084 112.776C412.676 112.86 412.356 112.944 411.861 113C411.686 113.168 411.686 114.065 411.861 114.262C412.181 114.262 413.87 114.177 415.269 114.177C417.191 114.177 418.181 114.262 418.676 114.262C418.879 114.037 418.938 113.196 418.821 113C418.268 112.972 417.86 112.916 417.482 112.804C416.958 112.691 416.812 112.439 416.782 111.85C416.725 110.364 416.725 107.224 416.725 105.093C416.725 104.505 416.899 104.224 417.074 104.056C417.744 103.495 418.821 103.103 419.782 103.103C420.714 103.103 421.326 103.383 421.792 103.748C422.432 104.252 422.636 104.981 422.724 105.514C422.869 106.719 422.811 109.103 422.811 111.177C422.811 112.299 422.724 112.579 422.287 112.719C422.083 112.804 421.559 112.916 420.947 112.972C420.743 113.168 420.802 114.037 420.947 114.234C421.792 114.234 422.782 114.149 424.238 114.149C426.043 114.149 427.209 114.234 427.675 114.234C427.82 114.065 427.878 113.252 427.762 113.028V113.028ZM435.829 102.318C434.285 102.318 433.324 103.467 433.324 105.261C433.324 107.084 434.169 109.187 436.557 109.187C436.964 109.187 437.722 109.019 438.071 108.626C438.624 108.122 439.003 107.112 439.003 106.047C439.003 103.72 437.809 102.318 435.829 102.318V102.318ZM435.625 114.71C435.042 114.71 434.634 114.878 434.372 115.019C433.149 115.775 432.596 116.504 432.596 117.374C432.596 118.187 432.916 118.831 433.615 119.392C434.46 120.093 435.625 120.43 437.11 120.43C440.08 120.43 441.391 118.888 441.391 117.374C441.391 116.308 440.837 115.607 439.702 115.215C438.887 114.878 437.401 114.71 435.625 114.71V114.71ZM435.829 122C434.052 122 432.771 121.635 431.664 120.822C430.586 120.037 430.121 118.86 430.121 118.047C430.121 117.822 430.179 117.205 430.703 116.645C431.023 116.308 431.723 115.663 433.383 114.57C433.441 114.542 433.47 114.514 433.47 114.458C433.47 114.402 433.411 114.345 433.353 114.318C431.985 113.813 431.577 113 431.46 112.551V112.495C431.431 112.327 431.373 112.159 431.635 111.991C431.839 111.85 432.13 111.682 432.45 111.486C432.945 111.205 433.47 110.897 433.79 110.645C433.848 110.589 433.848 110.533 433.848 110.477C433.848 110.42 433.79 110.364 433.732 110.337C431.694 109.691 430.674 108.233 430.674 106.047C430.674 104.617 431.344 103.327 432.538 102.514C433.353 101.897 435.392 101.14 436.731 101.14H436.819C438.188 101.168 438.945 101.448 440.022 101.813C440.605 102.009 441.158 102.093 441.915 102.093C443.051 102.093 443.546 101.757 443.953 101.365C443.983 101.42 444.041 101.561 444.07 101.925C444.099 102.29 443.983 102.822 443.692 103.215C443.459 103.523 442.934 103.748 442.41 103.748H442.264C441.74 103.692 441.507 103.635 441.507 103.635L441.391 103.692C441.362 103.748 441.391 103.804 441.42 103.888L441.449 103.944C441.507 104.196 441.624 104.953 441.624 105.15C441.624 107.449 440.663 108.458 439.644 109.215C438.653 109.916 437.518 110.364 436.236 110.477C436.207 110.477 436.091 110.477 435.829 110.505C435.683 110.505 435.479 110.533 435.45 110.533H435.421C435.188 110.589 434.606 110.869 434.606 111.346C434.606 111.766 434.868 112.271 436.12 112.355C436.382 112.383 436.644 112.383 436.935 112.411C438.595 112.523 440.663 112.663 441.624 112.972C442.964 113.448 443.808 114.598 443.808 115.972C443.808 118.047 442.265 119.981 439.702 121.187C438.45 121.72 437.197 122 435.829 122V122ZM452.428 102.458C451.817 102.458 451.263 102.598 450.855 102.878C449.72 103.551 449.137 104.897 449.137 106.86C449.137 110.533 451.059 113.112 453.797 113.112C454.612 113.112 455.253 112.888 455.806 112.439C456.651 111.766 457.088 110.42 457.088 108.542C457.088 104.897 455.195 102.458 452.428 102.458L452.428 102.458ZM452.953 114.458C448.002 114.458 446.225 110.953 446.225 107.673C446.225 105.374 447.186 103.607 449.108 102.346C450.477 101.533 452.108 101.084 453.564 101.084C457.35 101.084 460 103.692 460 107.449C460 110 458.952 112.018 456.942 113.252C455.981 113.869 454.321 114.458 452.952 114.458H452.953V114.458ZM401.057 102.458C400.445 102.458 399.892 102.598 399.484 102.878C398.349 103.551 397.766 104.897 397.766 106.86C397.766 110.533 399.688 113.112 402.426 113.112C403.241 113.112 403.882 112.888 404.435 112.439C405.279 111.766 405.716 110.42 405.716 108.542C405.716 104.897 403.853 102.458 401.057 102.458ZM401.581 114.458C396.63 114.458 394.854 110.953 394.854 107.673C394.854 105.374 395.815 103.607 397.737 102.346C399.106 101.533 400.737 101.084 402.193 101.084C405.979 101.084 408.629 103.692 408.629 107.449C408.629 110 407.58 112.018 405.571 113.252C404.639 113.869 402.979 114.458 401.581 114.458ZM368.294 114.177C368.236 114.094 368.178 113.841 368.207 113.533C368.207 113.308 368.265 113.168 368.294 113.112C368.906 113.028 369.226 112.944 369.576 112.86C370.158 112.719 370.391 112.411 370.42 111.71C370.508 110.028 370.508 106.832 370.479 104.617V104.561C370.479 104.308 370.479 104 370.158 103.775C369.692 103.495 369.139 103.243 368.411 103.046C368.149 102.963 367.974 102.822 368.003 102.654C368.003 102.486 368.178 102.29 368.557 102.234C369.518 102.149 372.022 101.561 373.012 101.14C373.07 101.196 373.158 101.365 373.158 101.589L373.129 101.897C373.099 102.206 373.07 102.57 373.07 102.934C373.07 103.047 373.187 103.131 373.303 103.131C373.362 103.131 373.42 103.103 373.478 103.075C375.342 101.673 377.031 101.168 377.904 101.168C379.332 101.168 380.439 101.813 381.283 103.159C381.341 103.243 381.399 103.271 381.487 103.271C381.545 103.271 381.632 103.243 381.661 103.187C383.38 101.925 385.098 101.168 386.233 101.168C388.942 101.168 390.544 103.103 390.544 106.383C390.544 107.308 390.544 108.514 390.515 109.608C390.515 110.589 390.486 111.486 390.486 112.131C390.486 112.271 390.689 112.719 391.009 112.804C391.417 113 391.971 113.084 392.699 113.196H392.728C392.786 113.392 392.67 114.121 392.553 114.262C392.378 114.262 392.116 114.262 391.825 114.234C391.088 114.197 390.35 114.178 389.612 114.177C387.806 114.177 386.874 114.205 385.971 114.262C385.913 114.037 385.884 113.364 385.971 113.196C386.496 113.112 386.758 113.028 387.078 112.944C387.661 112.776 387.806 112.523 387.836 111.794C387.836 111.262 387.952 106.719 387.777 105.626C387.602 104.505 386.729 103.187 384.806 103.187C384.078 103.187 382.943 103.467 381.836 104.28C381.778 104.336 381.719 104.476 381.719 104.561V104.589C381.836 105.177 381.836 105.851 381.836 106.888V108.71C381.836 109.972 381.807 111.15 381.836 112.046C381.836 112.663 382.215 112.804 382.535 112.916C382.71 112.944 382.826 112.972 382.972 113C383.234 113.056 383.496 113.112 383.904 113.196C383.962 113.309 383.962 113.673 383.875 113.981C383.846 114.149 383.787 114.233 383.758 114.262C382.768 114.234 381.749 114.205 380.264 114.205C379.827 114.205 379.07 114.234 378.429 114.234C377.904 114.234 377.41 114.262 377.119 114.262C377.089 114.205 377.031 114.009 377.031 113.701C377.031 113.449 377.089 113.252 377.148 113.196C377.293 113.168 377.41 113.14 377.555 113.14C377.904 113.084 378.196 113.028 378.487 112.972C378.982 112.832 379.157 112.579 379.186 111.963C379.273 110.561 379.361 106.551 379.157 105.542C378.808 103.916 377.847 103.103 376.303 103.103C375.4 103.103 374.264 103.523 373.333 104.197C373.187 104.308 373.07 104.588 373.07 104.841V106.495C373.07 108.514 373.07 111.037 373.099 112.131C373.129 112.467 373.245 112.86 373.915 113C374.061 113.028 374.294 113.084 374.585 113.112L375.109 113.196C375.167 113.364 375.138 114.037 375.022 114.262C374.73 114.262 374.381 114.234 373.973 114.234C373.362 114.205 372.575 114.177 371.702 114.177C370.682 114.177 369.954 114.205 369.372 114.234C368.964 114.177 368.644 114.177 368.294 114.177V114.177Z" fill="#442D22"/>
<path fill-rule="evenodd" clip-rule="evenodd" d="M350.885 130.905L349.495 130.431C349.495 130.431 349.665 123.368 347.12 122.861C345.424 120.9 347.392 39.715 353.498 122.59C353.498 122.59 351.395 123.638 351.022 125.429C350.614 127.187 350.885 130.905 350.885 130.905V130.905Z" fill="white"/>
<path fill-rule="evenodd" clip-rule="evenodd" d="M350.885 130.905L349.495 130.431C349.495 130.431 349.665 123.368 347.12 122.861C345.424 120.9 347.392 39.715 353.498 122.59C353.498 122.59 351.395 123.638 351.022 125.429C350.614 127.187 350.885 130.905 350.885 130.905V130.905Z" fill="#A6A385"/>
<path fill-rule="evenodd" clip-rule="evenodd" d="M351.631 124.077C351.631 124.077 363.81 116.1 360.96 99.5046C358.213 87.4389 351.733 83.4844 351.021 81.9633C350.241 80.8817 349.494 78.9893 349.494 78.9893L350.003 112.551C350.003 112.585 348.952 122.826 351.632 124.077" fill="white"/>
<path fill-rule="evenodd" clip-rule="evenodd" d="M351.631 124.077C351.631 124.077 363.81 116.1 360.96 99.5046C358.213 87.4389 351.733 83.4844 351.021 81.9633C350.241 80.8817 349.494 78.9893 349.494 78.9893L350.003 112.551C350.003 112.585 348.952 122.826 351.632 124.077" fill="#499D4A"/>
<path fill-rule="evenodd" clip-rule="evenodd" d="M348.783 124.517C348.783 124.517 337.35 116.743 338.029 103.055C338.673 89.3662 346.747 82.6402 348.308 81.4234C349.326 80.3419 349.36 79.9361 349.428 78.8545C350.14 80.3756 350.004 101.601 350.106 104.102C350.411 113.735 349.563 122.692 348.783 124.517Z" fill="white"/>
<path fill-rule="evenodd" clip-rule="evenodd" d="M348.783 124.517C348.783 124.517 337.35 116.743 338.029 103.055C338.673 89.3662 346.747 82.6402 348.308 81.4234C349.326 80.3419 349.36 79.9361 349.428 78.8545C350.14 80.3756 350.004 101.601 350.106 104.102C350.411 113.735 349.563 122.692 348.783 124.517Z" fill="#58AA50"/>
<path d="M69.6317 184.416C69.4998 184.416 69.3679 184.428 69.2373 184.428C66.574 184.572 64.7777 185.755 63.7275 188.067C62.8292 190.157 62.9273 192.89 63.7376 194.993C64.6798 197.048 66.2023 198.133 68.7435 198.543C69.2812 198.632 69.6418 198.93 70.6832 200.158L71.9645 201.674H74.2885L72.7432 200.101C71.889 199.238 71.1981 198.487 71.1981 198.421C71.1981 198.355 71.5249 198.21 71.9204 198.089C73.2244 197.69 74.3072 196.673 75.0647 195.114C75.6778 193.862 75.7658 193.475 75.8537 191.917C76.0836 187.28 73.6628 184.381 69.6316 184.414L69.6317 184.416V184.416ZM71.6692 196.541C70.5386 197.094 68.8969 197.204 67.8253 196.807C66.7173 196.396 65.6445 195.234 65.162 193.919C64.6257 192.48 64.7022 189.826 65.3153 188.631C66.3014 186.728 67.6055 185.853 69.5111 185.853C72.3375 185.853 73.9455 187.601 74.1553 190.887C74.3211 193.63 73.4116 195.687 71.6704 196.54L71.6692 196.541V196.541ZM111.815 188.376C110.84 188.376 110.094 188.775 109.592 189.56L109.197 190.181V188.565H107.51V198.257H109.196V195.159C109.196 192.327 109.231 191.996 109.623 191.22C110.163 190.157 111.093 189.627 111.991 189.881L112.594 190.058V188.379H111.815V188.376V188.376ZM101.904 188.287C101.573 188.287 101.223 188.332 100.874 188.409C98.6162 189.005 97.3437 191.187 97.4216 193.433C97.4216 195.313 97.7833 196.253 98.6816 197.239C100.522 198.764 102.186 198.885 104.433 198.067C104.816 197.902 105.233 197.712 105.233 197.712V196.187L104.433 196.606C102.615 197.405 101.246 197.405 100.149 196.464C99.4492 195.744 99.1413 194.882 98.9994 193.897H105.802V192.591C105.802 189.926 104.214 188.244 101.902 188.287H101.904ZM99.1527 192.537C99.1527 192.537 99.404 190.875 100.336 190.223C100.785 189.904 101.3 189.749 101.803 189.749C102.308 189.749 102.812 189.914 103.228 190.235C104.082 190.898 104.225 192.525 104.225 192.525H99.1527V192.537H99.1527ZM58.4802 190.789C56.6512 189.67 55.8397 188.863 55.939 187.912C56.2228 185.28 59.4438 185.644 61.2276 186.64L61.2402 184.869C61.2402 184.869 60.2541 184.437 58.8408 184.414C56.6726 184.381 55.2706 185.099 54.6137 186.561C53.6489 188.717 54.5032 190.344 57.591 192.158C59.3245 193.177 60.0908 194.061 60.0908 195.025C60.0908 197.017 57.7128 197.712 55.2594 196.462C54.7545 196.209 54.3274 195.997 54.3048 195.997C54.2168 196.561 54.2621 197.912 54.2621 197.912C54.2621 197.912 55.0159 198.232 56.1464 198.453C58.9501 199.017 61.5016 197.689 61.7428 195.532C61.9526 193.508 61.2276 192.446 58.4803 190.788L58.4802 190.789V190.789ZM126.747 188.265C126.417 188.265 126.068 188.31 125.704 188.388C123.449 188.984 122.179 191.166 122.266 193.411C122.266 195.289 122.626 196.22 123.524 197.204C125.365 198.731 127.029 198.854 129.287 198.034C129.669 197.869 130.084 197.682 130.084 197.682V196.154L129.285 196.575C127.464 197.372 126.095 197.372 125.002 196.431C124.298 195.713 123.993 194.86 123.851 193.864H130.642V192.558C130.642 189.906 129.054 188.223 126.743 188.267L126.747 188.265V188.265ZM123.995 192.514C123.995 192.514 124.249 190.855 125.18 190.19C125.627 189.869 126.142 189.715 126.646 189.715C127.149 189.715 127.655 189.879 128.071 190.202C128.925 190.865 129.068 192.503 129.068 192.503H123.997L123.995 192.514V192.514ZM93.0726 190.811C91.2436 189.694 90.4345 188.885 90.5325 187.933C90.8164 185.3 94.0374 185.665 95.8212 186.661L95.8338 184.89C95.8338 184.89 94.8476 184.459 93.4343 184.438C91.2661 184.406 89.8642 185.124 89.2061 186.585C88.2425 188.741 89.108 190.368 92.1857 192.182C93.9169 193.2 94.6831 194.072 94.6831 195.036C94.6831 197.028 92.3064 197.735 89.853 196.474C89.3505 196.22 88.9234 196.011 88.8983 196.011C88.8103 196.575 88.8557 197.926 88.8557 197.926C88.8557 197.926 89.6005 198.235 90.7273 198.467C93.5337 199.032 96.0863 197.705 96.3263 195.549C96.5349 193.534 95.8113 192.472 93.0726 190.813V190.811H93.0726ZM136.659 188.353C135.685 188.353 134.93 188.753 134.436 189.538L134.041 190.157V188.544H132.354V198.233H134.04V195.135C134.04 192.304 134.074 191.972 134.467 191.198C135.008 190.136 135.937 189.604 136.835 189.859L137.438 190.037V188.354H136.659V188.353ZM79.6563 190.755V184.582H77.9554V198.255H85.1084V196.64H79.6563V190.755H79.6563ZM118.991 192.679L117.589 196.363L116.241 192.659L114.872 188.554H113.131C114.259 191.784 115.486 195.069 116.723 198.255C117.26 198.268 117.797 198.255 118.334 198.255L120.227 193.454L122.155 188.555H120.491C120.491 188.555 119.756 190.501 118.99 192.681L118.991 192.679V192.679ZM83.5756 180.856C83.8495 180.856 84.0781 180.767 84.2665 180.577C84.4524 180.389 84.5504 180.168 84.5504 179.892C84.5504 179.615 84.4524 179.384 84.2665 179.207C84.0781 179.029 83.8607 178.94 83.5881 178.94C83.3119 178.94 83.0832 179.029 82.8972 179.217C82.7088 179.405 82.6234 179.636 82.6234 179.902C82.6234 180.181 82.7114 180.412 82.8972 180.587C83.0731 180.765 83.3018 180.853 83.5756 180.853V180.856V180.856ZM82.9727 179.283C83.1359 179.118 83.3345 179.042 83.5882 179.042C83.8269 179.042 84.0254 179.118 84.1913 179.283C84.3546 179.448 84.4425 179.648 84.4425 179.892C84.4425 180.135 84.3546 180.346 84.1913 180.511C84.0255 180.676 83.8269 180.754 83.5882 180.754C83.3458 180.754 83.1485 180.678 82.9853 180.511C82.822 180.346 82.734 180.135 82.734 179.892C82.734 179.648 82.8094 179.448 82.9727 179.283ZM83.3784 179.981H83.4889C83.5669 179.981 83.6435 180.057 83.7087 180.201L83.8408 180.501H84.048L83.8847 180.168C83.8182 180.035 83.7529 179.958 83.6762 179.936C83.7729 179.913 83.8495 179.88 83.9048 179.814C83.96 179.757 83.9801 179.68 83.9801 179.592C83.9801 179.491 83.9487 179.415 83.8822 179.359C83.8068 179.295 83.6862 179.261 83.5304 179.261H83.1813V180.501H83.3571V179.981L83.3784 179.981V179.981ZM83.3784 179.405H83.5317C83.6422 179.405 83.7202 179.427 83.7628 179.46C83.8043 179.493 83.8156 179.537 83.8156 179.615C83.8156 179.759 83.7276 179.826 83.5644 179.826H83.376V179.405H83.3784V179.405ZM55.2819 179.87C55.2819 179.439 55.2694 179.118 55.2593 178.929H55.2694C55.3133 179.152 55.3673 179.318 55.4113 179.429L57.0443 183.113H57.3182L58.9512 179.396C58.9953 179.294 59.0392 179.142 59.0932 178.93H59.1057C59.0731 179.298 59.0618 179.618 59.0618 179.873V183.124H59.6207V178.291H58.9198L57.4187 181.653C57.3634 181.786 57.2867 181.985 57.1888 182.249H57.1661C57.1334 182.118 57.0568 181.919 56.9475 181.675L55.4802 178.279H54.7354V183.113H55.273V179.873L55.2819 179.87V179.87ZM60.8456 179.879H61.3281V182.89H60.8456V179.879V179.879ZM61.0869 178.775C61.1874 178.775 61.2728 178.741 61.3381 178.674C61.4047 178.608 61.4487 178.522 61.4487 178.42C61.4487 178.321 61.416 178.232 61.3394 178.167C61.2716 178.099 61.1849 178.065 61.0856 178.065C60.9877 178.065 60.8998 178.099 60.8343 178.167C60.768 178.232 60.7239 178.321 60.7239 178.42C60.7239 178.531 60.7578 178.608 60.8343 178.674C60.9099 178.741 60.9877 178.775 61.0856 178.775H61.0869ZM64.7676 182.956V182.425C64.5038 182.624 64.2199 182.723 63.9259 182.723C63.5743 182.723 63.289 182.602 63.0805 182.368C62.8733 182.137 62.7627 181.816 62.7627 181.417C62.7627 180.998 62.8733 180.666 63.1018 180.412C63.3217 180.168 63.6069 180.047 63.9562 180.047C64.2413 180.047 64.515 180.136 64.7677 180.313V179.749C64.5378 179.627 64.2753 179.571 63.9788 179.571C63.431 179.571 63.004 179.749 62.6849 180.091C62.3683 180.434 62.205 180.899 62.205 181.461C62.205 181.961 62.3469 182.381 62.6422 182.702C62.95 183.032 63.3433 183.199 63.8256 183.199C64.1986 183.189 64.5038 183.11 64.7676 182.956V182.956ZM66.1481 181.351C66.1481 180.954 66.2361 180.633 66.3994 180.412C66.5527 180.213 66.7386 180.113 66.9584 180.113C67.1443 180.113 67.2762 180.147 67.3729 180.224V179.648C67.2976 179.615 67.1883 179.604 67.0463 179.604C66.8491 179.604 66.6733 179.671 66.5188 179.794C66.3555 179.925 66.2248 180.124 66.1482 180.378H66.1357V179.671H65.5893V183.122H66.1369V181.351H66.1481V181.351ZM69.2925 183.19C69.8076 183.19 70.2221 183.023 70.5298 182.69C70.8363 182.36 70.9895 181.917 70.9895 181.363C70.9895 180.799 70.849 180.368 70.5625 180.046C70.2786 179.726 69.8841 179.571 69.369 179.571C68.8539 179.571 68.4393 179.726 68.1316 180.025C67.8025 180.355 67.6292 180.82 67.6292 181.418C67.6292 181.938 67.7699 182.369 68.0664 182.69C68.3728 183.023 68.7786 183.189 69.2925 183.189V183.19V183.19ZM68.5136 180.379C68.7222 180.157 68.9961 180.046 69.3352 180.046C69.687 180.046 69.9508 180.157 70.1467 180.379C70.3439 180.611 70.442 180.942 70.442 181.385C70.442 181.806 70.354 182.137 70.1681 182.359C69.9822 182.591 69.7083 182.714 69.3465 182.714C68.9948 182.714 68.7222 182.591 68.5136 182.359C68.3064 182.126 68.2071 181.806 68.2071 181.385C68.1858 180.966 68.2951 180.624 68.5136 180.379ZM73.3878 182.89C73.5963 182.702 73.7069 182.471 73.7069 182.182C73.7069 181.928 73.6189 181.717 73.4556 181.551C73.3224 181.418 73.1165 181.297 72.8188 181.176C72.5548 181.064 72.3916 180.965 72.3036 180.888C72.2157 180.799 72.1617 180.689 72.1617 180.532C72.1617 180.389 72.217 180.279 72.3251 180.19C72.4356 180.101 72.5763 180.058 72.7648 180.058C73.06 180.058 73.3124 180.137 73.5435 180.303V179.75C73.3225 179.638 73.0825 179.585 72.8086 179.585C72.4569 179.585 72.1605 179.683 71.9418 179.872C71.7119 180.059 71.6027 180.303 71.6027 180.59C71.6027 180.843 71.678 181.054 71.8211 181.209C71.9417 181.341 72.1479 181.475 72.4342 181.596C72.7081 181.717 72.894 181.828 72.9932 181.916C73.0911 182.005 73.1351 182.116 73.1351 182.246C73.1351 182.569 72.9166 182.735 72.4894 182.735C72.1603 182.735 71.8652 182.626 71.6012 182.405V183.001C71.8399 183.146 72.1264 183.212 72.4429 183.212C72.8487 183.19 73.1665 183.09 73.3851 182.891L73.3878 182.89V182.89ZM75.9957 179.571C75.4805 179.571 75.0661 179.726 74.7583 180.025C74.4317 180.355 74.2558 180.821 74.2558 181.418C74.2558 181.938 74.3978 182.37 74.693 182.691C75.0008 183.023 75.4052 183.189 75.9203 183.189C76.4479 183.189 76.85 183.022 77.1577 182.689C77.4655 182.359 77.6187 181.915 77.6187 181.362C77.6187 180.798 77.4755 180.366 77.1915 180.045C76.8952 179.724 76.5006 179.57 75.9981 179.57L75.9957 179.571V179.571ZM77.0584 181.385C77.0584 181.806 76.9705 182.137 76.7846 182.359C76.5986 182.591 76.3247 182.714 75.9629 182.714C75.611 182.714 75.3386 182.591 75.1299 182.359C74.9227 182.126 74.8235 181.806 74.8235 181.385C74.8235 180.941 74.9329 180.599 75.1527 180.368C75.3599 180.147 75.6339 180.035 75.9743 180.035C76.3134 180.035 76.586 180.147 76.7832 180.368C76.9591 180.611 77.0571 180.942 77.0571 181.385H77.0584V181.385ZM78.5383 183.112H79.0847V180.124H79.8849V179.66H79.0847V179.127C79.0847 178.642 79.2705 178.399 79.655 178.399C79.7844 178.399 79.9163 178.432 80.0143 178.488V177.989C79.9163 177.945 79.7844 177.935 79.6197 177.935C79.3246 177.935 79.0834 178.023 78.8861 178.211C78.6562 178.432 78.5344 178.719 78.5344 179.107V179.673H77.9564V180.137H78.5344V183.113L78.5383 183.112V183.112ZM80.783 182.17C80.783 182.845 81.0784 183.189 81.6813 183.189C81.8999 183.189 82.0644 183.153 82.1963 183.075V182.6C82.0959 182.677 81.9765 182.712 81.8446 182.712C81.6588 182.712 81.5281 182.668 81.4514 182.567C81.3735 182.469 81.3296 182.301 81.3296 182.07V180.123H82.1963V179.658H81.3296V178.641C81.1412 178.707 80.9565 178.763 80.7818 178.819V179.658H80.1914V180.123H80.7818V182.169L80.783 182.17V182.17ZM139.574 188.531C139.388 188.353 139.168 188.265 138.896 188.265C138.619 188.265 138.39 188.353 138.205 188.544C138.019 188.73 137.931 188.962 137.931 189.229C137.931 189.505 138.019 189.736 138.203 189.914C138.389 190.091 138.618 190.18 138.894 190.18C139.167 190.18 139.397 190.091 139.585 189.904C139.77 189.713 139.868 189.494 139.868 189.219C139.858 188.94 139.758 188.709 139.573 188.531L139.574 188.531V188.531ZM139.486 189.838C139.323 190.003 139.124 190.079 138.883 190.079C138.644 190.079 138.446 190.003 138.28 189.838C138.117 189.67 138.029 189.461 138.029 189.216C138.029 188.975 138.104 188.775 138.27 188.607C138.433 188.442 138.63 188.366 138.883 188.366C139.122 188.366 139.32 188.442 139.486 188.607C139.649 188.775 139.737 188.975 139.737 189.216C139.737 189.472 139.662 189.67 139.486 189.838V189.838ZM138.993 189.273C139.091 189.25 139.169 189.206 139.223 189.151C139.279 189.094 139.299 189.017 139.299 188.928C139.299 188.829 139.267 188.751 139.201 188.696C139.125 188.633 139.004 188.598 138.849 188.598H138.5V189.836H138.676V189.316H138.785C138.861 189.316 138.936 189.392 139.004 189.537L139.134 189.835H139.343L139.18 189.503C139.123 189.358 139.058 189.292 138.991 189.27L138.993 189.273V189.273ZM138.873 189.162H138.684V188.743H138.839C138.948 188.743 139.025 188.763 139.069 188.798C139.113 188.83 139.123 188.874 139.123 188.952C139.123 189.096 139.035 189.162 138.872 189.162L138.873 189.162ZM108.311 179.516H108.464V178.277H108.869V178.122H107.905V178.277H108.311V179.516H108.311V179.516ZM109.24 178.585C109.24 178.465 109.24 178.366 109.231 178.31C109.241 178.376 109.264 178.42 109.274 178.453L109.745 179.516H109.821L110.293 178.443C110.305 178.41 110.316 178.367 110.337 178.31C110.327 178.42 110.327 178.509 110.327 178.576V179.515H110.49V178.122H110.293L109.866 179.084C109.856 179.118 109.822 179.185 109.8 179.261H109.788C109.779 179.217 109.756 179.173 109.725 179.097L109.298 178.122H109.077V179.518H109.231V178.587L109.24 178.585V178.585Z" fill="#231F1F"/>
<path d="M29.5953 187.341L19.6678 190.611L11.031 194.455L8.61472 195.099C7.99935 195.689 7.35411 196.287 6.65624 196.893C5.89087 197.559 5.17802 198.164 4.63015 198.603C4.02239 199.087 3.12193 199.996 2.66424 200.571C1.98135 201.434 1.4411 202.349 1.20847 203.053C0.795727 204.325 0.998427 205.612 1.7938 206.8C2.81431 208.314 4.84787 209.857 7.21899 210.91C8.42717 211.447 10.4607 212.136 11.9914 212.522C14.5351 213.173 19.4576 213.876 22.1664 213.983C22.7141 214.005 23.4496 214.005 23.4795 213.983C23.5396 213.945 23.9598 213.135 24.4477 212.128C26.1135 208.7 27.3141 205.483 27.9669 202.736C28.357 201.07 28.6646 198.853 28.8672 196.227C28.9198 195.492 28.9422 193.033 28.8972 192.2C28.8296 190.838 28.7096 189.733 28.5221 188.65C28.4921 188.491 28.4845 188.348 28.4996 188.34C28.5295 188.317 28.6195 188.287 29.8427 187.931L29.5952 187.341V187.341H29.5953V187.341ZM27.3292 188.681C27.4192 188.681 27.6592 191.004 27.7192 192.472C27.7343 192.783 27.7267 192.987 27.7118 192.987C27.6518 192.987 26.4436 192.268 25.5808 191.723C24.8304 191.246 23.4047 190.293 23.1796 190.111C23.1045 190.058 23.1119 190.051 23.7273 189.839C24.7703 189.483 27.2466 188.681 27.3292 188.681V188.681ZM22.2716 190.361C22.3392 190.361 22.5116 190.459 22.9244 190.717C24.4701 191.693 26.5713 192.874 27.4717 193.267C27.7493 193.388 27.7792 193.343 27.1415 193.782C25.7758 194.72 24.0724 195.644 21.9863 196.575C21.6187 196.741 21.3111 196.87 21.3036 196.87C21.2886 196.87 21.3335 196.681 21.3935 196.454C21.8963 194.569 22.1815 192.662 22.1965 191.133C22.204 190.376 22.204 190.376 22.2716 190.353C22.2565 190.361 22.264 190.361 22.2716 190.361V190.361ZM21.2286 190.762C21.2735 190.807 21.2436 192.503 21.1835 192.964C21.0484 194.069 20.8383 195.099 20.4933 196.257C20.4107 196.537 20.3355 196.771 20.3207 196.786C20.2905 196.824 19.2625 195.81 18.9249 195.417C18.3395 194.735 17.8819 194.054 17.5442 193.388C17.3716 193.048 17.1015 192.382 17.124 192.359C17.244 192.276 21.1986 190.732 21.2286 190.762ZM16.321 192.707C16.3285 192.707 16.336 192.707 16.3436 192.715C16.3586 192.73 16.4112 192.851 16.4562 192.987C16.6962 193.646 17.2364 194.614 17.7018 195.235C18.212 195.916 18.8799 196.643 19.4351 197.119C19.6153 197.271 19.7802 197.415 19.8027 197.437C19.8478 197.483 19.8628 197.475 18.6396 197.944C17.2216 198.489 15.6757 199.034 13.9048 199.61C13.4817 199.747 13.0591 199.886 12.6368 200.026C12.5692 200.049 12.5917 200.011 12.7868 199.7C13.6647 198.315 15.0004 195.598 15.7508 193.676C15.8784 193.343 16.0059 193.01 16.0285 192.934C16.0585 192.828 16.096 192.79 16.1935 192.737C16.246 192.722 16.2986 192.707 16.321 192.707V192.707ZM14.8204 193.335C14.8429 193.35 14.4602 194.16 14.085 194.902C13.3571 196.332 12.5617 197.74 11.4962 199.451C11.3161 199.746 11.1436 200.018 11.121 200.049C11.0836 200.102 11.0685 200.086 10.9484 199.852C10.6933 199.345 10.4831 198.694 10.3706 198.096C10.258 197.505 10.2806 196.476 10.4082 195.84C10.5056 195.371 10.4982 195.379 10.7233 195.265C11.6838 194.773 14.7904 193.305 14.8204 193.335V193.335ZM27.7644 193.865V194.183C27.7644 195.871 27.5843 198.187 27.3215 199.875C27.2765 200.17 27.2389 200.412 27.2315 200.42C27.2315 200.42 27.0139 200.359 26.7588 200.283C25.6333 199.927 24.4101 199.405 23.3071 198.792C22.5791 198.391 21.5211 197.733 21.5512 197.702C21.5586 197.695 21.8738 197.528 22.2414 197.331C23.7124 196.559 25.1229 195.727 26.3461 194.902C26.8038 194.592 27.494 194.092 27.6443 193.956L27.7644 193.865ZM9.15497 196.105C9.18497 196.105 9.17746 196.166 9.13244 196.438C9.10241 196.635 9.06494 196.998 9.05002 197.248C8.98985 198.353 9.17006 199.171 9.71031 200.291C9.86038 200.601 9.98052 200.858 9.97291 200.866C9.92035 200.911 4.95296 202.38 3.39207 202.811C2.92687 202.94 2.52174 203.053 2.49157 203.061C2.43915 203.076 2.4316 203.068 2.45409 202.94C2.62666 201.827 3.46712 200.374 4.63766 199.148C5.41809 198.33 6.04094 197.854 7.10646 197.24C7.87183 196.802 9.04992 196.143 9.13995 196.113C9.14002 196.105 9.1475 196.105 9.15497 196.105V196.105ZM20.8609 198.217C20.8684 198.209 21.0484 198.308 21.266 198.436C22.8719 199.375 25.1079 200.245 27.0138 200.692L27.1865 200.73L26.9463 200.866C25.9484 201.426 22.6692 202.803 19.3151 204.067C18.8273 204.249 18.3471 204.431 18.2569 204.469C18.1669 204.506 18.0843 204.529 18.0843 204.522C18.0843 204.514 18.2195 204.249 18.3919 203.924C19.3299 202.153 20.2755 199.996 20.7557 198.497C20.8159 198.353 20.8533 198.225 20.8609 198.217V198.217ZM19.6678 198.611C19.6754 198.618 19.6153 198.777 19.5402 198.959C18.8874 200.556 18.0319 202.297 16.9364 204.249C16.6588 204.749 16.4261 205.15 16.4185 205.15C16.4111 205.15 16.186 205.014 15.9158 204.847C14.325 203.863 12.9143 202.652 11.9914 201.479L11.8563 201.313L12.5391 201.123C14.9853 200.45 17.0638 199.723 19.1274 198.83C19.4201 198.709 19.6603 198.611 19.6678 198.611V198.611ZM27.0815 201.222C27.0815 201.222 27.089 201.229 27.0815 201.222C27.089 201.396 26.7063 202.955 26.3911 204.083C26.1285 205.029 25.9033 205.77 25.4907 207.08C25.3106 207.655 25.1531 208.132 25.1455 208.132C25.138 208.132 25.093 208.124 25.048 208.109C22.8194 207.7 20.8234 207.133 18.9474 206.376C18.4221 206.164 17.6718 205.823 17.6267 205.786C17.6118 205.77 18.062 205.558 18.6323 205.309C22.0465 203.802 25.5883 202.092 26.8038 201.358C26.9463 201.267 27.0589 201.222 27.0815 201.222V201.222ZM9.96543 201.812C9.98045 201.827 9.02746 203.212 7.69173 205.097C7.22653 205.755 6.68628 206.527 6.48371 206.815C6.28108 207.102 5.97346 207.557 5.80086 207.829L5.48556 208.321L5.14788 208.033C4.75015 207.7 4.0599 206.989 3.75225 206.595C3.10687 205.786 2.67174 204.93 2.49915 204.151C2.41658 203.788 2.41658 203.606 2.49153 203.583C2.60406 203.553 4.60759 203.076 6.48364 202.637C7.52667 202.395 8.73469 202.107 9.16992 202.001C9.60519 201.895 9.95796 201.812 9.96543 201.812V201.812ZM10.9259 202.183L11.1659 202.455C12.2466 203.674 13.3496 204.575 14.6853 205.362C14.9255 205.498 15.1055 205.619 15.0904 205.627C15.038 205.665 10.4531 207.307 8.32956 208.049C7.13653 208.472 6.15347 208.813 6.14606 208.813C6.13859 208.813 6.07101 208.768 5.99585 208.715L5.86086 208.616L6.07845 208.298C6.78375 207.269 7.66934 206.141 9.59778 203.795L10.9259 202.183ZM16.914 206.505C16.9213 206.497 17.2515 206.618 17.6567 206.77C18.6323 207.14 19.405 207.375 20.4407 207.64C21.7163 207.965 23.5622 208.283 24.6503 208.374C24.8154 208.389 24.9054 208.404 24.8754 208.427C24.8228 208.457 23.7199 208.828 22.9094 209.086C21.6187 209.494 17.6793 210.667 14.4677 211.598C13.8749 211.772 13.3646 211.916 13.3346 211.924C13.2596 211.939 13.0119 211.871 13.0119 211.84C13.0119 211.825 13.192 211.591 13.4096 211.333C14.4901 210.032 15.5632 208.578 16.4562 207.201C16.7038 206.822 16.914 206.512 16.914 206.505ZM15.5932 206.542C15.6007 206.55 15.0679 207.413 14.1376 208.896C13.7398 209.524 13.297 210.236 13.1394 210.486C12.9894 210.728 12.7643 211.106 12.6368 211.318L12.4191 211.704L12.3066 211.674C12.0364 211.598 10.138 210.925 9.63519 210.72C9.01234 210.47 8.36703 210.168 7.88675 209.91C7.28653 209.585 6.53621 209.101 6.59617 209.085C6.61115 209.078 7.6392 208.798 8.87725 208.457C12.1639 207.557 13.9873 207.034 15.1805 206.656C15.3982 206.588 15.5857 206.535 15.5932 206.542ZM24.9354 208.752H24.9429C24.9729 208.828 23.7574 212.234 23.3145 213.309C23.217 213.551 23.1796 213.612 23.127 213.604C22.9994 213.596 21.2361 213.347 20.1629 213.188C18.2946 212.9 15.158 212.347 14.3701 212.166L14.1901 212.128L15.308 211.871C17.7093 211.326 18.8648 211.031 20.0354 210.667C21.5137 210.213 22.977 209.645 24.4551 208.949C24.6877 208.843 24.8829 208.76 24.9354 208.752Z" fill="url(#paint0_linear)"/>
<path d="M19.3618 164C19.1967 163.978 16.5328 164.947 14.8145 165.65C12.4958 166.604 10.695 167.512 9.58438 168.299C9.17174 168.595 8.65388 169.117 8.57145 169.321C8.54145 169.397 8.52637 169.488 8.52637 169.578L9.53192 170.54L11.9256 171.312L17.621 172.341L24.1342 173.469L24.2017 172.901C24.1793 172.901 24.1642 172.894 24.1419 172.894L23.2862 172.757L23.1138 172.447C22.2283 170.873 21.2528 168.92 20.6825 167.603C20.2399 166.581 19.8196 165.401 19.5869 164.553C19.4594 164.038 19.4444 164.008 19.362 164.001V164H19.3618V164ZM19.2416 164.387H19.2493C19.2567 164.394 19.2867 164.606 19.3168 164.856C19.4442 165.915 19.6771 166.937 20.0447 168.042C20.3223 168.875 20.3223 168.829 19.9997 168.731C19.2343 168.519 15.8051 167.921 13.3213 167.573C12.9236 167.52 12.5859 167.467 12.5859 167.459C12.5559 167.429 14.3793 166.468 15.1822 166.089C16.2102 165.613 19.0316 164.424 19.2416 164.387V164.387ZM12.008 167.777L12.3008 167.875C13.8915 168.421 17.8909 169.193 20.0971 169.374C20.3447 169.397 20.5549 169.42 20.5623 169.42C20.5697 169.427 20.3598 169.541 20.0896 169.669C19.0241 170.207 17.8535 170.865 17.0431 171.372C16.803 171.524 16.5853 171.645 16.5554 171.645C16.5253 171.645 16.3678 171.614 16.2027 171.592L15.9026 171.546L15.1523 170.805C13.8316 169.51 12.7961 168.511 12.3983 168.133L12.008 167.777V167.777ZM11.708 168.012L12.766 169.344C13.3437 170.078 13.929 170.797 14.0567 170.956C14.1842 171.115 14.2893 171.244 14.2818 171.251C14.2518 171.274 12.7511 170.979 11.9556 170.797C11.1377 170.608 10.8 170.517 10.2973 170.358L9.88456 170.222V170.116C9.89203 169.609 10.5299 168.852 11.6104 168.08L11.708 168.012ZM20.6975 169.828C20.7275 169.828 20.7649 169.896 20.855 170.101C21.1101 170.668 21.9056 172.197 22.1006 172.492C22.1608 172.591 22.2656 172.598 21.2077 172.424C18.664 172.008 17.846 171.872 17.846 171.857C17.846 171.849 17.9211 171.796 18.0186 171.743C18.8066 171.304 19.6019 170.744 20.3073 170.146C20.4799 170.002 20.6375 169.866 20.6674 169.843C20.6749 169.828 20.69 169.821 20.6975 169.828Z" fill="url(#paint1_linear)"/>
<path d="M8.62246 169.216C8.62246 169.216 8.45748 169.481 8.61503 169.874C8.71267 170.117 8.99777 170.412 9.32037 170.714C9.32037 170.714 12.6595 173.999 13.0648 174.469C14.9106 176.618 15.7136 178.737 15.7886 181.659C15.8336 183.536 15.4809 185.186 14.603 187.101C13.0422 190.537 9.74799 194.329 4.66797 198.537L5.41096 198.287C5.89117 197.924 6.54402 197.538 8.07474 196.69C11.609 194.737 15.586 192.943 20.4635 191.097C27.4868 188.432 39.0352 185.314 45.6084 184.3L46.2913 184.194L46.1862 184.028C45.586 183.089 45.1732 182.506 44.6779 181.886C43.2373 180.084 41.489 178.624 39.3503 177.413C36.4089 175.755 32.6043 174.461 27.787 173.5C26.8791 173.318 24.8831 172.97 23.2623 172.72C19.8255 172.183 17.6044 171.812 15.1583 171.388C14.2804 171.237 12.9671 171.01 12.0967 170.821C11.6465 170.722 10.7836 170.518 10.1083 170.283C9.56802 170.071 8.78755 169.859 8.62246 169.216V169.216ZM10.5586 171.108C10.566 171.101 10.686 171.146 10.8437 171.199C11.1288 171.297 11.4965 171.411 11.9318 171.532C12.2611 171.623 12.5913 171.712 12.9223 171.797C13.3725 171.91 13.7476 172.016 13.7551 172.016C13.8077 172.069 14.5656 174.514 14.8207 175.452C14.9181 175.808 14.9933 176.111 14.9858 176.111C14.9781 176.118 14.8957 175.99 14.7982 175.816C13.9202 174.256 12.532 172.675 10.9262 171.403C10.7162 171.252 10.5586 171.116 10.5586 171.108ZM14.2504 172.137C14.2879 172.137 14.453 172.16 14.6555 172.205C15.9312 172.493 18.2199 172.932 19.683 173.182C19.9307 173.22 20.1258 173.265 20.1258 173.28C20.1258 173.295 20.0357 173.348 19.9231 173.409C19.6756 173.538 18.6775 174.135 18.3474 174.362C17.5145 174.923 16.7642 175.528 16.2238 176.073C16.0063 176.292 15.8186 176.474 15.8186 176.474C15.8186 176.474 15.7737 176.345 15.736 176.186C15.466 175.134 14.9032 173.575 14.3929 172.478C14.3103 172.304 14.2428 172.145 14.2428 172.13C14.2428 172.145 14.2428 172.137 14.2504 172.137V172.137ZM20.7486 173.386C20.7936 173.401 20.8687 173.659 21.0187 174.226C21.2964 175.324 21.424 176.55 21.3789 177.693C21.3639 178.011 21.3489 178.306 21.3338 178.344L21.3114 178.419L20.9212 178.291C20.1183 178.033 18.8127 177.647 17.6947 177.329C17.0567 177.155 16.5391 176.996 16.5391 176.981C16.5391 176.936 17.4696 175.997 17.8673 175.642C18.625 174.968 20.681 173.363 20.7486 173.386V173.386ZM21.2664 173.462C21.2889 173.439 24.3729 173.976 25.7761 174.249C26.8192 174.453 28.3349 174.771 28.425 174.809C28.47 174.824 28.3124 174.915 27.8096 175.142C25.8286 176.043 24.3578 176.852 22.8948 177.836C22.512 178.094 22.1893 178.306 22.1819 178.306C22.1744 178.306 22.1669 178.086 22.1669 177.821C22.1669 176.383 21.8817 174.93 21.3564 173.704C21.3039 173.583 21.2588 173.469 21.2664 173.462V173.462ZM29.2428 175.051C29.2654 175.074 29.1678 175.687 29.0777 176.05C28.8076 177.178 28.0798 178.851 27.1869 180.425C27.0292 180.705 26.8867 180.932 26.8716 180.94C26.8567 180.947 26.6541 180.834 26.4214 180.697C25.551 180.183 24.5606 179.698 23.48 179.244C23.1799 179.116 22.9172 179.01 22.9097 178.995C22.8571 178.949 25.2733 177.337 26.549 176.565C27.562 175.944 29.2128 175.021 29.2428 175.051V175.051ZM29.8131 175.142C29.8807 175.142 31.2463 175.521 31.9591 175.732C33.7226 176.262 35.7485 177.012 37.0692 177.617L37.6169 177.867L37.2343 177.958C34.0078 178.707 31.2463 179.57 28.5825 180.66C28.3648 180.75 28.1697 180.826 28.1549 180.826C28.1398 180.826 28.2148 180.652 28.3124 180.44C29.1153 178.722 29.6331 176.928 29.7605 175.399C29.7682 175.256 29.7905 175.142 29.8131 175.142V175.142ZM16.2164 178.291C16.2388 178.268 17.2819 178.518 17.8447 178.677C18.7001 178.919 20.5159 179.532 20.5159 179.577C20.5159 179.585 20.3134 179.759 20.0734 179.971C19.0904 180.796 18.1448 181.666 17.0117 182.771C16.674 183.097 16.3889 183.362 16.374 183.362C16.3589 183.362 16.3515 183.316 16.3589 183.256C16.5315 181.984 16.4941 180.349 16.2539 178.692C16.2313 178.48 16.2089 178.298 16.2164 178.291V178.291ZM38.1348 178.313C38.1497 178.328 37.6545 179.116 37.3394 179.562C36.8892 180.213 36.2287 181.076 34.7355 182.968C33.9477 183.967 33.0622 185.095 32.7696 185.473C32.4693 185.852 32.2218 186.169 32.2142 186.169C32.2067 186.169 32.1093 186.033 32.0042 185.867C31.1638 184.595 30.1582 183.483 28.9651 182.484C28.74 182.294 28.4925 182.09 28.4099 182.029C28.3274 181.969 28.2598 181.908 28.2598 181.901C28.2598 181.878 29.5353 181.326 30.5035 180.932C32.1993 180.236 34.5102 179.403 36.2438 178.866C37.1517 178.578 38.1198 178.298 38.1348 178.313V178.313ZM38.7126 178.465C38.7425 178.457 38.9227 178.548 39.1403 178.677C40.9637 179.729 42.7495 181.083 44.1603 182.476C44.558 182.87 45.541 183.899 45.5259 183.907C45.5259 183.907 45.1807 183.937 44.7756 183.967C41.6165 184.209 37.5721 184.883 33.6851 185.829C33.4225 185.889 33.1899 185.942 33.1748 185.942C33.16 185.942 33.4525 185.647 33.8203 185.292C36.1013 183.074 37.1444 181.674 38.3749 179.176C38.5475 178.805 38.6976 178.487 38.7126 178.465C38.7051 178.465 38.7051 178.465 38.7126 178.465V178.465ZM22.0017 180.19C22.1068 180.213 23.0823 180.675 23.8176 181.046C24.493 181.386 25.506 181.931 25.5585 181.976C25.566 181.984 25.2058 182.173 24.7632 182.393C23.3524 183.104 22.1444 183.778 20.8836 184.55C20.5235 184.769 20.2234 184.951 20.2159 184.951C20.1858 184.951 20.1933 184.921 20.396 184.55C21.0713 183.309 21.6115 181.825 21.9193 180.379C21.9492 180.266 21.9792 180.19 22.0017 180.19V180.19ZM21.0262 180.372C21.0487 180.395 20.7936 181.326 20.6361 181.833C20.3283 182.794 19.8106 183.997 19.3079 184.906C19.1877 185.117 19.0077 185.428 18.9102 185.602L18.7226 185.904L18.3024 185.496C17.8147 185.019 17.4169 184.724 16.9068 184.459C16.704 184.353 16.5465 184.262 16.5465 184.247C16.5465 184.187 17.8296 183.013 18.8126 182.166C19.5179 181.553 21.0037 180.349 21.0262 180.372V180.372ZM26.9918 182.847L27.3595 183.089C28.1998 183.642 29.1902 184.376 29.9483 185.019C30.3758 185.375 31.2012 186.124 31.3665 186.306L31.4564 186.404L30.8487 186.578C27.4119 187.539 24.7556 188.395 21.6565 189.545C21.3114 189.674 21.0187 189.78 20.9961 189.78C20.9513 189.78 20.9136 189.817 21.6866 189.098C23.6676 187.259 25.4234 185.231 26.7291 183.256L26.9918 182.847V182.847ZM25.4235 183.24C25.4384 183.256 24.4105 184.716 23.7951 185.541C23.0597 186.525 21.754 188.175 20.8536 189.25C20.4785 189.696 20.1559 190.067 20.1408 190.075C20.1183 190.082 20.1108 189.969 20.1108 189.795C20.1108 188.879 19.8782 187.903 19.473 187.07C19.3004 186.722 19.2703 186.639 19.308 186.601C19.4505 186.472 21.6341 185.216 23.0147 184.467C23.9452 183.967 25.4008 183.225 25.4235 183.24V183.24ZM15.9386 185.587C15.9612 185.587 16.1338 185.677 16.3289 185.784C16.8091 186.048 17.2369 186.344 17.6195 186.662C17.6345 186.677 17.4395 186.836 17.1843 187.025C16.4715 187.539 15.391 188.364 14.7607 188.872C14.1002 189.401 14.0779 189.416 14.1528 189.303C14.6481 188.538 14.8957 188.107 15.1584 187.555C15.391 187.063 15.6235 186.48 15.7886 185.973C15.8486 185.753 15.9237 185.587 15.9386 185.587ZM18.4675 187.585C18.5049 187.577 18.5501 187.645 18.7526 187.948C19.1803 188.591 19.5105 189.454 19.5931 190.151L19.608 190.302L18.5801 190.703C16.7416 191.422 15.0458 192.134 13.8976 192.663C13.575 192.815 13.0122 193.087 12.6446 193.269C12.2769 193.458 11.9767 193.602 11.9767 193.594C11.9767 193.587 12.2093 193.413 12.4944 193.201C14.7382 191.558 16.6816 189.757 18.1373 187.956C18.2949 187.766 18.4375 187.592 18.4524 187.585L18.4675 187.585V187.585ZM17.3044 187.872C17.3345 187.903 16.4791 188.879 15.8938 189.477C14.4455 190.968 13.0123 192.134 11.2339 193.269C11.0088 193.413 10.8062 193.541 10.7836 193.557C10.7311 193.587 10.7986 193.511 11.579 192.656C12.0743 192.118 12.4495 191.664 12.8772 191.104C13.1623 190.734 13.2149 190.681 13.6276 190.385C14.7307 189.583 17.2744 187.842 17.3044 187.872Z" fill="url(#paint2_radial)"/>
<defs>
<linearGradient id="paint0_linear" x1="8.46884" y1="209.053" x2="12.0745" y2="206.941" gradientUnits="userSpaceOnUse">
<stop stop-color="#909CA9"/>
<stop offset="1" stop-color="#EDEDEE"/>
</linearGradient>
<linearGradient id="paint1_linear" x1="8.55269" y1="168.72" x2="11.4411" y2="168.72" gradientUnits="userSpaceOnUse">
<stop stop-color="#939FAB"/>
<stop offset="1" stop-color="#DCDEE1"/>
</linearGradient>
<radialGradient id="paint2_radial" cx="0" cy="0" r="1" gradientUnits="userSpaceOnUse" gradientTransform="translate(23.1264 182.082) rotate(-171.385) scale(3.72469 7.51274)">
<stop stop-color="#EE352C"/>
<stop offset="1" stop-color="#A91D22"/>
</radialGradient>
<clipPath id="clip0">
<rect width="40" height="45" fill="white" transform="translate(210 1)"/>
</clipPath>
<clipPath id="clip1">
<rect width="62" height="41" fill="white" transform="translate(220 84)"/>
</clipPath>
</defs>
</svg>
