<svg width="229" height="64" viewBox="0 0 229 64" fill="none" xmlns="http://www.w3.org/2000/svg">
<path d="M0 0H45V45H0V0Z" fill="#00A7A4"/>
<path d="M20.9442 14.7353L20.9014 14.72V10.7682L20.9457 10.7285L20.961 10.7041L35.5619 20.1683L20.9427 14.7399L20.9442 14.7353ZM20.9442 25.6074L20.9427 25.6028L35.5619 20.1744L20.9595 29.6386L20.9457 29.6172H20.9014V25.6226L20.9442 25.6074Z" fill="#001818"/>
<path d="M27.6764 4.43848L35.5617 20.1678L20.9607 10.7036L20.9424 10.6914L20.9454 10.6838L27.629 4.48276L27.6764 4.43848ZM35.5617 20.1739L27.6764 35.9033L27.6321 35.8605L20.9454 29.6579L20.9424 29.6503L20.9592 29.6381L35.5617 20.1739Z" fill="#005352"/>
<path d="M20.9427 10.6913L20.9612 10.7036L20.9458 10.728H10.2524L10.1562 10.6913L12.827 4.47656L12.8406 4.48267H27.6293L20.9458 10.6837L20.9427 10.6913ZM20.9458 10.728L20.9015 10.7677V10.728H20.9458ZM20.9458 29.6167L20.9595 29.6381L20.9427 29.6503L20.9458 29.6579L27.6325 35.8605H12.8406L12.827 35.8666L10.1562 29.6503L10.2464 29.6167H20.8543L20.9015 29.661V29.6167H20.9458Z" fill="#006F6D"/>
<path d="M20.9427 14.7395L35.5619 20.1679V20.174L20.9427 25.6024L20.9442 25.607L20.9014 25.6223V14.7197L20.9442 14.7349L20.9427 14.7395Z" fill="#005352"/>
<path d="M20.9008 29.6172V29.6614L20.8535 29.6172H20.9008Z" fill="black"/>
<path d="M20.9016 25.623V29.6176H20.8543L17.8125 26.7804L20.9016 25.623Z" fill="#002223"/>
<path d="M20.9013 25.6088V25.6225L17.8122 26.78L10.7988 20.1804V20.1621L17.8122 13.5625L20.9013 14.7199V20.1834V25.6088Z" fill="#006F6D"/>
<path d="M20.9016 10.7686V14.7204L17.8125 13.563L20.9016 10.7686Z" fill="#002223"/>
<path d="M20.9013 10.7285V10.7682L17.8122 13.5626L10.2522 10.7285H20.9013ZM20.854 29.6172H10.2461L17.8122 26.78L20.854 29.6172Z" fill="#003736"/>
<path d="M15.9406 38.3701H17.1637L17.5622 39.9047L17.692 40.5124H17.7134L17.8432 39.9047L18.2188 38.3701H19.442V43.0747H18.4433V41.9676C18.4433 41.8271 18.4494 41.65 18.4616 41.4362C18.4738 41.2209 18.4876 40.9995 18.5013 40.7705C18.5151 40.5414 18.5334 40.32 18.5517 40.1078C18.5716 39.8955 18.5884 39.7199 18.6021 39.5794H18.5807L18.1898 40.9766L17.944 41.8241H17.408L17.1622 40.9766L16.7926 39.5794H16.7636C16.7774 39.7199 16.7957 39.8955 16.814 40.1078C16.8339 40.32 16.8507 40.5414 16.8644 40.7705C16.8782 40.9995 16.8919 41.2225 16.9041 41.4362C16.9163 41.6515 16.9224 41.8287 16.9224 41.9676V43.0747H15.9375L15.9406 38.3701ZM23.4823 42.076H22.1936L21.9615 43.0747H20.688L22.1065 38.3701H23.6121L25.0307 43.0747H23.7129L23.4823 42.076ZM23.2579 41.1125L23.1861 40.7873C23.1327 40.5598 23.0777 40.3139 23.0197 40.0497C22.9616 39.7841 22.9036 39.5336 22.8456 39.2969H22.8166C22.7631 39.5382 22.7097 39.7902 22.6532 40.0528C22.5982 40.3154 22.5432 40.5613 22.4898 40.7873L22.418 41.1125H23.2579ZM27.2448 40.6575L25.9637 38.3701H27.3532L27.7289 39.1366C27.7823 39.2481 27.8373 39.3672 27.8953 39.4955C27.9533 39.6237 28.0159 39.7642 28.0831 39.9184H28.1121C28.1656 39.7642 28.2175 39.6222 28.271 39.4955C28.3244 39.3672 28.3748 39.2481 28.4236 39.1366L28.7565 38.3701H30.0881L28.8069 40.7155L30.1675 43.0747H28.7779L28.3442 42.2348C28.2771 42.1096 28.2145 41.9844 28.1595 41.8592C28.1045 41.734 28.045 41.5981 27.9824 41.4546H27.9533C27.8999 41.5996 27.8464 41.734 27.79 41.8592C27.735 41.9844 27.6785 42.1096 27.6205 42.2348L27.2158 43.0747H25.8843L27.2448 40.6575Z" fill="white"/>
<path d="M174.062 13.628H169.747V23.6068C169.747 26.1751 168.691 28.2155 165.594 28.2155C162.527 28.246 161.643 26.1446 161.643 23.4748V13.628H157.318V24.5712C157.318 27.7283 158.435 32.2456 164.375 32.2761C167.635 32.3065 169.249 30.7229 170.011 29.3119V31.7177H174.062V13.628ZM175.779 31.7177H180.094V21.7389C180.094 19.2011 181.15 17.1607 184.217 17.1302C187.253 17.1302 188.136 19.2011 188.136 21.9115V31.7177H192.452V20.8152C192.452 17.6175 191.335 13.1103 185.435 13.0697C182.206 13.0392 180.592 14.6127 179.8 16.0339C179.83 15.1811 179.83 14.4198 179.83 13.628H175.779V31.7177ZM194.107 31.7177H198.423V13.628H194.107V31.7177ZM194.107 11.1917H198.423V7.33417H194.107V11.1917ZM202.942 31.7177H207.257V16.9576H210.354L209.075 13.628H207.257V7.33417H202.942V13.628H199.946V16.9576H202.942V31.7177ZM214.528 38.042H219.138L228.663 13.628H224.053L219.707 25.6574L215.29 13.628H210.679L217.503 31.0274L214.528 38.042ZM133.648 22.5104L141.527 8.90764L145.335 22.5104L141.527 36.1133L133.648 22.5104ZM129.809 24.7133L137.689 38.3161L123.96 34.8037L114.039 24.7133H129.809ZM137.689 6.69463L129.809 20.2974H114.039L123.96 10.207L137.689 6.69463ZM148.94 17.8814L144.127 0.00488281L126.184 4.79633L123.524 9.46596L118.132 9.42534L104.992 22.5104L118.132 35.5956L123.524 35.555L126.184 40.2246L144.127 45.016L148.94 27.1395L146.209 22.5104L148.94 17.8814Z" fill="#212C37"/>
<path d="M6.18563 55.89C6.83229 55.97 7.32563 56.19 7.66563 56.55C8.00563 56.91 8.17563 57.36 8.17563 57.9C8.17563 58.3067 8.07229 58.6767 7.86563 59.01C7.65896 59.3433 7.34563 59.61 6.92563 59.81C6.51229 60.0033 6.00563 60.1 5.40562 60.1C4.90563 60.1 4.42229 60.03 3.95563 59.89C3.49563 59.7433 3.10229 59.5433 2.77563 59.29L3.33563 58.28C3.58896 58.4933 3.89563 58.6633 4.25563 58.79C4.62229 58.91 4.99896 58.97 5.38563 58.97C5.84563 58.97 6.20563 58.8767 6.46563 58.69C6.73229 58.4967 6.86563 58.2367 6.86563 57.91C6.86563 57.5833 6.73896 57.33 6.48563 57.15C6.23896 56.9633 5.85896 56.87 5.34563 56.87H4.70563V55.98L6.29563 54.09H3.11563V53H7.88563V53.87L6.18563 55.89ZM9.32594 53H12.3859C13.1326 53 13.7959 53.1467 14.3759 53.44C14.9559 53.7267 15.4059 54.1367 15.7259 54.67C16.0459 55.1967 16.2059 55.8067 16.2059 56.5C16.2059 57.1933 16.0459 57.8067 15.7259 58.34C15.4059 58.8667 14.9559 59.2767 14.3759 59.57C13.7959 59.8567 13.1326 60 12.3859 60H9.32594V53ZM12.3259 58.9C12.8393 58.9 13.2893 58.8033 13.6759 58.61C14.0693 58.41 14.3693 58.13 14.5759 57.77C14.7893 57.4033 14.8959 56.98 14.8959 56.5C14.8959 56.02 14.7893 55.6 14.5759 55.24C14.3693 54.8733 14.0693 54.5933 13.6759 54.4C13.2893 54.2 12.8393 54.1 12.3259 54.1H10.6259V58.9H12.3259ZM26.3813 60L26.3713 55.36L24.0713 59.2H23.4913L21.1913 55.42V60H19.9513V53H21.0213L23.8013 57.64L26.5313 53H27.6013L27.6113 60H26.3813ZM33.8421 58.38H30.3421L29.6521 60H28.3121L31.4621 53H32.7421L35.9021 60H34.5421L33.8421 58.38ZM33.4121 57.36L32.0921 54.3L30.7821 57.36H33.4121ZM40.6508 60L38.7508 57.34L36.8708 60H35.3908L37.9908 56.43L35.5308 53H37.0008L38.7908 55.49L40.5608 53H41.9708L39.5208 56.38L42.1508 60H40.6508Z" fill="#6D6B6C"/>
</svg>
