<svg width="351" height="65" viewBox="0 0 351 65" fill="none" xmlns="http://www.w3.org/2000/svg">
<g clip-path="url(#clip0)">
<path d="M145.921 0H109.079C106.826 0 105 1.82637 105 4.07936V40.9206C105 43.1736 106.826 45 109.079 45H145.921C148.174 45 150 43.1736 150 40.9206V4.07936C150 1.82637 148.174 0 145.921 0Z" fill="#DC395F"/>
<path d="M120.039 14.1583C121.535 14.1583 122.788 12.9858 122.788 11.4491C122.788 9.9135 121.535 8.74121 120.039 8.74121C118.543 8.74121 117.29 9.9135 117.29 11.4491C117.29 12.9856 118.543 14.1583 120.039 14.1583ZM114.339 28.6638C114.178 29.3511 114.097 30.0932 114.097 30.6986C114.097 33.0841 115.39 34.6677 118.139 34.6677C120.419 34.6677 122.267 33.3139 123.598 31.1277L122.786 34.3889H127.313L129.9 24.011C130.547 21.3834 131.8 20.0195 133.701 20.0195C135.196 20.0195 136.126 20.9498 136.126 22.4854C136.126 22.9303 136.086 23.4149 135.924 23.9407L134.59 28.7109C134.388 29.3982 134.307 30.0858 134.307 30.7322C134.307 32.9968 135.641 34.6531 138.43 34.6531C140.815 34.6531 142.715 33.1177 143.766 29.4388L141.988 28.7522C141.098 31.2168 140.33 31.6624 139.724 31.6624C139.117 31.6624 138.794 31.2585 138.794 30.4504C138.794 30.0865 138.875 29.6828 138.996 29.1965L140.29 24.5492C140.613 23.458 140.735 22.4903 140.735 21.6012C140.735 18.1246 138.632 16.3102 136.086 16.3102C133.701 16.3102 131.275 18.4616 130.062 20.7258L130.951 16.6618H124.039L123.069 20.2414H126.303L124.311 28.2148C122.747 31.6914 119.874 31.7478 119.514 31.6672C118.922 31.5336 118.543 31.3087 118.543 30.5395C118.543 30.0957 118.624 29.4581 118.826 28.6894L121.859 16.6618H114.178L113.207 20.2414H116.401L114.339 28.6638Z" fill="white"/>
<path d="M1.875 1.92773H43.125V43.0732H1.875V1.92773Z" fill="#33001D"/>
<path d="M0 0.00488281V44.9956H45V0.00488281H0ZM1.875 1.92756H43.125V43.0729H1.875V1.92756Z" fill="#FF00BF"/>
<path d="M32.6816 18.9048C32.4004 18.7703 32.0441 18.7126 31.5941 18.7126C29.2316 18.7126 27.6566 20.5776 27.6566 23.6731C27.6566 27.2108 29.2691 28.6336 31.3691 28.6336C31.8191 28.6336 32.3066 28.5759 32.6629 28.4221V18.9048H32.6816ZM24.2816 23.8269C24.2816 19.3471 27.0941 15.8478 31.7066 15.8478C32.1004 15.8478 32.3066 15.8478 32.6816 15.8862V10.8873C32.6816 10.7719 32.7754 10.695 32.8691 10.695H35.8879C36.0379 10.695 36.0754 10.7527 36.0754 10.8488V28.4221C36.0754 28.9412 36.0754 29.595 36.1691 30.3063C36.1691 30.4409 36.1691 30.4602 36.0566 30.5178C34.4816 31.2869 32.8316 31.633 31.2566 31.633C27.1879 31.633 24.2816 29.0566 24.2816 23.8269ZM17.8879 20.7122L23.1379 31.1523C23.2316 31.3061 23.1754 31.46 23.0254 31.46H19.7629C19.5566 31.46 19.4629 31.4023 19.3691 31.21C18.1692 28.6721 16.9504 26.038 15.6941 23.3078H15.6566C14.5316 25.8842 13.2941 28.6913 12.0941 31.2292C12.0004 31.383 11.9066 31.4407 11.7566 31.4407H8.64412C8.45662 31.4407 8.43787 31.2869 8.53162 31.1716L13.6691 21.039L8.70037 10.9642C8.58787 10.8103 8.70037 10.6758 8.83162 10.6758H12.0567C12.2442 10.6758 12.3379 10.7142 12.3941 10.8873C13.5754 13.4444 14.7754 15.9631 15.9004 18.5395H15.9379C17.0254 16.0016 18.2254 13.4444 19.3691 10.9257C19.4629 10.7719 19.5191 10.6758 19.7066 10.6758H22.7254C22.8754 10.6758 22.9316 10.7911 22.8379 10.9642L17.8879 20.7122Z" fill="#FF00BF"/>
<path d="M20.4695 60L18.5695 57.34L16.6895 60H15.2095L17.8095 56.43L15.3495 53H16.8195L18.6095 55.49L20.3795 53H21.7895L19.3395 56.38L21.9695 60H20.4695ZM22.5588 53H25.6188C26.3654 53 27.0288 53.1467 27.6088 53.44C28.1888 53.7267 28.6388 54.1367 28.9588 54.67C29.2788 55.1967 29.4388 55.8067 29.4388 56.5C29.4388 57.1933 29.2788 57.8067 28.9588 58.34C28.6388 58.8667 28.1888 59.2767 27.6088 59.57C27.0288 59.8567 26.3654 60 25.6188 60H22.5588V53ZM25.5588 58.9C26.0721 58.9 26.5221 58.8033 26.9088 58.61C27.3021 58.41 27.6021 58.13 27.8088 57.77C28.0221 57.4033 28.1288 56.98 28.1288 56.5C28.1288 56.02 28.0221 55.6 27.8088 55.24C27.6021 54.8733 27.3021 54.5933 26.9088 54.4C26.5221 54.2 26.0721 54.1 25.5588 54.1H23.8588V58.9H25.5588Z" fill="#6D6B6C"/>
<path d="M105.356 53H106.656V60H105.356V53ZM114.569 53V60H113.499L109.639 55.26V60H108.349V53H109.419L113.279 57.74V53H114.569ZM122.596 53L119.546 60H118.266L115.206 53H116.616L118.946 58.4L121.296 53H122.596ZM123.135 53H124.435V60H123.135V53ZM128.298 60.1C127.758 60.1 127.235 60.0233 126.728 59.87C126.228 59.7167 125.831 59.5133 125.538 59.26L125.988 58.25C126.275 58.4767 126.625 58.6633 127.038 58.81C127.458 58.95 127.878 59.02 128.298 59.02C128.818 59.02 129.205 58.9367 129.458 58.77C129.718 58.6033 129.848 58.3833 129.848 58.11C129.848 57.91 129.775 57.7467 129.628 57.62C129.488 57.4867 129.308 57.3833 129.088 57.31C128.868 57.2367 128.568 57.1533 128.188 57.06C127.655 56.9333 127.221 56.8067 126.888 56.68C126.561 56.5533 126.278 56.3567 126.038 56.09C125.805 55.8167 125.688 55.45 125.688 54.99C125.688 54.6033 125.791 54.2533 125.998 53.94C126.211 53.62 126.528 53.3667 126.948 53.18C127.375 52.9933 127.895 52.9 128.508 52.9C128.935 52.9 129.355 52.9533 129.768 53.06C130.181 53.1667 130.538 53.32 130.838 53.52L130.428 54.53C130.121 54.35 129.801 54.2133 129.468 54.12C129.135 54.0267 128.811 53.98 128.498 53.98C127.985 53.98 127.601 54.0667 127.348 54.24C127.101 54.4133 126.978 54.6433 126.978 54.93C126.978 55.13 127.048 55.2933 127.188 55.42C127.335 55.5467 127.518 55.6467 127.738 55.72C127.958 55.7933 128.258 55.8767 128.638 55.97C129.158 56.09 129.585 56.2167 129.918 56.35C130.251 56.4767 130.535 56.6733 130.768 56.94C131.008 57.2067 131.128 57.5667 131.128 58.02C131.128 58.4067 131.021 58.7567 130.808 59.07C130.601 59.3833 130.285 59.6333 129.858 59.82C129.431 60.0067 128.911 60.1 128.298 60.1ZM132.217 53H133.517V60H132.217V53ZM138.481 60.1C137.767 60.1 137.124 59.9467 136.551 59.64C135.977 59.3267 135.527 58.8967 135.201 58.35C134.874 57.7967 134.711 57.18 134.711 56.5C134.711 55.82 134.874 55.2067 135.201 54.66C135.527 54.1067 135.977 53.6767 136.551 53.37C137.124 53.0567 137.767 52.9 138.481 52.9C139.194 52.9 139.837 53.0567 140.411 53.37C140.984 53.6767 141.434 54.1033 141.761 54.65C142.087 55.1967 142.251 55.8133 142.251 56.5C142.251 57.1867 142.087 57.8033 141.761 58.35C141.434 58.8967 140.984 59.3267 140.411 59.64C139.837 59.9467 139.194 60.1 138.481 60.1ZM138.481 58.96C138.947 58.96 139.367 58.8567 139.741 58.65C140.114 58.4367 140.407 58.1433 140.621 57.77C140.834 57.39 140.941 56.9667 140.941 56.5C140.941 56.0333 140.834 55.6133 140.621 55.24C140.407 54.86 140.114 54.5667 139.741 54.36C139.367 54.1467 138.947 54.04 138.481 54.04C138.014 54.04 137.594 54.1467 137.221 54.36C136.847 54.5667 136.554 54.86 136.341 55.24C136.127 55.6133 136.021 56.0333 136.021 56.5C136.021 56.9667 136.127 57.39 136.341 57.77C136.554 58.1433 136.847 58.4367 137.221 58.65C137.594 58.8567 138.014 58.96 138.481 58.96ZM149.648 53V60H148.578L144.718 55.26V60H143.428V53H144.498L148.358 57.74V53H149.648Z" fill="#6D6B6C"/>
<path d="M217.334 60.1C216.794 60.1 216.27 60.0233 215.764 59.87C215.264 59.7167 214.867 59.5133 214.574 59.26L215.024 58.25C215.31 58.4767 215.66 58.6633 216.074 58.81C216.494 58.95 216.914 59.02 217.334 59.02C217.854 59.02 218.24 58.9367 218.494 58.77C218.754 58.6033 218.884 58.3833 218.884 58.11C218.884 57.91 218.81 57.7467 218.664 57.62C218.524 57.4867 218.344 57.3833 218.124 57.31C217.904 57.2367 217.604 57.1533 217.224 57.06C216.69 56.9333 216.257 56.8067 215.924 56.68C215.597 56.5533 215.314 56.3567 215.074 56.09C214.84 55.8167 214.724 55.45 214.724 54.99C214.724 54.6033 214.827 54.2533 215.034 53.94C215.247 53.62 215.564 53.3667 215.984 53.18C216.41 52.9933 216.93 52.9 217.544 52.9C217.97 52.9 218.39 52.9533 218.804 53.06C219.217 53.1667 219.574 53.32 219.874 53.52L219.464 54.53C219.157 54.35 218.837 54.2133 218.504 54.12C218.17 54.0267 217.847 53.98 217.534 53.98C217.02 53.98 216.637 54.0667 216.384 54.24C216.137 54.4133 216.014 54.6433 216.014 54.93C216.014 55.13 216.084 55.2933 216.224 55.42C216.37 55.5467 216.554 55.6467 216.774 55.72C216.994 55.7933 217.294 55.8767 217.674 55.97C218.194 56.09 218.62 56.2167 218.954 56.35C219.287 56.4767 219.57 56.6733 219.804 56.94C220.044 57.2067 220.164 57.5667 220.164 58.02C220.164 58.4067 220.057 58.7567 219.844 59.07C219.637 59.3833 219.32 59.6333 218.894 59.82C218.467 60.0067 217.947 60.1 217.334 60.1ZM223.663 57.07L222.553 58.21V60H221.253V53H222.553V56.59L226.013 53H227.473L224.533 56.13L227.653 60H226.133L223.663 57.07ZM233.588 58.91V60H228.338V53H233.448V54.09H229.638V55.91H233.018V56.98H229.638V58.91H233.588ZM236.257 54.1H233.937V53H239.877V54.1H237.557V60H236.257V54.1ZM243.795 60.1C243.088 60.1 242.448 59.9467 241.875 59.64C241.308 59.3267 240.862 58.8967 240.535 58.35C240.215 57.8033 240.055 57.1867 240.055 56.5C240.055 55.8133 240.218 55.1967 240.545 54.65C240.872 54.1033 241.318 53.6767 241.885 53.37C242.458 53.0567 243.098 52.9 243.805 52.9C244.378 52.9 244.902 53 245.375 53.2C245.848 53.4 246.248 53.69 246.575 54.07L245.735 54.86C245.228 54.3133 244.605 54.04 243.865 54.04C243.385 54.04 242.955 54.1467 242.575 54.36C242.195 54.5667 241.898 54.8567 241.685 55.23C241.472 55.6033 241.365 56.0267 241.365 56.5C241.365 56.9733 241.472 57.3967 241.685 57.77C241.898 58.1433 242.195 58.4367 242.575 58.65C242.955 58.8567 243.385 58.96 243.865 58.96C244.605 58.96 245.228 58.6833 245.735 58.13L246.575 58.93C246.248 59.31 245.845 59.6 245.365 59.8C244.892 60 244.368 60.1 243.795 60.1ZM253.841 53V60H252.541V57H248.921V60H247.621V53H248.921V55.89H252.541V53H253.841Z" fill="#6D6B6C"/>
<path d="M319.977 54.09V56.22H323.357V57.32H319.977V60H318.677V53H323.787V54.09H319.977ZM324.844 53H326.144V60H324.844V53ZM332.617 56.42H333.847V59.21C333.487 59.4967 333.067 59.7167 332.587 59.87C332.107 60.0233 331.614 60.1 331.107 60.1C330.394 60.1 329.751 59.9467 329.177 59.64C328.604 59.3267 328.154 58.8967 327.827 58.35C327.501 57.8033 327.337 57.1867 327.337 56.5C327.337 55.8133 327.501 55.1967 327.827 54.65C328.154 54.1033 328.604 53.6767 329.177 53.37C329.757 53.0567 330.407 52.9 331.127 52.9C331.714 52.9 332.247 52.9967 332.727 53.19C333.207 53.3833 333.611 53.6667 333.937 54.04L333.117 54.84C332.584 54.3067 331.941 54.04 331.187 54.04C330.694 54.04 330.254 54.1433 329.867 54.35C329.487 54.5567 329.187 54.8467 328.967 55.22C328.754 55.5933 328.647 56.02 328.647 56.5C328.647 56.9667 328.754 57.3867 328.967 57.76C329.187 58.1333 329.487 58.4267 329.867 58.64C330.254 58.8533 330.691 58.96 331.177 58.96C331.724 58.96 332.204 58.84 332.617 58.6V56.42ZM341.792 60L341.782 55.36L339.482 59.2H338.902L336.602 55.42V60H335.362V53H336.432L339.212 57.64L341.942 53H343.012L343.022 60H341.792ZM349.253 58.38H345.753L345.063 60H343.723L346.873 53H348.153L351.313 60H349.953L349.253 58.38ZM348.823 57.36L347.503 54.3L346.193 57.36H348.823Z" fill="#6D6B6C"/>
<path fill-rule="evenodd" clip-rule="evenodd" d="M220.089 16.1689L234.776 44.9479L210.091 16.1689H220.089Z" fill="#EA6C00"/>
<path fill-rule="evenodd" clip-rule="evenodd" d="M249.466 16.1689L234.78 44.9479L259.465 16.1689H249.466Z" fill="#EA6C00"/>
<path fill-rule="evenodd" clip-rule="evenodd" d="M220.089 16.1689H249.462L234.775 44.9479L220.089 16.1689Z" fill="#FDAD00"/>
<path fill-rule="evenodd" clip-rule="evenodd" d="M234.775 0.219727L220.862 1.69217L220.089 16.1691L234.775 0.219727Z" fill="#FDD231"/>
<path fill-rule="evenodd" clip-rule="evenodd" d="M234.774 0.219727L248.688 1.69217L249.461 16.1691L234.774 0.219727Z" fill="#FDD231"/>
<path fill-rule="evenodd" clip-rule="evenodd" d="M259.464 16.1693L248.692 1.69238L249.465 16.1693H259.464Z" fill="#FDAD00"/>
<path fill-rule="evenodd" clip-rule="evenodd" d="M210.091 16.1693L220.862 1.69238L220.089 16.1693H210.091Z" fill="#FDAD00"/>
<path fill-rule="evenodd" clip-rule="evenodd" d="M234.775 0.219727L220.089 16.1691H249.462L234.775 0.219727Z" fill="#FEEEB7"/>
<path d="M327.503 45C331.643 45 335.003 41.64 335.003 37.5V30H327.503C323.363 30 320.003 33.36 320.003 37.5C320.003 41.64 323.363 45 327.503 45Z" fill="#00DB85"/>
<path d="M320.003 22.5C320.003 18.36 323.363 15 327.503 15H335.003V30H327.503C323.363 30 320.003 26.64 320.003 22.5Z" fill="#B512FF"/>
<path d="M320.003 7.5C320.003 3.36 323.363 0 327.503 0H335.003V15H327.503C323.363 15 320.003 11.64 320.003 7.5Z" fill="#FF2100"/>
<path d="M335.003 0H342.503C346.643 0 350.003 3.36 350.003 7.5C350.003 11.64 346.643 15 342.503 15H335.003V0Z" fill="#FF5B55"/>
<path d="M350.003 22.5C350.003 26.64 346.643 30 342.503 30C338.363 30 335.003 26.64 335.003 22.5C335.003 18.36 338.363 15 342.503 15C346.643 15 350.003 18.36 350.003 22.5Z" fill="#00BCFF"/>
</g>
<defs>
<clipPath id="clip0">
<rect width="351" height="65" fill="white"/>
</clipPath>
</defs>
</svg>
