<svg width="490" height="41" viewBox="0 0 490 41" fill="none" xmlns="http://www.w3.org/2000/svg">
<g clip-path="url(#clip0)">
<path d="M333.281 20.2129C333.281 17.2053 332.404 15.6612 330.65 15.5767C329.952 15.5445 329.271 15.6531 328.608 15.9049C328.079 16.0899 327.723 16.2733 327.535 16.4586V23.6376C328.657 24.3262 329.653 24.6464 330.522 24.596C332.361 24.4768 333.281 23.0174 333.281 20.2129ZM335.445 20.3377C335.445 21.8657 335.078 23.134 334.341 24.1426C333.52 25.2841 332.382 25.872 330.926 25.9042C329.829 25.9383 328.698 25.6022 327.535 24.8975V31.4224L325.653 30.766V16.2832C325.962 15.913 326.36 15.5949 326.841 15.3249C327.961 14.6867 329.322 14.3586 330.924 14.3426L330.95 14.3686C332.415 14.3507 333.542 14.9384 334.335 16.1302C335.074 17.2234 335.445 18.6246 335.445 20.3377ZM346.945 24.6199C346.945 26.6695 346.735 28.0886 346.315 28.8778C345.893 29.6668 345.09 30.297 343.904 30.7662C342.943 31.1365 341.903 31.3379 340.788 31.3722L340.477 30.2127C341.611 30.0619 342.41 29.9107 342.873 29.7597C343.785 29.4577 344.411 28.9949 344.755 28.3747C345.03 27.8695 345.166 26.9051 345.166 25.4779V24.9988C343.88 25.5707 342.531 25.8544 341.121 25.8544C340.194 25.8544 339.377 25.5707 338.673 24.9988C337.882 24.3767 337.487 23.5876 337.487 22.6313V14.9728L339.369 14.3426V22.051C339.369 22.8742 339.641 23.5085 340.184 23.9535C340.728 24.3983 341.432 24.6119 342.294 24.5956C343.157 24.5774 344.081 24.2512 345.063 23.613V14.6202H346.945V24.6199H346.945ZM354.291 25.8036C354.084 25.8206 353.878 25.8293 353.671 25.8296C352.606 25.8296 351.776 25.5822 351.184 25.0849C350.593 24.5877 350.297 23.9014 350.297 23.0254V15.7778H349.008V14.6204H350.297V11.5462L352.176 10.8919V14.6204H354.291V15.7778H352.176V22.9751C352.176 23.6657 352.366 24.1548 352.745 24.4409C353.069 24.6763 353.586 24.8112 354.29 24.8455V25.8036H354.291ZM365.684 25.6527H363.803V18.55C363.803 17.8274 363.63 17.2053 363.285 16.686C362.888 16.098 362.336 15.8041 361.628 15.8041C360.766 15.8041 359.687 16.249 358.392 17.1388V25.6527H356.51V8.67547L358.392 8.0957V15.8282C359.594 14.9726 360.908 14.5438 362.334 14.5438C363.331 14.5438 364.137 14.8719 364.756 15.5263C365.375 16.1804 365.684 16.9959 365.684 17.9703V25.6527ZM375.686 19.9232C375.686 18.7675 375.461 17.8133 375.014 17.0584C374.483 16.1385 373.658 15.6531 372.542 15.6029C370.479 15.7196 369.449 17.165 369.449 19.9354C369.449 21.2056 369.664 22.2666 370.096 23.1181C370.647 24.2034 371.475 24.739 372.579 24.7207C374.65 24.7044 375.686 23.106 375.686 19.9232ZM377.746 19.9351C377.746 21.5801 377.316 22.949 376.457 24.042C375.512 25.2662 374.207 25.88 372.542 25.88C370.89 25.88 369.603 25.266 368.675 24.042C367.833 22.949 367.413 21.5801 367.413 19.9351C367.413 18.3891 367.868 17.0886 368.778 16.0297C369.74 14.9062 371.004 14.3426 372.566 14.3426C374.128 14.3426 375.401 14.9062 376.381 16.0297C377.291 17.0886 377.746 18.3891 377.746 19.9351ZM388.534 25.6527H386.652V18.1475C386.652 17.3242 386.399 16.6818 385.893 16.2188C385.386 15.7578 384.711 15.5344 383.869 15.5523C382.976 15.5684 382.125 15.8543 381.318 16.408V25.6527H379.436V16.1806C380.519 15.4098 381.516 14.9062 382.426 14.6707C383.284 14.4514 384.041 14.3426 384.694 14.3426C385.141 14.3426 385.561 14.3847 385.956 14.4694C386.696 14.6365 387.297 14.9465 387.759 15.4015C388.277 15.9049 388.534 16.5085 388.534 17.2154V25.6527Z" fill="#646464"/>
<path d="M298.121 1.27084C296.525 1.27809 295.002 1.41282 293.66 1.64785C289.71 2.3388 288.993 3.78444 288.993 6.45106V9.97258H298.328V11.1463H285.489C282.776 11.1463 280.401 12.7604 279.657 15.8309C278.8 19.3505 278.762 21.5467 279.657 25.2217C280.32 27.9572 281.905 29.9063 284.619 29.9063H287.829V25.6847C287.829 22.635 290.495 19.945 293.66 19.945H302.985C305.581 19.945 307.653 17.8297 307.653 15.2496V6.45065C307.653 3.94675 305.519 2.06552 302.985 1.6475C301.381 1.38353 299.718 1.26327 298.121 1.27084ZM293.072 4.10286C294.038 4.10286 294.825 4.89515 294.825 5.869C294.825 6.8394 294.037 7.62439 293.072 7.62439C292.105 7.62439 291.321 6.8397 291.321 5.869C291.321 4.89515 292.105 4.10286 293.072 4.10286Z" fill="url(#paint0_linear)"/>
<path d="M308.816 11.1455V15.2486C308.816 18.4296 306.092 21.1068 302.985 21.1068H293.66C291.106 21.1068 288.992 23.2703 288.992 25.8022V34.6005C288.992 37.1048 291.192 38.5776 293.66 39.2957C296.615 40.1559 299.449 40.3114 302.985 39.2957C305.335 38.6223 307.652 37.2667 307.652 34.6005V31.0792H298.327V29.9055H312.319C315.033 29.9055 316.043 28.0321 316.988 25.2207C317.962 22.3268 317.921 19.543 316.988 15.8302C316.317 13.1571 315.036 11.1455 312.319 11.1455H308.816ZM303.572 33.4268C304.54 33.4268 305.324 34.2114 305.324 35.1822C305.324 36.156 304.54 36.9482 303.572 36.9482C302.607 36.9482 301.82 36.156 301.82 35.1822C301.82 34.2118 302.607 33.4268 303.572 33.4268Z" fill="url(#paint1_linear)"/>
<path d="M432.708 14.983C432.586 14.983 432.556 14.9231 432.617 14.8332L433.254 14.0215C433.315 13.9316 433.467 13.8709 433.588 13.8709H444.431C444.553 13.8709 444.583 13.9616 444.523 14.0514L444.006 14.8332C443.945 14.9231 443.794 15.0129 443.702 15.0129L432.708 14.983ZM428.121 17.7484C428 17.7484 427.97 17.6885 428.03 17.5979L428.668 16.7862C428.729 16.6963 428.881 16.6364 429.002 16.6364H442.852C442.973 16.6364 443.035 16.7263 443.004 16.8169L442.761 17.538C442.73 17.6586 442.609 17.7185 442.487 17.7185L428.121 17.7484ZM435.472 20.5132C435.35 20.5132 435.32 20.4233 435.38 20.3335L435.806 19.5824C435.866 19.4918 435.988 19.4011 436.109 19.4011H442.184C442.306 19.4011 442.366 19.4918 442.366 19.6123L442.306 20.3335C442.306 20.4533 442.184 20.5439 442.093 20.5439L435.472 20.5132ZM466.998 14.4423C465.084 14.9231 463.778 15.2833 461.896 15.7648C461.44 15.8853 461.41 15.9153 461.015 15.4645C460.559 14.953 460.225 14.6228 459.587 14.3217C457.674 13.3902 455.821 13.6605 454.09 14.7725C452.025 16.095 450.961 18.0487 450.992 20.4832C451.022 22.8885 452.692 24.8714 455.092 25.2017C457.158 25.4728 458.889 24.7516 460.255 23.2187C460.529 22.8885 460.772 22.5276 461.075 22.1067H455.214C454.576 22.1067 454.423 21.7158 454.636 21.2044C455.031 20.2736 455.76 18.71 456.186 17.9289C456.277 17.7485 456.489 17.4474 456.945 17.4474H468C467.939 18.2592 467.939 19.0709 467.818 19.8826C467.484 22.0461 466.664 24.0305 465.327 25.7738C463.141 28.6284 460.286 30.4016 456.671 30.8832C453.695 31.274 450.931 30.7019 448.502 28.8987C446.254 27.2161 444.978 24.992 444.644 22.2265C444.249 18.9503 445.221 16.0051 447.225 13.4201C449.382 10.6252 452.237 8.8519 455.73 8.2207C458.585 7.70976 461.318 8.04038 463.778 9.69345C465.388 10.7453 466.542 12.1881 467.301 13.9316C467.484 14.2019 467.363 14.3524 466.998 14.4423Z" fill="#2DBCAF"/>
<path d="M476.766 31C474.022 30.9395 471.519 30.1504 469.409 28.3301C467.63 26.7828 466.514 24.8106 466.152 22.4748C465.609 19.046 466.544 16.0118 468.595 13.3117C470.795 10.3993 473.449 8.88239 477.038 8.24523C480.113 7.69916 483.008 8.0025 485.632 9.79257C488.013 11.4309 489.491 13.6458 489.883 16.5583C490.396 20.6546 489.219 23.992 486.415 26.8433C484.425 28.8759 481.983 30.1504 479.179 30.7271C478.364 30.8783 477.55 30.9085 476.766 31ZM483.943 18.7429C483.913 18.3483 483.913 18.0452 483.853 17.7421C483.309 14.7381 480.565 13.0388 477.7 13.7063C474.896 14.3435 473.087 16.1335 472.424 18.9856C471.881 21.3523 473.027 23.7486 475.198 24.7199C476.856 25.4478 478.515 25.3564 480.113 24.5377C482.495 23.2943 483.792 21.3523 483.943 18.7429Z" fill="#2DBCAF"/>
<path d="M223.72 19.997L221.999 18.9316C221.984 18.7639 221.968 18.5966 221.95 18.4302L223.429 17.0505C223.579 16.9103 223.646 16.7027 223.606 16.5017C223.567 16.3 223.425 16.1338 223.233 16.0622L221.342 15.3552C221.294 15.1914 221.245 15.0288 221.194 14.867L222.373 13.2288C222.494 13.0624 222.518 12.8457 222.44 12.6558C222.362 12.4665 222.19 12.331 221.987 12.2977L219.994 11.9734C219.916 11.8222 219.836 11.6734 219.754 11.5257L220.592 9.6865C220.678 9.4993 220.66 9.2815 220.546 9.1114C220.432 8.9407 220.238 8.8407 220.032 8.8486L218.009 8.9191C217.904 8.7883 217.798 8.6586 217.689 8.5313L218.154 6.5602C218.201 6.36 218.142 6.1504 217.996 6.0051C217.852 5.8602 217.642 5.8002 217.442 5.8472L215.471 6.3118C215.343 6.2037 215.213 6.0968 215.082 5.9922L215.153 3.96854C215.161 3.76367 215.061 3.56898 214.891 3.45538C214.719 3.341 214.503 3.32376 214.316 3.40876L212.477 4.24705C212.329 4.16558 212.179 4.08488 212.029 4.00693L211.704 2.01267C211.671 1.81054 211.535 1.63897 211.346 1.56062C211.157 1.48189 210.94 1.50735 210.773 1.62722L209.134 2.80669C208.972 2.75537 208.811 2.70602 208.647 2.65901L207.939 0.76778C207.868 0.57505 207.701 0.43364 207.5 0.39368C207.299 0.35412 207.092 0.4211 206.952 0.57074L205.572 2.05106C205.405 2.03265 205.238 2.01581 205.07 2.0021L204.005 0.28047C203.897 0.10616 203.707 0 203.501 0C203.296 0 203.105 0.10616 202.998 0.28047L201.932 2.0021C201.765 2.01581 201.597 2.03265 201.431 2.05106L200.05 0.57074C199.911 0.4211 199.703 0.35412 199.502 0.39368C199.3 0.43403 199.135 0.57505 199.062 0.76778L198.355 2.65901C198.192 2.70602 198.029 2.75577 197.868 2.80669L196.229 1.62722C196.062 1.50696 195.845 1.48149 195.656 1.56062C195.466 1.63897 195.33 1.81054 195.297 2.01267L194.972 4.00693C194.822 4.08488 194.673 4.16518 194.525 4.24705L192.686 3.40876C192.499 3.32337 192.281 3.341 192.112 3.45538C191.94 3.56898 191.841 3.76367 191.848 3.96854L191.919 5.9922C191.788 6.0968 191.659 6.2037 191.53 6.3118L189.559 5.8472C189.359 5.8006 189.149 5.8602 189.005 6.0051C188.859 6.1504 188.8 6.36 188.846 6.5602L189.311 8.5313C189.203 8.659 189.097 8.7883 188.992 8.9191L186.968 8.8486C186.764 8.8427 186.569 8.9407 186.455 9.1114C186.341 9.2815 186.324 9.4993 186.408 9.6865L187.247 11.5257C187.165 11.6734 187.085 11.8222 187.007 11.9734L185.013 12.2977C184.81 12.3307 184.639 12.4661 184.56 12.6558C184.483 12.8457 184.508 13.0624 184.627 13.2288L185.807 14.867C185.756 15.0288 185.706 15.1914 185.659 15.3552L183.767 16.0622C183.575 16.1338 183.434 16.3 183.394 16.5017C183.354 16.7031 183.421 16.9103 183.571 17.0505L185.051 18.4302C185.032 18.5966 185.016 18.7643 185.002 18.9316L183.281 19.997C183.106 20.1048 183 20.2952 183 20.5008C183 20.7065 183.106 20.8968 183.281 21.0041L185.002 22.0696C185.016 22.2373 185.032 22.4045 185.051 22.5711L183.571 23.9511C183.421 24.0909 183.354 24.2986 183.394 24.4995C183.434 24.7012 183.575 24.8669 183.767 24.939L185.659 25.6461C185.706 25.8098 185.756 25.9724 185.807 26.1341L184.627 27.7727C184.507 27.9396 184.482 28.1562 184.56 28.3454C184.639 28.5354 184.811 28.671 185.013 28.7034L187.007 29.0278C187.085 29.179 187.164 29.3279 187.247 29.4763L186.408 31.3147C186.323 31.5015 186.341 31.7189 186.455 31.8897C186.57 32.0609 186.764 32.1608 186.968 32.1525L188.991 32.0817C189.097 32.2133 189.202 32.3422 189.311 32.4703L188.846 34.4418C188.8 34.6416 188.859 34.8503 189.005 34.9957C189.149 35.1418 189.359 35.2001 189.559 35.1532L191.53 34.689C191.659 34.7978 191.788 34.9036 191.919 35.0079L191.848 37.0319C191.841 37.2367 191.94 37.431 192.112 37.5454C192.281 37.6594 192.499 37.6766 192.686 37.5913L194.525 36.7533C194.673 36.8356 194.822 36.9155 194.972 36.9935L195.297 38.9866C195.33 39.1894 195.466 39.3611 195.656 39.439C195.845 39.5177 196.062 39.4923 196.229 39.3728L197.867 38.1926C198.029 38.2438 198.191 38.294 198.355 38.341L199.062 40.2314C199.134 40.4234 199.3 40.5656 199.501 40.6048C199.703 40.6455 199.911 40.5781 200.05 40.4277L201.43 38.9482C201.597 38.9674 201.764 38.9835 201.932 38.9983L202.997 40.7196C203.105 40.8931 203.296 41 203.501 41C203.706 41 203.897 40.8935 204.005 40.7196L205.07 38.9983C205.238 38.9835 205.405 38.9674 205.572 38.9482L206.952 40.4277C207.091 40.5781 207.299 40.6455 207.5 40.6048C207.701 40.5652 207.867 40.4234 207.939 40.2314L208.647 38.341C208.81 38.294 208.972 38.2438 209.135 38.1926L210.773 39.3728C210.94 39.4923 211.156 39.5177 211.346 39.439C211.535 39.3611 211.671 39.189 211.703 38.9866L212.029 36.9935C212.179 36.9155 212.328 36.8344 212.476 36.7533L214.316 37.5913C214.502 37.6766 214.719 37.6594 214.89 37.5454C215.061 37.431 215.16 37.2371 215.153 37.0319L215.082 35.0079C215.213 34.9032 215.343 34.7978 215.471 34.689L217.442 35.1532C217.642 35.2001 217.852 35.1418 217.996 34.9957C218.142 34.8503 218.201 34.6416 218.154 34.4418L217.69 32.4703C217.798 32.3422 217.904 32.2133 218.008 32.0817L220.032 32.1525C220.237 32.1608 220.431 32.0609 220.545 31.8897C220.66 31.7189 220.677 31.5015 220.592 31.3147L219.753 29.4763C219.836 29.3279 219.916 29.179 219.994 29.0278L221.987 28.7034C222.19 28.671 222.361 28.5354 222.44 28.3454C222.517 28.1562 222.493 27.9396 222.373 27.7727L221.193 26.1341C221.244 25.9724 221.294 25.8098 221.342 25.6461L223.232 24.939C223.425 24.8669 223.567 24.7012 223.605 24.4995C223.646 24.2982 223.579 24.0909 223.428 23.9511L221.95 22.5711C221.968 22.4045 221.984 22.2369 221.998 22.0696L223.719 21.0041C223.894 20.8968 224 20.7061 224 20.5008C224 20.2955 223.894 20.1048 223.72 19.997ZM212.2 34.2757C211.543 34.1339 211.124 33.486 211.265 32.8267C211.406 32.1683 212.054 31.7491 212.71 31.8909C213.368 32.0315 213.787 32.6806 213.645 33.3387C213.504 33.9968 212.856 34.4163 212.2 34.2757ZM211.615 30.3201C211.015 30.1916 210.425 30.5731 210.296 31.174L209.685 34.0257C207.8 34.8817 205.705 35.3573 203.5 35.3573C201.244 35.3573 199.104 34.8582 197.185 33.9659L196.574 31.1141C196.446 30.514 195.856 30.1316 195.256 30.2605L192.738 30.8011C192.272 30.3201 191.837 29.8077 191.437 29.2667H203.687C203.826 29.2667 203.918 29.2417 203.918 29.1156V24.7823C203.918 24.6562 203.826 24.6311 203.687 24.6311H200.104V21.8843H203.979C204.334 21.8843 205.871 21.9854 206.362 23.9506C206.517 24.5551 206.855 26.5212 207.085 27.1507C207.316 27.8565 208.254 29.2667 209.253 29.2667H215.358C215.427 29.2667 215.5 29.2589 215.578 29.2448C215.155 29.8203 214.691 30.3648 214.19 30.8736L211.615 30.3201ZM194.671 34.2161C194.014 34.3579 193.367 33.9388 193.226 33.2804C193.085 32.6207 193.503 31.9732 194.16 31.8313C194.817 31.6907 195.466 32.1099 195.607 32.7683C195.747 33.4265 195.329 34.0751 194.671 34.2161ZM190.025 15.3724C190.297 15.9878 190.02 16.7089 189.405 16.9811C188.791 17.2542 188.071 16.9765 187.799 16.3606C187.526 15.7449 187.804 15.0249 188.418 14.7519C189.033 14.4792 189.752 14.7566 190.025 15.3724ZM188.596 18.758L191.219 17.5926C191.779 17.3439 192.032 16.6873 191.783 16.126L191.243 14.9046H193.368V24.4799H189.082C188.71 23.1731 188.511 21.7939 188.511 20.3684C188.511 19.8243 188.54 19.2865 188.596 18.758ZM200.105 17.828V15.0057H205.164C205.426 15.0057 207.009 15.3078 207.009 16.4919C207.009 17.4751 205.795 17.8277 204.795 17.8277H200.105V17.828ZM218.49 20.3684C218.49 20.7429 218.476 21.1134 218.449 21.4813H216.911C216.757 21.4813 216.695 21.5823 216.695 21.7331V22.4394C216.695 24.1019 215.758 24.4635 214.936 24.5555C214.154 24.6436 213.287 24.228 213.179 23.7493C212.718 21.1538 211.95 20.5995 210.735 19.6417C212.242 18.6848 213.81 17.273 213.81 15.3834C213.81 13.3429 212.411 12.0576 211.457 11.4274C210.12 10.5455 208.639 10.3689 208.24 10.3689H192.334C194.491 7.9618 197.414 6.2566 200.72 5.6361L202.595 7.6029C203.018 8.0468 203.721 8.0632 204.164 7.639L206.262 5.6326C210.657 6.4509 214.379 9.187 216.523 12.9409L215.088 16.1844C214.839 16.7457 215.093 17.4023 215.652 17.651L218.417 18.879C218.465 19.3699 218.49 19.8658 218.49 20.3684ZM202.596 3.96305C203.082 3.49769 203.852 3.51609 204.317 4.00262C204.781 4.49031 204.763 5.2616 204.276 5.7266C203.79 6.192 203.02 6.1739 202.555 5.6866C202.091 5.1997 202.109 4.42842 202.596 3.96305ZM216.847 15.4315C217.119 14.8161 217.838 14.5384 218.453 14.8114C219.068 15.0841 219.345 15.8048 219.073 16.4202C218.8 17.036 218.081 17.3137 217.465 17.0407C216.852 16.7681 216.574 16.0476 216.847 15.4315Z" fill="black"/>
<path d="M108.498 41.001C119.819 41.001 128.997 31.823 128.997 20.502C128.997 9.18141 119.819 0.00390625 108.498 0.00390625C97.1775 0.00390625 88 9.18141 88 20.502C88 31.823 97.1775 41.001 108.498 41.001Z" fill="#6C429C"/>
<path d="M123.136 34.785L94.1494 5.79831C102.17 -2.00069 114.994 -1.93219 122.931 6.00391C130.866 13.94 130.935 26.764 123.136 34.785Z" fill="#5C2D91"/>
<path d="M94.7892 23.2046C95.1838 23.2046 95.5234 22.8786 95.5234 22.4576C95.5234 22.0366 95.1838 21.7246 94.7892 21.7246C94.3954 21.7246 94.0693 22.0366 94.0693 22.4576C94.0693 22.8786 94.3954 23.2046 94.7892 23.2046Z" fill="white"/>
<path d="M104.461 13.626V21.343L98.3332 13.626H97.5049V23.137H98.5102V15.419L104.625 23.137H105.453V13.626H104.461Z" fill="white"/>
<path d="M109.291 22.267V18.735H114.21V17.879H109.291V14.496H114.808V13.626H108.286V23.137H115.011V22.267H109.291Z" fill="white"/>
<path d="M118.95 23.137H119.955V14.496H123.298V13.626H115.607V14.496H118.95V23.137Z" fill="white"/>
<path d="M102.764 30.7995C103.576 30.7995 104.301 30.5235 104.789 29.9875L104.419 29.6175C103.97 30.0825 103.418 30.2785 102.788 30.2785C101.456 30.2785 100.455 29.3015 100.455 27.9935C100.455 26.6855 101.456 25.7085 102.788 25.7085C103.418 25.7085 103.97 25.9055 104.419 26.3625L104.789 25.9915C104.301 25.4555 103.576 25.1885 102.772 25.1885C101.109 25.1885 99.8799 26.3785 99.8799 27.9935C99.8799 29.6095 101.109 30.7995 102.764 30.7995Z" fill="white"/>
<path d="M107.266 30.7922C108.479 30.7922 109.37 29.9092 109.37 28.6792C109.37 27.4502 108.479 26.5752 107.266 26.5752C106.052 26.5752 105.153 27.4502 105.153 28.6792C105.153 29.9092 106.052 30.7922 107.266 30.7922ZM107.266 30.2952C106.383 30.2952 105.721 29.6482 105.721 28.6792C105.721 27.7102 106.383 27.0642 107.266 27.0642C108.148 27.0642 108.802 27.7102 108.802 28.6792C108.802 29.6482 108.148 30.2952 107.266 30.2952Z" fill="white"/>
<path d="M110.889 27.4192V26.6072H110.354V30.7522H110.913V28.6402C110.913 27.6632 111.441 27.1112 112.308 27.1112C112.347 27.1112 112.395 27.1192 112.442 27.1192V26.5752C111.678 26.5752 111.15 26.8672 110.889 27.4192Z" fill="white"/>
<path d="M116.876 28.6792C116.876 27.4342 116.033 26.5752 114.867 26.5752C113.7 26.5752 112.842 27.4502 112.842 28.6792C112.842 29.9092 113.724 30.7922 115.017 30.7922C115.671 30.7922 116.246 30.5552 116.617 30.1142L116.301 29.7512C115.986 30.1142 115.537 30.2952 115.032 30.2952C114.126 30.2952 113.464 29.7192 113.401 28.8532H116.868C116.868 28.7902 116.876 28.7272 116.876 28.6792ZM114.867 27.0562C115.679 27.0562 116.27 27.6242 116.341 28.4352H113.401C113.472 27.6242 114.063 27.0562 114.867 27.0562Z" fill="white"/>
<path d="M41 0H0V41H41V0Z" fill="#F7DF1E"/>
<path d="M27.5411 32.0313C28.367 33.3798 29.4415 34.3709 31.3418 34.3709C32.9382 34.3709 33.958 33.5731 33.958 32.4706C33.958 31.1495 32.9102 30.6816 31.1531 29.913L30.1899 29.4998C27.4097 28.3153 25.5627 26.8315 25.5627 23.6947C25.5627 20.8052 27.7644 18.6055 31.2051 18.6055C33.6547 18.6055 35.4157 19.458 36.6848 21.6902L33.6846 23.6166C33.0241 22.4321 32.3115 21.9655 31.2051 21.9655C30.0766 21.9655 29.3614 22.6814 29.3614 23.6166C29.3614 24.7724 30.0773 25.2403 31.7303 25.9562L32.6935 26.3688C35.967 27.7725 37.8152 29.2036 37.8152 32.4212C37.8152 35.8899 35.0904 37.7902 31.4309 37.7902C27.8529 37.7902 25.5413 36.0851 24.4102 33.8503L27.5411 32.0313ZM13.9311 32.3652C14.5363 33.439 15.0869 34.3469 16.4106 34.3469C17.6764 34.3469 18.4749 33.8516 18.4749 31.9259V18.8254H22.3276V31.978C22.3276 35.9673 19.9887 37.7831 16.5746 37.7831C13.4899 37.7831 11.7034 36.1867 10.7949 34.2639L13.9311 32.3652Z" fill="black"/>
</g>
<defs>
<linearGradient id="paint0_linear" x1="278.079" y1="2.3705" x2="299.42" y2="20.7414" gradientUnits="userSpaceOnUse">
<stop stop-color="#5A9FD4"/>
<stop offset="1" stop-color="#306998"/>
</linearGradient>
<linearGradient id="paint1_linear" x1="307.684" y1="31.8411" x2="300.065" y2="21.0559" gradientUnits="userSpaceOnUse">
<stop stop-color="#FFD43B"/>
<stop offset="1" stop-color="#FFE873"/>
</linearGradient>
<clipPath id="clip0">
<rect width="490" height="41" fill="white"/>
</clipPath>
</defs>
</svg>
