<svg width="549" height="159" viewBox="0 0 549 159" fill="none" xmlns="http://www.w3.org/2000/svg">
<path d="M4.3475 127.3L6.56283 123.758H7.9974L5.07748 128.341L8.06723 133H6.61996L4.3475 129.395L2.06234 133H0.621426L3.61752 128.341L0.69125 123.758H2.11947L4.3475 127.3ZM13.4089 133C13.3412 132.865 13.2862 132.623 13.2439 132.276C12.698 132.843 12.0463 133.127 11.2888 133.127C10.6117 133.127 10.0552 132.937 9.61936 132.556C9.18771 132.171 8.97189 131.684 8.97189 131.096C8.97189 130.381 9.24273 129.826 9.78439 129.433C10.3303 129.035 11.0962 128.836 12.0822 128.836H13.2248V128.296C13.2248 127.886 13.1021 127.56 12.8567 127.319C12.6112 127.073 12.2494 126.951 11.7712 126.951C11.3523 126.951 11.001 127.056 10.7175 127.268C10.434 127.48 10.2922 127.736 10.2922 128.036H9.11154C9.11154 127.693 9.23215 127.363 9.47336 127.046C9.7188 126.724 10.0489 126.47 10.4636 126.284C10.8825 126.098 11.3417 126.005 11.841 126.005C12.6324 126.005 13.2523 126.204 13.7009 126.602C14.1495 126.995 14.3822 127.539 14.3991 128.233V131.394C14.3991 132.025 14.4795 132.526 14.6404 132.898V133H13.4089ZM11.4602 132.105C11.8283 132.105 12.1775 132.01 12.5075 131.819C12.8376 131.629 13.0767 131.381 13.2248 131.077V129.667H12.3044C10.8656 129.667 10.1462 130.089 10.1462 130.931C10.1462 131.299 10.2689 131.587 10.5144 131.794C10.7598 132.001 11.0751 132.105 11.4602 132.105ZM17.2145 126.132L17.2462 126.894C17.7498 126.301 18.429 126.005 19.2838 126.005C20.2444 126.005 20.8982 126.373 21.2452 127.109C21.4737 126.779 21.77 126.513 22.1339 126.31C22.5021 126.106 22.9358 126.005 23.4352 126.005C24.9417 126.005 25.7076 126.803 25.733 128.398V133H24.5587V128.468C24.5587 127.977 24.4465 127.611 24.2223 127.37C23.998 127.124 23.6214 127.001 23.0924 127.001C22.6565 127.001 22.2947 127.133 22.0069 127.395C21.7192 127.653 21.552 128.002 21.5055 128.442V133H20.3248V128.5C20.3248 127.501 19.836 127.001 18.8585 127.001C18.0883 127.001 17.5615 127.329 17.2779 127.985V133H16.1036V126.132H17.2145ZM31.6206 133C31.5529 132.865 31.4979 132.623 31.4555 132.276C30.9096 132.843 30.258 133.127 29.5005 133.127C28.8234 133.127 28.2669 132.937 27.831 132.556C27.3994 132.171 27.1836 131.684 27.1836 131.096C27.1836 130.381 27.4544 129.826 27.9961 129.433C28.542 129.035 29.3079 128.836 30.2939 128.836H31.4365V128.296C31.4365 127.886 31.3138 127.56 31.0683 127.319C30.8229 127.073 30.4611 126.951 29.9829 126.951C29.5639 126.951 29.2127 127.056 28.9292 127.268C28.6457 127.48 28.5039 127.736 28.5039 128.036H27.3232C27.3232 127.693 27.4438 127.363 27.685 127.046C27.9305 126.724 28.2606 126.47 28.6753 126.284C29.0942 126.098 29.5534 126.005 30.0527 126.005C30.8441 126.005 31.464 126.204 31.9126 126.602C32.3611 126.995 32.5939 127.539 32.6108 128.233V131.394C32.6108 132.025 32.6912 132.526 32.852 132.898V133H31.6206ZM29.6719 132.105C30.04 132.105 30.3891 132.01 30.7192 131.819C31.0493 131.629 31.2884 131.381 31.4365 131.077V129.667H30.5161C29.0773 129.667 28.3579 130.089 28.3579 130.931C28.3579 131.299 28.4806 131.587 28.7261 131.794C28.9715 132.001 29.2868 132.105 29.6719 132.105ZM37.6415 127.186C37.4637 127.156 37.2712 127.141 37.0638 127.141C36.2936 127.141 35.771 127.469 35.496 128.125V133H34.3216V126.132H35.4642L35.4833 126.925C35.8684 126.312 36.4143 126.005 37.121 126.005C37.3495 126.005 37.523 126.035 37.6415 126.094V127.186ZM39.8728 133H38.6985V126.132H39.8728V133ZM38.6033 124.31C38.6033 124.12 38.6604 123.959 38.7746 123.828C38.8931 123.696 39.0666 123.631 39.2952 123.631C39.5237 123.631 39.6972 123.696 39.8157 123.828C39.9342 123.959 39.9934 124.12 39.9934 124.31C39.9934 124.5 39.9342 124.659 39.8157 124.786C39.6972 124.913 39.5237 124.977 39.2952 124.977C39.0666 124.977 38.8931 124.913 38.7746 124.786C38.6604 124.659 38.6033 124.5 38.6033 124.31ZM42.7389 126.132L42.777 126.995C43.3017 126.335 43.9873 126.005 44.8336 126.005C46.2851 126.005 47.0172 126.824 47.0299 128.461V133H45.8556V128.455C45.8514 127.96 45.7371 127.594 45.5128 127.357C45.2928 127.12 44.9479 127.001 44.4781 127.001C44.0973 127.001 43.763 127.103 43.4752 127.306C43.1875 127.509 42.9632 127.776 42.8024 128.106V133H41.628V126.132H42.7389ZM53.1683 129.382V133H51.9496V123.758H55.3583C56.3697 123.758 57.161 124.016 57.7323 124.532C58.3078 125.049 58.5956 125.732 58.5956 126.583C58.5956 127.48 58.3142 128.172 57.7513 128.658C57.1928 129.141 56.3908 129.382 55.3456 129.382H53.1683ZM53.1683 128.385H55.3583C56.01 128.385 56.5093 128.233 56.8563 127.928C57.2033 127.619 57.3768 127.175 57.3768 126.595C57.3768 126.045 57.2033 125.605 56.8563 125.275C56.5093 124.945 56.0332 124.773 55.4281 124.761H53.1683V128.385ZM64.0007 133C63.933 132.865 63.878 132.623 63.8357 132.276C63.2898 132.843 62.6381 133.127 61.8806 133.127C61.2035 133.127 60.6471 132.937 60.2112 132.556C59.7796 132.171 59.5637 131.684 59.5637 131.096C59.5637 130.381 59.8346 129.826 60.3762 129.433C60.9221 129.035 61.6881 128.836 62.6741 128.836H63.8167V128.296C63.8167 127.886 63.6939 127.56 63.4485 127.319C63.2031 127.073 62.8412 126.951 62.363 126.951C61.9441 126.951 61.5929 127.056 61.3093 127.268C61.0258 127.48 60.884 127.736 60.884 128.036H59.7034C59.7034 127.693 59.824 127.363 60.0652 127.046C60.3106 126.724 60.6407 126.47 61.0554 126.284C61.4744 126.098 61.9335 126.005 62.4329 126.005C63.2242 126.005 63.8442 126.204 64.2927 126.602C64.7413 126.995 64.9741 127.539 64.991 128.233V131.394C64.991 132.025 65.0714 132.526 65.2322 132.898V133H64.0007ZM62.052 132.105C62.4202 132.105 62.7693 132.01 63.0994 131.819C63.4295 131.629 63.6685 131.381 63.8167 131.077V129.667H62.8963C61.4574 129.667 60.738 130.089 60.738 130.931C60.738 131.299 60.8608 131.587 61.1062 131.794C61.3517 132.001 61.6669 132.105 62.052 132.105ZM70.0216 127.186C69.8439 127.156 69.6513 127.141 69.444 127.141C68.6738 127.141 68.1512 127.469 67.8761 128.125V133H66.7018V126.132H67.8444L67.8634 126.925C68.2485 126.312 68.7944 126.005 69.5011 126.005C69.7296 126.005 69.9031 126.035 70.0216 126.094V127.186ZM72.8877 124.469V126.132H74.1699V127.04H72.8877V131.299C72.8877 131.574 72.9448 131.781 73.0591 131.921C73.1734 132.056 73.368 132.124 73.6431 132.124C73.7785 132.124 73.9647 132.099 74.2017 132.048V133C73.8928 133.085 73.5923 133.127 73.3003 133.127C72.7756 133.127 72.3799 132.968 72.1133 132.651C71.8467 132.333 71.7134 131.883 71.7134 131.299V127.04H70.4629V126.132H71.7134V124.469H72.8877ZM76.5282 126.132L76.5663 126.995C77.0911 126.335 77.7766 126.005 78.623 126.005C80.0745 126.005 80.8065 126.824 80.8192 128.461V133H79.6449V128.455C79.6407 127.96 79.5264 127.594 79.3022 127.357C79.0821 127.12 78.7372 127.001 78.2675 127.001C77.8866 127.001 77.5523 127.103 77.2646 127.306C76.9768 127.509 76.7525 127.776 76.5917 128.106V133H75.4174V126.132H76.5282ZM85.3103 133.127C84.3793 133.127 83.6219 132.822 83.0379 132.213C82.4539 131.599 82.1619 130.78 82.1619 129.756V129.541C82.1619 128.859 82.291 128.252 82.5491 127.719C82.8115 127.181 83.1754 126.762 83.6409 126.462C84.1106 126.157 84.6184 126.005 85.1643 126.005C86.0572 126.005 86.7513 126.299 87.2464 126.887C87.7415 127.475 87.989 128.318 87.989 129.414V129.902H83.3362C83.3531 130.579 83.5499 131.127 83.9265 131.546C84.3074 131.961 84.7898 132.168 85.3738 132.168C85.7885 132.168 86.1398 132.084 86.4275 131.915C86.7153 131.745 86.9671 131.521 87.1829 131.242L87.9002 131.8C87.3247 132.685 86.4614 133.127 85.3103 133.127ZM85.1643 126.97C84.6904 126.97 84.2926 127.143 83.971 127.49C83.6494 127.833 83.4505 128.315 83.3743 128.938H86.8147V128.849C86.7809 128.252 86.6201 127.791 86.3323 127.465C86.0445 127.135 85.6552 126.97 85.1643 126.97ZM92.5436 127.186C92.3659 127.156 92.1733 127.141 91.966 127.141C91.1958 127.141 90.6732 127.469 90.3981 128.125V133H89.2238V126.132H90.3664L90.3854 126.925C90.7705 126.312 91.3164 126.005 92.0231 126.005C92.2516 126.005 92.4251 126.035 92.5436 126.094V127.186Z" fill="#939393"/>
<path d="M87.3812 40C89.5248 43.7128 89.5248 48.2872 87.3812 52L71.8867 78.8372C69.7432 82.55 65.7816 84.8372 61.4944 84.8372L30.5056 84.8372C26.2184 84.8372 22.2568 82.55 20.1133 78.8372L4.61881 52C2.47521 48.2872 2.47521 43.7128 4.61881 40L20.1133 13.1628C22.2569 9.45001 26.2184 7.16283 30.5056 7.16283L61.4944 7.16283C65.7816 7.16283 69.7432 9.45002 71.8868 13.1628L87.3812 40Z" stroke="#383838" stroke-width="2"/>
<path d="M53.7592 30.5768L46.0473 45.392C46.0278 45.4324 46.0161 45.4571 46.0073 45.4791C46.0056 45.4834 46.0042 45.487 46.0031 45.4899C46.0137 45.5196 46.0234 45.5441 46.0344 45.5674L53.7593 60.4233L53.7721 60.4479L53.7812 60.4715C53.7826 60.4731 53.7859 60.4764 53.7926 60.4808C53.8063 60.4897 53.8257 60.4971 53.846 60.5H58.4027C58.4044 60.4991 58.4069 60.4976 58.4102 60.4953C58.4257 60.4845 58.4485 60.4617 58.4683 60.4257C58.5128 60.3446 58.5002 60.2845 58.4905 60.2665L58.4885 60.2625L50.9068 45.7313L50.7863 45.5003L50.9065 45.2692L58.4882 30.6965C58.4935 30.6862 58.5058 30.6447 58.4732 30.5773C58.4583 30.5465 58.4387 30.5218 58.4201 30.5056C58.4177 30.5035 58.4155 30.5016 58.4133 30.5H53.8348C53.8303 30.5018 53.8229 30.5055 53.8136 30.5119C53.8025 30.5196 53.7916 30.5292 53.7825 30.5396C53.7734 30.55 53.7682 30.5587 53.7659 30.5635L53.7627 30.5702L53.7592 30.5768ZM44.9997 45.462L45.0031 45.4618C44.9983 45.4509 44.9912 45.4371 44.9805 45.4186L44.9749 45.409L44.9697 45.399L37.241 30.5772L37.2398 30.575C37.2194 30.5353 37.1973 30.5143 37.1846 30.5054C37.1797 30.502 37.1766 30.5006 37.1751 30.5H32.5996C32.5987 30.5006 32.5975 30.5013 32.5962 30.5023C32.5832 30.5112 32.5624 30.5312 32.5436 30.5643C32.5251 30.5971 32.515 30.6316 32.5126 30.6605C32.5106 30.6846 32.5142 30.6992 32.5172 30.7068L40.0935 45.2692L40.2137 45.5003L40.0932 45.7313L32.5115 60.2625L32.5115 60.2625L32.5095 60.2665C32.4998 60.2845 32.4872 60.3446 32.5317 60.4257C32.5515 60.4617 32.5743 60.4845 32.5898 60.4953C32.5931 60.4976 32.5956 60.4991 32.5973 60.5H37.176C37.1767 60.4999 37.1829 60.4991 37.1932 60.4921C37.2058 60.4835 37.2194 60.4688 37.2285 60.4485L37.2342 60.4359L37.2405 60.4237L44.9526 45.5667C44.9722 45.5262 44.9838 45.5014 44.9927 45.4793C44.9987 45.4644 45.0004 45.4579 45.0004 45.4579C45.0005 45.4579 45.0001 45.4593 44.9997 45.462ZM37.1739 30.4997C37.1739 30.4997 37.1743 30.4999 37.1748 30.4999L37.1739 30.4997Z" fill="#383838" stroke="#383838"/>
<path d="M159.044 123.758L162.065 131.299L165.087 123.758H166.667V133H165.449V129.401L165.563 125.516L162.529 133H161.595L158.568 125.535L158.688 129.401V133H157.47V123.758H159.044ZM169.781 133H168.607V126.132H169.781V133ZM168.511 124.31C168.511 124.12 168.569 123.959 168.683 123.828C168.801 123.696 168.975 123.631 169.203 123.631C169.432 123.631 169.605 123.696 169.724 123.828C169.842 123.959 169.902 124.12 169.902 124.31C169.902 124.5 169.842 124.659 169.724 124.786C169.605 124.913 169.432 124.977 169.203 124.977C168.975 124.977 168.801 124.913 168.683 124.786C168.569 124.659 168.511 124.5 168.511 124.31ZM174.291 132.168C174.71 132.168 175.076 132.042 175.389 131.788C175.702 131.534 175.876 131.216 175.91 130.835H177.021C176.999 131.229 176.864 131.604 176.614 131.959C176.365 132.314 176.03 132.598 175.611 132.81C175.197 133.021 174.757 133.127 174.291 133.127C173.356 133.127 172.611 132.816 172.057 132.194C171.507 131.568 171.231 130.713 171.231 129.629V129.433C171.231 128.764 171.354 128.169 171.6 127.649C171.845 127.128 172.196 126.724 172.653 126.437C173.115 126.149 173.658 126.005 174.285 126.005C175.055 126.005 175.694 126.236 176.202 126.697C176.714 127.158 176.987 127.757 177.021 128.493H175.91C175.876 128.049 175.707 127.685 175.402 127.401C175.101 127.114 174.729 126.97 174.285 126.97C173.688 126.97 173.225 127.186 172.895 127.617C172.569 128.045 172.406 128.665 172.406 129.477V129.699C172.406 130.491 172.569 131.1 172.895 131.527C173.22 131.955 173.686 132.168 174.291 132.168ZM181.531 127.186C181.353 127.156 181.16 127.141 180.953 127.141C180.183 127.141 179.66 127.469 179.385 128.125V133H178.211V126.132H179.353L179.372 126.925C179.758 126.312 180.303 126.005 181.01 126.005C181.239 126.005 181.412 126.035 181.531 126.094V127.186ZM182.048 129.502C182.048 128.83 182.179 128.224 182.442 127.687C182.708 127.15 183.076 126.735 183.546 126.443C184.02 126.151 184.56 126.005 185.165 126.005C186.1 126.005 186.855 126.329 187.431 126.976C188.011 127.624 188.301 128.485 188.301 129.56V129.642C188.301 130.311 188.172 130.912 187.913 131.445C187.659 131.974 187.293 132.386 186.815 132.683C186.341 132.979 185.795 133.127 185.178 133.127C184.247 133.127 183.491 132.803 182.911 132.156C182.336 131.508 182.048 130.651 182.048 129.585V129.502ZM183.229 129.642C183.229 130.404 183.404 131.015 183.756 131.477C184.111 131.938 184.585 132.168 185.178 132.168C185.774 132.168 186.248 131.936 186.599 131.47C186.951 131 187.126 130.345 187.126 129.502C187.126 128.749 186.946 128.14 186.587 127.674C186.231 127.205 185.757 126.97 185.165 126.97C184.585 126.97 184.117 127.2 183.762 127.662C183.407 128.123 183.229 128.783 183.229 129.642ZM193.642 131.178C193.642 130.861 193.522 130.615 193.28 130.442C193.043 130.264 192.627 130.112 192.03 129.985C191.438 129.858 190.966 129.706 190.614 129.528C190.267 129.35 190.009 129.139 189.84 128.893C189.675 128.648 189.592 128.356 189.592 128.017C189.592 127.454 189.829 126.978 190.303 126.589C190.782 126.2 191.391 126.005 192.132 126.005C192.91 126.005 193.541 126.206 194.023 126.608C194.51 127.01 194.753 127.524 194.753 128.15H193.572C193.572 127.829 193.435 127.552 193.16 127.319C192.889 127.086 192.546 126.97 192.132 126.97C191.704 126.97 191.37 127.063 191.129 127.249C190.887 127.435 190.767 127.679 190.767 127.979C190.767 128.263 190.879 128.476 191.103 128.62C191.327 128.764 191.732 128.902 192.316 129.033C192.904 129.164 193.38 129.32 193.744 129.502C194.108 129.684 194.376 129.904 194.55 130.163C194.728 130.417 194.817 130.728 194.817 131.096C194.817 131.709 194.571 132.202 194.08 132.575C193.589 132.943 192.952 133.127 192.17 133.127C191.619 133.127 191.133 133.03 190.71 132.835C190.286 132.64 189.954 132.369 189.713 132.022C189.476 131.671 189.358 131.292 189.358 130.886H190.532C190.553 131.28 190.71 131.593 191.002 131.826C191.298 132.054 191.687 132.168 192.17 132.168C192.614 132.168 192.969 132.08 193.236 131.902C193.507 131.72 193.642 131.479 193.642 131.178ZM195.905 129.502C195.905 128.83 196.037 128.224 196.299 127.687C196.565 127.15 196.934 126.735 197.403 126.443C197.877 126.151 198.417 126.005 199.022 126.005C199.957 126.005 200.713 126.329 201.288 126.976C201.868 127.624 202.158 128.485 202.158 129.56V129.642C202.158 130.311 202.029 130.912 201.771 131.445C201.517 131.974 201.151 132.386 200.672 132.683C200.198 132.979 199.653 133.127 199.035 133.127C198.104 133.127 197.348 132.803 196.769 132.156C196.193 131.508 195.905 130.651 195.905 129.585V129.502ZM197.086 129.642C197.086 130.404 197.262 131.015 197.613 131.477C197.968 131.938 198.442 132.168 199.035 132.168C199.631 132.168 200.105 131.936 200.457 131.47C200.808 131 200.983 130.345 200.983 129.502C200.983 128.749 200.804 128.14 200.444 127.674C200.088 127.205 199.614 126.97 199.022 126.97C198.442 126.97 197.975 127.2 197.619 127.662C197.264 128.123 197.086 128.783 197.086 129.642ZM204.078 133V127.04H202.993V126.132H204.078V125.427C204.078 124.691 204.275 124.122 204.668 123.72C205.062 123.318 205.618 123.117 206.338 123.117C206.609 123.117 206.877 123.153 207.144 123.225L207.081 124.177C206.882 124.139 206.67 124.12 206.446 124.12C206.065 124.12 205.771 124.232 205.563 124.456C205.356 124.676 205.252 124.993 205.252 125.408V126.132H206.719V127.04H205.252V133H204.078ZM209.483 124.469V126.132H210.765V127.04H209.483V131.299C209.483 131.574 209.54 131.781 209.655 131.921C209.769 132.056 209.964 132.124 210.239 132.124C210.374 132.124 210.56 132.099 210.797 132.048V133C210.488 133.085 210.188 133.127 209.896 133.127C209.371 133.127 208.975 132.968 208.709 132.651C208.442 132.333 208.309 131.883 208.309 131.299V127.04H207.058V126.132H208.309V124.469H209.483ZM222.115 131.788C221.802 132.236 221.364 132.573 220.801 132.797C220.243 133.017 219.591 133.127 218.846 133.127C218.093 133.127 217.424 132.951 216.84 132.6C216.256 132.245 215.804 131.741 215.482 131.089C215.165 130.438 215.002 129.682 214.993 128.823V128.017C214.993 126.625 215.317 125.546 215.964 124.78C216.616 124.014 217.53 123.631 218.707 123.631C219.671 123.631 220.448 123.878 221.036 124.374C221.624 124.864 221.984 125.563 222.115 126.468H220.897C220.668 125.245 219.94 124.634 218.713 124.634C217.896 124.634 217.276 124.922 216.853 125.497C216.434 126.068 216.223 126.898 216.218 127.985V128.741C216.218 129.778 216.455 130.603 216.929 131.216C217.403 131.826 218.044 132.13 218.853 132.13C219.31 132.13 219.71 132.08 220.052 131.978C220.395 131.876 220.679 131.705 220.903 131.464V129.388H218.764V128.398H222.115V131.788ZM223.528 129.502C223.528 128.83 223.659 128.224 223.921 127.687C224.188 127.15 224.556 126.735 225.026 126.443C225.5 126.151 226.039 126.005 226.644 126.005C227.58 126.005 228.335 126.329 228.911 126.976C229.49 127.624 229.78 128.485 229.78 129.56V129.642C229.78 130.311 229.651 130.912 229.393 131.445C229.139 131.974 228.773 132.386 228.295 132.683C227.821 132.979 227.275 133.127 226.657 133.127C225.726 133.127 224.971 132.803 224.391 132.156C223.816 131.508 223.528 130.651 223.528 129.585V129.502ZM224.708 129.642C224.708 130.404 224.884 131.015 225.235 131.477C225.591 131.938 226.065 132.168 226.657 132.168C227.254 132.168 227.728 131.936 228.079 131.47C228.43 131 228.606 130.345 228.606 129.502C228.606 128.749 228.426 128.14 228.066 127.674C227.711 127.205 227.237 126.97 226.644 126.97C226.065 126.97 225.597 127.2 225.242 127.662C224.886 128.123 224.708 128.783 224.708 129.642ZM232.399 133H231.224V123.25H232.399V133ZM233.868 129.509C233.868 128.455 234.118 127.609 234.617 126.97C235.117 126.326 235.771 126.005 236.579 126.005C237.383 126.005 238.02 126.28 238.489 126.83V123.25H239.664V133H238.585L238.528 132.264C238.058 132.839 237.404 133.127 236.566 133.127C235.771 133.127 235.121 132.801 234.617 132.149C234.118 131.498 233.868 130.647 233.868 129.598V129.509ZM235.043 129.642C235.043 130.421 235.204 131.03 235.525 131.47C235.847 131.91 236.291 132.13 236.858 132.13C237.603 132.13 238.147 131.796 238.489 131.127V127.973C238.138 127.325 237.599 127.001 236.871 127.001C236.295 127.001 235.847 127.224 235.525 127.668C235.204 128.112 235.043 128.77 235.043 129.642ZM179.86 149.382V153H178.641V143.758H182.05C183.061 143.758 183.852 144.016 184.424 144.532C184.999 145.049 185.287 145.732 185.287 146.583C185.287 147.48 185.006 148.172 184.443 148.658C183.884 149.141 183.082 149.382 182.037 149.382H179.86ZM179.86 148.385H182.05C182.701 148.385 183.201 148.233 183.548 147.928C183.895 147.619 184.068 147.175 184.068 146.595C184.068 146.045 183.895 145.605 183.548 145.275C183.201 144.945 182.725 144.773 182.119 144.761H179.86V148.385ZM190.692 153C190.624 152.865 190.569 152.623 190.527 152.276C189.981 152.843 189.329 153.127 188.572 153.127C187.895 153.127 187.338 152.937 186.903 152.556C186.471 152.171 186.255 151.684 186.255 151.096C186.255 150.381 186.526 149.826 187.068 149.433C187.614 149.035 188.379 148.836 189.365 148.836H190.508V148.296C190.508 147.886 190.385 147.56 190.14 147.319C189.894 147.073 189.533 146.951 189.054 146.951C188.635 146.951 188.284 147.056 188.001 147.268C187.717 147.48 187.575 147.736 187.575 148.036H186.395C186.395 147.693 186.515 147.363 186.757 147.046C187.002 146.724 187.332 146.47 187.747 146.284C188.166 146.098 188.625 146.005 189.124 146.005C189.916 146.005 190.536 146.204 190.984 146.602C191.433 146.995 191.665 147.539 191.682 148.233V151.394C191.682 152.025 191.763 152.526 191.924 152.898V153H190.692ZM188.743 152.105C189.112 152.105 189.461 152.01 189.791 151.819C190.121 151.629 190.36 151.381 190.508 151.077V149.667H189.588C188.149 149.667 187.429 150.089 187.429 150.931C187.429 151.299 187.552 151.587 187.798 151.794C188.043 152.001 188.358 152.105 188.743 152.105ZM196.713 147.186C196.535 147.156 196.343 147.141 196.135 147.141C195.365 147.141 194.843 147.469 194.567 148.125V153H193.393V146.132H194.536L194.555 146.925C194.94 146.312 195.486 146.005 196.192 146.005C196.421 146.005 196.595 146.035 196.713 146.094V147.186ZM199.579 144.469V146.132H200.861V147.04H199.579V151.299C199.579 151.574 199.636 151.781 199.75 151.921C199.865 152.056 200.059 152.124 200.334 152.124C200.47 152.124 200.656 152.099 200.893 152.048V153C200.584 153.085 200.284 153.127 199.992 153.127C199.467 153.127 199.071 152.968 198.805 152.651C198.538 152.333 198.405 151.883 198.405 151.299V147.04H197.154V146.132H198.405V144.469H199.579ZM203.22 146.132L203.258 146.995C203.782 146.335 204.468 146.005 205.314 146.005C206.766 146.005 207.498 146.824 207.511 148.461V153H206.336V148.455C206.332 147.96 206.218 147.594 205.994 147.357C205.773 147.12 205.429 147.001 204.959 147.001C204.578 147.001 204.244 147.103 203.956 147.306C203.668 147.509 203.444 147.776 203.283 148.106V153H202.109V146.132H203.22ZM212.002 153.127C211.071 153.127 210.313 152.822 209.729 152.213C209.145 151.599 208.853 150.78 208.853 149.756V149.541C208.853 148.859 208.982 148.252 209.24 147.719C209.503 147.181 209.867 146.762 210.332 146.462C210.802 146.157 211.31 146.005 211.856 146.005C212.749 146.005 213.443 146.299 213.938 146.887C214.433 147.475 214.68 148.318 214.68 149.414V149.902H210.028C210.045 150.579 210.241 151.127 210.618 151.546C210.999 151.961 211.481 152.168 212.065 152.168C212.48 152.168 212.831 152.084 213.119 151.915C213.407 151.745 213.658 151.521 213.874 151.242L214.592 151.8C214.016 152.685 213.153 153.127 212.002 153.127ZM211.856 146.97C211.382 146.97 210.984 147.143 210.662 147.49C210.341 147.833 210.142 148.315 210.066 148.938H213.506V148.849C213.472 148.252 213.311 147.791 213.024 147.465C212.736 147.135 212.347 146.97 211.856 146.97ZM219.235 147.186C219.057 147.156 218.865 147.141 218.657 147.141C217.887 147.141 217.365 147.469 217.089 148.125V153H215.915V146.132H217.058L217.077 146.925C217.462 146.312 218.008 146.005 218.714 146.005C218.943 146.005 219.117 146.035 219.235 146.094V147.186Z" fill="#939393"/>
<path d="M198.284 1.03664L198.284 1.03661C198.446 0.9878 198.613 0.987795 198.775 1.0366C198.775 1.03661 198.775 1.03661 198.775 1.03661L236.112 12.2803C236.113 12.2808 236.114 12.2812 236.116 12.2816C236.484 12.3985 236.74 12.7486 236.74 13.1358V54.3796C236.74 62.176 230.781 69.7449 222.848 75.9929C214.966 82.2007 205.41 86.8846 198.783 88.9577L198.76 88.9647L198.738 88.9728C198.693 88.9892 198.645 89 198.521 89C198.447 89 198.355 88.986 198.254 88.9559C191.627 86.8819 182.074 82.1989 174.194 75.9929C166.261 69.7449 160.302 62.176 160.302 54.3796V13.1358C160.302 12.7486 160.558 12.3984 160.927 12.2816C160.928 12.2812 160.929 12.2807 160.93 12.2803L198.284 1.03664Z" stroke="#383838" stroke-width="2"/>
<rect x="177.758" y="23.071" width="18.9311" height="18.9311" fill="#383838"/>
<rect x="200.353" y="23.0708" width="18.9311" height="18.9311" fill="#383838"/>
<rect x="177.758" y="45.6656" width="18.9311" height="18.9311" fill="#383838"/>
<rect x="200.353" y="45.6656" width="18.9311" height="18.9311" fill="#383838"/>
<path d="M309.505 123.758L312.527 131.299L315.548 123.758H317.129V133H315.91V129.401L316.024 125.516L312.99 133H312.057L309.029 125.535L309.15 129.401V133H307.931V123.758H309.505ZM320.242 133H319.068V126.132H320.242V133ZM318.973 124.31C318.973 124.12 319.03 123.959 319.144 123.828C319.263 123.696 319.436 123.631 319.665 123.631C319.893 123.631 320.067 123.696 320.185 123.828C320.304 123.959 320.363 124.12 320.363 124.31C320.363 124.5 320.304 124.659 320.185 124.786C320.067 124.913 319.893 124.977 319.665 124.977C319.436 124.977 319.263 124.913 319.144 124.786C319.03 124.659 318.973 124.5 318.973 124.31ZM324.753 132.168C325.172 132.168 325.538 132.042 325.851 131.788C326.164 131.534 326.337 131.216 326.371 130.835H327.482C327.461 131.229 327.326 131.604 327.076 131.959C326.826 132.314 326.492 132.598 326.073 132.81C325.658 133.021 325.218 133.127 324.753 133.127C323.817 133.127 323.073 132.816 322.518 132.194C321.968 131.568 321.693 130.713 321.693 129.629V129.433C321.693 128.764 321.816 128.169 322.061 127.649C322.307 127.128 322.658 126.724 323.115 126.437C323.576 126.149 324.12 126.005 324.746 126.005C325.516 126.005 326.155 126.236 326.663 126.697C327.175 127.158 327.448 127.757 327.482 128.493H326.371C326.337 128.049 326.168 127.685 325.863 127.401C325.563 127.114 325.191 126.97 324.746 126.97C324.15 126.97 323.686 127.186 323.356 127.617C323.03 128.045 322.867 128.665 322.867 129.477V129.699C322.867 130.491 323.03 131.1 323.356 131.527C323.682 131.955 324.147 132.168 324.753 132.168ZM331.992 127.186C331.814 127.156 331.622 127.141 331.415 127.141C330.644 127.141 330.122 127.469 329.847 128.125V133H328.672V126.132H329.815L329.834 126.925C330.219 126.312 330.765 126.005 331.472 126.005C331.7 126.005 331.874 126.035 331.992 126.094V127.186ZM332.51 129.502C332.51 128.83 332.641 128.224 332.903 127.687C333.17 127.15 333.538 126.735 334.008 126.443C334.482 126.151 335.021 126.005 335.626 126.005C336.562 126.005 337.317 126.329 337.892 126.976C338.472 127.624 338.762 128.485 338.762 129.56V129.642C338.762 130.311 338.633 130.912 338.375 131.445C338.121 131.974 337.755 132.386 337.277 132.683C336.803 132.979 336.257 133.127 335.639 133.127C334.708 133.127 333.953 132.803 333.373 132.156C332.797 131.508 332.51 130.651 332.51 129.585V129.502ZM333.69 129.642C333.69 130.404 333.866 131.015 334.217 131.477C334.573 131.938 335.047 132.168 335.639 132.168C336.236 132.168 336.71 131.936 337.061 131.47C337.412 131 337.588 130.345 337.588 129.502C337.588 128.749 337.408 128.14 337.048 127.674C336.693 127.205 336.219 126.97 335.626 126.97C335.047 126.97 334.579 127.2 334.224 127.662C333.868 128.123 333.69 128.783 333.69 129.642ZM344.104 131.178C344.104 130.861 343.983 130.615 343.742 130.442C343.505 130.264 343.088 130.112 342.492 129.985C341.899 129.858 341.427 129.706 341.076 129.528C340.729 129.35 340.471 129.139 340.302 128.893C340.137 128.648 340.054 128.356 340.054 128.017C340.054 127.454 340.291 126.978 340.765 126.589C341.243 126.2 341.853 126.005 342.593 126.005C343.372 126.005 344.002 126.206 344.485 126.608C344.971 127.01 345.215 127.524 345.215 128.15H344.034C344.034 127.829 343.896 127.552 343.621 127.319C343.351 127.086 343.008 126.97 342.593 126.97C342.166 126.97 341.831 127.063 341.59 127.249C341.349 127.435 341.228 127.679 341.228 127.979C341.228 128.263 341.34 128.476 341.565 128.62C341.789 128.764 342.193 128.902 342.777 129.033C343.365 129.164 343.841 129.32 344.205 129.502C344.569 129.684 344.838 129.904 345.012 130.163C345.189 130.417 345.278 130.728 345.278 131.096C345.278 131.709 345.033 132.202 344.542 132.575C344.051 132.943 343.414 133.127 342.631 133.127C342.081 133.127 341.594 133.03 341.171 132.835C340.748 132.64 340.416 132.369 340.175 132.022C339.938 131.671 339.819 131.292 339.819 130.886H340.993C341.015 131.28 341.171 131.593 341.463 131.826C341.759 132.054 342.149 132.168 342.631 132.168C343.075 132.168 343.431 132.08 343.698 131.902C343.968 131.72 344.104 131.479 344.104 131.178ZM346.367 129.502C346.367 128.83 346.498 128.224 346.76 127.687C347.027 127.15 347.395 126.735 347.865 126.443C348.339 126.151 348.878 126.005 349.484 126.005C350.419 126.005 351.174 126.329 351.75 126.976C352.329 127.624 352.619 128.485 352.619 129.56V129.642C352.619 130.311 352.49 130.912 352.232 131.445C351.978 131.974 351.612 132.386 351.134 132.683C350.66 132.979 350.114 133.127 349.496 133.127C348.565 133.127 347.81 132.803 347.23 132.156C346.655 131.508 346.367 130.651 346.367 129.585V129.502ZM347.548 129.642C347.548 130.404 347.723 131.015 348.074 131.477C348.43 131.938 348.904 132.168 349.496 132.168C350.093 132.168 350.567 131.936 350.918 131.47C351.269 131 351.445 130.345 351.445 129.502C351.445 128.749 351.265 128.14 350.905 127.674C350.55 127.205 350.076 126.97 349.484 126.97C348.904 126.97 348.436 127.2 348.081 127.662C347.725 128.123 347.548 128.783 347.548 129.642ZM354.54 133V127.04H353.454V126.132H354.54V125.427C354.54 124.691 354.736 124.122 355.13 123.72C355.523 123.318 356.08 123.117 356.799 123.117C357.07 123.117 357.339 123.153 357.606 123.225L357.542 124.177C357.343 124.139 357.132 124.12 356.907 124.12C356.526 124.12 356.232 124.232 356.025 124.456C355.818 124.676 355.714 124.993 355.714 125.408V126.132H357.18V127.04H355.714V133H354.54ZM359.945 124.469V126.132H361.227V127.04H359.945V131.299C359.945 131.574 360.002 131.781 360.116 131.921C360.23 132.056 360.425 132.124 360.7 132.124C360.836 132.124 361.022 132.099 361.259 132.048V133C360.95 133.085 360.649 133.127 360.357 133.127C359.833 133.127 359.437 132.968 359.17 132.651C358.904 132.333 358.77 131.883 358.77 131.299V127.04H357.52V126.132H358.77V124.469H359.945ZM368.476 128.88C367.431 128.58 366.669 128.212 366.191 127.776C365.717 127.336 365.48 126.794 365.48 126.151C365.48 125.423 365.77 124.822 366.35 124.348C366.934 123.87 367.691 123.631 368.622 123.631C369.257 123.631 369.822 123.754 370.317 123.999C370.816 124.244 371.202 124.583 371.472 125.015C371.747 125.446 371.885 125.918 371.885 126.43H370.66C370.66 125.872 370.482 125.434 370.127 125.116C369.771 124.795 369.27 124.634 368.622 124.634C368.021 124.634 367.552 124.767 367.213 125.034C366.879 125.296 366.712 125.662 366.712 126.132C366.712 126.508 366.87 126.828 367.188 127.09C367.509 127.348 368.053 127.585 368.819 127.801C369.589 128.017 370.19 128.256 370.622 128.519C371.058 128.777 371.379 129.079 371.587 129.426C371.798 129.773 371.904 130.182 371.904 130.651C371.904 131.4 371.612 132.001 371.028 132.454C370.444 132.903 369.663 133.127 368.686 133.127C368.051 133.127 367.459 133.006 366.908 132.765C366.358 132.52 365.933 132.185 365.633 131.762C365.336 131.339 365.188 130.859 365.188 130.321H366.413C366.413 130.88 366.619 131.322 367.029 131.648C367.444 131.97 367.996 132.13 368.686 132.13C369.329 132.13 369.822 131.999 370.165 131.737C370.508 131.474 370.679 131.117 370.679 130.664C370.679 130.211 370.52 129.862 370.203 129.617C369.885 129.367 369.31 129.122 368.476 128.88ZM378.96 129.642C378.96 130.687 378.72 131.529 378.242 132.168C377.764 132.807 377.117 133.127 376.3 133.127C375.466 133.127 374.81 132.862 374.332 132.333V135.641H373.158V126.132H374.231L374.288 126.894C374.766 126.301 375.43 126.005 376.281 126.005C377.106 126.005 377.758 126.316 378.236 126.938C378.718 127.56 378.96 128.425 378.96 129.534V129.642ZM377.785 129.509C377.785 128.734 377.62 128.123 377.29 127.674C376.96 127.226 376.507 127.001 375.932 127.001C375.221 127.001 374.688 127.317 374.332 127.947V131.229C374.683 131.855 375.221 132.168 375.944 132.168C376.507 132.168 376.954 131.946 377.284 131.502C377.618 131.053 377.785 130.389 377.785 129.509ZM380.017 129.502C380.017 128.83 380.148 128.224 380.41 127.687C380.677 127.15 381.045 126.735 381.515 126.443C381.989 126.151 382.528 126.005 383.133 126.005C384.068 126.005 384.824 126.329 385.399 126.976C385.979 127.624 386.269 128.485 386.269 129.56V129.642C386.269 130.311 386.14 130.912 385.882 131.445C385.628 131.974 385.262 132.386 384.784 132.683C384.31 132.979 383.764 133.127 383.146 133.127C382.215 133.127 381.46 132.803 380.88 132.156C380.304 131.508 380.017 130.651 380.017 129.585V129.502ZM381.197 129.642C381.197 130.404 381.373 131.015 381.724 131.477C382.08 131.938 382.554 132.168 383.146 132.168C383.743 132.168 384.217 131.936 384.568 131.47C384.919 131 385.095 130.345 385.095 129.502C385.095 128.749 384.915 128.14 384.555 127.674C384.2 127.205 383.726 126.97 383.133 126.97C382.554 126.97 382.086 127.2 381.73 127.662C381.375 128.123 381.197 128.783 381.197 129.642ZM390.931 127.186C390.754 127.156 390.561 127.141 390.354 127.141C389.584 127.141 389.061 127.469 388.786 128.125V133H387.612V126.132H388.754L388.773 126.925C389.158 126.312 389.704 126.005 390.411 126.005C390.639 126.005 390.813 126.035 390.931 126.094V127.186ZM393.798 124.469V126.132H395.08V127.04H393.798V131.299C393.798 131.574 393.855 131.781 393.969 131.921C394.083 132.056 394.278 132.124 394.553 132.124C394.688 132.124 394.875 132.099 395.112 132.048V133C394.803 133.085 394.502 133.127 394.21 133.127C393.685 133.127 393.29 132.968 393.023 132.651C392.757 132.333 392.623 131.883 392.623 131.299V127.04H391.373V126.132H392.623V124.469H393.798ZM400.326 131.178C400.326 130.861 400.206 130.615 399.964 130.442C399.727 130.264 399.311 130.112 398.714 129.985C398.122 129.858 397.65 129.706 397.298 129.528C396.951 129.35 396.693 129.139 396.524 128.893C396.359 128.648 396.276 128.356 396.276 128.017C396.276 127.454 396.513 126.978 396.987 126.589C397.466 126.2 398.075 126.005 398.816 126.005C399.594 126.005 400.225 126.206 400.707 126.608C401.194 127.01 401.437 127.524 401.437 128.15H400.256C400.256 127.829 400.119 127.552 399.844 127.319C399.573 127.086 399.23 126.97 398.816 126.97C398.388 126.97 398.054 127.063 397.813 127.249C397.571 127.435 397.451 127.679 397.451 127.979C397.451 128.263 397.563 128.476 397.787 128.62C398.011 128.764 398.416 128.902 399 129.033C399.588 129.164 400.064 129.32 400.428 129.502C400.792 129.684 401.06 129.904 401.234 130.163C401.412 130.417 401.501 130.728 401.501 131.096C401.501 131.709 401.255 132.202 400.764 132.575C400.273 132.943 399.636 133.127 398.854 133.127C398.303 133.127 397.817 133.03 397.394 132.835C396.97 132.64 396.638 132.369 396.397 132.022C396.16 131.671 396.042 131.292 396.042 130.886H397.216C397.237 131.28 397.394 131.593 397.686 131.826C397.982 132.054 398.371 132.168 398.854 132.168C399.298 132.168 399.653 132.08 399.92 131.902C400.191 131.72 400.326 131.479 400.326 131.178ZM293.604 149.382V153H292.385V143.758H295.794C296.805 143.758 297.597 144.016 298.168 144.532C298.744 145.049 299.031 145.732 299.031 146.583C299.031 147.48 298.75 148.172 298.187 148.658C297.629 149.141 296.827 149.382 295.781 149.382H293.604ZM293.604 148.385H295.794C296.446 148.385 296.945 148.233 297.292 147.928C297.639 147.619 297.813 147.175 297.813 146.595C297.813 146.045 297.639 145.605 297.292 145.275C296.945 144.945 296.469 144.773 295.864 144.761H293.604V148.385ZM303.034 153.127C302.103 153.127 301.345 152.822 300.761 152.213C300.177 151.599 299.885 150.78 299.885 149.756V149.541C299.885 148.859 300.014 148.252 300.272 147.719C300.535 147.181 300.899 146.762 301.364 146.462C301.834 146.157 302.342 146.005 302.888 146.005C303.781 146.005 304.475 146.299 304.97 146.887C305.465 147.475 305.712 148.318 305.712 149.414V149.902H301.06C301.077 150.579 301.273 151.127 301.65 151.546C302.031 151.961 302.513 152.168 303.097 152.168C303.512 152.168 303.863 152.084 304.151 151.915C304.439 151.745 304.69 151.521 304.906 151.242L305.624 151.8C305.048 152.685 304.185 153.127 303.034 153.127ZM302.888 146.97C302.414 146.97 302.016 147.143 301.694 147.49C301.373 147.833 301.174 148.315 301.098 148.938H304.538V148.849C304.504 148.252 304.343 147.791 304.056 147.465C303.768 147.135 303.379 146.97 302.888 146.97ZM310.267 147.186C310.089 147.156 309.897 147.141 309.689 147.141C308.919 147.141 308.397 147.469 308.121 148.125V153H306.947V146.132H308.09L308.109 146.925C308.494 146.312 309.04 146.005 309.746 146.005C309.975 146.005 310.149 146.035 310.267 146.094V147.186ZM311.902 153V147.04H310.816V146.132H311.902V145.427C311.902 144.691 312.098 144.122 312.492 143.72C312.886 143.318 313.442 143.117 314.161 143.117C314.432 143.117 314.701 143.153 314.968 143.225L314.904 144.177C314.705 144.139 314.494 144.12 314.269 144.12C313.888 144.12 313.594 144.232 313.387 144.456C313.18 144.676 313.076 144.993 313.076 145.408V146.132H314.542V147.04H313.076V153H311.902ZM315.403 149.502C315.403 148.83 315.534 148.224 315.796 147.687C316.063 147.15 316.431 146.735 316.901 146.443C317.375 146.151 317.914 146.005 318.519 146.005C319.454 146.005 320.21 146.329 320.785 146.976C321.365 147.624 321.655 148.485 321.655 149.56V149.642C321.655 150.311 321.526 150.912 321.268 151.445C321.014 151.974 320.648 152.386 320.17 152.683C319.696 152.979 319.15 153.127 318.532 153.127C317.601 153.127 316.846 152.803 316.266 152.156C315.69 151.508 315.403 150.651 315.403 149.585V149.502ZM316.583 149.642C316.583 150.404 316.759 151.015 317.11 151.477C317.465 151.938 317.939 152.168 318.532 152.168C319.129 152.168 319.603 151.936 319.954 151.47C320.305 151 320.481 150.345 320.481 149.502C320.481 148.749 320.301 148.14 319.941 147.674C319.586 147.205 319.112 146.97 318.519 146.97C317.939 146.97 317.472 147.2 317.116 147.662C316.761 148.123 316.583 148.783 316.583 149.642ZM326.317 147.186C326.14 147.156 325.947 147.141 325.74 147.141C324.97 147.141 324.447 147.469 324.172 148.125V153H322.998V146.132H324.14L324.159 146.925C324.544 146.312 325.09 146.005 325.797 146.005C326.025 146.005 326.199 146.035 326.317 146.094V147.186ZM328.377 146.132L328.409 146.894C328.913 146.301 329.592 146.005 330.447 146.005C331.407 146.005 332.061 146.373 332.408 147.109C332.637 146.779 332.933 146.513 333.297 146.31C333.665 146.106 334.099 146.005 334.598 146.005C336.105 146.005 336.871 146.803 336.896 148.398V153H335.722V148.468C335.722 147.977 335.609 147.611 335.385 147.37C335.161 147.124 334.784 147.001 334.255 147.001C333.819 147.001 333.458 147.133 333.17 147.395C332.882 147.653 332.715 148.002 332.668 148.442V153H331.488V148.5C331.488 147.501 330.999 147.001 330.021 147.001C329.251 147.001 328.724 147.329 328.441 147.985V153H327.267V146.132H328.377ZM342.783 153C342.716 152.865 342.661 152.623 342.618 152.276C342.073 152.843 341.421 153.127 340.663 153.127C339.986 153.127 339.43 152.937 338.994 152.556C338.562 152.171 338.346 151.684 338.346 151.096C338.346 150.381 338.617 149.826 339.159 149.433C339.705 149.035 340.471 148.836 341.457 148.836H342.599V148.296C342.599 147.886 342.477 147.56 342.231 147.319C341.986 147.073 341.624 146.951 341.146 146.951C340.727 146.951 340.376 147.056 340.092 147.268C339.809 147.48 339.667 147.736 339.667 148.036H338.486C338.486 147.693 338.607 147.363 338.848 147.046C339.093 146.724 339.423 146.47 339.838 146.284C340.257 146.098 340.716 146.005 341.216 146.005C342.007 146.005 342.627 146.204 343.075 146.602C343.524 146.995 343.757 147.539 343.774 148.233V151.394C343.774 152.025 343.854 152.526 344.015 152.898V153H342.783ZM340.835 152.105C341.203 152.105 341.552 152.01 341.882 151.819C342.212 151.629 342.451 151.381 342.599 151.077V149.667H341.679C340.24 149.667 339.521 150.089 339.521 150.931C339.521 151.299 339.644 151.587 339.889 151.794C340.134 152.001 340.45 152.105 340.835 152.105ZM346.595 146.132L346.633 146.995C347.158 146.335 347.844 146.005 348.69 146.005C350.142 146.005 350.874 146.824 350.886 148.461V153H349.712V148.455C349.708 147.96 349.594 147.594 349.369 147.357C349.149 147.12 348.804 147.001 348.335 147.001C347.954 147.001 347.619 147.103 347.332 147.306C347.044 147.509 346.82 147.776 346.659 148.106V153H345.485V146.132H346.595ZM355.282 152.168C355.701 152.168 356.067 152.042 356.38 151.788C356.694 151.534 356.867 151.216 356.901 150.835H358.012C357.991 151.229 357.855 151.604 357.606 151.959C357.356 152.314 357.022 152.598 356.603 152.81C356.188 153.021 355.748 153.127 355.282 153.127C354.347 153.127 353.602 152.816 353.048 152.194C352.498 151.568 352.223 150.713 352.223 149.629V149.433C352.223 148.764 352.345 148.169 352.591 147.649C352.836 147.128 353.188 146.724 353.645 146.437C354.106 146.149 354.65 146.005 355.276 146.005C356.046 146.005 356.685 146.236 357.193 146.697C357.705 147.158 357.978 147.757 358.012 148.493H356.901C356.867 148.049 356.698 147.685 356.393 147.401C356.093 147.114 355.72 146.97 355.276 146.97C354.679 146.97 354.216 147.186 353.886 147.617C353.56 148.045 353.397 148.665 353.397 149.477V149.699C353.397 150.491 353.56 151.1 353.886 151.527C354.212 151.955 354.677 152.168 355.282 152.168ZM362.052 153.127C361.121 153.127 360.364 152.822 359.78 152.213C359.196 151.599 358.904 150.78 358.904 149.756V149.541C358.904 148.859 359.033 148.252 359.291 147.719C359.553 147.181 359.917 146.762 360.383 146.462C360.852 146.157 361.36 146.005 361.906 146.005C362.799 146.005 363.493 146.299 363.988 146.887C364.483 147.475 364.731 148.318 364.731 149.414V149.902H360.078C360.095 150.579 360.292 151.127 360.668 151.546C361.049 151.961 361.532 152.168 362.116 152.168C362.53 152.168 362.882 152.084 363.169 151.915C363.457 151.745 363.709 151.521 363.925 151.242L364.642 151.8C364.067 152.685 363.203 153.127 362.052 153.127ZM361.906 146.97C361.432 146.97 361.034 147.143 360.713 147.49C360.391 147.833 360.192 148.315 360.116 148.938H363.557V148.849C363.523 148.252 363.362 147.791 363.074 147.465C362.786 147.135 362.397 146.97 361.906 146.97ZM370.463 149.382V153H369.244V143.758H372.653C373.664 143.758 374.456 144.016 375.027 144.532C375.603 145.049 375.89 145.732 375.89 146.583C375.89 147.48 375.609 148.172 375.046 148.658C374.488 149.141 373.686 149.382 372.64 149.382H370.463ZM370.463 148.385H372.653C373.305 148.385 373.804 148.233 374.151 147.928C374.498 147.619 374.672 147.175 374.672 146.595C374.672 146.045 374.498 145.605 374.151 145.275C373.804 144.945 373.328 144.773 372.723 144.761H370.463V148.385ZM378.407 153H377.233V143.25H378.407V153ZM384.403 153C384.335 152.865 384.28 152.623 384.238 152.276C383.692 152.843 383.04 153.127 382.283 153.127C381.606 153.127 381.049 152.937 380.613 152.556C380.182 152.171 379.966 151.684 379.966 151.096C379.966 150.381 380.237 149.826 380.778 149.433C381.324 149.035 382.09 148.836 383.076 148.836H384.219V148.296C384.219 147.886 384.096 147.56 383.851 147.319C383.605 147.073 383.243 146.951 382.765 146.951C382.346 146.951 381.995 147.056 381.711 147.268C381.428 147.48 381.286 147.736 381.286 148.036H380.105C380.105 147.693 380.226 147.363 380.467 147.046C380.713 146.724 381.043 146.47 381.457 146.284C381.876 146.098 382.336 146.005 382.835 146.005C383.626 146.005 384.246 146.204 384.695 146.602C385.143 146.995 385.376 147.539 385.393 148.233V151.394C385.393 152.025 385.473 152.526 385.634 152.898V153H384.403ZM382.454 152.105C382.822 152.105 383.171 152.01 383.501 151.819C383.832 151.629 384.071 151.381 384.219 151.077V149.667H383.298C381.859 149.667 381.14 150.089 381.14 150.931C381.14 151.299 381.263 151.587 381.508 151.794C381.754 152.001 382.069 152.105 382.454 152.105ZM388.697 144.469V146.132H389.979V147.04H388.697V151.299C388.697 151.574 388.754 151.781 388.868 151.921C388.983 152.056 389.177 152.124 389.452 152.124C389.588 152.124 389.774 152.099 390.011 152.048V153C389.702 153.085 389.402 153.127 389.11 153.127C388.585 153.127 388.189 152.968 387.923 152.651C387.656 152.333 387.523 151.883 387.523 151.299V147.04H386.272V146.132H387.523V144.469H388.697ZM391.804 153V147.04H390.719V146.132H391.804V145.427C391.804 144.691 392.001 144.122 392.395 143.72C392.788 143.318 393.345 143.117 394.064 143.117C394.335 143.117 394.604 143.153 394.87 143.225L394.807 144.177C394.608 144.139 394.396 144.12 394.172 144.12C393.791 144.12 393.497 144.232 393.29 144.456C393.082 144.676 392.979 144.993 392.979 145.408V146.132H394.445V147.04H392.979V153H391.804ZM395.305 149.502C395.305 148.83 395.436 148.224 395.699 147.687C395.965 147.15 396.334 146.735 396.803 146.443C397.277 146.151 397.817 146.005 398.422 146.005C399.357 146.005 400.113 146.329 400.688 146.976C401.268 147.624 401.558 148.485 401.558 149.56V149.642C401.558 150.311 401.429 150.912 401.171 151.445C400.917 151.974 400.551 152.386 400.072 152.683C399.598 152.979 399.053 153.127 398.435 153.127C397.504 153.127 396.748 152.803 396.169 152.156C395.593 151.508 395.305 150.651 395.305 149.585V149.502ZM396.486 149.642C396.486 150.404 396.662 151.015 397.013 151.477C397.368 151.938 397.842 152.168 398.435 152.168C399.031 152.168 399.505 151.936 399.857 151.47C400.208 151 400.383 150.345 400.383 149.502C400.383 148.749 400.204 148.14 399.844 147.674C399.488 147.205 399.014 146.97 398.422 146.97C397.842 146.97 397.375 147.2 397.019 147.662C396.664 148.123 396.486 148.783 396.486 149.642ZM406.22 147.186C406.042 147.156 405.85 147.141 405.643 147.141C404.872 147.141 404.35 147.469 404.075 148.125V153H402.9V146.132H404.043L404.062 146.925C404.447 146.312 404.993 146.005 405.7 146.005C405.928 146.005 406.102 146.035 406.22 146.094V147.186ZM408.28 146.132L408.312 146.894C408.815 146.301 409.495 146.005 410.349 146.005C411.31 146.005 411.964 146.373 412.311 147.109C412.539 146.779 412.836 146.513 413.2 146.31C413.568 146.106 414.001 146.005 414.501 146.005C416.007 146.005 416.773 146.803 416.799 148.398V153H415.624V148.468C415.624 147.977 415.512 147.611 415.288 147.37C415.064 147.124 414.687 147.001 414.158 147.001C413.722 147.001 413.36 147.133 413.073 147.395C412.785 147.653 412.618 148.002 412.571 148.442V153H411.39V148.5C411.39 147.501 410.902 147.001 409.924 147.001C409.154 147.001 408.627 147.329 408.344 147.985V153H407.169V146.132H408.28Z" fill="#939393"/>
<path d="M353.982 1.03664L353.982 1.03661C354.144 0.9878 354.312 0.987795 354.474 1.0366C354.474 1.03661 354.474 1.03661 354.474 1.03661L391.81 12.2803C391.811 12.2808 391.812 12.2812 391.814 12.2816C392.182 12.3985 392.439 12.7486 392.439 13.1358V54.3796C392.439 62.176 386.479 69.7449 378.546 75.9929C370.664 82.2007 361.108 86.8846 354.481 88.9577L354.459 88.9647L354.437 88.9728C354.392 88.9892 354.343 89 354.219 89C354.145 89 354.053 88.986 353.952 88.9559C347.325 86.8819 337.772 82.1989 329.893 75.9929C321.959 69.7449 316 62.176 316 54.3796V13.1358C316 12.7486 316.257 12.3984 316.625 12.2816C316.626 12.2812 316.627 12.2807 316.629 12.2803L353.982 1.03664Z" stroke="#383838" stroke-width="2"/>
<rect x="350" y="38" width="12" height="12" fill="#383838"/>
<rect x="365" y="38" width="12" height="12" fill="#383838"/>
<rect x="350" y="53" width="12" height="12" fill="#383838"/>
<rect x="365" y="53" width="12" height="12" fill="#383838"/>
<path d="M362 34.5C362 25.9396 355.06 19 346.5 19C337.94 19 331 25.9396 331 34.5C331 43.0604 337.94 50 346.5 50" stroke="#383838" stroke-width="3"/>
<path d="M356 34.5C356 29.7637 352.534 25.837 348 25.1178M346.5 44C341.764 44 337.837 40.534 337.118 36" stroke="#383838" stroke-width="2" stroke-dasharray="1 1"/>
<path d="M347 35V24C340.925 24 336 28.925 336 35H347Z" fill="#383838"/>
<circle cx="504" cy="45" r="44" fill="white" stroke="#383838" stroke-width="2"/>
<path d="M482.535 58.639H477V32.361H482.535V58.639Z" fill="#383838"/>
<path d="M501.614 51.7447C501.614 50.7219 501.245 49.9398 500.507 49.3984C499.769 48.8449 498.441 48.2674 496.522 47.6658C494.603 47.0521 493.083 46.4505 491.964 45.861C488.913 44.2487 487.388 42.0769 487.388 39.3456C487.388 37.9258 487.794 36.6624 488.606 35.5555C489.43 34.4365 490.605 33.5642 492.13 32.9385C493.668 32.3128 495.39 32 497.297 32C499.215 32 500.925 32.3429 502.426 33.0287C503.927 33.7025 505.089 34.6591 505.913 35.8984C506.75 37.1377 507.168 38.5455 507.168 40.1217H501.633C501.633 38.9184 501.245 37.986 500.47 37.3242C499.695 36.6504 498.607 36.3135 497.204 36.3135C495.851 36.3135 494.799 36.5963 494.049 37.1618C493.299 37.7152 492.924 38.4492 492.924 39.3636C492.924 40.2179 493.36 40.9338 494.234 41.5114C495.119 42.0889 496.417 42.6303 498.127 43.1357C501.276 44.0622 503.57 45.2112 505.009 46.5829C506.448 47.9545 507.168 49.6631 507.168 51.7086C507.168 53.9826 506.289 55.7694 504.529 57.0688C502.77 58.3563 500.403 59 497.426 59C495.359 59 493.477 58.633 491.78 57.8991C490.082 57.1531 488.784 56.1364 487.886 54.8489C487.001 53.5615 486.558 52.0695 486.558 50.373H492.112C492.112 53.2727 493.883 54.7226 497.426 54.7226C498.742 54.7226 499.769 54.4639 500.507 53.9465C501.245 53.4171 501.614 52.6832 501.614 51.7447Z" fill="#383838"/>
<path d="M533 46.0956C533 48.6825 532.533 50.9505 531.598 52.8997C530.663 54.8489 529.322 56.3529 527.575 57.4118C525.841 58.4706 523.848 59 521.597 59C519.371 59 517.384 58.4766 515.637 57.4298C513.89 56.383 512.537 54.891 511.578 52.9539C510.618 51.0047 510.133 48.7667 510.12 46.24V44.9405C510.12 42.3536 510.594 40.0795 511.541 38.1183C512.5 36.1451 513.847 34.635 515.582 33.5882C517.329 32.5294 519.321 32 521.56 32C523.799 32 525.786 32.5294 527.52 33.5882C529.267 34.635 530.614 36.1451 531.561 38.1183C532.52 40.0795 533 42.3476 533 44.9225V46.0956ZM527.391 44.9044C527.391 42.1491 526.886 40.0555 525.878 38.6237C524.869 37.1918 523.43 36.4759 521.56 36.4759C519.703 36.4759 518.27 37.1858 517.261 38.6056C516.252 40.0134 515.742 42.0829 515.729 44.8142V46.0956C515.729 48.7787 516.234 50.8603 517.243 52.3402C518.251 53.8202 519.703 54.5602 521.597 54.5602C523.454 54.5602 524.881 53.8503 525.878 52.4305C526.874 50.9987 527.378 48.9171 527.391 46.1858V44.9044Z" fill="#383838"/>
<path d="M478.487 133H477.268V123.758H478.487V133ZM483.314 128.88C482.269 128.58 481.507 128.212 481.029 127.776C480.555 127.336 480.318 126.794 480.318 126.151C480.318 125.423 480.608 124.822 481.188 124.348C481.772 123.87 482.529 123.631 483.46 123.631C484.095 123.631 484.66 123.754 485.155 123.999C485.654 124.244 486.04 124.583 486.31 125.015C486.585 125.446 486.723 125.918 486.723 126.43H485.498C485.498 125.872 485.32 125.434 484.965 125.116C484.609 124.795 484.108 124.634 483.46 124.634C482.859 124.634 482.39 124.767 482.051 125.034C481.717 125.296 481.55 125.662 481.55 126.132C481.55 126.508 481.708 126.828 482.026 127.09C482.347 127.348 482.891 127.585 483.657 127.801C484.427 128.017 485.028 128.256 485.46 128.519C485.896 128.777 486.217 129.079 486.425 129.426C486.636 129.773 486.742 130.182 486.742 130.651C486.742 131.4 486.45 132.001 485.866 132.454C485.282 132.903 484.501 133.127 483.524 133.127C482.889 133.127 482.297 133.006 481.746 132.765C481.196 132.52 480.771 132.185 480.471 131.762C480.174 131.339 480.026 130.859 480.026 130.321H481.251C481.251 130.88 481.457 131.322 481.867 131.648C482.282 131.97 482.834 132.13 483.524 132.13C484.167 132.13 484.66 131.999 485.003 131.737C485.346 131.474 485.517 131.117 485.517 130.664C485.517 130.211 485.358 129.862 485.041 129.617C484.723 129.367 484.148 129.122 483.314 128.88ZM495.289 128.677C495.289 129.583 495.137 130.374 494.832 131.051C494.528 131.724 494.096 132.238 493.537 132.594C492.979 132.949 492.327 133.127 491.582 133.127C490.854 133.127 490.209 132.949 489.646 132.594C489.083 132.234 488.645 131.724 488.332 131.064C488.023 130.4 487.865 129.632 487.856 128.76V128.093C487.856 127.205 488.011 126.42 488.32 125.738C488.628 125.057 489.064 124.536 489.627 124.177C490.194 123.813 490.842 123.631 491.57 123.631C492.31 123.631 492.962 123.811 493.525 124.17C494.092 124.526 494.528 125.044 494.832 125.726C495.137 126.403 495.289 127.192 495.289 128.093V128.677ZM494.077 128.081C494.077 126.985 493.857 126.145 493.417 125.561C492.977 124.972 492.361 124.678 491.57 124.678C490.799 124.678 490.192 124.972 489.748 125.561C489.308 126.145 489.081 126.957 489.069 127.998V128.677C489.069 129.739 489.291 130.575 489.735 131.185C490.184 131.79 490.799 132.092 491.582 132.092C492.369 132.092 492.979 131.807 493.41 131.235C493.842 130.66 494.064 129.837 494.077 128.766V128.081ZM502.738 133H496.683V132.156L499.882 128.601C500.356 128.064 500.682 127.628 500.859 127.293C501.041 126.955 501.132 126.606 501.132 126.246C501.132 125.764 500.986 125.368 500.694 125.059C500.402 124.75 500.013 124.596 499.526 124.596C498.942 124.596 498.488 124.763 498.162 125.097C497.84 125.427 497.679 125.889 497.679 126.481H496.505C496.505 125.63 496.778 124.943 497.324 124.418C497.874 123.893 498.608 123.631 499.526 123.631C500.385 123.631 501.065 123.857 501.564 124.31C502.063 124.759 502.313 125.357 502.313 126.106C502.313 127.016 501.733 128.1 500.574 129.356L498.098 132.042H502.738V133ZM509.819 124.418L505.992 133H504.76L508.575 124.723H503.573V123.758H509.819V124.418ZM516.818 129.058C516.818 130.433 516.583 131.455 516.113 132.124C515.643 132.793 514.909 133.127 513.91 133.127C512.924 133.127 512.194 132.801 511.721 132.149C511.247 131.493 511.001 130.516 510.984 129.217V127.649C510.984 126.291 511.219 125.281 511.689 124.621C512.159 123.961 512.895 123.631 513.898 123.631C514.892 123.631 515.624 123.95 516.094 124.589C516.564 125.224 516.805 126.206 516.818 127.535V129.058ZM515.643 127.452C515.643 126.458 515.504 125.734 515.224 125.281C514.945 124.824 514.503 124.596 513.898 124.596C513.297 124.596 512.859 124.822 512.584 125.275C512.309 125.728 512.167 126.424 512.159 127.363V129.242C512.159 130.241 512.302 130.979 512.59 131.458C512.882 131.931 513.322 132.168 513.91 132.168C514.49 132.168 514.92 131.944 515.199 131.496C515.483 131.047 515.631 130.34 515.643 129.375V127.452ZM523.988 129.058C523.988 130.433 523.753 131.455 523.283 132.124C522.813 132.793 522.079 133.127 521.08 133.127C520.094 133.127 519.364 132.801 518.89 132.149C518.416 131.493 518.171 130.516 518.154 129.217V127.649C518.154 126.291 518.389 125.281 518.859 124.621C519.328 123.961 520.065 123.631 521.068 123.631C522.062 123.631 522.794 123.95 523.264 124.589C523.734 125.224 523.975 126.206 523.988 127.535V129.058ZM522.813 127.452C522.813 126.458 522.674 125.734 522.394 125.281C522.115 124.824 521.673 124.596 521.068 124.596C520.467 124.596 520.029 124.822 519.754 125.275C519.479 125.728 519.337 126.424 519.328 127.363V129.242C519.328 130.241 519.472 130.979 519.76 131.458C520.052 131.931 520.492 132.168 521.08 132.168C521.66 132.168 522.09 131.944 522.369 131.496C522.652 131.047 522.8 130.34 522.813 129.375V127.452ZM529.221 133H528.041V125.173L525.673 126.043V124.977L529.037 123.713H529.221V133Z" fill="#939393"/>
</svg>
