<svg width="346" height="51" viewBox="0 0 346 51" fill="none" xmlns="http://www.w3.org/2000/svg">
<g clip-path="url(#clip0)">
<path d="M217.02 24.5755C217.02 34.6798 209.082 42.871 199.289 42.871C189.497 42.871 181.558 34.6798 181.558 24.5755C181.558 14.471 189.497 6.27979 199.289 6.27979C209.082 6.27979 217.02 14.4712 217.02 24.5757" fill="#D33833"/>
<path d="M182.281 29.1067C182.281 29.1067 180.997 10.0272 198.425 9.48232L197.209 7.43811L187.753 10.6405L185.05 13.7752L182.686 18.3406L181.335 23.6556L181.74 27.1988" fill="#EF3D3A"/>
<path d="M187.145 12.0947C184.034 15.3057 182.109 19.7392 182.109 24.644C182.109 29.5473 184.034 33.9815 187.145 37.1922C190.258 40.4024 194.547 42.3837 199.289 42.3837C204.031 42.3837 208.321 40.4026 211.433 37.1922C214.544 33.9816 216.469 29.5477 216.469 24.644C216.469 19.7392 214.544 15.3057 211.433 12.0947C208.321 8.88492 204.031 6.904 199.289 6.90351C194.547 6.90384 190.258 8.88492 187.145 12.0947V12.0947ZM186.358 37.9687C183.051 34.5578 181.007 29.844 181.007 24.644C181.007 19.4432 183.051 14.7297 186.357 11.3185C189.663 7.90648 194.238 5.79195 199.289 5.7926C204.339 5.79195 208.915 7.90648 212.22 11.3185C215.527 14.7297 217.571 19.4437 217.571 24.644C217.571 29.8438 215.527 34.5576 212.22 37.9687C208.915 41.3804 204.339 43.4949 199.289 43.4949C194.239 43.4949 189.663 41.3804 186.358 37.9687" fill="#231F20"/>
<path d="M206.753 24.6769L204.051 25.0857L200.404 25.4946L198.039 25.5626L195.743 25.4946L193.987 24.9494L192.433 23.2459L191.217 19.7708L190.947 19.0211L189.326 18.4762L188.38 16.9089L187.705 14.6603L188.448 12.6841L190.204 12.0708L191.623 12.7524L192.298 14.2514L193.108 14.115L193.379 13.7745L193.108 12.2072L193.041 10.231L193.446 7.50551L193.431 5.94863L194.662 3.96248L196.824 2.39514L200.606 0.759766L204.794 1.37303L208.442 4.03051L210.13 6.75618L211.211 8.7322L211.481 13.6383L210.671 17.8631L209.185 21.6107L207.766 23.5869" fill="#F0D6B7"/>
<path d="M204.456 36.4652L194.797 36.874V38.5094L195.608 44.2332L195.203 44.7102L188.448 42.3934L187.975 41.5757L187.3 33.8759L185.746 29.2422L185.408 28.1521L190.812 24.4046L192.501 23.723L193.987 25.5628L195.27 26.7213L196.756 27.1982L197.432 27.4026L198.242 30.946L198.85 31.6954L200.404 31.1504L199.323 33.2628L205.2 36.0565L204.456 36.4653" fill="#335061"/>
<path d="M188.448 12.6841L190.204 12.0709L191.623 12.7525L192.298 14.2515L193.108 14.1151L193.311 13.2974L192.906 11.7304L193.311 7.98244L192.973 5.93822L194.189 4.50728L196.823 2.39503L196.081 1.37292L192.365 3.21272L190.812 4.43924L189.934 6.34707L188.583 8.18686L188.178 10.3675L188.448 12.6841" fill="#6D6B6D"/>
<path d="M191.217 6.27898C191.217 6.27898 192.23 3.75789 196.283 2.53137C200.336 1.30484 196.486 1.64532 196.486 1.64532L192.095 3.34921L190.407 5.05245L189.663 6.41537L191.217 6.27898V6.27898ZM189.191 12.2072C189.191 12.2072 187.772 7.43731 193.176 6.75585L192.973 5.93817L189.258 6.82421L188.177 10.3674L188.448 12.6841L189.191 12.2072" fill="#DCD9D8"/>
<path d="M191.352 18.5444L192.236 17.6799C192.236 17.6799 192.636 17.7267 192.703 18.2036C192.77 18.6808 192.973 22.9736 195.878 25.2904C196.143 25.5019 193.716 24.9495 193.716 24.9495L191.555 21.5428L191.352 18.5444ZM203.781 17.2498C203.781 17.2498 203.939 15.1844 204.49 15.3431C205.042 15.5019 205.042 16.0583 205.042 16.0583C205.042 16.0583 203.702 16.9321 203.781 17.2498ZM209.387 9.68624C209.387 9.68624 208.274 9.92336 208.172 10.9128C208.069 11.9023 209.387 11.1172 209.59 11.0488L209.387 9.68624ZM201.214 9.75443C201.214 9.75443 199.728 9.95885 199.728 10.9128C199.728 11.8665 201.417 11.7986 201.89 11.3898L201.214 9.75443ZM192.028 14.1835C192.028 14.1835 189.461 12.6162 189.191 14.1151C188.92 15.6145 188.312 16.7046 189.596 18.2719L188.718 17.9992L187.907 15.8869L187.637 13.8427L189.191 12.2072L190.947 12.3435L191.96 13.1612L192.028 14.1833V14.1835ZM193.243 9.89066C193.243 9.89066 194.392 3.89408 200.201 2.73591C204.984 1.78233 207.496 2.94033 208.442 4.03047C208.442 4.03047 204.186 -1.0799 200.133 0.487277C196.08 2.05429 193.108 4.91619 193.176 6.75598C193.291 9.88935 193.243 9.89066 193.243 9.89066V9.89066ZM208.914 4.71177C208.914 4.71177 206.956 4.64373 206.888 6.41549C206.888 6.41549 206.888 6.68795 207.023 6.9604C207.023 6.9604 208.577 5.1888 209.522 6.14272" fill="#F7E4CD"/>
<path d="M200.337 7.145C200.337 7.145 200 4.42554 197.702 6.00662C196.215 7.02873 196.351 8.45968 196.621 8.73213C196.891 9.00491 196.818 9.55374 197.023 9.17695C197.229 8.80016 197.161 7.57363 197.904 7.23315C198.647 6.89234 199.865 6.51179 200.337 7.145Z" fill="#F7E4CD"/>
<path d="M193.986 25.5626L187.637 28.4245C187.637 28.4245 190.271 38.9863 188.92 42.2571L187.975 41.9166L187.907 37.8962L186.151 30.2646L185.408 28.152L192.028 23.6549L193.986 25.5626V25.5626ZM194.639 31.4044L195.54 32.5129V36.6013H194.459C194.459 36.6013 194.324 33.7394 194.324 33.3988C194.324 33.0581 194.459 31.8316 194.459 31.8316L194.639 31.4044ZM194.662 37.2149L191.622 37.351L192.5 37.9642L194.662 38.3049" fill="#49728B"/>
<path d="M205.064 36.5333L207.564 36.4651L208.172 42.7339L205.605 43.0746L205.064 36.5333" fill="#335061"/>
<path d="M205.74 36.5333L209.522 36.3289C209.522 36.3289 211.076 32.3767 211.076 32.1723C211.076 31.9679 212.427 26.4485 212.427 26.4485L209.387 23.2461L208.779 22.701L207.158 24.3364V30.6735L205.74 36.5333Z" fill="#335061"/>
<path d="M207.428 36.0563L205.064 36.5334L205.402 38.4415C206.28 38.8503 207.766 37.7599 207.766 37.7599L207.428 36.0563ZM207.496 24.132L212.225 27.6754L212.359 26.04L208.78 22.701L207.496 24.132Z" fill="#49728B"/>
<path d="M197.006 49.9578L195.608 44.2328L194.912 40.009L194.797 36.8737L201.127 36.5339L205.064 36.5332L204.706 43.6886L205.314 49.2079L205.247 50.23L200.113 50.6389L197.006 49.9578Z" fill="white"/>
<path d="M204.186 36.4651C204.186 36.4651 203.848 43.5517 204.862 48.5942C204.862 48.5942 202.835 49.889 199.863 50.2295L205.537 50.0251L206.213 49.6163L205.402 38.4415L205.199 36.0563" fill="#DCD9D8"/>
<path d="M208.287 42.1897L210.921 41.44L215.919 41.1676L216.662 38.8506L215.311 34.8305L213.758 34.6261L211.596 35.3074L209.522 36.3288L208.422 36.1251L207.563 36.4651" fill="white"/>
<path d="M208.239 40.8263C208.239 40.8263 209.995 40.0087 210.265 40.0769L209.522 36.329L210.4 35.9885C210.4 35.9885 211.008 39.5317 211.008 39.9406C211.008 39.9406 214.791 40.145 215.129 40.145C215.129 40.145 215.939 38.5778 215.737 36.9424L216.48 39.1229L216.547 40.3494L215.467 41.9848L214.251 42.2574L212.224 42.1892L211.549 41.3035L209.185 41.6439L208.442 41.9167" fill="#DCD9D8"/>
<path d="M205.584 35.9889L204.098 32.1733L202.545 29.9247C202.545 29.9247 202.882 28.9706 203.355 28.9706H204.909L206.395 29.5158L206.26 32.0369L205.584 35.9889Z" fill="white"/>
<path d="M205.875 34.6936C205.875 34.6936 203.984 31.0141 203.984 30.4691C203.984 30.4691 204.321 29.6514 204.794 29.8558C205.267 30.0602 206.28 30.6051 206.28 30.6051V29.3106L203.984 28.8334L202.43 29.0378L205.064 35.3068L205.605 35.3752" fill="#DCD9D8"/>
<path d="M197.614 25.6999L195.743 25.4947L193.987 24.9495V25.5627L194.845 26.5175L197.547 27.744" fill="white"/>
<path d="M194.595 25.9042C194.595 25.9042 196.688 26.7901 197.364 26.5856L197.431 27.4025L195.54 26.9945L194.392 26.1768L194.595 25.9042Z" fill="#DCD9D8"/>
<path d="M208.279 29.2024C207.133 29.1684 206.098 29.031 205.191 28.7731C205.253 28.3981 205.137 28.0302 205.23 27.76C205.482 27.5764 205.906 27.5793 206.288 27.5363C205.958 27.3724 205.494 27.3078 205.112 27.4022C205.103 27.142 204.988 26.9808 204.918 26.7772C205.562 26.5449 207.083 25.0241 207.939 25.5277C208.347 25.7673 208.52 27.1356 208.552 27.8009C208.578 28.3532 208.502 28.91 208.279 29.2024" fill="#D33833"/>
<path d="M208.279 29.2024C207.133 29.1684 206.098 29.031 205.191 28.7731C205.253 28.3981 205.137 28.0302 205.23 27.76C205.482 27.5764 205.906 27.5793 206.288 27.5363C205.958 27.3724 205.494 27.3078 205.112 27.4022C205.103 27.142 204.988 26.9808 204.918 26.7772C205.562 26.5449 207.083 25.0241 207.939 25.5277C208.347 25.7673 208.52 27.1356 208.552 27.8009C208.578 28.3532 208.502 28.91 208.279 29.2024H208.279Z" stroke="#D33833" stroke-width="6.14065"/>
<path d="M202.798 27.3122C202.795 27.3997 202.792 27.4879 202.788 27.5762C202.43 27.8133 201.853 27.8104 201.46 28.0097C202.039 28.0352 202.495 28.1759 202.889 28.3742L202.863 29.0352C202.208 29.4882 201.608 30.1628 200.836 30.5877C200.471 30.7887 199.189 31.3056 198.801 31.2142C198.581 31.1627 198.561 30.8876 198.473 30.6281C198.286 30.0729 197.855 29.189 197.817 28.3525C197.77 27.2965 197.664 25.5269 198.792 25.7444C199.702 25.9194 200.761 26.3425 201.465 26.7308C201.896 26.968 202.145 27.2615 202.798 27.3122" fill="#D33833"/>
<path d="M202.798 27.3122C202.795 27.3997 202.792 27.4879 202.788 27.5762C202.43 27.8133 201.853 27.8104 201.46 28.0097C202.039 28.0352 202.495 28.1759 202.889 28.3742L202.863 29.0352C202.208 29.4882 201.608 30.1628 200.836 30.5877C200.471 30.7887 199.189 31.3056 198.801 31.2142C198.581 31.1627 198.561 30.8876 198.473 30.6281C198.286 30.0729 197.855 29.189 197.817 28.3525C197.77 27.2965 197.664 25.5269 198.792 25.7444C199.702 25.9194 200.761 26.3425 201.465 26.7308C201.896 26.968 202.145 27.2615 202.798 27.3122V27.3122Z" stroke="#D33833" stroke-width="6.14065"/>
<path d="M203.45 28.5723C203.35 27.9971 203.234 27.833 203.279 27.3309C204.8 26.3081 205.085 29.0881 203.45 28.5723" fill="#D33833"/>
<path d="M203.45 28.5723C203.35 27.9971 203.234 27.833 203.279 27.3309C204.8 26.3081 205.085 29.0881 203.45 28.5723H203.45Z" stroke="#D33833" stroke-width="6.14065"/>
<path d="M205.652 29.0386C205.652 29.0386 205.179 28.3572 205.517 28.1527C205.855 27.9483 206.193 28.1529 206.395 27.8121C206.598 27.4716 206.395 27.2672 206.463 26.8583C206.531 26.4495 206.869 26.3811 207.206 26.3131C207.544 26.2451 208.49 26.1087 208.624 26.4495L208.219 25.223L207.409 24.9502L204.842 26.4495L204.707 27.1988V28.6981L205.652 29.0386ZM198.56 31.2873C198.478 30.2239 198.393 29.1619 198.297 28.0996C198.154 26.5133 198.675 26.79 200.038 26.79C200.246 26.79 201.32 27.0405 201.397 27.1988C201.765 27.958 200.781 27.7892 201.821 28.3616C202.699 28.8447 204.251 28.0684 203.896 26.9944C203.697 26.7556 202.861 26.92 202.562 26.7635L200.979 25.9355C200.307 25.5839 198.756 25.072 198.04 25.563C196.226 26.8075 198.154 29.9163 198.801 31.2143" fill="#EF3D3A"/>
<path d="M200.337 7.145C198.496 6.71244 197.581 7.92229 197.023 9.17694C196.525 9.05511 196.723 8.37153 196.849 8.02319C197.179 7.10902 198.507 5.89214 199.592 6.05715C200.059 6.12796 200.69 6.55872 200.337 7.145ZM209.307 9.26002L209.395 9.26329C209.811 10.1353 210.171 11.0589 210.695 11.8285C210.344 12.6546 208.033 13.3856 208.069 11.9023C208.568 11.682 209.431 11.8573 209.874 11.5759C209.618 10.8668 209.248 10.263 209.307 9.26002V9.26002ZM201.28 9.28259C201.674 10.0126 201.803 10.7796 202.364 11.3314C202.617 11.5798 203.108 11.8825 202.864 12.5733C202.808 12.7362 202.392 13.0994 202.151 13.1707C201.274 13.4319 199.23 13.2246 199.922 12.1213C200.648 12.1554 201.623 12.5965 202.165 12.0655C201.749 11.3939 201.006 10.0654 201.28 9.28259V9.28259ZM208.978 16.7019C207.657 17.5581 206.184 18.4886 204.02 18.2727C203.558 17.8671 203.381 16.9646 203.831 16.3685C204.065 16.7741 203.918 17.5199 204.569 17.6323C205.797 17.8442 207.227 16.8745 208.11 16.5353C208.658 15.6038 208.063 15.2612 207.569 14.6616C206.559 13.4332 205.204 11.9106 205.253 10.0717C205.662 9.77304 205.697 10.5276 205.755 10.665C206.283 11.9101 207.61 13.503 208.579 14.5688C208.817 14.8312 209.209 15.0831 209.252 15.2566C209.378 15.7616 208.926 16.3662 208.978 16.7019H208.978ZM191.565 15.8008C191.151 15.5624 191.053 14.5125 190.567 14.4827C189.872 14.4401 189.999 15.8445 190.002 16.666C189.524 16.2283 189.439 14.88 189.791 14.1877C189.39 13.9895 189.211 14.4065 188.99 14.5534C189.275 12.4622 192.022 13.5836 191.565 15.8008H191.565ZM209.819 17.5728C209.204 18.7533 208.334 20.0535 206.53 20.0912C206.494 19.71 206.465 19.1298 206.532 18.9C207.911 18.7666 208.763 18.0585 209.819 17.5728V17.5728ZM201.176 18.3381C202.326 18.9488 204.441 19.0142 206.005 18.9679C206.089 19.3136 206.087 19.7406 206.09 20.1622C204.08 20.2633 201.703 19.7616 201.176 18.3381V18.3381ZM200.957 19.4763C201.753 21.4918 204.487 21.2597 206.794 21.2041C206.692 21.4658 206.472 21.7749 206.199 21.8867C205.459 22.1901 203.421 22.4202 202.395 21.8704C201.744 21.5215 201.326 20.7331 200.97 20.271C200.798 20.0477 199.94 19.4775 200.957 19.4762" fill="#231F20"/>
<path d="M208.882 30.593C207.948 32.2062 207.055 33.8634 205.947 35.2864C206.411 33.9087 206.61 31.6031 206.68 29.8453C207.652 29.3867 208.484 29.9486 208.882 30.593Z" fill="#81B0C4"/>
<path d="M213.907 36.3917C212.861 36.6028 212.127 37.6279 211.107 37.562C211.667 36.7649 212.649 36.4288 213.907 36.3917ZM214.368 38.0421C213.516 38.1332 212.515 38.2722 211.651 38.2004C212.06 37.57 213.636 37.7875 214.368 38.0421ZM214.663 39.4652C213.705 39.4862 212.515 39.4669 211.605 39.39C212.143 38.8065 214.042 39.1733 214.663 39.4652Z" fill="#231F20"/>
<path d="M207.08 43.3592C207.217 44.5725 207.694 45.8018 207.634 47.1305C207.105 47.3106 206.801 47.4682 206.091 47.4674C206.041 46.338 205.891 44.6117 205.936 43.5352C206.285 43.5586 206.8 43.2838 207.08 43.3592" fill="#DCD9D8"/>
<path d="M205.536 25.4781C205.055 25.7947 204.646 26.1903 204.184 26.5283C203.16 26.5795 202.601 26.4568 201.849 25.8635C201.861 25.8161 201.936 25.8374 201.939 25.7788C203.036 26.2714 204.429 25.5777 205.536 25.4779" fill="#F0D6B7"/>
<path d="M199.781 33.0167C200.082 31.7002 201.263 31.0183 202.334 30.293C203.441 31.7092 204.113 33.5307 204.854 35.2882C203.104 34.7559 201.315 33.8923 199.781 33.0167" fill="#81B0C4"/>
<path d="M205.936 43.5352C205.891 44.6117 206.041 46.338 206.091 47.4674C206.801 47.4684 207.105 47.3109 207.634 47.1305C207.694 45.8018 207.217 44.5725 207.08 43.3592C206.8 43.2838 206.285 43.5585 205.936 43.5352V43.5352ZM194.889 37.413C195.357 41.7515 196.035 45.3983 197.277 49.2402C200.036 50.085 203.361 50.1586 205.799 49.3963C205.351 47.228 205.547 44.5882 205.285 42.2741C205.088 40.5349 205.189 38.7851 204.918 37.0107C201.964 36.3909 197.789 36.866 194.889 37.413V37.413ZM205.616 37.0383C205.592 38.9013 205.699 40.7392 205.84 42.6048C206.55 42.4975 207.031 42.4257 207.69 42.28C207.476 40.4841 207.502 38.4631 207.066 36.8743C206.563 36.879 206.119 36.8684 205.617 37.0383H205.616ZM209.215 36.7377C208.878 36.6601 208.486 36.7346 208.164 36.741C208.316 38.2599 208.682 39.9362 208.811 41.5304C209.318 41.5462 209.588 41.3055 210.004 41.2245C210.026 39.825 209.882 37.8969 209.215 36.7377V36.7377ZM214.662 41.759C215.717 41.5008 216.38 40.1975 216.085 38.859C215.887 37.9595 215.535 36.2659 215.157 35.6904C214.878 35.2653 214.123 34.7079 213.519 35.0976C212.537 35.7321 210.807 35.9161 210.091 36.6839C210.45 37.89 210.561 39.5467 210.709 41.0749C211.936 41.1523 213.445 40.7344 214.466 41.1779C213.753 41.4105 212.829 41.4123 212.214 41.7515C212.717 41.9964 213.894 41.9471 214.662 41.759V41.759ZM204.854 35.2881C204.113 33.5306 203.44 31.7091 202.334 30.2929C201.262 31.0182 200.082 31.7 199.781 33.0166C201.315 33.8922 203.103 34.7558 204.854 35.2881ZM206.68 29.8456C206.61 31.6033 206.411 33.909 205.947 35.2865C207.055 33.8637 207.948 32.2066 208.882 30.5933C208.484 29.9487 207.652 29.3867 206.68 29.8455V29.8456ZM204.61 29.1035C204.19 29.0577 203.834 29.5902 203.288 29.3599C203.163 29.4994 203.05 29.6505 202.922 29.7868C204.127 31.2521 204.675 33.3309 205.606 35.0531C206.106 33.399 206.048 31.5868 206.158 29.7814C205.472 29.825 205.091 29.155 204.61 29.1035V29.1035ZM203.279 27.3311C203.234 27.833 203.35 27.9973 203.45 28.5725C205.085 29.0881 204.8 26.3082 203.279 27.3312V27.3311ZM201.465 26.7306C200.761 26.3422 199.702 25.9189 198.792 25.744C197.664 25.5261 197.77 27.2964 197.817 28.3522C197.855 29.1885 198.286 30.0726 198.473 30.6278C198.561 30.8872 198.581 31.1624 198.801 31.2139C199.189 31.3052 200.471 30.7883 200.836 30.5873C201.608 30.1626 202.208 29.488 202.863 29.035C202.872 28.8145 202.88 28.5942 202.889 28.3738C202.495 28.1759 202.039 28.0349 201.46 28.0094C201.853 27.8099 202.43 27.8129 202.788 27.5757C202.792 27.4874 202.795 27.3996 202.798 27.3119C202.145 27.2616 201.896 26.968 201.465 26.7306V26.7306ZM194.735 25.497C194.15 26.0961 196.375 26.9123 197.084 26.9564C197.08 26.5772 197.298 26.2202 197.254 25.9482C196.412 25.7992 195.307 25.8975 194.735 25.497H194.735ZM201.939 25.7783C201.936 25.8368 201.861 25.8156 201.848 25.8633C202.601 26.4565 203.16 26.5791 204.184 26.528C204.646 26.1899 205.055 25.7945 205.536 25.4777C204.429 25.5775 203.035 26.2712 201.939 25.7783ZM208.552 27.8013C208.52 27.1357 208.347 25.7675 207.939 25.5281C207.083 25.0239 205.562 26.5453 204.918 26.7775C204.988 26.981 205.104 27.1422 205.112 27.4025C205.494 27.308 205.958 27.3726 206.288 27.5367C205.906 27.5797 205.483 27.5769 205.23 27.7602C205.137 28.0302 205.253 28.3982 205.191 28.7733C206.098 29.0314 207.133 29.1688 208.279 29.2026C208.502 28.9099 208.578 28.353 208.552 27.8011L208.552 27.8013ZM193.75 26.0764C193.567 25.9443 192.324 24.3137 192.154 24.3814C189.906 25.2757 187.804 26.8223 185.926 28.2848C187.717 32.1615 188.44 36.9109 188.568 41.4885C190.619 42.4566 192.421 43.8521 195.205 43.9976C194.883 41.6983 194.589 39.6469 194.406 37.4822C193.706 37.1845 192.703 37.4956 192.048 37.3898C192.043 36.5942 193.048 37.0411 193.132 36.5062C193.195 36.1014 192.579 36.0708 192.779 35.4334C193.291 35.6211 193.56 36.0353 194.105 36.1912C194.604 35.0906 194.099 33.1432 194.17 32.2233C194.184 32.0506 194.256 31.2666 194.639 31.404C194.979 31.5256 194.62 33.4896 194.657 34.3602C194.691 35.1624 194.561 35.9384 194.883 36.4421C197.573 36.0725 200.307 35.8337 203.218 35.7532C202.577 35.4761 201.817 35.2139 200.983 34.7396C200.53 34.4826 199.105 33.9475 198.975 33.5143C198.767 32.824 199.521 32.4562 199.65 31.8643C198.292 32.6117 198.027 31.1484 197.706 30.1119C197.415 29.173 197.249 28.4716 197.178 27.9301C196.008 27.3676 194.757 26.7978 193.75 26.0764V26.0764ZM207.364 24.5786C209.237 23.6625 209.574 28.0029 208.84 29.4011C208.954 29.8182 209.344 29.9778 209.503 30.3528C208.458 32.2416 207.297 34.0049 206.231 35.8713C207.024 35.373 208.157 35.7822 209.091 35.4095C209.432 35.2733 209.679 34.4853 209.937 33.8549C210.648 32.1203 211.394 29.9336 211.726 28.2783C211.801 27.9013 212.005 27.0796 211.959 26.7438C211.878 26.1428 211.069 25.6972 210.658 25.3256C209.901 24.6391 209.424 24.0353 208.634 23.3934C208.313 23.8701 207.626 24.1907 207.364 24.5786V24.5786ZM189.467 7.82274C188.574 8.81312 188.761 10.6696 188.869 11.9902C190.482 10.9661 192.623 12.0708 192.603 13.8123C193.373 13.7915 192.891 12.8417 192.752 12.2299C192.296 10.2315 193.519 8.06036 192.807 6.23283C191.425 6.33864 190.29 6.90791 189.467 7.82274V7.82274ZM195.853 2.07326C193.832 2.65088 191.243 4.13187 190.413 5.96299C191.056 5.86863 191.502 5.54156 192.136 5.50116C192.376 5.48546 192.69 5.60239 192.965 5.53338C193.514 5.39601 193.977 4.15444 194.391 3.69244C194.795 3.24124 195.28 3.04843 195.613 2.63714C195.826 2.53329 196.141 2.54065 196.153 2.21734C196.061 2.11758 195.963 2.04154 195.853 2.07326V2.07326ZM206.37 2.61653C204.273 1.4232 200.724 0.525383 198.493 1.64692C196.693 2.55259 194.26 4.05043 193.43 5.9486C194.205 7.78071 193.201 9.45909 193.137 11.3188C193.102 12.3082 193.598 13.1722 193.636 14.2494C193.371 14.691 192.561 14.7453 192 14.715C191.811 13.7621 191.481 12.6909 190.508 12.5833C189.132 12.4314 188.125 13.5807 188.063 14.7817C187.988 16.194 189.138 18.5349 190.767 18.3725C191.396 18.3097 191.551 17.6734 192.236 17.6799C192.608 18.428 191.663 18.6628 191.566 19.1977C191.541 19.3359 191.644 19.8761 191.704 20.1294C192 21.3625 192.66 22.9586 193.309 23.8976C194.133 25.0888 195.752 25.2681 197.494 25.3848C197.805 24.7088 198.951 24.7645 199.698 24.9415C198.803 24.5838 197.971 23.7171 197.281 22.9499C196.489 22.0698 195.687 21.1255 195.647 19.975C197.143 22.0694 198.38 23.8989 201.101 24.82C203.16 25.5168 205.565 24.5007 207.147 23.3799C207.804 22.9139 208.196 22.1748 208.662 21.4982C210.408 18.9644 211.223 15.3476 211.044 11.8425C210.971 10.3966 210.974 8.95605 210.493 7.98349C209.99 6.96629 208.291 6.05654 207.296 6.97643C207.111 5.98752 208.123 5.37557 209.312 5.73175C208.464 4.62788 207.575 3.30224 206.37 2.61653V2.61653ZM210.278 35.2355C211.916 34.4137 214.978 33.0235 216.006 35.2386C216.385 36.0551 216.83 37.4352 217.026 38.2783C217.303 39.4672 216.725 41.9667 215.513 42.3657C214.444 42.7181 213.195 42.6969 211.906 42.4354C211.754 42.308 211.585 42.0861 211.467 41.8547C210.546 41.8187 209.685 41.9047 208.957 42.2862C209.026 42.9728 208.566 43.083 208.134 43.2244C207.814 44.5043 208.775 46.176 208.545 47.343C208.381 48.1744 207.367 48.3029 206.621 48.4585C206.597 48.9204 206.654 49.3062 206.705 49.6971C206.535 50.3306 205.77 50.6912 205.046 50.7795C202.663 51.0682 199.045 51.1982 196.753 50.3666C196.114 48.7839 195.61 46.8587 195.077 45.052C192.841 45.2929 191.033 44.0789 189.329 43.2838C188.739 43.0078 187.922 42.8557 187.702 42.3819C187.488 41.9228 187.576 41.0438 187.523 40.2131C187.388 38.092 187.272 36.0458 186.717 33.8739C186.468 32.8992 186.033 32.039 185.73 31.1C185.45 30.2296 184.96 29.1539 184.832 28.286C184.643 26.9996 185.844 26.928 186.612 26.3705C187.799 25.5086 188.73 25.0318 190.016 24.2538C190.397 24.0232 191.545 23.4402 191.675 23.1715C191.935 22.639 191.23 21.8882 191.041 21.4707C190.743 20.8107 190.587 20.2499 190.544 19.5984C189.466 19.4267 188.649 18.7791 188.155 18.0492C187.338 16.8412 186.771 14.6059 187.478 12.9056C187.534 12.7719 187.81 12.5086 187.851 12.303C187.931 11.8981 187.7 11.3594 187.685 10.9288C187.611 8.71909 188.056 6.81519 189.53 6.14861C190.129 3.74265 192.272 2.94279 194.291 1.74717C195.045 1.30022 195.877 1.01469 196.736 0.695789C199.818 -0.448317 204.546 -0.232938 207.104 1.71855C208.189 2.54605 209.922 4.29328 210.542 5.55824C212.18 8.89767 212.064 14.4792 210.918 18.5415C210.764 19.087 210.541 19.8887 210.229 20.544C210.012 21.0014 209.336 21.9169 209.418 22.3208C209.502 22.7383 210.959 23.854 211.271 24.1576C211.833 24.7048 212.902 25.4313 212.988 26.1219C213.081 26.8567 212.667 27.8619 212.457 28.5713C211.757 30.9381 211.073 33.1257 210.278 35.2355" fill="#231F20"/>
<path d="M199.345 18.8535C199.433 18.7341 199.922 18.5529 200.606 18.885C200.606 18.885 199.796 19.0211 199.863 20.3847L199.526 20.3163C199.525 20.3163 199.176 19.0803 199.345 18.8535" fill="#F7E4CD"/>
<path d="M205.267 30.5712C205.267 30.6706 205.228 30.7659 205.158 30.8361C205.088 30.9064 204.994 30.9459 204.895 30.9459C204.797 30.9459 204.702 30.9064 204.633 30.8361C204.563 30.7659 204.524 30.6706 204.524 30.5712C204.524 30.4718 204.563 30.3765 204.633 30.3063C204.702 30.236 204.797 30.1965 204.895 30.1965C204.994 30.1965 205.088 30.236 205.158 30.3063C205.228 30.3765 205.267 30.4718 205.267 30.5712V30.5712ZM205.638 32.3088C205.638 32.4082 205.599 32.5036 205.529 32.5738C205.46 32.6441 205.365 32.6836 205.267 32.6835C205.168 32.6835 205.074 32.6439 205.004 32.5736C204.934 32.5033 204.895 32.4079 204.895 32.3085C204.895 32.209 204.934 32.1137 205.004 32.0435C205.074 31.9732 205.168 31.9337 205.267 31.9338C205.365 31.9338 205.46 31.9734 205.53 32.0437C205.599 32.114 205.638 32.2094 205.638 32.3088" fill="#1D1919"/>
<path d="M244.574 17.0652C244.194 17.1132 243.871 17.161 243.605 17.2091C243.303 17.2649 243.004 17.332 242.707 17.4102C242.318 17.5157 242.068 17.703 241.959 17.9712C241.85 18.2398 241.795 18.5466 241.795 18.8919V30.1399C241.795 31.1758 241.589 32.1251 241.176 32.9881C240.762 33.8511 240.195 34.5751 239.473 35.1599C238.741 35.7355 237.925 36.1694 237.022 36.4616C236.12 36.754 235.156 36.9004 234.13 36.9004C232.354 36.9004 230.922 36.4693 229.834 35.6068C228.746 34.7443 228.203 33.5611 228.203 32.0566C228.203 31.1655 228.452 30.4278 228.951 29.8431C229.449 29.2586 230.136 28.9664 231.009 28.9664C231.836 28.9664 232.493 29.2107 232.983 29.6994C233.472 30.1884 233.716 30.7918 233.716 31.5104C233.716 32.1238 233.505 32.6913 233.083 33.2136C232.66 33.736 232.178 34.2176 231.636 34.6581V34.8449C231.722 35.0367 231.908 35.1996 232.194 35.3337C232.479 35.468 232.77 35.5349 233.065 35.5349C234.208 35.5349 235.106 35.1226 235.758 34.2979C236.411 33.4733 236.737 32.2265 236.737 30.5578V19.0358C236.737 18.6906 236.685 18.4029 236.58 18.1728C236.474 17.9427 236.221 17.7411 235.821 17.5687C235.534 17.4439 235.189 17.3384 234.783 17.2522C234.377 17.1659 234.04 17.1036 233.773 17.0652V15.9441H244.574V17.0652H244.574ZM261.472 32.9047C261.14 33.4509 260.739 33.9661 260.268 34.4501C259.798 34.9339 259.264 35.3484 258.665 35.6933C258.029 36.0575 257.385 36.3328 256.735 36.5197C256.084 36.7066 255.336 36.8 254.49 36.8C253.084 36.8 251.871 36.5988 250.85 36.1964C249.829 35.7939 248.986 35.2528 248.321 34.5723C247.656 33.892 247.16 33.0895 246.832 32.1647C246.504 31.2402 246.341 30.2366 246.341 29.1537C246.341 28.1764 246.519 27.2398 246.875 26.3436C247.226 25.4562 247.741 24.6441 248.392 23.9506C249.038 23.2702 249.853 22.7191 250.836 22.2975C251.819 21.8761 252.918 21.6651 254.134 21.6651C255.464 21.6651 256.556 21.8282 257.411 22.1538C258.266 22.4797 258.974 22.9301 259.534 23.5049C260.076 24.0511 260.47 24.6955 260.717 25.4379C260.964 26.1807 261.087 26.9593 261.087 27.7737V28.708H251.456C251.456 30.6724 251.831 32.1675 252.581 33.1925C253.332 34.2179 254.524 34.7304 256.158 34.7304C257.051 34.7304 257.853 34.484 258.566 33.9903C259.278 33.4967 259.886 32.8717 260.389 32.1145L261.472 32.9047V32.9047ZM256.029 27.4429C256.029 26.8681 256.001 26.2785 255.944 25.6751C255.887 25.0716 255.787 24.5777 255.645 24.1946C255.483 23.7442 255.262 23.404 254.982 23.1741C254.702 22.9441 254.348 22.829 253.92 22.829C253.189 22.829 252.605 23.2027 252.168 23.9501C251.731 24.6974 251.494 25.8811 251.455 27.5003L256.029 27.4429V27.4429ZM281.648 36.3398H273.084V35.2905C273.265 35.2716 273.483 35.2474 273.74 35.2186C273.996 35.1898 274.191 35.1422 274.324 35.0748C274.523 34.9697 274.666 34.8161 274.751 34.615C274.837 34.4138 274.88 34.1168 274.88 33.7239V26.9973C274.88 26.0198 274.701 25.2845 274.344 24.7908C273.987 24.2974 273.46 24.0506 272.765 24.0506C272.384 24.0506 272.029 24.108 271.701 24.2232C271.372 24.3381 271.051 24.5059 270.736 24.7262C270.46 24.918 270.238 25.1143 270.072 25.3156C269.927 25.4893 269.786 25.6667 269.65 25.8476V33.5659C269.65 33.9013 269.698 34.1818 269.793 34.4066C269.888 34.632 270.044 34.8021 270.263 34.9169C270.415 35.0032 270.605 35.0801 270.833 35.1468C271.061 35.2142 271.284 35.2618 271.502 35.2907V36.3398H262.84V35.2905C263.08 35.2712 263.32 35.2448 263.559 35.2114C263.801 35.1779 264.008 35.1324 264.179 35.0748C264.483 34.9697 264.692 34.8066 264.806 34.5862C264.92 34.3659 264.977 34.0784 264.977 33.7237V25.3581C264.977 25.0613 264.901 24.7689 264.749 24.4816C264.597 24.1941 264.398 23.9594 264.151 23.7772C263.98 23.6622 263.764 23.5666 263.502 23.4897C263.241 23.4132 262.954 23.3605 262.64 23.3317V22.2825L269.437 21.9088L269.65 22.1245V24.2085H269.707C270.029 23.9195 270.352 23.6321 270.676 23.3461C271.056 23.0109 271.408 22.7378 271.731 22.5268C272.082 22.2967 272.543 22.1005 273.113 21.9374C273.683 21.7745 274.29 21.6931 274.936 21.6931C276.485 21.6931 277.646 22.1364 278.42 23.0226C279.194 23.909 279.581 25.0853 279.581 26.5514V33.5945C279.581 33.9492 279.633 34.232 279.738 34.4424C279.842 34.6534 280.037 34.821 280.322 34.9455C280.474 35.0129 280.662 35.0799 280.885 35.1466C281.108 35.214 281.362 35.2616 281.647 35.2905V36.3396L281.648 36.3398ZM301.253 36.3398H294.537C293.712 34.8778 292.957 33.6373 292.274 32.6197C291.637 31.67 290.992 30.726 290.338 29.788L289.498 30.5043V33.6377C289.498 33.9827 289.548 34.2653 289.648 34.4856C289.748 34.7061 289.94 34.8691 290.225 34.9743C290.396 35.0511 290.595 35.1182 290.824 35.1754C291.052 35.2327 291.279 35.2716 291.507 35.2904V36.3396H282.659V35.2904C282.899 35.2713 283.138 35.2449 283.376 35.2112C283.616 35.1777 283.826 35.1321 284.007 35.0747C284.313 34.9694 284.522 34.8065 284.632 34.5859C284.742 34.3657 284.796 34.0781 284.796 33.7235V17.6972C284.796 17.3809 284.727 17.0529 284.59 16.7127C284.452 16.3727 284.25 16.1163 283.984 15.9438C283.804 15.8288 283.533 15.7331 283.172 15.6563C282.811 15.5796 282.483 15.5318 282.189 15.5125V14.4633L289.284 14.0896L289.498 14.3195V29.1523C290.2 28.5198 290.99 27.7868 291.867 26.9533C292.745 26.1199 293.449 25.4299 293.981 24.8837C294.294 24.5581 294.467 24.3113 294.501 24.1437C294.534 23.9761 294.551 23.873 294.551 23.8346C294.551 23.6621 294.401 23.5183 294.101 23.4035C293.801 23.2886 293.349 23.1877 292.747 23.1015V22.081H299.985V23.0729C299.036 23.3414 298.313 23.5929 297.815 23.8274C297.318 24.0623 296.775 24.3761 296.187 24.7687C295.8 25.0259 295.423 25.2972 295.056 25.5822C294.692 25.8657 294.273 26.219 293.799 26.6419C294.728 28.0022 295.586 29.2611 296.373 30.4201C297.161 31.5791 297.985 32.8048 298.848 34.0977C299.142 34.5479 299.507 34.8496 299.944 35.0027C300.38 35.1563 300.817 35.2521 301.253 35.2902V36.3398H301.253ZM310.415 36.3398H301.41V35.2905C301.657 35.2716 301.899 35.2474 302.137 35.2186C302.374 35.1898 302.578 35.1422 302.749 35.0748C303.053 34.96 303.267 34.7947 303.39 34.579C303.513 34.3633 303.576 34.0786 303.576 33.7237V25.3581C303.576 25.0229 303.499 24.7282 303.348 24.4742C303.196 24.2207 303.006 24.0168 302.778 23.8634C302.607 23.7486 302.348 23.6384 302.001 23.533C301.654 23.4276 301.339 23.3604 301.054 23.3319V22.2825L308.035 21.9088L308.249 22.1245V33.5369C308.249 33.8722 308.32 34.1572 308.463 34.3922C308.605 34.6271 308.81 34.8019 309.076 34.9167C309.266 35.003 309.474 35.0799 309.702 35.1466C309.93 35.214 310.168 35.2616 310.415 35.2905V36.3396V36.3398ZM308.334 16.7348C308.334 17.4632 308.056 18.0835 307.501 18.596C306.945 19.1087 306.288 19.3651 305.528 19.3651C304.758 19.3651 304.096 19.1087 303.54 18.596C302.984 18.0835 302.706 17.4629 302.706 16.7348C302.706 16.0066 302.984 15.3838 303.54 14.8662C304.095 14.3486 304.758 14.0899 305.528 14.0899C306.297 14.0899 306.957 14.3488 307.508 14.8662C308.059 15.3838 308.334 16.0066 308.334 16.7348V16.7348ZM330.533 36.3398H321.97V35.2905C322.15 35.2716 322.369 35.2474 322.625 35.2186C322.882 35.1898 323.076 35.1422 323.21 35.0748C323.409 34.9697 323.552 34.8161 323.637 34.615C323.722 34.4138 323.765 34.1168 323.765 33.7239V26.9973C323.765 26.0198 323.587 25.2845 323.229 24.7908C322.872 24.2974 322.346 24.0506 321.65 24.0506C321.27 24.0506 320.915 24.108 320.586 24.2232C320.258 24.3381 319.936 24.5059 319.622 24.7262C319.345 24.918 319.124 25.1143 318.957 25.3156C318.813 25.4893 318.672 25.6667 318.536 25.8476V33.5659C318.536 33.9013 318.583 34.1818 318.678 34.4066C318.773 34.632 318.93 34.8021 319.148 34.9169C319.3 35.0032 319.49 35.0801 319.718 35.1468C319.946 35.2142 320.169 35.2618 320.388 35.2907V36.3398H311.725V35.2905C311.966 35.2712 312.206 35.2448 312.445 35.2114C312.687 35.1779 312.894 35.1324 313.065 35.0748C313.369 34.9697 313.577 34.8066 313.692 34.5862C313.806 34.3659 313.863 34.0784 313.863 33.7237V25.3581C313.863 25.0613 313.786 24.7689 313.635 24.4816C313.483 24.1941 313.283 23.9594 313.036 23.7772C312.865 23.6622 312.649 23.5666 312.388 23.4897C312.127 23.4132 311.839 23.3605 311.526 23.3317V22.2825L318.322 21.9088L318.536 22.1245V24.2085H318.593C318.915 23.9195 319.238 23.6321 319.562 23.3461C319.942 23.0109 320.293 22.7378 320.616 22.5268C320.968 22.2967 321.428 22.1005 321.998 21.9374C322.568 21.7745 323.176 21.6931 323.822 21.6931C325.37 21.6931 326.531 22.1364 327.306 23.0226C328.08 23.909 328.467 25.0853 328.467 26.5514V33.5945C328.467 33.9492 328.519 34.232 328.623 34.4424C328.728 34.6534 328.923 34.821 329.208 34.9455C329.359 35.0129 329.547 35.0799 329.77 35.1466C329.993 35.214 330.248 35.2616 330.533 35.2905V36.3396L330.533 36.3398ZM338.455 36.8286C337.54 36.8295 336.63 36.6914 335.755 36.4189C334.877 36.1458 334.195 35.8562 333.711 35.5494L333.283 36.5267H332.172L331.987 31.1653H333.027C333.17 31.5964 333.407 32.0829 333.739 32.6242C334.072 33.1655 334.452 33.6519 334.879 34.0833C335.326 34.5144 335.836 34.8786 336.411 35.1757C336.986 35.4729 337.601 35.6214 338.256 35.6214C339.12 35.6214 339.764 35.4513 340.187 35.1111C340.609 34.771 340.821 34.2464 340.821 33.5373C340.821 33.1541 340.726 32.838 340.536 32.5886C340.346 32.3395 340.085 32.1238 339.752 31.9418C339.382 31.7501 338.976 31.5872 338.534 31.4528C338.092 31.319 337.549 31.1562 336.903 30.9642C336.257 30.7727 335.703 30.5784 335.243 30.382C334.782 30.1857 334.305 29.8766 333.811 29.4549C333.383 29.0812 333.041 28.6311 332.785 28.1041C332.528 27.5772 332.4 26.9495 332.4 26.2209C332.4 24.8701 332.963 23.7777 334.089 22.944C335.215 22.1103 336.689 21.6934 338.513 21.6934C339.377 21.6934 340.173 21.7822 340.899 21.9595C341.626 22.1369 342.236 22.3307 342.73 22.5417L343.03 21.6937H344.113L344.34 26.595H343.343C343.01 25.5987 342.441 24.7388 341.633 24.0152C340.826 23.2917 339.957 22.9298 339.026 22.9298C338.294 22.9298 337.72 23.0832 337.302 23.3898C336.884 23.6966 336.675 24.1228 336.675 24.669C336.675 25.3974 336.981 25.9244 337.592 26.2501C338.204 26.5761 339.059 26.8824 340.159 27.1699C341.857 27.6108 343.099 28.212 343.886 28.9738C344.673 29.7357 345.067 30.7058 345.067 31.8842C345.067 33.4558 344.456 34.6729 343.236 35.535C342.015 36.3974 340.422 36.8286 338.455 36.8286H338.455Z" fill="black"/>
</g>
<path d="M97.0998 17.525H94.9333L94.9466 33.6068H103.692V31.6147H97.0998V17.525Z" fill="#9A9A9A"/>
<path d="M112.027 30.7703C111.486 31.3376 110.574 31.9049 109.346 31.9049C107.694 31.9049 107.034 31.1001 107.034 30.0447C107.034 28.4484 108.143 27.6833 110.495 27.6833C110.931 27.6833 111.644 27.736 112.014 27.802V30.7703H112.027ZM109.795 21.0342C108.051 21.0342 106.453 21.6542 105.198 22.6833L105.964 24.0025C106.849 23.488 107.932 22.9735 109.478 22.9735C111.248 22.9735 112.04 23.8838 112.04 25.4009V26.1925C111.697 26.1133 110.984 26.0738 110.548 26.0738C106.756 26.0738 104.841 27.393 104.841 30.1767C104.841 32.6569 106.36 33.9102 108.672 33.9102C110.231 33.9102 111.723 33.1978 112.239 32.05L112.635 33.6199H114.141V25.3745C114.141 22.7756 113.005 21.0342 109.795 21.0342Z" fill="#9A9A9A"/>
<path d="M121.116 31.9841C120.31 31.9841 119.597 31.8918 119.055 31.6411V24.1873C119.795 23.5672 120.706 23.1319 121.856 23.1319C123.943 23.1319 124.762 24.6095 124.762 26.9841C124.762 30.3878 123.454 31.9841 121.116 31.9841V31.9841ZM122.027 21.0343C120.099 21.0343 119.055 22.3535 119.055 22.3535V20.2691L119.042 17.525H116.928L116.941 33.211C117.998 33.6464 119.451 33.8971 121.023 33.8971C125.052 33.8971 126.994 31.3245 126.994 26.8786C126.994 23.3562 125.198 21.0343 122.027 21.0343" fill="#9A9A9A"/>
<path d="M73.5859 19.2664C75.5014 19.2664 76.7299 19.8997 77.5489 20.5461L78.4736 18.9366C77.2055 17.8284 75.5014 17.2216 73.6916 17.2216C69.0945 17.2216 65.8712 20.0184 65.8712 25.6648C65.8712 31.5751 69.3455 33.8838 73.3217 33.8838C75.3164 33.8838 77.0073 33.4221 78.117 32.9472L78.0773 26.6279V24.6358H72.1724V26.6279H75.9373L75.9769 31.43C75.4882 31.6807 74.6295 31.8654 73.467 31.8654C70.2702 31.8654 68.1301 29.8601 68.1301 25.6253C68.1301 21.3508 70.3494 19.2664 73.5859 19.2664" fill="#9A9A9A"/>
<path d="M88.8039 17.525H86.6903L86.7035 20.2295V29.5435C86.7035 32.1424 87.8396 33.8839 91.0496 33.8839C91.4988 33.8839 91.9347 33.8443 92.3575 33.7651V31.8654C92.0536 31.9182 91.7234 31.9446 91.3799 31.9446C89.6097 31.9446 88.8303 31.0343 88.8303 29.5171V23.0923H92.3442V21.3245H88.8039V17.525Z" fill="#9A9A9A"/>
<path d="M81.327 33.5936H83.4406V21.3245H81.327V33.5936Z" fill="#9A9A9A"/>
<path d="M81.327 19.6358H83.4406V17.525H81.327V19.6358Z" fill="#9A9A9A"/>
<path d="M24.4973 48L33.4801 20.3878H15.5144L24.4973 48Z" fill="#DE4531"/>
<path d="M24.4972 48L15.5144 20.3878H2.92517L24.4972 48Z" fill="#F86E33"/>
<path d="M2.92515 20.3878L0.190661 28.7783C-0.0603309 29.5435 0.217081 30.3878 0.864375 30.8496L24.4972 48L2.92515 20.3878Z" fill="#F9A238"/>
<path d="M2.92517 20.3878H15.5144L10.0982 3.7519C9.82083 2.89438 8.60551 2.89438 8.3281 3.7519L2.92517 20.3878Z" fill="#DE4531"/>
<path d="M24.4972 48L33.48 20.3878H46.0693L24.4972 48Z" fill="#F86E33"/>
<path d="M46.0693 20.3878L48.8038 28.7783C49.0548 29.5435 48.7773 30.3878 48.13 30.8496L24.4972 48L46.0693 20.3878V20.3878Z" fill="#F9A238"/>
<path d="M46.0693 20.3878H33.4801L38.8962 3.7519C39.1736 2.89438 40.389 2.89438 40.6664 3.7519L46.0693 20.3878V20.3878Z" fill="#DE4531"/>
<defs>
<clipPath id="clip0">
<rect width="165" height="51" fill="white" transform="translate(181)"/>
</clipPath>
</defs>
</svg>
