<svg width="412" height="52" viewBox="0 0 412 52" fill="none" xmlns="http://www.w3.org/2000/svg">
<path d="M164.896 0L150.384 12.7105L138 35.1608H149.166L164.896 0ZM166.827 2.97389L160.633 20.605L172.509 35.6744L149.47 39.6724H187.228L166.827 2.97389Z" fill="#0072C6"/>
<path d="M140.48 49.38H136.98L136.29 51H134.95L138.1 44H139.38L142.54 51H141.18L140.48 49.38ZM140.05 48.36L138.73 45.3L137.42 48.36H140.05ZM148.67 49.9V51H142.7V50.13L146.82 45.1H142.77V44H148.54V44.87L144.42 49.9H148.67ZM152.671 51.1C151.704 51.1 150.951 50.83 150.411 50.29C149.871 49.7433 149.601 48.9633 149.601 47.95V44H150.901V47.9C150.901 49.2733 151.494 49.96 152.681 49.96C153.861 49.96 154.451 49.2733 154.451 47.9V44H155.731V47.95C155.731 48.9633 155.461 49.7433 154.921 50.29C154.388 50.83 153.638 51.1 152.671 51.1ZM161.932 51L160.502 48.95C160.442 48.9567 160.352 48.96 160.232 48.96H158.652V51H157.352V44H160.232C160.838 44 161.365 44.1 161.812 44.3C162.265 44.5 162.612 44.7867 162.852 45.16C163.092 45.5333 163.212 45.9767 163.212 46.49C163.212 47.0167 163.082 47.47 162.822 47.85C162.568 48.23 162.202 48.5133 161.722 48.7L163.332 51H161.932ZM161.902 46.49C161.902 46.0433 161.755 45.7 161.462 45.46C161.168 45.22 160.738 45.1 160.172 45.1H158.652V47.89H160.172C160.738 47.89 161.168 47.77 161.462 47.53C161.755 47.2833 161.902 46.9367 161.902 46.49ZM169.716 49.91V51H164.466V44H169.576V45.09H165.766V46.91H169.146V47.98H165.766V49.91H169.716Z" fill="#0072C6"/>
<path d="M15.7181 28.9487L10.7826 31.0623L15.3535 33.0111L20.6536 31.0623L15.7181 28.9487ZM8.2979 31.5907L8.13253 41.102L15.3535 44.2724V34.3977L8.2979 31.5907V31.5907ZM23.1383 31.5907L16.6127 34.0679V43.3805L23.1383 40.7385V31.5907ZM30.9232 2L25.9537 4.11367L30.5585 6.06241L35.8586 4.11367L30.9232 2V2ZM24.033 4.80798V14.3193L30.1939 16.1031L30.3932 7.44996L24.033 4.80798V4.80798ZM37.8134 5.33634L31.9832 7.81354V17.16L37.8134 14.518V5.33634H37.8134ZM7.58557 15.3866L2.65007 17.5003L7.22093 19.4491L12.5211 17.5003L7.58557 15.3866V15.3866ZM0.165375 18.0287L0 27.54L7.22093 30.7104V20.8356L0.165375 18.0287ZM15.0058 18.0287L8.48027 20.5058V29.8185L15.0058 27.1764V18.0287ZM23.486 15.0358L18.5505 17.1494L23.1214 19.0982L28.4215 17.1494L23.486 15.0358ZM16.0658 17.6778L15.9004 27.1891L23.1213 30.3596V20.4858L16.0658 17.6778V17.6778ZM30.9062 17.6778L24.3807 20.155V29.4676L30.9062 26.8256V17.6778ZM46.4537 2L41.5182 4.11362L46.0891 6.06237L51.3892 4.11362L46.4537 2ZM39.0335 4.64202L38.8681 14.1533L46.0891 17.3237V7.44996L39.0335 4.64202ZM53.8739 4.64202L47.3484 7.11918V16.4318L53.8739 13.7898V4.64202Z" fill="#F7A80D"/>
<path d="M36.18 33H37.54L34.38 26H33.1L29.95 33H31.29L31.98 31.38H35.48L36.18 33ZM32.42 30.36L33.73 27.3L35.05 30.36H32.42ZM46.8491 26L45.0591 31.35L43.2891 26H42.0891L40.2791 31.32L38.5391 26H37.1891L39.5091 33H40.8991L42.6591 27.82L44.3891 33H45.7691L48.0891 26H46.8491ZM51.1182 33.1C53.0382 33.1 53.9482 32.14 53.9482 31.02C53.9482 28.45 49.7982 29.42 49.7982 27.93C49.7982 27.4 50.2382 26.98 51.3182 26.98C51.9282 26.98 52.6182 27.16 53.2482 27.53L53.6582 26.52C53.0482 26.12 52.1682 25.9 51.3282 25.9C49.4082 25.9 48.5082 26.86 48.5082 27.99C48.5082 30.59 52.6682 29.6 52.6682 31.11C52.6682 31.63 52.2082 32.02 51.1182 32.02C50.2582 32.02 49.3682 31.7 48.8082 31.25L48.3582 32.26C48.9382 32.76 50.0282 33.1 51.1182 33.1Z" fill="#F7A80D"/>
<path d="M323.733 37.7487L332.686 22.3202L323.733 6.8916H305.828L296.875 22.3202L305.828 37.7487H323.733" fill="#CAC9C2"/>
<path d="M314.481 29.3626C318.329 29.3626 321.459 26.2478 321.459 22.4191C321.459 18.5907 318.329 15.4761 314.481 15.4761C310.634 15.4761 307.503 18.5907 307.503 22.4191C307.503 26.2478 310.634 29.3626 314.481 29.3626Z" fill="white"/>
<path d="M300.443 1.71896C300.992 0.773453 302.338 0 303.435 0H325.498C326.595 0 327.942 0.773652 328.49 1.71896L334.937 12.8288C334.987 13.5465 334.855 14.2962 334.537 14.8441L330.173 22.2674L322.383 8.87747H297.762C297.179 8.87747 296.528 9.0969 295.961 9.44259L300.443 1.71896Z" fill="#5072AA"/>
<path d="M334.656 12.3425L334.938 12.8288C334.989 13.5465 334.857 14.2962 334.539 14.8441L330.175 22.2674L327.853 18.277L334.656 12.3425Z" fill="#4D6796"/>
<path d="M324.929 5.70721C325.286 5.70679 325.628 5.56553 325.881 5.3144C326.133 5.06327 326.275 4.72279 326.275 4.36764C326.275 4.0125 326.133 3.67202 325.881 3.42089C325.628 3.16976 325.286 3.0285 324.929 3.02808C324.572 3.02839 324.23 3.16962 323.977 3.42076C323.725 3.67191 323.583 4.01245 323.583 4.36764C323.583 4.72283 323.725 5.06334 323.977 5.31447C324.23 5.5656 324.572 5.70685 324.929 5.70721V5.70721ZM302.867 4.36764C302.865 4.53185 302.896 4.69483 302.958 4.84714C303.019 4.99945 303.111 5.13805 303.227 5.2549C303.343 5.37175 303.481 5.46453 303.633 5.52785C303.785 5.59118 303.949 5.62378 304.114 5.62378C304.279 5.62378 304.442 5.59118 304.595 5.52785C304.747 5.46453 304.885 5.37175 305.001 5.2549C305.117 5.13805 305.208 4.99945 305.27 4.84714C305.332 4.69483 305.362 4.53185 305.36 4.36764C305.356 4.0414 305.223 3.72991 304.99 3.50066C304.756 3.27141 304.442 3.14287 304.114 3.14287C303.786 3.14287 303.471 3.27141 303.238 3.50066C303.004 3.72991 302.871 4.0414 302.867 4.36764V4.36764Z" fill="white"/>
<path d="M289.412 20.7298L295.961 9.44237C296.527 9.09667 297.179 8.87744 297.762 8.87744H306.641L298.963 22.3413L311.118 43.7082C311.386 44.1689 311.843 44.5881 312.368 44.8975H303.435C302.338 44.8975 300.991 44.1239 300.443 43.1786L289.412 24.1679C288.863 23.2224 288.863 21.6753 289.412 20.7298" fill="#CC4232"/>
<path d="M295.665 9.94882L295.959 9.44237C296.525 9.09667 297.177 8.87744 297.759 8.87744H306.638L304.327 12.9305L295.665 9.94882" fill="#B23F33"/>
<path d="M304.114 41.6137C304.471 41.6133 304.813 41.472 305.065 41.2209C305.318 40.9697 305.46 40.6292 305.46 40.274C305.46 39.9188 305.318 39.5783 305.065 39.3272C304.813 39.0761 304.471 38.9348 304.114 38.9344C303.757 38.9348 303.415 39.076 303.162 39.3271C302.91 39.5783 302.768 39.9188 302.767 40.274C302.768 40.6292 302.91 40.9697 303.162 41.2209C303.414 41.4721 303.757 41.6134 304.114 41.6137V41.6137ZM293.636 23.7589C293.993 23.7586 294.335 23.6173 294.587 23.3661C294.84 23.1149 294.982 22.7744 294.982 22.4192C294.982 22.064 294.84 21.7235 294.587 21.4723C294.335 21.2212 293.993 21.08 293.636 21.0796C293.279 21.08 292.937 21.2213 292.684 21.4724C292.432 21.7235 292.29 22.064 292.289 22.4192C292.29 22.7744 292.432 23.1149 292.684 23.3661C292.936 23.6173 293.279 23.7586 293.636 23.7589" fill="white"/>
<path d="M322.214 35.8076L334.537 14.8439C334.855 14.296 334.987 13.5464 334.937 12.8286L339.521 20.7297C340.07 21.6752 340.07 23.2223 339.521 24.1678L328.49 43.1784C327.942 44.1237 326.595 44.8972 325.498 44.8972H312.368C311.843 44.588 311.386 44.1687 311.118 43.7079L306.624 35.8074H322.214" fill="#ECB02A"/>
<path d="M313.115 44.8973H312.351C311.826 44.5881 311.368 44.1689 311.101 43.708L306.607 35.8076H311.393L313.115 44.8973Z" fill="#C79732"/>
<path d="M324.929 41.6139C325.286 41.6134 325.628 41.4721 325.881 41.221C326.133 40.9698 326.275 40.6293 326.275 40.2741C326.275 39.9189 326.133 39.5785 325.88 39.3273C325.628 39.0762 325.286 38.9349 324.929 38.9345C324.572 38.9348 324.23 39.0761 323.977 39.3272C323.725 39.5784 323.583 39.9189 323.582 40.2741C323.583 40.6293 323.725 40.9699 323.977 41.2211C324.23 41.4723 324.572 41.6135 324.929 41.6139V41.6139ZM335.426 23.759C335.783 23.7587 336.125 23.6174 336.377 23.3662C336.63 23.1151 336.772 22.7745 336.772 22.4193C336.772 22.0641 336.63 21.7236 336.377 21.4725C336.125 21.2213 335.783 21.0801 335.426 21.0797C335.069 21.0801 334.726 21.2214 334.474 21.4725C334.222 21.7237 334.08 22.0641 334.079 22.4193C334.08 22.7745 334.222 23.115 334.474 23.3662C334.726 23.6173 335.069 23.7586 335.426 23.759" fill="white"/>
<path opacity="0.5" d="M353.701 21.5912C353.251 21.8512 352.761 21.9512 352.261 21.9512C350.781 21.9512 349.731 20.9112 349.731 19.4912C349.731 18.0412 350.781 17.0312 352.271 17.0312C353.021 17.0312 353.651 17.2812 354.201 17.8312L355.021 17.0312C354.361 16.2812 353.381 15.8912 352.211 15.8912C350.021 15.8912 348.421 17.4012 348.421 19.4912C348.421 21.5812 350.021 23.0912 352.191 23.0912C353.181 23.0912 354.201 22.7912 354.931 22.2012V19.4112H353.701V21.5912ZM359.715 23.0912C361.885 23.0912 363.485 21.5712 363.485 19.4912C363.485 17.4112 361.885 15.8912 359.715 15.8912C357.545 15.8912 355.945 17.4212 355.945 19.4912C355.945 21.5612 357.545 23.0912 359.715 23.0912ZM359.715 21.9512C358.305 21.9512 357.255 20.9212 357.255 19.4912C357.255 18.0612 358.305 17.0312 359.715 17.0312C361.125 17.0312 362.175 18.0612 362.175 19.4912C362.175 20.9212 361.125 21.9512 359.715 21.9512ZM367.933 23.0912C370.103 23.0912 371.703 21.5712 371.703 19.4912C371.703 17.4112 370.103 15.8912 367.933 15.8912C365.763 15.8912 364.163 17.4212 364.163 19.4912C364.163 21.5612 365.763 23.0912 367.933 23.0912ZM367.933 21.9512C366.523 21.9512 365.473 20.9212 365.473 19.4912C365.473 18.0612 366.523 17.0312 367.933 17.0312C369.343 17.0312 370.393 18.0612 370.393 19.4912C370.393 20.9212 369.343 21.9512 367.933 21.9512ZM377.661 21.5912C377.211 21.8512 376.721 21.9512 376.221 21.9512C374.741 21.9512 373.691 20.9112 373.691 19.4912C373.691 18.0412 374.741 17.0312 376.231 17.0312C376.981 17.0312 377.611 17.2812 378.161 17.8312L378.981 17.0312C378.321 16.2812 377.341 15.8912 376.171 15.8912C373.981 15.8912 372.381 17.4012 372.381 19.4912C372.381 21.5812 373.981 23.0912 376.151 23.0912C377.141 23.0912 378.161 22.7912 378.891 22.2012V19.4112H377.661V21.5912ZM380.406 22.9912H385.366V21.8912H381.706V15.9912H380.406V22.9912ZM387.492 21.9012V19.9712H390.872V18.9012H387.492V17.0812H391.302V15.9912H386.192V22.9912H391.442V21.9012H387.492ZM352.161 33.0912C353.311 33.0912 354.291 32.6812 354.941 31.9212L354.101 31.1212C353.591 31.6812 352.961 31.9512 352.231 31.9512C350.781 31.9512 349.731 30.9312 349.731 29.4912C349.731 28.0512 350.781 27.0312 352.231 27.0312C352.961 27.0312 353.591 27.3012 354.101 27.8512L354.941 27.0612C354.291 26.3012 353.311 25.8912 352.171 25.8912C350.021 25.8912 348.421 27.4012 348.421 29.4912C348.421 31.5812 350.021 33.0912 352.161 33.0912ZM355.986 32.9912H360.946V31.8912H357.286V25.9912H355.986V32.9912ZM364.916 33.0912C367.086 33.0912 368.686 31.5712 368.686 29.4912C368.686 27.4112 367.086 25.8912 364.916 25.8912C362.746 25.8912 361.146 27.4212 361.146 29.4912C361.146 31.5612 362.746 33.0912 364.916 33.0912ZM364.916 31.9512C363.506 31.9512 362.456 30.9212 362.456 29.4912C362.456 28.0612 363.506 27.0312 364.916 27.0312C366.326 27.0312 367.376 28.0612 367.376 29.4912C367.376 30.9212 366.326 31.9512 364.916 31.9512ZM372.874 33.0912C374.784 33.0912 375.934 31.9812 375.934 29.9412V25.9912H374.654V29.8912C374.654 31.3312 374.014 31.9512 372.884 31.9512C371.754 31.9512 371.104 31.3312 371.104 29.8912V25.9912H369.804V29.9412C369.804 31.9812 370.954 33.0912 372.874 33.0912ZM377.554 32.9912H380.614C382.884 32.9912 384.434 31.5912 384.434 29.4912C384.434 27.3912 382.884 25.9912 380.614 25.9912H377.554V32.9912ZM378.854 31.8912V27.0912H380.554C382.114 27.0912 383.124 28.0412 383.124 29.4912C383.124 30.9412 382.114 31.8912 380.554 31.8912H378.854ZM351.801 36.9912H348.921V43.9912H350.221V41.9712H351.801C353.641 41.9712 354.781 41.0212 354.781 39.4812C354.781 37.9312 353.641 36.9912 351.801 36.9912ZM351.741 40.8712H350.221V38.0912H351.741C352.881 38.0912 353.471 38.6012 353.471 39.4812C353.471 40.3612 352.881 40.8712 351.741 40.8712ZM355.879 43.9912H360.839V42.8912H357.179V36.9912H355.879V43.9912ZM366.954 43.9912H368.314L365.154 36.9912H363.874L360.724 43.9912H362.064L362.754 42.3712H366.254L366.954 43.9912ZM363.194 41.3512L364.504 38.2912L365.824 41.3512H363.194ZM370.073 43.9912H371.373V38.0912H373.693V36.9912H367.753V38.0912H370.073V43.9912ZM379.578 38.0812V36.9912H374.468V43.9912H375.768V41.3112H379.148V40.2112H375.768V38.0812H379.578ZM383.827 44.0912C385.997 44.0912 387.597 42.5712 387.597 40.4912C387.597 38.4112 385.997 36.8912 383.827 36.8912C381.657 36.8912 380.057 38.4212 380.057 40.4912C380.057 42.5612 381.657 44.0912 383.827 44.0912ZM383.827 42.9512C382.417 42.9512 381.367 41.9212 381.367 40.4912C381.367 39.0612 382.417 38.0312 383.827 38.0312C385.237 38.0312 386.287 39.0612 386.287 40.4912C386.287 41.9212 385.237 42.9512 383.827 42.9512ZM394.755 43.9912L393.145 41.6912C394.095 41.3212 394.635 40.5412 394.635 39.4812C394.635 37.9312 393.495 36.9912 391.655 36.9912H388.775V43.9912H390.075V41.9512H391.655C391.745 41.9512 391.835 41.9512 391.925 41.9412L393.355 43.9912H394.755ZM393.325 39.4812C393.325 40.3612 392.735 40.8812 391.595 40.8812H390.075V38.0912H391.595C392.735 38.0912 393.325 38.6012 393.325 39.4812ZM403.55 43.9912L403.54 36.9912H402.47L399.74 41.6312L396.96 36.9912H395.89V43.9912H397.13V39.4112L399.43 43.1912H400.01L402.31 39.3512L402.32 43.9912H403.55Z" fill="black"/>
</svg>
