<svg width="548" height="135" viewBox="0 0 548 135" fill="none" xmlns="http://www.w3.org/2000/svg">
<g clip-path="url(#clip0)">
<path d="M459.036 36.7907C457.915 36.7907 456.731 36.7907 455.561 36.7907C455.561 35.5653 455.561 34.3677 455.561 33.1007C455.477 33.2185 455.416 33.2877 455.367 33.3638C453.442 36.2022 450.729 37.3722 447.364 37.0537C443.273 36.6592 439.908 33.433 439.091 29.1407C438.503 26.0322 439.049 23.1315 441.016 20.6115C443.141 17.8908 446.007 16.783 449.421 17.0323C451.248 17.1638 452.882 17.7869 454.225 19.0677C454.647 19.4692 454.98 19.9677 455.346 20.4177C455.416 20.5008 455.471 20.5976 455.582 20.7638C455.582 16.1739 455.582 11.6877 455.582 7.15307C454.938 7.15307 454.301 7.15307 453.678 7.15307C454.058 6.45384 454.419 5.77538 454.793 5.11077C454.82 5.05539 454.917 5.01384 454.98 5.01384C456.344 5 457.714 5 459.119 5C458.911 10.303 459.036 15.5923 459.016 20.8815C459.001 26.1707 459.029 31.4669 459.036 36.7907ZM455.713 27.1054C455.734 25.8315 455.437 24.6408 454.855 23.5123C452.805 19.5523 447.849 18.6661 444.629 21.6846C441.541 24.5784 441.598 29.7084 444.747 32.533C447.316 34.8384 450.93 34.8522 453.429 32.5192C454.98 31.0654 455.685 29.2239 455.713 27.1054Z" fill="#D72027"/>
<path d="M412.369 36.7559C411.164 36.7559 410.001 36.7559 408.845 36.7559C408.845 30.9821 408.845 25.222 408.845 19.4275C408.229 19.4275 407.612 19.4275 406.906 19.4275C407.031 19.2405 407.128 19.1159 407.204 18.9844C407.446 18.5828 407.73 18.1883 407.917 17.7659C408.069 17.4336 408.27 17.3574 408.609 17.3644C409.682 17.3852 410.755 17.3713 411.829 17.3713C411.953 17.3713 412.078 17.3713 412.251 17.3713C412.251 18.2921 412.251 19.1782 412.251 20.0644C412.646 19.5729 412.985 19.0674 413.4 18.6313C414.362 17.6344 415.574 17.1498 416.945 17.039C417.859 16.9629 418.765 17.0251 419.645 17.2882C421.244 17.7659 422.269 18.846 422.864 20.3759C422.906 20.4936 422.954 20.6043 423.023 20.7705C423.369 19.9398 423.799 19.2267 424.408 18.6382C425.405 17.662 426.616 17.1567 427.994 17.0459C429.302 16.9351 430.576 17.0875 431.753 17.7036C433.283 18.4928 434.142 19.8221 434.633 21.4212C434.965 22.5151 435.083 23.6367 435.09 24.7651C435.104 27.3959 435.083 30.0267 435.097 32.6575C435.104 33.9451 435.16 35.2397 435.187 36.5275C435.187 36.5967 435.187 36.6659 435.187 36.7559C433.989 36.7559 432.812 36.7559 431.663 36.7559C431.663 36.1467 431.663 35.5444 431.663 34.9351C431.677 31.5013 431.704 28.0606 431.698 24.6267C431.698 23.7474 431.531 22.889 431.234 22.0513C430.244 19.2751 426.644 19.0813 425.024 20.9782C424.069 22.0929 423.681 23.4151 423.681 24.8413C423.674 28.3374 423.702 31.8336 423.715 35.3297C423.715 35.8004 423.757 36.2643 423.785 36.7559C422.566 36.7559 421.389 36.7559 420.261 36.7559C420.261 36.0082 420.254 35.2813 420.261 34.5474C420.261 34.1459 420.296 33.7443 420.296 33.3359C420.296 30.4766 420.323 27.6105 420.282 24.7513C420.268 23.969 420.143 23.1659 419.942 22.4044C419.527 20.8813 418.516 19.9605 416.917 19.7667C415.373 19.5797 414.134 20.1336 413.241 21.4144C412.521 22.4528 412.251 23.6436 412.251 24.8828C412.251 28.3582 412.272 31.8266 412.286 35.3021C412.299 35.7658 412.341 36.2367 412.369 36.7559Z" fill="#221F1F"/>
<path d="M405.231 25.8659C405.079 23.429 404.124 21.3312 402.434 19.5936C398.724 15.7859 392.417 16.2705 389.204 20.5975C387.453 22.9582 386.871 25.6305 387.217 28.5105C387.605 31.6604 389.135 34.125 391.87 35.7797C394.279 37.2335 396.917 37.372 399.596 36.929C400.897 36.7144 402.164 36.3197 403.459 36.0081C403.459 34.9559 403.459 33.9174 403.459 32.8166C403.355 32.879 403.293 32.9136 403.224 32.9551C401.14 34.2844 398.834 34.6581 396.453 34.3051C393.545 33.8759 391.752 32.0413 390.873 29.2859C390.63 28.5174 390.527 27.7212 390.596 26.8767C390.762 26.8767 390.894 26.8767 391.032 26.8767C395.449 26.8767 399.866 26.8767 404.29 26.8767C405.28 26.8697 405.294 26.8697 405.231 25.8659ZM390.679 24.4951C390.727 24.3151 390.762 24.142 390.817 23.969C391.406 22.2312 392.389 20.8051 394.106 20.0228C396.501 18.9221 399.201 19.7458 400.724 21.9959C401.23 22.7436 401.562 23.5536 401.694 24.4951C398.011 24.4951 394.369 24.4951 390.679 24.4951Z" fill="#221F1F"/>
<path d="M339.801 17.3635C341.144 17.3635 342.418 17.3635 343.685 17.3705C343.768 17.3705 343.892 17.4673 343.92 17.5505C345.388 21.2751 347.409 24.7366 349.147 28.3366C349.493 29.0497 349.86 29.7489 350.241 30.5035C350.296 30.4273 350.338 30.3858 350.358 30.3443C352.311 26.1836 354.215 22.002 355.661 17.6335C355.71 17.4951 355.738 17.3566 355.945 17.3635C357.108 17.3774 358.278 17.3705 359.441 17.3705C359.469 17.3705 359.504 17.3913 359.559 17.412C359.296 17.9589 359.019 18.4851 358.777 19.032C357.261 22.4243 355.765 25.8304 354.235 29.2227C351.75 34.7197 348.662 39.8773 345.436 44.9589C345.097 45.492 344.751 46.025 344.363 46.5235C343.601 47.5135 342.563 47.9635 341.331 47.9912C340.818 48.005 340.299 48.0327 339.828 47.7489C340.486 46.8627 341.165 46.0043 341.781 45.0973C344.093 41.6912 346.315 38.2297 348.316 34.6297C348.455 34.3805 348.455 34.1866 348.323 33.9304C345.72 28.842 343.124 23.7535 340.528 18.6651C340.299 18.2428 340.057 17.8343 339.801 17.3635Z" fill="#221F1F"/>
<path d="M384.98 33.8418C384.98 34.8803 384.98 35.8773 384.98 36.888C383.7 37.0403 382.433 37.2687 381.152 37.0195C378.888 36.5696 377.614 35.1088 377.123 32.9349C376.95 32.1665 376.867 31.3634 376.86 30.5741C376.832 27.2372 376.846 23.9073 376.846 20.5703C376.846 20.4319 376.846 20.2934 376.846 20.1203C375.821 20.1203 374.824 20.1203 373.807 20.1203C373.807 19.1996 373.807 18.3134 373.807 17.3857C374.797 17.3857 375.794 17.3857 376.797 17.3857C376.797 15.7104 376.797 14.0834 376.797 12.4219C377.926 12.4219 379.089 12.4219 380.252 12.4219C380.252 14.0557 380.252 15.6896 380.252 17.3581C382.004 17.3581 383.769 17.3581 385.569 17.3581C385.569 18.2857 385.569 19.1788 385.569 20.1065C383.79 20.1065 382.017 20.1065 380.197 20.1065C380.197 20.2657 380.197 20.3903 380.197 20.515C380.197 23.7134 380.183 26.9049 380.21 30.1034C380.217 30.7749 380.314 31.4603 380.487 32.1111C381.145 34.5411 383.561 34.7141 384.98 33.8418Z" fill="#221F1F"/>
<path d="M360.646 36.1536C360.646 34.7968 360.646 33.4468 360.646 32.0829C360.68 32.0968 360.708 32.1037 360.729 32.1244C361.961 33.8483 363.712 34.6029 365.762 34.7414C366.572 34.7968 367.347 34.5821 367.977 34.0214C368.967 33.1491 369.112 31.5706 368.323 30.4283C367.873 29.7776 367.257 29.3137 366.613 28.8845C365.582 28.1922 364.516 27.5414 363.512 26.8075C362.369 25.9698 361.546 24.876 361.248 23.4429C360.604 20.3345 362.321 17.766 365.443 17.1637C366.973 16.866 368.469 17.0045 369.957 17.3921C370.469 17.5307 370.989 17.6345 371.529 17.766C371.529 18.9429 371.529 20.1475 371.529 21.4007C371.404 21.2621 371.3 21.1307 371.189 21.0199C370.317 20.1406 369.223 19.6975 368.026 19.5314C367.479 19.4552 366.89 19.476 366.35 19.5937C364.398 20.0299 364.093 22.1483 364.882 23.2698C365.249 23.796 365.755 24.2598 366.274 24.6337C367.119 25.2499 368.039 25.7622 368.919 26.3367C369.95 27.0152 370.871 27.8045 371.487 28.9053C372.699 31.0722 372.505 34.5821 369.881 36.2576C368.808 36.9429 367.624 37.2198 366.371 37.2821C365.014 37.3444 363.719 37.0467 362.432 36.666C361.843 36.5137 361.262 36.3336 360.646 36.1536Z" fill="#221F1F"/>
<path d="M337.855 17.7664C337.855 18.9572 337.855 20.148 337.855 21.4079C336.997 20.328 335.862 19.8433 334.608 19.5733C333.972 19.4349 333.335 19.4279 332.691 19.5941C331.036 20.0094 330.261 21.851 331.209 23.2771C331.569 23.8171 332.088 24.2879 332.622 24.6687C333.646 25.4094 334.761 26.0325 335.792 26.7594C337.059 27.6525 338.022 28.8017 338.361 30.3594C339.067 33.5994 337.468 36.5695 333.785 37.1925C332.033 37.4902 330.351 37.1786 328.682 36.6663C328.135 36.5002 327.582 36.341 327 36.1679C327 34.8386 327 33.4818 327 32.0556C327.554 32.9071 328.267 33.4956 329.105 33.9249C330.261 34.5202 331.465 34.8871 332.795 34.7002C334.865 34.4164 335.841 32.1802 334.65 30.4494C334.214 29.8125 333.605 29.3486 332.975 28.9263C332.047 28.3102 331.092 27.7217 330.171 27.0848C329.195 26.4064 328.357 25.5756 327.886 24.4541C326.792 21.8302 327.533 18.0502 331.715 17.1849C333.335 16.8456 334.92 17.0325 336.492 17.4618C336.935 17.5726 337.378 17.6556 337.855 17.7664Z" fill="#221F1F"/>
<path d="M459.141 41.8724C452.377 41.8724 445.641 41.8724 438.891 41.8724C438.891 41.2354 438.891 40.6193 438.891 39.9893C445.641 39.9893 452.377 39.9893 459.141 39.9893C459.141 40.6193 459.141 41.2285 459.141 41.8724Z" fill="#D72027"/>
<g opacity="0.7">
<path d="M44.7988 24.3524C44.7988 20.743 44.7988 17.1582 44.7988 13.5488C44.7988 12.1002 44.7988 12.0756 46.1982 12.0756C48.8505 12.0756 51.5268 12.0265 54.1781 12.1002C59.0891 12.223 62.2814 15.1694 62.6007 20.0555C62.7724 22.9037 62.7965 25.7765 62.6007 28.6247C62.2564 33.6336 59.065 36.5801 54.0065 36.6783C51.3552 36.7274 48.6788 36.7029 46.0266 36.6783C44.8731 36.6783 44.8239 36.6046 44.8239 35.377C44.7988 31.7185 44.7988 28.0354 44.7988 24.3524ZM49.9065 32.0867C51.306 32.0867 52.5578 32.185 53.8097 32.0622C56.0935 31.8413 57.3946 30.6626 57.518 28.4283C57.6646 25.7519 57.6646 23.0265 57.5421 20.3501C57.4438 18.3613 56.2903 17.0109 54.4482 16.7407C52.9754 16.5198 51.4776 16.6917 49.9065 16.6917C49.9065 21.8234 49.9065 26.8814 49.9065 32.0867Z" fill="black"/>
<path d="M39.8135 21.037C39.8135 23.3696 39.8376 25.7022 39.8135 28.0347C39.7894 32.0124 37.7264 35.008 34.2149 36.2848C30.3358 37.6844 26.0141 36.6531 23.5586 33.7558C22.1592 32.1107 21.6442 30.1709 21.6191 28.0593C21.595 23.1486 21.6191 18.2379 21.6191 13.3272C21.6191 12.1486 21.6934 12.0995 22.8719 12.075C23.7313 12.075 24.5906 12.075 25.4499 12.075C26.6034 12.0995 26.6777 12.1486 26.6777 13.3517C26.7018 15.9299 26.6777 18.508 26.6777 21.0862C26.6777 23.4924 26.6285 25.9232 26.6777 28.3294C26.7268 31.4968 29.2798 32.921 32.1278 32.1107C33.7982 31.6196 34.7308 30.1955 34.7308 28.2312C34.7559 23.517 34.7308 18.8272 34.7308 14.1129C34.7308 11.7803 34.6325 12.0995 36.7938 12.075C37.358 12.075 37.9473 12.075 38.5125 12.075C39.7643 12.0995 39.7894 12.0995 39.7894 13.4254C39.8135 15.9544 39.8135 18.4835 39.8135 21.037Z" fill="black"/>
<path d="M85.9999 36.6539C84.2803 36.6539 82.7825 36.703 81.2856 36.6048C81.0147 36.5802 80.6713 36.1137 80.5237 35.77C80.1804 34.9352 79.9103 34.0757 79.6644 33.2164C79.4927 32.6516 79.1985 32.3325 78.535 32.3325C76.2763 32.357 74.0416 32.357 71.7829 32.3325C71.1203 32.3325 70.8252 32.6271 70.6535 33.2164C70.3584 34.1003 70.0642 35.0088 69.7209 35.8682C69.5975 36.1628 69.2782 36.5802 69.0332 36.6048C67.5354 36.6784 66.0376 36.6293 64.3682 36.6293C64.5148 36.0891 64.589 35.7454 64.7115 35.4263C67.3879 28.0111 70.0884 20.5959 72.7647 13.1807C73.0598 12.3704 73.4524 12.0021 74.3609 12.0512C77.7249 12.174 76.9147 11.5356 78.0682 14.6785C80.6221 21.5289 83.1017 28.4285 85.5823 35.3035C85.6806 35.6472 85.7781 35.9909 85.9999 36.6539ZM77.9949 28.0356C77.0623 25.3101 76.203 22.7811 75.3436 20.2521C75.2453 20.2521 75.171 20.2766 75.0736 20.2766C74.1892 22.8302 73.3299 25.3592 72.4214 28.0356C74.3859 28.0356 76.0795 28.0356 77.9949 28.0356Z" fill="black"/>
<path d="M18.1091 19.8345C16.537 19.8345 15.0392 19.8835 13.5414 19.7854C13.2964 19.7608 13.0013 19.2452 12.8296 18.9259C11.897 16.839 10.1533 15.9795 7.91867 16.5688C6.56843 16.9125 5.70909 17.7966 5.36573 19.1224C5.169 19.859 5.09569 20.6447 5.09569 21.4304C5.07063 23.7631 5.07063 26.0956 5.14394 28.4282C5.21818 30.147 5.90584 31.522 7.64862 32.1113C9.83407 32.8724 11.897 31.9885 12.7805 29.8278C13.0756 29.1158 13.4681 28.8947 14.1558 28.9193C15.3343 28.9684 16.5129 28.9438 17.7156 28.993C17.8139 28.993 17.9364 29.0912 18.1091 29.1894C17.6915 31.7429 16.5862 33.9037 14.4008 35.3769C10.6934 37.8568 5.48823 37.2921 2.34509 34.1001C1.01897 32.7496 0.381448 31.1046 0.20884 29.263C-0.0853365 25.9729 -0.0612152 22.6581 0.233889 19.3434C0.65149 14.8256 4.57971 12.1737 8.1154 11.9037C11.7986 11.6335 14.9167 12.763 16.9054 16.0778C17.5689 17.1581 18.0348 18.3367 18.1091 19.8345Z" fill="black"/>
</g>
<path d="M143.057 124.464C143.057 125.491 142.797 126.347 142.278 126.946C141.673 127.631 140.894 127.973 139.944 127.973C138.993 127.973 138.214 127.631 137.695 126.946C137.177 126.347 136.917 125.491 136.917 124.549C136.917 123.522 137.177 122.752 137.695 122.067C138.301 121.382 139.079 121.04 140.03 121.04C140.981 121.04 141.76 121.382 142.278 122.067C142.797 122.666 143.057 123.437 143.057 124.464ZM141.933 124.464C141.933 123.779 141.76 123.265 141.5 122.752C141.154 122.153 140.635 121.896 140.03 121.896C139.338 121.896 138.906 122.153 138.56 122.752C138.301 123.265 138.128 123.779 138.128 124.464C138.128 125.148 138.301 125.748 138.56 126.176C138.906 126.775 139.424 127.032 140.03 127.032C140.722 127.032 141.154 126.775 141.5 126.176C141.76 125.748 141.933 125.148 141.933 124.464Z" fill="#1C1C1A"/>
<path d="M148.851 125.406C148.851 126.262 148.592 126.861 148.16 127.375C147.727 127.803 147.209 127.974 146.69 127.974C145.998 127.974 145.566 127.717 145.306 127.289V129.857H144.182V124.636C144.182 124.122 144.182 123.609 144.182 123.009H145.133L145.22 123.78C145.566 123.181 146.171 122.924 146.863 122.924C147.467 122.924 147.9 123.181 148.333 123.609C148.679 124.037 148.851 124.636 148.851 125.406ZM147.727 125.406C147.727 124.892 147.641 124.55 147.381 124.208C147.122 123.865 146.863 123.694 146.43 123.694C146.171 123.694 145.911 123.78 145.739 123.951C145.479 124.122 145.393 124.379 145.306 124.636C145.306 124.807 145.22 124.892 145.22 124.978V125.748C145.22 126.091 145.306 126.433 145.566 126.604C145.825 126.861 146.084 126.947 146.43 126.947C146.863 126.947 147.122 126.775 147.381 126.433C147.641 126.348 147.727 125.92 147.727 125.406Z" fill="#1C1C1A"/>
<path d="M154.038 125.235C154.038 125.406 154.038 125.577 154.038 125.748H150.752C150.752 126.262 150.925 126.604 151.185 126.861C151.445 127.118 151.79 127.204 152.222 127.204C152.742 127.204 153.174 127.118 153.519 126.947L153.692 127.717C153.261 127.888 152.655 127.974 152.049 127.974C151.272 127.974 150.666 127.717 150.234 127.289C149.802 126.861 149.542 126.262 149.542 125.492C149.542 124.721 149.715 124.122 150.148 123.694C150.579 123.181 151.185 122.924 151.876 122.924C152.568 122.924 153.088 123.181 153.519 123.694C153.865 124.122 154.038 124.636 154.038 125.235ZM153.001 124.892C153.001 124.55 152.915 124.293 152.828 124.037C152.655 123.694 152.309 123.609 151.963 123.609C151.618 123.609 151.358 123.78 151.099 124.037C150.925 124.293 150.839 124.55 150.752 124.892H153.001Z" fill="#1C1C1A"/>
<path d="M159.399 127.888H158.275V125.064C158.275 124.208 157.929 123.78 157.324 123.78C156.978 123.78 156.719 123.865 156.546 124.122C156.373 124.379 156.286 124.636 156.286 124.978V127.888H155.076V124.379C155.076 123.951 155.076 123.523 155.076 123.009H156.028L156.114 123.78C156.2 123.523 156.459 123.352 156.719 123.181C156.978 123.009 157.324 122.924 157.67 122.924C158.102 122.924 158.535 123.095 158.794 123.352C159.14 123.694 159.399 124.208 159.399 124.978V127.888Z" fill="#1C1C1A"/>
<path d="M165.971 121.297L165.712 122.153C165.365 121.981 164.934 121.896 164.415 121.896C163.722 121.896 163.118 122.153 162.685 122.58C162.252 123.008 161.993 123.693 161.993 124.549C161.993 125.319 162.166 126.004 162.599 126.432C163.031 126.86 163.636 127.117 164.328 127.117C164.847 127.117 165.279 127.031 165.712 126.86L165.885 127.716C165.452 127.887 164.934 127.973 164.155 127.973C163.118 127.973 162.339 127.716 161.734 127.117C161.129 126.518 160.783 125.662 160.783 124.635C160.783 123.522 161.129 122.666 161.821 122.067C162.512 121.468 163.291 121.125 164.328 121.125C165.106 121.04 165.625 121.125 165.971 121.297Z" fill="#1C1C1A"/>
<path d="M171.074 127.888H167.27V121.126H168.307V126.946H171.074V127.888Z" fill="#1C1C1A"/>
<path fill-rule="evenodd" clip-rule="evenodd" d="M135.016 102.361C134.756 102.19 132.94 101.334 132.421 100.992C131.903 100.65 131.73 100.992 131.556 101.334C131.383 101.677 131.037 102.961 130.864 103.389C130.606 104.159 130.951 104.33 131.297 104.501C131.643 104.587 133.286 105.1 133.805 105.272C134.323 105.443 134.496 105.1 134.583 104.758C134.843 104.245 135.189 103.56 135.361 103.132C135.534 102.704 135.275 102.533 135.016 102.361ZM134.929 96.37C134.669 96.1132 134.41 96.1132 134.064 96.5412C133.718 97.0548 132.767 98.5954 132.68 98.8522C132.335 99.4514 132.853 99.7082 132.853 99.7082C132.853 99.7082 135.534 101.334 135.62 101.42C135.793 101.506 136.226 101.677 136.399 101.249C136.659 100.906 137.523 99.7937 137.696 99.6226C137.869 99.4514 137.782 99.1946 137.696 99.0234C137.609 98.8522 135.189 96.5412 134.929 96.37ZM161.648 87.2116C158.535 86.1845 155.681 86.0133 155.076 86.0133C154.125 85.9277 154.125 86.2701 154.038 86.6125C153.952 86.9548 152.569 93.5455 152.482 94.1446C152.395 94.8293 152.655 94.915 153.347 95.0006C154.471 95.2573 156.028 96.0276 156.546 96.2844C157.065 96.5412 157.238 96.1988 157.498 95.942C157.757 95.6853 161.994 88.5811 162.254 88.0675C162.513 87.6396 162.254 87.3828 161.648 87.2116ZM138.647 92.176C138.387 91.8336 138.042 92.0048 137.869 92.176C137.609 92.4328 135.793 94.2302 135.793 94.2302C135.361 94.7437 135.534 95.0006 135.62 95.0862C135.707 95.2573 138.129 97.8251 138.388 98.0819C138.647 98.4243 138.993 98.2531 139.252 97.9963C139.512 97.7395 140.549 97.0548 140.809 96.798C141.155 96.5412 140.982 96.1988 140.982 96.1132C141.068 96.0276 138.906 92.5184 138.647 92.176ZM133.632 106.299C133.113 106.213 131.643 105.785 131.124 105.7C130.692 105.614 130.346 105.528 130.26 106.128C130.173 106.727 130 108.182 130 108.524C130.087 108.867 130 109.123 130.606 109.123C130.606 109.123 132.853 109.209 133.113 109.209C133.459 109.209 133.805 109.209 133.805 108.695C133.891 108.182 133.891 107.412 133.977 107.069C134.064 106.812 134.064 106.47 133.632 106.299ZM144.441 88.6667C144.354 88.1531 144.008 88.1531 143.749 88.2387C143.489 88.3243 141.933 89.1802 141.587 89.3514C141.242 89.6082 140.03 90.3785 140.03 90.3785C139.685 90.6353 139.771 90.9777 139.858 91.2345C139.944 91.4912 141.933 95.3429 142.019 95.5997C142.192 95.8565 142.365 96.1988 142.97 95.8565C143.662 95.5141 144.786 95.1718 145.219 95.0862C145.738 94.915 145.651 94.5726 145.565 94.2302C145.651 93.8878 144.527 89.1802 144.441 88.6667ZM172.37 94.4014C172.111 93.9734 170.9 92.7751 169.171 91.3201C167.441 89.7794 165.54 88.9235 165.02 88.5811C164.328 88.1531 164.07 88.5811 163.81 88.9235C163.55 89.2658 158.362 96.7124 158.275 96.8836C158.189 97.0548 158.189 97.4827 158.708 97.8251C159.227 98.1675 159.832 98.7666 160.437 99.3658C163.118 97.5683 167.01 94.915 167.528 94.5726C168.22 94.1446 168.22 94.7437 168.22 94.7437L161.648 100.478C161.648 100.478 161.561 100.564 161.475 100.65C161.734 100.992 161.994 101.249 161.994 101.334C162.167 101.506 162.427 101.677 162.858 101.42C163.291 101.163 171.938 95.7709 172.37 95.5141C172.889 95.1718 172.716 94.8293 172.37 94.4014ZM176.867 102.276C176.175 100.136 174.619 97.4827 174.273 97.0548C173.927 96.6268 173.494 96.9692 173.149 97.1404C172.803 97.3115 163.723 102.105 163.377 102.276C163.031 102.533 162.772 102.789 163.118 103.389C164.07 105.1 164.415 107.925 164.501 108.524C164.588 109.123 164.761 109.209 165.107 109.209C165.453 109.209 176.867 108.867 177.213 108.867C177.559 108.867 177.904 108.867 177.99 108.267C178.077 107.326 177.559 104.416 176.867 102.276ZM151.272 86.0989C148.245 86.5269 146.862 87.0404 146.429 87.2116C145.824 87.3828 145.738 87.8108 145.824 88.1531C145.911 88.4955 146.775 93.9734 146.775 94.1446C146.775 94.3158 146.862 94.8293 147.639 94.7437C148.591 94.6581 149.888 94.6581 150.58 94.6581C151.185 94.6581 151.272 94.3158 151.358 93.9734C151.445 93.6311 152.222 87.4684 152.309 87.0404C152.309 86.6125 152.569 85.9277 151.272 86.0989Z" fill="url(#paint0_linear)"/>
<path d="M168.653 95.0008C168.653 95.0008 168.393 94.5728 167.874 95.0008C167.269 95.5143 160.264 100.136 158.708 101.335C157.151 102.447 150.666 106.556 149.629 107.241C148.678 107.84 147.121 108.781 148.505 110.493C149.888 112.205 151.099 111.007 151.964 110.236C152.828 109.466 158.448 104.245 159.918 103.046C161.388 101.763 167.701 96.2847 168.306 95.7711C168.739 95.3431 168.739 95.1719 168.653 95.0008Z" fill="#252526"/>
<path d="M168.047 94.572C168.047 94.572 167.787 94.1441 167.268 94.572C166.663 95.0856 159.659 99.7076 158.102 100.906C156.546 102.019 150.061 106.127 149.023 106.812C148.072 107.411 146.516 108.352 147.899 110.064C149.283 111.776 150.493 110.578 151.358 109.808C152.222 109.037 157.843 103.816 159.313 102.618C160.783 101.334 167.095 95.8559 167.701 95.3424C168.22 94.9144 168.133 94.6576 168.047 94.572Z" fill="#C7C6C5"/>
<path d="M165.757 23.8053C165.757 26.4143 165.237 28.6942 164.198 30.645C163.171 32.5839 161.71 34.0678 159.814 35.0971C157.93 36.1264 155.767 36.641 153.327 36.641H143V11.3464H152.24C156.54 11.3464 159.868 12.4236 162.223 14.5778C164.578 16.7201 165.757 19.7959 165.757 23.8053ZM160.375 23.8053C160.375 21.0885 159.663 19.018 158.237 17.5938C156.812 16.1576 154.776 15.4396 152.132 15.4396H148.345V32.5479H152.874C155.169 32.5479 156.993 31.764 158.346 30.1962C159.698 28.6284 160.375 26.4981 160.375 23.8053ZM169.924 36.641V21.7766C169.924 20.7115 169.906 19.8258 169.869 19.1197C169.845 18.4016 169.815 17.7674 169.778 17.2168H174.634C174.671 17.4322 174.719 18.0905 174.78 19.1915C174.839 20.2806 174.87 21.0047 174.87 21.3637H174.942C175.437 19.9994 175.878 19.0419 176.265 18.4913C176.651 17.9289 177.111 17.516 177.642 17.2526C178.174 16.9774 178.838 16.8397 179.635 16.8397C180.287 16.8397 180.813 16.9295 181.211 17.1091V21.3279C180.39 21.1483 179.665 21.0585 179.037 21.0585C177.769 21.0585 176.778 21.5672 176.066 22.5845C175.365 23.6018 175.014 25.1098 175.014 27.1085V36.641H169.924ZM184.382 13.7161V10H189.473V13.7161H184.382ZM184.382 36.641V17.2168H189.473V36.641H184.382ZM205.362 36.641H199.275L192.262 17.2168H197.644L201.069 28.0778C201.25 28.6763 201.678 30.1723 202.355 32.5659C202.475 32.0752 202.723 31.2135 203.097 29.9808C203.472 28.748 204.861 24.4934 207.264 17.2168H212.592L205.362 36.641ZM223.39 37C220.443 37 218.179 36.1383 216.595 34.4149C215.014 32.6795 214.222 30.1544 214.222 26.8391C214.222 23.6317 215.025 21.1662 216.632 19.4428C218.238 17.7195 220.515 16.8577 223.462 16.8577C226.277 16.8577 228.427 17.7853 229.913 19.6403C231.398 21.4835 232.142 24.1882 232.142 27.7547V27.8983H219.567C219.567 29.7892 219.917 31.2195 220.618 32.1889C221.331 33.1464 222.339 33.6251 223.643 33.6251C225.443 33.6251 226.579 32.8531 227.05 31.3092L231.85 31.7221C230.462 35.2407 227.642 37 223.39 37ZM223.39 20.0352C222.194 20.0352 221.27 20.4481 220.618 21.2739C219.978 22.0997 219.64 23.2547 219.603 24.7388H227.213C227.116 23.1709 226.736 21.9981 226.072 21.2202C225.407 20.4302 224.513 20.0352 223.39 20.0352ZM236.018 36.641V21.7766C236.018 20.7115 236.001 19.8258 235.964 19.1197C235.94 18.4016 235.91 17.7674 235.873 17.2168H240.729C240.766 17.4322 240.814 18.0905 240.873 19.1915C240.934 20.2806 240.965 21.0047 240.965 21.3637H241.037C241.532 19.9994 241.973 19.0419 242.36 18.4913C242.746 17.9289 243.206 17.516 243.737 17.2526C244.269 16.9774 244.933 16.8397 245.73 16.8397C246.382 16.8397 246.908 16.9295 247.306 17.1091V21.3279C246.485 21.1483 245.76 21.0585 245.132 21.0585C243.863 21.0585 242.873 21.5672 242.161 22.5845C241.46 23.6018 241.109 25.1098 241.109 27.1085V36.641H236.018ZM267 30.9681C267 32.8472 266.221 34.3253 264.663 35.4023C263.117 36.4675 260.973 37 258.232 37C255.537 37 253.472 36.5812 252.035 35.7434C250.61 34.8936 249.661 33.5772 249.191 31.7939L253.666 31.1298C253.919 32.0512 254.354 32.7035 254.969 33.0865C255.598 33.4695 256.685 33.6609 258.232 33.6609C259.657 33.6609 260.696 33.4814 261.347 33.1224C262 32.7633 262.325 32.2008 262.325 31.4349C262.325 30.8125 262.06 30.3219 261.528 29.9628C261.009 29.5917 260.122 29.2807 258.865 29.0293C255.99 28.4668 254.052 27.9462 253.05 27.4674C252.047 26.9768 251.28 26.3485 250.748 25.5825C250.23 24.8046 249.969 23.8532 249.969 22.7281C249.969 20.8731 250.688 19.4309 252.125 18.4016C253.574 17.3604 255.622 16.8397 258.267 16.8397C260.598 16.8397 262.471 17.2886 263.884 18.1862C265.309 19.0838 266.197 20.3823 266.548 22.0818L262.036 22.5486C261.891 21.7587 261.535 21.1723 260.967 20.7893C260.399 20.3944 259.5 20.1969 258.267 20.1969C257.06 20.1969 256.154 20.3525 255.55 20.6636C254.945 20.9629 254.644 21.4714 254.644 22.1895C254.644 22.752 254.873 23.2009 255.332 23.5359C255.803 23.859 256.588 24.1284 257.687 24.3438C259.221 24.655 260.581 24.9781 261.764 25.3132C262.96 25.6363 263.914 26.0254 264.627 26.4801C265.352 26.9349 265.926 27.5214 266.348 28.2395C266.782 28.9455 267 29.8551 267 30.9681Z" fill="#2095F5"/>
<path d="M0.286133 99.1474V97H9.1293V99.1474L6.37321 99.6208V108.126H18.3106V99.6208L15.5545 99.1474V97H18.3106H21.6416H24.3977V99.1474L21.6416 99.6208V119.014L24.3977 119.489V121.619H15.5545V119.489L18.3106 119.014V110.747H6.37321V119.014L9.1293 119.489V121.619H0.286133V119.489L3.04223 119.014V99.6208L0.286133 99.1474Z" fill="black"/>
<path d="M26.6299 119.489L28.4561 119.235L37.0625 97H39.92L48.3743 119.235L50.1835 119.489V121.619H43.1158V119.489L44.9757 119.168L43.3525 114.636H33.4948L31.8209 119.168L33.6808 119.489V121.619H26.6299V119.489ZM34.5262 111.846H42.338L38.5166 101.278H38.4151L34.5262 111.846Z" fill="black"/>
<path d="M52.2627 121.619V119.489L55.0188 119.014V99.6208L52.2627 99.1474V97H55.0188H58.3497H61.1058V99.1474L58.3497 99.6208V119.014H66.9054L67.1591 116.191H69.9997V121.619H52.2627Z" fill="black"/>
</g>
<defs>
<linearGradient id="paint0_linear" x1="136.406" y1="92.4248" x2="169.649" y2="111.814" gradientUnits="userSpaceOnUse">
<stop stop-color="#1DAD4B"/>
<stop offset="0.1295" stop-color="#6FBA48"/>
<stop offset="0.3409" stop-color="#B8D243"/>
<stop offset="0.4929" stop-color="#E2E43D"/>
<stop offset="0.569" stop-color="#F2EB3A"/>
<stop offset="0.6088" stop-color="#F2DD39"/>
<stop offset="0.6874" stop-color="#F0C038"/>
<stop offset="0.7974" stop-color="#EE9034"/>
<stop offset="0.9332" stop-color="#EE442C"/>
<stop offset="0.9558" stop-color="#EE302B"/>
</linearGradient>
<clipPath id="clip0">
<rect width="548" height="135" fill="white"/>
</clipPath>
</defs>
</svg>
