<svg width="188" height="52" viewBox="0 0 188 52" fill="none" xmlns="http://www.w3.org/2000/svg">
<path d="M30.8962 0L16.3839 12.7105L4 35.1608H15.1659L30.8962 0ZM32.8267 2.97389L26.6332 20.605L38.5086 35.6744L15.4704 39.6724H53.228L32.8267 2.97389Z" fill="#0072C6"/>
<path d="M6.48 49.38H2.98L2.29 51H0.95L4.1 44H5.38L8.54 51H7.18L6.48 49.38ZM6.05 48.36L4.73 45.3L3.42 48.36H6.05ZM14.6702 49.9V51H8.70023V50.13L12.8202 45.1H8.77023V44H14.5402V44.87L10.4202 49.9H14.6702ZM18.6711 51.1C17.7044 51.1 16.9511 50.83 16.4111 50.29C15.8711 49.7433 15.6011 48.9633 15.6011 47.95V44H16.9011V47.9C16.9011 49.2733 17.4944 49.96 18.6811 49.96C19.8611 49.96 20.4511 49.2733 20.4511 47.9V44H21.7311V47.95C21.7311 48.9633 21.4611 49.7433 20.9211 50.29C20.3878 50.83 19.6378 51.1 18.6711 51.1ZM27.9317 51L26.5017 48.95C26.4417 48.9567 26.3517 48.96 26.2317 48.96H24.6517V51H23.3517V44H26.2317C26.8384 44 27.3651 44.1 27.8117 44.3C28.2651 44.5 28.6117 44.7867 28.8517 45.16C29.0917 45.5333 29.2117 45.9767 29.2117 46.49C29.2117 47.0167 29.0817 47.47 28.8217 47.85C28.5684 48.23 28.2017 48.5133 27.7217 48.7L29.3317 51H27.9317ZM27.9017 46.49C27.9017 46.0433 27.7551 45.7 27.4617 45.46C27.1684 45.22 26.7384 45.1 26.1717 45.1H24.6517V47.89H26.1717C26.7384 47.89 27.1684 47.77 27.4617 47.53C27.7551 47.2833 27.9017 46.9367 27.9017 46.49ZM35.7162 49.91V51H30.4662V44H35.5762V45.09H31.7662V46.91H35.1462V47.98H31.7662V49.91H35.7162Z" fill="#0072C6"/>
<path d="M141.718 27.9487L136.783 30.0623L141.354 32.0111L146.654 30.0623L141.718 27.9487ZM134.298 30.5907L134.133 40.102L141.353 43.2724V33.3977L134.298 30.5907V30.5907ZM149.138 30.5907L142.613 33.0679V42.3805L149.138 39.7385V30.5907ZM156.923 1L151.954 3.11367L156.558 5.06241L161.859 3.11367L156.923 1V1ZM150.033 3.80798V13.3193L156.194 15.1031L156.393 6.44996L150.033 3.80798V3.80798ZM163.813 4.33634L157.983 6.81354V16.16L163.813 13.518V4.33634H163.813ZM133.586 14.3866L128.65 16.5003L133.221 18.4491L138.521 16.5003L133.586 14.3866V14.3866ZM126.165 17.0287L126 26.54L133.221 29.7104V19.8356L126.165 17.0287ZM141.006 17.0287L134.48 19.5058V28.8185L141.006 26.1764V17.0287ZM149.486 14.0358L144.551 16.1494L149.121 18.0982L154.422 16.1494L149.486 14.0358ZM142.066 16.6778L141.9 26.1891L149.121 29.3596V19.4858L142.066 16.6778V16.6778ZM156.906 16.6778L150.381 19.155V28.4676L156.906 25.8256V16.6778ZM172.454 1L167.518 3.11362L172.089 5.06237L177.389 3.11362L172.454 1ZM165.033 3.64202L164.868 13.1533L172.089 16.3237V6.44996L165.033 3.64202ZM179.874 3.64202L173.348 6.11918V15.4318L179.874 12.7898V3.64202Z" fill="#F7A80D"/>
<path d="M162.18 32H163.54L160.38 25H159.1L155.95 32H157.29L157.98 30.38H161.48L162.18 32ZM158.42 29.36L159.73 26.3L161.05 29.36H158.42ZM172.849 25L171.059 30.35L169.289 25H168.089L166.279 30.32L164.539 25H163.189L165.509 32H166.899L168.659 26.82L170.389 32H171.769L174.089 25H172.849ZM177.118 32.1C179.038 32.1 179.948 31.14 179.948 30.02C179.948 27.45 175.798 28.42 175.798 26.93C175.798 26.4 176.238 25.98 177.318 25.98C177.928 25.98 178.618 26.16 179.248 26.53L179.658 25.52C179.048 25.12 178.168 24.9 177.328 24.9C175.408 24.9 174.508 25.86 174.508 26.99C174.508 29.59 178.668 28.6 178.668 30.11C178.668 30.63 178.208 31.02 177.118 31.02C176.258 31.02 175.368 30.7 174.808 30.25L174.358 31.26C174.938 31.76 176.028 32.1 177.118 32.1Z" fill="#F7A80D"/>
</svg>
