<svg width="482" height="39" viewBox="0 0 482 39" fill="none" xmlns="http://www.w3.org/2000/svg">
<g clip-path="url(#clip0)">
<path d="M363.899 29.2611C360.886 29.2611 358.449 26.6425 358.449 23.3868C358.449 20.1925 360.886 17.5348 363.899 17.5348C365.901 17.5348 367.903 18.5045 368.755 20.2763C368.814 20.3993 368.892 20.5642 368.892 20.771V25.9634C368.892 26.0668 368.833 26.2932 368.793 26.3547C367.863 28.1265 365.96 29.2611 363.899 29.2611ZM373.789 33.7325V13.1248H368.892V14.8547C367.524 13.4742 365.662 12.714 363.364 12.714C357.755 12.714 353.496 17.4538 353.496 23.3868C353.496 29.3449 357.755 34.1461 363.364 34.1461C365.662 34.1461 367.524 33.3413 368.892 31.9607V33.7325H373.789ZM395.052 33.7325V22.5847C395.052 17.1016 390.951 12.714 385.719 12.714C380.467 12.714 376.385 17.1016 376.385 22.5847V33.7325H381.279V22.5847C381.279 19.8851 383.104 17.8227 385.719 17.8227C388.315 17.8227 390.158 19.8851 390.158 22.5847V33.7325H395.052ZM407.498 29.2611C404.485 29.2611 402.048 26.6425 402.048 23.3868C402.048 20.1925 404.485 17.5348 407.498 17.5348C409.5 17.5348 411.403 18.566 412.354 20.2763C412.413 20.3993 412.491 20.5642 412.491 20.771V25.9858C412.491 26.0892 412.432 26.2932 412.395 26.3547C411.462 28.1265 409.559 29.2611 407.498 29.2611ZM417.388 33.7325V6.9431H412.491V14.8547C411.126 13.4742 409.261 12.6497 406.963 12.6497C401.354 12.6497 397.095 17.4538 397.095 23.3868C397.095 29.3449 401.354 34.1461 406.963 34.1461C409.261 34.1461 411.126 33.3413 412.491 31.9607V33.7325H417.388ZM424.878 33.7325V22.7272C424.878 19.4715 426.523 17.7416 429.654 17.7416V12.714C423.351 12.714 419.984 16.1962 419.984 22.7272V33.7325H424.878ZM440.355 29.0152C437.383 29.0152 434.967 26.5 434.967 23.3868C434.967 20.2959 437.383 17.7835 440.355 17.7835C443.368 17.7835 445.768 20.2959 445.768 23.3868C445.768 26.5 443.368 29.0152 440.355 29.0152ZM440.355 34.1461C446.085 34.1461 450.721 29.3449 450.721 23.3868C450.721 17.4538 446.085 12.714 440.355 12.714C434.65 12.714 430.011 17.4538 430.011 23.3868C430.011 29.3449 434.65 34.1461 440.355 34.1461ZM455.397 11.5598C456.964 11.5598 458.232 10.2184 458.232 8.59193C458.232 6.9431 456.964 5.62402 455.397 5.62402C453.833 5.62402 452.564 6.9431 452.564 8.59193C452.564 10.2184 453.833 11.5598 455.397 11.5598ZM457.834 13.1248H452.938V33.7325H457.834V13.1248ZM470.46 29.2611C467.448 29.2611 465.01 26.6425 465.01 23.3868C465.01 20.1925 467.448 17.5348 470.46 17.5348C472.462 17.5348 474.362 18.566 475.314 20.2763C475.376 20.3993 475.454 20.5642 475.454 20.771V26.0054C475.454 26.1088 475.394 26.2932 475.354 26.3547C474.424 28.1265 472.522 29.2611 470.46 29.2611ZM480.348 33.7325V6.9431H475.454V14.8547C474.086 13.4742 472.223 12.714 469.925 12.714C464.317 12.714 460.054 17.4538 460.054 23.3868C460.054 29.3449 464.317 34.1657 469.925 34.1657C472.223 34.1657 474.086 33.3413 475.454 31.9607V33.7325H480.348Z" fill="#77C159"/>
<path d="M23.101 33.6108L16.8819 24.6674C20.552 23.228 22.6375 20.1947 22.6375 16.0725C22.6375 10.045 18.2332 6.38965 11.1264 6.38965H0V33.6108H5.02236V25.6775H11.1264C11.4738 25.6775 11.8212 25.6775 12.1696 25.6391L17.6929 33.6108H23.101ZM17.5767 16.0725C17.5767 19.4947 15.2984 21.5169 10.8941 21.5169H5.02236V10.6673H10.8941C15.2984 10.6673 17.5767 12.6502 17.5767 16.0725Z" fill="#8BB907"/>
<path d="M32.5929 33.6108H37.6143V10.6673H46.5774V6.38965H23.6309V10.6673H32.5929V33.6108Z" fill="#8BB907"/>
<path d="M61.8298 34C70.2132 34 76.3939 28.0889 76.3939 20C76.3939 11.9107 70.2132 6 61.8298 6C53.4464 6 47.2656 11.9496 47.2656 20C47.2656 28.0495 53.4464 34 61.8298 34ZM61.8298 29.5667C56.3833 29.5667 52.3264 25.5616 52.3264 20C52.3264 14.4384 56.3833 10.433 61.8298 10.433C67.2763 10.433 71.3332 14.4384 71.3332 20C71.3332 25.5616 67.2763 29.5667 61.8298 29.5667Z" fill="#8BB907"/>
<path d="M89.3268 34C96.7447 34 100.26 30.2667 100.26 25.9111C100.26 15.9161 84.2277 19.6889 84.2277 13.8939C84.2277 11.833 85.9274 10.2 90.0994 10.2C92.4556 10.2 95.1228 10.9 97.5557 12.3384L99.1403 8.4107C96.7831 6.85535 93.3837 6 90.1388 6C82.7209 6 79.2447 9.73302 79.2447 14.1283C79.2447 24.2384 95.3147 20.3889 95.3147 26.2616C95.3147 28.2839 93.5382 29.8 89.3268 29.8C86.0052 29.8 82.5664 28.5556 80.4031 26.8061L78.665 30.7333C80.905 32.6778 85.1164 34 89.3268 34Z" fill="#8BB907"/>
<path fill-rule="evenodd" clip-rule="evenodd" d="M199.126 34.2694H180.034V33.5934C183.379 33.2557 183.683 32.9601 183.683 30.0456V10.3635C183.683 7.44892 183.345 7.11118 180 6.8156V6.13965H190.982V6.8156C187.333 7.11118 186.961 7.44892 186.961 10.3635V30.2573C186.961 33.0027 187.4 33.467 190.137 33.467C195.205 33.467 198.078 29.9191 198.551 22.9924H199.126V34.2694Z" fill="black"/>
<path fill-rule="evenodd" clip-rule="evenodd" d="M208.16 10.0684C207.045 10.0684 206.133 8.92825 206.133 7.5342C206.133 6.14062 207.046 5 208.16 5C209.275 5 210.187 6.14016 210.187 7.5342C210.188 8.92825 209.275 10.0684 208.16 10.0684ZM210.898 26.8368C209.613 31.6518 207.451 34.5663 205.22 34.5663C203.329 34.5663 202.078 32.8345 202.078 30.1317C202.078 29.0332 202.281 27.8505 202.754 26.0761L204.443 19.5297C204.477 19.4033 204.612 18.9807 204.815 18.1783C205.018 17.4602 205.119 16.9534 205.119 16.6152C205.119 15.7706 204.714 15.2216 204.106 15.2216C202.551 15.2216 201.132 17.3754 199.443 22.3169L198.869 22.0218C199.815 18.896 200.896 16.6995 202.112 15.3481C202.788 14.6295 203.531 14.2922 204.376 14.2922C206.302 14.2922 207.654 16.1083 207.654 18.6425C207.654 19.7832 207.249 21.9792 206.674 24.0487L205.83 27.0476L205.187 29.5396L204.85 30.7224C204.714 31.2719 204.613 31.8626 204.613 32.2425C204.613 33.0875 205.019 33.637 205.593 33.637C207.181 33.637 208.938 31.0601 210.323 26.6251L210.898 26.8368Z" fill="#CC2229"/>
<path fill-rule="evenodd" clip-rule="evenodd" d="M221.625 13.9961C223.112 13.9961 224.599 14.7137 225.41 15.8544C226.255 17.0793 226.39 17.8396 226.39 21.514V30.342C226.39 32.834 226.896 33.2992 229.633 33.5943V34.2702H220.003V33.5943C222.774 33.2992 223.247 32.834 223.247 30.3837V21.7257C223.247 16.2347 222.943 15.4323 220.848 15.4323C218.922 15.4323 217.097 17.0372 216.253 19.4866C215.442 21.8095 215.239 23.4575 215.239 27.5539V30.3832C215.239 32.8336 215.712 33.2987 218.483 33.5938V34.2698H208.853V33.5938C211.623 33.2987 212.097 32.8336 212.097 30.3832V18.4734C212.097 16.2769 211.995 15.9387 211.184 15.6014C210.711 15.3902 210.238 15.348 208.752 15.2215V14.5034C210.711 14.4612 213.55 14.25 215.239 13.9966V20.2047C216.32 16.2769 218.685 13.9961 221.625 13.9961ZM237.901 14.5029C240.131 14.4608 242.8 14.2495 244.422 13.9961V30.3415C244.422 32.8336 244.895 33.2987 247.666 33.5938V34.2698H247.193L244.253 34.4389C243.452 34.4638 242.651 34.5199 241.854 34.607C241.718 34.607 241.516 34.6497 241.246 34.6923V28.6524C240.536 30.6793 240.198 31.3135 239.388 32.411C238.239 33.9737 236.583 34.8188 234.893 34.8188C233.407 34.8188 232.056 34.1002 231.345 32.8762C230.535 31.5669 230.298 30.1307 230.298 27.2578V18.4734C230.298 16.2769 230.163 15.9387 229.352 15.6014C228.845 15.4323 228.169 15.3054 226.818 15.2215V14.5034C228.845 14.4612 231.954 14.25 233.441 13.9966V28.2303C233.441 31.9051 234.184 33.5943 235.84 33.5943C237.732 33.5943 239.726 31.3557 240.604 28.1877C241.077 26.5833 241.246 24.978 241.246 22.5286V18.4738C241.246 16.2774 241.144 15.9392 240.333 15.6019C239.894 15.4328 239.218 15.3058 237.901 15.222V14.5029Z" fill="black"/>
<path fill-rule="evenodd" clip-rule="evenodd" d="M262.959 30.7226C264.311 33.0877 264.75 33.4264 266.676 33.5946V34.2705H257.452V33.5946C259.412 33.3838 259.953 33.1303 259.953 32.3701C259.953 32.1584 259.784 31.7358 259.581 31.3559L259.006 30.3001L256.033 25.1895L253.802 29.0334C252.958 30.5544 252.553 31.4829 252.553 32.0745C252.553 33.0465 253.127 33.3838 255.154 33.5946V34.2705H247.417V33.5946C249.444 33.2994 250.255 32.7504 251.741 30.6383C252.553 29.4555 252.654 29.2864 254.04 26.9213L255.526 24.3028L251.979 18.0942C250.728 15.8977 250.221 15.5173 248.16 15.2644V14.5889H257.182V15.2644C255.527 15.4335 254.918 15.7291 254.918 16.3624C254.918 16.5315 255.02 16.8271 255.188 17.1648L255.696 18.0942L258.23 22.4867L260.223 19.1079C260.798 18.0942 261.102 17.2918 261.102 16.7006C261.102 15.8555 260.494 15.5178 258.635 15.2644V14.5889H265.9V15.2644C263.771 15.6021 262.859 16.3202 261.541 18.5589L260.629 20.0789L258.737 23.3317L262.959 30.7226Z" fill="black"/>
</g>
<defs>
<clipPath id="clip0">
<rect width="482" height="39" fill="white"/>
</clipPath>
</defs>
</svg>
