<svg width="81" height="62" viewBox="0 0 81 62" fill="none" xmlns="http://www.w3.org/2000/svg">
<g clip-path="url(#clip0)">
<path d="M43.0003 6.92322V13.846L55.0013 20.7688V13.846L43.0003 6.92322ZM19 13.846V20.7688L25.0005 24.2302V17.3074L19 13.846ZM36.9997 17.3074L30.9992 20.7688V41.5372L36.9997 45.0004V31.1548L43.0003 34.6162V27.6934L36.9997 24.232V17.3074Z" fill="#E55B2D"/>
<path d="M43.0001 6.92322L25.0004 17.3074V24.2302L37.0014 17.3074V24.2302L43.0019 20.7688V6.92322H43.0001ZM60.9999 10.3846L54.9994 13.846V20.7688L60.9999 17.3074V10.3846ZM49.0007 24.232L43.0001 27.6934V34.6162L49.0007 31.1548V24.232ZM43.0001 34.6162L36.9996 31.1548V45.0004L43.0001 41.539V34.6162Z" fill="#ED8E24"/>
<path d="M43.0003 0L19 13.8456L25.0005 17.307L43.0003 6.9228L55.0013 13.8456L61.0018 10.3842L43.0003 0ZM43.0003 20.7684L36.9997 24.2298L43.0003 27.6912L49.0008 24.2298L43.0003 20.7684Z" fill="#F8BF3C"/>
</g>
<path d="M6.41625 61H7.71625V55.1H10.0363V54H4.09625V55.1H6.41625V61ZM12.1119 59.91V57.98H15.4919V56.91H12.1119V55.09H15.9219V54H10.8119V61H16.0619V59.91H12.1119ZM22.2411 54V58.74L18.3811 54H17.3111V61H18.6011V56.26L22.4611 61H23.5311V54H22.2411ZM27.3768 61.1C29.2968 61.1 30.2068 60.14 30.2068 59.02C30.2068 56.45 26.0568 57.42 26.0568 55.93C26.0568 55.4 26.4968 54.98 27.5768 54.98C28.1868 54.98 28.8768 55.16 29.5068 55.53L29.9168 54.52C29.3068 54.12 28.4268 53.9 27.5868 53.9C25.6668 53.9 24.7668 54.86 24.7668 55.99C24.7668 58.59 28.9268 57.6 28.9268 59.11C28.9268 59.63 28.4668 60.02 27.3768 60.02C26.5168 60.02 25.6268 59.7 25.0668 59.25L24.6168 60.26C25.1968 60.76 26.2868 61.1 27.3768 61.1ZM34.5659 61.1C36.7359 61.1 38.3359 59.58 38.3359 57.5C38.3359 55.42 36.7359 53.9 34.5659 53.9C32.3959 53.9 30.7959 55.43 30.7959 57.5C30.7959 59.57 32.3959 61.1 34.5659 61.1ZM34.5659 59.96C33.1559 59.96 32.1059 58.93 32.1059 57.5C32.1059 56.07 33.1559 55.04 34.5659 55.04C35.9759 55.04 37.0259 56.07 37.0259 57.5C37.0259 58.93 35.9759 59.96 34.5659 59.96ZM45.4938 61L43.8838 58.7C44.8338 58.33 45.3738 57.55 45.3738 56.49C45.3738 54.94 44.2338 54 42.3938 54H39.5138V61H40.8138V58.96H42.3938C42.4838 58.96 42.5738 58.96 42.6638 58.95L44.0938 61H45.4938ZM44.0638 56.49C44.0638 57.37 43.4738 57.89 42.3338 57.89H40.8138V55.1H42.3338C43.4738 55.1 44.0638 55.61 44.0638 56.49ZM51.7383 55.09V54H46.6283V61H47.9283V58.32H51.3083V57.22H47.9283V55.09H51.7383ZM52.7955 61H57.7555V59.9H54.0955V54H52.7955V61ZM61.7248 61.1C63.8948 61.1 65.4948 59.58 65.4948 57.5C65.4948 55.42 63.8948 53.9 61.7248 53.9C59.5548 53.9 57.9548 55.43 57.9548 57.5C57.9548 59.57 59.5548 61.1 61.7248 61.1ZM61.7248 59.96C60.3148 59.96 59.2648 58.93 59.2648 57.5C59.2648 56.07 60.3148 55.04 61.7248 55.04C63.1348 55.04 64.1848 56.07 64.1848 57.5C64.1848 58.93 63.1348 59.96 61.7248 59.96ZM75.4382 54L73.6482 59.35L71.8782 54H70.6782L68.8682 59.32L67.1282 54H65.7782L68.0982 61H69.4882L71.2482 55.82L72.9782 61H74.3582L76.6782 54H75.4382Z" fill="#6D6B6C"/>
<defs>
<clipPath id="clip0">
<rect width="42" height="45" fill="white" transform="translate(19)"/>
</clipPath>
</defs>
</svg>
