<svg width="531" height="65" viewBox="0 0 531 65" fill="none" xmlns="http://www.w3.org/2000/svg">
<path d="M498.513 64.0004H499.873L496.713 57.0004H495.433L492.283 64.0004H493.623L494.313 62.3804H497.813L498.513 64.0004ZM494.753 61.3604L496.063 58.3004L497.383 61.3604H494.753ZM503.443 57.0004H500.563V64.0004H501.863V61.9804H503.443C505.283 61.9804 506.423 61.0304 506.423 59.4904C506.423 57.9404 505.283 57.0004 503.443 57.0004ZM503.383 60.8804H501.863V58.1004H503.383C504.523 58.1004 505.113 58.6104 505.113 59.4904C505.113 60.3704 504.523 60.8804 503.383 60.8804ZM510.401 57.0004H507.521V64.0004H508.821V61.9804H510.401C512.241 61.9804 513.381 61.0304 513.381 59.4904C513.381 57.9404 512.241 57.0004 510.401 57.0004ZM510.341 60.8804H508.821V58.1004H510.341C511.481 58.1004 512.071 58.6104 512.071 59.4904C512.071 60.3704 511.481 60.8804 510.341 60.8804ZM515.335 64.1004C516.875 64.1004 517.695 63.2904 517.695 61.6404V57.0004H513.905V58.0904H516.395V61.7104C516.395 62.5704 516.025 63.0004 515.305 63.0004C514.755 63.0004 514.295 62.7204 513.915 62.2004L513.175 63.0904C513.655 63.7404 514.455 64.1004 515.335 64.1004ZM521.488 64.1004C523.408 64.1004 524.318 63.1404 524.318 62.0204C524.318 59.4504 520.168 60.4204 520.168 58.9304C520.168 58.4004 520.608 57.9804 521.688 57.9804C522.298 57.9804 522.988 58.1604 523.618 58.5304L524.028 57.5204C523.418 57.1204 522.538 56.9004 521.698 56.9004C519.778 56.9004 518.878 57.8604 518.878 58.9904C518.878 61.5904 523.038 60.6004 523.038 62.1104C523.038 62.6304 522.578 63.0204 521.488 63.0204C520.628 63.0204 519.738 62.7004 519.178 62.2504L518.728 63.2604C519.308 63.7604 520.398 64.1004 521.488 64.1004Z" fill="#6D6B6C"/>
<path d="M52.861 24.7794C52.487 24.7794 52.1839 24.6701 51.9518 24.4514C51.7326 24.2198 51.623 23.9111 51.623 23.5251V12.2367C51.623 11.8636 51.7261 11.5741 51.9325 11.3683C52.1517 11.1625 52.4483 11.0596 52.8223 11.0596H57.581C59.0383 11.0596 60.1732 11.4262 60.9856 12.1595C61.7981 12.8799 62.2043 13.8962 62.2043 15.2083C62.2043 16.5205 61.7981 17.5432 60.9856 18.2765C60.1732 19.0097 59.0383 19.3764 57.581 19.3764H54.1184V23.5251C54.1184 23.9111 54.0023 24.2198 53.7702 24.4514C53.5509 24.6701 53.2479 24.7794 52.861 24.7794ZM57.2715 17.466C58.9867 17.466 59.8443 16.7199 59.8443 15.2276C59.8443 13.7354 58.9867 12.9892 57.2715 12.9892H54.1184V17.466H57.2715Z" fill="#5B86CC"/>
<path d="M76.1739 23.1006C76.3287 23.3322 76.4061 23.5573 76.4061 23.776C76.4061 24.0719 76.2835 24.3163 76.0385 24.5093C75.8064 24.7022 75.5291 24.7987 75.2067 24.7987C75.0004 24.7987 74.8005 24.7537 74.607 24.6636C74.4265 24.5607 74.2717 24.4128 74.1428 24.2198L71.57 20.3219C71.3121 19.9103 71.0348 19.6208 70.7382 19.4536C70.4545 19.2863 70.0805 19.2027 69.6162 19.2027H67.7205V23.5251C67.7205 23.9111 67.6108 24.2198 67.3916 24.4514C67.1724 24.6701 66.8758 24.7794 66.5018 24.7794C66.1278 24.7794 65.8247 24.6701 65.5926 24.4514C65.3733 24.2198 65.2637 23.9111 65.2637 23.5251V12.2367C65.2637 11.8636 65.3669 11.5741 65.5732 11.3683C65.7925 11.1625 66.0891 11.0596 66.4631 11.0596H71.2992C72.8467 11.0596 74.0203 11.4069 74.8198 12.1016C75.6323 12.7834 76.0385 13.7739 76.0385 15.0732C76.0385 16.1281 75.7355 16.9965 75.1293 17.6783C74.5361 18.3472 73.6914 18.7782 72.5952 18.9712C72.9692 19.0612 73.2981 19.222 73.5818 19.4536C73.8655 19.6851 74.1428 20.0067 74.4136 20.4184L76.1739 23.1006ZM70.951 17.2924C71.8924 17.2924 72.5823 17.1187 73.0208 16.7713C73.4593 16.4111 73.6785 15.8644 73.6785 15.1311C73.6785 14.385 73.4593 13.8447 73.0208 13.5102C72.5823 13.1629 71.8924 12.9892 70.951 12.9892H67.7011V17.2924H70.951Z" fill="#5B86CC"/>
<path d="M85.5642 24.8381C84.2359 24.8381 83.0817 24.5551 82.1016 23.9891C81.1344 23.423 80.3864 22.6126 79.8577 21.5577C79.3289 20.5028 79.0645 19.2678 79.0645 17.8528C79.0645 16.4377 79.3224 15.2091 79.8382 14.1671C80.367 13.1122 81.1215 12.3018 82.1016 11.7357C83.0817 11.1697 84.2359 10.8867 85.5642 10.8867C86.8925 10.8867 88.0403 11.1697 89.0075 11.7357C89.9876 12.3018 90.7355 13.1122 91.2514 14.1671C91.7801 15.2091 92.0445 16.4377 92.0445 17.8528C92.0445 19.2678 91.7801 20.5028 91.2514 21.5577C90.7226 22.6126 89.9683 23.423 88.9882 23.9891C88.021 24.5551 86.8796 24.8381 85.5642 24.8381ZM85.5642 22.8506C86.8152 22.8506 87.7888 22.4196 88.4852 21.5577C89.1945 20.6958 89.5491 19.4608 89.5491 17.8528C89.5491 16.2447 89.1945 15.0162 88.4852 14.1671C87.7888 13.3052 86.8152 12.8742 85.5642 12.8742C84.3004 12.8742 83.3138 13.3052 82.6046 14.1671C81.9082 15.0162 81.56 16.2447 81.56 17.8528C81.56 19.4608 81.9082 20.6958 82.6046 21.5577C83.3138 22.4196 84.3004 22.8506 85.5642 22.8506Z" fill="#5B86CC"/>
<path d="M99.091 24.7601C98.7041 24.7601 98.3946 24.6508 98.1625 24.4321C97.9433 24.2005 97.8336 23.8982 97.8336 23.5251V13.105H94.313C93.5392 13.105 93.1523 12.7641 93.1523 12.0823C93.1523 11.4005 93.5392 11.0596 94.313 11.0596H103.85C104.624 11.0596 105.011 11.4005 105.011 12.0823C105.011 12.7641 104.624 13.105 103.85 13.105H100.33V23.5251C100.33 23.8982 100.213 24.2005 99.9809 24.4321C99.7616 24.6508 99.465 24.7601 99.091 24.7601Z" fill="#5B86CC"/>
<path d="M112.619 24.8381C111.29 24.8381 110.136 24.5551 109.156 23.9891C108.189 23.423 107.441 22.6126 106.912 21.5577C106.383 20.5028 106.119 19.2678 106.119 17.8528C106.119 16.4377 106.377 15.2091 106.893 14.1671C107.422 13.1122 108.176 12.3018 109.156 11.7357C110.136 11.1697 111.29 10.8867 112.619 10.8867C113.947 10.8867 115.095 11.1697 116.062 11.7357C117.042 12.3018 117.79 13.1122 118.306 14.1671C118.835 15.2091 119.099 16.4377 119.099 17.8528C119.099 19.2678 118.835 20.5028 118.306 21.5577C117.777 22.6126 117.023 23.423 116.043 23.9891C115.076 24.5551 113.934 24.8381 112.619 24.8381ZM112.619 22.8506C113.87 22.8506 114.843 22.4196 115.54 21.5577C116.249 20.6958 116.604 19.4608 116.604 17.8528C116.604 16.2447 116.249 15.0162 115.54 14.1671C114.843 13.3052 113.87 12.8742 112.619 12.8742C111.355 12.8742 110.368 13.3052 109.659 14.1671C108.963 15.0162 108.615 16.2447 108.615 17.8528C108.615 19.4608 108.963 20.6958 109.659 21.5577C110.368 22.4196 111.355 22.8506 112.619 22.8506Z" fill="#5B86CC"/>
<path d="M132.82 10.9629C133.181 10.9629 133.465 11.0787 133.671 11.3102C133.89 11.5289 134 11.8248 134 12.1979V23.5249C134 23.898 133.89 24.2003 133.671 24.4319C133.452 24.6634 133.168 24.7792 132.82 24.7792C132.407 24.7792 132.091 24.6313 131.872 24.3354L124.811 15.1695V23.5249C124.811 23.898 124.708 24.2003 124.502 24.4319C124.296 24.6634 124.012 24.7792 123.651 24.7792C123.29 24.7792 123.006 24.6634 122.8 24.4319C122.593 24.2003 122.49 23.898 122.49 23.5249V12.1979C122.49 11.8248 122.6 11.5289 122.819 11.3102C123.038 11.0787 123.328 10.9629 123.689 10.9629C124.089 10.9629 124.399 11.1108 124.618 11.4067L131.659 20.534V12.1979C131.659 11.8248 131.763 11.5289 131.969 11.3102C132.188 11.0787 132.472 10.9629 132.82 10.9629Z" fill="#5B86CC"/>
<path d="M61.9528 33.0205C62.3139 33.0205 62.5976 33.1362 62.804 33.3678C63.0232 33.5865 63.1328 33.8824 63.1328 34.2554V45.5825C63.1328 45.9556 63.0232 46.2579 62.804 46.4895C62.5847 46.721 62.301 46.8368 61.9528 46.8368C61.5401 46.8368 61.2242 46.6889 61.005 46.393L53.9443 37.2271V45.5825C53.9443 45.9556 53.8411 46.2579 53.6348 46.4895C53.4284 46.721 53.1447 46.8368 52.7836 46.8368C52.4225 46.8368 52.1388 46.721 51.9325 46.4895C51.7261 46.2579 51.623 45.9556 51.623 45.5825V34.2554C51.623 33.8824 51.7326 33.5865 51.9518 33.3678C52.171 33.1362 52.4612 33.0205 52.8223 33.0205C53.2221 33.0205 53.5316 33.1684 53.7508 33.4643L60.7922 42.5916V34.2554C60.7922 33.8824 60.8953 33.5865 61.1017 33.3678C61.3209 33.1362 61.6046 33.0205 61.9528 33.0205Z" fill="#5B86CC"/>
<path d="M79.306 45.236C79.3834 45.4032 79.4221 45.5705 79.4221 45.7377C79.4221 46.0336 79.2996 46.2844 79.0546 46.4903C78.8224 46.6961 78.5516 46.799 78.2421 46.799C78.0358 46.799 77.8423 46.7476 77.6618 46.6446C77.4812 46.5289 77.3394 46.3552 77.2362 46.1236L76.0755 43.5379H69.2663L68.1057 46.1236C68.0025 46.3552 67.8607 46.5289 67.6801 46.6446C67.4996 46.7476 67.2997 46.799 67.0804 46.799C66.7838 46.799 66.513 46.6961 66.268 46.4903C66.0229 46.2844 65.9004 46.0336 65.9004 45.7377C65.9004 45.5705 65.9391 45.4032 66.0165 45.236L71.3555 33.7931C71.4716 33.5358 71.6457 33.3429 71.8778 33.2142C72.1229 33.0727 72.3808 33.002 72.6516 33.002C72.9224 33.002 73.1739 33.0727 73.406 33.2142C73.6511 33.3429 73.8316 33.5358 73.9477 33.7931L79.306 45.236ZM70.1175 41.6082H75.2244L72.6709 35.8771L70.1175 41.6082Z" fill="#5B86CC"/>
<path d="M84.9592 46.8178C84.5723 46.8178 84.2628 46.7085 84.0306 46.4898C83.8114 46.2582 83.7018 45.9559 83.7018 45.5828V35.1627H80.1811C79.4074 35.1627 79.0205 34.8218 79.0205 34.14C79.0205 33.4581 79.4074 33.1172 80.1811 33.1172H89.7179C90.4917 33.1172 90.8785 33.4581 90.8785 34.14C90.8785 34.8218 90.4917 35.1627 89.7179 35.1627H86.1972V45.5828C86.1972 45.9559 86.0811 46.2582 85.849 46.4898C85.6298 46.7085 85.3332 46.8178 84.9592 46.8178Z" fill="#5B86CC"/>
<path d="M94.4627 46.8368C94.0887 46.8368 93.7856 46.721 93.5535 46.4895C93.3343 46.2579 93.2246 45.9556 93.2246 45.5825V34.2554C93.2246 33.8824 93.3343 33.5865 93.5535 33.3678C93.7856 33.1362 94.0887 33.0205 94.4627 33.0205C94.8496 33.0205 95.1526 33.1362 95.3719 33.3678C95.604 33.5865 95.7201 33.8824 95.7201 34.2554V45.5825C95.7201 45.9556 95.604 46.2579 95.3719 46.4895C95.1526 46.721 94.8496 46.8368 94.4627 46.8368Z" fill="#5B86CC"/>
<path d="M109.46 33.658C109.666 33.2207 110.008 33.002 110.485 33.002C110.807 33.002 111.098 33.1049 111.356 33.3107C111.613 33.5165 111.742 33.7738 111.742 34.0826C111.742 34.2241 111.704 34.3849 111.626 34.565L106.268 46.0657C106.152 46.3102 105.971 46.5031 105.726 46.6446C105.494 46.7733 105.243 46.8376 104.972 46.8376C104.701 46.8376 104.443 46.7733 104.198 46.6446C103.966 46.5031 103.792 46.3102 103.676 46.0657L98.3368 34.565C98.2594 34.3849 98.2207 34.2305 98.2207 34.1019C98.2207 33.7803 98.3497 33.5165 98.6076 33.3107C98.8784 33.1049 99.1815 33.002 99.5168 33.002C99.736 33.002 99.9359 33.0598 100.116 33.1756C100.31 33.2785 100.458 33.4393 100.561 33.658L105.011 43.5186L109.46 33.658Z" fill="#5B86CC"/>
<path d="M115.415 46.7213C115.041 46.7213 114.745 46.6184 114.525 46.4126C114.319 46.2067 114.216 45.9173 114.216 45.5442V34.2943C114.216 33.9213 114.319 33.6318 114.525 33.426C114.745 33.2202 115.041 33.1172 115.415 33.1172H122.399C122.773 33.1172 123.063 33.2009 123.269 33.3681C123.475 33.5353 123.579 33.7733 123.579 34.0821C123.579 34.4037 123.475 34.6545 123.269 34.8346C123.063 35.0019 122.773 35.0855 122.399 35.0855H116.653V38.829H122.012C122.386 38.829 122.676 38.9126 122.882 39.0799C123.088 39.2471 123.192 39.4915 123.192 39.8131C123.192 40.1219 123.088 40.3599 122.882 40.5271C122.676 40.6944 122.386 40.778 122.012 40.778H116.653V44.7531H122.399C122.773 44.7531 123.063 44.8431 123.269 45.0232C123.475 45.1905 123.579 45.4349 123.579 45.7565C123.579 46.0652 123.475 46.3032 123.269 46.4705C123.063 46.6377 122.773 46.7213 122.399 46.7213H115.415Z" fill="#5B86CC"/>
<path d="M13.6196 15.7131C13.6196 19.4207 10.6066 22.4262 6.88988 22.4262C3.17315 22.4262 0.160156 19.4207 0.160156 15.7131C0.160156 12.0056 3.17315 9 6.88988 9C10.6066 9 13.6196 12.0056 13.6196 15.7131Z" fill="#5B86CC"/>
<path d="M38.9361 41.2873C38.9361 44.9948 35.9231 48.0004 32.2063 48.0004C28.4896 48.0004 25.4766 44.9948 25.4766 41.2873C25.4766 37.5797 28.4896 34.5742 32.2063 34.5742C35.9231 34.5742 38.9361 37.5797 38.9361 41.2873Z" fill="#5B86CC"/>
<path d="M6.72973 34.4141C10.4465 34.4141 13.4595 37.4197 13.4595 41.1272C13.4595 44.8348 10.4465 47.8404 6.72973 47.8404C3.013 47.8404 1.62463e-07 44.8348 0 41.1272C-1.62463e-07 37.4197 3.013 34.4141 6.72973 34.4141Z" fill="#5B86CC"/>
<path d="M32.3664 9.16016C36.0831 9.16016 39.0961 12.1657 39.0961 15.8733C39.0961 19.5808 36.0831 22.5864 32.3664 22.5864C28.6497 22.5864 25.6367 19.5808 25.6367 15.8733C25.6367 12.1657 28.6497 9.16016 32.3664 9.16016Z" fill="#5B86CC"/>
<path d="M4.64648 41.7858L32.0653 14.4346L33.8555 16.2204L6.43662 43.5715L4.64648 41.7858Z" fill="#5B86CC"/>
<path d="M194 38.2047V18.5127C194 17.6546 194.456 16.861 195.197 16.4284L212.5 6.32906C213.248 5.89261 214.172 5.89017 214.922 6.32266L232.452 16.4305C233.199 16.8614 233.659 17.6585 233.659 18.5212V38.1962C233.659 39.0485 233.21 39.8376 232.477 40.2722L214.947 50.6627C214.184 51.1148 213.235 51.1123 212.475 50.6561L195.172 40.2741C194.445 39.838 194 39.0524 194 38.2047Z" fill="#3D3B47"/>
<path d="M212.744 26.6201L198.264 37.5607L214.916 30.3206L212.744 26.6201Z" fill="#EFF3F3"/>
<path d="M229.396 19.6211L212.744 26.6198L214.916 30.3203L229.396 19.6211Z" fill="#8BBD34"/>
<path d="M216.364 28.3085C216.364 29.5969 215.32 30.6414 214.031 30.6414C212.743 30.6414 211.698 29.5969 211.698 28.3085C211.698 27.0201 212.743 25.9756 214.031 25.9756C215.32 25.9756 216.364 27.0201 216.364 28.3085Z" fill="#3D3B47"/>
<path fill-rule="evenodd" clip-rule="evenodd" d="M214.03 29.6773C214.786 29.6773 215.398 29.065 215.398 28.3097C215.398 27.5544 214.786 26.9422 214.03 26.9422C213.275 26.9422 212.663 27.5544 212.663 28.3097C212.663 29.065 213.275 29.6773 214.03 29.6773ZM214.03 29.8382C214.875 29.8382 215.559 29.1539 215.559 28.3097C215.559 27.4656 214.875 26.7812 214.03 26.7812C213.186 26.7812 212.502 27.4656 212.502 28.3097C212.502 29.1539 213.186 29.8382 214.03 29.8382Z" fill="white"/>
<path fill-rule="evenodd" clip-rule="evenodd" d="M214.03 29.6773C214.786 29.6773 215.398 29.065 215.398 28.3097C215.398 27.5544 214.786 26.9422 214.03 26.9422C213.275 26.9422 212.663 27.5544 212.663 28.3097C212.663 29.065 213.275 29.6773 214.03 29.6773ZM214.03 29.8382C214.875 29.8382 215.559 29.1539 215.559 28.3097C215.559 27.4656 214.875 26.7812 214.03 26.7812C213.186 26.7812 212.502 27.4656 212.502 28.3097C212.502 29.1539 213.186 29.8382 214.03 29.8382Z" fill="white"/>
<path fill-rule="evenodd" clip-rule="evenodd" d="M214.03 29.6773C214.786 29.6773 215.398 29.065 215.398 28.3097C215.398 27.5544 214.786 26.9422 214.03 26.9422C213.275 26.9422 212.663 27.5544 212.663 28.3097C212.663 29.065 213.275 29.6773 214.03 29.6773ZM214.03 29.8382C214.875 29.8382 215.559 29.1539 215.559 28.3097C215.559 27.4656 214.875 26.7812 214.03 26.7812C213.186 26.7812 212.502 27.4656 212.502 28.3097C212.502 29.1539 213.186 29.8382 214.03 29.8382Z" fill="white"/>
<path d="M214.594 28.3092C214.594 28.6202 214.342 28.8723 214.031 28.8723C213.72 28.8723 213.468 28.6202 213.468 28.3092C213.468 27.9982 213.72 27.7461 214.031 27.7461C214.342 27.7461 214.594 27.9982 214.594 28.3092Z" fill="white"/>
<path d="M240.577 35.3078H242.427V23.965C242.427 23.2571 242.964 23.0801 243.232 23.0801H252.161C252.483 23.0801 252.966 23.0801 252.966 23.965V35.3078H254.977V23.965C255.03 23.0265 254.575 21.1494 252.322 21.1494H240.577V35.3078Z" fill="#3D3B47"/>
<path d="M259.321 21.1494H257.149L262.78 35.3078H264.63L269.698 23.5628L274.927 35.3078H276.858L282.167 21.1494H279.995L275.893 31.7682L270.985 21.1494H268.331L263.745 31.7682L259.321 21.1494Z" fill="#3D3B47"/>
<path d="M286.029 33.377H284.098V35.3077H286.029V33.377Z" fill="#3D3B47"/>
<path d="M290.453 18.4141V16.4834H292.464V18.4141H290.453Z" fill="#3D3B47"/>
<path d="M290.453 38.1233V21.1494H292.464V38.9278C292.464 39.7054 291.901 41.2607 289.649 41.2607H283.454V39.33H289.649C289.97 39.33 290.453 39.2496 290.453 38.1233Z" fill="#3D3B47"/>
<path d="M309.68 24.2063H307.829C307.829 23.8041 307.684 22.9997 307.105 22.9997H297.854C297.613 22.9997 297.05 22.9997 297.05 23.6432V26.2175C297.05 26.7806 297.13 27.2632 298.095 27.2632H306.944C307.507 27.2632 309.68 27.1828 309.68 29.6766V32.09C309.68 32.4117 309.68 35.3078 307.105 35.3078H297.854C295.73 35.3078 295.199 33.2698 295.199 32.2508H297.13C297.13 32.6263 297.275 33.3771 297.854 33.3771H307.105C307.427 33.3771 307.829 33.3771 307.829 32.6531V29.9179C307.829 29.5157 307.588 29.1135 306.944 29.1135H297.854C296.969 29.1671 295.199 28.7756 295.199 26.7806V23.6432C295.173 22.8119 295.666 21.1494 297.854 21.1494H306.944C309.132 21.1494 309.68 23.1874 309.68 24.2063Z" fill="#3D3B47"/>
<path fill-rule="evenodd" clip-rule="evenodd" d="M531 44.8114H508.633L514.114 39.3301H531V6H486V39.3301H503.151L508.633 44.8114H486V50.8232H531V44.8114ZM508.633 36.0594L511.551 33.1415H524.811V12.1886H492.189V33.1415H505.715L508.633 36.0594Z" fill="#231F20"/>
<path fill-rule="evenodd" clip-rule="evenodd" d="M531 44.8114H508.633L514.114 39.3301H531V6H486V39.3301H503.151L508.633 44.8114H486V50.8232H531V44.8114ZM508.633 36.0594L511.551 33.1415H524.811V12.1886H492.189V33.1415H505.715L508.633 36.0594Z" fill="#231F20"/>
<path d="M390.755 8.50365C385.66 7.56454 381.632 8.54768 380.026 11.3615C378.828 13.4614 379.17 16.2458 380.856 19.2221C380.925 19.3438 381.039 19.4328 381.173 19.4695C381.307 19.5062 381.45 19.4877 381.57 19.4179C381.69 19.3481 381.778 19.2328 381.814 19.0974C381.851 18.962 381.832 18.8175 381.763 18.6958C380.244 16.0151 379.948 13.6121 380.931 11.8903C382.265 9.55257 385.858 8.67569 390.568 9.54397C390.636 9.55761 390.706 9.55743 390.774 9.54343C390.842 9.52943 390.906 9.5019 390.963 9.46244C391.021 9.42297 391.07 9.37237 391.108 9.31357C391.145 9.25477 391.171 9.18895 391.184 9.11994C391.196 9.05093 391.195 8.98012 391.18 8.91162C391.165 8.84312 391.137 8.7783 391.097 8.72095C391.057 8.66359 391.006 8.61484 390.947 8.57754C390.889 8.54023 390.824 8.51512 390.755 8.50365ZM383.506 22.8394C385.566 25.1305 388.242 27.2795 391.295 29.0631C398.685 33.3812 406.553 34.5354 410.431 31.8597C410.544 31.7802 410.622 31.6587 410.647 31.5214C410.672 31.3842 410.643 31.2425 410.565 31.1272C410.488 31.0119 410.368 30.9323 410.233 30.9058C410.097 30.8793 409.957 30.9081 409.842 30.9858C406.372 33.3807 398.898 32.2842 391.817 28.1472C388.856 26.4167 386.264 24.3361 384.279 22.128C384.233 22.0753 384.177 22.0324 384.115 22.0017C384.053 21.9711 383.985 21.9533 383.916 21.9494C383.846 21.9455 383.777 21.9556 383.712 21.9791C383.646 22.0025 383.586 22.0389 383.535 22.0862C383.484 22.1334 383.442 22.1904 383.413 22.254C383.384 22.3176 383.367 22.3865 383.365 22.4566C383.362 22.5267 383.373 22.5966 383.397 22.6623C383.421 22.7281 383.458 22.7883 383.506 22.8394Z" fill="#47848F"/>
<path d="M409.194 22.1964C412.53 18.2082 413.695 14.1967 412.093 11.3884C410.914 9.32198 408.422 8.23106 405.11 8.18755C405.041 8.18662 404.973 8.19937 404.909 8.22509C404.845 8.2508 404.787 8.28897 404.738 8.33741C404.689 8.38585 404.65 8.44362 404.622 8.50742C404.595 8.57121 404.581 8.63979 404.58 8.70922C404.579 8.77866 404.592 8.8476 404.617 8.91211C404.643 8.97662 404.68 9.03543 404.728 9.08519C404.776 9.13495 404.833 9.17468 404.896 9.20211C404.959 9.22954 405.027 9.24414 405.096 9.24507C408.075 9.28403 410.222 10.2242 411.188 11.9172C412.519 14.2498 411.48 17.8272 408.397 21.5133C408.351 21.5661 408.316 21.6276 408.294 21.6942C408.271 21.7609 408.263 21.8313 408.268 21.9014C408.273 21.9715 408.292 22.0398 408.323 22.1025C408.355 22.1651 408.398 22.2207 408.451 22.2661C408.504 22.3115 408.566 22.3458 408.632 22.3669C408.698 22.388 408.768 22.3955 408.837 22.389C408.906 22.3825 408.973 22.3622 409.035 22.3291C409.096 22.296 409.15 22.2509 409.194 22.1964ZM400.621 8.67988C397.604 9.33412 394.394 10.6128 391.311 12.4141C383.681 16.8719 378.704 23.4447 379.395 28.2111C379.403 28.2813 379.425 28.349 379.46 28.4104C379.495 28.4717 379.541 28.5255 379.596 28.5684C379.652 28.6113 379.715 28.6425 379.783 28.6602C379.85 28.6779 379.921 28.6818 379.99 28.6715C380.059 28.6612 380.125 28.637 380.185 28.6004C380.245 28.5637 380.296 28.5154 380.337 28.4581C380.378 28.4009 380.407 28.3359 380.423 28.267C380.439 28.1982 380.441 28.1269 380.429 28.0573C379.815 23.8257 384.533 17.5949 391.833 13.3299C394.824 11.5822 397.933 10.3446 400.84 9.71362C400.972 9.68151 401.087 9.59814 401.16 9.48132C401.233 9.36451 401.258 9.22352 401.229 9.08851C401.2 8.95349 401.121 8.83515 401.007 8.75879C400.893 8.68243 400.755 8.65411 400.621 8.67988Z" fill="#47848F"/>
<path d="M388.26 31.5154C390.005 36.4438 392.858 39.4787 396.067 39.4787C398.407 39.4787 400.572 37.8646 402.26 35.0224C402.298 34.9629 402.324 34.8963 402.336 34.8265C402.348 34.7568 402.346 34.6853 402.33 34.6164C402.314 34.5474 402.285 34.4824 402.244 34.4251C402.203 34.3679 402.15 34.3195 402.091 34.283C402.031 34.2465 401.964 34.2226 401.895 34.2126C401.826 34.2027 401.755 34.2069 401.687 34.225C401.62 34.2431 401.556 34.2748 401.501 34.3182C401.446 34.3616 401.4 34.4157 401.365 34.4775C399.848 37.0317 397.984 38.4217 396.067 38.4217C393.402 38.4217 390.856 35.7146 389.244 31.1587C389.222 31.0919 389.187 31.0303 389.141 30.9774C389.095 30.9246 389.039 30.8815 388.977 30.8508C388.914 30.82 388.846 30.8022 388.777 30.7984C388.707 30.7946 388.638 30.8049 388.572 30.8287C388.507 30.8524 388.447 30.8892 388.395 30.9367C388.344 30.9843 388.303 31.0418 388.274 31.1057C388.245 31.1697 388.228 31.2389 388.226 31.3092C388.224 31.3796 388.236 31.4497 388.26 31.5154ZM404.193 30.551C405.096 27.6314 405.58 24.2625 405.58 20.752C405.58 11.9933 402.551 4.44236 398.236 2.5034C398.11 2.44885 397.968 2.44678 397.84 2.49763C397.712 2.54848 397.609 2.64816 397.554 2.77514C397.498 2.90211 397.494 3.04617 397.542 3.17617C397.591 3.30616 397.688 3.41166 397.812 3.46985C401.661 5.19932 404.536 12.3652 404.536 20.752C404.536 24.1573 404.066 27.4199 403.196 30.2352C403.173 30.302 403.164 30.3727 403.169 30.443C403.174 30.5134 403.193 30.5821 403.225 30.645C403.256 30.7079 403.3 30.7637 403.353 30.8093C403.406 30.8549 403.468 30.8892 403.535 30.9103C403.601 30.9313 403.671 30.9387 403.74 30.932C403.81 30.9252 403.877 30.9045 403.939 30.8711C404 30.8376 404.054 30.792 404.098 30.737C404.141 30.6821 404.174 30.6188 404.193 30.551ZM414.032 30.0334C414.032 29.3622 413.769 28.7186 413.3 28.2441C412.831 27.7695 412.195 27.5029 411.532 27.5029C410.869 27.5029 410.233 27.7695 409.764 28.2441C409.295 28.7186 409.031 29.3622 409.031 30.0334C409.031 30.7045 409.295 31.3481 409.764 31.8227C410.233 32.2972 410.869 32.5638 411.532 32.5638C412.195 32.5638 412.831 32.2972 413.3 31.8227C413.769 31.3481 414.032 30.7045 414.032 30.0334ZM412.987 30.0334C412.987 30.424 412.834 30.7987 412.561 31.0749C412.288 31.3511 411.918 31.5063 411.532 31.5063C411.146 31.5063 410.776 31.3511 410.503 31.0749C410.23 30.7987 410.076 30.424 410.076 30.0334C410.076 29.6427 410.23 29.2681 410.503 28.9918C410.776 28.7156 411.146 28.5604 411.532 28.5604C411.918 28.5604 412.288 28.7156 412.561 28.9918C412.834 29.2681 412.987 29.6427 412.987 30.0334ZM380.566 32.5638C381.229 32.5638 381.865 32.2972 382.334 31.8227C382.803 31.3481 383.066 30.7045 383.066 30.0334C383.066 29.3622 382.803 28.7186 382.334 28.2441C381.865 27.7695 381.229 27.5029 380.566 27.5029C379.903 27.5029 379.267 27.7695 378.798 28.2441C378.329 28.7186 378.065 29.3622 378.065 30.0334C378.065 30.7045 378.329 31.3481 378.798 31.8227C379.267 32.2972 379.903 32.5638 380.566 32.5638ZM380.566 31.5063C380.18 31.5063 379.81 31.3511 379.537 31.0748C379.264 30.7985 379.11 30.4238 379.11 30.0331C379.11 29.6424 379.264 29.2677 379.537 28.9914C379.81 28.7151 380.18 28.5599 380.566 28.5599C380.952 28.5599 381.322 28.7151 381.595 28.9914C381.868 29.2677 382.022 29.6424 382.022 30.0331C382.022 30.4238 381.868 30.7985 381.595 31.0748C381.322 31.3511 380.952 31.5063 380.566 31.5063Z" fill="#47848F"/>
<path d="M396.067 5.08436C396.395 5.08436 396.72 5.0189 397.024 4.89174C397.327 4.76457 397.603 4.57818 397.835 4.3432C398.067 4.10823 398.251 3.82927 398.377 3.52226C398.503 3.21525 398.567 2.8862 398.567 2.5539C398.567 2.22159 398.503 1.89254 398.377 1.58553C398.251 1.27852 398.067 0.999567 397.835 0.764592C397.603 0.529617 397.327 0.343225 397.024 0.216057C396.72 0.0888898 396.395 0.0234375 396.067 0.0234375C395.404 0.0234375 394.768 0.290039 394.299 0.764592C393.83 1.23914 393.566 1.88278 393.566 2.5539C393.566 3.22502 393.83 3.86865 394.299 4.3432C394.768 4.81775 395.404 5.08436 396.067 5.08436ZM396.067 4.02683C395.876 4.02683 395.687 3.98874 395.51 3.91471C395.333 3.84069 395.173 3.7322 395.038 3.59542C394.903 3.45865 394.795 3.29627 394.722 3.11757C394.649 2.93886 394.611 2.74733 394.611 2.5539C394.611 2.36047 394.649 2.16893 394.722 1.99023C394.795 1.81152 394.903 1.64915 395.038 1.51237C395.173 1.3756 395.333 1.2671 395.51 1.19308C395.687 1.11906 395.876 1.08096 396.067 1.08096C396.453 1.08096 396.823 1.23617 397.096 1.51245C397.369 1.78872 397.523 2.16343 397.523 2.55415C397.523 2.94486 397.369 3.31958 397.096 3.59585C396.823 3.87213 396.453 4.02734 396.067 4.02734V4.02683ZM396.449 22.542C396.217 22.5928 395.977 22.5968 395.743 22.5537C395.509 22.5107 395.286 22.4214 395.086 22.2911C394.683 22.0279 394.399 21.6134 394.298 21.1387C394.197 20.664 394.286 20.1679 394.546 19.7598C394.806 19.3516 395.216 19.0647 395.685 18.9622C396.151 18.8679 396.635 18.9628 397.032 19.2264C397.429 19.4901 397.708 19.9012 397.808 20.3712C397.909 20.8411 397.822 21.3321 397.568 21.7382C397.314 22.1443 396.912 22.4328 396.449 22.5415V22.542Z" fill="#47848F"/>
<path d="M372.247 62.9104V60.9804H375.627V59.9104H372.247V58.0904H376.057V57.0004H370.947V64.0004H376.197V62.9104H372.247ZM377.446 64.0004H382.406V62.9004H378.746V57.0004H377.446V64.0004ZM384.532 62.9104V60.9804H387.912V59.9104H384.532V58.0904H388.342V57.0004H383.232V64.0004H388.482V62.9104H384.532ZM392.942 64.1004C394.092 64.1004 395.072 63.6904 395.722 62.9304L394.882 62.1304C394.372 62.6904 393.742 62.9604 393.012 62.9604C391.562 62.9604 390.512 61.9404 390.512 60.5004C390.512 59.0604 391.562 58.0404 393.012 58.0404C393.742 58.0404 394.372 58.3104 394.882 58.8604L395.722 58.0704C395.072 57.3104 394.092 56.9004 392.952 56.9004C390.802 56.9004 389.202 58.4104 389.202 60.5004C389.202 62.5904 390.802 64.1004 392.942 64.1004ZM398.11 64.0004H399.41V58.1004H401.73V57.0004H395.79V58.1004H398.11V64.0004ZM408.485 64.0004L406.875 61.7004C407.825 61.3304 408.365 60.5504 408.365 59.4904C408.365 57.9404 407.225 57.0004 405.385 57.0004H402.505V64.0004H403.805V61.9604H405.385C405.475 61.9604 405.565 61.9604 405.655 61.9504L407.085 64.0004H408.485ZM407.055 59.4904C407.055 60.3704 406.465 60.8904 405.325 60.8904H403.805V58.1004H405.325C406.465 58.1004 407.055 58.6104 407.055 59.4904ZM412.89 64.1004C415.06 64.1004 416.66 62.5804 416.66 60.5004C416.66 58.4204 415.06 56.9004 412.89 56.9004C410.72 56.9004 409.12 58.4304 409.12 60.5004C409.12 62.5704 410.72 64.1004 412.89 64.1004ZM412.89 62.9604C411.48 62.9604 410.43 61.9304 410.43 60.5004C410.43 59.0704 411.48 58.0404 412.89 58.0404C414.3 58.0404 415.35 59.0704 415.35 60.5004C415.35 61.9304 414.3 62.9604 412.89 62.9604ZM422.768 57.0004V61.7404L418.908 57.0004H417.838V64.0004H419.128V59.2604L422.988 64.0004H424.058V57.0004H422.768Z" fill="#47848F"/>
</svg>
