<svg width="538" height="220" viewBox="0 0 538 220" fill="none" xmlns="http://www.w3.org/2000/svg">
<path d="M31.3981 169.84L23.334 188.921L12.738 213.994L37.3758 203.448L50.426 197.863L31.3981 169.84Z" fill="#8087E8"/>
<path d="M35.5077 192.939L37.3772 203.448L50.4274 197.862L35.5077 192.939Z" fill="#30426B"/>
<path d="M31.3988 169.84L35.5077 192.94L50.4267 197.863L31.3988 169.84Z" fill="#6699A1"/>
<path d="M35.507 192.939L50.4267 197.863L23.3347 188.92L12.738 213.994L37.3765 203.448L35.507 192.939Z" fill="#78758C"/>
<path d="M12.7387 213.994L23.3346 188.921L1.55427 181.732L12.7387 213.994Z" fill="#A3EDBA"/>
<path d="M37.3766 203.448L39.7662 216.876L50.4269 197.863L37.3766 203.448Z" fill="#6699A1"/>
<path d="M31.3983 169.84L23.3343 188.921L35.5073 192.94L31.3983 169.84Z" fill="#8087E8"/>
<path d="M86.8668 195.574H74.6385V202.687C74.6385 203.442 74.0544 204.034 73.3101 204.034C72.565 204.034 71.9809 203.442 71.9809 202.687V186.848C71.9809 186.093 72.565 185.499 73.3101 185.499C74.0544 185.499 74.6385 186.091 74.6385 186.848V192.989H86.8668V186.848C86.8668 186.093 87.4517 185.499 88.196 185.499C88.9403 185.499 89.5252 186.091 89.5252 186.848V202.684C89.5252 203.439 88.9403 204.032 88.196 204.032C87.4517 204.032 86.8668 203.44 86.8668 202.684V195.574Z" fill="#222222"/>
<path d="M100.157 202.684C100.157 203.439 99.5724 204.032 98.8266 204.032C98.0808 204.032 97.496 203.44 97.496 202.684V186.848C97.496 186.093 98.0808 185.499 98.8266 185.499C99.5724 185.499 100.157 186.091 100.157 186.848V202.684Z" fill="#222222"/>
<path d="M119.665 196.059C119.665 195.304 120.25 194.767 120.996 194.767C121.739 194.767 122.327 195.359 122.327 196.113V200.37C122.327 200.693 122.164 201.177 121.899 201.446C120.198 203.171 117.912 204.193 115.306 204.193C110.149 204.193 106.003 199.992 106.003 194.767C106.003 189.539 110.149 185.34 115.306 185.34C117.912 185.34 120.198 186.363 121.899 188.085C122.429 188.624 122.429 189.434 121.899 189.972C121.367 190.51 120.518 190.564 119.986 190.025C118.763 188.788 117.167 188.033 115.306 188.033C111.639 188.033 108.661 191.05 108.661 194.767C108.661 198.483 111.64 201.501 115.306 201.501C117.007 201.501 118.497 200.909 119.665 199.883V196.059Z" fill="#222222"/>
<path d="M144.12 195.574H131.892V202.687C131.892 203.442 131.305 204.034 130.562 204.034C129.817 204.034 129.233 203.442 129.233 202.687V186.848C129.233 186.093 129.817 185.499 130.562 185.499C131.305 185.499 131.892 186.091 131.892 186.848V192.989H144.12V186.848C144.12 186.093 144.704 185.499 145.448 185.499C146.193 185.499 146.779 186.091 146.779 186.848V202.684C146.779 203.439 146.195 204.032 145.448 204.032C144.706 204.032 144.12 203.44 144.12 202.684V195.574Z" fill="#222222"/>
<path d="M161.927 204.193C156.767 204.193 152.624 199.992 152.624 194.767C152.624 189.539 156.769 185.34 161.927 185.34C164.533 185.34 166.819 186.363 168.52 188.085C169.05 188.624 169.05 189.434 168.52 189.972C167.988 190.51 167.137 190.564 166.605 190.025C165.384 188.788 163.788 188.033 161.927 188.033C158.259 188.033 155.282 191.05 155.282 194.767C155.282 198.483 158.259 201.501 161.927 201.501C163.788 201.501 165.436 200.801 166.659 199.562C167.191 199.022 167.988 199.022 168.52 199.562C169.05 200.099 169.05 200.908 168.52 201.446C166.819 203.17 164.532 204.193 161.927 204.193Z" fill="#222222"/>
<path d="M189.675 195.574H177.447V202.687C177.447 203.442 176.863 204.034 176.116 204.034C175.374 204.034 174.787 203.442 174.787 202.687V186.848C174.787 186.093 175.371 185.499 176.116 185.499C176.86 185.499 177.447 186.091 177.447 186.848V192.989H189.675V186.848C189.675 186.093 190.26 185.499 191.007 185.499C191.75 185.499 192.335 186.091 192.335 186.848V202.684C192.335 203.439 191.751 204.032 191.007 204.032C190.262 204.032 189.675 203.44 189.675 202.684V195.574Z" fill="#222222"/>
<path d="M209.21 186.686L216.759 201.716C216.919 202.039 217.078 202.471 217.078 202.848C217.078 203.602 216.598 204.033 215.855 204.033C215.323 204.033 214.791 203.871 214.418 203.117L212.081 198.43H202.348L200.061 203.117C199.689 203.871 199.158 204.033 198.628 204.033C197.883 204.033 197.405 203.601 197.405 202.848C197.405 202.47 197.563 202.04 197.723 201.716L205.271 186.686C205.751 185.663 206.709 185.501 207.24 185.501C207.774 185.501 208.73 185.662 209.21 186.686ZM203.625 195.844H210.801L207.24 188.572L203.625 195.844Z" fill="#222222"/>
<path d="M231.771 185.608C234.961 185.608 237.564 187.978 237.564 191.209C237.564 194.065 235.543 196.221 232.886 196.705L237.722 201.877C238.199 202.362 238.361 203.224 237.827 203.708C237.298 204.248 236.286 204.088 235.754 203.493L229.482 196.813H224.804V202.74C224.804 203.493 224.219 204.032 223.472 204.032C222.73 204.032 222.143 203.44 222.143 202.684V186.955C222.143 186.201 222.728 185.608 223.472 185.608H231.771ZM224.808 188.194V194.228H231.771C233.631 194.228 234.908 192.935 234.908 191.209C234.908 189.488 233.631 188.193 231.771 188.193L224.808 188.194Z" fill="#222222"/>
<path d="M249.651 188.194H243.006C242.264 188.194 241.678 187.655 241.678 186.901C241.678 186.148 242.262 185.61 243.006 185.61H258.957C259.702 185.61 260.288 186.149 260.288 186.901C260.288 187.656 259.704 188.194 258.957 188.194H252.312V202.685C252.312 203.44 251.728 204.032 250.984 204.032C250.238 204.032 249.651 203.441 249.651 202.685V188.194Z" fill="#222222"/>
<path d="M266.663 192.881C266.663 186.147 270.757 185.34 273.84 185.34C274.584 185.34 275.17 185.932 275.17 186.687C275.17 187.441 274.585 188.034 273.84 188.034C271.341 188.034 269.321 188.571 269.321 192.883V196.654C269.321 203.388 265.227 204.194 262.144 204.194C261.401 204.194 260.815 203.602 260.815 202.847C260.815 202.092 261.4 201.501 262.144 201.501C264.644 201.501 266.663 200.962 266.663 196.652V192.881Z" fill="#222222"/>
<path d="M304.909 117.522C304.931 117.316 304.946 117.108 304.958 116.898C304.973 116.65 289.853 102.481 289.853 102.481H289.491C289.491 102.481 304.817 118.447 304.909 117.522V117.522Z" fill="url(#paint0_linear)"/>
<path d="M272.65 112.607C272.63 112.651 272.611 112.694 272.59 112.738C272.569 112.783 272.546 112.829 272.524 112.874C272.043 113.866 279.272 120.846 279.853 119.998C279.88 119.961 279.906 119.921 279.933 119.884C279.962 119.839 279.991 119.797 280.02 119.752C280.485 119.055 272.857 112.154 272.65 112.607Z" fill="url(#paint1_linear)"/>
<path d="M282.867 122.423C282.846 122.467 282.701 122.71 282.568 122.839C282.545 122.883 289.625 129.818 289.625 129.818H290.263C290.263 129.818 283.617 122.716 282.867 122.423Z" fill="url(#paint2_linear)"/>
<path d="M304.968 116.772C304.637 124.021 298.565 129.818 291.146 129.818H290.143L282.734 122.609C283.343 121.76 283.91 120.881 284.414 119.964H291.146C293.275 119.964 295.007 118.253 295.007 116.15C295.007 114.047 293.275 112.336 291.146 112.336H287.162C287.466 110.751 287.632 109.117 287.632 107.445C287.632 105.748 287.463 104.091 287.148 102.481H289.623L304.924 117.372C304.943 117.173 304.957 116.973 304.968 116.772ZM261.025 85H257V94.8543H261.025C268.055 94.8543 273.775 100.502 273.775 107.445C273.775 109.334 273.348 111.127 272.59 112.737L279.933 119.884C282.344 116.321 283.753 112.043 283.753 107.445C283.753 95.0691 273.557 85 261.025 85Z" fill="url(#paint3_linear)"/>
<path d="M291.146 85H274.847C278.828 87.4005 282.125 90.8044 284.371 94.8542H291.146C293.275 94.8542 295.007 96.5644 295.007 98.6681C295.007 100.771 293.275 102.481 291.146 102.481H289.624L304.925 117.373C304.961 116.969 304.984 116.562 304.984 116.15C304.984 112.827 303.777 109.78 301.773 107.408C303.777 105.038 304.984 101.99 304.984 98.6681C304.984 91.1318 298.777 85 291.146 85Z" fill="url(#paint4_linear)"/>
<path d="M290.143 129.818H274.964C278.019 127.955 280.661 125.494 282.734 122.61L290.143 129.818ZM279.933 119.884L272.591 112.738C270.562 117.044 266.142 120.038 261.025 120.038H257V129.892H261.025C268.902 129.892 275.854 125.912 279.933 119.884Z" fill="url(#paint5_linear)"/>
<g clip-path="url(#clip0)">
<path d="M79.3519 114.634C79.3519 117.828 78.4444 120.269 76.6311 121.957C74.817 123.646 72.2043 124.49 68.7926 124.49H63.256V105.149H69.3747C72.5241 105.149 74.9743 105.978 76.7253 107.637C78.4764 109.294 79.3519 111.627 79.3519 114.634ZM75.9406 114.74C75.9406 110.11 73.725 107.795 69.2939 107.795H66.4923V121.832H68.793C73.5578 121.831 75.9406 119.468 75.9406 114.74ZM88.139 124.755C85.8102 124.755 83.9891 124.092 82.6763 122.764C81.3639 121.436 80.7062 119.608 80.7062 117.281C80.7062 114.891 81.3155 113.013 82.5337 111.645C83.7515 110.278 85.4256 109.595 87.5556 109.595C89.5322 109.595 91.0939 110.182 92.24 111.354C93.3856 112.527 93.9594 114.142 93.9594 116.197V117.877H83.9822C84.0272 119.296 84.4204 120.388 85.1607 121.151C85.9009 121.914 86.9428 122.295 88.2872 122.295C89.1718 122.295 89.995 122.214 90.7582 122.05C91.5213 121.887 92.3398 121.616 93.2157 121.237V123.763C92.4672 124.116 91.6756 124.374 90.8601 124.53C90.0659 124.68 89.1588 124.755 88.139 124.755ZM87.5569 111.949C86.5461 111.949 85.7363 112.262 85.1274 112.888C84.5181 113.514 84.1551 114.428 84.038 115.626H90.8342C90.8161 114.418 90.5188 113.503 89.941 112.881C89.3619 112.26 88.5677 111.949 87.5569 111.949ZM99.3218 124.491L93.6366 109.859H96.9943L100.04 118.366C100.563 119.795 100.879 120.95 100.987 121.832H101.095C101.177 121.197 101.492 120.042 102.043 118.366L105.089 109.859H108.472L102.76 124.491H99.3218ZM115.622 124.755C113.293 124.755 111.473 124.092 110.159 122.764C108.847 121.436 108.189 119.608 108.189 117.281C108.189 114.891 108.798 113.013 110.017 111.645C111.235 110.278 112.909 109.595 115.039 109.595C117.015 109.595 118.577 110.182 119.723 111.354C120.869 112.527 121.443 114.142 121.443 116.197V117.877H111.466C111.511 119.296 111.904 120.388 112.644 121.151C113.384 121.914 114.426 122.295 115.77 122.295C116.655 122.295 117.478 122.214 118.241 122.05C119.004 121.887 119.823 121.616 120.699 121.237V123.763C119.951 124.116 119.159 124.374 118.344 124.53C117.549 124.68 116.642 124.755 115.622 124.755ZM115.04 111.949C114.029 111.949 113.219 112.262 112.61 112.888C112.001 113.514 111.638 114.428 111.521 115.626H118.317C118.299 114.418 118.001 113.503 117.424 112.881C116.845 112.26 116.051 111.949 115.04 111.949ZM126.575 124.491H123.395V103.905H126.575V124.491ZM142.74 117.148C142.74 119.538 142.113 121.403 140.858 122.744C139.604 124.085 137.858 124.755 135.619 124.755C134.22 124.755 132.984 124.447 131.91 123.829C130.836 123.212 130.011 122.325 129.434 121.17C128.856 120.016 128.567 118.674 128.567 117.149C128.567 114.776 129.189 112.924 130.435 111.592C131.68 110.261 133.435 109.595 135.701 109.595C137.868 109.595 139.581 110.276 140.845 111.639C142.108 113.001 142.74 114.837 142.74 117.148ZM131.843 117.148C131.843 120.526 133.119 122.215 135.674 122.215C138.2 122.215 139.464 120.526 139.464 117.148C139.464 113.805 138.193 112.134 135.647 112.134C134.311 112.134 133.344 112.565 132.743 113.43C132.143 114.295 131.843 115.534 131.843 117.148ZM152.326 124.755C150.43 124.755 148.96 124.089 147.913 122.758H147.724C147.85 123.993 147.913 124.742 147.913 125.007V130.999H144.732V109.859H147.304C147.376 110.131 147.525 110.784 147.75 111.817H147.913C148.905 110.335 150.394 109.594 152.38 109.594C154.247 109.594 155.703 110.255 156.746 111.578C157.788 112.901 158.31 114.758 158.31 117.148C158.31 119.538 157.778 121.403 156.719 122.744C155.658 124.085 154.194 124.755 152.326 124.755ZM151.554 112.134C150.291 112.134 149.367 112.495 148.786 113.219C148.204 113.942 147.913 115.097 147.913 116.685V117.148C147.913 118.93 148.201 120.22 148.779 121.018C149.357 121.817 150.3 122.215 151.608 122.215C152.71 122.215 153.558 121.775 154.154 120.892C154.749 120.011 155.047 118.754 155.047 117.122C155.047 115.481 154.75 114.24 154.16 113.398C153.569 112.555 152.7 112.134 151.554 112.134ZM166.879 124.755C164.551 124.755 162.73 124.092 161.417 122.764C160.104 121.436 159.447 119.608 159.447 117.281C159.447 114.891 160.055 113.013 161.274 111.645C162.491 110.278 164.165 109.595 166.296 109.595C168.272 109.595 169.834 110.182 170.98 111.354C172.125 112.527 172.7 114.142 172.7 116.197V117.877H162.724C162.769 119.296 163.162 120.388 163.902 121.151C164.643 121.914 165.684 122.295 167.028 122.295C167.913 122.295 168.736 122.214 169.499 122.05C170.263 121.887 171.081 121.616 171.957 121.237V123.763C171.209 124.116 170.417 124.374 169.602 124.53C168.806 124.68 167.9 124.755 166.879 124.755ZM166.298 111.949C165.286 111.949 164.477 112.262 163.868 112.888C163.259 113.515 162.895 114.428 162.778 115.626H169.575C169.557 114.418 169.259 113.503 168.682 112.881C168.103 112.26 167.308 111.949 166.298 111.949ZM182.245 109.594C182.886 109.594 183.414 109.638 183.83 109.726L183.518 112.622C183.057 112.516 182.584 112.462 182.11 112.464C180.837 112.464 179.806 112.869 179.017 113.681C178.227 114.493 177.832 115.547 177.832 116.843V124.489H174.652V109.859H177.143L177.563 112.438H177.726C178.221 111.565 178.869 110.873 179.668 110.361C180.466 109.85 181.325 109.594 182.245 109.594ZM195 120.323C195 121.752 194.467 122.848 193.402 123.61C192.337 124.374 190.812 124.755 188.827 124.755C186.832 124.755 185.231 124.46 184.021 123.868V121.183C185.781 121.977 187.419 122.373 188.935 122.373C190.893 122.373 191.873 121.796 191.873 120.64C191.873 120.27 191.764 119.961 191.548 119.714C191.331 119.467 190.975 119.212 190.478 118.947C189.982 118.683 189.291 118.383 188.407 118.048C186.683 117.395 185.517 116.742 184.907 116.089C184.298 115.437 183.993 114.59 183.993 113.549C183.993 112.297 184.51 111.324 185.544 110.632C186.577 109.94 187.983 109.593 189.761 109.593C191.521 109.593 193.186 109.942 194.756 110.639L193.727 112.981C192.112 112.328 190.754 112.002 189.653 112.002C187.973 112.002 187.135 112.469 187.135 113.404C187.135 113.862 187.354 114.251 187.791 114.568C188.23 114.886 189.185 115.322 190.656 115.878C191.891 116.346 192.789 116.773 193.348 117.162C193.907 117.55 194.323 117.997 194.594 118.505C194.864 119.011 195 119.618 195 120.323Z" fill="#6C6D6D"/>
<path d="M103.713 97.9906C103.313 98.1963 102.714 98.2749 102.25 98.282C101.306 98.3006 100.547 97.6676 100.056 96.9243C99.7302 96.4376 99.5341 95.8789 99.4858 95.2992C99.4041 94.3933 99.6327 93.3476 100.678 93.0908C101.382 92.9181 102.04 93.299 102.299 93.9566C102.415 94.2628 102.344 94.414 102.063 94.5246L99.5394 95.5602L100.397 95.6129C101.425 95.1961 102.569 94.8076 103.593 94.3924C103.805 94.3046 103.824 94.289 103.742 94.0693C103.299 92.8311 101.626 92.16 100.195 92.7424C99.0714 93.2006 98.2564 94.362 98.2564 95.6662C98.2564 97.4205 99.5467 98.9789 101.311 98.9789C102.113 98.9789 102.688 98.8712 103.2 98.5566C103.31 98.4556 103.924 97.9691 103.935 97.8661C103.935 97.8407 103.844 97.9159 103.713 97.9906ZM97.065 97.7165C97.0827 95.2544 97.0196 92.7796 97.1242 90.3157C97.1427 90.1062 97.1626 89.8655 97.2447 89.7414C97.3579 89.5703 97.4465 89.501 97.7062 89.3342H95.823C95.4479 89.4968 95.113 89.7494 94.7513 89.9276C95.132 89.9158 95.4773 89.9213 95.8537 89.9128C95.6912 92.3868 95.7927 94.8553 95.7802 97.4226C95.8001 98.1866 95.6419 98.3864 95.3403 98.6947C96.1467 98.6947 96.9133 98.7094 97.7222 98.7094C97.889 98.6123 98.1051 98.3965 98.2395 98.2825C97.3463 98.3082 97.0792 98.3889 97.065 97.7165Z" fill="#666666"/>
<path d="M95.1208 92.729C93.9857 92.7193 92.8506 92.7158 91.7155 92.7184C90.5876 92.7184 89.5717 93.2543 89.1136 94.2109C88.9049 94.651 88.8206 95.2177 88.952 95.7537C89.2199 96.8192 90.3552 97.5224 91.4601 97.3593C91.5816 97.3429 91.6213 97.3065 91.5548 97.413C91.3123 97.8315 91.4921 98.4565 91.9683 98.7593C91.6236 98.7355 91.2775 98.7411 90.9338 98.7762C89.589 98.9321 88.0951 99.6108 88.1737 101.028C88.2312 102.132 89.3725 102.943 91.1749 102.944C92.6317 102.943 93.9955 102.49 94.5689 101.489C95.1752 100.432 94.82 99.3405 93.9091 98.6774C93.4955 98.375 92.7756 97.9582 92.8201 97.3834C92.8352 97.1891 92.9834 96.9792 93.2613 96.8171C93.7617 96.5345 94.1005 96.1591 94.269 95.7228C94.4432 95.2646 94.4181 94.7616 94.2453 94.3076C94.0806 93.8844 93.7863 93.4984 93.3974 93.2383H94.3122L95.1208 92.729ZM92.8352 99.4135C93.6295 99.903 93.8849 100.5 93.8183 101.055C93.7405 101.723 93.0815 102.246 91.964 102.311C90.7635 102.384 89.1547 101.921 89.4524 100.383C89.6136 99.5626 90.7277 99.142 91.6421 99.1133C91.9031 99.1048 92.1572 99.1225 92.4104 99.1306C92.5483 99.2269 92.6935 99.3189 92.8352 99.4135ZM92.2272 96.9395C91.4195 97.1579 90.5306 96.5417 90.2454 95.4483C89.9252 94.2422 90.2506 93.4773 91.0124 93.2467C91.9117 92.9693 92.8732 93.7662 93.0919 95.0653C93.2375 95.9158 93.0145 96.7229 92.2272 96.9395ZM88.2623 95.602C88.1634 93.9546 87.0324 92.5491 84.87 92.5491C83.0002 92.5491 81.4687 93.974 81.4687 95.7232C81.4687 97.7268 83.2491 99.0972 85.2844 98.8831C86.975 98.7082 88.3626 97.2415 88.2623 95.602ZM85.5187 98.3923C84.3817 98.6436 83.1756 97.7259 82.8796 96.1667C82.5473 94.4521 83.0922 93.3228 84.1626 93.0444C85.4335 92.7193 86.7265 93.9685 86.9119 95.8115C87.0385 97.0164 86.6236 98.1423 85.5187 98.3923ZM77.4584 92.5486C75.5622 92.5486 74.0139 93.9736 74.0139 95.7228C74.0139 97.7263 75.812 99.0968 77.8741 98.8827C79.5889 98.7082 80.9899 97.2411 80.8844 95.6016C80.7807 93.9541 79.6412 92.5486 77.4584 92.5486ZM78.1101 98.3923C76.9615 98.6436 75.7441 97.7259 75.4421 96.1667C75.1072 94.4521 75.6594 93.3228 76.7437 93.0444C78.0263 92.7193 79.3313 93.9685 79.5219 95.8115C79.6463 97.0164 79.2293 98.1423 78.1101 98.3923ZM69.5486 96.3897L71.6267 96.3301V98.0849C71.6267 98.3379 71.6302 98.3733 71.2076 98.5068C70.616 98.6614 69.9492 98.6926 69.3377 98.6419C67.2643 98.4701 65.6866 96.8686 65.3115 94.8756C64.9515 92.9781 65.8715 91.1854 67.4155 90.4493C68.1696 90.0886 69.0767 89.9159 70.0589 90.2267C70.6717 90.4138 71.2331 90.7647 71.7192 91.242L71.3787 91.8379L72.0178 91.6715L72.9992 90.6853C71.3298 89.3381 68.4648 89.162 66.5655 90.0979C64.9156 90.9163 63.7139 92.5351 63.6577 94.3448C63.5903 96.244 64.7311 97.7546 65.8784 98.5076C67.7764 99.7594 71.0637 99.4841 73.0459 98.503L73.0377 98.3231H73.0459V96.3301L73.5044 95.7988H70.6198L69.5486 96.3897Z" fill="#666666"/>
<path d="M44.928 116.001C45.4436 116.835 45.4548 118.148 45.0097 119.053L51.1556 109.049C51.7048 108.153 51.7048 106.691 51.1556 105.799L41.2229 89.6263C40.6714 88.7352 39.3487 88.0012 38.2822 88.0012H29.6243C28.5595 88.0012 28.1355 88.7348 28.6844 89.6267L34.8687 99.6882C34.9063 99.7389 34.9594 99.7849 34.9918 99.8318L44.928 116.001Z" fill="url(#paint6_radial)"/>
<path d="M29.6239 126.84H38.2818C39.3488 126.84 40.6707 126.112 41.223 125.214L45.0107 119.052C45.4549 118.148 45.4445 116.834 44.929 116L38.6241 105.797C39.1716 106.689 39.1716 108.15 38.6241 109.047L32.4748 119.045C32.4428 119.112 32.4281 119.19 32.3935 119.252L28.6197 125.392C28.2333 126.2 28.6309 126.84 29.6239 126.84Z" fill="url(#paint7_radial)"/>
<path d="M44.9274 116.001L38.6225 105.798C39.17 106.69 39.17 108.152 38.6225 109.048L36.4017 112.664L45.0086 119.053C45.4542 118.149 45.4429 116.834 44.9274 116.001Z" fill="url(#paint8_linear)"/>
<path d="M7.63965 98.8403C7.1293 98.0058 7.11244 96.6915 7.561 95.7877L1.41124 105.794C0.861989 106.69 0.861989 108.152 1.41124 109.045L11.3504 125.214C11.8988 126.106 13.2225 126.84 14.2851 126.84H22.943C24.0117 126.84 24.436 126.107 23.8868 125.214L17.6998 115.153C17.6653 115.101 17.6091 115.057 17.5784 115.009L7.63965 98.8403Z" fill="url(#paint9_radial)"/>
<path d="M22.9438 88.0012H14.2859C13.2232 88.0012 11.8996 88.7306 11.3512 89.6267L7.56136 95.7885C7.1128 96.6922 7.12965 98.0065 7.64001 98.841L13.9488 109.046C13.3996 108.152 13.3996 106.69 13.9488 105.795L20.0951 95.7965C20.1249 95.7298 20.1405 95.6529 20.1807 95.5887L23.9528 89.4498C24.3383 88.6423 23.9368 88.0012 22.9438 88.0012Z" fill="url(#paint10_radial)"/>
<path d="M7.6401 98.84L13.9489 109.045C13.3996 108.151 13.3996 106.689 13.9489 105.794L16.1696 102.179L7.56188 95.7878C7.11332 96.6912 7.13017 98.0059 7.6401 98.84Z" fill="url(#paint11_linear)"/>
</g>
<path d="M66.0277 143.1C67.1777 143.1 68.1577 142.69 68.8077 141.93L67.9677 141.13C67.4577 141.69 66.8277 141.96 66.0977 141.96C64.6477 141.96 63.5977 140.94 63.5977 139.5C63.5977 138.06 64.6477 137.04 66.0977 137.04C66.8277 137.04 67.4577 137.31 67.9677 137.86L68.8077 137.07C68.1577 136.31 67.1777 135.9 66.0377 135.9C63.8877 135.9 62.2877 137.41 62.2877 139.5C62.2877 141.59 63.8877 143.1 66.0277 143.1ZM74.7733 136V138.89H71.1533V136H69.8533V143H71.1533V140H74.7733V143H76.0733V136H74.7733ZM82.989 143H84.349L81.189 136H79.909L76.759 143H78.099L78.789 141.38H82.289L82.989 143ZM79.229 140.36L80.539 137.3L81.859 140.36H79.229ZM91.0192 143L89.4092 140.7C90.3592 140.33 90.8992 139.55 90.8992 138.49C90.8992 136.94 89.7592 136 87.9192 136H85.0392V143H86.3392V140.96H87.9192C88.0092 140.96 88.0992 140.96 88.1892 140.95L89.6192 143H91.0192ZM89.5892 138.49C89.5892 139.37 88.9992 139.89 87.8592 139.89H86.3392V137.1H87.8592C88.9992 137.1 89.5892 137.61 89.5892 138.49ZM93.476 143H94.776V137.1H97.096V136H91.156V137.1H93.476V143ZM99.9733 143.1C101.893 143.1 102.803 142.14 102.803 141.02C102.803 138.45 98.6533 139.42 98.6533 137.93C98.6533 137.4 99.0933 136.98 100.173 136.98C100.783 136.98 101.473 137.16 102.103 137.53L102.513 136.52C101.903 136.12 101.023 135.9 100.183 135.9C98.2633 135.9 97.3633 136.86 97.3633 137.99C97.3633 140.59 101.523 139.6 101.523 141.11C101.523 141.63 101.063 142.02 99.9733 142.02C99.1133 142.02 98.2233 141.7 97.6633 141.25L97.2133 142.26C97.7933 142.76 98.8833 143.1 99.9733 143.1Z" fill="#6D6B6C"/>
<path d="M526.578 25.496C520.332 25.6186 521.633 29.5729 517.231 30.573C512.759 31.5889 512.053 19.6508 507.582 19.6508C503.11 19.6508 502.12 31.2474 496.521 39.2086L496.361 39.434L508.365 46.3633L526.578 35.8488V25.496Z" fill="#36A2EB"/>
<path d="M526.578 25.1364C524.487 22.4527 523.069 19.3674 520.017 19.3674C514.617 19.3674 516.038 28.1768 510.07 28.1768C504.101 28.1768 503.474 18.7011 496.712 27.6085C494.558 30.4466 492.824 33.6112 491.462 36.6057L508.365 46.364L526.578 35.8495V25.1364Z" fill="#FFCE56"/>
<path opacity="0.8" d="M490.151 28.7856C492.2 23.1107 493.084 18.5146 496.997 18.5146C502.965 18.5146 504.385 35.2813 509.502 33.5755C514.617 31.8706 514.049 22.7768 522.007 22.7768C523.521 22.7768 525.068 23.7047 526.579 25.2058V35.8493L508.365 46.3638L490.151 35.8493V28.7856H490.151Z" fill="#FE6184"/>
<path d="M508.351 47.682L489 36.5118V14.1705L508.351 3L527.701 14.1705V36.5115L508.351 47.682ZM491.273 35.1992L508.351 45.0575L525.428 35.1992V15.483L508.351 5.62479L491.273 15.483V35.1992Z" fill="#E7E9ED"/>
<path d="M488.224 61.1C489.374 61.1 490.354 60.69 491.004 59.93L490.164 59.13C489.654 59.69 489.024 59.96 488.294 59.96C486.844 59.96 485.794 58.94 485.794 57.5C485.794 56.06 486.844 55.04 488.294 55.04C489.024 55.04 489.654 55.31 490.164 55.86L491.004 55.07C490.354 54.31 489.374 53.9 488.234 53.9C486.084 53.9 484.484 55.41 484.484 57.5C484.484 59.59 486.084 61.1 488.224 61.1ZM496.969 54V56.89H493.349V54H492.049V61H493.349V58H496.969V61H498.269V54H496.969ZM505.185 61H506.545L503.385 54H502.105L498.955 61H500.295L500.985 59.38H504.485L505.185 61ZM501.425 58.36L502.735 55.3L504.055 58.36H501.425ZM513.215 61L511.605 58.7C512.555 58.33 513.095 57.55 513.095 56.49C513.095 54.94 511.955 54 510.115 54H507.235V61H508.535V58.96H510.115C510.205 58.96 510.295 58.96 510.385 58.95L511.815 61H513.215ZM511.785 56.49C511.785 57.37 511.195 57.89 510.055 57.89H508.535V55.1H510.055C511.195 55.1 511.785 55.61 511.785 56.49ZM515.672 61H516.972V55.1H519.292V54H513.352V55.1H515.672V61ZM520.025 61.07C520.475 61.07 520.845 60.72 520.845 60.24C520.845 59.74 520.475 59.41 520.025 59.41C519.575 59.41 519.205 59.74 519.205 60.24C519.205 60.72 519.575 61.07 520.025 61.07ZM523.624 61.1C525.164 61.1 525.984 60.29 525.984 58.64V54H522.194V55.09H524.684V58.71C524.684 59.57 524.314 60 523.594 60C523.044 60 522.584 59.72 522.204 59.2L521.464 60.09C521.944 60.74 522.744 61.1 523.624 61.1ZM529.777 61.1C531.697 61.1 532.607 60.14 532.607 59.02C532.607 56.45 528.457 57.42 528.457 55.93C528.457 55.4 528.897 54.98 529.977 54.98C530.587 54.98 531.277 55.16 531.907 55.53L532.317 54.52C531.707 54.12 530.827 53.9 529.987 53.9C528.067 53.9 527.167 54.86 527.167 55.99C527.167 58.59 531.327 57.6 531.327 59.11C531.327 59.63 530.867 60.02 529.777 60.02C528.917 60.02 528.027 59.7 527.467 59.25L527.017 60.26C527.597 60.76 528.687 61.1 529.777 61.1Z" fill="#6D6B6C"/>
<path d="M203.638 24.8763C203.638 25.9177 203.512 26.8918 203.261 27.7985C203.009 28.6963 202.641 29.4773 202.157 30.1417C201.672 30.806 201.07 31.3267 200.352 31.7037C199.643 32.0808 198.83 32.2693 197.915 32.2693C197.026 32.2693 196.24 32.1257 195.558 31.8384C194.885 31.5511 194.306 31.1382 193.821 30.5995V37.602H191.33V17.4295H193.605L193.727 19.0185C194.211 18.417 194.795 17.9592 195.477 17.6449C196.169 17.3218 196.968 17.1602 197.874 17.1602C198.808 17.1602 199.634 17.3442 200.352 17.7123C201.07 18.0804 201.672 18.5921 202.157 19.2474C202.641 19.9028 203.009 20.6883 203.261 21.604C203.512 22.5108 203.638 23.5073 203.638 24.5935V24.8763ZM201.147 24.5935C201.147 23.8843 201.066 23.211 200.904 22.5736C200.752 21.9272 200.509 21.3616 200.177 20.8769C199.854 20.3831 199.441 19.9926 198.938 19.7053C198.435 19.418 197.834 19.2744 197.134 19.2744C196.335 19.2744 195.661 19.4629 195.114 19.8399C194.575 20.208 194.144 20.6838 193.821 21.2674V28.2833C194.144 28.8579 194.575 29.3292 195.114 29.6973C195.652 30.0564 196.335 30.2359 197.161 30.2359C197.852 30.2359 198.449 30.0923 198.952 29.805C199.454 29.5087 199.867 29.1137 200.19 28.62C200.514 28.1262 200.752 27.5561 200.904 26.9097C201.066 26.2634 201.147 25.5856 201.147 24.8763V24.5935ZM217.205 32C217.107 31.8115 217.026 31.5781 216.963 31.2998C216.909 31.0125 216.869 30.7162 216.842 30.411C216.59 30.6623 216.308 30.9003 215.993 31.1247C215.688 31.3491 215.347 31.5466 214.97 31.7172C214.602 31.8878 214.207 32.0224 213.785 32.1212C213.363 32.2199 212.914 32.2693 212.438 32.2693C211.666 32.2693 210.966 32.1571 210.338 31.9327C209.718 31.7082 209.188 31.4075 208.749 31.0304C208.318 30.6444 207.981 30.191 207.739 29.6703C207.505 29.1407 207.388 28.5706 207.388 27.9601C207.388 27.1611 207.546 26.4609 207.86 25.8594C208.183 25.2579 208.636 24.7596 209.22 24.3646C209.803 23.9606 210.504 23.6599 211.321 23.4624C212.147 23.2649 213.067 23.1661 214.081 23.1661H216.801V22.0215C216.801 21.5816 216.721 21.1866 216.559 20.8365C216.397 20.4863 216.168 20.1901 215.872 19.9477C215.576 19.6963 215.212 19.5033 214.781 19.3686C214.36 19.234 213.884 19.1666 213.354 19.1666C212.86 19.1666 212.416 19.2295 212.021 19.3552C211.635 19.4808 211.307 19.6469 211.038 19.8534C210.769 20.0599 210.558 20.3068 210.405 20.5941C210.261 20.8724 210.189 21.1641 210.189 21.4694H207.685C207.694 20.9397 207.828 20.419 208.089 19.9073C208.358 19.3956 208.74 18.9377 209.233 18.5337C209.736 18.1208 210.342 17.7886 211.051 17.5372C211.77 17.2858 212.582 17.1602 213.489 17.1602C214.315 17.1602 215.082 17.2634 215.791 17.4699C216.501 17.6674 217.111 17.9726 217.623 18.3856C218.144 18.7896 218.552 19.2968 218.848 19.9073C219.145 20.5177 219.293 21.2315 219.293 22.0484V28.822C219.293 29.3067 219.338 29.823 219.427 30.3706C219.517 30.9092 219.643 31.3806 219.804 31.7845V32H217.205ZM212.802 30.1013C213.287 30.1013 213.74 30.0384 214.162 29.9127C214.584 29.787 214.966 29.621 215.307 29.4145C215.657 29.208 215.958 28.9746 216.209 28.7142C216.46 28.4449 216.658 28.1666 216.801 27.8793V24.9302H214.485C213.031 24.9302 211.9 25.1457 211.092 25.5766C210.284 26.0075 209.88 26.6853 209.88 27.61C209.88 27.9691 209.938 28.3013 210.055 28.6065C210.18 28.9117 210.365 29.1766 210.607 29.401C210.849 29.6165 211.155 29.787 211.523 29.9127C211.891 30.0384 212.317 30.1013 212.802 30.1013ZM236.213 24.8763C236.213 25.9177 236.088 26.8918 235.836 27.7985C235.585 28.6963 235.217 29.4773 234.732 30.1417C234.247 30.806 233.646 31.3267 232.928 31.7037C232.218 32.0808 231.406 32.2693 230.49 32.2693C229.601 32.2693 228.816 32.1257 228.134 31.8384C227.46 31.5511 226.881 31.1382 226.396 30.5995V37.602H223.905V17.4295H226.181L226.302 19.0185C226.787 18.417 227.37 17.9592 228.053 17.6449C228.744 17.3218 229.543 17.1602 230.45 17.1602C231.383 17.1602 232.209 17.3442 232.928 17.7123C233.646 18.0804 234.247 18.5921 234.732 19.2474C235.217 19.9028 235.585 20.6883 235.836 21.604C236.088 22.5108 236.213 23.5073 236.213 24.5935V24.8763ZM233.722 24.5935C233.722 23.8843 233.641 23.211 233.48 22.5736C233.327 21.9272 233.085 21.3616 232.752 20.8769C232.429 20.3831 232.016 19.9926 231.514 19.7053C231.011 19.418 230.409 19.2744 229.709 19.2744C228.91 19.2744 228.237 19.4629 227.689 19.8399C227.151 20.208 226.72 20.6838 226.396 21.2674V28.2833C226.72 28.8579 227.151 29.3292 227.689 29.6973C228.228 30.0564 228.91 30.2359 229.736 30.2359C230.427 30.2359 231.024 30.0923 231.527 29.805C232.03 29.5087 232.443 29.1137 232.766 28.62C233.089 28.1262 233.327 27.5561 233.48 26.9097C233.641 26.2634 233.722 25.5856 233.722 24.8763V24.5935ZM246.643 32.2693C245.62 32.2693 244.677 32.0943 243.815 31.7441C242.962 31.394 242.231 30.9047 241.62 30.2763C241.01 29.6479 240.534 28.9028 240.193 28.0409C239.852 27.1791 239.681 26.2409 239.681 25.2265V24.6609C239.681 23.4848 239.87 22.4345 240.247 21.5098C240.624 20.5761 241.122 19.7906 241.742 19.1532C242.37 18.5068 243.079 18.013 243.869 17.6719C244.668 17.3307 245.485 17.1602 246.32 17.1602C247.37 17.1602 248.286 17.3442 249.067 17.7123C249.857 18.0714 250.513 18.5741 251.033 19.2205C251.554 19.8579 251.94 20.612 252.191 21.4828C252.452 22.3537 252.582 23.2963 252.582 24.3108V25.4285H242.172C242.199 26.0928 242.325 26.7167 242.549 27.3003C242.783 27.8838 243.097 28.3955 243.492 28.8354C243.896 29.2663 244.376 29.6075 244.933 29.8589C245.49 30.1102 246.105 30.2359 246.778 30.2359C247.667 30.2359 248.457 30.0564 249.148 29.6973C249.839 29.3382 250.414 28.8624 250.872 28.2698L252.393 29.4549C252.151 29.823 251.846 30.1776 251.478 30.5187C251.119 30.8509 250.701 31.1471 250.225 31.4075C249.749 31.6678 249.211 31.8743 248.609 32.0269C248.008 32.1885 247.352 32.2693 246.643 32.2693ZM246.32 19.207C245.817 19.207 245.341 19.3013 244.893 19.4898C244.444 19.6694 244.04 19.9387 243.681 20.2978C243.322 20.6479 243.016 21.0833 242.765 21.604C242.523 22.1157 242.352 22.7083 242.253 23.3816H250.091V23.1931C250.064 22.7083 249.969 22.228 249.808 21.7522C249.655 21.2764 249.426 20.8499 249.121 20.4729C248.816 20.0958 248.43 19.7906 247.963 19.5572C247.505 19.3237 246.957 19.207 246.32 19.207ZM266.042 17.1602C266.275 17.1602 266.517 17.1691 266.769 17.1871C267.02 17.1961 267.258 17.2185 267.483 17.2544C267.716 17.2814 267.927 17.3173 268.115 17.3622C268.313 17.407 268.475 17.4564 268.6 17.5103L268.264 19.9477C267.779 19.8399 267.316 19.7636 266.877 19.7188C266.446 19.6649 265.992 19.638 265.516 19.638C264.349 19.638 263.402 19.9028 262.675 20.4325C261.957 20.9621 261.427 21.7028 261.086 22.6544V32H258.581V17.4295H260.951L261.073 19.7457C261.665 18.9467 262.374 18.3183 263.2 17.8604C264.035 17.3936 264.982 17.1602 266.042 17.1602ZM277.118 30.384C277.118 30.1147 277.158 29.8633 277.239 29.6299C277.329 29.3965 277.455 29.1945 277.616 29.024C277.778 28.8444 277.98 28.7052 278.222 28.6065C278.465 28.5077 278.747 28.4584 279.071 28.4584C279.394 28.4584 279.677 28.5077 279.919 28.6065C280.17 28.7052 280.377 28.8444 280.538 29.024C280.709 29.1945 280.835 29.3965 280.915 29.6299C281.005 29.8633 281.05 30.1147 281.05 30.384C281.05 30.6444 281.005 30.8913 280.915 31.1247C280.835 31.3491 280.709 31.5466 280.538 31.7172C280.377 31.8878 280.17 32.018 279.919 32.1077C279.677 32.2065 279.394 32.2559 279.071 32.2559C278.747 32.2559 278.465 32.2065 278.222 32.1077C277.98 32.018 277.778 31.8878 277.616 31.7172C277.455 31.5466 277.329 31.3491 277.239 31.1247C277.158 30.8913 277.118 30.6444 277.118 30.384ZM290.753 17.4295H298.105V32.0943C298.105 33.0279 297.975 33.8539 297.715 34.5721C297.464 35.2903 297.091 35.8918 296.597 36.3765C296.112 36.8703 295.515 37.2429 294.806 37.4942C294.106 37.7546 293.307 37.8848 292.409 37.8848C291.897 37.8848 291.417 37.8668 290.968 37.8309C290.528 37.804 290.062 37.7456 289.568 37.6558L289.743 35.609C289.895 35.6359 290.089 35.6583 290.322 35.6763C290.555 35.7032 290.789 35.7212 291.022 35.7302C291.265 35.7481 291.493 35.7571 291.709 35.7571C291.933 35.7661 292.108 35.7706 292.234 35.7706C292.701 35.7706 293.141 35.7077 293.554 35.582C293.967 35.4653 294.326 35.2633 294.631 34.976C294.936 34.6888 295.174 34.3072 295.345 33.8314C295.524 33.3646 295.614 32.7855 295.614 32.0943V19.5976H290.753V17.4295ZM295.264 13.5916C295.264 13.1876 295.385 12.8465 295.628 12.5682C295.87 12.2809 296.243 12.1372 296.745 12.1372C297.248 12.1372 297.625 12.2809 297.877 12.5682C298.128 12.8465 298.254 13.1876 298.254 13.5916C298.254 13.9956 298.128 14.3367 297.877 14.615C297.625 14.8844 297.248 15.019 296.745 15.019C296.243 15.019 295.87 14.8844 295.628 14.615C295.385 14.3367 295.264 13.9956 295.264 13.5916ZM315.04 28.1352C315.04 27.8389 314.981 27.5741 314.864 27.3407C314.748 27.0983 314.55 26.8783 314.272 26.6808C313.994 26.4833 313.626 26.3038 313.168 26.1422C312.71 25.9716 312.14 25.819 311.458 25.6843C310.623 25.5137 309.86 25.3073 309.168 25.0649C308.486 24.8225 307.898 24.5352 307.404 24.203C306.919 23.8619 306.542 23.4669 306.273 23.018C306.004 22.5601 305.869 22.0305 305.869 21.429C305.869 20.8365 306.008 20.2843 306.286 19.7726C306.565 19.2519 306.955 18.7986 307.458 18.4125C307.961 18.0265 308.558 17.7213 309.249 17.4968C309.949 17.2724 310.717 17.1602 311.552 17.1602C312.45 17.1602 313.258 17.2769 313.976 17.5103C314.694 17.7437 315.304 18.0669 315.807 18.4799C316.31 18.8928 316.696 19.3776 316.965 19.9342C317.244 20.4818 317.383 21.0744 317.383 21.7118H314.891C314.891 21.3975 314.811 21.0923 314.649 20.7961C314.487 20.4908 314.263 20.2215 313.976 19.9881C313.688 19.7547 313.338 19.5661 312.925 19.4225C312.521 19.2789 312.064 19.207 311.552 19.207C311.022 19.207 310.555 19.2654 310.151 19.3821C309.756 19.4988 309.424 19.6559 309.155 19.8534C308.894 20.0509 308.697 20.2798 308.562 20.5402C308.428 20.8005 308.36 21.0699 308.36 21.3482C308.36 21.6355 308.414 21.8913 308.522 22.1157C308.63 22.3402 308.814 22.5422 309.074 22.7217C309.343 22.9013 309.698 23.0629 310.138 23.2065C310.587 23.3502 311.152 23.4893 311.835 23.624C312.732 23.8125 313.536 24.0324 314.245 24.2838C314.954 24.5262 315.551 24.8225 316.036 25.1726C316.521 25.5137 316.889 25.9132 317.14 26.3711C317.401 26.8289 317.531 27.3586 317.531 27.9601C317.531 28.6065 317.383 29.1945 317.086 29.7242C316.799 30.2539 316.395 30.7072 315.874 31.0843C315.354 31.4613 314.73 31.7531 314.003 31.9596C313.275 32.1661 312.481 32.2693 311.619 32.2693C310.632 32.2693 309.752 32.1392 308.98 31.8788C308.208 31.6095 307.552 31.2594 307.014 30.8284C306.484 30.3885 306.076 29.8813 305.788 29.3067C305.51 28.7322 305.371 28.1352 305.371 27.5157H307.862C307.898 28.0274 308.033 28.4584 308.266 28.8085C308.508 29.1586 308.805 29.4414 309.155 29.6569C309.514 29.8723 309.909 30.0249 310.34 30.1147C310.771 30.2045 311.197 30.2494 311.619 30.2494C312.669 30.2494 313.5 30.0564 314.11 29.6703C314.721 29.2843 315.031 28.7726 315.04 28.1352Z" fill="#049EF4"/>
<path d="M8.24137 13.9013V17.4295H13.7895V19.3552H8.24137V27.2733C8.24137 27.8389 8.31319 28.3057 8.45683 28.6738C8.60047 29.0419 8.79797 29.3382 9.04934 29.5626C9.30071 29.7781 9.58799 29.9307 9.91118 30.0205C10.2434 30.1102 10.5935 30.1551 10.9616 30.1551C11.2309 30.1551 11.5092 30.1417 11.7965 30.1147C12.0837 30.0788 12.362 30.0384 12.6314 29.9935C12.9097 29.9486 13.1655 29.9037 13.399 29.8589C13.6413 29.805 13.8388 29.7601 13.9915 29.7242L14.3416 31.4883C14.1351 31.614 13.8837 31.7262 13.5875 31.8249C13.2912 31.9147 12.968 31.991 12.6179 32.0539C12.2678 32.1257 11.8952 32.1796 11.5002 32.2155C11.1142 32.2514 10.7281 32.2693 10.3421 32.2693C9.69572 32.2693 9.08974 32.1796 8.52416 32C7.96755 31.8115 7.48276 31.5197 7.0698 31.1247C6.65683 30.7207 6.32915 30.2045 6.08676 29.5761C5.85334 28.9387 5.73664 28.1711 5.73664 27.2733V19.3552H1.91221V17.4295H5.73664V13.9013H8.24137ZM21.1221 19.5976C21.6428 18.8345 22.2847 18.2419 23.0478 17.82C23.8109 17.3891 24.6683 17.1691 25.6199 17.1602C26.383 17.1602 27.0742 17.2724 27.6937 17.4968C28.3221 17.7123 28.8563 18.0534 29.2962 18.5203C29.7361 18.9871 30.0727 19.5796 30.3061 20.2978C30.5485 21.007 30.6697 21.8509 30.6697 22.8295V32H28.1785V22.8025C28.1785 21.6085 27.8912 20.7197 27.3166 20.1362C26.751 19.5527 25.9386 19.2654 24.8792 19.2744C24.0802 19.2744 23.353 19.4719 22.6977 19.8669C22.0513 20.2529 21.5261 20.7691 21.1221 21.4155V32H18.6309V11.3158H21.1221V19.5976ZM44.4662 17.1602C44.6996 17.1602 44.942 17.1691 45.1934 17.1871C45.4448 17.1961 45.6827 17.2185 45.9071 17.2544C46.1405 17.2814 46.3515 17.3173 46.54 17.3622C46.7375 17.407 46.8991 17.4564 47.0248 17.5103L46.6881 19.9477C46.2034 19.8399 45.741 19.7636 45.3011 19.7188C44.8702 19.6649 44.4168 19.638 43.941 19.638C42.7739 19.638 41.8268 19.9028 41.0996 20.4325C40.3814 20.9621 39.8518 21.7028 39.5106 22.6544V32H37.0059V17.4295H39.376L39.4971 19.7457C40.0897 18.9467 40.7989 18.3183 41.6248 17.8604C42.4597 17.3936 43.4069 17.1602 44.4662 17.1602ZM57.6432 32.2693C56.6198 32.2693 55.6772 32.0943 54.8153 31.7441C53.9624 31.394 53.2308 30.9047 52.6203 30.2763C52.0098 29.6479 51.534 28.9028 51.1929 28.0409C50.8517 27.1791 50.6812 26.2409 50.6812 25.2265V24.6609C50.6812 23.4848 50.8697 22.4345 51.2467 21.5098C51.6238 20.5761 52.1221 19.7906 52.7415 19.1532C53.3699 18.5068 54.0792 18.013 54.8692 17.6719C55.6682 17.3307 56.4851 17.1602 57.32 17.1602C58.3704 17.1602 59.2861 17.3442 60.0672 17.7123C60.8572 18.0714 61.5125 18.5741 62.0332 19.2205C62.5539 19.8579 62.94 20.612 63.1913 21.4828C63.4517 22.3537 63.5819 23.2963 63.5819 24.3108V25.4285H53.1724C53.1994 26.0928 53.325 26.7167 53.5495 27.3003C53.7829 27.8838 54.0971 28.3955 54.4921 28.8354C54.8961 29.2663 55.3764 29.6075 55.933 29.8589C56.4896 30.1102 57.1046 30.2359 57.7779 30.2359C58.6667 30.2359 59.4567 30.0564 60.148 29.6973C60.8392 29.3382 61.4138 28.8624 61.8716 28.2698L63.3933 29.4549C63.1509 29.823 62.8457 30.1776 62.4776 30.5187C62.1185 30.8509 61.7011 31.1471 61.2253 31.4075C60.7495 31.6678 60.2108 31.8743 59.6093 32.0269C59.0078 32.1885 58.3525 32.2693 57.6432 32.2693ZM57.32 19.207C56.8173 19.207 56.3415 19.3013 55.8926 19.4898C55.4437 19.6694 55.0398 19.9387 54.6807 20.2978C54.3215 20.6479 54.0163 21.0833 53.7649 21.604C53.5226 22.1157 53.352 22.7083 53.2532 23.3816H61.0906V23.1931C61.0637 22.7083 60.9694 22.228 60.8078 21.7522C60.6552 21.2764 60.4263 20.8499 60.121 20.4729C59.8158 20.0958 59.4298 19.7906 58.9629 19.5572C58.5051 19.3237 57.9574 19.207 57.32 19.207ZM73.931 32.2693C72.9075 32.2693 71.9649 32.0943 71.1031 31.7441C70.2502 31.394 69.5185 30.9047 68.908 30.2763C68.2976 29.6479 67.8218 28.9028 67.4806 28.0409C67.1395 27.1791 66.9689 26.2409 66.9689 25.2265V24.6609C66.9689 23.4848 67.1574 22.4345 67.5345 21.5098C67.9115 20.5761 68.4098 19.7906 69.0292 19.1532C69.6577 18.5068 70.3669 18.013 71.1569 17.6719C71.9559 17.3307 72.7729 17.1602 73.6078 17.1602C74.6582 17.1602 75.5739 17.3442 76.3549 17.7123C77.1449 18.0714 77.8003 18.5741 78.321 19.2205C78.8417 19.8579 79.2277 20.612 79.4791 21.4828C79.7394 22.3537 79.8696 23.2963 79.8696 24.3108V25.4285H69.4602C69.4871 26.0928 69.6128 26.7167 69.8372 27.3003C70.0706 27.8838 70.3849 28.3955 70.7799 28.8354C71.1838 29.2663 71.6641 29.6075 72.2208 29.8589C72.7774 30.1102 73.3923 30.2359 74.0656 30.2359C74.9544 30.2359 75.7444 30.0564 76.4357 29.6973C77.127 29.3382 77.7015 28.8624 78.1594 28.2698L79.6811 29.4549C79.4387 29.823 79.1334 30.1776 78.7654 30.5187C78.4063 30.8509 77.9888 31.1471 77.513 31.4075C77.0372 31.6678 76.4985 31.8743 75.897 32.0269C75.2956 32.1885 74.6402 32.2693 73.931 32.2693ZM73.6078 19.207C73.105 19.207 72.6292 19.3013 72.1804 19.4898C71.7315 19.6694 71.3275 19.9387 70.9684 20.2978C70.6093 20.6479 70.3041 21.0833 70.0527 21.604C69.8103 22.1157 69.6397 22.7083 69.541 23.3816H77.3783V23.1931C77.3514 22.7083 77.2571 22.228 77.0955 21.7522C76.9429 21.2764 76.714 20.8499 76.4088 20.4729C76.1035 20.0958 75.7175 19.7906 75.2507 19.5572C74.7928 19.3237 74.2452 19.207 73.6078 19.207ZM88.118 30.384C88.118 30.1147 88.1584 29.8633 88.2392 29.6299C88.3289 29.3965 88.4546 29.1945 88.6162 29.024C88.7778 28.8444 88.9798 28.7052 89.2222 28.6065C89.4646 28.5077 89.7474 28.4584 90.0706 28.4584C90.3938 28.4584 90.6766 28.5077 90.919 28.6065C91.1703 28.7052 91.3768 28.8444 91.5384 29.024C91.709 29.1945 91.8347 29.3965 91.9155 29.6299C92.0052 29.8633 92.0501 30.1147 92.0501 30.384C92.0501 30.6444 92.0052 30.8913 91.9155 31.1247C91.8347 31.3491 91.709 31.5466 91.5384 31.7172C91.3768 31.8878 91.1703 32.018 90.919 32.1077C90.6766 32.2065 90.3938 32.2559 90.0706 32.2559C89.7474 32.2559 89.4646 32.2065 89.2222 32.1077C88.9798 32.018 88.7778 31.8878 88.6162 31.7172C88.4546 31.5466 88.3289 31.3491 88.2392 31.1247C88.1584 30.8913 88.118 30.6444 88.118 30.384ZM101.753 17.4295H109.105V32.0943C109.105 33.0279 108.975 33.8539 108.715 34.5721C108.464 35.2903 108.091 35.8918 107.597 36.3765C107.112 36.8703 106.515 37.2429 105.806 37.4942C105.106 37.7546 104.307 37.8848 103.409 37.8848C102.897 37.8848 102.417 37.8668 101.968 37.8309C101.528 37.804 101.062 37.7456 100.568 37.6558L100.743 35.609C100.895 35.6359 101.089 35.6583 101.322 35.6763C101.555 35.7032 101.789 35.7212 102.022 35.7302C102.265 35.7481 102.493 35.7571 102.709 35.7571C102.933 35.7661 103.108 35.7706 103.234 35.7706C103.701 35.7706 104.141 35.7077 104.554 35.582C104.967 35.4653 105.326 35.2633 105.631 34.976C105.936 34.6888 106.174 34.3072 106.345 33.8314C106.524 33.3646 106.614 32.7855 106.614 32.0943V19.5976H101.753V17.4295ZM106.264 13.5916C106.264 13.1876 106.385 12.8465 106.628 12.5682C106.87 12.2809 107.243 12.1372 107.745 12.1372C108.248 12.1372 108.625 12.2809 108.877 12.5682C109.128 12.8465 109.254 13.1876 109.254 13.5916C109.254 13.9956 109.128 14.3367 108.877 14.615C108.625 14.8844 108.248 15.019 107.745 15.019C107.243 15.019 106.87 14.8844 106.628 14.615C106.385 14.3367 106.264 13.9956 106.264 13.5916ZM126.04 28.1352C126.04 27.8389 125.981 27.5741 125.864 27.3407C125.748 27.0983 125.55 26.8783 125.272 26.6808C124.994 26.4833 124.626 26.3038 124.168 26.1422C123.71 25.9716 123.14 25.819 122.458 25.6843C121.623 25.5137 120.86 25.3073 120.168 25.0649C119.486 24.8225 118.898 24.5352 118.404 24.203C117.919 23.8619 117.542 23.4669 117.273 23.018C117.004 22.5601 116.869 22.0305 116.869 21.429C116.869 20.8365 117.008 20.2843 117.286 19.7726C117.565 19.2519 117.955 18.7986 118.458 18.4125C118.961 18.0265 119.558 17.7213 120.249 17.4968C120.949 17.2724 121.717 17.1602 122.552 17.1602C123.45 17.1602 124.258 17.2769 124.976 17.5103C125.694 17.7437 126.304 18.0669 126.807 18.4799C127.31 18.8928 127.696 19.3776 127.965 19.9342C128.244 20.4818 128.383 21.0744 128.383 21.7118H125.891C125.891 21.3975 125.811 21.0923 125.649 20.7961C125.487 20.4908 125.263 20.2215 124.976 19.9881C124.688 19.7547 124.338 19.5661 123.925 19.4225C123.521 19.2789 123.064 19.207 122.552 19.207C122.022 19.207 121.555 19.2654 121.151 19.3821C120.756 19.4988 120.424 19.6559 120.155 19.8534C119.894 20.0509 119.697 20.2798 119.562 20.5402C119.428 20.8005 119.36 21.0699 119.36 21.3482C119.36 21.6355 119.414 21.8913 119.522 22.1157C119.63 22.3402 119.814 22.5422 120.074 22.7217C120.343 22.9013 120.698 23.0629 121.138 23.2065C121.587 23.3502 122.152 23.4893 122.835 23.624C123.732 23.8125 124.536 24.0324 125.245 24.2838C125.954 24.5262 126.551 24.8225 127.036 25.1726C127.521 25.5137 127.889 25.9132 128.14 26.3711C128.401 26.8289 128.531 27.3586 128.531 27.9601C128.531 28.6065 128.383 29.1945 128.086 29.7242C127.799 30.2539 127.395 30.7072 126.874 31.0843C126.354 31.4613 125.73 31.7531 125.003 31.9596C124.275 32.1661 123.481 32.2693 122.619 32.2693C121.632 32.2693 120.752 32.1392 119.98 31.8788C119.208 31.6095 118.552 31.2594 118.014 30.8284C117.484 30.3885 117.076 29.8813 116.788 29.3067C116.51 28.7322 116.371 28.1352 116.371 27.5157H118.862C118.898 28.0274 119.033 28.4584 119.266 28.8085C119.508 29.1586 119.805 29.4414 120.155 29.6569C120.514 29.8723 120.909 30.0249 121.34 30.1147C121.771 30.2045 122.197 30.2494 122.619 30.2494C123.669 30.2494 124.5 30.0564 125.11 29.6703C125.721 29.2843 126.031 28.7726 126.04 28.1352Z" fill="#049EF4"/>
<path d="M390.582 55.09V54H385.472V61H386.772V58.32H390.152V57.22H386.772V55.09H390.582ZM396.577 61H397.937L394.777 54H393.497L390.347 61H391.687L392.377 59.38H395.877L396.577 61ZM392.817 58.36L394.127 55.3L395.447 58.36H392.817ZM403.587 57.36C404.127 57.07 404.487 56.54 404.487 55.82C404.487 54.71 403.587 54 401.907 54H398.627V61H402.107C403.907 61 404.847 60.3 404.847 59.1C404.847 58.19 404.337 57.6 403.587 57.36ZM401.767 55.02C402.667 55.02 403.177 55.34 403.177 55.99C403.177 56.63 402.667 56.95 401.767 56.95H399.927V55.02H401.767ZM402.027 59.98H399.927V57.96H402.027C403.007 57.96 403.537 58.27 403.537 58.97C403.537 59.67 403.007 59.98 402.027 59.98ZM412.014 61L410.404 58.7C411.354 58.33 411.894 57.55 411.894 56.49C411.894 54.94 410.754 54 408.914 54H406.034V61H407.334V58.96H408.914C409.004 58.96 409.094 58.96 409.184 58.95L410.614 61H412.014ZM410.584 56.49C410.584 57.37 409.994 57.89 408.854 57.89H407.334V55.1H408.854C409.994 55.1 410.584 55.61 410.584 56.49ZM413.149 61H414.449V54H413.149V61ZM419.382 61.1C420.532 61.1 421.512 60.69 422.162 59.93L421.322 59.13C420.812 59.69 420.182 59.96 419.452 59.96C418.002 59.96 416.952 58.94 416.952 57.5C416.952 56.06 418.002 55.04 419.452 55.04C420.182 55.04 420.812 55.31 421.322 55.86L422.162 55.07C421.512 54.31 420.532 53.9 419.392 53.9C417.242 53.9 415.642 55.41 415.642 57.5C415.642 59.59 417.242 61.1 419.382 61.1Z" fill="#6D6B6C"/>
<path d="M390.04 41.6143C390.297 42.7211 390.429 43.3951 390.978 44.1389C391.344 44.6349 391.943 44.9197 392.554 44.8479C393.084 44.7859 393.598 44.5575 394.114 44.3579C400.087 42.0497 404.907 37.9855 409.777 33.9961C410.938 33.0453 413.387 30.8439 414.778 29.6873C411.392 27.2833 409.99 25.7965 409.99 25.7965C404.532 30.5537 398.17 36.1229 391.529 38.9085C390.471 39.3525 389.481 39.2085 390.04 41.6145V41.6143ZM396.79 23.7345C398.326 22.5153 401.013 20.4915 402.53 19.3165C406.385 16.3307 410.497 13.8389 415.213 12.4191C417.767 11.6501 418.103 9.07189 416.172 6.79449C415.821 6.38049 415.272 6.10889 414.742 6.22029C405.957 8.06689 399.31 13.4713 391.907 20.2923C394.412 21.6209 396.79 23.7343 396.79 23.7343" fill="#FEC32D"/>
<path d="M402.082 30.1358C396.597 24.5618 385.947 17.8266 380.577 17.579C380.268 17.5647 379.961 17.6335 379.688 17.7783C379.415 17.9231 379.185 18.1385 379.023 18.4024C378.494 19.264 378.323 20.2956 378.165 21.31C378.012 22.29 378.521 23.1266 379.447 23.387C385.863 25.1916 392.095 29.579 397.152 33.768C398.854 32.9612 402.082 30.136 402.082 30.136V30.1358ZM405.076 19.581C411.376 24.8636 418.213 31.1658 425.604 33.4224C426.228 33.613 426.917 33.4558 427.366 32.9806C427.97 32.3414 428.201 31.6834 428.446 31.0432C429.301 28.8062 429.059 28.1518 426.845 27.2964C421.648 25.2878 417.324 21.9498 413.14 18.3818C412.507 17.8416 411.25 16.8042 410.557 16.232C408.265 16.8488 405.076 19.581 405.076 19.581ZM416.427 39.0722C414.62 38.1424 411.838 37.0452 410.025 36.0222C408.56 37.319 405.168 39.9026 405.168 39.9026C407.628 41.5534 411.55 44.0112 414.281 44.7202C414.941 44.8916 415.642 44.6336 416.059 44.092C416.857 43.0546 417.319 41.9534 417.359 40.6428C417.379 39.9854 417.01 39.372 416.427 39.0722ZM401.777 10.1328C398.547 8.17175 394.914 6.69895 392.424 6.16415C391.74 6.01715 391.024 6.31735 390.648 6.91055C389.934 8.03855 389.637 9.17175 389.71 10.4116C389.746 11.0232 390.083 11.5782 390.619 11.8716C392.181 12.7282 394.963 13.396 396.561 14.0966C396.561 14.0966 399.381 11.7086 401.777 10.1328Z" fill="#2C6DB0"/>
<path d="M382.567 26.3349C378.205 28.0357 376.597 28.6123 379.778 33.0251C380.151 33.5423 380.744 33.5457 381.363 33.3989C383.347 32.9283 386.869 30.8909 388.818 29.7525C385.225 27.2569 382.567 26.3349 382.567 26.3349ZM423.883 24.3579C424.96 24.0487 427.009 23.7225 427.948 23.1487C428.372 22.8893 428.657 22.4377 428.718 21.9427C428.872 20.6915 428.552 19.5647 427.944 18.4307C427.781 18.1273 427.532 17.8796 427.228 17.7192C426.924 17.5588 426.579 17.493 426.238 17.5303C424.146 17.7635 420.367 19.3503 418.321 20.2897C421.284 23.0293 423.883 24.3579 423.883 24.3579Z" fill="#FEC32D"/>
<path d="M424.338 114.301L416.651 102.003C419.623 100.773 426.92 99.0511 432.331 102.003C437.743 104.954 439.3 111.431 439.403 114.301H424.338Z" fill="#FF9900"/>
<path d="M424.725 114.22L418.277 127.21C415.672 125.323 410.383 120.009 410.062 113.854C409.741 107.698 414.442 102.978 416.833 101.388L424.725 114.22Z" fill="#66AA33"/>
<path d="M424.8 114.194L439.293 113.686C438.872 116.875 436.715 124.055 431.453 127.266C426.191 130.476 419.803 128.587 417.267 127.24L424.8 114.194Z" fill="#990099"/>
<path d="M367.569 129.763C366.775 129.763 366.149 129.533 365.689 129.074C365.23 128.573 365 127.927 365 127.134V87.8173C365 87.066 365.23 86.4608 365.689 86.0017C366.191 85.5426 366.838 85.313 367.632 85.313H390.442C391.194 85.313 391.779 85.5008 392.196 85.8765C392.614 86.2521 392.823 86.7947 392.823 87.5042C392.823 88.172 392.614 88.6937 392.196 89.0694C391.779 89.445 391.194 89.6328 390.442 89.6328H370.076V104.846H386.114C386.866 104.846 387.451 105.034 387.869 105.409C388.286 105.785 388.495 106.328 388.495 107.037C388.495 107.705 388.286 108.227 387.869 108.602C387.451 108.978 386.866 109.166 386.114 109.166H370.076V127.134C370.076 127.927 369.846 128.573 369.387 129.074C368.969 129.533 368.363 129.763 367.569 129.763Z" fill="black"/>
<path d="M400.446 129.763C399.694 129.763 399.067 129.554 398.566 129.137C398.106 128.678 397.876 128.052 397.876 127.259V87.5042C397.876 86.7112 398.106 86.106 398.566 85.6887C399.067 85.2296 399.694 85 400.446 85C401.156 85 401.741 85.2296 402.2 85.6887C402.702 86.106 402.952 86.7112 402.952 87.5042V127.259C402.952 128.052 402.702 128.678 402.2 129.137C401.741 129.554 401.156 129.763 400.446 129.763Z" fill="black"/>
<path d="M464.881 124.526C466.343 124.652 467.075 125.319 467.075 126.53C467.075 127.239 466.803 127.782 466.26 128.158C462.463 130.196 455.395 129.945 452.395 126.633C450.808 124.88 450.014 122.229 450.014 118.682V102.968H445.815C445.105 102.968 444.541 102.801 444.124 102.467C443.748 102.091 443.56 101.611 443.56 101.027C443.56 100.401 443.748 99.9001 444.124 99.5245C444.541 99.1489 445.105 98.961 445.815 98.961H450.014V91.8866C450.014 91.0936 450.244 90.4884 450.703 90.0711C451.163 89.6119 451.79 89.3824 452.583 89.3824C453.335 89.3824 453.941 89.6119 454.401 90.0711C454.86 90.4884 455.09 91.0936 455.09 91.8866V98.961H462.046C462.714 98.961 463.236 99.1489 463.612 99.5245C464.03 99.9001 464.239 100.401 464.239 101.027C464.239 101.611 464.03 102.091 463.612 102.467C463.236 102.801 462.714 102.968 462.046 102.968H455.09V118.932C455.09 121.228 455.549 122.897 456.468 123.941C457.429 124.942 458.85 125.506 460.73 125.631L464.881 124.526Z" fill="black"/>
<path fill-rule="evenodd" clip-rule="evenodd" d="M424.338 125.585C430.62 125.585 435.714 120.492 435.714 114.209C435.714 107.926 430.62 102.833 424.338 102.833C418.055 102.833 412.962 107.926 412.962 114.209C412.962 120.492 418.055 125.585 424.338 125.585ZM424.338 130.504C433.337 130.504 440.633 123.208 440.633 114.209C440.633 105.209 433.337 97.9138 424.338 97.9138C415.338 97.9138 408.043 105.209 408.043 114.209C408.043 123.208 415.338 130.504 424.338 130.504Z" fill="black"/>
<path fill-rule="evenodd" clip-rule="evenodd" d="M343 169V206.046H358.371C373.883 206.046 376.15 190.179 376.15 186.779C376.15 183.379 373.742 169 358.371 169H343.638H343ZM370.625 169V172.471C372.75 174.265 377 180.092 377 186.779C377 195.138 372.254 200.733 370.625 202.362V206.046H380.046V190.533H391.804V206.046L400.304 192.942V181.821L391.804 169V182.175H380.046V169H370.625ZM403.35 169H392.938L404.696 187.062L392.938 206.046H403.35L410.433 192.942L417.658 206.046H428L415.179 186.779L428 169H417.658L410.433 179.908L403.35 169ZM343 209.446V211.429H428V209.304H343V209.446ZM347.038 214.758V215.75H348.171V219.008H347.038V220H343.921V214.758H347.038ZM359.929 214.758H360.921V216.883H363.046V214.758H364.038V220H363.046V217.875H360.921V220H359.929V214.758ZM374.804 215.75V214.758H380.046V215.75H377.921V220H376.929V215.75H374.804ZM393.929 217.875V216.883H395.063V220H396.054V214.758H395.063V215.75H393.929V216.883H392.938V215.75H392.867H391.804V214.758H390.742V220H391.804V216.883H392.938V217.875H393.929ZM407.812 214.758H406.679V220H406.75H410.929V219.008H407.812V214.758ZM422.688 214.758H421.696V215.75H422.688V216.812H423.75V217.946H422.688V218.938H421.696V219.929H422.688V218.938H423.75V217.946H424.883V218.938H425.875V220H426.867V218.938H425.875V217.946H424.883V216.812H425.875V215.75H426.867V214.758H425.875V215.75H424.883V216.812H423.75V215.75H422.688V214.758ZM352.491 175.871V199.317H358.654C364.746 199.317 366.8 193.65 366.8 186.567C366.8 179.483 362.762 175.871 358.654 175.871H352.491ZM344.912 215.75H346.966V219.008H344.912V215.75Z" fill="#2095F5"/>
<defs>
<linearGradient id="paint0_linear" x1="276.71" y1="88.4847" x2="304.764" y2="119.182" gradientUnits="userSpaceOnUse">
<stop stop-color="#F9A03C"/>
<stop offset="1" stop-color="#F7974E"/>
</linearGradient>
<linearGradient id="paint1_linear" x1="252.98" y1="93.9539" x2="279.667" y2="120.175" gradientUnits="userSpaceOnUse">
<stop stop-color="#F9A03C"/>
<stop offset="1" stop-color="#F7974E"/>
</linearGradient>
<linearGradient id="paint2_linear" x1="265.396" y1="103.05" x2="288.708" y2="130.861" gradientUnits="userSpaceOnUse">
<stop stop-color="#F9A03C"/>
<stop offset="1" stop-color="#F7974E"/>
</linearGradient>
<linearGradient id="paint3_linear" x1="262.439" y1="84.1834" x2="293.683" y2="128.325" gradientUnits="userSpaceOnUse">
<stop stop-color="#F26D58"/>
<stop offset="1" stop-color="#F9A03C"/>
</linearGradient>
<linearGradient id="paint4_linear" x1="279.622" y1="86.2489" x2="312.366" y2="106.278" gradientUnits="userSpaceOnUse">
<stop stop-color="#B84E51"/>
<stop offset="1" stop-color="#F68E48"/>
</linearGradient>
<linearGradient id="paint5_linear" x1="272.572" y1="116.763" x2="273.007" y2="138.045" gradientUnits="userSpaceOnUse">
<stop stop-color="#F9A03C"/>
<stop offset="1" stop-color="#F7974E"/>
</linearGradient>
<radialGradient id="paint6_radial" cx="0" cy="0" r="1" gradientUnits="userSpaceOnUse" gradientTransform="translate(37.853 85.7557) scale(35.4064 34.6024)">
<stop stop-color="#0DA960"/>
<stop offset="1" stop-color="#03914B"/>
</radialGradient>
<radialGradient id="paint7_radial" cx="0" cy="0" r="1" gradientUnits="userSpaceOnUse" gradientTransform="translate(39.0403 107.444) scale(26.2624 25.666)">
<stop stop-color="#FFCD4D"/>
<stop offset="1" stop-color="#F6C338"/>
</radialGradient>
<linearGradient id="paint8_linear" x1="47.3405" y1="112.425" x2="36.1606" y2="112.425" gradientUnits="userSpaceOnUse">
<stop stop-color="#231F20" stop-opacity="0.2"/>
<stop offset="1" stop-color="#F1F2F2" stop-opacity="0.25"/>
</linearGradient>
<radialGradient id="paint9_radial" cx="0" cy="0" r="1" gradientUnits="userSpaceOnUse" gradientTransform="translate(14.7168 129.086) rotate(180) scale(35.4073 34.6032)">
<stop stop-color="#4387FD"/>
<stop offset="1" stop-color="#4683EA"/>
</radialGradient>
<radialGradient id="paint10_radial" cx="0" cy="0" r="1" gradientUnits="userSpaceOnUse" gradientTransform="translate(13.5296 107.399) rotate(180) scale(26.2619 25.6655)">
<stop stop-color="#E04A3F"/>
<stop offset="1" stop-color="#CD372D"/>
</radialGradient>
<linearGradient id="paint11_linear" x1="5.22833" y1="102.416" x2="16.4104" y2="102.416" gradientUnits="userSpaceOnUse">
<stop stop-color="#231F20" stop-opacity="0.2"/>
<stop offset="1" stop-color="#F1F2F2" stop-opacity="0.25"/>
</linearGradient>
<clipPath id="clip0">
<rect width="194" height="43" fill="white" transform="translate(1 88)"/>
</clipPath>
</defs>
</svg>
