<svg width="519" height="146" viewBox="0 0 519 146" fill="none" xmlns="http://www.w3.org/2000/svg">
<path d="M413.994 119.762C413.974 120.179 413.859 120.589 413.648 120.96L409.765 127.687C409.536 128.086 409.206 128.417 408.808 128.648C408.41 128.878 407.958 129 407.498 129H385.953C385.018 129 384.153 128.5 383.686 127.693L373.352 109.813C373.115 109.403 373 108.955 373 108.5C373 108.045 373.09 107.571 373.365 107.11L383.692 89.3069C384.16 88.4997 385.025 88 385.953 88H407.498C408.433 88 409.298 88.4997 409.765 89.3069C409.765 89.3069 413.5 95.4248 413.769 95.8605C414.038 96.2961 413.994 96.847 413.994 97.2955C413.994 97.6798 413.885 98.2052 413.782 98.6216C413.68 99.038 410.553 111.71 410.553 111.71L403.731 97.1994H389.746L383.199 108.5L389.746 119.801H403.724L413.994 119.762Z" fill="url(#paint0_linear)"/>
<path d="M409.009 108.493L413.75 118.545C413.93 118.927 414.014 119.346 413.997 119.768C413.979 120.19 413.859 120.601 413.648 120.966L403.731 119.807L409.009 108.493Z" fill="url(#paint1_linear)"/>
<path d="M383.866 145.1C385.016 145.1 385.996 144.69 386.646 143.93L385.806 143.13C385.296 143.69 384.666 143.96 383.936 143.96C382.486 143.96 381.436 142.94 381.436 141.5C381.436 140.06 382.486 139.04 383.936 139.04C384.666 139.04 385.296 139.31 385.806 139.86L386.646 139.07C385.996 138.31 385.016 137.9 383.876 137.9C381.726 137.9 380.126 139.41 380.126 141.5C380.126 143.59 381.726 145.1 383.866 145.1ZM393.354 138H392.074L390.004 141.41L387.954 138H386.564L389.314 142.55V145H390.614V142.53L393.354 138ZM396.943 145.1C398.093 145.1 399.073 144.69 399.723 143.93L398.883 143.13C398.373 143.69 397.743 143.96 397.013 143.96C395.563 143.96 394.513 142.94 394.513 141.5C394.513 140.06 395.563 139.04 397.013 139.04C397.743 139.04 398.373 139.31 398.883 139.86L399.723 139.07C399.073 138.31 398.093 137.9 396.953 137.9C394.803 137.9 393.203 139.41 393.203 141.5C393.203 143.59 394.803 145.1 396.943 145.1ZM400.768 145H405.728V143.9H402.068V138H400.768V145ZM407.855 143.91V141.98H411.235V140.91H407.855V139.09H411.665V138H406.555V145H411.805V143.91H407.855Z" fill="#51D3D9"/>
<path d="M213 104.819H216.291C217.773 104.819 218.862 105.071 219.557 105.577C220.252 106.083 220.599 106.848 220.599 107.871C220.599 108.57 220.387 109.151 219.963 109.616C219.539 110.081 218.92 110.379 218.105 110.511V110.561C219.062 110.703 219.766 111.007 220.218 111.472C220.669 111.937 220.895 112.585 220.895 113.415C220.895 114.526 220.528 115.381 219.795 115.981C219.062 116.58 218.023 116.88 216.677 116.88H213V104.819ZM213.837 110.189H216.48C217.607 110.189 218.426 110.001 218.937 109.624C219.449 109.247 219.705 108.657 219.705 107.855C219.705 107.051 219.416 106.468 218.839 106.105C218.262 105.743 217.402 105.561 216.258 105.561H213.837V110.189V110.189ZM213.837 110.932V116.138H216.66C218.882 116.138 219.992 115.23 219.992 113.415C219.992 111.76 218.821 110.932 216.48 110.932H213.837ZM229.315 112.623H224.44L222.766 116.88H221.838L226.664 104.769H227.197L231.924 116.88H230.98L229.315 112.623ZM224.744 111.864H229.036L227.402 107.516C227.266 107.175 227.102 106.702 226.91 106.097C226.762 106.625 226.601 107.104 226.426 107.533L224.744 111.864ZM238.736 105.404C237.231 105.404 236.047 105.888 235.182 106.856C234.318 107.824 233.886 109.15 233.886 110.833C233.886 112.554 234.293 113.891 235.108 114.842C235.923 115.794 237.089 116.269 238.604 116.269C239.611 116.269 240.536 116.14 241.378 115.882V116.624C240.585 116.905 239.595 117.045 238.407 117.045C236.722 117.045 235.395 116.498 234.427 115.403C233.459 114.309 232.975 112.78 232.975 110.816C232.975 109.59 233.206 108.509 233.668 107.574C234.13 106.639 234.795 105.917 235.662 105.408C236.53 104.9 237.537 104.645 238.686 104.645C239.857 104.645 240.905 104.865 241.829 105.305L241.493 106.064C240.618 105.624 239.698 105.404 238.736 105.404ZM252.12 116.88H251.094L246.491 110.511L244.891 111.93V116.88H244.053V104.819H244.891V111.088L246.22 109.752L250.922 104.818H251.989L247.073 109.917L252.12 116.88V116.88ZM253.835 104.819H257.126C258.609 104.819 259.698 105.071 260.392 105.577C261.087 106.083 261.435 106.848 261.435 107.871C261.435 108.57 261.223 109.151 260.799 109.616C260.375 110.081 259.755 110.379 258.94 110.511V110.561C259.897 110.703 260.602 111.007 261.053 111.472C261.504 111.937 261.73 112.585 261.73 113.415C261.73 114.526 261.363 115.381 260.63 115.981C259.897 116.58 258.858 116.88 257.512 116.88H253.835V104.819ZM254.673 110.189H257.315C258.442 110.189 259.261 110.001 259.773 109.624C260.284 109.247 260.54 108.657 260.54 107.855C260.54 107.051 260.251 106.468 259.674 106.105C259.097 105.743 258.237 105.561 257.093 105.561H254.673V110.189V110.189ZM254.673 110.932V116.138H257.495C259.717 116.138 260.827 115.23 260.827 113.415C260.827 111.76 259.657 110.932 257.315 110.932H254.672H254.673ZM274.458 110.833C274.458 112.747 273.982 114.261 273.03 115.374C272.078 116.488 270.765 117.045 269.091 117.045C267.423 117.045 266.112 116.488 265.16 115.374C264.208 114.261 263.732 112.741 263.732 110.816C263.732 108.897 264.213 107.386 265.173 106.283C266.133 105.18 267.444 104.629 269.108 104.629C270.782 104.629 272.092 105.183 273.038 106.291C273.985 107.399 274.458 108.913 274.458 110.833ZM264.643 110.833C264.643 112.56 265.026 113.895 265.792 114.838C266.558 115.781 267.658 116.253 269.091 116.253C270.535 116.253 271.639 115.786 272.402 114.851C273.166 113.916 273.547 112.576 273.547 110.833C273.547 109.095 273.166 107.762 272.402 106.836C271.639 105.909 270.541 105.445 269.108 105.445C267.68 105.445 266.578 105.913 265.804 106.848C265.03 107.783 264.643 109.111 264.643 110.833ZM285.931 116.88H285.086L277.979 106.172H277.913C277.979 107.448 278.012 108.41 278.012 109.059V116.88H277.207V104.819H278.045L285.143 115.511H285.192C285.143 114.52 285.118 113.58 285.118 112.689V104.819H285.931V116.88H285.931ZM295.877 116.88H289.32V104.819H295.877V105.594H290.157V110.156H295.557V110.932H290.157V116.105H295.877V116.88H295.877ZM298.24 116.237C298.24 115.698 298.459 115.428 298.897 115.428C299.346 115.428 299.57 115.698 299.57 116.237C299.57 116.776 299.346 117.045 298.897 117.045C298.459 117.045 298.24 116.776 298.24 116.237ZM300.645 119.924C300.142 119.924 299.729 119.85 299.406 119.702V118.976C299.833 119.086 300.24 119.141 300.628 119.141C301.952 119.141 302.615 118.415 302.615 116.963V104.819H303.452V116.88C303.452 118.91 302.516 119.924 300.645 119.924V119.924ZM313.406 113.77C313.406 114.776 313.038 115.574 312.302 116.162C311.566 116.751 310.588 117.045 309.368 117.045C307.902 117.045 306.778 116.883 305.996 116.558V115.717C306.86 116.086 307.962 116.269 309.303 116.269C310.288 116.269 311.069 116.043 311.646 115.589C312.223 115.135 312.512 114.54 312.512 113.803C312.512 113.346 312.415 112.968 312.224 112.668C312.033 112.369 311.721 112.095 311.289 111.847C310.856 111.6 310.222 111.333 309.385 111.047C308.159 110.624 307.313 110.166 306.845 109.674C306.377 109.181 306.143 108.526 306.143 107.706C306.143 106.804 306.495 106.068 307.198 105.499C307.901 104.93 308.805 104.645 309.91 104.645C311.037 104.645 312.096 104.86 313.086 105.289L312.782 106.015C311.787 105.597 310.835 105.388 309.926 105.388C309.04 105.388 308.334 105.594 307.809 106.007C307.284 106.419 307.021 106.98 307.021 107.689C307.021 108.135 307.102 108.501 307.263 108.787C307.425 109.073 307.689 109.33 308.055 109.558C308.422 109.786 309.051 110.06 309.943 110.379C310.879 110.703 311.581 111.018 312.052 111.324C312.522 111.629 312.866 111.975 313.082 112.363C313.298 112.751 313.406 113.22 313.406 113.77Z" fill="#002A41"/>
<path d="M171.124 90.2268V111.132L186.603 120.002V113.972L176.248 108.039V98.7182L186.603 104.652V99.0972L171.124 90.2268Z" fill="#002A41"/>
<path d="M202.08 90.2268V111.132L186.601 120.002V113.972L196.956 108.038V98.7182L186.602 104.652V99.0972L202.08 90.2268Z" fill="#0071B5"/>
<path d="M171.124 128.881V107.977L186.603 99.1055V105.135L176.248 111.07V119.915L186.603 113.981V120.011L171.124 128.882V128.881Z" fill="#0071B5"/>
<path d="M202.08 128.881V107.977L186.601 99.1055V105.135L196.956 111.069V119.915L186.602 113.982V120.011L202.08 128.882L202.08 128.881Z" fill="#002A41"/>
<path d="M114.933 114.992C114.654 112.243 112.664 111.018 110.797 111.018C109.942 111.018 109.261 111.263 109 111.368L108.633 111.526L108.319 111.753C107.883 112.086 107.115 112.541 106.435 112.786C106.4 112.226 106.417 111.508 106.504 110.913L106.522 110.808C107.028 105.975 106.016 103.157 103.52 102.439C103.102 102.316 102.665 102.263 102.229 102.263C100.711 102.263 99.3673 102.999 98.4948 103.629C97.7619 102.701 96.5405 102.176 95.0049 102.176C92.7189 102.176 90.8866 103.244 90.2236 104.96C90.1538 105.135 90.0664 105.397 89.9617 105.748C88.6182 102.771 85.8785 101.633 83.3308 101.633C80.9227 101.633 78.5843 102.579 77.7118 103.244C77.6769 103.279 77.6246 103.296 77.5723 103.349C75.2863 104.977 73.5063 107.026 72.2499 109.494C71.6392 107.358 70.2957 105.363 67.8875 103.857L67.8527 103.822C67.7828 103.787 67.7305 103.752 67.6606 103.717C70.0165 99.5146 72.1104 93.9471 70.854 88.6421C69.5278 82.9869 66.2122 82.1463 64.3451 82.1463C63.5774 82.1463 62.7922 82.2865 61.9895 82.5666L61.9371 82.5842L61.8846 82.6015C58.3772 83.9847 56.8416 86.0683 56.5099 86.5587C56.1611 87.0838 52.322 92.9317 51.3973 101.493C51.2926 102.439 51.1877 103.419 51.0831 104.4C50.5422 103.629 49.6524 102.929 48.2387 102.491C47.8026 102.351 47.3489 102.299 46.8952 102.299C44.9582 102.299 43.3876 103.489 42.55 104.277L42.5325 104.259C41.7996 103.174 40.6306 102.526 39.3391 102.474H39.0251C36.966 102.474 35.3257 103.384 34.1217 104.417C33.354 103.069 31.9403 102.229 30.2828 102.229C30.1431 102.229 30.0209 102.229 29.8987 102.246H29.6195C27.3335 102.246 25.5363 103.332 24.8034 105.135C24.7511 105.275 24.6812 105.45 24.6114 105.678C22.8141 103.437 20.5281 102.386 17.4569 102.386H17.1605C15.2408 102.421 10.4595 103.227 7.52779 109.845C7.07409 110.86 6.72506 111.893 6.4634 112.909C5.93812 112.666 5.3665 112.54 4.7881 112.541C3.25251 112.541 2.10098 113.416 1.54262 114.239C1.08893 114.905 -0.359749 117.268 0.35583 119.579C0.739897 120.822 1.62977 121.768 2.88618 122.258C3.98561 122.696 5.3815 123.116 6.42859 123.414C7.07409 124.884 8.22585 126.583 10.2675 128.141C11.7159 129.244 13.5655 129.804 15.7468 129.804C19.4114 129.804 22.9536 128.211 23.3377 128.036L23.4771 127.966L23.512 127.931C24.21 128.666 25.1349 129.191 26.304 129.419C26.653 129.489 27.1067 129.542 27.6302 129.542C29.6195 129.542 30.9981 128.526 32.2721 126.618C33.3189 128.263 35.2211 129.191 37.472 129.191H37.4896C37.6117 129.191 37.7339 129.279 37.8736 129.279C39.06 129.279 40.5432 128.859 41.7823 126.863C42.8117 128.719 44.6963 129.787 46.9302 129.787C48.9193 129.787 50.6469 128.964 50.9609 128.806L51.0307 128.771C51.6938 128.421 52.2523 128.106 52.6885 127.861C54.1718 128.649 56.4227 129.524 59.1799 129.524C59.6511 129.524 60.1221 129.507 60.5933 129.454L60.7155 129.437L60.8377 129.419C66.6834 128.263 70.4875 126.863 72.7559 125.795C74.3439 127.581 76.8742 129.296 80.4865 129.559C80.8878 129.594 81.3065 129.612 81.7079 129.612C84.6744 129.612 87.0475 128.771 88.7927 127.843C89.351 128.439 90.0491 128.981 90.9565 129.349C91.4973 129.577 92.0557 129.682 92.6316 129.682C96.2611 129.682 97.9539 125.34 98.4251 123.869L99.2975 121.523C100.065 122.346 101.043 123.011 102.282 123.361C102.962 123.554 103.695 123.659 104.445 123.659C108.441 123.659 112.28 120.822 112.891 120.35C113.99 119.439 115.195 117.566 114.933 114.992Z" fill="white"/>
<path d="M78.3247 116.178C78.3247 116.178 77.8187 114.393 79.7033 110.943C81.5704 107.512 83.0364 109.385 83.0364 109.385C83.0364 109.385 84.6416 111.136 82.8096 113.745C80.9773 116.371 78.3247 116.179 78.3247 116.179V116.178ZM63.9285 118.665C61.7822 124.302 56.5647 122.009 56.5647 122.009C56.5647 122.009 55.9713 119.995 57.6639 114.34C59.3567 108.702 63.3351 110.909 63.3351 110.909C63.3351 110.909 66.0748 113.027 63.9285 118.665ZM60.0373 95.0456C60.0373 95.0456 63.2828 86.5541 64.0682 90.6861C64.8534 94.8179 57.2628 107.109 57.2628 107.109C57.3324 104.343 60.0373 95.0458 60.0373 95.0458V95.0456ZM13.6201 116.178C13.7596 110.716 17.3193 108.335 18.5584 109.525C19.7973 110.716 19.3436 113.289 17.0053 114.9C14.6845 116.511 13.6201 116.178 13.6201 116.178ZM111.968 115.285C111.794 113.447 110.136 114.13 110.136 114.13C110.136 114.13 107.484 116.196 105.146 115.968C102.825 115.723 103.558 110.506 103.558 110.506C103.558 110.506 104.064 105.708 102.685 105.306C101.307 104.903 99.6138 106.549 99.6138 106.549C99.6138 106.549 97.5025 108.895 96.5075 111.871L96.2286 111.959C96.2286 111.959 96.5426 106.724 96.1762 105.533C95.8971 104.938 93.3842 104.99 92.9829 106.041C92.564 107.091 90.5572 114.427 90.4177 117.509C90.4177 117.509 86.4915 120.853 83.0537 121.413C79.6162 121.956 78.796 119.803 78.796 119.803C78.796 119.803 88.1317 117.194 87.8002 109.718C87.486 102.241 80.2792 105.008 79.459 105.621C78.6738 106.216 74.4683 108.755 73.2294 115.811C73.1944 116.056 73.1073 117.106 73.1073 117.106C73.1073 117.106 69.495 119.54 67.4884 120.188C67.4884 120.188 73.1073 110.698 66.2493 106.374C63.1433 104.5 60.6655 108.44 60.6655 108.44C60.6655 108.44 69.9487 98.0745 67.8898 89.3027C66.9125 85.1359 64.8359 84.6807 62.9164 85.3635C60.0198 86.5191 58.9203 88.1998 58.9203 88.1998C58.9203 88.1998 55.1686 93.6623 54.296 101.786C53.4237 109.91 52.1497 119.715 52.1497 119.715C52.1497 119.715 50.3698 121.466 48.7295 121.553C47.0893 121.641 47.8221 116.651 47.8221 116.651C47.8221 116.651 49.0961 109.035 49.0087 107.757C48.9216 106.479 48.8342 105.778 47.3161 105.323C45.8153 104.868 44.1575 106.794 44.1575 106.794C44.1575 106.794 39.8126 113.394 39.4461 114.41L39.2192 114.83L38.9924 114.55C38.9924 114.55 42.0636 105.551 39.1321 105.428C36.2004 105.288 34.2809 108.632 34.2809 108.632C34.2809 108.632 30.9479 114.235 30.8084 114.865L30.5815 114.585C30.5815 114.585 31.9601 108.072 31.681 106.461C31.4018 104.85 29.901 105.183 29.901 105.183C29.901 105.183 27.9816 104.955 27.4753 106.198C26.9693 107.441 25.1372 115.653 24.9104 118.262C24.9104 118.262 20.1115 121.711 16.953 121.746C13.7946 121.798 14.1262 119.732 14.1262 119.732C14.1262 119.732 25.6953 115.758 22.537 107.914C21.1236 105.901 19.4658 105.27 17.145 105.306C14.8069 105.358 12.067 106.776 10.1824 110.996C9.29251 113.009 8.92597 114.918 8.92597 116.371C8.92597 116.371 6.76216 116.791 5.66296 115.863C4.56354 114.953 3.93533 115.863 3.93533 115.863C3.93533 115.863 2.01589 118.612 3.883 119.347C5.75011 120.083 8.64679 120.765 8.64679 120.765C8.90867 121.956 9.69388 123.899 11.9799 125.633C15.4001 128.241 21.9962 125.23 21.9962 125.23L24.7008 123.619C24.7008 123.619 24.7882 126.053 26.76 126.421C28.7319 126.788 29.552 126.386 32.9722 118.052C34.979 113.78 35.1185 114.007 35.1185 114.007L35.3453 113.955C35.3453 113.955 33.7924 122.113 34.3856 124.32C34.979 126.526 37.579 126.298 37.579 126.298C37.579 126.298 38.9924 126.806 40.1441 122.761C41.2959 118.717 43.4772 114.497 43.4772 114.497H43.7564C43.7564 114.497 42.7965 122.621 44.2624 125.283C45.7282 127.944 49.5147 126.07 49.5147 126.07C49.5147 126.07 52.1673 124.67 52.5859 124.25C52.5859 124.25 55.727 126.911 60.1768 126.421C70.1059 124.46 73.6308 121.798 73.6308 121.798C73.6308 121.798 75.3409 126.123 80.6107 126.526C86.6484 126.981 89.9465 123.164 89.9465 123.164C89.9465 123.164 89.8942 125.633 92.0056 126.508C94.1169 127.384 95.5305 122.761 95.5305 122.761L99.0554 113.289H99.3696C99.3696 113.289 99.5441 119.347 103.034 120.363C106.542 121.361 111.061 117.859 111.061 117.859C111.061 117.859 112.16 117.124 111.969 115.285" fill="#E24B31"/>
<g clip-path="url(#clip0)">
<path fill-rule="evenodd" clip-rule="evenodd" d="M452.635 9.8919C453.123 9.02383 453.869 8.28158 454.843 8.00606C455.283 7.99788 455.723 7.99914 456.164 8.00197C456.763 8.28032 457.287 8.71624 457.612 9.29904C457.869 9.88341 457.73 10.4955 457.598 11.0893C457.428 11.4478 457.298 11.8259 457.175 12.2026C457.07 12.4292 456.977 12.6607 456.894 12.8962C456.794 13.1231 456.702 13.354 456.62 13.5881C456.52 13.8156 456.428 14.0466 456.345 14.2807C456.246 14.509 456.154 14.7403 456.068 14.9742C455.971 15.2023 455.879 15.4332 455.794 15.6664C455.696 15.8946 455.604 16.1254 455.519 16.3587C455.421 16.5866 455.329 16.8175 455.245 17.0509C455.146 17.2786 455.054 17.5095 454.97 17.7432C454.871 17.9708 454.779 18.2017 454.695 18.4354C454.596 18.6631 454.504 18.894 454.42 19.1277C454.321 19.3553 454.23 19.5862 454.146 19.8199C454.046 20.0476 453.955 20.2785 453.87 20.5122C453.772 20.7402 453.681 20.971 453.596 21.2044C453.497 21.4325 453.405 21.6638 453.321 21.8979C453.221 22.1248 453.13 22.3553 453.047 22.5889C452.947 22.8166 452.855 23.0475 452.771 23.2812C452.672 23.5093 452.581 23.7406 452.497 23.9747C452.335 24.3434 452.192 24.7205 452.068 25.1044C453.801 23.7935 455.505 22.4367 457.29 21.1975C457.473 21.0994 457.659 21.0025 457.843 20.9025C458.45 20.6521 459.113 20.6977 459.753 20.7421C460.207 21.0038 460.637 21.3167 460.903 21.7819C461.238 22.632 461.09 23.6344 460.534 24.3556C460.186 24.793 459.766 25.1613 459.348 25.5281C459.155 25.6583 458.969 25.7967 458.789 25.9435C457.841 26.5984 456.936 27.3129 456.019 28.0093C456.173 28.2389 456.325 28.4716 456.478 28.7028C456.568 28.8456 456.659 28.9868 456.754 29.128C456.963 29.5086 457.198 29.8728 457.441 30.2326C457.733 30.7604 458.072 31.2573 458.406 31.7583C458.534 31.9895 458.666 32.2194 458.809 32.444C458.904 32.5836 458.999 32.7248 459.099 32.8648C459.367 33.363 459.65 33.8602 459.807 34.4097C459.907 34.8154 459.736 35.2142 459.661 35.6074C459.246 36.2691 458.7 36.8755 457.972 37.1884C457.47 37.3532 456.966 37.3768 456.468 37.1843C456.163 36.9683 455.843 36.7535 455.645 36.427C454.951 35.3721 454.257 34.3156 453.56 33.262C453.468 33.1221 453.377 32.9837 453.285 32.8453C453.193 32.7053 453.102 32.5654 453.01 32.4286C452.918 32.2886 452.827 32.1486 452.735 32.0118C452.643 31.8719 452.55 31.7306 452.457 31.5935C451.873 30.576 451.16 29.6429 450.566 28.6339C450.578 28.6779 450.602 28.7679 450.613 28.8122C450.49 29.0378 450.385 29.2718 450.294 29.5114C450.198 29.741 450.107 29.9725 450.026 30.2065C449.926 30.4336 449.832 30.6647 449.75 30.8984C449.65 31.1259 449.559 31.3569 449.476 31.591C449.375 31.8177 449.284 32.0486 449.203 32.2829C448.712 33.4488 448.32 34.6604 447.692 35.7624C447.175 36.3399 446.654 36.989 445.869 37.1884C445.521 37.234 445.179 37.4237 444.824 37.324C444.544 37.2535 444.261 37.2064 443.976 37.162C443.562 36.8006 443.069 36.4559 442.907 35.8996C442.564 35.1199 443.025 34.31 443.238 33.5627C443.339 33.334 443.435 33.1041 443.521 32.8701C443.616 32.6405 443.71 32.4106 443.794 32.1782C443.89 31.9495 443.985 31.7184 444.07 31.4856C444.165 31.2573 444.259 31.0261 444.345 30.7937C444.441 30.5635 444.533 30.3339 444.619 30.0999C444.717 29.8728 444.808 29.6416 444.893 29.4089C444.991 29.1807 445.082 28.95 445.168 28.7169C445.264 28.4867 445.358 28.2571 445.443 28.0231C445.541 27.796 445.633 27.5649 445.718 27.3309C445.815 27.1038 445.908 26.8726 445.993 26.6386C446.091 26.4115 446.183 26.1804 446.268 25.9476C446.365 25.7193 446.457 25.4881 446.542 25.2541C446.639 25.0258 446.732 24.7959 446.817 24.5619C446.915 24.3335 447.007 24.1036 447.092 23.8696C447.19 23.6413 447.282 23.4114 447.367 23.1774C447.465 22.949 447.557 22.7191 447.642 22.4851C447.74 22.2568 447.832 22.0253 447.916 21.7929C448.015 21.5645 448.107 21.3331 448.19 21.1006C448.288 20.8723 448.38 20.6408 448.466 20.4071C448.563 20.18 448.657 19.9486 448.74 19.7149C448.838 19.4878 448.93 19.2563 449.015 19.0226C449.113 18.7955 449.205 18.5644 449.29 18.3304C449.388 18.1033 449.48 17.8721 449.565 17.6381C449.663 17.411 449.755 17.1799 449.839 16.9459C450.03 16.4877 450.214 16.0262 450.388 15.5614C450.488 15.3327 450.58 15.1031 450.665 14.8691C450.763 14.6405 450.855 14.4109 450.94 14.1769C451.037 13.9482 451.129 13.7186 451.213 13.4846C451.311 13.256 451.405 13.0264 451.488 12.7924C451.586 12.5637 451.679 12.3341 451.763 12.1001C451.861 11.873 451.954 11.6419 452.037 11.4079C452.246 10.9065 452.446 10.4014 452.635 9.8919ZM367.402 11.4922C368.986 10.9427 370.681 10.9814 372.332 11.0632C372.601 11.1169 372.868 11.1877 373.143 11.2141C374.054 11.4909 374.939 11.8482 375.763 12.3338C376.798 13.0956 377.73 14.0218 378.363 15.1541C378.517 15.5683 378.684 15.9781 378.84 16.3904C379.064 17.3418 379.034 18.3206 379.007 19.2912C378.916 20.3722 378.592 21.4136 378.282 22.4477C378.12 22.809 377.98 23.1804 377.864 23.5595C377.647 23.9929 377.497 24.4581 377.259 24.8805C377.683 24.3181 378.22 23.857 378.689 23.3337C379.455 22.4049 380.348 21.5947 381.161 20.7075C382.116 19.5501 383.268 18.5725 384.215 17.4066C385.933 15.7136 387.474 13.8501 389.242 12.2052C389.526 12.0227 389.808 11.834 390.088 11.6431C390.793 11.2431 391.605 11.2582 392.39 11.3274C393.004 11.6334 393.61 12.0834 393.856 12.7534C394.084 13.2755 393.982 13.857 393.982 14.4077C393.779 14.7804 393.597 15.1654 393.394 15.5378C393.296 15.6774 393.202 15.8202 393.11 15.9643C392.538 16.5455 392.058 17.2116 391.464 17.7724C390.79 18.4798 390.075 19.1541 389.456 19.9143C388.526 20.9122 387.517 21.8401 386.644 22.8909C385.946 23.619 385.231 24.3291 384.541 25.0657C383.803 25.9643 382.942 26.7506 382.148 27.5979C382.233 27.785 382.318 27.9719 382.405 28.1587C382.567 28.6751 382.73 29.1916 382.95 29.6872C383.122 30.198 383.279 30.7157 383.5 31.2101C383.672 31.7212 383.829 32.2386 384.05 32.733C384.222 33.2441 384.378 33.7618 384.6 34.2546C384.771 34.767 384.928 35.2847 385.149 35.7775C385.32 36.2886 385.481 36.805 385.698 37.2991C385.82 37.6785 385.947 38.0593 386.124 38.4191C386.139 38.483 386.168 38.6088 386.184 38.6711C386.346 39.0878 386.476 39.5171 386.649 39.931C386.725 40.1182 386.811 40.3009 386.902 40.4821C387.345 41.1677 388.184 41.4929 388.971 41.5052C429.614 41.5039 470.257 41.5067 510.901 41.5039C511.268 41.4998 511.617 41.6395 511.982 41.67C512.27 41.8169 512.558 41.9622 512.85 42.1021C513.083 42.3651 513.262 42.667 513.434 42.9743C513.457 43.5108 513.455 44.0482 513.427 44.5846C513.365 44.7299 513.308 44.8752 513.257 45.0249C512.921 45.62 512.422 46.099 511.845 46.4547C511.263 46.6321 510.688 46.8881 510.075 46.906C469.017 46.9076 427.959 46.906 386.901 46.9076C386.403 46.9227 385.93 46.729 385.431 46.7485C384.923 46.5544 384.378 46.427 383.926 46.1087C383.341 45.7612 383.008 45.1451 382.619 44.6094C382.454 44.2783 382.288 43.9502 382.128 43.6181C382.021 43.3397 381.913 43.0614 381.782 42.7928C381.763 42.7096 381.744 42.6266 381.724 42.5437C381.428 41.753 381.154 40.9516 380.835 40.1679C380.66 39.6542 380.508 39.1309 380.271 38.6409L380.211 38.3915C380.049 37.9706 379.921 37.5372 379.735 37.1274C379.613 36.7509 379.485 36.3757 379.323 36.0156C379.151 35.5048 378.993 34.9871 378.772 34.4943C378.6 33.9832 378.44 33.4668 378.223 32.9739C378.099 32.5946 377.973 32.2153 377.797 31.8568L377.737 31.6061C377.574 31.1853 377.447 30.7519 377.261 30.3421C377.139 29.9656 377.011 29.5904 376.847 29.2302C376.654 28.6279 376.443 28.0313 376.196 27.4501C376.165 27.629 376.132 27.8075 376.097 27.9857C375.981 28.2112 375.881 28.4439 375.794 28.682C375.697 28.9102 375.607 29.1411 375.522 29.3743C375.424 29.602 375.332 29.8324 375.246 30.0653C375.148 30.2934 375.057 30.5242 374.971 30.7572C374.873 30.9857 374.781 31.2167 374.695 31.4498C374.596 31.6783 374.506 31.9102 374.423 32.1449C374.168 32.6874 373.95 33.2457 373.739 33.8061C373.639 34.0334 373.547 34.2642 373.463 34.4981C373.363 34.7257 373.271 34.9567 373.187 35.1906C373.087 35.4181 372.996 35.6489 372.912 35.8826C372.812 36.1097 372.72 36.3402 372.636 36.5736C372.537 36.8009 372.445 37.0314 372.361 37.2645C372.262 37.4941 372.17 37.7241 372.086 37.9596C371.969 38.2282 371.864 38.5009 371.757 38.7736C371.668 38.9604 371.579 39.1476 371.491 39.3344C371.056 40.0433 370.566 40.7355 369.854 41.1853C369.785 41.2231 369.65 41.2989 369.583 41.3378C369.048 41.4816 368.511 41.7225 367.946 41.6325C367.712 41.5829 367.484 41.5178 367.249 41.4791C366.838 41.2451 366.452 40.9664 366.128 40.6179C366.028 40.4182 365.924 40.2207 365.815 40.0254C365.686 39.0865 365.871 38.1509 366.265 37.2963C366.364 37.0692 366.457 36.8396 366.542 36.6056C366.641 36.377 366.733 36.1474 366.817 35.9134C366.916 35.6847 367.008 35.4551 367.092 35.2211C367.191 34.9941 367.284 34.7641 367.368 34.5301C367.467 34.3026 367.558 34.0723 367.643 33.8395C367.741 33.6096 367.834 33.3796 367.92 33.1472C368.016 32.9173 368.109 32.6874 368.194 32.455C368.292 32.2263 368.384 31.9951 368.471 31.7627C368.567 31.5341 368.661 31.3029 368.743 31.0676C369.096 30.2977 369.393 29.5032 369.701 28.7138C369.8 28.4855 369.895 28.2556 369.979 28.0219C370.076 27.7932 370.17 27.5633 370.254 27.3293C370.353 27.1025 370.445 26.8711 370.528 26.6386C370.627 26.4103 370.721 26.1804 370.805 25.9464C370.902 25.718 370.996 25.4881 371.08 25.2541C371.177 25.0258 371.271 24.7959 371.356 24.5619C371.452 24.3335 371.546 24.1036 371.631 23.8709C371.728 23.6425 371.821 23.4114 371.906 23.1774C372.308 22.2247 372.656 21.25 372.919 20.2477C373.114 19.5211 373.223 18.7138 372.946 17.9951C372.516 17.2447 371.794 16.6842 370.953 16.4876C370.073 16.3628 369.154 16.431 368.333 16.799C368.148 16.8848 367.964 16.9748 367.786 17.0758C366.368 17.9743 365.151 19.3714 364.797 21.0591C364.672 21.4563 364.722 21.8816 364.656 22.2898C364.694 22.8449 364.726 23.4057 365.007 23.903C365.397 24.5627 365.973 25.0905 366.662 25.4189C366.946 25.5435 367.231 25.6721 367.53 25.7596C367.952 25.9785 368.334 26.2667 368.662 26.6122C368.693 26.6871 368.755 26.838 368.785 26.9126C368.843 27.0594 368.903 27.2051 368.966 27.3501C369.165 28.6641 368.273 29.8936 367.114 30.4072C366.057 30.716 364.9 30.6607 363.838 30.3961C363.614 30.2889 363.385 30.1918 363.151 30.1052C362.921 29.9589 362.687 29.8204 362.448 29.6901C361.366 28.9522 360.583 27.8791 359.929 26.7603C359.797 26.4282 359.674 26.0929 359.522 25.7706C359.159 24.4898 358.993 23.1607 359.088 21.8287C359.271 20.7933 359.412 19.7356 359.799 18.7443C359.947 18.4231 360.073 18.092 360.206 17.7639C360.399 17.4441 360.595 17.1242 360.773 16.7962C360.96 16.5206 361.144 16.2451 361.326 15.9655C362.233 14.7955 363.293 13.745 364.509 12.9002C364.65 12.8059 364.791 12.7106 364.93 12.6121C365.47 12.3159 366.021 12.0419 366.575 11.7733C366.853 11.6875 367.128 11.5919 367.402 11.4922ZM507.335 15.2651C508.026 14.9896 508.775 15.0144 509.505 15.0641C509.948 15.2761 510.327 15.5903 510.653 15.9573C510.685 16.0306 510.748 16.18 510.778 16.2549C510.834 16.403 510.897 16.5524 510.962 16.6993C511.002 17.1478 510.909 17.584 510.796 18.0159C510.695 18.2939 510.601 18.5747 510.514 18.8578C510.289 19.3051 510.07 19.7576 509.901 20.2297C509.823 20.3653 509.746 20.5012 509.669 20.6367C510.241 20.7392 510.825 20.7091 511.404 20.7474C511.548 20.8084 511.697 20.8654 511.848 20.9179C512.224 21.1616 512.638 21.4315 512.759 21.8992C513.016 22.481 512.861 23.1274 512.723 23.7187C512.382 24.5106 511.636 24.9563 510.881 25.2805C509.881 25.5268 508.85 25.4284 507.83 25.445L507.779 25.7608C507.663 25.9891 507.563 26.2247 507.475 26.4653C507.378 26.6935 507.287 26.9244 507.203 27.1579C507.104 27.3856 507.013 27.6163 506.928 27.8498C506.829 28.0777 506.738 28.3087 506.653 28.5424C506.555 28.7701 506.463 29.0008 506.379 29.2343C506.279 29.4625 506.188 29.6939 506.103 29.9281C506.004 30.1551 505.913 30.3856 505.83 30.6191C505.73 30.8464 505.637 31.0767 505.552 31.3098C505.45 31.5479 505.356 31.7888 505.282 32.0367C505.236 32.0838 505.144 32.1751 505.099 32.2222C506.296 32.2735 507.508 32.1128 508.685 32.3924C508.965 32.5352 509.247 32.6776 509.529 32.8233C509.683 33.0683 509.841 33.3105 509.997 33.5542C509.995 34.1109 510.098 34.699 509.87 35.2252C509.76 35.5228 509.569 35.7788 509.401 36.0433C509.041 36.3094 508.679 36.5748 508.277 36.7717C507.116 37.0846 505.904 36.9268 504.719 36.9654C503.525 36.9214 502.304 37.0944 501.137 36.7717C500.413 36.4547 499.781 35.9411 499.44 35.2086C499.368 34.6299 499.145 34.0373 499.372 33.463C499.488 32.8151 499.761 32.2222 500.013 31.6215C500.109 31.3929 500.201 31.1633 500.285 30.9293C500.383 30.7006 500.476 30.471 500.561 30.237C500.657 30.0084 500.749 29.7788 500.835 29.5448C500.932 29.3161 501.025 29.0865 501.109 28.8525C501.207 28.6238 501.299 28.3943 501.383 28.1603C501.764 27.2617 502.082 26.3354 502.49 25.4479C501.572 25.5076 500.455 25.3107 499.995 24.4027C499.932 24.0426 499.772 23.6897 499.838 23.3186C499.892 23.0346 499.961 22.7537 499.989 22.4672C500.329 21.7334 500.96 21.2154 501.688 20.9025C502.483 20.6562 503.316 20.7282 504.135 20.6896C504.597 20.5065 504.591 19.8407 504.821 19.4378C504.918 19.2107 505.011 18.9795 505.096 18.7458C505.193 18.5172 505.287 18.2873 505.372 18.0533C505.47 17.8249 505.563 17.5922 505.643 17.3557C505.778 17.0758 505.915 16.7977 506.053 16.5191C506.44 16.0624 506.863 15.6346 507.335 15.2651ZM401.074 20.4719C401.742 20.4059 402.415 20.4499 403.084 20.4694C403.665 20.6741 404.245 20.8792 404.778 21.1918C405.329 21.685 405.85 22.2206 406.197 22.8852C406.358 23.5205 406.56 24.1659 406.495 24.8305C406.403 25.585 406.154 26.3062 405.907 27.0208C405.16 28.7349 404.494 30.4848 403.82 32.2279C405.056 32.265 406.307 32.1184 407.522 32.3899C407.97 32.5849 408.355 32.8881 408.671 33.262C408.957 33.9738 408.836 34.7475 408.638 35.4646C408.28 35.9162 407.871 36.3245 407.377 36.622C407.09 36.7094 406.806 36.8076 406.529 36.9255C404.351 36.9886 402.172 36.9895 399.993 36.928C399.533 36.6818 399.041 36.4726 398.653 36.1141C398.372 35.8039 398.187 35.4218 397.991 35.0576C397.97 34.7544 397.938 34.4528 397.861 34.1606C397.949 33.8725 397.976 33.5721 397.991 33.273C398.011 33.2413 398.054 33.1762 398.076 33.1441C398.139 32.9116 398.215 32.6833 398.284 32.4521C398.487 31.998 398.667 31.5328 398.843 31.0676C398.942 30.839 399.035 30.6094 399.119 30.3754C399.218 30.1467 399.31 29.9171 399.394 29.6831C399.493 29.4561 399.587 29.2261 399.67 28.9937C399.768 28.7638 399.86 28.5326 399.947 28.2999C400.044 28.0716 400.136 27.8416 400.221 27.6092C400.51 27.0374 400.654 26.4128 400.589 25.7706C400.37 25.5378 400.118 25.3441 399.848 25.1793C399.658 25.1657 399.469 25.1486 399.28 25.128C398.147 25.0327 397.277 25.8882 396.673 26.7478C396.513 27.011 396.366 27.2824 396.222 27.5551C395.143 30.0181 394.216 32.5465 393.206 35.0397C393.026 35.3194 392.859 35.6067 392.704 35.9008C392.244 36.4506 391.699 36.9293 391.024 37.1884C390.778 37.2189 390.536 37.2658 390.297 37.324C389.94 37.4224 389.598 37.2328 389.247 37.1913C388.802 37 388.429 36.6887 388.119 36.3201C388.076 36.2443 387.988 36.092 387.946 36.0156C387.841 35.2252 387.93 34.4276 388.255 33.6983C388.357 33.4712 388.451 33.2397 388.536 33.006C388.634 32.7774 388.726 32.5474 388.81 32.3138C388.908 32.0851 389 31.8555 389.085 31.6215C389.182 31.3929 389.275 31.1633 389.36 30.9293C389.458 30.7006 389.55 30.471 389.633 30.237C389.732 30.0084 389.824 29.7788 389.908 29.5448C390.007 29.3173 390.099 29.0864 390.182 28.8525C391.011 26.7758 391.848 24.7003 392.653 22.6138C392.744 22.4298 392.835 22.2458 392.927 22.0615C393.298 21.4592 393.859 21.0384 394.491 20.7436C395.216 20.7144 395.971 20.6175 396.661 20.9025C397.114 21.1793 397.467 21.574 397.739 22.0284C397.933 21.8885 398.131 21.7542 398.326 21.6171C398.704 21.4079 399.066 21.1726 399.444 20.9651C399.977 20.771 400.515 20.5773 401.074 20.4719ZM416.9 20.6285C417.975 20.3832 419.083 20.4263 420.179 20.4637C420.786 20.5329 421.375 20.7144 421.953 20.9081C422.543 21.1739 423.082 21.5325 423.615 21.8967C423.945 22.2187 424.27 22.5459 424.589 22.8783C424.768 23.1648 424.955 23.4444 425.148 23.7227C425.289 24.0011 425.428 24.2807 425.571 24.5578C425.755 25.1459 425.893 25.7498 426.001 26.3562C426.037 26.9056 426.014 27.457 426.019 28.0077C426.056 28.7085 425.783 29.3689 425.711 30.0584C425.561 30.4749 425.421 30.895 425.291 31.3183C424.609 32.8909 423.678 34.3738 422.377 35.4995C421.614 36.0546 420.786 36.5154 419.876 36.7745C418.293 37.057 416.674 36.9516 415.071 36.9365C413.97 36.8201 412.819 36.6236 411.922 35.9187C411.083 35.1878 410.41 34.2823 409.97 33.2564C409.926 33.1142 409.878 32.9729 409.828 32.8327C409.329 30.9859 409.431 29.0239 409.969 27.1978C410.074 26.9682 410.168 26.7314 410.248 26.4917C410.424 26.117 410.608 25.7463 410.8 25.3799C411.59 24.0747 412.649 22.9585 413.856 22.0379C413.997 21.9423 414.139 21.847 414.279 21.7498C414.729 21.5035 415.186 21.2736 415.647 21.0481C416.066 20.9151 416.485 20.7767 416.9 20.6285ZM432.297 21.25C433.166 20.8874 434.056 20.5235 435.003 20.4581C436.114 20.4279 437.252 20.3558 438.309 20.7657C439.146 21.1283 439.924 21.635 440.537 22.3216C441.537 23.6495 441.807 25.4271 441.379 27.0179C441.273 27.2433 441.177 27.4733 441.091 27.7073C440.994 27.8527 440.9 28.0008 440.809 28.1505C440.624 28.343 440.436 28.5326 440.25 28.7251C440.06 28.8204 439.872 28.9201 439.685 29.0214C438.782 29.3771 437.652 29.2123 437.024 28.4244C436.734 27.8225 436.908 27.1384 436.8 26.5028C436.753 26.2552 436.734 26.003 436.723 25.7511C436.547 25.4177 436.279 25.0837 435.883 25.0352C435.358 25.0226 434.789 24.9481 434.328 25.2651C433.674 25.5765 433.23 26.1637 432.829 26.7465C432.717 26.9241 432.608 27.1032 432.502 27.2837C432.275 27.7681 432.069 28.275 432.04 28.8163C431.823 29.6762 431.966 30.655 432.503 31.3693C433.08 31.9756 433.964 32.081 434.745 32.2181C436.533 32.2486 438.324 32.2153 440.114 32.232C440.574 32.2817 441.025 32.4119 441.473 32.5308C441.721 32.7138 441.965 32.9006 442.195 33.1095C442.232 33.1872 442.308 33.3438 442.345 33.4227C442.381 33.6967 442.445 33.9669 442.497 34.2395C442.423 34.6506 442.335 35.0604 442.209 35.4605C442.051 35.6489 441.902 35.8442 441.759 36.0433C441.566 36.1832 441.377 36.3286 441.193 36.4783C441.126 36.5157 440.989 36.589 440.922 36.6261C440.42 36.7966 439.917 36.9947 439.377 36.9557C436.793 36.9544 434.208 37.0098 431.625 36.9211C431.438 36.8506 431.247 36.8022 431.054 36.7566C430.783 36.637 430.507 36.5275 430.228 36.4283C429.841 36.1836 429.468 35.9169 429.111 35.6294C428.716 35.3139 428.459 34.8695 428.118 34.5037C427.875 34.0471 427.642 33.5846 427.42 33.1167C426.684 30.9182 426.891 28.5021 427.7 26.3546C427.882 25.9822 428.063 25.6098 428.26 25.2456C428.41 25.0214 428.544 24.789 428.676 24.555C429.458 23.4903 430.396 22.5376 431.457 21.7558C431.741 21.5947 432.021 21.426 432.297 21.25ZM469.525 20.4763C470.952 20.3986 472.424 20.3543 473.774 20.9094C475.153 21.5222 476.303 22.5609 477.058 23.8753C477.117 24.0105 477.179 24.1451 477.24 24.281C477.324 24.5188 477.419 24.7544 477.528 24.984C478.089 26.9223 477.878 28.9978 477.25 30.8947C477.143 31.123 477.048 31.357 476.97 31.5963C476.751 32.0643 476.522 32.5254 476.281 32.9808C475.537 34.2049 474.581 35.3054 473.362 36.0656C473.085 36.2056 472.81 36.3455 472.535 36.4852C472.25 36.5723 471.966 36.6676 471.689 36.7745C470.112 37.0554 468.501 36.9488 466.907 36.9393C466.45 36.9626 466.02 36.7717 465.565 36.7758C465.119 36.6069 464.646 36.4959 464.236 36.2443C463.465 35.7803 462.875 35.0799 462.343 34.3653C462.151 33.9986 461.968 33.6287 461.782 33.2592C461.216 31.6309 461.224 29.8656 461.506 28.1851C461.566 27.9954 461.61 27.8014 461.656 27.6076C461.751 27.3309 461.841 27.0525 461.927 26.7729C462.192 26.2134 462.463 25.657 462.758 25.1129C462.854 24.9729 462.951 24.8317 463.047 24.6921C463.19 24.5078 463.329 24.3197 463.459 24.126C464.151 23.3821 464.844 22.6263 465.675 22.0379C465.815 21.9435 465.954 21.8482 466.094 21.7498C467.155 21.1311 468.313 20.6782 469.525 20.476V20.4763ZM484.241 20.6273C485.088 20.3514 486.16 20.2615 486.864 20.9151C487.197 21.1824 487.401 21.5617 487.594 21.9341C487.625 22.5279 487.607 23.1233 487.423 23.6938C487.221 24.1501 487.034 24.6132 486.862 25.0824C486.761 25.3095 486.669 25.5406 486.586 25.7746C486.486 26.0016 486.395 26.2326 486.312 26.4669C486.12 26.9245 485.937 27.3861 485.763 27.8514C485.662 28.0785 485.569 28.3096 485.487 28.5436C485.386 28.7716 485.296 29.0039 485.216 29.24C485.148 29.3869 485.084 29.535 485.019 29.6831C484.978 29.8134 484.935 29.9432 484.891 30.0722C484.846 30.2106 484.802 30.349 484.757 30.4861C484.706 30.6232 484.652 30.7604 484.6 30.8972C484.48 31.2545 484.447 31.6379 484.655 31.9728C484.988 32.2861 485.453 32.2348 485.874 32.2348C486.508 32.2694 487.119 32.0326 487.679 31.7514C488.311 31.3252 488.807 30.7075 489.02 29.9656C489.115 29.736 489.207 29.5045 489.293 29.2705C489.389 29.0422 489.481 28.8122 489.567 28.5782C489.664 28.3499 489.756 28.1187 489.842 27.886C489.939 27.6577 490.031 27.4265 490.117 27.1937C490.214 26.9654 490.306 26.7342 490.392 26.5018C490.489 26.2716 490.58 26.042 490.667 25.808C490.762 25.5793 490.856 25.3497 490.941 25.117C491.037 24.8887 491.132 24.6575 491.217 24.4251C491.313 24.1948 491.405 23.9624 491.486 23.7256C491.697 23.254 491.927 22.7913 492.175 22.3386C492.271 22.1958 492.365 22.0517 492.458 21.9064C492.88 21.4063 493.423 21.0343 494.005 20.7433C494.542 20.7046 495.084 20.6977 495.622 20.7405C496.064 20.9553 496.443 21.2683 496.769 21.6337C496.8 21.707 496.864 21.8551 496.895 21.93C496.95 22.0766 497.012 22.2234 497.077 22.3688C497.155 23.2686 496.748 24.1036 496.488 24.9424C496.385 25.1695 496.29 25.4007 496.205 25.6347C496.107 25.8627 496.016 26.0936 495.932 26.3269C495.833 26.5546 495.741 26.7855 495.657 27.0192C495.558 27.2468 495.466 27.4772 495.38 27.7102C495.283 27.9385 495.191 28.1693 495.106 28.4024C495.006 28.6303 494.916 28.8622 494.835 29.0975C494.377 30.1247 493.973 31.1755 493.578 32.2279C494.957 32.2593 496.366 32.092 497.702 32.5298C497.958 32.7789 498.26 33.0085 498.398 33.3532C498.476 33.6149 498.499 33.892 498.572 34.1578C498.475 34.594 498.437 35.0425 498.293 35.4674C498.033 35.8772 497.701 36.2304 497.286 36.4811C497.096 36.5751 496.908 36.6692 496.722 36.7673C495.834 37.0378 494.899 36.9488 493.985 36.9654C492.754 36.956 491.522 36.9931 490.292 36.9308C489.775 36.6968 489.348 36.3232 488.982 35.8951C488.974 35.8357 488.956 35.7152 488.946 35.6558C488.662 35.9388 488.371 36.2144 488.073 36.4823C487.885 36.5723 487.698 36.6638 487.514 36.755C487.367 36.8076 487.222 36.8645 487.081 36.9255C485.364 36.9916 483.643 36.9878 481.927 36.9239C481.779 36.8642 481.634 36.8107 481.487 36.7604C480.931 36.5088 480.376 36.2219 479.947 35.7775C479.502 35.3457 479.228 34.7792 478.964 34.2257C478.765 33.5542 478.769 32.8522 478.81 32.1587C478.942 31.5023 479.171 30.8711 479.388 30.2383C479.491 30.0112 479.584 29.78 479.67 29.546C479.767 29.3177 479.859 29.0878 479.943 28.8538C480.04 28.6254 480.134 28.3955 480.219 28.1615C480.315 27.9332 480.409 27.7033 480.494 27.4693C480.592 27.2409 480.684 27.011 480.769 26.777C480.867 26.5487 480.959 26.3188 481.044 26.0851C481.142 25.8564 481.234 25.6265 481.319 25.3925C481.416 25.1642 481.508 24.9343 481.594 24.7006C481.69 24.4719 481.784 24.242 481.87 24.0093C481.966 23.7781 482.06 23.5469 482.138 23.3088C482.314 22.9352 482.5 22.5653 482.685 22.1955C483.086 21.5665 483.617 21.0317 484.241 20.627V20.6273ZM416.861 25.6539C417.351 25.3092 417.926 25.1085 418.517 25.0377C418.849 25.0296 419.164 25.161 419.493 25.1928C420.044 25.4614 420.487 25.9196 420.768 26.4638C421.182 27.9146 420.876 29.5347 420.026 30.7739C419.696 31.296 419.24 31.7347 418.689 32.0099C417.758 32.4006 416.685 32.388 415.75 32.0172C415.38 31.7486 414.986 31.4495 414.829 30.9994C414.472 29.9099 414.689 28.7122 415.181 27.6989C415.577 26.9 416.129 26.1703 416.861 25.6539ZM469.204 25.3287C469.771 25.1484 470.384 24.9075 470.978 25.1334C471.72 25.2428 472.265 25.852 472.593 26.4914C472.922 27.6297 472.773 28.8645 472.306 29.9417C472.203 30.1342 472.096 30.3254 471.983 30.5109C471.891 30.6478 471.802 30.7846 471.712 30.9233C471.444 31.3389 471.084 31.6855 470.659 31.9354C470.173 32.2068 469.623 32.2455 469.084 32.3204C468.248 32.2593 467.238 32.1181 466.794 31.2957C466.17 30.1672 466.483 28.7912 467.003 27.6863C467.492 26.7116 468.217 25.8187 469.204 25.3287ZM514.327 31.9867C515.017 31.5463 515.823 31.4646 516.622 31.5448C516.771 31.6045 516.924 31.6599 517.081 31.7111C517.719 32.0315 518.254 32.5269 518.626 33.1403C518.972 33.9209 519.046 34.7947 518.767 35.6102C518.668 35.7983 518.573 35.9895 518.483 36.1804C518.171 36.5349 517.834 36.8645 517.49 37.1843C516.65 37.6203 515.63 37.63 514.748 37.3268C514.679 37.2866 514.54 37.2092 514.472 37.1705C513.727 36.7038 513.21 35.9272 513.031 35.0645C513.006 34.666 513.023 34.2644 513.031 33.8643C513.09 33.7162 513.147 33.5665 513.203 33.4171C513.291 33.2274 513.383 33.039 513.474 32.8509C513.753 32.5572 514.037 32.2691 514.327 31.987V31.9867Z" fill="#E42E16"/>
</g>
<path d="M286.196 6H295.995L271.498 47.962L247 6H265.741L271.498 15.7303L277.132 6H286.196Z" fill="#41B883"/>
<path d="M247 6L271.498 47.962L295.995 6H286.196L271.498 31.1772L256.677 6H247Z" fill="#41B883"/>
<path d="M256.677 6L271.498 31.2988L286.196 6H277.132L271.498 15.7303L265.741 6H256.677Z" fill="#35495E"/>
<path d="M1 26.9026C1 31.4384 5.4628 35.6726 12.4984 38.0594C11.0934 45.0791 12.2468 50.7372 16.0985 52.9417C20.0576 55.2079 25.9558 53.6393 31.5541 48.7824C37.0111 53.4431 42.5261 55.2773 46.3746 53.0664C50.33 50.7938 51.5328 44.7522 50.0891 37.5132C57.4173 35.1087 61.5164 31.4981 61.5164 26.9026C61.5164 22.472 57.0455 18.6391 50.1046 16.2676C51.6589 8.72956 50.3419 3.20885 46.3306 0.913178C42.4634 -1.30011 36.8841 0.628963 31.3469 5.41152C25.5862 0.335306 20.0621 -1.21442 16.055 1.08763C12.1914 3.30729 11.0889 9.0683 12.4984 16.2178C5.70017 18.5701 1 22.4899 1 26.9026Z" fill="white"/>
<path d="M48.7393 18.3336C48.1695 18.1368 47.5949 17.9545 47.0159 17.7869C47.1119 17.3942 47.2007 16.9997 47.2822 16.6037C48.5867 10.229 47.7338 5.09362 44.8211 3.40312C42.0285 1.78179 37.4611 3.47229 32.8483 7.51322C32.3938 7.91232 31.9493 8.32291 31.5154 8.7446C31.2248 8.4642 30.9291 8.18924 30.6283 7.91987C25.794 3.59869 20.9482 1.77797 18.0386 3.47348C15.2486 5.09934 14.4222 9.92734 15.5967 15.9686C15.7135 16.5668 15.8454 17.162 15.9923 17.7535C15.3067 17.9496 14.6445 18.1585 14.0109 18.3808C8.34331 20.3699 4.72363 23.4876 4.72363 26.7212C4.72363 30.0612 8.60914 33.4112 14.5127 35.4422C14.9914 35.6062 15.4741 35.7581 15.9603 35.8978C15.8024 36.535 15.6621 37.1766 15.5398 37.8218C14.4201 43.7581 15.2946 48.4716 18.0772 50.0874C20.9513 51.7558 25.775 50.0409 30.4722 45.9077C30.8435 45.581 31.2161 45.2344 31.5893 44.8712C32.0593 45.3277 32.5419 45.7709 33.0364 46.2003C37.5862 50.1416 42.0797 51.7331 44.86 50.113C47.7314 48.4396 48.6644 43.376 47.4528 37.2153C47.3604 36.7447 47.2526 36.2641 47.1318 35.7747C47.4706 35.6741 47.803 35.5701 48.1273 35.4618C54.2645 33.415 58.2574 30.1058 58.2574 26.7212C58.2574 23.4759 54.5211 20.3372 48.7393 18.3336Z" fill="#53C1DE"/>
<path d="M47.3817 33.268C47.0896 33.3654 46.7897 33.4594 46.4841 33.5507C45.8076 31.3945 44.8947 29.1017 43.7778 26.7331C44.8438 24.4205 45.7213 22.1572 46.3789 20.0149C46.9255 20.1744 47.4562 20.3423 47.9676 20.5198C52.9134 22.2339 55.93 24.7687 55.93 26.7217C55.93 28.8021 52.6719 31.5029 47.382 33.268H47.3817ZM45.1868 37.6476C45.7215 40.368 45.7979 42.8275 45.4436 44.7503C45.1253 46.478 44.4852 47.6297 43.6938 48.0911C42.0095 49.0728 38.4074 47.7967 34.5232 44.4309C34.0778 44.0451 33.6291 43.633 33.1793 43.1972C34.6852 41.5386 36.1902 39.6104 37.6591 37.4692C40.2429 37.2385 42.6838 36.861 44.8975 36.3458C45.0063 36.7888 45.1033 37.223 45.1868 37.6476ZM22.9888 47.9215C21.3433 48.5067 20.0327 48.5233 19.2405 48.0634C17.5546 47.0846 16.854 43.3048 17.8098 38.2354C17.9234 37.6363 18.0536 37.0405 18.2001 36.4487C20.3891 36.9362 22.8123 37.287 25.4023 37.4985C26.8808 39.5937 28.4293 41.5195 29.9899 43.206C29.6583 43.5291 29.3188 43.8439 28.9717 44.1501C26.8981 45.9754 24.8202 47.2701 22.989 47.9215H22.9888ZM15.2797 33.2551C12.6736 32.3582 10.5215 31.1926 9.04625 29.9207C7.72076 28.7775 7.05139 27.6427 7.05139 26.7217C7.05139 24.7623 9.95286 22.2627 14.792 20.5638C15.3993 20.3515 16.0127 20.1572 16.6314 19.981C17.3003 22.1715 18.1776 24.4617 19.2363 26.7776C18.1639 29.1281 17.2741 31.4548 16.599 33.6709C16.1559 33.5432 15.716 33.4046 15.2797 33.2551ZM17.864 15.5425C16.8594 10.3736 17.5264 6.47454 19.2051 5.49614C20.9932 4.45392 24.9467 5.94009 29.1139 9.66575C29.3802 9.90392 29.6477 10.1533 29.9157 10.4112C28.3631 12.0901 26.8288 14.0014 25.363 16.0844C22.8495 16.319 20.4433 16.6958 18.2313 17.2004C18.095 16.6509 17.9725 16.098 17.864 15.5423V15.5425ZM40.9175 21.2745C40.395 20.3658 39.8531 19.4685 39.2923 18.5832C40.9976 18.8 42.6313 19.0882 44.1654 19.4409C43.7049 20.9273 43.1309 22.4816 42.4549 24.0749C41.961 23.1312 41.4484 22.1976 40.9175 21.2745ZM31.5163 12.0541C32.5693 13.2028 33.6239 14.4856 34.6613 15.8772C32.557 15.777 30.4491 15.7766 28.3447 15.8757C29.383 14.497 30.4467 13.2161 31.5163 12.0541ZM22.0547 21.2903C21.5304 22.206 21.0274 23.1339 20.5462 24.0732C19.8813 22.4854 19.3124 20.9242 18.8479 19.4166C20.3728 19.0729 21.9989 18.7921 23.6931 18.5789C23.126 19.4697 22.5797 20.3737 22.0547 21.2903ZM23.7419 35.0285C21.9916 34.8318 20.3409 34.5653 18.8164 34.2311C19.2883 32.6968 19.8697 31.1021 20.5488 29.4801C21.0321 30.4202 21.5373 31.3487 22.064 32.2648C22.6014 33.1993 23.1608 34.1208 23.7419 35.0285ZM31.5794 41.5517C30.4973 40.3758 29.418 39.0755 28.3638 37.6767C29.387 37.7172 30.4304 37.7377 31.4907 37.7377C32.5801 37.7377 33.657 37.7131 34.7169 37.6655C33.6762 39.0897 32.6253 40.392 31.5794 41.5517ZM42.4766 29.3975C43.191 31.037 43.7931 32.6232 44.2714 34.1316C42.7217 34.4876 41.0487 34.7744 39.2859 34.9873C39.8508 34.0855 40.3979 33.1725 40.9267 32.2488C41.4643 31.3101 41.9811 30.3594 42.4766 29.3975ZM38.9489 31.1004C38.1393 32.5165 37.2842 33.9058 36.3849 35.266C34.7992 35.38 33.1606 35.4389 31.4907 35.4389C29.8277 35.4389 28.2099 35.3867 26.6519 35.285C25.7293 33.928 24.858 32.5363 24.0399 31.113C23.2256 29.6972 22.465 28.2508 21.7598 26.7769C22.4632 25.3026 23.2215 23.8554 24.033 22.4385V22.4389C24.8443 21.0217 25.7087 19.636 26.6244 18.2848C28.2139 18.1638 29.8435 18.1005 31.4909 18.1005C33.1457 18.1005 34.7775 18.1643 36.3665 18.2862C37.2729 19.6353 38.1318 21.0162 38.9415 22.4263C39.7558 23.8401 40.5242 25.2802 41.2455 26.7443C40.5316 28.2233 39.7657 29.6763 38.9491 31.1004H38.9489ZM43.6588 5.42779C45.4484 6.46715 46.1445 10.6582 45.02 16.1544C44.9463 16.5124 44.8662 16.8691 44.7797 17.2242C42.5625 16.7091 40.1547 16.3256 37.6338 16.0875C36.1652 13.9818 34.6436 12.0672 33.1161 10.41C33.5164 10.0215 33.9262 9.64298 34.3451 9.27492C38.2908 5.81719 41.9785 4.45201 43.6588 5.42779Z" fill="white"/>
<path d="M31.4905 21.8789C34.1901 21.8789 36.3784 24.0673 36.3784 26.7666C36.3784 29.4662 34.1901 31.6546 31.4905 31.6546C28.7911 31.6546 26.6027 29.4662 26.6027 26.7666C26.6027 24.0673 28.7911 21.8789 31.4905 21.8789Z" fill="#53C1DE"/>
<path d="M133 12.4516L153.926 5L175.416 12.3191L171.936 39.9894L153.926 49.9581L136.198 40.1219L133 12.4516Z" fill="#E23237"/>
<path d="M175.417 12.3191L153.927 5V49.9581L171.937 40.0061L175.417 12.3191Z" fill="#B52E31"/>
<path d="M153.96 10.2494L140.921 39.2445L145.792 39.1617L148.41 32.6207H160.107L162.974 39.2445L167.629 39.3273L153.96 10.2494ZM153.993 19.5391L158.4 28.7459H150.116L153.993 19.5391Z" fill="white"/>
<path d="M135.259 63H136.619L133.459 56H132.179L129.029 63H130.369L131.059 61.38H134.559L135.259 63ZM131.499 60.36L132.809 57.3L134.129 60.36H131.499ZM142.24 56V60.74L138.38 56H137.31V63H138.6V58.26L142.46 63H143.53V56H142.24ZM149.985 61.6C149.535 61.86 149.045 61.96 148.545 61.96C147.065 61.96 146.015 60.92 146.015 59.5C146.015 58.05 147.065 57.04 148.555 57.04C149.305 57.04 149.935 57.29 150.485 57.84L151.305 57.04C150.645 56.29 149.665 55.9 148.495 55.9C146.305 55.9 144.705 57.41 144.705 59.5C144.705 61.59 146.305 63.1 148.475 63.1C149.465 63.1 150.485 62.8 151.215 62.21V59.42H149.985V61.6ZM155.74 63.1C157.65 63.1 158.8 61.99 158.8 59.95V56H157.52V59.9C157.52 61.34 156.88 61.96 155.75 61.96C154.62 61.96 153.97 61.34 153.97 59.9V56H152.67V59.95C152.67 61.99 153.82 63.1 155.74 63.1ZM160.421 63H165.381V61.9H161.721V56H160.421V63ZM171.496 63H172.856L169.696 56H168.416L165.266 63H166.606L167.296 61.38H170.796L171.496 63ZM167.736 60.36L169.046 57.3L170.366 60.36H167.736ZM179.526 63L177.916 60.7C178.866 60.33 179.406 59.55 179.406 58.49C179.406 56.94 178.266 56 176.426 56H173.546V63H174.846V60.96H176.426C176.516 60.96 176.606 60.96 176.696 60.95L178.126 63H179.526ZM178.096 58.49C178.096 59.37 177.506 59.89 176.366 59.89H174.846V57.1H176.366C177.506 57.1 178.096 57.61 178.096 58.49Z" fill="#E23237"/>
<path d="M21.5153 63L19.9053 60.7C20.8553 60.33 21.3953 59.55 21.3953 58.49C21.3953 56.94 20.2553 56 18.4153 56H15.5353V63H16.8353V60.96H18.4153C18.5053 60.96 18.5953 60.96 18.6853 60.95L20.1153 63H21.5153ZM20.0853 58.49C20.0853 59.37 19.4953 59.89 18.3553 59.89H16.8353V57.1H18.3553C19.4953 57.1 20.0853 57.61 20.0853 58.49ZM23.9498 61.91V59.98H27.3298V58.91H23.9498V57.09H27.7598V56H22.6498V63H27.8998V61.91H23.9498ZM34.389 63H35.749L32.589 56H31.309L28.159 63H29.499L30.189 61.38H33.689L34.389 63ZM30.629 60.36L31.939 57.3L33.259 60.36H30.629ZM39.5816 63.1C40.7316 63.1 41.7116 62.69 42.3616 61.93L41.5216 61.13C41.0116 61.69 40.3816 61.96 39.6516 61.96C38.2016 61.96 37.1516 60.94 37.1516 59.5C37.1516 58.06 38.2016 57.04 39.6516 57.04C40.3816 57.04 41.0116 57.31 41.5216 57.86L42.3616 57.07C41.7116 56.31 40.7316 55.9 39.5916 55.9C37.4416 55.9 35.8416 57.41 35.8416 59.5C35.8416 61.59 37.4416 63.1 39.5816 63.1ZM44.7491 63H46.0491V57.1H48.3691V56H42.4291V57.1H44.7491V63Z" fill="#53C1DE"/>
<path d="M266.803 56L264.453 61.4L262.123 56H260.713L263.773 63H265.053L268.103 56H266.803ZM271.798 63.1C273.708 63.1 274.858 61.99 274.858 59.95V56H273.578V59.9C273.578 61.34 272.938 61.96 271.808 61.96C270.678 61.96 270.028 61.34 270.028 59.9V56H268.728V59.95C268.728 61.99 269.878 63.1 271.798 63.1ZM277.778 61.91V59.98H281.158V58.91H277.778V57.09H281.588V56H276.478V63H281.728V61.91H277.778Z" fill="#41B883"/>
<defs>
<linearGradient id="paint0_linear" x1="384.964" y1="128.832" x2="408.458" y2="88.1469" gradientUnits="userSpaceOnUse">
<stop offset="0.4147" stop-color="#51D3D9"/>
<stop offset="1" stop-color="#C8FF8C"/>
</linearGradient>
<linearGradient id="paint1_linear" x1="407.234" y1="121.823" x2="415.162" y2="112.516" gradientUnits="userSpaceOnUse">
<stop offset="0.4147" stop-color="#51D3D9"/>
<stop offset="1" stop-color="#5A919B"/>
</linearGradient>
<clipPath id="clip0">
<rect width="160" height="39" fill="white" transform="translate(359 8)"/>
</clipPath>
</defs>
</svg>
