<svg width="539" height="130" viewBox="0 0 539 130" fill="none" xmlns="http://www.w3.org/2000/svg">
<path fill-rule="evenodd" clip-rule="evenodd" d="M135 26.2487H140.749V19.7123H150.95L153.732 15.7179H140.749V13.3576H151.692L155.216 9H135V26.2487ZM170.981 9.18157H158.74L155.724 13.176H170.981C172.465 13.176 173.207 14.6285 173.207 15.3548C173.207 16.081 172.836 17.5336 170.981 17.5336H155.587V26.0671H160.409V21.7096H170.981C178.473 21.7096 178.416 16.6709 178.401 15.3166C178.4 15.2628 178.4 15.2148 178.4 15.1732C178.4 14.0838 178.029 9.18157 170.981 9.18157ZM184.149 9.18157L180.811 13.176V13.7207H193.979C196.947 13.7207 197.874 16.2626 197.874 17.5336C197.874 18.8045 197.503 21.7096 194.536 21.7096H186.004V15.3548H180.811V26.0671H194.35C202.511 26.0671 203.067 18.9861 203.067 17.5336C203.067 16.081 202.696 9.18157 194.536 9.18157H184.149ZM177.843 40.4108V29.3353C177.843 27.7012 178.771 27.3381 179.698 27.3381C180.625 27.3381 181.367 27.7012 182.109 28.4275C182.703 29.0085 187.055 32.9061 189.157 34.7822V27.7012H193.052V38.7767C193.052 40.5923 191.754 40.5923 191.383 40.5923C191.337 40.5923 191.283 40.5951 191.221 40.5982C190.783 40.6205 189.97 40.6619 189.157 39.8661C188.415 39.1398 183.778 34.9638 181.553 32.9666V40.4108H177.843ZM155.402 27.7012H160.595V36.0532H170.61L168.014 40.4108H155.402V27.7012ZM171.723 27.7012V40.4108H175.803V27.7012H171.723ZM194.721 27.7012H198.987V32.0588C198.987 32.4219 199.358 32.6035 199.729 32.6035C200.026 32.6035 203.191 29.3353 204.737 27.7012H210.486L202.882 33.6928L210.857 40.0476H204.922C203.438 38.7767 200.359 36.1258 199.914 35.6901C199.358 35.1454 198.987 35.3269 198.987 35.6901V40.0476H194.721V27.7012Z" fill="#484946"/>
<path fill-rule="evenodd" clip-rule="evenodd" d="M219.286 26.959V29.1044H221.431V37.9927H219.286V39.985H231.699V37.9927H229.86V29.1044H231.699V26.959H219.286ZM236.603 26.959V29.1044H237.982V37.9927H236.603V39.985H253V37.9927H251.621V29.1044H253V26.959H236.603ZM224.65 29.1044H226.488V37.9927H224.65V29.1044ZM243.192 29.1044H240.894V37.9927H243.192V29.1044ZM248.403 29.1044H246.104V37.9927H248.403V29.1044ZM233.844 35.3874C234.606 35.3874 235.223 34.7699 235.223 34.0082C235.223 33.2465 234.606 32.629 233.844 32.629C233.082 32.629 232.465 33.2465 232.465 34.0082C232.465 34.7699 233.082 35.3874 233.844 35.3874Z" fill="#484946"/>
<path d="M403.504 7.99805H319.196C317.286 7.99805 315.642 9.34914 315.272 11.2235L309.942 38.2266C309.454 40.699 311.347 43.0011 313.867 43.0011H398.411C400.335 43.0011 401.986 41.6324 402.342 39.7425L407.435 12.7394C407.899 10.2765 406.01 7.99805 403.504 7.99805Z" fill="#464F54"/>
<path d="M398.503 18.5909L400.192 13.6782C399.169 13.32 396.231 12.6035 392.669 12.6035C384.072 12.6035 382.383 17.3627 382.23 20.1261C382.076 22.8895 384.226 25.3459 387.45 26.574C390.674 27.8022 391.748 28.7234 391.441 30.1051C391.134 31.4868 390.213 32.8685 386.221 32.4079C383.028 32.0394 381.104 31.3332 380.541 31.0262L379.006 36.0924C380.592 36.7065 384.686 37.8426 388.371 37.4741C392.976 37.0136 397.889 35.0178 398.503 29.3375C399.006 24.6897 394.472 23.1254 392.05 22.2897C391.512 22.1041 391.078 21.9544 390.827 21.8149C387.143 20.1261 389.292 16.5951 393.437 17.3627C396.753 17.9768 398.196 18.4374 398.503 18.5909Z" fill="white"/>
<path d="M321.896 13.0641H328.497L324.659 32.2544H334.484L333.41 37.0136H316.983L321.896 13.0641Z" fill="white"/>
<path d="M334.484 13.0641H341.086L342.621 31.0262L351.679 13.0641H358.587L345.538 37.0136H337.708L334.484 13.0641Z" fill="white"/>
<path fill-rule="evenodd" clip-rule="evenodd" d="M370.562 13.0641H360.276L355.056 37.0136H367.645C379.467 37.0136 380.541 26.1135 380.848 22.8895C381.155 19.6655 378.852 13.0641 370.562 13.0641ZM365.649 17.8233L362.886 32.1008H366.878C368.925 32.2032 373.233 30.8419 374.093 24.5782C374.953 18.3145 368.822 17.465 365.649 17.8233Z" fill="white"/>
<path fill-rule="evenodd" clip-rule="evenodd" d="M476.19 2.79485C475.86 2.80767 475.609 2.8875 475.465 3.04885C474.884 3.69284 475.74 5.0743 476.136 5.96362C476.533 6.85436 477.781 8.57372 477.508 13.8547C477.235 19.1343 476.714 19.9304 475.342 21.9258C473.97 23.9212 473.238 24.5348 472.841 25.7628C472.445 26.9909 472.414 28.2205 470.371 29.1412C468.327 30.0619 466.54 30.8441 466.804 31.1978C466.897 31.3205 467.04 31.399 467.356 31.3926C467.82 31.3826 467.931 31.2907 468.661 30.9512C469.395 30.616 470.922 29.8168 471.959 29.9081C472.996 29.9994 473.299 30.1239 474.519 30.9833C475.739 31.8441 476.348 32.487 478.453 33.3457C479.343 33.7094 481.255 34.3949 483.593 35.1138C486.793 36.0972 490.791 37.275 494.069 38.9952C496.533 40.2896 499.183 41.8743 501.227 43.6065C503.884 45.8609 505.345 48.1143 506.421 48.2056C507.243 48.2762 506.971 46.27 506.94 45.9319C506.925 45.7672 506.773 44.1866 506.658 42.1861C506.537 40.0844 506.473 37.5152 506.056 35.6489C505.263 32.1187 504.779 31.7599 503.92 29.2645C503.305 27.4773 502.832 25.8123 502.543 24.7197C501.882 25.2888 501.368 25.7307 501.33 25.7628C501.383 25.8948 502.864 29.5826 502.864 29.5826H500.845C500.845 29.5826 499.949 26.9987 499.858 26.732C499.645 26.9324 496.827 29.5826 496.827 29.5826H494.929C494.929 29.5826 499.232 25.7154 499.336 25.6198C499.282 25.4907 497.837 22.059 497.837 22.059H499.845C499.845 22.059 500.676 24.4746 500.767 24.737C500.874 24.6393 501.635 23.9463 502.354 23.2895C502.791 22.8758 504.21 21.5493 505.453 20.5473C506.913 19.3727 508.187 18.1245 507.976 17.8742C507.72 17.5704 506.606 17.6288 504.561 18.7028C503.36 19.3339 503.282 20.0245 502.212 20.0245C501.085 20.0245 500.014 19.0105 498.794 17.4451C497.609 15.9225 496.63 14.4981 496.783 13.6993C496.935 12.9013 498.004 12.3787 498.736 12.2247C499.468 12.0714 501.177 12.0395 501.114 11.2728C501.054 10.5048 498.979 10.9663 497.819 11.0904C496.661 11.2137 494.923 11.6431 493.336 11.5811C491.751 11.5212 490.623 11.4886 489.22 9.92395C487.817 8.35642 487.481 7.06704 484.553 5.71702C482.083 4.57734 477.971 2.72564 476.19 2.79485ZM478.809 18.8507H485.225L484.7 20.3081C484.7 20.3081 480.086 20.3081 479.948 20.3081C479.902 20.4322 478.919 23.1692 478.831 23.4152C479.102 23.4152 483.304 23.4152 483.304 23.4152L482.78 24.8726C482.78 24.8726 478.442 24.8726 478.304 24.8726C478.256 25.0038 476.606 29.5826 476.606 29.5826H474.943L478.809 18.8507ZM487.297 18.8507H488.89L485.024 29.5826H483.431L487.297 18.8507ZM493.204 21.8395C494.183 21.8595 494.873 22.1513 495.25 22.7026C495.462 23.0149 495.568 23.4079 495.568 23.8714C495.568 24.3293 495.464 24.8533 495.254 25.4324L494.985 26.187C494.985 26.187 489.996 26.187 489.855 26.187C489.655 26.6598 489.549 27.1034 489.549 27.4742C489.549 27.7538 489.606 27.9931 489.723 28.1721C489.903 28.4509 490.222 28.5938 490.671 28.5938C491.724 28.5938 492.363 28.1755 492.881 27.1586L492.91 27.1043H494.586L494.512 27.2523C493.717 28.8726 492.18 29.8021 490.293 29.8021C489.333 29.8021 488.655 29.5251 488.275 28.9809C487.805 28.3041 487.818 27.222 488.314 25.8442C489.012 23.9094 490.66 21.8395 493.204 21.8395ZM492.738 23.0503C491.747 23.0503 490.759 23.8564 490.286 25.0181C490.565 25.0181 493.598 25.0181 493.736 25.0181C493.867 24.6615 493.936 24.34 493.936 24.0712C493.936 23.8266 493.883 23.6211 493.775 23.4621C493.588 23.1897 493.241 23.0503 492.738 23.0503Z" fill="#204395"/>
<path d="M514.923 21.6279C515.053 21.2671 515.117 20.9383 515.117 20.6416C515.117 20.3014 515.031 20.004 514.856 19.7544C514.445 19.1625 513.53 18.8516 512.213 18.8516H508.404L504.54 29.5825H506.203C506.203 29.5825 507.867 24.9612 507.916 24.8293C508.049 24.8293 509.872 24.8293 509.872 24.8293C509.873 24.8293 510.106 24.845 510.106 24.845C510.587 24.8707 511.003 24.8942 511.188 25.2551C511.263 25.392 511.294 25.556 511.294 25.7436C511.294 26.103 511.18 26.5473 511.054 27.0344L510.933 27.5179C510.817 27.9893 510.747 28.4907 510.681 28.9764L510.592 29.5825H512.364L512.362 29.4791C512.361 29.4485 512.361 29.4171 512.361 29.3864C512.361 28.5912 512.553 27.7062 512.738 26.8518L512.847 26.3376C512.941 25.9219 513.012 25.5603 513.012 25.2501C513.012 24.743 512.798 24.385 512.212 24.1582C513.453 23.7981 514.481 22.8531 514.923 21.6279ZM511.834 20.3093C512.51 20.3399 512.95 20.4997 513.136 20.78C513.29 21.0132 513.285 21.3476 513.12 21.8055C512.872 22.4944 512.367 23.2953 510.655 23.3709C510.655 23.3709 508.667 23.3702 508.413 23.3702C508.502 23.1248 509.469 20.4334 509.514 20.3093C509.65 20.3093 511.834 20.3093 511.834 20.3093Z" fill="#204395"/>
<path d="M519.988 21.8398C518.971 21.8398 517.148 22.1308 516.358 24.077L516.302 24.2168H517.971L517.996 24.1512C518.284 23.3953 519.072 23.0508 519.684 23.0508C520.194 23.0508 520.505 23.1435 520.639 23.3353C520.698 23.4209 520.725 23.535 520.725 23.6691C520.725 23.9693 520.592 24.3808 520.422 24.8587C520.295 24.8587 519.249 24.8587 519.249 24.8587C518.163 24.8587 515.546 25.1232 514.662 27.5801C514.569 27.839 514.522 28.0836 514.522 28.3082C514.522 28.5992 514.599 28.8581 514.751 29.0756C515.073 29.5377 515.725 29.8023 516.542 29.8023C517.522 29.8023 518.399 29.4058 519.111 28.6869C519.031 28.9629 518.937 29.2903 518.937 29.2903L518.922 29.3509C518.914 29.3751 518.91 29.3972 518.91 29.4172C518.91 29.4678 518.93 29.5042 518.949 29.527C519.024 29.6155 519.162 29.6026 519.284 29.5898L519.372 29.5827H520.375L520.894 27.9709L522.156 24.47C522.449 23.6563 522.441 23.018 522.135 22.578C521.79 22.0816 521.086 21.8398 519.988 21.8398ZM516.401 27.3726C516.807 26.2465 518.194 26.0561 518.776 26.0254C518.782 26.0254 519.763 26.0254 520 26.0254C519.385 27.747 518.487 28.5928 517.25 28.5928C516.852 28.5928 516.563 28.4794 516.416 28.2676C516.34 28.1613 516.302 28.0265 516.302 27.8696C516.302 27.7234 516.336 27.5566 516.401 27.3726Z" fill="#204395"/>
<path d="M532.236 22.0586H530.709C530.709 22.0586 526.773 27.2283 526.454 27.6477C526.437 27.1313 526.264 22.0586 526.264 22.0586H524.524C524.524 22.0586 524.926 29.3471 524.93 29.4206C524.886 29.4798 522.708 32.3845 522.708 32.3845H524.368L532.447 22.0586H532.236Z" fill="#204395"/>
<path fill-rule="evenodd" clip-rule="evenodd" d="M532.649 18.8988H531.745V21.4854H531.276V18.8988H530.367V18.4688H532.649V18.8988ZM536.222 21.4854H535.778V18.8988H535.766L534.803 21.4854H534.543L533.605 18.8988H533.59V21.4854H533.149V18.4688H533.866L534.675 20.5975L535.512 18.4688H536.222V21.4854Z" fill="#204395"/>
<path d="M127.439 120.695C127.461 120.748 127.472 120.797 127.472 120.843C127.472 120.941 127.41 121.021 127.285 121.081C127.241 121.104 127.194 121.115 127.143 121.115C127.041 121.115 126.968 121.055 126.924 120.934L126.189 119.141H126.157H122.606L121.872 120.934C121.821 121.055 121.74 121.115 121.631 121.115C121.594 121.115 121.547 121.104 121.488 121.081C121.371 121.036 121.313 120.953 121.313 120.832C121.313 120.771 121.32 120.726 121.335 120.695L124.053 114.034C124.111 113.882 124.221 113.807 124.381 113.807H124.403C124.549 113.807 124.655 113.882 124.721 114.034L127.439 120.695ZM122.836 118.55H125.948L124.392 114.737L122.836 118.55Z" fill="black"/>
<path d="M130.013 121.115C129.428 121.115 129 120.976 128.731 120.697C128.462 120.413 128.328 119.97 128.328 119.369V116.009C128.328 115.84 128.409 115.755 128.573 115.755C128.647 115.755 128.705 115.777 128.747 115.82C128.795 115.864 128.818 115.927 128.818 116.009V119.369C128.818 119.681 128.855 119.927 128.929 120.107C129.008 120.282 129.132 120.41 129.301 120.492C129.475 120.569 129.713 120.607 130.013 120.607H130.963C131.264 120.607 131.499 120.569 131.668 120.492C131.842 120.41 131.966 120.282 132.039 120.107C132.119 119.927 132.158 119.681 132.158 119.369V116.009C132.158 115.84 132.24 115.755 132.404 115.755C132.477 115.755 132.535 115.777 132.578 115.82C132.625 115.864 132.649 115.927 132.649 116.009V119.369C132.649 119.97 132.512 120.413 132.237 120.697C131.968 120.976 131.544 121.115 130.963 121.115H130.013Z" fill="black"/>
<path d="M135.559 121.115C135.396 121.115 135.314 121.031 135.314 120.861V116.255H133.676C133.512 116.255 133.43 116.17 133.43 116.001C133.43 115.924 133.451 115.864 133.494 115.82C133.536 115.771 133.596 115.747 133.676 115.747H137.443C137.517 115.747 137.575 115.771 137.617 115.82C137.664 115.864 137.688 115.924 137.688 116.001C137.688 116.083 137.664 116.146 137.617 116.189C137.575 116.233 137.517 116.255 137.443 116.255H135.805V120.861C135.805 120.943 135.781 121.006 135.733 121.05C135.691 121.093 135.633 121.115 135.559 121.115Z" fill="black"/>
<path d="M139.778 121.115C139.197 121.115 138.77 120.976 138.496 120.697C138.227 120.413 138.092 119.97 138.092 119.369V117.492C138.092 116.886 138.227 116.443 138.496 116.165C138.77 115.886 139.197 115.749 139.778 115.755H140.727C141.308 115.755 141.733 115.894 142.002 116.173C142.276 116.452 142.413 116.894 142.413 117.501V119.369C142.413 119.97 142.276 120.413 142.002 120.697C141.733 120.976 141.308 121.115 140.727 121.115H139.778ZM140.727 120.607C141.028 120.607 141.263 120.569 141.432 120.492C141.606 120.41 141.73 120.282 141.804 120.107C141.883 119.927 141.923 119.681 141.923 119.369V117.501C141.923 117.189 141.883 116.946 141.804 116.771C141.73 116.591 141.606 116.462 141.432 116.386C141.263 116.304 141.028 116.263 140.727 116.263H139.77C139.469 116.258 139.232 116.296 139.058 116.378C138.889 116.454 138.767 116.583 138.693 116.763C138.62 116.938 138.583 117.181 138.583 117.492V119.369C138.583 119.681 138.62 119.927 138.693 120.107C138.773 120.282 138.897 120.41 139.065 120.492C139.24 120.569 139.477 120.607 139.778 120.607H140.727Z" fill="black"/>
<path d="M148.326 115.755C148.468 115.755 148.539 115.84 148.539 116.009V120.861C148.539 121.031 148.458 121.115 148.294 121.115C148.131 121.115 148.049 121.031 148.049 120.861V116.788L146.41 119.345C146.342 119.454 146.244 119.509 146.118 119.509C146.017 119.509 145.933 119.454 145.864 119.345L144.226 116.788V120.861C144.226 121.031 144.144 121.115 143.981 121.115C143.817 121.115 143.735 121.031 143.735 120.861V116.009C143.735 115.84 143.817 115.755 143.981 115.755C144.092 115.755 144.181 115.809 144.25 115.919L146.149 118.894L148.033 115.919C148.101 115.809 148.199 115.755 148.326 115.755Z" fill="black"/>
<path d="M151.545 121.115C150.965 121.115 150.537 120.976 150.263 120.697C149.994 120.413 149.859 119.97 149.859 119.369V117.492C149.859 116.886 149.994 116.443 150.263 116.165C150.537 115.886 150.965 115.749 151.545 115.755H152.495C153.075 115.755 153.5 115.894 153.769 116.173C154.043 116.452 154.181 116.894 154.181 117.501V119.369C154.181 119.97 154.043 120.413 153.769 120.697C153.5 120.976 153.075 121.115 152.495 121.115H151.545ZM152.495 120.607C152.796 120.607 153.03 120.569 153.199 120.492C153.373 120.41 153.497 120.282 153.571 120.107C153.65 119.927 153.69 119.681 153.69 119.369V117.501C153.69 117.189 153.65 116.946 153.571 116.771C153.497 116.591 153.373 116.462 153.199 116.386C153.03 116.304 152.796 116.263 152.495 116.263H151.537C151.236 116.258 150.999 116.296 150.825 116.378C150.656 116.454 150.535 116.583 150.461 116.763C150.387 116.938 150.35 117.181 150.35 117.492V119.369C150.35 119.681 150.387 119.927 150.461 120.107C150.54 120.282 150.664 120.41 150.833 120.492C151.007 120.569 151.244 120.607 151.545 120.607H152.495Z" fill="black"/>
<path d="M156.721 121.115C156.558 121.115 156.476 121.031 156.476 120.861V116.255H154.838C154.674 116.255 154.592 116.17 154.592 116.001C154.592 115.924 154.613 115.864 154.656 115.82C154.698 115.771 154.759 115.747 154.838 115.747H158.605C158.679 115.747 158.737 115.771 158.779 115.82C158.827 115.864 158.85 115.924 158.85 116.001C158.85 116.083 158.827 116.146 158.779 116.189C158.737 116.233 158.679 116.255 158.605 116.255H156.967V120.861C156.967 120.943 156.943 121.006 156.895 121.05C156.853 121.093 156.795 121.115 156.721 121.115Z" fill="black"/>
<path d="M159.951 121.115C159.787 121.115 159.705 121.031 159.705 120.861V116.001C159.705 115.831 159.787 115.747 159.951 115.747C160.114 115.747 160.196 115.831 160.196 116.001V120.861C160.196 121.031 160.114 121.115 159.951 121.115Z" fill="black"/>
<path d="M163.305 121.115C163.195 121.115 163.115 121.055 163.068 120.935L161.042 116.115C161.021 116.061 161.01 116.02 161.01 115.993C161.01 115.927 161.037 115.872 161.089 115.829C161.142 115.779 161.208 115.755 161.287 115.755C161.387 115.755 161.456 115.807 161.493 115.911L163.345 120.312L165.173 115.911C165.21 115.807 165.276 115.755 165.371 115.755C165.413 115.755 165.448 115.76 165.474 115.771C165.59 115.804 165.648 115.878 165.648 115.993C165.648 116.031 165.64 116.072 165.624 116.115L163.59 120.935C163.543 121.055 163.458 121.115 163.337 121.115H163.305Z" fill="black"/>
<path d="M169.646 120.607C169.81 120.607 169.891 120.692 169.891 120.861C169.891 121.031 169.81 121.115 169.646 121.115H166.718C166.554 121.115 166.472 121.031 166.472 120.861V116.009C166.472 115.84 166.554 115.755 166.718 115.755H169.646C169.81 115.755 169.891 115.84 169.891 116.009C169.891 116.178 169.81 116.263 169.646 116.263H166.963V118.148H168.712C168.876 118.148 168.957 118.233 168.957 118.402C168.957 118.572 168.876 118.656 168.712 118.656H166.963V120.607H169.646Z" fill="black"/>
<path d="M126.442 129.352C126.631 129.352 126.726 129.45 126.726 129.647C126.726 129.844 126.631 129.942 126.442 129.942H122.332C122.142 129.942 122.047 129.844 122.047 129.647V122.929C122.047 122.732 122.142 122.633 122.332 122.633H126.442C126.631 122.633 126.726 122.732 126.726 122.929C126.726 123.125 126.631 123.224 126.442 123.224H122.617V125.947H125.148C125.338 125.947 125.433 126.046 125.433 126.242C125.433 126.439 125.338 126.537 125.148 126.537H122.617V129.352H126.442Z" fill="black"/>
<path d="M129.354 129.942C129.19 129.942 129.108 129.857 129.108 129.688V125.082H127.47C127.306 125.082 127.225 124.997 127.225 124.828C127.225 124.751 127.246 124.691 127.288 124.647C127.33 124.598 127.391 124.573 127.47 124.573H131.237C131.311 124.573 131.369 124.598 131.411 124.647C131.459 124.691 131.483 124.751 131.483 124.828C131.483 124.91 131.459 124.972 131.411 125.016C131.369 125.06 131.311 125.082 131.237 125.082H129.599V129.688C129.599 129.77 129.575 129.833 129.528 129.876C129.485 129.92 129.427 129.942 129.354 129.942Z" fill="black"/>
<path d="M132.583 129.942C132.514 129.942 132.456 129.917 132.409 129.868C132.361 129.819 132.338 129.759 132.338 129.688V124.836C132.338 124.759 132.361 124.699 132.409 124.655C132.456 124.606 132.514 124.582 132.583 124.582C132.657 124.582 132.715 124.606 132.757 124.655C132.805 124.699 132.828 124.759 132.828 124.836V126.967H136.113V124.836C136.113 124.759 136.137 124.699 136.184 124.655C136.232 124.606 136.29 124.582 136.358 124.582C136.432 124.582 136.49 124.606 136.532 124.655C136.58 124.699 136.604 124.759 136.604 124.836V129.688C136.604 129.759 136.58 129.819 136.532 129.868C136.49 129.917 136.432 129.942 136.358 129.942C136.29 129.942 136.232 129.917 136.184 129.868C136.137 129.819 136.113 129.759 136.113 129.688V127.475H132.828V129.688C132.828 129.759 132.805 129.819 132.757 129.868C132.715 129.917 132.657 129.942 132.583 129.942Z" fill="black"/>
<path d="M141.237 129.434C141.4 129.434 141.482 129.519 141.482 129.688C141.482 129.857 141.4 129.942 141.237 129.942H138.308C138.145 129.942 138.063 129.857 138.063 129.688V124.836C138.063 124.666 138.145 124.582 138.308 124.582H141.237C141.4 124.582 141.482 124.666 141.482 124.836C141.482 125.005 141.4 125.09 141.237 125.09H138.554V126.975H140.303C140.466 126.975 140.548 127.06 140.548 127.229C140.548 127.398 140.466 127.483 140.303 127.483H138.554V129.434H141.237Z" fill="black"/>
<path d="M146.058 129.606C146.085 129.644 146.098 129.693 146.098 129.754C146.098 129.83 146.058 129.898 145.979 129.958C145.942 129.986 145.895 129.999 145.837 129.999C145.763 129.999 145.697 129.958 145.639 129.876L144.373 127.745H143.019V129.688C143.019 129.857 142.937 129.942 142.774 129.942C142.61 129.942 142.528 129.857 142.528 129.688V124.836C142.528 124.666 142.61 124.582 142.774 124.582H144.626C145.085 124.582 145.433 124.705 145.67 124.95C145.913 125.196 146.035 125.56 146.035 126.041V126.286C146.035 126.707 145.94 127.041 145.75 127.286C145.565 127.527 145.293 127.672 144.934 127.721L146.058 129.606ZM143.019 127.237H144.626C144.948 127.237 145.18 127.163 145.322 127.016C145.47 126.863 145.544 126.62 145.544 126.286V126.041C145.544 125.707 145.47 125.467 145.322 125.319C145.18 125.166 144.948 125.09 144.626 125.09H143.019V127.237Z" fill="black"/>
<path d="M151.144 124.582C151.307 124.582 151.389 124.666 151.389 124.836V129.688C151.389 129.857 151.307 129.942 151.144 129.942C151.054 129.942 150.969 129.893 150.89 129.795L147.709 125.557V129.688C147.709 129.857 147.627 129.942 147.463 129.942C147.3 129.942 147.218 129.857 147.218 129.688V124.836C147.218 124.666 147.3 124.582 147.463 124.582C147.553 124.582 147.635 124.631 147.709 124.729L150.898 128.975V124.836C150.898 124.666 150.98 124.582 151.144 124.582Z" fill="black"/>
<path d="M156.017 129.434C156.18 129.434 156.262 129.519 156.262 129.688C156.262 129.857 156.18 129.942 156.017 129.942H153.088C152.925 129.942 152.843 129.857 152.843 129.688V124.836C152.843 124.666 152.925 124.582 153.088 124.582H156.017C156.18 124.582 156.262 124.666 156.262 124.836C156.262 125.005 156.18 125.09 156.017 125.09H153.334V126.975H155.083C155.246 126.975 155.328 127.06 155.328 127.229C155.328 127.398 155.246 127.483 155.083 127.483H153.334V129.434H156.017Z" fill="black"/>
<path d="M158.844 129.942C158.68 129.942 158.598 129.857 158.598 129.688V125.082H156.96C156.797 125.082 156.715 124.997 156.715 124.828C156.715 124.751 156.736 124.691 156.778 124.647C156.82 124.598 156.881 124.573 156.96 124.573H160.727C160.801 124.573 160.859 124.598 160.901 124.647C160.949 124.691 160.973 124.751 160.973 124.828C160.973 124.91 160.949 124.972 160.901 125.016C160.859 125.06 160.801 125.082 160.727 125.082H159.089V129.688C159.089 129.77 159.065 129.833 159.018 129.876C158.976 129.92 158.918 129.942 158.844 129.942Z" fill="black"/>
<path fill-rule="evenodd" clip-rule="evenodd" d="M174.742 87.2665C174.742 90.0694 172.462 92.3415 169.649 92.3415C167.215 92.3415 165.179 90.6392 164.676 88.3638H164.419C163.905 88.3638 163.409 88.6432 162.996 89.0019C162.798 89.1743 162.638 89.3484 162.528 89.4794C162.473 89.5444 162.432 89.5975 162.406 89.6327C162.4 89.6404 162.395 89.6472 162.391 89.6531L162.382 89.6648L162.378 89.671L162.373 89.6773L162.372 89.6785L162.35 89.7117L162.322 89.7431L162.267 89.8064L162.108 89.9878C161.971 90.1449 161.774 90.3714 161.533 90.6482C161.052 91.2019 160.4 91.9567 159.713 92.7615C158.905 93.7089 158.308 94.3724 157.588 94.7573C156.838 95.1577 156.03 95.222 154.922 95.222H134.322L135.34 97.0051H172.051C172.449 94.3654 174.735 92.3415 177.494 92.3415C180.535 92.3415 183 94.798 183 97.8281C183 100.858 180.535 103.315 177.494 103.315C174.64 103.315 172.293 101.149 172.016 98.3768H135.214L134.408 99.8856H155.473C156.576 99.8856 157.357 99.9369 158.084 100.248C158.798 100.553 159.399 101.085 160.211 101.847C160.898 102.491 161.55 103.094 162.03 103.537C162.271 103.759 162.468 103.94 162.605 104.065L162.74 104.188L162.764 104.21L162.818 104.26L162.819 104.261L162.851 104.29L162.877 104.321L162.878 104.322L162.882 104.326C162.887 104.331 162.895 104.341 162.908 104.354C162.918 104.365 162.929 104.377 162.943 104.391C162.966 104.414 162.993 104.442 163.026 104.473C163.133 104.575 163.291 104.713 163.488 104.85C163.891 105.13 164.408 105.372 164.97 105.372H165.678C165.885 103.293 167.646 101.669 169.787 101.669C172.067 101.669 173.916 103.511 173.916 105.784C173.916 108.056 172.067 109.899 169.787 109.899C167.838 109.899 166.205 108.553 165.771 106.744H164.97C164.018 106.744 163.227 106.34 162.701 105.975C162.434 105.789 162.221 105.604 162.075 105.464C162.001 105.394 161.943 105.334 161.902 105.29C161.887 105.274 161.874 105.26 161.863 105.248L161.834 105.221L161.674 105.075C161.602 105.009 161.514 104.929 161.412 104.835C161.318 104.748 161.212 104.651 161.096 104.544C160.613 104.1 159.958 103.493 159.268 102.846C158.429 102.059 157.997 101.703 157.541 101.508C157.098 101.319 156.572 101.257 155.473 101.257H133.676L132.943 102.629H139.507C140.607 102.629 141.34 102.66 142.019 102.834C142.702 103.01 143.29 103.32 144.112 103.783C144.799 104.169 145.451 104.531 145.931 104.797C146.172 104.929 146.369 105.038 146.506 105.113L146.665 105.201L146.719 105.23L146.754 105.249L146.783 105.27L146.785 105.271L146.787 105.272C146.791 105.275 146.799 105.281 146.811 105.288C146.824 105.296 146.84 105.307 146.861 105.319C146.88 105.331 146.902 105.344 146.928 105.358C147.033 105.419 147.193 105.502 147.394 105.587C147.801 105.756 148.363 105.921 149.004 105.921H150.025C150.352 103.975 152.051 102.492 154.097 102.492C156.377 102.492 158.226 104.334 158.226 106.607C158.226 108.879 156.377 110.722 154.097 110.722C152.051 110.722 150.352 109.239 150.025 107.292H149.004C148.131 107.292 147.386 107.07 146.863 106.852C146.601 106.743 146.39 106.632 146.242 106.548C146.168 106.505 146.109 106.469 146.067 106.442C146.053 106.433 146.04 106.425 146.03 106.418L146.001 106.402L145.842 106.315C145.704 106.239 145.505 106.13 145.264 105.996C144.781 105.729 144.126 105.365 143.436 104.977C142.606 104.51 142.162 104.288 141.676 104.163C141.184 104.037 140.61 104 139.507 104H132.211L131.112 106.058L126.432 97.5538L131.112 89.5983L131.816 90.8327H138.544C139.645 90.8327 140.189 90.7806 140.648 90.6136C141.112 90.4451 141.545 90.1406 142.381 89.4742C143.071 88.9239 143.726 88.4083 144.209 88.0303C144.451 87.8412 144.649 87.6865 144.787 87.579C144.856 87.5253 144.91 87.4833 144.947 87.4548L144.975 87.433C144.985 87.4232 144.998 87.4114 145.013 87.398C145.054 87.3603 145.113 87.309 145.187 87.2488C145.335 87.1289 145.548 86.9712 145.815 86.8136C146.343 86.5019 147.119 86.1692 148.041 86.1692H148.648C148.976 84.223 150.674 82.7401 152.72 82.7401C155.001 82.7401 156.849 84.5824 156.849 86.855C156.849 89.1276 155.001 90.9699 152.72 90.9699C150.674 90.9699 148.976 89.487 148.648 87.5408H148.041C147.449 87.5408 146.917 87.7567 146.516 87.9937C146.319 88.1104 146.162 88.227 146.056 88.3129C146.03 88.334 146.007 88.353 145.988 88.3696C145.968 88.3866 145.952 88.401 145.939 88.4122L145.925 88.4253L145.914 88.4357L145.91 88.4391L145.882 88.4674L145.848 88.4937L145.793 88.5366L145.634 88.6599C145.55 88.7256 145.443 88.8089 145.317 88.9071C145.238 88.9688 145.152 89.0362 145.059 89.1088C144.579 89.4852 143.927 89.9983 143.241 90.5453C142.425 91.1957 141.826 91.6455 141.12 91.9023C140.409 92.1605 139.645 92.2044 138.544 92.2044H132.6L133.539 93.8503H154.922C156.017 93.8503 156.516 93.7734 156.937 93.5485C157.387 93.3081 157.821 92.8622 158.665 91.8732C159.355 91.0643 160.01 90.3063 160.492 89.7506C160.734 89.4727 160.932 89.2452 161.07 89.0872C161.139 89.0082 161.193 88.9466 161.23 88.9046L161.262 88.8674C161.273 88.8526 161.287 88.834 161.303 88.8119C161.343 88.7589 161.399 88.686 161.472 88.5997C161.616 88.4281 161.826 88.1988 162.092 87.9678C162.608 87.5195 163.419 86.9921 164.419 86.9921H164.564C164.707 84.3168 166.929 82.1914 169.649 82.1914C172.462 82.1914 174.742 84.4636 174.742 87.2665ZM129.46 89.5983H124.092L119 97.5538L124.092 106.058H129.46L124.918 97.5538L129.46 89.5983Z" fill="#464F54"/>
<path d="M6.23607 100.115C5.09071 100.115 4.08572 99.8683 3.22108 99.3742C2.36768 98.8801 1.71079 98.1727 1.2504 97.2519C0.790009 96.3312 0.559814 95.2532 0.559814 94.018C0.559814 92.7828 0.790009 91.7104 1.2504 90.8009C1.71079 89.8801 2.36768 89.1727 3.22108 88.6786C4.08572 88.1845 5.09071 87.9375 6.23607 87.9375C6.97718 87.9375 7.67338 88.0498 8.32466 88.2744C8.97594 88.4877 9.55423 88.8021 10.0595 89.2176C10.2055 89.3299 10.3066 89.4478 10.3627 89.5713C10.4189 89.6948 10.4469 89.8464 10.4469 90.0261C10.4469 90.2731 10.3796 90.4809 10.2448 90.6493C10.1101 90.8177 9.94725 90.902 9.75635 90.902C9.53177 90.902 9.30158 90.8233 9.06577 90.6661C8.58292 90.3068 8.13376 90.0598 7.71829 89.925C7.30282 89.7791 6.84243 89.7061 6.33713 89.7061C5.16931 89.7061 4.28222 90.071 3.67586 90.8009C3.08072 91.5308 2.78315 92.6031 2.78315 94.018C2.78315 95.4441 3.08072 96.5221 3.67586 97.2519C4.28222 97.9818 5.16931 98.3468 6.33713 98.3468C6.81997 98.3468 7.26352 98.2738 7.66776 98.1278C8.08323 97.9818 8.54924 97.7348 9.06577 97.3867C9.17806 97.3193 9.29035 97.2632 9.40264 97.2183C9.51493 97.1733 9.63283 97.1509 9.75635 97.1509C9.94725 97.1509 10.1101 97.2351 10.2448 97.4035C10.3796 97.572 10.4469 97.7797 10.4469 98.0267C10.4469 98.1952 10.4189 98.3468 10.3627 98.4815C10.3066 98.605 10.2055 98.7229 10.0595 98.8352C9.55423 99.2507 8.97594 99.5707 8.32466 99.7953C7.67338 100.009 6.97718 100.115 6.23607 100.115Z" fill="#666666"/>
<path d="M22.7265 98.6668C22.7939 98.8128 22.8275 98.9587 22.8275 99.1047C22.8275 99.363 22.7209 99.582 22.5075 99.7616C22.3054 99.9413 22.0696 100.031 21.8001 100.031C21.6204 100.031 21.452 99.9862 21.2948 99.8964C21.1376 99.7953 21.0141 99.6437 20.9242 99.4416L19.9136 97.1846H13.9847L12.9741 99.4416C12.8843 99.6437 12.7608 99.7953 12.6036 99.8964C12.4464 99.9862 12.2723 100.031 12.0814 100.031C11.8231 100.031 11.5873 99.9413 11.374 99.7616C11.1606 99.582 11.054 99.363 11.054 99.1047C11.054 98.9587 11.0876 98.8128 11.155 98.6668L15.8038 88.6786C15.9049 88.454 16.0565 88.2856 16.2586 88.1733C16.4719 88.0498 16.6965 87.988 16.9323 87.988C17.1681 87.988 17.3871 88.0498 17.5892 88.1733C17.8026 88.2856 17.9598 88.454 18.0608 88.6786L22.7265 98.6668ZM14.7258 95.5002H19.1725L16.9492 90.4977L14.7258 95.5002Z" fill="#666666"/>
<path d="M33.2905 88.0049C33.6049 88.0049 33.852 88.1059 34.0316 88.3081C34.2225 88.4989 34.318 88.7572 34.318 89.0829V98.97C34.318 99.2956 34.2225 99.5595 34.0316 99.7616C33.8407 99.9637 33.5937 100.065 33.2905 100.065C32.9312 100.065 32.6561 99.9357 32.4652 99.6774L26.3173 91.6768V98.97C26.3173 99.2956 26.2275 99.5595 26.0478 99.7616C25.8681 99.9637 25.6211 100.065 25.3067 100.065C24.9923 100.065 24.7452 99.9637 24.5656 99.7616C24.3859 99.5595 24.2961 99.2956 24.2961 98.97V89.0829C24.2961 88.7572 24.3915 88.4989 24.5824 88.3081C24.7733 88.1059 25.026 88.0049 25.3404 88.0049C25.6885 88.0049 25.958 88.134 26.1489 88.3923L32.2799 96.3592V89.0829C32.2799 88.7572 32.3697 88.4989 32.5494 88.3081C32.7403 88.1059 32.9873 88.0049 33.2905 88.0049Z" fill="#666666"/>
<path d="M42.2611 112.598C41.9355 112.598 41.6828 112.508 41.5031 112.328C41.3235 112.148 41.2336 111.901 41.2336 111.587V101.717C41.2336 101.391 41.3291 101.133 41.52 100.942C41.7221 100.74 41.986 100.639 42.3116 100.639C42.6485 100.639 42.9124 100.74 43.1033 100.942C43.3054 101.133 43.4065 101.391 43.4065 101.717V110.812H48.1395C48.8132 110.812 49.1501 111.11 49.1501 111.705C49.1501 112.3 48.8132 112.598 48.1395 112.598H42.2611Z" fill="#FF9900"/>
<path d="M51.4861 112.699C51.1604 112.699 50.8965 112.598 50.6944 112.395C50.5035 112.193 50.4081 111.929 50.4081 111.604V101.717C50.4081 101.391 50.5035 101.133 50.6944 100.942C50.8965 100.74 51.1604 100.639 51.4861 100.639C51.8229 100.639 52.0868 100.74 52.2777 100.942C52.4798 101.133 52.5809 101.391 52.5809 101.717V111.604C52.5809 111.929 52.4798 112.193 52.2777 112.395C52.0868 112.598 51.8229 112.699 51.4861 112.699Z" fill="#FF9900"/>
<path d="M63.9713 100.639C64.2857 100.639 64.5327 100.74 64.7124 100.942C64.9033 101.133 64.9987 101.391 64.9987 101.717V111.604C64.9987 111.929 64.9033 112.193 64.7124 112.395C64.5215 112.598 64.2745 112.699 63.9713 112.699C63.612 112.699 63.3368 112.569 63.146 112.311L56.9981 104.311V111.604C56.9981 111.929 56.9083 112.193 56.7286 112.395C56.5489 112.598 56.3019 112.699 55.9875 112.699C55.6731 112.699 55.426 112.598 55.2464 112.395C55.0667 112.193 54.9769 111.929 54.9769 111.604V101.717C54.9769 101.391 55.0723 101.133 55.2632 100.942C55.4541 100.74 55.7067 100.639 56.0212 100.639C56.3693 100.639 56.6388 100.768 56.8296 101.026L62.9607 108.993V101.717C62.9607 101.391 63.0505 101.133 63.2302 100.942C63.4211 100.74 63.6681 100.639 63.9713 100.639Z" fill="#FF9900"/>
<path d="M6.23607 126.584C5.09071 126.584 4.08572 126.337 3.22108 125.843C2.36768 125.349 1.71079 124.641 1.2504 123.721C0.790009 122.8 0.559814 121.722 0.559814 120.487C0.559814 119.252 0.790009 118.179 1.2504 117.27C1.71079 116.349 2.36768 115.641 3.22108 115.147C4.08572 114.653 5.09071 114.406 6.23607 114.406C6.97718 114.406 7.67338 114.519 8.32466 114.743C8.97594 114.956 9.55423 115.271 10.0595 115.686C10.2055 115.799 10.3066 115.917 10.3627 116.04C10.4189 116.164 10.4469 116.315 10.4469 116.495C10.4469 116.742 10.3796 116.95 10.2448 117.118C10.1101 117.286 9.94725 117.371 9.75635 117.371C9.53177 117.371 9.30158 117.292 9.06577 117.135C8.58292 116.776 8.13376 116.529 7.71829 116.394C7.30282 116.248 6.84243 116.175 6.33713 116.175C5.16931 116.175 4.28222 116.54 3.67586 117.27C3.08072 118 2.78315 119.072 2.78315 120.487C2.78315 121.913 3.08072 122.991 3.67586 123.721C4.28222 124.451 5.16931 124.816 6.33713 124.816C6.81997 124.816 7.26352 124.743 7.66776 124.597C8.08323 124.451 8.54924 124.204 9.06577 123.855C9.17806 123.788 9.29035 123.732 9.40264 123.687C9.51493 123.642 9.63283 123.62 9.75635 123.62C9.94725 123.62 10.1101 123.704 10.2448 123.872C10.3796 124.041 10.4469 124.248 10.4469 124.495C10.4469 124.664 10.4189 124.816 10.3627 124.95C10.3066 125.074 10.2055 125.192 10.0595 125.304C9.55423 125.719 8.97594 126.039 8.32466 126.264C7.67338 126.477 6.97718 126.584 6.23607 126.584Z" fill="#3D85C6"/>
<path d="M22.7265 125.136C22.7939 125.282 22.8275 125.427 22.8275 125.573C22.8275 125.832 22.7209 126.051 22.5075 126.23C22.3054 126.41 22.0696 126.5 21.8001 126.5C21.6204 126.5 21.452 126.455 21.2948 126.365C21.1376 126.264 21.0141 126.112 20.9242 125.91L19.9136 123.653H13.9847L12.9741 125.91C12.8843 126.112 12.7608 126.264 12.6036 126.365C12.4464 126.455 12.2723 126.5 12.0814 126.5C11.8231 126.5 11.5873 126.41 11.374 126.23C11.1606 126.051 11.054 125.832 11.054 125.573C11.054 125.427 11.0876 125.282 11.155 125.136L15.8038 115.147C15.9049 114.923 16.0565 114.754 16.2586 114.642C16.4719 114.519 16.6965 114.457 16.9323 114.457C17.1681 114.457 17.3871 114.519 17.5892 114.642C17.8026 114.754 17.9598 114.923 18.0608 115.147L22.7265 125.136ZM14.7258 121.969H19.1725L16.9492 116.966L14.7258 121.969Z" fill="#3D85C6"/>
<path d="M33.2905 114.474C33.6049 114.474 33.852 114.575 34.0316 114.777C34.2225 114.968 34.318 115.226 34.318 115.552V125.439C34.318 125.764 34.2225 126.028 34.0316 126.23C33.8407 126.432 33.5937 126.534 33.2905 126.534C32.9312 126.534 32.6561 126.404 32.4652 126.146L26.3173 118.146V125.439C26.3173 125.764 26.2275 126.028 26.0478 126.23C25.8681 126.432 25.6211 126.534 25.3067 126.534C24.9923 126.534 24.7452 126.432 24.5656 126.23C24.3859 126.028 24.2961 125.764 24.2961 125.439V115.552C24.2961 115.226 24.3915 114.968 24.5824 114.777C24.7733 114.575 25.026 114.474 25.3404 114.474C25.6885 114.474 25.958 114.603 26.1489 114.861L32.2799 122.828V115.552C32.2799 115.226 32.3697 114.968 32.5494 114.777C32.7403 114.575 32.9873 114.474 33.2905 114.474Z" fill="#3D85C6"/>
<path d="M42.1932 126.534C41.8676 126.534 41.6037 126.432 41.4016 126.23C41.2107 126.028 41.1152 125.764 41.1152 125.439V115.585C41.1152 115.26 41.205 115.007 41.3847 114.827C41.5756 114.648 41.8339 114.558 42.1595 114.558H48.0716C48.7565 114.558 49.099 114.85 49.099 115.434C49.099 116.006 48.7565 116.293 48.0716 116.293H43.2543V119.527H47.7347C48.4197 119.527 48.7622 119.819 48.7622 120.403C48.7622 120.975 48.4197 121.262 47.7347 121.262H43.2543V125.439C43.2543 125.764 43.1589 126.028 42.968 126.23C42.7771 126.432 42.5188 126.534 42.1932 126.534Z" fill="#3D85C6"/>
<path d="M51.5313 126.432C51.2057 126.432 50.9474 126.343 50.7565 126.163C50.5769 125.983 50.487 125.731 50.487 125.405V115.585C50.487 115.26 50.5769 115.007 50.7565 114.827C50.9474 114.648 51.2057 114.558 51.5313 114.558H54.8663C56.809 114.558 58.3136 115.08 59.3804 116.124C60.4584 117.157 60.9974 118.612 60.9974 120.487C60.9974 122.373 60.4584 123.839 59.3804 124.883C58.3136 125.916 56.809 126.432 54.8663 126.432H51.5313ZM54.7316 124.664C57.4602 124.664 58.8246 123.272 58.8246 120.487C58.8246 117.713 57.4602 116.326 54.7316 116.326H52.6598V124.664H54.7316Z" fill="#3D85C6"/>
<path fill-rule="evenodd" clip-rule="evenodd" d="M22.8401 19.2972C22.8401 18.9141 22.8408 18.5309 22.8414 18.1478C22.8432 16.9985 22.845 15.8492 22.8304 14.6999C22.8304 14.4317 22.8207 14.1252 22.6942 13.9145C22.4217 13.4739 22.4509 13.0525 22.5969 12.5927C22.6986 12.2625 22.7902 11.928 22.8817 11.5936L22.8817 11.5936L22.8817 11.5936L22.8817 11.5936L22.8817 11.5936L22.8817 11.5935L22.8818 11.5935C23.0265 11.0647 23.1711 10.5363 23.3559 10.0258C23.9787 8.27308 25.6428 7.526 27.2776 8.31139C27.7739 8.55084 28.2702 8.98184 28.533 9.45116C30.1387 12.2958 31.6859 15.1692 33.2332 18.0425L33.2332 18.0425L33.2343 18.0445C33.4092 18.36 33.5941 18.6937 33.9728 18.6076C34.2356 18.5406 34.5275 18.282 34.6637 18.0425C35.4185 16.6807 36.162 15.3144 36.9052 13.9491L36.9054 13.9486L36.9057 13.948L36.9058 13.9479L36.906 13.9476L36.9061 13.9474C37.7148 12.4613 38.5231 10.9763 39.3445 9.49905C39.9284 8.4359 40.9113 7.9187 42.1374 8.03363C43.3636 8.13899 44.2005 8.85733 44.5508 10.0163C45.0229 11.6094 45.4719 13.2082 45.9201 14.804L45.9201 14.8042L45.9206 14.8059C46.0543 15.2817 46.1878 15.7573 46.3219 16.2323C46.6722 17.4918 47.0201 18.7537 47.368 20.0156L47.3682 20.0161C47.716 21.2778 48.0639 22.5395 48.4141 23.7989C48.6477 24.6226 48.4433 24.8907 47.5675 24.8907C47.2269 24.8907 46.8863 24.8897 46.5457 24.8886C45.8645 24.8865 45.1833 24.8844 44.5021 24.8907C43.9961 24.9003 43.7431 24.68 43.6263 24.1916C43.2652 22.7536 42.8917 21.3217 42.5181 19.8891C42.2272 18.7738 41.9362 17.6582 41.6508 16.5388C41.5633 16.1844 41.3978 15.9067 40.9988 15.8684C40.5999 15.83 40.4052 16.0887 40.2398 16.4143C39.0234 18.8088 37.7972 21.2033 36.5516 23.5882C35.7342 25.1494 33.603 25.724 32.192 24.7183C31.7249 24.3927 31.3551 23.8659 31.0826 23.3583C30.2731 21.8366 29.4907 20.3015 28.7077 18.7653L28.7075 18.7649C28.3423 18.0483 27.9769 17.3314 27.6085 16.6154C27.5915 16.582 27.5762 16.5461 27.5608 16.5102L27.5608 16.5102L27.5608 16.5102L27.5608 16.5102L27.5608 16.5101L27.5608 16.5101C27.5233 16.4225 27.4857 16.3345 27.4236 16.2802C27.3882 16.2533 27.3514 16.2239 27.3137 16.1939C27.1239 16.0425 26.9113 15.8731 26.7327 15.8971C26.5186 15.9162 26.2169 16.194 26.1488 16.4143C25.9452 17.0845 25.7748 17.7629 25.6051 18.4388C25.5153 18.7965 25.4257 19.1534 25.3314 19.508L25.3312 19.5085L25.3312 19.5086C24.9128 21.0983 24.4944 22.688 24.0858 24.2778C23.9884 24.6513 23.7744 24.9003 23.3754 24.8429C22.9667 24.7854 22.8401 24.4885 22.8401 24.1054C22.8466 23.054 22.8445 21.99 22.8423 20.9189V20.9186V20.9183V20.9179V20.9176V20.9173C22.8412 20.3789 22.8401 19.8386 22.8401 19.2972ZM10.5203 18.1957C10.6832 17.9925 10.8439 17.7917 11.003 17.5929L11.0031 17.5928C11.804 16.5924 12.563 15.6442 13.3424 14.7093C13.4202 14.6135 13.6246 14.5656 13.7803 14.5656C14.9383 14.5608 16.0988 14.5608 17.2592 14.5608C18.4197 14.5608 19.5802 14.5608 20.7382 14.556C21.0691 14.556 21.1858 14.6614 21.1858 14.9966C21.1761 18.1573 21.1761 21.318 21.1858 24.4788C21.1858 24.8236 21.0691 24.9098 20.7285 24.9098C19.7567 24.9064 18.7837 24.9102 17.8103 24.9139C16.0253 24.9209 14.239 24.9278 12.4568 24.8906C9.66392 24.8331 7.16297 23.9903 5.20696 21.931C1.76206 18.3202 2.30702 12.1999 7.1435 9.61385C8.73944 8.76141 10.4522 8.32083 12.2622 8.30167C14.3958 8.28115 16.5244 8.28506 18.6552 8.28896C19.508 8.29053 20.3611 8.29209 21.215 8.29209C21.3221 8.29209 21.4291 8.30167 21.6238 8.32083C21.0593 9.08706 20.5436 9.78625 20.0181 10.495C19.8546 10.7172 19.688 10.9364 19.5214 11.1555L19.5214 11.1555C19.2715 11.4842 19.0216 11.8129 18.7822 12.152C18.5778 12.4393 18.354 12.5734 17.9842 12.5638C16.1645 12.5447 14.3544 12.5351 12.5347 12.5638C11.1042 12.5926 9.83909 13.0523 8.86595 14.1442C7.15323 16.0694 7.85389 19.1534 10.2381 20.1687C10.9971 20.4848 11.7756 20.6572 12.6028 20.6476C13.6732 20.638 14.7437 20.6284 15.8141 20.6572C16.2034 20.6667 16.3299 20.5327 16.3104 20.1591C16.2812 19.6611 16.2812 19.1726 16.3104 18.6745C16.3299 18.301 16.2034 18.1765 15.8141 18.1765C14.6607 18.1909 13.5019 18.1891 12.3457 18.1873H12.3457H12.3456H12.3456H12.3456H12.3455L12.3446 18.1873C11.9599 18.1867 11.5755 18.1861 11.1917 18.1861C11.0068 18.1957 10.8317 18.1957 10.5203 18.1957ZM64.7618 9.17491C64.9768 8.88407 65.1942 8.59005 65.415 8.29222H64.9673C63.989 8.29222 63.0113 8.29162 62.0339 8.29102C59.103 8.28923 56.1748 8.28743 53.2411 8.3018C52.5793 8.3018 51.9079 8.36885 51.2559 8.48378C49.8059 8.74238 48.4727 9.25001 47.5774 10.4951C46.9935 11.2997 46.6627 12.1425 47.0422 13.177C47.3925 14.1156 47.6358 15.1021 47.8499 16.0791C47.9959 16.7304 48.3754 17.1039 48.9301 17.3912C50.0978 17.9946 51.3532 18.1766 52.6475 18.1862C54.8076 18.1958 56.9581 18.1958 59.1183 18.1958H59.1188C59.4107 18.1958 59.7124 18.2054 59.9946 18.2437C60.8121 18.3586 61.1429 18.7513 61.104 19.5271C61.0748 20.1976 60.6466 20.5807 59.8876 20.6286C59.6248 20.6477 59.3718 20.6477 59.1091 20.6477H49.767C49.2026 20.6477 49.1636 20.7052 49.3096 21.2224C49.393 21.5262 49.478 21.8299 49.563 22.1337C49.7755 22.8931 49.988 23.6525 50.1757 24.4118C50.273 24.7854 50.4384 24.9003 50.8374 24.9003C52.555 24.8907 54.275 24.8907 55.995 24.8907C57.715 24.8907 59.4351 24.8907 61.1526 24.8812C61.8728 24.8716 62.6026 24.795 63.3228 24.68C64.6851 24.4597 65.5415 23.7222 65.6972 22.3813C65.8432 21.1075 65.8821 19.7953 65.7653 18.5214C65.6388 17.0943 64.7435 16.1078 63.4006 15.5427C62.3983 15.1213 61.3473 14.968 60.2671 14.9584C59.287 14.9543 58.3069 14.9555 57.3268 14.9567C56.0201 14.9583 54.7133 14.9598 53.4065 14.9489C53.0075 14.9489 52.5891 14.8914 52.2095 14.786C51.6646 14.6328 51.4602 14.2784 51.47 13.6942C51.4797 13.1578 51.723 12.8034 52.2582 12.6789C52.6475 12.5927 53.0659 12.5544 53.4649 12.5544C54.8516 12.5496 56.2383 12.5496 57.625 12.5496C59.0118 12.5496 60.3985 12.5496 61.7852 12.5448C61.9896 12.5448 62.2718 12.4873 62.3788 12.3533C63.1782 11.3168 63.9534 10.2683 64.7618 9.17491ZM77.511 39.7746L77.1606 40.2216C76.4395 41.1414 75.7673 41.9988 75.0879 42.8491C75.0101 42.9449 74.8057 42.9928 74.6597 42.9928C70.3585 43.0024 66.0669 43.0024 61.7657 42.9928C61.2305 42.9928 60.9872 42.7725 60.9774 42.2457C60.9677 41.0006 60.958 39.7555 60.9872 38.5104C61.0164 37.2173 61.8046 36.1159 63.0891 35.7519C63.9942 35.4933 64.9576 35.3305 65.9015 35.3018C67.3441 35.2544 68.7866 35.2644 70.2291 35.2743C70.8302 35.2785 71.4312 35.2826 72.0323 35.2826L72.0768 35.2827L72.1449 35.283C72.3699 35.2842 72.5939 35.2853 72.8108 35.2443C73.2487 35.1581 73.5406 34.9091 73.5698 34.4397C73.599 33.9417 73.4141 33.6448 72.9178 33.5203C72.6259 33.4436 72.3145 33.4341 72.0031 33.4341C69.8297 33.4277 67.6564 33.4298 65.4831 33.4319L65.474 33.4319C64.3904 33.433 63.3067 33.4341 62.2231 33.4341H61.5808C61.7955 33.1567 61.9979 32.8914 62.1946 32.6336L62.1956 32.6324L62.1957 32.6323L62.1962 32.6315L62.1963 32.6314C62.4268 32.3293 62.6495 32.0374 62.8751 31.7483C62.9399 31.6644 63.0108 31.5827 63.0817 31.501L63.0817 31.5009L63.0818 31.5009C63.2131 31.3496 63.3447 31.1979 63.4395 31.03C63.8482 30.235 64.5099 30.0914 65.3566 30.1201C66.6407 30.1569 67.9248 30.1672 69.2078 30.1775C70.5987 30.1886 71.9883 30.1998 73.3752 30.2446C74.5235 30.2829 75.6037 30.666 76.46 31.4897C78.3868 33.3383 77.5305 36.7863 74.9419 37.4759C74.1732 37.6867 73.346 37.792 72.548 37.8112C71.0756 37.846 69.598 37.8403 68.1227 37.8346C67.57 37.8325 67.0176 37.8303 66.4659 37.8303C66.2713 37.8303 66.0767 37.8303 65.882 37.8495C64.8603 37.9548 64.7435 38.5678 64.9186 39.4394C64.9478 39.5927 65.3371 39.7651 65.5706 39.7651C67.1122 39.7881 68.66 39.7865 70.2041 39.785C70.59 39.7846 70.9756 39.7842 71.3608 39.7842C73.3557 39.7746 75.3701 39.7746 77.511 39.7746ZM70.2903 8.93394V8.29222C70.1281 8.29222 69.9677 8.29195 69.8091 8.29168C69.0259 8.29035 68.2841 8.2891 67.5558 8.32096C67.4196 8.32096 67.2444 8.46462 67.1471 8.58914C66.9642 8.81901 66.7937 9.06114 66.6232 9.30327C66.3674 9.66646 66.1117 10.0297 65.8139 10.3515C64.8408 11.3955 64.4029 12.5735 64.5975 14.0007C64.6364 14.3167 64.7143 14.4987 64.9965 14.6807C65.921 15.2649 66.5827 16.0791 66.9914 17.0847C67.5603 18.4804 67.4726 19.9242 67.3852 21.3637L67.3851 21.3642C67.3694 21.6236 67.3536 21.883 67.3417 22.1419C67.3028 23.138 66.9136 24.0479 66.2129 24.9003H66.8454C67.5522 24.9003 68.2589 24.8925 68.9654 24.8848C70.6131 24.8667 72.2592 24.8486 73.9007 24.929C75.263 24.9961 76.2946 24.7375 76.8882 23.454C76.9012 23.4221 76.9228 23.3987 76.9444 23.3753C76.9552 23.3636 76.966 23.3519 76.9758 23.3391C77.2415 22.9878 77.5072 22.6349 77.7776 22.2759L77.7781 22.2751L77.7803 22.2722C78.1724 21.7514 78.5742 21.2177 78.9999 20.6573H78.3771C77.7528 20.6573 77.1292 20.6567 76.5058 20.6561L76.5021 20.6561C74.6294 20.6543 72.7594 20.6525 70.8839 20.6669C70.4168 20.6669 70.2806 20.5519 70.2806 20.0826C70.2952 17.2966 70.2934 14.5106 70.2915 11.7246V11.7215C70.2909 10.7923 70.2903 9.86314 70.2903 8.93394ZM44.7366 32.4243L44.7369 32.4239L44.7372 32.4235C45.2677 31.6958 45.7756 30.9992 46.2928 30.3117C46.3803 30.1968 46.5944 30.1297 46.7501 30.1297C48.0152 30.1202 49.2803 30.1202 50.5454 30.1202C50.9833 30.1202 51.1973 30.3117 51.1973 30.7619V42.3416C51.1973 42.8684 51.0611 42.9833 50.5356 42.9929H48.1028C47.2367 42.9929 47.188 42.945 47.188 42.0638V34.3057C47.188 33.5012 47.1102 33.4245 46.3025 33.4245H44.0059C44.256 33.0835 44.4986 32.7508 44.7366 32.4243ZM54.6617 36.547C54.6617 37.3324 55.2845 37.8592 56.2382 37.8592C57.1821 37.8496 57.8244 37.3324 57.8341 36.5566C57.8536 35.7233 57.2113 35.1774 56.209 35.187C55.2942 35.187 54.6617 35.7425 54.6617 36.547Z" fill="#484946"/>
</svg>
