<svg width="507" height="130" viewBox="0 0 507 130" fill="none" xmlns="http://www.w3.org/2000/svg">
<path fill-rule="evenodd" clip-rule="evenodd" d="M93.8919 5H85.593C84.4132 5 83.2729 5.95667 83.046 7.13645L81.0117 17.7004C80.7848 18.8807 81.5562 19.8374 82.7365 19.8374H85.8734L85.4904 21.768H70.4823L70.8653 19.8374H74.0022C75.182 19.8374 76.3223 18.8807 76.5502 17.7004L78.5835 7.13645C78.8115 5.95667 78.039 5 76.8587 5H68.5598C67.38 5 66.2397 5.95667 66.0128 7.13645L63.9784 17.7004C63.7516 18.8807 64.524 19.8374 65.7033 19.8374H68.8401L68.4571 21.768H53.5712L53.9542 19.8374H56.9684C58.1493 19.8374 59.2896 18.8807 59.5165 17.7004L61.5508 7.13645C61.7777 5.95667 61.0052 5 59.826 5H51.5266C50.3462 5 49.2059 5.95667 48.9785 7.13645L46.9447 17.7004C46.7178 18.8807 47.4897 19.8374 48.6695 19.8374H51.9284L51.5455 21.768H36.4153L36.7983 19.8374H39.9352C41.1155 19.8374 42.2558 18.8807 42.4827 17.7004L44.5171 7.13645C44.7439 5.95667 43.9715 5 42.7922 5H34.4917C33.3119 5 32.1716 5.95667 31.9442 7.13645L29.9104 17.7004C29.6835 18.8807 30.4554 19.8374 31.6352 19.8374H34.7721L34.3891 21.768H19.381L19.764 19.8374H22.9009C24.0806 19.8374 25.221 18.8807 25.4479 17.7004L27.4822 7.13645C27.7091 5.95667 26.9372 5 25.7574 5H17.4585C16.2782 5 15.1384 5.95667 14.9109 7.13645L12.8771 17.7004C12.6497 18.8807 13.4222 19.8374 14.602 19.8374H17.7388L17.3564 21.768H3.97104L2.84042 27.232H8.14075L7.75776 29.1626H4.62088C3.44111 29.1626 2.30077 30.1193 2.07335 31.2991L0.0395445 41.8636C-0.187335 43.0433 0.585135 44 1.76437 44H10.0633C11.2431 44 12.3834 43.0433 12.6108 41.8636L14.6441 31.2991C14.8715 30.1193 14.099 29.1626 12.9193 29.1626H9.78293L10.1654 27.232H25.174L24.791 29.1626H21.6541C20.4743 29.1626 19.334 30.1193 19.1066 31.2991L17.0728 41.8636C16.8459 43.0433 17.6178 44 18.7976 44H27.0971C28.2768 44 29.4172 43.0433 29.6446 41.8636L31.6784 31.2991C31.9058 30.1193 31.1333 29.1626 29.9536 29.1626H26.8167L27.1997 27.232H42.3298L41.9474 29.1626H38.6879C37.5081 29.1626 36.3678 30.1193 36.1404 31.2991L34.1071 41.8636C33.8797 43.0433 34.6521 44 35.8319 44H44.1308C45.3106 44 46.4509 43.0433 46.6784 41.8636L48.7122 31.2991C48.9396 30.1193 48.1671 29.1626 46.9873 29.1626H43.9725L44.3555 27.232H59.2421L58.8591 29.1626H55.7211C54.5413 29.1626 53.401 30.1193 53.1741 31.2991L51.1398 41.8636C50.9129 43.0433 51.6854 44 52.8646 44H61.1635C62.3444 44 63.4847 43.0433 63.7116 41.8636L65.7459 31.2991C65.9728 30.1193 65.2003 29.1626 64.0211 29.1626H60.8832L61.2662 27.232H76.2753L75.8923 29.1626H72.7543C71.5746 29.1626 70.4342 30.1193 70.2074 31.2991L68.173 41.8636C67.9461 43.0433 68.7186 44 69.8978 44H78.1967C79.3765 44 80.5179 43.0433 80.7448 41.8636L82.7792 31.2991C83.006 30.1193 82.2336 29.1626 81.0533 29.1626H77.9164L78.2994 27.232H91.0116L92.1417 21.768H87.5155L87.8985 19.8374H91.0354C92.2152 19.8374 93.3555 18.8807 93.5824 17.7004L95.6168 7.13645C95.8442 5.95667 95.0717 5 93.8919 5Z" fill="#1E71B8"/>
<path fill-rule="evenodd" clip-rule="evenodd" d="M21.5155 23.5487C21.7494 23.5487 21.9006 23.5612 21.9687 23.5855C22.0324 23.6077 22.0875 23.6493 22.1264 23.7043C22.166 23.7665 22.1856 23.8392 22.1826 23.9128C22.1826 24.0387 22.1459 24.1543 22.0724 24.2596C21.999 24.3644 21.8985 24.4411 21.771 24.4892C21.6435 24.5373 21.3891 24.5605 21.0077 24.5605H20.7852L20.9985 23.5487H21.5155ZM21.1282 25.1412C21.4388 25.1412 21.6511 25.1337 21.7645 25.118C21.959 25.0904 22.1135 25.0516 22.228 24.9986C22.3431 24.9468 22.45 24.8711 22.5499 24.7707C22.6499 24.6702 22.7336 24.5362 22.8028 24.3688C22.8714 24.2013 22.9054 24.0295 22.9054 23.8523C22.9054 23.6611 22.8622 23.4963 22.7763 23.3586C22.6947 23.2242 22.5717 23.1199 22.4257 23.0615C22.2782 23.0021 22.0778 22.9718 21.8245 22.9718H20.3989L19.6648 26.4776H20.387L20.6669 25.1407H21.1282V25.1412ZM25.0499 23.5585C25.2617 23.5585 25.3994 23.5779 25.4637 23.6157C25.5134 23.6449 25.5541 23.6871 25.5815 23.7377C25.609 23.7884 25.622 23.8456 25.6193 23.9031C25.6177 24.0155 25.58 24.1244 25.5118 24.2137C25.44 24.312 25.3406 24.385 25.2136 24.4314C25.0867 24.4779 24.8301 24.5011 24.4422 24.5011H24.0598L24.2559 23.5585H25.0499ZM24.244 25.0267C24.4147 25.0267 24.5341 25.051 24.6032 25.0964C24.7145 25.1747 24.8198 25.3276 24.9187 25.5534C25.1007 25.9731 25.2223 26.2816 25.2849 26.4787H26.0601C25.8624 25.9785 25.683 25.5912 25.5215 25.3173C25.4518 25.1955 25.364 25.0849 25.2611 24.9894C25.6231 24.943 25.8932 24.8236 26.0714 24.6297C26.2508 24.4357 26.3399 24.1905 26.3399 23.8918C26.3399 23.6827 26.294 23.505 26.2027 23.3586C26.1109 23.2122 25.9904 23.1107 25.8413 23.0556C25.6922 23.0005 25.4837 22.9734 25.2158 22.9734H23.659L22.9248 26.4793H23.6471L23.9507 25.0272H24.244V25.0267ZM27.6936 24.0079C27.9146 23.6795 28.2009 23.5153 28.5536 23.5153C28.7832 23.5153 28.9722 23.5936 29.1203 23.7508C29.2688 23.908 29.3428 24.124 29.3428 24.4001C29.3428 24.6475 29.2845 24.9008 29.1672 25.1623C29.05 25.4227 28.9015 25.6171 28.7221 25.7457C28.5428 25.8732 28.3559 25.9375 28.1614 25.9375C27.9221 25.9375 27.7293 25.8564 27.5829 25.6938C27.4365 25.5312 27.363 25.3297 27.363 25.0883C27.3606 24.7029 27.476 24.326 27.6936 24.0079ZM26.7883 25.7673C26.8806 25.9866 27.0378 26.1703 27.2593 26.3188C27.4813 26.4663 27.7557 26.5403 28.0826 26.5403C28.4585 26.5403 28.7956 26.4474 29.0943 26.2605C29.3925 26.0736 29.628 25.8078 29.802 25.4616C29.9723 25.1291 30.0617 24.7612 30.0629 24.3877C30.0629 23.9431 29.9284 23.586 29.6615 23.3165C29.3947 23.0469 29.0441 22.9119 28.6103 22.9119C28.2867 22.9119 27.9983 22.9778 27.7444 23.109C27.4956 23.2369 27.2798 23.4207 27.114 23.646C26.9405 23.8873 26.8144 24.1593 26.7423 24.4476C26.6797 24.6777 26.6489 24.896 26.6489 25.1029C26.6494 25.327 26.6953 25.5474 26.7883 25.7673ZM32.7476 25.2163L33.4747 25.326C33.3326 25.7198 33.1203 26.0201 32.8362 26.2281C32.5526 26.4371 32.2199 26.5403 31.8385 26.5403C31.4096 26.5403 31.0747 26.4117 30.8332 26.153C30.5917 25.8942 30.4707 25.5199 30.4707 25.0294C30.4707 24.6307 30.5512 24.2656 30.7133 23.935C30.8753 23.6044 31.0995 23.3505 31.3869 23.1755C31.6687 23.0017 31.9936 22.9106 32.3246 22.9124C32.7044 22.9124 33.0112 23.014 33.2451 23.2176C33.4801 23.4207 33.6179 23.6978 33.6595 24.0484L32.968 24.1154C32.9297 23.9112 32.8557 23.7632 32.7465 23.6719C32.6374 23.5801 32.4921 23.5347 32.3095 23.5347C32.1107 23.5347 31.9244 23.5952 31.7515 23.7162C31.5786 23.8372 31.4398 24.0268 31.3361 24.2839C31.235 24.5288 31.1822 24.7909 31.1805 25.0559C31.1805 25.3368 31.2481 25.5528 31.3831 25.7057C31.5181 25.8597 31.6856 25.9358 31.8871 25.9358C32.0735 25.9358 32.2447 25.8759 32.4003 25.7543C32.5558 25.6333 32.6714 25.454 32.7476 25.2163ZM36.4598 26.4782H33.721L34.453 22.9724H37.0529L36.9308 23.5585H35.0531L34.8862 24.3547H36.7013L36.5792 24.9408H34.7636L34.5437 25.8926H36.584L36.4598 26.4782ZM37.0734 25.3433L37.76 25.3076C37.7692 25.5258 37.807 25.6728 37.8724 25.7495C37.9772 25.8737 38.1722 25.9364 38.4558 25.9364C38.6918 25.9364 38.8625 25.8942 38.9679 25.81C39.0727 25.7257 39.1256 25.6231 39.1256 25.5042C39.1257 25.4533 39.1141 25.4031 39.0917 25.3574C39.0693 25.3117 39.0368 25.2718 38.9965 25.2406C38.936 25.1877 38.7696 25.1034 38.4974 24.9851C38.2262 24.8663 38.0274 24.7669 37.9021 24.6891C37.7798 24.6128 37.6783 24.5074 37.6066 24.3823C37.5325 24.2466 37.4954 24.0938 37.4991 23.9393C37.4991 23.6444 37.6061 23.3991 37.82 23.2052C38.0334 23.0107 38.3429 22.9129 38.748 22.9129C39.1591 22.9129 39.4773 23.0096 39.7031 23.2025C39.9283 23.3953 40.0526 23.6519 40.0753 23.9723L39.3844 24.0036C39.366 23.8356 39.306 23.7076 39.2023 23.6184C39.0991 23.5293 38.9457 23.4845 38.7432 23.4845C38.5438 23.4845 38.4012 23.5196 38.3164 23.5893C38.2759 23.6206 38.2432 23.6609 38.221 23.707C38.1988 23.7532 38.1876 23.8038 38.1884 23.855C38.1884 23.956 38.2273 24.0387 38.3056 24.1041C38.3839 24.171 38.5563 24.2629 38.8247 24.379C39.2282 24.553 39.4848 24.6945 39.5945 24.8031C39.7593 24.9613 39.8414 25.1671 39.8414 25.4173C39.8414 25.7262 39.7187 25.9909 39.474 26.2097C39.2293 26.4301 38.8885 26.5387 38.4515 26.5387C38.15 26.5387 37.8891 26.4879 37.6682 26.3869C37.4473 26.2859 37.2917 26.1454 37.2004 25.965C37.107 25.7715 37.0634 25.5578 37.0734 25.3433ZM40.3162 25.3433L41.0028 25.3076C41.0125 25.5258 41.0503 25.6728 41.1157 25.7495C41.2205 25.8737 41.4149 25.9364 41.6991 25.9364C41.9351 25.9364 42.1058 25.8942 42.2106 25.81C42.3165 25.7257 42.3689 25.6231 42.3689 25.5042C42.369 25.4533 42.3574 25.4031 42.335 25.3574C42.3126 25.3117 42.28 25.2718 42.2398 25.2406C42.1793 25.1877 42.0129 25.1034 41.7412 24.9851C41.4695 24.8668 41.2702 24.7679 41.1454 24.6896C41.0231 24.6133 40.9215 24.5079 40.8499 24.3828C40.7758 24.2471 40.7387 24.0944 40.7424 23.9398C40.7424 23.6449 40.8488 23.3997 41.0627 23.2057C41.2766 23.0113 41.5856 22.9135 41.9908 22.9135C42.4019 22.9135 42.7206 23.0102 42.9464 23.203C43.1716 23.3959 43.2953 23.6525 43.318 23.9728L42.6266 24.0041C42.6093 23.8361 42.5482 23.7081 42.4445 23.619C42.3414 23.5298 42.1879 23.485 41.9854 23.485C41.786 23.485 41.6434 23.5201 41.5581 23.5898C41.5176 23.6211 41.4849 23.6614 41.4627 23.7076C41.4404 23.7537 41.4293 23.8044 41.4301 23.8556C41.4301 23.9566 41.4689 24.0392 41.5473 24.1046C41.6256 24.1716 41.7985 24.2634 42.0664 24.3796C42.4699 24.5535 42.7265 24.695 42.8367 24.8036C43.0009 24.9619 43.083 25.1677 43.083 25.4178C43.083 25.7268 42.9604 25.9915 42.7157 26.2103C42.471 26.4307 42.1301 26.5392 41.6931 26.5392C41.3917 26.5392 41.1308 26.4885 40.9099 26.3874C40.6889 26.2859 40.5333 26.146 40.4421 25.9655C40.3494 25.7717 40.3061 25.5579 40.3162 25.3433ZM45.4982 26.4782H44.776L45.5101 22.9724H47.9642L47.8399 23.5585H46.1081L45.9309 24.4001H47.6293L47.5072 24.9862H45.8094L45.4982 26.4782ZM48.4444 26.4782H47.7222L48.4563 22.9724H49.1763L48.4444 26.4782ZM51.8276 26.4782H49.0894L49.8213 22.9724H52.4218L52.2992 23.5585H50.4215L50.254 24.3547H52.0696L51.9481 24.9408H50.1325L49.9121 25.8926H51.9524L51.8276 26.4782ZM54.858 26.4782H52.3521L53.0852 22.9724H53.8058L53.1959 25.8926H54.9801L54.858 26.4782ZM57.0631 23.5514C57.2754 23.5514 57.4218 23.566 57.505 23.5947C57.6233 23.6357 57.7221 23.7194 57.8037 23.8442C57.8836 23.9696 57.9242 24.1565 57.9242 24.4049C57.9242 24.6972 57.8755 24.9505 57.7778 25.1655C57.6805 25.3805 57.5617 25.5528 57.4202 25.6825C57.3208 25.7711 57.2122 25.8321 57.0933 25.8651C56.9745 25.898 56.7833 25.9148 56.5186 25.9148H56.1523L56.645 23.5514H57.0631ZM57.2392 26.4263C57.5039 26.362 57.7205 26.2637 57.888 26.1298C58.1062 25.9569 58.2877 25.7246 58.4314 25.4324C58.5762 25.1401 58.6485 24.8047 58.6485 24.4265C58.6485 24.251 58.6296 24.0895 58.5934 23.9425C58.5611 23.805 58.5081 23.6731 58.4363 23.5514C58.372 23.442 58.2904 23.3437 58.1948 23.2603C58.1025 23.1805 57.9973 23.1171 57.8836 23.0728C57.7589 23.0255 57.6282 22.9955 57.4952 22.9837C57.3273 22.9735 57.159 22.9697 56.9907 22.9724H56.0454L55.3113 26.4782H56.5478C56.8594 26.4782 57.0901 26.4614 57.2392 26.4263ZM62.0366 23.5585C62.2381 23.5585 62.3645 23.5633 62.4164 23.5731C62.4998 23.5861 62.5765 23.6263 62.6346 23.6876C62.6868 23.7488 62.714 23.8275 62.7108 23.908C62.7109 24.0049 62.6793 24.0993 62.6206 24.1765C62.562 24.2537 62.4796 24.3095 62.3861 24.3353C62.2775 24.3704 62.1003 24.3882 61.8535 24.3882H61.3025L61.4775 23.5585H62.0366ZM62.6611 26.355C62.8712 26.2718 63.0365 26.1357 63.1559 25.9466C63.2753 25.7576 63.3352 25.5582 63.3352 25.3476C63.3352 25.1882 63.2844 25.0445 63.1834 24.9181C63.0824 24.7917 62.942 24.7042 62.7615 24.6545C62.9884 24.581 63.1553 24.473 63.2639 24.3304C63.3725 24.1873 63.4265 24.0187 63.4265 23.8242C63.4265 23.6789 63.3957 23.5466 63.3336 23.4272C63.2715 23.3076 63.1767 23.2082 63.0603 23.1404C62.9258 23.0635 62.7771 23.0148 62.6232 22.9972C62.519 22.981 62.3375 22.9734 62.0777 22.9734H60.879L60.1449 26.4793H61.7984C62.1619 26.4782 62.4498 26.4371 62.6611 26.355ZM62.0366 24.9981C62.2381 24.9981 62.3807 25.0359 62.4671 25.1121C62.5536 25.1882 62.5968 25.2838 62.5968 25.4C62.5958 25.4978 62.5645 25.5929 62.5071 25.6722C62.4485 25.7574 62.3649 25.8224 62.2678 25.8581C62.1673 25.8959 61.9723 25.9148 61.6801 25.9148H60.9849L61.1761 24.9981H62.0366ZM64.0094 24.8187L64.3967 22.9729H65.1173L64.7197 24.8771L64.6214 25.3454C64.6152 25.3824 64.6119 25.4198 64.6117 25.4572C64.6117 25.5966 64.6625 25.7117 64.7635 25.8013C64.8645 25.891 65.0125 25.9364 65.2043 25.9364C65.3782 25.9364 65.5219 25.9034 65.6359 25.8381C65.7488 25.7727 65.8363 25.6755 65.8984 25.5469C65.9594 25.4173 66.0227 25.1979 66.0875 24.8884L66.4894 22.9729H67.2089L66.8092 24.8906C66.7249 25.2946 66.6277 25.6025 66.518 25.817C66.4083 26.0304 66.2414 26.2043 66.0178 26.3383C65.7942 26.4722 65.5122 26.5387 65.1708 26.5387C64.7635 26.5387 64.4502 26.4382 64.2341 26.2389C64.0169 26.0385 63.9078 25.7819 63.9078 25.4675C63.9078 25.4021 63.9143 25.3303 63.9256 25.2541C63.9316 25.2028 63.9597 25.058 64.0094 24.8187ZM67.2856 25.3433L67.9722 25.3076C67.9819 25.5258 68.0186 25.6728 68.084 25.7495C68.1893 25.8737 68.3838 25.9364 68.6674 25.9364C68.904 25.9364 69.0747 25.8942 69.179 25.81C69.2843 25.7257 69.3372 25.6231 69.3372 25.5042C69.3373 25.4534 69.3257 25.4032 69.3035 25.3575C69.2812 25.3119 69.2488 25.2719 69.2087 25.2406C69.1476 25.1877 68.9818 25.1034 68.7095 24.9851C68.4373 24.8668 68.239 24.7679 68.1143 24.6896C67.9918 24.6135 67.8903 24.508 67.8188 24.3828C67.7443 24.2472 67.7069 24.0945 67.7102 23.9398C67.7102 23.6449 67.8177 23.3997 68.0311 23.2057C68.245 23.0113 68.5545 22.9135 68.9597 22.9135C69.3713 22.9135 69.69 23.0102 69.9158 23.203C70.1405 23.3959 70.2647 23.6525 70.2874 23.9728L69.5965 24.0041C69.5798 23.8361 69.5182 23.7081 69.415 23.619C69.3119 23.5298 69.1574 23.485 68.9548 23.485C68.7565 23.485 68.6129 23.5201 68.5286 23.5898C68.4882 23.6212 68.4556 23.6615 68.4335 23.7076C68.4113 23.7538 68.4003 23.8044 68.4011 23.8556C68.4011 23.9566 68.4389 24.0392 68.5183 24.1046C68.5956 24.1716 68.7695 24.2634 69.0374 24.3796C69.4404 24.5535 69.697 24.695 69.8067 24.8036C69.9714 24.9619 70.0535 25.1677 70.0535 25.4178C70.0535 25.7268 69.9309 25.9915 69.6862 26.2103C69.4415 26.4307 69.1006 26.5392 68.6636 26.5392C68.3617 26.5392 68.1013 26.4885 67.8798 26.3874C67.6594 26.2859 67.5033 26.146 67.4126 25.9655C67.3218 25.7851 67.2791 25.5772 67.2856 25.3433ZM21.0709 9.50708C21.63 9.50708 21.9903 9.53679 22.1518 9.59514C22.3133 9.65402 22.4387 9.74855 22.5283 9.87765C22.6175 10.0073 22.6623 10.1721 22.6623 10.3735C22.6623 10.6744 22.5748 10.9494 22.3998 11.2006C22.2228 11.4531 21.9718 11.6443 21.6813 11.7478C21.3772 11.8618 20.7706 11.919 19.862 11.919H19.3315L19.8387 9.50654H21.0709V9.50708ZM20.1472 13.3051C20.8889 13.3051 21.3945 13.2857 21.664 13.2484C22.1281 13.1836 22.497 13.0896 22.7709 12.9659C23.058 12.8333 23.3181 12.6487 23.5379 12.4214C23.7756 12.1821 23.976 11.8628 24.1397 11.4636C24.3034 11.0644 24.385 10.6539 24.385 10.2315C24.385 9.77555 24.2829 9.38338 24.0771 9.05386C23.8824 8.73412 23.5894 8.48604 23.2419 8.34676C22.8897 8.20415 22.4117 8.13284 21.8072 8.13284H18.4083L16.6565 16.4933H18.3786L19.0457 13.3051H20.1472ZM38.2127 9.52977C38.7188 9.52977 39.0473 9.57515 39.1996 9.66644C39.4465 9.81877 39.5702 10.0467 39.5702 10.3514C39.5702 10.6101 39.4843 10.857 39.3131 11.0925C39.1418 11.3286 38.9058 11.5015 38.6032 11.6117C38.3007 11.7224 37.6876 11.777 36.7639 11.777H35.851L36.3188 9.53031H38.2127V9.52977ZM36.2907 13.0313C36.6975 13.0313 36.9827 13.0864 37.1458 13.1971C37.4121 13.3835 37.6633 13.7465 37.8988 14.2867C38.3326 15.2866 38.6232 16.0223 38.7718 16.4933H40.6198C40.1482 15.2995 39.7204 14.3753 39.3363 13.7216C39.1424 13.3981 38.9355 13.1377 38.7145 12.94C39.5777 12.8298 40.2222 12.5435 40.6484 12.0816C41.0741 11.6198 41.2874 11.0331 41.2874 10.3222C41.2874 9.82417 41.1778 9.40013 40.9596 9.05062C40.7408 8.70112 40.4539 8.4602 40.0985 8.32893C39.7425 8.19767 39.2455 8.13176 38.6065 8.13176H34.8932L33.1425 16.4933H34.8646L35.589 13.0313H36.2907ZM52.6762 10.6015C53.2029 9.81823 53.8862 9.42659 54.7273 9.42659C55.274 9.42659 55.7256 9.61404 56.0789 9.98893C56.4322 10.3638 56.6093 10.8792 56.6093 11.5371C56.6093 12.1265 56.4689 12.732 56.1896 13.3538C55.9109 13.9755 55.5565 14.4395 55.1292 14.7453C54.7009 15.051 54.2557 15.205 53.7912 15.205C53.2202 15.205 52.7605 15.0111 52.411 14.6232C52.061 14.2354 51.8854 13.754 51.8854 13.1798C51.8812 12.26 52.157 11.3607 52.6762 10.6015ZM50.5176 14.7972C50.738 15.3201 51.1124 15.7576 51.6412 16.1114C52.1701 16.4653 52.8237 16.6419 53.6037 16.6419C54.5004 16.6419 55.3042 16.4193 56.0157 15.9748C56.7266 15.5296 57.29 14.8949 57.7048 14.0701C58.1186 13.2452 58.3261 12.3912 58.3261 11.509C58.3261 10.4481 58.0073 9.59621 57.3699 8.95393C56.7336 8.31164 55.8979 7.99023 54.864 7.99023C54.0915 7.99023 53.4039 8.14689 52.7983 8.46074C52.2049 8.76506 51.6906 9.20339 51.296 9.74098C50.8985 10.2812 50.6024 10.9175 50.4091 11.6516C50.261 12.1988 50.187 12.7201 50.187 13.2144C50.187 13.7465 50.2967 14.2742 50.5176 14.7972ZM69.3702 16.4933H67.647L69.3988 8.13176H75.2512L74.9536 9.52977H70.8238L70.403 11.5371H74.4523L74.1611 12.934H70.1119L69.3702 16.4933ZM88.1261 16.4933H86.4029L88.1542 8.13176H89.8709L88.1261 16.4933ZM24.8906 34.1159C25.3697 34.1159 25.6722 34.1273 25.7976 34.1494C26.0223 34.1959 26.1946 34.2866 26.3161 34.4238C26.4382 34.561 26.4987 34.7361 26.4987 34.9494C26.4987 35.1655 26.4339 35.3692 26.3048 35.5593C26.1751 35.7494 25.9812 35.8861 25.7225 35.9698C25.4637 36.0541 25.0402 36.0952 24.4509 36.0952H23.1393L23.5558 34.1159H24.8906ZM26.3793 40.7835C26.8681 40.5962 27.2825 40.2546 27.5596 39.8106C27.8454 39.3601 27.9875 38.8842 27.9875 38.3818C27.9875 38.0009 27.8665 37.6601 27.6256 37.3581C27.3846 37.0551 27.0486 36.8455 26.6186 36.7272C27.1588 36.5522 27.558 36.2945 27.8168 35.9547C28.0755 35.6139 28.2046 35.212 28.2046 34.7479C28.2086 34.4191 28.1322 34.0942 27.9821 33.8015C27.8341 33.5158 27.6169 33.2878 27.3317 33.1166C27.0465 32.9453 26.6986 32.8319 26.288 32.7746C26.0406 32.7368 25.6069 32.7179 24.9878 32.7179H22.1302L20.3789 41.0795H24.3196C25.1909 41.08 25.8775 40.9812 26.3793 40.7835ZM24.8906 37.5499C25.3697 37.5499 25.7122 37.6396 25.9175 37.82C26.1227 38.0015 26.2254 38.2305 26.2254 38.5076C26.2254 38.7356 26.1541 38.9528 26.0115 39.1575C25.8721 39.3605 25.6729 39.515 25.4416 39.5994C25.2039 39.689 24.7372 39.7333 24.0414 39.7333H22.3814L22.8379 37.5494H24.8906V37.5499ZM37.8913 37.1215L38.815 32.719H40.5323L39.5853 37.2587L39.3514 38.3758C39.3369 38.4644 39.3293 38.554 39.3287 38.6438C39.3287 38.9749 39.4497 39.2472 39.6906 39.4627C39.9321 39.6777 40.2827 39.7857 40.7429 39.7857C41.1578 39.7857 41.4997 39.7074 41.7698 39.5513C42.0394 39.3952 42.249 39.1629 42.397 38.8561C42.5455 38.5482 42.6957 38.0247 42.848 37.2874L43.8058 32.719H45.5225L44.5696 37.2928C44.3681 38.2548 44.1364 38.9906 43.8739 39.5C43.6119 40.0105 43.2143 40.4242 42.6822 40.744C42.1496 41.0638 41.4765 41.2232 40.663 41.2232C39.689 41.2232 38.9436 40.985 38.4272 40.508C37.9097 40.0299 37.6509 39.4168 37.6509 38.6681C37.6509 38.5131 37.6639 38.3429 37.6909 38.1608C37.7065 38.0382 37.773 37.6925 37.8913 37.1215ZM55.2189 38.371L56.8551 38.2856C56.8783 38.8069 56.968 39.158 57.1241 39.3406C57.3742 39.6372 57.8383 39.7857 58.5157 39.7857C59.078 39.7857 59.4853 39.6842 59.7365 39.4827C59.9877 39.2812 60.1119 39.0376 60.1119 38.7524C60.1119 38.5055 60.0098 38.2964 59.804 38.1247C59.6592 37.9993 59.2638 37.7968 58.6151 37.5148C57.9674 37.2339 57.4936 36.9989 57.196 36.8109C56.9034 36.629 56.6608 36.3771 56.49 36.0779C56.3203 35.777 56.2334 35.4259 56.2334 35.0229C56.2334 34.319 56.4889 33.7356 56.9983 33.2716C57.5066 32.8087 58.2456 32.5764 59.2109 32.5764C60.1919 32.5764 60.9519 32.8065 61.4899 33.2662C62.028 33.7259 62.3234 34.3379 62.3775 35.1028L60.7283 35.1758C60.6861 34.7771 60.5424 34.4708 60.2945 34.258C60.0476 34.0457 59.6825 33.9382 59.1995 33.9382C58.7247 33.9382 58.3849 34.0225 58.1813 34.1905C57.9787 34.3574 57.8766 34.5681 57.8766 34.8236C57.8766 35.0618 57.9695 35.2606 58.1564 35.4167C58.3433 35.576 58.7555 35.7943 59.394 36.0719C60.3561 36.4868 60.9681 36.8233 61.2306 37.0816C61.6223 37.4624 61.8184 37.9507 61.8184 38.5482C61.8184 39.2855 61.5261 39.9154 60.9427 40.4388C60.3593 40.9612 59.5458 41.2226 58.5043 41.2226C57.7859 41.2226 57.1636 41.1011 56.6358 40.8607C56.1091 40.6192 55.738 40.2838 55.5219 39.8533C55.3042 39.4249 55.2027 38.9301 55.2189 38.371Z" fill="white"/>
<path fill-rule="evenodd" clip-rule="evenodd" d="M98.9427 5.01367C100.096 5.01367 101.062 5.92389 101.062 7.11609C101.065 7.39541 101.012 7.67243 100.906 7.93104C100.801 8.18965 100.645 8.42469 100.447 8.62248C100.25 8.82028 100.016 8.97689 99.7572 9.0832C99.4989 9.18951 99.222 9.2434 98.9427 9.24174C97.784 9.24174 96.8116 8.33152 96.8116 7.11609C96.8116 5.92389 97.7845 5.01367 98.9427 5.01367ZM98.9427 8.93059C99.921 8.93059 100.677 8.15056 100.677 7.11609C100.677 6.10486 99.921 5.32482 98.9427 5.32482C97.9542 5.32482 97.1968 6.10486 97.1968 7.11609C97.1968 8.15056 97.9542 8.93059 98.9427 8.93059ZM98.1178 5.88986H99.0729C99.6606 5.88986 99.9372 6.1216 99.9372 6.59643C99.9372 7.04263 99.6558 7.22899 99.2873 7.26897L99.9945 8.36015H99.5817L98.9097 7.29706H98.5024V8.36015H98.1184V5.88986H98.1178ZM98.5019 6.98645H98.9027C99.2425 6.98645 99.5526 6.9697 99.5526 6.57968C99.5526 6.25179 99.2701 6.20101 99.0102 6.20101H98.5019V6.98645Z" fill="#1E71B8"/>
<path d="M166.24 30.9252H161.128V34.3863H167.127V36.5251H158.465V23.6035H167.109V25.7601H161.128V28.8396H166.24V30.9252Z" fill="black"/>
<path d="M178.23 25.7601H174.272V36.5251H171.609V25.7601H167.704V23.6035H178.23V25.7601Z" fill="black"/>
<path d="M189.909 36.5251H187.247V30.9873H182.055V36.5251H179.393V23.6035H182.055V28.8396H187.247V23.6035H189.909V36.5251Z" fill="black"/>
<path d="M199.654 30.9252H194.542V34.3863H200.541V36.5251H191.88V23.6035H200.524V25.7601H194.542V28.8396H199.654V30.9252Z" fill="black"/>
<path d="M206.523 31.7949H204.402V36.5251H201.74V23.6035H206.541C208.068 23.6035 209.245 23.9437 210.073 24.6241C210.902 25.3045 211.316 26.2659 211.316 27.5084C211.316 28.3899 211.123 29.1265 210.739 29.7182C210.36 30.3039 209.783 30.7713 209.008 31.1204L211.804 36.4009V36.5251H208.946L206.523 31.7949ZM204.402 29.6383H206.55C207.219 29.6383 207.736 29.4697 208.103 29.1325C208.47 28.7893 208.653 28.3189 208.653 27.7214C208.653 27.112 208.479 26.6328 208.13 26.2837C207.786 25.9346 207.257 25.7601 206.541 25.7601H204.402V29.6383Z" fill="black"/>
<path d="M236.084 36.5241H230.825L220.587 19.7301V36.5241H215.328V11H220.587L230.842 27.8291V11H236.084V36.5241Z" fill="black"/>
<path d="M255.315 25.4625H245.218V32.2993H257.068V36.5241H239.959V11H257.033V15.2599H245.218V21.3429H255.315V25.4625Z" fill="black"/>
<path d="M279 15.2599H271.181V36.5241H265.922V15.2599H258.209V11H279V15.2599Z" fill="black"/>
<path d="M158 11.0625H212.362V21.3843H158V11.0625Z" fill="#656565"/>
<path d="M161.494 17.9447H160.704L161.383 14.019H162.173L161.494 17.9447Z" fill="white"/>
<path d="M167.39 17.9447H166.624L165.532 15.3267L165.077 17.9447H164.287L164.969 14.019H165.732L166.826 16.6424L167.282 14.019H168.069L167.39 17.9447Z" fill="white"/>
<path d="M170.142 17.9447L170.824 14.019L171.951 14.0217C172.216 14.0271 172.453 14.0873 172.663 14.2023C172.875 14.3156 173.047 14.4791 173.178 14.693C173.309 14.9069 173.389 15.1478 173.416 15.4156C173.43 15.572 173.428 15.732 173.41 15.8956L173.391 16.0385C173.312 16.6137 173.086 17.0756 172.712 17.4244C172.34 17.7713 171.888 17.9447 171.356 17.9447H170.142ZM171.501 14.6742L171.045 17.2949L171.374 17.2976C171.738 17.2976 172.029 17.1646 172.248 16.8986C172.469 16.6326 172.596 16.2308 172.628 15.6933L172.634 15.6071C172.639 15.3105 172.582 15.0831 172.464 14.9249C172.345 14.7667 172.168 14.684 171.933 14.6769L171.501 14.6742Z" fill="white"/>
<path d="M179.277 14.019L178.834 16.6074C178.773 17.0406 178.594 17.383 178.295 17.6347C177.997 17.8863 177.626 18.0086 177.184 18.0014C176.907 17.996 176.667 17.9358 176.462 17.8207C176.259 17.7039 176.108 17.5403 176.011 17.33C175.914 17.1179 175.881 16.8779 175.912 16.6101L176.351 14.019H177.141L176.702 16.6128C176.689 16.7134 176.688 16.8078 176.699 16.8959C176.735 17.1871 176.908 17.3381 177.219 17.3489C177.442 17.3561 177.625 17.2949 177.767 17.1655C177.909 17.0361 178 16.8509 178.042 16.6101L178.484 14.019H179.277Z" fill="white"/>
<path d="M183.452 16.8959C183.49 16.682 183.385 16.5184 183.137 16.4052L182.617 16.1976C182.013 15.9279 181.726 15.5567 181.756 15.084C181.769 14.8647 181.841 14.6706 181.972 14.5016C182.103 14.3326 182.288 14.2005 182.525 14.1052C182.762 14.0082 183.018 13.9614 183.293 13.965C183.673 13.9722 183.979 14.0855 184.213 14.3048C184.446 14.5223 184.562 14.8144 184.558 15.1811H183.771C183.78 15.0031 183.74 14.8647 183.652 14.7658C183.566 14.667 183.431 14.6157 183.248 14.6121C183.068 14.6085 182.911 14.6499 182.778 14.7362C182.645 14.8207 182.566 14.9375 182.541 15.0867C182.507 15.2826 182.638 15.4381 182.935 15.5531L183.291 15.688L183.496 15.7823C184.026 16.0448 184.274 16.4133 184.24 16.8878C184.224 17.1197 184.149 17.3201 184.016 17.4891C183.885 17.6562 183.705 17.7848 183.477 17.8746C183.25 17.9645 183 18.0068 182.727 18.0014C182.449 17.996 182.2 17.9375 181.983 17.8261C181.765 17.7147 181.6 17.5574 181.487 17.3543C181.381 17.1655 181.331 16.9498 181.339 16.7071L182.129 16.7098C182.103 17.1359 182.313 17.3525 182.757 17.3596C182.949 17.3596 183.107 17.3174 183.231 17.2329C183.355 17.1484 183.429 17.0361 183.452 16.8959Z" fill="white"/>
<path d="M190.095 14.6742H188.931L188.364 17.9447H187.574L188.141 14.6742H186.989L187.105 14.019H190.211L190.095 14.6742Z" fill="white"/>
<path d="M193.727 16.5076H193.085L192.834 17.9447H192.044L192.726 14.019L194.026 14.0217C194.461 14.0217 194.795 14.1241 195.029 14.329C195.264 14.534 195.369 14.8189 195.342 15.1838C195.304 15.723 195.016 16.0978 194.479 16.3081L195.032 17.9016V17.9447H194.19L193.727 16.5076ZM193.198 15.8524L193.786 15.8578C193.994 15.8542 194.166 15.7985 194.301 15.6907C194.438 15.581 194.519 15.4327 194.546 15.2458C194.571 15.0714 194.544 14.9348 194.463 14.8359C194.382 14.7371 194.253 14.684 194.077 14.6769L193.403 14.6742L193.198 15.8524Z" fill="white"/>
<path d="M198.374 17.9447H197.584L198.264 14.019H199.054L198.374 17.9447Z" fill="white"/>
<path d="M203.524 17.1359H202.154L201.749 17.9447H200.879L202.976 14.019H203.707L204.454 17.9447H203.648L203.524 17.1359ZM202.477 16.4807H203.424L203.203 15.0193L202.477 16.4807Z" fill="white"/>
<path d="M207.797 17.2949H209.463L209.35 17.9447H206.893L207.575 14.019H208.365L207.797 17.2949Z" fill="white"/>
<path fill-rule="evenodd" clip-rule="evenodd" d="M36.8977 117.557V90.7493C36.8587 90.7493 37.8342 90.6557 42.0485 90.2811C50.2428 89.5526 55.5106 91.8029 55.5106 98.7096C55.5106 105.616 50.1258 107.489 42.0485 107.489V117.557H36.8977ZM55.7448 107.957C55.7448 103.275 58.086 97.4219 65.8121 97.4219C73.7724 97.4219 75.7625 103.86 75.7625 107.957C75.7625 112.055 73.1871 118.142 65.8121 118.142C58.4372 118.142 55.7448 112.64 55.7448 107.957ZM94.4924 90.5152V94.7294H83.7227V101.402H93.9071V105.499H83.7227V113.459H95.0778V117.674H78.689L78.572 90.5152H94.4924ZM42.0484 103.509V94.1441H45.3262C47.7845 94.1441 50.4769 94.9636 50.4769 98.7096C50.4769 102.456 48.0186 103.509 45.4433 103.509H42.0484ZM60.8955 107.958C60.8955 106.436 61.2467 101.051 65.8121 101.051C70.3776 101.051 70.6117 106.365 70.6117 107.958C70.6117 109.948 70.0264 114.513 65.8121 114.513C61.5979 114.513 60.8955 109.479 60.8955 107.958Z" fill="#C4C4C4"/>
<path fill-rule="evenodd" clip-rule="evenodd" d="M36.8977 117.557V90.7493C36.8587 90.7493 37.8342 90.6557 42.0485 90.2811C50.2428 89.5526 55.5106 91.8029 55.5106 98.7096C55.5106 105.616 50.1258 107.489 42.0485 107.489V117.557H36.8977ZM55.7448 107.957C55.7448 103.275 58.086 97.4219 65.8121 97.4219C73.7724 97.4219 75.7625 103.86 75.7625 107.957C75.7625 112.055 73.1871 118.142 65.8121 118.142C58.4372 118.142 55.7448 112.64 55.7448 107.957ZM94.4924 90.5152V94.7294H83.7227V101.402H93.9071V105.499H83.7227V113.459H95.0778V117.674H78.689L78.572 90.5152H94.4924ZM42.0484 103.509V94.1441H45.3262C47.7845 94.1441 50.4769 94.9636 50.4769 98.7096C50.4769 102.456 48.0186 103.509 45.4433 103.509H42.0484ZM60.8955 107.958C60.8955 106.436 61.2467 101.051 65.8121 101.051C70.3776 101.051 70.6117 106.365 70.6117 107.958C70.6117 109.948 70.0264 114.513 65.8121 114.513C61.5979 114.513 60.8955 109.479 60.8955 107.958Z" fill="url(#paint0_linear)"/>
<path d="M19.1412 87L6.62059 90.0563L11.8618 101.296L4 102.282L27.1 129L20.2088 108.986L25.6441 108L19.1412 87Z" fill="url(#paint1_linear)"/>
<path fill-rule="evenodd" clip-rule="evenodd" d="M346.34 15.9495V13.3691H335V37.8362H346.744V35.2559H338.138V26.4887H345.905V23.8151H338.138V15.9495H346.34ZM412.394 23.2859C414.569 20.2081 417.552 20.6744 420.752 21.7625C420.752 21.2731 420.754 20.7936 420.756 20.3216C420.761 18.935 420.767 17.6129 420.721 16.2909C420.721 16.0422 420.317 15.6691 420.037 15.6069C417.862 15.0473 415.656 14.7986 413.419 15.1717C410.002 15.7313 407.236 17.2857 405.403 20.3014C403.912 22.7885 403.695 25.5243 403.943 28.2913C404.192 30.9027 405.031 33.3277 406.895 35.2863C410.033 38.5196 413.947 39.017 418.142 38.4263C418.421 38.3952 418.794 38.1465 418.856 37.9289C419.478 35.9392 420.068 33.9184 420.658 31.8665C417.738 32.7059 414.942 33.4209 412.705 30.7784C411.12 28.913 410.934 25.3067 412.394 23.2859ZM444.862 38.2704H437.094C437.007 37.9421 436.921 37.6137 436.835 37.2858C436.556 36.2165 436.278 35.1513 435.945 34.1044C435.852 33.8246 435.417 33.4516 435.137 33.4516C433.924 33.4049 432.694 33.4108 431.473 33.4166C431.067 33.4185 430.662 33.4205 430.259 33.4205C429.731 33.4205 429.451 33.5448 429.327 34.1355C429.109 35.3169 428.799 36.4672 428.488 37.6175C428.395 37.8973 428.022 38.2704 427.774 38.3015C426.078 38.3479 424.399 38.3423 422.673 38.3365H422.673H422.672H422.671H422.67H422.67H422.669C422.088 38.3345 421.501 38.3325 420.907 38.3325C422.589 32.7139 424.238 27.1453 425.891 21.5657L425.891 21.5636L425.891 21.5629L425.895 21.5504C426.499 19.5094 427.104 17.4669 427.711 15.4199C428.539 15.4199 429.36 15.4179 430.177 15.416C432.614 15.4102 435.017 15.4044 437.436 15.451C437.716 15.451 438.12 15.9484 438.244 16.3215C439.48 20.3345 440.695 24.3681 441.907 28.3888C442.188 29.3207 442.468 30.2519 442.749 31.1821C443.432 33.5137 444.116 35.8143 444.862 38.2704ZM433.928 24.6219L433.928 24.6196L433.927 24.6187L433.924 24.6059L433.923 24.603L433.92 24.5913L433.917 24.5833L433.914 24.5695L433.913 24.5668C433.538 23.2354 433.168 21.9188 432.807 20.6118C432.779 20.6118 432.751 20.6181 432.72 20.625C432.682 20.6334 432.641 20.6429 432.589 20.6429C432.152 22.1535 431.728 23.6769 431.3 25.213C431.059 26.0794 430.816 26.9499 430.57 27.8244H434.826C434.527 26.7476 434.227 25.6827 433.93 24.6271L433.928 24.6219ZM458.438 22.1366V38.1785H451.044V22.1987H442.655V15.4213H466.671V22.1366H458.438ZM507 15.4517V22.1669H486.929V28.2604C484.625 26.4289 482.359 24.6253 480.102 22.8284C477.034 20.3854 473.981 17.9548 470.866 15.4828C483.045 15.4517 494.976 15.4517 506.999 15.4517H507ZM373.712 37.8666H370.792V36.7163V26.9543C370.792 26.3947 370.792 25.804 370.761 25.2444C370.605 23.4723 369.736 22.4464 368.306 22.2288C366.784 21.98 365.168 22.7884 364.609 24.2806C364.236 25.2755 364.081 26.3947 364.05 27.4828C364.003 29.7679 364.009 32.0529 364.015 34.338C364.017 35.0997 364.019 35.8613 364.019 36.623V37.8355H361.222V13.4305H363.988V22.0422C365.013 20.9541 366.069 20.0836 367.499 19.8038C370.73 19.1509 373.464 20.923 373.65 24.2185C373.804 27.3959 373.772 30.5888 373.739 33.8081V33.8083C373.726 35.1562 373.712 36.5087 373.712 37.8666ZM389.335 37.1565C389.57 36.8451 389.485 36.2912 389.3 35.0889L389.3 35.0885C389.274 34.919 389.246 34.7366 389.216 34.5402C386.886 35.877 384.556 36.7164 382.195 35.0687C380.455 33.8251 380.33 31.8976 380.33 29.8146H390.397C390.645 27.6695 390.273 24.9337 389.465 23.1927C388.906 21.918 388.067 20.8921 386.793 20.3014C383.375 18.6848 379.492 20.2392 378.093 23.8455C376.789 27.141 376.851 30.5608 378.031 33.8873C378.808 36.0946 380.362 37.6491 382.723 37.9911C384.152 38.2087 385.737 38.1465 387.135 37.8356C387.417 37.7732 387.668 37.7219 387.891 37.6764L387.891 37.6763C388.698 37.5114 389.134 37.4225 389.335 37.1565ZM387.474 26.6661L387.474 26.6663L387.474 26.6665C387.503 26.9768 387.531 27.2913 387.57 27.6073H387.569C385.332 27.6073 383.282 27.6073 381.231 27.5762C381.01 27.5762 380.789 27.5568 380.521 27.5332C380.451 27.527 380.377 27.5205 380.299 27.5141C380.393 25.5865 380.486 23.7212 382.226 22.4776C383.282 21.7626 384.432 21.7315 385.519 22.3844C387.175 23.3837 387.319 24.9615 387.474 26.6661ZM354.823 19.742C355.179 19.742 355.514 19.7496 355.833 19.7568C356.432 19.7703 356.979 19.7826 357.526 19.742C358.427 19.6799 358.768 19.9908 358.644 20.8923C358.604 21.1361 358.616 21.393 358.63 21.672V21.672C358.637 21.82 358.644 21.9742 358.644 22.1359H354.978C354.972 22.2203 354.965 22.3005 354.959 22.3773L354.959 22.3774C354.935 22.6685 354.916 22.9094 354.916 23.1308V32.5818V32.5819C354.916 32.7995 354.916 33.0171 354.947 33.2036C355.102 35.3177 356.003 35.9395 358.023 35.3799C358.07 35.3705 358.12 35.3611 358.174 35.3508L358.174 35.3508C358.3 35.3271 358.449 35.2989 358.644 35.2555C358.644 35.4575 358.65 35.6513 358.655 35.8387V35.8387C358.667 36.2857 358.679 36.6954 358.613 37.0898C358.582 37.3074 358.24 37.6494 358.054 37.6804C357.847 37.6901 357.639 37.7012 357.432 37.7124C356.305 37.773 355.184 37.8332 354.108 37.6494C352.927 37.4628 352.368 36.4058 352.182 35.2555C352.058 34.4783 351.995 33.701 351.995 32.9238C351.975 30.5714 351.981 28.2326 351.988 25.853V25.8526V25.8523C351.992 24.6471 351.995 23.4314 351.995 22.1981H349.261V19.8042H351.964V13.4931H354.885C354.823 15.4517 354.823 17.5036 354.823 19.742ZM401.675 19.7421C399.407 19.6177 397.729 20.4882 396.549 22.7577C396.523 22.2896 396.497 21.8759 396.473 21.4984C396.44 20.9733 396.411 20.5182 396.393 20.0841H393.752V37.8359H396.673V36.6546C396.673 35.6816 396.669 34.7052 396.666 33.7276C396.659 31.769 396.652 29.8057 396.673 27.8563C396.704 24.2811 398.195 22.6645 401.489 22.5712C401.53 22.5712 401.571 22.5436 401.613 22.5159C401.634 22.5021 401.654 22.4883 401.675 22.4779V19.7421Z" fill="black"/>
<path d="M442.625 6.06237C458.812 6.06237 474.813 6.06237 490.969 6.06237C490.969 4.04158 490.969 2.14515 490.969 0C496.344 4.29029 501.532 8.39405 506.938 12.6843C506.379 12.7154 506.068 12.7776 505.789 12.7776C485.128 12.7776 464.466 12.7776 443.836 12.8087C442.904 12.8087 442.594 12.5911 442.625 11.6273C442.687 9.82415 442.625 8.02098 442.625 6.06237Z" fill="#E2001A"/>
<path fill-rule="evenodd" clip-rule="evenodd" d="M226.086 129.123L227.149 124.282H233.439H233.428H233.439C236.142 124.303 238.712 123.648 240.553 122.139C242.233 120.763 243.28 118.747 243.269 115.983C243.291 114.528 242.764 113.118 241.791 112.036C242.134 111.756 242.444 111.438 242.713 111.087C243.548 109.999 243.977 108.629 244 107.007V106.971C243.976 105.058 243.389 103.56 242.021 102.491C240.787 101.527 238.977 101.023 236.414 101.002H232.265L233.329 96.1602H199.671C188.109 96.1602 178.89 103.367 178.232 113.941C177.463 126.27 186.243 129.123 196.086 129.123H226.086Z" fill="#1F5795"/>
<path fill-rule="evenodd" clip-rule="evenodd" d="M233.661 94.6353L236.001 83.9766H202.123C188.33 83.9766 178.379 96.2324 176.33 107.684C176.016 109.485 176.245 110.939 176.891 112.112C177.623 107.202 180.109 103.048 183.765 100.017C187.878 96.6064 193.466 94.6353 199.671 94.6353H233.661Z" fill="#CF4044"/>
<path fill-rule="evenodd" clip-rule="evenodd" d="M198.83 88.7341L199.305 86.5021H200.476L199.269 92.1001H198.098L198.647 89.612H197.294L196.781 92.1001H195.611L196.781 86.5021H197.952L197.476 88.7341H198.83ZM201.171 92.1001L202.342 86.5021H203.513L202.342 92.1001H201.171ZM206.476 89.612L206.293 90.4171H204.391L204.574 89.612H206.476ZM209.11 92.2096C207.683 92.2096 207.573 91.3684 207.829 90.3804H209.037C208.891 90.9294 208.818 91.3684 209.477 91.3684C209.879 91.3684 210.135 91.1122 210.208 90.7461C210.427 89.722 208.086 89.6487 208.416 88.0023C208.598 87.1244 209.183 86.3926 210.61 86.3926C211.744 86.3926 212.219 86.9415 211.891 88.1123H210.756C210.83 87.6733 210.865 87.2344 210.391 87.2344C209.988 87.2344 209.732 87.4538 209.659 87.8561C209.403 88.9174 211.817 88.8074 211.415 90.6004C211.123 92.0263 210.025 92.2096 209.11 92.2096ZM215 87.38H215.586C216.098 87.38 216.135 87.7461 216.061 88.2212C215.988 88.5869 215.659 88.953 215.293 88.953H214.635L215 87.38ZM212.806 92.1001H213.976L214.452 89.8315H215.329C216.72 89.8315 217.122 88.8069 217.232 88.1851C217.451 87.1605 217.196 86.5021 216.098 86.5021H214.013L212.806 92.1001ZM217.964 92.1001L219.171 86.5021H222.245L222.062 87.38H220.159L219.866 88.7341H221.623L221.44 89.612H219.683L219.318 91.2584H221.293L221.11 92.1001H217.964ZM222.721 92.1001L223.928 86.5021H226.964L226.781 87.38H224.915L224.623 88.7341H226.342L226.159 89.612H224.439L224.074 91.2584H226.013L225.829 92.1001H222.721ZM229.671 87.38H230.256C231.098 87.38 230.879 88.2579 230.659 89.3192C230.366 90.7094 230.11 91.2584 229.416 91.2584H228.829L229.671 87.38ZM227.476 92.1001H229.379C231.391 92.1001 231.684 90.161 231.867 89.283C232.232 87.5267 232.16 86.5021 230.623 86.5021H228.683L227.476 92.1001ZM206.037 102.417H199.781L197.476 113.502C197.037 115.807 196.232 118.113 193.635 118.075C191.147 118.112 191.293 116.1 191.293 115.478C191.293 115.148 191.476 114.124 191.586 113.502L193.928 102.417H187.671L184.964 115.368C184.891 115.807 184.745 116.612 184.781 116.978C184.745 120.234 187.269 123.161 193.342 123.234C198.464 123.161 202.196 120.929 203.256 115.844L206.037 102.417ZM222.83 108.673C222.94 103.698 219.062 102.088 214.708 102.051C210.684 102.088 206.257 104.173 206.22 108.783C206.257 112.112 208.634 113.43 211.086 114.271C213.903 115.186 215.988 115.369 215.915 116.869C215.989 118.185 214.489 118.807 213.245 118.844C212.22 118.807 211.488 118.734 210.976 118.295C210.464 117.783 210.208 117.087 210.135 115.953H204.171C203.878 121.149 208.087 123.271 212.769 123.307C217.122 123.271 221.879 120.965 221.915 116.137C221.879 113.685 220.671 111.783 217.159 110.538C215.184 109.807 212.147 109.734 212.11 108.197C212.147 106.88 213.5 106.55 214.524 106.514C215.257 106.55 215.915 106.66 216.39 106.99C216.829 107.355 217.121 107.868 217.049 108.673H222.83V108.673ZM221.769 122.758L225.976 102.526H236.403C240.83 102.563 242.439 104.099 242.476 106.99C242.439 109.551 241.195 111.234 238.744 111.856V111.928C240.573 112.332 241.78 114.124 241.745 115.953C241.78 120.856 237.866 122.795 233.44 122.758H221.769ZM229.416 114.088L228.574 117.893H232.599C233.732 117.893 235.269 117.49 235.306 115.844C235.269 114.345 234.171 114.088 232.892 114.088H229.416ZM230.805 107.283L230.183 110.356H233.695C234.683 110.319 235.927 109.953 235.964 108.746C235.927 107.502 235.122 107.283 233.989 107.283H230.805Z" fill="white"/>
<path fill-rule="evenodd" clip-rule="evenodd" d="M148.305 107.281L146 117.891H182.513V107.281H148.305Z" fill="#1F5795"/>
<path fill-rule="evenodd" clip-rule="evenodd" d="M149.623 112.587C149.843 111.453 150.062 110.393 151.525 110.393C152.403 110.393 152.66 110.904 152.44 111.819H151.599C151.709 111.234 151.635 111.051 151.38 111.051C150.904 111.051 150.721 111.489 150.501 112.587C150.282 113.648 150.245 114.124 150.721 114.124C151.123 114.124 151.233 113.611 151.306 113.284H152.184C151.928 114.38 151.416 114.747 150.611 114.747C149.147 114.746 149.367 113.685 149.623 112.587ZM153.098 114.672L153.977 110.465H156.281L156.135 111.124H154.709L154.489 112.148H155.806L155.659 112.807H154.379L154.086 114.05H155.55L155.44 114.672H153.098ZM158.257 111.124H158.659C158.915 111.124 159.062 111.27 158.989 111.672C158.915 111.965 158.769 112.295 158.403 112.295H158L158.257 111.124ZM157.891 112.954H158.111C158.769 112.954 158.623 113.356 158.55 113.868C158.476 114.161 158.404 114.417 158.44 114.672H159.318C159.282 114.526 159.428 113.722 159.465 113.465C159.648 112.696 159.063 112.661 158.879 112.624C159.502 112.514 159.794 112.111 159.904 111.563C160.05 110.868 159.757 110.465 159.135 110.465H157.526L156.611 114.672H157.489L157.891 112.954ZM163.928 110.465L163.781 111.16H162.794L162.062 114.672H161.184L161.915 111.16H160.928L161.074 110.465H163.928ZM164.074 114.672L164.989 110.465H165.867L164.952 114.672H164.074ZM166.342 114.672L167.221 110.465H169.415L169.269 111.124H167.952L167.732 112.221H168.976L168.83 112.843H167.586L167.221 114.672H166.342ZM169.562 114.672L170.477 110.465H171.355L170.44 114.672H169.562ZM171.83 114.672L172.745 110.465H175.013L174.903 111.124H173.477L173.257 112.148H174.574L174.428 112.807H173.11L172.855 114.05H174.318L174.172 114.672H171.83ZM177.062 111.124H177.501C178.123 111.124 177.976 111.818 177.793 112.587C177.574 113.648 177.391 114.05 176.842 114.05H176.44L177.062 111.124ZM175.416 114.672H176.843C178.343 114.672 178.562 113.209 178.708 112.55C178.965 111.233 178.928 110.465 177.757 110.465H176.294L175.416 114.672ZM222.867 125.648L222.794 126.014H222.281L221.879 127.843H221.403L221.806 126.014H221.294L221.366 125.648H222.867ZM222.794 127.843L223.232 125.648H224.001V127.148H224.038L224.696 125.648H225.428L224.953 127.843H224.514L224.879 126.16H224.843L224.075 127.843H223.635L223.599 126.16L223.232 127.843H222.794Z" fill="white"/>
<g clip-path="url(#clip0)">
<path d="M324.868 113.334H333.473C337.096 113.334 337.52 115.518 337.152 117.22C336.558 119.972 334.775 121.56 331.973 121.56H326.595L325.633 126.156H322.151L324.868 113.334ZM327.076 119.234H330.812C331.888 119.234 333.133 119.206 333.501 117.476C333.869 115.802 332.878 115.66 331.888 115.66H327.84L327.076 119.234Z" fill="#231F20"/>
<path d="M339.757 113.334H349.069C352.607 113.334 352.72 115.518 352.465 116.823C352.126 118.383 351.276 119.376 349.72 119.915V119.944C351.192 120.17 351.022 122.099 350.739 123.376C350.597 124 350.342 125.504 350.824 126.156H347.031C346.833 125.56 346.918 125.021 347.201 123.688C347.569 121.901 346.918 121.447 345.842 121.447H341.511L340.521 126.156H337.068L339.757 113.334ZM342.049 119.007H346.635C347.399 119.007 348.389 118.582 348.644 117.39C348.927 116.114 347.993 115.774 347.144 115.774H342.729L342.049 119.007Z" fill="#231F20"/>
<path d="M355.013 113.334H366.957L366.419 115.774H357.956L357.39 118.44H365.429L364.947 120.766H356.909L356.286 123.716H364.834L364.296 126.156H352.295L355.013 113.334Z" fill="#231F20"/>
<path d="M376.779 117.049C376.92 115.375 375.363 115.205 373.976 115.205C372.533 115.205 371.486 115.857 371.288 116.708C371.146 117.389 371.627 117.758 372.505 117.9L376.694 118.609C378.958 118.978 380.543 119.857 380.034 122.183C379.524 124.594 377.515 126.495 372.505 126.495C369.363 126.495 365.429 126.098 366.221 122.098H370.127C369.787 123.857 371.486 124.169 372.986 124.169C374.599 124.169 375.816 123.687 376.071 122.58C376.269 121.587 375.533 121.332 374.203 121.105L371.146 120.623C368.995 120.283 366.985 119.602 367.551 116.992C368.146 114.155 370.721 112.992 374.741 112.992C377.373 112.992 381.166 113.418 380.628 117.049H376.779Z" fill="#231F20"/>
<path d="M391.355 117.049C391.497 115.375 389.94 115.205 388.553 115.205C387.11 115.205 386.062 115.857 385.864 116.708C385.723 117.389 386.232 117.758 387.081 117.9L391.299 118.609C393.535 118.978 395.12 119.857 394.61 122.183C394.129 124.594 392.091 126.495 387.081 126.495C383.968 126.495 380.005 126.098 380.798 122.098H384.704C384.364 123.857 386.063 124.169 387.563 124.169C389.204 124.169 390.421 123.687 390.648 122.58C390.846 121.587 390.138 121.332 388.808 121.105L385.723 120.623C383.572 120.283 381.562 119.602 382.128 116.992C382.723 114.155 385.298 112.992 389.318 112.992C391.922 112.992 395.743 113.418 395.205 117.049H391.355Z" fill="#231F20"/>
<path d="M294.752 87.0645H306.555C309.924 87.0645 313.15 88.7381 313.15 93.3903C313.15 97.532 310.405 99.773 305.536 99.773H297.017V108.992H294.752V87.0645ZM297.017 97.7022H305.791C309.584 97.7022 310.688 95.9434 310.688 93.3903C310.688 90.0997 308.848 89.1353 306.244 89.1353H297.017V97.7022Z" fill="#231F20"/>
<path d="M337.69 100.653C337.181 105.561 333.133 109.561 326.85 109.561C319.745 109.561 315.188 105.079 315.188 98.0435C315.188 93.0225 318.302 86.498 326.85 86.498C331.633 86.498 336.813 88.6823 337.492 94.4692H335.228C334.548 90.2709 330.812 88.5972 326.85 88.5972C321.415 88.5972 317.651 91.6325 317.651 98.0435C317.651 102.923 320.198 107.461 326.85 107.461C332.086 107.461 334.633 104.823 335.398 100.653H337.69Z" fill="#231F20"/>
<path d="M341.2 87.0645H343.464V108.992H341.2V87.0645Z" fill="#231F20"/>
<path d="M296.706 113.334H308.65L308.14 115.774H299.677L299.111 118.44H307.15L306.64 120.766H298.602L297.979 123.716H306.527L306.018 126.156H293.988L296.706 113.334Z" fill="#231F20"/>
<path d="M313.207 119.546L309.556 113.334H313.716L315.698 117.334L319.349 113.334H323.51L317.226 119.546L321.245 126.156H316.943L314.735 121.816L310.716 126.156H306.385L313.207 119.546Z" fill="#231F20"/>
<path d="M365.174 95.122L354.446 86.9238H349.323L359.117 94.5262L365.174 95.122Z" fill="#195DAD"/>
<path d="M359.032 101.307L349.323 108.852H354.446L365.202 100.711L359.032 101.307Z" fill="#195DAD"/>
<path d="M393.931 97.9009L358.296 86.9512L371.146 95.6883L393.931 97.9009Z" fill="#195DAD"/>
<path d="M371.061 100.142L358.296 108.851L393.959 97.9297L371.061 100.142Z" fill="#195DAD"/>
<path d="M399.479 115.971C399.111 116.311 398.715 116.481 398.233 116.481C397.724 116.481 397.328 116.311 396.988 115.971C396.62 115.63 396.45 115.205 396.45 114.723C396.45 114.212 396.62 113.815 396.988 113.475C397.328 113.134 397.724 112.936 398.233 112.936C398.715 112.936 399.111 113.134 399.479 113.475C399.818 113.815 399.988 114.212 399.988 114.723C399.988 115.205 399.818 115.63 399.479 115.971ZM397.13 113.645C396.846 113.928 396.705 114.297 396.705 114.723C396.705 115.148 396.846 115.489 397.13 115.801C397.441 116.113 397.809 116.255 398.233 116.255C398.658 116.255 398.998 116.113 399.309 115.801C399.592 115.489 399.762 115.148 399.762 114.723C399.762 114.297 399.592 113.928 399.309 113.645C398.998 113.333 398.658 113.191 398.233 113.191C397.809 113.191 397.441 113.333 397.13 113.645ZM398.177 113.73C398.432 113.73 398.601 113.758 398.715 113.815C398.913 113.9 399.026 114.042 399.026 114.297C399.026 114.467 398.969 114.609 398.828 114.694C398.771 114.723 398.686 114.751 398.545 114.779C398.715 114.808 398.799 114.865 398.884 114.978C398.969 115.063 398.998 115.177 398.998 115.262V115.403C398.998 115.46 398.998 115.489 398.998 115.545C398.998 115.602 398.998 115.63 399.026 115.659V115.687H398.715C398.715 115.659 398.686 115.659 398.686 115.659V115.63V115.574V115.403C398.686 115.205 398.63 115.063 398.488 114.978C398.432 114.921 398.29 114.921 398.12 114.921H397.837V115.687H397.497V113.73H398.177ZM398.545 114.042C398.488 114.014 398.347 113.985 398.148 113.985H397.837V114.666H398.148C398.29 114.666 398.403 114.666 398.488 114.638C398.63 114.581 398.686 114.467 398.686 114.326C398.686 114.184 398.658 114.099 398.545 114.042Z" fill="#231F20"/>
<path d="M39292.1 17763.6V17763.6V17763.6ZM42769.8 15903.9V15903.9V15903.9ZM45017.8 12103.6H45017.8H45017.8ZM41136.6 10782.9V10782.9V10782.9ZM38792.5 13127.8V13127.8V13127.8ZM24382.2 -21371.6V18141H24382.2V-21371.6H24382.2ZM24382.2 18141H35007.4V18141H24382.2V18141ZM35007.4 18141C36877.6 18141 38305.8 18015.2 39292.1 17763.6V17763.6C38305.8 18015.2 36877.6 18141 35007.4 18141V18141ZM39292.1 17763.6C40675.5 17440.2 41834.7 16820.3 42769.8 15903.9V15903.9C41834.7 16820.3 40675.5 17440.2 39292.1 17763.6V17763.6ZM42769.8 15903.9C43704.9 15005.5 44454.2 13738.7 45017.8 12103.6L45017.8 12103.6C44454.2 13738.7 43704.9 15005.5 42769.8 15903.9V15903.9ZM45017.8 12103.6C45594.2 10468.4 45882.4 8671.6 45882.4 6713.05H45882.4C45882.4 8671.6 45594.2 10468.4 45017.8 12103.6L45017.8 12103.6ZM45882.4 6713.05C45882.4 3352.95 45120.3 504.957 43596 -1830.94V-1830.94C45120.3 504.954 45882.4 3352.95 45882.4 6713.05H45882.4ZM43596 -1830.94C42071.7 -4148.86 39317.7 -5307.83 35334.1 -5307.83V-5307.83C39317.7 -5307.83 42071.7 -4148.87 43596 -1830.94V-1830.94ZM35334.1 -5307.83H28109.7V-5307.83H35334.1V-5307.83ZM28109.7 -5307.83V-21371.6H28109.7V-5307.83H28109.7ZM28109.7 -21371.6H24382.2V-21371.6H28109.7V-21371.6ZM28109.7 -645.024H35391.7V-645.021H28109.7V-645.024ZM35391.7 -645.024C37799.8 -645.024 39509.8 -16.1297 40521.8 1241.66L40521.8 1241.66C39509.8 -16.1264 37799.8 -645.021 35391.7 -645.021V-645.024ZM40521.8 1241.66C41533.7 2499.45 42039.7 4269.34 42039.7 6551.33H42039.7C42039.7 4269.34 41533.7 2499.45 40521.8 1241.66L40521.8 1241.66ZM42039.7 6551.33C42039.7 8204.42 41738.6 9614.95 41136.6 10782.9V10782.9C41738.6 9614.94 42039.7 8204.42 42039.7 6551.33H42039.7ZM41136.6 10782.9C40547.4 11968.8 39766 12750.4 38792.5 13127.8V13127.8C39766 12750.4 40547.4 11968.8 41136.6 10782.9V10782.9ZM38792.5 13127.8C38164.9 13361.4 37005.7 13478.2 35314.8 13478.2V13478.2C37005.7 13478.2 38164.9 13361.4 38792.5 13127.8V13127.8ZM35314.8 13478.2H28109.7V13478.2H35314.8V13478.2ZM28109.7 13478.2V-645.024H28109.7V13478.2H28109.7ZM65345.9 17575V17575V17575ZM69476.9 14744.9V14744.9V14744.9ZM72800.9 7979.82V7979.82V7979.82ZM68669.9 -18730.2L68669.9 -18730.2L68669.9 -18730.2ZM65307.5 -20697.8V-20697.8V-20697.8ZM68612.3 8195.44V8195.44V8195.44ZM65096.2 12669.6L65096.2 12669.6L65096.2 12669.6ZM50628.2 -21371.6V18141V-21371.6ZM50628.2 18141H60331.2V18141H50628.2V18141ZM60331.2 18141C62521.5 18141 64193.1 17952.3 65345.9 17575V17575C64193.1 17952.3 62521.5 18141 60331.2 18141V18141ZM65345.9 17575C66959.9 17053.9 68336.9 16110.5 69476.9 14744.9V14744.9C68336.9 16110.5 66959.9 17053.9 65345.9 17575V17575ZM69476.9 14744.9C70962.8 12984 72070.8 10729 72800.9 7979.82L72800.9 7979.82C72070.8 10729 70962.8 12984 69476.9 14744.9V14744.9ZM72800.9 7979.82C73543.8 5248.62 73915.3 2122.11 73915.3 -1399.7H73915.3C73915.3 2122.11 73543.8 5248.62 72800.9 7979.82L72800.9 7979.82ZM73915.3 -1399.7C73915.3 -4400.42 73665.5 -7059.75 73165.9 -9377.68H73165.9C73665.5 -7059.75 73915.3 -4400.42 73915.3 -1399.7H73915.3ZM73165.9 -9377.68C72666.4 -11695.6 72025.9 -13618.2 71244.6 -15145.5L71244.6 -15145.5C72025.9 -13618.2 72666.4 -11695.6 73165.9 -9377.68H73165.9ZM71244.6 -15145.5C70463.2 -16654.9 69605 -17849.8 68669.9 -18730.2L68669.9 -18730.2C69605 -17849.8 70463.2 -16654.9 71244.6 -15145.5L71244.6 -15145.5ZM68669.9 -18730.2C67747.7 -19592.7 66626.9 -20248.6 65307.5 -20697.8V-20697.8C66626.9 -20248.6 67747.7 -19592.7 68669.9 -18730.2L68669.9 -18730.2ZM65307.5 -20697.8C64001 -21147 62495.9 -21371.6 60792.3 -21371.6V-21371.6C62495.9 -21371.6 64001 -21147 65307.5 -20697.8V-20697.8ZM60792.3 -21371.6H50628.2V-21371.6H60792.3V-21371.6ZM54355.7 -16708.8H60369.6V-16708.8H54355.7V-16708.8ZM60369.6 -16708.8C62226.9 -16708.8 63680.8 -16466.2 64731.1 -15981.1V-15981.1C63680.8 -16466.2 62226.9 -16708.8 60369.6 -16708.8V-16708.8ZM64731.1 -15981.1C65794.3 -15495.9 66639.7 -14813.1 67267.3 -13932.7L67267.3 -13932.7C66639.7 -14813.1 65794.3 -15495.9 64731.1 -15981.1V-15981.1ZM67267.3 -13932.7C68151.2 -12692.9 68836.5 -11030.8 69323.2 -8946.43V-8946.43C68836.4 -11030.8 68151.2 -12692.8 67267.3 -13932.7L67267.3 -13932.7ZM69323.2 -8946.43C69822.8 -6844.13 70072.5 -4301.6 70072.5 -1318.84C70072.5 -4301.59 69822.7 -6844.13 69323.2 -8946.43V-8946.43ZM70072.5 -1318.84C70072.5 2813.9 69585.8 5985.33 68612.3 8195.44V8195.44C69585.8 5985.32 70072.5 2813.9 70072.5 -1318.84ZM68612.3 8195.44C67651.6 10423.5 66479.6 11914.9 65096.2 12669.6L65096.2 12669.6C66479.6 11914.9 67651.6 10423.5 68612.3 8195.44V8195.44ZM65096.2 12669.6C64097.1 13208.6 62489.5 13478.2 60273.5 13478.2V13478.2C62489.5 13478.2 64097.1 13208.6 65096.2 12669.6L65096.2 12669.6ZM60273.5 13478.2H54355.7V13478.2H60273.5V13478.2ZM54355.7 13478.2V-16708.8H54355.7V13478.2H54355.7ZM79256.7 -21371.6V18141V-21371.6ZM79256.7 18141H98259.1V18141H79256.7V18141ZM98259.1 18141V13478.2H98259.1V18141H98259.1ZM98259.1 13478.2H82984.2V13478.2H98259.1V13478.2ZM82984.2 13478.2V1241.66H82984.2V13478.2H82984.2ZM82984.2 1241.66H96203.2V1241.66H82984.2V1241.66ZM96203.2 1241.66V-3421.15V1241.66ZM96203.2 -3421.14H82984.2V-3421.15H96203.2V-3421.14ZM82984.2 -3421.15V-21371.6H82984.2V-3421.15H82984.2ZM82984.2 -21371.6H79256.7V-21371.6H82984.2V-21371.6ZM101276 -21371.6L101276 -21371.6H101276V-21371.6ZM101679 -18002.5V-18002.5V-18002.5ZM103946 -12746.8V-12746.8V-12746.8ZM108481 -6763.27V-6763.27V-6763.27ZM114821 12292.2L114821 12292.2L114821 12292.2ZM105483 6362.66V6362.69V6362.66ZM101929 6874.76L101929 6874.78L101929 6874.76V6874.76ZM104677 15364.8V15364.8V15364.8ZM116858 -2154.37V-2154.37V-2154.37ZM107539 -14094.4V-14094.4V-14094.4ZM106079 -16708.8V-16708.8V-16708.8ZM119894 -16708.8V-21371.6H119894V-16708.8H119894ZM119894 -21371.6H101276V-21371.6H119894V-21371.6ZM101276 -21371.6C101250 -20203.6 101385 -19080.6 101679 -18002.5V-18002.5C101385 -19080.6 101250 -20203.6 101276 -21371.6ZM101679 -18002.5C102153 -16223.6 102909 -14471.7 103946 -12746.8V-12746.8C102909 -14471.7 102153 -16223.6 101679 -18002.5V-18002.5ZM103946 -12746.8C104997 -11021.8 106508 -9027.29 108481 -6763.27V-6763.27C106508 -9027.29 104997 -11021.8 103946 -12746.8V-12746.8ZM108481 -6763.27C111542 -3241.46 113611 -456.358 114687 1592.04L114687 1592.05C113611 -456.354 111542 -3241.46 108481 -6763.27V-6763.27ZM114687 1592.04C115763 3658.41 116301 5607.99 116301 7440.77C116301 5607.99 115763 3658.41 114687 1592.05L114687 1592.04ZM116301 7440.77C116301 9363.39 115808 10980.5 114821 12292.2L114821 12292.2C115808 10980.5 116301 9363.39 116301 7440.77ZM114821 12292.2C113848 13621.9 112573 14286.7 110998 14286.7V14286.7C112573 14286.7 113848 13621.9 114821 12292.2L114821 12292.2ZM110998 14286.7C109333 14286.7 108000 13586 107001 12184.4V12184.4C108000 13586 109333 14286.7 110998 14286.7V14286.7ZM107001 12184.4C106002 10782.9 105496 8842.3 105483 6362.66H105483C105496 8842.3 106002 10782.9 107001 12184.4V12184.4ZM105483 6362.66L101929 6874.76V6874.76L105483 6362.66V6362.66ZM101929 6874.76C102172 10594.2 103088 13424.2 104677 15364.8V15364.8C103088 13424.3 102172 10594.2 101929 6874.76ZM104677 15364.8C106265 17323.4 108398 18302.7 111075 18302.7V18302.7C108398 18302.7 106265 17323.4 104677 15364.8V15364.8ZM111075 18302.7C113777 18302.7 115917 17251.5 117492 15149.2L117492 15149.2C115917 17251.5 113777 18302.7 111075 18302.7V18302.7ZM117492 15149.2C119068 13046.9 119855 10441.5 119855 7332.96H119855C119855 10441.5 119068 13046.9 117492 15149.2L117492 15149.2ZM119855 7332.96C119855 5751.74 119625 4197.47 119164 2670.15L119164 2670.15C119625 4197.46 119855 5751.73 119855 7332.96H119855ZM119164 2670.15C118703 1142.84 117934 -465.338 116858 -2154.37V-2154.37C117934 -465.342 118703 1142.83 119164 2670.15L119164 2670.15ZM116858 -2154.37C115795 -3843.4 114021 -6161.33 111536 -9108.15V-9108.15C114021 -6161.33 115795 -3843.4 116858 -2154.37V-2154.37ZM111536 -9108.15C109461 -11551.9 108129 -13213.9 107539 -14094.4V-14094.4C108129 -13213.9 109461 -11551.9 111536 -9108.15V-9108.15ZM107539 -14094.4C106950 -14956.9 106463 -15828.3 106079 -16708.8C106463 -15828.3 106950 -14956.9 107539 -14094.4V-14094.4ZM106079 -16708.8H119894V-16708.8H106079V-16708.8ZM123756 -8676.91V-8676.87V-8676.91ZM127272 -8245.67L127272 -8245.66L127272 -8245.66V-8245.67ZM131268 -16196.7V-16196.7V-16196.7ZM141778 -14040.5V-14040.5V-14040.5ZM141817 -7410.13V-7410.14V-7410.13ZM134266 -3151.62V-3151.62V-3151.62ZM128828 -671.976V-671.973V-671.976ZM125812 2993.58V2993.58V2993.58ZM140260 17386.3V17386.3V17386.3ZM145333 7009.52L145333 7009.46V7009.52H145333ZM141759 6632.19L141759 6632.18L141759 6632.18V6632.19ZM139799 12292.2V12292.2V12292.2ZM129962 12454V12454V12454ZM129520 4772.46V4772.46V4772.46ZM135130 1942.43V1942.43V1942.43ZM141375 -564.165L141375 -564.162L141375 -564.165ZM141183 -20509.1V-20509.1V-20509.1ZM129347 -20482.2V-20482.2V-20482.2ZM123756 -8676.91L127272 -8245.67V-8245.66L123756 -8676.91V-8676.91ZM127272 -8245.67C127438 -10222.2 127823 -11848.3 128425 -13124.1L128425 -13124.1C127823 -11848.3 127438 -10222.2 127272 -8245.67ZM128425 -13124.1C129040 -14381.9 129987 -15406.1 131268 -16196.7V-16196.7C129987 -15406.1 129040 -14381.9 128425 -13124.1L128425 -13124.1ZM131268 -16196.7C132549 -16969.3 133990 -17355.7 135591 -17355.7V-17355.6C133990 -17355.6 132549 -16969.3 131268 -16196.7V-16196.7ZM135591 -17355.7C137013 -17355.7 138269 -17059.2 139357 -16466.2V-16466.2C138269 -17059.2 137013 -17355.6 135591 -17355.6V-17355.7ZM139357 -16466.2C140446 -15873.3 141253 -15064.7 141778 -14040.5V-14040.5C141253 -15064.7 140446 -15873.3 139357 -16466.2V-16466.2ZM141778 -14040.5C142316 -12998.3 142585 -11866.3 142585 -10644.4H142585C142585 -11866.3 142316 -12998.3 141778 -14040.5V-14040.5ZM142585 -10644.4C142585 -9404.63 142329 -8326.52 141817 -7410.13V-7410.14C142329 -8326.52 142585 -9404.63 142585 -10644.4H142585ZM141817 -7410.13C141304 -6475.77 140459 -5694.15 139280 -5065.25V-5065.26C140459 -5694.15 141304 -6475.78 141817 -7410.14V-7410.13ZM139280 -5065.25C138525 -4651.98 136853 -4014.1 134266 -3151.62V-3151.62C136853 -4014.1 138525 -4651.98 139280 -5065.26V-5065.25ZM134266 -3151.62C131678 -2271.16 129866 -1444.61 128828 -671.973V-671.976C129866 -1444.62 131678 -2271.17 134266 -3151.62V-3151.62ZM128828 -671.973C127483 316.291 126478 1538.14 125812 2993.58V2993.58C126478 1538.14 127483 316.284 128828 -671.976V-671.973ZM125812 2993.58C125158 4466.99 124832 6111.1 124832 7925.91C124832 6111.1 125158 4466.99 125812 2993.58V2993.58ZM124832 7925.91C124832 9920.41 125235 11780.1 126042 13505.1V13505.1C125235 11780.1 124832 9920.41 124832 7925.91ZM126042 13505.1C126849 15248 128028 16568.7 129578 17467.1V17467.1C128028 16568.7 126849 15248 126042 13505.1V13505.1ZM129578 17467.1C131127 18365.6 132850 18814.8 134746 18814.8V18814.8C132850 18814.8 131127 18365.6 129578 17467.1V17467.1ZM134746 18814.8C136834 18814.8 138672 18338.6 140260 17386.3V17386.3C138672 18338.6 136834 18814.8 134746 18814.8V18814.8ZM140260 17386.3C141862 16451.9 143091 15068.4 143949 13235.6L143949 13235.6C143091 15068.4 141862 16451.9 140260 17386.3V17386.3ZM143949 13235.6C144808 11402.8 145269 9327.45 145333 7009.52H145333C145269 9327.45 144808 11402.8 143949 13235.6L143949 13235.6ZM145333 7009.53L141759 6632.19V6632.18L145333 7009.52V7009.53ZM141759 6632.19C141567 9129.8 140914 11016.5 139799 12292.2V12292.2C140914 11016.5 141567 9129.8 141759 6632.19L141759 6632.19ZM139799 12292.2C138698 13568 137064 14205.9 134900 14205.9V14205.9C137064 14205.9 138698 13568 139799 12292.2V12292.2ZM134900 14205.9C132645 14205.9 130999 13621.9 129962 12454V12454C130999 13621.9 132645 14205.9 134900 14205.9V14205.9ZM129962 12454C128937 11304 128425 9911.42 128425 8276.3H128425C128425 9911.42 128937 11304 129962 12454V12454ZM128425 8276.3C128425 6856.79 128790 5688.84 129520 4772.45V4772.46C128790 5688.85 128425 6856.79 128425 8276.3H128425ZM129520 4772.45C129879 4314.26 130525 3849.33 131460 3377.65C132396 2905.98 133619 2427.57 135130 1942.43V1942.43C133619 2427.58 132396 2905.99 131460 3377.66C130525 3849.33 129879 4314.26 129520 4772.46V4772.45ZM135130 1942.43C138166 990.102 140248 154.569 141375 -564.169L141375 -564.162C140248 154.576 138166 990.105 135130 1942.43V1942.43ZM141375 -564.169C143014 -1624.3 144225 -2971.94 145006 -4607.06C144225 -2971.93 143014 -1624.3 141375 -564.162L141375 -564.169ZM145006 -4607.06C145788 -6224.22 146178 -8092.93 146178 -10213.2C146178 -8092.93 145788 -6224.22 145006 -4607.06ZM146178 -10213.2C146178 -12315.5 145749 -14301 144891 -16169.7V-16169.7C145749 -14301 146178 -12315.5 146178 -10213.2ZM144891 -16169.7C144033 -18020.5 142797 -19466.9 141183 -20509.1V-20509.1C142797 -19466.9 144033 -18020.5 144891 -16169.7V-16169.7ZM141183 -20509.1C139581 -21533.3 137775 -22045.4 135764 -22045.4V-22045.4C137775 -22045.4 139582 -21533.3 141183 -20509.1V-20509.1ZM135764 -22045.4C133215 -22045.4 131076 -21524.3 129347 -20482.2V-20482.2C131076 -21524.3 133215 -22045.4 135764 -22045.4V-22045.4ZM129347 -20482.2C127631 -19440 126279 -17876.7 125293 -15792.4V-15792.4C126279 -17876.7 127631 -19440 129347 -20482.2V-20482.2ZM125293 -15792.4C124319 -13690.1 123807 -11318.3 123756 -8676.91C123807 -11318.3 124319 -13690.1 125293 -15792.4V-15792.4ZM159320 -21371.6L159320 -21371.6H159320V-21371.6ZM148407 18141V18141V18141V18141ZM152442 18141L152442 18141H152442V18141ZM161242 -17032.2V-17032.2V-17032.2ZM170368 18141V18141V18141V18141ZM174173 18141L174173 18141H174173V18141ZM163144 -21371.6V-21371.6V-21371.6ZM159320 -21371.6L148407 18141V18141L159320 -21371.6ZM148407 18141H152442V18141H148407V18141ZM152442 18141L159762 -10563.6L152442 18141V18141ZM159762 -10563.6C160352 -12863.6 160845 -15019.8 161242 -17032.2V-17032.2C160845 -15019.8 160352 -12863.5 159762 -10563.6ZM161242 -17032.2C161677 -14876 162183 -12719.8 162760 -10563.6C162183 -12719.8 161677 -14876 161242 -17032.2V-17032.2ZM162760 -10563.6L170368 18141V18141L162760 -10563.6ZM170368 18141H174173V18141H170368V18141ZM174173 18141L163144 -21371.6L174173 18141V18141ZM163144 -21371.6H159320V-21371.6H163144V-21371.6ZM190697 -1237.98L190696 -1236.49V-1237.98H190697ZM202628 -1211.03H202627L202628 -1211.02V-1211.03ZM202628 -15873.3L202628 -15873.3V-15873.3H202628ZM196960 -20509.1V-20509.1V-20509.1ZM178284 8950.11V8950.11V8950.11ZM196192 17413.2V17413.2V17413.2ZM202206 7090.38L202206 7090.24L202206 7090.38ZM198843 5796.66L198843 5796.62L198843 5796.65V5796.66ZM194578 13289.5V13289.5V13289.5ZM186277 13235.6V13235.6V13235.6ZM183261 10378.6V10378.6V10378.6ZM181704 -10321V-10321V-10321ZM195481 -16035H195481H195481ZM198978 -13231.9V-13231.9V-13231.9ZM190697 -5873.83V-1237.98H190696V-5873.83H190697ZM190697 -1237.98L202628 -1211.03V-1211.02L190697 -1237.98V-1237.98ZM202628 -1211.03V-15873.3H202628V-1211.03H202628ZM202628 -15873.3C200797 -17921.7 198907 -19466.9 196960 -20509.1V-20509.1C198907 -19466.9 200797 -17921.7 202628 -15873.3V-15873.3ZM196960 -20509.1C195013 -21533.3 193015 -22045.4 190965 -22045.4V-22045.4C193015 -22045.4 195013 -21533.3 196960 -20509.1V-20509.1ZM190965 -22045.4C188199 -22045.4 185682 -21218.9 183414 -19565.8V-19565.8C185682 -21218.9 188199 -22045.4 190965 -22045.4V-22045.4ZM183414 -19565.8C181160 -17894.7 179456 -15486.9 178304 -12342.5V-12342.5C179456 -15486.9 181160 -17894.7 183414 -19565.8V-19565.8ZM178304 -12342.5C177151 -9197.99 176574 -5685.16 176574 -1803.99C176574 -5685.17 177151 -9197.99 178304 -12342.5V-12342.5ZM176574 -1803.99C176574 2041.25 177144 5625.95 178284 8950.11V8950.11C177144 5625.96 176574 2041.26 176574 -1803.99ZM178284 8950.11C179437 12292.2 181090 14771.9 183242 16389V16389C181090 14771.9 179437 12292.2 178284 8950.11V8950.11ZM183242 16389C185393 18006.2 187872 18814.8 190677 18814.8V18814.8C187872 18814.8 185393 18006.2 183242 16389V16389ZM190677 18814.8C192714 18814.8 194552 18347.6 196192 17413.2V17413.2C194552 18347.6 192714 18814.8 190677 18814.8V18814.8ZM196192 17413.2C197844 16496.8 199138 15212.1 200073 13559V13559C199138 15212.1 197844 16496.9 196192 17413.2V17413.2ZM200073 13559C201008 11905.9 201719 9749.71 202206 7090.38V7090.38C201719 9749.71 201008 11905.9 200073 13559V13559ZM202206 7090.38L198843 5796.66V5796.65L202206 7090.38V7090.38ZM198843 5796.66C198420 7809.12 197895 9390.34 197268 10540.3V10540.3C197895 9390.34 198420 7809.12 198843 5796.66V5796.66ZM197268 10540.3C196640 11690.3 195743 12606.7 194578 13289.5V13289.5C195743 12606.7 196640 11690.3 197268 10540.3V10540.3ZM194578 13289.5C193412 13990.3 192118 14340.6 190697 14340.6V14340.6C192118 14340.6 193412 13990.3 194578 13289.5V13289.5ZM190697 14340.6C188993 14340.6 187520 13972.3 186277 13235.6V13235.6C187520 13972.3 188993 14340.6 190697 14340.6V14340.6ZM186277 13235.6C185035 12516.8 184029 11564.5 183261 10378.6L183261 10378.6C184029 11564.5 185035 12516.8 186277 13235.6V13235.6ZM183261 10378.6C182505 9192.69 181916 7889.98 181493 6470.47V6470.47C181916 7889.98 182505 9192.69 183261 10378.6L183261 10378.6ZM181493 6470.47C180776 4026.77 180417 1376.43 180417 -1480.55H180417C180417 1376.42 180776 4026.77 181493 6470.47V6470.47ZM180417 -1480.55C180417 -5002.36 180846 -7949.19 181704 -10321V-10321C180846 -7949.18 180417 -5002.36 180417 -1480.55H180417ZM181704 -10321C182575 -12692.9 183837 -14453.8 185490 -15603.7V-15603.7C183837 -14453.8 182575 -12692.8 181704 -10321V-10321ZM185490 -15603.7C187142 -16753.7 188897 -17328.7 190754 -17328.7V-17328.7C188897 -17328.7 187142 -16753.7 185490 -15603.7V-15603.7ZM190754 -17328.7C192368 -17328.7 193944 -16897.5 195481 -16035L195481 -16035C193944 -16897.5 192368 -17328.7 190754 -17328.7V-17328.7ZM195481 -16035C197018 -15154.5 198183 -14220.2 198978 -13231.9V-13231.9C198183 -14220.2 197018 -15154.5 195481 -16035L195481 -16035ZM198978 -13231.9V-5873.83V-13231.9ZM198978 -5873.83H190697V-5873.84H198978V-5873.83ZM233812 17575V17575V17575ZM237943 14744.9V14744.9V14744.9ZM241267 7979.82V7979.82V7979.82ZM237136 -18730.2V-18730.2V-18730.2ZM233774 -20697.8V-20697.8V-20697.8ZM237079 8195.44V8195.44V8195.44ZM233562 12669.6V12669.6V12669.6ZM219094 -21371.6V18141V-21371.6ZM219094 18141H228797V18141H219094V18141ZM228797 18141C230988 18141 232659 17952.3 233812 17575V17575C232659 17952.3 230988 18141 228797 18141V18141ZM233812 17575C235426 17053.9 236803 16110.5 237943 14744.9V14744.9C236803 16110.5 235426 17053.9 233812 17575V17575ZM237943 14744.9C239429 12984 240537 10729 241267 7979.82V7979.82C240537 10729 239429 12984 237943 14744.9V14744.9ZM241267 7979.82C242010 5248.62 242382 2122.11 242382 -1399.7C242382 2122.11 242010 5248.62 241267 7979.82V7979.82ZM242382 -1399.7C242382 -4400.42 242132 -7059.75 241632 -9377.68C242132 -7059.75 242382 -4400.42 242382 -1399.7ZM241632 -9377.68C241133 -11695.6 240492 -13618.2 239711 -15145.5V-15145.5C240492 -13618.2 241133 -11695.6 241632 -9377.68ZM239711 -15145.5C238929 -16654.9 238071 -17849.8 237136 -18730.2V-18730.2C238071 -17849.8 238929 -16654.9 239711 -15145.5V-15145.5ZM237136 -18730.2C236214 -19592.7 235093 -20248.6 233774 -20697.8V-20697.8C235093 -20248.6 236214 -19592.7 237136 -18730.2V-18730.2ZM233774 -20697.8C232467 -21147 230962 -21371.6 229259 -21371.6V-21371.6C230962 -21371.6 232467 -21147 233774 -20697.8V-20697.8ZM229259 -21371.6H219094V-21371.6H229259V-21371.6ZM222822 -16708.8H228836V-16708.8H222822V-16708.8ZM228836 -16708.8C230693 -16708.8 232147 -16466.2 233197 -15981.1V-15981.1C232147 -16466.2 230693 -16708.8 228836 -16708.8V-16708.8ZM233197 -15981.1C234260 -15495.9 235106 -14813.1 235734 -13932.7V-13932.7C235106 -14813.1 234260 -15495.9 233197 -15981.1V-15981.1ZM235734 -13932.7C236617 -12692.9 237303 -11030.8 237789 -8946.43V-8946.43C237303 -11030.8 236617 -12692.8 235734 -13932.7V-13932.7ZM237789 -8946.43C238289 -6844.13 238539 -4301.6 238539 -1318.84C238539 -4301.59 238289 -6844.13 237789 -8946.43V-8946.43ZM238539 -1318.84C238539 2813.9 238052 5985.33 237079 8195.44V8195.44C238052 5985.32 238539 2813.9 238539 -1318.84ZM237079 8195.44C236118 10423.5 234946 11914.9 233562 12669.6V12669.6C234946 11914.9 236118 10423.5 237079 8195.44V8195.44ZM233562 12669.6C232563 13208.6 230956 13478.2 228740 13478.2V13478.2C230956 13478.2 232563 13208.6 233562 12669.6V12669.6ZM228740 13478.2H222822V13478.2H228740V13478.2ZM222822 13478.2V-16708.8H222822V13478.2H222822ZM261057 -12153.8V-12153.8L261057 -12153.8H261057ZM264631 -12773.7L264631 -12773.7L264631 -12773.7V-12773.7ZM264727 -8299.57V-8299.65V-8299.57ZM249510 -8299.57V-8299.61V-8299.57ZM249702 -4310.58H249702H249702ZM261096 -4310.58V-4310.55V-4310.58ZM261057 -12153.8L264631 -12773.7V-12773.7L261057 -12153.8V-12153.8ZM264631 -12773.7C264067 -15702.6 263023 -17975.6 261499 -19592.7V-19592.7C263024 -17975.6 264067 -15702.6 264631 -12773.7ZM261499 -19592.7C259975 -21209.9 258028 -22018.5 255658 -22018.5V-22018.5C258028 -22018.5 259975 -21209.9 261499 -19592.7V-19592.7ZM255658 -22018.5C252674 -22018.5 250304 -20733.7 248549 -18164.2V-18164.2C250304 -20733.7 252674 -22018.5 255658 -22018.5V-22018.5ZM248549 -18164.2C246807 -15576.8 245936 -11956.1 245936 -7302.32C245936 -11956.1 246807 -15576.8 248549 -18164.2V-18164.2ZM245936 -7302.32C245936 -2486.79 246820 1250.64 248588 3909.97V3909.97C246820 1250.65 245936 -2486.79 245936 -7302.32ZM248588 3909.97C250355 6569.3 252648 7898.96 255466 7898.96V7898.96C252648 7898.96 250355 6569.3 248588 3909.97V3909.97ZM255466 7898.96C258194 7898.96 260423 6596.25 262152 3990.83V3990.83C260423 6596.25 258194 7898.96 255466 7898.96V7898.96ZM262152 3990.83C263882 1385.41 264746 -2280.15 264746 -7005.84C264746 -2280.15 263882 1385.41 262152 3990.83V3990.83ZM264746 -7005.84C264746 -7293.34 264740 -7724.58 264727 -8299.57C264740 -7724.58 264746 -7293.34 264746 -7005.84ZM264727 -8299.57H249510V-8299.57H264727V-8299.57ZM249510 -8299.57C249638 -11444 250272 -13851.8 251412 -15522.9V-15522.9C250272 -13851.8 249638 -11444 249510 -8299.57ZM251412 -15522.9C252552 -17193.9 253974 -18029.5 255677 -18029.5V-18029.5C253974 -18029.5 252552 -17193.9 251412 -15522.9V-15522.9ZM255677 -18029.5C256946 -18029.5 258028 -17562.3 258925 -16627.9V-16627.9C258028 -17562.3 256946 -18029.5 255677 -18029.5V-18029.5ZM258925 -16627.9C259821 -15693.6 260532 -14202.2 261057 -12153.8H261057C260532 -14202.2 259821 -15693.6 258925 -16627.9V-16627.9ZM249702 -4310.58H261096V-4310.58H249702V-4310.58ZM261096 -4310.58C260942 -1902.81 260506 -96.9855 259789 1106.9V1106.9C260506 -96.9855 260942 -1902.81 261096 -4310.58ZM259789 1106.9C258688 2975.62 257259 3909.97 255505 3909.97V3909.97C257259 3909.97 258688 2975.61 259789 1106.9V1106.9ZM255505 3909.97C253916 3909.97 252578 3164.28 251489 1672.9V1672.9C252578 3164.28 253916 3909.97 255505 3909.97V3909.97ZM251489 1672.9C250413 181.524 249817 -1812.97 249702 -4310.58C249817 -1812.97 250413 181.524 251489 1672.9V1672.9ZM272086 3236.16V3236.15V3236.16ZM274641 6605.23V6605.23V6605.23ZM281981 6578.28V6578.28V6578.28ZM284037 2885.77V2885.77V2885.77V2885.77ZM295008 5527.13V5527.13V5527.13ZM285997 1672.9V1672.9V1672.9ZM274795 2616.25V2616.25V2616.25ZM268993 -21371.6V7252.1V-21371.6ZM268993 7252.1H272086V7252.1H268993V7252.1ZM272086 7252.1V3236.16V7252.1ZM272086 3236.15C272726 4637.69 273578 5760.72 274641 6605.23V6605.24C273578 5760.72 272726 4637.69 272086 3236.16V3236.15ZM274641 6605.23C275705 7467.72 276915 7898.96 278273 7898.96V7898.96C276915 7898.96 275705 7467.72 274641 6605.24V6605.23ZM278273 7898.96C279784 7898.96 281020 7458.73 281981 6578.28V6578.28C281020 7458.74 279784 7898.96 278273 7898.96V7898.96ZM281981 6578.28C282955 5697.83 283640 4466.99 284037 2885.77V2885.77C283640 4466.99 282955 5697.83 281981 6578.28V6578.28ZM284037 2885.77C285651 6227.9 287752 7898.96 290339 7898.96V7898.96C287752 7898.96 285651 6227.9 284037 2885.77V2885.77ZM290339 7898.96C292363 7898.96 293919 7108.35 295008 5527.13V5527.13C293919 7108.35 292363 7898.96 290339 7898.96V7898.96ZM295008 5527.13C296097 3963.88 296641 1547.12 296641 -1723.13H296641C296641 1547.12 296097 3963.88 295008 5527.13V5527.13ZM296641 -1723.13V-21371.6H296641V-1723.13H296641ZM296641 -21371.6H293202V-21371.6H296641V-21371.6ZM293202 -21371.6V-3340.29V-21371.6ZM293202 -3340.29C293202 -1399.7 293087 -7.14244 292856 837.371C293087 -7.14571 293202 -1399.7 293202 -3340.29ZM292856 837.371C292638 1699.86 292235 2391.64 291646 2912.73V2912.72C292235 2391.64 292638 1699.86 292856 837.371ZM291646 2912.73C291056 3433.81 290365 3694.35 289570 3694.35V3694.35C290365 3694.35 291056 3433.81 291646 2912.72V2912.73ZM289570 3694.35C288136 3694.35 286945 3020.54 285997 1672.9V1672.9C286945 3020.53 288136 3694.35 289570 3694.35V3694.35ZM285997 1672.9C285049 343.242 284575 -1795 284575 -4741.82C284575 -1795 285049 343.239 285997 1672.9V1672.9ZM284575 -4741.82V-21371.6V-4741.82ZM284575 -21371.6H281116V-21371.6H284575V-21371.6ZM281116 -21371.6V-2774.28V-21371.6ZM281116 -2774.28C281116 -618.069 280835 999.089 280271 2077.19V2077.19C280835 999.086 281116 -618.069 281116 -2774.28ZM280271 2077.19C279707 3155.3 278785 3694.35 277504 3694.35V3694.35C278785 3694.35 279707 3155.3 280271 2077.19V2077.19ZM277504 3694.35C276531 3694.35 275628 3334.98 274795 2616.25V2616.24C275628 3334.98 276531 3694.35 277504 3694.35V3694.35ZM274795 2616.25C273975 1897.51 273380 846.358 273008 -537.21V-537.213C273380 846.355 273975 1897.51 274795 2616.24V2616.25ZM273008 -537.21C272637 -1920.78 272451 -3915.27 272451 -6520.7C272451 -3915.28 272637 -1920.78 273008 -537.213V-537.21ZM272451 -6520.7V-21371.6V-6520.7ZM272451 -21371.6H268993V-21371.6H272451V-21371.6ZM303635 4718.55V4718.55V4718.55ZM316931 4017.78V4017.78V4017.78ZM314318 1133.85L314318 1133.85L314318 1133.85ZM300484 -7059.75C300484 -1759.07 301534 2167.03 303635 4718.55V4718.55C301534 2167.04 300484 -1759.06 300484 -7059.75ZM303635 4718.55C305390 6838.82 307529 7898.96 310052 7898.96V7898.96C307529 7898.96 305390 6838.83 303635 4718.55V4718.55ZM310052 7898.96C312858 7898.96 315150 6605.23 316931 4017.78V4017.78C315150 6605.24 312858 7898.96 310052 7898.96V7898.96ZM316931 4017.78C318711 1448.3 319602 -2109.45 319602 -6655.46C319602 -2109.45 318711 1448.3 316931 4017.78V4017.78ZM319602 -6655.46C319602 -10339 319205 -13240.9 318410 -15361.2V-15361.2C319205 -13240.9 319602 -10339 319602 -6655.46ZM318410 -15361.2C317629 -17463.5 316483 -19098.6 314971 -20266.5V-20266.5C316483 -19098.6 317629 -17463.5 318410 -15361.2V-15361.2ZM314971 -20266.5C313472 -21434.5 311833 -22018.5 310052 -22018.5V-22018.5C311833 -22018.5 313472 -21434.5 314971 -20266.5V-20266.5ZM310052 -22018.5C307196 -22018.5 304884 -20733.7 303116 -18164.2V-18164.2C304884 -20733.7 307196 -22018.5 310052 -22018.5V-22018.5ZM303116 -18164.2C301361 -15594.7 300484 -11893.3 300484 -7059.75C300484 -11893.3 301361 -15594.7 303116 -18164.2V-18164.2ZM304038 -7059.75C304038 -10725.3 304608 -13474.5 305748 -15307.3V-15307.3C304608 -13474.5 304038 -10725.3 304038 -7059.75ZM305748 -15307.3C306888 -17122.1 308323 -18029.5 310052 -18029.5V-18029.5C308323 -18029.5 306888 -17122.1 305748 -15307.3V-15307.3ZM310052 -18029.5C311769 -18029.5 313197 -17113.1 314337 -15280.3V-15280.3C313197 -17113.1 311769 -18029.5 310052 -18029.5V-18029.5ZM314337 -15280.3C315477 -13447.5 316047 -10653.4 316047 -6898.03C316047 -10653.4 315477 -13447.5 314337 -15280.3V-15280.3ZM316047 -6898.03C316047 -3358.25 315471 -680.96 314318 1133.85L314318 1133.85C315471 -680.96 316047 -3358.25 316047 -6898.03ZM314318 1133.85C313178 2966.63 311756 3883.02 310052 3883.02V3883.02C311756 3883.02 313178 2966.63 314318 1133.85L314318 1133.85ZM310052 3883.02C308323 3883.02 306888 2975.62 305748 1160.8V1160.8C306888 2975.61 308323 3883.02 310052 3883.02V3883.02ZM305748 1160.8C304608 -654.005 304038 -3394.19 304038 -7059.75C304038 -3394.19 304608 -654.008 305748 1160.8V1160.8ZM5802.51 -84930H5802.51H5802.51ZM-441.956 -56306.3V-56306.3L-441.958 -56306.3L-441.956 -56306.3ZM3131.8 -56306.3H3131.81H3131.8ZM6378.93 -72828.2H6378.93H6378.93ZM7589.39 -78973.4H7589.4H7589.39ZM8646.15 -73070.8H8646.15H8646.15ZM11893.3 -56306.3V-56306.3L11893.3 -56306.3H11893.3ZM15447.8 -56306.3H15447.8H15447.8ZM18502.8 -72909.1H18502.8H18502.8ZM19521.1 -78380.5H19521.1H19521.1ZM24190.1 -56306.3V-56306.3V-56306.3ZM27552.5 -56306.3H27552.5H27552.5ZM21173.5 -84930V-84930L21173.5 -84930H21173.5ZM17580.5 -84930H17580.5H17580.5ZM14333.4 -67788.1H14333.4H14333.4ZM13545.7 -62909.7H13545.7H13545.7H13545.7ZM9414.7 -84930V-84930L9414.7 -84930H9414.7ZM5802.52 -84930L-441.954 -56306.3L-441.958 -56306.3L5802.51 -84930H5802.52ZM-441.956 -56306.3H3131.8V-56306.3H-441.956V-56306.3ZM3131.8 -56306.3L6378.93 -72828.2H6378.93L3131.8 -56306.3L3131.8 -56306.3ZM6378.93 -72828.2L7589.39 -78973.4H7589.4L6378.93 -72828.2H6378.93ZM7589.4 -78973.4C7640.63 -78668 7992.89 -76700.4 8646.15 -73070.8H8646.15C7992.88 -76700.4 7640.63 -78668 7589.39 -78973.4H7589.4ZM8646.15 -73070.8L11893.3 -56306.3L11893.3 -56306.3L8646.15 -73070.8H8646.15ZM11893.3 -56306.3H15447.8V-56306.3H11893.3V-56306.3ZM15447.8 -56306.3L18502.8 -72909.1H18502.8L15447.8 -56306.3L15447.8 -56306.3ZM18502.8 -72909.1L19521.1 -78380.5H19521.1L18502.8 -72909.1H18502.8ZM19521.1 -78380.5L20693.2 -72855.2H20693.2L19521.1 -78380.5H19521.1ZM20693.2 -72855.2L24190.1 -56306.3L24190.1 -56306.3L20693.2 -72855.2H20693.2ZM24190.1 -56306.3H27552.5V-56306.3H24190.1V-56306.3ZM27552.5 -56306.3L21173.5 -84930H21173.5L27552.5 -56306.3L27552.5 -56306.3ZM21173.5 -84930H17580.5H21173.5ZM17580.5 -84930L14333.4 -67788.1H14333.4L17580.5 -84930H17580.5ZM14333.4 -67788.1L13545.7 -62909.7H13545.7L14333.4 -67788.1H14333.4ZM13545.7 -62909.7L9414.7 -84930H9414.7L13545.7 -62909.7H13545.7ZM9414.7 -84930H5802.51H9414.7ZM34238.9 -84930H34238.9H34238.9ZM27994.4 -56306.3V-56306.3V-56306.3V-56306.3ZM31568.2 -56306.3H31568.2H31568.2ZM34815.3 -72828.2H34815.3H34815.3ZM40329.6 -56306.3V-56306.3L40329.6 -56306.3H40329.6ZM43884.2 -56306.3H43884.2H43884.2ZM46939.2 -72909.1H46939.2H46939.2ZM47957.5 -78380.5H47957.5H47957.5ZM52626.4 -56306.3V-56306.3V-56306.3ZM55988.8 -56306.3H55988.8H55988.8ZM49609.9 -84930V-84930L49609.9 -84930H49609.9ZM46016.9 -84930H46016.9H46016.9ZM37851.1 -84930V-84930L37851.1 -84930H37851.1ZM34238.9 -84930L27994.4 -56306.3L27994.4 -56306.3L34238.9 -84930H34238.9ZM27994.4 -56306.3H31568.2V-56306.3H27994.4V-56306.3ZM31568.2 -56306.3L34815.3 -72828.2H34815.3L31568.2 -56306.3L31568.2 -56306.3ZM34815.3 -72828.2L36025.8 -78973.4H36025.8L34815.3 -72828.2H34815.3ZM36025.8 -78973.4C36077 -78668 36429.2 -76700.4 37082.5 -73070.8H37082.5C36429.2 -76700.4 36077 -78668 36025.8 -78973.4H36025.8ZM37082.5 -73070.8L40329.6 -56306.3L40329.6 -56306.3L37082.5 -73070.8H37082.5ZM40329.6 -56306.3H43884.2V-56306.3H40329.6V-56306.3ZM43884.2 -56306.3L46939.2 -72909.1H46939.2L43884.2 -56306.3L43884.2 -56306.3ZM46939.2 -72909.1L47957.5 -78380.5H47957.5L46939.2 -72909.1H46939.2ZM47957.5 -78380.5L49129.5 -72855.2H49129.5L47957.5 -78380.5H47957.5ZM49129.5 -72855.2L52626.4 -56306.3L52626.4 -56306.3L49129.5 -72855.2H49129.5ZM52626.4 -56306.3H55988.8V-56306.3H52626.4V-56306.3ZM55988.8 -56306.3L49609.9 -84930H49609.9L55988.8 -56306.3V-56306.3ZM49609.9 -84930H46016.9H49609.9ZM46016.9 -84930L42769.8 -67788.1H42769.8L46016.9 -84930H46016.9ZM42769.8 -67788.1L41982 -62909.7L42769.8 -67788.1H42769.8ZM41982 -62909.7L37851.1 -84930H37851.1L41982 -62909.7ZM37851.1 -84930H34238.9H37851.1ZM62675.2 -84930H62675.2H62675.2ZM56430.8 -56306.3V-56306.3L56430.8 -56306.3L56430.8 -56306.3ZM60004.5 -56306.3H60004.5H60004.5ZM63251.7 -72828.2H63251.6H63251.7ZM64462.1 -78973.4H64462.1H64462.1ZM68766 -56306.3V-56306.3V-56306.3ZM72320.5 -56306.3H72320.5H72320.5ZM77565.9 -72855.2H77565.9H77565.9ZM81062.8 -56306.3V-56306.3V-56306.3ZM78046.2 -84930V-84930L78046.2 -84930H78046.2ZM74453.3 -84930H74453.3H74453.3ZM66287.4 -84930V-84930L66287.4 -84930H66287.4ZM62675.2 -84930L56430.8 -56306.3L56430.8 -56306.3L62675.2 -84930H62675.2ZM56430.8 -56306.3H60004.5V-56306.3H56430.8V-56306.3ZM60004.5 -56306.3L63251.6 -72828.2H63251.7L60004.5 -56306.3L60004.5 -56306.3ZM63251.6 -72828.2L64462.1 -78973.4H64462.1L63251.7 -72828.2H63251.6ZM64462.1 -78973.4C64513.4 -78668 64865.6 -76700.4 65518.9 -73070.8H65518.9C64865.6 -76700.4 64513.4 -78668 64462.1 -78973.4H64462.1ZM65518.9 -73070.8L68766 -56306.3L68766 -56306.3L65518.9 -73070.8H65518.9ZM68766 -56306.3H72320.5V-56306.3H68766V-56306.3ZM72320.5 -56306.3L75375.5 -72909.1L72320.5 -56306.3V-56306.3ZM75375.5 -72909.1L76393.9 -78380.5H76393.9L75375.5 -72909.1ZM76393.9 -78380.5L77565.9 -72855.2H77565.9L76393.9 -78380.5H76393.9ZM77565.9 -72855.2L81062.8 -56306.3L81062.8 -56306.3L77565.9 -72855.2H77565.9ZM81062.8 -56306.3H84425.2V-56306.3H81062.8V-56306.3ZM84425.2 -56306.3L78046.2 -84930H78046.2L84425.2 -56306.3V-56306.3ZM78046.2 -84930H74453.3H78046.2ZM74453.3 -84930L71206.1 -67788.1L74453.3 -84930ZM71206.1 -67788.1L70418.4 -62909.7H70418.4L71206.1 -67788.1ZM70418.4 -62909.7L66287.4 -84930H66287.4L70418.4 -62909.7H70418.4ZM66287.4 -84930H62675.2H66287.4ZM86135.2 -84930V-79404.7V-84930ZM86135.2 -79404.7H90074H86135.2ZM90074 -79404.7V-84930H90074.1V-79404.7H90074ZM90074 -84930H86135.2H90074ZM99258.2 -60025.7H99258.2H99258.2ZM101775 -56764.5V-56764.5V-56764.5ZM108635 -78865.6H108635H108635ZM100930 -62370.6H100930H100930ZM96107.2 -95899.7V-56306.3V-95899.7ZM96107.2 -56306.3H99258.2V-56306.3H96107.2V-56306.3ZM99258.2 -56306.3V-60025.7H99258.2V-56306.3H99258.2ZM99258.2 -60025.7C100001 -58570.3 100840 -57483.2 101775 -56764.5V-56764.5C100840 -57483.2 100001 -58570.3 99258.2 -60025.7H99258.2ZM101775 -56764.5C102710 -56027.8 103844 -55659.4 105176 -55659.4C103844 -55659.4 102710 -56027.8 101775 -56764.5V-56764.5ZM105176 -55659.4C106918 -55659.4 108455 -56288.3 109787 -57546.1V-57546.1C108455 -56288.3 106918 -55659.4 105176 -55659.4ZM109787 -57546.1C111120 -58803.9 112125 -60582.8 112804 -62882.7V-62882.7C112125 -60582.8 111120 -58803.9 109787 -57546.1V-57546.1ZM112804 -62882.7C113483 -65164.7 113822 -67671.3 113822 -70402.5C113822 -67671.3 113483 -65164.7 112804 -62882.7V-62882.7ZM113822 -70402.5C113822 -73331.4 113444 -75972.7 112689 -78326.6H112689C113444 -75972.7 113822 -73331.4 113822 -70402.5ZM112689 -78326.6C111946 -80662.5 110857 -82459.3 109422 -83717.1C110857 -82459.3 111946 -80662.5 112689 -78326.6H112689ZM109422 -83717.1C108000 -84956.9 106502 -85576.8 104926 -85576.8C106502 -85576.8 108000 -84956.9 109422 -83717.1ZM104926 -85576.8C103773 -85576.8 102736 -85235.4 101814 -84552.6C102736 -85235.4 103773 -85576.8 104926 -85576.8ZM101814 -84552.6C100904 -83869.8 100155 -83007.3 99565.6 -81965.2C100155 -83007.3 100904 -83869.8 101814 -84552.6ZM99565.6 -81965.2V-95899.7H99565.7V-81965.2H99565.6ZM99565.6 -95899.7H96107.2H99565.6ZM99239 -70779.8C99239 -74463.4 99770.6 -77185.6 100834 -78946.5C99770.6 -77185.6 99239 -74463.4 99239 -70779.8ZM100834 -78946.5C101897 -80707.4 103184 -81587.9 104696 -81587.9V-81587.8C103184 -81587.8 101897 -80707.4 100834 -78946.5ZM104696 -81587.9C106233 -81587.9 107546 -80680.4 108635 -78865.6H108635C107546 -80680.4 106233 -81587.8 104696 -81587.8V-81587.9ZM108635 -78865.6C109736 -77032.9 110287 -74202.8 110287 -70375.5C110287 -74202.8 109736 -77032.9 108635 -78865.6H108635ZM110287 -70375.5C110287 -66728 109749 -63996.8 108673 -62182C109749 -63996.8 110287 -66728 110287 -70375.5ZM108673 -62182C107610 -60367.1 106335 -59459.7 104849 -59459.7C106335 -59459.7 107610 -60367.1 108673 -62182ZM104849 -59459.7C103376 -59459.7 102070 -60430 100930 -62370.6L100930 -62370.6C102070 -60430 103376 -59459.7 104849 -59459.7ZM100930 -62370.6C99802.6 -64293.2 99239 -67096.3 99239 -70779.8C99239 -67096.3 99802.6 -64293.2 100930 -62370.6L100930 -62370.6ZM128674 -56764.5V-56764.5V-56764.5ZM131019 -59594.5H131019H131019ZM131249 -84930V-81318.3V-84930ZM131249 -81318.3C129955 -84157.3 128053 -85576.8 125543 -85576.8C128053 -85576.8 129955 -84157.3 131249 -81318.3ZM125543 -85576.8C123916 -85576.8 122417 -84947.9 121047 -83690.1V-83690.2C122417 -84947.9 123916 -85576.8 125543 -85576.8ZM121047 -83690.1C119689 -82432.4 118632 -80680.4 117876 -78434.4C118632 -80680.4 119689 -82432.4 121047 -83690.2V-83690.1ZM117876 -78434.4C117133 -76170.4 116762 -73573.9 116762 -70645.1C116762 -73573.9 117133 -76170.4 117876 -78434.4ZM116762 -70645.1C116762 -67788.1 117101 -65200.6 117780 -62882.7V-62882.7C117101 -65200.6 116762 -67788.1 116762 -70645.1ZM117780 -62882.7C118459 -60546.8 119478 -58759 120835 -57519.2V-57519.1C119478 -58759 118459 -60546.8 117780 -62882.7V-62882.7ZM120835 -57519.2C122193 -56279.3 123711 -55659.4 125389 -55659.4C123711 -55659.4 122193 -56279.3 120835 -57519.1V-57519.2ZM125389 -55659.4C126619 -55659.4 127714 -56027.8 128674 -56764.5V-56764.5C127714 -56027.8 126619 -55659.4 125389 -55659.4ZM128674 -56764.5C129635 -57483.2 130417 -58426.6 131019 -59594.5L131019 -59594.5C130417 -58426.6 129635 -57483.2 128674 -56764.5V-56764.5ZM131019 -59594.5V-45417.4H131019V-59594.5H131019ZM131019 -45417.4H134458V-45417.4H131019V-45417.4ZM134458 -45417.4V-84930H134458V-45417.4H134458ZM134458 -84930H131249H134458ZM120317 -70645.1C120317 -74310.6 120867 -77050.8 121969 -78865.6C120867 -77050.8 120317 -74310.6 120317 -70645.1ZM121969 -78865.6C123070 -80680.4 124371 -81587.9 125869 -81587.9V-81587.8C124371 -81587.8 123070 -80680.4 121969 -78865.6ZM125869 -81587.9C127381 -81587.9 128662 -80725.4 129712 -79000.4V-79000.4C128662 -80725.4 127381 -81587.8 125869 -81587.8V-81587.9ZM129712 -79000.4C130775 -77257.5 131307 -74607.1 131307 -71049.4C131307 -74607.1 130775 -77257.5 129712 -79000.4V-79000.4ZM131307 -71049.4C131307 -67132.2 130769 -64257.3 129693 -62424.5V-62424.5C130769 -64257.3 131307 -67132.2 131307 -71049.4ZM129693 -62424.5C128617 -60591.7 127291 -59675.4 125716 -59675.4V-59675.4C127291 -59675.4 128617 -60591.8 129693 -62424.5V-62424.5ZM125716 -59675.4C124178 -59675.4 122891 -60555.8 121854 -62316.7L121854 -62316.7C122891 -60555.8 124178 -59675.4 125716 -59675.4V-59675.4ZM121854 -62316.7C120829 -64077.6 120317 -66853.7 120317 -70645.1C120317 -66853.7 120829 -64077.6 121854 -62316.7L121854 -62316.7ZM142854 -45929.5V-45929.5H142854L142854 -45929.5ZM149617 -45228.7L149618 -45228.8L149617 -45228.7ZM149099 -49460.3L149099 -49459.9L149099 -49460.3ZM140741 -84930V-60079.6H140741V-84930H140741ZM140741 -60079.6H137686V-60079.7H140741V-60079.6ZM137686 -60079.6V-56306.3H137686V-60079.6H137686ZM137686 -56306.3H140741V-56306.3H137686V-56306.3ZM140741 -56306.3V-53260.6H140741V-56306.3H140741ZM140741 -53260.6C140741 -51338 140862 -49909.5 141106 -48975.2C140862 -49909.5 140741 -51338 140741 -53260.6H140741ZM141106 -48975.2C141439 -47717.4 142022 -46702.2 142854 -45929.5V-45929.5C142022 -46702.2 141439 -47717.4 141106 -48975.2ZM142854 -45929.5C143700 -45138.9 144878 -44743.6 146390 -44743.6V-44743.6C144878 -44743.6 143700 -45138.9 142854 -45929.5L142854 -45929.5ZM146390 -44743.6C147363 -44743.6 148439 -44905.3 149617 -45228.8V-45228.7C148439 -44905.3 147363 -44743.6 146390 -44743.6V-44743.6ZM149617 -45228.7L149099 -49460.3L149617 -45228.8V-45228.7ZM149099 -49460.3C148381 -49280.6 147703 -49190.8 147062 -49190.8V-49190.8C147703 -49190.8 148381 -49280.6 149099 -49460.3V-49460.3ZM147062 -49190.8C146012 -49190.8 145269 -49505.2 144833 -50134.1H144833C145269 -49505.2 146012 -49190.8 147062 -49190.8V-49190.8ZM144833 -50134.1C144398 -50763 144180 -51940 144180 -53664.9H144180C144180 -51940 144398 -50763 144833 -50134.1H144833ZM144180 -53664.9V-56306.3H144180V-53664.9H144180ZM144180 -56306.3H148157V-56306.3H144180V-56306.3ZM148157 -56306.3V-60079.6V-56306.3ZM148157 -60079.6H144180V-60079.7H148157V-60079.6ZM144180 -60079.6V-84930H144180V-60079.6H144180ZM144180 -84930H140741H144180ZM158417 -80590.6L158417 -80590.6L158417 -80590.6V-80590.6ZM158917 -84876.1L158917 -84876.1L158917 -84876.1ZM154940 -46306.9V-46306.8V-46306.9ZM155113 -79485.5V-79485.5V-79485.5ZM158417 -80590.6L158917 -84876.1L158417 -80590.6ZM158917 -84876.1C157943 -85163.6 157072 -85307.3 156304 -85307.3C157072 -85307.3 157943 -85163.6 158917 -84876.1ZM156304 -85307.3C155049 -85307.3 154075 -85028.8 153383 -84471.8V-84471.8C154075 -85028.8 155049 -85307.3 156304 -85307.3ZM153383 -84471.8C152692 -83914.7 152205 -83187 151923 -82288.6C152205 -83187 152692 -83914.8 153383 -84471.8V-84471.8ZM151923 -82288.6C151782 -81830.4 151677 -81122.9 151606 -80166.1C151536 -79209.3 151500 -78003.1 151500 -76547.7C151500 -78003.1 151536 -79209.3 151606 -80166.1C151677 -81122.9 151782 -81830.4 151923 -82288.6ZM151500 -76547.7V-60079.6V-76547.7ZM151500 -60079.6H148964V-60079.7H151500V-60079.6ZM148964 -60079.6V-56306.3V-60079.6ZM148964 -56306.3H151500V-56306.3H148964V-56306.3ZM151500 -56306.3V-49217.7V-56306.3ZM151500 -49217.7L154940 -46306.9V-46306.8L151500 -49217.7V-49217.7ZM154940 -46306.9V-56306.3V-46306.9ZM154940 -56306.3H158417V-56306.3H154940V-56306.3ZM158417 -56306.3V-60079.6V-56306.3ZM158417 -60079.6H154940V-60079.7H158417V-60079.6ZM154940 -60079.6V-76817.2V-60079.6ZM154940 -76817.2C154940 -77509 154954 -78077.3 154983 -78522C155012 -78966.7 155055 -79287.9 155113 -79485.5V-79485.5C155055 -79287.9 155012 -78966.7 154983 -78522C154954 -78077.3 154940 -77509 154940 -76817.2ZM155113 -79485.5C155241 -79880.8 155439 -80195.3 155708 -80428.9C155439 -80195.3 155241 -79880.8 155113 -79485.5V-79485.5ZM155708 -80428.9C155990 -80662.5 156387 -80779.3 156900 -80779.3C156387 -80779.3 155990 -80662.5 155708 -80428.9ZM156900 -80779.3C157284 -80779.3 157790 -80716.4 158417 -80590.6V-80590.6C157790 -80716.4 157284 -80779.3 156900 -80779.3ZM187930 -59540.6V-59540.6V-59540.6ZM171483 -70618.1C171483 -65317.4 172533 -61391.3 174634 -58839.8V-58839.8C172533 -61391.3 171483 -65317.4 171483 -70618.1ZM174634 -58839.8C176389 -56719.6 178528 -55659.4 181051 -55659.4C178528 -55659.4 176389 -56719.6 174634 -58839.8V-58839.8ZM181051 -55659.4C183856 -55659.4 186149 -56953.1 187930 -59540.6V-59540.6C186149 -56953.1 183856 -55659.4 181051 -55659.4ZM187930 -59540.6C189710 -62110.1 190600 -65667.8 190600 -70213.8C190600 -65667.8 189710 -62110.1 187930 -59540.6V-59540.6ZM190600 -70213.8C190600 -73897.4 190203 -76799.3 189409 -78919.5C190203 -76799.3 190600 -73897.4 190600 -70213.8ZM189409 -78919.5C188628 -81021.8 187481 -82657 185970 -83824.9H185970C187481 -82657 188628 -81021.8 189409 -78919.5ZM185970 -83824.9C184471 -84992.9 182832 -85576.8 181051 -85576.8C182832 -85576.8 184471 -84992.9 185970 -83824.9H185970ZM181051 -85576.8C178195 -85576.8 175883 -84292.1 174115 -81722.6C175883 -84292.1 178195 -85576.8 181051 -85576.8ZM174115 -81722.6C172360 -79153.1 171483 -75451.6 171483 -70618.1C171483 -75451.6 172360 -79153.1 174115 -81722.6ZM175037 -70618.1C175037 -74283.7 175607 -77032.9 176747 -78865.6C175607 -77032.9 175037 -74283.7 175037 -70618.1ZM176747 -78865.6C177887 -80680.4 179322 -81587.9 181051 -81587.9V-81587.8C179322 -81587.8 177887 -80680.4 176747 -78865.6ZM181051 -81587.9C182768 -81587.9 184196 -80671.5 185336 -78838.7C184196 -80671.4 182768 -81587.8 181051 -81587.8V-81587.9ZM185336 -78838.7C186476 -77005.9 187046 -74211.8 187046 -70456.4C187046 -74211.8 186476 -77005.9 185336 -78838.7ZM187046 -70456.4C187046 -66916.6 186469 -64239.3 185317 -62424.5V-62424.5C186469 -64239.3 187046 -66916.6 187046 -70456.4ZM185317 -62424.5C184177 -60591.7 182755 -59675.4 181051 -59675.4V-59675.4C182755 -59675.4 184177 -60591.8 185317 -62424.5V-62424.5ZM181051 -59675.4C179322 -59675.4 177887 -60582.8 176747 -62397.6V-62397.6C177887 -60582.8 179322 -59675.4 181051 -59675.4V-59675.4ZM176747 -62397.6C175607 -64212.4 175037 -66952.6 175037 -70618.1C175037 -66952.6 175607 -64212.4 176747 -62397.6V-62397.6ZM211063 -62613.2H211063H211063ZM207393 -63098.3L207393 -63098.3L207393 -63098.3ZM194674 -84930V-56306.3V-84930ZM194674 -56306.3H197786V-56306.3H194674V-56306.3ZM197786 -56306.3V-60376.1V-56306.3ZM197786 -60376.1C199285 -57231.7 201450 -55659.4 204281 -55659.4C201450 -55659.4 199285 -57231.7 197786 -60376.1V-60376.1ZM204281 -55659.4C205510 -55659.4 206638 -55973.9 207662 -56602.8V-56602.8C206638 -55973.9 205510 -55659.4 204281 -55659.4ZM207662 -56602.8C208700 -57213.7 209475 -58022.3 209987 -59028.5C209475 -58022.3 208700 -57213.7 207662 -56602.8V-56602.8ZM209987 -59028.5C210499 -60034.7 210858 -61229.6 211063 -62613.2L211063 -62613.2C210858 -61229.6 210499 -60034.7 209987 -59028.5ZM211063 -62613.2C211191 -63511.6 211255 -65083.8 211255 -67329.9C211255 -65083.8 211191 -63511.6 211063 -62613.2L211063 -62613.2ZM211255 -67329.9V-84930V-67329.9ZM211255 -84930H207797H211255ZM207797 -84930V-67518.6V-84930ZM207797 -67518.6C207797 -65542 207662 -64068.6 207393 -63098.3L207393 -63098.3C207662 -64068.6 207797 -65542 207797 -67518.6ZM207393 -63098.3C207124 -62110.1 206644 -61328.4 205952 -60753.5C206644 -61328.5 207124 -62110.1 207393 -63098.3L207393 -63098.3ZM205952 -60753.5C205273 -60160.5 204473 -59864 203551 -59864V-59864C204473 -59864 205273 -60160.5 205952 -60753.5ZM203551 -59864C202077 -59864 200803 -60519.9 199727 -61831.6V-61831.6C200803 -60519.9 202077 -59864 203551 -59864V-59864ZM199727 -61831.6C198664 -63143.3 198132 -65631.9 198132 -69297.4C198132 -65631.9 198664 -63143.3 199727 -61831.6V-61831.6ZM198132 -69297.4V-84930V-69297.4ZM198132 -84930H194674H198132ZM217557 -84930V-79404.7H217557V-84930H217557ZM217557 -79404.7H221496H217557ZM221496 -79404.7V-84930V-79404.7ZM221496 -84930H217557H221496ZM240844 -74445.4L240844 -74445.2L240844 -74445.4ZM244245 -75065.3L244245 -75065.3L244245 -75065.3V-75065.3ZM241209 -58031.2V-58031.3V-58031.2ZM243919 -64715.5V-64715.4L243919 -64715.5H243919ZM240556 -65443.2L240556 -65443.2L240556 -65443.2ZM238846 -61103.8V-61103.8V-61103.8ZM240844 -74445.4L244245 -75065.3V-75065.3L240844 -74445.4V-74445.4ZM244245 -75065.3C243874 -78353.5 242919 -80932 241382 -82800.7C242919 -80932 243874 -78353.5 244245 -75065.3ZM241382 -82800.7C239858 -84651.5 237982 -85576.8 235753 -85576.8C237982 -85576.8 239858 -84651.5 241382 -82800.7ZM235753 -85576.8C232960 -85576.8 230712 -84301.1 229009 -81749.6C230712 -84301.1 232960 -85576.8 235753 -85576.8ZM229009 -81749.6C227318 -79180.1 226473 -75505.5 226473 -70725.9C226473 -75505.5 227318 -79180.1 229009 -81749.6ZM226473 -70725.9C226473 -67635.4 226838 -64931.1 227568 -62613.2V-62613.2C226838 -64931.1 226473 -67635.4 226473 -70725.9ZM227568 -62613.2C228298 -60295.3 229406 -58561.3 230892 -57411.3V-57411.3C229406 -58561.3 228298 -60295.3 227568 -62613.2V-62613.2ZM230892 -57411.3C232390 -56243.4 234017 -55659.4 235772 -55659.4C234017 -55659.4 232390 -56243.4 230892 -57411.3V-57411.3ZM235772 -55659.4C237988 -55659.4 239800 -56450 241209 -58031.3V-58031.2C239800 -56450 237988 -55659.4 235772 -55659.4ZM241209 -58031.3C242618 -59594.5 243522 -61822.6 243919 -64715.5H243919C243522 -61822.6 242618 -59594.5 241209 -58031.2V-58031.3ZM243919 -64715.5L240556 -65443.2V-65443.2L243919 -64715.5V-64715.5ZM240556 -65443.2C240236 -63520.6 239666 -62074.1 238846 -61103.8V-61103.8C239666 -62074.1 240236 -63520.6 240556 -65443.2ZM238846 -61103.8C238039 -60133.5 237059 -59648.4 235906 -59648.4V-59648.4C237059 -59648.4 238039 -60133.6 238846 -61103.8V-61103.8ZM235906 -59648.4C234164 -59648.4 232749 -60528.9 231660 -62289.8C232749 -60528.9 234164 -59648.4 235906 -59648.4V-59648.4ZM231660 -62289.8C230571 -64032.7 230027 -66799.8 230027 -70591.2C230027 -66799.8 230571 -64032.7 231660 -62289.8ZM230027 -70591.2C230027 -74436.4 230552 -77230.5 231603 -78973.4V-78973.4C230552 -77230.5 230027 -74436.4 230027 -70591.2ZM231603 -78973.4C232653 -80716.4 234024 -81587.9 235714 -81587.9V-81587.8C234024 -81587.8 232653 -80716.4 231603 -78973.4V-78973.4ZM235714 -81587.9C237072 -81587.9 238206 -81003.9 239115 -79835.9C238206 -81003.9 237072 -81587.8 235714 -81587.8V-81587.9ZM239115 -79835.9C240025 -78668 240601 -76871.1 240844 -74445.4C240601 -76871.1 240025 -78668 239115 -79835.9ZM262364 -59540.6V-59540.6V-59540.6ZM245917 -70618.1C245917 -65317.4 246967 -61391.3 249068 -58839.8V-58839.8C246967 -61391.3 245917 -65317.4 245917 -70618.1ZM249068 -58839.8C250823 -56719.6 252962 -55659.4 255485 -55659.4C252962 -55659.4 250823 -56719.6 249068 -58839.8V-58839.8ZM255485 -55659.4C258290 -55659.4 260583 -56953.1 262364 -59540.6V-59540.6C260583 -56953.1 258290 -55659.4 255485 -55659.4ZM262364 -59540.6C264144 -62110.1 265035 -65667.8 265035 -70213.8C265035 -65667.8 264144 -62110.1 262364 -59540.6V-59540.6ZM265035 -70213.8C265035 -73897.4 264637 -76799.3 263843 -78919.5C264637 -76799.3 265035 -73897.4 265035 -70213.8ZM263843 -78919.5C263062 -81021.8 261915 -82657 260404 -83824.9H260404C261915 -82657 263062 -81021.8 263843 -78919.5ZM260404 -83824.9C258905 -84992.9 257266 -85576.8 255485 -85576.8C257266 -85576.8 258905 -84992.9 260404 -83824.9H260404ZM255485 -85576.8C252629 -85576.8 250317 -84292.1 248549 -81722.6C250317 -84292.1 252629 -85576.8 255485 -85576.8ZM248549 -81722.6C246794 -79153.1 245917 -75451.6 245917 -70618.1C245917 -75451.6 246794 -79153.1 248549 -81722.6ZM249471 -70618.1C249471 -74283.7 250041 -77032.9 251181 -78865.6C250041 -77032.9 249471 -74283.7 249471 -70618.1ZM251181 -78865.6C252321 -80680.4 253756 -81587.9 255485 -81587.9V-81587.8C253756 -81587.8 252321 -80680.4 251181 -78865.6ZM255485 -81587.9C257202 -81587.9 258630 -80671.5 259770 -78838.7C258630 -80671.4 257202 -81587.8 255485 -81587.8V-81587.9ZM259770 -78838.7C260910 -77005.9 261480 -74211.8 261480 -70456.4C261480 -74211.8 260910 -77005.9 259770 -78838.7ZM261480 -70456.4C261480 -66916.6 260904 -64239.3 259751 -62424.5V-62424.5C260904 -64239.3 261480 -66916.6 261480 -70456.4ZM259751 -62424.5C258611 -60591.7 257189 -59675.4 255485 -59675.4V-59675.4C257189 -59675.4 258611 -60591.8 259751 -62424.5V-62424.5ZM255485 -59675.4C253756 -59675.4 252321 -60582.8 251181 -62397.6V-62397.6C252321 -60582.8 253756 -59675.4 255485 -59675.4V-59675.4ZM251181 -62397.6C250041 -64212.4 249471 -66952.6 249471 -70618.1C249471 -66952.6 250041 -64212.4 251181 -62397.6V-62397.6ZM272201 -60322.2V-60322.2V-60322.2ZM295123 -58031.2V-58031.3V-58031.2ZM269108 -84930V-56306.3V-84930ZM269108 -56306.3H272201V-56306.3H269108V-56306.3ZM272201 -56306.3V-60322.2V-56306.3ZM272201 -60322.2C272842 -58920.7 273694 -57797.7 274757 -56953.1C273694 -57797.7 272842 -58920.7 272201 -60322.2V-60322.2ZM274757 -56953.1C275820 -56090.7 277030 -55659.4 278388 -55659.4C277030 -55659.4 275820 -56090.7 274757 -56953.1ZM278388 -55659.4C279900 -55659.4 281136 -56099.6 282096 -56980.1C281136 -56099.6 279900 -55659.4 278388 -55659.4ZM282096 -56980.1C283070 -57860.5 283755 -59091.4 284152 -60672.6C283755 -59091.4 283070 -57860.5 282096 -56980.1ZM284152 -60672.6C285766 -57330.5 287867 -55659.4 290454 -55659.4C287867 -55659.4 285766 -57330.5 284152 -60672.6ZM290454 -55659.4C292478 -55659.4 294034 -56450 295123 -58031.3V-58031.2C294034 -56450 292478 -55659.4 290454 -55659.4ZM295123 -58031.3C296212 -59594.5 296756 -62011.3 296756 -65281.5H296756C296756 -62011.3 296212 -59594.5 295123 -58031.2V-58031.3ZM296756 -65281.5V-84930H296756V-65281.5H296756ZM296756 -84930H293317H296756ZM293317 -84930V-66898.7V-84930ZM293317 -66898.7C293317 -64958.1 293202 -63565.5 292971 -62721C293202 -63565.5 293317 -64958.1 293317 -66898.7ZM292971 -62721C292754 -61858.5 292350 -61166.7 291761 -60645.6V-60645.7C292350 -61166.7 292754 -61858.5 292971 -62721ZM291761 -60645.6C291172 -60124.6 290480 -59864 289686 -59864V-59864C290480 -59864 291172 -60124.6 291761 -60645.7V-60645.6ZM289686 -59864C288251 -59864 287060 -60537.8 286112 -61885.5V-61885.5C287060 -60537.8 288251 -59864 289686 -59864V-59864ZM286112 -61885.5C285164 -63215.1 284690 -65353.4 284690 -68300.2C284690 -65353.4 285164 -63215.1 286112 -61885.5V-61885.5ZM284690 -68300.2V-84930V-68300.2ZM284690 -84930H281232H284690ZM281232 -84930V-66332.7V-84930ZM281232 -66332.7C281232 -64176.4 280950 -62559.3 280386 -61481.2C280950 -62559.3 281232 -64176.4 281232 -66332.7ZM280386 -61481.2C279823 -60403.1 278900 -59864 277620 -59864V-59864C278900 -59864 279823 -60403.1 280386 -61481.2ZM277620 -59864C276646 -59864 275743 -60223.4 274910 -60942.1C275743 -60223.4 276646 -59864 277620 -59864V-59864ZM274910 -60942.1C274091 -61660.9 273495 -62712 273124 -64095.6C273495 -62712 274091 -61660.9 274910 -60942.1ZM273124 -64095.6C272752 -65479.2 272566 -67473.7 272566 -70079.1C272566 -67473.7 272752 -65479.2 273124 -64095.6ZM272566 -70079.1V-84930V-70079.1ZM272566 -84930H269108H272566Z" fill="#7F7FFF"/>
</g>
<defs>
<linearGradient id="paint0_linear" x1="65.9872" y1="90.1504" x2="65.9872" y2="118.142" gradientUnits="userSpaceOnUse">
<stop stop-color="#91C63D"/>
<stop offset="1" stop-color="#1F6328"/>
</linearGradient>
<linearGradient id="paint1_linear" x1="10.9646" y1="97.1574" x2="23.0392" y2="127.095" gradientUnits="userSpaceOnUse">
<stop stop-color="#8FC33B"/>
<stop offset="1" stop-color="#105C1F"/>
</linearGradient>
<clipPath id="clip0">
<rect width="106" height="43" fill="white" transform="translate(294 85)"/>
</clipPath>
</defs>
</svg>
