<svg width="540" height="90" viewBox="0 0 540 90" fill="none" xmlns="http://www.w3.org/2000/svg">
<circle cx="45" cy="45" r="44" stroke="#383838" stroke-width="2"/>
<path fill-rule="evenodd" clip-rule="evenodd" d="M40.2555 32.051C40.6218 32.9091 40.219 33.4319 40.4023 34.2153L40.3654 35.8947C36.776 35.111 33.2968 36.8276 31.2458 39.9999C29.4878 42.575 29.268 46.8297 31.026 49.4793C32.894 52.7263 36.4834 54.555 40.4388 54.219C40.5487 55.3387 40.3654 56.7565 40.4023 57.9137C35.6775 58.4737 30.9895 56.2716 28.2791 52.3528C25.459 48.4716 25.2757 42.6497 27.6199 38.5445C30.1102 34.1408 35.0183 31.6027 40.2555 32.051ZM52.2685 42.9857C52.8912 40.4479 54.6858 38.3208 56.8469 36.9023C58.6783 35.7827 61.0587 35.5214 63 35.671C62.9269 34.8125 62.9632 33.3196 62.9632 32.0882C57.8358 31.603 52.8549 33.8423 50.3278 38.0223C47.8737 41.7543 47.6171 47.427 49.9981 51.2713C52.5252 55.8989 57.7627 58.511 62.9269 57.8771V54.1448C61.0224 54.2568 58.7882 54.0703 57.103 52.9876C54.9424 51.7559 52.6351 49.2928 52.3784 46.5313L60.253 46.6433L60.18 43.023L52.2685 42.9857V42.9857Z" fill="#383838"/>
<circle cx="195" cy="45" r="44" stroke="#383838" stroke-width="2"/>
<path d="M189.085 54.117C186.648 50.4281 185.976 49.5605 183.993 47.5377C183.241 46.7708 181.419 45.093 179.945 43.8082C176.816 41.082 176 40.3318 176 40.1793C176 39.913 177.921 38.2536 181.008 35.8521C183.408 33.9853 183.903 33.6707 184.444 33.6707H184.879L185.41 34.8869C186.611 37.6396 188.336 41.3961 188.611 41.853C188.956 42.4293 189.33 42.6087 189.695 42.3739C189.996 42.1808 191.192 39.8815 192.44 37.0953C193.529 34.6623 195.839 30.117 197.258 27.6154C199.026 24.4999 201.42 20.8283 202.694 19.2842C204.432 17.1765 208.209 13.8003 208.471 14.0528C208.509 14.09 207.591 14.6297 207.784 14.4544C210.361 12.1164 207.883 19.1795 208.875 26.9705C209.189 29.4385 208.84 29.5732 207.857 30.394C204.546 33.1594 203.156 34.6033 200.745 37.7819C196.447 43.4453 193.813 47.6068 191.354 52.6166C190.857 53.6301 190.359 54.584 190.249 54.7365C189.916 55.1945 189.732 55.0964 189.085 54.117V54.117Z" fill="#383838"/>
<path d="M172 61.5011V54.1858L174.754 54.2325C177.64 54.2827 178.033 54.3334 178.987 54.7898C180.108 55.326 180.841 56.3779 181.03 57.7189C181.32 59.783 180.377 61.3013 178.514 61.7642L178.031 61.8837L178.534 62.1202C179.507 62.577 179.777 62.9772 181.716 66.8317L182.715 68.8174H180.679L179.602 66.5605C179.009 65.3189 178.362 64.0752 178.164 63.7941C177.461 62.8005 176.792 62.5479 174.853 62.5439L173.984 62.5414V68.8174H172.001V61.5011H172ZM177.018 60.9649C177.832 60.8193 178.387 60.4763 178.722 59.9155C178.973 59.4923 178.997 59.3673 178.997 58.4715C178.997 57.607 178.966 57.4393 178.749 57.0542C178.424 56.4823 177.792 56.0159 177.161 55.8823C176.882 55.8236 176.054 55.7749 175.32 55.7749H173.985V61.0698H175.207C175.88 61.0698 176.694 61.0226 177.018 60.9649V60.9649ZM187.267 68.8304C186.524 68.5894 186.116 68.3299 185.57 67.753C184.689 66.8216 184.312 65.7211 184.233 63.8428C184.124 61.2345 184.724 59.4702 186.065 58.4595C187.346 57.4935 189.878 57.3569 191.306 58.1763C191.849 58.4876 192.569 59.2678 192.888 59.8899C193.472 61.0286 193.728 62.8085 193.542 64.4448C193.286 66.6941 192.371 68.115 190.781 68.729C189.976 69.0408 188.084 69.0955 187.267 68.8304V68.8304ZM190.161 67.3162C190.75 67.0169 191.201 66.4124 191.476 65.5499C191.778 64.6009 191.803 62.1407 191.519 61.2169C191.08 59.784 190.225 59.0916 188.895 59.0916C187.82 59.0916 187.16 59.4551 186.634 60.3368C185.897 61.5709 185.85 64.8254 186.55 66.1975C186.88 66.8452 187.535 67.3744 188.227 67.5541C188.712 67.6802 189.675 67.5617 190.161 67.3162V67.3162ZM196.414 61.5111V54.2059H198.299V60.1871H203.956V54.2054H205.841V68.8169H203.957L203.93 65.3114L203.904 61.8058H198.347L198.321 65.3114L198.295 68.8169H196.411V61.5116L196.414 61.5111ZM211.102 68.8666C210.747 68.7963 210.088 68.6186 209.638 68.4709L208.82 68.2028V66.2146L209.887 66.7272C212.521 67.993 215.153 67.7419 215.977 66.1478C216.414 65.3003 216.303 63.9939 215.738 63.3578C215.295 62.8587 214.672 62.5921 213.024 62.194C211.372 61.7948 210.331 61.3665 209.746 60.8444C208.232 59.4938 208.309 56.7539 209.903 55.2522C210.886 54.3254 211.806 54.004 213.484 54C214.561 53.9975 215.553 54.1582 216.635 54.5111L217.256 54.713V55.6443C217.256 56.157 217.222 56.5611 217.181 56.5436C217.14 56.5255 216.807 56.3658 216.442 56.1891C213.886 54.954 211.109 55.4249 210.612 57.1782C210.436 57.7978 210.524 58.711 210.803 59.1564C211.095 59.6233 212.12 60.0953 213.55 60.4216C216.034 60.9875 217.083 61.6316 217.722 62.9832C217.982 63.533 218 63.656 218 64.8464C218 66.0846 217.99 66.1403 217.679 66.7694C217.139 67.8609 216.135 68.5904 214.788 68.8731C213.973 69.0423 211.974 69.0403 211.102 68.8666V68.8666Z" fill="#383838"/>
<rect x="306" y="6" width="78" height="78" stroke="#383838" stroke-width="2"/>
<path fill-rule="evenodd" clip-rule="evenodd" d="M341.903 45.4139C341.903 51.6975 347.129 56.7871 353.572 56.7871C357.352 56.7871 360.711 55.0365 362.844 52.3239L367.952 52.2867C365.355 57.4705 359.892 61 353.572 61C345.465 61 338.768 55.1172 337.725 47.4938H327.77C327.77 47.4938 327.536 47.3391 327.536 47.7272V60.903C327.536 60.903 328.011 60.9826 327.299 60.9826H322.791C322.791 60.9826 322 60.7497 322 60.2107V33.6226C322 33.6226 322.326 32.1829 323.256 30.9227C324.015 29.8926 325.255 29 326.428 29H338.683L338.841 29.2312V34.3166C338.841 34.3166 339.157 34.5478 338.683 34.5478H328.324C328.324 34.5478 327.457 34.8566 327.457 35.627V43.214C327.457 43.214 327.375 43.3663 327.77 43.3663H337.722C338.75 35.7297 345.453 29.8296 353.572 29.8296C359.93 29.8296 365.422 33.4459 368 38.6828L362.986 38.6899C360.864 35.8714 357.438 34.0411 353.572 34.0411C347.129 34.0411 341.903 39.1339 341.903 45.4139ZM358.194 42.2481C357.191 40.8017 355.495 39.9841 353.572 39.9841C350.497 39.9841 348.002 42.4149 348.002 45.4133C348.002 48.4124 350.498 50.846 353.572 50.846C355.35 50.846 356.932 50.0352 357.954 48.77L362.73 48.73C361.351 52.3544 357.77 54.9325 353.572 54.9325C348.182 54.9325 343.807 50.6704 343.807 45.4137C343.807 40.1566 348.182 35.8952 353.572 35.8952C357.824 35.8952 361.44 38.5412 362.78 42.2326L358.194 42.2481Z" fill="#383838"/>
<circle cx="495" cy="45" r="44" stroke="#383838" stroke-width="2"/>
<path fill-rule="evenodd" clip-rule="evenodd" d="M513 65H497.744V35.2H505.035V58.9292H513V65ZM494.822 45.8823C494.822 51.3152 491.188 54.2735 485.986 54.2735H484.916C479.755 54.2735 476 51.6362 476 46.1194V24H483.291V46.499C483.291 48.0755 483.925 48.8637 485.193 48.8637H485.589C487.214 48.8637 487.531 47.3201 487.531 46.0259V24H494.822V45.8823ZM481.127 60.3532C481.127 62.6875 483.036 64.5867 485.382 64.5867C487.752 64.5867 489.636 62.6875 489.636 60.3532C489.636 58.0188 487.752 56.1205 485.382 56.1205C483.036 56.1209 481.127 58.0188 481.127 60.3532ZM481.93 60.3532C481.93 58.3579 483.485 56.7617 485.382 56.7617C487.29 56.7617 488.834 58.3579 488.834 60.3532C488.834 62.337 487.302 63.9447 485.382 63.9447C483.485 63.9451 481.93 62.337 481.93 60.3532ZM483.826 62.4335H484.616V60.6801H485.26C486.16 60.6801 486.184 61.079 486.196 61.4658C486.22 62.1677 486.208 62.2641 486.354 62.4335H487.168C486.998 62.2039 487.034 62.083 486.998 61.4296C486.973 61.0066 486.937 60.5229 486.39 60.4142V60.3894C487.022 60.1358 487.107 59.7124 487.107 59.4217C487.107 58.3217 486.159 58.2008 485.709 58.2008H483.825L483.826 62.4335ZM484.616 58.7809H485.442C485.953 58.7809 486.305 58.914 486.305 59.4217C486.305 59.7246 486.184 60.0995 485.528 60.0995H484.616V58.7809Z" fill="#383838"/>
</svg>
