<svg width="68" height="48" viewBox="0 0 68 48" fill="none" xmlns="http://www.w3.org/2000/svg">
<path d="M31.9225 42.5894C18.6429 43.9084 4.80175 41.8308 2.86309 30.6567C1.91471 25.1482 4.24851 19.307 7.34026 15.6764V13.7377C1.77076 18.9969 -1.2476 25.6515 0.490948 33.5125C2.71171 43.5951 14.5878 49.3048 32.7199 47.4088C39.897 46.6599 49.2831 44.1753 55.8129 40.3135V34.8315C49.8866 38.6334 40.0867 41.7739 31.9225 42.5894ZM66.9056 13.6067C63.7556 -2.95153 33.896 -4.00124 14.6479 8.61412V10.0075C33.8739 -0.634993 61.145 -0.57033 63.628 14.6828C64.4612 19.7285 61.8213 24.9852 57.1054 28.012V31.9698C62.7783 29.7293 68.5974 22.4828 66.9056 13.6067Z" fill="#959595"/>
<path d="M54.7391 11.1954H51.2573V27.8922C51.2573 29.849 52.1359 31.5506 54.7391 31.8225V11.1954ZM13.2807 17.2917H9.79254L9.79065 28.2003C9.79065 30.1639 10.672 31.8638 13.2807 32.1306V17.2917ZM9.79254 11.7033H13.2699V15.2569H9.79254V11.7033ZM34.1327 31.9578C31.3144 31.9578 30.1218 29.8487 30.1218 27.7713V13.2872H33.5733V17.2917H36.1727V20.2933H33.5733V27.5417C33.5733 28.3888 33.9469 28.8607 34.7672 28.8607H36.1727V31.9579L34.1327 31.9578ZM40.4839 25.7871C40.4839 27.6889 41.5884 29.0866 43.5427 29.0866C45.0741 29.0866 45.8288 28.629 46.7128 27.6889L48.8455 29.8764C47.4782 31.3309 46.0456 32.2152 43.5172 32.2152C40.2141 32.2152 37.0494 30.2742 37.0494 24.6154C37.0494 19.7777 39.8148 17.043 43.4406 17.043C47.1266 17.043 49.2448 20.2444 49.2448 24.4467V25.7874L40.4839 25.7871ZM43.2894 20.1166C42.108 20.1166 41.2003 20.7717 40.8155 21.6554C40.5915 22.1866 40.5093 22.6004 40.4837 23.2532H45.8031C45.7359 21.6554 45.0631 20.1166 43.2894 20.1166ZM22.6551 20.2933C23.6672 20.2933 24.0879 20.8321 24.0879 21.7065V31.9795H27.5403V21.6849C27.5403 19.5989 26.508 17.2956 23.4764 17.2956L16.3451 17.2917V31.9795H19.7987V20.2933H22.6551ZM58.4854 14.1788C57.7179 14.1788 57.1053 13.5124 57.1053 12.687C57.1053 11.8656 57.7179 11.1954 58.4854 11.1954C59.2491 11.1954 59.8762 11.8656 59.8762 12.687C59.8762 13.5124 59.249 14.1788 58.4854 14.1788ZM58.4854 11.4441C57.8528 11.4441 57.3441 12.007 57.3441 12.687C57.3441 13.371 57.8528 13.924 58.4854 13.924C59.1178 13.924 59.6429 13.371 59.6429 12.687C59.6428 12.007 59.1179 11.4441 58.4854 11.4441ZM59.0996 13.5811H58.8407C58.8296 13.581 58.8187 13.5774 58.8094 13.5708C58.8001 13.5642 58.7927 13.5549 58.7881 13.5439L58.4379 12.903C58.427 12.8893 58.3978 12.8737 58.3889 12.8737H58.2285V13.5125C58.2285 13.544 58.2083 13.5813 58.1702 13.5813H57.9367C57.9019 13.5813 57.8784 13.544 57.8784 13.5125V11.901C57.8784 11.8068 57.9076 11.768 57.9841 11.7562C58.068 11.7464 58.2868 11.7346 58.4092 11.7346C58.8411 11.7346 59.0947 11.8716 59.0947 12.3029V12.3344C59.0947 12.6008 58.9725 12.746 58.7829 12.8108L59.1475 13.4791C59.1535 13.494 59.1566 13.5101 59.1566 13.5264C59.1561 13.5517 59.1435 13.5811 59.0996 13.5811ZM58.7643 12.3029C58.7643 12.1229 58.6603 12.0659 58.4378 12.0659H58.2173V12.5771C58.252 12.5771 58.4088 12.585 58.4378 12.585C58.6603 12.585 58.7643 12.5051 58.7643 12.3344V12.3029Z" fill="#959595"/>
</svg>
