<svg width="109" height="24" viewBox="0 0 109 24" fill="none" xmlns="http://www.w3.org/2000/svg">
<path d="M106.639 21.3072V20.7957H106.926C107.08 20.7957 107.293 20.81 107.293 21.0278C107.293 21.264 107.186 21.3051 106.999 21.3051L106.639 21.3072ZM106.639 21.6626H106.829L107.272 22.5521H107.759L107.268 21.6276C107.522 21.6071 107.73 21.4695 107.73 21.0791C107.73 20.5923 107.436 20.4362 106.944 20.4362H106.228V22.5521H106.641L106.639 21.6626ZM108.718 21.4982C108.718 20.2533 107.876 19.5323 106.935 19.5323C105.988 19.5323 105.144 20.2533 105.144 21.4982C105.144 22.7411 105.988 23.4662 106.936 23.4662C107.874 23.4662 108.718 22.7411 108.718 21.4982ZM108.202 21.4982C108.202 22.4042 107.623 23.0143 106.935 23.0143V23.0081C106.228 23.0143 105.659 22.4042 105.659 21.4982C105.659 20.5923 106.228 19.9863 106.935 19.9863C107.623 19.9863 108.202 20.5923 108.202 21.4982ZM43.2775 0.4439L43.2793 22.7698H48.7797V0.4439H43.2775ZM0 0.413086V22.7698H5.5506V5.7953H9.85021C11.2733 5.7953 12.2877 6.19999 12.9759 7.04225C13.8451 8.10431 14.2 9.81758 14.2 12.9545V22.7698H19.5785V10.4174C19.5785 1.60046 14.6749 0.413086 9.87888 0.413086H0ZM52.1366 0.4439V22.7698H61.0584C65.8132 22.7698 67.3653 21.8639 69.0429 19.8322C70.2293 18.4065 70.9946 15.2737 70.9946 11.8554C70.9946 8.71649 70.3458 5.9165 69.2149 4.17242C67.1771 1.05197 64.2396 0.4439 59.8576 0.4439H52.1366ZM57.5922 5.30433H59.9579C63.3883 5.30433 65.6089 7.07306 65.6089 11.6541C65.6089 16.2393 63.3883 18.0059 59.9579 18.0059H57.5922V5.30433ZM35.3468 0.4439L30.7532 18.1395L26.355 0.4439H20.4155L26.6992 22.7698H34.6281L40.9619 0.4439H35.3468ZM73.554 22.7698H79.0579V0.4439H73.554V22.7698ZM88.9781 0.452117L81.2965 22.7657H86.7198L87.935 18.8194H97.0271L98.1777 22.7657H104.067L96.3263 0.452117H88.9781ZM92.5482 4.52165L95.8818 14.9759H89.1107L92.5482 4.52165Z" fill="#959595"/>
</svg>
