<svg width="93" height="27" viewBox="0 0 93 27" fill="none" xmlns="http://www.w3.org/2000/svg">
<path fill-rule="evenodd" clip-rule="evenodd" d="M4.26919 16.9607H13.6775V13.3779H4.26919V8.88587H14.5202V5.01185H0V25.973H14.7379V22.0973H4.26919V16.9607ZM24.6059 5.07382H15.8499V26.0356H20.1186V18.5202H24.6059C29.4454 18.5202 31.322 15.2023 31.322 11.7965C31.322 8.39063 29.446 5.07382 24.6059 5.07382ZM23.4359 14.938H20.1186V8.65543H23.4359C25.421 8.65543 27.1885 9.12588 27.1885 11.7965C27.1885 14.4693 25.421 14.938 23.4359 14.938ZM42.2859 13.8642C37.4187 12.5137 36.494 12.3075 36.494 10.6939C36.494 8.93206 38.071 8.31513 39.4309 8.31513C41.4697 8.31513 43.1281 8.9608 43.2643 11.4854H47.3984C47.3984 6.6418 43.6729 4.73408 39.6203 4.73408C36.1135 4.73408 32.3605 6.78885 32.3605 11.0736C32.3605 15.0079 35.2702 16.2119 38.1524 17.0339C41.0074 17.8559 43.9166 18.2379 43.9166 20.4989C43.9166 22.6404 41.6325 23.1114 40.1375 23.1114C37.8534 23.1114 35.8406 22.0252 35.8406 19.2357H31.7081C31.6539 24.4034 35.6783 26.6931 39.9741 26.6931C45.2499 26.6931 48.0507 23.8168 48.0507 19.9704C48.0507 15.2152 43.6995 14.2462 42.2859 13.8642ZM58.1963 4.64112C52.1868 4.64112 48.6513 9.4859 48.6513 15.7105C48.6513 21.757 52.1868 26.6023 58.1963 26.6023C64.2048 26.6023 67.7403 21.757 67.7403 15.7105C67.7403 9.4859 64.2048 4.64112 58.1963 4.64112ZM58.1963 22.7266C54.3618 22.7266 52.921 19.2019 52.921 15.7105C52.921 12.0404 54.3623 8.51683 58.1963 8.51683C62.0298 8.51683 63.4716 12.0398 63.4716 15.7105C63.4716 19.2025 62.0298 22.7266 58.1963 22.7266ZM85.2606 5.09467H81.2633V19.158H81.2101L73.1053 5.09467H68.8643V26.057H72.8606V12.0235H72.9159L80.9919 26.057H85.2606V5.09467ZM90.109 4.70535C89.5427 4.70476 88.9997 4.46162 88.5991 4.0293C88.1986 3.59698 87.9733 3.01078 87.9726 2.39931C87.9726 1.13445 88.9359 0.0932617 90.109 0.0932617C91.2821 0.0932617 92.2454 1.13445 92.2454 2.39931C92.2446 3.01073 92.0192 3.59685 91.6188 4.02914C91.2183 4.46143 90.6753 4.70461 90.109 4.70535ZM91.9271 2.39874C91.9257 1.8787 91.7337 1.38041 91.393 1.01279C91.0523 0.645167 90.5907 0.438132 90.109 0.436943C89.6275 0.43843 89.1662 0.645599 88.8257 1.01319C88.4852 1.38077 88.2933 1.8789 88.292 2.39874C88.2929 2.91888 88.4846 3.41744 88.8251 3.78539C89.1656 4.15335 89.6273 4.36075 90.109 4.36223C90.5909 4.36089 91.0527 4.15358 91.3934 3.78563C91.7341 3.41767 91.926 2.91903 91.9271 2.39874ZM91.0008 3.55768H90.5463L90.1915 2.57566H89.7093V3.55768H89.2996V1.12374H90.0547C90.4816 1.12374 90.9721 1.20206 90.9721 1.90801C90.9721 2.34071 90.7274 2.42973 90.5818 2.50748L91.0008 3.55768L90.2009 2.18409C90.3913 2.18409 90.5463 2.08549 90.5463 1.86857C90.5463 1.65391 90.4086 1.54518 90.1643 1.54518H89.7098V2.18409H90.2009L91.0008 3.55768Z" fill="#959595"/>
</svg>
