<svg width="106" height="24" viewBox="0 0 106 24" fill="none" xmlns="http://www.w3.org/2000/svg">
<path fill-rule="evenodd" clip-rule="evenodd" d="M10.1772 23.6824C13.6956 23.866 17.3407 21.5796 18.9095 19.2707C20.5205 17.0067 20.8591 15.5214 21.1347 12.6412C21.3251 11.2008 21.0073 9.6923 20.605 8.32057C20.0325 6.44623 18.9095 4.8235 17.574 3.54294C15.3488 1.44007 11.8096 0.365549 8.65128 0.982429C6.42553 1.48566 4.68775 2.49151 3.33145 3.79395C2.37803 4.7998 1.74243 5.82874 1.16993 6.85708C0.852124 7.61192 0.640255 8.29748 0.385561 9.07481C-0.547002 12.5038 0.301039 16.413 1.97514 18.9273C3.58614 21.3729 6.32015 23.088 8.94823 23.5226C9.43565 23.6599 9.75345 23.6824 10.1772 23.6824ZM27.2603 23.4539V4.82289H31.7326V23.4539H36.4377V4.82289H37.1584C39.4895 4.7998 40.9309 6.28578 40.9518 8.34306V23.4533H45.3604V7.9547C45.2122 3.36 41.5665 0.730812 38.3028 0.708325H22.6183V23.4539H27.2603ZM52.4389 23.4995V14.1496L52.4175 4.7998H57.1434C59.03 4.7998 59.4114 4.86847 60.366 5.85123C61.1289 6.69663 61.1706 7.90851 60.6618 9.28023C60.366 10.263 59.1782 11.2688 57.335 11.2919H53.6262L61.8068 23.4533H66.9367L60.9807 14.2864C61.4045 14.2864 62.3376 13.9667 62.9101 13.4179C63.8421 12.595 64.5633 11.4974 64.9657 10.012C65.4311 8.13764 65.2198 5.39419 63.9683 3.51923C62.0192 0.730205 58.6271 0.707718 57.823 0.707718H47.9243V23.4989H52.4389V23.4995ZM89.1475 23.477H93.3866L93.3646 4.89157H97.1799C99.426 4.84599 101.164 6.30888 101.164 8.34367L101.186 23.477H105.424V7.90912C105.424 3.36001 101.736 0.868167 98.3869 0.868167H89.1469V23.477H89.1475ZM9.81712 18.8823C10.9407 19.0197 11.5763 19.0197 12.2756 18.7218C13.886 18.0363 15.0519 17.1216 15.9213 15.6587C16.0695 15.4302 16.451 14.7896 16.5569 14.1958C16.9176 12.5956 16.8747 11.4524 16.451 10.0126C16.3237 9.66981 16.2177 9.37201 16.0695 9.07542C15.2215 7.47518 14.0139 6.44623 12.4875 5.85244C10.3045 5.14318 7.88832 5.82935 6.40468 7.20107C4.83651 8.64147 4.05214 10.8817 4.34909 13.1219C4.47644 13.9448 4.81566 14.8589 5.13346 15.5676C6.51061 18.0363 8.22754 18.6538 9.81712 18.8823ZM76.9819 5.3717C73.5909 5.3717 70.7938 8.38925 70.7938 12.0699C70.7938 15.7736 73.5915 18.768 76.9819 18.768C80.3938 18.768 83.1701 15.7736 83.1701 12.0699C83.1707 8.38925 80.3938 5.3717 76.9819 5.3717ZM76.9819 0.639648C71.1324 0.639648 66.3417 5.76006 66.3417 12.093C66.3417 18.4022 71.1324 23.5457 76.9819 23.5457C82.8106 23.5457 87.5793 18.4022 87.5793 12.093C87.5793 5.76006 82.8106 0.639648 76.9819 0.639648Z" fill="#959595"/>
</svg>
