<svg width="120" height="120" viewBox="0 0 120 120" fill="none" xmlns="http://www.w3.org/2000/svg">
<path d="M32.0438 59V36.6H38.3798V59H32.0438Z" fill="#00ADFF"/>
<path d="M53.2555 41.368C54.5995 41.368 55.8155 41.6453 56.9035 42.2C57.9915 42.7333 58.8448 43.5653 59.4635 44.696C60.1035 45.8267 60.4235 47.288 60.4235 49.08V59H54.3435V50.072C54.3435 48.8347 54.0875 47.9387 53.5755 47.384C53.0848 46.808 52.3915 46.52 51.4955 46.52C50.8555 46.52 50.2688 46.6693 49.7355 46.968C49.2022 47.2453 48.7862 47.6827 48.4875 48.28C48.1888 48.8773 48.0395 49.656 48.0395 50.616V59H41.9595V41.656H47.7515V46.584L46.6315 45.144C47.2928 43.8853 48.1995 42.9467 49.3515 42.328C50.5035 41.688 51.8048 41.368 53.2555 41.368Z" fill="#00ADFF"/>
<path d="M72.6835 59.288C70.7635 59.288 69.0462 58.904 67.5315 58.136C66.0382 57.368 64.8648 56.312 64.0115 54.968C63.1582 53.6027 62.7315 52.0453 62.7315 50.296C62.7315 48.5467 63.1582 47 64.0115 45.656C64.8648 44.312 66.0382 43.2667 67.5315 42.52C69.0462 41.752 70.7635 41.368 72.6835 41.368C74.6462 41.368 76.3422 41.784 77.7715 42.616C79.2008 43.448 80.2142 44.6213 80.8115 46.136L76.1075 48.536C75.7022 47.7253 75.2008 47.1387 74.6035 46.776C74.0062 46.392 73.3555 46.2 72.6515 46.2C71.9475 46.2 71.3075 46.36 70.7315 46.68C70.1555 47 69.6968 47.4693 69.3555 48.088C69.0355 48.6853 68.8755 49.4213 68.8755 50.296C68.8755 51.192 69.0355 51.9493 69.3555 52.568C69.6968 53.1867 70.1555 53.656 70.7315 53.976C71.3075 54.296 71.9475 54.456 72.6515 54.456C73.3555 54.456 74.0062 54.2747 74.6035 53.912C75.2008 53.528 75.7022 52.9307 76.1075 52.12L80.8115 54.52C80.2142 56.0347 79.2008 57.208 77.7715 58.04C76.3422 58.872 74.6462 59.288 72.6835 59.288Z" fill="#00ADFF"/>
<path d="M85.6458 59.288C84.6218 59.288 83.7578 58.9467 83.0538 58.264C82.3498 57.5813 81.9978 56.7173 81.9978 55.672C81.9978 54.584 82.3498 53.72 83.0538 53.08C83.7578 52.4187 84.6218 52.088 85.6458 52.088C86.6698 52.088 87.5338 52.4187 88.2378 53.08C88.9418 53.72 89.2938 54.584 89.2938 55.672C89.2938 56.7173 88.9418 57.5813 88.2378 58.264C87.5338 58.9467 86.6698 59.288 85.6458 59.288Z" fill="#00ADFF"/>
<path d="M27.3099 85.448C25.7739 85.448 24.2272 85.256 22.6699 84.872C21.1125 84.488 19.7685 83.944 18.6379 83.24L20.9099 78.472C21.8272 79.0693 22.8192 79.528 23.8859 79.848C24.9739 80.168 26.0512 80.328 27.1179 80.328C28.1845 80.328 29.0485 80.1253 29.7099 79.72C30.3712 79.2933 30.7019 78.7067 30.7019 77.96C30.7019 77.512 30.5739 77.1173 30.3179 76.776C30.0619 76.4133 29.6245 76.1467 29.0059 75.976C28.3872 75.784 27.5019 75.688 26.3499 75.688H20.2699L21.3899 62.6H35.6619V67.496H23.6299L26.8619 64.712L26.1259 73.544L22.8939 70.76H27.8539C30.0725 70.76 31.8539 71.08 33.1979 71.72C34.5419 72.3387 35.5232 73.1813 36.1419 74.248C36.7605 75.2933 37.0699 76.4773 37.0699 77.8C37.0699 79.1227 36.7179 80.3707 36.0139 81.544C35.3312 82.696 34.2752 83.6347 32.8459 84.36C31.4165 85.0853 29.5712 85.448 27.3099 85.448Z" fill="#00ADFF"/>
<path d="M48.1554 85.448C46.2354 85.448 44.5287 84.9893 43.0354 84.072C41.5634 83.1547 40.4007 81.832 39.5474 80.104C38.694 78.376 38.2674 76.2747 38.2674 73.8C38.2674 71.3253 38.694 69.224 39.5474 67.496C40.4007 65.768 41.5634 64.4453 43.0354 63.528C44.5287 62.6107 46.2354 62.152 48.1554 62.152C50.054 62.152 51.7394 62.6107 53.2114 63.528C54.7047 64.4453 55.878 65.768 56.7314 67.496C57.5847 69.224 58.0114 71.3253 58.0114 73.8C58.0114 76.2747 57.5847 78.376 56.7314 80.104C55.878 81.832 54.7047 83.1547 53.2114 84.072C51.7394 84.9893 50.054 85.448 48.1554 85.448ZM48.1554 80.264C48.838 80.264 49.4354 80.0507 49.9474 79.624C50.4807 79.1973 50.8967 78.5147 51.1954 77.576C51.494 76.616 51.6434 75.3573 51.6434 73.8C51.6434 72.2213 51.494 70.9627 51.1954 70.024C50.8967 69.0853 50.4807 68.4027 49.9474 67.976C49.4354 67.5493 48.838 67.336 48.1554 67.336C47.4727 67.336 46.8647 67.5493 46.3314 67.976C45.8194 68.4027 45.4034 69.0853 45.0834 70.024C44.7847 70.9627 44.6354 72.2213 44.6354 73.8C44.6354 75.3573 44.7847 76.616 45.0834 77.576C45.4034 78.5147 45.8194 79.1973 46.3314 79.624C46.8647 80.0507 47.4727 80.264 48.1554 80.264Z" fill="#00ADFF"/>
<path d="M69.4216 85.448C67.5016 85.448 65.795 84.9893 64.3016 84.072C62.8296 83.1547 61.667 81.832 60.8136 80.104C59.9603 78.376 59.5336 76.2747 59.5336 73.8C59.5336 71.3253 59.9603 69.224 60.8136 67.496C61.667 65.768 62.8296 64.4453 64.3016 63.528C65.795 62.6107 67.5016 62.152 69.4216 62.152C71.3203 62.152 73.0056 62.6107 74.4776 63.528C75.971 64.4453 77.1443 65.768 77.9976 67.496C78.851 69.224 79.2776 71.3253 79.2776 73.8C79.2776 76.2747 78.851 78.376 77.9976 80.104C77.1443 81.832 75.971 83.1547 74.4776 84.072C73.0056 84.9893 71.3203 85.448 69.4216 85.448ZM69.4216 80.264C70.1043 80.264 70.7016 80.0507 71.2136 79.624C71.747 79.1973 72.163 78.5147 72.4616 77.576C72.7603 76.616 72.9096 75.3573 72.9096 73.8C72.9096 72.2213 72.7603 70.9627 72.4616 70.024C72.163 69.0853 71.747 68.4027 71.2136 67.976C70.7016 67.5493 70.1043 67.336 69.4216 67.336C68.739 67.336 68.131 67.5493 67.5976 67.976C67.0856 68.4027 66.6696 69.0853 66.3496 70.024C66.051 70.9627 65.9016 72.2213 65.9016 73.8C65.9016 75.3573 66.051 76.616 66.3496 77.576C66.6696 78.5147 67.0856 79.1973 67.5976 79.624C68.131 80.0507 68.739 80.264 69.4216 80.264Z" fill="#00ADFF"/>
<path d="M90.6879 85.448C88.7679 85.448 87.0612 84.9893 85.5679 84.072C84.0959 83.1547 82.9332 81.832 82.0799 80.104C81.2266 78.376 80.7999 76.2747 80.7999 73.8C80.7999 71.3253 81.2266 69.224 82.0799 67.496C82.9332 65.768 84.0959 64.4453 85.5679 63.528C87.0612 62.6107 88.7679 62.152 90.6879 62.152C92.5865 62.152 94.2719 62.6107 95.7439 63.528C97.2372 64.4453 98.4106 65.768 99.2639 67.496C100.117 69.224 100.544 71.3253 100.544 73.8C100.544 76.2747 100.117 78.376 99.2639 80.104C98.4106 81.832 97.2372 83.1547 95.7439 84.072C94.2719 84.9893 92.5865 85.448 90.6879 85.448ZM90.6879 80.264C91.3705 80.264 91.9679 80.0507 92.4799 79.624C93.0132 79.1973 93.4292 78.5147 93.7279 77.576C94.0265 76.616 94.1759 75.3573 94.1759 73.8C94.1759 72.2213 94.0265 70.9627 93.7279 70.024C93.4292 69.0853 93.0132 68.4027 92.4799 67.976C91.9679 67.5493 91.3705 67.336 90.6879 67.336C90.0052 67.336 89.3972 67.5493 88.8639 67.976C88.3519 68.4027 87.9359 69.0853 87.6159 70.024C87.3172 70.9627 87.1679 72.2213 87.1679 73.8C87.1679 75.3573 87.3172 76.616 87.6159 77.576C87.9359 78.5147 88.3519 79.1973 88.8639 79.624C89.3972 80.0507 90.0052 80.264 90.6879 80.264Z" fill="#00ADFF"/>
</svg>
