<svg width="120" height="120" viewBox="0 0 120 120" fill="none" xmlns="http://www.w3.org/2000/svg">
<path d="M24.7214 76V45.2H31.8494V76H24.7214Z" fill="#00ADFF"/>
<path d="M48.3989 76.528C45.9349 76.528 43.5736 76.2053 41.3149 75.56C39.0563 74.8853 37.2376 74.02 35.8589 72.964L38.2789 67.596C39.5989 68.5347 41.1536 69.312 42.9429 69.928C44.7616 70.5147 46.5949 70.808 48.4429 70.808C49.8509 70.808 50.9803 70.676 51.8309 70.412C52.7109 70.1187 53.3563 69.7227 53.7669 69.224C54.1776 68.7253 54.3829 68.1533 54.3829 67.508C54.3829 66.6867 54.0603 66.0413 53.4149 65.572C52.7696 65.0733 51.9189 64.6773 50.8629 64.384C49.8069 64.0613 48.6336 63.768 47.3429 63.504C46.0816 63.2107 44.8056 62.8587 43.5149 62.448C42.2536 62.0373 41.0949 61.5093 40.0389 60.864C38.9829 60.2187 38.1176 59.368 37.4429 58.312C36.7976 57.256 36.4749 55.9067 36.4749 54.264C36.4749 52.504 36.9443 50.9053 37.8829 49.468C38.8509 48.0013 40.2883 46.8427 42.1949 45.992C44.1309 45.112 46.5509 44.672 49.4549 44.672C51.3909 44.672 53.2976 44.9067 55.1749 45.376C57.0523 45.816 58.7096 46.4907 60.1469 47.4L57.9469 52.812C56.5096 51.9907 55.0723 51.3893 53.6349 51.008C52.1976 50.5973 50.7896 50.392 49.4109 50.392C48.0323 50.392 46.9029 50.5533 46.0229 50.876C45.1429 51.1987 44.5123 51.624 44.1309 52.152C43.7496 52.6507 43.5589 53.2373 43.5589 53.912C43.5589 54.704 43.8816 55.3493 44.5269 55.848C45.1723 56.3173 46.0229 56.6987 47.0789 56.992C48.1349 57.2853 49.2936 57.5787 50.5549 57.872C51.8456 58.1653 53.1216 58.5027 54.3829 58.884C55.6736 59.2653 56.8469 59.7787 57.9029 60.424C58.9589 61.0693 59.8096 61.92 60.4549 62.976C61.1296 64.032 61.4669 65.3667 61.4669 66.98C61.4669 68.7107 60.9829 70.2947 60.0149 71.732C59.0469 73.1693 57.5949 74.328 55.6589 75.208C53.7523 76.088 51.3323 76.528 48.3989 76.528Z" fill="#00ADFF"/>
<path d="M80.4175 76.528C77.9829 76.528 75.7242 76.132 73.6415 75.34C71.5882 74.548 69.7989 73.4333 68.2735 71.996C66.7775 70.5587 65.6042 68.872 64.7535 66.936C63.9322 65 63.5215 62.888 63.5215 60.6C63.5215 58.312 63.9322 56.2 64.7535 54.264C65.6042 52.328 66.7922 50.6413 68.3175 49.204C69.8429 47.7667 71.6322 46.652 73.6855 45.86C75.7389 45.068 77.9682 44.672 80.3735 44.672C82.8082 44.672 85.0375 45.068 87.0615 45.86C89.1149 46.652 90.8895 47.7667 92.3855 49.204C93.9109 50.6413 95.0989 52.328 95.9495 54.264C96.8002 56.1707 97.2255 58.2827 97.2255 60.6C97.2255 62.888 96.8002 65.0147 95.9495 66.98C95.0989 68.916 93.9109 70.6027 92.3855 72.04C90.8895 73.448 89.1149 74.548 87.0615 75.34C85.0375 76.132 82.8229 76.528 80.4175 76.528ZM80.3735 70.456C81.7522 70.456 83.0135 70.2213 84.1575 69.752C85.3309 69.2827 86.3575 68.608 87.2375 67.728C88.1175 66.848 88.7922 65.8067 89.2615 64.604C89.7602 63.4013 90.0095 62.0667 90.0095 60.6C90.0095 59.1333 89.7602 57.7987 89.2615 56.596C88.7922 55.3933 88.1175 54.352 87.2375 53.472C86.3869 52.592 85.3749 51.9173 84.2015 51.448C83.0282 50.9787 81.7522 50.744 80.3735 50.744C78.9949 50.744 77.7189 50.9787 76.5455 51.448C75.4015 51.9173 74.3895 52.592 73.5095 53.472C72.6295 54.352 71.9402 55.3933 71.4415 56.596C70.9722 57.7987 70.7375 59.1333 70.7375 60.6C70.7375 62.0373 70.9722 63.372 71.4415 64.604C71.9402 65.8067 72.6149 66.848 73.4655 67.728C74.3455 68.608 75.3722 69.2827 76.5455 69.752C77.7189 70.2213 78.9949 70.456 80.3735 70.456Z" fill="#00ADFF"/>
</svg>
