<svg width="114" height="50" viewBox="0 0 114 50" fill="none" xmlns="http://www.w3.org/2000/svg">
<path d="M6.13856 47.6261V49.9143H4.41406V43.6263H6.50529C8.23997 43.6263 9.10731 44.2456 9.10731 45.4843C9.10731 46.2126 8.7464 46.776 8.02459 47.1745L9.88442 49.9143H7.92854L6.57514 47.6261H6.13856ZM6.13856 46.3488H6.46163C7.06411 46.3488 7.36535 46.0864 7.36535 45.5617C7.36535 45.1287 7.06993 44.9122 6.47909 44.9122H6.13856V46.3488Z" fill="#F05A28"/>
<path d="M24.9316 46.7617C24.9316 47.8197 24.6682 48.624 24.1414 49.1745C23.6146 49.725 22.8433 50.0003 21.8275 50.0003C20.8263 50.0003 20.0579 49.7236 19.5224 49.1702C18.9898 48.6168 18.7234 47.8111 18.7234 46.7531C18.7234 45.7065 18.9883 44.9079 19.518 44.3574C20.0506 43.804 20.8234 43.5273 21.8363 43.5273C22.852 43.5273 23.6219 43.8012 24.1458 44.3488C24.6697 44.8965 24.9316 45.7008 24.9316 46.7617ZM20.5396 46.7617C20.5396 47.9774 20.9689 48.5853 21.8275 48.5853C22.2641 48.5853 22.5872 48.4376 22.7967 48.1423C23.0092 47.8469 23.1154 47.3867 23.1154 46.7617C23.1154 46.1337 23.0078 45.6707 22.7924 45.3725C22.5799 45.0714 22.2612 44.9209 21.8363 44.9209C20.9718 44.9209 20.5396 45.5345 20.5396 46.7617Z" fill="#F05A28"/>
<path d="M34.5783 43.6263H36.8049C37.6722 43.6263 38.3154 43.7539 38.7346 44.0091C39.1566 44.2614 39.3676 44.6556 39.3676 45.1918C39.3676 45.5445 39.2759 45.8456 39.0926 46.095C38.9092 46.3445 38.6676 46.505 38.3678 46.5767V46.6197C38.7637 46.7229 39.0504 46.895 39.2279 47.1358C39.4054 47.3767 39.4942 47.6892 39.4942 48.0734C39.4942 48.644 39.2759 49.0942 38.8393 49.4239C38.4057 49.7508 37.8134 49.9143 37.0625 49.9143H34.5783V43.6263ZM36.3028 46.0391H36.8223C37.0697 46.0391 37.2604 45.9889 37.3943 45.8886C37.5311 45.7882 37.5994 45.6391 37.5994 45.4413C37.5994 45.0886 37.3288 44.9122 36.7874 44.9122H36.3028V46.0391ZM36.3028 47.2821V48.6025H36.9097C37.4481 48.6025 37.7173 48.3788 37.7173 47.9315C37.7173 47.7222 37.6446 47.5616 37.499 47.4498C37.3564 47.338 37.1483 47.2821 36.8747 47.2821H36.3028Z" fill="#F05A28"/>
<path d="M55.0697 46.7617C55.0697 47.8197 54.8063 48.624 54.2795 49.1745C53.7526 49.725 52.9814 50.0003 51.9656 50.0003C50.9644 50.0003 50.196 49.7236 49.6604 49.1702C49.1278 48.6168 48.8615 47.8111 48.8615 46.7531C48.8615 45.7065 49.1263 44.9079 49.6561 44.3574C50.1887 43.804 50.9614 43.5273 51.9743 43.5273C52.9901 43.5273 53.7599 43.8012 54.2838 44.3488C54.8077 44.8965 55.0697 45.7008 55.0697 46.7617ZM50.6777 46.7617C50.6777 47.9774 51.107 48.5853 51.9656 48.5853C52.4022 48.5853 52.7252 48.4376 52.9348 48.1423C53.1473 47.8469 53.2535 47.3867 53.2535 46.7617C53.2535 46.1337 53.1458 45.6707 52.9304 45.3725C52.718 45.0714 52.3992 44.9209 51.9743 44.9209C51.1099 44.9209 50.6777 45.5345 50.6777 46.7617Z" fill="#F05A28"/>
<path d="M67.5323 49.9143H65.8078V45.0155H64.2492V43.6263H69.0865V45.0155H67.5323V49.9143Z" fill="#F05A28"/>
<path d="M78.4931 49.9143V43.6263H80.2263V49.9143H78.4931Z" fill="#F05A28"/>
<path d="M92.9465 44.9295C92.5362 44.9295 92.216 45.0958 91.9861 45.4284C91.7561 45.7581 91.6412 46.214 91.6412 46.7961C91.6412 48.0061 92.1083 48.6111 93.0426 48.6111C93.3249 48.6111 93.5985 48.5724 93.8634 48.4949C94.1282 48.4175 94.3945 48.3243 94.6623 48.2154V49.6519C94.1297 49.8841 93.5272 50.0003 92.8549 50.0003C91.8915 50.0003 91.1522 49.725 90.637 49.1745C90.1248 48.624 89.8687 47.8283 89.8687 46.7875C89.8687 46.1366 89.9924 45.5646 90.2397 45.0714C90.4901 44.5782 90.8481 44.1997 91.3137 43.9359C91.7823 43.6693 92.3324 43.5359 92.964 43.5359C93.6538 43.5359 94.313 43.6836 94.9417 43.9789L94.4135 45.3165C94.1777 45.2076 93.942 45.1158 93.7062 45.0413C93.4705 44.9667 93.2172 44.9295 92.9465 44.9295Z" fill="#F05A28"/>
<path d="M108.579 48.0046C108.579 48.3946 108.478 48.7415 108.278 49.0455C108.077 49.3465 107.787 49.5816 107.409 49.7508C107.03 49.9171 106.587 50.0003 106.077 50.0003C105.652 50.0003 105.296 49.9716 105.008 49.9143C104.719 49.854 104.42 49.7508 104.108 49.6046V48.0907C104.437 48.257 104.779 48.3874 105.134 48.482C105.489 48.5738 105.815 48.6197 106.112 48.6197C106.368 48.6197 106.556 48.5767 106.675 48.4906C106.795 48.4018 106.854 48.2885 106.854 48.1509C106.854 48.0648 106.83 47.9903 106.78 47.9272C106.733 47.8613 106.656 47.7953 106.549 47.7294C106.444 47.6634 106.162 47.5287 105.702 47.3251C105.285 47.1387 104.973 46.9581 104.763 46.7832C104.556 46.6083 104.402 46.4075 104.3 46.181C104.201 45.9545 104.152 45.6864 104.152 45.3768C104.152 44.7976 104.366 44.346 104.794 44.022C105.221 43.6979 105.809 43.5359 106.557 43.5359C107.218 43.5359 107.892 43.6865 108.579 43.9875L108.051 45.2993C107.454 45.0298 106.939 44.895 106.505 44.895C106.281 44.895 106.118 44.9338 106.016 45.0112C105.914 45.0886 105.863 45.1846 105.863 45.2993C105.863 45.4226 105.927 45.533 106.055 45.6305C106.186 45.728 106.538 45.9058 107.112 46.1638C107.662 46.4075 108.043 46.6699 108.256 46.9509C108.471 47.229 108.579 47.5803 108.579 48.0046Z" fill="#F05A28"/>
<path d="M83.4519 0H73.7656L93.8833 34.4993L114.001 0H104.315L93.8833 17.6167L83.4519 0Z" fill="black"/>
<path fill-rule="evenodd" clip-rule="evenodd" d="M6.70588 0H40.9804L43.9608 6.60626L35.7647 21.2868H29.8039L32.0392 26.425L27.5686 34.4993L15.6471 15.4146L4.47059 34.4993L0 25.691L11.1765 6.60626L6.70588 0ZM15.6484 15.4146L19.0014 8.80833H31.668L28.6877 15.4146H15.6484Z" fill="black"/>
<path d="M64.8235 0H48.4313L51.4117 6.60626L35.0195 34.4993H84.9411L80.4705 26.425H49.1764L52.1568 20.5528H76.745L73.7646 14.6806H56.6274L59.6078 8.07432H69.294L64.8235 0Z" fill="black"/>
</svg>
