<svg width="155" height="40" viewBox="0 0 155 40" fill="none" xmlns="http://www.w3.org/2000/svg">
<path d="M32.4996 37.4042C19.0924 44.7099 0 35.8208 0 20.4316H5.22912C5.22912 36.1541 22.8622 41.5431 32.4996 37.4042Z" fill="#E60412"/>
<path d="M21.9503 15.6537H0.425781C0.425781 15.6537 0.912211 13.0426 2.06748 11.5703H23.9568C27.3011 11.5703 31.2533 14.3759 31.2533 17.9037C31.2533 21.4316 27.3314 23.4316 26.2978 23.5428C27.757 24.8762 35.0941 30.4874 38.5802 33.1263H30.25L13.7114 20.4594H21.9503C26.5714 20.4594 26.3282 15.6537 21.9503 15.6537Z" fill="#E60412"/>
<path d="M15.8095 2.79258L15.9919 0.820312C14.259 0.820312 8.78671 3.07036 5.41211 6.76489C10.5501 3.20926 13.7929 2.90369 15.8095 2.79258Z" fill="#2E282A"/>
<path d="M22.8942 2.51433C22.7827 2.01432 22.4991 0.814296 22.2559 0.0142776C22.2559 0.0142776 24.3536 -0.152393 27.6369 0.653181C30.9203 1.45876 32.714 2.56989 32.714 2.56989C32.6228 2.64397 31.9053 3.18102 29.7651 4.7366C27.4302 3.04768 24.2116 2.55137 22.8942 2.51433Z" fill="#2E282A"/>
<path d="M42.9275 14.5418C42.2283 12.0974 41.4378 10.0695 37.6376 6.125L35.3574 9.51398C35.5499 9.70838 36.1114 10.3862 36.8167 11.5418C37.522 12.6974 37.8808 13.8937 37.9719 14.3474C38.0834 14.3382 39.2306 14.364 42.9275 14.5418Z" fill="#2E282A"/>
<path d="M43.7175 20.2646L38.7316 21.5147C38.7013 21.7925 38.5675 22.6424 38.2757 23.8203C37.9837 24.9981 37.5055 25.8851 37.3027 26.1814L40.9814 29.7093C41.3665 29.2093 42.2947 27.6814 42.9271 25.5702C43.5594 23.4591 43.7175 21.1535 43.7175 20.2646Z" fill="#2E282A"/>
<path d="M63.3011 21.4714L61.3424 18.8862H61.2263H59.1805V21.4714H56.8301V12.1914H61.2263C62.1259 12.1914 62.9046 12.3284 63.5623 12.6023C64.2298 12.8764 64.7424 13.2653 65.1003 13.769C65.4582 14.2727 65.6371 14.8694 65.6371 15.5587C65.6371 16.2481 65.4533 16.8447 65.0858 17.3484C64.7279 17.8433 64.2152 18.2234 63.5478 18.4886L65.8257 21.4714H63.3011ZM63.2576 15.5587C63.2576 15.0373 63.0738 14.6396 62.7063 14.3655C62.3387 14.0828 61.8019 13.9414 61.0958 13.9414H59.1805V17.1761H61.0958C61.8019 17.1761 62.3387 17.0347 62.7063 16.7519C63.0738 16.469 63.2576 16.0713 63.2576 15.5587Z" fill="#2E282A"/>
<path d="M75.3639 19.7479V21.4714H67.5V12.1914H75.1752V13.9149H69.836V15.9299H74.5514V17.6003H69.836V19.7479H75.3639Z" fill="#2E282A"/>
<path d="M86.8573 12.1914L82.461 21.4714H80.1396L75.7578 12.1914H78.2969L81.3874 18.8199L84.5214 12.1914H86.8573Z" fill="#2E282A"/>
<path d="M92.4945 21.6304C91.4402 21.6304 90.4874 21.4227 89.6362 21.0073C88.7946 20.592 88.1321 20.0218 87.6485 19.2971C87.1745 18.5636 86.9375 17.7417 86.9375 16.8313C86.9375 15.921 87.1745 15.1035 87.6485 14.3788C88.1321 13.6452 88.7946 13.0707 89.6362 12.6553C90.4874 12.24 91.4402 12.0322 92.4945 12.0322C93.5488 12.0322 94.4967 12.24 95.3383 12.6553C96.1798 13.0707 96.8424 13.6452 97.3263 14.3788C97.8098 15.1035 98.0511 15.921 98.0511 16.8313C98.0511 17.7417 97.8098 18.5636 97.3263 19.2971C96.8424 20.0218 96.1798 20.592 95.3383 21.0073C94.4967 21.4227 93.5488 21.6304 92.4945 21.6304ZM92.4945 19.8009C93.0942 19.8009 93.6359 19.6772 94.1196 19.4297C94.6032 19.1734 94.9804 18.8199 95.2513 18.3691C95.5317 17.9185 95.672 17.4058 95.672 16.8313C95.672 16.2569 95.5317 15.7442 95.2513 15.2935C94.9804 14.8427 94.6032 14.4937 94.1196 14.2462C93.6359 13.9899 93.0942 13.8617 92.4945 13.8617C91.8948 13.8617 91.3531 13.9899 90.8695 14.2462C90.3858 14.4937 90.0038 14.8427 89.7233 15.2935C89.4525 15.7442 89.3171 16.2569 89.3171 16.8313C89.3171 17.4058 89.4525 17.9185 89.7233 18.3691C90.0038 18.8199 90.3858 19.1734 90.8695 19.4297C91.3531 19.6772 91.8948 19.8009 92.4945 19.8009Z" fill="#2E282A"/>
<path d="M99.8203 12.1914H102.171V19.7214H107.264V21.4714H99.8203V12.1914Z" fill="#2E282A"/>
<path d="M112.962 21.6304C111.511 21.6304 110.38 21.2637 109.568 20.5302C108.764 19.7966 108.363 18.7493 108.363 17.3882V12.1914H110.714V17.3087C110.714 18.9702 111.468 19.801 112.976 19.801C113.712 19.801 114.273 19.6022 114.659 19.2044C115.047 18.7979 115.24 18.166 115.24 17.3087V12.1914H117.561V17.3882C117.561 18.7493 117.156 19.7966 116.342 20.5302C115.54 21.2637 114.413 21.6304 112.962 21.6304Z" fill="#2E282A"/>
<path d="M121.817 13.9414H118.566V12.1914H127.416V13.9414H124.167V21.4714H121.817V13.9414Z" fill="#2E282A"/>
<path d="M128.682 12.1914H131.033V21.4714H128.682V12.1914Z" fill="#2E282A"/>
<path d="M138.362 21.6304C137.307 21.6304 136.355 21.4227 135.503 21.0073C134.662 20.592 133.999 20.0218 133.516 19.2971C133.042 18.5636 132.805 17.7417 132.805 16.8313C132.805 15.921 133.042 15.1035 133.516 14.3788C133.999 13.6452 134.662 13.0707 135.503 12.6553C136.355 12.24 137.307 12.0322 138.362 12.0322C139.416 12.0322 140.364 12.24 141.205 12.6553C142.047 13.0707 142.709 13.6452 143.194 14.3788C143.677 15.1035 143.919 15.921 143.919 16.8313C143.919 17.7417 143.677 18.5636 143.194 19.2971C142.709 20.0218 142.047 20.592 141.205 21.0073C140.364 21.4227 139.416 21.6304 138.362 21.6304ZM138.362 19.8009C138.962 19.8009 139.503 19.6772 139.987 19.4297C140.471 19.1734 140.847 18.8199 141.119 18.3691C141.399 17.9185 141.539 17.4058 141.539 16.8313C141.539 16.2569 141.399 15.7442 141.119 15.2935C140.847 14.8427 140.471 14.4937 139.987 14.2462C139.503 13.9899 138.962 13.8617 138.362 13.8617C137.762 13.8617 137.22 13.9899 136.737 14.2462C136.253 14.4937 135.871 14.8427 135.591 15.2935C135.32 15.7442 135.184 16.2569 135.184 16.8313C135.184 17.4058 135.32 17.9185 135.591 18.3691C135.871 18.8199 136.253 19.1734 136.737 19.4297C137.22 19.6772 137.762 19.8009 138.362 19.8009Z" fill="#2E282A"/>
<path d="M155 12.1914V21.4714H153.07L148.007 15.8371V21.4714H145.686V12.1914H147.63L152.679 17.8257V12.1914H155Z" fill="#2E282A"/>
<path d="M63.3011 33.031L61.3424 30.4458H61.2263H59.1805V33.031H56.8301V23.751H61.2263C62.1259 23.751 62.9046 23.888 63.5623 24.1619C64.2298 24.436 64.7424 24.8248 65.1003 25.3286C65.4582 25.8323 65.6371 26.4289 65.6371 27.1183C65.6371 27.8077 65.4533 28.4042 65.0858 28.908C64.7279 29.4029 64.2152 29.783 63.5478 30.0481L65.8257 33.031H63.3011ZM63.2576 27.1183C63.2576 26.5968 63.0738 26.1992 62.7063 25.9251C62.3387 25.6424 61.8019 25.5009 61.0958 25.5009H59.1805V28.7357H61.0958C61.8019 28.7357 62.3387 28.5943 62.7063 28.3114C63.0738 28.0286 63.2576 27.6309 63.2576 27.1183Z" fill="#2E282A"/>
<path d="M72.4183 33.1899C71.364 33.1899 70.4112 32.9823 69.56 32.5669C68.7185 32.1515 68.0559 31.5814 67.5723 30.8567C67.0983 30.1232 66.8613 29.3012 66.8613 28.3909C66.8613 27.4806 67.0983 26.6631 67.5723 25.9384C68.0559 25.2048 68.7185 24.6303 69.56 24.2149C70.4112 23.7995 71.364 23.5918 72.4183 23.5918C73.4727 23.5918 74.4206 23.7995 75.2621 24.2149C76.1036 24.6303 76.7662 25.2048 77.2499 25.9384C77.7335 26.6631 77.9754 27.4806 77.9754 28.3909C77.9754 29.3012 77.7335 30.1232 77.2499 30.8567C76.7662 31.5814 76.1036 32.1515 75.2621 32.5669C74.4206 32.9823 73.4727 33.1899 72.4183 33.1899ZM72.4183 31.3605C73.0181 31.3605 73.5597 31.2368 74.0433 30.9893C74.527 30.733 74.9042 30.3794 75.1751 29.9287C75.4556 29.478 75.5958 28.9654 75.5958 28.3909C75.5958 27.8164 75.4556 27.3038 75.1751 26.853C74.9042 26.4024 74.527 26.0532 74.0433 25.8058C73.5597 25.5495 73.0181 25.4213 72.4183 25.4213C71.8187 25.4213 71.277 25.5495 70.7933 25.8058C70.3097 26.0532 69.9275 26.4024 69.6471 26.853C69.3762 27.3038 69.2408 27.8164 69.2408 28.3909C69.2408 28.9654 69.3762 29.478 69.6471 29.9287C69.9275 30.3794 70.3097 30.733 70.7933 30.9893C71.277 31.2368 71.8187 31.3605 72.4183 31.3605Z" fill="#2E282A"/>
<path d="M87.1998 28.2054C87.7802 28.3733 88.2348 28.6561 88.5636 29.0538C88.8926 29.4427 89.057 29.9244 89.057 30.4988C89.057 31.312 88.7088 31.9394 88.0123 32.3814C87.3256 32.8144 86.3196 33.031 84.9944 33.031H79.7422V23.751H84.7042C85.9424 23.751 86.8903 23.9675 87.548 24.4006C88.2155 24.8336 88.5492 25.4214 88.5492 26.1638C88.5492 26.6145 88.4282 27.0167 88.1865 27.3702C87.9543 27.7237 87.6255 28.0021 87.1998 28.2054ZM82.0782 25.3683V27.5558H84.4141C84.9944 27.5558 85.4345 27.463 85.7345 27.2774C86.0343 27.0918 86.1842 26.8178 86.1842 26.4554C86.1842 26.0931 86.0343 25.8235 85.7345 25.6467C85.4345 25.4611 84.9944 25.3683 84.4141 25.3683H82.0782ZM84.8204 31.4136C85.4394 31.4136 85.9037 31.3208 86.2132 31.1352C86.5324 30.9496 86.692 30.6624 86.692 30.2735C86.692 29.5046 86.0681 29.1201 84.8204 29.1201H82.0782V31.4136H84.8204Z" fill="#2E282A"/>
<path d="M95.7542 33.1899C94.6999 33.1899 93.7471 32.9823 92.8959 32.5669C92.0544 32.1515 91.3918 31.5814 90.9082 30.8567C90.4342 30.1232 90.1973 29.3012 90.1973 28.3909C90.1973 27.4806 90.4342 26.6631 90.9082 25.9384C91.3918 25.2048 92.0544 24.6303 92.8959 24.2149C93.7471 23.7995 94.6999 23.5918 95.7542 23.5918C96.8086 23.5918 97.7562 23.7995 98.5977 24.2149C99.4392 24.6303 100.102 25.2048 100.586 25.9384C101.07 26.6631 101.311 27.4806 101.311 28.3909C101.311 29.3012 101.07 30.1232 100.586 30.8567C100.102 31.5814 99.4392 32.1515 98.5977 32.5669C97.7562 32.9823 96.8086 33.1899 95.7542 33.1899ZM95.7542 31.3605C96.354 31.3605 96.8956 31.2368 97.3797 30.9893C97.8632 30.733 98.2397 30.3794 98.5111 29.9287C98.7913 29.478 98.9314 28.9654 98.9314 28.3909C98.9314 27.8164 98.7913 27.3038 98.5111 26.853C98.2397 26.4024 97.8632 26.0532 97.3797 25.8058C96.8956 25.5495 96.354 25.4213 95.7542 25.4213C95.1546 25.4213 94.6129 25.5495 94.1293 25.8058C93.6456 26.0532 93.2635 26.4024 92.983 26.853C92.7121 27.3038 92.5767 27.8164 92.5767 28.3909C92.5767 28.9654 92.7121 29.478 92.983 29.9287C93.2635 30.3794 93.6456 30.733 94.1293 30.9893C94.6129 31.2368 95.1546 31.3605 95.7542 31.3605Z" fill="#2E282A"/>
<path d="M105.041 25.5009H101.791V23.751H110.642V25.5009H107.392V33.031H105.041V25.5009Z" fill="#2E282A"/>
<path d="M111.906 23.751H114.257V33.031H111.906V23.751Z" fill="#2E282A"/>
<path d="M121.529 33.1899C120.494 33.1899 119.556 32.9867 118.714 32.5802C117.882 32.1648 117.224 31.5947 116.74 30.8699C116.267 30.1364 116.029 29.31 116.029 28.3909C116.029 27.4717 116.267 26.6498 116.74 25.925C117.224 25.1915 117.882 24.6215 118.714 24.2149C119.556 23.7995 120.499 23.5918 121.543 23.5918C122.424 23.5918 123.217 23.7332 123.923 24.0161C124.639 24.2989 125.238 24.7054 125.722 25.2357L124.213 26.5084C123.526 25.7837 122.675 25.4213 121.659 25.4213C121.031 25.4213 120.469 25.5495 119.976 25.8058C119.483 26.0532 119.096 26.4024 118.816 26.853C118.545 27.3038 118.409 27.8164 118.409 28.3909C118.409 28.9654 118.545 29.478 118.816 29.9287C119.096 30.3794 119.483 30.733 119.976 30.9893C120.469 31.2368 121.031 31.3605 121.659 31.3605C122.675 31.3605 123.526 30.9937 124.213 30.2602L125.722 31.5329C125.238 32.072 124.639 32.4829 123.923 32.7658C123.207 33.0486 122.409 33.1899 121.529 33.1899Z" fill="#2E282A"/>
<path d="M130.561 33.1899C129.758 33.1899 128.98 33.0928 128.225 32.8983C127.48 32.695 126.88 32.4343 126.426 32.1162L127.224 30.4987C127.659 30.7905 128.177 31.0246 128.776 31.2014C129.376 31.3782 129.976 31.4666 130.576 31.4666C131.243 31.4666 131.737 31.3782 132.056 31.2014C132.375 31.0158 132.534 30.7728 132.534 30.4722C132.534 30.2514 132.438 30.0701 132.244 29.9287C132.061 29.7785 131.818 29.6592 131.519 29.5708C131.229 29.4824 130.832 29.3852 130.329 29.2791C129.555 29.1112 128.921 28.9433 128.428 28.7754C127.935 28.6074 127.51 28.3378 127.152 27.9666C126.803 27.5954 126.629 27.1005 126.629 26.4818C126.629 25.9427 126.789 25.4567 127.108 25.0236C127.427 24.5817 127.906 24.2326 128.545 23.9762C129.193 23.72 129.981 23.5918 130.91 23.5918C131.558 23.5918 132.191 23.6626 132.81 23.804C133.429 23.9453 133.97 24.1486 134.435 24.4138L133.71 26.0444C132.772 25.5583 131.833 25.3153 130.895 25.3153C130.237 25.3153 129.748 25.4125 129.429 25.6069C129.12 25.8013 128.965 26.0577 128.965 26.3758C128.965 26.694 129.144 26.9326 129.502 27.0917C129.87 27.2419 130.425 27.3922 131.17 27.5425C131.944 27.7104 132.578 27.8783 133.071 28.0462C133.565 28.2141 133.985 28.4793 134.333 28.8417C134.691 29.204 134.87 29.6946 134.87 30.3132C134.87 30.8434 134.706 31.3296 134.377 31.7715C134.058 32.2045 133.574 32.5492 132.926 32.8055C132.278 33.0619 131.49 33.1899 130.561 33.1899Z" fill="#2E282A"/>
</svg>
