<svg xmlns="http://www.w3.org/2000/svg" xmlns:xlink="http://www.w3.org/1999/xlink" width="86.3" height="78.3" viewBox="0 0 86.3 78.3">
	<path d="M83.7,33.2c2.1,3.7,2.1,8.3,0,12L68.6,71.3c-2.1,3.7-6.1,6-10.4,6H28.1c-4.3,0-8.2-2.3-10.4-6L2.6,45.2
		c-2.1-3.7-2.1-8.3,0-12L17.7,7c2.1-3.7,6.1-6,10.4-6h30.1c4.3,0,8.2,2.3,10.4,6L83.7,33.2z" fill="none" stroke="#606060" stroke-width="2"/>
	<path d="M57.2,22.4c0.4,0.1,0.6,0.6,0.5,1l-8,15.7l8,15.7c0.2,0.4-0.1,1-0.5,1h-4.8c-0.2,0-0.5-0.1-0.5-0.4l-8.1-16.1
		c0-0.1-0.1-0.2-0.1-0.3c0,0.1-0.1,0.2-0.1,0.3l-8.1,16.1c-0.1,0.2-0.3,0.4-0.5,0.4h-4.8c-0.4,0-0.8-0.6-0.5-1l8-15.7l-8-15.7
		c-0.2-0.4,0.1-1,0.5-1h4.8c0.2,0,0.4,0.1,0.5,0.4l8.1,16c0,0.1,0.1,0.2,0.1,0.3c0-0.1,0.1-0.2,0.1-0.3l8.1-16
		c0.1-0.2,0.3-0.4,0.5-0.4H57.2z" fill="#606060"/>
</svg>
