<svg width="215" height="80" viewBox="0 0 215 80" fill="none" xmlns="http://www.w3.org/2000/svg">
<path fill-rule="evenodd" clip-rule="evenodd" d="M139.874 37.3895C138.081 37.3895 136.57 39.0127 136.57 41.0337C136.57 43.0169 138.08 44.6415 139.875 44.6415C141.688 44.6415 143.123 43.0169 143.123 41.0337C143.123 39.0127 141.688 37.3895 139.875 37.3895H139.874ZM139.874 46.1152C138.439 46.1152 137.193 45.3021 136.514 44.3003V45.8683H134.965V31.8173H136.57V37.616C137.268 36.6723 138.478 35.8978 139.875 35.8978C142.67 35.8978 144.729 38.2018 144.729 41.0155C144.729 43.8307 142.67 46.1159 139.875 46.1159L139.874 46.1152ZM150.555 37.4258C148.724 37.4258 147.289 39.0504 147.289 41.0337C147.289 42.9792 148.724 44.5835 150.555 44.5835C152.35 44.5835 153.86 42.9792 153.86 41.0337C153.86 39.0504 152.351 37.4258 150.556 37.4258H150.555ZM155.466 45.8683H153.917V44.3003C153.236 45.3021 151.99 46.1152 150.554 46.1152C147.76 46.1152 145.683 43.8285 145.683 41.0148C145.683 38.2004 147.76 35.897 150.554 35.897C151.99 35.897 153.236 36.7086 153.916 37.6901V36.1424H155.464V45.8698L155.466 45.8683Z" fill="white"/>
<mask id="mask0_693_2300" style="mask-type:alpha" maskUnits="userSpaceOnUse" x="38" y="31" width="138" height="20">
<path d="M38 50.1151H175.95V31.8167H38V50.1151Z" fill="white"/>
</mask>
<g mask="url(#mask0_693_2300)">
<path fill-rule="evenodd" clip-rule="evenodd" d="M162.008 37.3889C160.215 37.3889 158.704 39.0128 158.704 41.0331C158.704 43.0177 160.213 44.6409 162.008 44.6409C163.821 44.6409 165.256 43.0177 165.256 41.0331C165.256 39.0128 163.821 37.3889 162.008 37.3889ZM162.008 46.1145C160.573 46.1145 159.327 45.303 158.647 44.3019V45.8685H157.099V31.8167H158.704V37.6169C159.402 36.6732 160.611 35.8986 162.008 35.8986C164.803 35.8986 166.862 38.2034 166.862 41.0178C166.862 43.8315 164.803 46.1175 162.008 46.1175V46.1145ZM171.588 47.7392C170.909 49.5525 169.832 50.2886 167.887 50.081V48.6074C169.153 48.7017 169.682 48.3054 170.097 47.1729L170.606 45.8126L166.886 36.1432H168.624L171.456 43.8867L174.232 36.1432H175.95L171.588 47.7392" fill="white"/>
<path fill-rule="evenodd" clip-rule="evenodd" d="M46.6868 45.8692H44.1945V40.1852C44.1945 39.6175 44.0058 38.3341 42.3815 38.3341C41.2675 38.3341 40.4945 39.089 40.4945 40.1852V45.8692H37.9819V31.8167H40.4931V36.6514C41.1172 36.1795 41.872 35.8964 42.7212 35.8964C45.1017 35.8964 46.6868 37.6154 46.6868 40.1845V45.8685" fill="white"/>
</g>
<path fill-rule="evenodd" clip-rule="evenodd" d="M52.8108 38.239C51.4319 38.239 50.3185 39.4477 50.3185 41.0338C50.3185 42.5829 51.4319 43.7727 52.8108 43.7727C54.1898 43.7727 55.3031 42.5459 55.3031 41.0338C55.3031 39.4854 54.189 38.239 52.8108 38.239ZM57.7968 45.8685H55.4163V44.8304C54.6615 45.6239 53.6237 46.0768 52.4334 46.0768C49.9027 46.0768 47.8066 43.886 47.8066 41.015C47.8066 38.1258 49.9027 35.9335 52.4334 35.9335C53.6237 35.9335 54.6615 36.3879 55.4163 37.1806V36.1425H57.7968V45.8699V45.8685ZM64.3273 38.239C62.9483 38.239 61.835 39.4658 61.835 40.9772C61.835 42.5067 62.9491 43.7539 64.3273 43.7539C65.7063 43.7539 66.8203 42.5634 66.8203 40.9772C66.8203 39.4092 65.7055 38.2383 64.3273 38.2383V38.239ZM64.6858 46.0768C63.5718 46.0768 62.5717 45.6427 61.835 44.9248V50.195H59.3238V36.1411H61.7218V37.1625C62.4766 36.3879 63.5144 35.9153 64.6858 35.9153C67.2354 35.9153 69.3126 38.1054 69.3126 40.9765C69.3126 43.8657 67.2354 46.0761 64.6858 46.0761V46.0768ZM75.5898 38.239C74.2108 38.239 73.0975 39.4658 73.0975 40.9772C73.0975 42.5067 74.2115 43.7539 75.5898 43.7539C76.9687 43.7539 78.082 42.5634 78.082 40.9772C78.082 39.4092 76.9687 38.2383 75.5898 38.2383V38.239ZM75.949 46.0768C74.835 46.0768 73.8341 45.6427 73.0982 44.9248V50.195H70.587V36.1411H72.985V37.1625C73.7398 36.3879 74.7776 35.9153 75.9497 35.9153C78.4994 35.9153 80.5765 38.1054 80.5765 40.9765C80.5765 43.8657 78.4994 46.0761 75.9505 46.0761L75.949 46.0768ZM81.9032 45.8685H84.3955V36.1411H81.9025L81.9032 45.8685ZM93.1272 39.9377C92.826 38.8052 91.8818 38.0866 90.6915 38.0866C89.5593 38.0866 88.6521 38.8052 88.2936 39.9377H93.1272V39.9377ZM88.2559 41.9775C88.5766 43.168 89.5209 43.9049 90.6915 43.9049C91.5225 43.9049 92.3347 43.5463 92.7498 42.7724H95.4134C94.8458 44.7542 93.1272 46.0957 90.7104 46.0957C87.9728 46.0957 85.7258 43.8294 85.7258 41.0142C85.7258 38.2005 87.9728 35.8964 90.7104 35.8964C93.5808 35.8964 95.9599 38.125 95.6021 41.9783H88.2551L88.2559 41.9775ZM100.987 46.0957C98.5146 46.0957 96.6835 44.7927 96.3808 42.6962H98.9109C99.2498 43.5267 100.251 43.8286 100.987 43.8286C101.988 43.8286 102.743 43.5267 102.743 42.9604C102.743 42.4131 102.404 42.1859 100.703 41.9224C98.9675 41.6574 96.6443 41.1848 96.6443 39.0128C96.6443 37.4833 97.9848 35.8964 100.799 35.8964C103.027 35.8964 104.689 37.1051 105.01 38.9381H102.424C102.272 38.4844 101.725 38.125 100.799 38.125C99.6475 38.125 99.175 38.541 99.175 38.8996C99.175 39.4099 99.8935 39.5798 101.101 39.7685C103.518 40.1649 105.256 40.6941 105.256 42.8102C105.256 44.736 103.481 46.0957 100.989 46.0957H100.987ZM111.565 45.8503C108.713 46.1523 107.203 44.4348 107.203 41.7706V38.3515H106.033V36.1425H107.203V33.6686H109.696V36.1411H111.452V38.3523H109.696V41.7895C109.696 43.1499 110.318 43.6595 111.565 43.5847V45.8511" fill="white"/>
<mask id="mask1_693_2300" style="mask-type:alpha" maskUnits="userSpaceOnUse" x="81" y="29" width="53" height="20">
<path d="M133.639 29.1111H81.9023V48.293H133.639V29.1119V29.1111Z" fill="white"/>
</mask>
<g mask="url(#mask1_693_2300)">
<path fill-rule="evenodd" clip-rule="evenodd" d="M84.3954 33.063C84.3954 33.7526 83.8365 34.3102 83.1492 34.3102C82.4597 34.3102 81.9023 33.7512 81.9023 33.0637C81.9023 32.3756 82.4612 31.8173 83.1492 31.8173C83.8372 31.8173 84.3954 32.3763 84.3954 33.0645" fill="white"/>
<path fill-rule="evenodd" clip-rule="evenodd" d="M124.787 48.1493C122.971 48.4368 121.01 48.2909 119.25 47.7355C117.516 47.1882 116.447 46.1915 115.856 45.451C115.508 45.0155 115.281 44.6162 115.143 44.3375C114.78 44.5161 114.436 44.5698 114.12 44.4972C113.753 44.4144 113.534 44.185 113.441 44.0863L113.421 44.0667C113.163 43.8322 112.75 42.5945 113.3 41.8381C113.597 41.4301 113.998 41.314 114.343 41.3227C114.06 37.8963 114.434 36.4285 115.214 34.9803C115.614 34.2326 116.248 33.4849 117.043 32.817C117.197 32.6893 117.425 32.7081 117.554 32.862C117.683 33.0159 117.663 33.2446 117.509 33.3731C116.783 33.9829 116.21 34.6565 115.851 35.3229C115.418 36.1302 115.182 36.8525 115.062 37.7381C114.928 38.7399 114.942 40.0102 115.108 41.7416C115.121 41.8722 115.066 42.0014 114.955 42.0755C114.849 42.151 114.712 42.1626 114.594 42.1045C114.514 42.0682 114.137 41.9245 113.886 42.2657C113.608 42.6482 113.834 43.3822 113.933 43.552C113.944 43.5622 113.954 43.5738 113.966 43.5847C114.111 43.7371 114.383 44.0217 115.108 43.5165C115.203 43.4533 115.321 43.4366 115.429 43.4714C115.538 43.5077 115.623 43.5927 115.659 43.7016C115.661 43.7059 115.87 44.3113 116.445 45.0227C117.211 45.9715 118.23 46.6525 119.471 47.0445C122.709 48.0666 127.155 47.7486 129.784 44.7346C130.569 43.8359 131.011 42.6911 131.173 41.134C131.185 41.0236 131.247 40.9234 131.341 40.8654C131.435 40.8058 131.553 40.7928 131.657 40.8305C131.831 40.893 132.345 41.0135 132.644 40.8305C132.787 40.7434 132.872 40.5852 132.903 40.3471C132.992 39.6966 132.631 39.3939 132.47 39.293C132.261 39.1623 132.078 39.1645 132.035 39.1885C131.942 39.2959 131.795 39.3387 131.657 39.2974C131.519 39.2553 131.418 39.1348 131.402 38.991C131.399 38.9634 131.061 36.1164 130.139 34.6609C129.302 33.3397 128.219 32.4134 126.83 31.8319L126.612 31.7448C126.266 31.6011 125.471 31.3993 125.194 31.334L125.186 31.3318C124.943 31.2686 124.686 31.2185 124.417 31.1822C124.381 31.3173 124.326 31.4552 124.25 31.5924C123.899 32.2348 123.111 32.8991 122.086 33.4159C121.095 33.9168 120.085 34.1709 119.382 34.0961C119.044 34.0598 118.45 33.9074 118.265 33.2831C118.105 32.7531 118.252 32.2334 118.686 31.784C119.562 30.8708 121.59 30.3336 123.53 30.3845C123.024 29.8342 122.161 29.6948 120.964 29.9743C119.959 30.2081 119.102 30.6603 119.094 30.6654C118.917 30.7598 118.697 30.6922 118.603 30.5151C118.509 30.3387 118.576 30.1195 118.752 30.0251C118.909 29.9424 122.571 28.0194 124.168 30.0128C124.277 30.1493 124.357 30.2959 124.404 30.4483C124.734 30.489 125.055 30.5485 125.362 30.6284C125.442 30.6472 126.426 30.8824 126.885 31.0726L127.1 31.1597L127.105 31.1619C128.637 31.8029 129.83 32.8214 130.75 34.274C131.534 35.5109 131.919 37.5443 132.057 38.4509C132.244 38.4422 132.448 38.4822 132.654 38.5729C133.185 38.8095 133.757 39.4411 133.621 40.4458C133.541 41.0229 133.248 41.3125 133.015 41.4526C132.633 41.6849 132.172 41.6762 131.841 41.6225C131.628 43.1143 131.133 44.2917 130.329 45.2122C128.989 46.7475 127.114 47.7559 124.906 48.1304C124.867 48.1377 124.826 48.1435 124.787 48.15L124.787 48.1493ZM121.83 31.2214C121.798 31.2273 121.767 31.2323 121.735 31.236C120.6 31.4291 119.654 31.8218 119.204 32.2886C118.956 32.5448 118.874 32.8025 118.956 33.0769C118.976 33.1459 119.031 33.331 119.455 33.3745C120.017 33.4348 120.899 33.2018 121.757 32.7684C122.64 32.3227 123.334 31.7535 123.612 31.2454C123.637 31.1997 123.656 31.1568 123.674 31.1162C123.073 31.0901 122.444 31.1249 121.83 31.2214" fill="white"/>
</g>
<path fill-rule="evenodd" clip-rule="evenodd" d="M117.462 41.0061C117.387 41.311 117.87 41.3713 117.943 41.07C118.073 40.5372 118.349 40.0319 118.967 40.1212C119.21 40.1575 119.461 40.2737 119.657 40.4188C119.911 40.6054 120.204 40.217 119.952 40.0319C119.646 39.8069 119.26 39.6501 118.883 39.624C118.049 39.5659 117.636 40.2933 117.462 41.0061V41.0061ZM126.574 39.4439C126.721 39.2407 126.917 39.0563 127.133 38.9242C127.704 38.5772 128.145 38.9496 128.459 39.4468C128.626 39.714 129 39.4018 128.835 39.139C128.445 38.5206 127.849 38.1126 127.115 38.3892C126.748 38.5285 126.411 38.8429 126.18 39.1608C125.999 39.4171 126.391 39.7009 126.574 39.4439V39.4439ZM121.251 43.1345C121.207 43.173 121.191 43.234 121.214 43.2892C121.222 43.308 122.049 45.2056 123.86 45.0749C123.905 45.072 123.948 45.0648 123.993 45.0582C125.589 44.8042 126.012 43.4786 126.13 42.699C126.135 42.6583 126.149 42.5785 126.158 42.5277C126.169 42.4667 126.143 42.3723 126.082 42.3534C126.02 42.3331 125.946 42.3781 125.918 42.4362C125.911 42.4493 125.147 43.6289 123.833 43.8176C122.773 43.9701 122.159 43.6362 121.407 43.128C121.36 43.0968 121.299 43.099 121.251 43.1353L121.251 43.1345ZM123.967 41.2624C123.885 41.2754 123.808 41.2232 123.787 41.144C123.775 41.115 123.613 40.7833 123.241 40.8421C122.868 40.9001 122.782 41.3284 122.782 41.3321C122.766 41.4192 122.682 41.4758 122.596 41.4606C122.508 41.4439 122.452 41.3604 122.468 41.2733C122.473 41.2464 122.598 40.6199 123.192 40.5256C123.784 40.4312 124.082 40.9597 124.099 41.0802C124.114 41.1673 124.056 41.2486 123.967 41.2617" fill="white"/>
</svg>
