<svg width="215" height="80" viewBox="0 0 215 80" fill="none" xmlns="http://www.w3.org/2000/svg">
<g clip-path="url(#clip0_111_4353)">
<path d="M85.6944 48.6708H81.0438L79.6211 45.2392H71.8702L70.574 48.6708H66L72.988 31.3392H77.9944L85.6944 48.6708ZM75.5549 35.4806L73.0137 42.2147H78.3504L75.5549 35.4806Z" fill="white"/>
<path d="M102.588 31.3392H106.349V48.6708H102.028V37.8449L97.3526 43.2827H96.6921L92.0166 37.8449V48.6706H87.696V31.3392H91.457L97.0221 37.7684L102.588 31.3392Z" fill="white"/>
<path d="M117.296 31.3392C123.624 31.3392 126.876 35.2776 126.876 40.0297C126.876 45.0104 123.725 48.6708 116.813 48.6708H109.647V31.3392H117.296ZM113.967 45.4942H116.787C121.133 45.4942 122.429 42.5457 122.429 40.004C122.429 37.0305 120.828 34.5153 116.737 34.5153H113.967V45.4942H113.967Z" fill="white"/>
<path d="M135.472 35.4487L130.024 30H149.856V49.833L144.408 44.385V35.4487H135.472Z" fill="white"/>
<path d="M135.465 36.5405L129.856 42.149V49.9999H137.706L143.315 44.3914H135.465V36.5405Z" fill="white"/>
</g>
<defs>
<clipPath id="clip0_111_4353">
<rect width="83.8561" height="20" fill="white" transform="translate(66 30)"/>
</clipPath>
</defs>
</svg>
