<svg width="215" height="80" viewBox="0 0 215 80" fill="none" xmlns="http://www.w3.org/2000/svg">
<g clip-path="url(#clip0_694_2447)">
<path d="M162.283 46.6065C161.381 47.5542 160.358 48.1193 159.074 48.3773C158.208 48.5523 157.449 48.589 156.569 48.4978C155.402 48.378 154.439 48.0035 153.499 47.3016C152.731 46.7297 152.181 46.1108 151.701 45.2816C151.33 44.6396 151.114 44.0391 150.994 43.3079C150.826 42.2934 150.87 41.4009 151.137 40.4089C151.748 38.1526 153.447 36.5533 155.737 36.0774C157.045 35.8058 158.208 35.8337 159.501 36.1673C160.422 36.4049 161.153 36.8053 161.85 37.4527C162.289 37.8599 162.602 38.269 162.878 38.7987C163.206 39.4251 163.338 40.0337 163.301 40.7391H159.216C159.127 40.1924 158.865 39.7567 158.424 39.4217C157.853 38.9866 157.116 38.9519 156.505 39.3291C156.088 39.5885 155.814 39.9412 155.666 40.4089C155.315 41.5234 155.299 42.5603 155.612 43.6857C155.746 44.1589 155.97 44.5299 156.329 44.8676C156.737 45.2571 157.246 45.4171 157.805 45.3347C158.151 45.2843 158.433 45.1332 158.666 44.871C158.911 44.6008 159.05 44.3107 159.114 43.9519C159.159 43.6993 159.185 43.4856 159.198 43.2296H163.505C163.591 44.5265 163.179 45.6656 162.283 46.6065" fill="white"/>
<path d="M145.819 34.6017H150.286V31.4494H145.819V34.6017Z" fill="white"/>
<path d="M145.819 48.155H150.286V36.222H145.819V48.155Z" fill="white"/>
<path d="M136.565 37.4814C137.153 36.968 137.713 36.6058 138.422 36.2783C139.576 35.7459 140.73 35.6595 141.95 36.0155C143.26 36.3989 144.203 37.3187 144.616 38.6184C144.815 39.2427 144.9 39.7969 144.9 40.4518V48.1534H140.156V41.2273C140.156 40.9958 140.128 40.7997 140.058 40.5778C139.937 40.1802 139.674 39.8874 139.289 39.7254C138.448 39.3686 137.492 39.6845 137.031 40.4716C136.838 40.7997 136.75 41.1231 136.75 41.5044V48.1534H132.154V36.2198H136.466L136.565 37.4814" fill="white"/>
<path d="M83.7275 37.4814C84.3151 36.968 84.8754 36.6058 85.5829 36.2783C86.7375 35.7459 87.8921 35.6595 89.1122 36.0155C90.4223 36.3989 91.3656 37.3187 91.7786 38.6184C91.977 39.2427 92.0629 39.7969 92.0629 40.4518V48.1534H87.3182V41.2273C87.3182 40.9958 87.2889 40.7997 87.2214 40.5778C87.0988 40.1802 86.8357 39.8874 86.4506 39.7254C85.6101 39.3686 84.6538 39.6845 84.1931 40.4716C83.9995 40.7997 83.9116 41.1231 83.9116 41.5044V48.1534H79.3169V36.2198H83.6274L83.7275 37.4814" fill="white"/>
<path d="M111.886 43.7674C112.228 43.8253 112.514 43.8968 112.843 44.0064C113.117 44.0963 113.306 44.3087 113.366 44.5899C113.431 44.8969 113.345 45.1883 113.124 45.4096C112.9 45.6363 112.644 45.767 112.329 45.816C111.908 45.8834 111.535 45.8487 111.133 45.703C110.939 45.6336 110.785 45.5458 110.625 45.4144C110.42 45.2414 110.288 45.0433 110.208 44.7873C110.141 44.5701 110.115 44.3781 110.119 44.1507H105.744V44.4054C105.744 44.8166 105.808 45.1652 105.952 45.5498C106.172 46.1285 106.472 46.5758 106.926 46.998C107.519 47.5515 108.137 47.8967 108.916 48.1193C110.533 48.5795 111.99 48.6708 113.652 48.4161C114.432 48.297 115.075 48.0873 115.777 47.7244C116.086 47.5644 116.333 47.399 116.6 47.1757C117.781 46.1844 118.22 44.6716 117.747 43.2044C117.569 42.6515 117.287 42.2253 116.847 41.8441C116.244 41.3226 115.634 40.9903 114.868 40.767C114.701 40.7187 114.557 40.6778 114.388 40.6315C113.451 40.3714 112.646 40.1999 111.684 40.0569C111.426 40.0188 111.209 39.9772 110.955 39.918C110.838 39.8901 110.74 39.8574 110.631 39.8077C110.362 39.6865 110.243 39.3699 110.364 39.1017C110.371 39.0874 110.377 39.0745 110.385 39.0609C110.529 38.8028 110.743 38.6347 111.025 38.5523C111.525 38.4079 111.985 38.4202 112.475 38.587C112.945 38.747 113.241 39.178 113.22 39.6743H117.436C117.432 39.1568 117.353 38.7198 117.178 38.2336C117 37.7407 116.728 37.3656 116.316 37.0408C115.957 36.7562 115.617 36.5629 115.19 36.3974C114.774 36.2361 114.408 36.1353 113.968 36.0584C112.923 35.8787 112.024 35.8262 110.966 35.8889C110.362 35.9236 109.852 35.9985 109.26 36.1367C108.464 36.3239 107.823 36.631 107.179 37.1348C106.632 37.563 106.275 38.0634 106.046 38.7184C105.941 39.0152 105.892 39.2787 105.878 39.5912C105.854 40.1148 105.93 40.5607 106.124 41.0475C106.472 41.919 107.089 42.5365 107.963 42.8844C108.405 43.0607 108.793 43.1765 109.26 43.2718C110.18 43.4617 110.959 43.6095 111.886 43.7674" fill="white"/>
<path d="M59.588 43.0085H56.5221V39.093H58.5144C58.8927 39.093 59.2131 39.0842 59.5914 39.0631C60.1155 39.0345 60.5511 38.8003 60.8633 38.3789C61.0289 38.1549 61.1223 37.9288 61.1618 37.6524C61.1945 37.4196 61.1993 37.2208 61.1761 36.9879C61.0909 36.1165 60.3684 35.4629 59.4925 35.4629H56.5221V48.1542H51.4469V31.448H59.7427C60.0726 31.448 60.3514 31.4541 60.6806 31.4725C62.8815 31.5903 64.6945 32.811 65.627 34.8059C66.1123 35.8441 66.2772 36.8422 66.1525 37.9819C65.8894 40.3812 64.2092 42.2473 61.8489 42.7641C61.0664 42.9356 60.3889 43.0085 59.588 43.0085" fill="white"/>
<path d="M126.216 35.9925C125.743 35.9176 125.34 35.887 124.862 35.887C124.383 35.887 123.981 35.9176 123.508 35.9925C122.136 36.207 121.025 36.7578 120.024 37.7178C118.952 38.7465 118.366 39.9638 118.231 41.4419C118.15 42.3494 118.22 43.1317 118.464 44.0093C118.839 45.356 119.543 46.3963 120.654 47.246C121.386 47.8077 122.113 48.144 123.014 48.3401C123.654 48.4803 124.207 48.5382 124.862 48.5382C125.516 48.5382 126.07 48.4803 126.71 48.3401C127.611 48.144 128.338 47.8077 129.069 47.246L126.503 44.4518C126.094 45.3573 125.031 45.7611 124.124 45.3533C123.706 45.1654 123.409 44.8699 123.221 44.4518C123.047 44.0658 122.945 43.72 122.883 43.3006C122.756 42.4625 122.77 41.7347 122.934 40.902C123.018 40.4697 123.163 40.117 123.404 39.7487C123.932 38.9446 125.011 38.7199 125.818 39.2462C126.028 39.3844 126.182 39.5383 126.319 39.7487C126.561 40.117 126.706 40.4697 126.79 40.902C126.952 41.7347 126.968 42.4625 126.841 43.3006C126.778 43.72 126.676 44.0658 126.503 44.4518L129.069 47.246C130.181 46.3963 130.885 45.356 131.259 44.0093C131.504 43.1317 131.574 42.3494 131.493 41.4419C131.358 39.9638 130.773 38.7465 129.701 37.7178C128.699 36.7564 127.588 36.207 126.216 35.9925" fill="white"/>
<path d="M105.254 47.2193C105.187 46.2361 105.149 45.4035 105.13 44.417C105.104 43.1207 105.088 42.0273 105.079 40.7316C105.074 40.0324 104.997 39.4421 104.822 38.7654C104.592 37.8783 104.072 37.2043 103.271 36.7563C102.787 36.486 102.343 36.3199 101.802 36.2028C100.079 35.8344 98.5583 35.8038 96.8223 36.1047C96.3342 36.1891 95.9307 36.3062 95.4727 36.4955C94.4148 36.9326 93.6862 37.7292 93.3468 38.8205C93.2166 39.2379 93.1818 39.6164 93.2316 40.0515C93.2411 40.1311 93.2609 40.1985 93.297 40.2714L97.3171 40.3694C97.3069 40.1134 97.3403 39.8969 97.4268 39.6566C97.5584 39.2903 97.8174 39.0302 98.1841 38.8968C98.7233 38.6987 99.2426 38.6912 99.7893 38.8696C100.148 38.9874 100.403 39.2461 100.515 39.6062C100.585 39.8316 100.551 40.0535 100.414 40.2462C100.296 40.4164 100.149 40.5308 99.9549 40.605C99.8349 40.6506 99.7327 40.684 99.61 40.7167C99.0511 40.8671 98.574 40.9706 98.0035 41.0652C97.5516 41.1395 97.1712 41.2096 96.7234 41.3008C96.1148 41.4213 95.6063 41.5548 95.0167 41.7454C94.4769 41.9197 94.0515 42.1675 93.6344 42.5508C93.0918 43.0465 92.7817 43.634 92.6781 44.3632C92.61 44.8493 92.6256 45.2728 92.7333 45.7514C93.0148 46.9959 93.8798 47.9164 95.1073 48.2732C96.4678 48.6674 97.7445 48.6027 99.0579 48.073C99.6973 47.8163 100.184 47.4603 100.624 46.9306L100.34 44.8792C100.138 45.1924 99.8861 45.4062 99.5459 45.556C99.227 45.6969 98.9386 45.7711 98.5917 45.8065C98.3027 45.8351 98.0519 45.814 97.7717 45.7357C97.5441 45.6731 97.3662 45.5669 97.2046 45.3953C97.0683 45.2483 96.9872 45.0903 96.9456 44.8942C96.8822 44.5933 96.9811 44.3039 97.2162 44.1045C97.3737 43.9703 97.5277 43.8805 97.7206 43.8097C98.1875 43.6381 98.5862 43.5094 99.0641 43.3739C99.6421 43.2112 100.121 43.0349 100.666 42.7843C100.72 43.2207 100.717 43.5945 100.656 44.0289C100.612 44.3475 100.515 44.6096 100.34 44.8792L100.624 46.9306C100.711 47.222 100.793 47.4657 100.892 47.751C100.949 47.911 101.022 48.0349 101.134 48.1595H105.562C105.374 47.8633 105.278 47.5706 105.254 47.2193" fill="white"/>
<path d="M78.4327 47.2193C78.3659 46.2361 78.3284 45.4035 78.3086 44.417C78.282 43.1207 78.267 42.0273 78.2582 40.7316C78.2534 40.0324 78.1764 39.4421 78.0005 38.7654C77.7708 37.8783 77.2514 37.2043 76.4499 36.7563C75.9659 36.486 75.5222 36.3199 74.981 36.2028C73.2579 35.8344 71.7373 35.8038 70.0005 36.1047C69.5139 36.1891 69.109 36.3062 68.6516 36.4955C67.5938 36.9326 66.8652 37.7292 66.5257 38.8205C66.3962 39.2379 66.3608 39.6164 66.4112 40.0515C66.4201 40.1311 66.4398 40.1985 66.476 40.2714L70.4961 40.3694C70.4865 40.1134 70.5192 39.8969 70.6058 39.6566C70.7374 39.2903 70.9964 39.0302 71.3631 38.8968C71.9029 38.6987 72.4216 38.6912 72.9676 38.8696C73.3275 38.9874 73.5831 39.2461 73.6955 39.6062C73.7644 39.8316 73.7296 40.0535 73.5933 40.2462C73.474 40.4164 73.3274 40.5308 73.1339 40.605C73.0139 40.6506 72.9117 40.684 72.7883 40.7167C72.2301 40.8671 71.7523 40.9706 71.1824 41.0652C70.7312 41.1395 70.3502 41.2096 69.9017 41.3008C69.2937 41.4213 68.7859 41.5548 68.195 41.7454C67.6565 41.9197 67.2312 42.1675 66.8134 42.5508C66.2708 43.0465 65.9614 43.634 65.8571 44.3632C65.7882 44.8493 65.8046 45.2728 65.913 45.7514C66.1931 46.9959 67.0594 47.9164 68.2856 48.2732C69.6475 48.6674 70.9228 48.6027 72.2369 48.073C72.8755 47.8163 73.3636 47.4603 73.8032 46.9306L73.5197 44.8792C73.3172 45.1924 73.065 45.4062 72.7242 45.556C72.4059 45.6969 72.1169 45.7711 71.7713 45.8065C71.481 45.8351 71.2315 45.814 70.9507 45.7357C70.723 45.6731 70.5451 45.5669 70.3843 45.3953C70.2473 45.2483 70.1662 45.0903 70.1246 44.8942C70.0619 44.5933 70.16 44.3039 70.3952 44.1045C70.552 43.9703 70.706 43.8805 70.8996 43.8097C71.3665 43.6381 71.7659 43.5094 72.2437 43.3739C72.8217 43.2112 73.2995 43.0349 73.8455 42.7843C73.8986 43.2207 73.8959 43.5945 73.8352 44.0289C73.7909 44.3475 73.6935 44.6096 73.5197 44.8792L73.8032 46.9306C73.8905 47.222 73.9716 47.4657 74.0718 47.751C74.1277 47.911 74.2013 48.0349 74.313 48.1595H78.7414C78.5526 47.8633 78.4572 47.5706 78.4327 47.2193" fill="white"/>
</g>
<defs>
<clipPath id="clip0_694_2447">
<rect width="112.966" height="18" fill="white" transform="translate(51 31)"/>
</clipPath>
</defs>
</svg>
