<svg width="215" height="80" viewBox="0 0 215 80" fill="none" xmlns="http://www.w3.org/2000/svg">
<g clip-path="url(#clip0_111_4335)">
<path d="M68.7594 47.909C67.1866 47.1731 65.8955 46.5792 65.8955 45.3785C65.8955 44.4595 66.6315 43.7917 68.0821 43.7917C68.6162 43.7917 69.0528 43.8549 69.5047 43.9371C69.7406 43.978 69.9918 44.0122 70.1995 44.0122C71.4683 44.0122 72.1842 43.2564 72.6607 41.8209L72.8567 41.2353C72.6537 41.1531 70.5821 40.2423 67.8814 40.2423C63.5834 40.2423 61.3146 42.9993 61.3158 45.8585C61.3158 47.3009 61.7676 48.3467 62.4754 49.1707C63.3862 50.2281 64.6843 50.9206 65.8991 51.5145C67.6702 52.3831 69.2676 53.0251 69.2676 54.3126C69.2687 55.4558 68.088 56.1049 66.5094 56.1049C64.3463 56.1049 62.4566 54.8701 62.216 54.7211L60.4402 58.0485C60.7548 58.2282 63.0423 59.6788 66.8063 59.6788C70.8168 59.6764 73.8544 57.3771 73.8544 53.8384C73.8544 50.3185 71.0399 49.0134 68.7594 47.9089" fill="white"/>
<path d="M84.4474 49.5519L91.722 40.6318H86.5389L80.7362 48.3301H80.6493V40.6318H76.3759L76.3782 59.5284H76.6317C78.4791 59.5284 80.6775 58.6727 80.6775 55.5883V51.2491H80.7643L86.6798 59.2924H92.1175L84.4474 49.5519Z" fill="white"/>
<path d="M91.9643 20.3895C90.4596 20.6737 88.2296 22.0398 88.2378 24.4541C88.2424 26.6465 90.0359 27.9763 90.0418 30.8483C90.0501 33.0103 88.8587 34.4669 87.5699 35.2732C88.0911 35.2273 88.6615 35.197 89.2882 35.1957C90.6051 35.1923 91.3986 35.3178 91.4478 35.3261L98.1966 27.0444C96.3222 24.2381 94.1333 22.0609 91.9643 20.3896" fill="white"/>
<path d="M97.6333 42.7541C98.4842 41.4313 98.591 39.3234 98.6626 37.1779C98.7436 35.1744 99.1603 33.6673 101.84 33.6579C102.433 33.6568 102.998 33.7378 104.022 33.7355C107.947 33.7188 110.509 32.3669 112.103 31.4796C108.847 29.4033 104.093 27.2825 98.1967 27.0442C97.8117 28.1287 94.8234 36.4385 94.5969 37.1098C94.631 37.1498 95.1544 37.7354 95.8082 38.8798C96.773 40.4514 97.2906 41.7823 97.6333 42.7542" fill="white"/>
<path d="M83.3795 35.9669C83.0379 35.9681 82.8678 35.7417 82.822 35.3484C82.7786 34.9587 81.0896 19.5164 80.8396 17.1796C80.8032 16.838 80.7187 16.2112 80.7175 15.9883C80.7164 15.6291 80.9511 15.4413 81.2269 15.4401C82.0262 15.4368 86.3853 16.4577 91.0097 19.7007C89.6764 20.0751 87.2668 21.4612 87.2773 24.3309C87.2866 26.872 89.1048 28.2698 89.1142 30.8179C89.1295 34.9623 84.3654 35.9646 83.3795 35.9669Z" fill="white"/>
<path d="M98.0208 43.8562C98.0935 44.0488 98.1616 44.2107 98.2309 44.3234C98.3377 44.503 98.475 44.5852 98.6463 44.5852C98.7531 44.584 98.8846 44.5476 99.0313 44.4821C99.3869 44.3177 113.48 37.758 115.605 36.7779C115.913 36.6302 116.498 36.3683 116.69 36.2556C116.889 36.1418 116.981 35.9761 116.981 35.8073C116.98 35.7121 116.952 35.6169 116.899 35.5301C116.632 35.1006 115.269 33.6534 112.99 32.0724C111.18 33.0689 108.354 34.61 104.15 34.6264C103.119 34.6287 102.887 34.5595 102.183 34.5618C100.131 34.5685 99.6182 35.4469 99.5431 37.2461C99.5314 37.5865 99.5244 38.043 99.5043 38.5454C99.4398 40.1534 99.2497 42.3717 98.0208 43.8564" fill="white"/>
<path d="M120.038 59.7841C118.474 64.013 116.459 64.5599 114.73 64.5599C113.508 64.5599 112.61 64.1233 112.516 64.0751L113.169 62.0963C113.22 62.1229 113.881 62.479 114.616 62.479C115.989 62.479 116.851 61.716 117.612 59.3264C117.612 59.3264 112.945 49.1657 112.889 49.0389C112.975 49.0123 113.534 48.8416 114.171 48.8416C115.682 48.8416 116.015 49.7853 116.403 50.7278C116.732 51.5188 118.883 56.7066 118.883 56.7066H118.955L121.447 49.0388H124.031L120.038 59.7841Z" fill="white"/>
<path d="M154.222 59.2758L150.609 54.027L154.147 48.8897H151.098L148.635 52.6561C147.972 51.615 147.346 50.6326 147.153 50.3275C146.66 49.5705 146.216 48.8064 145.091 48.8287C144.941 48.832 144.784 48.8453 144.615 48.8803C143.987 48.9954 143.47 49.2652 143.391 49.3051C143.431 49.3687 145.123 51.7676 146.743 54.1009L143.184 59.2757H146.23L148.704 55.4964L151.179 59.2757L154.222 59.2758Z" fill="white"/>
<path d="M126.13 52.4122V59.2924H128.713V52.1411C128.854 52.012 129.773 51.1352 130.791 51.1352C132.119 51.1352 132.808 52.0977 132.808 53.3512V59.2924H135.389V52.7045C135.389 49.5777 132.982 48.8853 131.639 48.8853C130.024 48.8853 128.875 49.9029 128.534 50.2409C128.423 49.8219 127.932 49.113 126.804 49.113C126.406 49.113 125.886 49.2304 125.838 49.2434C125.916 49.6319 126.13 50.5532 126.13 52.4124" fill="white"/>
<path d="M141.149 45.9269C141.149 46.7802 140.438 47.4715 139.556 47.4715C138.676 47.4715 137.965 46.7802 137.965 45.9269C137.965 45.0701 138.676 44.3753 139.556 44.3753C140.438 44.3753 141.149 45.0701 141.149 45.9269Z" fill="white"/>
<path d="M140.836 59.2778H138.275V49.0326H140.836V59.2778Z" fill="white"/>
<path d="M104.644 50.2156C104.825 50.0643 106.141 48.8413 107.974 48.8413C109.978 48.8413 111.457 49.887 111.457 52.4351V59.293H108.781V53.1687C108.781 52.0407 108.159 51.1663 106.982 51.1663C105.862 51.1663 104.913 52.0501 104.644 52.272V59.293H101.987V43.6511H102.55C103.823 43.6511 104.644 44.5772 104.644 45.8108V50.2156Z" fill="white"/>
</g>
<defs>
<clipPath id="clip0_111_4335">
<rect width="94.662" height="50" fill="white" transform="translate(60 15)"/>
</clipPath>
</defs>
</svg>
