<svg width="215" height="80" viewBox="0 0 215 80" fill="none" xmlns="http://www.w3.org/2000/svg">
<g clip-path="url(#clip0_111_4300)">
<path d="M123.213 46.4559C119.734 46.4559 118.393 43.2536 118.393 39.9993C118.393 36.745 119.734 33.5448 123.213 33.5448C126.688 33.5448 128.032 36.745 128.032 39.9993C128.032 43.2536 126.688 46.4559 123.213 46.4559ZM123.213 30.2713C117.735 30.2713 114.572 34.3759 114.572 39.9993C114.572 45.6249 117.735 49.7288 123.213 49.7288C128.688 49.7288 131.85 45.6249 131.85 39.9993C131.85 34.3759 128.688 30.2713 123.213 30.2713Z" fill="white"/>
<path d="M67.2712 30.817H80.9977V34.0913H71.0893V38.1638H80.3291V41.3554H71.0893V45.9104H80.9977V49.1833H67.2712V30.817Z" fill="white"/>
<path d="M89.908 40.4005H86.4513V34.0907V34.0872H89.908C92.3106 34.0872 93.9086 35.1327 93.9086 37.2445C93.9086 39.3556 92.3106 40.4005 89.908 40.4005ZM82.6346 49.1827H86.4513V43.6719H89.908C94.5864 43.6719 97.726 41.3741 97.726 37.2445C97.726 33.1143 94.5864 30.8172 89.908 30.8172H82.6346V49.1827Z" fill="white"/>
<path d="M137.213 30.817H133.293V49.1833H137.036V41.7438C137.036 39.7076 136.963 37.9015 136.894 36.3043C137.335 37.2237 138.676 39.9862 139.294 41.024L144.166 49.1833H148.086V30.817H144.343V38.0704C144.343 40.1046 144.418 42.1002 144.485 43.6939C144.043 42.7744 142.706 40.0133 142.079 38.977L137.213 30.817Z" fill="white"/>
<path d="M102.062 43.1067C102.062 45.5749 104.115 46.5342 106.299 46.5342C107.725 46.5342 110.04 46.1208 110.04 44.225C110.04 42.2229 107.211 41.8444 104.482 41.1182C101.621 40.3605 98.8646 39.2872 98.8646 35.8839C98.8646 32.09 102.453 30.2712 105.805 30.2712C109.675 30.2712 113.235 31.9603 113.235 36.2467H109.416C109.286 34.013 107.571 33.44 105.623 33.44C104.323 33.44 102.686 33.9859 102.686 35.5468C102.686 36.9751 103.62 37.1953 108.268 38.392C109.62 38.7298 113.859 39.548 113.859 43.7553C113.859 47.1607 111.183 49.7044 106.139 49.7044C102.037 49.7044 98.1918 47.6795 98.2424 43.1067H102.062Z" fill="white"/>
</g>
<defs>
<clipPath id="clip0_111_4300">
<rect width="81.3571" height="20" fill="white" transform="translate(67 30)"/>
</clipPath>
</defs>
</svg>
