<svg width="215" height="80" viewBox="0 0 215 80" fill="none" xmlns="http://www.w3.org/2000/svg">
<path d="M40 40.034V29.0284H45.2443V32.7216C45.2443 36.5625 41.7481 39.1969 40 40.034Z" fill="white"/>
<path d="M48.3466 34.2727C46.9432 35.3068 45.2443 36.4147 45.2443 41.9545C47.3863 40.5511 52.5715 37.1238 56.1761 34.642C59.7806 32.1602 60.3863 27.8466 60.2386 26C56.7424 28.4129 49.4693 33.4454 48.3466 34.2727Z" fill="white"/>
<path d="M48.5682 51.5567C45.6727 49.5476 41.6496 46.7802 40 45.6476V40.034C43.3485 42.3238 52.0841 48.3067 60.2386 53.9203C52.0397 53.9203 52.1875 54.068 48.5682 51.5567Z" fill="white"/>
<path fill-rule="evenodd" clip-rule="evenodd" d="M69.3239 31.8351H70.6534V36.4885H72.4261L79.2215 31.8351H81.5113L74.0511 36.9317L82.3238 42.5453H79.5909L72.4261 37.5226H70.6534V42.5453H69.3239V31.8351ZM84.3181 31.8351V42.5453H85.7215V38.2613H93.034C94.0681 38.2613 94.8806 38.7044 94.8806 39.8124V42.5453H96.2101V39.4431C96.2101 38.4976 95.1268 37.9166 94.5851 37.7442C95.2007 37.7442 96.4317 37.4044 96.4317 36.0454V33.7556C96.3332 33.1154 95.6931 31.8351 93.9204 31.8351H84.3181ZM99.7556 42.5453H98.1306L104.409 31.8351H106.256L112.756 42.5453H111.057L105.369 33.017L99.7556 42.5453ZM114.602 31.8351H116.006V42.5453H114.602V31.8351ZM117.261 34.8635V32.4999L123.17 40.7726L129.375 31.8351H131.665V42.5453H130.187V33.2385L123.761 42.5453H122.579L117.261 34.8635ZM132.92 32.4999V34.8635L138.238 42.5453H139.346L145.772 33.2385V42.5453H147.324V31.8351H145.034L138.829 40.7726L132.92 32.4999ZM149.909 31.8351H160.397V32.9431H151.312V36.4885H160.102V37.5226H151.312V41.3635H160.397V42.5453H149.909V31.8351ZM162.761 31.8351V42.5453H164.238V38.2613H171.477C173.323 38.2613 173.397 39.4431 173.397 39.7385V42.5453H174.727V39.7385C174.727 38.2613 173.619 37.7442 173.028 37.7442C174.136 37.5226 174.948 37.301 174.948 35.9715V33.9772C174.948 32.9431 174.136 31.8351 172.511 31.8351H162.761ZM85.6477 32.7954V37.0056H93.034C94.659 37.0056 94.8806 36.1192 94.8806 35.6022V33.9033C94.8806 33.0908 93.9942 32.7954 93.034 32.7954H85.6477ZM164.164 32.7954V37.0056H171.551C173.176 37.0056 173.397 36.1192 173.397 35.6022V33.9033C173.397 33.0908 172.511 32.7954 171.551 32.7954H164.164Z" fill="white"/>
<path d="M92.511 47.7157C92.5701 47.7157 92.5996 47.7452 92.5996 47.8043V48.1855C92.5996 48.2445 92.5701 48.2741 92.511 48.2741H90.7737C90.7501 48.2741 90.7382 48.2859 90.7382 48.3095V53.8316C90.7382 53.8907 90.7087 53.9202 90.6496 53.9202H90.1976C90.1385 53.9202 90.1089 53.8907 90.1089 53.8316V48.3095C90.1089 48.2859 90.0971 48.2741 90.0735 48.2741H88.4071C88.348 48.2741 88.3185 48.2445 88.3185 48.1855V47.8043C88.3185 47.7452 88.348 47.7157 88.4071 47.7157H92.511Z" fill="white"/>
<path d="M99.4276 48.1766C99.4276 48.2357 99.398 48.2652 99.3389 48.2652H96.0771C96.0535 48.2652 96.0417 48.277 96.0417 48.3007V50.49C96.0417 50.5136 96.0535 50.5254 96.0771 50.5254H98.3639C98.423 50.5254 98.4526 50.555 98.4526 50.6141V50.9864C98.4526 51.0454 98.423 51.075 98.3639 51.075H96.0771C96.0535 51.075 96.0417 51.0868 96.0417 51.1104V53.3352C96.0417 53.3588 96.0535 53.3707 96.0771 53.3707H99.3389C99.398 53.3707 99.4276 53.4002 99.4276 53.4593V53.8316C99.4276 53.8907 99.398 53.9202 99.3389 53.9202H95.501C95.4419 53.9202 95.4123 53.8907 95.4123 53.8316V47.8043C95.4123 47.7452 95.4419 47.7157 95.501 47.7157H99.3389C99.398 47.7157 99.4276 47.7452 99.4276 47.8043V48.1766Z" fill="white"/>
<path d="M104.262 54C103.849 54 103.485 53.9202 103.172 53.7607C102.859 53.5952 102.614 53.3648 102.436 53.0693C102.265 52.7679 102.179 52.4223 102.179 52.0323V49.5948C102.179 49.2107 102.265 48.8709 102.436 48.5755C102.614 48.28 102.859 48.0525 103.172 47.893C103.485 47.7275 103.849 47.6448 104.262 47.6448C104.676 47.6448 105.039 47.7245 105.353 47.8841C105.666 48.0436 105.908 48.2682 106.079 48.5577C106.257 48.8473 106.345 49.1811 106.345 49.5593C106.345 49.5889 106.336 49.6125 106.319 49.6302C106.301 49.648 106.28 49.6568 106.257 49.6568L105.805 49.6834C105.746 49.6834 105.716 49.6568 105.716 49.6036V49.577C105.716 49.1575 105.583 48.8236 105.317 48.5755C105.051 48.3214 104.7 48.1943 104.262 48.1943C103.825 48.1943 103.474 48.3214 103.208 48.5755C102.942 48.8295 102.809 49.1634 102.809 49.577V52.0589C102.809 52.4725 102.942 52.8063 103.208 53.0604C103.474 53.3145 103.825 53.4416 104.262 53.4416C104.7 53.4416 105.051 53.3175 105.317 53.0693C105.583 52.8152 105.716 52.4784 105.716 52.0589V52.0411C105.716 51.9879 105.746 51.9614 105.805 51.9614L106.257 51.9879C106.316 51.9879 106.345 52.0145 106.345 52.0677C106.345 52.4518 106.257 52.7916 106.079 53.087C105.908 53.3766 105.666 53.6011 105.353 53.7607C105.039 53.9202 104.676 54 104.262 54Z" fill="white"/>
<path d="M112.882 47.8043C112.882 47.7452 112.911 47.7157 112.97 47.7157H113.422C113.481 47.7157 113.511 47.7452 113.511 47.8043V53.8316C113.511 53.8907 113.481 53.9202 113.422 53.9202H112.97C112.911 53.9202 112.882 53.8907 112.882 53.8316V51.1104C112.882 51.0868 112.87 51.075 112.846 51.075H110.019C109.995 51.075 109.983 51.0868 109.983 51.1104V53.8316C109.983 53.8907 109.954 53.9202 109.895 53.9202H109.442C109.383 53.9202 109.354 53.8907 109.354 53.8316V47.8043C109.354 47.7452 109.383 47.7157 109.442 47.7157H109.895C109.954 47.7157 109.983 47.7452 109.983 47.8043V50.49C109.983 50.5136 109.995 50.5254 110.019 50.5254H112.846C112.87 50.5254 112.882 50.5136 112.882 50.49V47.8043Z" fill="white"/>
<path d="M120.445 47.8043C120.445 47.7452 120.474 47.7157 120.533 47.7157H120.986C121.045 47.7157 121.074 47.7452 121.074 47.8043V53.8316C121.074 53.8907 121.045 53.9202 120.986 53.9202H120.542C120.501 53.9202 120.466 53.8995 120.436 53.8582L117.413 48.9389C117.408 48.9211 117.399 48.9152 117.387 48.9211C117.375 48.9211 117.369 48.93 117.369 48.9477L117.378 53.8316C117.378 53.8907 117.348 53.9202 117.289 53.9202H116.837C116.778 53.9202 116.749 53.8907 116.749 53.8316V47.8043C116.749 47.7452 116.778 47.7157 116.837 47.7157H117.281C117.322 47.7157 117.357 47.7364 117.387 47.7777L120.409 52.697C120.415 52.7148 120.424 52.7236 120.436 52.7236C120.448 52.7177 120.454 52.7059 120.454 52.6882L120.445 47.8043Z" fill="white"/>
<path d="M126.249 53.9911C125.829 53.9911 125.46 53.9054 125.141 53.7341C124.822 53.5627 124.573 53.3234 124.396 53.0161C124.225 52.7029 124.139 52.3425 124.139 51.9348V49.7011C124.139 49.2934 124.225 48.9359 124.396 48.6286C124.573 48.3155 124.822 48.0732 125.141 47.9018C125.46 47.7305 125.829 47.6448 126.249 47.6448C126.668 47.6448 127.037 47.7305 127.357 47.9018C127.682 48.0732 127.93 48.3155 128.101 48.6286C128.278 48.9359 128.367 49.2934 128.367 49.7011V51.9348C128.367 52.3425 128.278 52.7029 128.101 53.0161C127.93 53.3234 127.682 53.5627 127.357 53.7341C127.037 53.9054 126.668 53.9911 126.249 53.9911ZM126.249 53.4504C126.698 53.4504 127.058 53.3145 127.33 53.0427C127.602 52.7709 127.738 52.4104 127.738 51.9614V49.6923C127.738 49.2432 127.602 48.8827 127.33 48.6109C127.058 48.3332 126.698 48.1943 126.249 48.1943C125.805 48.1943 125.448 48.3332 125.176 48.6109C124.904 48.8827 124.768 49.2432 124.768 49.6923V51.9614C124.768 52.4104 124.904 52.7709 125.176 53.0427C125.448 53.3145 125.805 53.4504 126.249 53.4504Z" fill="white"/>
<path d="M131.532 53.9202C131.473 53.9202 131.443 53.8907 131.443 53.8316V47.8043C131.443 47.7452 131.473 47.7157 131.532 47.7157H131.984C132.043 47.7157 132.073 47.7452 132.073 47.8043V53.3352C132.073 53.3588 132.084 53.3707 132.108 53.3707H135.237C135.296 53.3707 135.326 53.4002 135.326 53.4593V53.8316C135.326 53.8907 135.296 53.9202 135.237 53.9202H131.532Z" fill="white"/>
<path d="M139.965 53.9911C139.545 53.9911 139.176 53.9054 138.857 53.7341C138.538 53.5627 138.29 53.3234 138.112 53.0161C137.941 52.7029 137.855 52.3425 137.855 51.9348V49.7011C137.855 49.2934 137.941 48.9359 138.112 48.6286C138.29 48.3155 138.538 48.0732 138.857 47.9018C139.176 47.7305 139.545 47.6448 139.965 47.6448C140.385 47.6448 140.754 47.7305 141.073 47.9018C141.398 48.0732 141.646 48.3155 141.817 48.6286C141.995 48.9359 142.083 49.2934 142.083 49.7011V51.9348C142.083 52.3425 141.995 52.7029 141.817 53.0161C141.646 53.3234 141.398 53.5627 141.073 53.7341C140.754 53.9054 140.385 53.9911 139.965 53.9911ZM139.965 53.4504C140.414 53.4504 140.775 53.3145 141.046 53.0427C141.318 52.7709 141.454 52.4104 141.454 51.9614V49.6923C141.454 49.2432 141.318 48.8827 141.046 48.6109C140.775 48.3332 140.414 48.1943 139.965 48.1943C139.522 48.1943 139.164 48.3332 138.892 48.6109C138.621 48.8827 138.485 49.2432 138.485 49.6923V51.9614C138.485 52.4104 138.621 52.7709 138.892 53.0427C139.164 53.3145 139.522 53.4504 139.965 53.4504Z" fill="white"/>
<path d="M147.048 53.9911C146.634 53.9911 146.271 53.9113 145.957 53.7518C145.644 53.5863 145.399 53.3559 145.222 53.0604C145.05 52.765 144.965 52.4252 144.965 52.0411V49.5948C144.965 49.2107 145.05 48.8709 145.222 48.5755C145.399 48.28 145.644 48.0525 145.957 47.893C146.271 47.7275 146.634 47.6448 147.048 47.6448C147.455 47.6448 147.816 47.7245 148.129 47.8841C148.448 48.0436 148.693 48.2682 148.865 48.5577C149.036 48.8414 149.122 49.1634 149.122 49.5239V49.6391C149.122 49.6982 149.092 49.7277 149.033 49.7277H148.581C148.522 49.7277 148.492 49.6982 148.492 49.6391V49.5327C148.492 49.1368 148.359 48.8148 148.094 48.5666C147.834 48.3184 147.485 48.1943 147.048 48.1943C146.61 48.1943 146.259 48.3214 145.993 48.5755C145.727 48.8295 145.594 49.1634 145.594 49.577V52.0589C145.594 52.4725 145.73 52.8063 146.002 53.0604C146.274 53.3145 146.631 53.4416 147.074 53.4416C147.506 53.4416 147.848 53.3234 148.102 53.087C148.362 52.8507 148.492 52.5345 148.492 52.1386V51.332C148.492 51.3084 148.481 51.2966 148.457 51.2966H147.154C147.095 51.2966 147.065 51.267 147.065 51.2079V50.8357C147.065 50.7766 147.095 50.747 147.154 50.747H149.033C149.092 50.747 149.122 50.7766 149.122 50.8357V51.9791C149.122 52.6113 148.933 53.1048 148.554 53.4593C148.182 53.8138 147.68 53.9911 147.048 53.9911Z" fill="white"/>
<path d="M153.549 53.9113C153.49 53.9113 153.461 53.8818 153.461 53.8227V51.1991C153.461 51.1754 153.458 51.1607 153.452 51.1548L151.608 47.822C151.596 47.7984 151.591 47.7807 151.591 47.7689C151.591 47.7334 151.617 47.7157 151.67 47.7157H152.149C152.202 47.7157 152.238 47.7364 152.255 47.7777L153.744 50.4811C153.75 50.487 153.759 50.49 153.771 50.49C153.783 50.49 153.792 50.487 153.798 50.4811L155.296 47.7777C155.319 47.7364 155.355 47.7157 155.402 47.7157H155.881C155.916 47.7157 155.94 47.7275 155.951 47.7511C155.963 47.7689 155.96 47.7925 155.943 47.822L154.099 51.1548C154.093 51.1607 154.09 51.1754 154.09 51.1991V53.8227C154.09 53.8818 154.061 53.9113 154.001 53.9113H153.549Z" fill="white"/>
</svg>
