<svg width="215" height="80" viewBox="0 0 215 80" fill="none" xmlns="http://www.w3.org/2000/svg">
<path d="M57 31H51L42 49H48L57 31Z" fill="white"/>
<path d="M64 31H58L49 49H55L64 31Z" fill="white"/>
<path d="M77 40L72 31L69 36L71 40H77Z" fill="white"/>
<path d="M72 31H66L57 49H63L72 31Z" fill="white"/>
<path fill-rule="evenodd" clip-rule="evenodd" d="M169.6 32.103C169.6 31.8045 169.709 31.5493 169.929 31.337C170.032 31.2345 170.156 31.1535 170.292 31.0988C170.429 31.0441 170.575 31.017 170.723 31.0191C171.033 31.0191 171.298 31.1252 171.517 31.337C171.737 31.5493 171.847 31.8045 171.847 32.103C171.847 32.4021 171.737 32.6573 171.517 32.8691C171.414 32.9717 171.291 33.0529 171.154 33.1076C171.018 33.1623 170.871 33.1893 170.723 33.187C170.575 33.1893 170.429 33.1622 170.292 33.1075C170.156 33.0528 170.032 32.9717 169.929 32.8691C169.823 32.77 169.739 32.6508 169.682 32.5191C169.625 32.3873 169.597 32.2457 169.6 32.103V32.103ZM169.749 32.103C169.749 32.3689 169.844 32.5955 170.03 32.7808C170.218 32.9666 170.449 33.06 170.723 33.06C170.997 33.06 171.227 32.9666 171.416 32.7808C171.604 32.5955 171.698 32.3679 171.698 32.1005C171.698 31.8361 171.604 31.6116 171.416 31.4253C171.228 31.239 170.997 31.1467 170.723 31.1467C170.449 31.1467 170.219 31.2395 170.03 31.4253C169.939 31.5145 169.867 31.6204 169.819 31.7368C169.771 31.8532 169.747 31.9777 169.749 32.103V32.103ZM171.131 32.7481L170.737 32.1755H170.454V32.7481H170.303V31.459H170.816C171.106 31.459 171.251 31.5784 171.251 31.8173C171.251 32.0199 171.139 32.1393 170.914 32.176L171.316 32.7486H171.131V32.7481ZM170.454 31.5861V32.0484H170.786C170.996 32.0484 171.101 31.9709 171.101 31.8142C171.101 31.6621 170.996 31.5861 170.786 31.5861H170.454ZM82.4845 42.8327C82.5771 44.6276 84.716 44.895 85.8781 44.895C87.4814 44.895 89.2229 44.4918 89.2229 43.3716C89.2229 42.4509 88.6879 42.137 85.2267 41.6895C81.4162 41.197 79.4196 40.7719 79.4196 38.0593C79.4196 34.6747 83.5058 34.2287 85.5754 34.2287C87.4814 34.2287 92.0566 34.4997 92.2429 38.3084H88.898C88.6419 36.536 86.5057 36.3328 85.4145 36.3328C83.6 36.3328 82.6248 37.0744 82.6248 37.7006C82.6248 38.6636 82.9264 38.8228 86.0162 39.2485C90.0606 39.8109 92.708 40.1906 92.708 42.946C92.708 45.9698 89.7113 47.0007 85.8998 47.0007C83.2751 47.0007 79.1169 46.4597 79 42.8321H82.4845V42.8327V42.8327Z" fill="white"/>
<path fill-rule="evenodd" clip-rule="evenodd" d="M94.7532 36.9165H92.1974V34.673H94.7532V31H97.9589V34.673H101.305V36.9165H97.9589V42.3374C97.9589 43.7067 98.0298 44.4432 99.1199 44.4432C99.911 44.4432 100.655 44.4253 101.421 44.4008V46.6407C100.563 46.7561 99.9343 46.8214 98.958 46.8214C95.0543 46.8214 94.7532 45.4746 94.7532 43.2367V36.9165V36.9165ZM104.766 39.4259C105.301 37.0073 107.39 36.3316 108.879 36.3316C110.459 36.3316 112.642 37.0507 113.037 39.4259H104.766ZM116.381 41.3989V40.9518C116.381 37.4774 114.292 34.2269 108.834 34.2269C104.463 34.2269 101.421 36.7608 101.421 40.7252C101.421 43.8843 103.489 46.9995 109.041 46.9995C113.733 46.9995 115.408 44.3773 116.104 43.055H112.62C111.992 44.041 111.063 44.7586 108.949 44.7586C105.765 44.7586 104.837 42.7202 104.767 41.3984H116.381V41.3989V41.3989ZM115.522 34.673H119.006L122.168 43.3699H122.214L125.164 34.673H128.511L131.461 43.3699H131.508L134.665 34.673H138.15L133.48 46.5524H129.856L126.861 38.3072H126.814L123.817 46.5524H120.193L115.522 34.673ZM147.702 41.7786C147.702 44.4008 144.799 45.029 143.079 45.029C141.986 45.029 140.497 44.7371 140.497 43.1663C140.497 42.1583 141.078 41.6454 143.496 41.377C145.774 41.1305 146.772 41.0197 147.702 40.637V41.7786V41.7786ZM150.907 38.2169C150.907 36.67 150.719 34.2275 144.283 34.2275C140.639 34.2275 138.244 35.192 137.78 38.3072H140.917C141.035 36.9808 142.171 36.3316 144.283 36.3316C146.144 36.3316 147.77 36.67 147.77 38.0357C147.77 38.9579 147.282 39.1136 142.682 39.5361C140.64 39.7173 137.154 40.0062 137.154 43.2796C137.154 45.6088 138.963 46.9995 142.171 46.9995C145.774 46.9995 147.329 45.9461 147.956 45.3628C148.046 45.8109 148.28 46.8877 150.371 46.8877C151.466 46.8877 152.024 46.7321 152.65 46.6218V44.4426C152.393 44.4901 151.905 44.5131 151.604 44.5131C151.393 44.5131 150.907 44.4901 150.907 43.8394V38.2169V38.2169ZM153.113 34.673H156.322V36.9803H156.364C157.225 35.6401 158.552 34.3607 161.012 34.3607C161.499 34.3607 161.872 34.4061 162.287 34.476V37.5202C161.408 37.2543 160.805 37.2309 160.247 37.2309C158.62 37.2309 156.322 38.0576 156.322 40.8176V46.5519H153.113V34.673ZM165.334 36.9165H162.777V34.673H165.334V31H168.542V34.673H171.883V36.9165H168.542V42.3374C168.542 43.7067 168.609 44.4432 169.701 44.4432C170.49 44.4432 171.235 44.4253 172 44.4008V46.6407C171.141 46.7561 170.515 46.8214 169.542 46.8214C165.634 46.8214 165.334 45.4746 165.334 43.2367V36.9165V36.9165Z" fill="white"/>
</svg>
