<svg width="215" height="80" viewBox="0 0 215 80" fill="none" xmlns="http://www.w3.org/2000/svg">
<path d="M74.3084 35.8289H74.2589V34.5007H70.7338V47.0582H74.4866V40.16C74.4866 38.2571 75.7046 37.9003 77.4473 37.8507V34.0647C75.2788 34.0647 74.6253 35.2243 74.3084 35.8289Z" fill="white"/>
<path d="M109.263 35.8289H109.213V34.5007H105.688V47.0582H109.441V40.16C109.441 38.2571 110.659 37.9003 112.402 37.8507V34.0647C110.233 34.0647 109.579 35.2243 109.263 35.8289V35.8289Z" fill="white"/>
<path d="M88.7654 35.1549C88.092 34.5701 86.7552 34.0647 85.5571 34.0647C83.3192 34.0647 82.5271 35.2144 82.1409 35.8289H82.0914V34.5007H78.5861V47.0582H82.3389V40.2294C82.3389 39.4564 82.3389 37.603 84.4877 37.603C86.4582 37.603 86.4582 39.3275 86.4582 40.2096V47.0682H90.2111V39.2185C90.2111 36.7407 89.4387 35.7397 88.7654 35.1549V35.1549Z" fill="white"/>
<path d="M171.626 40.9133C171.626 37.0876 168.823 34.0547 165.001 34.0547C161.179 34.0547 158.426 37.2858 158.426 40.7944C158.426 44.5309 161.476 47.4448 165.071 47.4448C166.358 47.4448 167.605 47.0582 168.645 46.3149C169.705 45.5914 170.586 44.5011 171.2 43.1037H167.358C166.833 43.7578 166.229 44.2831 165.071 44.2831C163.605 44.2831 162.357 43.401 162.13 41.9044H171.537C171.586 41.617 171.626 41.4088 171.626 40.9133V40.9133ZM162.179 39.3771C162.338 38.6337 163.08 37.2263 165.031 37.2263C166.982 37.2263 167.724 38.6337 167.883 39.3771H162.179Z" fill="white"/>
<path d="M155.832 35.145C155.149 34.5602 153.822 34.0547 152.614 34.0547C150.376 34.0547 149.584 35.2144 149.198 35.8189H149.148V34.5107H145.643V47.0682H149.396V40.2294C149.396 39.4564 149.396 37.603 151.544 37.603C153.515 37.603 153.515 39.3275 153.515 40.2096V47.0781H157.268V39.2185C157.278 36.7308 156.505 35.7396 155.832 35.145V35.145Z" fill="white"/>
<path d="M125.413 34.5008H123.561V37.3453H125.413V47.0583H129.166V37.3453H130.968V34.5008H129.166V31.2499L125.413 33.4105V34.5008Z" fill="white"/>
<path d="M118.63 39.2581C117.64 38.9608 116.709 38.5842 116.709 37.9003C116.709 37.5633 116.976 37.0678 117.769 37.0678C118.878 37.0678 118.917 37.7417 118.937 38.0192H122.611C122.294 34.7188 119.452 34.0647 117.808 34.0647C115.214 34.0647 112.956 35.7099 112.956 38.1976C112.956 39.8924 114.313 40.9529 115.937 41.4683C118.323 42.3901 119.254 42.509 119.254 43.4803C119.254 44.0849 118.581 44.4516 117.947 44.4516C117.788 44.4516 116.679 44.4516 116.531 43.3019H112.808C113.144 46.6023 116.006 47.4547 117.907 47.4547C120.68 47.4547 123.007 45.8293 123.007 43.1929C123.007 40.4772 120.749 39.8429 118.63 39.2581V39.2581Z" fill="white"/>
<path d="M137.751 34.0746C133.176 34.0746 130.988 37.6723 130.988 40.7547C130.988 43.8371 133.186 47.4349 137.751 47.4349C142.326 47.4349 144.514 43.8371 144.514 40.7547C144.514 37.6723 142.316 34.0746 137.751 34.0746V34.0746ZM137.751 43.9263C136.117 43.9263 134.741 42.5883 134.741 40.7547C134.741 38.9212 136.117 37.5831 137.751 37.5831C139.385 37.5831 140.761 38.9212 140.761 40.7547C140.761 42.5883 139.375 43.9263 137.751 43.9263V43.9263Z" fill="white"/>
<path d="M104.549 40.9133C104.549 37.0876 101.747 34.0547 97.9248 34.0547C94.1026 34.0547 91.3499 37.2858 91.3499 40.7944C91.3499 44.5309 94.3997 47.4448 97.9941 47.4448C99.2814 47.4448 100.529 47.0582 101.569 46.3149C102.628 45.5914 103.51 44.5011 104.123 43.1037H100.282C99.7567 43.7578 99.1527 44.2831 97.9941 44.2831C96.5286 44.2831 95.281 43.401 95.0532 41.9044H104.46C104.5 41.617 104.549 41.4088 104.549 40.9133V40.9133ZM95.1027 39.3771C95.2612 38.6337 96.0038 37.2263 97.9545 37.2263C99.9052 37.2263 100.648 38.6337 100.806 39.3771H95.1027Z" fill="white"/>
<path d="M62.8517 34.0944C60.8416 34.0944 59.2969 34.7882 58.1878 35.8289V27.3746L42.3743 36.5326V52.4598L51.6723 47.0781C48.9195 46.2554 46.9886 43.7182 46.9886 40.6953C46.9886 37.038 49.8404 34.0746 53.5636 34.0746C55.3756 34.0746 56.9996 34.7386 58.1977 35.8289C59.178 36.7308 59.8811 37.93 60.1782 39.2978H58.1977H56.4154C55.9896 38.4454 55.2469 37.5435 53.7022 37.5435C51.9297 37.4543 50.7415 38.9112 50.7415 40.7052C50.7415 42.5189 51.9297 43.8668 53.7022 43.8668C55.2469 43.8668 55.9896 42.9649 56.3956 42.2018H58.2076H60.188C59.8712 43.5199 59.1681 44.7192 58.1581 45.631C59.2672 46.7014 60.8317 47.415 62.8715 47.415C67.4364 47.415 69.6346 43.8173 69.6346 40.7448C69.6148 37.6922 67.4166 34.0944 62.8517 34.0944V34.0944ZM62.8517 43.9362C61.2278 43.9362 59.8415 42.5982 59.8415 40.7646C59.8415 38.9311 61.2179 37.593 62.8517 37.593C64.4756 37.593 65.8619 38.9311 65.8619 40.7646C65.8619 42.5982 64.4855 43.9362 62.8517 43.9362V43.9362Z" fill="white"/>
</svg>
