<svg width="356" height="220" viewBox="0 0 356 220" fill="none" xmlns="http://www.w3.org/2000/svg">
<g clip-path="url(#clip0_3219_439)">
<path fill-rule="evenodd" clip-rule="evenodd" d="M11.0184 122.09V117.85C11.0184 117.292 11.367 116.845 11.9446 116.845H12.1044C12.6817 116.845 13.0288 117.293 13.0288 117.85V126.777C13.0288 128.954 11.9521 130.686 10.0758 131.79C9.21626 132.298 8.23515 132.566 7.23612 132.563H6.83735C4.65749 132.563 2.92568 131.487 1.81914 129.614C1.3092 128.756 1.04166 127.775 1.04495 126.777V126.379C1.04495 124.201 2.12218 122.47 3.99694 121.365C4.85628 120.855 5.83793 120.588 6.83735 120.591H7.23612C8.71134 120.591 9.96291 121.162 11.0184 122.09ZM3.05514 126.578C3.05514 128.15 3.81818 129.333 5.19765 130.087C5.75546 130.392 6.36101 130.555 6.99743 130.555C8.5427 130.555 9.68893 129.827 10.4795 128.519C10.8471 127.911 11.0184 127.245 11.0184 126.537C11.0184 125.174 10.3723 124.11 9.27252 123.32C8.60574 122.841 7.85516 122.601 7.03661 122.601C5.35228 122.601 4.14015 123.451 3.41266 124.961C3.16723 125.471 3.05514 126.013 3.05514 126.578ZM20.0032 120.591H20.2819C22.6112 120.591 24.3827 121.72 25.5053 123.751C25.9542 124.563 26.1944 125.45 26.1944 126.379V126.777C26.1944 128.954 25.1198 130.689 23.2406 131.79C22.3707 132.3 21.4097 132.563 20.4015 132.563H20.0032C17.8234 132.563 16.091 131.487 14.985 129.614C14.4748 128.756 14.207 127.775 14.2101 126.777V126.379C14.2101 124.201 15.2917 122.476 17.1618 121.365C18.0312 120.849 18.993 120.591 20.0032 120.591ZM16.2205 126.578C16.2205 128.104 16.9703 129.227 18.2611 130.017C18.8671 130.387 19.5347 130.555 20.2427 130.555C21.7527 130.555 22.8688 129.791 23.6456 128.518C24.0161 127.911 24.1837 127.244 24.1837 126.537C24.1837 125.118 23.4993 124.033 22.3292 123.248C21.6881 122.817 20.9744 122.601 20.2022 122.601C18.5179 122.601 17.3058 123.451 16.5785 124.961C16.3326 125.471 16.2205 126.013 16.2205 126.578ZM34.552 122.761C34.2484 122.619 33.6802 122.572 33.3523 122.559C31.6726 122.496 30.4574 123.441 29.7444 124.921C29.4982 125.432 29.3859 125.972 29.3859 126.537C29.3859 128.257 30.29 129.461 31.827 130.196C32.3884 130.464 33.1133 130.514 33.7269 130.514C34.2666 130.514 35.0293 130.184 35.5083 129.957L35.5913 129.918H35.9631L36.0041 129.926C36.4612 130.021 36.8063 130.31 36.8063 130.802V131.001C36.8063 132.223 34.5693 132.503 33.7158 132.563C30.7036 132.771 28.4508 131.119 27.5921 128.249C27.4429 127.75 27.3757 127.255 27.3757 126.736V126.339C27.3757 124.161 28.4576 122.436 30.3274 121.326C31.1968 120.811 32.1583 120.551 33.1683 120.551H33.5668C34.6384 120.551 35.6253 120.855 36.51 121.459L36.5826 121.509L36.6286 121.585C36.724 121.743 36.8063 121.926 36.8063 122.114V122.313C36.8063 122.826 36.4223 123.101 35.9589 123.191L35.9205 123.197H35.8017C35.5018 123.197 34.8197 122.887 34.552 122.761ZM41.0729 124.121C41.8538 123.34 42.6373 122.56 43.43 121.792C43.6507 121.578 44.4869 120.671 44.8162 120.671H45.1763L45.2173 120.679C45.676 120.774 46.0195 121.064 46.0195 121.557V121.755C46.0195 122.091 45.6257 122.481 45.4085 122.711C44.9467 123.2 44.4605 123.673 43.9878 124.152L41.5588 126.615C42.6047 127.662 43.6494 128.71 44.6867 129.765C44.9744 130.056 45.2599 130.35 45.5431 130.645C45.643 130.75 45.7904 130.881 45.8742 131.026C45.9642 131.163 46.0195 131.316 46.0195 131.48V131.688L46.0078 131.736C45.895 132.194 45.6039 132.563 45.0956 132.563H44.9355C44.6029 132.563 44.2272 132.188 43.9994 131.973C43.5298 131.531 43.0766 131.066 42.6163 130.614L41.0729 129.1V131.519C41.0729 132.077 40.7237 132.525 40.1469 132.525H39.9887C39.4111 132.525 39.0624 132.077 39.0624 131.519V117.889C39.0624 117.331 39.4114 116.886 39.9887 116.886H40.1469C40.7237 116.886 41.0729 117.331 41.0729 117.889V124.121ZM66.1294 120.671H66.3292C66.9322 120.671 67.3346 121.077 67.3346 121.675C67.3346 122.507 66.5388 122.72 65.8505 122.72C64.9477 122.72 64.0855 123.266 63.4631 123.878C62.6871 124.642 62.3475 125.621 62.3475 126.697V131.559C62.3475 132.116 61.9991 132.563 61.4213 132.563H61.2625C60.6847 132.563 60.3365 132.116 60.3365 131.559V126.418C60.3365 124.444 61.2985 122.833 62.9024 121.702C63.8601 121.027 64.957 120.671 66.1294 120.671ZM51.8407 130.305C52.5723 130.561 53.4065 130.524 54.157 130.393C54.541 130.23 55.5228 129.803 55.8839 129.865L55.9402 129.875L55.9921 129.9C56.2126 130.007 56.423 130.158 56.5356 130.382C56.7987 130.908 56.6724 131.436 56.1555 131.734L55.9835 131.833C54.0766 132.933 52.0482 132.78 50.1473 131.753C49.2384 131.263 48.5431 130.534 48.0302 129.646L47.9103 129.438C46.686 127.321 46.8513 125.093 48.2321 123.079C48.7087 122.383 49.3316 121.845 50.0598 121.424L50.3354 121.265C52.1313 120.23 54.0561 120.301 55.9005 121.21C56.8924 121.699 57.6959 122.427 58.2495 123.385L58.3492 123.558C58.7513 124.254 58.2303 124.86 57.6925 125.275C57.0683 125.756 56.4381 126.335 55.8398 126.851C54.5057 128.001 53.1737 129.154 51.8407 130.305ZM50.1141 129.094C51.6059 127.816 53.0982 126.537 54.5862 125.254C55.0947 124.816 55.6522 124.362 56.1566 123.901C55.7518 123.392 55.0757 123.024 54.5013 122.805C53.3416 122.364 52.1982 122.512 51.1347 123.125C49.7428 123.928 49.15 125.207 49.2019 126.798C49.2226 127.424 49.3913 128.028 49.7241 128.561C49.8414 128.749 49.9724 128.926 50.1141 129.094ZM39.2645 88.852H45.197V94.9099H48.1965C49.5819 94.9099 51.0066 94.6635 52.3183 94.2195C52.9631 94.0011 53.6864 93.6973 54.3223 93.315C53.4848 92.2229 53.0572 90.8439 52.9317 89.4846C52.7604 87.6355 53.134 85.2289 54.3866 83.7818L55.0103 83.0613L55.7534 83.6581C57.6243 85.1595 59.1978 87.2576 59.4752 89.6495C61.7279 88.9876 64.373 89.1441 66.3585 90.2888L67.1732 90.7584L66.7446 91.5945C65.0652 94.8682 61.5541 95.8826 58.1216 95.703C52.9854 108.482 41.803 114.532 28.2446 114.532C21.2395 114.532 14.813 111.916 11.1533 105.708L11.0933 105.607L10.5602 104.523C9.32311 101.791 8.91215 98.7971 9.19079 95.8059L9.27459 94.9099H14.3478V88.852H20.2801V82.926H32.1453V77H39.2645V88.852Z" fill="#364548"/>
<path fill-rule="evenodd" clip-rule="evenodd" d="M58.4863 91.0931C58.884 88.0049 56.5705 85.5794 55.1358 84.4277C53.4823 86.3372 53.2255 91.3416 55.8194 93.4486C54.3717 94.733 51.3214 95.8972 48.1979 95.8972H10.1773C9.87378 99.1541 10.4461 102.153 11.7535 104.72L12.186 105.511C12.4598 105.975 12.7591 106.423 13.0824 106.854C14.6455 106.954 16.0867 106.989 17.4053 106.96H17.4058C19.9969 106.903 22.1111 106.597 23.7134 106.042C23.8267 106.007 23.9493 106.017 24.0551 106.071C24.161 106.124 24.242 106.217 24.2808 106.329C24.3197 106.441 24.3134 106.563 24.2634 106.671C24.2133 106.778 24.1234 106.862 24.0126 106.904C23.7993 106.979 23.5772 107.047 23.3479 107.113H23.3471C22.0854 107.473 20.7324 107.715 18.9868 107.823C19.0906 107.824 18.8789 107.838 18.8784 107.838C18.819 107.842 18.7443 107.851 18.6846 107.854C17.9976 107.892 17.2561 107.9 16.498 107.9C15.6688 107.9 14.8523 107.885 13.9393 107.838L13.916 107.854C17.0838 111.41 22.0372 113.544 28.2462 113.544C41.3867 113.544 52.5325 107.725 57.4682 94.662C60.9697 95.021 64.335 94.1289 65.8657 91.1439C63.4274 89.7384 60.2918 90.1865 58.4863 91.0931Z" fill="#22A0C8"/>
<path fill-rule="evenodd" clip-rule="evenodd" d="M58.4854 91.0931C58.8832 88.0049 56.5697 85.5794 55.1349 84.4277C53.4815 86.3372 53.2246 91.3416 55.8186 93.4486C54.3709 94.733 51.3206 95.8972 48.1971 95.8972H12.428C12.2729 100.885 14.1258 104.671 17.4042 106.96H17.405C19.9961 106.903 22.1103 106.597 23.7126 106.042C23.8259 106.007 23.9485 106.017 24.0543 106.071C24.1602 106.124 24.2412 106.217 24.28 106.329C24.3189 106.441 24.3126 106.563 24.2626 106.671C24.2125 106.778 24.1226 106.862 24.0118 106.904C23.7985 106.979 23.5764 107.047 23.3471 107.113H23.3463C22.0846 107.473 20.6154 107.746 18.8698 107.854C18.8693 107.854 18.8275 107.814 18.827 107.814C23.2991 110.105 29.7834 110.097 37.2178 107.244C45.5538 104.045 53.311 97.9508 58.7233 90.9801C58.6419 91.0169 58.5625 91.0545 58.4854 91.0931Z" fill="#37B1D9"/>
<path fill-rule="evenodd" clip-rule="evenodd" d="M10.2471 99.8545C10.4832 101.599 10.9943 103.233 11.7519 104.721L12.1844 105.511C12.4582 105.975 12.7575 106.423 13.0808 106.854C14.6442 106.955 16.0855 106.989 17.4042 106.96C19.9953 106.903 22.1096 106.597 23.7119 106.043C23.8252 106.008 23.9477 106.018 24.0536 106.071C24.1595 106.125 24.2404 106.217 24.2793 106.329C24.3181 106.441 24.3119 106.564 24.2618 106.671C24.2118 106.779 24.1218 106.862 24.011 106.905C23.7978 106.979 23.5757 107.048 23.3463 107.113H23.3456C22.0839 107.473 20.6224 107.731 18.8768 107.839C18.8169 107.842 18.7124 107.843 18.6519 107.847C17.9654 107.885 17.2314 107.908 16.4731 107.908C15.6441 107.908 14.7963 107.893 13.8838 107.846C17.0516 111.403 22.0356 113.544 28.2447 113.544C39.4943 113.544 49.2817 109.279 54.9622 99.8545H10.2471Z" fill="#1B81A5"/>
<path fill-rule="evenodd" clip-rule="evenodd" d="M12.7705 99.8545C13.4429 102.918 15.059 105.323 17.4052 106.96C19.9963 106.903 22.1105 106.597 23.7129 106.043C23.8262 106.008 23.9487 106.018 24.0546 106.071C24.1605 106.125 24.2414 106.217 24.2803 106.329C24.3191 106.441 24.3129 106.564 24.2628 106.671C24.2127 106.779 24.1228 106.862 24.012 106.905C23.7987 106.979 23.5767 107.048 23.3473 107.113H23.3465C22.0848 107.473 20.5925 107.731 18.8467 107.839C23.3185 110.13 29.7842 110.097 37.2181 107.245C41.7153 105.518 46.0437 102.949 49.9268 99.8545H12.7705Z" fill="#1D91B4"/>
<path fill-rule="evenodd" clip-rule="evenodd" d="M15.3369 89.8401H20.4786V94.9762H15.3369V89.8401ZM15.7652 90.2682H16.171V94.5483H15.7652V90.2682ZM16.528 90.2682H16.9501V94.5483H16.5282V90.2682H16.528ZM17.3068 90.2682H17.729V94.5483H17.3068V90.2682ZM18.0862 90.2682H18.5081V94.5483H18.0862V90.2682ZM18.8653 90.2682H19.2872V94.5483H18.8653V90.2682ZM19.6442 90.2682H20.0502V94.5483H19.6442V90.2682ZM21.2694 83.9141H26.4113V89.0499H21.2691V83.9141H21.2694ZM21.698 84.3422H22.1035V88.622H21.698V84.3422ZM22.4607 84.3422H22.8826V88.622H22.461V84.3422H22.4607ZM23.2396 84.3422H23.6615V88.622H23.2396V84.3422ZM24.0187 84.3422H24.4406V88.622H24.0187V84.3422ZM24.7978 84.3422H25.2199V88.622H24.7978V84.3422ZM25.5767 84.3422H25.983V88.622H25.5767V84.3422Z" fill="#23A3C2"/>
<path fill-rule="evenodd" clip-rule="evenodd" d="M21.2698 89.8389H26.4118V94.975H21.2695V89.8389H21.2698ZM21.6984 90.267H22.1039V94.5471H21.6984V90.267ZM22.4612 90.267H22.883V94.5471H22.4614V90.267H22.4612ZM23.24 90.267H23.6619V94.5471H23.24V90.267ZM24.0191 90.267H24.441V94.5471H24.0191V90.267ZM24.7983 90.267H25.2204V94.5471H24.7983V90.267ZM25.5771 90.267H25.9834V94.5471H25.5771V90.267Z" fill="#34BBDE"/>
<path fill-rule="evenodd" clip-rule="evenodd" d="M27.2021 89.8389H32.3438V94.975H27.2021V89.8389ZM27.6305 90.267H28.036V94.5471H27.6305V90.267ZM28.3932 90.267H28.8151V94.5471H28.3932V90.267ZM29.1724 90.267H29.5942V94.5471H29.1724V90.267ZM29.9515 90.267H30.3733V94.5471H29.9515V90.267ZM30.7303 90.267H31.1527V94.5471H30.7303V90.267ZM31.5094 90.267H31.9152V94.5471H31.5094V90.267Z" fill="#23A3C2"/>
<path fill-rule="evenodd" clip-rule="evenodd" d="M27.2021 83.9141H32.3438V89.0499H27.2021V83.9141ZM27.6305 84.3422H28.036V88.622H27.6305V84.3422ZM28.3932 84.3422H28.8151V88.622H28.3932V84.3422ZM29.1724 84.3422H29.5942V88.622H29.1724V84.3422ZM29.9515 84.3422H30.3733V88.622H29.9515V84.3422ZM30.7303 84.3422H31.1527V88.622H30.7303V84.3422ZM31.5095 84.3422H31.9152V88.622H31.5095V84.3422ZM33.1346 89.8401H38.2763V94.9762H33.1346V89.8401ZM33.5632 90.2682H33.9688V94.5483H33.5632V90.2682ZM34.326 90.2682H34.7479V94.5483H34.326V90.2682ZM35.1049 90.2682H35.5267V94.5483H35.1049V90.2682ZM35.884 90.2682H36.3061V94.5483H35.884V90.2682ZM36.6631 90.2682H37.0852V94.5483H36.6631V90.2682ZM37.4422 90.2682H37.848V94.5483H37.4422V90.2682Z" fill="#34BBDE"/>
<path fill-rule="evenodd" clip-rule="evenodd" d="M33.1348 83.9141H38.2765V89.0499H33.1348V83.9141ZM33.5634 84.3422H33.9689V88.622H33.5634V84.3422ZM34.3261 84.3422H34.748V88.622H34.3261V84.3422ZM35.105 84.3422H35.5269V88.622H35.105V84.3422ZM35.8841 84.3422H36.3062V88.622H35.8841V84.3422ZM36.6632 84.3422H37.0854V88.622H36.6632V84.3422ZM37.4424 84.3422H37.8481V88.622H37.4424V84.3422Z" fill="#23A3C2"/>
<path fill-rule="evenodd" clip-rule="evenodd" d="M33.1348 77.9873H38.2765V83.1239H33.1348V77.9873ZM33.5634 78.4152H33.9689V82.6956H33.5634V78.415V78.4152ZM34.3261 78.4152H34.748V82.6956H34.3261V78.415V78.4152ZM35.105 78.4152H35.5269V82.6956H35.105V78.415V78.4152ZM35.8841 78.4152H36.3062V82.6956H35.8841V78.415V78.4152ZM36.6632 78.4152H37.0854V82.6956H36.6632V78.415V78.4152ZM37.4424 78.4152H37.8481V82.6956H37.4424V78.415V78.4152Z" fill="#34BBDE"/>
<path fill-rule="evenodd" clip-rule="evenodd" d="M39.0674 89.8389H44.209V94.975H39.0674V89.8389ZM39.4954 90.267H39.9015V94.5471H39.4957V90.267H39.4954ZM40.2582 90.267H40.6803V94.5471H40.2585V90.267H40.2582ZM41.0376 90.267H41.4597V94.5471H41.0376V90.267ZM41.8164 90.267H42.2386V94.5471H41.8164V90.267ZM42.5958 90.267H43.0177V94.5471H42.5958V90.267ZM43.3747 90.267H43.7804V94.5471H43.3747V90.267Z" fill="#23A3C2"/>
<path fill-rule="evenodd" clip-rule="evenodd" d="M26.0892 103.303C26.2771 103.301 26.4636 103.336 26.6379 103.406C26.8123 103.476 26.9709 103.58 27.1046 103.712C27.2384 103.844 27.3446 104.001 27.417 104.174C27.4895 104.347 27.5268 104.533 27.5268 104.721C27.5267 104.908 27.4894 105.094 27.4168 105.267C27.3443 105.44 27.2381 105.598 27.1043 105.729C26.9705 105.861 26.8118 105.965 26.6375 106.035C26.4631 106.105 26.2766 106.14 26.0887 106.137C25.7158 106.132 25.3599 105.981 25.098 105.715C24.8362 105.45 24.6894 105.093 24.6895 104.72C24.6895 104.348 24.8365 103.99 25.0984 103.725C25.3604 103.46 25.7163 103.308 26.0892 103.303Z" fill="#D3ECEC"/>
<path fill-rule="evenodd" clip-rule="evenodd" d="M26.0895 103.705C26.2192 103.705 26.343 103.729 26.4571 103.773C26.3784 103.819 26.3168 103.889 26.2821 103.973C26.2473 104.058 26.2412 104.151 26.2648 104.239C26.2884 104.327 26.3402 104.404 26.4124 104.46C26.4846 104.515 26.5731 104.545 26.6642 104.546C26.8211 104.546 26.9573 104.459 27.0279 104.33C27.1115 104.531 27.1281 104.754 27.0753 104.965C27.0225 105.176 26.9031 105.365 26.7347 105.503C26.5663 105.641 26.3579 105.722 26.1402 105.733C25.9226 105.743 25.7072 105.684 25.5259 105.563C25.3447 105.442 25.2071 105.266 25.1336 105.062C25.0601 104.857 25.0545 104.633 25.1177 104.425C25.1809 104.217 25.3094 104.034 25.4844 103.905C25.6594 103.775 25.8716 103.705 26.0895 103.705ZM1 100.366H66.9842C65.5477 100.003 62.4387 99.5109 62.9514 97.6299C60.3388 100.649 54.0386 99.7486 52.4485 98.2597C50.678 100.825 40.3702 99.8497 39.6513 97.8513C37.4315 100.453 30.5533 100.453 28.3335 97.8513C27.614 99.8497 17.3065 100.825 15.5357 98.2594C13.9459 99.7486 7.64598 100.649 5.03335 97.6302C5.54602 99.5109 2.43707 100.003 1 100.367" fill="#364548"/>
<path fill-rule="evenodd" clip-rule="evenodd" d="M29.86 113.514C26.3471 111.848 24.4192 109.585 23.3464 107.114C22.0414 107.486 20.473 107.724 18.6504 107.826C17.9639 107.864 17.2416 107.884 16.484 107.884C15.6102 107.884 14.6894 107.858 13.7227 107.807C16.9443 111.023 20.9073 113.499 28.2455 113.544C28.7872 113.544 29.3248 113.534 29.86 113.514Z" fill="#BDD9D7"/>
<path fill-rule="evenodd" clip-rule="evenodd" d="M24.6511 109.393C24.1652 108.734 23.6937 107.906 23.3471 107.113C22.0421 107.485 20.4732 107.723 18.6504 107.825C19.9024 108.504 21.6929 109.133 24.6514 109.393" fill="#D3ECEC"/>
<path d="M188.02 193.575C188.02 203.68 180.082 211.871 170.289 211.871C160.497 211.871 152.558 203.68 152.558 193.575C152.558 183.471 160.497 175.28 170.289 175.28C180.082 175.28 188.02 183.471 188.02 193.576" fill="#D33833"/>
<path d="M153.281 198.107C153.281 198.107 151.997 179.027 169.425 178.482L168.209 176.438L158.753 179.64L156.05 182.775L153.686 187.341L152.335 192.655L152.74 196.199" fill="#EF3D3A"/>
<path d="M158.145 181.095C155.034 184.306 153.109 188.739 153.109 193.644C153.109 198.547 155.034 202.981 158.145 206.192C161.258 209.402 165.547 211.384 170.289 211.384C175.031 211.384 179.321 209.402 182.433 206.192C185.544 202.982 187.469 198.548 187.469 193.644C187.469 188.739 185.544 184.306 182.433 181.095C179.321 177.885 175.031 175.904 170.289 175.903C165.547 175.904 161.258 177.885 158.145 181.095ZM157.358 206.969C154.051 203.558 152.007 198.844 152.007 193.644C152.007 188.443 154.051 183.73 157.357 180.318C160.663 176.906 165.238 174.792 170.289 174.792C175.339 174.792 179.915 176.906 183.22 180.318C186.527 183.73 188.571 188.444 188.571 193.644C188.571 198.844 186.527 203.557 183.22 206.969C179.915 210.38 175.339 212.495 170.289 212.495C165.239 212.495 160.663 210.38 157.358 206.969Z" fill="#231F20"/>
<path d="M177.753 193.678L175.051 194.087L171.404 194.496L169.039 194.564L166.743 194.496L164.987 193.95L163.433 192.247L162.217 188.772L161.947 188.022L160.326 187.477L159.38 185.91L158.705 183.661L159.448 181.685L161.204 181.072L162.623 181.753L163.298 183.252L164.108 183.116L164.379 182.776L164.108 181.208L164.041 179.232L164.446 176.507L164.431 174.95L165.662 172.963L167.824 171.396L171.606 169.761L175.794 170.374L179.442 173.032L181.13 175.757L182.211 177.733L182.481 182.639L181.671 186.864L180.185 190.612L178.766 192.588" fill="#F0D6B7"/>
<path d="M175.456 205.466L165.797 205.875V207.51L166.608 213.234L166.203 213.711L159.448 211.394L158.975 210.577L158.3 202.877L156.746 198.243L156.408 197.153L161.812 193.406L163.501 192.724L164.987 194.564L166.27 195.722L167.756 196.199L168.432 196.403L169.242 199.947L169.85 200.696L171.404 200.151L170.323 202.264L176.2 205.057L175.456 205.466Z" fill="#335061"/>
<path d="M159.448 181.684L161.204 181.071L162.623 181.752L163.298 183.251L164.108 183.115L164.311 182.297L163.906 180.73L164.311 176.982L163.973 174.938L165.189 173.507L167.823 171.395L167.081 170.373L163.365 172.213L161.812 173.439L160.934 175.347L159.583 177.187L159.178 179.367L159.448 181.684Z" fill="#6D6B6D"/>
<path d="M162.217 175.279C162.217 175.279 163.23 172.758 167.283 171.531C171.336 170.305 167.486 170.645 167.486 170.645L163.095 172.349L161.407 174.052L160.663 175.415L162.217 175.279ZM160.191 181.207C160.191 181.207 158.772 176.437 164.176 175.756L163.973 174.938L160.258 175.824L159.177 179.367L159.448 181.684L160.191 181.207Z" fill="#DCD9D8"/>
<path d="M162.352 187.544L163.236 186.68C163.236 186.68 163.636 186.727 163.703 187.203C163.77 187.681 163.973 191.973 166.878 194.29C167.143 194.502 164.716 193.949 164.716 193.949L162.555 190.543L162.352 187.544ZM174.781 186.25C174.781 186.25 174.939 184.184 175.49 184.343C176.042 184.502 176.042 185.058 176.042 185.058C176.042 185.058 174.702 185.932 174.781 186.25ZM180.387 178.686C180.387 178.686 179.274 178.923 179.172 179.913C179.069 180.902 180.387 180.117 180.59 180.049L180.387 178.686ZM172.214 178.754C172.214 178.754 170.728 178.959 170.728 179.913C170.728 180.866 172.417 180.799 172.89 180.39L172.214 178.754ZM163.028 183.183C163.028 183.183 160.461 181.616 160.191 183.115C159.92 184.614 159.312 185.704 160.596 187.272L159.718 186.999L158.907 184.887L158.637 182.843L160.191 181.207L161.947 181.343L162.96 182.161L163.028 183.183ZM164.243 178.891C164.243 178.891 165.392 172.894 171.201 171.736C175.984 170.782 178.496 171.94 179.442 173.03C179.442 173.03 175.186 167.92 171.133 169.487C167.08 171.054 164.108 173.916 164.176 175.756C164.291 178.889 164.243 178.891 164.243 178.891ZM179.914 173.712C179.914 173.712 177.956 173.644 177.888 175.415C177.888 175.415 177.888 175.688 178.023 175.96C178.023 175.96 179.577 174.189 180.522 175.143" fill="#F7E4CD"/>
<path d="M171.337 176.146C171.337 176.146 171 173.426 168.702 175.007C167.215 176.03 167.351 177.461 167.621 177.733C167.891 178.006 167.818 178.555 168.023 178.178C168.229 177.801 168.161 176.575 168.904 176.234C169.647 175.893 170.865 175.513 171.337 176.146Z" fill="#F7E4CD"/>
<path d="M164.986 194.562L158.637 197.424C158.637 197.424 161.271 207.986 159.92 211.257L158.975 210.916L158.907 206.896L157.151 199.264L156.408 197.152L163.028 192.655L164.986 194.562ZM165.639 200.404L166.54 201.513V205.601H165.459C165.459 205.601 165.324 202.739 165.324 202.399C165.324 202.058 165.459 200.831 165.459 200.831L165.639 200.404ZM165.662 206.215L162.622 206.351L163.5 206.964L165.662 207.305" fill="#49728B"/>
<path d="M176.063 205.533L178.563 205.465L179.171 211.734L176.604 212.075L176.063 205.533Z" fill="#335061"/>
<path d="M176.74 205.533L180.522 205.329C180.522 205.329 182.076 201.377 182.076 201.172C182.076 200.968 183.427 195.448 183.427 195.448L180.387 192.246L179.779 191.701L178.158 193.336V199.673L176.74 205.533Z" fill="#335061"/>
<path d="M178.427 205.056L176.063 205.533L176.401 207.441C177.279 207.85 178.765 206.76 178.765 206.76L178.427 205.056ZM178.495 193.132L183.224 196.675L183.358 195.04L179.779 191.701L178.495 193.132Z" fill="#49728B"/>
<path d="M168.006 218.958L166.608 213.233L165.912 209.009L165.797 205.874L172.127 205.534L176.064 205.533L175.706 212.689L176.314 218.208L176.247 219.23L171.113 219.639L168.006 218.958Z" fill="white"/>
<path d="M175.186 205.466C175.186 205.466 174.848 212.553 175.862 217.595C175.862 217.595 173.835 218.89 170.863 219.23L176.537 219.026L177.213 218.617L176.402 207.442L176.199 205.057" fill="#DCD9D8"/>
<path d="M179.286 211.19L181.921 210.44L186.919 210.168L187.661 207.851L186.311 203.831L184.757 203.626L182.595 204.308L180.521 205.329L179.421 205.125L178.562 205.465" fill="white"/>
<path d="M179.239 209.826C179.239 209.826 180.995 209.009 181.265 209.077L180.522 205.329L181.4 204.989C181.4 204.989 182.008 208.532 182.008 208.941C182.008 208.941 185.791 209.145 186.129 209.145C186.129 209.145 186.939 207.578 186.737 205.942L187.48 208.123L187.547 209.349L186.467 210.985L185.251 211.257L183.224 211.189L182.549 210.303L180.185 210.644L179.442 210.917" fill="#DCD9D8"/>
<path d="M176.584 204.99L175.098 201.174L173.545 198.926C173.545 198.926 173.882 197.972 174.355 197.972H175.909L177.395 198.517L177.26 201.038L176.584 204.99Z" fill="white"/>
<path d="M176.875 203.694C176.875 203.694 174.984 200.014 174.984 199.469C174.984 199.469 175.321 198.652 175.794 198.856C176.267 199.06 177.28 199.605 177.28 199.605V198.311L174.984 197.833L173.43 198.038L176.064 204.307L176.605 204.375" fill="#DCD9D8"/>
<path d="M168.614 194.7L166.743 194.495L164.987 193.949V194.563L165.845 195.517L168.547 196.744" fill="white"/>
<path d="M165.595 194.904C165.595 194.904 167.688 195.79 168.364 195.586L168.431 196.403L166.54 195.995L165.392 195.177L165.595 194.904Z" fill="#DCD9D8"/>
<path d="M179.279 198.203C178.133 198.169 177.098 198.031 176.191 197.773C176.253 197.398 176.137 197.03 176.23 196.76C176.482 196.576 176.906 196.579 177.288 196.536C176.958 196.373 176.494 196.308 176.112 196.402C176.103 196.142 175.988 195.981 175.918 195.777C176.562 195.545 178.083 194.024 178.939 194.528C179.347 194.767 179.52 196.136 179.552 196.801C179.578 197.353 179.502 197.91 179.279 198.203Z" fill="#D33833"/>
<path d="M179.279 198.203C178.133 198.169 177.098 198.031 176.191 197.773C176.253 197.398 176.137 197.03 176.23 196.76C176.482 196.576 176.906 196.579 177.288 196.536C176.958 196.373 176.494 196.308 176.112 196.402C176.103 196.142 175.988 195.981 175.918 195.777C176.562 195.545 178.083 194.024 178.939 194.528C179.347 194.767 179.52 196.136 179.552 196.801C179.578 197.353 179.502 197.91 179.279 198.203Z" stroke="#D33833" stroke-width="6.14065"/>
<path d="M173.798 196.312C173.795 196.4 173.792 196.488 173.788 196.576C173.43 196.813 172.853 196.81 172.46 197.01C173.039 197.035 173.495 197.176 173.889 197.374L173.863 198.035C173.208 198.488 172.608 199.163 171.836 199.588C171.471 199.789 170.189 200.306 169.801 200.214C169.581 200.163 169.561 199.888 169.473 199.628C169.286 199.073 168.855 198.189 168.817 197.352C168.77 196.297 168.664 194.527 169.792 194.744C170.702 194.919 171.761 195.342 172.465 195.731C172.896 195.968 173.145 196.262 173.798 196.312Z" fill="#D33833"/>
<path d="M173.798 196.312C173.795 196.4 173.792 196.488 173.788 196.576C173.43 196.813 172.853 196.81 172.46 197.01C173.039 197.035 173.495 197.176 173.889 197.374L173.863 198.035C173.208 198.488 172.608 199.163 171.836 199.588C171.471 199.789 170.189 200.306 169.801 200.214C169.581 200.163 169.561 199.888 169.473 199.628C169.286 199.073 168.855 198.189 168.817 197.352C168.77 196.297 168.664 194.527 169.792 194.744C170.702 194.919 171.761 195.342 172.465 195.731C172.896 195.968 173.145 196.262 173.798 196.312Z" stroke="#D33833" stroke-width="6.14065"/>
<path d="M174.45 197.573C174.35 196.998 174.234 196.834 174.279 196.332C175.8 195.309 176.085 198.089 174.45 197.573Z" fill="#D33833"/>
<path d="M174.45 197.573C174.35 196.998 174.234 196.834 174.279 196.332C175.8 195.309 176.085 198.089 174.45 197.573Z" stroke="#D33833" stroke-width="6.14065"/>
<path d="M176.652 198.039C176.652 198.039 176.179 197.357 176.517 197.153C176.855 196.948 177.193 197.153 177.395 196.812C177.598 196.472 177.395 196.267 177.463 195.858C177.531 195.45 177.869 195.381 178.206 195.313C178.544 195.245 179.49 195.109 179.624 195.45L179.219 194.223L178.409 193.95L175.842 195.45L175.707 196.199V197.698L176.652 198.039ZM169.56 200.287C169.478 199.224 169.393 198.162 169.297 197.1C169.154 195.513 169.675 195.79 171.038 195.79C171.246 195.79 172.32 196.041 172.397 196.199C172.765 196.958 171.781 196.789 172.821 197.362C173.699 197.845 175.251 197.068 174.896 195.994C174.697 195.756 173.861 195.92 173.562 195.763L171.979 194.936C171.307 194.584 169.756 194.072 169.04 194.563C167.226 195.807 169.154 198.916 169.801 200.214" fill="#EF3D3A"/>
<path d="M171.337 176.145C169.496 175.712 168.581 176.922 168.023 178.177C167.525 178.055 167.723 177.372 167.849 177.023C168.179 176.109 169.507 174.892 170.592 175.057C171.059 175.128 171.69 175.559 171.337 176.145ZM180.307 178.26L180.395 178.263C180.811 179.135 181.171 180.059 181.695 180.829C181.344 181.655 179.033 182.386 179.069 180.902C179.568 180.682 180.431 180.857 180.874 180.576C180.618 179.867 180.248 179.263 180.307 178.26ZM172.28 178.283C172.674 179.013 172.803 179.78 173.364 180.331C173.617 180.58 174.108 180.883 173.864 181.573C173.808 181.736 173.392 182.099 173.151 182.171C172.274 182.432 170.23 182.225 170.922 181.121C171.648 181.155 172.623 181.597 173.165 181.065C172.749 180.394 172.006 179.065 172.28 178.283ZM179.978 185.702C178.657 186.558 177.184 187.489 175.02 187.273C174.558 186.867 174.381 185.965 174.831 185.368C175.065 185.774 174.918 186.52 175.569 186.632C176.797 186.844 178.227 185.874 179.11 185.535C179.658 184.604 179.063 184.261 178.569 183.662C177.559 182.433 176.204 180.911 176.253 179.072C176.662 178.773 176.697 179.528 176.755 179.665C177.283 180.91 178.61 182.503 179.579 183.569C179.817 183.831 180.209 184.083 180.252 184.257C180.378 184.762 179.926 185.366 179.978 185.702ZM162.565 184.801C162.151 184.562 162.053 183.513 161.567 183.483C160.872 183.44 160.999 184.845 161.002 185.666C160.524 185.228 160.439 183.88 160.791 183.188C160.39 182.99 160.211 183.407 159.99 183.553C160.275 181.462 163.022 182.584 162.565 184.801ZM180.819 186.573C180.204 187.753 179.334 189.053 177.53 189.091C177.494 188.71 177.465 188.13 177.532 187.9C178.911 187.767 179.763 187.058 180.819 186.573ZM172.176 187.338C173.326 187.949 175.441 188.014 177.005 187.968C177.089 188.314 177.087 188.741 177.09 189.162C175.08 189.263 172.703 188.762 172.176 187.338ZM171.957 188.476C172.753 190.492 175.487 190.26 177.794 190.204C177.692 190.466 177.472 190.775 177.199 190.887C176.459 191.19 174.421 191.42 173.395 190.87C172.744 190.522 172.326 189.733 171.97 189.271C171.798 189.048 170.94 188.477 171.957 188.476Z" fill="#231F20"/>
<path d="M179.882 199.594C178.948 201.207 178.055 202.864 176.947 204.287C177.411 202.91 177.61 200.604 177.68 198.846C178.652 198.388 179.484 198.95 179.882 199.594Z" fill="#81B0C4"/>
<path d="M184.906 205.393C183.86 205.604 183.126 206.629 182.106 206.563C182.666 205.766 183.648 205.43 184.906 205.393ZM185.367 207.043C184.515 207.134 183.514 207.273 182.65 207.201C183.059 206.571 184.635 206.788 185.367 207.043ZM185.662 208.466C184.704 208.487 183.514 208.468 182.604 208.391C183.142 207.807 185.041 208.174 185.662 208.466Z" fill="#231F20"/>
<path d="M178.08 212.36C178.217 213.574 178.694 214.803 178.634 216.132C178.105 216.312 177.801 216.469 177.091 216.469C177.041 215.339 176.891 213.613 176.936 212.536C177.285 212.56 177.8 212.285 178.08 212.36Z" fill="#DCD9D8"/>
<path d="M176.536 194.479C176.055 194.796 175.646 195.191 175.184 195.529C174.16 195.58 173.601 195.458 172.849 194.864C172.861 194.817 172.936 194.838 172.939 194.78C174.036 195.272 175.429 194.579 176.536 194.479Z" fill="#F0D6B7"/>
<path d="M170.781 202.017C171.082 200.7 172.263 200.018 173.334 199.293C174.441 200.709 175.113 202.531 175.854 204.288C174.104 203.756 172.315 202.892 170.781 202.017Z" fill="#81B0C4"/>
<path d="M176.935 212.535C176.89 213.612 177.04 215.338 177.09 216.467C177.8 216.468 178.104 216.311 178.633 216.131C178.693 214.802 178.216 213.572 178.079 212.359C177.799 212.284 177.284 212.559 176.935 212.535ZM165.888 206.413C166.356 210.751 167.034 214.398 168.276 218.24C171.035 219.085 174.36 219.159 176.798 218.396C176.35 216.228 176.546 213.588 176.284 211.274C176.087 209.535 176.188 207.785 175.917 206.011C172.963 205.391 168.788 205.866 165.888 206.413ZM176.615 206.038C176.591 207.901 176.698 209.739 176.839 211.605C177.549 211.498 178.03 211.426 178.689 211.28C178.475 209.484 178.501 207.463 178.065 205.874C177.562 205.879 177.118 205.868 176.616 206.038H176.615ZM180.214 205.738C179.877 205.66 179.485 205.735 179.163 205.741C179.315 207.26 179.681 208.936 179.81 210.53C180.317 210.546 180.587 210.305 181.003 210.225C181.025 208.825 180.881 206.897 180.214 205.738ZM185.661 210.759C186.716 210.501 187.379 209.198 187.084 207.859C186.886 206.96 186.534 205.266 186.156 204.69C185.877 204.265 185.122 203.708 184.518 204.098C183.536 204.732 181.806 204.916 181.09 205.684C181.449 206.89 181.56 208.547 181.708 210.075C182.935 210.152 184.444 209.734 185.465 210.178C184.752 210.41 183.828 210.412 183.213 210.751C183.716 210.996 184.893 210.947 185.661 210.759ZM175.853 204.288C175.112 202.531 174.439 200.709 173.333 199.293C172.261 200.018 171.081 200.7 170.78 202.017C172.314 202.892 174.102 203.756 175.853 204.288ZM177.679 198.846C177.609 200.603 177.41 202.909 176.946 204.287C178.054 202.864 178.947 201.207 179.881 199.593C179.483 198.949 178.651 198.387 177.679 198.845V198.846ZM175.609 198.103C175.189 198.058 174.833 198.59 174.287 198.36C174.162 198.499 174.049 198.651 173.921 198.787C175.126 200.252 175.674 202.331 176.605 204.053C177.105 202.399 177.047 200.587 177.157 198.781C176.471 198.825 176.09 198.155 175.609 198.103ZM174.278 196.331C174.233 196.833 174.349 196.997 174.449 197.572C176.084 198.088 175.799 195.308 174.278 196.331ZM172.464 195.731C171.76 195.342 170.701 194.919 169.791 194.744C168.663 194.526 168.769 196.296 168.816 197.352C168.854 198.189 169.285 199.073 169.472 199.628C169.56 199.887 169.58 200.162 169.8 200.214C170.188 200.305 171.47 199.788 171.835 199.587C172.607 199.163 173.207 198.488 173.862 198.035C173.871 197.815 173.879 197.594 173.888 197.374C173.494 197.176 173.038 197.035 172.459 197.009C172.852 196.81 173.429 196.813 173.787 196.576C173.791 196.487 173.794 196.4 173.797 196.312C173.144 196.262 172.895 195.968 172.464 195.731ZM165.734 194.497C165.149 195.096 167.374 195.912 168.083 195.956C168.079 195.577 168.297 195.22 168.253 194.948C167.411 194.799 166.306 194.898 165.734 194.497ZM172.938 194.778C172.935 194.837 172.86 194.816 172.847 194.863C173.6 195.456 174.159 195.579 175.183 195.528C175.645 195.19 176.054 194.794 176.535 194.478C175.428 194.577 174.034 195.271 172.938 194.778ZM179.551 196.801C179.519 196.136 179.346 194.768 178.938 194.528C178.082 194.024 176.561 195.545 175.917 195.778C175.987 195.981 176.103 196.142 176.111 196.403C176.493 196.308 176.957 196.373 177.287 196.537C176.905 196.58 176.482 196.577 176.229 196.76C176.136 197.03 176.252 197.398 176.19 197.773C177.097 198.031 178.132 198.169 179.278 198.203C179.501 197.91 179.577 197.353 179.551 196.801ZM164.749 195.076C164.566 194.944 163.323 193.314 163.153 193.381C160.905 194.276 158.803 195.822 156.925 197.285C158.716 201.161 159.439 205.911 159.567 210.488C161.618 211.457 163.42 212.852 166.204 212.998C165.882 210.698 165.588 208.647 165.405 206.482C164.705 206.185 163.702 206.496 163.047 206.39C163.042 205.594 164.047 206.041 164.131 205.506C164.194 205.101 163.578 205.071 163.778 204.433C164.29 204.621 164.559 205.035 165.104 205.191C165.603 204.091 165.098 202.143 165.169 201.223C165.183 201.051 165.255 200.267 165.638 200.404C165.978 200.526 165.619 202.49 165.656 203.36C165.69 204.162 165.56 204.938 165.882 205.442C168.572 205.072 171.306 204.834 174.217 204.753C173.576 204.476 172.816 204.214 171.982 203.74C171.529 203.483 170.104 202.947 169.974 202.514C169.766 201.824 170.52 201.456 170.649 200.864C169.291 201.612 169.026 200.148 168.705 199.112C168.414 198.173 168.248 197.472 168.177 196.93C167.007 196.368 165.756 195.798 164.749 195.076ZM178.363 193.579C180.236 192.662 180.573 197.003 179.839 198.401C179.953 198.818 180.343 198.978 180.502 199.353C179.457 201.242 178.296 203.005 177.23 204.871C178.023 204.373 179.156 204.782 180.09 204.409C180.431 204.273 180.678 203.485 180.936 202.855C181.647 201.12 182.393 198.934 182.725 197.278C182.8 196.901 183.004 196.08 182.958 195.744C182.877 195.143 182.068 194.697 181.657 194.326C180.9 193.639 180.423 193.035 179.633 192.393C179.312 192.87 178.625 193.191 178.363 193.579ZM160.466 176.823C159.573 177.813 159.76 179.67 159.868 180.99C161.481 179.966 163.622 181.071 163.602 182.812C164.372 182.792 163.89 181.842 163.751 181.23C163.295 179.231 164.518 177.06 163.806 175.233C162.424 175.339 161.289 175.908 160.466 176.823ZM166.852 171.073C164.831 171.651 162.242 173.132 161.412 174.963C162.055 174.869 162.501 174.542 163.135 174.501C163.375 174.485 163.689 174.602 163.964 174.533C164.513 174.396 164.976 173.154 165.39 172.692C165.794 172.241 166.279 172.048 166.612 171.637C166.825 171.533 167.14 171.541 167.152 171.217C167.06 171.118 166.962 171.042 166.852 171.073ZM177.369 171.617C175.272 170.423 171.723 169.525 169.492 170.647C167.692 171.553 165.259 173.05 164.429 174.949C165.204 176.781 164.2 178.459 164.136 180.319C164.101 181.308 164.597 182.172 164.635 183.249C164.37 183.691 163.56 183.745 162.999 183.715C162.81 182.762 162.48 181.691 161.507 181.583C160.131 181.431 159.124 182.581 159.062 183.782C158.987 185.194 160.137 187.535 161.766 187.373C162.395 187.31 162.55 186.673 163.235 186.68C163.607 187.428 162.662 187.663 162.565 188.198C162.54 188.336 162.643 188.876 162.703 189.129C162.999 190.362 163.659 191.959 164.308 192.898C165.132 194.089 166.751 194.268 168.493 194.385C168.804 193.709 169.95 193.765 170.697 193.941C169.802 193.584 168.97 192.717 168.28 191.95C167.488 191.07 166.686 190.126 166.646 188.975C168.142 191.069 169.379 192.899 172.1 193.82C174.159 194.517 176.564 193.501 178.146 192.38C178.803 191.914 179.195 191.175 179.661 190.498C181.407 187.964 182.222 184.348 182.043 180.842C181.97 179.397 181.973 177.956 181.492 176.983C180.989 175.966 179.29 175.057 178.295 175.976C178.11 174.988 179.122 174.376 180.311 174.732C179.463 173.628 178.574 172.302 177.369 171.617ZM181.277 204.235C182.915 203.414 185.977 202.023 187.005 204.239C187.384 205.055 187.829 206.435 188.025 207.278C188.302 208.467 187.724 210.967 186.512 211.366C185.443 211.718 184.194 211.697 182.905 211.435C182.753 211.308 182.584 211.086 182.466 210.855C181.545 210.819 180.684 210.905 179.956 211.286C180.025 211.973 179.565 212.083 179.133 212.224C178.813 213.504 179.774 215.176 179.544 216.343C179.38 217.174 178.366 217.303 177.62 217.458C177.596 217.92 177.653 218.306 177.704 218.697C177.534 219.331 176.769 219.691 176.045 219.78C173.662 220.068 170.044 220.198 167.752 219.367C167.113 217.784 166.609 215.859 166.076 214.052C163.84 214.293 162.032 213.079 160.328 212.284C159.738 212.008 158.921 211.856 158.701 211.382C158.487 210.923 158.575 210.044 158.522 209.213C158.387 207.092 158.271 205.046 157.716 202.874C157.467 201.899 157.032 201.039 156.729 200.1C156.449 199.23 155.959 198.154 155.831 197.286C155.642 196 156.843 195.928 157.611 195.37C158.798 194.509 159.729 194.032 161.015 193.254C161.396 193.023 162.544 192.44 162.674 192.172C162.934 191.639 162.229 190.888 162.04 190.471C161.742 189.811 161.586 189.25 161.543 188.598C160.465 188.427 159.648 187.779 159.154 187.049C158.337 185.841 157.77 183.606 158.477 181.906C158.533 181.772 158.809 181.509 158.85 181.303C158.93 180.898 158.699 180.359 158.684 179.929C158.61 177.719 159.055 175.815 160.529 175.149C161.128 172.743 163.271 171.943 165.29 170.747C166.044 170.3 166.876 170.015 167.735 169.696C170.817 168.552 175.545 168.767 178.103 170.719C179.188 171.546 180.921 173.293 181.541 174.558C183.179 177.898 183.063 183.479 181.917 187.541C181.763 188.087 181.54 188.889 181.228 189.544C181.011 190.001 180.335 190.917 180.417 191.321C180.501 191.738 181.958 192.854 182.27 193.158C182.832 193.705 183.901 194.431 183.987 195.122C184.08 195.857 183.666 196.862 183.456 197.571C182.756 199.938 182.072 202.126 181.277 204.235Z" fill="#231F20"/>
<path d="M170.345 187.854C170.433 187.735 170.922 187.554 171.606 187.886C171.606 187.886 170.796 188.022 170.863 189.386L170.526 189.317C170.525 189.317 170.176 188.081 170.345 187.854Z" fill="#F7E4CD"/>
<path d="M176.266 199.571C176.266 199.671 176.227 199.766 176.157 199.836C176.087 199.906 175.993 199.946 175.894 199.946C175.796 199.946 175.701 199.906 175.632 199.836C175.562 199.766 175.523 199.671 175.523 199.571C175.523 199.472 175.562 199.377 175.632 199.306C175.701 199.236 175.796 199.197 175.894 199.197C175.993 199.197 176.087 199.236 176.157 199.306C176.227 199.377 176.266 199.472 176.266 199.571ZM176.637 201.309C176.637 201.408 176.598 201.504 176.528 201.574C176.459 201.644 176.364 201.684 176.266 201.684C176.167 201.683 176.073 201.644 176.003 201.574C175.933 201.503 175.894 201.408 175.894 201.308C175.894 201.209 175.933 201.114 176.003 201.043C176.073 200.973 176.167 200.934 176.266 200.934C176.364 200.934 176.459 200.973 176.529 201.044C176.598 201.114 176.637 201.209 176.637 201.309Z" fill="#1D1919"/>
<path d="M206.348 189.681C206.131 189.709 205.947 189.736 205.795 189.764C205.623 189.796 205.452 189.834 205.282 189.879C205.06 189.939 204.917 190.046 204.855 190.199C204.793 190.352 204.762 190.527 204.762 190.725V197.147C204.762 197.739 204.644 198.281 204.408 198.774C204.172 199.266 203.848 199.68 203.435 200.014C203.018 200.342 202.551 200.59 202.036 200.757C201.521 200.924 200.97 201.008 200.385 201.008C199.37 201.008 198.553 200.761 197.932 200.269C197.31 199.776 197 199.101 197 198.242C197 197.733 197.142 197.312 197.427 196.978C197.712 196.644 198.104 196.477 198.603 196.477C199.075 196.477 199.45 196.617 199.729 196.896C200.009 197.175 200.148 197.52 200.148 197.93C200.148 198.28 200.028 198.604 199.786 198.902C199.545 199.201 199.27 199.476 198.961 199.727V199.834C199.01 199.943 199.116 200.036 199.279 200.113C199.442 200.19 199.608 200.228 199.776 200.228C200.429 200.228 200.942 199.992 201.314 199.522C201.687 199.051 201.873 198.339 201.873 197.386V190.807C201.873 190.61 201.843 190.445 201.783 190.314C201.723 190.183 201.579 190.067 201.35 189.969C201.186 189.898 200.989 189.838 200.757 189.788C200.526 189.739 200.333 189.703 200.181 189.681V189.041H206.348V189.681ZM215.997 198.726C215.807 199.038 215.578 199.332 215.31 199.608C215.041 199.885 214.736 200.121 214.394 200.318C214.031 200.526 213.663 200.683 213.292 200.79C212.92 200.897 212.493 200.95 212.01 200.95C211.208 200.95 210.515 200.835 209.932 200.606C209.349 200.376 208.867 200.067 208.488 199.678C208.108 199.29 207.825 198.832 207.638 198.303C207.45 197.776 207.357 197.203 207.357 196.584C207.357 196.026 207.459 195.491 207.662 194.98C207.862 194.473 208.156 194.009 208.528 193.613C208.897 193.225 209.362 192.91 209.924 192.669C210.485 192.429 211.113 192.308 211.807 192.308C212.567 192.308 213.19 192.401 213.678 192.587C214.167 192.773 214.571 193.03 214.891 193.359C215.2 193.671 215.425 194.038 215.566 194.462C215.707 194.887 215.778 195.331 215.778 195.796V196.33H210.278C210.278 197.451 210.492 198.305 210.921 198.89C211.349 199.476 212.03 199.769 212.963 199.769C213.472 199.769 213.931 199.628 214.338 199.346C214.744 199.064 215.092 198.707 215.379 198.275L215.997 198.726ZM212.889 195.607C212.889 195.279 212.873 194.942 212.841 194.598C212.808 194.253 212.751 193.971 212.67 193.752C212.577 193.495 212.451 193.301 212.291 193.17C212.131 193.038 211.929 192.973 211.685 192.973C211.268 192.973 210.934 193.186 210.684 193.613C210.435 194.04 210.299 194.715 210.278 195.64L212.889 195.607ZM227.518 200.688H222.628V200.088C222.731 200.078 222.856 200.064 223.002 200.047C223.149 200.031 223.26 200.004 223.336 199.965C223.45 199.905 223.531 199.817 223.58 199.703C223.629 199.588 223.653 199.418 223.653 199.194V195.353C223.653 194.795 223.551 194.375 223.347 194.093C223.143 193.811 222.843 193.67 222.445 193.67C222.228 193.67 222.025 193.703 221.838 193.769C221.65 193.834 221.467 193.93 221.287 194.056C221.129 194.166 221.003 194.278 220.908 194.393C220.825 194.492 220.745 194.593 220.667 194.696V199.104C220.667 199.295 220.694 199.455 220.748 199.584C220.803 199.712 220.892 199.809 221.017 199.875C221.103 199.924 221.212 199.968 221.342 200.006C221.472 200.045 221.6 200.072 221.725 200.088V200.688H216.778V200.088C216.915 200.077 217.052 200.062 217.189 200.043C217.327 200.024 217.445 199.998 217.543 199.965C217.716 199.905 217.836 199.812 217.901 199.686C217.966 199.56 217.999 199.396 217.999 199.194V194.417C217.999 194.247 217.955 194.08 217.868 193.916C217.782 193.752 217.668 193.618 217.527 193.514C217.429 193.448 217.306 193.394 217.156 193.35C217.007 193.306 216.843 193.276 216.664 193.26V192.661L220.545 192.447L220.667 192.57V193.76H220.7C220.883 193.595 221.068 193.431 221.253 193.268C221.47 193.077 221.67 192.921 221.855 192.8C222.055 192.669 222.319 192.557 222.644 192.464C222.969 192.371 223.317 192.324 223.685 192.324C224.57 192.324 225.232 192.577 225.675 193.083C226.117 193.589 226.338 194.261 226.338 195.098V199.12C226.338 199.322 226.367 199.484 226.427 199.604C226.487 199.725 226.598 199.82 226.761 199.891C226.847 199.93 226.955 199.968 227.082 200.006C227.209 200.045 227.355 200.072 227.517 200.088V200.687L227.518 200.688ZM238.713 200.688H234.878C234.406 199.853 233.975 199.144 233.585 198.563C233.222 198.021 232.853 197.482 232.48 196.946L232.001 197.355V199.145C232.001 199.342 232.029 199.503 232.086 199.629C232.143 199.755 232.253 199.848 232.415 199.908C232.513 199.952 232.627 199.99 232.757 200.023C232.887 200.055 233.017 200.078 233.148 200.088V200.687H228.095V200.088C228.232 200.077 228.369 200.062 228.505 200.043C228.641 200.024 228.761 199.998 228.865 199.965C229.04 199.905 229.159 199.812 229.222 199.686C229.284 199.56 229.316 199.396 229.316 199.194V190.042C229.316 189.862 229.276 189.674 229.198 189.48C229.119 189.286 229.004 189.14 228.852 189.041C228.749 188.976 228.594 188.921 228.388 188.877C228.182 188.833 227.995 188.806 227.827 188.795V188.196L231.878 187.982L232 188.114V196.583C232.401 196.222 232.852 195.804 233.353 195.328C233.854 194.852 234.257 194.458 234.56 194.146C234.739 193.96 234.838 193.819 234.857 193.723C234.876 193.628 234.885 193.569 234.885 193.547C234.885 193.448 234.8 193.366 234.629 193.301C234.457 193.235 234.199 193.178 233.855 193.128V192.546H237.988V193.112C237.447 193.265 237.034 193.409 236.75 193.543C236.465 193.677 236.155 193.856 235.82 194.08C235.599 194.227 235.384 194.382 235.174 194.545C234.966 194.707 234.727 194.908 234.456 195.15C234.987 195.927 235.477 196.646 235.926 197.307C236.376 197.969 236.847 198.669 237.339 199.407C237.507 199.664 237.716 199.837 237.965 199.924C238.214 200.012 238.463 200.066 238.713 200.088V200.688ZM243.944 200.688H238.802V200.088C238.943 200.078 239.081 200.064 239.217 200.047C239.352 200.031 239.469 200.004 239.567 199.965C239.74 199.9 239.862 199.805 239.933 199.682C240.003 199.559 240.039 199.396 240.039 199.194V194.417C240.039 194.225 239.995 194.057 239.909 193.912C239.822 193.767 239.713 193.651 239.583 193.563C239.485 193.498 239.338 193.435 239.14 193.375C238.942 193.314 238.761 193.276 238.599 193.26V192.661L242.585 192.447L242.707 192.57V199.087C242.707 199.278 242.748 199.441 242.829 199.575C242.911 199.71 243.027 199.809 243.179 199.875C243.288 199.924 243.407 199.968 243.537 200.006C243.667 200.045 243.803 200.072 243.944 200.088V200.687V200.688ZM242.756 189.493C242.756 189.909 242.597 190.263 242.28 190.556C241.963 190.848 241.587 190.995 241.153 190.995C240.714 190.995 240.336 190.848 240.018 190.556C239.701 190.263 239.542 189.909 239.542 189.493C239.542 189.077 239.701 188.721 240.018 188.426C240.336 188.13 240.714 187.983 241.153 187.983C241.593 187.983 241.97 188.13 242.284 188.426C242.599 188.721 242.756 189.077 242.756 189.493ZM255.432 200.688H250.542V200.088C250.645 200.078 250.77 200.064 250.916 200.047C251.063 200.031 251.174 200.004 251.25 199.965C251.364 199.905 251.445 199.817 251.494 199.703C251.543 199.588 251.567 199.418 251.567 199.194V195.353C251.567 194.795 251.465 194.375 251.261 194.093C251.057 193.811 250.757 193.67 250.36 193.67C250.142 193.67 249.94 193.703 249.752 193.769C249.564 193.834 249.381 193.93 249.201 194.056C249.043 194.166 248.917 194.278 248.822 194.393C248.739 194.492 248.659 194.593 248.581 194.696V199.104C248.581 199.295 248.608 199.455 248.663 199.584C248.717 199.712 248.806 199.809 248.931 199.875C249.018 199.924 249.126 199.968 249.256 200.006C249.387 200.045 249.514 200.072 249.639 200.088V200.688H244.692V200.088C244.83 200.077 244.967 200.062 245.103 200.043C245.241 200.024 245.359 199.998 245.457 199.965C245.631 199.905 245.75 199.812 245.815 199.686C245.88 199.56 245.913 199.396 245.913 199.194V194.417C245.913 194.247 245.869 194.08 245.783 193.916C245.696 193.752 245.582 193.618 245.441 193.514C245.343 193.448 245.22 193.394 245.071 193.35C244.921 193.306 244.757 193.276 244.579 193.26V192.661L248.459 192.447L248.581 192.57V193.76H248.614C248.798 193.595 248.982 193.431 249.167 193.268C249.384 193.077 249.585 192.921 249.769 192.8C249.97 192.669 250.233 192.557 250.558 192.464C250.884 192.371 251.231 192.324 251.6 192.324C252.484 192.324 253.147 192.577 253.589 193.083C254.031 193.589 254.252 194.261 254.252 195.098V199.12C254.252 199.322 254.282 199.484 254.341 199.604C254.401 199.725 254.512 199.82 254.675 199.891C254.762 199.93 254.869 199.968 254.996 200.006C255.124 200.045 255.269 200.072 255.431 200.088V200.687L255.432 200.688ZM259.955 200.967C259.433 200.967 258.913 200.888 258.414 200.733C257.912 200.577 257.523 200.411 257.246 200.236L257.002 200.794H256.368L256.262 197.733H256.856C256.937 197.979 257.073 198.257 257.263 198.566C257.453 198.875 257.669 199.153 257.914 199.399C258.168 199.645 258.46 199.853 258.788 200.023C259.116 200.192 259.468 200.277 259.842 200.277C260.335 200.277 260.703 200.18 260.944 199.986C261.185 199.792 261.306 199.492 261.306 199.087C261.306 198.868 261.252 198.688 261.143 198.546C261.035 198.403 260.886 198.28 260.696 198.176C260.484 198.067 260.253 197.974 260 197.897C259.748 197.821 259.438 197.728 259.069 197.618C258.7 197.509 258.384 197.398 258.121 197.286C257.858 197.173 257.585 196.997 257.303 196.756C257.059 196.543 256.864 196.286 256.718 195.985C256.571 195.684 256.498 195.326 256.498 194.91C256.498 194.138 256.819 193.514 257.462 193.038C258.105 192.562 258.947 192.324 259.988 192.324C260.482 192.324 260.936 192.375 261.351 192.476C261.766 192.578 262.114 192.688 262.397 192.809L262.567 192.324H263.186L263.316 195.123H262.746C262.556 194.554 262.231 194.063 261.77 193.65C261.309 193.237 260.813 193.03 260.281 193.03C259.863 193.03 259.535 193.118 259.297 193.293C259.058 193.468 258.939 193.711 258.939 194.023C258.939 194.439 259.113 194.74 259.463 194.926C259.812 195.112 260.3 195.287 260.928 195.451C261.898 195.703 262.607 196.046 263.057 196.481C263.506 196.916 263.731 197.47 263.731 198.143C263.731 199.041 263.382 199.736 262.685 200.228C261.988 200.72 261.078 200.967 259.955 200.967Z" fill="black"/>
<path d="M55.1802 201H56.5402L53.3802 194H52.1002L48.9502 201H50.2902L50.9802 199.38H54.4802L55.1802 201ZM51.4202 198.36L52.7302 195.3L54.0502 198.36H51.4202ZM58.4204 199.9L62.5404 194.87V194H56.7704V195.1H60.8204L56.7004 200.13V201H62.6704V199.9H58.4204ZM66.6713 201.1C68.5813 201.1 69.7313 199.99 69.7313 197.95V194H68.4513V197.9C68.4513 199.34 67.8113 199.96 66.6813 199.96C65.5513 199.96 64.9013 199.34 64.9013 197.9V194H63.6013V197.95C63.6013 199.99 64.7513 201.1 66.6713 201.1ZM77.3319 201L75.7219 198.7C76.6719 198.33 77.2119 197.55 77.2119 196.49C77.2119 194.94 76.0719 194 74.2319 194H71.3519V201H72.6519V198.96H74.2319C74.3219 198.96 74.4119 198.96 74.5019 198.95L75.9319 201H77.3319ZM75.9019 196.49C75.9019 197.37 75.3119 197.89 74.1719 197.89H72.6519V195.1H74.1719C75.3119 195.1 75.9019 195.61 75.9019 196.49ZM79.7664 199.91V197.98H83.1464V196.91H79.7664V195.09H83.5764V194H78.4664V201H83.7164V199.91H79.7664ZM49.9402 211H53.0002C55.2702 211 56.8202 209.6 56.8202 207.5C56.8202 205.4 55.2702 204 53.0002 204H49.9402V211ZM51.2402 209.9V205.1H52.9402C54.5002 205.1 55.5102 206.05 55.5102 207.5C55.5102 208.95 54.5002 209.9 52.9402 209.9H51.2402ZM59.3019 209.91V207.98H62.6819V206.91H59.3019V205.09H63.1119V204H58.0019V211H63.2519V209.91H59.3019ZM69.5035 204L67.1535 209.4L64.8235 204H63.4135L66.4735 211H67.7535L70.8035 204H69.5035ZM74.534 211.1C76.704 211.1 78.304 209.58 78.304 207.5C78.304 205.42 76.704 203.9 74.534 203.9C72.364 203.9 70.764 205.43 70.764 207.5C70.764 209.57 72.364 211.1 74.534 211.1ZM74.534 209.96C73.124 209.96 72.074 208.93 72.074 207.5C72.074 206.07 73.124 205.04 74.534 205.04C75.944 205.04 76.994 206.07 76.994 207.5C76.994 208.93 75.944 209.96 74.534 209.96ZM82.362 204H79.482V211H80.782V208.98H82.362C84.202 208.98 85.342 208.03 85.342 206.49C85.342 204.94 84.202 204 82.362 204ZM82.302 207.88H80.782V205.1H82.302C83.442 205.1 84.032 205.61 84.032 206.49C84.032 207.37 83.442 207.88 82.302 207.88ZM88.7079 211.1C90.6279 211.1 91.5379 210.14 91.5379 209.02C91.5379 206.45 87.3879 207.42 87.3879 205.93C87.3879 205.4 87.8279 204.98 88.9079 204.98C89.5179 204.98 90.2079 205.16 90.8379 205.53L91.2479 204.52C90.6379 204.12 89.7579 203.9 88.9179 203.9C86.9979 203.9 86.0979 204.86 86.0979 205.99C86.0979 208.59 90.2579 207.6 90.2579 209.11C90.2579 209.63 89.7979 210.02 88.7079 210.02C87.8479 210.02 86.9579 209.7 86.3979 209.25L85.9479 210.26C86.5279 210.76 87.6179 211.1 88.7079 211.1Z" fill="#0072C6"/>
<path d="M33.3131 173L44 177.544V211.624L33.3131 216.252L1 205.313L33.3131 210.025V173Z" fill="#0072C6"/>
<path d="M21.7843 184.865L14.3792 179.311V181.836L6.30099 184.865L3.69238 188.315V195.384L6.30089 196.057V187.894L21.8684 184.865V197.992L6.30089 196.057L12.8646 203.63V200.601L21.7843 203.63L27.843 198.75V183.687L21.7843 184.865Z" fill="#0072C6"/>
<path d="M30.8962 0L16.3839 12.7105L4 35.1608H15.1659L30.8962 0ZM32.8267 2.97389L26.6332 20.605L38.5086 35.6744L15.4704 39.6724H53.228L32.8267 2.97389Z" fill="#0072C6"/>
<path d="M6.4802 49.38H2.9802L2.2902 51H0.950195L4.1002 44H5.3802L8.5402 51H7.1802L6.4802 49.38ZM6.0502 48.36L4.7302 45.3L3.4202 48.36H6.0502ZM14.6704 49.9V51H8.70043V50.13L12.8204 45.1H8.77043V44H14.5404V44.87L10.4204 49.9H14.6704ZM18.6713 51.1C17.7046 51.1 16.9513 50.83 16.4113 50.29C15.8713 49.7433 15.6013 48.9633 15.6013 47.95V44H16.9013V47.9C16.9013 49.2733 17.4946 49.96 18.6813 49.96C19.8613 49.96 20.4513 49.2733 20.4513 47.9V44H21.7313V47.95C21.7313 48.9633 21.4613 49.7433 20.9213 50.29C20.388 50.83 19.638 51.1 18.6713 51.1ZM27.9319 51L26.5019 48.95C26.4419 48.9567 26.3519 48.96 26.2319 48.96H24.6519V51H23.3519V44H26.2319C26.8386 44 27.3653 44.1 27.8119 44.3C28.2653 44.5 28.6119 44.7867 28.8519 45.16C29.0919 45.5333 29.2119 45.9767 29.2119 46.49C29.2119 47.0167 29.0819 47.47 28.8219 47.85C28.5686 48.23 28.2019 48.5133 27.7219 48.7L29.3319 51H27.9319ZM27.9019 46.49C27.9019 46.0433 27.7553 45.7 27.4619 45.46C27.1686 45.22 26.7386 45.1 26.1719 45.1H24.6519V47.89H26.1719C26.7386 47.89 27.1686 47.77 27.4619 47.53C27.7553 47.2833 27.9019 46.9367 27.9019 46.49ZM35.7164 49.91V51H30.4664V44H35.5764V45.09H31.7664V46.91H35.1464V47.98H31.7664V49.91H35.7164Z" fill="#0072C6"/>
<path d="M128.718 32.9487L123.783 35.0623L128.354 37.0111L133.654 35.0623L128.718 32.9487ZM121.298 35.5907L121.133 45.102L128.353 48.2724V38.3977L121.298 35.5907ZM136.138 35.5907L129.613 38.0679V47.3805L136.138 44.7385V35.5907ZM143.923 6L138.954 8.11367L143.558 10.0624L148.859 8.11367L143.923 6ZM137.033 8.80798V18.3193L143.194 20.1031L143.393 11.45L137.033 8.80798ZM150.813 9.33634L144.983 11.8135V21.16L150.813 18.518V9.33634ZM120.586 19.3867L115.65 21.5003L120.221 23.4491L125.521 21.5003L120.586 19.3867ZM113.165 22.0287L113 31.54L120.221 34.7104V24.8356L113.165 22.0287ZM128.006 22.0287L121.48 24.5058V33.8185L128.006 31.1764V22.0287ZM136.486 19.0358L131.551 21.1494L136.121 23.0982L141.422 21.1494L136.486 19.0358ZM129.066 21.6778L128.9 31.1891L136.121 34.3596V24.4858L129.066 21.6778ZM143.906 21.6778L137.381 24.155V33.4676L143.906 30.8256V21.6778ZM159.454 6L154.518 8.11362L159.089 10.0624L164.389 8.11362L159.454 6ZM152.033 8.64202L151.868 18.1533L159.089 21.3237V11.45L152.033 8.64202ZM166.874 8.64202L160.348 11.1192V20.4318L166.874 17.7898V8.64202Z" fill="#F7A80D"/>
<path d="M149.18 37.0004H150.54L147.38 30.0004H146.1L142.95 37.0004H144.29L144.98 35.3804H148.48L149.18 37.0004ZM145.42 34.3604L146.73 31.3004L148.05 34.3604H145.42ZM159.849 30.0004L158.059 35.3504L156.289 30.0004H155.089L153.279 35.3204L151.539 30.0004H150.189L152.509 37.0004H153.899L155.659 31.8204L157.389 37.0004H158.769L161.089 30.0004H159.849ZM164.118 37.1004C166.038 37.1004 166.948 36.1404 166.948 35.0204C166.948 32.4504 162.798 33.4204 162.798 31.9304C162.798 31.4004 163.238 30.9804 164.318 30.9804C164.928 30.9804 165.618 31.1604 166.248 31.5304L166.658 30.5204C166.048 30.1204 165.168 29.9004 164.328 29.9004C162.408 29.9004 161.508 30.8604 161.508 31.9904C161.508 34.5904 165.668 33.6004 165.668 35.1104C165.668 35.6304 165.208 36.0204 164.118 36.0204C163.258 36.0204 162.368 35.7004 161.808 35.2504L161.358 36.2604C161.938 36.7604 163.028 37.1004 164.118 37.1004Z" fill="#F7A80D"/>
<path d="M180.1 129.98V131.91H184.05V133H178.8V126H183.91V127.09H180.1V128.91H183.48V129.98H180.1Z" fill="#326DE6"/>
<path d="M190.09 131.12C190.09 132.24 189.18 133.2 187.26 133.2C186.17 133.2 185.08 132.86 184.5 132.36L184.95 131.35C185.51 131.8 186.4 132.12 187.26 132.12C188.35 132.12 188.81 131.73 188.81 131.21C188.81 129.7 184.65 130.69 184.65 128.09C184.65 126.96 185.55 126 187.47 126C188.31 126 189.19 126.22 189.8 126.62L189.39 127.63C188.76 127.26 188.07 127.08 187.46 127.08C186.38 127.08 185.94 127.5 185.94 128.03C185.94 129.52 190.09 128.55 190.09 131.12Z" fill="#326DE6"/>
<path d="M127.88 133.1H129.4L126.28 129.23L129.22 126.1H127.76L124.3 129.69V126.1H123V133.1H124.3V131.31L125.41 130.17L127.88 133.1ZM132.997 133.2C134.907 133.2 136.057 132.09 136.057 130.05V126.1H134.777V130C134.777 131.44 134.137 132.06 133.007 132.06C131.877 132.06 131.227 131.44 131.227 130V126.1H129.927V130.05C129.927 132.09 131.077 133.2 132.997 133.2ZM142.638 129.46C143.178 129.17 143.538 128.64 143.538 127.92C143.538 126.81 142.638 126.1 140.958 126.1H137.678V133.1H141.158C142.958 133.1 143.898 132.4 143.898 131.2C143.898 130.29 143.388 129.7 142.638 129.46ZM140.818 127.12C141.718 127.12 142.228 127.44 142.228 128.09C142.228 128.73 141.718 129.05 140.818 129.05H138.978V127.12H140.818ZM141.078 132.08H138.978V130.06H141.078C142.058 130.06 142.588 130.37 142.588 131.07C142.588 131.77 142.058 132.08 141.078 132.08ZM146.385 132.01V130.08H149.765V129.01H146.385V127.19H150.195V126.1H145.085V133.1H150.335V132.01H146.385ZM157.565 133.1L155.955 130.8C156.905 130.43 157.445 129.65 157.445 128.59C157.445 127.04 156.305 126.1 154.465 126.1H151.585V133.1H152.885V131.06H154.465C154.555 131.06 154.645 131.06 154.735 131.05L156.165 133.1H157.565ZM156.135 128.59C156.135 129.47 155.545 129.99 154.405 129.99H152.885V127.2H154.405C155.545 127.2 156.135 127.71 156.135 128.59ZM163.629 126.1V130.84L159.769 126.1H158.699V133.1H159.989V128.36L163.849 133.1H164.919V126.1H163.629ZM167.895 132.01V130.08H171.275V129.01H167.895V127.19H171.705V126.1H166.595V133.1H171.845V132.01H167.895ZM174.514 133.1H175.814V127.2H178.134V126.1H172.194V127.2H174.514V133.1Z" fill="#326DE6"/>
<path d="M149.669 121.353C148.697 121.353 147.78 120.917 147.159 120.128L137.714 108.283C137.093 107.493 136.85 106.486 137.093 105.506L140.466 90.7202C140.682 89.7399 141.33 88.9502 142.221 88.5147L155.876 81.9252C156.308 81.7076 156.794 81.5986 157.28 81.5986C157.765 81.5986 158.251 81.7074 158.683 81.9254L172.339 88.4875C173.229 88.923 173.877 89.7127 174.093 90.693L177.466 105.479C177.682 106.459 177.466 107.466 176.846 108.256L167.4 120.1C166.779 120.863 165.862 121.326 164.89 121.326L149.669 121.353Z" fill="#326DE6"/>
<path d="M156.91 82.2798C157.287 82.2798 157.665 82.3614 158.016 82.5248L171.672 89.0869C172.374 89.4409 172.913 90.0944 173.075 90.8568L176.449 105.642C176.638 106.432 176.449 107.248 175.936 107.875L166.49 119.719C166.004 120.345 165.249 120.699 164.466 120.699H149.326C148.543 120.699 147.788 120.345 147.302 119.719L137.856 107.875C137.371 107.248 137.181 106.432 137.344 105.642L140.717 90.8568C140.906 90.0672 141.419 89.4137 142.12 89.0869L155.776 82.4978C156.127 82.3616 156.532 82.28 156.91 82.28V82.2798ZM156.91 81C156.343 81 155.776 81.1362 155.236 81.3812L141.581 87.9706C140.501 88.488 139.745 89.4409 139.475 90.6117L136.102 105.397C135.832 106.568 136.102 107.766 136.858 108.719L146.303 120.563C147.032 121.489 148.139 122.006 149.299 122.006H164.439C165.6 122.006 166.706 121.489 167.435 120.563L176.881 108.719C177.636 107.793 177.906 106.568 177.636 105.397L174.263 90.6117C173.993 89.4409 173.237 88.488 172.158 87.9706L158.556 81.381C158.043 81.1362 157.476 81 156.91 81Z" fill="white"/>
<path d="M170.973 104.471C170.946 104.471 170.946 104.471 170.973 104.471H170.946C170.919 104.471 170.892 104.471 170.892 104.444C170.838 104.444 170.784 104.416 170.73 104.416C170.541 104.389 170.379 104.362 170.217 104.362C170.136 104.362 170.055 104.362 169.947 104.335H169.92C169.353 104.28 168.895 104.226 168.463 104.09C168.274 104.008 168.22 103.899 168.166 103.79C168.166 103.763 168.139 103.763 168.139 103.736L167.788 103.627C167.954 102.346 167.89 101.046 167.599 99.7877C167.304 98.5193 166.793 97.3122 166.088 96.2208L166.358 95.9758V95.9214C166.358 95.7853 166.385 95.6491 166.493 95.5129C166.816 95.2134 167.221 94.9684 167.707 94.6688C167.788 94.6144 167.869 94.5872 167.95 94.5326C168.112 94.451 168.247 94.3694 168.409 94.2605C168.436 94.2333 168.49 94.2061 168.544 94.1517C168.571 94.1243 168.598 94.1243 168.598 94.0971C168.975 93.7703 169.056 93.2258 168.787 92.8717C168.652 92.6811 168.409 92.5723 168.166 92.5723C167.95 92.5723 167.761 92.6539 167.572 92.7901L167.518 92.8445C167.464 92.8717 167.437 92.9262 167.383 92.9534C167.248 93.0896 167.14 93.1984 167.032 93.3346C166.979 93.389 166.925 93.4708 166.844 93.5252C166.466 93.9337 166.115 94.2605 165.764 94.5054C165.683 94.5598 165.602 94.5872 165.521 94.5872C165.467 94.5872 165.413 94.5872 165.359 94.5599H165.305L164.981 94.7778C164.63 94.3966 164.253 94.0699 163.875 93.7431C162.248 92.4602 160.29 91.6757 158.234 91.4831L158.207 91.1291L158.153 91.0747C158.072 90.9929 157.965 90.9113 157.937 90.7207C157.911 90.285 157.965 89.7949 158.019 89.2504V89.2231C158.019 89.1414 158.045 89.0326 158.072 88.9508C158.099 88.7876 158.126 88.624 158.153 88.4335V88.1885C158.153 87.6984 157.776 87.29 157.317 87.29C157.101 87.29 156.885 87.3988 156.723 87.5622C156.561 87.7256 156.48 87.9433 156.48 88.1885V88.4063C156.48 88.5968 156.507 88.7602 156.561 88.9236C156.588 89.0054 156.588 89.087 156.615 89.1959V89.2231C156.669 89.7677 156.75 90.2578 156.696 90.6935C156.669 90.8841 156.561 90.9657 156.48 91.0475L156.426 91.1019L156.399 91.4559C155.913 91.5103 155.428 91.5647 154.942 91.6736C152.864 92.1366 151.029 93.1986 149.598 94.7232L149.328 94.5326H149.275C149.221 94.5326 149.167 94.5599 149.113 94.5599C149.032 94.5599 148.951 94.5326 148.87 94.4782C148.519 94.2333 148.168 93.8791 147.79 93.4708C147.736 93.4164 147.682 93.3346 147.601 93.2802C147.493 93.144 147.385 93.0351 147.25 92.899C147.223 92.8717 147.169 92.8446 147.115 92.7901C147.089 92.7629 147.062 92.7629 147.062 92.7357C146.894 92.5963 146.685 92.5193 146.468 92.5177C146.225 92.5177 145.982 92.6267 145.847 92.8173C145.577 93.1712 145.658 93.7158 146.036 94.0425C146.063 94.0425 146.063 94.0699 146.09 94.0699C146.144 94.0971 146.171 94.1515 146.225 94.1787C146.387 94.2875 146.522 94.3693 146.684 94.451C146.765 94.4782 146.846 94.5326 146.927 94.5872C147.412 94.8866 147.817 95.1318 148.141 95.4313C148.276 95.5673 148.276 95.7035 148.276 95.8397V95.8941L148.546 96.1392C148.492 96.2208 148.438 96.2754 148.411 96.357C147.061 98.5081 146.549 101.04 146.899 103.545L146.549 103.654C146.549 103.681 146.522 103.681 146.522 103.708C146.468 103.817 146.387 103.926 146.225 104.008C145.82 104.144 145.334 104.199 144.768 104.253H144.74C144.66 104.253 144.552 104.253 144.471 104.28C144.309 104.28 144.147 104.308 143.958 104.335C143.904 104.335 143.85 104.362 143.796 104.362C143.769 104.362 143.742 104.362 143.715 104.389C143.229 104.498 142.932 104.961 143.013 105.397C143.094 105.778 143.445 106.023 143.877 106.023C143.958 106.023 144.012 106.023 144.093 105.996C144.12 105.996 144.147 105.996 144.147 105.968C144.201 105.968 144.255 105.941 144.309 105.941C144.498 105.887 144.633 105.832 144.795 105.751C144.875 105.724 144.956 105.669 145.037 105.642H145.064C145.577 105.451 146.036 105.288 146.468 105.233H146.522C146.684 105.233 146.792 105.315 146.873 105.37C146.899 105.37 146.899 105.397 146.926 105.397L147.304 105.342C147.952 107.357 149.193 109.154 150.84 110.461C151.218 110.761 151.595 111.006 152 111.251L151.838 111.605C151.838 111.632 151.865 111.632 151.865 111.659C151.919 111.768 151.973 111.904 151.919 112.095C151.757 112.503 151.514 112.912 151.218 113.375V113.402C151.164 113.484 151.11 113.538 151.056 113.62C150.948 113.756 150.867 113.892 150.759 114.055C150.732 114.083 150.705 114.137 150.678 114.192C150.678 114.219 150.651 114.246 150.651 114.246C150.435 114.709 150.597 115.226 151.002 115.417C151.11 115.471 151.218 115.499 151.326 115.499C151.649 115.499 151.973 115.281 152.135 114.981C152.135 114.954 152.162 114.927 152.162 114.927C152.189 114.872 152.216 114.818 152.243 114.791C152.324 114.6 152.351 114.464 152.405 114.3L152.486 114.055C152.675 113.511 152.81 113.075 153.053 112.694C153.161 112.531 153.296 112.503 153.404 112.449C153.43 112.449 153.43 112.449 153.457 112.422L153.647 112.068C154.834 112.531 156.129 112.776 157.425 112.776C158.207 112.776 159.017 112.694 159.773 112.503C160.248 112.396 160.717 112.26 161.176 112.095L161.338 112.394C161.365 112.394 161.365 112.394 161.392 112.422C161.527 112.449 161.635 112.503 161.743 112.667C161.959 113.048 162.121 113.511 162.309 114.028V114.055L162.39 114.3C162.444 114.464 162.471 114.627 162.552 114.791C162.579 114.845 162.606 114.872 162.633 114.927C162.633 114.954 162.66 114.981 162.66 114.981C162.822 115.308 163.146 115.499 163.47 115.499C163.578 115.499 163.686 115.471 163.794 115.417C163.983 115.308 164.145 115.144 164.199 114.927C164.253 114.709 164.253 114.464 164.145 114.246C164.145 114.219 164.118 114.219 164.118 114.192C164.091 114.137 164.064 114.083 164.037 114.055C163.956 113.892 163.848 113.756 163.74 113.62C163.686 113.538 163.632 113.484 163.578 113.402V113.375C163.281 112.912 163.011 112.503 162.876 112.095C162.822 111.904 162.876 111.795 162.903 111.659C162.903 111.632 162.93 111.632 162.93 111.605L162.795 111.278C164.226 110.434 165.44 109.236 166.358 107.766C166.844 107.003 167.221 106.159 167.491 105.315L167.815 105.369C167.842 105.369 167.842 105.342 167.869 105.342C167.977 105.288 168.058 105.206 168.22 105.206H168.274C168.706 105.261 169.164 105.424 169.677 105.615H169.704C169.785 105.642 169.866 105.696 169.947 105.723C170.109 105.805 170.244 105.86 170.433 105.914C170.487 105.914 170.541 105.941 170.595 105.941C170.622 105.941 170.649 105.941 170.676 105.968C170.757 105.996 170.811 105.996 170.892 105.996C171.296 105.996 171.647 105.724 171.755 105.37C171.755 105.043 171.458 104.607 170.973 104.471ZM158.477 103.137L157.29 103.709L156.102 103.137L155.806 101.857L156.615 100.822H157.937L158.747 101.857L158.477 103.137ZM165.521 100.305C165.73 101.205 165.794 102.134 165.71 103.055L161.581 101.857C161.203 101.748 160.987 101.367 161.068 100.986C161.095 100.877 161.149 100.768 161.23 100.686L164.496 97.7184C164.954 98.4809 165.305 99.3522 165.521 100.305ZM163.2 96.0848L159.665 98.6171C159.368 98.8076 158.963 98.7531 158.72 98.4537C158.639 98.3719 158.612 98.2629 158.585 98.1541L158.342 93.7158C160.18 93.9293 161.893 94.7643 163.2 96.0848ZM155.374 93.8518C155.671 93.7974 155.94 93.743 156.237 93.6886L155.994 98.045C155.967 98.4262 155.671 98.7529 155.266 98.7529C155.158 98.7529 155.023 98.7257 154.942 98.6713L151.353 96.0848C152.459 94.9684 153.835 94.2059 155.374 93.8519V93.8518ZM150.057 97.7182L153.269 100.604C153.565 100.849 153.592 101.312 153.35 101.612C153.269 101.721 153.161 101.802 153.026 101.83L148.843 103.055C148.681 101.203 149.085 99.3248 150.057 97.7182ZM149.328 105.097L153.62 104.362C153.97 104.335 154.294 104.58 154.375 104.934C154.402 105.097 154.402 105.233 154.348 105.369L152.702 109.372C151.191 108.392 149.976 106.894 149.328 105.097ZM159.179 110.516C158.558 110.652 157.937 110.733 157.29 110.733C156.345 110.733 155.428 110.57 154.564 110.298L156.696 106.404C156.912 106.159 157.263 106.05 157.56 106.213C157.686 106.291 157.796 106.393 157.884 106.513L159.962 110.298C159.719 110.379 159.449 110.434 159.179 110.516ZM164.442 106.731C163.767 107.82 162.876 108.691 161.851 109.372L160.151 105.26C160.07 104.934 160.205 104.58 160.528 104.416C160.636 104.362 160.771 104.335 160.906 104.335L165.224 105.07C165.062 105.669 164.792 106.213 164.442 106.731Z" fill="white"/>
<path fill-rule="evenodd" clip-rule="evenodd" d="M273.496 85.9121L294.453 104.291L287.256 128.017H259.207L252.678 104.267L273.496 85.9121ZM273.504 92.1571L257.977 105.848L262.781 123.328H283.778L289.087 105.824L273.504 92.1571Z" fill="#DF6E46"/>
<path d="M281.805 90.2069C281.805 94.7394 278.13 98.4138 273.598 98.4138C269.065 98.4138 265.391 94.7394 265.391 90.2069C265.391 85.6744 269.065 82 273.598 82C278.13 82 281.805 85.6744 281.805 90.2069Z" fill="#FC8B00"/>
<path d="M299.195 103.494C299.195 108.027 295.521 111.701 290.988 111.701C286.456 111.701 282.781 108.027 282.781 103.494C282.781 98.9615 286.456 95.2871 290.988 95.2871C295.521 95.2871 299.195 98.9615 299.195 103.494Z" fill="#FC8B00"/>
<path d="M293.138 124.793C293.138 129.326 289.464 133 284.931 133C280.399 133 276.724 129.326 276.724 124.793C276.724 120.261 280.399 116.586 284.931 116.586C289.464 116.586 293.138 120.261 293.138 124.793Z" fill="#FC8B00"/>
<path d="M270.276 124.793C270.276 129.326 266.602 133 262.069 133C257.537 133 253.862 129.326 253.862 124.793C253.862 120.261 257.537 116.586 262.069 116.586C266.602 116.586 270.276 120.261 270.276 124.793Z" fill="#FC8B00"/>
<path d="M264.414 103.494C264.414 108.027 260.739 111.701 256.207 111.701C251.674 111.701 248 108.027 248 103.494C248 98.9615 251.674 95.2871 256.207 95.2871C260.739 95.2871 264.414 98.9615 264.414 103.494Z" fill="#FC8B00"/>
<path d="M312.18 102H313.54L310.38 95H309.1L305.95 102H307.29L307.98 100.38H311.48L312.18 102ZM308.42 99.36L309.73 96.3L311.05 99.36H308.42ZM315.42 100.9L319.54 95.87V95H313.77V96.1H317.82L313.7 101.13V102H319.67V100.9H315.42ZM323.671 102.1C325.581 102.1 326.731 100.99 326.731 98.95V95H325.451V98.9C325.451 100.34 324.811 100.96 323.681 100.96C322.551 100.96 321.901 100.34 321.901 98.9V95H320.601V98.95C320.601 100.99 321.751 102.1 323.671 102.1ZM334.332 102L332.722 99.7C333.672 99.33 334.212 98.55 334.212 97.49C334.212 95.94 333.072 95 331.232 95H328.352V102H329.652V99.96H331.232C331.322 99.96 331.412 99.96 331.502 99.95L332.932 102H334.332ZM332.902 97.49C332.902 98.37 332.312 98.89 331.172 98.89H329.652V96.1H331.172C332.312 96.1 332.902 96.61 332.902 97.49ZM336.766 100.91V98.98H340.146V97.91H336.766V96.09H340.576V95H335.466V102H340.716V100.91H336.766ZM309.11 112.1C311.03 112.1 311.94 111.14 311.94 110.02C311.94 107.45 307.79 108.42 307.79 106.93C307.79 106.4 308.23 105.98 309.31 105.98C309.92 105.98 310.61 106.16 311.24 106.53L311.65 105.52C311.04 105.12 310.16 104.9 309.32 104.9C307.4 104.9 306.5 105.86 306.5 106.99C306.5 109.59 310.66 108.6 310.66 110.11C310.66 110.63 310.2 111.02 309.11 111.02C308.25 111.02 307.36 110.7 306.8 110.25L306.35 111.26C306.93 111.76 308.02 112.1 309.11 112.1ZM314.329 110.91V108.98H317.709V107.91H314.329V106.09H318.139V105H313.029V112H318.279V110.91H314.329ZM325.508 112L323.898 109.7C324.848 109.33 325.388 108.55 325.388 107.49C325.388 105.94 324.248 105 322.408 105H319.528V112H320.828V109.96H322.408C322.498 109.96 322.588 109.96 322.678 109.95L324.108 112H325.508ZM324.078 107.49C324.078 108.37 323.488 108.89 322.348 108.89H320.828V106.1H322.348C323.488 106.1 324.078 106.61 324.078 107.49ZM331.743 105L329.393 110.4L327.063 105H325.653L328.713 112H329.993L333.043 105H331.743ZM333.581 112H334.881V105H333.581V112ZM339.815 112.1C340.965 112.1 341.945 111.69 342.595 110.93L341.755 110.13C341.245 110.69 340.615 110.96 339.885 110.96C338.435 110.96 337.385 109.94 337.385 108.5C337.385 107.06 338.435 106.04 339.885 106.04C340.615 106.04 341.245 106.31 341.755 106.86L342.595 106.07C341.945 105.31 340.965 104.9 339.825 104.9C337.675 104.9 336.075 106.41 336.075 108.5C336.075 110.59 337.675 112.1 339.815 112.1ZM344.94 110.91V108.98H348.32V107.91H344.94V106.09H348.75V105H343.64V112H348.89V110.91H344.94ZM312.05 117.09V116H306.94V123H308.24V120.32H311.62V119.22H308.24V117.09H312.05ZM318.044 123H319.404L316.244 116H314.964L311.814 123H313.154L313.844 121.38H317.344L318.044 123ZM314.284 120.36L315.594 117.3L316.914 120.36H314.284ZM325.055 119.36C325.595 119.07 325.955 118.54 325.955 117.82C325.955 116.71 325.055 116 323.375 116H320.095V123H323.575C325.375 123 326.315 122.3 326.315 121.1C326.315 120.19 325.805 119.6 325.055 119.36ZM323.235 117.02C324.135 117.02 324.645 117.34 324.645 117.99C324.645 118.63 324.135 118.95 323.235 118.95H321.395V117.02H323.235ZM323.495 121.98H321.395V119.96H323.495C324.475 119.96 325.005 120.27 325.005 120.97C325.005 121.67 324.475 121.98 323.495 121.98ZM333.482 123L331.872 120.7C332.822 120.33 333.362 119.55 333.362 118.49C333.362 116.94 332.222 116 330.382 116H327.502V123H328.802V120.96H330.382C330.472 120.96 330.562 120.96 330.652 120.95L332.082 123H333.482ZM332.052 118.49C332.052 119.37 331.462 119.89 330.322 119.89H328.802V117.1H330.322C331.462 117.1 332.052 117.61 332.052 118.49ZM334.617 123H335.917V116H334.617V123ZM340.85 123.1C342 123.1 342.98 122.69 343.63 121.93L342.79 121.13C342.28 121.69 341.65 121.96 340.92 121.96C339.47 121.96 338.42 120.94 338.42 119.5C338.42 118.06 339.47 117.04 340.92 117.04C341.65 117.04 342.28 117.31 342.79 117.86L343.63 117.07C342.98 116.31 342 115.9 340.86 115.9C338.71 115.9 337.11 117.41 337.11 119.5C337.11 121.59 338.71 123.1 340.85 123.1Z" fill="#DF6E46"/>
<path d="M261.733 40.7487L270.686 25.3202L261.733 9.8916H243.828L234.875 25.3202L243.828 40.7487H261.733Z" fill="#CAC9C2"/>
<path d="M252.481 32.3631C256.329 32.3631 259.459 29.2483 259.459 25.4196C259.459 21.5912 256.329 18.4766 252.481 18.4766C248.634 18.4766 245.503 21.5912 245.503 25.4196C245.503 29.2483 248.634 32.3631 252.481 32.3631Z" fill="white"/>
<path d="M238.443 4.71896C238.992 3.77345 240.338 3 241.435 3H263.498C264.595 3 265.942 3.77365 266.49 4.71896L272.937 15.8288C272.987 16.5465 272.855 17.2962 272.537 17.8441L268.173 25.2674L260.383 11.8775H235.762C235.179 11.8775 234.528 12.0969 233.961 12.4426L238.443 4.71896Z" fill="#5072AA"/>
<path d="M272.656 15.3428L272.938 15.8291C272.989 16.5468 272.857 17.2965 272.539 17.8444L268.175 25.2677L265.853 21.2773L272.656 15.3428Z" fill="#4D6796"/>
<path d="M262.929 8.70745C263.286 8.70703 263.628 8.56577 263.881 8.31464C264.133 8.06351 264.275 7.72303 264.275 7.36789C264.275 7.01274 264.133 6.67226 263.881 6.42113C263.628 6.17 263.286 6.02874 262.929 6.02832C262.572 6.02863 262.23 6.16986 261.977 6.421C261.725 6.67215 261.583 7.01269 261.583 7.36789C261.583 7.72307 261.725 8.06358 261.977 8.31471C262.23 8.56584 262.572 8.70709 262.929 8.70745ZM240.867 7.36789C240.865 7.53209 240.896 7.69507 240.958 7.84738C241.019 7.99969 241.111 8.13829 241.227 8.25514C241.343 8.37199 241.481 8.46477 241.633 8.52809C241.785 8.59142 241.949 8.62402 242.114 8.62402C242.279 8.62402 242.442 8.59142 242.595 8.52809C242.747 8.46477 242.885 8.37199 243.001 8.25514C243.117 8.13829 243.208 7.99969 243.27 7.84738C243.332 7.69507 243.362 7.53209 243.36 7.36789C243.356 7.04164 243.223 6.73015 242.99 6.5009C242.756 6.27165 242.442 6.14311 242.114 6.14311C241.786 6.14311 241.471 6.27165 241.238 6.5009C241.004 6.73015 240.871 7.04164 240.867 7.36789Z" fill="white"/>
<path d="M227.412 23.7294L233.961 12.442C234.527 12.0963 235.179 11.877 235.762 11.877H244.641L236.963 25.3409L249.118 46.7078C249.386 47.1685 249.843 47.5877 250.368 47.8971H241.435C240.338 47.8971 238.991 47.1235 238.443 46.1782L227.412 27.1675C226.863 26.222 226.863 24.6749 227.412 23.7294Z" fill="#CC4232"/>
<path d="M233.665 12.9484L233.959 12.442C234.525 12.0963 235.177 11.877 235.759 11.877H244.638L242.327 15.9301L233.665 12.9484Z" fill="#B23F33"/>
<path d="M242.114 44.6142C242.471 44.6138 242.813 44.4725 243.065 44.2214C243.318 43.9702 243.46 43.6297 243.46 43.2745C243.46 42.9193 243.318 42.5788 243.065 42.3277C242.813 42.0766 242.471 41.9353 242.114 41.9349C241.757 41.9353 241.415 42.0765 241.162 42.3276C240.91 42.5788 240.768 42.9193 240.767 43.2745C240.768 43.6297 240.91 43.9702 241.162 44.2214C241.414 44.4726 241.757 44.6139 242.114 44.6142ZM231.636 26.7594C231.993 26.7591 232.335 26.6178 232.587 26.3666C232.84 26.1154 232.982 25.7749 232.982 25.4197C232.982 25.0645 232.84 24.724 232.587 24.4728C232.335 24.2217 231.993 24.0805 231.636 24.0801C231.279 24.0805 230.937 24.2218 230.684 24.4729C230.432 24.724 230.29 25.0645 230.289 25.4197C230.29 25.7749 230.432 26.1154 230.684 26.3666C230.936 26.6178 231.279 26.7591 231.636 26.7594Z" fill="white"/>
<path d="M260.214 38.8071L272.537 17.8434C272.855 17.2955 272.987 16.5459 272.937 15.8281L277.521 23.7292C278.07 24.6747 278.07 26.2218 277.521 27.1673L266.49 46.1779C265.942 47.1232 264.595 47.8967 263.498 47.8967H250.368C249.843 47.5875 249.386 47.1682 249.118 46.7074L244.624 38.8069H260.214" fill="#ECB02A"/>
<path d="M251.115 47.8973H250.351C249.826 47.5881 249.368 47.1689 249.101 46.708L244.607 38.8076H249.393L251.115 47.8973Z" fill="#C79732"/>
<path d="M262.929 44.6143C263.286 44.6139 263.628 44.4726 263.881 44.2214C264.133 43.9702 264.275 43.6297 264.275 43.2745C264.275 42.9194 264.133 42.5789 263.88 42.3278C263.628 42.0766 263.286 41.9354 262.929 41.9349C262.572 41.9353 262.23 42.0765 261.977 42.3276C261.725 42.5788 261.583 42.9193 261.582 43.2745C261.583 43.6297 261.725 43.9703 261.977 44.2215C262.23 44.4727 262.572 44.614 262.929 44.6143ZM273.426 26.7595C273.783 26.7591 274.125 26.6178 274.377 26.3667C274.63 26.1155 274.772 25.7749 274.772 25.4197C274.772 25.0645 274.63 24.724 274.377 24.4729C274.125 24.2217 273.783 24.0805 273.426 24.0801C273.069 24.0806 272.726 24.2218 272.474 24.4729C272.222 24.7241 272.08 25.0646 272.079 25.4197C272.08 25.7749 272.222 26.1154 272.474 26.3666C272.726 26.6178 273.069 26.759 273.426 26.7595Z" fill="white"/>
<path opacity="0.5" d="M291.701 24.5916C291.251 24.8516 290.761 24.9516 290.261 24.9516C288.781 24.9516 287.731 23.9116 287.731 22.4916C287.731 21.0416 288.781 20.0316 290.271 20.0316C291.021 20.0316 291.651 20.2816 292.201 20.8316L293.021 20.0316C292.361 19.2816 291.381 18.8916 290.211 18.8916C288.021 18.8916 286.421 20.4016 286.421 22.4916C286.421 24.5816 288.021 26.0916 290.191 26.0916C291.181 26.0916 292.201 25.7916 292.931 25.2016V22.4116H291.701V24.5916ZM297.715 26.0916C299.885 26.0916 301.485 24.5716 301.485 22.4916C301.485 20.4116 299.885 18.8916 297.715 18.8916C295.545 18.8916 293.945 20.4216 293.945 22.4916C293.945 24.5616 295.545 26.0916 297.715 26.0916ZM297.715 24.9516C296.305 24.9516 295.255 23.9216 295.255 22.4916C295.255 21.0616 296.305 20.0316 297.715 20.0316C299.125 20.0316 300.175 21.0616 300.175 22.4916C300.175 23.9216 299.125 24.9516 297.715 24.9516ZM305.933 26.0916C308.103 26.0916 309.703 24.5716 309.703 22.4916C309.703 20.4116 308.103 18.8916 305.933 18.8916C303.763 18.8916 302.163 20.4216 302.163 22.4916C302.163 24.5616 303.763 26.0916 305.933 26.0916ZM305.933 24.9516C304.523 24.9516 303.473 23.9216 303.473 22.4916C303.473 21.0616 304.523 20.0316 305.933 20.0316C307.343 20.0316 308.393 21.0616 308.393 22.4916C308.393 23.9216 307.343 24.9516 305.933 24.9516ZM315.661 24.5916C315.211 24.8516 314.721 24.9516 314.221 24.9516C312.741 24.9516 311.691 23.9116 311.691 22.4916C311.691 21.0416 312.741 20.0316 314.231 20.0316C314.981 20.0316 315.611 20.2816 316.161 20.8316L316.981 20.0316C316.321 19.2816 315.341 18.8916 314.171 18.8916C311.981 18.8916 310.381 20.4016 310.381 22.4916C310.381 24.5816 311.981 26.0916 314.151 26.0916C315.141 26.0916 316.161 25.7916 316.891 25.2016V22.4116H315.661V24.5916ZM318.406 25.9916H323.366V24.8916H319.706V18.9916H318.406V25.9916ZM325.492 24.9016V22.9716H328.872V21.9016H325.492V20.0816H329.302V18.9916H324.192V25.9916H329.442V24.9016H325.492ZM290.161 36.0916C291.311 36.0916 292.291 35.6816 292.941 34.9216L292.101 34.1216C291.591 34.6816 290.961 34.9516 290.231 34.9516C288.781 34.9516 287.731 33.9316 287.731 32.4916C287.731 31.0516 288.781 30.0316 290.231 30.0316C290.961 30.0316 291.591 30.3016 292.101 30.8516L292.941 30.0616C292.291 29.3016 291.311 28.8916 290.171 28.8916C288.021 28.8916 286.421 30.4016 286.421 32.4916C286.421 34.5816 288.021 36.0916 290.161 36.0916ZM293.986 35.9916H298.946V34.8916H295.286V28.9916H293.986V35.9916ZM302.916 36.0916C305.086 36.0916 306.686 34.5716 306.686 32.4916C306.686 30.4116 305.086 28.8916 302.916 28.8916C300.746 28.8916 299.146 30.4216 299.146 32.4916C299.146 34.5616 300.746 36.0916 302.916 36.0916ZM302.916 34.9516C301.506 34.9516 300.456 33.9216 300.456 32.4916C300.456 31.0616 301.506 30.0316 302.916 30.0316C304.326 30.0316 305.376 31.0616 305.376 32.4916C305.376 33.9216 304.326 34.9516 302.916 34.9516ZM310.874 36.0916C312.784 36.0916 313.934 34.9816 313.934 32.9416V28.9916H312.654V32.8916C312.654 34.3316 312.014 34.9516 310.884 34.9516C309.754 34.9516 309.104 34.3316 309.104 32.8916V28.9916H307.804V32.9416C307.804 34.9816 308.954 36.0916 310.874 36.0916ZM315.554 35.9916H318.614C320.884 35.9916 322.434 34.5916 322.434 32.4916C322.434 30.3916 320.884 28.9916 318.614 28.9916H315.554V35.9916ZM316.854 34.8916V30.0916H318.554C320.114 30.0916 321.124 31.0416 321.124 32.4916C321.124 33.9416 320.114 34.8916 318.554 34.8916H316.854ZM289.801 39.9916H286.921V46.9916H288.221V44.9716H289.801C291.641 44.9716 292.781 44.0216 292.781 42.4816C292.781 40.9316 291.641 39.9916 289.801 39.9916ZM289.741 43.8716H288.221V41.0916H289.741C290.881 41.0916 291.471 41.6016 291.471 42.4816C291.471 43.3616 290.881 43.8716 289.741 43.8716ZM293.879 46.9916H298.839V45.8916H295.179V39.9916H293.879V46.9916ZM304.954 46.9916H306.314L303.154 39.9916H301.874L298.724 46.9916H300.064L300.754 45.3716H304.254L304.954 46.9916ZM301.194 44.3516L302.504 41.2916L303.824 44.3516H301.194ZM308.073 46.9916H309.373V41.0916H311.693V39.9916H305.753V41.0916H308.073V46.9916ZM317.578 41.0816V39.9916H312.468V46.9916H313.768V44.3116H317.148V43.2116H313.768V41.0816H317.578ZM321.827 47.0916C323.997 47.0916 325.597 45.5716 325.597 43.4916C325.597 41.4116 323.997 39.8916 321.827 39.8916C319.657 39.8916 318.057 41.4216 318.057 43.4916C318.057 45.5616 319.657 47.0916 321.827 47.0916ZM321.827 45.9516C320.417 45.9516 319.367 44.9216 319.367 43.4916C319.367 42.0616 320.417 41.0316 321.827 41.0316C323.237 41.0316 324.287 42.0616 324.287 43.4916C324.287 44.9216 323.237 45.9516 321.827 45.9516ZM332.755 46.9916L331.145 44.6916C332.095 44.3216 332.635 43.5416 332.635 42.4816C332.635 40.9316 331.495 39.9916 329.655 39.9916H326.775V46.9916H328.075V44.9516H329.655C329.745 44.9516 329.835 44.9516 329.925 44.9416L331.355 46.9916H332.755ZM331.325 42.4816C331.325 43.3616 330.735 43.8816 329.595 43.8816H328.075V41.0916H329.595C330.735 41.0916 331.325 41.6016 331.325 42.4816ZM341.55 46.9916L341.54 39.9916H340.47L337.74 44.6316L334.96 39.9916H333.89V46.9916H335.13V42.4116L337.43 46.1916H338.01L340.31 42.3516L340.32 46.9916H341.55Z" fill="black"/>
</g>
<defs>
<clipPath id="clip0_3219_439">
<rect width="356" height="220" fill="white"/>
</clipPath>
</defs>
</svg>
