<svg width="124" height="35" viewBox="0 0 124 35" fill="none" xmlns="http://www.w3.org/2000/svg">
<path fill-rule="evenodd" clip-rule="evenodd" d="M54.3064 14.4014C51.2965 14.4014 48.8564 16.8429 48.8564 19.8547V29.6044C48.8564 30.7909 47.8952 31.7527 46.7095 31.7527C45.5237 31.7527 44.5625 30.7909 44.5625 29.6044V19.8547C44.5625 14.47 48.925 10.1049 54.3064 10.1049C59.6878 10.1049 64.0503 14.47 64.0503 19.8547V29.6044C64.0503 30.7909 63.0891 31.7527 61.9033 31.7527C60.7176 31.7527 59.7564 30.7909 59.7564 29.6044V19.8547C59.7564 16.8429 57.3163 14.4014 54.3064 14.4014Z" fill="#959595"/>
<path fill-rule="evenodd" clip-rule="evenodd" d="M46.7095 2.9165C47.8952 2.9165 48.8564 3.87831 48.8564 5.06476V29.6044C48.8564 30.7909 47.8952 31.7527 46.7095 31.7527C45.5237 31.7527 44.5625 30.7909 44.5625 29.6044V5.06476C44.5625 3.87831 45.5237 2.9165 46.7095 2.9165Z" fill="#959595"/>
<path fill-rule="evenodd" clip-rule="evenodd" d="M95.4289 2.9165C96.6147 2.9165 97.5759 3.87831 97.5759 5.06476V24.8122C97.5759 26.2724 98.7589 27.4562 100.218 27.4562H101.292C102.478 27.4562 103.439 28.418 103.439 29.6044C103.439 30.7909 102.478 31.7527 101.292 31.7527H100.218C96.3875 31.7527 93.282 28.6453 93.282 24.8122V5.06476C93.282 3.87831 94.2432 2.9165 95.4289 2.9165Z" fill="#959595"/>
<path fill-rule="evenodd" clip-rule="evenodd" d="M78.9964 27.6214C82.7817 27.6214 85.8502 24.551 85.8502 20.7635C85.8502 16.976 82.7817 13.9056 78.9964 13.9056C75.2112 13.9056 72.1427 16.976 72.1427 20.7635C72.1427 24.551 75.2112 27.6214 78.9964 27.6214ZM78.9964 31.9179C85.1531 31.9179 90.1441 26.9239 90.1441 20.7635C90.1441 14.6031 85.1531 9.60914 78.9964 9.60914C72.8397 9.60914 67.8488 14.6031 67.8488 20.7635C67.8488 26.9239 72.8397 31.9179 78.9964 31.9179Z" fill="#959595"/>
<path fill-rule="evenodd" clip-rule="evenodd" d="M87.9971 18.2021C89.1829 18.2021 90.1441 19.164 90.1441 20.3504V29.9349C90.1441 31.1214 89.1829 32.0832 87.9971 32.0832C86.8114 32.0832 85.8502 31.1214 85.8502 29.9349V20.3504C85.8502 19.164 86.8114 18.2021 87.9971 18.2021Z" fill="#959595"/>
<path fill-rule="evenodd" clip-rule="evenodd" d="M112.852 27.6214C116.638 27.6214 119.706 24.551 119.706 20.7635C119.706 16.976 116.638 13.9056 112.852 13.9056C109.067 13.9056 105.999 16.976 105.999 20.7635C105.999 24.551 109.067 27.6214 112.852 27.6214ZM112.852 31.9179C119.009 31.9179 124 26.9239 124 20.7635C124 14.6031 119.009 9.60914 112.852 9.60914C106.696 9.60914 101.705 14.6031 101.705 20.7635C101.705 26.9239 106.696 31.9179 112.852 31.9179Z" fill="#959595"/>
<path d="M17.1331 16.693C27.7145 19.9658 26.8951 25.0797 25.2259 27.2785C28.5895 25.5912 29.3267 16.5909 19.1891 13.2414C7.58091 9.40597 0.618802 18.0993 4.69045 22.1647C3.42594 20.145 6.55179 13.4202 17.1331 16.693Z" fill="#959595"/>
<path d="M12.2171 30.6697C-1.77983 25.8754 1.98453 16.6932 2.86975 15.0825C-1.37931 18.3296 -2.28959 29.4521 9.92835 33.4539C25.6102 38.5902 32.6867 29.8612 29.9807 22.881C29.2725 27.3556 24.1892 34.7704 12.2171 30.6697Z" fill="#959595"/>
<path d="M35.5694 13.2414C37.3144 16.5909 30.2282 20.3393 28.5894 17.0256C27.9 15.6317 28.5723 14.2258 29.7456 13.2414C31.5423 11.734 34.5138 11.2151 35.5694 13.2414Z" fill="#959595"/>
<path d="M5.28562 3.89568C9.00074 3.42283 9.97776 11.448 6.33314 11.8329C4.80003 11.9949 3.73494 10.8639 3.23642 9.40717C2.47301 7.17644 3.03815 4.18173 5.28562 3.89568Z" fill="#959595"/>
<path d="M27.9466 3.33827C32.1884 5.76486 27.0371 14.9103 22.9365 12.4473C21.2116 11.4113 20.9694 9.3935 21.5692 7.48096C22.4877 4.55225 25.3805 1.87031 27.9466 3.33827Z" fill="#959595"/>
<path d="M16.0142 0.065006C20.7589 1.02028 19.0397 11.1132 14.4138 10.0807C12.4679 9.6464 11.5687 7.84306 11.4855 5.87903C11.3581 2.87147 13.1439 -0.512884 16.0142 0.065006Z" fill="#959595"/>
</svg>
