<svg width="85" height="85" viewBox="0 0 85 85" fill="none" xmlns="http://www.w3.org/2000/svg">
<path d="M42.5 84C65.4198 84 84 65.4198 84 42.5C84 19.5802 65.4198 1 42.5 1C19.5802 1 1 19.5802 1 42.5C1 65.4198 19.5802 84 42.5 84Z" stroke="#606060" stroke-width="2"/>
<path fill-rule="evenodd" clip-rule="evenodd" d="M30.697 24.0792V26.0055H29.6007H28.5043V30.3398V34.6741H29.6007H30.697V36.48V38.286H24.8499H19.0029V36.48V34.6741H20.0992H21.1956V30.3398V26.0055H20.0992H19.0029V24.0792V22.1528H24.8499H30.697V24.0792ZM38.493 27.0891C38.493 27.6851 38.5239 28.1727 38.5618 28.1727C38.5997 28.1727 38.8975 27.9018 39.2239 27.5707C39.5502 27.2396 39.9029 26.9687 40.0077 26.9687C40.1126 26.9687 40.1984 26.9145 40.1984 26.8483C40.1984 26.7821 40.308 26.7279 40.442 26.7279C40.576 26.7279 40.6856 26.6737 40.6856 26.6075C40.6856 26.5413 40.7953 26.4871 40.9293 26.4871C41.0633 26.4871 41.1729 26.4329 41.1729 26.3667C41.1729 26.3005 41.447 26.2463 41.782 26.2463C42.1169 26.2463 42.391 26.1921 42.391 26.1259C42.391 26.0545 42.8377 26.0055 43.4873 26.0055C44.137 26.0055 44.5837 26.0545 44.5837 26.1259C44.5837 26.1921 44.8577 26.2463 45.1927 26.2463C45.5277 26.2463 45.8018 26.3005 45.8018 26.3667C45.8018 26.4329 45.9542 26.4871 46.1403 26.4871C46.3391 26.4871 46.5513 26.5866 46.6545 26.7279C46.7511 26.8603 46.902 26.9687 46.9899 26.9687C47.212 26.9687 47.9944 27.7627 47.9944 27.9881C47.9944 28.0896 48.0492 28.1727 48.1162 28.1727C48.1832 28.1727 48.238 28.281 48.238 28.4135C48.238 28.5459 48.2929 28.6542 48.3599 28.6542C48.4378 28.6542 48.4817 29.7378 48.4817 31.6642V34.6741H49.2126C49.6186 34.6741 49.9434 34.6206 49.9434 34.5537C49.9434 34.4875 49.8886 34.4333 49.8216 34.4333C49.7546 34.4333 49.6998 34.2166 49.6998 33.9517C49.6998 33.6868 49.645 33.4701 49.578 33.4701C49.5058 33.4701 49.4562 33.0286 49.4562 32.3865C49.4562 31.7445 49.5058 31.303 49.578 31.303C49.645 31.303 49.6998 31.0863 49.6998 30.8214C49.6998 30.5565 49.7546 30.3398 49.8216 30.3398C49.8886 30.3398 49.9434 30.1773 49.9434 29.9786C49.9434 29.78 49.9982 29.6174 50.0652 29.6174C50.1322 29.6174 50.1871 29.5353 50.1871 29.4349C50.1871 29.2129 51.9465 27.4503 52.1681 27.4503C52.255 27.4503 52.4049 27.3419 52.5015 27.2095C52.5981 27.0771 52.7746 26.9687 52.8939 26.9687C53.013 26.9687 53.1106 26.9145 53.1106 26.8483C53.1106 26.7821 53.275 26.7279 53.476 26.7279C53.677 26.7279 53.8415 26.6737 53.8415 26.6075C53.8415 26.5413 54.0059 26.4871 54.2069 26.4871C54.4079 26.4871 54.5723 26.4329 54.5723 26.3667C54.5723 26.3005 54.8464 26.2463 55.1814 26.2463C55.5164 26.2463 55.7905 26.1921 55.7905 26.1259C55.7905 26.0514 56.4401 26.0055 57.4958 26.0055C58.5516 26.0055 59.2012 26.0514 59.2012 26.1259C59.2012 26.1921 59.4753 26.2463 59.8103 26.2463C60.1453 26.2463 60.4193 26.3005 60.4193 26.3667C60.4193 26.4329 60.529 26.4871 60.663 26.4871C60.797 26.4871 60.9066 26.5413 60.9066 26.6075C60.9066 26.6737 61.0711 26.7279 61.272 26.7279C61.473 26.7279 61.6375 26.7821 61.6375 26.8483C61.6375 26.9145 61.7206 26.9687 61.8221 26.9687C62.0629 26.9687 63.8301 28.7154 63.8301 28.9533C63.8301 29.0537 63.8849 29.1358 63.9519 29.1358C64.0189 29.1358 64.0737 29.2984 64.0737 29.497C64.0737 29.6957 64.1286 29.8582 64.1956 29.8582C64.2626 29.8582 64.3174 30.0704 64.3174 30.3298C64.3174 30.5982 64.3825 30.8228 64.4685 30.8511C64.5785 30.8874 64.5643 30.9557 64.4164 31.1019C64.258 31.2584 63.9816 31.303 63.1688 31.303C62.554 31.303 62.1247 31.3525 62.1247 31.4234C62.1247 31.4963 61.5969 31.5438 60.7848 31.5438H59.4449V30.8214C59.4449 30.4201 59.3908 30.099 59.323 30.099C59.256 30.099 59.2012 30.0153 59.2012 29.913C59.2012 29.6204 58.635 29.1358 58.2931 29.1358C58.1226 29.1358 57.9831 29.0817 57.9831 29.0154C57.9831 28.9492 57.7638 28.895 57.4958 28.895C57.2278 28.895 57.0086 28.9492 57.0086 29.0154C57.0086 29.0817 56.8691 29.1358 56.6986 29.1358C56.3567 29.1358 55.7905 29.6204 55.7905 29.913C55.7905 30.0153 55.7356 30.099 55.6686 30.099C55.6016 30.099 55.5468 30.2615 55.5468 30.4602C55.5468 30.6589 55.492 30.8214 55.425 30.8214C55.3501 30.8214 55.3032 31.4234 55.3032 32.3865C55.3032 33.3497 55.3501 33.9517 55.425 33.9517C55.492 33.9517 55.5468 34.0889 55.5468 34.2567C55.5468 34.5958 56.2713 35.3965 56.5782 35.3965C56.6809 35.3965 56.765 35.4506 56.765 35.5169C56.765 35.5856 57.1304 35.6372 57.6177 35.6372C58.1049 35.6372 58.4703 35.5856 58.4703 35.5169C58.4703 35.4506 58.555 35.3965 58.6585 35.3965C58.9023 35.3965 59.4449 34.8602 59.4449 34.6193C59.4449 34.517 59.4997 34.4333 59.5667 34.4333C59.6337 34.4333 59.6885 34.2707 59.6885 34.0721V33.7109H62.1247H64.561V34.0721C64.561 34.2707 64.5062 34.4333 64.4392 34.4333C64.3722 34.4333 64.3174 34.5958 64.3174 34.7945C64.3174 34.9931 64.2626 35.1557 64.1956 35.1557C64.1286 35.1557 64.0737 35.264 64.0737 35.3965C64.0737 35.5289 64.0189 35.6372 63.9519 35.6372C63.8849 35.6372 63.8301 35.7337 63.8301 35.8514C63.8301 35.9693 63.7205 36.1438 63.5865 36.2392C63.4525 36.3347 63.3429 36.4859 63.3429 36.5754C63.3429 36.785 63.0424 37.082 62.8303 37.082C62.7398 37.082 62.5868 37.1904 62.4902 37.3228C62.3936 37.4552 62.2171 37.5636 62.0978 37.5636C61.9787 37.5636 61.8811 37.6178 61.8811 37.684C61.8811 37.7502 61.7715 37.8044 61.6375 37.8044C61.5035 37.8044 61.3939 37.8586 61.3939 37.9248C61.3939 37.991 61.2842 38.0452 61.1502 38.0452C61.0162 38.0452 60.9066 38.0994 60.9066 38.1656C60.9066 38.2318 60.6873 38.286 60.4193 38.286C60.1514 38.286 59.9321 38.3402 59.9321 38.4064C59.9321 38.4825 59.0794 38.5268 57.6177 38.5268C56.1559 38.5268 55.3032 38.4825 55.3032 38.4064C55.3032 38.3402 55.0839 38.286 54.816 38.286C54.548 38.286 54.3287 38.2318 54.3287 38.1656C54.3287 38.0994 54.1643 38.0452 53.9633 38.0452C53.7623 38.0452 53.5978 37.991 53.5978 37.9248C53.5978 37.8586 53.4882 37.8044 53.3542 37.8044C53.2202 37.8044 53.1106 37.7502 53.1106 37.684C53.1106 37.6178 53.0009 37.5636 52.8669 37.5636C52.733 37.5636 52.6233 37.5094 52.6233 37.4432C52.6233 37.377 52.5257 37.3228 52.4066 37.3228C52.2874 37.3228 52.1109 37.2144 52.0143 37.082C51.9177 36.9496 51.7667 36.8412 51.6788 36.8412C51.4868 36.8412 50.6743 36.0609 50.6743 35.8766C50.6743 35.7446 50.1315 35.1557 50.0098 35.1557C49.9733 35.1557 49.9434 35.86 49.9434 36.7208V38.286H45.5582H41.1729V36.48V34.6741H42.0256H42.8783V32.6273C42.8783 31.3431 42.8328 30.5806 42.7565 30.5806C42.6895 30.5806 42.6346 30.4969 42.6346 30.3946C42.6346 30.2922 42.5 30.0755 42.3356 29.913C42.0648 29.6452 41.9385 29.6174 40.9957 29.6174C40.3829 29.6174 39.9548 29.6669 39.9548 29.7378C39.9548 29.804 39.8701 29.8582 39.7666 29.8582C39.663 29.8582 39.4438 29.9912 39.2793 30.1538C39.1149 30.3163 38.9803 30.533 38.9803 30.6354C38.9803 30.7377 38.9254 30.8214 38.8584 30.8214C38.7823 30.8214 38.7366 31.5438 38.7366 32.7477V34.6741H39.4152C40.4156 34.6741 40.442 34.725 40.442 36.6521V38.286H35.8131H31.1842V36.6521C31.1842 34.725 31.2106 34.6741 32.211 34.6741H32.8896V32.0254V29.3766H32.0369H31.1842V27.6911V26.0055H34.8386H38.493V27.0891ZM66.9973 34.5537C66.9973 34.6199 67.0819 34.6741 67.1855 34.6741C67.4292 34.6741 67.9718 35.2103 67.9718 35.4512C67.9718 35.5536 68.0266 35.6372 68.0936 35.6372C68.1613 35.6372 68.2154 35.9583 68.2154 36.3596C68.2154 36.7609 68.1613 37.082 68.0936 37.082C68.0266 37.082 67.9718 37.1657 67.9718 37.268C67.9718 37.5089 67.4292 38.0452 67.1855 38.0452C67.0819 38.0452 66.9973 38.0994 66.9973 38.1656C66.9973 38.2343 66.6318 38.286 66.1446 38.286C65.6573 38.286 65.2919 38.2343 65.2919 38.1656C65.2919 38.0994 65.2058 38.0452 65.1005 38.0452C64.8543 38.0452 64.561 37.7553 64.561 37.5119C64.561 37.4079 64.5062 37.3228 64.4392 37.3228C64.3722 37.3228 64.3174 37.2144 64.3174 37.082C64.3174 36.9496 64.2626 36.8412 64.1956 36.8412C64.1286 36.8412 64.0737 36.6245 64.0737 36.3596C64.0737 36.0948 64.1286 35.878 64.1956 35.878C64.2626 35.878 64.3174 35.7697 64.3174 35.6372C64.3174 35.5048 64.3722 35.3965 64.4392 35.3965C64.5062 35.3965 64.561 35.3113 64.561 35.2073C64.561 34.964 64.8543 34.6741 65.1005 34.6741C65.2058 34.6741 65.2919 34.6199 65.2919 34.5537C65.2919 34.4849 65.6573 34.4333 66.1446 34.4333C66.6318 34.4333 66.9973 34.4849 66.9973 34.5537ZM36.544 40.0919C36.544 40.1581 36.7633 40.2123 37.0313 40.2123C37.2992 40.2123 37.5185 40.2665 37.5185 40.3327C37.5185 40.3989 37.683 40.4531 37.8839 40.4531C38.0849 40.4531 38.2494 40.5073 38.2494 40.5735C38.2494 40.6397 38.359 40.6939 38.493 40.6939C38.627 40.6939 38.7366 40.7481 38.7366 40.8143C38.7366 40.8805 38.8231 40.9347 38.9289 40.9347C39.0347 40.9347 39.3318 41.1514 39.5893 41.4163C39.8468 41.6812 40.1439 41.8979 40.2498 41.8979C40.3555 41.8979 40.442 41.9844 40.442 42.0904C40.442 42.1962 40.6065 42.4347 40.8075 42.6203C41.0084 42.8058 41.1729 43.0324 41.1729 43.1235C41.1729 43.2148 41.2825 43.3676 41.4165 43.463C41.5505 43.5585 41.6601 43.733 41.6601 43.8508C41.6601 43.9686 41.715 44.065 41.782 44.065C41.849 44.065 41.9038 44.2275 41.9038 44.4262C41.9038 44.6249 41.9586 44.7874 42.0256 44.7874C42.0926 44.7874 42.1474 44.9499 42.1474 45.1486C42.1474 45.3472 42.2022 45.5098 42.2692 45.5098C42.3362 45.5098 42.391 45.7265 42.391 45.9914C42.391 46.2562 42.4458 46.4729 42.5128 46.4729C42.5902 46.4729 42.6346 47.396 42.6346 49.0013C42.6346 50.6065 42.5902 51.5296 42.5128 51.5296C42.4458 51.5296 42.391 51.7463 42.391 52.0112C42.391 52.2761 42.3362 52.4928 42.2692 52.4928C42.2022 52.4928 42.1474 52.6553 42.1474 52.854C42.1474 53.0526 42.0926 53.2152 42.0256 53.2152C41.9586 53.2152 41.9038 53.3777 41.9038 53.5763C41.9038 53.775 41.849 53.9375 41.782 53.9375C41.715 53.9375 41.6601 54.0459 41.6601 54.1783C41.6601 54.3108 41.6053 54.4191 41.5383 54.4191C41.4713 54.4191 41.4165 54.5156 41.4165 54.6333C41.4165 54.7512 41.3069 54.9256 41.1729 55.0211C41.0389 55.1166 40.9293 55.2648 40.9293 55.3506C40.9293 55.5696 39.1459 57.3086 38.9213 57.3086C38.8197 57.3086 38.7366 57.3628 38.7366 57.429C38.7366 57.4953 38.627 57.5494 38.493 57.5494C38.359 57.5494 38.2494 57.6036 38.2494 57.6698C38.2494 57.736 38.1397 57.7902 38.0057 57.7902C37.8718 57.7902 37.7621 57.8444 37.7621 57.9106C37.7621 57.9768 37.5977 58.031 37.3967 58.031C37.1957 58.031 37.0313 58.0852 37.0313 58.1514C37.0313 58.2176 36.812 58.2718 36.544 58.2718C36.276 58.2718 36.0567 58.326 36.0567 58.3922C36.0567 58.4658 35.4882 58.5126 34.595 58.5126C33.7017 58.5126 33.1332 58.4658 33.1332 58.3922C33.1332 58.326 32.8591 58.2718 32.5242 58.2718C32.1892 58.2718 31.9151 58.2176 31.9151 58.1514C31.9151 58.0852 31.8055 58.031 31.6715 58.031C31.5375 58.031 31.4278 57.9768 31.4278 57.9106C31.4278 57.8444 31.3182 57.7902 31.1842 57.7902C31.0502 57.7902 30.9406 57.736 30.9406 57.6698C30.9406 57.6036 30.831 57.5494 30.697 57.5494C30.563 57.5494 30.4533 57.4953 30.4533 57.429C30.4533 57.3628 30.3703 57.3086 30.2687 57.3086C30.0441 57.3086 28.2607 55.5696 28.2607 55.3506C28.2607 55.2648 28.1511 55.1166 28.0171 55.0211C27.8831 54.9256 27.7735 54.7512 27.7735 54.6333C27.7735 54.5156 27.7186 54.4191 27.6516 54.4191C27.5846 54.4191 27.5298 54.2566 27.5298 54.0579C27.5298 53.8593 27.475 53.6967 27.408 53.6967C27.341 53.6967 27.2862 53.5884 27.2862 53.4559C27.2862 53.3235 27.2314 53.2152 27.1644 53.2152C27.0974 53.2152 27.0426 52.9984 27.0426 52.7336C27.0426 52.4687 26.9878 52.252 26.9208 52.252C26.8512 52.252 26.799 51.8908 26.799 51.4092C26.799 50.9276 26.7467 50.5664 26.6771 50.5664C26.6049 50.5664 26.5553 50.1249 26.5553 49.4829C26.5553 48.8408 26.6049 48.3993 26.6771 48.3993C26.7467 48.3993 26.799 48.0381 26.799 47.5565C26.799 47.0749 26.8512 46.7137 26.9208 46.7137C26.9878 46.7137 27.0426 46.497 27.0426 46.2322C27.0426 45.9673 27.0974 45.7506 27.1644 45.7506C27.2314 45.7506 27.2862 45.588 27.2862 45.3894C27.2862 45.1907 27.341 45.0282 27.408 45.0282C27.475 45.0282 27.5298 44.8656 27.5298 44.667C27.5298 44.4683 27.5846 44.3058 27.6516 44.3058C27.7186 44.3058 27.7735 44.2094 27.7735 44.0916C27.7735 43.9737 27.8831 43.7993 28.0171 43.7038C28.1511 43.6083 28.2607 43.4458 28.2607 43.3426C28.2607 43.2394 28.3703 43.0769 28.5043 42.9814C28.6383 42.886 28.748 42.7368 28.748 42.6499C28.748 42.4565 29.5391 41.6571 29.7304 41.6571C29.8063 41.6571 30.022 41.4945 30.2097 41.2959C30.3974 41.0972 30.6387 40.9347 30.7458 40.9347C30.853 40.9347 30.9406 40.8805 30.9406 40.8143C30.9406 40.7481 31.0502 40.6939 31.1842 40.6939C31.3182 40.6939 31.4278 40.6397 31.4278 40.5735C31.4278 40.5073 31.5923 40.4531 31.7933 40.4531C31.9943 40.4531 32.1587 40.3989 32.1587 40.3327C32.1587 40.2665 32.378 40.2123 32.646 40.2123C32.914 40.2123 33.1332 40.1581 33.1332 40.0919C33.1332 40.0174 33.7829 39.9715 34.8386 39.9715C35.8944 39.9715 36.544 40.0174 36.544 40.0919ZM52.8669 40.0919C52.8669 40.1581 53.141 40.2123 53.476 40.2123C53.811 40.2123 54.0851 40.2665 54.0851 40.3327C54.0851 40.3989 54.1947 40.4531 54.3287 40.4531C54.4627 40.4531 54.5723 40.5073 54.5723 40.5735C54.5723 40.6397 54.7247 40.6939 54.9108 40.6939C55.1096 40.6939 55.3218 40.7934 55.425 40.9347C55.5216 41.0671 55.6716 41.1755 55.7584 41.1755C55.98 41.1755 57.7395 42.9381 57.7395 43.1601C57.7395 43.2605 57.7943 43.3426 57.8613 43.3426C57.9283 43.3426 57.9831 43.451 57.9831 43.5834C57.9831 43.7159 58.0379 43.8242 58.1049 43.8242C58.1719 43.8242 58.2267 43.9326 58.2267 44.065C58.2267 44.1974 58.2815 44.3058 58.3485 44.3058C58.4155 44.3058 58.4703 44.4683 58.4703 44.667C58.4703 44.8656 58.5252 45.0282 58.5922 45.0282C58.6591 45.0282 58.714 45.1907 58.714 45.3894C58.714 45.588 58.7688 45.7506 58.8358 45.7506C58.9028 45.7506 58.9576 45.9673 58.9576 46.2322C58.9576 46.497 59.0124 46.7137 59.0794 46.7137C59.1562 46.7137 59.2012 47.5164 59.2012 48.8809C59.2012 50.2453 59.1562 51.048 59.0794 51.048C59.0124 51.048 58.9576 51.3189 58.9576 51.65C58.9576 51.9811 58.9028 52.252 58.8358 52.252C58.7688 52.252 58.714 52.4687 58.714 52.7336C58.714 52.9984 58.6591 53.2152 58.5922 53.2152C58.5252 53.2152 58.4703 53.3235 58.4703 53.4559C58.4703 53.5884 58.4155 53.6967 58.3485 53.6967C58.2815 53.6967 58.2267 53.8051 58.2267 53.9375C58.2267 54.07 58.1719 54.1783 58.1049 54.1783C58.0379 54.1783 57.9831 54.2867 57.9831 54.4191C57.9831 54.5516 57.9283 54.6599 57.8613 54.6599C57.7943 54.6599 57.7395 54.7564 57.7395 54.8741C57.7395 54.992 57.6298 55.1664 57.4958 55.2619C57.3618 55.3574 57.2522 55.5059 57.2522 55.592C57.2522 55.7961 55.9655 57.0678 55.759 57.0678C55.6719 57.0678 55.5216 57.1762 55.425 57.3086C55.3284 57.4411 55.1519 57.5494 55.0327 57.5494C54.9135 57.5494 54.816 57.6036 54.816 57.6698C54.816 57.736 54.7063 57.7902 54.5723 57.7902C54.4383 57.7902 54.3287 57.8444 54.3287 57.9106C54.3287 57.9768 54.1643 58.031 53.9633 58.031C53.7623 58.031 53.5978 58.0852 53.5978 58.1514C53.5978 58.2176 53.3786 58.2718 53.1106 58.2718C52.8426 58.2718 52.6233 58.326 52.6233 58.3922C52.6233 58.4658 52.0548 58.5126 51.1616 58.5126C50.2683 58.5126 49.6998 58.4658 49.6998 58.3922C49.6998 58.326 49.4257 58.2718 49.0907 58.2718C48.7558 58.2718 48.4817 58.2176 48.4817 58.1514C48.4817 58.0852 48.3172 58.031 48.1162 58.031C47.9152 58.031 47.7508 57.9768 47.7508 57.9106C47.7508 57.8444 47.6532 57.7902 47.5341 57.7902C47.4148 57.7902 47.2383 57.6819 47.1417 57.5494C47.0451 57.417 46.8905 57.3086 46.7982 57.3086C46.706 57.3086 46.4767 57.1461 46.289 56.9474C46.1013 56.7488 45.8835 56.5863 45.8051 56.5863C45.6211 56.5863 45.3145 56.2832 45.3145 56.1014C45.3145 56.0239 45.1501 55.8086 44.9491 55.6231C44.7481 55.4376 44.5837 55.199 44.5837 55.0932C44.5837 54.9873 44.5288 54.9007 44.4618 54.9007C44.3948 54.9007 44.34 54.7923 44.34 54.6599C44.34 54.5275 44.2852 54.4191 44.2182 54.4191C44.1512 54.4191 44.0964 54.3108 44.0964 54.1783C44.0964 54.0459 44.0416 53.9375 43.9746 53.9375C43.9076 53.9375 43.8528 53.775 43.8528 53.5763C43.8528 53.3777 43.798 53.2152 43.731 53.2152C43.664 53.2152 43.6092 53.0526 43.6092 52.854C43.6092 52.6553 43.5543 52.4928 43.4873 52.4928C43.4196 52.4928 43.3655 52.1717 43.3655 51.7704C43.3655 51.3691 43.3114 51.048 43.2437 51.048C43.1688 51.048 43.1219 50.446 43.1219 49.4829C43.1219 48.5197 43.1688 47.9177 43.2437 47.9177C43.3114 47.9177 43.3655 47.5966 43.3655 47.1953C43.3655 46.794 43.4196 46.4729 43.4873 46.4729C43.5543 46.4729 43.6092 46.2562 43.6092 45.9914C43.6092 45.7265 43.664 45.5098 43.731 45.5098C43.798 45.5098 43.8528 45.3472 43.8528 45.1486C43.8528 44.9499 43.9076 44.7874 43.9746 44.7874C44.0416 44.7874 44.0964 44.679 44.0964 44.5466C44.0964 44.4142 44.1512 44.3058 44.2182 44.3058C44.2852 44.3058 44.34 44.1974 44.34 44.065C44.34 43.9326 44.3948 43.8242 44.4618 43.8242C44.5288 43.8242 44.5837 43.7278 44.5837 43.61C44.5837 43.4922 44.6933 43.3177 44.8273 43.2222C44.9613 43.1268 45.0709 42.9782 45.0709 42.8921C45.0709 42.688 46.3576 41.4163 46.5641 41.4163C46.6512 41.4163 46.8015 41.3079 46.8981 41.1755C46.9947 41.0431 47.1712 40.9347 47.2905 40.9347C47.4096 40.9347 47.5072 40.8805 47.5072 40.8143C47.5072 40.7481 47.6168 40.6939 47.7508 40.6939C47.8848 40.6939 47.9944 40.6397 47.9944 40.5735C47.9944 40.5073 48.1589 40.4531 48.3599 40.4531C48.5609 40.4531 48.7253 40.3989 48.7253 40.3327C48.7253 40.2665 48.9446 40.2123 49.2126 40.2123C49.4805 40.2123 49.6998 40.1581 49.6998 40.0919C49.6998 40.0179 50.3089 39.9715 51.2834 39.9715C52.2579 39.9715 52.8669 40.0179 52.8669 40.0919ZM69.6771 40.0919C69.6771 40.1581 69.8964 40.2123 70.1644 40.2123C70.4324 40.2123 70.6516 40.2665 70.6516 40.3327C70.6516 40.3989 70.8161 40.4531 71.0171 40.4531C71.2181 40.4531 71.3825 40.5073 71.3825 40.5735C71.3825 40.6397 71.4922 40.6939 71.6262 40.6939C71.7602 40.6939 71.8698 40.7481 71.8698 40.8143C71.8698 40.8805 71.9794 40.9347 72.1134 40.9347C72.2474 40.9347 72.357 40.9889 72.357 41.0551C72.357 41.1213 72.4402 41.1755 72.5421 41.1755C72.7829 41.1755 74.306 42.6809 74.306 42.919C74.306 43.0196 74.3609 43.1018 74.4279 43.1018C74.4948 43.1018 74.5497 43.1983 74.5497 43.316C74.5497 43.4339 74.6593 43.6083 74.7933 43.7038C74.9363 43.8058 75.0369 44.0155 75.0369 44.212C75.0369 44.396 75.0917 44.5466 75.1587 44.5466C75.2257 44.5466 75.2805 44.655 75.2805 44.7874C75.2805 44.9198 75.3354 45.0282 75.4024 45.0282C75.4693 45.0282 75.5242 45.2449 75.5242 45.5098C75.5242 45.7746 75.579 45.9914 75.646 45.9914C75.713 45.9914 75.7678 46.2622 75.7678 46.5933C75.7678 46.9244 75.8226 47.1953 75.8896 47.1953C75.9654 47.1953 76.0114 47.8776 76.0114 49.0013C76.0114 50.1249 75.9654 50.8072 75.8896 50.8072C75.8226 50.8072 75.7678 51.0781 75.7678 51.4092C75.7678 51.7403 75.713 52.0112 75.646 52.0112C75.579 52.0112 75.5242 52.2279 75.5242 52.4928C75.5242 52.7576 75.4693 52.9744 75.4024 52.9744C75.3354 52.9744 75.2805 53.0827 75.2805 53.2152C75.2805 53.3476 75.2257 53.4559 75.1587 53.4559C75.0917 53.4559 75.0369 53.6185 75.0369 53.8171C75.0369 54.0158 74.9821 54.1783 74.9151 54.1783C74.8481 54.1783 74.7933 54.2867 74.7933 54.4191C74.7933 54.5516 74.7385 54.6599 74.6715 54.6599C74.6045 54.6599 74.5497 54.7465 74.5497 54.8524C74.5497 54.9583 74.3852 55.1968 74.1842 55.3823C73.9832 55.5678 73.8188 55.781 73.8188 55.8561C73.8188 56.0333 73.0157 56.827 72.8364 56.827C72.7605 56.827 72.5448 56.9896 72.357 57.1882C72.1693 57.3869 71.928 57.5494 71.8209 57.5494C71.7137 57.5494 71.6262 57.6036 71.6262 57.6698C71.6262 57.736 71.5165 57.7902 71.3825 57.7902C71.2485 57.7902 71.1389 57.8444 71.1389 57.9106C71.1389 57.9768 70.9745 58.031 70.7735 58.031C70.5725 58.031 70.408 58.0852 70.408 58.1514C70.408 58.2176 70.1339 58.2718 69.799 58.2718C69.464 58.2718 69.1899 58.326 69.1899 58.3922C69.1899 58.4658 68.6214 58.5126 67.7281 58.5126C66.8349 58.5126 66.2664 58.4658 66.2664 58.3922C66.2664 58.326 66.0471 58.2718 65.7791 58.2718C65.5111 58.2718 65.2919 58.2176 65.2919 58.1514C65.2919 58.0852 65.1274 58.031 64.9264 58.031C64.7254 58.031 64.561 57.9768 64.561 57.9106C64.561 57.8444 64.4514 57.7902 64.3174 57.7902C64.1834 57.7902 64.0737 57.736 64.0737 57.6698C64.0737 57.6036 63.9762 57.5494 63.857 57.5494C63.7378 57.5494 63.5613 57.4411 63.4647 57.3086C63.3681 57.1762 63.2175 57.0678 63.1301 57.0678C62.9231 57.0678 61.8811 56.038 61.8811 55.8334C61.8811 55.747 61.7715 55.5982 61.6375 55.5027C61.5035 55.4072 61.3939 55.2447 61.3939 55.1415C61.3939 55.0383 61.2842 54.8758 61.1502 54.7803C61.0162 54.6848 60.9066 54.5104 60.9066 54.3925C60.9066 54.2748 60.8518 54.1783 60.7848 54.1783C60.7178 54.1783 60.663 54.0158 60.663 53.8171C60.663 53.6185 60.6082 53.4559 60.5412 53.4559C60.4742 53.4559 60.4193 53.2934 60.4193 53.0948C60.4193 52.8961 60.3645 52.7336 60.2975 52.7336C60.2305 52.7336 60.1757 52.4627 60.1757 52.1316C60.1757 51.8005 60.1209 51.5296 60.0539 51.5296C59.9775 51.5296 59.9321 50.7671 59.9321 49.4829C59.9321 48.1986 59.9775 47.4361 60.0539 47.4361C60.1209 47.4361 60.1757 47.1652 60.1757 46.8341C60.1757 46.503 60.2305 46.2322 60.2975 46.2322C60.3645 46.2322 60.4193 46.0154 60.4193 45.7506C60.4193 45.4857 60.4742 45.269 60.5412 45.269C60.6082 45.269 60.663 45.1606 60.663 45.0282C60.663 44.8957 60.7178 44.7874 60.7848 44.7874C60.8518 44.7874 60.9066 44.6368 60.9066 44.4528C60.9066 44.2563 61.0072 44.0466 61.1502 43.9446C61.2842 43.8491 61.3939 43.6747 61.3939 43.5568C61.3939 43.4391 61.4487 43.3426 61.5157 43.3426C61.5827 43.3426 61.6375 43.2605 61.6375 43.1601C61.6375 42.9222 63.4047 41.1755 63.6455 41.1755C63.747 41.1755 63.8301 41.1213 63.8301 41.0551C63.8301 40.9889 63.9397 40.9347 64.0737 40.9347C64.2077 40.9347 64.3174 40.8805 64.3174 40.8143C64.3174 40.7481 64.427 40.6939 64.561 40.6939C64.695 40.6939 64.8046 40.6397 64.8046 40.5735C64.8046 40.5073 64.9691 40.4531 65.1701 40.4531C65.3711 40.4531 65.5355 40.3989 65.5355 40.3327C65.5355 40.2665 65.7548 40.2123 66.0227 40.2123C66.2907 40.2123 66.51 40.1581 66.51 40.0919C66.51 40.0179 67.1191 39.9715 68.0936 39.9715C69.0681 39.9715 69.6771 40.0179 69.6771 40.0919ZM25.5808 40.9347C25.5808 41.336 25.5267 41.6571 25.459 41.6571C25.3868 41.6571 25.3372 42.0986 25.3372 42.7406V43.8242H20.5865H15.8358V44.7874C15.8358 45.3493 15.785 45.7506 15.714 45.7506C15.647 45.7506 15.5922 45.8589 15.5922 45.9914C15.5922 46.1518 15.6734 46.2322 15.8358 46.2322C15.9698 46.2322 16.0794 46.178 16.0794 46.1118C16.0794 46.0455 16.2987 45.9914 16.5667 45.9914C16.8346 45.9914 17.0539 45.9372 17.0539 45.871C17.0539 45.8022 17.4193 45.7506 17.9066 45.7506C18.3939 45.7506 18.7593 45.6989 18.7593 45.6302C18.7593 45.564 18.9237 45.5098 19.1247 45.5098C19.3257 45.5098 19.4902 45.564 19.4902 45.6302C19.4902 45.7004 19.8962 45.7506 20.4647 45.7506C21.0332 45.7506 21.4392 45.8008 21.4392 45.871C21.4392 45.9372 21.6036 45.9914 21.8046 45.9914C22.0056 45.9914 22.1701 46.0455 22.1701 46.1118C22.1701 46.178 22.2797 46.2322 22.4137 46.2322C22.5477 46.2322 22.6573 46.2863 22.6573 46.3525C22.6573 46.4188 22.7669 46.4729 22.9009 46.4729C23.0349 46.4729 23.1446 46.5271 23.1446 46.5933C23.1446 46.6596 23.2321 46.7137 23.3393 46.7137C23.4464 46.7137 23.6877 46.8763 23.8754 47.0749C24.0631 47.2736 24.3045 47.4361 24.4115 47.4361C24.5187 47.4361 24.6063 47.5227 24.6063 47.6286C24.6063 47.7345 24.7708 47.973 24.9718 48.1585C25.1727 48.344 25.3372 48.5825 25.3372 48.6884C25.3372 48.7943 25.392 48.8809 25.459 48.8809C25.526 48.8809 25.5808 48.9892 25.5808 49.1217C25.5808 49.2541 25.6356 49.3625 25.7026 49.3625C25.7696 49.3625 25.8244 49.4708 25.8244 49.6033C25.8244 49.7357 25.8793 49.844 25.9463 49.844C26.0217 49.844 26.0681 50.4861 26.0681 51.5296C26.0681 52.5731 26.0217 53.2152 25.9463 53.2152C25.8793 53.2152 25.8244 53.3777 25.8244 53.5763C25.8244 53.775 25.7696 53.9375 25.7026 53.9375C25.6356 53.9375 25.5808 54.0881 25.5808 54.2721C25.5808 54.4686 25.4802 54.6783 25.3372 54.7803C25.2032 54.8758 25.0936 55.024 25.0936 55.1098C25.0936 55.3288 23.3102 57.0678 23.0856 57.0678C22.984 57.0678 22.9009 57.122 22.9009 57.1882C22.9009 57.2545 22.7913 57.3086 22.6573 57.3086C22.5233 57.3086 22.4137 57.3628 22.4137 57.429C22.4137 57.4953 22.304 57.5494 22.1701 57.5494C22.0361 57.5494 21.9264 57.6036 21.9264 57.6698C21.9264 57.736 21.762 57.7902 21.561 57.7902C21.36 57.7902 21.1956 57.8444 21.1956 57.9106C21.1956 57.9768 20.9763 58.031 20.7083 58.031C20.4403 58.031 20.221 58.0852 20.221 58.1514C20.221 58.2273 19.4089 58.2718 18.0284 58.2718C16.6479 58.2718 15.8358 58.2273 15.8358 58.1514C15.8358 58.0852 15.5617 58.031 15.2267 58.031C14.8917 58.031 14.6176 57.9768 14.6176 57.9106C14.6176 57.8444 14.4532 57.7902 14.2522 57.7902C14.0512 57.7902 13.8868 57.736 13.8868 57.6698C13.8868 57.6036 13.7771 57.5494 13.6431 57.5494C13.5091 57.5494 13.3995 57.4953 13.3995 57.429C13.3995 57.3628 13.2899 57.3086 13.1559 57.3086C13.0219 57.3086 12.9123 57.2545 12.9123 57.1882C12.9123 57.122 12.8288 57.0678 12.7269 57.0678C12.5011 57.0678 11.2069 55.8113 11.2069 55.592C11.2069 55.5059 11.0973 55.3574 10.9633 55.2619C10.8293 55.1664 10.7196 54.992 10.7196 54.8741C10.7196 54.7564 10.6648 54.6599 10.5978 54.6599C10.5308 54.6599 10.476 54.4974 10.476 54.2987C10.476 54.1001 10.4212 53.9375 10.3542 53.9375C10.2872 53.9375 10.2324 53.7208 10.2324 53.4559C10.2324 53.1911 10.1776 52.9744 10.1106 52.9744C10.0436 52.9744 9.98877 52.866 9.98877 52.7336C9.98877 52.5249 10.07 52.4928 10.5978 52.4928C10.9328 52.4928 11.2069 52.4386 11.2069 52.3724C11.2069 52.3001 11.6941 52.252 12.425 52.252C13.1559 52.252 13.6431 52.2038 13.6431 52.1316C13.6431 52.0628 14.0086 52.0112 14.4958 52.0112H15.3485V52.3724C15.3485 52.571 15.4033 52.7336 15.4703 52.7336C15.5373 52.7336 15.5922 52.8961 15.5922 53.0948C15.5922 53.2934 15.647 53.4559 15.714 53.4559C15.781 53.4559 15.8358 53.5396 15.8358 53.642C15.8358 53.8829 16.3783 54.4191 16.6221 54.4191C16.7256 54.4191 16.8103 54.4733 16.8103 54.5395C16.8103 54.6109 17.257 54.6599 17.9066 54.6599C18.5562 54.6599 19.0029 54.6109 19.0029 54.5395C19.0029 54.4733 19.087 54.4191 19.1897 54.4191C19.4322 54.4191 20.221 53.6394 20.221 53.3997C20.221 53.2982 20.2759 53.2152 20.3429 53.2152C20.4159 53.2152 20.4647 52.7336 20.4647 52.0112C20.4647 51.2888 20.4159 50.8072 20.3429 50.8072C20.2759 50.8072 20.221 50.7245 20.221 50.6235C20.221 50.5224 19.9758 50.1973 19.6761 49.9011C19.1912 49.4218 19.0704 49.3625 18.5797 49.3625C18.2765 49.3625 18.0284 49.3083 18.0284 49.2421C18.0284 49.1758 17.9188 49.1217 17.7848 49.1217C17.6508 49.1217 17.5412 49.1758 17.5412 49.2421C17.5412 49.3083 17.3219 49.3625 17.0539 49.3625C16.7859 49.3625 16.5667 49.4166 16.5667 49.4829C16.5667 49.5491 16.4791 49.6033 16.3719 49.6033C16.2648 49.6033 16.0235 49.7658 15.8358 49.9644C15.5351 50.2825 15.4131 50.3256 14.8124 50.3256C14.4372 50.3256 14.1304 50.2715 14.1304 50.2052C14.1304 50.135 13.7244 50.0848 13.1559 50.0848C12.5874 50.0848 12.1814 50.0346 12.1814 49.9644C12.1814 49.8982 11.9073 49.844 11.5723 49.844H10.9633V49.2421C10.9633 48.911 11.0181 48.6401 11.0851 48.6401C11.1573 48.6401 11.2069 48.1986 11.2069 47.5565C11.2069 46.9144 11.2565 46.4729 11.3287 46.4729C11.4018 46.4729 11.4505 45.9914 11.4505 45.269C11.4505 44.5466 11.4992 44.065 11.5723 44.065C11.6454 44.065 11.6941 43.5834 11.6941 42.861C11.6941 42.1387 11.7429 41.6571 11.8159 41.6571C11.8837 41.6571 11.9378 41.336 11.9378 40.9347V40.2123H18.7593H25.5808V40.9347ZM33.7423 43.8242C33.6457 43.9567 33.4692 44.065 33.3499 44.065C33.2234 44.065 33.1332 44.1541 33.1332 44.2792C33.1332 44.3971 33.0236 44.5715 32.8896 44.667C32.7466 44.769 32.646 44.9787 32.646 45.1752C32.646 45.3592 32.5912 45.5098 32.5242 45.5098C32.4572 45.5098 32.4023 45.7807 32.4023 46.1118C32.4023 46.4428 32.3475 46.7137 32.2805 46.7137C32.2028 46.7137 32.1587 47.717 32.1587 49.4829C32.1587 51.2487 32.2028 52.252 32.2805 52.252C32.3475 52.252 32.4023 52.4687 32.4023 52.7336C32.4023 52.9984 32.4572 53.2152 32.5242 53.2152C32.5912 53.2152 32.646 53.3235 32.646 53.4559C32.646 53.5884 32.7008 53.6967 32.7678 53.6967C32.8348 53.6967 32.8896 53.7819 32.8896 53.8859C32.8896 54.1292 33.1829 54.4191 33.4291 54.4191C33.5344 54.4191 33.6205 54.4733 33.6205 54.5395C33.6205 54.6057 33.7301 54.6599 33.8641 54.6599C33.9981 54.6599 34.1077 54.7141 34.1077 54.7803C34.1077 54.8465 34.3818 54.9007 34.7168 54.9007C35.0518 54.9007 35.3259 54.8465 35.3259 54.7803C35.3259 54.7141 35.4099 54.6599 35.5126 54.6599C35.7551 54.6599 36.544 53.8802 36.544 53.6405C36.544 53.539 36.5988 53.4559 36.6658 53.4559C36.7328 53.4559 36.7876 53.3476 36.7876 53.2152C36.7876 53.0827 36.8424 52.9744 36.9094 52.9744C36.9764 52.9744 37.0313 52.7576 37.0313 52.4928C37.0313 52.2279 37.0861 52.0112 37.1531 52.0112C37.2308 52.0112 37.2749 51.0079 37.2749 49.2421C37.2749 47.4762 37.2308 46.4729 37.1531 46.4729C37.0861 46.4729 37.0313 46.202 37.0313 45.871C37.0313 45.5399 36.9764 45.269 36.9094 45.269C36.8424 45.269 36.7876 45.1606 36.7876 45.0282C36.7876 44.8957 36.7328 44.7874 36.6658 44.7874C36.5988 44.7874 36.544 44.7043 36.544 44.6028C36.544 44.5012 36.354 44.2303 36.1217 44.0008C35.7169 43.6006 35.6627 43.5834 34.8086 43.5834C34.0577 43.5834 33.8903 43.6212 33.7423 43.8242ZM50.4307 43.7038C50.4307 43.77 50.346 43.8242 50.2425 43.8242C50.1389 43.8242 49.9197 43.9573 49.7552 44.1198C49.5908 44.2823 49.4562 44.499 49.4562 44.6014C49.4562 44.7037 49.4014 44.7874 49.3344 44.7874C49.2674 44.7874 49.2126 44.8957 49.2126 45.0282C49.2126 45.1606 49.1577 45.269 49.0907 45.269C49.0237 45.269 48.9689 45.4857 48.9689 45.7506C48.9689 46.0154 48.9141 46.2322 48.8471 46.2322C48.7689 46.2322 48.7253 47.396 48.7253 49.4829C48.7253 51.5697 48.7689 52.7336 48.8471 52.7336C48.9141 52.7336 48.9689 52.8842 48.9689 53.0681C48.9689 53.2646 49.0695 53.4744 49.2126 53.5763C49.3465 53.6718 49.4562 53.8217 49.4562 53.9094C49.4562 54.1798 50.0371 54.6599 50.3643 54.6599C50.5348 54.6599 50.6743 54.7141 50.6743 54.7803C50.6743 54.8465 50.9484 54.9007 51.2834 54.9007C51.6184 54.9007 51.8924 54.8465 51.8924 54.7803C51.8924 54.7141 51.9765 54.6599 52.0792 54.6599C52.3217 54.6599 53.1106 53.8802 53.1106 53.6405C53.1106 53.539 53.1654 53.4559 53.2324 53.4559C53.2994 53.4559 53.3542 53.2934 53.3542 53.0948C53.3542 52.8961 53.409 52.7336 53.476 52.7336C53.543 52.7336 53.5978 52.4627 53.5978 52.1316C53.5978 51.8005 53.6526 51.5296 53.7196 51.5296C53.7966 51.5296 53.8415 50.6868 53.8415 49.2421C53.8415 47.7973 53.7966 46.9545 53.7196 46.9545C53.6519 46.9545 53.5978 46.6334 53.5978 46.2322C53.5978 45.8309 53.5437 45.5098 53.476 45.5098C53.409 45.5098 53.3542 45.3472 53.3542 45.1486C53.3542 44.9499 53.2994 44.7874 53.2324 44.7874C53.1654 44.7874 53.1106 44.7037 53.1106 44.6014C53.1106 44.499 52.976 44.2823 52.8115 44.1198C52.6471 43.9573 52.4278 43.8242 52.3243 43.8242C52.2207 43.8242 52.1361 43.77 52.1361 43.7038C52.1361 43.6351 51.7706 43.5834 51.2834 43.5834C50.7961 43.5834 50.4307 43.6351 50.4307 43.7038ZM67.2409 43.7038C67.2409 43.77 67.1568 43.8242 67.0541 43.8242C66.9513 43.8242 66.6773 44.012 66.4451 44.2416C66.2128 44.4711 66.0227 44.742 66.0227 44.8436C66.0227 44.9451 65.9679 45.0282 65.9009 45.0282C65.8339 45.0282 65.7791 45.2449 65.7791 45.5098C65.7791 45.7746 65.7243 45.9914 65.6573 45.9914C65.5878 45.9914 65.5355 46.3525 65.5355 46.8341C65.5355 47.3157 65.4832 47.6769 65.4137 47.6769C65.3376 47.6769 65.2919 48.3993 65.2919 49.6033C65.2919 50.8072 65.3376 51.5296 65.4137 51.5296C65.4814 51.5296 65.5355 51.8507 65.5355 52.252C65.5355 52.6533 65.5896 52.9744 65.6573 52.9744C65.7243 52.9744 65.7791 53.0827 65.7791 53.2152C65.7791 53.3476 65.8339 53.4559 65.9009 53.4559C65.9679 53.4559 66.0227 53.539 66.0227 53.6405C66.0227 53.8802 66.8116 54.6599 67.0541 54.6599C67.1568 54.6599 67.2409 54.7141 67.2409 54.7803C67.2409 54.8465 67.515 54.9007 67.8499 54.9007C68.1849 54.9007 68.459 54.8465 68.459 54.7803C68.459 54.7141 68.5985 54.6599 68.769 54.6599C69.111 54.6599 69.6771 54.1753 69.6771 53.8828C69.6771 53.7804 69.732 53.6967 69.799 53.6967C69.866 53.6967 69.9208 53.5884 69.9208 53.4559C69.9208 53.3235 69.9756 53.2152 70.0426 53.2152C70.1096 53.2152 70.1644 53.0526 70.1644 52.854C70.1644 52.6553 70.2192 52.4928 70.2862 52.4928C70.3539 52.4928 70.408 52.1717 70.408 51.7704C70.408 51.3691 70.4621 51.048 70.5298 51.048C70.6052 51.048 70.6516 50.4059 70.6516 49.3625C70.6516 48.319 70.6052 47.6769 70.5298 47.6769C70.4588 47.6769 70.408 47.2756 70.408 46.7137C70.408 46.1518 70.3572 45.7506 70.2862 45.7506C70.2192 45.7506 70.1644 45.588 70.1644 45.3894C70.1644 45.1907 70.1096 45.0282 70.0426 45.0282C69.9756 45.0282 69.9208 44.9198 69.9208 44.7874C69.9208 44.655 69.866 44.5466 69.799 44.5466C69.732 44.5466 69.6771 44.4615 69.6771 44.3575C69.6771 44.2533 69.5988 44.0908 69.5031 43.9963C69.4074 43.9016 69.243 43.8242 69.1376 43.8242C69.0324 43.8242 68.9463 43.77 68.9463 43.7038C68.9463 43.6351 68.5808 43.5834 68.0936 43.5834C67.6063 43.5834 67.2409 43.6351 67.2409 43.7038ZM36.0567 70.9135V72.9602H37.1531H38.2494V73.5622V74.1642H36.4222H34.595V71.691C34.595 69.8838 34.636 69.1717 34.7472 69.0468C34.8373 68.9458 35.1362 68.8741 35.4781 68.8713L36.0567 68.8667V70.9135ZM40.5116 69.0388C40.6512 69.1766 40.6856 69.7014 40.6856 71.6875V74.1642H39.9548H39.2239V71.5154V68.8667H39.7807C40.1009 68.8667 40.4116 68.9398 40.5116 69.0388ZM44.5837 68.9871C44.5837 69.0533 44.6677 69.1075 44.7704 69.1075C45.0774 69.1075 45.8018 69.9081 45.8018 70.2473C45.8018 70.5397 45.7718 70.5523 45.0709 70.5523C44.4213 70.5523 44.34 70.5255 44.34 70.3115C44.34 70.1545 44.2588 70.0707 44.1065 70.0707C43.9781 70.0707 43.8411 70.003 43.802 69.9202C43.7452 69.7998 43.7167 69.7998 43.6599 69.9202C43.6208 70.003 43.4838 70.0707 43.3554 70.0707C43.2243 70.0707 43.1219 70.1536 43.1219 70.2598C43.1219 70.5031 43.4152 70.7931 43.6614 70.7931C43.7667 70.7931 43.8528 70.8472 43.8528 70.9135C43.8528 70.9797 44.0172 71.0339 44.2182 71.0339C44.4192 71.0339 44.5837 71.088 44.5837 71.1543C44.5837 71.2205 44.6683 71.2746 44.7719 71.2746C45.0156 71.2746 45.5582 71.8109 45.5582 72.0518C45.5582 72.1541 45.613 72.2378 45.68 72.2378C45.747 72.2378 45.8018 72.4545 45.8018 72.7194C45.8018 72.9843 45.747 73.201 45.68 73.201C45.613 73.201 45.5582 73.2861 45.5582 73.3901C45.5582 73.6335 45.2648 73.9234 45.0187 73.9234C44.9134 73.9234 44.8273 73.9775 44.8273 74.0438C44.8273 74.1152 44.3806 74.1642 43.731 74.1642C43.0813 74.1642 42.6346 74.1152 42.6346 74.0438C42.6346 73.9775 42.55 73.9234 42.4464 73.9234C42.1504 73.9234 41.6601 73.3638 41.6601 73.0258C41.6601 72.8573 41.6053 72.7194 41.5383 72.7194C41.4713 72.7194 41.4165 72.6652 41.4165 72.599C41.4165 72.5328 41.7234 72.4786 42.0985 72.4786C42.6992 72.4786 42.8213 72.5217 43.1219 72.8398C43.3096 73.0385 43.5822 73.201 43.7277 73.201C44.0121 73.201 44.34 72.9431 44.34 72.7194C44.34 72.5203 44.0237 72.2378 43.8005 72.2378C43.6953 72.2378 43.6092 72.1836 43.6092 72.1174C43.6092 72.0512 43.4447 71.997 43.2437 71.997C43.0427 71.997 42.8783 71.9428 42.8783 71.8766C42.8783 71.8104 42.7936 71.7562 42.6901 71.7562C42.4463 71.7562 41.9038 71.22 41.9038 70.9791C41.9038 70.8767 41.849 70.7931 41.782 70.7931C41.715 70.7931 41.6601 70.6016 41.6601 70.3677C41.6601 70.0427 41.7599 69.8436 42.0825 69.5249C42.3146 69.2953 42.5887 69.1075 42.6915 69.1075C42.7942 69.1075 42.8783 69.0533 42.8783 68.9871C42.8783 68.9184 43.2437 68.8667 43.731 68.8667C44.2182 68.8667 44.5837 68.9184 44.5837 68.9871ZM50.9875 69.0388C51.0832 69.1333 51.1616 69.3267 51.1616 69.4687C51.1616 69.9002 50.8708 70.0707 50.1348 70.0707H49.4562V72.1174V74.1642H48.7253H47.9944V72.1174V70.0707H47.2635H46.5327V69.4687V68.8667H48.673C50.3658 68.8667 50.85 68.9027 50.9875 69.0388Z" fill="#606060"/>
<path d="M37.7208 14.6794H33.8141V13.8334L35.6136 11.9416C36.0571 11.4366 36.2789 11.0354 36.2789 10.738C36.2789 10.4971 36.2263 10.3138 36.1212 10.1882C36.0161 10.0626 35.8636 9.99976 35.6636 9.99976C35.4662 9.99976 35.306 10.0844 35.183 10.2535C35.0599 10.4202 34.9984 10.6291 34.9984 10.8803H33.6987C33.6987 10.5368 33.7846 10.2202 33.9563 9.93054C34.1281 9.63831 34.3665 9.41016 34.6716 9.24609C34.9766 9.08203 35.3175 9 35.6944 9C36.2994 9 36.7646 9.13971 37.0902 9.41913C37.4183 9.69855 37.5824 10.0997 37.5824 10.6227C37.5824 10.8431 37.5414 11.0585 37.4593 11.2687C37.3773 11.4763 37.2491 11.6955 37.0748 11.9262C36.9031 12.1544 36.6249 12.4607 36.2404 12.8452L35.5175 13.6796H37.7208V14.6794Z" fill="#606060"/>
<path d="M42.0258 12.3915C42.0258 13.1477 41.8553 13.7309 41.5143 14.1411C41.176 14.5512 40.6979 14.7563 40.0801 14.7563C39.4572 14.7563 38.9752 14.5499 38.6343 14.1372C38.2933 13.7245 38.1229 13.1426 38.1229 12.3915V11.3687C38.1229 10.6124 38.2921 10.0292 38.6304 9.61907C38.9714 9.20891 39.452 9.00385 40.0724 9.00385C40.6927 9.00385 41.1734 9.21021 41.5143 9.62292C41.8553 10.0356 42.0258 10.6188 42.0258 11.3725V12.3915ZM40.7299 11.2033C40.7299 10.8008 40.6774 10.5009 40.5723 10.3035C40.4672 10.1036 40.3005 10.0036 40.0724 10.0036C39.8494 10.0036 39.6866 10.0959 39.584 10.2805C39.4841 10.465 39.4302 10.7444 39.4225 11.1187V12.5491C39.4225 12.967 39.4751 13.2733 39.5802 13.4681C39.6853 13.6604 39.8519 13.7565 40.0801 13.7565C40.3005 13.7565 40.4633 13.663 40.5684 13.4758C40.6735 13.2861 40.7274 12.9901 40.7299 12.5876V11.2033Z" fill="#606060"/>
<path d="M46.8943 14.6794H42.9875V13.8334L44.7871 11.9416C45.2306 11.4366 45.4523 11.0354 45.4523 10.738C45.4523 10.4971 45.3997 10.3138 45.2946 10.1882C45.1895 10.0626 45.037 9.99976 44.8371 9.99976C44.6397 9.99976 44.4795 10.0844 44.3564 10.2535C44.2334 10.4202 44.1718 10.6291 44.1718 10.8803H42.8722C42.8722 10.5368 42.958 10.2202 43.1298 9.93054C43.3015 9.63831 43.5399 9.41016 43.845 9.24609C44.15 9.08203 44.491 9 44.8678 9C45.4728 9 45.9381 9.13971 46.2636 9.41913C46.5918 9.69855 46.7558 10.0997 46.7558 10.6227C46.7558 10.8431 46.7148 11.0585 46.6328 11.2687C46.5507 11.4763 46.4226 11.6955 46.2483 11.9262C46.0765 12.1544 45.7984 12.4607 45.4138 12.8452L44.6909 13.6796H46.8943V14.6794Z" fill="#606060"/>
<path d="M50.3164 14.6875H48.9961V10.4844L47.6992 10.8633V9.86328L50.1953 9H50.3164V14.6875Z" fill="#606060"/>
</svg>
