<svg width="165" height="33" viewBox="0 0 165 33" xmlns="http://www.w3.org/2000/svg"><g transform="translate(.876 .442)" fill="#FFF" fill-rule="evenodd"><path d="M125.5026,30.407 L145.2596,30.407 L146.3806,25.9089 L132.1676,25.9089 C132.6836,25.639 133.3176,25.3191 134.0916,24.9293 L134.3116,24.8197 C135.4366,24.2577 136.6976,23.6276 138.1776,22.8302 C140.5486,21.5508 142.3436,20.5512 143.7226,19.5616 C142.9586,18.0922 142.5326,16.4129 142.5326,14.6437 L142.5326,14.6137 C141.6596,15.7632 139.8446,16.8328 136.0756,18.8619 C134.7296,19.5934 133.5506,20.1817 132.5016,20.7047 C132.3746,20.7677 132.2506,20.8298 132.1276,20.891 L132.0086,20.9507 C130.0466,21.9292 128.6246,22.6385 127.5656,23.5399 C126.1766,24.7194 125.5026,26.1988 125.5026,28.048 L125.5026,30.407 Z" fill-rule="nonzero"/><path d="M141.3516,6.5672 C142.6216,7.8466 143.3156,9.5259 143.3156,11.3051 C143.3156,11.9948 143.2766,12.5546 143.2066,13.0244 L143.2066,13.0444 C143.1376,13.4142 143.0386,14.1239 143.0386,14.6537 C143.0386,20.2613 147.5706,24.8293 153.1456,24.8293 C158.1046,24.8293 162.2406,21.2109 163.0836,16.4529 C163.0866,16.4318 163.0896,16.41 163.0926,16.3878 C163.0966,16.368 163.0996,16.348 163.1036,16.328 L163.1036,16.3269 C163.1106,16.2848 163.1186,16.2427 163.1236,16.203 L163.1826,15.6933 C163.2126,15.3534 163.2326,15.0036 163.2326,14.6537 C163.2326,9.9057 159.3936,6.0374 154.6826,6.0374 L153.3336,6.0374 L153.5316,4.498 L161.2186,4.498 L162.3396,3.55271368e-15 L149.6146,3.55271368e-15 L148.2656,10.5355 L154.7026,10.5355 C156.9536,10.5355 158.7886,12.3847 158.7886,14.6537 C158.7886,15.0435 158.7496,15.4234 158.6696,15.7932 C158.1446,18.3821 155.8626,20.3313 153.1456,20.3313 C150.0306,20.3313 147.5016,17.7824 147.5016,14.6537 C147.5016,14.5537 147.5316,14.2139 147.6006,13.7841 C147.7296,13.0644 147.7896,12.2447 147.7896,11.3051 C147.7896,8.3364 146.6286,5.5276 144.5256,3.3985 C142.4136,1.2594 139.6166,0.0799 136.6406,0.0799 C131.2646,0.0799 126.7716,3.9383 125.7306,9.0461 C125.5816,9.7758 125.5026,10.5355 125.5026,11.3051 L125.5026,12.1148 L129.9556,12.1148 L129.9556,11.3051 C129.9556,10.9653 129.9856,10.6154 130.0346,10.2856 C130.5206,7.0569 133.2986,4.578 136.6306,4.578 C138.4066,4.578 140.0826,5.2877 141.3516,6.5672 Z"/><path d="M92.9206,11.8048 C92.2526,11.5986 91.5586,11.4966 90.8616,11.5023 C89.1586,11.567 87.4976,12.0619 86.0276,12.9429 C84.5586,13.8238 83.3246,15.0633 82.4376,16.5505 L91.6486,16.5505 L91.5236,17.0345 L90.4556,21.0321 L81.3006,21.0321 C81.5396,23.8612 83.7516,25.8948 86.9996,25.8948 C87.7566,25.8917 88.5096,25.7873 89.2396,25.5843 L88.0076,30.1909 C87.2766,30.3167 86.5376,30.3808 85.7956,30.3825 C79.9766,30.3825 76.2063,26.3657 76.5249,21.0311 C76.5746,20.2412 76.7041,19.4587 76.9115,18.6961 C77.1113,17.9594 77.3727,17.2415 77.6926,16.5505 C79.0236,13.7825 81.0616,11.4341 83.5926,9.7546 C86.1226,8.075 89.0506,7.1269 92.0656,7.01069244 C92.7646,7.0099 93.4626,7.0726 94.1516,7.1982 L92.9206,11.8048 Z" fill-rule="nonzero"/><polygon fill-rule="nonzero" points="78.9206 7.056 63.6807 7.056 62.5524 11.5144 67.7707 11.5144 63.0041 30.3865 67.8082 30.3865 72.5768 11.5144 77.7932 11.5144"/><path d="M7.9871,8.4571 C9.3497,7.5686 10.9265,7.0836 12.5424,7.056 L12.5454,7.052 L19.252,7.052 L18.1267,11.5104 L12.3866,11.5104 C12.0184,11.5066 11.6509,11.5445 11.2909,11.6233 C10.9705,11.695 10.6714,11.8435 10.4182,12.0564 C10.1649,12.2694 9.9647,12.5408 9.8341,12.8483 C9.7181,13.2238 9.721,13.6272 9.8425,14.0009 C9.964,14.3746 10.1979,14.6995 10.5107,14.9293 C12.0718,16.2832 13.6307,17.6396 15.1876,18.9985 C18.392,22.2017 15.6955,26.2346 15.6955,26.2346 C14.9118,27.5237 13.815,28.5834 12.5119,29.3106 C11.2087,30.0378 9.7436,30.4078 8.259,30.3845 L0,30.3845 L1.152,25.8958 L8.2847,25.8958 C8.7333,25.9704 9.1933,25.9156 9.6131,25.7375 C10.0328,25.5594 10.3956,25.265 10.6606,24.8876 C10.8818,24.5284 10.9729,24.1013 10.9179,23.6806 C10.863,23.2598 10.6655,22.8721 10.3598,22.5848 L6.681,19.5379 C5.6764,18.6299 4.9622,17.4341 4.631,16.1057 C4.2998,14.7774 4.367,13.3779 4.8239,12.0891 C5.5296,10.6028 6.6246,9.3456 7.9871,8.4571 Z" fill-rule="nonzero"/><path d="M19.6406,18.688 C21.3715,12.2343 28.1571,7.0016 34.7947,7.0016 C41.4333,7.0016 45.4119,12.2444 43.68,18.6971 C41.9481,25.1498 35.1626,30.3744 28.525,30.3744 C21.8874,30.3744 17.9097,25.1417 19.6406,18.688 Z M35.5081,23.8035 C37.1786,22.5155 38.42,20.7324 39.0633,18.6971 C40.1295,14.7166 37.6756,11.4943 33.5905,11.4992942 C31.4994,11.5726 29.4813,12.303 27.8109,13.591 C26.1405,14.8789 24.899,16.6619 24.2554,18.6971 C23.1892,22.6685 25.6391,25.8948 29.7282,25.8948 C31.8194,25.8218 33.8376,25.0915 35.5081,23.8035 Z"/><path d="M51.6807 16.5253 59.1764 16.5253 58.0589 21.0069 50.5524 21.0069 48.136 30.3835 43.3309 30.3835 47.5354 13.8888C47.9952 11.9695 49.0618 10.259 50.5698 9.0228 52.0778 7.7866 53.9428 7.0939 55.8753 7.052L61.5326 7.052 60.4033 11.5104 55.2313 11.5104C54.5605 11.5938 53.9268 11.8705 53.4041 12.3082 52.8814 12.746 52.4913 13.3267 52.2794 13.9826L51.6807 16.5253ZM100.6646 9.6932C103.1776 8.0468 106.0756 7.1175 109.0576 7.0016 115.6956 7.0016 119.6756 12.2333 117.9516 18.692 117.9226 18.7978 117.8876 18.9029 117.8516 19.0083L117.8516 19.0093C117.8306 19.0713 117.8096 19.1335 117.7896 19.1961 117.7696 19.2575 117.7496 19.3188 117.7306 19.3802L117.7226 19.4066C117.6816 19.5381 117.6396 19.6696 117.5926 19.8011 117.5566 19.8988 117.5156 19.9971 117.4746 20.0951L117.4726 20.0976C117.4586 20.1332 117.4436 20.1688 117.4286 20.2044 117.3306 20.4494 117.2336 20.6924 117.1206 20.9303 117.0886 20.9997 117.0546 21.0676 117.0196 21.1357 116.9986 21.1773 116.9776 21.2189 116.9576 21.261 116.8236 21.5252 116.6876 21.7873 116.5386 22.0444 116.3216 22.4253 116.0876 22.7958 115.8366 23.1545L115.7436 23.2886C115.4856 23.6556 115.2076 24.0084 114.9116 24.3553L114.9106 24.3566C114.8266 24.457 114.7436 24.5574 114.6586 24.6577 114.3886 24.9642 114.1116 25.2637 113.8156 25.55 113.7126 25.6518 113.6076 25.749 113.5016 25.8468 113.4766 25.8701 113.4516 25.8936 113.4266 25.917 113.2316 26.0965 113.0326 26.2726 112.8296 26.4453L112.7776 26.4871C112.5456 26.6755 112.3096 26.8672 112.0696 27.0503L112.0356 27.0755C111.8756 27.1961 111.7156 27.3164 111.5506 27.4314 111.3346 27.5836 111.1176 27.7298 110.8966 27.871 110.8026 27.9284 110.7116 27.9839 110.6136 28.0404 110.1786 28.3075 109.7356 28.5535 109.2786 28.7794L109.0556 28.8842C107.9196 29.4376 106.7226 29.8502 105.4906 30.1133L104.9606 32.2074 100.4596 32.2074 103.3116 21.013 107.8156 21.013 106.6926 25.4321C108.2446 24.9314 109.6556 24.0582 110.8096 22.8856 111.9626 21.713 112.8256 20.275 113.3236 18.692 114.3906 14.7206 111.9406 11.4943 107.8496 11.4943 105.7596 11.5678 103.7416 12.2983 102.0716 13.5863 100.4016 14.8743 99.1606 16.6571 98.5166 18.692 97.7636 21.4969 98.7716 24.3512 100.8606 25.5389L99.5906 30.3462 99.5816 30.3795C98.0426 29.8791 96.6696 28.9493 95.6186 27.6948 94.5676 26.4403 93.8806 24.9108 93.6336 23.2785 93.6326 23.2744 93.6316 23.2704 93.6306 23.2664 93.6256 23.2457 93.6206 23.2258 93.6206 23.2039 93.5716 22.8863 93.5376 22.5616 93.5176 22.2309L93.5176 22.0898C93.5086 21.873 93.5016 21.6572 93.5016 21.4354 93.5026 21.3964 93.5056 21.3572 93.5086 21.318 93.5116 21.264 93.5156 21.2099 93.5156 21.1561 93.5166 21.133 93.5186 21.1102 93.5206 21.0875 93.5236 21.0434 93.5276 20.999 93.5276 20.9545 93.5446 20.6077 93.5866 20.2588 93.6436 19.9019 93.6516 19.8878 93.6516 19.8717 93.6516 19.8565 93.7116 19.4734 93.7916 19.0938 93.8916 18.7192 94.1106 17.9083 94.4036 17.1201 94.7666 16.365 96.1156 13.6431 98.1516 11.3396 100.6646 9.6932Z" fill-rule="nonzero"/></g></svg>