<svg width="558" height="64" viewBox="0 0 558 64" fill="none" xmlns="http://www.w3.org/2000/svg">
<g clip-path="url(#clip0)">
<path d="M12.875 2.92773H54.1251V44.0733H12.875V2.92773Z" fill="url(#paint0_radial)"/>
<path d="M12.875 2.92754H54.1251V44.073H12.875V2.92754ZM11 45.9958H56.0001V1.00488H11V45.9958ZM41.3376 19.4626C39.8563 19.4626 39.3501 20.2317 39.3501 20.8662C39.3501 21.5583 39.6876 22.039 41.6751 23.0965C44.6188 24.5578 45.5376 25.9613 45.5376 28.0186C45.5376 31.0949 43.2501 32.7484 40.1563 32.7484C38.5251 32.7484 37.1188 32.4023 36.3125 31.9217C36.1813 31.864 36.1626 31.7679 36.1626 31.614V28.7877C36.1626 28.5954 36.2563 28.5377 36.3876 28.6339C37.5689 29.4222 38.9188 29.7682 40.1563 29.7682C41.6376 29.7682 42.2563 29.1338 42.2563 28.2685C42.2563 27.5764 41.8251 26.9611 39.9313 25.9613C37.2687 24.6539 36.1626 23.3273 36.1626 21.1162C36.1626 18.6358 38.0564 16.5786 41.3376 16.5786C42.9501 16.5786 44.0751 16.8286 44.6938 17.117C44.8438 17.2131 44.8813 17.3669 44.8813 17.5015V20.1355C44.8813 20.2893 44.7876 20.3855 44.6 20.3277C43.775 19.7895 42.5563 19.4626 41.3376 19.4626ZM25.2125 21.7506C25.6438 21.7891 25.9813 21.7891 26.7313 21.7891C28.9251 21.7891 30.9876 21.0008 30.9876 17.9438C30.9876 15.502 29.5063 14.2714 27.0126 14.2714C26.2626 14.2714 25.55 14.3098 25.2125 14.3291V21.7506ZM21.8751 11.5412C21.8751 11.4066 22.1376 11.3104 22.2875 11.3104C23.4876 11.2527 25.2688 11.2143 27.1251 11.2143C32.3188 11.2143 34.3438 14.1367 34.3438 17.8668C34.3438 22.7504 30.8938 24.8461 26.6563 24.8461C25.9438 24.8461 25.7001 24.8077 25.1938 24.8077V32.1908C25.1938 32.3446 25.1375 32.4215 24.9688 32.4215H22.1C21.9501 32.4215 21.875 32.3638 21.875 32.1908V11.5412H21.8751Z" fill="#31C5F0"/>
<path d="M113.875 2.92773H155.125V44.0733H113.875V2.92773Z" fill="url(#paint1_radial)"/>
<path d="M113.875 2.92754H155.125V44.0731H113.875V2.92754ZM112 45.9958H157V1.00488H112V45.9958ZM141.475 17.0401C141.475 16.8863 141.531 16.8094 141.7 16.8094H144.644C144.794 16.8094 144.869 16.867 144.869 17.0401V32.2102C144.869 32.3639 144.831 32.4409 144.644 32.4409H141.738C141.55 32.4409 141.494 32.3447 141.494 32.1909V17.0401H141.475ZM141.269 12.6756C141.269 11.4451 142.113 10.7145 143.181 10.7145C144.325 10.7145 145.094 11.5028 145.094 12.6756C145.094 13.9446 144.288 14.6367 143.144 14.6367C142.056 14.6368 141.269 13.9446 141.269 12.6756ZM132.831 23.3658C132.306 21.2316 131.069 16.5787 130.6 14.3291H130.563C130.169 16.5787 129.175 20.3855 128.388 23.3658H132.831ZM127.619 26.4806L126.138 32.2486C126.1 32.4023 126.044 32.4408 125.856 32.4408H123.1C122.913 32.4408 122.875 32.3831 122.913 32.1524L128.238 13.0409C128.331 12.6948 128.388 12.3872 128.425 11.4451C128.425 11.3105 128.481 11.2528 128.575 11.2528H132.513C132.644 11.2528 132.7 11.2913 132.738 11.4451L138.7 32.1909C138.738 32.3446 138.7 32.4408 138.55 32.4408H135.437C135.288 32.4408 135.194 32.4023 135.156 32.2678L133.619 26.4806H127.619Z" fill="#FF7F18"/>
<path d="M214.917 2.92773H257.083V44.0733H214.917V2.92773Z" fill="url(#paint2_radial)"/>
<path d="M214.917 2.92753H257.083V44.073H214.917V2.92753ZM213 45.9958H259V1.00488H213V45.9958ZM242.095 19.6934C241.808 19.5588 241.424 19.5011 240.964 19.5011C238.492 19.5011 236.767 21.4046 236.767 24.577C236.767 28.1916 238.53 29.6528 240.734 29.6528C241.213 29.6528 241.712 29.5952 242.095 29.4222V19.6934ZM241.079 16.5594C241.482 16.5594 241.712 16.5594 242.095 16.5979V11.4835C242.095 11.349 242.191 11.2913 242.287 11.2913H245.392C245.545 11.2913 245.583 11.349 245.583 11.4451V29.4222C245.583 29.9605 245.583 30.6335 245.679 31.3641C245.679 31.4987 245.641 31.5179 245.507 31.5949C243.858 32.3832 242.114 32.7293 240.485 32.7293C236.249 32.7293 233.221 30.0952 233.221 24.7309C233.202 20.1356 236.23 16.5594 241.079 16.5594ZM229.828 32.1909C229.828 32.3831 229.79 32.4408 229.579 32.4408H226.628C226.436 32.4408 226.378 32.3447 226.378 32.1909V11.5412C226.378 11.349 226.474 11.2912 226.628 11.2912H229.598C229.752 11.2912 229.828 11.3489 229.828 11.522V32.1909Z" fill="#FF408C"/>
<path d="M316.875 1.92773H358.125V43.0732H316.875V1.92773Z" fill="#33001D"/>
<path d="M315 0.00488281V44.9956H360V0.00488281H315ZM316.875 1.92756H358.125V43.0729H316.875V1.92756Z" fill="#FF00BF"/>
<path d="M347.681 18.9048C347.4 18.7703 347.044 18.7126 346.594 18.7126C344.231 18.7126 342.656 20.5776 342.656 23.6731C342.656 27.2108 344.269 28.6336 346.369 28.6336C346.819 28.6336 347.306 28.5759 347.662 28.4221V18.9048H347.681ZM339.281 23.8269C339.281 19.3471 342.094 15.8478 346.706 15.8478C347.1 15.8478 347.306 15.8478 347.681 15.8862V10.8873C347.681 10.7719 347.775 10.695 347.869 10.695H350.887C351.037 10.695 351.075 10.7527 351.075 10.8488V28.4221C351.075 28.9412 351.075 29.595 351.169 30.3063C351.169 30.4409 351.169 30.4602 351.056 30.5178C349.481 31.2869 347.831 31.633 346.256 31.633C342.187 31.633 339.281 29.0566 339.281 23.8269ZM332.887 20.7122L338.137 31.1523C338.231 31.3061 338.175 31.46 338.025 31.46H334.762C334.556 31.46 334.462 31.4023 334.369 31.21C333.169 28.6721 331.95 26.038 330.694 23.3078H330.656C329.531 25.8842 328.294 28.6913 327.094 31.2292C327 31.383 326.906 31.4407 326.756 31.4407H323.644C323.456 31.4407 323.437 31.2869 323.531 31.1716L328.669 21.039L323.7 10.9642C323.588 10.8103 323.7 10.6758 323.831 10.6758H327.056C327.244 10.6758 327.337 10.7142 327.394 10.8873C328.575 13.4444 329.775 15.9631 330.9 18.5395H330.937C332.025 16.0016 333.225 13.4444 334.369 10.9257C334.462 10.7719 334.519 10.6758 334.706 10.6758H337.725C337.875 10.6758 337.931 10.7911 337.837 10.9642L332.887 20.7122Z" fill="#FF00BF"/>
<path d="M423.5 46C427.64 46 431 42.64 431 38.5V31H423.5C419.36 31 416 34.36 416 38.5C416 42.64 419.36 46 423.5 46Z" fill="#00DB85"/>
<path d="M416 23.5C416 19.36 419.36 16 423.5 16H431V31H423.5C419.36 31 416 27.64 416 23.5Z" fill="#B512FF"/>
<path d="M416 8.5C416 4.36 419.36 1 423.5 1H431V16H423.5C419.36 16 416 12.64 416 8.5Z" fill="#FF2100"/>
<path d="M431 1H438.5C442.64 1 446 4.36 446 8.5C446 12.64 442.64 16 438.5 16H431V1Z" fill="#FF5B55"/>
<path d="M446 23.5C446 27.64 442.64 31 438.5 31C434.36 31 431 27.64 431 23.5C431 19.36 434.36 16 438.5 16C442.64 16 446 19.36 446 23.5Z" fill="#00BCFF"/>
<path fill-rule="evenodd" clip-rule="evenodd" d="M511.998 17.1689L526.685 45.9479L502 17.1689H511.998Z" fill="#EA6C00"/>
<path fill-rule="evenodd" clip-rule="evenodd" d="M541.375 17.1689L526.689 45.9479L551.374 17.1689H541.375Z" fill="#EA6C00"/>
<path fill-rule="evenodd" clip-rule="evenodd" d="M511.998 17.1689H541.371L526.684 45.9479L511.998 17.1689Z" fill="#FDAD00"/>
<path fill-rule="evenodd" clip-rule="evenodd" d="M526.684 1.21973L512.771 2.69217L511.998 17.1691L526.684 1.21973Z" fill="#FDD231"/>
<path fill-rule="evenodd" clip-rule="evenodd" d="M526.684 1.21973L540.598 2.69217L541.371 17.1691L526.684 1.21973Z" fill="#FDD231"/>
<path fill-rule="evenodd" clip-rule="evenodd" d="M551.374 17.1693L540.602 2.69238L541.375 17.1693H551.374Z" fill="#FDAD00"/>
<path fill-rule="evenodd" clip-rule="evenodd" d="M502 17.1693L512.771 2.69238L511.998 17.1693H502Z" fill="#FDAD00"/>
<path fill-rule="evenodd" clip-rule="evenodd" d="M526.684 1.21973L511.998 17.1691H541.371L526.684 1.21973Z" fill="#FEEEB7"/>
<path d="M4.13562 53C4.74229 53 5.26896 53.1 5.71562 53.3C6.16896 53.5 6.51562 53.7867 6.75562 54.16C6.99562 54.5333 7.11562 54.9767 7.11562 55.49C7.11562 55.9967 6.99562 56.44 6.75562 56.82C6.51562 57.1933 6.16896 57.48 5.71562 57.68C5.26896 57.88 4.74229 57.98 4.13562 57.98H2.55562V60H1.25562V53H4.13562ZM4.07562 56.88C4.64229 56.88 5.07229 56.76 5.36562 56.52C5.65896 56.28 5.80562 55.9367 5.80562 55.49C5.80562 55.0433 5.65896 54.7 5.36562 54.46C5.07229 54.22 4.64229 54.1 4.07562 54.1H2.55562V56.88H4.07562ZM14.4338 53V60H13.1338V57H9.51383V60H8.21383V53H9.51383V55.89H13.1338V53H14.4338ZM19.3795 60.1C18.6662 60.1 18.0229 59.9467 17.4495 59.64C16.8762 59.3267 16.4262 58.8967 16.0995 58.35C15.7729 57.7967 15.6095 57.18 15.6095 56.5C15.6095 55.82 15.7729 55.2067 16.0995 54.66C16.4262 54.1067 16.8762 53.6767 17.4495 53.37C18.0229 53.0567 18.6662 52.9 19.3795 52.9C20.0929 52.9 20.7362 53.0567 21.3095 53.37C21.8829 53.6767 22.3329 54.1033 22.6595 54.65C22.9862 55.1967 23.1495 55.8133 23.1495 56.5C23.1495 57.1867 22.9862 57.8033 22.6595 58.35C22.3329 58.8967 21.8829 59.3267 21.3095 59.64C20.7362 59.9467 20.0929 60.1 19.3795 60.1ZM19.3795 58.96C19.8462 58.96 20.2662 58.8567 20.6395 58.65C21.0129 58.4367 21.3062 58.1433 21.5195 57.77C21.7329 57.39 21.8395 56.9667 21.8395 56.5C21.8395 56.0333 21.7329 55.6133 21.5195 55.24C21.3062 54.86 21.0129 54.5667 20.6395 54.36C20.2662 54.1467 19.8462 54.04 19.3795 54.04C18.9129 54.04 18.4929 54.1467 18.1195 54.36C17.7462 54.5667 17.4529 54.86 17.2395 55.24C17.0262 55.6133 16.9195 56.0333 16.9195 56.5C16.9195 56.9667 17.0262 57.39 17.2395 57.77C17.4529 58.1433 17.7462 58.4367 18.1195 58.65C18.4929 58.8567 18.9129 58.96 19.3795 58.96ZM25.6498 54.1H23.3298V53H29.2698V54.1H26.9498V60H25.6498V54.1ZM33.2178 60.1C32.5045 60.1 31.8611 59.9467 31.2878 59.64C30.7145 59.3267 30.2645 58.8967 29.9378 58.35C29.6111 57.7967 29.4478 57.18 29.4478 56.5C29.4478 55.82 29.6111 55.2067 29.9378 54.66C30.2645 54.1067 30.7145 53.6767 31.2878 53.37C31.8611 53.0567 32.5045 52.9 33.2178 52.9C33.9311 52.9 34.5745 53.0567 35.1478 53.37C35.7211 53.6767 36.1711 54.1033 36.4978 54.65C36.8245 55.1967 36.9878 55.8133 36.9878 56.5C36.9878 57.1867 36.8245 57.8033 36.4978 58.35C36.1711 58.8967 35.7211 59.3267 35.1478 59.64C34.5745 59.9467 33.9311 60.1 33.2178 60.1ZM33.2178 58.96C33.6845 58.96 34.1045 58.8567 34.4778 58.65C34.8511 58.4367 35.1445 58.1433 35.3578 57.77C35.5711 57.39 35.6778 56.9667 35.6778 56.5C35.6778 56.0333 35.5711 55.6133 35.3578 55.24C35.1445 54.86 34.8511 54.5667 34.4778 54.36C34.1045 54.1467 33.6845 54.04 33.2178 54.04C32.7511 54.04 32.3311 54.1467 31.9578 54.36C31.5845 54.5667 31.2911 54.86 31.0778 55.24C30.8645 55.6133 30.7578 56.0333 30.7578 56.5C30.7578 56.9667 30.8645 57.39 31.0778 57.77C31.2911 58.1433 31.5845 58.4367 31.9578 58.65C32.3311 58.8567 32.7511 58.96 33.2178 58.96ZM40.3358 60.1C39.7958 60.1 39.2724 60.0233 38.7658 59.87C38.2658 59.7167 37.8691 59.5133 37.5758 59.26L38.0258 58.25C38.3124 58.4767 38.6624 58.6633 39.0758 58.81C39.4958 58.95 39.9158 59.02 40.3358 59.02C40.8558 59.02 41.2424 58.9367 41.4958 58.77C41.7558 58.6033 41.8858 58.3833 41.8858 58.11C41.8858 57.91 41.8124 57.7467 41.6658 57.62C41.5258 57.4867 41.3458 57.3833 41.1258 57.31C40.9058 57.2367 40.6058 57.1533 40.2258 57.06C39.6924 56.9333 39.2591 56.8067 38.9258 56.68C38.5991 56.5533 38.3158 56.3567 38.0758 56.09C37.8424 55.8167 37.7258 55.45 37.7258 54.99C37.7258 54.6033 37.8291 54.2533 38.0358 53.94C38.2491 53.62 38.5658 53.3667 38.9858 53.18C39.4124 52.9933 39.9324 52.9 40.5458 52.9C40.9724 52.9 41.3924 52.9533 41.8058 53.06C42.2191 53.1667 42.5758 53.32 42.8758 53.52L42.4658 54.53C42.1591 54.35 41.8391 54.2133 41.5058 54.12C41.1724 54.0267 40.8491 53.98 40.5358 53.98C40.0224 53.98 39.6391 54.0667 39.3858 54.24C39.1391 54.4133 39.0158 54.6433 39.0158 54.93C39.0158 55.13 39.0858 55.2933 39.2258 55.42C39.3724 55.5467 39.5558 55.6467 39.7758 55.72C39.9958 55.7933 40.2958 55.8767 40.6758 55.97C41.1958 56.09 41.6224 56.2167 41.9558 56.35C42.2891 56.4767 42.5724 56.6733 42.8058 56.94C43.0458 57.2067 43.1658 57.5667 43.1658 58.02C43.1658 58.4067 43.0591 58.7567 42.8458 59.07C42.6391 59.3833 42.3224 59.6333 41.8958 59.82C41.4691 60.0067 40.9491 60.1 40.3358 60.1ZM50.4748 53V60H49.1748V57H45.5548V60H44.2548V53H45.5548V55.89H49.1748V53H50.4748ZM55.4205 60.1C54.7072 60.1 54.0639 59.9467 53.4905 59.64C52.9172 59.3267 52.4672 58.8967 52.1405 58.35C51.8139 57.7967 51.6505 57.18 51.6505 56.5C51.6505 55.82 51.8139 55.2067 52.1405 54.66C52.4672 54.1067 52.9172 53.6767 53.4905 53.37C54.0639 53.0567 54.7072 52.9 55.4205 52.9C56.1339 52.9 56.7772 53.0567 57.3505 53.37C57.9239 53.6767 58.3739 54.1033 58.7005 54.65C59.0272 55.1967 59.1905 55.8133 59.1905 56.5C59.1905 57.1867 59.0272 57.8033 58.7005 58.35C58.3739 58.8967 57.9239 59.3267 57.3505 59.64C56.7772 59.9467 56.1339 60.1 55.4205 60.1ZM55.4205 58.96C55.8872 58.96 56.3072 58.8567 56.6805 58.65C57.0539 58.4367 57.3472 58.1433 57.5605 57.77C57.7739 57.39 57.8805 56.9667 57.8805 56.5C57.8805 56.0333 57.7739 55.6133 57.5605 55.24C57.3472 54.86 57.0539 54.5667 56.6805 54.36C56.3072 54.1467 55.8872 54.04 55.4205 54.04C54.9539 54.04 54.5339 54.1467 54.1605 54.36C53.7872 54.5667 53.4939 54.86 53.2805 55.24C53.0672 55.6133 52.9605 56.0333 52.9605 56.5C52.9605 56.9667 53.0672 57.39 53.2805 57.77C53.4939 58.1433 53.7872 58.4367 54.1605 58.65C54.5339 58.8567 54.9539 58.96 55.4205 58.96ZM63.2485 53C63.8552 53 64.3818 53.1 64.8285 53.3C65.2819 53.5 65.6285 53.7867 65.8685 54.16C66.1085 54.5333 66.2285 54.9767 66.2285 55.49C66.2285 55.9967 66.1085 56.44 65.8685 56.82C65.6285 57.1933 65.2819 57.48 64.8285 57.68C64.3818 57.88 63.8552 57.98 63.2485 57.98H61.6685V60H60.3685V53H63.2485ZM63.1885 56.88C63.7552 56.88 64.1852 56.76 64.4785 56.52C64.7718 56.28 64.9185 55.9367 64.9185 55.49C64.9185 55.0433 64.7718 54.7 64.4785 54.46C64.1852 54.22 63.7552 54.1 63.1885 54.1H61.6685V56.88H63.1885Z" fill="#6D6B6C"/>
<path d="M100.805 53H102.105V60H100.805V53ZM103.799 53H105.099V58.9H108.759V60H103.799V53ZM109.585 53H110.885V58.9H114.545V60H109.585V53ZM118.284 60.1C117.317 60.1 116.564 59.83 116.024 59.29C115.484 58.7433 115.214 57.9633 115.214 56.95V53H116.514V56.9C116.514 58.2733 117.107 58.96 118.294 58.96C119.474 58.96 120.064 58.2733 120.064 56.9V53H121.344V56.95C121.344 57.9633 121.074 58.7433 120.534 59.29C120 59.83 119.25 60.1 118.284 60.1ZM125.134 60.1C124.594 60.1 124.071 60.0233 123.564 59.87C123.064 59.7167 122.668 59.5133 122.374 59.26L122.824 58.25C123.111 58.4767 123.461 58.6633 123.874 58.81C124.294 58.95 124.714 59.02 125.134 59.02C125.654 59.02 126.041 58.9367 126.294 58.77C126.554 58.6033 126.684 58.3833 126.684 58.11C126.684 57.91 126.611 57.7467 126.464 57.62C126.324 57.4867 126.144 57.3833 125.924 57.31C125.704 57.2367 125.404 57.1533 125.024 57.06C124.491 56.9333 124.058 56.8067 123.724 56.68C123.398 56.5533 123.114 56.3567 122.874 56.09C122.641 55.8167 122.524 55.45 122.524 54.99C122.524 54.6033 122.628 54.2533 122.834 53.94C123.048 53.62 123.364 53.3667 123.784 53.18C124.211 52.9933 124.731 52.9 125.344 52.9C125.771 52.9 126.191 52.9533 126.604 53.06C127.018 53.1667 127.374 53.32 127.674 53.52L127.264 54.53C126.958 54.35 126.638 54.2133 126.304 54.12C125.971 54.0267 125.648 53.98 125.334 53.98C124.821 53.98 124.438 54.0667 124.184 54.24C123.938 54.4133 123.814 54.6433 123.814 54.93C123.814 55.13 123.884 55.2933 124.024 55.42C124.171 55.5467 124.354 55.6467 124.574 55.72C124.794 55.7933 125.094 55.8767 125.474 55.97C125.994 56.09 126.421 56.2167 126.754 56.35C127.088 56.4767 127.371 56.6733 127.604 56.94C127.844 57.2067 127.964 57.5667 127.964 58.02C127.964 58.4067 127.858 58.7567 127.644 59.07C127.438 59.3833 127.121 59.6333 126.694 59.82C126.268 60.0067 125.748 60.1 125.134 60.1ZM130.376 54.1H128.056V53H133.996V54.1H131.676V60H130.376V54.1ZM139.351 60L137.921 57.95C137.861 57.9567 137.771 57.96 137.651 57.96H136.071V60H134.771V53H137.651C138.258 53 138.785 53.1 139.231 53.3C139.685 53.5 140.031 53.7867 140.271 54.16C140.511 54.5333 140.631 54.9767 140.631 55.49C140.631 56.0167 140.501 56.47 140.241 56.85C139.988 57.23 139.621 57.5133 139.141 57.7L140.751 60H139.351ZM139.321 55.49C139.321 55.0433 139.175 54.7 138.881 54.46C138.588 54.22 138.158 54.1 137.591 54.1H136.071V56.89H137.591C138.158 56.89 138.588 56.77 138.881 56.53C139.175 56.2833 139.321 55.9367 139.321 55.49ZM146.426 58.38H142.926L142.236 60H140.896L144.046 53H145.326L148.486 60H147.126L146.426 58.38ZM145.996 57.36L144.676 54.3L143.366 57.36H145.996ZM150.244 54.1H147.924V53H153.864V54.1H151.544V60H150.244V54.1ZM157.812 60.1C157.099 60.1 156.456 59.9467 155.882 59.64C155.309 59.3267 154.859 58.8967 154.532 58.35C154.206 57.7967 154.042 57.18 154.042 56.5C154.042 55.82 154.206 55.2067 154.532 54.66C154.859 54.1067 155.309 53.6767 155.882 53.37C156.456 53.0567 157.099 52.9 157.812 52.9C158.526 52.9 159.169 53.0567 159.742 53.37C160.316 53.6767 160.766 54.1033 161.092 54.65C161.419 55.1967 161.582 55.8133 161.582 56.5C161.582 57.1867 161.419 57.8033 161.092 58.35C160.766 58.8967 160.316 59.3267 159.742 59.64C159.169 59.9467 158.526 60.1 157.812 60.1ZM157.812 58.96C158.279 58.96 158.699 58.8567 159.072 58.65C159.446 58.4367 159.739 58.1433 159.952 57.77C160.166 57.39 160.272 56.9667 160.272 56.5C160.272 56.0333 160.166 55.6133 159.952 55.24C159.739 54.86 159.446 54.5667 159.072 54.36C158.699 54.1467 158.279 54.04 157.812 54.04C157.346 54.04 156.926 54.1467 156.552 54.36C156.179 54.5667 155.886 54.86 155.672 55.24C155.459 55.6133 155.352 56.0333 155.352 56.5C155.352 56.9667 155.459 57.39 155.672 57.77C155.886 58.1433 156.179 58.4367 156.552 58.65C156.926 58.8567 157.346 58.96 157.812 58.96ZM167.34 60L165.91 57.95C165.85 57.9567 165.76 57.96 165.64 57.96H164.06V60H162.76V53H165.64C166.247 53 166.774 53.1 167.22 53.3C167.674 53.5 168.02 53.7867 168.26 54.16C168.5 54.5333 168.62 54.9767 168.62 55.49C168.62 56.0167 168.49 56.47 168.23 56.85C167.977 57.23 167.61 57.5133 167.13 57.7L168.74 60H167.34ZM167.31 55.49C167.31 55.0433 167.164 54.7 166.87 54.46C166.577 54.22 166.147 54.1 165.58 54.1H164.06V56.89H165.58C166.147 56.89 166.577 56.77 166.87 56.53C167.164 56.2833 167.31 55.9367 167.31 55.49Z" fill="#6D6B6C"/>
<path d="M211.364 53H212.664V60H211.364V53ZM220.577 53V60H219.507L215.647 55.26V60H214.357V53H215.427L219.287 57.74V53H220.577ZM222.253 53H225.313C226.059 53 226.723 53.1467 227.303 53.44C227.883 53.7267 228.333 54.1367 228.653 54.67C228.973 55.1967 229.133 55.8067 229.133 56.5C229.133 57.1933 228.973 57.8067 228.653 58.34C228.333 58.8667 227.883 59.2767 227.303 59.57C226.723 59.8567 226.059 60 225.313 60H222.253V53ZM225.253 58.9C225.766 58.9 226.216 58.8033 226.603 58.61C226.996 58.41 227.296 58.13 227.503 57.77C227.716 57.4033 227.823 56.98 227.823 56.5C227.823 56.02 227.716 55.6 227.503 55.24C227.296 54.8733 226.996 54.5933 226.603 54.4C226.216 54.2 225.766 54.1 225.253 54.1H223.553V58.9H225.253ZM235.564 58.91V60H230.314V53H235.424V54.09H231.614V55.91H234.994V56.98H231.614V58.91H235.564ZM238.984 60.1C238.444 60.1 237.92 60.0233 237.414 59.87C236.914 59.7167 236.517 59.5133 236.224 59.26L236.674 58.25C236.96 58.4767 237.31 58.6633 237.724 58.81C238.144 58.95 238.564 59.02 238.984 59.02C239.504 59.02 239.89 58.9367 240.144 58.77C240.404 58.6033 240.534 58.3833 240.534 58.11C240.534 57.91 240.46 57.7467 240.314 57.62C240.174 57.4867 239.994 57.3833 239.774 57.31C239.554 57.2367 239.254 57.1533 238.874 57.06C238.34 56.9333 237.907 56.8067 237.574 56.68C237.247 56.5533 236.964 56.3567 236.724 56.09C236.49 55.8167 236.374 55.45 236.374 54.99C236.374 54.6033 236.477 54.2533 236.684 53.94C236.897 53.62 237.214 53.3667 237.634 53.18C238.06 52.9933 238.58 52.9 239.194 52.9C239.62 52.9 240.04 52.9533 240.454 53.06C240.867 53.1667 241.224 53.32 241.524 53.52L241.114 54.53C240.807 54.35 240.487 54.2133 240.154 54.12C239.82 54.0267 239.497 53.98 239.184 53.98C238.67 53.98 238.287 54.0667 238.034 54.24C237.787 54.4133 237.664 54.6433 237.664 54.93C237.664 55.13 237.734 55.2933 237.874 55.42C238.02 55.5467 238.204 55.6467 238.424 55.72C238.644 55.7933 238.944 55.8767 239.324 55.97C239.844 56.09 240.27 56.2167 240.604 56.35C240.937 56.4767 241.22 56.6733 241.454 56.94C241.694 57.2067 241.814 57.5667 241.814 58.02C241.814 58.4067 241.707 58.7567 241.494 59.07C241.287 59.3833 240.97 59.6333 240.544 59.82C240.117 60.0067 239.597 60.1 238.984 60.1ZM242.903 53H244.203V60H242.903V53ZM250.676 56.42H251.906V59.21C251.546 59.4967 251.126 59.7167 250.646 59.87C250.166 60.0233 249.673 60.1 249.166 60.1C248.453 60.1 247.809 59.9467 247.236 59.64C246.663 59.3267 246.213 58.8967 245.886 58.35C245.559 57.8033 245.396 57.1867 245.396 56.5C245.396 55.8133 245.559 55.1967 245.886 54.65C246.213 54.1033 246.663 53.6767 247.236 53.37C247.816 53.0567 248.466 52.9 249.186 52.9C249.773 52.9 250.306 52.9967 250.786 53.19C251.266 53.3833 251.669 53.6667 251.996 54.04L251.176 54.84C250.643 54.3067 249.999 54.04 249.246 54.04C248.753 54.04 248.313 54.1433 247.926 54.35C247.546 54.5567 247.246 54.8467 247.026 55.22C246.813 55.5933 246.706 56.02 246.706 56.5C246.706 56.9667 246.813 57.3867 247.026 57.76C247.246 58.1333 247.546 58.4267 247.926 58.64C248.313 58.8533 248.749 58.96 249.236 58.96C249.783 58.96 250.263 58.84 250.676 58.6V56.42ZM259.641 53V60H258.571L254.711 55.26V60H253.421V53H254.491L258.351 57.74V53H259.641Z" fill="#6D6B6C"/>
<path d="M334.47 60L332.57 57.34L330.69 60H329.21L331.81 56.43L329.35 53H330.82L332.61 55.49L334.38 53H335.79L333.34 56.38L335.97 60H334.47ZM336.559 53H339.619C340.365 53 341.029 53.1467 341.609 53.44C342.189 53.7267 342.639 54.1367 342.959 54.67C343.279 55.1967 343.439 55.8067 343.439 56.5C343.439 57.1933 343.279 57.8067 342.959 58.34C342.639 58.8667 342.189 59.2767 341.609 59.57C341.029 59.8567 340.365 60 339.619 60H336.559V53ZM339.559 58.9C340.072 58.9 340.522 58.8033 340.909 58.61C341.302 58.41 341.602 58.13 341.809 57.77C342.022 57.4033 342.129 56.98 342.129 56.5C342.129 56.02 342.022 55.6 341.809 55.24C341.602 54.8733 341.302 54.5933 340.909 54.4C340.522 54.2 340.072 54.1 339.559 54.1H337.859V58.9H339.559Z" fill="#6D6B6C"/>
<path d="M415.977 54.09V56.22H419.357V57.32H415.977V60H414.677V53H419.787V54.09H415.977ZM420.844 53H422.144V60H420.844V53ZM428.617 56.42H429.847V59.21C429.487 59.4967 429.067 59.7167 428.587 59.87C428.107 60.0233 427.614 60.1 427.107 60.1C426.394 60.1 425.751 59.9467 425.177 59.64C424.604 59.3267 424.154 58.8967 423.827 58.35C423.501 57.8033 423.337 57.1867 423.337 56.5C423.337 55.8133 423.501 55.1967 423.827 54.65C424.154 54.1033 424.604 53.6767 425.177 53.37C425.757 53.0567 426.407 52.9 427.127 52.9C427.714 52.9 428.247 52.9967 428.727 53.19C429.207 53.3833 429.611 53.6667 429.937 54.04L429.117 54.84C428.584 54.3067 427.941 54.04 427.187 54.04C426.694 54.04 426.254 54.1433 425.867 54.35C425.487 54.5567 425.187 54.8467 424.967 55.22C424.754 55.5933 424.647 56.02 424.647 56.5C424.647 56.9667 424.754 57.3867 424.967 57.76C425.187 58.1333 425.487 58.4267 425.867 58.64C426.254 58.8533 426.691 58.96 427.177 58.96C427.724 58.96 428.204 58.84 428.617 58.6V56.42ZM437.792 60L437.782 55.36L435.482 59.2H434.902L432.602 55.42V60H431.362V53H432.432L435.212 57.64L437.942 53H439.012L439.022 60H437.792ZM445.253 58.38H441.753L441.063 60H439.723L442.873 53H444.153L447.313 60H445.953L445.253 58.38ZM444.823 57.36L443.503 54.3L442.193 57.36H444.823Z" fill="#6D6B6C"/>
<path d="M507.334 60.1C506.794 60.1 506.27 60.0233 505.764 59.87C505.264 59.7167 504.867 59.5133 504.574 59.26L505.024 58.25C505.31 58.4767 505.66 58.6633 506.074 58.81C506.494 58.95 506.914 59.02 507.334 59.02C507.854 59.02 508.24 58.9367 508.494 58.77C508.754 58.6033 508.884 58.3833 508.884 58.11C508.884 57.91 508.81 57.7467 508.664 57.62C508.524 57.4867 508.344 57.3833 508.124 57.31C507.904 57.2367 507.604 57.1533 507.224 57.06C506.69 56.9333 506.257 56.8067 505.924 56.68C505.597 56.5533 505.314 56.3567 505.074 56.09C504.84 55.8167 504.724 55.45 504.724 54.99C504.724 54.6033 504.827 54.2533 505.034 53.94C505.247 53.62 505.564 53.3667 505.984 53.18C506.41 52.9933 506.93 52.9 507.544 52.9C507.97 52.9 508.39 52.9533 508.804 53.06C509.217 53.1667 509.574 53.32 509.874 53.52L509.464 54.53C509.157 54.35 508.837 54.2133 508.504 54.12C508.17 54.0267 507.847 53.98 507.534 53.98C507.02 53.98 506.637 54.0667 506.384 54.24C506.137 54.4133 506.014 54.6433 506.014 54.93C506.014 55.13 506.084 55.2933 506.224 55.42C506.37 55.5467 506.554 55.6467 506.774 55.72C506.994 55.7933 507.294 55.8767 507.674 55.97C508.194 56.09 508.62 56.2167 508.954 56.35C509.287 56.4767 509.57 56.6733 509.804 56.94C510.044 57.2067 510.164 57.5667 510.164 58.02C510.164 58.4067 510.057 58.7567 509.844 59.07C509.637 59.3833 509.32 59.6333 508.894 59.82C508.467 60.0067 507.947 60.1 507.334 60.1ZM513.663 57.07L512.553 58.21V60H511.253V53H512.553V56.59L516.013 53H517.473L514.533 56.13L517.653 60H516.133L513.663 57.07ZM523.588 58.91V60H518.338V53H523.448V54.09H519.638V55.91H523.018V56.98H519.638V58.91H523.588ZM526.257 54.1H523.937V53H529.877V54.1H527.557V60H526.257V54.1ZM533.795 60.1C533.088 60.1 532.448 59.9467 531.875 59.64C531.308 59.3267 530.862 58.8967 530.535 58.35C530.215 57.8033 530.055 57.1867 530.055 56.5C530.055 55.8133 530.218 55.1967 530.545 54.65C530.872 54.1033 531.318 53.6767 531.885 53.37C532.458 53.0567 533.098 52.9 533.805 52.9C534.378 52.9 534.902 53 535.375 53.2C535.848 53.4 536.248 53.69 536.575 54.07L535.735 54.86C535.228 54.3133 534.605 54.04 533.865 54.04C533.385 54.04 532.955 54.1467 532.575 54.36C532.195 54.5667 531.898 54.8567 531.685 55.23C531.472 55.6033 531.365 56.0267 531.365 56.5C531.365 56.9733 531.472 57.3967 531.685 57.77C531.898 58.1433 532.195 58.4367 532.575 58.65C532.955 58.8567 533.385 58.96 533.865 58.96C534.605 58.96 535.228 58.6833 535.735 58.13L536.575 58.93C536.248 59.31 535.845 59.6 535.365 59.8C534.892 60 534.368 60.1 533.795 60.1ZM543.841 53V60H542.541V57H538.921V60H537.621V53H538.921V55.89H542.541V53H543.841Z" fill="#6D6B6C"/>
</g>
<defs>
<radialGradient id="paint0_radial" cx="0" cy="0" r="1" gradientUnits="userSpaceOnUse" gradientTransform="translate(26.4608 12.1485) scale(31.3501 31.1245)">
<stop stop-color="#34364E" stop-opacity="0.98"/>
<stop offset="1" stop-color="#0C0824"/>
</radialGradient>
<radialGradient id="paint1_radial" cx="0" cy="0" r="1" gradientUnits="userSpaceOnUse" gradientTransform="translate(127.461 12.1485) scale(31.3501 31.1245)">
<stop stop-color="#423325" stop-opacity="0.98"/>
<stop offset="1" stop-color="#1C0A00"/>
</radialGradient>
<radialGradient id="paint2_radial" cx="0" cy="0" r="1" gradientUnits="userSpaceOnUse" gradientTransform="translate(228.804 12.1485) scale(32.0467 31.1245)">
<stop stop-color="#4B2B36" stop-opacity="0.98"/>
<stop offset="1" stop-color="#250012"/>
</radialGradient>
<clipPath id="clip0">
<rect width="558" height="64" fill="white"/>
</clipPath>
</defs>
</svg>
