<svg width="97" height="40" viewBox="0 0 97 40" fill="none" xmlns="http://www.w3.org/2000/svg">
<path d="M44.0214 12.7954C38.7026 12.7954 34.3376 17.1198 34.3376 22.4607C34.3376 27.7693 38.6703 32.1098 44.0214 32.1098C46.2848 32.1098 48.3703 31.3353 50.0193 30.0283V32.0937H53.6891V22.1541C53.5597 16.9745 49.2756 12.7954 44.0214 12.7954ZM44.0214 28.4309C40.7235 28.4309 38.0236 25.7523 38.0236 22.4445C38.0236 19.1367 40.7073 16.4582 44.0214 16.4582C47.3194 16.4582 50.0193 19.1367 50.0193 22.4445C50.0354 25.7523 47.3356 28.4309 44.0214 28.4309Z" fill="#959595"/>
<path d="M65.9438 12.7954C60.625 12.7954 56.26 17.1198 56.26 22.4607C56.26 27.7693 60.5927 32.1098 65.9438 32.1098C68.2071 32.1098 70.2926 31.3353 71.9416 30.0283V30.351C71.9416 33.6588 69.258 36.3373 65.9438 36.3373H64.1008V40.0001H65.9438C71.2626 40.0001 75.6114 35.6758 75.6114 30.2703V22.1702C75.4659 16.9745 71.1818 12.7954 65.9438 12.7954ZM65.9438 28.4309C62.6458 28.4309 59.946 25.7523 59.946 22.4445C59.946 19.1367 62.6297 16.4582 65.9438 16.4582C69.2418 16.4582 71.9416 19.1367 71.9416 22.4445C71.9416 25.7523 69.258 28.4309 65.9438 28.4309Z" fill="#959595"/>
<path d="M84.6164 28.4309L96.4827 15.8773C97 15.3448 97.1294 14.5703 96.8384 13.8926C96.5474 13.2149 95.8845 12.7954 95.157 12.7954H79.3461V16.4582H90.8891L79.0228 29.0117C78.5054 29.5442 78.3761 30.3187 78.6671 30.9964C78.9581 31.6741 79.6209 32.0937 80.3484 32.0937H97V28.4309H84.6164Z" fill="#959595"/>
<path d="M18.769 20.5252C18.1708 19.4118 17.023 18.718 15.7459 18.718C14.4849 18.718 13.3209 19.4118 12.7227 20.5252L12.0437 21.7999H19.4803L18.769 20.5252Z" fill="#959595"/>
<path d="M9.2473 26.9142C8.72997 27.8823 7.72764 28.4793 6.62831 28.4793C4.99548 28.4793 3.65365 27.1562 3.65365 25.5104V12.9246H0V25.5104C0 29.157 2.97466 32.126 6.62831 32.126C9.08563 32.126 11.3005 30.7867 12.4806 28.6407L14.2589 25.3329L11.8663 22.0573L9.2473 26.9142Z" fill="#959595"/>
<path d="M27.807 12.9248V25.5106C27.807 27.1403 26.4813 28.4796 24.8323 28.4796C23.7491 28.4796 22.7468 27.8826 22.2133 26.9144L19.5943 22.0576L17.2017 25.3331L18.98 28.6409C20.144 30.8031 22.375 32.1262 24.8323 32.1262C28.486 32.1262 31.4606 29.1573 31.4606 25.5106V12.9248H27.807Z" fill="#959595"/>
<path d="M15.7306 31.7065C14.7768 31.7065 13.2733 31.2063 12.465 30.8352C11.4465 31.997 10.9615 32.481 9.76514 32.8522C11.4141 34.1914 13.4835 34.9337 15.7306 34.9337C17.9778 34.9337 20.0471 34.1914 21.6961 32.8522C20.4836 32.2551 20.0309 31.9163 19.1256 30.8997C18.3334 31.3031 16.6844 31.7065 15.7306 31.7065Z" fill="#959595"/>
<path d="M20.9041 18.2981L18.8994 16.2973C21.0496 14.1512 24.5092 14.1512 26.6432 16.2973L24.6386 18.2981C23.6201 17.2815 21.9226 17.2654 20.9041 18.2981Z" fill="#959595"/>
<path d="M10.557 18.2972C9.53847 17.2806 7.85714 17.2806 6.83864 18.2972L4.83398 16.2964C6.98414 14.1665 10.4438 14.1503 12.5778 16.2964L10.557 18.2972Z" fill="#959595"/>
<path d="M30.1346 7.72898C28.8897 5.19568 25.6726 0 20.0143 0H18.1874V7.72898H11.9471C10.7023 5.19568 7.48514 0 1.82683 0H0V11.4886H3.62132V3.9371C7.22647 5.27636 9.1018 10.2461 9.11797 10.3107L9.5383 11.5047H11.9148H12.9818L21.7764 11.4886V3.95324C25.3816 5.29249 27.1922 10.1655 27.2569 10.3591C27.3539 10.6495 27.6126 11.537 27.6126 11.537H31.3147C31.347 11.4563 31.2339 9.92343 30.1346 7.72898Z" fill="#959595"/>
</svg>
