<svg width="211" height="67" viewBox="0 0 211 67" fill="none" xmlns="http://www.w3.org/2000/svg">
<path d="M52 26C52 40.3594 40.3594 52 26 52C11.6406 52 0 40.3594 0 26C0 11.6406 11.6406 0 26 0C40.3594 0 52 11.6406 52 26Z" fill="#3E72C1"/>
<g clip-path="url(#clip0)">
<path d="M33.4132 45.524V45.2635H33.085V44.8586L33.074 44.8619L32.7657 44.9549L32.7596 44.9567V45.2635H32.2731V45.0926C32.2731 45.013 32.2912 44.9521 32.3268 44.9115C32.3621 44.8713 32.4127 44.8509 32.4771 44.8509C32.5235 44.8509 32.5714 44.8617 32.6197 44.8829L32.6318 44.8883V44.614L32.6261 44.6119C32.5811 44.5959 32.5198 44.5879 32.4439 44.5879C32.3482 44.5879 32.2612 44.6084 32.1853 44.6491C32.1094 44.6899 32.0497 44.748 32.0079 44.822C31.9663 44.8958 31.9451 44.9812 31.9451 45.0756V45.2635H31.7166V45.524H31.9451V46.6212H32.2731V45.524H32.7596V46.2213C32.7596 46.5084 32.8971 46.654 33.1681 46.654C33.2127 46.654 33.2596 46.6488 33.3074 46.6388C33.3561 46.6284 33.3893 46.6181 33.4089 46.6071L33.4132 46.6045V46.3417L33.3998 46.3504C33.382 46.362 33.3599 46.3716 33.3339 46.3787C33.3078 46.3859 33.286 46.3896 33.2691 46.3896C33.2056 46.3896 33.1586 46.3727 33.1295 46.3394C33.1 46.3058 33.085 46.2471 33.085 46.165V45.524H33.4132ZM30.984 46.3896C30.865 46.3896 30.7711 46.3507 30.7049 46.2741C30.6384 46.197 30.6047 46.0872 30.6047 45.9476C30.6047 45.8037 30.6384 45.691 30.705 45.6126C30.7712 45.5347 30.8641 45.4952 30.9814 45.4952C31.0951 45.4952 31.1856 45.5329 31.2505 45.6075C31.3157 45.6824 31.3488 45.7941 31.3488 45.9398C31.3488 46.0872 31.3177 46.2005 31.2563 46.2762C31.1954 46.3514 31.1038 46.3896 30.984 46.3896V46.3896ZM30.9986 45.2308C30.7715 45.2308 30.591 45.2964 30.4624 45.4258C30.3338 45.5552 30.2687 45.7342 30.2687 45.9581C30.2687 46.1706 30.3323 46.3416 30.4578 46.4662C30.5833 46.5908 30.7541 46.6539 30.9654 46.6539C31.1856 46.6539 31.3624 46.5874 31.491 46.4562C31.6196 46.3252 31.6847 46.1478 31.6847 45.9292C31.6847 45.7133 31.6236 45.5411 31.503 45.4173C31.3823 45.2935 31.2126 45.2308 30.9986 45.2308V45.2308ZM29.7398 45.2308C29.5852 45.2308 29.4574 45.2697 29.3598 45.3465C29.2616 45.4238 29.2117 45.5251 29.2117 45.6478C29.2117 45.7115 29.2225 45.7681 29.2436 45.8162C29.2649 45.8643 29.2979 45.9068 29.3417 45.9424C29.3851 45.9777 29.4522 46.0147 29.5411 46.0523C29.6158 46.0826 29.6715 46.1082 29.7069 46.1284C29.7415 46.1482 29.766 46.1681 29.7799 46.1875C29.7934 46.2065 29.8002 46.2324 29.8002 46.2645C29.8002 46.3557 29.7309 46.4001 29.5883 46.4001C29.5354 46.4001 29.4751 46.3892 29.409 46.3677C29.3433 46.3466 29.2814 46.3156 29.2253 46.276L29.2117 46.2663V46.5776L29.2167 46.5799C29.2631 46.601 29.3216 46.6188 29.3906 46.6328C29.4594 46.6469 29.522 46.654 29.5763 46.654C29.744 46.654 29.879 46.6149 29.9776 46.5376C30.0767 46.4598 30.127 46.3561 30.127 46.2292C30.127 46.1377 30.0999 46.0592 30.0466 45.9959C29.9936 45.9331 29.9017 45.8755 29.7735 45.8245C29.6714 45.7841 29.606 45.7506 29.579 45.7249C29.553 45.7 29.5397 45.6648 29.5397 45.6203C29.5397 45.5808 29.5561 45.5492 29.5895 45.5235C29.6233 45.4978 29.6702 45.4847 29.7291 45.4847C29.7838 45.4847 29.8397 45.4932 29.8953 45.5099C29.9509 45.5266 29.9997 45.5489 30.0405 45.5762L30.0539 45.5852V45.29L30.0487 45.2878C30.0111 45.2719 29.9616 45.2583 29.9013 45.2473C29.8414 45.2363 29.787 45.2308 29.7398 45.2308V45.2308ZM28.3566 46.3896C28.2375 46.3896 28.1436 46.3507 28.0775 46.2741C28.0109 46.197 27.9772 46.0872 27.9772 45.9476C27.9772 45.8037 28.0109 45.691 28.0775 45.6126C28.1437 45.5347 28.2366 45.4952 28.3539 45.4952C28.4676 45.4952 28.5582 45.5329 28.623 45.6075C28.6882 45.6824 28.7213 45.7941 28.7213 45.9398C28.7213 46.0872 28.6902 46.2005 28.6288 46.2762C28.5679 46.3514 28.4764 46.3896 28.3566 46.3896V46.3896ZM28.3712 45.2308C28.144 45.2308 27.9635 45.2964 27.835 45.4258C27.7064 45.5552 27.6412 45.7342 27.6412 45.9581C27.6412 46.1707 27.7048 46.3416 27.8303 46.4662C27.9559 46.5908 28.1266 46.6539 28.3379 46.6539C28.5581 46.6539 28.735 46.5874 28.8636 46.4562C28.9921 46.3252 29.0573 46.1478 29.0573 45.9292C29.0573 45.7133 28.9961 45.5411 28.8755 45.4173C28.7548 45.2935 28.5851 45.2308 28.3712 45.2308V45.2308ZM27.1432 45.4986V45.2635H26.8192V46.6212H27.1432V45.9267C27.1432 45.8086 27.1704 45.7116 27.224 45.6383C27.2769 45.5659 27.3475 45.5292 27.4336 45.5292C27.4628 45.5292 27.4955 45.5339 27.531 45.5433C27.5661 45.5526 27.5916 45.5628 27.6066 45.5734L27.6202 45.5832V45.2612L27.6149 45.2589C27.5848 45.2463 27.5421 45.2399 27.4881 45.2399C27.4066 45.2399 27.3338 45.2657 27.2713 45.3165C27.2165 45.3611 27.177 45.4223 27.1467 45.4986H27.1432ZM26.2389 45.2308C26.0902 45.2308 25.9576 45.2622 25.8449 45.3241C25.7318 45.3862 25.6444 45.4748 25.585 45.5875C25.5258 45.7 25.4957 45.8313 25.4957 45.9777C25.4957 46.106 25.5248 46.2237 25.5824 46.3275C25.6401 46.4314 25.7217 46.5127 25.8249 46.5691C25.928 46.6254 26.0472 46.654 26.1792 46.654C26.3332 46.654 26.4647 46.6236 26.5701 46.5638L26.5743 46.5614V46.2688L26.5607 46.2786C26.513 46.3129 26.4596 46.3402 26.4022 46.36C26.3449 46.3797 26.2927 46.3896 26.2469 46.3896C26.1198 46.3896 26.0177 46.3504 25.9436 46.2731C25.8693 46.1957 25.8317 46.087 25.8317 45.9502C25.8317 45.8126 25.871 45.7011 25.9483 45.6188C26.0255 45.5368 26.1277 45.4952 26.2523 45.4952C26.3588 45.4952 26.4625 45.5307 26.5607 45.6009L26.5743 45.6107V45.3024L26.5699 45.2999C26.533 45.2795 26.4826 45.2627 26.42 45.2499C26.3577 45.2372 26.2968 45.2308 26.2389 45.2308V45.2308ZM25.2725 45.2635H24.9485V46.6212H25.2725V45.2635V45.2635ZM25.1138 44.6851C25.0605 44.6851 25.014 44.703 24.9758 44.7385C24.9374 44.774 24.9179 44.8188 24.9179 44.8716C24.9179 44.9236 24.9372 44.9676 24.9752 45.0022C25.0129 45.0367 25.0596 45.0542 25.1138 45.0542C25.1681 45.0542 25.2149 45.0367 25.2531 45.0023C25.2916 44.9676 25.3111 44.9237 25.3111 44.8716C25.3111 44.8206 25.2921 44.7763 25.2547 44.7399C25.2173 44.7035 25.1699 44.6851 25.1138 44.6851ZM24.3053 45.1633V46.6212H24.636V44.7267H24.1783L23.5966 46.1339L23.032 44.7267H22.5557V46.6212H22.8664V45.1632H22.8771L23.4733 46.6212H23.7078L24.2947 45.1633H24.3053V45.1633Z" fill="white"/>
<path d="M19.9111 45.5972H18.3867V44.0947H19.9111V45.5972Z" fill="#F1511B"/>
<path d="M21.5947 45.5962H20.0703V44.0938H21.5947V45.5962Z" fill="#80CC28"/>
<path d="M19.911 47.2553H18.3867V45.7529H19.911V47.2553Z" fill="#00ADEF"/>
<path d="M21.5947 47.2553H20.0703V45.7529H21.5947V47.2553Z" fill="#FBBC09"/>
</g>
<path d="M32.6061 24.6385L31.4687 26.5997L30.32 24.6385H30.0895V27.2836H30.3578V25.1789L31.3969 26.9473H31.5292L32.5683 25.1676V27.2836H32.8366V24.6385H32.6061Z" fill="white"/>
<path d="M33.7022 24.8615C33.8156 24.8615 33.8987 24.7746 33.8987 24.665C33.8987 24.563 33.8118 24.4798 33.7022 24.4798C33.5927 24.4798 33.5057 24.5667 33.5057 24.6688C33.5057 24.7746 33.5927 24.8615 33.7022 24.8615ZM33.5662 27.2836H33.8345V25.296H33.5662V27.2836Z" fill="white"/>
<path d="M35.3292 27.3025C35.6655 27.3025 35.9489 27.1665 36.1076 26.9095L35.9073 26.7735C35.7713 26.9738 35.5597 27.0645 35.3292 27.0645C34.8946 27.0645 34.5772 26.7584 34.5772 26.2898C34.5772 25.8251 34.8946 25.5152 35.3292 25.5152C35.5597 25.5152 35.7713 25.6097 35.9073 25.8099L36.1076 25.6739C35.9489 25.4132 35.6655 25.2809 35.3292 25.2809C34.7359 25.2809 34.3051 25.6966 34.3051 26.2898C34.3051 26.8831 34.7359 27.3025 35.3292 27.3025Z" fill="white"/>
<path d="M36.816 25.6852V25.296H36.5591V27.2836H36.8274V26.2709C36.8274 25.8024 37.0805 25.5379 37.4962 25.5379C37.5151 25.5379 37.5378 25.5417 37.5604 25.5417V25.2809C37.1939 25.2809 36.9407 25.4207 36.816 25.6852Z" fill="white"/>
<path d="M38.7646 27.3025C39.3465 27.3025 39.7735 26.8793 39.7735 26.2898C39.7735 25.7004 39.3465 25.2809 38.7646 25.2809C38.1827 25.2809 37.7519 25.7004 37.7519 26.2898C37.7519 26.8793 38.1827 27.3025 38.7646 27.3025ZM38.7646 27.0645C38.3414 27.0645 38.024 26.7546 38.024 26.2898C38.024 25.8251 38.3414 25.5152 38.7646 25.5152C39.1878 25.5152 39.5014 25.8251 39.5014 26.2898C39.5014 26.7546 39.1878 27.0645 38.7646 27.0645Z" fill="white"/>
<path d="M40.7785 27.3025C41.2962 27.3025 41.5985 27.0796 41.5985 26.7357C41.5985 25.9724 40.3099 26.3767 40.3099 25.8402C40.3099 25.6512 40.4686 25.5114 40.8276 25.5114C41.0317 25.5114 41.2395 25.5605 41.4133 25.6815L41.5304 25.4661C41.3642 25.3527 41.0846 25.2809 40.8276 25.2809C40.3213 25.2809 40.0416 25.5228 40.0416 25.8477C40.0416 26.6337 41.3302 26.2256 41.3302 26.7433C41.3302 26.9398 41.1752 27.0683 40.7974 27.0683C40.5177 27.0683 40.2495 26.97 40.0908 26.8453L39.9698 27.0569C40.1323 27.1967 40.4497 27.3025 40.7785 27.3025Z" fill="white"/>
<path d="M42.8313 27.3025C43.4132 27.3025 43.8402 26.8793 43.8402 26.2898C43.8402 25.7004 43.4132 25.2809 42.8313 25.2809C42.2494 25.2809 41.8186 25.7004 41.8186 26.2898C41.8186 26.8793 42.2494 27.3025 42.8313 27.3025ZM42.8313 27.0645C42.4081 27.0645 42.0907 26.7546 42.0907 26.2898C42.0907 25.8251 42.4081 25.5152 42.8313 25.5152C43.2545 25.5152 43.5681 25.8251 43.5681 26.2898C43.5681 26.7546 43.2545 27.0645 42.8313 27.0645Z" fill="white"/>
<path d="M44.9699 24.6877C45.0832 24.6877 45.189 24.7217 45.2646 24.7859L45.3553 24.5856C45.2571 24.5025 45.1059 24.4609 44.9585 24.4609C44.5693 24.4609 44.3577 24.6952 44.3577 25.0504V25.296H44.0025V25.5228H44.3577V27.2836H44.626V25.5228H45.2306V25.296H44.6185V25.0618C44.6185 24.8161 44.7394 24.6877 44.9699 24.6877Z" fill="white"/>
<path d="M46.4695 26.97C46.3939 27.038 46.2844 27.072 46.1748 27.072C45.9518 27.072 45.8309 26.9436 45.8309 26.7093V25.5228H46.4355V25.296H45.8309V24.8615H45.5626V25.296H45.2074V25.5228H45.5626V26.7244C45.5626 27.0909 45.7705 27.3025 46.1446 27.3025C46.2995 27.3025 46.4582 27.2572 46.564 27.1627L46.4695 26.97Z" fill="white"/>
<path d="M31.2382 32.447C31.6274 32.447 31.9751 32.3147 32.2093 32.0578L32.0317 31.8802C31.8164 32.1031 31.5519 32.1976 31.2496 32.1976C30.611 32.1976 30.1311 31.729 30.1311 31.1018C30.1311 30.4745 30.611 30.0059 31.2496 30.0059C31.5519 30.0059 31.8164 30.1004 32.0317 30.3196L32.2093 30.142C31.9751 29.885 31.6274 29.7565 31.242 29.7565C30.4447 29.7565 29.8552 30.3271 29.8552 31.1018C29.8552 31.8764 30.4447 32.447 31.2382 32.447Z" fill="white"/>
<path d="M33.397 32.4432C33.979 32.4432 34.406 32.02 34.406 31.4305C34.406 30.841 33.979 30.4216 33.397 30.4216C32.8151 30.4216 32.3843 30.841 32.3843 31.4305C32.3843 32.02 32.8151 32.4432 33.397 32.4432ZM33.397 32.2052C32.9738 32.2052 32.6564 31.8953 32.6564 31.4305C32.6564 30.9657 32.9738 30.6559 33.397 30.6559C33.8203 30.6559 34.1339 30.9657 34.1339 31.4305C34.1339 31.8953 33.8203 32.2052 33.397 32.2052Z" fill="white"/>
<path d="M36.4614 30.4367V30.8184C36.2951 30.5576 36.008 30.4216 35.6754 30.4216C35.1086 30.4216 34.6779 30.8108 34.6779 31.3814C34.6779 31.952 35.1086 32.3487 35.6754 32.3487C36.0004 32.3487 36.2838 32.2165 36.4501 31.9633V32.2165C36.4501 32.7077 36.2196 32.9382 35.717 32.9382C35.4109 32.9382 35.1237 32.8362 34.9348 32.6662L34.7988 32.8702C35.0066 33.0667 35.3618 33.1763 35.7246 33.1763C36.3821 33.1763 36.7184 32.8664 36.7184 32.1825V30.4367H36.4614ZM35.7019 32.1107C35.2636 32.1107 34.9499 31.8122 34.9499 31.3814C34.9499 30.9506 35.2636 30.6559 35.7019 30.6559C36.1402 30.6559 36.4576 30.9506 36.4576 31.3814C36.4576 31.8122 36.1402 32.1107 35.7019 32.1107Z" fill="white"/>
<path d="M38.4057 30.4216C38.0619 30.4216 37.7936 30.5614 37.65 30.8033V30.4367H37.393V32.4243H37.6613V31.3814C37.6613 30.928 37.9296 30.6634 38.3566 30.6634C38.7345 30.6634 38.9537 30.8788 38.9537 31.2983V32.4243H39.2219V31.2718C39.2219 30.7012 38.8894 30.4216 38.4057 30.4216Z" fill="white"/>
<path d="M40.0108 30.0022C40.1241 30.0022 40.2073 29.9153 40.2073 29.8057C40.2073 29.7036 40.1204 29.6205 40.0108 29.6205C39.9012 29.6205 39.8143 29.7074 39.8143 29.8095C39.8143 29.9153 39.9012 30.0022 40.0108 30.0022ZM39.8747 32.4243H40.143V30.4367H39.8747V32.4243Z" fill="white"/>
<path d="M41.7662 32.1107C41.6906 32.1787 41.581 32.2127 41.4715 32.2127C41.2485 32.2127 41.1276 32.0842 41.1276 31.85V30.6634H41.7322V30.4367H41.1276V30.0022H40.8593V30.4367H40.5041V30.6634H40.8593V31.8651C40.8593 32.2316 41.0671 32.4432 41.4412 32.4432C41.5962 32.4432 41.7549 32.3979 41.8607 32.3034L41.7662 32.1107Z" fill="white"/>
<path d="M42.4095 30.0022C42.5229 30.0022 42.606 29.9153 42.606 29.8057C42.606 29.7036 42.5191 29.6205 42.4095 29.6205C42.2999 29.6205 42.213 29.7074 42.213 29.8095C42.213 29.9153 42.2999 30.0022 42.4095 30.0022ZM42.2735 32.4243H42.5418V30.4367H42.2735V32.4243Z" fill="white"/>
<path d="M44.6184 30.4367L43.8664 32.1296L43.122 30.4367H42.8424L43.7228 32.4243H43.9987L44.8829 30.4367H44.6184Z" fill="white"/>
<path d="M46.8642 31.4305C46.8642 30.8335 46.4599 30.4216 45.9007 30.4216C45.3414 30.4216 44.9295 30.841 44.9295 31.4305C44.9295 32.02 45.3528 32.4432 45.9725 32.4432C46.2861 32.4432 46.562 32.3299 46.7396 32.1182L46.5884 31.9444C46.4373 32.1182 46.2219 32.2052 45.98 32.2052C45.5455 32.2052 45.2281 31.9293 45.1978 31.5137H46.8605C46.8605 31.4834 46.8642 31.4532 46.8642 31.4305ZM45.9007 30.6521C46.2899 30.6521 46.5733 30.9242 46.6073 31.3134H45.1978C45.2318 30.9242 45.5152 30.6521 45.9007 30.6521Z" fill="white"/>
<path d="M30.6034 37.565H30.883V35.1617H31.8126V34.9199H29.6738V35.1617H30.6034V37.565Z" fill="white"/>
<path d="M32.7328 37.5839C33.3147 37.5839 33.7417 37.1607 33.7417 36.5712C33.7417 35.9817 33.3147 35.5623 32.7328 35.5623C32.1509 35.5623 31.7201 35.9817 31.7201 36.5712C31.7201 37.1607 32.1509 37.5839 32.7328 37.5839ZM32.7328 37.3458C32.3096 37.3458 31.9922 37.036 31.9922 36.5712C31.9922 36.1064 32.3096 35.7966 32.7328 35.7966C33.156 35.7966 33.4697 36.1064 33.4697 36.5712C33.4697 37.036 33.156 37.3458 32.7328 37.3458Z" fill="white"/>
<path d="M35.0263 37.5839C35.6082 37.5839 36.0352 37.1607 36.0352 36.5712C36.0352 35.9817 35.6082 35.5623 35.0263 35.5623C34.4444 35.5623 34.0136 35.9817 34.0136 36.5712C34.0136 37.1607 34.4444 37.5839 35.0263 37.5839ZM35.0263 37.3458C34.6031 37.3458 34.2857 37.036 34.2857 36.5712C34.2857 36.1064 34.6031 35.7966 35.0263 35.7966C35.4495 35.7966 35.7632 36.1064 35.7632 36.5712C35.7632 37.036 35.4495 37.3458 35.0263 37.3458Z" fill="white"/>
<path d="M36.5074 37.565H36.7757V34.7612H36.5074V37.565Z" fill="white"/>
<path d="M38.9846 37.565H39.3133L38.3837 36.3898L39.234 35.5774H38.9014L37.7149 36.6619V34.7612H37.4466V37.565H37.7149V36.9982L38.1835 36.5674L38.9846 37.565Z" fill="white"/>
<path d="M39.747 35.1428C39.8604 35.1428 39.9435 35.0559 39.9435 34.9464C39.9435 34.8443 39.8566 34.7612 39.747 34.7612C39.6374 34.7612 39.5505 34.8481 39.5505 34.9501C39.5505 35.0559 39.6374 35.1428 39.747 35.1428ZM39.611 37.565H39.8793V35.5774H39.611V37.565Z" fill="white"/>
<path d="M41.5024 37.2514C41.4269 37.3194 41.3173 37.3534 41.2077 37.3534C40.9847 37.3534 40.8638 37.2249 40.8638 36.9906V35.8041H41.4684V35.5774H40.8638V35.1428H40.5955V35.5774H40.2403V35.8041H40.5955V37.0058C40.5955 37.3723 40.8034 37.5839 41.1775 37.5839C41.3324 37.5839 41.4911 37.5386 41.5969 37.4441L41.5024 37.2514Z" fill="white"/>
<path fill-rule="evenodd" clip-rule="evenodd" d="M34.4788 8.08695L23.4546 32.7292L6.13535 26.3823L10.2586 13.3616L34.4788 8.08695ZM11.3827 15.0511L18.2203 17.4294L8.55854 23.9696L11.3827 15.0511ZM8.84028 25.689L21.9655 30.4988L19.4383 18.5149L8.84028 25.689ZM19.8767 16.3308L28.6821 10.9682L13.7858 14.2122L19.8767 16.3308ZM31.3574 11.1908L20.8587 17.5848L23.3058 29.1886L31.3574 11.1908Z" fill="white"/>
<path d="M12.6538 13.938C12.6538 14.9754 11.8128 15.8164 10.7755 15.8164C9.73809 15.8164 8.89714 14.9754 8.89714 13.938C8.89714 12.9007 9.73809 12.0597 10.7755 12.0597C11.8128 12.0597 12.6538 12.9007 12.6538 13.938Z" fill="white"/>
<path d="M35.1937 9.19278C35.1937 10.2302 34.3528 11.0711 33.3154 11.0711C32.278 11.0711 31.4371 10.2302 31.4371 9.19278C31.4371 8.15541 32.278 7.31445 33.3154 7.31445C34.3528 7.31445 35.1937 8.15541 35.1937 9.19278Z" fill="white"/>
<path d="M22.5397 17.3981C22.5397 18.8177 21.3889 19.9684 19.9694 19.9684C18.5498 19.9684 17.399 18.8177 17.399 17.3981C17.399 15.9785 18.5498 14.8278 19.9694 14.8278C21.3889 14.8278 22.5397 15.9785 22.5397 17.3981Z" fill="white"/>
<path d="M26.0987 31.7327C26.0987 33.4253 24.7266 34.7973 23.034 34.7973C21.3415 34.7973 19.9694 33.4253 19.9694 31.7327C19.9694 30.0401 21.3415 28.6681 23.034 28.6681C24.7266 28.6681 26.0987 30.0401 26.0987 31.7327Z" fill="white"/>
<path d="M9.68801 25.9989C9.68801 27.473 8.49297 28.6681 7.01881 28.6681C5.54465 28.6681 4.34961 27.473 4.34961 25.9989C4.34961 24.5247 5.54465 23.3297 7.01881 23.3297C8.49297 23.3297 9.68801 24.5247 9.68801 25.9989Z" fill="white"/>
<path d="M68.6 28L68.59 21H67.52L64.79 25.64L62.01 21H60.94V28H62.18V23.42L64.48 27.2H65.06L67.36 23.36L67.37 28H68.6ZM70.2908 28H71.5908V21H70.2908V28ZM76.5241 28.1C77.6741 28.1 78.6541 27.69 79.3041 26.93L78.4641 26.13C77.9541 26.69 77.3241 26.96 76.5941 26.96C75.1441 26.96 74.0941 25.94 74.0941 24.5C74.0941 23.06 75.1441 22.04 76.5941 22.04C77.3241 22.04 77.9541 22.31 78.4641 22.86L79.3041 22.07C78.6541 21.31 77.6741 20.9 76.5341 20.9C74.3841 20.9 72.7841 22.41 72.7841 24.5C72.7841 26.59 74.3841 28.1 76.5241 28.1ZM86.3298 28L84.7198 25.7C85.6698 25.33 86.2098 24.55 86.2098 23.49C86.2098 21.94 85.0698 21 83.2298 21H80.3498V28H81.6498V25.96H83.2298C83.3198 25.96 83.4098 25.96 83.4998 25.95L84.9298 28H86.3298ZM84.8998 23.49C84.8998 24.37 84.3098 24.89 83.1698 24.89H81.6498V22.1H83.1698C84.3098 22.1 84.8998 22.61 84.8998 23.49ZM90.7342 28.1C92.9042 28.1 94.5042 26.58 94.5042 24.5C94.5042 22.42 92.9042 20.9 90.7342 20.9C88.5642 20.9 86.9642 22.43 86.9642 24.5C86.9642 26.57 88.5642 28.1 90.7342 28.1ZM90.7342 26.96C89.3242 26.96 88.2742 25.93 88.2742 24.5C88.2742 23.07 89.3242 22.04 90.7342 22.04C92.1442 22.04 93.1942 23.07 93.1942 24.5C93.1942 25.93 92.1442 26.96 90.7342 26.96ZM97.8522 28.1C99.7722 28.1 100.682 27.14 100.682 26.02C100.682 23.45 96.5322 24.42 96.5322 22.93C96.5322 22.4 96.9722 21.98 98.0522 21.98C98.6622 21.98 99.3522 22.16 99.9822 22.53L100.392 21.52C99.7822 21.12 98.9022 20.9 98.0622 20.9C96.1422 20.9 95.2422 21.86 95.2422 22.99C95.2422 25.59 99.4022 24.6 99.4022 26.11C99.4022 26.63 98.9422 27.02 97.8522 27.02C96.9922 27.02 96.1022 26.7 95.5422 26.25L95.0922 27.26C95.6722 27.76 96.7622 28.1 97.8522 28.1ZM105.041 28.1C107.211 28.1 108.811 26.58 108.811 24.5C108.811 22.42 107.211 20.9 105.041 20.9C102.871 20.9 101.271 22.43 101.271 24.5C101.271 26.57 102.871 28.1 105.041 28.1ZM105.041 26.96C103.631 26.96 102.581 25.93 102.581 24.5C102.581 23.07 103.631 22.04 105.041 22.04C106.451 22.04 107.501 23.07 107.501 24.5C107.501 25.93 106.451 26.96 105.041 26.96ZM115.099 22.09V21H109.989V28H111.289V25.32H114.669V24.22H111.289V22.09H115.099ZM117.625 28H118.925V22.1H121.245V21H115.305V22.1H117.625V28ZM64.18 38.1C65.33 38.1 66.31 37.69 66.96 36.93L66.12 36.13C65.61 36.69 64.98 36.96 64.25 36.96C62.8 36.96 61.75 35.94 61.75 34.5C61.75 33.06 62.8 32.04 64.25 32.04C64.98 32.04 65.61 32.31 66.12 32.86L66.96 32.07C66.31 31.31 65.33 30.9 64.19 30.9C62.04 30.9 60.44 32.41 60.44 34.5C60.44 36.59 62.04 38.1 64.18 38.1ZM71.1291 38.1C73.2991 38.1 74.8991 36.58 74.8991 34.5C74.8991 32.42 73.2991 30.9 71.1291 30.9C68.9591 30.9 67.3591 32.43 67.3591 34.5C67.3591 36.57 68.9591 38.1 71.1291 38.1ZM71.1291 36.96C69.7191 36.96 68.6691 35.93 68.6691 34.5C68.6691 33.07 69.7191 32.04 71.1291 32.04C72.5391 32.04 73.5891 33.07 73.5891 34.5C73.5891 35.93 72.5391 36.96 71.1291 36.96ZM80.8571 36.6C80.4071 36.86 79.9171 36.96 79.4171 36.96C77.9371 36.96 76.8871 35.92 76.8871 34.5C76.8871 33.05 77.9371 32.04 79.4271 32.04C80.1771 32.04 80.8071 32.29 81.3571 32.84L82.1771 32.04C81.5171 31.29 80.5371 30.9 79.3671 30.9C77.1771 30.9 75.5771 32.41 75.5771 34.5C75.5771 36.59 77.1771 38.1 79.3471 38.1C80.3371 38.1 81.3571 37.8 82.0871 37.21V34.42H80.8571V36.6ZM88.5317 31V35.74L84.6717 31H83.6017V38H84.8917V33.26L88.7517 38H89.8217V31H88.5317ZM91.4974 38H92.7974V31H91.4974V38ZM95.9108 38H97.2108V32.1H99.5308V31H93.5908V32.1H95.9108V38ZM100.306 38H101.606V31H100.306V38ZM108.351 31L106.001 36.4L103.671 31H102.261L105.321 38H106.601L109.651 31H108.351ZM111.49 36.91V34.98H114.87V33.91H111.49V32.09H115.3V31H110.19V38H115.44V36.91H111.49ZM62.36 49H63.66V43.1H65.98V42H60.04V43.1H62.36V49ZM69.928 49.1C72.098 49.1 73.698 47.58 73.698 45.5C73.698 43.42 72.098 41.9 69.928 41.9C67.758 41.9 66.158 43.43 66.158 45.5C66.158 47.57 67.758 49.1 69.928 49.1ZM69.928 47.96C68.518 47.96 67.468 46.93 67.468 45.5C67.468 44.07 68.518 43.04 69.928 43.04C71.338 43.04 72.388 44.07 72.388 45.5C72.388 46.93 71.338 47.96 69.928 47.96ZM78.1459 49.1C80.3159 49.1 81.9159 47.58 81.9159 45.5C81.9159 43.42 80.3159 41.9 78.1459 41.9C75.9759 41.9 74.3759 43.43 74.3759 45.5C74.3759 47.57 75.9759 49.1 78.1459 49.1ZM78.1459 47.96C76.7359 47.96 75.6859 46.93 75.6859 45.5C75.6859 44.07 76.7359 43.04 78.1459 43.04C79.5559 43.04 80.6059 44.07 80.6059 45.5C80.6059 46.93 79.5559 47.96 78.1459 47.96ZM83.0939 49H88.0539V47.9H84.3939V42H83.0939V49ZM93.7602 49H95.2802L92.1602 45.13L95.1002 42H93.6402L90.1802 45.59V42H88.8802V49H90.1802V47.21L91.2902 46.07L93.7602 49ZM95.9654 49H97.2654V42H95.9654V49ZM100.379 49H101.679V43.1H103.999V42H98.0587V43.1H100.379V49Z" fill="#3E72C1"/>
<path d="M163.354 64.1C164.504 64.1 165.484 63.69 166.134 62.93L165.294 62.13C164.784 62.69 164.154 62.96 163.424 62.96C161.974 62.96 160.924 61.94 160.924 60.5C160.924 59.06 161.974 58.04 163.424 58.04C164.154 58.04 164.784 58.31 165.294 58.86L166.134 58.07C165.484 57.31 164.504 56.9 163.364 56.9C161.214 56.9 159.614 58.41 159.614 60.5C159.614 62.59 161.214 64.1 163.354 64.1ZM170.303 64.1C172.473 64.1 174.073 62.58 174.073 60.5C174.073 58.42 172.473 56.9 170.303 56.9C168.133 56.9 166.533 58.43 166.533 60.5C166.533 62.57 168.133 64.1 170.303 64.1ZM170.303 62.96C168.893 62.96 167.843 61.93 167.843 60.5C167.843 59.07 168.893 58.04 170.303 58.04C171.713 58.04 172.763 59.07 172.763 60.5C172.763 61.93 171.713 62.96 170.303 62.96ZM181.231 64L179.621 61.7C180.571 61.33 181.111 60.55 181.111 59.49C181.111 57.94 179.971 57 178.131 57H175.251V64H176.551V61.96H178.131C178.221 61.96 178.311 61.96 178.401 61.95L179.831 64H181.231ZM179.801 59.49C179.801 60.37 179.211 60.89 178.071 60.89H176.551V58.1H178.071C179.211 58.1 179.801 58.61 179.801 59.49ZM183.666 62.91V60.98H187.046V59.91H183.666V58.09H187.476V57H182.366V64H187.616V62.91H183.666ZM199.089 64L199.079 57H198.009L195.279 61.64L192.499 57H191.429V64H192.669V59.42L194.969 63.2H195.549L197.849 59.36L197.859 64H199.089ZM200.779 64H205.739V62.9H202.079V57H200.779V64Z" fill="#14C8AC"/>
<path d="M176.958 49.8855C172.091 46.2914 165.632 41.0875 163.012 38.9347C159.594 36.127 160.204 33.4884 160.017 28.6214C159.773 22.2967 175.179 19.2795 176.49 18.25C177.8 17.2204 183.229 13.4766 188.844 17.5948C194.46 21.713 206.347 25.1871 206.347 26.843C206.347 34.3307 206.347 36.4918 203.633 38.654C198.015 43.1288 190.81 48.7623 189.687 49.6047C188.564 50.4471 183.041 54.3781 176.958 49.8855Z" fill="url(#paint0_linear)"/>
<path d="M176.958 44.8298C172.091 41.2357 165.633 36.0318 163.012 33.8791C159.594 31.0713 160.017 30.0238 160.017 23.5657C160.017 17.2363 175.179 14.2239 176.49 13.1943C177.8 12.1648 183.229 8.42091 188.844 12.5391C194.46 16.6574 206.347 21.8162 206.347 23.4721C206.347 31.0534 206.347 31.0594 203.633 33.5983C200.918 36.1371 190.81 43.8761 189.687 44.549C188.482 45.2707 183.041 49.3225 176.958 44.8298Z" fill="url(#paint1_linear)"/>
<path d="M176.958 39.9636C172.091 36.3695 165.633 31.1656 163.012 29.0129C159.594 26.2051 160.017 24.596 160.017 18.6059C160.017 12.2765 175.179 9.35766 176.49 8.3281C177.8 7.29855 183.229 3.5547 188.844 7.67293C194.46 11.7912 206.347 16.95 206.347 18.6059C206.347 22.7241 207.002 26.048 203.633 28.7321C198.11 33.1311 190.903 38.7704 189.687 39.6828C188.564 40.5252 183.041 44.4562 176.958 39.9636Z" fill="url(#paint2_linear)"/>
<path d="M176.958 35.0789C172.091 31.4848 165.633 26.2808 163.012 24.1281C159.594 21.3203 158.613 17.4828 162.637 14.1133C167.491 10.0503 175.179 4.4729 176.49 3.44334C177.8 2.41378 183.229 -1.33007 188.844 2.78816C194.46 6.9064 202.416 12.9902 203.633 14.1133C204.849 15.2365 209.155 19.4483 203.633 23.8473C198.111 28.2463 190.81 33.9557 189.687 34.7981C188.564 35.6404 183.042 39.5715 176.958 35.0789Z" fill="url(#paint3_linear)"/>
<mask id="mask0" mask-type="alpha" maskUnits="userSpaceOnUse" x="160" y="0" width="47" height="38">
<path d="M176.958 35.0789C172.091 31.4848 165.633 26.2808 163.012 24.1281C159.594 21.3203 158.613 17.4828 162.637 14.1133C167.491 10.0503 175.179 4.4729 176.49 3.44334C177.8 2.41378 183.229 -1.33007 188.844 2.78816C194.46 6.9064 202.416 12.9902 203.633 14.1133C204.849 15.2365 209.155 19.4483 203.633 23.8473C198.111 28.2463 190.81 33.9557 189.687 34.7981C188.564 35.6404 183.042 39.5715 176.958 35.0789Z" fill="#C4C4C4"/>
</mask>
<g mask="url(#mask0)">
<path d="M176.958 39.197C172.091 35.6029 165.633 30.399 163.012 28.2463C159.594 25.4385 158.613 21.6009 162.637 18.2315C167.491 14.1684 175.179 8.59106 176.49 7.5615C177.8 6.53194 183.229 2.78809 188.844 6.90633C194.46 11.0246 202.416 17.1083 203.633 18.2315C204.849 19.3546 209.155 23.5665 203.633 27.9655C198.111 32.3645 190.81 38.0739 189.687 38.9162C188.564 39.7586 183.042 43.6896 176.958 39.197Z" fill="url(#paint4_linear)"/>
</g>
<path opacity="0.5" d="M176.958 35.0789C172.091 31.4848 165.633 26.2808 163.012 24.1281C159.594 21.3203 158.613 17.4828 162.637 14.1133C167.491 10.0503 175.179 4.4729 176.49 3.44334C177.8 2.41378 183.229 -1.33007 188.844 2.78816C194.46 6.9064 202.416 12.9902 203.633 14.1133C204.849 15.2365 209.155 19.4483 203.633 23.8473C198.111 28.2463 190.81 33.9557 189.687 34.7981C188.564 35.6404 183.042 39.5715 176.958 35.0789Z" fill="url(#paint5_linear)"/>
<path opacity="0.1" fill-rule="evenodd" clip-rule="evenodd" d="M182.51 5.92736L182.346 5.45328L185.85 4.70249V7.59748L182.51 5.92736ZM182.27 5.80773L182.176 5.5341L182.134 5.73959L182.27 5.80773ZM182.095 5.9295L182.358 6.06062L183.97 10.7376L181.369 9.95724L181.342 9.80804H181.304L182.095 5.9295ZM181.961 5.65291L179.059 4.20215L178.976 4.36958L181.922 5.84282L181.102 9.85956C181.081 9.86862 181.057 9.87886 181.032 9.89016C180.923 9.93847 180.776 10.0081 180.598 10.0938C180.243 10.2652 179.768 10.5024 179.247 10.7658C178.283 11.2526 177.162 11.8294 176.357 12.2466L176.289 12.2442L175.573 7.94931L181.046 9.80309L181.107 9.6258L175.539 7.73985L175.512 7.58324L175.436 7.7052L175.304 7.66027L175.244 7.83757L175.334 7.8683L172.605 12.2354L169.345 11.8629L165.747 15.1767L164.316 17.5313L163.439 16.9375L163.334 17.0924L164.219 17.6915L162.839 19.9614L162.969 20.0889L165.434 18.5145L166.171 19.0141L164.403 23.0155L166.441 25.9266L169.233 24.8525L169.474 27.9191L172.697 30.5732L175.262 31.7131L174.394 32.3441L176.005 34.559L177.997 32.9289L178.051 32.9529L178.022 32.9084L178.141 32.8116L178.022 32.6667L177.92 32.7505L176.609 30.7335L175.436 31.5859L172.796 30.4125L169.654 27.8251L169.416 24.7824L170.14 24.5037L173.194 24.6833L172.153 29.7032L176.549 28.0785L177.719 29.7512L177.697 30.0743L177.966 29.9652L181.68 31.3802L178.936 35.3554L186.507 35.5471L189.755 35.356L190.616 32.9641L195.143 31.4227L191.54 30.3513L194.286 27.25L196.925 29.2287L199.816 23.912L201.396 27.2569L201.565 27.177L200.049 23.9655L203.125 24.4179L204.794 21.0796L205.037 21.179V16.9486L201.526 15.715L199.849 14.4105L198.074 13.3457L198.076 13.344L197.986 13.1845L197.624 11.1925L193.688 12.0921L193.239 11.2718L192.206 6.86083L190.623 5.17233V8.39008L188.97 8.15855L189.43 7.25674L186.062 4.46562L182.027 5.33033L181.961 5.65291ZM188.773 8.13108L189.195 7.30515L186.037 4.6882V7.74801L188.773 8.13108ZM185.958 7.90278L187.139 11.7407L188.879 8.33495L190.725 8.59332L190.9 12.7055L182.041 12.3476L184.031 10.9145L184.047 10.9599L184.111 10.8569L184.187 10.8025L184.152 10.7921L185.958 7.90278ZM185.81 7.78661L182.597 6.18025L184.096 10.5281L185.81 7.78661ZM181.801 12.2896L183.769 10.8727L181.408 10.1642L181.801 12.2896ZM181.09 10.0691L181.206 10.1037L181.618 12.3315L181.451 12.3397L181.453 12.3862L181.416 12.421L176.739 12.2597C177.509 11.8617 178.481 11.3622 179.331 10.9328C179.852 10.6697 180.326 10.4331 180.68 10.2623C180.847 10.1815 180.986 10.1158 181.09 10.0691ZM176.111 12.3124L175.409 8.1018L172.739 12.3742L171.235 17.3278L174.082 15.1707L176.111 12.3124ZM174.177 15.3342L171.505 17.358L177.415 15.739L174.177 15.3342ZM177.641 15.8709L171.758 17.4829H176.352L177.641 15.8709ZM176.271 17.6701H171.516L175.731 19.4848L176.271 17.6701ZM175.677 19.6655L171.372 17.8122L173.096 19.9465L174.936 21.7025L175.028 21.5538L175.068 21.7078L175.677 19.6655ZM174.835 21.865L172.958 20.0736L171.303 18.0247L173.316 24.3129L174.835 21.865ZM173.061 24.1329L171.079 17.9363L170.313 21.4241V21.4652L173.061 24.1329ZM170.135 21.3609L170.936 17.7109L168.859 18.3219L168.909 18.318L169.204 22.085L170.135 21.3609ZM169.027 22.2226L168.724 18.3615L166.408 19.0429L167.789 23.1859L169.027 22.2226ZM167.852 23.3742L169.045 22.4461L169.218 24.6578L166.684 25.6326L167.888 23.4827L167.852 23.3742ZM167.649 23.3584L166.276 19.2397L164.651 22.9175L167.649 23.3584ZM164.7 23.114L166.467 25.6372L167.638 23.5459L164.7 23.114ZM169.4 24.5877L169.222 22.3085L170.126 21.6053V24.3153L170.111 24.3144L169.4 24.5877ZM170.313 24.3263V21.7261L173.165 24.4941L170.313 24.3263ZM173.38 24.7108L172.404 29.4105L176.483 27.9031L173.38 24.7108ZM176.709 27.9816L175.673 24.019L178.166 23.4074L177.74 29.4546L176.709 27.9816ZM178.221 29.862L181.751 31.2066L182.011 29.5611L181.731 28.4414L178.221 29.862ZM181.841 28.3356L184.153 27.9075L178.673 23.5403L181.841 28.3356ZM178.334 23.0307L184.054 27.5892L183.136 25.836V25.7628L177.901 20.7288L178.334 23.0307ZM177.936 20.5019L183.163 25.5296L184.482 25.5794L185.027 21.6431L188.377 23.4167V25.7688L189.797 26.9381L190.228 24.6939L189.949 24.5186L195.316 24.231L193.635 21.8422L193.789 21.7345L195.535 24.2162L199.536 23.7615L199.545 23.7297L196.718 22.2705L200.778 19.2734L200.762 19.2613H200.732C200.732 19.2555 200.732 19.2482 200.733 19.2395L197.97 17.1896L196.15 16.3627L195.919 16.4871L195.896 16.4426L194.268 18.9747L193.354 17.3495L193.248 17.2251L193.227 17.2427L192.988 16.9185L191.766 15.4814L186.259 17.2254L184.86 13.1297L191.645 15.1468L190.864 12.8914L181.795 12.525L181.667 12.617L181.652 12.6165L181.919 18.0399L181.732 18.0491L181.731 18.0305L177.936 20.5019ZM181.717 17.7397L181.465 12.6324L178.236 15.6871L181.717 17.7397ZM178.104 15.5548L181.225 12.6018L176.4 12.4354C176.379 12.446 176.359 12.4565 176.339 12.4669L178.104 15.5548ZM181.603 17.8902L178.012 15.7726L177.987 15.7287L177.898 20.3031L181.603 17.8902ZM177.715 20.0856L177.795 15.9782L176.507 17.5889L177.715 20.0856ZM176.418 17.8345L175.904 19.5594L177.607 20.2927L176.418 17.8345ZM177.588 20.4884L175.85 19.74L175.241 21.7832L177.588 20.4884ZM177.695 20.6433L175.308 21.9601L178.146 23.0451L177.695 20.6433ZM178.105 23.2298L175.173 22.109L175.626 23.8378L178.105 23.2298ZM175.444 23.8824L174.957 22.0229L173.509 24.3571L175.444 23.8824ZM173.489 24.5546L176.404 27.5523L175.491 24.0636L173.489 24.5546ZM178.355 23.3985L177.911 29.6982L177.954 29.7604L177.964 29.7641L181.591 28.2963L178.355 23.3985ZM177.922 15.6137L176.171 12.5506L174.317 15.1632L177.922 15.6137ZM191.011 12.8961L194.566 14.081L193.592 12.3061L191.011 12.8961ZM193.499 12.1354L193.062 11.3394L192.035 6.95229L190.811 5.6457V8.4041L190.904 8.40012L191.086 12.6868L193.499 12.1354ZM193.782 12.2627L194.763 14.0507L197.263 11.4671L193.782 12.2627ZM197.49 11.5016L194.723 14.3603L194.899 14.3056L197.807 13.2479L197.49 11.5016ZM197.518 13.5521L195.061 14.4456L195.46 15.2069L197.518 13.5521ZM195.311 15.3265L194.882 14.5069L192.087 15.3804L193.135 16.8023L193.273 16.9651L195.311 15.3265ZM193.394 17.1078L195.4 15.4955L195.796 16.2518L194.279 18.6119L193.508 17.242L193.394 17.1078ZM195.913 16.0707L195.549 15.3759L197.919 13.4707L199.436 14.381L196.143 16.1539L195.923 16.0539L195.913 16.0707ZM196.357 16.2512L198.065 17.0275L200.756 19.0239C200.764 18.9619 200.773 18.8895 200.784 18.8085C200.815 18.5681 200.859 18.2507 200.908 17.9051C201.006 17.2138 201.123 16.4087 201.201 15.8782L201.224 15.7175L199.743 14.5652L199.623 14.4931L196.357 16.2512ZM201.359 15.8225L204.834 20.8936L204.85 20.9002V17.0813L201.435 15.8814L201.359 15.8225ZM204.519 20.7646L201.351 16.1419C201.276 16.6576 201.177 17.3366 201.093 17.9312C201.045 18.2767 201.001 18.5934 200.969 18.833C200.953 18.9529 200.941 19.0531 200.932 19.1279C200.931 19.1364 200.93 19.1446 200.929 19.1523L201.027 19.2247L200.998 19.3245L204.519 20.7646ZM200.745 19.5308L199.597 23.5461L197.071 22.2422L200.745 19.5308ZM199.767 23.6337L200.946 19.5055L204.53 20.9717L199.921 23.7197L199.924 23.7146L199.767 23.6337ZM199.586 23.9443L195.498 24.4088L195.495 24.4089L196.917 28.8518L199.586 23.9443ZM196.716 28.8379L195.384 24.6764L194.36 27.0666L194.346 27.0609L196.716 28.8379ZM194.199 26.966L195.29 24.4199L190.549 24.6739L194.199 26.966ZM190.399 24.8007L189.97 27.0297H193.949L190.399 24.8007ZM194.066 27.2169H189.973L191.396 30.2309L194.066 27.2169ZM191.126 30.0979L189.733 27.1466L187.193 27.5434L188.99 28.399L188.943 28.4602L191.126 30.0979ZM188.7 28.4683L186.867 27.5953L184.498 28.0339L186.333 31.5367L188.7 28.4683ZM186.098 31.4923L184.306 28.0696L181.94 28.5076L182.187 29.4929L186.098 31.4923ZM182.178 29.6989L181.926 31.2989L186.401 35.2367L186.227 31.7683L182.178 29.6989ZM186.418 31.8359L186.594 35.3544L189.62 35.1764L190.389 33.0413L190.28 33.0783L190.322 32.9638L186.418 31.8359ZM190.592 32.7743L194.527 31.4348L191.429 30.5139L190.592 32.7743ZM191.26 30.4322L188.828 28.6084L186.476 31.6578L190.388 32.7878L191.26 30.4322ZM186.25 35.3533L179.286 35.177L181.842 31.475L186.25 35.3533ZM184.407 27.8603L186.827 27.4122L188.004 25.8996L184.644 25.7728L184.366 27.7812L184.407 27.8603ZM184.216 27.4959L184.456 25.7658L183.366 25.7246L183.388 25.7455L183.331 25.8049L184.216 27.4959ZM184.67 25.5865L188.087 25.7155L185.164 22.0185L184.67 25.5865ZM185.45 22.0792L188.19 23.5294V25.5437L185.45 22.0792ZM188.241 25.8994L189.559 26.9844L187.098 27.3688L188.241 25.8994ZM204.53 21.1901L200.163 23.7932L203.018 24.213L204.53 21.1901ZM191.933 15.2324L194.72 14.3616L194.643 14.222L194.618 14.2959L191.148 13.1392L191.866 15.2124L191.933 15.2324ZM191.615 15.333L186.377 16.9917L185.155 13.4125L191.615 15.333ZM166.304 18.8782L170.249 17.7181L166.318 17.9493L165.605 18.4047L166.304 18.8782ZM165.437 18.2904L166.185 17.8121L165.772 15.4968L164.471 17.6364L165.437 18.2904ZM164.374 17.7966L163.208 19.714L165.265 18.4002L164.374 17.7966ZM165.944 15.3941L166.366 17.759L170.673 17.5056L165.944 15.3941ZM171.061 17.2572L169.959 13.6958L172.502 12.5087L171.061 17.2572ZM172.313 12.3905L169.808 13.5595L166.254 14.9646L169.409 12.0586L172.313 12.3905ZM166.062 15.2419L170.911 17.4068L169.785 13.7697L166.062 15.2419ZM188.683 8.30748L187.182 11.2448L186.17 7.95561L188.683 8.30748ZM175.459 31.8009L174.656 32.3854L176.04 34.2887L177.806 32.8438L175.459 31.8009ZM175.634 31.6737L176.559 31.0009L177.55 32.5253L175.634 31.6737Z" fill="white"/>
<path d="M180.14 32.1782L182.106 30.5871L173.588 23.8482L185.662 27.7792L187.066 26.5625L182.106 17.1093L190.623 23.8482L192.588 22.1634L180.515 12.8038L177.987 14.7693L183.51 24.8777L170.687 20.5723L167.973 22.6314L180.14 32.1782Z" fill="white" fill-opacity="0.6"/>
<path d="M199.983 13.6462L201.667 15.1437L194.086 21.1339L182.106 11.5871L184.165 9.90234L194.46 18.0452L199.983 13.6462Z" fill="white" fill-opacity="0.6"/>
<path fill-rule="evenodd" clip-rule="evenodd" d="M184.165 9.78125L194.461 17.9247L199.987 13.5229L201.814 15.147L194.087 21.2524L181.958 11.5871L184.165 9.78125ZM184.167 10.0215L182.256 11.5851L194.087 21.0134L201.523 15.1385L199.98 13.7675L194.461 18.1637L184.167 10.0215ZM180.515 12.6844L192.737 22.1588L190.626 23.9684L182.394 17.4554L187.184 26.5837L185.685 27.8836L174.057 24.0979L182.256 30.5853L180.142 32.297L167.82 22.6292L170.671 20.4669L183.314 24.712L177.868 14.7434L180.515 12.6844ZM180.516 12.9214L178.109 14.7934L183.707 25.0415L170.705 20.6758L168.127 22.6317L180.14 32.0576L181.957 30.587L173.531 23.9206L173.618 23.7582L185.642 27.6729L186.95 26.5393L182.024 17.1518L182.165 17.0349L190.621 23.726L192.441 22.1661L180.516 12.9214Z" fill="white"/>
<path d="M170.968 20.6656C170.968 20.8207 170.843 20.9464 170.688 20.9464C170.533 20.9464 170.407 20.8207 170.407 20.6656C170.407 20.5105 170.533 20.3848 170.688 20.3848C170.843 20.3848 170.968 20.5105 170.968 20.6656Z" fill="#FEFFFF"/>
<path d="M168.348 22.5375C168.348 22.6926 168.222 22.8183 168.067 22.8183C167.912 22.8183 167.786 22.6926 167.786 22.5375C167.786 22.3825 167.912 22.2567 168.067 22.2567C168.222 22.2567 168.348 22.3825 168.348 22.5375Z" fill="#FEFFFF"/>
<path d="M180.328 32.0843C180.328 32.2394 180.202 32.3651 180.047 32.3651C179.892 32.3651 179.766 32.2394 179.766 32.0843C179.766 31.9293 179.892 31.8036 180.047 31.8036C180.202 31.8036 180.328 31.9293 180.328 32.0843Z" fill="#FEFFFF"/>
<path d="M182.387 30.5868C182.387 30.7419 182.261 30.8676 182.106 30.8676C181.951 30.8676 181.826 30.7419 181.826 30.5868C181.826 30.4317 181.951 30.306 182.106 30.306C182.261 30.306 182.387 30.4317 182.387 30.5868Z" fill="#FEFFFF"/>
<path d="M173.963 23.8479C173.963 24.0029 173.838 24.1287 173.683 24.1287C173.528 24.1287 173.402 24.0029 173.402 23.8479C173.402 23.6928 173.528 23.5671 173.683 23.5671C173.838 23.5671 173.963 23.6928 173.963 23.8479Z" fill="#FEFFFF"/>
<path d="M183.885 24.971C183.885 25.1261 183.759 25.2518 183.604 25.2518C183.449 25.2518 183.323 25.1261 183.323 24.971C183.323 24.816 183.449 24.6902 183.604 24.6902C183.759 24.6902 183.885 24.816 183.885 24.971Z" fill="#FEFFFF"/>
<path d="M185.944 27.7789C185.944 27.934 185.818 28.0597 185.663 28.0597C185.508 28.0597 185.382 27.934 185.382 27.7789C185.382 27.6238 185.508 27.4981 185.663 27.4981C185.818 27.4981 185.944 27.6238 185.944 27.7789Z" fill="#FEFFFF"/>
<path d="M187.441 26.4686C187.441 26.6236 187.316 26.7494 187.161 26.7494C187.005 26.7494 186.88 26.6236 186.88 26.4686C186.88 26.3135 187.005 26.1878 187.161 26.1878C187.316 26.1878 187.441 26.3135 187.441 26.4686Z" fill="#FEFFFF"/>
<path d="M190.998 23.8479C190.998 24.0029 190.872 24.1287 190.717 24.1287C190.562 24.1287 190.436 24.0029 190.436 23.8479C190.436 23.6928 190.562 23.5671 190.717 23.5671C190.872 23.5671 190.998 23.6928 190.998 23.8479Z" fill="#FEFFFF"/>
<path d="M182.387 17.1089C182.387 17.264 182.261 17.3897 182.106 17.3897C181.951 17.3897 181.826 17.264 181.826 17.1089C181.826 16.9539 181.951 16.8282 182.106 16.8282C182.261 16.8282 182.387 16.9539 182.387 17.1089Z" fill="#FEFFFF"/>
<path d="M178.269 14.6754C178.269 14.8305 178.143 14.9562 177.988 14.9562C177.833 14.9562 177.707 14.8305 177.707 14.6754C177.707 14.5204 177.833 14.3947 177.988 14.3947C178.143 14.3947 178.269 14.5204 178.269 14.6754Z" fill="#FEFFFF"/>
<path d="M180.89 12.8035C180.89 12.9586 180.764 13.0843 180.609 13.0843C180.454 13.0843 180.328 12.9586 180.328 12.8035C180.328 12.6484 180.454 12.5227 180.609 12.5227C180.764 12.5227 180.89 12.6484 180.89 12.8035Z" fill="#FEFFFF"/>
<path d="M182.387 11.4932C182.387 11.6482 182.261 11.774 182.106 11.774C181.951 11.774 181.826 11.6482 181.826 11.4932C181.826 11.3381 181.951 11.2124 182.106 11.2124C182.261 11.2124 182.387 11.3381 182.387 11.4932Z" fill="#FEFFFF"/>
<path d="M184.446 9.99563C184.446 10.1507 184.321 10.2764 184.165 10.2764C184.01 10.2764 183.885 10.1507 183.885 9.99563C183.885 9.84056 184.01 9.71484 184.165 9.71484C184.321 9.71484 184.446 9.84056 184.446 9.99563Z" fill="#FEFFFF"/>
<path d="M194.742 18.0449C194.742 18.2 194.616 18.3257 194.461 18.3257C194.306 18.3257 194.18 18.2 194.18 18.0449C194.18 17.8898 194.306 17.7641 194.461 17.7641C194.616 17.7641 194.742 17.8898 194.742 18.0449Z" fill="#FEFFFF"/>
<path d="M194.367 21.04C194.367 21.1951 194.242 21.3208 194.087 21.3208C193.932 21.3208 193.806 21.1951 193.806 21.04C193.806 20.8849 193.932 20.7592 194.087 20.7592C194.242 20.7592 194.367 20.8849 194.367 21.04Z" fill="#FEFFFF"/>
<path d="M201.855 15.0498C201.855 15.2049 201.729 15.3306 201.574 15.3306C201.419 15.3306 201.294 15.2049 201.294 15.0498C201.294 14.8948 201.419 14.769 201.574 14.769C201.729 14.769 201.855 14.8948 201.855 15.0498Z" fill="#FEFFFF"/>
<path d="M200.358 13.5523C200.358 13.7074 200.232 13.8331 200.077 13.8331C199.922 13.8331 199.796 13.7074 199.796 13.5523C199.796 13.3972 199.922 13.2715 200.077 13.2715C200.232 13.2715 200.358 13.3972 200.358 13.5523Z" fill="#FEFFFF"/>
<path d="M192.87 22.1631C192.87 22.3182 192.744 22.4439 192.589 22.4439C192.434 22.4439 192.308 22.3182 192.308 22.1631C192.308 22.0081 192.434 21.8824 192.589 21.8824C192.744 21.8824 192.87 22.0081 192.87 22.1631Z" fill="#FEFFFF"/>
<path d="M164.603 17.5768C164.603 17.6802 164.519 17.764 164.416 17.764C164.312 17.764 164.229 17.6802 164.229 17.5768C164.229 17.4735 164.312 17.3896 164.416 17.3896C164.519 17.3896 164.603 17.4735 164.603 17.5768Z" fill="#FEFFFF"/>
<path d="M171.341 17.5768C171.341 17.6802 171.257 17.764 171.154 17.764C171.051 17.764 170.967 17.6802 170.967 17.5768C170.967 17.4735 171.051 17.3896 171.154 17.3896C171.257 17.3896 171.341 17.4735 171.341 17.5768Z" fill="#FEFFFF"/>
<path d="M172.653 12.3347C172.653 12.438 172.569 12.5218 172.466 12.5218C172.362 12.5218 172.278 12.438 172.278 12.3347C172.278 12.2313 172.362 12.1475 172.466 12.1475C172.569 12.1475 172.653 12.2313 172.653 12.3347Z" fill="#FEFFFF"/>
<path d="M176.397 12.3347C176.397 12.438 176.313 12.5218 176.21 12.5218C176.106 12.5218 176.022 12.438 176.022 12.3347C176.022 12.2313 176.106 12.1475 176.21 12.1475C176.313 12.1475 176.397 12.2313 176.397 12.3347Z" fill="#FEFFFF"/>
<path d="M186.129 7.84247C186.129 7.94585 186.045 8.02966 185.942 8.02966C185.839 8.02966 185.755 7.94585 185.755 7.84247C185.755 7.73908 185.839 7.65527 185.942 7.65527C186.045 7.65527 186.129 7.73908 186.129 7.84247Z" fill="#FEFFFF"/>
<path d="M178.08 20.3845C178.08 20.4878 177.997 20.5717 177.893 20.5717C177.79 20.5717 177.706 20.4878 177.706 20.3845C177.706 20.2811 177.79 20.1973 177.893 20.1973C177.997 20.1973 178.08 20.2811 178.08 20.3845Z" fill="#FEFFFF"/>
<path d="M176.583 17.5768C176.583 17.6802 176.5 17.764 176.396 17.764C176.293 17.764 176.209 17.6802 176.209 17.5768C176.209 17.4735 176.293 17.3896 176.396 17.3896C176.5 17.3896 176.583 17.4735 176.583 17.5768Z" fill="#FEFFFF"/>
<path d="M164.603 23.0056C164.603 23.1089 164.519 23.1927 164.416 23.1927C164.312 23.1927 164.229 23.1089 164.229 23.0056C164.229 22.9022 164.312 22.8184 164.416 22.8184C164.519 22.8184 164.603 22.9022 164.603 23.0056Z" fill="#FEFFFF"/>
<path d="M172.278 29.7438C172.278 29.8472 172.194 29.931 172.091 29.931C171.987 29.931 171.903 29.8472 171.903 29.7438C171.903 29.6404 171.987 29.5566 172.091 29.5566C172.194 29.5566 172.278 29.6404 172.278 29.7438Z" fill="#FEFFFF"/>
<path d="M186.504 31.8034C186.504 31.9068 186.42 31.9906 186.317 31.9906C186.214 31.9906 186.13 31.9068 186.13 31.8034C186.13 31.7 186.214 31.6162 186.317 31.6162C186.42 31.6162 186.504 31.7 186.504 31.8034Z" fill="#FEFFFF"/>
<path d="M188.376 25.8132C188.376 25.9166 188.293 26.0004 188.189 26.0004C188.086 26.0004 188.002 25.9166 188.002 25.8132C188.002 25.7098 188.086 25.626 188.189 25.626C188.293 25.626 188.376 25.7098 188.376 25.8132Z" fill="#FEFFFF"/>
<path d="M185.381 21.695C185.381 21.7984 185.297 21.8822 185.194 21.8822C185.091 21.8822 185.007 21.7984 185.007 21.695C185.007 21.5916 185.091 21.5078 185.194 21.5078C185.297 21.5078 185.381 21.5916 185.381 21.695Z" fill="#FEFFFF"/>
<path d="M195.677 24.3161C195.677 24.4195 195.593 24.5033 195.49 24.5033C195.387 24.5033 195.303 24.4195 195.303 24.3161C195.303 24.2127 195.387 24.1289 195.49 24.1289C195.593 24.1289 195.677 24.2127 195.677 24.3161Z" fill="#FEFFFF"/>
<path d="M194.366 27.1227C194.366 27.2261 194.282 27.3099 194.178 27.3099C194.075 27.3099 193.991 27.2261 193.991 27.1227C193.991 27.0194 194.075 26.9355 194.178 26.9355C194.282 26.9355 194.366 27.0194 194.366 27.1227Z" fill="#FEFFFF"/>
<path d="M191.37 30.4929C191.37 30.5962 191.287 30.68 191.183 30.68C191.08 30.68 190.996 30.5962 190.996 30.4929C190.996 30.3895 191.08 30.3057 191.183 30.3057C191.287 30.3057 191.37 30.3895 191.37 30.4929Z" fill="#FEFFFF"/>
<path d="M199.983 23.7546C199.983 23.858 199.899 23.9418 199.796 23.9418C199.692 23.9418 199.608 23.858 199.608 23.7546C199.608 23.6512 199.692 23.5674 199.796 23.5674C199.899 23.5674 199.983 23.6512 199.983 23.7546Z" fill="#FEFFFF"/>
<path d="M194.928 14.2077C194.928 14.3111 194.844 14.3949 194.741 14.3949C194.638 14.3949 194.554 14.3111 194.554 14.2077C194.554 14.1043 194.638 14.0205 194.741 14.0205C194.844 14.0205 194.928 14.1043 194.928 14.2077Z" fill="#FEFFFF"/>
<path d="M197.737 11.3991C197.737 11.5025 197.653 11.5863 197.549 11.5863C197.446 11.5863 197.362 11.5025 197.362 11.3991C197.362 11.2957 197.446 11.2119 197.549 11.2119C197.653 11.2119 197.737 11.2957 197.737 11.3991Z" fill="#FEFFFF"/>
<path d="M191.185 12.8972C191.185 13.0005 191.101 13.0843 190.998 13.0843C190.894 13.0843 190.811 13.0005 190.811 12.8972C190.811 12.7938 190.894 12.71 190.998 12.71C191.101 12.71 191.185 12.7938 191.185 12.8972Z" fill="#FEFFFF"/>
<path d="M189.125 8.21649C189.125 8.31987 189.042 8.40368 188.938 8.40368C188.835 8.40368 188.751 8.31987 188.751 8.21649C188.751 8.11311 188.835 8.0293 188.938 8.0293C189.042 8.0293 189.125 8.11311 189.125 8.21649Z" fill="#FEFFFF"/>
<defs>
<linearGradient id="paint0_linear" x1="160.297" y1="35.1731" x2="206.347" y2="35.8283" gradientUnits="userSpaceOnUse">
<stop stop-color="#00F3D4"/>
<stop offset="1" stop-color="#00C1B9"/>
</linearGradient>
<linearGradient id="paint1_linear" x1="160.204" y1="29.2751" x2="206.347" y2="28.0583" gradientUnits="userSpaceOnUse">
<stop stop-color="#00CBC9"/>
<stop offset="1" stop-color="#00A3AA"/>
</linearGradient>
<linearGradient id="paint2_linear" x1="159.923" y1="23.9409" x2="205.504" y2="25.1576" gradientUnits="userSpaceOnUse">
<stop stop-color="#00B3B6"/>
<stop offset="1" stop-color="#0085A7"/>
</linearGradient>
<linearGradient id="paint3_linear" x1="206.347" y1="18.4188" x2="175.367" y2="4.6602" gradientUnits="userSpaceOnUse">
<stop stop-color="#00759A"/>
<stop offset="1" stop-color="#00C6A7"/>
</linearGradient>
<linearGradient id="paint4_linear" x1="205.505" y1="23.1922" x2="173.027" y2="14.6749" gradientUnits="userSpaceOnUse">
<stop stop-color="#005E94"/>
<stop offset="1" stop-color="#00E1BD"/>
</linearGradient>
<linearGradient id="paint5_linear" x1="183.196" y1="0.898438" x2="183.196" y2="37.194" gradientUnits="userSpaceOnUse">
<stop stop-color="#00CDAF"/>
<stop offset="1" stop-color="#C4C4C4" stop-opacity="0"/>
</linearGradient>
<clipPath id="clip0">
<rect width="15.0266" height="3.1635" fill="white" transform="translate(18.3867 44.0928)"/>
</clipPath>
</defs>
</svg>
