<svg width="540" height="139" viewBox="0 0 540 139" fill="none" xmlns="http://www.w3.org/2000/svg">
<circle cx="45" cy="45" r="44" stroke="#383838" stroke-width="2"/>
<path d="M18.5376 130.588H14.6656L13.7959 133H12.5391L16.0684 123.758H17.1348L20.6704 133H19.42L18.5376 130.588ZM15.0337 129.585H18.1758L16.6016 125.262L15.0337 129.585ZM25.7646 132.321C25.3075 132.858 24.6368 133.127 23.7524 133.127C23.0203 133.127 22.4617 132.915 22.0766 132.492C21.6957 132.065 21.5032 131.434 21.4989 130.601V126.132H22.6733V130.569C22.6733 131.61 23.0964 132.13 23.9428 132.13C24.8399 132.13 25.4366 131.796 25.7328 131.127V126.132H26.9071V133H25.79L25.7646 132.321ZM30.1604 124.469V126.132H31.4427V127.04H30.1604V131.299C30.1604 131.574 30.2176 131.781 30.3318 131.921C30.4461 132.056 30.6408 132.124 30.9158 132.124C31.0512 132.124 31.2374 132.099 31.4744 132.048V133C31.1655 133.085 30.865 133.127 30.573 133.127C30.0483 133.127 29.6526 132.968 29.386 132.651C29.1194 132.333 28.9861 131.883 28.9861 131.299V127.04H27.7356V126.132H28.9861V124.469H30.1604ZM32.2521 129.502C32.2521 128.83 32.3833 128.224 32.6457 127.687C32.9123 127.15 33.2804 126.735 33.7502 126.443C34.2241 126.151 34.7637 126.005 35.3688 126.005C36.304 126.005 37.0594 126.329 37.6349 126.976C38.2147 127.624 38.5046 128.485 38.5046 129.56V129.642C38.5046 130.311 38.3755 130.912 38.1174 131.445C37.8635 131.974 37.4974 132.386 37.0192 132.683C36.5453 132.979 35.9994 133.127 35.3815 133.127C34.4505 133.127 33.6952 132.803 33.1154 132.156C32.5399 131.508 32.2521 130.651 32.2521 129.585V129.502ZM33.4328 129.642C33.4328 130.404 33.6084 131.015 33.9596 131.477C34.3151 131.938 34.7891 132.168 35.3815 132.168C35.9782 132.168 36.4522 131.936 36.8034 131.47C37.1546 131 37.3303 130.345 37.3303 129.502C37.3303 128.749 37.1504 128.14 36.7907 127.674C36.4352 127.205 35.9613 126.97 35.3688 126.97C34.7891 126.97 34.3215 127.2 33.966 127.662C33.6105 128.123 33.4328 128.783 33.4328 129.642ZM40.9517 126.132L40.9835 126.894C41.487 126.301 42.1662 126.005 43.0211 126.005C43.9817 126.005 44.6355 126.373 44.9825 127.109C45.211 126.779 45.5072 126.513 45.8712 126.31C46.2393 126.106 46.6731 126.005 47.1724 126.005C48.6789 126.005 49.4449 126.803 49.4703 128.398V133H48.296V128.468C48.296 127.977 48.1838 127.611 47.9595 127.37C47.7352 127.124 47.3586 127.001 46.8296 127.001C46.3938 127.001 46.032 127.133 45.7442 127.395C45.4564 127.653 45.2893 128.002 45.2427 128.442V133H44.0621V128.5C44.0621 127.501 43.5733 127.001 42.5958 127.001C41.8256 127.001 41.2987 127.329 41.0152 127.985V133H39.8409V126.132H40.9517ZM50.8066 129.502C50.8066 128.83 50.9378 128.224 51.2001 127.687C51.4667 127.15 51.8349 126.735 52.3046 126.443C52.7786 126.151 53.3181 126.005 53.9233 126.005C54.8585 126.005 55.6139 126.329 56.1894 126.976C56.7691 127.624 57.059 128.485 57.059 129.56V129.642C57.059 130.311 56.93 130.912 56.6718 131.445C56.4179 131.974 56.0519 132.386 55.5737 132.683C55.0997 132.979 54.5538 133.127 53.936 133.127C53.005 133.127 52.2496 132.803 51.6699 132.156C51.0943 131.508 50.8066 130.651 50.8066 129.585V129.502ZM51.9872 129.642C51.9872 130.404 52.1629 131.015 52.5141 131.477C52.8696 131.938 53.3435 132.168 53.936 132.168C54.5327 132.168 55.0066 131.936 55.3578 131.47C55.7091 131 55.8847 130.345 55.8847 129.502C55.8847 128.749 55.7049 128.14 55.3452 127.674C54.9897 127.205 54.5157 126.97 53.9233 126.97C53.3435 126.97 52.8759 127.2 52.5204 127.662C52.165 128.123 51.9872 128.783 51.9872 129.642ZM59.9949 124.469V126.132H61.2772V127.04H59.9949V131.299C59.9949 131.574 60.0521 131.781 60.1663 131.921C60.2806 132.056 60.4752 132.124 60.7503 132.124C60.8857 132.124 61.0719 132.099 61.3089 132.048V133C61 133.085 60.6995 133.127 60.4075 133.127C59.8828 133.127 59.4871 132.968 59.2205 132.651C58.9539 132.333 58.8206 131.883 58.8206 131.299V127.04H57.5701V126.132H58.8206V124.469H59.9949ZM63.8005 133H62.6262V126.132H63.8005V133ZM62.531 124.31C62.531 124.12 62.5881 123.959 62.7023 123.828C62.8208 123.696 62.9943 123.631 63.2229 123.631C63.4514 123.631 63.6249 123.696 63.7434 123.828C63.8618 123.959 63.9211 124.12 63.9211 124.31C63.9211 124.5 63.8618 124.659 63.7434 124.786C63.6249 124.913 63.4514 124.977 63.2229 124.977C62.9943 124.977 62.8208 124.913 62.7023 124.786C62.5881 124.659 62.531 124.5 62.531 124.31ZM67.8219 131.407L69.523 126.132H70.7227L68.2598 133H67.3648L64.8765 126.132H66.0762L67.8219 131.407ZM74.4838 133.127C73.5529 133.127 72.7954 132.822 72.2114 132.213C71.6274 131.599 71.3354 130.78 71.3354 129.756V129.541C71.3354 128.859 71.4645 128.252 71.7226 127.719C71.985 127.181 72.3489 126.762 72.8144 126.462C73.2841 126.157 73.792 126.005 74.3379 126.005C75.2308 126.005 75.9248 126.299 76.4199 126.887C76.915 127.475 77.1626 128.318 77.1626 129.414V129.902H72.5097C72.5267 130.579 72.7234 131.127 73.1001 131.546C73.4809 131.961 73.9633 132.168 74.5473 132.168C74.962 132.168 75.3133 132.084 75.601 131.915C75.8888 131.745 76.1406 131.521 76.3564 131.242L77.0737 131.8C76.4982 132.685 75.6349 133.127 74.4838 133.127ZM74.3379 126.97C73.8639 126.97 73.4661 127.143 73.1445 127.49C72.8229 127.833 72.624 128.315 72.5478 128.938H75.9882V128.849C75.9544 128.252 75.7936 127.791 75.5058 127.465C75.2181 127.135 74.8287 126.97 74.3379 126.97Z" fill="#939393"/>
<circle cx="195" cy="45" r="44" stroke="#383838" stroke-width="2"/>
<path d="M193.75 36.2308L197 32.4984L187.612 27H185.959L171.82 35.281L171 36.7191V53.281L171.82 54.7191L185.959 63H187.612L197 57.5016L190.5 50.5385V44.5385V36.7191L193.75 36.2308ZM189.107 51L193.75 55.561L186.786 59.6399L174.293 52.3234V37.6766L186.786 30.3601L193.75 34.439L189.107 39.4615V51Z" fill="#383838"/>
<path d="M218.919 31.2872C218.911 30.9197 218.66 30.7118 218.381 30.609L205.197 27.1666C204.886 27.089 204.556 27 204.248 27C203.937 27 203.644 27.0665 203.381 27.1913L203.06 27.3772L190.443 34.7058C190.402 34.7338 190.361 34.7641 190.321 34.7943C188.352 36.0925 188 37.4769 188 39.0214V53.5373C188 54.2779 188.394 54.9268 188.985 55.2851L188.999 55.2939L201.692 62.6165C201.829 62.7 201.992 62.7482 202.165 62.7482C202.669 62.7482 203.078 62.3402 203.078 61.8387V47.1576C203.078 46.4533 202.72 45.8329 202.177 45.4653L201.894 45.3043L191.607 39.5033C190.815 39.0357 190.744 38.1207 190.981 37.5714C191.322 36.7863 192.158 36.6349 192.739 36.7767L203.444 39.5189C203.804 39.6019 204.063 39.6767 204.387 39.6767C204.715 39.6767 205.025 39.6005 205.301 39.4633L205.485 39.3592L218.369 32.093C218.604 31.9292 218.927 31.652 218.919 31.2872ZM219.632 36.6197L216.459 34.8737L213.918 36.3453C213.918 36.3453 216.832 37.9514 217.323 38.284C217.917 38.686 217.683 39.277 217.291 39.4978L206.997 45.3047L206.717 45.4617C206.716 45.463 206.714 45.4644 206.713 45.4658C206.168 45.8334 205.813 46.4533 205.813 47.1581V61.8382C205.813 62.3402 206.22 62.7477 206.724 62.7477C206.881 62.7477 207.03 62.7073 207.159 62.6371C207.172 62.6312 207.184 62.6243 207.197 62.616L219.885 55.2957L219.903 55.2851C220.493 54.9272 220.888 54.2784 220.888 53.5373V39.0219C220.889 37.7554 220.574 37.1497 219.632 36.6197Z" fill="#383838"/>
<path d="M164.54 133H163.321V123.758H164.54V133ZM167.571 126.132L167.609 126.995C168.134 126.335 168.82 126.005 169.666 126.005C171.118 126.005 171.85 126.824 171.862 128.461V133H170.688V128.455C170.684 127.96 170.57 127.594 170.345 127.357C170.125 127.12 169.78 127.001 169.311 127.001C168.93 127.001 168.595 127.103 168.308 127.306C168.02 127.509 167.796 127.776 167.635 128.106V133H166.46V126.132H167.571ZM173.218 129.509C173.218 128.455 173.467 127.609 173.967 126.97C174.466 126.326 175.12 126.005 175.928 126.005C176.732 126.005 177.369 126.28 177.839 126.83V123.25H179.013V133H177.934L177.877 132.264C177.407 132.839 176.753 133.127 175.915 133.127C175.12 133.127 174.47 132.801 173.967 132.149C173.467 131.498 173.218 130.647 173.218 129.598V129.509ZM174.392 129.642C174.392 130.421 174.553 131.03 174.874 131.47C175.196 131.91 175.64 132.13 176.207 132.13C176.952 132.13 177.496 131.796 177.839 131.127V127.973C177.488 127.325 176.948 127.001 176.22 127.001C175.645 127.001 175.196 127.224 174.874 127.668C174.553 128.112 174.392 128.77 174.392 129.642ZM184.951 132.321C184.494 132.858 183.824 133.127 182.939 133.127C182.207 133.127 181.649 132.915 181.263 132.492C180.883 132.065 180.69 131.434 180.686 130.601V126.132H181.86V130.569C181.86 131.61 182.283 132.13 183.13 132.13C184.027 132.13 184.624 131.796 184.92 131.127V126.132H186.094V133H184.977L184.951 132.321ZM191.753 131.178C191.753 130.861 191.632 130.615 191.391 130.442C191.154 130.264 190.737 130.112 190.141 129.985C189.548 129.858 189.077 129.706 188.725 129.528C188.378 129.35 188.12 129.139 187.951 128.893C187.786 128.648 187.703 128.356 187.703 128.017C187.703 127.454 187.94 126.978 188.414 126.589C188.892 126.2 189.502 126.005 190.242 126.005C191.021 126.005 191.652 126.206 192.134 126.608C192.621 127.01 192.864 127.524 192.864 128.15H191.683C191.683 127.829 191.546 127.552 191.271 127.319C191 127.086 190.657 126.97 190.242 126.97C189.815 126.97 189.481 127.063 189.239 127.249C188.998 127.435 188.878 127.679 188.878 127.979C188.878 128.263 188.99 128.476 189.214 128.62C189.438 128.764 189.842 128.902 190.426 129.033C191.015 129.164 191.491 129.32 191.855 129.502C192.219 129.684 192.487 129.904 192.661 130.163C192.839 130.417 192.927 130.728 192.927 131.096C192.927 131.709 192.682 132.202 192.191 132.575C191.7 132.943 191.063 133.127 190.28 133.127C189.73 133.127 189.244 133.03 188.82 132.835C188.397 132.64 188.065 132.369 187.824 132.022C187.587 131.671 187.468 131.292 187.468 130.886H188.643C188.664 131.28 188.82 131.593 189.112 131.826C189.409 132.054 189.798 132.168 190.28 132.168C190.725 132.168 191.08 132.08 191.347 131.902C191.618 131.72 191.753 131.479 191.753 131.178ZM195.92 124.469V126.132H197.203V127.04H195.92V131.299C195.92 131.574 195.978 131.781 196.092 131.921C196.206 132.056 196.401 132.124 196.676 132.124C196.811 132.124 196.997 132.099 197.234 132.048V133C196.926 133.085 196.625 133.127 196.333 133.127C195.808 133.127 195.413 132.968 195.146 132.651C194.879 132.333 194.746 131.883 194.746 131.299V127.04H193.496V126.132H194.746V124.469H195.92ZM201.77 127.186C201.592 127.156 201.4 127.141 201.192 127.141C200.422 127.141 199.9 127.469 199.624 128.125V133H198.45V126.132H199.593L199.612 126.925C199.997 126.312 200.543 126.005 201.249 126.005C201.478 126.005 201.651 126.035 201.77 126.094V127.186ZM205.087 131.28L206.686 126.132H207.943L205.182 134.06C204.755 135.203 204.075 135.774 203.144 135.774L202.922 135.755L202.484 135.672V134.72L202.802 134.746C203.199 134.746 203.508 134.665 203.728 134.504C203.953 134.344 204.137 134.049 204.281 133.622L204.541 132.924L202.091 126.132H203.373L205.087 131.28ZM216.798 129.896H218.081V130.854H216.798V133H215.618V130.854H211.409V130.163L215.548 123.758H216.798V129.896ZM212.742 129.896H215.618V125.364L215.478 125.618L212.742 129.896ZM219.157 132.384C219.157 132.181 219.216 132.012 219.334 131.876C219.457 131.741 219.639 131.673 219.88 131.673C220.122 131.673 220.304 131.741 220.426 131.876C220.553 132.012 220.617 132.181 220.617 132.384C220.617 132.579 220.553 132.742 220.426 132.873C220.304 133.004 220.122 133.07 219.88 133.07C219.639 133.07 219.457 133.004 219.334 132.873C219.216 132.742 219.157 132.579 219.157 132.384ZM228.104 129.058C228.104 130.433 227.869 131.455 227.399 132.124C226.93 132.793 226.195 133.127 225.197 133.127C224.211 133.127 223.481 132.801 223.007 132.149C222.533 131.493 222.287 130.516 222.27 129.217V127.649C222.27 126.291 222.505 125.281 222.975 124.621C223.445 123.961 224.181 123.631 225.184 123.631C226.178 123.631 226.91 123.95 227.38 124.589C227.85 125.224 228.091 126.206 228.104 127.535V129.058ZM226.93 127.452C226.93 126.458 226.79 125.734 226.511 125.281C226.231 124.824 225.789 124.596 225.184 124.596C224.583 124.596 224.145 124.822 223.87 125.275C223.595 125.728 223.453 126.424 223.445 127.363V129.242C223.445 130.241 223.589 130.979 223.876 131.458C224.168 131.931 224.608 132.168 225.197 132.168C225.776 132.168 226.206 131.944 226.485 131.496C226.769 131.047 226.917 130.34 226.93 129.375V127.452Z" fill="#939393"/>
<circle cx="345" cy="45" r="44" stroke="#383838" stroke-width="2"/>
<path d="M349.506 30.8306L340.997 26H340.003L331.494 30.8306L331 31.6695V41.3306L331.494 42.1695L340.003 47H340.997L349.506 42.1695L350 41.3306V31.6695L349.506 30.8306Z" fill="#383838"/>
<path d="M339.506 47.8306L330.997 43H330.003L321.494 47.8306L321 48.6695V58.3306L321.494 59.1695L330.003 64H330.997L339.506 59.1695L340 58.3306V48.6695L339.506 47.8306ZM337.5 57.3306L330.482 61.5985L323.5 57.3306V49.5L330.482 45.5187L337.5 49.5V57.3306Z" fill="#383838"/>
<path d="M369.506 30.8306L360.997 26H360.003L351.494 30.8306L351 31.6695V41.3306L351.494 42.1695L360.003 47H360.997L369.506 42.1695L370 41.3306V31.6695L369.506 30.8306ZM367.5 40.3306L360.482 44.5985L353.5 40.3306V32.5L360.482 28.5187L367.5 32.5V40.3306Z" fill="#383838"/>
<path d="M359.506 47.8306L350.997 43H350.003L341.494 47.8306L341 48.6695V58.3306L341.494 59.1695L350.003 64H350.997L359.506 59.1695L360 58.3306V48.6695L359.506 47.8306ZM357.5 57.3306L350.482 61.5985L343.5 57.3306V49.5L350.482 45.5187L357.5 49.5V57.3306Z" fill="#383838"/>
<path d="M305.523 133H304.304V123.758H305.523V133ZM307.132 129.502C307.132 128.83 307.264 128.224 307.526 127.687C307.793 127.15 308.161 126.735 308.63 126.443C309.104 126.151 309.644 126.005 310.249 126.005C311.184 126.005 311.94 126.329 312.515 126.976C313.095 127.624 313.385 128.485 313.385 129.56V129.642C313.385 130.311 313.256 130.912 312.998 131.445C312.744 131.974 312.378 132.386 311.9 132.683C311.426 132.979 310.88 133.127 310.262 133.127C309.331 133.127 308.575 132.803 307.996 132.156C307.42 131.508 307.132 130.651 307.132 129.585V129.502ZM308.313 129.642C308.313 130.404 308.489 131.015 308.84 131.477C309.195 131.938 309.669 132.168 310.262 132.168C310.858 132.168 311.332 131.936 311.684 131.47C312.035 131 312.211 130.345 312.211 129.502C312.211 128.749 312.031 128.14 311.671 127.674C311.316 127.205 310.842 126.97 310.249 126.97C309.669 126.97 309.202 127.2 308.846 127.662C308.491 128.123 308.313 128.783 308.313 129.642ZM321.297 124.761H318.327V133H317.114V124.761H314.15V123.758H321.297V124.761ZM330.603 128.728H326.598V132.003H331.251V133H325.379V123.758H331.187V124.761H326.598V127.731H330.603V128.728ZM335.082 132.168C335.501 132.168 335.867 132.042 336.18 131.788C336.493 131.534 336.666 131.216 336.7 130.835H337.811C337.79 131.229 337.655 131.604 337.405 131.959C337.155 132.314 336.821 132.598 336.402 132.81C335.987 133.021 335.547 133.127 335.082 133.127C334.146 133.127 333.402 132.816 332.847 132.194C332.297 131.568 332.022 130.713 332.022 129.629V129.433C332.022 128.764 332.145 128.169 332.39 127.649C332.636 127.128 332.987 126.724 333.444 126.437C333.905 126.149 334.449 126.005 335.075 126.005C335.845 126.005 336.484 126.236 336.992 126.697C337.504 127.158 337.777 127.757 337.811 128.493H336.7C336.666 128.049 336.497 127.685 336.192 127.401C335.892 127.114 335.52 126.97 335.075 126.97C334.479 126.97 334.015 127.186 333.685 127.617C333.359 128.045 333.196 128.665 333.196 129.477V129.699C333.196 130.491 333.359 131.1 333.685 131.527C334.011 131.955 334.477 132.168 335.082 132.168ZM338.69 129.502C338.69 128.83 338.822 128.224 339.084 127.687C339.351 127.15 339.719 126.735 340.188 126.443C340.662 126.151 341.202 126.005 341.807 126.005C342.742 126.005 343.498 126.329 344.073 126.976C344.653 127.624 344.943 128.485 344.943 129.56V129.642C344.943 130.311 344.814 130.912 344.556 131.445C344.302 131.974 343.936 132.386 343.458 132.683C342.984 132.979 342.438 133.127 341.82 133.127C340.889 133.127 340.133 132.803 339.554 132.156C338.978 131.508 338.69 130.651 338.69 129.585V129.502ZM339.871 129.642C339.871 130.404 340.047 131.015 340.398 131.477C340.753 131.938 341.227 132.168 341.82 132.168C342.417 132.168 342.89 131.936 343.242 131.47C343.593 131 343.769 130.345 343.769 129.502C343.769 128.749 343.589 128.14 343.229 127.674C342.874 127.205 342.4 126.97 341.807 126.97C341.227 126.97 340.76 127.2 340.404 127.662C340.049 128.123 339.871 128.783 339.871 129.642ZM350.285 131.178C350.285 130.861 350.164 130.615 349.923 130.442C349.686 130.264 349.269 130.112 348.672 129.985C348.08 129.858 347.608 129.706 347.257 129.528C346.91 129.35 346.652 129.139 346.482 128.893C346.317 128.648 346.235 128.356 346.235 128.017C346.235 127.454 346.472 126.978 346.946 126.589C347.424 126.2 348.033 126.005 348.774 126.005C349.552 126.005 350.183 126.206 350.665 126.608C351.152 127.01 351.395 127.524 351.395 128.15H350.215C350.215 127.829 350.077 127.552 349.802 127.319C349.531 127.086 349.189 126.97 348.774 126.97C348.346 126.97 348.012 127.063 347.771 127.249C347.53 127.435 347.409 127.679 347.409 127.979C347.409 128.263 347.521 128.476 347.745 128.62C347.97 128.764 348.374 128.902 348.958 129.033C349.546 129.164 350.022 129.32 350.386 129.502C350.75 129.684 351.019 129.904 351.192 130.163C351.37 130.417 351.459 130.728 351.459 131.096C351.459 131.709 351.213 132.202 350.723 132.575C350.232 132.943 349.595 133.127 348.812 133.127C348.262 133.127 347.775 133.03 347.352 132.835C346.929 132.64 346.597 132.369 346.355 132.022C346.118 131.671 346 131.292 346 130.886H347.174C347.195 131.28 347.352 131.593 347.644 131.826C347.94 132.054 348.329 132.168 348.812 132.168C349.256 132.168 349.612 132.08 349.878 131.902C350.149 131.72 350.285 131.479 350.285 131.178ZM355.106 131.28L356.705 126.132H357.962L355.201 134.06C354.774 135.203 354.094 135.774 353.163 135.774L352.941 135.755L352.503 135.672V134.72L352.821 134.746C353.218 134.746 353.527 134.665 353.747 134.504C353.972 134.344 354.156 134.049 354.3 133.622L354.56 132.924L352.11 126.132H353.392L355.106 131.28ZM362.885 131.178C362.885 130.861 362.764 130.615 362.523 130.442C362.286 130.264 361.869 130.112 361.273 129.985C360.68 129.858 360.208 129.706 359.857 129.528C359.51 129.35 359.252 129.139 359.083 128.893C358.918 128.648 358.835 128.356 358.835 128.017C358.835 127.454 359.072 126.978 359.546 126.589C360.024 126.2 360.634 126.005 361.374 126.005C362.153 126.005 362.783 126.206 363.266 126.608C363.752 127.01 363.996 127.524 363.996 128.15H362.815C362.815 127.829 362.678 127.552 362.402 127.319C362.132 127.086 361.789 126.97 361.374 126.97C360.947 126.97 360.612 127.063 360.371 127.249C360.13 127.435 360.009 127.679 360.009 127.979C360.009 128.263 360.122 128.476 360.346 128.62C360.57 128.764 360.974 128.902 361.558 129.033C362.146 129.164 362.623 129.32 362.986 129.502C363.35 129.684 363.619 129.904 363.793 130.163C363.97 130.417 364.059 130.728 364.059 131.096C364.059 131.709 363.814 132.202 363.323 132.575C362.832 132.943 362.195 133.127 361.412 133.127C360.862 133.127 360.375 133.03 359.952 132.835C359.529 132.64 359.197 132.369 358.956 132.022C358.719 131.671 358.6 131.292 358.6 130.886H359.775C359.796 131.28 359.952 131.593 360.244 131.826C360.541 132.054 360.93 132.168 361.412 132.168C361.857 132.168 362.212 132.08 362.479 131.902C362.749 131.72 362.885 131.479 362.885 131.178ZM367.052 124.469V126.132H368.334V127.04H367.052V131.299C367.052 131.574 367.109 131.781 367.224 131.921C367.338 132.056 367.533 132.124 367.808 132.124C367.943 132.124 368.129 132.099 368.366 132.048V133C368.057 133.085 367.757 133.127 367.465 133.127C366.94 133.127 366.544 132.968 366.278 132.651C366.011 132.333 365.878 131.883 365.878 131.299V127.04H364.627V126.132H365.878V124.469H367.052ZM372.432 133.127C371.501 133.127 370.744 132.822 370.16 132.213C369.576 131.599 369.284 130.78 369.284 129.756V129.541C369.284 128.859 369.413 128.252 369.671 127.719C369.933 127.181 370.297 126.762 370.763 126.462C371.232 126.157 371.74 126.005 372.286 126.005C373.179 126.005 373.873 126.299 374.368 126.887C374.863 127.475 375.111 128.318 375.111 129.414V129.902H370.458C370.475 130.579 370.672 131.127 371.048 131.546C371.429 131.961 371.912 132.168 372.496 132.168C372.91 132.168 373.261 132.084 373.549 131.915C373.837 131.745 374.089 131.521 374.305 131.242L375.022 131.8C374.446 132.685 373.583 133.127 372.432 133.127ZM372.286 126.97C371.812 126.97 371.414 127.143 371.093 127.49C370.771 127.833 370.572 128.315 370.496 128.938H373.936V128.849C373.903 128.252 373.742 127.791 373.454 127.465C373.166 127.135 372.777 126.97 372.286 126.97ZM377.45 126.132L377.482 126.894C377.985 126.301 378.664 126.005 379.519 126.005C380.48 126.005 381.134 126.373 381.481 127.109C381.709 126.779 382.005 126.513 382.369 126.31C382.738 126.106 383.171 126.005 383.671 126.005C385.177 126.005 385.943 126.803 385.969 128.398V133H384.794V128.468C384.794 127.977 384.682 127.611 384.458 127.37C384.234 127.124 383.857 127.001 383.328 127.001C382.892 127.001 382.53 127.133 382.242 127.395C381.955 127.653 381.788 128.002 381.741 128.442V133H380.56V128.5C380.56 127.501 380.072 127.001 379.094 127.001C378.324 127.001 377.797 127.329 377.513 127.985V133H376.339V126.132H377.45Z" fill="#939393"/>
<circle cx="495" cy="45" r="44" stroke="#383838" stroke-width="2"/>
<path d="M471.475 133H470.256V123.758H471.475V133ZM474.506 126.132L474.544 126.995C475.069 126.335 475.755 126.005 476.601 126.005C478.052 126.005 478.785 126.824 478.797 128.461V133H477.623V128.455C477.619 127.96 477.504 127.594 477.28 127.357C477.06 127.12 476.715 127.001 476.246 127.001C475.865 127.001 475.53 127.103 475.243 127.306C474.955 127.509 474.731 127.776 474.57 128.106V133H473.395V126.132H474.506ZM480.153 129.509C480.153 128.455 480.402 127.609 480.902 126.97C481.401 126.326 482.055 126.005 482.863 126.005C483.667 126.005 484.304 126.28 484.774 126.83V123.25H485.948V133H484.869L484.812 132.264C484.342 132.839 483.688 133.127 482.85 133.127C482.055 133.127 481.405 132.801 480.902 132.149C480.402 131.498 480.153 130.647 480.153 129.598V129.509ZM481.327 129.642C481.327 130.421 481.488 131.03 481.809 131.47C482.131 131.91 482.575 132.13 483.142 132.13C483.887 132.13 484.431 131.796 484.774 131.127V127.973C484.422 127.325 483.883 127.001 483.155 127.001C482.58 127.001 482.131 127.224 481.809 127.668C481.488 128.112 481.327 128.77 481.327 129.642ZM491.886 132.321C491.429 132.858 490.759 133.127 489.874 133.127C489.142 133.127 488.584 132.915 488.198 132.492C487.818 132.065 487.625 131.434 487.621 130.601V126.132H488.795V130.569C488.795 131.61 489.218 132.13 490.065 132.13C490.962 132.13 491.558 131.796 491.855 131.127V126.132H493.029V133H491.912L491.886 132.321ZM498.688 131.178C498.688 130.861 498.567 130.615 498.326 130.442C498.089 130.264 497.672 130.112 497.076 129.985C496.483 129.858 496.011 129.706 495.66 129.528C495.313 129.35 495.055 129.139 494.886 128.893C494.721 128.648 494.638 128.356 494.638 128.017C494.638 127.454 494.875 126.978 495.349 126.589C495.827 126.2 496.437 126.005 497.177 126.005C497.956 126.005 498.586 126.206 499.069 126.608C499.556 127.01 499.799 127.524 499.799 128.15H498.618C498.618 127.829 498.481 127.552 498.206 127.319C497.935 127.086 497.592 126.97 497.177 126.97C496.75 126.97 496.416 127.063 496.174 127.249C495.933 127.435 495.813 127.679 495.813 127.979C495.813 128.263 495.925 128.476 496.149 128.62C496.373 128.764 496.777 128.902 497.361 129.033C497.95 129.164 498.426 129.32 498.79 129.502C499.154 129.684 499.422 129.904 499.596 130.163C499.773 130.417 499.862 130.728 499.862 131.096C499.862 131.709 499.617 132.202 499.126 132.575C498.635 132.943 497.998 133.127 497.215 133.127C496.665 133.127 496.179 133.03 495.755 132.835C495.332 132.64 495 132.369 494.759 132.022C494.522 131.671 494.403 131.292 494.403 130.886H495.578C495.599 131.28 495.755 131.593 496.047 131.826C496.344 132.054 496.733 132.168 497.215 132.168C497.66 132.168 498.015 132.08 498.282 131.902C498.553 131.72 498.688 131.479 498.688 131.178ZM502.855 124.469V126.132H504.138V127.04H502.855V131.299C502.855 131.574 502.913 131.781 503.027 131.921C503.141 132.056 503.336 132.124 503.611 132.124C503.746 132.124 503.932 132.099 504.169 132.048V133C503.86 133.085 503.56 133.127 503.268 133.127C502.743 133.127 502.348 132.968 502.081 132.651C501.814 132.333 501.681 131.883 501.681 131.299V127.04H500.431V126.132H501.681V124.469H502.855ZM508.705 127.186C508.527 127.156 508.335 127.141 508.127 127.141C507.357 127.141 506.834 127.469 506.559 128.125V133H505.385V126.132H506.528L506.547 126.925C506.932 126.312 507.478 126.005 508.184 126.005C508.413 126.005 508.586 126.035 508.705 126.094V127.186ZM510.936 133H509.762V126.132H510.936V133ZM509.667 124.31C509.667 124.12 509.724 123.959 509.838 123.828C509.957 123.696 510.13 123.631 510.359 123.631C510.587 123.631 510.761 123.696 510.879 123.828C510.998 123.959 511.057 124.12 511.057 124.31C511.057 124.5 510.998 124.659 510.879 124.786C510.761 124.913 510.587 124.977 510.359 124.977C510.13 124.977 509.957 124.913 509.838 124.786C509.724 124.659 509.667 124.5 509.667 124.31ZM516.932 133C516.864 132.865 516.809 132.623 516.767 132.276C516.221 132.843 515.569 133.127 514.812 133.127C514.135 133.127 513.578 132.937 513.142 132.556C512.711 132.171 512.495 131.684 512.495 131.096C512.495 130.381 512.766 129.826 513.307 129.433C513.853 129.035 514.619 128.836 515.605 128.836H516.748V128.296C516.748 127.886 516.625 127.56 516.379 127.319C516.134 127.073 515.772 126.951 515.294 126.951C514.875 126.951 514.524 127.056 514.24 127.268C513.957 127.48 513.815 127.736 513.815 128.036H512.634C512.634 127.693 512.755 127.363 512.996 127.046C513.242 126.724 513.572 126.47 513.986 126.284C514.405 126.098 514.864 126.005 515.364 126.005C516.155 126.005 516.775 126.204 517.224 126.602C517.672 126.995 517.905 127.539 517.922 128.233V131.394C517.922 132.025 518.002 132.526 518.163 132.898V133H516.932ZM514.983 132.105C515.351 132.105 515.7 132.01 516.03 131.819C516.36 131.629 516.6 131.381 516.748 131.077V129.667H515.827C514.388 129.667 513.669 130.089 513.669 130.931C513.669 131.299 513.792 131.587 514.037 131.794C514.283 132.001 514.598 132.105 514.983 132.105ZM520.909 133H519.734V123.25H520.909V133Z" fill="#939393"/>
<path d="M510.438 36.6208H506.281V34.5246C506.281 33.8748 505.749 33.3496 505.094 33.3496H499.75C499.094 33.3496 498.562 33.8748 498.562 34.5246V40.7885L487.382 45.3499V37.7958C487.382 37.146 486.85 36.6208 486.195 36.6208H482.626C481.971 36.6208 481.439 37.146 481.439 37.7958V47.7739L479.137 48.7127C478.692 48.8937 478.401 49.3237 478.401 49.7996V55.1811C478.396 55.2258 478.375 55.2657 478.375 55.3115V65.0746C478.375 65.7244 478.907 66.2496 479.562 66.2496H510.438C511.093 66.2496 511.625 65.7244 511.625 65.0746V37.7958C511.625 37.146 511.093 36.6208 510.438 36.6208ZM483.814 38.9708H485.007V46.3181L483.814 46.8045V38.9708ZM480.75 55.4431C480.755 55.3985 480.776 55.3585 480.776 55.3127V50.5869L498.562 43.3312V63.8996H480.75V55.4431ZM500.938 35.6996H503.906V63.8996H500.938V35.6996ZM509.25 63.8996H506.281V38.9708H509.25V63.8996Z" fill="#383838"/>
<path d="M495 51.1963H484.312C483.657 51.1963 483.125 51.7215 483.125 52.3713V60.3742C483.125 61.024 483.657 61.5492 484.312 61.5492H495C495.656 61.5492 496.188 61.024 496.188 60.3742V52.3713C496.188 51.7227 495.656 51.1963 495 51.1963ZM485.5 53.5463H488.469V59.1992H485.5V53.5463ZM493.812 59.1992H490.844V53.5463H493.812V59.1992Z" fill="#383838"/>
<path d="M485.341 19.0277C485.649 19.0392 486.058 19.0628 486.538 19.1144C487.55 19.2271 488.546 19.4257 489.51 19.7071C490.88 20.1075 492.178 20.6654 493.368 21.3653C494.634 22.1072 495.768 22.998 496.737 24.0106C497.104 24.3918 497.087 24.7148 496.686 25.0675C496.422 25.2994 496.158 25.5312 495.895 25.763C495.829 25.8238 495.749 25.8715 495.659 25.9028C495.569 25.9341 495.472 25.9481 495.375 25.9439C495.278 25.9396 495.183 25.9173 495.097 25.8784C495.012 25.8394 494.937 25.785 494.88 25.7188C493.39 24.1159 491.548 22.9013 489.305 22.1405C483.94 20.3195 477.863 21.7077 474.228 25.5739C473.706 26.129 473.505 26.1368 472.923 25.6263C472.693 25.4252 472.461 25.2253 472.235 25.0217C472.09 24.8908 472.007 24.7198 472 24.5407C471.994 24.3616 472.065 24.1866 472.2 24.0486C473.017 23.2094 474.758 21.5416 477.354 20.4666C477.354 20.4666 479.62 19.5278 481.918 19.1821C482.279 19.1288 482.637 19.0875 482.637 19.0875C482.809 19.069 483.1 19.0384 483.484 19.0186C483.739 19.0053 484.049 18.9967 484.404 19.0012L485.341 19.0277Z" fill="#383838"/>
<path d="M484.512 24.0002C487.987 24.0834 490.746 25.4257 492.83 27.9496C493.085 28.2589 493.048 28.651 492.752 28.9394C492.456 29.2278 492.16 29.5058 491.861 29.7846C491.532 30.0922 491.227 30.0709 490.965 29.7128C490.253 28.7395 489.35 27.9522 488.231 27.3771C484.747 25.5861 480.399 26.5493 478.106 29.613C478.055 29.6888 477.999 29.7616 477.938 29.8308C477.737 30.0369 477.445 30.0609 477.232 29.8687C476.881 29.5533 476.536 29.23 476.207 28.8963C475.939 28.6249 475.933 28.2406 476.179 27.9378C477.856 25.8923 480.046 24.5879 482.819 24.1366C483.017 24.1043 483.217 24.0747 483.418 24.0564C483.781 24.0166 484.147 23.9978 484.512 24.0002Z" fill="#383838"/>
<path d="M484.539 29C486.266 29.0412 487.701 29.7351 488.829 31.0539C489.071 31.3359 489.054 31.7049 488.792 31.9832C488.523 32.2693 488.247 32.5488 487.969 32.8271C487.726 33.0712 487.465 33.0572 487.252 32.783C487.072 32.5409 486.865 32.3196 486.635 32.1234C485.175 30.9298 483.096 31.1339 481.901 32.588C481.847 32.6527 481.798 32.7212 481.745 32.7863C481.526 33.0526 481.27 33.0675 481.025 32.8222C480.753 32.5473 480.484 32.2711 480.217 31.9935C479.933 31.695 479.928 31.3293 480.2 31.0172C481.334 29.7161 482.767 29.0359 484.539 29Z" fill="#383838"/>
<path d="M62.855 42.139L59.005 32.515C58.398 30.996 56.927 30 55.292 30H34.708C33.072 30 31.602 30.996 30.994 32.514L27.144 42.138C25.907 42.509 25 43.643 25 45V58C25 59.105 25.895 60 27 60H30C31.105 60 32 59.105 32 58V55H58V58C58 59.105 58.895 60 60 60H63C64.105 60 65 59.105 65 58V45C65 43.643 64.093 42.509 62.855 42.139ZM33.78 33.629C33.932 33.247 34.297 33 34.708 33H55.292C55.703 33 56.068 33.247 56.221 33.629L59.568 42H30.431L33.78 33.629ZM36 50C36 50.552 35.552 51 35 51H30C29.448 51 29 50.552 29 50V48C29 47.448 29.448 47 30 47H35C35.552 47 36 47.448 36 48V50ZM50 52H40C39.448 52 39 51.552 39 51C39 50.448 39.448 50 40 50H50C50.553 50 51 50.448 51 51C51 51.552 50.553 52 50 52ZM54 50V48C54 47.448 54.448 47 55 47H60C60.552 47 61 47.448 61 48V50C61 50.552 60.552 51 60 51H55C54.448 51 54 50.552 54 50Z" fill="#383838"/>
</svg>
