<svg width="80" height="81" viewBox="0 0 80 81" fill="none" xmlns="http://www.w3.org/2000/svg">
<path fill-rule="evenodd" clip-rule="evenodd" d="M63.9696 38.3351C63.2032 38.1784 62.4095 38.4166 61.8543 38.97L52.6541 48.1385C51.5778 49.2112 50.1246 49.8136 48.6077 49.8136H35.7302C35.1383 49.8136 34.6584 49.3315 34.6584 48.7368C34.6584 48.1421 35.1383 47.66 35.7302 47.66H40.2152C40.0749 47.4779 39.9914 47.2494 39.9914 47.0014V46.7109C39.9914 44.7103 38.3778 43.0889 36.3871 43.0889H25.5918V58.9401H48.4844C49.4905 58.9401 50.4508 58.5177 51.1333 57.7749L65.1943 42.4715C65.6806 41.9423 65.917 41.2285 65.8432 40.5121L65.8315 40.398C65.7262 39.3754 64.9722 38.54 63.9696 38.3351ZM24.52 60.0169C23.4483 60.0169 23.4483 60.0168 23.4483 60.0168V42.078C23.3569 41.3719 23.1191 40.8835 22.8194 40.5311C22.506 40.1626 22.0741 39.8835 21.5263 39.6863C20.3987 39.2805 18.927 39.2736 17.5345 39.4394C16.1679 39.6022 15.1435 40.8767 15.1435 42.4979V48.7368C15.1435 49.3315 14.6637 49.8136 14.0718 49.8136C13.4798 49.8136 13 49.3315 13 48.7368V42.4979C13 40.0323 14.6094 37.6191 17.2821 37.3008C18.7823 37.1221 20.6515 37.0838 22.2492 37.6589C23.064 37.9522 23.8407 38.4167 24.4491 39.1322C24.8784 39.637 25.1994 40.2382 25.3978 40.9353H36.3871C39.5621 40.9353 42.1349 43.5213 42.1349 46.7109V47.0014C42.1349 47.2494 42.0514 47.4779 41.9112 47.66H48.6077C49.5583 47.66 50.4691 47.2827 51.1446 46.6095L60.3447 37.441C61.4085 36.3809 62.9288 35.9245 64.397 36.2247C66.3177 36.6173 67.762 38.2177 67.9636 40.1765L67.9754 40.2906C68.1124 41.6222 67.6731 42.9487 66.7693 43.9323L52.7083 59.2358C51.6201 60.4201 50.0887 61.0937 48.4844 61.0937H25.4515C25.3366 61.5057 25.1509 61.8824 24.8931 62.2179C24.4347 62.8146 23.8108 63.2003 23.1552 63.4531C21.8816 63.944 20.2539 64.0185 18.7301 63.9967C15.5338 63.9508 13 61.2145 13 58.0591V55.7097C13 55.1149 13.4798 54.6328 14.0718 54.6328C14.6637 54.6328 15.1435 55.1149 15.1435 55.7097V58.0591C15.1435 60.0938 16.7918 61.815 18.7607 61.8432C20.2731 61.8649 21.5327 61.7718 22.3873 61.4423C22.7959 61.2849 23.0463 61.0972 23.1963 60.902C23.3364 60.7196 23.4483 60.4544 23.4483 60.0168L24.52 60.0169Z" fill="#00ADFF"/>
<path fill-rule="evenodd" clip-rule="evenodd" d="M33.7531 21.1536C31.5469 21.1536 29.7584 22.9506 29.7584 25.1672V36.5227C29.7584 37.1174 29.2786 37.5996 28.6866 37.5996C28.0947 37.5996 27.6149 37.1174 27.6149 36.5227V25.1672C27.6149 21.7612 30.3631 19 33.7531 19H51.4859C54.8759 19 57.6241 21.7612 57.6241 25.1672V42.5921H55.4806V25.1672C55.4806 22.9506 53.6921 21.1536 51.4859 21.1536H33.7531Z" fill="#00ADFF"/>
</svg>
