<svg width="80" height="80" viewBox="0 0 80 80" fill="none" xmlns="http://www.w3.org/2000/svg">
<path d="M41.0963 23.3411C39.3858 22.1242 37.0202 21.3727 33.7811 21.3727C30.542 21.3727 28.1764 22.1242 26.4658 23.3411C24.7553 24.5579 23.8091 26.24 23.2996 27.8863C22.4625 30.6421 22.8264 33.5769 22.972 34.7937C22.972 34.8295 22.972 34.8295 22.972 34.8653C21.953 36.0106 21.8802 37.7284 22.1714 39.0169C22.3533 39.7684 22.6809 40.52 23.154 41.0927C23.4451 41.4863 23.8819 41.8084 24.3914 42.0232C24.8645 44.0274 25.8472 45.7453 26.7206 46.9979C27.1937 47.6779 27.6669 48.2505 28.0308 48.6084C28.14 48.7158 28.2128 48.8232 28.2855 48.8947V48.9305C28.2492 49.1811 28.2492 49.5032 28.1764 49.8611C28.1036 50.219 28.0308 50.4695 27.9216 50.6484C27.8852 50.6842 27.8852 50.72 27.8852 50.72C26.4295 50.9705 23.8091 51.8295 21.0795 53.1179C18.2772 54.4063 15.1836 56.1958 13 58.2716L14.3102 59.6316C16.3119 57.7705 19.187 56.0884 21.9166 54.8358C24.6461 53.5474 27.1209 52.76 28.2855 52.5811C29.0134 52.4737 29.4138 51.9368 29.6322 51.5432C29.8505 51.1137 29.9961 50.6484 30.0689 50.219C30.1417 49.7895 30.1781 49.3958 30.2145 49.0737C30.2145 48.9305 30.2144 48.7874 30.2508 48.7158C30.2508 48.68 30.2508 48.6442 30.2508 48.6084V48.5726C30.2508 48.5726 30.2508 48.5726 29.3046 48.5726H30.2508V48.179L29.9233 47.8569C29.8869 47.8211 29.8869 47.8211 29.8141 47.7495C29.7413 47.6779 29.5958 47.5348 29.4502 47.3558C29.159 47.0337 28.7223 46.5326 28.2855 45.9242C27.4121 44.6716 26.4659 42.9895 26.1383 41.0927L25.9927 40.3053H25.192C25.0829 40.3053 24.9009 40.2695 24.6461 39.9474C24.3914 39.6253 24.173 39.16 24.0638 38.6232C23.8091 37.4421 24.0274 36.4042 24.6097 35.9748L24.9737 35.6884L24.9373 35.2232C24.9373 35.0442 24.9009 34.7937 24.8645 34.4716C24.719 33.1116 24.4642 30.7495 25.1557 28.459C25.556 27.099 26.3203 25.8106 27.6305 24.88C28.9407 23.9495 30.8696 23.2695 33.8175 23.2695C36.7654 23.2695 38.6943 23.9495 40.0045 24.88C41.3147 25.8106 42.0425 27.099 42.4793 28.459C43.1708 30.7495 42.916 33.1474 42.7704 34.4716C42.734 34.7937 42.6977 35.0442 42.6977 35.2232L42.6612 35.6884L43.0252 35.9748C43.5711 36.44 43.8259 37.4779 43.5711 38.6232C43.4255 39.16 43.2072 39.6253 42.9888 39.9474C42.734 40.2695 42.5521 40.3053 42.4429 40.3053H41.6422L41.4966 41.0927C41.1691 42.9895 40.2228 44.7074 39.3494 45.9242C38.9126 46.5326 38.5123 47.0337 38.1848 47.3558C38.0392 47.5348 37.8936 47.6421 37.8208 47.7495C37.7844 47.7853 37.748 47.8211 37.7116 47.8569L37.3841 48.179V48.5726H38.3304C37.3841 48.5726 37.3841 48.5726 37.3841 48.5726V48.6084C37.3841 48.6442 37.3841 48.68 37.3841 48.7158C37.3841 48.8232 37.3841 48.9305 37.4205 49.0737C37.4569 49.36 37.4933 49.7895 37.5661 50.219C37.6388 50.6484 37.7844 51.1137 38.0028 51.5432C38.2212 51.9368 38.6215 52.4737 39.3494 52.5811C40.5504 52.76 43.098 53.5832 45.9003 54.9074C48.7027 56.2316 51.6142 57.9495 53.5795 59.8821C54.0162 60.3116 54.1618 60.7053 54.1982 60.9916C54.2346 61.3137 54.1254 61.6358 53.907 61.9221C53.4339 62.5663 52.4149 63.139 51.0683 63.139H16.1299V65H51.0683C52.888 65 54.5622 64.2126 55.4356 62.9958C55.8724 62.3516 56.1271 61.6 56.0543 60.7769C55.9815 59.9537 55.5812 59.2021 54.8897 58.5221C52.7061 56.3747 49.5762 54.5137 46.701 53.1895C43.8987 51.8653 41.1691 50.9348 39.6769 50.72C39.6769 50.6842 39.6406 50.6842 39.6406 50.6484C39.5314 50.4695 39.4586 50.1832 39.3858 49.8611C39.313 49.539 39.2766 49.1811 39.2766 48.9305V48.8947C39.3494 48.8232 39.4586 48.7158 39.5314 48.6084C39.8589 48.2148 40.332 47.6779 40.8415 46.9979C41.715 45.7453 42.6976 44.0274 43.1708 42.0232C43.6803 41.8442 44.0806 41.4863 44.4082 41.0927C44.8813 40.52 45.2088 39.7684 45.3908 39.0169C45.682 37.7284 45.6092 36.0106 44.5901 34.8653C44.5901 34.8295 44.5901 34.8295 44.5901 34.7937C44.7357 33.5769 45.0997 30.6063 44.2626 27.8863C43.7531 26.24 42.8068 24.5937 41.0963 23.3411Z" fill="#00ADFF"/>
<path fill-rule="evenodd" clip-rule="evenodd" d="M33.449 19.7324C34.2388 16.3758 37.2832 14 40.7853 14L57.2659 14C63.1956 14 68 18.7272 68 24.5579V30.2842C68 36.1152 63.1932 40.8421 57.2637 40.8421H47.7083V39.0526H57.2637C62.1882 39.0526 66.1803 35.1269 66.1803 30.2842V24.5579C66.1803 19.715 62.1901 15.7895 57.2659 15.7895L40.7853 15.7895C38.1288 15.7895 35.8204 17.592 35.2218 20.1358L33.449 19.7324Z" fill="#00ADFF"/>
<path d="M49.5583 27.421C49.5583 28.2991 48.8345 29.0109 47.9416 29.0109C47.0487 29.0109 46.3248 28.2991 46.3248 27.421C46.3248 26.543 47.0487 25.8311 47.9416 25.8311C48.8345 25.8311 49.5583 26.543 49.5583 27.421Z" fill="#00ADFF"/>
<path d="M55.1518 27.421C55.1518 28.2991 54.428 29.0109 53.5351 29.0109C52.6421 29.0109 51.9183 28.2991 51.9183 27.421C51.9183 26.543 52.6421 25.8311 53.5351 25.8311C54.428 25.8311 55.1518 26.543 55.1518 27.421Z" fill="#00ADFF"/>
<path d="M60.7453 27.421C60.7453 28.2991 60.0214 29.0109 59.1285 29.0109C58.2356 29.0109 57.5118 28.2991 57.5118 27.421C57.5118 26.543 58.2356 25.8311 59.1285 25.8311C60.0214 25.8311 60.7453 26.543 60.7453 27.421Z" fill="#00ADFF"/>
</svg>
