<svg width="80" height="81" viewBox="0 0 80 81" fill="none" xmlns="http://www.w3.org/2000/svg">
<path d="M28.1565 56.3705C27.5774 56.3705 27.1079 56.84 27.1079 57.4191C27.1079 57.9982 27.5774 58.4676 28.1565 58.4676H37.8795C38.4586 58.4676 38.9281 57.9982 38.9281 57.4191C38.9281 56.84 38.4586 56.3705 37.8795 56.3705H28.1565Z" fill="#00ADFF"/>
<path d="M28.1565 60.946C27.5774 60.946 27.1079 61.4155 27.1079 61.9946C27.1079 62.5737 27.5774 63.0432 28.1565 63.0432H37.8795C38.4586 63.0432 38.9281 62.5737 38.9281 61.9946C38.9281 61.4155 38.4586 60.946 37.8795 60.946H28.1565Z" fill="#00ADFF"/>
<path fill-rule="evenodd" clip-rule="evenodd" d="M15.0971 33.7788C15.0971 24.1202 22.3852 17.0971 32.9227 17.0971C42.5761 17.0971 48.8238 24.0057 49.6911 31.8855L51.5283 30.0483C49.9225 21.8906 43.0945 15 32.9227 15C21.345 15 13 22.8474 13 33.7788C13 38.173 14.7913 42.343 16.9543 45.7253C18.9708 48.8787 21.3621 51.429 23.1043 52.9466V60.8507C23.1043 64.7992 26.3052 68 30.2536 68H35.5917C39.5402 68 42.741 64.7992 42.741 60.8507V52.8789C43.6419 51.9091 43.6343 52.0871 44.758 50.5209L43.2542 49.0171C42.1295 50.6115 42.129 50.4526 41.2397 51.4137H24.5374C22.9358 50.0287 20.6467 47.6068 18.7211 44.5955C16.6739 41.3942 15.0971 37.6205 15.0971 33.7788ZM25.2014 60.8507V53.5108H40.6439V60.8507C40.6439 63.6409 38.382 65.9029 35.5917 65.9029H30.2536C27.4634 65.9029 25.2014 63.6409 25.2014 60.8507Z" fill="#00ADFF"/>
<path d="M27.5845 37.4964V39.5935C30.0589 39.5935 32.0647 41.5994 32.0647 44.0737V47.8867C32.0647 48.4658 32.5342 48.9353 33.1133 48.9353C33.6924 48.9353 34.1619 48.4658 34.1619 47.8867V44.0737C34.1619 42.3428 33.4932 40.7679 32.4001 39.5935H37.8795C38.4586 39.5935 38.9281 39.1241 38.9281 38.545C38.9281 37.9659 38.4586 37.4964 37.8795 37.4964H27.5845Z" fill="#00ADFF"/>
<path fill-rule="evenodd" clip-rule="evenodd" d="M53.9081 30.6343L43.1235 41.4189C42.6023 41.9401 42.6023 42.7851 43.1235 43.3062L53.9081 54.0909C54.4293 54.612 55.2743 54.612 55.7954 54.0909L66.5801 43.3062C67.1012 42.7851 67.1012 41.9401 66.5801 41.4189L55.7954 30.6343C55.2743 30.1131 54.4293 30.1131 53.9081 30.6343ZM41.6406 39.936C40.3004 41.2762 40.3004 43.449 41.6406 44.7891L52.4252 55.5738C53.7654 56.9139 55.9382 56.9139 57.2783 55.5738L68.063 44.7891C69.4031 43.449 69.4031 41.2762 68.063 39.936L57.2783 29.1514C55.9382 27.8112 53.7654 27.8112 52.4252 29.1514L41.6406 39.936Z" fill="#00ADFF"/>
<path d="M60.8307 38.8068C60.3145 38.3915 59.4957 38.4816 59.0825 38.9962L53.7679 44.621L51.2027 42.2353C50.7112 41.7939 49.8878 41.8374 49.4469 42.3274C49.2247 42.5742 49.112 42.8932 49.1295 43.225C49.1474 43.5568 49.2928 43.862 49.5401 44.0837L52.7131 47.0169C53.0285 47.3016 53.4356 47.4577 53.8595 47.4577C53.8962 47.4577 53.9322 47.4563 53.9706 47.4539C53.9788 47.4533 53.9872 47.4527 53.9957 47.4521C54.4612 47.4137 54.8969 47.1828 55.1908 46.8167L61.0201 40.5554C61.2275 40.2963 61.3237 39.9722 61.2874 39.6419C61.252 39.3116 61.0892 39.0147 60.8307 38.8068Z" fill="#00ADFF"/>
</svg>
