<svg width="80" height="81" viewBox="0 0 80 81" fill="none" xmlns="http://www.w3.org/2000/svg">
<path d="M49.4239 13V27.509C49.5479 27.633 49.6719 27.7983 49.7959 27.9223C48.4731 26.3929 46.8611 25.1528 44.8769 24.2434C41.6114 22.714 37.7258 22.714 34.4602 24.2434C31.1947 25.7729 28.8385 28.129 27.3091 31.3946C26.6477 32.924 26.2343 34.8668 26.2343 36.6029C26.2343 37.5123 26.3584 38.4217 26.565 39.3311C26.5237 39.2071 26.4823 39.1244 26.441 39.0004H15.4043V59.7924H17.5538V41.1499H27.0611C27.1437 41.3566 27.2264 41.6046 27.3091 41.8112C28.5905 44.5808 30.492 46.6476 33.0135 48.177C32.6828 48.0117 32.3934 47.8877 32.1041 47.681V65.0008H47.2744V47.681C46.7784 48.0117 46.2823 48.301 45.6623 48.549C46.613 48.053 47.4811 47.4743 48.2665 46.8129L49.4239 47.9703V65.0008H64.5942V13H49.4239ZM45.0836 62.8513H34.2535V48.8384C34.3362 48.8797 34.3775 48.9211 34.4602 48.9624C36.1963 49.6238 37.9324 50.0371 39.6686 50.0371C41.4047 50.0371 43.1408 49.6238 44.8769 48.9624C44.9596 48.9211 45.0009 48.8797 45.0836 48.8384V62.8513V62.8513ZM44.0088 47.0609C41.1567 48.3423 38.1391 48.3837 35.3283 47.0609C32.5174 45.7382 30.3266 43.7954 29.2519 40.9845C28.5905 39.6618 28.3838 38.1737 28.3838 36.6442C28.3838 35.1148 28.5905 33.5854 29.2519 32.304C30.5746 29.4931 32.5174 27.509 35.3283 26.2275C36.651 25.5662 38.1391 25.3595 39.6686 25.3595C41.198 25.3595 42.4794 25.5662 44.0088 26.2275C46.8197 27.5503 49.0105 29.4931 50.0853 32.304C50.7467 33.6267 50.9533 35.1148 50.9533 36.6442C50.9533 38.1737 50.7467 39.7031 50.0853 40.9845C48.7625 43.7954 46.8197 45.9862 44.0088 47.0609ZM49.9612 28.129C50.0439 28.2117 50.0853 28.3357 50.1679 28.4184C50.1266 28.3357 50.0439 28.2117 49.9612 28.129ZM62.4034 62.81H51.5734V50.1198L58.9725 57.519L60.5019 55.9895L51.5734 47.0609V42.6793C51.7387 42.39 51.904 42.1006 52.0281 41.8112C52.6894 40.0751 53.1028 38.339 53.1028 36.6029C53.1028 34.8668 52.6894 33.1307 52.0281 31.3946C51.904 31.1052 51.7387 30.8159 51.5734 30.5265V15.1495H62.4034V62.81V62.81Z" fill="#00ADFF"/>
<path d="M28.1783 62.81H19.291V64.9594H30.3277V46.3169C29.7077 45.4901 28.8396 44.6221 28.1783 43.754V62.81Z" fill="#00ADFF"/>
</svg>
