<svg width="80" height="80" viewBox="0 0 80 80" fill="none" xmlns="http://www.w3.org/2000/svg">
<path fill-rule="evenodd" clip-rule="evenodd" d="M21 50.998H31V62.998H21V60.998H29V52.998H23V55.998H21V50.998Z" fill="#00ADFF"/>
<path fill-rule="evenodd" clip-rule="evenodd" d="M33 42.998H45V62.998H33V42.998ZM35 44.998V60.998H43V44.998H35Z" fill="#00ADFF"/>
<path fill-rule="evenodd" clip-rule="evenodd" d="M47 32.998H59V62.998H47V32.998ZM49 34.998V60.998H57V34.998H49Z" fill="#00ADFF"/>
<path fill-rule="evenodd" clip-rule="evenodd" d="M39.1432 24.5695C40.4055 24.5695 41.4289 23.5461 41.4289 22.2838C41.4289 21.0214 40.4055 19.998 39.1432 19.998C37.8808 19.998 36.8574 21.0214 36.8574 22.2838C36.8574 23.5461 37.8808 24.5695 39.1432 24.5695ZM39.1432 26.5695C41.5101 26.5695 43.4289 24.6507 43.4289 22.2838C43.4289 19.9168 41.5101 17.998 39.1432 17.998C36.7762 17.998 34.8574 19.9168 34.8574 22.2838C34.8574 24.6507 36.7762 26.5695 39.1432 26.5695Z" fill="#00ADFF"/>
<path fill-rule="evenodd" clip-rule="evenodd" d="M54.5709 27.998C55.8333 27.998 56.8566 26.9747 56.8566 25.7123C56.8566 24.45 55.8333 23.4266 54.5709 23.4266C53.3086 23.4266 52.2852 24.45 52.2852 25.7123C52.2852 26.9747 53.3086 27.998 54.5709 27.998ZM54.5709 29.998C56.9379 29.998 58.8566 28.0793 58.8566 25.7123C58.8566 23.3454 56.9379 21.4266 54.5709 21.4266C52.204 21.4266 50.2852 23.3454 50.2852 25.7123C50.2852 28.0793 52.204 29.998 54.5709 29.998Z" fill="#00ADFF"/>
<path fill-rule="evenodd" clip-rule="evenodd" d="M25.4283 41.7123C26.6906 41.7123 27.714 40.689 27.714 39.4266C27.714 38.1643 26.6906 37.1409 25.4283 37.1409C24.1659 37.1409 23.1426 38.1643 23.1426 39.4266C23.1426 40.689 24.1659 41.7123 25.4283 41.7123ZM25.4283 43.7123C27.7952 43.7123 29.714 41.7936 29.714 39.4266C29.714 37.0597 27.7952 35.1409 25.4283 35.1409C23.0613 35.1409 21.1426 37.0597 21.1426 39.4266C21.1426 41.7936 23.0613 43.7123 25.4283 43.7123Z" fill="#00ADFF"/>
<path fill-rule="evenodd" clip-rule="evenodd" d="M16 37.998H22V39.998H16V37.998Z" fill="#00ADFF"/>
<path fill-rule="evenodd" clip-rule="evenodd" d="M38.0004 25.998L28.0004 36.8555L26.5293 35.5005L36.5293 24.6431L38.0004 25.998Z" fill="#00ADFF"/>
<path fill-rule="evenodd" clip-rule="evenodd" d="M52.0004 25.998L41.7148 23.1406L42.2501 21.2136L52.5357 24.071L52.0004 25.998Z" fill="#00ADFF"/>
<path fill-rule="evenodd" clip-rule="evenodd" d="M63.999 21.427L57.9992 25.9981L56.7871 24.4073L62.7869 19.8361L63.999 21.427Z" fill="#00ADFF"/>
</svg>
