<svg width="80" height="81" viewBox="0 0 80 81" fill="none" xmlns="http://www.w3.org/2000/svg">
<path fill-rule="evenodd" clip-rule="evenodd" d="M17.5629 49.6278C19.0168 49.6278 20.1954 48.4412 20.1954 46.9774C20.1954 45.5137 19.0168 44.3271 17.5629 44.3271C16.1091 44.3271 14.9305 45.5137 14.9305 46.9774C14.9305 48.4412 16.1091 49.6278 17.5629 49.6278ZM17.5629 51.5714C20.0829 51.5714 22.1258 49.5146 22.1258 46.9774C22.1258 44.4403 20.0829 42.3835 17.5629 42.3835C15.0429 42.3835 13 44.4403 13 46.9774C13 49.5146 15.0429 51.5714 17.5629 51.5714Z" fill="#00ADFF"/>
<path fill-rule="evenodd" clip-rule="evenodd" d="M31.9536 46.4474C33.4075 46.4474 34.5861 45.2608 34.5861 43.797C34.5861 42.3332 33.4075 41.1466 31.9536 41.1466C30.4998 41.1466 29.3212 42.3332 29.3212 43.797C29.3212 45.2608 30.4998 46.4474 31.9536 46.4474ZM31.9536 48.391C34.4737 48.391 36.5166 46.3342 36.5166 43.797C36.5166 41.2598 34.4737 39.203 31.9536 39.203C29.4336 39.203 27.3907 41.2598 27.3907 43.797C27.3907 46.3342 29.4336 48.391 31.9536 48.391Z" fill="#00ADFF"/>
<path fill-rule="evenodd" clip-rule="evenodd" d="M50.5563 54.9286C52.0102 54.9286 53.1887 53.742 53.1887 52.2782C53.1887 50.8144 52.0102 49.6278 50.5563 49.6278C49.1024 49.6278 47.9238 50.8144 47.9238 52.2782C47.9238 53.742 49.1024 54.9286 50.5563 54.9286ZM50.5563 56.8722C53.0763 56.8722 55.1192 54.8154 55.1192 52.2782C55.1192 49.741 53.0763 47.6842 50.5563 47.6842C48.0363 47.6842 45.9934 49.741 45.9934 52.2782C45.9934 54.8154 48.0363 56.8722 50.5563 56.8722Z" fill="#00ADFF"/>
<path fill-rule="evenodd" clip-rule="evenodd" d="M60.246 41.3795L53.7341 50.2739L52.2927 48.981L58.8046 40.0866L60.246 41.3795ZM28.1248 45.4525L20.8974 47.0533L20.4826 45.1551L27.71 43.5542L28.1248 45.4525ZM46.8324 51.7534L34.8987 46.4526L35.6779 44.6744L47.6117 49.9751L46.8324 51.7534Z" fill="#00ADFF"/>
<path fill-rule="evenodd" clip-rule="evenodd" d="M61.4371 40.0865C62.8909 40.0865 64.0695 38.8999 64.0695 37.4361C64.0695 35.9723 62.8909 34.7857 61.4371 34.7857C59.9832 34.7857 58.8046 35.9723 58.8046 37.4361C58.8046 38.8999 59.9832 40.0865 61.4371 40.0865ZM61.4371 42.0301C63.9571 42.0301 66 39.9733 66 37.4361C66 34.8989 63.9571 32.8421 61.4371 32.8421C58.9171 32.8421 56.8742 34.8989 56.8742 37.4361C56.8742 39.9733 58.9171 42.0301 61.4371 42.0301Z" fill="#00ADFF"/>
<path fill-rule="evenodd" clip-rule="evenodd" d="M40.3377 18.0646C40.3495 18.0606 40.3613 18.0568 40.3731 18.0531C40.4589 18.0267 40.5478 18.0104 40.6376 18.0045C40.7824 17.9917 40.9278 18.0063 41.0664 18.0472C41.096 18.0559 41.1253 18.0659 41.1542 18.077C41.17 18.0831 41.1857 18.0895 41.2013 18.0963L62.15 27.4972C62.3572 27.5902 62.5329 27.7422 62.6557 27.9347C62.7785 28.1271 62.8429 28.3516 62.841 28.5805V33.5142C62.4731 33.4054 62.0839 33.3469 61.6812 33.3469C61.2755 33.3469 60.8836 33.4062 60.5134 33.5166V30.3799L41.8923 38.7342V44.2177H39.5647V38.7342L20.9436 30.3799V41.3401H18.6159V28.5805C18.6142 28.3516 18.6786 28.1271 18.8013 27.9347C18.9241 27.7422 19.0998 27.5902 19.307 27.4972L40.2557 18.0963C40.2827 18.0847 40.31 18.0742 40.3377 18.0646ZM58.804 28.5622L40.7285 20.4649L22.653 28.5622L40.7285 36.6777L58.804 28.5622Z" fill="#00ADFF"/>
<path d="M39.5647 54.5714V65.016L18.6159 55.6905V57.4329C18.6176 57.6587 18.6837 57.8792 18.8063 58.068C18.9288 58.2569 19.1027 58.4061 19.307 58.4979L40.2557 67.8987C40.4046 67.9655 40.5656 68 40.7285 68C40.8914 68 41.0524 67.9655 41.2013 67.8987L62.15 58.4979C62.3544 58.4061 62.5282 58.2569 62.6508 58.068C62.7733 57.8792 62.8394 57.6587 62.841 57.4329V41.4926C62.4731 41.6014 62.0839 41.6599 61.6812 41.6599C61.2755 41.6599 60.8836 41.6006 60.5134 41.4902V56.6617L41.8923 65.016V54.5714H39.5647Z" fill="#00ADFF"/>
</svg>
