<svg width="80" height="81" viewBox="0 0 80 81" fill="none" xmlns="http://www.w3.org/2000/svg">
<path d="M61.9445 34.9668C59.5286 34.9668 57.4706 36.7117 57.0232 38.9934H48.9254C48.7465 37.2485 48.0307 35.6827 47.0017 34.3852L52.7282 28.6587C54.652 29.9561 57.2916 29.7324 58.9917 28.0323C60.9602 26.0638 60.9602 22.9321 58.9917 20.9635C57.0232 18.995 53.8915 18.995 51.9229 20.9635C50.1781 22.7084 49.9992 25.3032 51.2966 27.227L45.57 32.9536C44.2726 31.9246 42.7067 31.2535 40.9619 31.0298V22.9321C43.2436 22.4847 44.9884 20.4714 44.9884 18.0108C44.9884 15.237 42.7514 13 39.9776 13C37.2038 13 34.9668 15.237 34.9668 18.0108C34.9668 20.4267 36.6669 22.4399 38.9486 22.9321V31.0298C37.2485 31.2088 35.6827 31.9246 34.3852 32.9089L28.6587 27.1823C29.9561 25.2585 29.7324 22.6189 28.0323 20.9188C26.0638 18.9503 22.9321 18.9503 20.9635 20.9188C18.995 22.8426 18.995 26.0191 20.9635 27.9876C22.7084 29.7324 25.3032 29.9113 27.227 28.6139L32.9536 34.3405C31.9246 35.6379 31.2535 37.2038 31.0298 38.9486H22.9321C22.4847 36.6669 20.4714 34.9221 18.0108 34.9221C15.237 34.9221 13 37.1591 13 39.9329C13 42.7067 15.237 44.9436 18.0108 44.9436C20.4267 44.9436 22.4399 43.2436 22.9321 40.9619H31.0298C31.2088 42.662 31.8799 44.2278 32.9089 45.5253L27.1375 51.2966C25.169 50.0439 22.5741 50.2676 20.8741 51.9677C18.9055 53.9362 18.9055 57.0679 20.8741 59.0364C22.8426 61.0049 25.9743 61.0049 27.9428 59.0364C29.6876 57.2916 29.8666 54.6968 28.5692 52.7282L34.2958 47.0017C35.5932 48.0307 37.1591 48.7017 38.9039 48.9254V57.0679C36.6222 57.5601 34.9221 59.5733 34.9221 61.9892C34.9221 64.763 37.1591 67 39.9329 67C42.7067 67 44.9436 64.763 44.9436 61.9892C44.9436 59.5733 43.1988 57.5153 40.9171 57.0679V48.9254C42.662 48.7465 44.2278 48.0754 45.5253 47.0464L51.2966 52.8177C50.0439 54.7862 50.2676 57.3811 51.9677 59.0812C53.9362 61.0497 57.0679 61.0497 59.0364 59.0812C61.0049 57.1127 61.0049 53.9809 59.0364 52.0124C57.2916 50.2676 54.6968 50.0886 52.7282 51.3861L47.0017 45.6595C48.0307 44.3621 48.7017 42.7962 48.9254 41.0514H57.0679C57.5601 43.3331 59.5733 45.0331 61.9892 45.0331C64.763 45.0331 67 42.7962 67 40.0223C67 37.2485 64.7183 34.9668 61.9445 34.9668ZM46.599 39.9776C46.599 43.6462 43.6462 46.599 39.9776 46.599C36.309 46.599 33.3115 43.6462 33.3563 39.9776C33.3563 36.309 36.309 33.3563 39.9776 33.3563C43.6462 33.3563 46.599 36.309 46.599 39.9776ZM53.623 22.5741C54.652 21.5451 56.3521 21.5451 57.3811 22.5741C58.4101 23.6031 58.4101 25.3032 57.3811 26.3322C56.3521 27.3612 54.652 27.3612 53.623 26.3322C52.594 25.3032 52.594 23.6031 53.623 22.5741ZM37.338 18.0108C37.338 16.5344 38.5012 15.3712 39.9776 15.3712C41.4093 15.3712 42.6172 16.5344 42.6172 18.0108C42.6172 19.4872 41.454 20.6504 39.9776 20.6504C38.546 20.6504 37.338 19.4872 37.338 18.0108ZM22.5741 26.3322C21.5451 25.3032 21.5451 23.6031 22.5741 22.5741C23.6031 21.5451 25.3032 21.5451 26.3322 22.5741C27.3612 23.6031 27.3612 25.3032 26.3322 26.3322C25.3032 27.3612 23.6031 27.3612 22.5741 26.3322ZM18.0108 42.6172C16.5344 42.6172 15.3712 41.454 15.3712 39.9776C15.3712 38.546 16.5344 37.338 18.0108 37.338C19.4872 37.338 20.6504 38.5012 20.6504 39.9776C20.6504 41.4093 19.4872 42.6172 18.0108 42.6172ZM26.3322 57.3811C25.3032 58.4101 23.6031 58.4101 22.5741 57.3811C21.5451 56.3521 21.5451 54.652 22.5741 53.623C23.6031 52.594 25.2585 52.594 26.3322 53.623C27.3612 54.652 27.3612 56.3521 26.3322 57.3811ZM42.6172 61.9445C42.6172 63.3761 41.454 64.5841 39.9776 64.5841C38.546 64.5841 37.338 63.4209 37.338 61.9445C37.338 60.4681 38.5012 59.3049 39.9776 59.3049C41.4093 59.3049 42.6172 60.5128 42.6172 61.9445ZM57.3811 53.623C58.4101 54.652 58.4101 56.3521 57.3811 57.3811C56.3521 58.4101 54.652 58.4101 53.623 57.3811C52.594 56.3521 52.594 54.652 53.623 53.623C54.652 52.594 56.3521 52.594 57.3811 53.623ZM61.9445 42.6172C60.4681 42.6172 59.3049 41.454 59.3049 39.9776C59.3049 38.546 60.4681 37.338 61.9445 37.338C63.3761 37.338 64.5841 38.5012 64.5841 39.9776C64.5841 41.4093 63.4209 42.6172 61.9445 42.6172Z" fill="#00ADFF"/>
</svg>
