<svg width="80" height="81" viewBox="0 0 80 81" fill="none" xmlns="http://www.w3.org/2000/svg">
<path d="M40.0681 27.8144C33.3339 27.8144 27.918 33.2303 27.918 39.9645C27.918 46.6988 33.3695 52.1147 40.0681 52.1147C46.7667 52.1147 52.2183 46.6988 52.2183 39.9645C52.2183 33.2303 46.7667 27.8144 40.0681 27.8144ZM40.0681 50.3688C34.3315 50.3688 29.6639 45.7011 29.6639 39.9645C29.6639 34.228 34.3315 29.5603 40.0681 29.5603C45.8047 29.5603 50.4723 34.228 50.4723 39.9645C50.4367 45.7011 45.8047 50.3688 40.0681 50.3688Z" fill="#00ADFF"/>
<path d="M40.0673 34.7624C37.1812 34.7624 34.8652 37.0784 34.8652 39.9645C34.8652 42.8506 37.1812 45.1666 40.0673 45.1666C42.9534 45.1666 45.2695 42.8506 45.2695 39.9645C45.2695 37.0784 42.9534 34.7624 40.0673 34.7624ZM40.0673 43.4207C38.1433 43.4207 36.6112 41.8529 36.6112 39.9645C36.6112 38.0761 38.1789 36.5083 40.0673 36.5083C41.9558 36.5083 43.5235 38.0761 43.5235 39.9645C43.4879 41.8529 41.9558 43.4207 40.0673 43.4207Z" fill="#00ADFF"/>
<path d="M60.591 33.551H66.0069C67.6459 33.551 68.9999 34.9049 68.9999 36.544V43.4564C68.9999 45.0954 67.6459 46.4494 66.0069 46.4494H60.591C59.7358 46.4494 58.9876 46.9126 58.6669 47.7321C58.3462 48.5516 58.4887 49.3711 59.1301 50.0124L62.9426 53.8249C63.5127 54.395 63.8334 55.1433 63.8334 55.9272C63.8334 56.7111 63.5127 57.4593 62.9426 58.0294L58.0612 62.9108C56.921 64.051 54.9613 64.051 53.8567 62.9108L50.0442 59.0983C49.4385 58.4926 48.5833 58.3144 47.7638 58.6351C46.9443 58.9558 46.4811 59.6684 46.4811 60.5592V65.9751C46.4811 67.6141 45.1271 68.9681 43.4881 68.9681H36.5757C34.9367 68.9681 33.5827 67.6141 33.5827 65.9751V60.5592C33.5827 59.7041 33.1195 58.9558 32.3 58.6351L33.1195 56.6398C34.7229 57.3168 35.7206 58.8133 35.7206 60.5592V65.9751C35.7206 66.4383 36.1125 66.7946 36.5401 66.7946H43.5237C43.9869 66.7946 44.3433 66.4027 44.3433 65.9751V60.5592C44.3433 58.8133 45.3409 57.3168 46.9443 56.6398C48.5477 55.9628 50.3292 56.3191 51.5407 57.5662L55.3532 61.3787C55.6739 61.6994 56.2084 61.6994 56.529 61.3787L61.4105 56.4973C61.7311 56.1766 61.7311 55.6421 61.4105 55.3215L57.598 51.5089C56.3509 50.2619 56.0302 48.5159 56.6716 46.9126C57.3485 45.3092 58.845 44.3115 60.591 44.3115H66.0069C66.4701 44.3115 66.8264 43.9196 66.8264 43.492V36.5796C66.8264 36.1164 66.4344 35.7601 66.0069 35.7601H60.591C58.845 35.7601 57.3485 34.7624 56.6716 33.159C55.9946 31.5556 56.3509 29.7741 57.598 28.5626L61.4105 24.7501C61.7311 24.4295 61.7311 23.895 61.4105 23.5743L56.529 18.6929C56.2084 18.3722 55.6739 18.3722 55.3532 18.6929L51.5407 22.5054C50.2936 23.7525 48.5477 24.0731 46.9443 23.4318C45.3409 22.7548 44.3433 21.2583 44.3433 19.5124V14.0965C44.3433 13.6333 43.9513 13.277 43.5237 13.277H36.6114C36.1482 13.277 35.7918 13.6689 35.7918 14.0965V19.4411C35.7918 21.187 34.7942 22.6835 33.1908 23.3249C31.5874 24.0019 29.8059 23.6456 28.5944 22.3985L24.7819 18.586C24.4612 18.2653 23.9268 18.2653 23.6061 18.586L18.7246 23.4674C18.404 23.7881 18.404 24.3226 18.7246 24.6432L22.5371 28.4557C23.7842 29.7028 24.1049 31.4487 23.4635 33.0521C22.7866 34.6555 21.2901 35.6532 19.5441 35.6532H14.1282C13.665 35.6532 13.3087 36.0451 13.3087 36.4727V43.3851C13.3087 43.8483 13.7007 44.2046 14.1282 44.2046H19.5441C21.2901 44.2046 22.7866 45.2023 23.4635 46.8057C24.1405 48.4091 23.7842 50.1906 22.5371 51.4021L18.7246 55.2146C18.404 55.5352 18.404 56.0697 18.7246 56.3904L23.6061 61.2718L22.0739 62.8039L17.1569 57.9938C16.5868 57.4237 16.3017 56.6754 16.3017 55.8915C16.3017 55.1077 16.6224 54.3594 17.1569 53.7893L20.9694 49.9768C21.5751 49.3711 21.7533 48.5159 21.4326 47.6964C21.1119 46.8769 20.3637 46.4137 19.5085 46.4137H14.0926C12.4536 46.4137 11.0996 45.0598 11.0996 43.4207V36.5083C11.0996 34.8693 12.4536 33.5153 14.0926 33.5153H19.5085C20.3637 33.5153 21.1119 33.0521 21.4326 32.2326C21.7533 31.4131 21.6107 30.5936 20.9694 29.9522L17.1569 26.1754C16.5868 25.6053 16.3017 24.857 16.3017 24.0731C16.3017 23.2893 16.6224 22.541 17.1569 21.9709L22.0383 17.0895C23.1785 15.9493 25.1382 15.9493 26.2427 17.0895L30.0553 20.902C30.661 21.5077 31.5161 21.6859 32.3356 21.3652C33.1552 21.0445 33.6184 20.3319 33.6184 19.4411V14.0252C33.6184 12.3862 34.9367 11.0322 36.6114 11.0322H43.5237C45.1628 11.0322 46.5168 12.3862 46.5168 14.0252V19.4411C46.5168 20.2963 46.9799 21.0445 47.7995 21.3652C48.5833 21.6859 49.4385 21.5433 50.0798 20.902L53.8924 17.0895C55.0325 15.9493 56.9922 15.9493 58.0968 17.0895L62.9782 21.9709C63.5483 22.541 63.8334 23.2893 63.8334 24.0731C63.8334 24.857 63.5127 25.6053 62.9782 26.1754L59.1657 29.9879C58.56 30.5936 58.3819 31.4487 58.7025 32.2682C58.9876 33.0521 59.7002 33.551 60.591 33.551Z" fill="#00ADFF"/>
</svg>
