<svg width="80" height="81" viewBox="0 0 80 81" fill="none" xmlns="http://www.w3.org/2000/svg">
<path fill-rule="evenodd" clip-rule="evenodd" d="M13 45.5061C13 43.4692 14.6496 41.8179 16.6845 41.8179H42.0036C44.0385 41.8179 45.6881 43.4692 45.6881 45.5061V66.3117C45.6881 68.3487 44.0385 70 42.0036 70H16.6845C14.6496 70 13 68.3487 13 66.3117V62.8813H15.0784V66.3117C15.0784 67.1996 15.7975 67.9194 16.6845 67.9194H42.0036C42.8906 67.9194 43.6096 67.1996 43.6096 66.3117V45.5061C43.6096 44.6182 42.8906 43.8984 42.0036 43.8984H16.6845C15.7975 43.8984 15.0784 44.6182 15.0784 45.5061V51.0819H13V45.5061Z" fill="#00ADFF"/>
<path fill-rule="evenodd" clip-rule="evenodd" d="M65.9622 21.3338C66 21.4473 66 21.5986 66 21.7499C66 21.9012 66 22.0525 65.9622 22.166V58.7839C65.9622 59.9187 65.282 60.8644 64.3751 61.5832C63.4681 62.3019 62.221 62.9072 60.7473 63.399C57.7997 64.3825 53.8317 64.9877 49.4482 64.9877C48.0577 64.9877 46.702 64.9258 45.4046 64.8093V62.7974C46.7001 62.9181 48.0694 62.9828 49.4859 62.9828C53.6806 62.9828 57.4595 62.4154 60.1426 61.5075C61.5031 61.0536 62.5234 60.524 63.1658 60.0322C63.846 59.5026 63.9972 59.0865 63.9972 58.7839V58.103C63.128 58.7082 62.0321 59.2378 60.7473 59.6539C57.7997 60.6375 53.8317 61.2427 49.4482 61.2427C48.0577 61.2427 46.702 61.1808 45.4046 61.0642V59.0524C46.7001 59.1732 48.0694 59.2378 49.4859 59.2378C53.6806 59.2378 57.4595 58.6704 60.1426 57.7625C61.5031 57.3086 62.5234 56.779 63.1658 56.2872C63.846 55.7576 63.9972 55.3415 63.9972 55.0389V52.7313C63.128 53.3366 62.0321 53.8662 60.7473 54.2823C57.7997 55.2659 53.8317 55.8711 49.4482 55.8711C48.0577 55.8711 46.702 55.8091 45.4046 55.6926V53.6808C46.7001 53.8015 48.0694 53.8662 49.4859 53.8662C53.6806 53.8662 57.4595 53.2988 60.1426 52.3909C61.5031 51.937 62.5234 51.4073 63.1658 50.9156C63.846 50.386 63.9972 49.9699 63.9972 49.6673V48.9863C63.128 49.5916 62.0321 50.1212 60.7473 50.5373C57.7997 51.5208 53.8317 52.1261 49.4482 52.1261C48.0577 52.1261 46.702 52.0641 45.4046 51.9476V49.9358C46.7001 50.0564 48.0694 50.1212 49.4859 50.1212C53.6806 50.1212 57.4595 49.5537 60.1426 48.6459C61.5031 48.1919 62.5234 47.6623 63.1658 47.1705C63.846 46.641 63.9972 46.2249 63.9972 45.9222V43.5391C63.128 44.1443 62.0321 44.6739 60.7473 45.09C57.7997 46.0736 53.8317 46.6788 49.4482 46.6788C48.0577 46.6788 46.702 46.6168 45.4046 46.5003V44.7496C45.4046 44.6611 45.4003 44.5736 45.3918 44.4873C46.6911 44.6088 48.0647 44.6739 49.4859 44.6739C53.6806 44.6739 57.4595 44.1065 60.1426 43.1986C61.5031 42.7446 62.5234 42.2151 63.1658 41.7233C63.846 41.1937 63.9972 40.7776 63.9972 40.4749V39.8319C63.128 40.4371 62.0321 40.9667 60.7473 41.3828C57.7997 42.3664 53.8317 42.9716 49.4482 42.9716C47.7042 42.9716 46.0149 42.8742 44.4269 42.6939C43.9718 42.3235 43.3915 42.1016 42.7594 42.1016H40.7962C39.8441 41.8935 38.9569 41.6524 38.149 41.3828C36.902 40.9667 35.8438 40.4749 34.9747 39.9075V40.4749C34.9747 40.7776 35.1637 41.1937 35.8061 41.7233C35.9688 41.8499 36.1487 41.9765 36.3468 42.1016H32.934V20.615H33.2364C33.5387 20.0098 34.0299 19.5181 34.5968 19.1019C35.5415 18.421 36.7886 17.8914 38.2246 17.4375C41.1344 16.5296 45.1401 16 49.4859 16C53.8317 16 57.8375 16.5296 60.7473 17.4375C62.221 17.8914 63.4681 18.421 64.3751 19.1019C64.942 19.5181 65.4332 20.0098 65.7355 20.615H65.9622V21.3338ZM60.1426 39.5292C61.5031 39.0753 62.5234 38.5457 63.1658 38.0161C63.846 37.4865 63.9972 37.0704 63.9972 36.7677V34.3468C63.128 34.952 62.0321 35.4816 60.7473 35.8977C57.7997 36.8812 53.8317 37.4865 49.4482 37.4865C45.1024 37.4865 41.0966 36.8812 38.149 35.8977C36.902 35.4816 35.8438 34.9898 34.9747 34.4224V36.7677C34.9747 37.0704 35.1637 37.4865 35.8061 38.0161C36.4863 38.5457 37.4688 39.0753 38.8293 39.5292C41.5124 40.4371 45.2912 41.0045 49.4859 41.0045C53.6806 41.0045 57.4595 40.4371 60.1426 39.5292ZM60.1426 34.0063C61.5031 33.5524 62.5234 33.0228 63.1658 32.531C63.846 32.0014 63.9972 31.5853 63.9972 31.2826V30.6396C63.128 31.2449 62.0321 31.7744 60.7473 32.1906C57.7997 33.1741 53.8317 33.7793 49.4482 33.7793C45.1024 33.7793 41.0966 33.1741 38.149 32.1906C36.902 31.7744 35.8438 31.2826 34.9747 30.7152V31.2826C34.9747 31.5853 35.1637 32.0014 35.8061 32.531C36.4863 33.0606 37.4688 33.5902 38.8293 34.0063C41.5124 34.9142 45.2912 35.4816 49.4859 35.4816C53.6806 35.4816 57.4595 34.9142 60.1426 34.0063ZM60.1426 30.2991C61.5031 29.8452 62.5234 29.3156 63.1658 28.8238C63.846 28.2942 63.9972 27.8781 63.9972 27.5755V24.6627C63.128 25.1923 62.0321 25.6841 60.7473 26.0623C57.8375 26.9702 53.8317 27.4998 49.4859 27.4998C45.1401 27.4998 41.1344 26.9702 38.2246 26.0623C36.9398 25.6841 35.8438 25.2301 34.9747 24.6627V27.5755C34.9747 27.8781 35.1637 28.2942 35.8061 28.8238C36.4863 29.3534 37.4688 29.883 38.8293 30.2991C41.5124 31.207 45.2912 31.7744 49.4859 31.7744C53.6806 31.7744 57.4595 31.207 60.1426 30.2991ZM38.7914 19.3289C37.4688 19.745 36.4862 20.2368 35.7683 20.6907C35.088 21.1825 34.9747 21.5608 34.9747 21.7121C34.9747 21.9012 35.088 22.2417 35.7683 22.7335C36.4485 23.2252 37.4688 23.6791 38.7914 24.0952C41.4745 24.9275 45.2535 25.4192 49.4859 25.4192C53.7184 25.4192 57.4973 24.8897 60.1804 24.0952C61.5409 23.6791 62.5612 23.2252 63.2036 22.7335C63.8838 22.2417 63.9972 21.8634 63.9972 21.7121C63.9972 21.5229 63.8838 21.1825 63.2036 20.6907C62.5234 20.1989 61.5031 19.745 60.1804 19.3289C57.4973 18.4967 53.7184 18.0049 49.4859 18.0049C45.2535 18.0049 41.4745 18.5345 38.7914 19.3289Z" fill="#00ADFF"/>
<path fill-rule="evenodd" clip-rule="evenodd" d="M23.8436 51.1802C24.3073 51.6071 24.3073 52.2993 23.8436 52.7262L20.6855 55.9087L23.8436 58.713C24.3073 59.1399 24.3073 59.8321 23.8436 60.259C23.3797 60.6859 22.6278 60.6859 22.164 60.259L18.1661 56.6817C17.7022 56.2549 17.7022 55.5627 18.1661 55.1358L22.164 51.1802C22.6278 50.7533 23.3797 50.7533 23.8436 51.1802Z" fill="#00ADFF"/>
<path fill-rule="evenodd" clip-rule="evenodd" d="M34.3808 51.1802C33.9634 51.6071 33.9634 52.2993 34.3808 52.7262L37.2797 55.9087L34.3808 58.713C33.9634 59.1399 33.9634 59.8321 34.3808 60.259C34.7982 60.6859 35.4751 60.6859 35.8924 60.259L39.5472 56.6817C39.9647 56.2549 39.9647 55.5627 39.5472 55.1358L35.8924 51.1802C35.4751 50.7533 34.7982 50.7533 34.3808 51.1802Z" fill="#00ADFF"/>
<path fill-rule="evenodd" clip-rule="evenodd" d="M31.5275 49.0627C32.1036 49.2885 32.3889 49.9422 32.1649 50.5228L27.4545 62.718C27.2305 63.2986 26.582 63.5862 26.006 63.3605C25.43 63.1346 25.1446 62.4809 25.3686 61.9002L30.0789 49.7051C30.3029 49.1245 30.9515 48.8369 31.5275 49.0627Z" fill="#00ADFF"/>
</svg>
