<svg width="80" height="81" viewBox="0 0 80 81" fill="none" xmlns="http://www.w3.org/2000/svg">
<path fill-rule="evenodd" clip-rule="evenodd" d="M48.0916 40.8216C48.0881 40.812 48.0685 40.765 47.9823 40.6421L49.6197 39.4937C49.7599 39.6936 49.9091 39.9335 50.0005 40.2248C50.0975 40.5338 50.1088 40.8316 50.0739 41.1283C50.0236 41.5549 49.8525 42.103 49.6349 42.7998C49.5987 42.9156 49.5612 43.0356 49.5228 43.1598C49.2032 44.1933 48.3406 46.183 47.1772 48.2931C46.0134 50.4041 44.4968 52.7311 42.8375 54.3904C41.768 55.4599 40.624 56.4292 39.4182 57.2952C38.8123 57.7304 38.1319 57.8953 37.4689 57.7952C36.8229 57.6977 36.269 57.3612 35.8557 56.9249C35.041 56.0651 34.6438 54.6811 35.1416 53.3553C35.8962 51.3451 36.3709 49.2283 36.5451 47.0518L38.5387 47.2114C38.3496 49.5736 37.8342 51.8734 37.014 54.0583C36.8072 54.609 36.9745 55.1978 37.3075 55.5493C37.468 55.7187 37.6337 55.7974 37.7674 55.8176C37.8841 55.8352 38.0434 55.8202 38.2515 55.6708C39.3697 54.8677 40.4309 53.9685 41.4233 52.9761C42.8881 51.5113 44.298 49.373 45.4258 47.3275C46.5539 45.2813 47.3478 43.4235 47.6121 42.5689C47.6509 42.4433 47.6869 42.3272 47.7203 42.2196C47.9572 41.4558 48.0608 41.122 48.0876 40.8943C48.093 40.8487 48.092 40.8271 48.0916 40.8216C48.0916 40.8217 48.0916 40.8215 48.0916 40.8216Z" fill="#00ADFF"/>
<path fill-rule="evenodd" clip-rule="evenodd" d="M33.0019 25.7319C33.0116 25.7354 33.0586 25.755 33.1814 25.8412L34.3298 24.2038C34.13 24.0636 33.89 23.9144 33.5988 23.823C33.2897 23.726 32.9919 23.7147 32.6953 23.7496C32.2686 23.7999 31.7205 23.9711 31.0238 24.1887C30.9079 24.2249 30.7879 24.2623 30.6637 24.3007C29.6302 24.6203 27.6406 25.4829 25.5304 26.6463C23.4195 27.8101 21.0924 29.3268 19.4332 30.986C18.3637 32.0555 17.3943 33.1996 16.5283 34.4053C16.0931 35.0113 15.9282 35.6916 16.0283 36.3547C16.1258 37.0006 16.4624 37.5545 16.8987 37.9679C17.7585 38.7825 19.1425 39.1797 20.4682 38.682C22.4784 37.9273 24.5953 37.4526 26.7717 37.2784L26.6121 35.2848C24.2499 35.4739 21.9502 35.9893 19.7653 36.8096C19.2145 37.0164 18.6257 36.849 18.2742 36.516C18.1049 36.3556 18.0261 36.1898 18.0059 36.0561C17.9883 35.9395 18.0033 35.7801 18.1527 35.5721C18.9559 34.4539 19.855 33.3926 20.8474 32.4002C22.3122 30.9354 24.4505 29.5255 26.496 28.3978C28.5423 27.2696 30.4 26.4757 31.2546 26.2115C31.3802 26.1726 31.4963 26.1366 31.604 26.1032C32.3677 25.8663 32.7015 25.7627 32.9292 25.7359C32.9748 25.7306 32.9964 25.7315 33.0019 25.7319C33.0018 25.7319 33.002 25.7319 33.0019 25.7319Z" fill="#00ADFF"/>
<path fill-rule="evenodd" clip-rule="evenodd" d="M62.6181 12.1333L62.5835 13.1997C62.456 17.1345 61.7268 20.9713 60.5098 24.5988L60.5033 24.618L59.358 27.6216L59.3496 27.6412C55.2135 37.2338 47.4251 45.0866 37.4151 49.0825L36.8031 49.3268L29.8214 42.3451L31.2356 40.9309L37.2811 46.9764C46.4838 43.1148 53.653 35.7881 57.5046 26.8689L58.6201 23.9435C59.6625 20.8311 60.3256 17.5633 60.5334 14.2178C57.1873 14.4244 53.9279 15.0817 50.8183 16.141L47.8807 17.2476C38.767 21.1838 31.3162 28.5838 27.5263 38.0778L25.6689 37.3363C29.6648 27.3263 37.5176 19.5379 47.1102 15.4018L47.1317 15.3926L50.1429 14.2583L50.1578 14.2532C53.7896 13.0143 57.6182 12.2953 61.5517 12.1679L62.6181 12.1333Z" fill="#00ADFF"/>
<path fill-rule="evenodd" clip-rule="evenodd" d="M50.1009 24.6505C50.6897 25.2392 51.6442 25.2392 52.233 24.6505C52.8218 24.0617 52.8218 23.1071 52.233 22.5184C51.6442 21.9296 50.6897 21.9296 50.1009 22.5184C49.5121 23.1071 49.5121 24.0617 50.1009 24.6505ZM48.6867 26.0647C50.0565 27.4345 52.2774 27.4345 53.6472 26.0647C55.017 24.6949 55.017 22.474 53.6472 21.1042C52.2774 19.7343 50.0565 19.7343 48.6867 21.1042C47.3169 22.474 47.3169 24.6949 48.6867 26.0647Z" fill="#00ADFF"/>
<path fill-rule="evenodd" clip-rule="evenodd" d="M17.9313 56.8207L29.4498 52.5424C32.182 51.5276 32.9464 48.0252 30.8854 45.9643L28.7877 43.8666C26.7268 41.8057 23.2244 42.5701 22.2096 45.3023L17.9313 56.8207ZM21.3255 53.4265L28.7534 50.6676C30.1195 50.1602 30.5017 48.409 29.4712 47.3785L27.3735 45.2808C26.3431 44.2503 24.5919 44.6325 24.0845 45.9986L21.3255 53.4265Z" fill="#00ADFF"/>
</svg>
