<svg width="80" height="81" viewBox="0 0 80 81" fill="none" xmlns="http://www.w3.org/2000/svg">
<path fill-rule="evenodd" clip-rule="evenodd" d="M35.5272 36.5876C35.9228 36.9807 35.9228 37.618 35.5272 38.0111L31.8228 41.6915L35.5272 45.3719C35.9228 45.765 35.9228 46.4023 35.5272 46.7954C35.1315 47.1885 34.4901 47.1885 34.0945 46.7954L29.6737 42.4032C29.278 42.0102 29.278 41.3729 29.6737 40.9798L34.0945 36.5876C34.4901 36.1945 35.1315 36.1945 35.5272 36.5876Z" fill="#00ADFF"/>
<path fill-rule="evenodd" clip-rule="evenodd" d="M44.4096 36.5876C44.014 36.9807 44.014 37.618 44.4096 38.0111L48.114 41.6915L44.4096 45.3719C44.014 45.765 44.014 46.4023 44.4096 46.7954C44.8052 47.1885 45.4467 47.1885 45.8423 46.7954L50.2631 42.4032C50.6588 42.0102 50.6588 41.3729 50.2631 40.9798L45.8423 36.5876C45.4467 36.1945 44.8052 36.1945 44.4096 36.5876Z" fill="#00ADFF"/>
<path fill-rule="evenodd" clip-rule="evenodd" d="M42.9143 34.1651C43.4358 34.3666 43.6941 34.9499 43.4913 35.468L38.3337 48.6445C38.1309 49.1626 37.5438 49.4192 37.0223 49.2178C36.5009 49.0163 36.2425 48.4329 36.4453 47.9148L41.6029 34.7384C41.8057 34.2203 42.3928 33.9636 42.9143 34.1651Z" fill="#00ADFF"/>
<path fill-rule="evenodd" clip-rule="evenodd" d="M46.3955 15L58 26.1634V62.902C58 63.5084 57.5052 64 56.8948 64H22.3152C21.7048 64 21.21 63.5084 21.21 62.902V35.4967H23.2361V61.9869H55.9738V27.1699H47.5006C46.3307 27.1699 45.3824 26.2277 45.3824 25.0654V17.0131H23.2361V21.2222H21.21V16.098C21.21 15.4916 21.7048 15 22.3152 15H46.3955ZM54.0409 25.1569L47.4085 18.7767V25.0654C47.4085 25.1159 47.4498 25.1569 47.5006 25.1569H54.0409Z" fill="#00ADFF"/>
<path fill-rule="evenodd" clip-rule="evenodd" d="M14.0262 23.2353V29.0915H29.4989V23.2353H14.0262ZM13.842 21.2222C12.8247 21.2222 12 22.0416 12 23.0523V29.2745C12 30.2852 12.8247 31.1046 13.842 31.1046H29.6831C30.7004 31.1046 31.5251 30.2852 31.5251 29.2745V23.0523C31.5251 22.0416 30.7004 21.2222 29.6831 21.2222H13.842Z" fill="#00ADFF"/>
<path d="M16.5298 26.7367L17.0514 24.8423H17.7566L16.8752 27.4444H16.1844L15.3102 24.8423H16.0099L16.5298 26.7367Z" fill="#00ADFF"/>
<path d="M21.3171 27.4444H20.6893V26.3578H19.7593V27.4444H19.1279V24.8423H19.7593V25.8753H20.6893V24.8423H21.3171V27.4444Z" fill="#00ADFF"/>
<path d="M22.8971 27.4444V24.8423H23.7408C23.9722 24.8423 24.1803 24.8947 24.3649 24.9996C24.5496 25.1032 24.6935 25.2504 24.7967 25.441C24.901 25.6305 24.9538 25.8431 24.955 26.079V26.1988C24.955 26.4371 24.904 26.6509 24.8021 26.8404C24.7013 27.0286 24.5586 27.1764 24.3739 27.2836C24.1905 27.3896 23.9854 27.4433 23.7587 27.4444H22.8971ZM23.5285 25.3266V26.9619H23.7479C23.929 26.9619 24.0681 26.8982 24.1653 26.7707C24.2624 26.642 24.311 26.4514 24.311 26.1988V26.0862C24.311 25.8348 24.2624 25.6454 24.1653 25.5179C24.0681 25.3904 23.9266 25.3266 23.7408 25.3266H23.5285Z" fill="#00ADFF"/>
<path d="M27.089 26.9619H28.1881V27.4444H26.4576V24.8423H27.089V26.9619Z" fill="#00ADFF"/>
</svg>
