<svg width="80" height="80" viewBox="0 0 80 80" fill="none" xmlns="http://www.w3.org/2000/svg">
<path fill-rule="evenodd" clip-rule="evenodd" d="M41.4726 15.6873H66.8624C68.0545 15.6873 69 16.6328 69 17.8249V50.1361C69 51.3283 68.0545 52.2738 66.8624 52.2738H62.546V50.1361H66.8624V17.8249H41.4726V22.1413H39.335V17.8249C39.335 16.6328 40.2805 15.6873 41.4726 15.6873ZM56.0919 25.3052H15.1479C13.3391 25.3052 11.9003 26.7851 11.9003 28.5528V47.9559H14.038V37.1855H57.1196V60.864C57.1196 61.4395 56.6263 61.9328 56.0508 61.9328H15.1068C14.5313 61.9328 14.038 61.4395 14.038 60.864H11.9003C11.9003 62.6727 13.3802 64.1116 15.1479 64.1116H56.0919C57.9007 64.1116 59.3394 62.6316 59.3394 60.864V28.5528C59.3394 26.744 57.8595 25.3052 56.0919 25.3052ZM14.038 35.0479V28.5528C14.038 27.9773 14.5313 27.4839 15.1068 27.4839H56.0508C56.6263 27.4839 57.1196 27.9773 57.1196 28.5528V35.0479H14.038ZM18.4773 52.2741H32.8652L25.6527 39.9416L18.4773 52.2741ZM21.8233 50.3598L25.6527 43.807L29.4449 50.3598H21.8233ZM44.7869 44.4633C48.652 44.4633 51.7753 47.5867 51.7753 51.4518C51.7753 55.3169 48.652 58.4402 44.7869 58.4402C40.9218 58.4402 37.7985 55.3169 37.7985 51.4518C37.7985 47.5867 40.9218 44.4633 44.7869 44.4633ZM44.7869 46.5325C42.054 46.5325 39.8677 48.7189 39.8677 51.4518C39.8677 54.1847 42.054 56.371 44.7869 56.371C47.5198 56.371 49.7061 54.1847 49.7061 51.4518C49.7061 48.7189 47.5198 46.5325 44.7869 46.5325ZM18.3541 30.7728C17.7786 30.7728 17.2853 31.2661 17.2853 31.8416C17.2853 32.4171 17.7786 32.9104 18.3541 32.9104C18.9296 32.9104 19.4229 32.4171 19.4229 31.8416C19.4229 31.225 18.9296 30.7728 18.3541 30.7728ZM21.6019 31.8416C21.6019 31.2661 22.0952 30.7728 22.6708 30.7728C23.2463 30.7728 23.7396 31.225 23.7396 31.8416C23.7396 32.4171 23.2463 32.9104 22.6708 32.9104C22.0952 32.9104 21.6019 32.4171 21.6019 31.8416ZM26.9458 30.7728C26.3703 30.7728 25.877 31.2661 25.877 31.8416C25.877 32.4171 26.3703 32.9104 26.9458 32.9104C27.5213 32.9104 28.0146 32.4171 28.0146 31.8416C28.0146 31.225 27.5624 30.7728 26.9458 30.7728ZM30.1936 31.8416C30.1936 31.2661 30.6869 30.7728 31.2624 30.7728C31.838 30.7728 32.3313 31.225 32.3313 31.8416C32.3313 32.4171 31.838 32.9104 31.2624 32.9104C30.6869 32.9104 30.1936 32.4171 30.1936 31.8416ZM52.8029 30.7728C52.2274 30.7728 51.7341 31.2661 51.7341 31.8416C51.7341 32.4171 52.2274 32.9104 52.8029 32.9104C53.3785 32.9104 53.8718 32.4171 53.8718 31.8416C53.8718 31.225 53.4607 30.7728 52.8029 30.7728Z" fill="#00ADFF"/>
</svg>
