<svg width="80" height="81" viewBox="0 0 80 81" fill="none" xmlns="http://www.w3.org/2000/svg">
<path fill-rule="evenodd" clip-rule="evenodd" d="M60.2649 16C64.5369 16 68 19.4981 68 23.8226V61.024C68 59.8817 68 61.4155 67.8229 62.1985C67.1375 64.3593 65.0562 65.827 62.6944 65.8357L18.3374 66C15.3928 66.0109 13 63.5975 13 60.6167V24.809C13 21.8359 15.3809 19.4257 18.3179 19.4257H50.4188V21.5791H18.3179C16.5557 21.5791 15.1272 23.0252 15.1272 24.809V60.6167C15.1272 62.4052 16.5628 63.8532 18.3296 63.8467L62.6866 63.6824C64.4443 63.6759 65.8657 62.2317 65.8657 60.4524C65.8657 60.4524 65.8657 60.2053 65.8657 60.0452C65.8728 55.9343 60.4395 55.5997 56.7842 55.5513C55.7163 55.5371 54.8502 54.6664 54.8502 53.5852V17.9576C54.8502 16.8764 55.716 16 56.784 16H60.2649ZM56.9774 53.4005V18.1533H60.2649C63.3648 18.1533 65.8728 20.6901 65.8728 23.8226V55.3582C65.8579 55.3484 65.8429 55.3387 65.8278 55.329C65.8106 55.3179 65.7934 55.3069 65.7761 55.296C63.205 53.6651 59.8991 53.4452 56.9774 53.4005Z" fill="#00ADFF"/>
<path fill-rule="evenodd" clip-rule="evenodd" d="M21.6054 33.5528V28.9199H26.3754V31.0732H23.7325V33.5528H21.6054ZM40.6854 28.9199H31.1454V31.0732H40.6854V28.9199ZM45.4554 28.9199V31.0732H48.0982V33.5528H50.2254V28.9199H45.4554ZM50.2254 38.1857H48.0982V47.4515H50.2254V38.1857ZM50.2254 52.0844H48.0982V54.564H45.4554V56.7173H50.2254V52.0844ZM40.6854 56.7173V54.564H31.1454V56.7173H40.6854ZM26.3754 56.7173V54.564H23.7325V52.0844H21.6054V56.7173H26.3754ZM21.6054 47.4515H23.7325V38.1857H21.6054V47.4515Z" fill="#00ADFF"/>
</svg>
