<svg width="80" height="81" viewBox="0 0 80 81" fill="none" xmlns="http://www.w3.org/2000/svg">
<path fill-rule="evenodd" clip-rule="evenodd" d="M35.4854 38.0911L39.3469 34.2297L40.8198 35.7026L38.4312 38.0911H44.9444V40.1745H38.4312L40.8198 42.563L39.3469 44.0359L35.4854 40.1745H22.8958C18.5875 40.1745 15.0833 43.6787 15.0833 47.987C15.0833 52.2953 18.5875 55.7995 22.8958 55.7995H25.5833C26.0917 52.2713 29.126 49.5495 32.7917 49.5495C36.4573 49.5495 39.4917 52.2713 40 55.7995H48.5C49.0083 52.2713 52.0427 49.5495 55.7083 49.5495C59.7281 49.5495 63 52.8203 63 56.8411C63 60.862 59.7281 64.1328 55.7083 64.1328C52.0427 64.1328 49.0083 61.4109 48.5 57.8828H40C39.4917 61.4109 36.4573 64.1328 32.7917 64.1328C29.126 64.1328 26.0917 61.4109 25.5833 57.8828H22.8958C17.4396 57.8828 13 53.4432 13 47.987C13 42.5307 17.4396 38.0911 22.8958 38.0911H35.4854ZM52.2361 40.1745H53.1042C58.5604 40.1745 63 35.7349 63 30.2786C63 24.8224 58.5604 20.3828 53.1042 20.3828H50.4167C49.9083 16.8547 46.874 14.1328 43.2083 14.1328C39.5427 14.1328 36.5083 16.8547 36 20.3828H27.5C26.9917 16.8547 23.9573 14.1328 20.2917 14.1328C16.2719 14.1328 13 17.4037 13 21.4245C13 25.4453 16.2719 28.7161 20.2917 28.7161C23.9573 28.7161 26.9917 25.9943 27.5 22.4661H36C36.5083 25.9943 39.5427 28.7161 43.2083 28.7161C46.874 28.7161 49.9083 25.9943 50.4167 22.4661H53.1042C57.4125 22.4661 60.9167 25.9703 60.9167 30.2786C60.9167 34.587 57.4125 38.0911 53.1042 38.0911H52.2361V40.1745ZM60.9167 56.8411C60.9167 53.9693 58.5802 51.6328 55.7083 51.6328C52.8365 51.6328 50.5 53.9693 50.5 56.8411C50.5 59.713 52.8365 62.0495 55.7083 62.0495C58.5802 62.0495 60.9167 59.713 60.9167 56.8411ZM38 56.8411C38 53.9693 35.6635 51.6328 32.7917 51.6328C29.9198 51.6328 27.5833 53.9693 27.5833 56.8411C27.5833 59.713 29.9198 62.0495 32.7917 62.0495C35.6635 62.0495 38 59.713 38 56.8411ZM15.0833 21.4245C15.0833 24.2964 17.4198 26.6328 20.2917 26.6328C23.1635 26.6328 25.5 24.2964 25.5 21.4245C25.5 18.5526 23.1635 16.2161 20.2917 16.2161C17.4198 16.2161 15.0833 18.5526 15.0833 21.4245ZM38 21.4245C38 24.2964 40.3365 26.6328 43.2083 26.6328C46.0802 26.6328 48.4167 24.2964 48.4167 21.4245C48.4167 18.5526 46.0802 16.2161 43.2083 16.2161C40.3365 16.2161 38 18.5526 38 21.4245Z" fill="#00ADFF"/>
</svg>
