<svg width="80" height="80" viewBox="0 0 80 80" fill="none" xmlns="http://www.w3.org/2000/svg">
<path fill-rule="evenodd" clip-rule="evenodd" d="M57.0811 25.5853C58.5719 25.7225 59.7879 27.002 59.8485 28.4982C59.8523 28.5573 59.8523 28.5573 59.6776 31.2325L59.6773 31.2365C59.3816 35.7259 58.4434 42.4112 55.6499 48.7639C53.3523 53.9845 50.182 58.0885 46.2263 60.9616C44.4068 62.2827 41.6806 63.4963 41.3756 63.6301C40.8341 63.8667 40.133 63.9976 39.4014 63.9976C38.6698 63.9976 37.9688 63.8667 37.4272 63.631C37.1218 63.4972 34.3956 62.2837 32.5756 60.9621C28.6286 58.0958 25.4632 54.0019 23.1675 48.7968L23.1326 48.711C20.358 42.3991 19.4213 35.7221 19.127 31.2369C18.9562 28.6384 18.9512 28.5616 18.9555 28.4853C18.9556 28.483 18.9557 28.4807 18.9559 28.4783C19.0155 26.9967 20.2314 25.723 21.7223 25.5858C21.726 25.5854 21.7359 25.5845 21.7515 25.583C21.9534 25.5636 23.1135 25.4523 24.2691 25.293C26.3126 25.0123 28.2296 24.6428 29.9663 24.1963C31.6995 23.7512 33.2728 23.2247 34.6438 22.6308C36.0692 22.0131 37.5567 20.9388 37.5707 20.9281C38.073 20.5635 38.7222 20.3633 39.4014 20.3633C40.0802 20.3633 40.7299 20.5635 41.2297 20.9257C41.2457 20.9378 42.737 22.0141 44.1605 22.6303C45.534 23.2247 47.1068 23.7512 48.8371 24.1958C50.5738 24.6428 52.4908 25.0118 54.5343 25.2925C55.7784 25.4641 57.0287 25.5805 57.0811 25.5853ZM53.4939 47.8175C56.1497 41.7785 57.0447 35.3837 57.3269 31.0823L57.4927 28.5554C57.451 28.2509 57.1586 27.9571 56.8648 27.93C56.5313 27.8989 55.3886 27.7874 54.2138 27.626C52.0806 27.3326 50.0744 26.9458 48.25 26.4769C46.4013 26.0018 44.7117 25.435 43.2272 24.7926C41.5608 24.0708 39.9175 22.8834 39.8473 22.8326L39.8451 22.831C39.6453 22.6851 39.1585 22.6846 38.9569 22.8315C38.9409 22.8432 37.2697 24.0586 35.5796 24.7907C34.1052 25.4292 32.4282 25.9926 30.5936 26.4663L30.5529 26.4769C28.7285 26.9462 26.7218 27.3326 24.5895 27.626C23.4143 27.7869 22.2716 27.8984 21.9497 27.929C21.6462 27.9566 21.3485 28.2543 21.3112 28.5505C21.3213 28.7212 21.3577 29.2753 21.4765 31.0813C21.7582 35.3657 22.6468 41.7286 25.2794 47.7472L25.3134 47.7806L25.3304 47.8684C27.4418 52.658 30.3498 56.4343 33.9593 59.0577C35.5758 60.23 38.1755 61.3863 38.3644 61.4703L38.3717 61.4736C38.8599 61.6869 39.9425 61.6869 40.4317 61.4736C40.5437 61.4251 43.2025 60.2479 44.8436 59.0577C48.457 56.4328 51.3679 52.6507 53.4939 47.8175ZM47.0185 34.2769C47.4098 33.7896 48.185 33.7043 48.6737 34.0975C48.9186 34.2944 49.0727 34.5756 49.1062 34.8883C49.1406 35.201 49.0495 35.5079 48.8531 35.7532L39.7234 47.0971C39.4451 47.4438 39.0325 47.6624 38.5918 47.6988C38.5462 47.7022 38.505 47.7041 38.4628 47.7041C38.0614 47.7041 37.6759 47.5563 37.3773 47.2867L31.4847 41.9822C31.2506 41.7723 31.1129 41.4833 31.0959 41.1692C31.0794 40.855 31.1861 40.553 31.3965 40.3193C31.8139 39.8553 32.5935 39.8141 33.059 40.232L38.376 45.0182L47.0185 34.2769Z" fill="#00ADFF"/>
<rect x="22.0261" y="47.3741" width="3.22537" height="7.44955" transform="rotate(-27.443 22.0261 47.3741)" fill="white"/>
</svg>
