<svg width="80" height="79" viewBox="0 0 80 79" fill="none" xmlns="http://www.w3.org/2000/svg">
<path d="M67.924 31.6287C67.924 31.5904 67.924 31.5522 67.924 31.514C67.924 31.4757 67.924 31.4374 67.924 31.3609C67.924 31.3227 67.924 31.2844 67.924 31.2462C67.924 31.2079 67.8858 31.1697 67.8858 31.1314V31.0932V31.0549C67.8858 31.0549 67.8858 31.0549 67.8858 31.0167C67.8858 31.0167 67.8858 31.0167 67.8858 30.9784C67.8858 30.9784 67.8858 30.9784 67.8858 30.9402C67.8858 30.9402 67.8858 30.9402 67.8858 30.9019L58.5141 16.0603C58.4758 15.9837 58.4376 15.9455 58.3611 15.869C58.2846 15.7925 58.1698 15.7542 58.0933 15.716C58.0168 15.6777 57.9021 15.6777 57.7873 15.6777H22.2132C22.0984 15.6777 22.0219 15.716 21.9072 15.716C21.9072 15.716 21.9072 15.716 21.8689 15.716C21.7542 15.7542 21.6777 15.7925 21.6012 15.869C21.5247 15.9072 21.4864 15.9837 21.4482 16.0603L12.0765 30.9019C12.0765 30.9019 12.0765 30.9019 12.0765 30.9402C12.0765 30.9402 12.0765 30.9402 12.0765 30.9784C12.0765 30.9784 12.0765 30.9784 12.0765 31.0167C12.0765 31.0167 12.0765 31.0167 12.0765 31.0549V31.0932V31.1314C12.0765 31.1697 12.0382 31.2079 12.0382 31.2462C12.0382 31.2844 12.0383 31.3227 12 31.3609C12 31.3992 12 31.4375 12 31.514C12 31.5522 12 31.5904 12 31.6287C12 31.6669 12.0382 31.7052 12.0382 31.7435C12.0382 31.7817 12.0765 31.82 12.0765 31.8582C12.0765 31.8582 12.0765 31.8582 12.0765 31.8965C12.0765 31.8965 12.0765 31.8965 12.0765 31.9347L12.1147 31.973C12.1147 31.973 12.1147 32.0112 12.153 32.0112C12.153 32.0112 12.153 32.0112 12.153 32.0495C12.153 32.0495 12.153 32.0877 12.1913 32.0877L12.459 32.432H27.0711L37.2078 59.9733L19.1913 37.7873H16.7815L39.2735 65.4815C39.35 65.558 39.4647 65.6345 39.5412 65.711C39.5795 65.711 39.5795 65.7493 39.6177 65.7493C39.7325 65.7875 39.8472 65.8257 39.962 65.8257C40.0768 65.8257 40.1915 65.8257 40.268 65.7875C40.268 65.7875 40.268 65.7875 40.3063 65.7875C40.3063 65.7875 40.3063 65.7875 40.3445 65.7875C40.3828 65.7875 40.421 65.7493 40.421 65.7493C40.421 65.7493 40.4592 65.7493 40.4592 65.711C40.5357 65.6728 40.6123 65.6345 40.6505 65.558C40.6505 65.558 40.6505 65.558 40.6888 65.558C40.6888 65.558 40.6888 65.558 40.727 65.5197L67.8475 32.126C67.8475 32.126 67.8475 32.0877 67.8858 32.0877V32.0495C67.8858 32.0495 67.8857 32.0495 67.924 32.0112L67.9622 31.973C67.9622 31.973 67.9622 31.973 67.9622 31.9347C67.9622 31.9347 67.9622 31.9347 67.9622 31.8965C67.9622 31.8582 68.0005 31.82 68.0005 31.7817C67.8857 31.7052 67.924 31.6669 67.924 31.6287ZM56.2955 17.5521L51.7435 29.6396L41.8363 17.5138L56.2955 17.5521ZM50.0605 30.5194H29.6723L39.8472 18.0876L50.0605 30.5194ZM14.4098 30.5194L21.8689 18.6996L26.2296 30.5194H14.4098ZM23.4372 17.5521H37.8964L27.9127 29.7544L23.4372 17.5521ZM39.6942 61.7328L28.869 32.3937H50.7107L39.6942 61.7328ZM42.1041 60.6235L52.6998 32.3937H65.0551L42.1041 60.6235ZM53.4266 30.5194L57.8638 18.6996L65.3229 30.5194H53.4266Z" fill="#00ADFF"/>
</svg>
