<svg width="80" height="81" viewBox="0 0 80 81" fill="none" xmlns="http://www.w3.org/2000/svg">
<path fill-rule="evenodd" clip-rule="evenodd" d="M44.9545 26.9366V14.8986C44.9545 13.9625 44.1958 13.2038 43.2597 13.2038H38.7403C37.8042 13.2038 37.0455 13.9625 37.0455 14.8986V26.8995L37.1628 27.1963C37.4125 27.8278 38.0274 28.2687 38.7403 28.2687H43.2597C43.9472 28.2687 44.5436 27.8591 44.8096 27.262L44.9545 26.9366ZM47.026 25.9749C47.1826 26.0429 47.3379 26.1133 47.4919 26.1862C50.9325 27.8152 53.6833 30.6634 55.1862 34.1731C55.2302 34.2759 55.2731 34.3791 55.3149 34.483H63.7184C63.5396 33.7794 63.3293 33.0884 63.0891 32.4115C62.7019 31.321 62.2369 30.2673 61.7008 29.2571C59.7247 25.5338 56.782 22.4014 53.2059 20.1943L54.2939 18.4316C54.883 18.7952 55.4564 19.1819 56.0127 19.5906C59.0066 21.7896 61.5072 24.6222 63.3165 27.891C63.4619 28.1538 63.6028 28.4195 63.7393 28.6878C64.6051 30.3909 65.2868 32.2033 65.7581 34.099C65.7898 34.2266 65.8206 34.3546 65.8504 34.483H66.2338C68.3138 34.483 70 36.1692 70 38.2492V42.3921C70 44.4721 68.3138 46.1583 66.2338 46.1583H65.8505C65.8227 46.2778 65.7941 46.3969 65.7647 46.5157C64.7799 50.4956 62.8678 54.1099 60.2709 57.116C59.3696 58.1594 58.3858 59.1294 57.3296 60.0161C54.4836 62.4055 51.1122 64.1894 47.4137 65.1694C47.2848 65.2036 47.1556 65.2368 47.026 65.2689V65.3661C47.026 67.4461 45.3398 69.1323 43.2597 69.1323H38.7403C36.6602 69.1323 34.974 67.4461 34.974 65.3661V65.3594C34.8545 65.3317 34.7354 65.3031 34.6166 65.2737C25.3971 62.9923 18.1399 55.7351 15.8586 46.5156C15.8292 46.3968 15.8006 46.2777 15.7729 46.1583H15.7662C13.6862 46.1583 12 44.4721 12 42.3921V38.2492C12 36.1692 13.6862 34.483 15.7662 34.483H15.7729C15.8006 34.3635 15.8292 34.2444 15.8586 34.1256C18.14 24.9061 25.3972 17.6489 34.6167 15.3675C34.7355 15.3382 34.8546 15.3096 34.974 15.2819V14.8986C34.974 12.8185 36.6602 11.1323 38.7403 11.1323H43.2597C45.3398 11.1323 47.026 12.8185 47.026 14.8986V25.9749ZM15.7662 36.5544C14.8302 36.5544 14.0714 37.3132 14.0714 38.2492V42.3921C14.0714 43.3281 14.8302 44.0869 15.7662 44.0869H27.3905L27.6874 43.9695C28.3189 43.7199 28.7597 43.1049 28.7597 42.3921V38.2492C28.7597 37.5363 28.3189 36.9214 27.6874 36.6718L27.3905 36.5544H15.7662ZM17.9051 34.483C18.0838 33.7794 18.2942 33.0884 18.5345 32.4115C20.9097 25.7217 26.2128 20.4186 32.9026 18.0434C33.5794 17.8031 34.2704 17.5928 34.974 17.414V25.8174C34.8146 25.8816 34.6565 25.9484 34.4997 26.0177C30.942 27.59 28.0811 30.4509 26.5088 34.0086C26.4395 34.1654 26.3727 34.3235 26.3084 34.483H17.9051ZM28.7749 34.8926C28.669 34.8386 28.5603 34.7894 28.4489 34.7454C28.7363 34.1092 29.0713 33.4991 29.4494 32.9197C30.4803 31.3404 31.8315 29.9892 33.4108 28.9584C33.9902 28.5802 34.6002 28.2452 35.2364 27.9578C35.2805 28.0692 35.3296 28.178 35.3837 28.2839C36.0067 29.5044 37.2759 30.3401 38.7403 30.3401H43.2597C44.7122 30.3401 45.9726 29.5179 46.601 28.3135C46.6366 28.2452 46.6702 28.1757 46.7017 28.105C47.3292 28.4081 47.9298 28.7581 48.4989 29.1505C50.0006 30.1859 51.2832 31.5164 52.263 33.0581C52.3655 33.2193 52.4647 33.3829 52.5604 33.5487C52.8097 33.9801 53.0358 34.4266 53.2372 34.8865C52.0101 35.5073 51.1688 36.78 51.1688 38.2492V42.3921C51.1688 43.8613 52.0101 45.134 53.2372 45.7548C53.0358 46.2146 52.8097 46.6611 52.5604 47.0926C52.4647 47.2584 52.3655 47.4219 52.263 47.5832C51.2832 49.1249 50.0006 50.4553 48.4989 51.4908C47.9298 51.8832 47.3292 52.2332 46.7017 52.5363C46.6702 52.4656 46.6366 52.396 46.601 52.3277C45.9726 51.1234 44.7122 50.3012 43.2597 50.3012H38.7403C37.2759 50.3012 36.0067 51.1369 35.3837 52.3574C35.3297 52.4633 35.2805 52.5721 35.2364 52.6834C34.6002 52.3961 33.9902 52.061 33.4108 51.6829C31.8315 50.6521 30.4803 49.3009 29.4494 47.7215C29.0713 47.1422 28.7363 46.5321 28.4489 45.8959C28.5603 45.8519 28.669 45.8027 28.7749 45.7486C29.9954 45.1256 30.8312 43.8564 30.8312 42.3921V38.2492C30.8312 36.7848 29.9954 35.5157 28.7749 34.8926ZM34.974 54.8239C34.8147 54.7597 34.6566 54.6929 34.4999 54.6237C30.942 53.0513 28.0811 50.1904 26.5087 46.6325C26.4394 46.4758 26.3727 46.3177 26.3084 46.1583H17.9051C18.0838 46.8619 18.2942 47.5529 18.5345 48.2297C20.9097 54.9195 26.2128 60.2227 32.9026 62.5979C33.5794 62.8382 34.2704 63.0485 34.974 63.2273V54.8239ZM37.0455 53.7418L37.1628 53.4449C37.4125 52.8134 38.0274 52.3726 38.7403 52.3726H43.2597C43.9472 52.3726 44.5436 52.7821 44.8096 53.3793L44.9545 53.7047V65.3661C44.9545 66.3021 44.1958 67.0609 43.2597 67.0609H38.7403C37.8042 67.0609 37.0455 66.3021 37.0455 65.3661V53.7418ZM66.2338 44.0869C67.1698 44.0869 67.9286 43.3281 67.9286 42.3921V38.2492C67.9286 37.3132 67.1698 36.5544 66.2338 36.5544H54.529L54.1723 36.7348C53.615 37.0168 53.2403 37.5911 53.2403 38.2492V42.3921C53.2403 43.0502 53.615 43.6245 54.1723 43.9064L54.529 44.0869H66.2338ZM55.3149 46.1583C55.2731 46.2621 55.2302 46.3654 55.1862 46.4681C53.6833 49.9778 50.9325 52.8261 47.4919 54.4551C47.3379 54.528 47.1826 54.5984 47.026 54.6664V63.1282C47.7301 62.9369 48.4211 62.7137 49.0974 62.4605C55.6094 60.0224 60.7585 54.7935 63.0889 48.2297C63.3292 47.5529 63.5395 46.8619 63.7183 46.1583H55.3149Z" fill="#00ADFF"/>
</svg>
