<svg width="80" height="81" viewBox="0 0 80 81" fill="none" xmlns="http://www.w3.org/2000/svg">
<path fill-rule="evenodd" clip-rule="evenodd" d="M59.999 24.8947C59.9338 23.2831 58.6255 21.905 57.0215 21.7572C56.9651 21.752 55.6198 21.6266 54.2813 21.4418C52.0826 21.1394 50.02 20.742 48.1515 20.2605C46.2898 19.7816 44.5976 19.2145 43.1198 18.5742C41.5883 17.9105 39.9837 16.7512 39.9665 16.7381C39.4287 16.348 38.7297 16.1323 37.9994 16.1323C37.2686 16.1323 36.5701 16.348 36.0297 16.7407C36.0146 16.7522 34.4142 17.9094 32.8806 18.5748C31.4054 19.2145 29.7127 19.7816 27.8478 20.261C25.9793 20.742 23.9167 21.1399 21.718 21.4423C20.4748 21.6139 19.2266 21.7338 19.0093 21.7547C18.9925 21.7563 18.9819 21.7573 18.9779 21.7577C17.3738 21.9055 16.0655 23.2774 16.0014 24.8733L16.0009 24.8809C15.9963 24.963 16.0018 25.0457 16.1855 27.8447C16.4325 31.6132 17.1001 36.8184 18.7988 42.1529L21.1696 41.243C19.5768 36.1859 18.9485 31.2576 18.7134 27.6771C18.5856 25.7318 18.5465 25.1349 18.5355 24.9511C18.5757 24.632 18.896 24.3114 19.2225 24.2816C19.5689 24.2487 20.7984 24.1286 22.0628 23.9552C24.357 23.6393 26.516 23.2231 28.479 22.7175L28.5228 22.7061C30.4967 22.1958 32.301 21.589 33.8873 20.9013C35.7057 20.1127 37.5038 18.8035 37.5211 18.791C37.7381 18.6327 38.2618 18.6332 38.4767 18.7904L38.479 18.7921C38.5543 18.8466 40.3226 20.1257 42.1157 20.9033C43.7129 21.5953 45.5308 22.2058 47.5198 22.7175C49.4827 23.2225 51.6413 23.6393 53.9365 23.9552C55.2004 24.1291 56.4299 24.2492 56.7888 24.2826C57.1049 24.3119 57.4195 24.6284 57.4644 24.9563L57.2859 27.6781C56.9824 32.3113 56.0194 39.1994 53.1619 45.7042C50.8745 50.9102 47.7426 54.9841 43.8548 57.8114C42.0891 59.0935 39.2284 60.3614 39.1079 60.4136C38.5815 60.6434 37.4167 60.6434 36.8914 60.4136L36.8835 60.4101L36.8835 60.4101C36.6787 60.3189 33.8827 59.0737 32.144 57.8114C29.2659 55.7173 26.8023 52.941 24.7949 49.544L22.4 50.4631C24.6268 54.3388 27.3929 57.4909 30.6553 59.8627C32.6135 61.2863 35.5467 62.5934 35.8753 62.7375C36.458 62.9913 37.2122 63.1323 37.9994 63.1323C38.7866 63.1323 39.5408 62.9913 40.1235 62.7365C40.4516 62.5923 43.3848 61.2852 45.3425 59.8622C49.5986 56.7675 53.0096 52.3469 55.4816 46.7236C58.4873 39.8809 59.4966 32.68 59.8149 27.8442C59.9991 25.0212 60.0031 24.9598 59.9993 24.8988L59.999 24.8947ZM47.9758 30.9253C47.45 30.5018 46.6159 30.5937 46.1949 31.1185L36.8962 42.6884L31.1754 37.533C30.6746 37.0828 29.8358 37.1272 29.3867 37.627C29.1603 37.8787 29.0456 38.2041 29.0633 38.5425C29.0815 38.8809 29.2297 39.1921 29.4816 39.4182L35.8216 45.1319C36.143 45.4222 36.5577 45.5815 36.9896 45.5815C37.0269 45.5815 37.0636 45.5801 37.1027 45.5775C37.1111 45.577 37.1197 45.5764 37.1283 45.5757C37.6025 45.5366 38.0464 45.3011 38.3459 44.9277L48.1688 32.7087C48.3801 32.4445 48.4782 32.1139 48.4411 31.7771C48.4051 31.4402 48.2393 31.1373 47.9758 30.9253Z" fill="#00ADFF"/>
</svg>
