<svg width="80" height="81" viewBox="0 0 80 81" fill="none" xmlns="http://www.w3.org/2000/svg">
<path fill-rule="evenodd" clip-rule="evenodd" d="M47.3583 60.572C50.1284 60.572 52.374 58.3524 52.374 55.6144C52.374 52.8764 50.1284 50.6568 47.3583 50.6568C44.5881 50.6568 42.3425 52.8764 42.3425 55.6144C42.3425 58.3524 44.5881 60.572 47.3583 60.572ZM47.3583 62.6695C51.3004 62.6695 54.4961 59.5108 54.4961 55.6144C54.4961 51.718 51.3004 48.5593 47.3583 48.5593C43.4162 48.5593 40.2205 51.718 40.2205 55.6144C40.2205 59.5108 43.4162 62.6695 47.3583 62.6695Z" fill="#00ADFF"/>
<path fill-rule="evenodd" clip-rule="evenodd" d="M23.5913 15C21.0834 15 19.0386 17.0212 19.0386 19.5V50.0085H21.0449V24.0763H49.326V48.8308C50.0787 49.0438 50.7807 49.3758 51.4094 49.805V19.5C51.4094 17.0212 49.3645 15 46.8567 15H23.5913ZM51.4094 61.4239C50.7857 61.8496 50.09 62.1798 49.3441 62.3929L49.326 64.5C49.326 65.911 48.2071 67.0169 46.8181 67.0169H23.5528C22.2024 67.0169 21.0449 65.8729 21.0449 64.5V60H41.7667C41.2914 59.4087 40.9101 58.7404 40.645 58.017H19V64.5C19 66.9788 21.0449 69 23.5528 69H46.8567C49.3645 69 51.4094 66.9788 51.4094 64.5V61.4239ZM49.3645 22.0551H21.0449V19.5C21.0449 18.1271 22.1638 16.983 23.5528 16.983H46.8567C48.2071 16.983 49.3645 18.1271 49.3645 19.5V22.0551ZM38.9472 18.356H31.5007V20.339H38.9472V18.356ZM34.4717 63.7373C34.4717 63.3178 34.7803 62.9746 35.2047 62.9746C35.6292 62.9746 35.9764 63.3178 35.9378 63.7373C35.9378 64.1568 35.6292 64.5 35.2047 64.5C34.8189 64.5 34.4717 64.1568 34.4717 63.7373ZM35.2047 60.9915C33.6614 60.9915 32.4268 62.2119 32.4268 63.7373C32.4268 65.2627 33.6614 66.4831 35.2047 66.4831C36.748 66.4831 37.9827 65.2627 37.9827 63.7373C37.9827 62.2119 36.748 60.9915 35.2047 60.9915Z" fill="#00ADFF"/>
<path fill-rule="evenodd" clip-rule="evenodd" d="M38.8701 43.7924C40.7879 43.7924 42.3425 42.2557 42.3425 40.3602C42.3425 38.4646 40.7879 36.928 38.8701 36.928C36.9523 36.928 35.3976 38.4646 35.3976 40.3602C35.3976 42.2557 36.9523 43.7924 38.8701 43.7924ZM38.8701 45.8898C41.9598 45.8898 44.4646 43.4141 44.4646 40.3602C44.4646 37.3062 41.9598 34.8305 38.8701 34.8305C35.7803 34.8305 33.2756 37.3062 33.2756 40.3602C33.2756 43.4141 35.7803 45.8898 38.8701 45.8898Z" fill="#00ADFF"/>
<path fill-rule="evenodd" clip-rule="evenodd" d="M62.4055 47.2246C64.3233 47.2246 65.878 45.6879 65.878 43.7924C65.878 41.8968 64.3233 40.3602 62.4055 40.3602C60.4877 40.3602 58.9331 41.8968 58.9331 43.7924C58.9331 45.6879 60.4877 47.2246 62.4055 47.2246ZM62.4055 49.322C65.4953 49.322 68 46.8463 68 43.7924C68 40.7384 65.4953 38.2627 62.4055 38.2627C59.3158 38.2627 56.811 40.7384 56.811 43.7924C56.811 46.8463 59.3158 49.322 62.4055 49.322Z" fill="#00ADFF"/>
<path fill-rule="evenodd" clip-rule="evenodd" d="M43.3469 50.8955L39.4887 44.1158L41.3382 43.0875L45.1965 49.8672L43.3469 50.8955ZM60.1714 47.0926L53.0336 52.6919L51.7145 51.049L58.8523 45.4497L60.1714 47.0926Z" fill="#00ADFF"/>
</svg>
