<svg width="80" height="81" viewBox="0 0 80 81" fill="none" xmlns="http://www.w3.org/2000/svg">
<path fill-rule="evenodd" clip-rule="evenodd" d="M63.8143 25.663H17.1857C17.0851 25.663 17.0036 25.7441 17.0036 25.8441V54.0841C17.0036 54.1841 17.0851 54.2651 17.1857 54.2651H63.8143C63.9149 54.2651 63.9964 54.1841 63.9964 54.0841V25.8441C63.9964 25.7441 63.9149 25.663 63.8143 25.663ZM17.1857 23.6718C15.9786 23.6718 15 24.6443 15 25.8441V54.0841C15 55.2838 15.9786 56.2564 17.1857 56.2564H63.8143C65.0214 56.2564 66 55.2838 66 54.0841V25.8441C66 24.6443 65.0214 23.6718 63.8143 23.6718H17.1857Z" fill="#00ADFF"/>
<path d="M46.6984 20.6427C45.0402 19.0025 42.8349 18.0995 40.4892 18.0995C38.1435 18.0995 35.9382 19.0032 34.2799 20.6434C33.8807 21.0383 33.2328 21.0383 32.8342 20.6434C32.4357 20.2485 32.4357 19.609 32.8342 19.2141C34.8788 17.1911 37.5971 16.0772 40.4892 16.0772C43.3806 16.0765 46.0989 17.1904 48.1434 19.2128C48.3431 19.4102 48.4425 19.669 48.4425 19.9277C48.4425 20.1865 48.3431 20.4453 48.1434 20.6427C47.7442 21.0376 47.0977 21.0376 46.6984 20.6427Z" fill="#00ADFF"/>
<path d="M50.7426 16.6243C50.3433 17.0192 49.6968 17.0192 49.2976 16.6243C44.4407 11.8203 36.5377 11.8203 31.6801 16.6237C31.2809 17.0186 30.6337 17.0186 30.2351 16.6237C29.8359 16.2288 29.8359 15.5893 30.2351 15.1944C35.8891 9.60187 45.0892 9.60187 50.7426 15.1944C50.9422 15.3918 51.0416 15.6506 51.0416 15.9094C51.0416 16.1681 50.9422 16.4269 50.7426 16.6243Z" fill="#00ADFF"/>
<path d="M48.4432 60.0723C48.4432 60.331 48.3438 60.5898 48.1441 60.7872C46.0996 62.8095 43.3806 63.9235 40.4899 63.9235C37.5985 63.9228 34.8795 62.8089 32.8349 60.7859C32.4364 60.391 32.4357 59.7508 32.8349 59.3559C33.2342 58.961 33.8814 58.961 34.2806 59.3559C35.9389 60.9968 38.1442 61.9012 40.4899 61.9012C42.8355 61.9012 45.0402 60.9975 46.6991 59.3573C47.0984 58.9624 47.7449 58.9624 48.1441 59.3573C48.3438 59.5547 48.4432 59.8135 48.4432 60.0723Z" fill="#00ADFF"/>
<path d="M50.7432 63.3763C50.9429 63.5738 51.0423 63.8325 51.0423 64.0913C51.0423 64.3501 50.9422 64.6088 50.7439 64.8056C45.0899 70.3981 35.8905 70.3981 30.2365 64.8056C29.8373 64.4107 29.8373 63.7712 30.2365 63.3763C30.6351 62.9814 31.2823 62.9814 31.6815 63.3763C36.5384 68.1804 44.4413 68.1804 49.2982 63.3763C49.6975 62.9814 50.344 62.9814 50.7432 63.3763Z" fill="#00ADFF"/>
<path fill-rule="evenodd" clip-rule="evenodd" d="M31.3018 32.8473V24.9389H33.3054V32.8473C33.3054 32.9673 33.3533 33.0824 33.4387 33.1673L39.0227 38.717L37.6059 40.125L32.022 34.5754C31.5609 34.117 31.3018 33.4954 31.3018 32.8473ZM52.8857 31.1843C52.6342 31.1843 52.4304 31.387 52.4304 31.6369V37.4297C52.4304 37.6797 52.6342 37.8823 52.8857 37.8823H59.0786C59.3301 37.8823 59.5339 37.6797 59.5339 37.4297V31.6369C59.5339 31.387 59.3301 31.1843 59.0786 31.1843H52.8857ZM50.4268 31.6369C50.4268 30.2872 51.5277 29.193 52.8857 29.193H59.0786C60.4366 29.193 61.5375 30.2872 61.5375 31.6369V37.4297C61.5375 38.7794 60.4366 39.8736 59.0786 39.8736H52.8857C51.5277 39.8736 50.4268 38.7794 50.4268 37.4297V35.1669H42.6857V33.1756H50.4268V31.6369ZM24.2691 31.657L30.9459 38.2928C31.407 38.7511 31.6661 39.3727 31.6661 40.0209V54.4462H29.6625V40.0209C29.6625 39.9008 29.6145 39.7857 29.5291 39.7009L22.8523 33.065L24.2691 31.657ZM24.5625 45.0328V54.4462H22.5589V45.0328H24.5625ZM43.2321 46.3905H64.725V48.3818H43.2321V46.3905Z" fill="#00ADFF"/>
<path d="M42.1393 33.9902C42.1393 35.2899 43.1994 36.3436 44.5071 36.3436C45.8149 36.3436 46.875 35.2899 46.875 33.9902C46.875 32.6905 45.8149 31.6369 44.5071 31.6369C43.1994 31.6369 42.1393 32.6905 42.1393 33.9902Z" fill="#00ADFF"/>
<path d="M38.8607 47.3861C38.8607 48.6859 39.9208 49.7395 41.2286 49.7395C42.5363 49.7395 43.5964 48.6859 43.5964 47.3861C43.5964 46.0864 42.5363 45.0328 41.2286 45.0328C39.9208 45.0328 38.8607 46.0864 38.8607 47.3861Z" fill="#00ADFF"/>
<path d="M35.0357 38.6969C35.0357 39.9966 36.0958 41.0502 37.4036 41.0502C38.7113 41.0502 39.7714 39.9966 39.7714 38.6969C39.7714 37.3972 38.7113 36.3436 37.4036 36.3436C36.0958 36.3436 35.0357 37.3972 35.0357 38.6969Z" fill="#00ADFF"/>
<path d="M21.7393 32.9041C21.7393 34.2038 22.7994 35.2574 24.1071 35.2574C25.4149 35.2574 26.475 34.2038 26.475 32.9041C26.475 31.6044 25.4149 30.5507 24.1071 30.5507C22.7994 30.5507 21.7393 31.6044 21.7393 32.9041Z" fill="#00ADFF"/>
<path d="M21.1929 44.3087C21.1929 45.6084 22.253 46.662 23.5607 46.662C24.8684 46.662 25.9286 45.6084 25.9286 44.3087C25.9286 43.009 24.8684 41.9554 23.5607 41.9554C22.253 41.9554 21.1929 43.009 21.1929 44.3087Z" fill="#00ADFF"/>
</svg>
