<svg width="80" height="80" viewBox="0 0 80 80" fill="none" xmlns="http://www.w3.org/2000/svg">
<path fill-rule="evenodd" clip-rule="evenodd" d="M39.625 15.0005C31.2027 15.0005 24.375 21.8281 24.375 30.2505C24.375 38.6728 31.2027 45.5005 39.625 45.5005C48.0473 45.5005 54.875 38.6728 54.875 30.2505C54.875 21.8281 48.0473 15.0005 39.625 15.0005ZM22.375 30.2505C22.375 20.7236 30.0981 13.0005 39.625 13.0005C49.1519 13.0005 56.875 20.7236 56.875 30.2505C56.875 39.7774 49.1519 47.5005 39.625 47.5005C30.0981 47.5005 22.375 39.7774 22.375 30.2505Z" fill="#00ADFF"/>
<path fill-rule="evenodd" clip-rule="evenodd" d="M52.625 34.5005C44.2027 34.5005 37.375 41.3281 37.375 49.7505C37.375 58.1728 44.2027 65.0005 52.625 65.0005C61.0473 65.0005 67.875 58.1728 67.875 49.7505C67.875 41.3281 61.0473 34.5005 52.625 34.5005ZM35.375 49.7505C35.375 40.2236 43.0981 32.5005 52.625 32.5005C62.1519 32.5005 69.875 40.2236 69.875 49.7505C69.875 59.2774 62.1519 67.0005 52.625 67.0005C43.0981 67.0005 35.375 59.2774 35.375 49.7505Z" fill="#00ADFF"/>
<path fill-rule="evenodd" clip-rule="evenodd" d="M28.25 34.5005C19.8277 34.5005 13 41.3281 13 49.7505C13 53.5868 14.4153 57.0901 16.7536 59.7705L15.2464 61.0853C12.6025 58.0545 11 54.0884 11 49.7505C11 40.2236 18.7231 32.5005 28.25 32.5005C37.7769 32.5005 45.5 40.2236 45.5 49.7505C45.5 59.2774 37.7769 67.0005 28.25 67.0005V65.0005C36.6723 65.0005 43.5 58.1728 43.5 49.7505C43.5 41.3281 36.6723 34.5005 28.25 34.5005Z" fill="#00ADFF"/>
</svg>
