<svg width="215" height="80" viewBox="0 0 215 80" fill="none" xmlns="http://www.w3.org/2000/svg">
<g clip-path="url(#clip0_111_4380)">
<path d="M157.521 28.0428C158.333 28 159.146 28 159.959 28.0214C157.521 33.113 155.167 38.2474 152.793 43.3604H150.803C149.712 40.7932 148.428 38.2902 147.295 35.723C148.086 35.7016 148.878 35.7016 149.669 35.723C150.354 37.3061 151.167 38.825 151.787 40.4082C153.691 36.2792 155.659 32.1717 157.521 28.0428Z" fill="white"/>
<path d="M96.2711 30.2249C97.8328 30.2463 99.4159 30.2463 100.978 30.2249C100.956 31.6155 100.956 33.0275 100.978 34.418C99.4159 34.3966 97.8328 34.418 96.2497 34.3966C96.2925 33.0061 96.2497 31.6155 96.2711 30.2249ZM72.5886 36.2151C75.7976 34.3966 80.4614 35.017 82.6221 38.1619C83.9485 40.0231 84.3336 42.3764 84.3122 44.6013C80.6325 44.6227 76.9529 44.6013 73.2732 44.6227C73.4443 45.7565 73.9364 46.9546 74.9847 47.5536C76.4822 48.4307 78.8355 48.174 79.5842 46.4411C81.1032 46.3983 82.6007 46.3983 84.1197 46.4411C83.649 48.174 82.3868 49.6501 80.8037 50.4631C79.0922 51.4044 77.0384 51.5756 75.1344 51.2547C73.1234 50.9338 71.2622 49.7999 70.1284 48.1098C68.8875 46.3128 68.5666 44.0237 68.8448 41.9057C69.1229 39.5738 70.5134 37.3703 72.5886 36.2151ZM75.0916 38.8893C74.0434 39.3813 73.5299 40.5152 73.2946 41.6062H79.5842C79.4559 40.7719 79.1564 39.8947 78.5146 39.3171C77.6161 38.44 76.1827 38.4186 75.0916 38.8893ZM121.922 35.4021C124.446 34.9529 127.249 35.4877 129.196 37.242C132.512 40.1943 132.661 45.9063 129.581 49.0725C127.142 51.6183 123.056 52.089 119.932 50.6556C117.515 49.5646 115.867 47.1043 115.589 44.4943C115.482 42.9754 115.547 41.4137 116.167 40.0017C117.108 37.5843 119.397 35.83 121.922 35.4021ZM122.457 38.8893C121.13 39.3599 120.51 40.7933 120.317 42.0983C120.168 43.7242 120.189 45.564 121.237 46.9118C122.371 48.3879 124.874 48.3451 126.008 46.8904C126.949 45.7138 127.099 44.1092 126.992 42.6545C126.928 41.3709 126.479 40.0017 125.409 39.2102C124.553 38.6325 123.419 38.547 122.457 38.8893ZM138.716 36.2793C140.277 35.0598 142.502 34.9315 144.299 35.6588C145.583 36.2151 146.546 37.3489 146.995 38.6539C147.508 40.0017 147.359 41.4565 147.359 42.8684C147.359 45.564 147.337 48.2596 147.38 50.9338C145.818 50.9551 144.257 50.9338 142.673 50.9551V41.7132C142.673 40.9216 142.374 40.0659 141.711 39.5738C140.705 38.8893 139.25 39.0176 138.395 39.8734C137.71 40.5579 137.411 41.542 137.432 42.4833V50.9551C135.892 50.9338 134.33 50.9551 132.79 50.9338C132.79 45.8421 132.811 40.7505 132.79 35.6588C134.309 35.6802 135.806 35.6375 137.325 35.6802C137.304 36.3862 137.304 37.0922 137.282 37.7982C137.753 37.2847 138.138 36.7071 138.716 36.2793ZM54.0405 35.7016H58.9182C59.9023 38.9748 60.9506 42.248 61.8705 45.5426C63.0044 42.3122 63.8601 38.9748 64.9298 35.7016C66.4915 35.6802 68.0746 35.7016 69.6363 35.6802C67.8393 40.7719 66.085 45.8635 64.3094 50.9551C62.6835 50.9551 61.0576 50.9338 59.4317 50.9765C57.5704 45.9063 55.9231 40.7505 54.0405 35.7016ZM85.3819 35.6802H89.8745C89.8531 36.536 89.8745 37.3917 89.8317 38.2474C90.2168 37.8196 90.4949 37.2847 90.9014 36.8783C91.9068 35.7658 93.5541 35.3166 95.0089 35.7016C94.9875 37.0494 94.9875 38.3972 95.0089 39.7236C93.8536 39.5952 92.57 39.638 91.5859 40.344C90.5377 41.0714 90.067 42.4192 90.0884 43.66C90.067 46.0988 90.0884 48.5163 90.0884 50.9551C88.5267 50.9551 86.9436 50.9338 85.3819 50.9765C85.4033 45.8635 85.4033 40.7719 85.3819 35.6802ZM96.2711 35.7016C97.8542 35.6802 99.4159 35.7016 100.999 35.6802C100.978 40.7719 100.999 45.8635 100.999 50.9551C99.4373 50.9338 97.8542 50.9551 96.2711 50.9551V35.7016ZM102.261 35.6802C106.519 35.7016 110.776 35.6802 115.012 35.7016C114.969 36.8783 115.012 38.0335 114.99 39.2102C114.841 39.5097 114.584 39.7236 114.391 39.9803C112.209 42.3978 110.07 44.8794 107.845 47.2755C110.348 47.3183 112.851 47.2755 115.354 47.2969V50.9765C110.99 50.9551 106.626 50.9551 102.261 50.9765V47.4252C104.55 44.858 106.818 42.3122 109.129 39.7664C109.193 39.638 109.471 39.5097 109.321 39.3385C106.968 39.4027 104.615 39.3385 102.261 39.3813V35.6802Z" fill="white"/>
</g>
<defs>
<clipPath id="clip0_111_4380">
<rect width="106" height="23.4472" fill="white" transform="translate(54 28)"/>
</clipPath>
</defs>
</svg>
