<svg width="215" height="80" viewBox="0 0 215 80" fill="none" xmlns="http://www.w3.org/2000/svg">
<path fill-rule="evenodd" clip-rule="evenodd" d="M65.1581 49.991C68.6698 50.1502 72.3082 48.1666 73.8739 46.1635C75.4819 44.1995 75.8199 42.9108 76.095 40.4121C76.2851 39.1624 75.9678 37.8537 75.5663 36.6637C74.9949 35.0376 73.8739 33.6297 72.541 32.5188C70.32 30.6944 66.7874 29.7622 63.635 30.2974C61.4135 30.734 59.6789 31.6066 58.3252 32.7365C57.3736 33.6092 56.7392 34.5019 56.1677 35.394C55.8505 36.0489 55.6391 36.6436 55.3848 37.318C54.454 40.2929 55.3005 43.6843 56.9714 45.8656C58.5794 47.9874 61.3083 49.4753 63.9314 49.8523C64.4179 49.9715 64.7351 49.991 65.1581 49.991ZM82.2091 49.7928V33.6292H86.673V49.7928H91.3692V33.6292H92.0886C94.4153 33.6092 95.854 34.8984 95.8748 36.6832V49.7922H100.275V36.3463C100.127 32.3601 96.4884 30.0791 93.2309 30.0596H77.5758V49.7928H82.2091ZM107.34 49.8323V41.7207L107.319 33.6092H112.036C113.919 33.6092 114.3 33.6688 115.253 34.5214C116.014 35.2548 116.056 36.3062 115.548 37.4962C115.253 38.3488 114.067 39.2215 112.227 39.2415H108.525L116.691 49.7922H121.811L115.866 41.8394C116.289 41.8394 117.22 41.562 117.792 41.0859C118.722 40.372 119.442 39.4197 119.844 38.1311C120.308 36.505 120.097 34.1249 118.848 32.4982C116.903 30.0786 113.517 30.0591 112.714 30.0591H102.834V49.8318H107.34V49.8323ZM143.98 49.8128H148.211L148.189 33.6888H151.997C154.239 33.6493 155.974 34.9184 155.974 36.6837L155.996 49.8128H160.226V36.3067C160.226 32.3601 156.545 30.1983 153.202 30.1983H143.979V49.8128H143.98ZM64.7987 45.8266C65.9202 45.9458 66.5546 45.9458 67.2525 45.6874C68.8599 45.0926 70.0236 44.2991 70.8914 43.03C71.0393 42.8317 71.4201 42.276 71.5258 41.7608C71.8858 40.3725 71.843 39.3807 71.4201 38.1316C71.293 37.8342 71.1872 37.5759 71.0393 37.3185C70.1929 35.9302 68.9876 35.0376 67.464 34.5224C65.2852 33.9071 62.8735 34.5024 61.3926 35.6924C59.8274 36.9421 59.0445 38.8856 59.3409 40.8291C59.468 41.5431 59.8066 42.3361 60.1238 42.9509C61.4984 45.0927 63.2121 45.6284 64.7987 45.8266ZM131.837 34.1053C128.453 34.1053 125.661 36.7233 125.661 39.9164C125.661 43.1296 128.453 45.7275 131.837 45.7275C135.243 45.7275 138.014 43.1296 138.014 39.9164C138.014 36.7233 135.243 34.1053 131.837 34.1053ZM131.837 30C125.999 30 121.217 34.4423 121.217 39.9365C121.217 45.4101 125.999 49.8724 131.837 49.8724C137.655 49.8724 142.415 45.4101 142.415 39.9365C142.415 34.4423 137.655 30 131.837 30Z" fill="white"/>
</svg>
