<svg width="215" height="80" viewBox="0 0 215 80" fill="none" xmlns="http://www.w3.org/2000/svg">
<path d="M106.938 18.1445C107.59 18.1408 108.238 17.9933 108.885 18.1308C111.746 18.3845 114.567 19.1708 117.112 20.5108C120.405 22.197 123.237 24.7608 125.292 27.8333C127.388 30.9583 128.629 34.6383 128.909 38.3883C128.863 39.3808 128.834 40.3795 128.931 41.3695C128.726 44.2208 128.012 47.0483 126.739 49.6158C125.288 52.5995 123.139 55.2395 120.523 57.2795C117.263 59.8358 113.263 61.4345 109.136 61.8134C108.507 61.8584 107.879 61.9746 107.247 61.9259C106.828 61.8983 106.399 62.0321 105.997 61.8608C107.538 57.5246 109.078 53.187 110.633 48.8545C112.326 48.8233 114.02 48.8658 115.712 48.8345C116.792 48.797 117.86 48.1394 118.215 47.0895C119.646 43.0595 121.113 39.0408 122.5 34.9933C122.727 34.382 122.853 33.7008 122.672 33.0608C122.427 32.2495 121.685 31.6758 120.887 31.4608C120.195 31.2458 119.463 31.3245 118.751 31.312C116.578 31.3058 114.406 31.3233 112.235 31.302C112.2 31.3745 112.128 31.5183 112.093 31.5895C108.576 41.4695 105.065 51.3521 101.533 61.227C97.9059 60.2858 94.5259 58.4008 91.8309 55.7958C88.5846 52.6894 86.3309 48.5583 85.4971 44.142C85.2359 42.8158 85.1409 41.4658 85.0684 40.1195C85.1271 37.3158 85.5871 34.4995 86.6434 31.892C89.2196 25.3058 95.1809 20.1195 102.111 18.637C98.5634 28.4733 95.0984 38.3395 91.5521 48.177C91.7784 48.2458 92.0159 48.2195 92.2484 48.2219C93.5409 48.2156 94.8346 48.2245 96.1271 48.2194C96.3034 48.2181 96.2846 47.9731 96.3584 47.8606C97.9159 43.4631 99.4921 39.0719 101.055 34.6769C101.148 34.4044 101.236 34.1294 101.361 33.8706C102.171 33.8844 102.981 33.8669 103.791 33.8794C102.092 38.6431 100.408 43.4144 98.6846 48.1693C98.8646 48.2418 99.0609 48.2193 99.2496 48.2231C100.607 48.2105 101.965 48.2318 103.322 48.2131C104.856 43.8844 106.408 39.5631 107.946 35.2369C108.275 34.3519 108.303 33.3056 107.781 32.4894C107.325 31.7669 106.458 31.4219 105.632 31.3881C104.502 31.3544 103.371 31.3906 102.24 31.3706C103.795 26.9583 105.396 22.562 106.938 18.1445Z" fill="white"/>
<path d="M115.944 33.9263C116.079 33.7738 116.319 33.8663 116.499 33.8401C117.126 33.8513 117.753 33.8351 118.381 33.8488C116.92 38.0201 115.39 42.1676 113.952 46.3476C113.14 46.4051 112.321 46.3701 111.507 46.3651C112.991 42.2213 114.46 38.0713 115.944 33.9263Z" fill="white"/>
</svg>
