<svg width="215" height="80" viewBox="0 0 215 80" fill="none" xmlns="http://www.w3.org/2000/svg">
<g clip-path="url(#clip0_694_2541)">
<path d="M95.3542 34.0634H99.5481L100.223 30.6719H96.0282L95.3542 34.0634ZM94.9198 36.2453H99.1146L96.4498 49.6366C96.2558 49.704 95.6548 49.9424 94.826 49.9424C93.7067 49.9424 92.6804 49.5073 92.6804 47.9636C92.6804 47.6732 92.7141 47.3419 92.7887 46.9669C93.622 42.788 94.9198 36.2453 94.9198 36.2453V36.2453ZM136.572 35.9394C133.78 35.9394 132.67 37.5715 132.149 38.5645H132.1L132.261 36.248H128.116C128.088 36.7568 127.909 38.3634 127.643 39.7487C127.643 39.7487 126.686 44.6094 126.505 45.5396C126.367 46.2505 126.114 47.3019 126.114 47.9117C126.114 49.2106 126.775 49.9424 128.248 49.9424C129.074 49.9424 129.668 49.7176 129.885 49.6366L131.271 42.6624C131.656 40.7363 133.051 39.4766 134.711 39.4766C136.049 39.4766 136.689 40.4505 136.689 41.247C136.689 41.9406 136.515 42.7088 136.38 43.3888L135.784 46.3752C135.713 46.7339 135.561 47.4229 135.561 47.9627C135.561 49.2825 136.307 49.9424 137.724 49.9424C138.497 49.9424 138.987 49.7495 139.335 49.6366L140.579 43.3842C140.848 41.9715 140.948 41.227 140.948 40.3277C140.948 37.739 139.431 35.9394 136.572 35.9394V35.9394ZM117.939 39.1771C115.594 39.1771 114.295 41.5692 114.295 43.7019C114.295 45.5014 115.11 46.7057 116.959 46.7057C119.051 46.7057 120.689 44.9289 120.689 41.8969C120.689 40.5097 119.948 39.1771 117.939 39.1771V39.1771ZM116.702 49.9433C112.212 49.9433 110.062 47.2545 110.062 43.8275C110.062 39.1252 113.297 35.9394 118.295 35.9394C122.632 35.9394 124.935 38.56 124.935 41.926C124.935 46.9705 121.481 49.9433 116.702 49.9433V49.9433ZM100.994 46.7184C100.899 47.2008 100.839 47.5385 100.839 47.9527C100.839 49.4882 101.867 49.9424 102.956 49.9424C103.827 49.9424 104.366 49.7049 104.563 49.6366L106.581 39.4857L109.842 39.4848L110.486 36.2453H107.225L107.383 35.447C107.678 33.9506 108.383 33.2925 109.604 33.2925C110.42 33.2925 111.079 33.4372 111.308 33.4973L111.922 30.4152C111.661 30.3497 110.455 30.0548 108.672 30.0548C105.829 30.0548 103.967 31.7778 103.416 34.5531L103.08 36.2453H100.956L100.311 39.4848H102.436C102.436 39.4848 101.598 43.6819 100.994 46.7184V46.7184ZM91.3389 35.9394C89.2333 35.9394 88.0758 37.3985 87.6222 38.5627H87.574L87.7361 36.2453H83.5886C83.5522 37.0481 83.3837 38.4062 82.9612 40.5425C82.5331 42.707 82.116 44.8652 81.6852 46.966C81.6115 47.3255 81.5787 47.6769 81.5787 47.9745C81.5787 49.075 82.1233 49.9415 83.7325 49.9415C84.5303 49.9415 85.084 49.7349 85.35 49.6366L86.584 43.4279C87.0284 41.0531 87.8353 39.483 90.1777 39.483C91.2432 39.483 92.256 39.7096 92.4673 39.7715L93.1776 36.1997C93.0237 36.147 92.4099 35.9394 91.3389 35.9394V35.9394ZM152.18 41.673C152.404 40.4451 151.69 39.1771 150.072 39.1771C148.098 39.1771 147.23 40.5234 146.843 41.673H152.18ZM154.052 46.6556C154.052 48.5188 152.245 49.947 149.047 49.947C144.624 49.947 142.462 47.1972 142.462 43.8311C142.462 40.4897 144.684 35.9422 150.108 35.9422C153.683 35.9422 156.357 37.7153 156.357 41.7758C156.357 42.7734 156.134 43.8584 156.038 44.2935H146.534C146.518 45.2675 147.34 46.956 150.643 46.956C152.117 46.956 153.783 46.4362 154.052 46.3042V46.6556V46.6556ZM76.3885 41.673C76.6125 40.4451 75.8967 39.1771 74.2802 39.1771C72.3048 39.1771 71.4378 40.5234 71.0508 41.673H76.3885ZM78.26 46.6556C78.26 48.5188 76.4532 49.947 73.2547 49.947C68.8322 49.947 66.6702 47.1972 66.6702 43.8311C66.6702 40.4897 68.8914 35.9422 74.3148 35.9422C77.8912 35.9422 80.5641 37.7153 80.5641 41.7758C80.5641 42.7734 80.3419 43.8584 80.2463 44.2935H70.7411C70.7256 45.2675 71.548 46.956 74.8512 46.956C76.3238 46.956 77.9914 46.4362 78.26 46.3042V46.6556V46.6556ZM53.0549 31.6886H57.2743V45.0035C57.2743 47.0051 58.2724 48.0273 59.8753 48.0273C60.0392 48.0273 60.1349 48.0064 60.1667 47.9991C59.4646 49.0604 58.5539 49.9306 56.4628 49.9306C54.2498 49.9306 53.0549 48.3969 53.0549 46.0967V31.6886V31.6886Z" fill="white"/>
<path d="M58.4498 43.6278V45.0259C58.4498 46.3758 59.1802 46.8591 59.978 46.8591C60.7931 46.8591 61.2293 46.3066 61.6292 45.6804C62.3004 44.6291 70.4959 31.6883 70.4959 31.6883H66.1099L58.4498 43.6278Z" fill="white"/>
<path d="M160.148 37.8367H160.613C161.043 37.8367 161.257 37.6292 161.257 37.377C161.257 37.2241 161.179 37.0002 160.779 37.0002H160.315L160.148 37.8367ZM160.135 36.8009H160.82C161.233 36.8009 161.482 37.022 161.482 37.3452C161.482 37.8831 160.981 37.996 160.746 38.0224L161.206 39.152H160.956L160.517 38.036H160.108L159.887 39.152H159.667L160.135 36.8009V36.8009ZM160.319 39.8438C161.451 39.8438 162.234 39.0291 162.344 38.0187C162.455 37.0093 161.728 36.1937 160.717 36.1937C159.596 36.1937 158.803 37.0093 158.693 38.0187C158.583 39.0291 159.309 39.8438 160.319 39.8438V39.8438ZM160.744 35.9507C161.885 35.9507 162.713 36.8791 162.588 38.0197C162.463 39.1593 161.54 40.0877 160.293 40.0877C159.153 40.0877 158.325 39.1593 158.449 38.0197C158.574 36.8791 159.526 35.9507 160.744 35.9507" fill="white"/>
</g>
<defs>
<clipPath id="clip0_694_2541">
<rect width="109.655" height="20" fill="white" transform="translate(53 30)"/>
</clipPath>
</defs>
</svg>
