<svg width="215" height="80" viewBox="0 0 215 80" fill="none" xmlns="http://www.w3.org/2000/svg">
<g clip-path="url(#clip0_111_4324)">
<path d="M124.503 55.8888C123.613 55.6663 122.898 55.1102 122.628 54.4429C122.104 53.1241 122.231 53.3148 123.534 53.3307C124.837 53.3625 124.789 53.2353 124.837 53.6802C124.964 54.6495 126.648 54.6336 127.363 53.7756C127.697 53.3783 127.76 53.0765 127.744 52.3297C127.744 51.8371 127.744 51.5352 127.697 51.6306C127.506 52.1072 126.442 52.568 125.488 52.568C124.027 52.568 123.28 52.0596 122.517 50.5978C122.215 50.0258 122.152 49.6286 122.136 48.5164C122.136 47.3088 122.183 47.0546 122.612 46.2125C122.898 45.6564 123.312 45.1321 123.629 44.9096C124.869 44.0834 126.521 44.0516 127.315 44.862L127.76 45.3069V44.9255C127.729 44.3694 127.792 44.5442 129.047 44.5442L130.207 44.5601L130.223 49.0566C130.239 52.2026 130.255 53.5213 129.953 54.0139C129.619 54.57 129.079 55.285 128.459 55.6187C127.951 55.9682 125.313 56.1112 124.503 55.8888ZM127.109 50.5978C127.586 50.0894 127.776 49.4697 127.776 48.4846C127.776 47.5313 127.458 46.5938 127.014 46.2602C126.553 45.9106 125.647 45.9901 125.25 46.4191C124.328 47.3883 124.376 49.8987 125.329 50.6455C125.901 51.0586 126.68 51.0427 127.109 50.5978ZM137.071 52.8699C136.166 52.4886 135.911 51.424 135.911 48.135V46.1966L135.403 46.1807C134.942 46.1807 134.926 46.292 134.926 45.3863C134.926 44.4171 134.942 44.5919 135.387 44.5919C136.007 44.5919 135.864 44.5601 135.895 43.7656L135.943 42.9394L137.135 42.4945C137.786 42.2562 138.342 42.0497 138.374 42.0497C138.39 42.0497 138.406 42.6216 138.406 43.3208L138.422 44.5919H140.328V46.1807H138.422V48.4846C138.422 50.5819 138.422 50.9315 138.708 51.2175C138.898 51.4081 139.264 51.424 139.613 51.424C140.297 51.424 140.138 51.424 140.17 52.1231C140.217 52.8858 140.17 52.8858 139.82 52.9176C139.28 52.9494 137.453 53.0288 137.071 52.8699ZM142.108 52.7587C140.551 51.996 140.408 49.6922 141.838 48.4369C142.457 47.8808 143.188 47.5631 144.714 47.5789C145.858 47.5948 145.81 47.4995 145.794 47.0069C145.762 46.3396 145.492 45.9106 144.952 45.7994C144.348 45.6723 143.633 45.863 143.697 46.4985C143.744 47.1182 143.681 46.9593 142.394 46.9911H141.25L141.329 46.3396C141.504 45.0526 142.6 44.4012 144.618 44.3694C146.382 44.3535 147.351 44.7984 147.907 45.8788C148.241 46.5303 148.273 46.8322 148.305 49.7239L148.352 52.8699H147.272C146.191 52.8699 145.969 52.9176 146.064 52.4727L146.001 51.8848L145.588 52.282C145.365 52.5045 144.968 52.7587 144.73 52.854C144.078 53.0924 142.712 53.0447 142.108 52.7587ZM145.19 51.0586C145.54 50.7567 145.635 50.5184 145.699 49.7557L145.778 48.8342L145.031 48.9454C143.57 49.1519 142.902 49.8352 143.315 50.7408C143.665 51.4558 144.555 51.6147 145.19 51.0586ZM107.439 46.8798V40.9057L110.426 40.9692C112.968 41.0328 113.524 41.0804 114.239 41.3664C115.51 41.8749 116.273 42.5581 116.861 43.7656C117.369 44.7984 117.544 44.8779 117.544 46.8957C117.544 48.7865 117.353 49.0407 116.972 49.8352C116.225 51.424 114.89 52.3774 112.984 52.6792C112.428 52.7746 110.95 52.8381 109.711 52.8381H107.455V46.8798H107.439ZM112.714 50.6296C114.08 50.2483 114.859 48.6117 114.716 46.4191C114.557 44.004 113.54 43.0189 111.236 43.0189H109.997V50.8044H111.077C111.649 50.7885 112.396 50.7249 112.714 50.6296ZM118.561 48.7229V44.5919H121.103V52.854H118.561V48.7229ZM131.748 48.7229V44.5919H134.132V52.854H131.748V48.7229ZM149.862 46.8957V40.9374H152.245V52.854H149.862V46.8957ZM154.009 43.6385C153.596 43.2254 153.516 43.0348 153.516 42.3833C153.516 41.7319 153.596 41.5412 154.009 41.1281C154.93 40.2066 156.455 40.4926 156.948 41.6842C157.456 42.9235 156.598 44.1311 155.216 44.1311C154.628 44.1152 154.406 44.0357 154.009 43.6385ZM156.233 43.3366C156.551 43.0189 156.694 42.717 156.694 42.3674C156.694 41.6842 155.947 40.9374 155.264 40.9374C154.66 40.9374 153.834 41.6842 153.834 42.2403C153.834 43.0824 154.549 43.7974 155.391 43.7974C155.598 43.7974 155.979 43.5909 156.233 43.3366ZM154.549 43.3843C154.485 43.3208 154.469 42.8282 154.469 42.2721V41.2711L155.423 41.3188C155.756 41.3188 156.074 41.4935 155.995 41.716C155.661 42.5581 156.09 42.3992 155.963 43.3684C155.947 43.4796 155.629 43.2095 155.566 43.003C155.502 42.7964 155.359 42.5899 155.2 42.574C154.994 42.5263 154.898 42.6375 154.898 43.003C154.914 43.4638 154.771 43.6068 154.549 43.3843ZM155.55 41.859C155.455 41.5571 154.946 41.5094 154.946 41.8113C154.946 41.9543 155.041 42.0973 155.232 42.0973C155.439 42.0973 155.582 41.9702 155.55 41.859ZM118.561 42.0497V40.9374H121.103V43.1619H118.561V42.0497ZM131.59 42.0497V40.9374H134.291V43.1619H131.59V42.0497ZM124.503 38.7289C123.613 38.4906 122.93 37.9503 122.454 37.0924C122.04 36.3297 121.993 36.1072 121.993 34.6614C121.993 33.3108 122.04 32.9613 122.358 32.3257C123.041 30.9593 124.344 30.1331 125.87 30.1331C128.348 30.1331 129.858 31.7378 129.858 34.3754V35.2175H127.157C123.995 35.1063 124.455 35.2334 124.455 35.5353C124.455 36.1867 124.884 36.9176 125.377 37.0924C126.06 37.3307 126.998 37.0765 127.188 36.5521C127.363 36.0278 127.3 36.139 128.459 36.1708C129.699 36.2026 129.54 36.0278 129.54 36.5521C129.556 37.1241 128.888 37.9662 128.142 38.3793C127.379 38.7925 125.441 38.9831 124.503 38.7289ZM127.236 32.9772C126.95 31.5789 125.202 31.3247 124.662 32.5958C124.535 32.8977 124.392 33.3267 124.392 33.422C124.392 33.5174 124.996 33.4697 125.885 33.4697H127.331L127.236 32.9772ZM132.384 38.6336C131.478 38.3476 130.652 37.5213 130.541 36.7587L130.446 36.1708H131.526C132.543 36.1708 132.686 36.0119 132.908 36.6792C133.067 37.1718 133.56 37.1559 134.036 37.1559C134.736 37.1559 135.292 36.7428 135.228 36.2661C135.165 35.8689 134.481 35.5194 132.908 35.0586C131.526 34.6614 130.843 34.1212 130.652 33.2473C130.446 32.3575 130.62 31.7696 131.224 31.15C131.923 30.4508 133.226 30.0695 134.529 30.1648C136.166 30.292 136.96 30.8322 137.31 32.0079L137.453 32.5005H136.309C135.371 32.5005 135.133 32.4528 134.974 32.1986C134.545 31.5154 133.178 31.6743 133.178 32.4052C133.178 32.85 133.592 33.1202 134.847 33.4538C136.817 33.9623 137.786 34.8361 137.786 36.0437C137.786 38.1092 134.99 39.4439 132.384 38.6336ZM139.883 38.6495C139.041 38.2681 138.898 37.6961 138.898 34.6773V32.0397H138.422C138.056 32.0238 137.945 32.3575 137.945 31.2612C137.945 30.2125 137.913 30.3714 138.39 30.435C138.946 30.4985 138.898 30.5303 138.898 29.577L138.914 28.7507L140.027 28.3376C140.646 28.1152 141.266 27.8769 141.298 27.8769C141.329 27.8769 141.266 28.576 141.298 29.2592V30.4191H143.188V32.0715H141.25L141.298 34.4548C141.329 36.0437 141.345 36.9017 141.472 37.0288C141.584 37.14 142.06 37.2195 142.457 37.2036L143.172 37.1877V37.8868C143.172 38.2681 143.236 38.6336 143.141 38.6812C143.061 38.7289 142.314 38.7925 141.631 38.8401C140.741 38.8719 140.265 38.8242 139.883 38.6495ZM145.826 38.6971C144.952 38.4588 143.935 37.3942 143.681 36.4568C143.554 35.9801 143.49 35.1698 143.538 34.2165C143.601 32.8977 143.665 32.6276 144.078 31.9444C144.364 31.4677 144.857 30.9911 145.333 30.6892C146.048 30.2443 146.239 30.2125 147.478 30.2125C148.622 30.2125 148.94 30.2761 149.496 30.5938C150.704 31.2771 151.292 32.4846 151.292 34.2006V35.2175H146.048V35.7577C146.048 36.5521 146.604 37.1559 147.367 37.1559C148.034 37.1559 148.749 36.6316 148.749 36.2661C148.749 36.0755 149.004 36.1708 149.941 36.1708H151.133L151.037 36.6157C150.704 38.0139 149.592 38.7448 147.653 38.8242C146.986 38.8401 146.16 38.7925 145.826 38.6971ZM148.749 33.0884C148.749 32.4369 148.098 31.8173 147.399 31.8173C146.7 31.8173 146.048 32.4369 146.048 33.0884C146.048 33.4697 146.08 33.4697 147.399 33.4697C148.734 33.4697 148.749 33.4697 148.749 33.0884ZM107.979 32.6753L106.533 26.7964H107.852C109.091 26.7964 109.186 26.8123 109.25 27.146C109.298 27.3366 109.695 29.2592 110.124 31.4042C110.569 33.5492 110.934 35.3605 110.966 35.4399C110.998 35.5194 111.458 33.8352 111.999 31.7061C112.539 29.577 113.063 27.5909 113.159 27.3049L113.317 26.7805L114.763 26.8282L116.209 26.8759L117.163 31.0387C117.687 33.3267 118.164 35.2334 118.211 35.281C118.259 35.3287 118.608 33.9146 118.99 32.1509C119.371 30.3873 119.784 28.4489 119.911 27.861L120.15 26.7805H121.325C122.12 26.7805 122.501 26.8441 122.501 26.9712C122.501 27.0665 121.866 29.6882 121.071 32.7706C120.293 35.853 119.641 38.4111 119.641 38.4588C119.641 38.5065 118.974 38.5382 118.179 38.5382H116.718L115.717 34.1688C115.033 31.2135 114.652 29.8788 114.573 30.0854C114.509 30.2443 114.048 31.9603 113.556 33.8828C113.063 35.8054 112.602 37.6485 112.507 37.9662L112.348 38.57H109.425L107.979 32.6753ZM152.372 34.5025L152.324 30.4508H154.612V31.7855L154.914 31.2929C155.248 30.7527 156.233 30.2761 156.996 30.2761H157.472L156.932 31.3565C156.519 32.1668 156.487 32.4528 155.995 32.5482C155.057 32.7229 154.851 33.3903 154.771 36.1072L154.787 38.5382L153.548 38.5541H152.388L152.372 34.5025ZM158.124 34.5025V30.4508H159.315C160.602 30.4508 160.491 30.3555 160.491 30.7686L160.507 31.2771L160.984 30.8798C161.969 30.0536 163.415 29.8471 164.591 30.5621C165.814 31.3088 165.83 31.3247 165.893 35.1539L165.941 38.5541H164.734L163.526 38.5382L163.494 35.6306C163.447 32.8183 163.431 32.6912 163.065 32.3098C162.271 31.4677 161.206 31.7061 160.761 32.8342C160.555 33.3426 160.507 34.0417 160.507 36.0119V38.5541H158.124V34.5025Z" fill="white"/>
<path opacity="0.98" d="M52.1616 54.7448C51.8279 54.6177 51.3036 54.2999 51.0176 54.0139C49.953 52.9811 49.9848 53.6008 50.0325 39.142L50.0801 26.0814L50.5568 25.3982C50.8428 25.001 51.3353 24.5561 51.7485 24.3496L52.4476 24H76.4873C99.9709 24 100.543 24 101.131 24.3019C102.052 24.7627 102.688 25.5889 102.894 26.574C103.022 27.1619 103.053 31.2135 103.022 39.9682C102.974 52.4409 102.974 52.5204 102.64 53.1559C102.211 53.9504 101.893 54.2522 100.988 54.6495C100.289 54.9672 100.066 54.9672 76.5191 54.9672C56.7375 54.9672 52.6859 54.9355 52.1616 54.7448ZM65.8418 42.7488C67.1288 40.1271 68.1934 37.998 68.2092 38.0139C68.2251 38.0298 68.4317 39.9523 68.67 42.2721C68.8925 44.5919 69.1149 46.721 69.1626 47.007L69.242 47.5154H72.102C73.675 47.5154 74.962 47.4836 74.962 47.4677C74.962 47.436 75.82 44.9255 76.8686 41.8908C77.9173 38.856 78.7435 36.3138 78.68 36.2661C78.6164 36.2185 77.5677 36.1708 76.3443 36.1708H74.104L73.2937 38.713C72.2927 42.2085 72.531 42.0179 72.0861 38.3635C71.9431 37.2195 71.8478 36.1867 71.7842 36.1073C71.7207 36.0119 70.3701 35.9007 68.4158 35.8371L65.1427 35.7259L63.8398 38.2205C63.1248 39.5869 62.4734 40.858 62.4416 40.8103C62.4098 40.7627 62.5528 39.6028 62.7276 38.3952C62.9024 37.2036 63.0454 36.0119 63.0454 35.853C63.0454 35.5988 63.0295 35.6147 60.8051 35.5511C59.5657 35.5194 58.533 35.4558 58.5171 35.4876C58.4853 35.5353 57.1665 47.1341 57.1665 47.4042C57.1665 47.4677 58.5965 47.5313 60.3443 47.5313H63.522L65.8418 42.7488ZM87.1805 47.293C88.817 46.9434 89.961 46.4509 91.4704 45.434C96.6343 41.9861 98.4138 35.6465 95.0772 32.6435C94.7276 32.3257 94.0444 31.8967 93.5519 31.6584L92.6621 31.2453L87.1487 31.1976L81.6353 31.15L81.1268 32.7071C80.8408 33.565 80.5707 34.3595 80.5389 34.4548C80.4754 34.6137 81.3652 34.6614 84.6541 34.6614C87.0851 34.6614 89.0871 34.7249 89.4367 34.8362C90.2311 35.0586 91.0732 35.8213 91.3115 36.5204C91.5658 37.283 91.4069 38.5065 90.9143 39.5233C90.4059 40.5561 89.0236 41.8749 87.9113 42.3833C87.0057 42.7964 84.5429 43.0189 84.1457 42.9553C84.0504 42.9394 84.4794 41.4141 85.0672 39.6822C85.6392 37.9504 86.0841 36.5204 86.0524 36.4886C86.0206 36.4568 84.6383 36.3933 82.9699 36.3297L79.9511 36.2185L78.1397 41.6683C77.1387 44.6713 76.1377 47.4201 76.249 47.4518C76.7415 47.5948 85.7664 47.5948 87.1805 47.293ZM63.4903 33.1678C63.6015 32.3575 63.7286 31.5313 63.7763 31.3406L63.8716 30.9911L61.4247 31.0387L58.9779 31.0864L58.7872 32.4211C58.6919 33.1678 58.5965 33.9623 58.5965 34.2006L58.5806 34.6455H63.2837L63.4903 33.1678ZM71.53 33.2632C71.3552 30.6733 71.6094 31.15 69.4009 31.15H67.5578L66.6363 32.8977L65.7147 34.6455H71.6571L71.53 33.2632ZM79.8875 33.1043C80.1735 32.2463 80.4277 31.4677 80.4754 31.3565C80.5389 31.1976 79.9987 31.1658 78.108 31.1658H75.6611L75.2003 32.6276C74.9461 33.4379 74.7078 34.2165 74.6601 34.3754C74.5965 34.6296 74.7713 34.6614 76.9799 34.6614H79.3632L79.8875 33.1043Z" fill="white"/>
<path opacity="0.98" d="M57.7068 47.3724C57.4685 47.3406 57.2778 47.2453 57.2778 47.1658C57.2778 47.0864 57.5638 44.5442 57.8975 41.5094C58.247 38.4747 58.5172 35.9007 58.5172 35.7736C58.5172 35.5988 58.8985 35.567 60.5827 35.6147C61.7108 35.6465 62.7118 35.7418 62.7912 35.8054C62.8707 35.8848 62.823 36.8858 62.6482 38.284C62.4894 39.571 62.4099 40.6673 62.4576 40.715C62.5052 40.7627 62.9501 40.0477 63.4427 39.1102C63.9352 38.1887 64.539 37.0606 64.7932 36.6157L65.254 35.8054H66.3662C67.5738 35.8054 71.6095 36.0755 71.689 36.139C71.7207 36.1708 71.8479 37.1718 71.9909 38.3635C72.2768 40.8898 72.3404 41.2393 72.5152 41.2393C72.5787 41.2393 72.7217 40.9374 72.833 40.572C72.9442 40.2066 73.2778 39.0943 73.5797 38.0775L74.1358 36.2502H78.5847L78.3623 36.997C78.2351 37.4101 77.4248 39.8729 76.535 42.4786C75.0892 46.7686 74.8985 47.2135 74.5489 47.3088C74.3424 47.3724 73.0554 47.4201 71.7049 47.4359C69.8459 47.4518 69.258 47.4042 69.258 47.2612C69.258 47.1499 69.0514 45.1003 68.7972 42.717C68.543 40.3337 68.3364 38.2681 68.3364 38.1728C68.3364 37.569 67.8598 38.427 65.7624 42.717L63.4427 47.4677L60.7893 47.4518C59.3275 47.4359 57.9452 47.4042 57.7068 47.3724Z" fill="black"/>
<path opacity="0.98" d="M58.676 34.3277C58.676 34.2006 58.7555 33.422 58.8508 32.6117L59.0256 31.1499H61.3295C63.4268 31.1499 63.6333 31.1817 63.6333 31.4201C63.6333 31.6107 63.2838 34.0417 63.1726 34.5343C63.1726 34.5501 62.1557 34.566 60.9163 34.566C58.9938 34.566 58.676 34.5343 58.676 34.3277Z" fill="black"/>
<path opacity="0.98" d="M66.5886 33.1996C66.9858 32.4528 67.383 31.722 67.4783 31.579C67.6055 31.3724 67.9709 31.3088 69.3373 31.2612C71.0374 31.1976 71.0533 31.2135 71.2281 31.5948C71.3234 31.8014 71.4506 32.5641 71.4823 33.2632L71.5618 34.5501H65.8418L66.5886 33.1996Z" fill="black"/>
<path opacity="0.98" d="M74.8349 34.4866C74.7872 34.4389 74.962 33.708 75.2321 32.85L75.7087 31.2929H78.0126C79.2837 31.2929 80.3165 31.3406 80.3165 31.4042C80.3165 31.4677 80.094 32.1986 79.8239 33.0407L79.3314 34.566H77.1387C75.8994 34.566 74.8666 34.5343 74.8349 34.4866Z" fill="black"/>
<path opacity="0.98" d="M76.7733 47.3724C76.5826 47.3406 76.4237 47.2612 76.4237 47.1976C76.4237 47.1341 77.234 44.6554 78.235 41.6683L80.0463 36.2502L82.1754 36.3456C85.1625 36.4727 85.9729 36.568 85.8934 36.7905C85.7345 37.2195 84.241 42.145 84.1615 42.5581L84.0662 43.003L85.3532 42.9235C87.5459 42.7805 88.5468 42.3674 89.8815 41.001C90.8189 40.0477 91.3909 38.8719 91.5022 37.6802C91.5816 36.8699 91.5339 36.6634 91.1844 36.0755C90.9461 35.6624 90.5329 35.2493 90.1198 35.0268C89.4525 34.6455 89.3572 34.6455 85.4009 34.5978C83.1764 34.566 81.2062 34.5184 81.0156 34.4707C80.6819 34.3913 80.6819 34.3913 81.2062 32.8024L81.7464 31.2135L87.2122 31.2612L92.6779 31.3088L93.5995 31.7696C95.4902 32.7229 96.523 34.2324 96.6342 36.2661C96.7296 37.8391 96.4753 38.9672 95.6174 40.6673C95.0295 41.859 94.6481 42.3515 93.4088 43.5909C90.8825 46.1172 88.8805 47.0705 85.4962 47.3088C83.5101 47.4677 77.4406 47.4995 76.7733 47.3724Z" fill="black"/>
</g>
<defs>
<clipPath id="clip0_111_4324">
<rect width="115.942" height="32" fill="white" transform="translate(50 24)"/>
</clipPath>
</defs>
</svg>
