<svg width="215" height="80" viewBox="0 0 215 80" fill="none" xmlns="http://www.w3.org/2000/svg">
<g clip-path="url(#clip0_111_4288)">
<path fill-rule="evenodd" clip-rule="evenodd" d="M157.525 44.6681L156.754 44.6844C157.354 44.2395 158.514 40.5499 159.368 37.5792C159.392 37.497 159.415 37.4153 159.439 37.334L159.482 37.1858C160.135 34.9309 160.685 33.0314 159.536 31.7216C158.241 30.2463 156 30.0938 152.651 30.0214C150.017 29.9651 147.775 30.0869 146.371 31.0056C145.441 31.6127 144.85 32.2675 144.118 34.2371C143.785 35.1315 142.728 38.3775 142.222 40.247L142.178 40.4125C141.652 42.3636 141.333 43.5471 141.771 45.0567C142.124 46.2727 142.979 47.032 144.135 47.4626C144.919 47.7549 146.144 47.8158 147.682 47.8436L147.683 47.8415C147.717 47.7917 148.323 46.9109 149.683 46.0812C150.504 45.5829 151.567 45.1989 152.295 45.0237C153.068 44.8381 154.144 44.7062 155.013 44.6873C155.682 44.6728 156.12 44.7018 156.12 44.7018C155.098 44.7928 153.88 45.0062 152.693 45.4264C151.362 45.8957 150.167 46.7698 149.417 47.8419C148.709 48.8548 148.563 50 148.563 50C148.563 50 148.688 49.7609 149.011 49.4465C149.597 48.871 150.419 48.3651 151.709 48.0959C152.537 47.9219 153.763 47.8407 155.145 47.8436C155.884 47.8466 161.055 47.8436 161.055 47.8436L162 44.6681H157.525ZM154.944 35.3183C154.81 35.891 153.673 39.7297 153.184 41.2077C153.155 41.2978 153.125 41.3886 153.095 41.4797C152.8 42.3889 152.493 43.3325 151.844 43.9267C151.214 44.5005 150.495 44.6003 149.665 44.6873C149.016 44.7551 147.998 44.6728 147.998 44.6728C147.998 44.6728 147.076 44.602 146.673 43.8669C146.377 43.3281 146.496 42.6092 146.648 42.0525C146.752 41.6654 148.447 36.0384 148.79 35.2303C148.816 35.1696 148.84 35.1112 148.863 35.0548L148.864 35.0535C149.121 34.4382 149.276 34.0663 149.78 33.6737C150.278 33.287 150.963 33.2417 151.333 33.2172C151.388 33.2136 151.435 33.2104 151.475 33.2067C152.015 33.1574 153.147 33.1951 153.147 33.1951C153.147 33.1951 154.441 33.2067 154.894 33.6807C155.26 34.0634 155.116 34.6309 154.994 35.1161C154.976 35.1855 154.959 35.2531 154.944 35.3183ZM87.4265 31.8809C86.1374 30.194 84.0749 30.0937 80.526 30.0213C78.1937 29.9753 75.5528 30.0183 74.1123 30.9969C73.3745 31.4965 72.704 32.0766 71.9976 34.046C71.6742 34.9428 70.422 38.6889 69.8891 40.5498C69.3863 42.3063 69.1508 43.7914 69.6135 45.1379C69.9736 46.19 70.6875 46.8969 71.9637 47.4711C73.2389 48.0461 77.9402 47.9115 79.6861 47.81C81.4315 47.7089 82.4847 47.2002 83.2631 46.5928C84.302 45.7825 84.8211 44.6988 85.328 43.3453C85.7434 42.238 86.3954 40.1791 87.3926 36.8195C87.9932 34.7937 88.4278 33.1921 87.4265 31.8809ZM82.5917 35.8241C82.5917 35.8241 81.2161 40.4268 80.9116 41.3597L80.88 41.4566C80.5568 42.45 80.1775 43.616 79.3076 44.2293C78.6576 44.6872 77.5981 44.6988 77.5981 44.6988C77.5981 44.6988 76.5713 44.7394 76.1446 44.6872C76.1287 44.6852 76.1063 44.6833 76.0783 44.681C75.797 44.6572 74.9549 44.5862 74.5155 43.9207C73.9555 43.0698 74.6832 41.283 74.6832 41.283C74.6832 41.283 76.3797 36.041 76.7151 35.2302C76.7555 35.1325 76.7925 35.0414 76.8272 34.9559L76.8272 34.9558C77.0805 34.3314 77.2099 34.0124 77.6558 33.6736C78.175 33.2788 79.0584 33.243 79.4665 33.2265L79.5246 33.2241C79.9211 33.2066 80.3047 33.201 80.6485 33.217C80.6569 33.2173 80.6736 33.2172 80.6976 33.2171H80.6978H80.698H80.6982C81.0051 33.2162 82.4854 33.2118 82.8268 33.8994C83.0937 34.4371 82.5917 35.8241 82.5917 35.8241ZM59.33 42.8134C59.664 45.4825 68.024 43.6406 68.024 43.6406L66.8383 47.5419C66.8383 47.5419 61.4755 48.0971 58.1129 47.7276C57.3884 47.6476 55.5157 47.3117 54.4861 45.6989C53.5795 44.2771 54.2036 41.8829 54.2847 41.5731C54.8 39.6222 55.7415 36.4181 56.5971 34.3935C57.4905 32.275 58.5416 31.2866 59.815 30.7476C60.7697 30.3417 62.0947 30.0839 63.1182 30.0359C67.3076 29.8418 71.1288 30.4969 71.1288 30.4969L69.971 34.1402C69.0647 33.9053 66.502 33.3806 64.3398 33.6835C63.3 33.8299 62.2781 34.2415 61.5738 35.2546C60.9453 36.1588 59.1351 41.2542 59.33 42.8134ZM121.885 30.3358C123.397 30.3358 125.127 30.5694 126.059 31.4304C127.095 32.3894 127.666 34.1646 126.889 36.7964C125.522 41.4206 122.716 42.535 119.697 42.5946C118.237 42.6237 114.902 42.6151 114.902 42.6151L113.33 47.5842H108.444L113.884 30.3358H121.885ZM120.923 38.8048C121.49 38.4296 121.948 37.9631 122.363 36.7282C122.966 34.9401 122.594 34.1733 122.213 33.8588C121.844 33.5559 121.282 33.4794 120.568 33.4794H117.797L115.92 39.4036C115.92 39.4036 118.239 39.4051 118.952 39.3716C119.772 39.3309 120.303 39.2151 120.923 38.8048ZM133.168 31.2332C134.017 30.6955 134.578 30.3433 136.488 30.3433H140.549L139.853 47.5913H135.045L135.245 43.8918H129.423L127.202 47.538H122.388C122.388 47.538 130.296 35.0041 130.802 34.2707C130.92 34.0994 131.054 33.8872 131.202 33.6539L131.203 33.6533L131.203 33.6532L131.203 33.6531C131.738 32.8091 132.448 31.6895 133.168 31.2332ZM131.273 40.7282L135.395 40.7077L135.756 33.4128L131.273 40.7282ZM86.1801 47.5393L91.612 30.2738C91.612 30.2738 94.9611 30.2652 95.7181 30.3243C97.2728 30.4478 98.3549 31.0807 98.6552 32.6506C98.9275 34.0603 99.4348 36.956 99.4348 36.956C99.4348 36.956 102.343 32.8692 102.994 32.0374C104.327 30.3304 106.24 30.3414 106.566 30.3433C106.582 30.3434 106.594 30.3435 106.602 30.3433C106.773 30.3394 111.434 30.3433 111.434 30.3433L106 47.5393H101.323L105.622 33.9129L97.6974 44.738H96.7701L94.9719 34.1692L90.7145 47.5393H86.1801Z" fill="white"/>
</g>
<defs>
<clipPath id="clip0_111_4288">
<rect width="108" height="20" fill="white" transform="translate(54 30)"/>
</clipPath>
</defs>
</svg>
