<svg width="215" height="80" viewBox="0 0 215 80" fill="none" xmlns="http://www.w3.org/2000/svg">
<g clip-path="url(#clip0_111_4297)">
<path d="M174.063 48.0611V47.681H174.294C174.416 47.681 174.606 47.6946 174.606 47.8439C174.606 48.0068 174.511 48.0475 174.362 48.0475H174.063V48.0611ZM174.063 48.319H174.226L174.606 48.9706H175.014L174.593 48.2919C174.796 48.2783 174.986 48.1833 174.986 47.8846C174.986 47.5181 174.742 47.4095 174.321 47.4095H173.724V48.9706H174.077L174.063 48.319ZM175.814 48.1968C175.814 47.2738 175.109 46.7443 174.308 46.7443C173.52 46.7443 172.801 47.2738 172.801 48.1968C172.801 49.1199 173.507 49.6493 174.308 49.6493C175.109 49.6493 175.814 49.1199 175.814 48.1968ZM175.38 48.1968C175.38 48.862 174.891 49.31 174.308 49.31C173.71 49.31 173.235 48.862 173.235 48.1968C173.235 47.5317 173.724 47.0837 174.308 47.0837C174.891 47.0973 175.38 47.5452 175.38 48.1968ZM120.593 32.7217V49.1606H125.235V32.7217H120.593ZM84.1041 32.6946V49.1471H88.7873V36.3733L92.4389 36.3869C93.6335 36.3869 94.4751 36.6855 95.0452 37.2964C95.7783 38.0701 96.0769 39.3462 96.0769 41.6403V49.1471H100.611V40.0656C100.611 33.5769 96.4706 32.6946 92.4389 32.6946H84.1041ZM128.072 32.7217V49.1606H135.593C139.597 49.1606 140.914 48.4955 142.326 47.0023C143.33 45.957 143.968 43.6493 143.968 41.1244C143.968 38.8167 143.425 36.7534 142.462 35.4638C140.765 33.1697 138.281 32.7217 134.575 32.7217H128.072ZM132.674 36.2919H134.67C137.561 36.2919 139.434 37.5814 139.434 40.9615C139.434 44.3281 137.575 45.6312 134.67 45.6312H132.674V36.2919ZM113.914 32.7217L110.045 45.7398L106.339 32.7217H101.33L106.624 49.1606H113.303L118.638 32.7217H113.914ZM146.14 49.1471H150.783V32.7217H146.14V49.1471ZM159.145 32.7217L152.67 49.1471H157.244L158.276 46.2557H165.946L166.923 49.1471H171.891L165.348 32.7217H159.145ZM162.158 35.7217L164.968 43.405H159.253L162.158 35.7217ZM54.1719 35.4502V33.1968C54.3891 33.1833 54.6199 33.1697 54.8371 33.1697C61.0271 32.9796 65.0724 38.4774 65.0724 38.4774C65.0724 38.4774 60.7014 44.5588 56.0045 44.5588C55.3258 44.5588 54.7285 44.4502 54.1855 44.2602V37.405C56.5882 37.7036 57.0769 38.7624 58.5294 41.1652L61.7466 38.4502C61.7466 38.4502 59.3982 35.3688 55.4344 35.3688C55 35.3824 54.5792 35.4095 54.1719 35.4502ZM54.1719 27.9842V31.3507C54.3891 31.3371 54.6199 31.3235 54.8371 31.31C63.4299 31.0113 69.0362 38.3552 69.0362 38.3552C69.0362 38.3552 62.6018 46.1878 55.9095 46.1878C55.2986 46.1878 54.7285 46.1335 54.1855 46.0385V48.129C54.6471 48.1833 55.1357 48.224 55.6244 48.224C61.8688 48.224 66.3756 45.0339 70.7466 41.2738C71.4661 41.8575 74.4389 43.2692 75.0498 43.8801C70.8959 47.3552 61.2172 50.1652 55.733 50.1652C55.2036 50.1652 54.7014 50.138 54.1991 50.0837V53.0158H77.914V27.9842H54.1719ZM54.1719 44.2738V46.052C48.4027 45.0204 46.8009 39.0204 46.8009 39.0204C46.8009 39.0204 49.5701 35.9525 54.1719 35.4502V37.405H54.1584C51.7557 37.1063 49.8552 39.3733 49.8552 39.3733C49.8552 39.3733 50.9276 43.1606 54.1719 44.2738ZM43.9231 38.7624C43.9231 38.7624 47.3439 33.7262 54.1719 33.1968V31.3643C46.6109 31.9751 40.0679 38.3824 40.0679 38.3824C40.0679 38.3824 43.7738 49.1063 54.1719 50.0973V48.1425C46.543 47.1787 43.9231 38.7624 43.9231 38.7624Z" fill="white"/>
</g>
<defs>
<clipPath id="clip0_111_4297">
<rect width="135.882" height="25" fill="white" transform="translate(40 28)"/>
</clipPath>
</defs>
</svg>
