<svg width="215" height="80" viewBox="0 0 215 80" fill="none" xmlns="http://www.w3.org/2000/svg">
<path d="M76.1197 28H50.0005V52L76.1197 28Z" fill="white"/>
<path d="M63.0581 28H50V40.0054L63.0581 28Z" fill="white"/>
<path d="M112.593 33.2104L109.184 46.7864H115.207L118.615 33.2104H112.593ZM97.978 33.2083L90.2303 46.7843H94.2147L95.5006 44.5212H101.032L101.444 46.7843H107.324L104.824 33.2083H97.978ZM98.8348 41.0781H97.4533L99.6807 37.1622L100.403 41.0781H98.8348ZM140.104 33.2104L136.704 46.7864H142.726L146.128 33.2104H140.104ZM137.412 33.2104H131.239L126.073 37.6513L127.2 33.2104H121.426L118.025 46.7864H123.781L124.957 42.0994L128.034 46.7864H135.001L129.841 39.6768L137.412 33.2104ZM85.1975 33.2167L83.6398 33.2117H76.1023L72.7026 46.7826H80.1865L83.1479 46.7864C87.3167 46.7864 91.4198 43.6967 91.4198 38.9625C91.4189 33.3917 85.1975 33.2167 85.1975 33.2167ZM85.5032 39.3798C85.5032 39.3798 85.1119 43.7898 81.339 43.7898H79.2042L81.0844 36.4672H83.0216C83.7149 36.4722 85.7213 36.6505 85.5032 39.3798ZM160.513 33.2083L158.504 41.2026L155.828 33.2083H149.129L145.726 46.7864H149.892L151.92 38.7223L154.605 46.7864H161.275L164.684 33.2083H160.513Z" fill="white"/>
</svg>
