<svg width="215" height="80" viewBox="0 0 215 80" fill="none" xmlns="http://www.w3.org/2000/svg">
<g clip-path="url(#clip0_111_4367)">
<path d="M105.639 55.6545C93.7251 56.76 81.3078 55.0188 79.5686 45.6538C78.7177 41.0372 80.8115 36.1417 83.5851 33.0989V31.4741C78.5886 35.8818 75.8807 41.459 77.4404 48.0472C79.4328 56.4974 90.0871 61.2827 106.354 59.6936C112.793 59.066 121.213 56.9837 127.071 53.7471V49.1527C121.755 52.339 112.963 54.9711 105.639 55.6545ZM137.023 31.3643C134.197 17.487 107.409 16.6072 90.1411 27.1801V28.3478C107.389 19.4284 131.855 19.4826 134.082 32.2662C134.83 36.495 132.462 40.9006 128.231 43.4373V46.7543C133.32 44.8766 138.541 38.8033 137.023 31.3643Z" fill="white"/>
<path d="M126.108 29.343H122.984V43.3365C122.984 44.9764 123.773 46.4026 126.108 46.6304V29.343ZM88.9146 34.4522H85.7853L85.7836 43.5947C85.7836 45.2404 86.5743 46.6651 88.9146 46.8886V34.4522ZM85.7853 29.7687H88.9049V32.7469H85.7853V29.7687ZM107.621 46.7438C105.093 46.7438 104.023 44.9762 104.023 43.2351V31.0961H107.12V34.4522H109.452V36.9679H107.12V43.0427C107.12 43.7527 107.455 44.1482 108.191 44.1482H109.452V46.7439L107.621 46.7438ZM113.319 41.5722C113.319 43.1661 114.31 44.3375 116.063 44.3375C117.437 44.3375 118.114 43.954 118.907 43.1661L120.821 44.9994C119.594 46.2184 118.309 46.9595 116.041 46.9595C113.077 46.9595 110.238 45.3328 110.238 40.5902C110.238 36.5358 112.719 34.2439 115.972 34.2439C119.279 34.2439 121.179 36.9269 121.179 40.4488V41.5725H113.319V41.5722ZM115.836 36.8198C114.776 36.8198 113.962 37.3689 113.617 38.1095C113.416 38.5546 113.342 38.9015 113.319 39.4485H118.091C118.031 38.1095 117.427 36.8198 115.836 36.8198ZM97.3246 36.9679C98.2326 36.9679 98.61 37.4194 98.61 38.1523V46.762H101.707V38.1342C101.707 36.3859 100.781 34.4555 98.0614 34.4555L91.6637 34.4522V46.762H94.7621V36.9679H97.3246ZM129.469 31.8434C128.78 31.8434 128.231 31.2849 128.231 30.5932C128.231 29.9047 128.78 29.343 129.469 29.343C130.154 29.343 130.717 29.9047 130.717 30.5932C130.717 31.2849 130.154 31.8434 129.469 31.8434ZM129.469 29.5515C128.901 29.5515 128.445 30.0232 128.445 30.5932C128.445 31.1664 128.901 31.6298 129.469 31.6298C130.036 31.6298 130.507 31.1664 130.507 30.5932C130.507 30.0232 130.036 29.5515 129.469 29.5515ZM130.02 31.3425H129.788C129.778 31.3424 129.768 31.3394 129.76 31.3338C129.751 31.3283 129.745 31.3205 129.74 31.3113L129.426 30.7742C129.416 30.7627 129.39 30.7496 129.382 30.7496H129.238V31.285C129.238 31.3114 129.22 31.3426 129.186 31.3426H128.977C128.945 31.3426 128.924 31.3114 128.924 31.285V29.9344C128.924 29.8554 128.951 29.823 129.019 29.8131C129.094 29.8049 129.291 29.795 129.4 29.795C129.788 29.795 130.015 29.9097 130.015 30.2712V30.2976C130.015 30.5209 129.906 30.6426 129.736 30.6969L130.063 31.257C130.068 31.2695 130.071 31.283 130.071 31.2966C130.071 31.3178 130.059 31.3425 130.02 31.3425ZM129.719 30.2712C129.719 30.1203 129.626 30.0726 129.426 30.0726H129.228V30.5011C129.259 30.5011 129.4 30.5077 129.426 30.5077C129.626 30.5077 129.719 30.4407 129.719 30.2976V30.2712Z" fill="white"/>
</g>
<defs>
<clipPath id="clip0_111_4367">
<rect width="60.2899" height="40" fill="white" transform="translate(77 20)"/>
</clipPath>
</defs>
</svg>
