<svg width="215" height="80" viewBox="0 0 215 80" fill="none" xmlns="http://www.w3.org/2000/svg">
<g clip-path="url(#clip0_694_2496)">
<path d="M77.1603 38.6128C77.23 34.5308 77.3613 30.3709 77.5107 28H72C72.3283 32.1202 72.1121 48.5453 72.0093 51.9736H77.579C77.4374 50.3682 77.0801 45.6147 77.1445 40.5096L83.3432 50.8853C83.756 51.5284 84.5291 51.974 85.2579 51.974C85.9868 51.974 90.6339 51.974 90.6339 51.974C88.299 49.6575 82.0335 39.3518 82.0335 39.3518C82.0335 39.3518 88.675 29.67 90.6344 28C90.6344 28 85.9872 28 85.2584 28C84.5296 28 83.7718 28.4295 83.3437 29.0892L77.1603 38.6128Z" fill="white"/>
<path d="M96.1264 40.3049L97.0494 38.46C97.2322 38.0976 97.5895 37.7758 98.2141 37.7704C98.6692 37.768 103.168 37.768 103.168 37.768C102.796 38.5481 101.919 40.2579 101.919 40.2579C101.555 40.8039 101.008 40.8931 100.552 40.8931C100.096 40.8931 96.1102 40.8931 96.1102 40.8931C96.0763 43.7718 96.0719 46.0721 96.1013 48.1584C96.1294 48.728 96.4257 49.158 97.0341 49.158C97.4882 49.158 104.979 49.1521 104.979 49.1521C104.708 49.6061 103.526 51.9731 103.526 51.9731H90.917C91.1903 48.6119 91.2016 31.8141 90.8384 28H103.334C103.334 28 104.354 30.3047 104.536 30.578C104.091 30.578 99.0584 30.5565 97.0705 30.5374C96.6955 30.5374 96.152 30.8586 96.152 31.5693L96.1264 40.3049Z" fill="white"/>
<path d="M116.645 49.2178C116.645 49.2178 111.666 49.2084 111.278 49.2084C110.704 49.2084 110.441 48.8034 110.413 48.2084C110.384 46.1221 110.372 43.7718 110.404 40.8931C110.404 40.8931 110.445 36.8634 110.549 33.2848C110.656 29.624 110.759 28 110.759 28H105.133C105.497 31.8141 105.552 48.6119 105.28 51.9736H115.248C115.248 51.9736 116.372 49.6713 116.645 49.2178Z" fill="white"/>
<path d="M128.325 49.2178C128.325 49.2178 123.346 49.2084 122.958 49.2084C122.384 49.2084 122.121 48.8034 122.093 48.2084C122.065 46.1221 122.052 43.7718 122.084 40.8931C122.084 40.8931 122.125 36.8634 122.229 33.2848C122.336 29.624 122.439 28 122.439 28H116.813C117.177 31.8141 117.232 48.6119 116.961 51.9736H126.928C126.928 51.9736 128.052 49.6713 128.325 49.2178Z" fill="white"/>
<path d="M132.419 41.1031C130.557 45.791 128.882 50.3946 127.891 51.9731H131.993C133.451 51.9731 133.841 51.0734 134.12 50.3422C136.314 44.6656 141.708 29.6264 142.769 28C142.769 28 140.282 28 138.642 28C137.003 28 136.615 29.2601 136.179 30.4189C135.242 32.8514 134.18 36.3178 132.823 39.7701C131.943 37.1494 131.202 34.3187 130.071 30.4189C129.737 29.2601 129.451 27.9931 127.437 28C125.796 28.0054 123.428 28 123.428 28C124.693 29.7283 125.507 34.019 127.7 39.6951C127.973 40.3582 128.301 41.088 129.759 41.088L132.419 41.1031Z" fill="white"/>
<path d="M140.888 48.3465C141.899 48.3465 142.721 49.1668 142.721 50.1728C142.721 51.1797 141.898 51.9995 140.888 51.9995C139.878 51.9995 139.056 51.1792 139.056 50.1728C139.056 49.1668 139.878 48.3465 140.888 48.3465ZM140.888 51.7346C141.756 51.7346 142.455 51.0372 142.455 50.1733C142.455 49.3093 141.755 48.6119 140.888 48.6119C140.021 48.6119 139.322 49.3093 139.322 50.1733C139.322 51.0377 140.021 51.7346 140.888 51.7346ZM140.489 51.2193H140.223V49.1125H141.036C141.514 49.1125 141.702 49.3191 141.702 49.6967C141.702 50.0851 141.455 50.2467 141.17 50.2962L141.8 51.2193H141.5L140.869 50.2962H140.49V51.2193H140.489ZM140.489 50.0601H140.829C141.12 50.0601 141.435 50.0459 141.435 49.6967C141.435 49.4269 141.189 49.348 140.962 49.348H140.489V50.0601H140.489Z" fill="white"/>
</g>
<defs>
<clipPath id="clip0_694_2496">
<rect width="70.7692" height="24" fill="white" transform="translate(72 28)"/>
</clipPath>
</defs>
</svg>
