<svg width="188" height="45" viewBox="0 0 188 45" fill="none" xmlns="http://www.w3.org/2000/svg">
<path d="M93.8026 26.7081H111.453C113.856 26.7081 116.01 25.6775 117.584 24.0459C119.159 22.4142 120.153 20.1814 120.153 17.6909V0.0859375H114.684V17.7768C114.684 18.6356 114.353 19.4943 113.773 20.0955C113.193 20.6966 112.447 21.0401 111.535 21.0401H93.8854C93.0568 21.0401 92.2281 20.6966 91.6481 20.0955C91.068 19.4943 90.7366 18.7214 90.7366 17.7768V0.0859375H85.2676V17.7768C85.2676 20.2672 86.2619 22.5001 87.8364 24.1317C89.3279 25.6776 91.4824 26.7081 93.8026 26.7081Z" fill="#BCCF00"/>
<path fill-rule="evenodd" clip-rule="evenodd" d="M29.4167 21.126H5.46901V26.794H0V9.01724C0 6.61266 0.994366 4.29395 2.56878 2.74815C4.14319 1.11647 6.29765 0.0859375 8.7007 0.0859375H26.3507C28.7537 0.0859375 30.9082 1.11647 32.4826 2.74815C34.057 4.37983 35.0514 6.61266 35.0514 9.10312V26.794H29.5824V21.126H29.4167ZM5.46901 15.3722H29.3338V9.01724C29.3338 8.15846 29.0023 7.29968 28.4223 6.69854C27.8422 6.09739 27.0965 5.75388 26.185 5.75388H8.61784C7.7892 5.75388 6.96056 6.09739 6.38051 6.69854C5.80047 7.29968 5.46901 8.07258 5.46901 9.01724V15.3722Z" fill="#BCCF00"/>
<path d="M42.5908 17.8626V9.01718C42.5908 6.52672 43.5852 4.2939 45.1596 2.66222C46.734 1.03054 48.8885 0 51.2915 0H72.3389V5.66794H51.2087C50.38 5.66794 49.5514 6.01145 48.9713 6.6126C48.3913 7.21374 48.0598 7.98665 48.0598 8.9313V17.6909C48.0598 18.5496 48.3913 19.4084 48.9713 20.0096C49.5514 20.6107 50.2972 20.9542 51.2087 20.9542H54.026H68.7758C69.6044 20.9542 70.4331 20.6107 71.0131 20.0096C71.5931 19.4084 71.9246 18.6355 71.9246 17.6909V15.7157H59.9922V10.0477H77.4765V15.7157V17.7767C77.4765 20.2672 76.4821 22.5 74.9077 24.1317C73.3333 25.7634 71.1788 26.7939 68.7758 26.7939H67.1185H51.2087C48.8056 26.7939 46.6511 25.7634 45.0767 24.1317C43.5852 22.5 42.5908 20.2672 42.5908 17.8626Z" fill="#BCCF00"/>
<path d="M72.6709 34.8665C72.0909 34.2654 71.1794 33.836 70.2679 33.836C69.3564 33.836 68.5277 34.2654 67.8648 34.8665C67.2848 35.4677 66.8705 36.4123 66.8705 37.357C66.8705 38.3017 67.2848 39.1604 67.8648 39.8475C68.4449 40.4486 69.3564 40.878 70.2679 40.878C71.1794 40.878 72.008 40.4486 72.6709 39.8475C73.251 39.2463 73.6653 38.3017 73.6653 37.357C73.6653 36.4123 73.251 35.4677 72.6709 34.8665ZM52.2036 34.8665C51.6235 34.2654 50.7949 33.836 49.8005 33.836C48.889 33.836 48.0604 34.2654 47.3975 34.8665C46.8174 35.4677 46.4031 36.3265 46.4031 37.357C46.4031 38.3017 46.8174 39.1604 47.3975 39.8475C47.9775 40.4486 48.889 40.878 49.8005 40.878C50.712 40.878 51.5407 40.4486 52.2036 39.8475C52.7836 39.2463 53.1979 38.3875 53.1979 37.357C53.1979 36.3265 52.7836 35.4677 52.2036 34.8665ZM49.8005 29.7139C51.7892 29.7139 53.6123 30.5726 54.9381 31.9467C56.2639 33.3207 57.0925 35.2101 57.0925 37.2711C57.0925 39.3322 56.2639 41.2215 54.9381 42.6814C53.6123 44.0555 51.7892 44.9143 49.7177 44.9143C47.6461 44.9143 45.8231 44.0555 44.4972 42.6814C43.1714 41.3074 42.3428 39.4181 42.3428 37.2711C42.3428 35.2101 43.1714 33.3207 44.4972 31.9467C45.9888 30.5726 47.8118 29.7139 49.8005 29.7139ZM70.2679 29.7139C72.2566 29.7139 74.1625 30.5726 75.4883 31.9467C76.8141 33.3207 77.6428 35.2101 77.6428 37.357C77.6428 39.5039 76.8141 41.3933 75.4883 42.7673C74.1625 44.1414 72.3395 45.0001 70.2679 45.0001C68.2792 45.0001 66.3733 44.1414 65.0475 42.7673C63.8045 41.3074 62.9759 39.4181 62.9759 37.357C62.9759 35.2959 63.8045 33.3207 65.1303 31.9467C66.4561 30.5726 68.2792 29.7139 70.2679 29.7139Z" fill="#BCCF00"/>
<path d="M136.276 23.0158V20.7829H137.519C138.348 20.7829 138.845 21.1264 138.845 21.8993C138.845 22.5864 138.348 23.0158 137.519 23.0158H136.276ZM135.199 26.0215H136.276V24.0463H137.436C138.762 24.0463 139.839 23.3593 139.839 21.8993C139.839 20.6112 138.928 19.8383 137.602 19.8383H135.199V26.0215V26.0215ZM129.647 26.1074C131.222 26.1074 132.216 25.1627 132.216 23.3593V19.8383H131.139V23.4451C131.139 24.5616 130.559 25.1627 129.647 25.1627C128.736 25.1627 128.156 24.5616 128.156 23.3593V19.8383H127.078V23.4451C127.078 25.1627 128.073 26.1074 129.647 26.1074ZM178.205 16.6608C179.283 16.6608 180.111 16.2314 180.691 15.7161V13.1398H178.123V14.0845H179.697V15.2009C179.365 15.4585 178.785 15.6303 178.288 15.6303C177.045 15.6303 176.217 14.6856 176.217 13.3974C176.217 12.1951 177.045 11.1646 178.123 11.1646C178.868 11.1646 179.365 11.4222 179.78 11.8516L180.443 10.9928C179.863 10.4776 179.2 10.1341 178.123 10.1341C176.3 10.1341 175.057 11.594 175.057 13.3116C175.057 15.2009 176.3 16.6608 178.205 16.6608ZM167.019 16.489H168.096V12.1093L171.411 16.489H172.322V10.3058H171.245V14.5997L168.013 10.3058H167.019V16.489ZM162.876 16.489H163.953V10.3058H162.876V16.489ZM153.346 16.5749H154.258L155.749 12.1093L157.241 16.5749H158.152L160.224 10.3058H159.147L157.738 14.9432L156.246 10.3058H155.335L153.843 14.9432L152.435 10.3058H151.275L153.346 16.5749ZM146.054 15.6303C144.894 15.6303 143.983 14.5997 143.983 13.3974C143.983 12.1951 144.811 11.1646 145.971 11.1646C147.131 11.1646 148.043 12.1951 148.043 13.3974C148.043 14.5997 147.214 15.6303 146.054 15.6303ZM146.054 16.6608C147.877 16.6608 149.203 15.2009 149.203 13.4833C149.203 11.6799 147.877 10.3058 146.054 10.3058C144.231 10.3058 142.905 11.7658 142.905 13.4833C142.905 15.2009 144.231 16.6608 146.054 16.6608ZM136.525 13.3974V11.3364H138.099C138.845 11.3364 139.342 11.6799 139.342 12.3669C139.342 13.0539 138.845 13.3974 138.099 13.3974H136.525ZM135.448 16.489H136.525V14.3421H137.851L139.342 16.489H140.585L138.928 14.1703C139.757 13.9127 140.337 13.3116 140.337 12.281C140.337 11.0787 139.508 10.3058 138.099 10.3058H135.448V16.489V16.489ZM130.061 16.6608C131.139 16.6608 131.967 16.2314 132.547 15.7161V13.1398H129.979V14.0845H131.553V15.2009C131.222 15.4585 130.642 15.6303 130.144 15.6303C128.901 15.6303 128.073 14.6856 128.073 13.3974C128.073 12.1951 128.901 11.1646 129.979 11.1646C130.724 11.1646 131.222 11.4222 131.636 11.8516L132.299 10.9928C131.719 10.4776 131.056 10.1341 129.979 10.1341C128.156 10.1341 126.913 11.594 126.913 13.3116C126.913 15.2009 128.156 16.6608 130.061 16.6608ZM183.26 6.09781V1.80391H184.42C185.663 1.80391 186.492 2.66269 186.492 3.95086C186.492 5.15315 185.663 6.09781 184.42 6.09781H183.26ZM182.183 7.04247H184.42C186.326 7.04247 187.569 5.66842 187.569 3.95086C187.569 2.14742 186.243 0.859256 184.42 0.859256H182.183V7.04247ZM174.974 7.04247H179.448V6.09781H176.051V4.38025H179.034V3.43559H176.051V1.80391H179.448V0.859256H174.974V7.04247ZM169.836 7.12834C170.996 7.12834 171.659 6.69895 172.239 6.01193L171.576 5.32491C171.079 5.84017 170.582 6.09781 169.836 6.09781C168.676 6.09781 167.847 5.06727 167.847 3.86498C167.847 2.66269 168.676 1.63216 169.836 1.63216C170.499 1.63216 170.996 1.97567 171.493 2.40506L172.156 1.63216C171.576 1.03101 170.913 0.6875 169.836 0.6875C168.013 0.6875 166.77 2.14742 166.77 3.86498C166.853 5.7543 168.096 7.12834 169.836 7.12834ZM158.732 7.04247H159.81V2.66269L163.124 7.04247H164.036V0.859256H162.958V5.15315L159.727 0.859256H158.732V7.04247ZM152.02 4.55201L153.015 2.06155L154.092 4.55201H152.02ZM149.949 7.04247H151.026L151.606 5.58254H154.423L155.004 7.04247H156.081L153.429 0.773378H152.435L149.949 7.04247ZM145.308 7.12834H146.22L148.706 0.859256H147.546L145.723 5.66842L143.983 0.859256H142.823L145.308 7.12834ZM136.525 6.09781V1.80391H137.685C138.928 1.80391 139.757 2.66269 139.757 3.95086C139.757 5.15315 138.928 6.09781 137.685 6.09781H136.525ZM135.53 7.04247H137.768C139.674 7.04247 140.917 5.66842 140.917 3.95086C140.917 2.14742 139.591 0.859256 137.768 0.859256H135.53V7.04247ZM128.736 4.55201L129.73 2.06155L130.807 4.55201H128.736ZM126.664 7.04247H127.741L128.321 5.58254H131.139L131.719 7.04247H132.796L130.144 0.773378H129.15L126.664 7.04247Z" fill="#878F93"/>
</svg>
