<svg width="185" height="45" viewBox="0 0 185 45" fill="none" xmlns="http://www.w3.org/2000/svg">
<path d="M41.9227 3H0.000976562V41.5204L41.9227 3Z" fill="#44C8F5"/>
<path d="M20.9585 3H0V22.2689L20.9585 3Z" fill="black"/>
<path d="M100.464 11.3618L94.9917 33.1514H104.659L110.129 11.3618H100.464ZM77.0058 11.3584L64.5707 33.148H70.9656L73.0295 29.5158H81.907L82.568 33.148H92.0063L87.9943 11.3584H77.0058ZM78.3811 23.9896H76.1637L79.7388 17.7045L80.8986 23.9896H78.3811ZM144.618 11.3618L139.161 33.1514H148.827L154.288 11.3618H144.618ZM140.298 11.3618H130.391L122.098 18.4895L123.907 11.3618H114.641L109.182 33.1514H118.421L120.307 25.6287L125.247 33.1514H136.429L128.147 21.7404L140.298 11.3618ZM56.4929 11.3718L53.9929 11.3638H41.895L36.4385 33.1454H48.4501L53.2033 33.1514C59.8944 33.1514 66.4798 28.1924 66.4798 20.594C66.4784 11.6527 56.4929 11.3718 56.4929 11.3718ZM56.9837 21.2637C56.9837 21.2637 56.3556 28.3419 50.3 28.3419H46.8736L49.8914 16.5889H53.0006C54.1134 16.597 57.3337 16.8832 56.9837 21.2637ZM177.376 11.3584L174.151 24.1894L169.856 11.3584H159.104L153.642 33.1514H160.328L163.584 20.2085L167.893 33.1514H178.598L184.07 11.3584H177.376Z" fill="#00A1E4"/>
</svg>
