<svg width="163" height="45" viewBox="0 0 163 45" fill="none" xmlns="http://www.w3.org/2000/svg">
<path d="M53.9484 22.3377H50.4946V25.9831H49.0035V17.3807H54.4552V18.586H50.4946V21.1442H53.9484V22.3377Z" fill="#313131"/>
<path d="M67.9806 21.9064C67.9806 22.7493 67.8352 23.4898 67.5444 24.1279C67.2537 24.762 66.8372 25.2504 66.2949 25.5931C65.7566 25.9319 65.1358 26.1012 64.4325 26.1012C63.737 26.1012 63.1162 25.9319 62.5701 25.5931C62.0278 25.2504 61.6074 24.764 61.3088 24.1338C61.0141 23.5036 60.8648 22.7769 60.8609 21.9537V21.4692C60.8609 20.6302 61.0082 19.8897 61.3029 19.2477C61.6015 18.6057 62.02 18.1153 62.5583 17.7766C63.1005 17.4339 63.7213 17.2626 64.4207 17.2626C65.1201 17.2626 65.739 17.4319 66.2773 17.7707C66.8195 18.1055 67.238 18.5899 67.5326 19.2241C67.8273 19.8543 67.9766 20.5889 67.9806 21.4278V21.9064ZM66.4894 21.4574C66.4894 20.5042 66.3087 19.7735 65.9472 19.2654C65.5897 18.7573 65.0808 18.5033 64.4207 18.5033C63.7763 18.5033 63.2714 18.7573 62.906 19.2654C62.5445 19.7696 62.3598 20.4845 62.352 21.4101V21.9064C62.352 22.8517 62.5347 23.5824 62.9001 24.0983C63.2695 24.6143 63.7803 24.8723 64.4325 24.8723C65.0926 24.8723 65.5995 24.6202 65.9531 24.1161C66.3107 23.6119 66.4894 22.8753 66.4894 21.9064V21.4574Z" fill="#313131"/>
<path d="M81.8065 21.9064C81.8065 22.7493 81.6611 23.4898 81.3704 24.1279C81.0796 24.762 80.6631 25.2504 80.1209 25.5931C79.5826 25.9319 78.9618 26.1012 78.2584 26.1012C77.563 26.1012 76.9421 25.9319 76.396 25.5931C75.8538 25.2504 75.4333 24.764 75.1347 24.1338C74.84 23.5036 74.6907 22.7769 74.6868 21.9537V21.4692C74.6868 20.6302 74.8341 19.8897 75.1288 19.2477C75.4274 18.6057 75.8459 18.1153 76.3842 17.7766C76.9264 17.4339 77.5472 17.2626 78.2466 17.2626C78.946 17.2626 79.5649 17.4319 80.1032 17.7707C80.6454 18.1055 81.0639 18.5899 81.3586 19.2241C81.6533 19.8543 81.8026 20.5889 81.8065 21.4278V21.9064ZM80.3154 21.4574C80.3154 20.5042 80.1346 19.7735 79.7731 19.2654C79.4156 18.7573 78.9067 18.5033 78.2466 18.5033C77.6023 18.5033 77.0973 18.7573 76.7319 19.2654C76.3704 19.7696 76.1858 20.4845 76.1779 21.4101V21.9064C76.1779 22.8517 76.3606 23.5824 76.726 24.0983C77.0954 24.6143 77.6062 24.8723 78.2584 24.8723C78.9185 24.8723 79.4254 24.6202 79.779 24.1161C80.1366 23.6119 80.3154 22.8753 80.3154 21.9064V21.4574Z" fill="#313131"/>
<path d="M94.4772 18.586H91.8015V25.9831H90.3221V18.586H87.6699V17.3807H94.4772V18.586Z" fill="#313131"/>
<path d="M103.034 17.3807L105.51 23.9743L107.979 17.3807H109.906V25.9831H108.421V23.1471L108.568 19.3541L106.034 25.9831H104.967L102.439 19.36L102.586 23.1471V25.9831H101.101V17.3807H103.034Z" fill="#313131"/>
<path d="M122.076 23.9802H118.752L118.056 25.9831H116.506L119.748 17.3807H121.086L124.333 25.9831H122.777L122.076 23.9802ZM119.17 22.7749H121.658L120.414 19.2064L119.17 22.7749Z" fill="#313131"/>
<path d="M133.957 22.6686H132.295V25.9831H130.804V17.3807H133.821C134.812 17.3807 135.576 17.6033 136.114 18.0483C136.652 18.4934 136.922 19.1374 136.922 19.9803C136.922 20.5554 136.782 21.0379 136.503 21.4278C136.228 21.8138 135.843 22.1112 135.348 22.32L137.275 25.9063V25.9831H135.678L133.957 22.6686ZM132.295 21.4692H133.827C134.33 21.4692 134.723 21.3432 135.006 21.0911C135.289 20.835 135.43 20.4865 135.43 20.0453C135.43 19.5845 135.299 19.228 135.036 18.9759C134.776 18.7239 134.387 18.5939 133.869 18.586H132.295V21.4692Z" fill="#313131"/>
<path d="M146.292 22.2668L145.319 23.3007V25.9831H143.828V17.3807H145.319V21.416L146.144 20.3939L148.655 17.3807H150.459L147.27 21.1915L150.641 25.9831H148.873L146.292 22.2668Z" fill="#313131"/>
<path d="M161.42 23.7675C161.42 23.3894 161.287 23.0979 161.019 22.8931C160.756 22.6883 160.279 22.4815 159.587 22.2727C158.896 22.064 158.346 21.8316 157.937 21.5755C157.155 21.0832 156.764 20.4412 156.764 19.6495C156.764 18.9562 157.045 18.3851 157.607 17.9361C158.173 17.4871 158.906 17.2626 159.805 17.2626C160.403 17.2626 160.935 17.3728 161.403 17.5934C161.87 17.814 162.238 18.1291 162.505 18.5387C162.772 18.9444 162.906 19.3954 162.906 19.8917H161.42C161.42 19.4427 161.279 19.0921 160.996 18.84C160.717 18.584 160.316 18.456 159.794 18.456C159.306 18.456 158.927 18.5604 158.656 18.7691C158.389 18.9779 158.255 19.2694 158.255 19.6436C158.255 19.9587 158.401 20.2226 158.691 20.4353C158.982 20.644 159.462 20.8488 160.13 21.0497C160.797 21.2467 161.334 21.4731 161.739 21.7292C162.143 21.9812 162.44 22.2727 162.628 22.6036C162.817 22.9305 162.911 23.3145 162.911 23.7557C162.911 24.4725 162.636 25.0437 162.086 25.4691C161.54 25.8905 160.797 26.1012 159.858 26.1012C159.238 26.1012 158.666 25.987 158.143 25.7586C157.625 25.5262 157.22 25.2071 156.929 24.8014C156.642 24.3957 156.499 23.9231 156.499 23.3835H157.99C157.99 23.8719 158.151 24.25 158.473 24.5178C158.796 24.7857 159.257 24.9196 159.858 24.9196C160.377 24.9196 160.766 24.8152 161.025 24.6065C161.289 24.3938 161.42 24.1141 161.42 23.7675Z" fill="#313131"/>
<path fill-rule="evenodd" clip-rule="evenodd" d="M1.20705 7.96518L19.1619 15.0513V18.3743L1.20705 24.8936V7.96518ZM1.20705 26.6284V43.5537L19.1619 36.6093V33.3602L1.20705 26.6284ZM20.369 33.3479V37.0243L19.9827 37.5887L0.820773 45L0 44.4356V7.0768L0.409976 6.50375L19.5719 0L20.0106 0.0201886L37.6637 7.88519L37.6182 9.009L20.369 15.0684V18.3865L37.6394 25.1931L37.6456 26.3167L20.369 33.3479ZM20.369 19.6866V32.042L35.792 25.7652L20.369 19.6866ZM19.1619 19.6613V32.0683L2.35063 25.7653L19.1619 19.6613ZM20.369 13.7862L35.7832 8.37147L20.369 1.504V13.7862ZM19.1619 1.41662L2.3594 7.11957L19.1619 13.7509V1.41662Z" fill="#313131"/>
</svg>
