<svg width="143" height="45" viewBox="0 0 143 45" fill="none" xmlns="http://www.w3.org/2000/svg">
<path d="M10.7911 21.2609C12.9954 21.2609 14.7788 20.8927 16.1415 20.1564L15.9311 15.1863C15.891 14.8182 15.7107 14.5625 15.39 14.4194C15.0694 14.2557 14.4282 14.0716 13.4663 13.8671L13.5565 12.9774C14.8189 13.0388 16.0012 13.0695 17.1034 13.0695C18.2256 13.0695 19.4179 13.0388 20.6804 12.9774L20.7705 13.8671C20.47 13.9285 20.2195 13.9898 20.0191 14.0512C19.8387 14.1126 19.6884 14.1637 19.5682 14.2046C19.448 14.225 19.3578 14.2864 19.2977 14.3887C19.2376 14.4909 19.1975 14.5523 19.1774 14.5727C19.1374 14.675 19.1173 14.8795 19.1173 15.1863L18.9069 20.7086C15.7407 22.079 13.0054 22.7642 10.7009 22.7642C7.41447 22.7642 4.80939 21.854 2.88563 20.0337C0.961878 18.1929 0 15.5647 0 12.1491C0 10.1447 0.410802 8.32436 1.23241 6.68812C2.07405 5.03143 3.34653 3.69176 5.04986 2.66911C6.77322 1.62601 8.79717 1.10446 11.1217 1.10446C12.0836 1.10446 13.1557 1.18627 14.338 1.3499C15.5203 1.49307 16.3319 1.56465 16.7727 1.56465C17.2136 1.56465 17.6845 1.50329 18.1855 1.38057V1.84077C18.1855 3.33384 18.3057 4.77577 18.5462 6.16657L17.7046 6.53473C16.8429 3.85539 14.6085 2.51572 11.0015 2.51572C8.79717 2.51572 6.93354 3.29293 5.41056 4.84736C3.90763 6.40178 3.15616 8.66184 3.15616 11.6275C3.15616 14.1228 3.72728 16.2908 4.86951 18.1316C5.45064 19.0724 6.2522 19.8292 7.2742 20.4018C8.2962 20.9745 9.46848 21.2609 10.7911 21.2609Z" fill="black"/>
<path d="M25.4036 28.5712C25.2233 28.5712 24.9026 28.3156 24.4417 27.8042C23.9608 27.3134 23.6602 26.8225 23.54 26.3316L24.0209 25.718C24.602 26.1271 25.2233 26.3316 25.8845 26.3316C26.5458 26.3316 27.0268 26.1987 27.3274 25.9328C27.6279 25.6874 27.9185 24.4413 28.1991 23.6232C28.7 22.0688 28.9505 18.602 28.9505 13.2229C28.9505 9.31633 28.8904 6.40178 28.7702 4.4792L28.7101 3.49746C28.67 3.12931 28.4896 2.87364 28.169 2.73047C27.8484 2.56685 27.2071 2.38277 26.2453 2.17824L26.3354 1.28854C27.5979 1.3499 28.9205 1.38057 30.3032 1.38057C31.6859 1.38057 33.0085 1.3499 34.2709 1.28854L34.3611 2.17824C33.3792 2.38277 32.7179 2.56685 32.3772 2.73047C32.0366 2.87364 31.8462 3.12931 31.8061 3.49746C31.7059 7.30171 31.6558 11.4025 31.6558 15.7999C31.6558 17.6816 31.4354 19.4201 30.9945 21.0154C30.5537 22.6108 30.0026 23.8789 29.3413 24.8197C28.68 25.781 27.9987 27.2418 27.2973 27.7736C26.5959 28.3053 25.9647 28.5712 25.4036 28.5712Z" fill="black"/>
<path d="M58.174 21.2609C60.3783 21.2609 62.1618 20.8927 63.5244 20.1564L63.314 15.1863C63.2739 14.8182 63.0936 14.5625 62.773 14.4194C62.4523 14.2557 61.8111 14.0716 60.8492 13.8671L60.9394 12.9774C62.2018 13.0388 63.3841 13.0695 64.4863 13.0695C65.6085 13.0695 66.8008 13.0388 68.0633 12.9774L68.1535 13.8671C67.8529 13.9285 67.6024 13.9898 67.402 14.0512C67.2216 14.1126 67.0713 14.1637 66.9511 14.2046C66.8309 14.225 66.7407 14.2864 66.6806 14.3887C66.6205 14.4909 66.5804 14.5523 66.5603 14.5727C66.5203 14.675 66.5002 14.8795 66.5002 15.1863L66.2898 20.7086C63.1236 22.079 60.3883 22.7642 58.0838 22.7642C54.7974 22.7642 52.1923 21.854 50.2685 20.0337C48.3448 18.1929 47.3829 15.5647 47.3829 12.1491C47.3829 10.1447 47.7937 8.32436 48.6153 6.68812C49.457 5.03143 50.7294 3.69176 52.4328 2.66911C54.1561 1.62601 56.1801 1.10446 58.5046 1.10446C59.4665 1.10446 60.5386 1.18627 61.7209 1.3499C62.9032 1.49307 63.7148 1.56465 64.1557 1.56465C64.5965 1.56465 65.0674 1.50329 65.5684 1.38057V1.84077C65.5684 3.33384 65.6886 4.77577 65.9291 6.16657L65.0875 6.53473C64.2258 3.85539 61.9914 2.51572 58.3844 2.51572C56.1801 2.51572 54.3164 3.29293 52.7935 4.84736C51.2905 6.40178 50.5391 8.66184 50.5391 11.6275C50.5391 14.1228 51.1102 16.2908 52.2524 18.1316C52.8336 19.0724 53.6351 19.8292 54.6571 20.4018C55.6791 20.9745 56.8514 21.2609 58.174 21.2609Z" fill="black"/>
<path d="M75.5415 15.9533C73.8983 15.9942 72.6459 16.3112 71.7842 16.9044C70.9225 17.4975 70.4917 18.1418 70.4917 18.8372C70.4917 19.5326 70.662 20.0439 71.0027 20.3712C71.3634 20.678 71.9345 20.8314 72.716 20.8314C73.4976 20.8314 74.4394 20.4939 75.5415 19.8189V15.9533ZM77.7335 22.4881C76.5311 22.4881 75.8321 22.0074 75.6317 20.678C73.8683 22.0074 72.3453 22.6721 71.0628 22.6721C70.2011 22.6721 69.4697 22.4062 68.8685 21.8745C68.2673 21.3222 67.9668 20.4734 67.9668 19.3281C67.9668 18.1827 68.5579 17.1498 69.7402 16.2294C70.9426 15.3091 72.8763 14.7568 75.5415 14.5727V11.7196C75.5415 11.1469 75.3311 10.7071 74.9103 10.4003C74.5095 10.0935 73.9384 9.94015 73.197 9.94015C72.4555 9.94015 71.8644 10.1549 71.4235 10.5844C70.9827 10.9935 70.7622 11.5253 70.7622 12.1797C70.7622 12.4252 70.7923 12.7013 70.8524 13.0081L70.1911 13.3149C69.7903 13.0899 69.4096 12.7831 69.0489 12.3945C68.7082 12.0059 68.5379 11.7298 68.5379 11.5662C68.5379 11.3821 68.6681 11.1264 68.9286 10.7992C69.2092 10.4515 69.5799 10.0833 70.0408 9.69471C70.5017 9.3061 71.1129 8.97886 71.8744 8.71297C72.6559 8.42663 73.5276 8.28346 74.4895 8.28346C75.4514 8.28346 76.2329 8.52889 76.8341 9.01976C77.4352 9.49018 77.7358 10.3594 77.7358 11.6275C77.7358 12.8751 77.7959 15.5238 77.9162 19.5735C77.9362 20.5552 78.1093 21.0552 78.8106 21.0552C79.1112 21.0552 79.2623 21.0702 79.5908 21.0702V22.4113C79.5908 22.4113 78.6352 22.4881 77.7335 22.4881Z" fill="black"/>
<path d="M88.1671 8.09938C88.3274 8.09938 88.588 8.34482 88.9487 8.83569C89.3294 9.30611 89.5799 9.77652 89.7001 10.2469L89.2492 10.8299C88.5278 10.5435 87.7764 10.4003 86.9948 10.4003C86.2133 10.4003 85.5019 10.7378 84.8607 11.4128C84.2194 12.0673 83.8988 13.1308 83.8988 14.6034C83.9188 18.2032 84.009 19.7914 84.1693 20.3846C84.1894 20.5482 84.4699 20.7016 85.011 20.8448C85.5721 20.9675 86.1532 21.0493 86.7544 21.0902L86.6642 22.4881C85.7023 22.4267 84.4799 22.396 82.997 22.396C81.5342 22.396 80.6678 22.3916 79.706 22.453V21.0552C80.1067 21.0142 80.2717 20.9675 80.7126 20.8448C81.1534 20.7016 81.3839 20.5584 81.4039 20.4153C81.5642 19.6994 81.6444 18.7758 81.6444 16.6283C81.6444 13.1513 81.5642 11.0242 81.4039 10.2469L79.4802 9.66403L79.4201 8.86637C80.7026 8.86637 82.0251 8.68229 83.3878 8.31414L83.9589 8.59025C83.9188 8.89705 83.8988 9.73562 83.8988 11.106C84.4799 10.1242 85.2114 9.37769 86.0931 8.86637C86.9948 8.35504 87.6862 8.09938 88.1671 8.09938Z" fill="black"/>
<path d="M99.2874 20.678C97.9047 22.0074 96.3918 22.6721 94.7486 22.6721C93.1054 22.6721 91.7527 22.0688 90.6907 20.862C89.6486 19.6349 89.1276 17.8964 89.1276 15.6465C89.1276 13.3762 89.7488 11.5764 90.9912 10.2469C92.2537 8.9175 93.8067 8.25278 95.6503 8.25278C96.6523 8.25278 97.8546 8.6107 99.2574 9.32656C99.2574 5.54276 99.1973 3.22134 99.077 2.36232L99.0169 1.93281L97.0931 1.3499L97.033 0.552231C98.3155 0.552231 99.6381 0.368154 101.001 0L101.572 0.276116C101.532 2.83274 101.512 6.45291 101.512 11.1366C101.512 15.8204 101.532 18.4997 101.572 19.1747C101.612 19.8496 101.692 20.2791 101.812 20.4632C101.953 20.6268 102.153 20.7495 102.414 20.8314C102.834 20.9541 103.325 21.0359 103.886 21.0768L103.777 22.396C103.056 22.4574 102.414 22.4608 100.52 22.5187C99.9187 22.2528 99.5079 21.6393 99.2874 20.678ZM96.4319 10.1242C94.8488 10.1242 93.6765 10.656 92.915 11.7196C92.1736 12.7627 91.8028 14.0614 91.8028 15.6158C91.8028 17.1703 92.1335 18.4179 92.7948 19.3587C93.456 20.2791 94.3979 20.7393 95.6203 20.7393C96.8427 20.7393 98.0049 20.3814 99.1071 19.6655C99.2073 18.0293 99.2574 15.0329 99.2574 10.6765C98.2154 10.3083 97.2735 10.1242 96.4319 10.1242Z" fill="black"/>
<path d="M107.552 11.1366L107.522 15.3704C107.522 18.0088 107.602 19.7269 107.762 20.5246L107.822 20.9234C107.842 21.0666 108.063 21.2097 108.484 21.3529C108.925 21.4756 109.345 21.5574 109.746 21.5983L109.656 22.4881C108.694 22.4267 107.592 22.396 106.35 22.396C105.107 22.396 103.994 22.3809 103.032 22.4423L103.449 21.0552C103.829 21.0142 104.013 21.1779 104.434 21.0552C104.875 20.912 105.105 20.7688 105.125 20.6256C105.286 19.9098 105.267 18.7758 105.267 16.6283C105.267 13.1513 105.187 11.0242 105.027 10.2469L103.103 9.66403L103.043 8.86637C104.326 8.86637 105.648 8.68229 107.011 8.31414L107.582 8.59025V10.0629C109.806 8.87659 111.74 8.28346 113.383 8.28346C114.385 8.28346 115.147 8.48799 115.668 8.89705C116.189 9.30611 116.449 10.0731 116.449 11.198V15.3704C116.449 18.0088 116.519 19.7269 116.66 20.5246L116.75 20.9234C116.77 21.0666 116.99 21.2097 117.411 21.3529C117.852 21.4756 118.273 21.5574 118.674 21.5983L118.583 22.4881C117.622 22.4267 116.519 22.396 115.277 22.396C114.035 22.396 112.932 22.4267 111.971 22.4881L112.061 21.5983C112.441 21.5574 112.842 21.4756 113.263 21.3529C113.704 21.2097 113.934 21.0666 113.954 20.9234C114.115 20.2075 114.195 18.3565 114.195 15.3704V12.3945C114.195 11.5968 113.964 11.0446 113.504 10.7378C113.043 10.431 112.261 10.2776 111.159 10.2776C110.057 10.2776 108.854 10.564 107.552 11.1366Z" fill="black"/>
<path d="M127.378 12.5786C127.378 11.6377 127.117 10.9423 126.596 10.4924C126.075 10.022 125.494 9.78675 124.853 9.78675C123.911 9.78675 123.099 10.1651 122.418 10.9219C121.737 11.6787 121.286 12.6093 121.065 13.7137L127.288 13.4683C127.348 13.1615 127.378 12.8649 127.378 12.5786ZM124.763 22.6721C122.638 22.6721 121.035 22.0585 119.953 20.8314C118.871 19.5837 118.33 17.9373 118.33 15.892C118.33 13.8262 118.921 12.0468 120.104 10.5537C121.306 9.04022 123.109 8.28346 125.514 8.28346C126.736 8.28346 127.799 8.7232 128.7 9.60267C129.622 10.4822 130.083 11.7911 130.083 13.5296L129.061 14.7875C128.941 14.7671 127.989 14.7568 126.205 14.7568C124.442 14.7568 122.669 14.8284 120.885 14.9716V15.2477C120.885 17.1089 121.266 18.5099 122.027 19.4508C122.789 20.3712 123.831 20.8314 125.153 20.8314C126.476 20.8314 127.869 20.5041 129.332 19.8496L129.692 20.77C128.149 22.0381 126.506 22.6721 124.763 22.6721Z" fill="black"/>
<path d="M138.649 8.09938C138.81 8.09938 139.07 8.34482 139.431 8.83569C139.812 9.30611 140.062 9.77652 140.182 10.2469L139.731 10.8299C139.01 10.5435 138.259 10.4003 137.477 10.4003C136.695 10.4003 135.984 10.7378 135.343 11.4128C134.702 12.0673 134.381 13.1308 134.381 14.6034C134.401 18.2032 134.491 20.2996 134.651 20.8927C134.671 21.0563 134.952 21.2097 135.493 21.3529C136.054 21.4756 136.635 21.5574 137.237 21.5983L137.146 22.4881C136.184 22.4267 134.962 22.396 133.479 22.396C132.016 22.396 130.804 22.4267 129.842 22.4881L129.932 21.5983C130.333 21.5574 130.754 21.4756 131.195 21.3529C131.636 21.2097 131.866 21.0666 131.886 20.9234C132.046 20.2075 132.127 18.7758 132.127 16.6283C132.127 13.1513 132.046 11.0242 131.886 10.2469L129.962 9.66403L129.902 8.86637C131.185 8.86637 132.507 8.68229 133.87 8.31414L134.441 8.59025C134.401 8.89705 134.381 9.73562 134.381 11.106C134.962 10.1242 135.693 9.37769 136.575 8.86637C137.477 8.35504 138.168 8.09938 138.649 8.09938Z" fill="black"/>
<path d="M24.0111 22.1561C23.6086 22.6234 23.1121 22.857 22.5217 22.857C21.9314 22.857 21.4349 22.6234 21.0324 22.1561C20.6298 21.6576 20.4286 21.0502 20.4286 20.3336C20.4286 19.6171 20.6298 19.0252 21.0324 18.558C21.4349 18.0907 21.9314 17.857 22.5217 17.857C23.1121 17.857 23.6086 18.0907 24.0111 18.558C24.4405 19.0252 24.6552 19.6171 24.6552 20.3336C24.6552 21.0502 24.4405 21.6576 24.0111 22.1561Z" fill="black"/>
<path d="M38.0998 22.1561C37.6973 22.6234 37.2008 22.857 36.6104 22.857C36.02 22.857 35.5236 22.6234 35.121 22.1561C34.7185 21.6576 34.5172 21.0502 34.5172 20.3336C34.5172 19.6171 34.7185 19.0252 35.121 18.558C35.5236 18.0907 36.02 17.857 36.6104 17.857C37.2008 17.857 37.6973 18.0907 38.0998 18.558C38.5292 19.0252 38.7438 19.6171 38.7438 20.3336C38.7438 21.0502 38.5292 21.6576 38.0998 22.1561Z" fill="black"/>
<path d="M142.356 22.1561C141.953 22.6234 141.457 22.857 140.867 22.857C140.276 22.857 139.78 22.6234 139.377 22.1561C138.975 21.6576 138.773 21.0502 138.773 20.3336C138.773 19.6171 138.975 19.0252 139.377 18.558C139.78 18.0907 140.276 17.857 140.867 17.857C141.457 17.857 141.953 18.0907 142.356 18.558C142.785 19.0252 143 19.6171 143 20.3336C143 21.0502 142.785 21.6576 142.356 22.1561Z" fill="black"/>
<path d="M57.6479 40.7145H55.8937V37.0147H52.473V40.7145H50.7188V32.0817H52.473V35.5799H55.8937V32.0817H57.6479V40.7145Z" fill="#B80626"/>
<path d="M66.4786 36.5938C66.4786 37.4436 66.3304 38.1887 66.0342 38.829C65.7379 39.4694 65.313 39.9635 64.7594 40.3113C64.2098 40.6591 63.5783 40.8331 62.8649 40.8331C62.1593 40.8331 61.5298 40.6611 60.9762 40.3172C60.4227 39.9733 59.9939 39.4832 59.6898 38.8468C59.3857 38.2065 59.2317 37.4713 59.2278 36.6412V36.2143C59.2278 35.3645 59.3779 34.6174 59.6781 33.9731C59.9822 33.3249 60.409 32.8288 60.9587 32.4849C61.5122 32.1371 62.1437 31.9631 62.8532 31.9631C63.5627 31.9631 64.1922 32.1371 64.7419 32.4849C65.2954 32.8288 65.7223 33.3249 66.0225 33.9731C66.3265 34.6174 66.4786 35.3625 66.4786 36.2084V36.5938ZM64.701 36.2024C64.701 35.2973 64.5411 34.6095 64.2215 34.1391C63.9018 33.6687 63.4457 33.4336 62.8532 33.4336C62.2646 33.4336 61.8104 33.6668 61.4908 34.1332C61.1711 34.5957 61.0093 35.2755 61.0054 36.1728V36.5938C61.0054 37.4752 61.1653 38.159 61.4849 38.6452C61.8046 39.1314 62.2646 39.3745 62.8649 39.3745C63.4535 39.3745 63.9057 39.1413 64.2215 38.6749C64.5372 38.2045 64.6971 37.5207 64.701 36.6234V36.2024Z" fill="#B80626"/>
<path d="M70.3448 32.0817L72.5317 38.3428L74.7069 32.0817H77.0108V40.7145H75.2508V38.3547L75.4262 34.2814L73.1282 40.7145H71.9236L69.6314 34.2873L69.8069 38.3547V40.7145H68.0527V32.0817H70.3448Z" fill="#B80626"/>
<path d="M83.9645 36.9732H80.5964V39.2856H84.5492V40.7145H78.8422V32.0817H84.5375V33.5225H80.5964V35.5799H83.9645V36.9732Z" fill="#B80626"/>
<path d="M90.2925 38.4496C90.2925 38.1136 90.1755 37.8567 89.9416 37.6788C89.7077 37.497 89.2867 37.3072 88.6786 37.1096C88.0705 36.908 87.589 36.7104 87.2343 36.5167C86.2675 35.987 85.7842 35.2736 85.7842 34.3763C85.7842 33.9099 85.9128 33.4948 86.1701 33.1312C86.4313 32.7636 86.8036 32.477 87.2869 32.2715C87.7742 32.0659 88.32 31.9631 88.9242 31.9631C89.5323 31.9631 90.0742 32.0758 90.5498 32.3011C91.0253 32.5225 91.3937 32.8367 91.6549 33.2438C91.92 33.651 92.0525 34.1134 92.0525 34.6312H90.2983C90.2983 34.236 90.1755 33.9296 89.9299 33.7122C89.6843 33.4909 89.3394 33.3802 88.895 33.3802C88.4661 33.3802 88.1328 33.4731 87.8951 33.6589C87.6573 33.8407 87.5384 34.0818 87.5384 34.3822C87.5384 34.6629 87.6768 34.898 87.9535 35.0878C88.2342 35.2775 88.6455 35.4554 89.1873 35.6214C90.1853 35.9258 90.9123 36.3032 91.3684 36.7538C91.8245 37.2045 92.0525 37.7657 92.0525 38.4377C92.0525 39.1848 91.7738 39.7718 91.2164 40.1986C90.6589 40.6216 89.9085 40.8331 88.9651 40.8331C88.3102 40.8331 87.7138 40.7125 87.1758 40.4714C86.6379 40.2263 86.2266 39.8923 85.942 39.4694C85.6614 39.0464 85.521 38.5563 85.521 37.999H87.2811C87.2811 38.9516 87.8424 39.4279 88.9651 39.4279C89.3822 39.4279 89.7077 39.3429 89.9416 39.1729C90.1755 38.999 90.2925 38.7579 90.2925 38.4496Z" fill="#B80626"/>
<path d="M46.4922 27.8574H96.507V29.286H46.4922V27.8574Z" fill="#B80626"/>
<path d="M46.4922 43.5716H96.507V45.0002H46.4922V43.5716Z" fill="#B80626"/>
</svg>
