<svg width="237" height="45" viewBox="0 0 237 45" fill="none" xmlns="http://www.w3.org/2000/svg">
<g clip-path="url(#clip0)">
<path d="M59.8008 9.59668H64.9514V36.922H59.8008V9.59668ZM79.3188 36.922L67.8791 26.5123C67.2827 25.9702 66.9032 25.428 66.7405 24.8316C66.5779 24.2352 66.4694 23.5846 66.4694 22.8798C66.4694 22.3376 66.5779 21.7955 66.849 21.2533C67.1201 20.6569 67.4454 20.2232 67.7707 19.8437L78.1261 9.59668H84.5779L72.7586 20.8196C72.4333 21.1449 72.1622 21.416 71.8911 21.7413C71.62 22.0123 71.4574 22.3919 71.4574 22.8798C71.4574 23.4762 71.6201 23.9099 71.9454 24.2895C72.2707 24.669 72.6502 25.0485 73.0297 25.3738L85.9333 36.9762H79.3188V36.922Z" fill="black"/>
<path d="M87.5059 36.922V9.59668H92.6565V36.922H87.5059Z" fill="black"/>
<path d="M123.506 33.3438C123.506 34.6992 123.126 35.7293 122.313 36.3257C121.5 36.9221 120.578 37.2474 119.439 37.2474C118.626 37.2474 117.813 37.0847 117.054 36.8136C116.295 36.5426 115.644 35.892 115.048 34.9161L103.554 16.6992C103.337 16.4281 103.228 16.2112 103.12 16.157C103.066 16.1028 102.957 16.0486 102.903 16.0486C102.795 16.0486 102.686 16.1028 102.578 16.2112C102.469 16.3197 102.361 16.5365 102.361 16.8076V36.8679H97.373V12.9582C97.373 11.7655 97.7526 10.898 98.4574 10.2474C99.1622 9.59678 100.192 9.27148 101.548 9.27148C102.795 9.27148 103.716 9.48835 104.367 9.92209C105.018 10.3558 105.506 10.8438 105.885 11.4402L117.488 29.7655C117.596 29.8739 117.65 30.0365 117.759 30.1992C117.813 30.3618 117.921 30.4161 118.138 30.4161C118.355 30.4161 118.463 30.3076 118.518 30.145C118.572 29.9823 118.572 29.8197 118.572 29.7112V9.54257H123.56V33.3438H123.506Z" fill="black"/>
<path d="M132.181 36.9225C130.988 36.9225 130.067 36.6514 129.307 36.055C128.548 35.4586 128.169 34.3743 128.169 32.8562V13.7176C128.169 12.1453 128.548 11.061 129.307 10.5188C130.067 9.97666 130.988 9.65137 132.181 9.65137H142.753C145.085 9.65137 146.928 10.0309 148.338 10.8441C149.747 11.6574 150.832 12.6875 151.591 13.9887C152.35 15.2899 152.892 16.7538 153.109 18.3803C153.38 20.0068 153.488 21.6333 153.488 23.314C153.488 24.9947 153.38 26.6212 153.109 28.2478C152.838 29.8743 152.404 31.3381 151.645 32.6393C150.94 33.9405 149.91 34.9706 148.554 35.7839C147.253 36.5971 145.518 36.9767 143.35 36.9767H132.181V36.9225ZM135.326 13.6634C134.567 13.6634 134.024 13.7718 133.753 14.0429C133.482 14.314 133.374 14.802 133.374 15.6152V30.8502C133.374 31.6092 133.482 32.1514 133.753 32.4224C134.024 32.6935 134.512 32.802 135.326 32.802H140.964C142.536 32.802 143.783 32.5851 144.705 32.0971C145.681 31.6092 146.386 30.9586 146.928 30.0911C147.47 29.2237 147.795 28.2477 147.958 27.055C148.121 25.9164 148.229 24.6152 148.229 23.2598C148.229 21.9044 148.121 20.6574 147.958 19.4646C147.795 18.2718 147.47 17.2959 146.928 16.4285C146.386 15.561 145.681 14.9104 144.705 14.4225C143.729 13.9345 142.482 13.7176 140.964 13.7176H135.326V13.6634Z" fill="black"/>
<path d="M169.319 33.1268C171.704 33.1268 173.385 32.6388 174.469 31.6629C175.5 30.687 176.042 29.1148 176.042 27.0003V9.59668H181.192V27.0003C181.192 28.9521 180.921 30.5786 180.379 31.8798C179.837 33.181 179.078 34.2654 178.048 35.0244C177.018 35.7834 175.771 36.3798 174.307 36.7051C172.843 37.0304 171.162 37.1931 169.319 37.1931C167.475 37.1931 165.795 37.0304 164.331 36.7051C162.867 36.3798 161.62 35.7834 160.59 35.0244C159.56 34.2654 158.801 33.181 158.259 31.8798C157.716 30.5786 157.445 28.9521 157.445 27.0003V9.59668H162.596V27.0003C162.596 29.169 163.138 30.7413 164.168 31.6629C165.198 32.6388 166.933 33.1268 169.319 33.1268Z" fill="black"/>
<path d="M196.644 36.922C194.313 36.922 192.361 36.5967 190.897 35.8919C189.379 35.187 188.241 34.2654 187.319 33.0184C186.452 31.7714 185.855 30.3617 185.53 28.681C185.205 27.0003 185.042 25.2111 185.042 23.2593C185.042 21.3075 185.205 19.5184 185.53 17.8376C185.855 16.1569 186.452 14.7473 187.319 13.5003C188.187 12.2533 189.379 11.3316 190.897 10.6268C192.415 9.92199 194.313 9.59668 196.644 9.59668H207.596V13.7172H199.03C197.349 13.7172 195.994 13.8798 194.855 14.1509C193.771 14.4762 192.849 14.9641 192.199 15.669C191.548 16.3738 191.06 17.4039 190.735 18.5967C190.464 19.8437 190.301 21.3617 190.301 23.2051C190.301 25.0485 190.464 26.6208 190.735 27.8136C191.006 29.0605 191.494 30.0364 192.199 30.7413C192.849 31.4461 193.771 31.9882 194.855 32.2593C195.94 32.5846 197.349 32.6931 199.03 32.6931H208.03V36.8135H196.644V36.922Z" fill="black"/>
<path d="M220.662 36.922V13.7172H209.981V9.59668H236.493V13.7172H225.813V36.922H220.662V36.922Z" fill="black"/>
<path d="M26.9453 44.6206C26.9453 44.6206 27.6501 25.699 28.5176 23.205C29.3851 20.711 30.361 16.0483 36.7586 11.223C43.1561 6.39775 52.4272 1.03027 52.4272 1.03027" fill="#6D7473"/>
<path d="M25.6987 44.6206C25.6987 44.6206 24.9939 25.699 24.1264 23.205C23.259 20.711 22.283 16.0483 15.8855 11.223C9.48786 6.39775 0.216797 1.03027 0.216797 1.03027" fill="#BCC1C2"/>
<path d="M1.13867 0C1.13867 0 16.1567 8.13253 20.1146 9.54217C24.0724 10.9518 30.3074 10.3554 31.3917 9.9759C34.7532 9.10843 39.7953 6.77711 51.7772 0" fill="#E9922D"/>
<path d="M26.4422 9.71993C27.7917 9.44404 28.5452 7.55572 28.1254 5.50225C27.7056 3.44878 26.2713 2.00777 24.9219 2.28366C23.5725 2.55955 22.8189 4.44787 23.2387 6.50134C23.6585 8.55481 25.0928 9.99582 26.4422 9.71993Z" fill="white"/>
</g>
<defs>
<clipPath id="clip0">
<rect width="236.928" height="45" fill="white"/>
</clipPath>
</defs>
</svg>
