<svg width="133" height="45" viewBox="0 0 133 45" fill="none" xmlns="http://www.w3.org/2000/svg">
<g clip-path="url(#clip0)">
<path d="M9.64798 14.4034C9.64798 13.4588 9.39233 12.7352 8.88101 12.2325C8.3697 11.7299 7.44673 11.2402 6.11212 10.7636C4.7775 10.2869 3.75488 9.78862 3.04424 9.26864C2.34226 8.74 1.81362 8.14202 1.4583 7.47471C1.11164 6.79874 0.938317 6.02744 0.938317 5.1608C0.938317 3.66153 1.43663 2.42657 2.43326 1.45594C3.43855 0.485315 4.7515 0 6.37211 0C7.4814 0 8.46936 0.251324 9.33599 0.753971C10.2026 1.24795 10.8699 1.93693 11.3379 2.82089C11.8059 3.70486 12.0399 4.67549 12.0399 5.73278H9.64798C9.64798 4.56283 9.36633 3.65719 8.80302 3.01588C8.2397 2.37458 7.4294 2.05392 6.37211 2.05392C5.41015 2.05392 4.66484 2.32258 4.13619 2.85989C3.60755 3.3972 3.34322 4.15117 3.34322 5.1218C3.34322 5.91911 3.62921 6.58641 4.20119 7.12373C4.77317 7.66104 5.65714 8.14202 6.85309 8.56667C8.71635 9.18198 10.0466 9.94029 10.8439 10.8416C11.6499 11.7429 12.0529 12.9215 12.0529 14.3774C12.0529 15.9114 11.5546 17.142 10.5579 18.0693C9.56132 18.9879 8.20504 19.4473 6.4891 19.4473C5.38848 19.4473 4.37019 19.2089 3.43422 18.7323C2.50692 18.247 1.77462 17.571 1.23731 16.7044C0.708659 15.8291 0.444336 14.8281 0.444336 13.7015H2.83624C2.83624 14.8714 3.16123 15.7814 3.81121 16.4314C4.46985 17.0813 5.36248 17.4063 6.4891 17.4063C7.53773 17.4063 8.32637 17.1377 8.85501 16.6004C9.38366 16.0631 9.64798 15.3307 9.64798 14.4034Z" fill="#0393DA"/>
<path d="M22.3817 10.4646L20.5228 12.7135V19.1873H18.1439V0.25999H20.5228V9.39864L22.0827 7.33172L27.1785 0.25999H30.0384L23.8897 8.59267L30.5194 19.1873H27.6725L22.3817 10.4646Z" fill="#0393DA"/>
<path d="M42.0153 9.76263L45.8891 0.25999H48.58L43.1983 12.1285V19.1873H40.8193V12.1285L35.4375 0.25999H38.1414L42.0153 9.76263Z" fill="#0393DA"/>
<path d="M11.5366 35.5373H0V32.4694H11.5366V35.5373Z" fill="#93A5AF"/>
<path d="M28.3022 36.0183H22.3615V43.74H18.5396V24.8127H29.0172V27.9976H22.3615V32.8464H28.3022V36.0183Z" fill="#93A5AF"/>
<path d="M46.4698 24.8127V37.9162C46.4524 39.8835 45.9108 41.3914 44.8448 42.44C43.7789 43.48 42.2492 44 40.256 44C38.2281 44 36.6768 43.4713 35.6022 42.414C34.5362 41.3568 34.0032 39.8271 34.0032 37.8252V24.8127H37.8511V37.8382C37.8511 38.9129 38.0244 39.6798 38.3711 40.1391C38.7177 40.5985 39.346 40.8281 40.256 40.8281C41.166 40.8281 41.7899 40.6028 42.1279 40.1521C42.4659 39.6928 42.6392 38.9432 42.6479 37.9032V24.8127H46.4698Z" fill="#93A5AF"/>
<path d="M64.2895 27.9976H59.6096V43.74H55.7748V27.9976H51.173V24.8127H64.2895V27.9976Z" fill="#93A5AF"/>
<path d="M81.1634 24.8127V37.9162C81.1461 39.8835 80.6044 41.3914 79.5385 42.44C78.4725 43.48 76.9429 44 74.9496 44C72.9217 44 71.3704 43.4713 70.2958 42.414C69.2299 41.3568 68.6969 39.8271 68.6969 37.8252V24.8127H72.5447V37.8382C72.5447 38.9129 72.7181 39.6798 73.0647 40.1391C73.4114 40.5985 74.0397 40.8281 74.9496 40.8281C75.8596 40.8281 76.4836 40.6028 76.8216 40.1521C77.1596 39.6928 77.3329 38.9432 77.3415 37.9032V24.8127H81.1634Z" fill="#93A5AF"/>
<path d="M93.6406 36.8243H91.7427V43.74H87.9208V24.8127H94.0176C95.9329 24.8127 97.4105 25.311 98.4504 26.3077C99.4991 27.2956 100.023 28.7039 100.023 30.5325C100.023 33.0457 99.1091 34.805 97.2805 35.8103L100.595 43.558V43.74H96.4875L93.6406 36.8243ZM91.7427 33.6394H93.9136C94.6762 33.6394 95.2482 33.3881 95.6295 32.8854C96.0109 32.3741 96.2015 31.6938 96.2015 30.8445C96.2015 28.9466 95.4605 27.9976 93.9786 27.9976H91.7427V33.6394Z" fill="#93A5AF"/>
<path d="M115.383 35.5503H109.429V40.5681H116.475V43.74H105.607V24.8127H116.449V27.9976H109.429V32.4694H115.383V35.5503Z" fill="#93A5AF"/>
<path d="M129.342 38.7742C129.342 38.0029 129.143 37.4222 128.744 37.0323C128.354 36.6336 127.639 36.222 126.599 35.7973C124.701 35.078 123.336 34.2374 122.504 33.2754C121.672 32.3048 121.256 31.1608 121.256 29.8435C121.256 28.2489 121.819 26.9706 122.946 26.0087C124.081 25.038 125.52 24.5527 127.262 24.5527C128.423 24.5527 129.459 24.7997 130.369 25.2937C131.279 25.779 131.976 26.468 132.462 27.3606C132.956 28.2533 133.203 29.2672 133.203 30.4025H129.394C129.394 29.5185 129.203 28.8469 128.822 28.3876C128.449 27.9196 127.908 27.6856 127.197 27.6856C126.53 27.6856 126.01 27.8849 125.637 28.2836C125.264 28.6736 125.078 29.2022 125.078 29.8695C125.078 30.3895 125.286 30.8618 125.702 31.2865C126.118 31.7025 126.855 32.1358 127.912 32.5864C129.758 33.2537 131.097 34.0727 131.929 35.0433C132.769 36.014 133.19 37.2489 133.19 38.7482C133.19 40.3948 132.665 41.6817 131.617 42.609C130.568 43.5363 129.143 44 127.34 44C126.118 44 125.004 43.7487 123.999 43.246C122.994 42.7434 122.205 42.0241 121.633 41.0881C121.07 40.1521 120.788 39.0472 120.788 37.7732H124.623C124.623 38.8652 124.835 39.6582 125.26 40.1521C125.685 40.6461 126.378 40.8931 127.34 40.8931C128.675 40.8931 129.342 40.1868 129.342 38.7742Z" fill="#93A5AF"/>
</g>
<defs>
<clipPath id="clip0">
<rect width="133" height="45" fill="white"/>
</clipPath>
</defs>
</svg>
