<svg width="144" height="45" viewBox="0 0 144 45" fill="none" xmlns="http://www.w3.org/2000/svg">
<g clip-path="url(#clip0)">
<path d="M7.3125 44.5173H25.6339L30.4554 38.9727H12.4554L7.3125 44.5173Z" fill="#9FA0A2"/>
<path d="M20.25 28.1243L6.99108 14.5439L0 21.535L19.9286 41.8654L36.1607 19.1243L31.7411 15.7493L20.25 28.1243Z" fill="#4B699C"/>
<path d="M38.1702 12.2943C37.0452 11.4104 35.438 11.6515 34.5541 12.7765C33.6702 13.9015 33.9112 15.5086 35.0362 16.3925C36.1612 17.2765 37.7684 17.0354 38.6523 15.9104C39.4559 14.705 39.2952 13.0979 38.1702 12.2943Z" fill="#4B699C"/>
<path d="M42.268 7.71426C41.384 7.0714 40.0983 7.23212 39.4555 8.11605C38.8126 8.99997 38.9733 10.2857 39.8573 10.9285C40.7412 11.5714 42.0269 11.4107 42.6698 10.5268C43.3126 9.64283 43.1519 8.35712 42.268 7.71426Z" fill="#4B699C"/>
<path d="M45.3217 3.77673C44.5985 3.21423 43.6341 3.37494 43.0716 4.09815C42.5091 4.82136 42.6699 5.78564 43.3931 6.34814C44.1163 6.91064 45.0806 6.74993 45.6431 6.02672C46.1252 5.3035 46.0449 4.25887 45.3217 3.77673Z" fill="#4B699C"/>
<path d="M47.7326 0.72279C47.1701 0.321005 46.4469 0.401376 46.0451 0.963876C45.6433 1.52638 45.7236 2.24957 46.2861 2.65136C46.8486 3.05314 47.5719 2.9728 47.9737 2.4103C48.3754 1.8478 48.2951 1.12458 47.7326 0.72279Z" fill="#4B699C"/>
<path d="M57.1339 37.6075C57.0535 40.8218 55.2054 41.9468 49.7411 41.9468C45.0804 41.9468 43.0714 41.6254 41.866 40.7415C40.5803 39.7772 39.9375 37.929 39.9375 35.1968C39.9375 31.9022 40.7411 30.054 42.4286 29.0897C43.5536 28.4468 45.0803 28.2861 48.2946 28.2861C52.9553 28.2861 54.4822 28.6879 55.7679 30.054C56.8125 31.2593 57.0535 32.4647 57.1339 35.5986H42.1875C42.2678 37.3665 42.5089 38.4111 43.1518 39.054C43.9554 39.8576 45.4018 40.179 49.4196 40.179C52.4732 40.179 53.6785 39.9379 54.3214 39.1343C54.6428 38.8129 54.7232 38.5718 54.8036 37.6879H57.1339V37.6075ZM54.8036 33.7504C54.8036 30.7772 53.4375 30.054 48.2946 30.054C43.6339 30.054 42.5089 30.7772 42.2678 33.7504H54.8036Z" fill="black"/>
<path d="M62.3571 28.3658V30.1336H62.5178C62.8393 29.4908 63.4018 29.0087 64.125 28.6872C64.9285 28.2854 66.0536 28.2051 68.625 28.2051C71.2768 28.2051 72.3214 28.4461 73.2053 29.2497C74.0892 30.0533 74.5714 31.339 74.5714 33.0265V34.3926H72.3214V33.4283C72.3214 30.6158 71.5982 30.0533 68.3036 30.0533C63.2411 30.0533 62.2768 30.8568 62.2768 35.5979V41.7854H60.1875V28.3658H62.3571V28.3658Z" fill="black"/>
<path d="M79.312 22.5V24.9911H77.2227V22.5H79.312ZM79.312 28.3661V41.7857H77.2227V28.3661H79.312Z" fill="black"/>
<path d="M84.7771 37.125V37.5268C84.7771 39.9375 85.1789 40.0982 91.2056 40.0982C94.9021 40.0982 95.9467 40.0179 96.5896 39.4554C96.9914 39.1339 97.1521 38.6518 97.1521 38.0089C97.1521 36.4018 96.2681 35.9197 93.6164 35.9197C93.0539 35.9197 92.5717 35.9196 87.5092 35.8393C83.9735 35.7589 82.7681 34.7946 82.7681 32.1429C82.7681 30.6964 83.2503 29.6518 84.2146 29.0089C85.1789 28.3661 87.1878 28.125 91.1253 28.125C95.6253 28.125 97.4735 28.5268 98.4378 29.8125C98.9199 30.4554 99.0806 30.8571 99.0806 32.4643H96.8306C96.8306 31.5 96.7503 31.0982 96.4289 30.8571C95.8664 30.2143 94.2592 30.0536 91.0449 30.0536C88.0717 30.0536 86.3038 30.2947 85.661 30.6964C85.2592 31.0179 85.0181 31.5 85.0181 32.1429C85.0181 33.5893 85.8217 33.9911 89.036 33.9107C89.9199 33.9107 93.7771 33.9911 95.2235 33.9911C98.2771 34.0714 99.5628 35.2768 99.5628 37.9286C99.5628 39.6161 99.0807 40.5804 97.9557 41.1429C96.9914 41.625 95.0628 41.8661 91.2056 41.8661C86.6253 41.8661 84.7771 41.625 83.8128 40.9018C82.8485 40.2589 82.6074 39.375 82.6074 37.7679V37.0446H84.7771V37.125Z" fill="black"/>
<path d="M104.705 22.5V33.5893H105.911L114.027 28.4464H117.402L108.08 34.5536L118.768 41.8661H115.232L105.83 35.5179H104.705V41.8661H102.616V22.5804H104.705V22.5Z" fill="black"/>
<path d="M123.107 22.5V24.9911H121.018V22.5H123.107ZM123.107 28.3661V41.7857H121.018V28.3661H123.107Z" fill="black"/>
<path d="M128.813 28.3658V30.3747H128.973C129.857 28.6068 131.304 28.2051 135.723 28.2051C139.581 28.2051 141.188 28.5265 142.232 29.6515C143.036 30.5354 143.357 31.6604 143.357 34.2319V41.7854H141.268V35.1158C141.268 32.7051 141.107 31.9015 140.545 31.1783C139.822 30.3747 138.536 30.0533 135.563 30.0533C132.268 30.0533 130.581 30.4551 129.697 31.5801C129.054 32.3836 128.893 33.0265 128.893 35.5176V41.7051H126.804V28.2854H128.813V28.3658Z" fill="black"/>
</g>
<defs>
<clipPath id="clip0">
<rect width="143.839" height="45" fill="white"/>
</clipPath>
</defs>
</svg>
