<svg width="129" height="31" viewBox="0 0 129 31" fill="none" xmlns="http://www.w3.org/2000/svg">
<g clip-path="url(#clip0_1526_15638)">
<path d="M30.3388 28.9443H23.1465L20.9583 23.6226H9.02963L7.03536 28.9443H0L10.7469 2.0752H18.447L30.3388 28.9443ZM14.7447 8.47616L10.7931 18.9428H19.001L14.7447 8.47616Z" fill="black"/>
<path d="M56.2834 2.0752H62.0723V28.9443H55.4248V12.1976L48.2324 20.6268H47.2168L40.0245 12.1604V28.9071H33.377V2.0752H39.1659L47.7246 12.0674L56.2834 2.0752Z" fill="black"/>
<path d="M78.9124 2.0752C88.6437 2.0752 93.6848 8.17844 93.6848 15.547C93.6848 23.2691 88.8376 28.9443 78.2015 28.9443H67.1406V2.0752H78.9124ZM73.7882 24.0227H78.1276C84.8121 24.0227 86.8064 19.4545 86.8064 15.5098C86.8064 10.8579 84.3412 6.99686 78.0537 6.99686H73.7882V24.0227Z" fill="black"/>
<path d="M120.616 8.44778H106.868L98.4941 0H128.999V30.7488L120.616 22.301V8.44778Z" fill="#009A66"/>
<path d="M106.86 22.3099V10.1406L98.2363 18.8303V31.0089H110.313L118.936 22.3099H106.86Z" fill="#009A66"/>
</g>
<defs>
<clipPath id="clip0_1526_15638">
<rect width="129" height="31" fill="white"/>
</clipPath>
</defs>
</svg>
