<svg width="153" height="34" viewBox="0 0 153 34" fill="none" xmlns="http://www.w3.org/2000/svg">
<path d="M144.212 21.165C143.199 20.4046 141.933 19.7709 140.287 19.1371C139.654 18.8837 139.021 18.757 138.515 18.6302C137.628 18.3768 136.742 18.2501 135.982 17.8698C135.603 17.6164 134.843 17.3629 134.97 16.7292C135.096 15.9688 135.856 15.5885 136.236 15.4618C138.641 14.5747 140.92 15.8421 142.06 16.7292C142.186 16.856 142.44 16.856 142.566 16.856C142.819 16.856 143.073 16.6025 143.326 16.349L145.605 13.1806C145.858 12.9271 145.732 12.2934 145.478 12.04C142.819 9.88545 139.274 8.9983 135.856 9.50524C132.69 10.0122 130.158 11.7865 129.145 14.3212C127.879 17.3629 128.892 20.6581 131.678 22.4323C133.07 23.3195 134.716 23.8264 136.362 24.2067L136.742 24.3334C137.375 24.4602 138.135 24.7136 138.768 24.8403C139.274 24.9671 139.907 25.2206 140.287 25.7275C140.667 26.2344 140.54 26.6147 140.414 26.8681C140.034 27.7552 138.388 28.1355 137.628 28.1355C135.729 28.1355 133.703 27.3751 131.678 25.8541C131.551 25.7275 131.424 25.7275 131.298 25.7275H131.171C130.918 25.7275 130.665 25.9809 130.538 26.2344L128.259 29.5296C128.006 29.783 128.132 30.4168 128.386 30.6702C131.424 33.0782 135.096 34.2189 138.641 33.9653C141.427 33.7118 144.719 32.4445 146.238 29.4028C147.378 26.3612 146.618 23.066 144.212 21.165Z" fill="#1B51A3"/>
<path d="M99.1374 0H94.5794C94.3262 0 94.073 0.126736 93.8198 0.253472C93.5664 0.506945 93.5664 0.633681 93.5664 1.01389V32.698C93.5664 32.9514 93.6931 33.2049 93.8198 33.4584C94.073 33.7118 94.1995 33.7118 94.5794 33.7118H99.1374C99.3906 33.7118 99.6438 33.5852 99.8971 33.4584C100.15 33.2049 100.15 32.9514 100.15 32.698V1.01389C100.15 0.760417 100.024 0.506945 99.8971 0.380208C99.6438 0.126736 99.3906 0 99.1374 0Z" fill="#1B51A3"/>
<path d="M63.4332 0H58.8752C58.622 0 58.3688 0.126736 58.1156 0.253472C57.8624 0.506945 57.8624 0.633681 57.8624 1.01389V11.0261C56.0897 10.0122 54.064 9.63195 51.9116 9.63195C48.493 9.63195 45.4544 10.7726 43.0486 13.1806C40.643 15.5885 39.377 18.3768 39.377 21.7986C39.377 25.2206 40.643 28.0087 43.0486 30.4166C45.4544 32.698 48.3664 33.9653 51.9116 33.9653C54.064 33.9653 56.0897 33.4584 57.8624 32.5712V32.9514C57.8624 33.2049 57.9889 33.4584 58.1156 33.7118C58.2421 33.9653 58.4953 33.9653 58.8752 33.9653H63.4332C63.6864 33.9653 63.9396 33.8386 64.1929 33.7118C64.4461 33.4584 64.4461 33.2049 64.4461 32.9514V1.26736C64.4461 1.01389 64.3195 0.760417 64.1929 0.633681C63.9396 0.126736 63.6864 0 63.4332 0ZM56.0897 25.981C54.9502 27.1216 53.5576 27.7552 51.9116 27.7552C50.2656 27.7552 48.8729 27.1216 47.7333 25.981C46.5938 24.8403 46.0874 23.4462 46.0874 21.6719C46.0874 20.0243 46.5938 18.5034 47.7333 17.3629C48.8729 16.2222 50.2656 15.5885 51.9116 15.5885C53.5576 15.5885 54.9502 16.2222 56.0897 17.3629C57.2292 18.5034 57.7357 20.0243 57.7357 21.6719C57.7357 23.4462 57.2292 24.8403 56.0897 25.981Z" fill="#1B51A3"/>
<path d="M114.836 9.50586C108.126 9.50586 102.682 14.9555 102.682 21.6726C102.682 28.3896 108.126 33.8393 114.836 33.8393C121.547 33.8393 126.991 28.3896 126.991 21.6726C126.865 14.9555 121.42 9.50586 114.836 9.50586ZM114.836 27.6292C111.544 27.6292 108.759 24.9677 108.759 21.5458C108.759 18.2506 111.418 15.4625 114.836 15.4625C118.128 15.4625 120.914 18.1239 120.914 21.5458C120.787 24.9677 118.128 27.6292 114.836 27.6292Z" fill="#1B51A3"/>
<path d="M149.655 9.50586H147.882C147.756 9.50586 147.756 9.63261 147.756 9.63261V10.0128C147.756 10.1395 147.882 10.1395 147.882 10.1395H148.389V12.2941C148.389 12.4208 148.515 12.4208 148.515 12.4208H148.895C149.022 12.4208 149.022 12.2941 149.022 12.2941V10.2663H149.528C149.655 10.2663 149.655 10.1395 149.655 10.1395V9.75934C149.908 9.63259 149.782 9.50586 149.655 9.50586Z" fill="#1B51A3"/>
<path d="M152.821 9.50586H152.568C152.568 9.50586 152.441 9.50586 152.441 9.63261L151.555 11.0267L150.669 9.63261L150.542 9.50586H150.289C150.162 9.50586 150.162 9.63261 150.162 9.63261V12.2941C150.162 12.4208 150.289 12.4208 150.289 12.4208H150.669C150.795 12.4208 150.795 12.2941 150.795 12.2941V11.1534L151.302 11.9139L151.428 12.0406H151.681C151.681 12.0406 151.808 12.0406 151.808 11.9139L152.315 11.1534V12.2941C152.315 12.4208 152.441 12.4208 152.441 12.4208H152.821C152.948 12.4208 152.948 12.2941 152.948 12.2941V9.75934C153.075 9.63259 152.948 9.50586 152.821 9.50586Z" fill="#1B51A3"/>
<path d="M25.5756 21.5449C24.8159 23.4459 22.5368 27.3747 17.7256 27.5015C13.5475 27.5015 10.3822 24.5866 9.62249 21.5449C9.49589 21.1646 9.24266 20.9111 8.73621 20.9111H0.886284C0.379835 20.9111 0 21.2914 0 21.7983C0.379835 27.1212 4.68463 33.965 13.1676 33.965C22.1571 33.965 25.449 26.1074 25.7022 21.6717C25.8288 21.5449 25.7022 21.4181 25.5756 21.5449Z" fill="#1B51A3"/>
<path d="M22.0306 4.81641C13.0412 4.81641 9.74932 12.6741 9.49609 17.1098C9.49609 17.2366 9.6227 17.2366 9.74932 17.1098C10.509 15.2088 12.788 11.28 17.5993 11.1532C21.7774 11.1532 24.9428 14.0682 25.7024 17.1098C25.829 17.49 26.0822 17.7435 26.5886 17.7435H34.5653C35.0717 17.7435 35.4516 17.3632 35.4516 16.8563C34.8185 11.5334 30.6402 4.81641 22.0306 4.81641Z" fill="#1B51A3"/>
<path d="M91.0335 24.8409C91.1601 24.334 90.7803 23.7003 90.1472 23.7003H85.5892C85.2093 23.7003 84.8295 23.9537 84.7029 24.334C84.7029 24.334 84.7029 24.4607 84.5763 24.4607C83.5633 26.3617 81.6643 27.6292 79.2585 27.6292C77.6127 27.6292 76.0933 26.8688 74.9537 25.8548L77.7392 24.4607L89.3876 18.3774C90.1472 17.9971 90.5271 16.9833 90.1472 16.0961C88.1215 12.1673 84.0699 9.50586 79.3852 9.50586C72.6748 9.50586 67.2305 14.9555 67.2305 21.6726C67.2305 28.3896 72.6748 33.8393 79.3852 33.8393C84.8295 33.8393 89.5141 30.0372 91.0335 24.8409ZM79.2585 15.5892C80.3981 15.5892 81.4109 15.9694 82.2973 16.4764L73.3078 21.1657C73.5611 17.9971 76.0933 15.5892 79.2585 15.5892Z" fill="#1B51A3"/>
</svg>
