<svg width="112" height="27" viewBox="0 0 112 27" fill="none" xmlns="http://www.w3.org/2000/svg">
<path d="M77.5284 22.0299C72.7072 22.0299 70.8494 17.6711 70.8494 13.2415C70.8494 8.81194 72.7072 4.45617 77.5284 4.45617C82.3448 4.45617 84.2078 8.81194 84.2078 13.2415C84.2078 17.6711 82.3448 22.0299 77.5281 22.0299H77.5284ZM77.5281 0C69.9361 0 65.5527 5.5872 65.5527 13.2415C65.5527 20.8988 69.9361 26.4849 77.5281 26.4849C85.1162 26.4849 89.4985 20.8988 89.4985 13.2415C89.4985 5.5872 85.1162 0.00036915 77.5281 0.00036915V0ZM0 0.743065H19.0231V5.19961H5.29181V10.7432H18.0966V15.0872H5.29181V21.2879H19.0235V25.7426H0V0.743065ZM31.372 13.7875H26.5816V5.19407H31.372C34.702 5.19407 36.9164 6.61745 36.9164 9.49189C36.9164 12.3656 34.702 13.7875 31.372 13.7875ZM21.292 25.7415H26.5816V18.2407H31.372C37.8556 18.2407 42.2067 15.113 42.2067 9.49189C42.2067 3.86999 37.8556 0.743434 31.372 0.743434H21.292V25.7415ZM96.9307 0.743065H91.498V25.7422H96.6857V15.6162C96.6857 12.8444 96.585 10.3859 96.4891 8.2121C97.1006 9.46346 98.9584 13.2238 99.8153 14.6361L106.567 25.7422H112V0.743065H106.812V10.6159C106.812 13.3848 106.916 16.1012 107.009 18.2702C106.397 17.0189 104.544 13.2607 103.675 11.8499L96.9307 0.743065ZM48.216 17.4711C48.216 20.8309 51.0619 22.1365 54.0881 22.1365C56.0639 22.1365 59.2721 21.574 59.2721 18.9934C59.2721 16.2681 55.3524 15.7531 51.5704 14.7646C47.6045 13.7332 43.7849 12.2722 43.7849 7.63995C43.7852 2.47578 48.7583 0 53.4037 0C58.7669 0 63.7002 2.29933 63.7002 8.13348H58.4076C58.228 5.0933 55.8515 4.31295 53.1508 4.31295C51.3494 4.31295 49.0804 5.05638 49.0804 7.18111C49.0804 9.12497 50.3752 9.4247 56.8163 11.0537C58.6914 11.5136 64.5654 12.6273 64.5654 18.354C64.5654 22.9892 60.8562 26.4517 53.8671 26.4517C48.1814 26.4517 42.8524 23.6954 42.9227 17.4711H48.216Z" fill="#003F98"/>
</svg>
