<svg width="190" height="26" viewBox="0 0 190 26" fill="none" xmlns="http://www.w3.org/2000/svg">
<path fill-rule="evenodd" clip-rule="evenodd" d="M140.31 10.2084C137.841 10.2084 135.76 12.2101 135.76 14.7023C135.76 17.148 137.839 19.1514 140.311 19.1514C142.808 19.1514 144.785 17.148 144.785 14.7023C144.785 12.2101 142.808 10.2084 140.312 10.2084H140.31ZM140.31 20.9686C138.334 20.9686 136.618 19.966 135.682 18.7307V20.6643H133.549V3.33691H135.76V10.4877C136.722 9.32397 138.387 8.3688 140.311 8.3688C144.162 8.3688 146.997 11.2101 146.997 14.6799C146.997 18.1515 144.162 20.9695 140.312 20.9695L140.31 20.9686ZM155.021 10.2532C152.499 10.2532 150.523 12.2566 150.523 14.7023C150.523 17.1014 152.499 19.0798 155.021 19.0798C157.493 19.0798 159.574 17.1014 159.574 14.7023C159.574 12.2566 157.494 10.2532 155.022 10.2532H155.021ZM161.785 20.6643H159.652V18.7307C158.714 19.966 156.998 20.9686 155.02 20.9686C151.172 20.9686 148.311 18.1488 148.311 14.679C148.311 11.2084 151.172 8.3679 155.02 8.3679C156.998 8.3679 158.714 9.36873 159.651 10.579V8.67048H161.783V20.6661L161.785 20.6643Z" fill="#97A1A6"/>
<mask id="mask0_1428_25842" style="mask-type:alpha" maskUnits="userSpaceOnUse" x="0" y="3" width="190" height="23">
<path d="M0 25.9011H190V3.33594H0V25.9011Z" fill="white"/>
</mask>
<g mask="url(#mask0_1428_25842)">
<path fill-rule="evenodd" clip-rule="evenodd" d="M170.796 10.2075C168.327 10.2075 166.246 12.21 166.246 14.7013C166.246 17.1488 168.325 19.1504 170.796 19.1504C173.293 19.1504 175.271 17.1488 175.271 14.7013C175.271 12.21 173.293 10.2075 170.796 10.2075ZM170.796 20.9677C168.821 20.9677 167.104 19.9669 166.168 18.7324V20.6642H164.035V3.33594H166.246V10.4885C167.208 9.32479 168.873 8.36962 170.796 8.36962C174.647 8.36962 177.482 11.2119 177.482 14.6825C177.482 18.1523 174.647 20.9713 170.796 20.9713V20.9677ZM183.992 22.9711C183.057 25.2073 181.573 26.1151 178.894 25.859V24.0418C180.638 24.1582 181.366 23.6694 181.938 22.2729L182.64 20.5953L177.516 8.6713H179.909L183.809 18.2203L187.633 8.6713H190L183.992 22.9711" fill="#97A1A6"/>
<path fill-rule="evenodd" clip-rule="evenodd" d="M11.9658 20.6651H8.53313V13.6557C8.53313 12.9557 8.27324 11.373 6.03613 11.373C4.50175 11.373 3.43718 12.304 3.43718 13.6557V20.6651H-0.0234375V3.33594H3.43518V9.29793C4.29483 8.71605 5.33442 8.36693 6.50395 8.36693C9.78263 8.36693 11.9658 10.4867 11.9658 13.6548V20.6642" fill="#27D2D9"/>
</g>
<path fill-rule="evenodd" clip-rule="evenodd" d="M20.4001 11.2563C18.5008 11.2563 16.9675 12.7468 16.9675 14.7028C16.9675 16.6131 18.5008 18.0803 20.4001 18.0803C22.2994 18.0803 23.8327 16.5675 23.8327 14.7028C23.8327 12.7933 22.2984 11.2563 20.4001 11.2563ZM27.2674 20.6648H23.9887V19.3846C22.9491 20.3631 21.5197 20.9217 19.8803 20.9217C16.3947 20.9217 13.5078 18.22 13.5078 14.6795C13.5078 11.1166 16.3947 8.41312 19.8803 8.41312C21.5197 8.41312 22.9491 8.97352 23.9887 9.95107V8.67094H27.2674V20.6666V20.6648ZM36.2619 11.2563C34.3626 11.2563 32.8292 12.7691 32.8292 14.6329C32.8292 16.5191 34.3636 18.0571 36.2619 18.0571C38.1611 18.0571 39.6955 16.5889 39.6955 14.6329C39.6955 12.6993 38.1601 11.2563 36.2619 11.2563ZM36.7557 20.9217C35.2213 20.9217 33.8438 20.3864 32.8292 19.501V26.0001H29.3706V8.66915H32.6733V9.92869C33.7129 8.97352 35.1423 8.39075 36.7557 8.39075C40.2673 8.39075 43.1281 11.0915 43.1281 14.632C43.1281 18.1949 40.2673 20.9217 36.7557 20.9217ZM51.7737 11.2563C49.8745 11.2563 48.3411 12.7691 48.3411 14.6329C48.3411 16.5191 49.8755 18.0571 51.7737 18.0571C53.673 18.0571 55.2064 16.5889 55.2064 14.6329C55.2064 12.6993 53.673 11.2563 51.7737 11.2563ZM52.2685 20.9217C50.7342 20.9217 49.3557 20.3864 48.3421 19.501V26.0001H44.8835V8.66915H48.1862V9.92869C49.2257 8.97352 50.6552 8.39075 52.2695 8.39075C55.7812 8.39075 58.642 11.0915 58.642 14.632C58.642 18.1949 55.7812 20.9208 52.2705 20.9208L52.2685 20.9217ZM60.4693 20.6648H63.902V8.66915H60.4683L60.4693 20.6648ZM75.9282 13.351C75.5134 11.9545 74.2129 11.0683 72.5735 11.0683C71.0142 11.0683 69.7647 11.9545 69.2708 13.351H75.9282ZM69.2189 15.8665C69.6607 17.3346 70.9612 18.2433 72.5735 18.2433C73.7181 18.2433 74.8367 17.801 75.4084 16.8468H79.077C78.2953 19.2906 75.9282 20.945 72.5995 20.945C68.829 20.945 65.7342 18.1502 65.7342 14.6786C65.7342 11.2088 68.829 8.36747 72.5995 8.36747C76.553 8.36747 79.8297 11.1157 79.3369 15.8674H69.2179L69.2189 15.8665ZM86.754 20.945C83.3483 20.945 80.8263 19.3381 80.4095 16.7528H83.8941C84.3609 17.7769 85.7404 18.1493 86.753 18.1493C88.1324 18.1493 89.172 17.7769 89.172 17.0786C89.172 16.4036 88.7052 16.1234 86.3631 15.7985C83.9721 15.4717 80.7723 14.889 80.7723 12.2105C80.7723 10.3244 82.6186 8.36747 86.4941 8.36747C89.5629 8.36747 91.8519 9.85797 92.2948 12.1183H88.7332C88.5233 11.5588 87.7696 11.1157 86.4941 11.1157C84.9087 11.1157 84.2579 11.6287 84.2579 12.0709C84.2579 12.7002 85.2476 12.9097 86.9109 13.1424C90.2396 13.6312 92.6336 14.2838 92.6336 16.8933C92.6336 19.2683 90.1886 20.945 86.756 20.945H86.754ZM101.323 20.6424C97.3948 21.0148 95.3156 18.8968 95.3156 15.6114V11.395H93.7032V8.67094H95.3156V5.62012H98.7482V8.66915H101.167V11.3959H98.7482V15.6347C98.7482 17.3123 99.6059 17.9407 101.322 17.8485V20.6433" fill="#27D2D9"/>
<mask id="mask1_1428_25842" style="mask-type:alpha" maskUnits="userSpaceOnUse" x="60" y="0" width="72" height="24">
<path d="M131.725 0H60.4668V23.6546H131.725V0.000895196V0Z" fill="white"/>
</mask>
<g mask="url(#mask1_1428_25842)">
<path fill-rule="evenodd" clip-rule="evenodd" d="M63.9004 4.87307C63.9004 5.7235 63.1307 6.41101 62.1841 6.41101C61.2345 6.41101 60.4668 5.72171 60.4668 4.87396C60.4668 4.02532 61.2365 3.33691 62.1841 3.33691C63.1317 3.33691 63.9004 4.02621 63.9004 4.87486" fill="#52BCBF"/>
<path fill-rule="evenodd" clip-rule="evenodd" d="M119.531 23.477C117.03 23.8315 114.329 23.6516 111.906 22.9667C109.517 22.2918 108.045 21.0627 107.231 20.1496C106.751 19.6125 106.439 19.1201 106.249 18.7763C105.75 18.9966 105.276 19.0628 104.84 18.9733C104.335 18.8712 104.033 18.5883 103.904 18.4666L103.877 18.4424C103.521 18.1533 102.953 16.627 103.71 15.6942C104.12 15.1911 104.672 15.0479 105.147 15.0586C104.757 10.8333 105.273 9.02321 106.346 7.2373C106.898 6.31525 107.771 5.3932 108.865 4.56962C109.078 4.41207 109.392 4.43535 109.57 4.62513C109.747 4.81491 109.72 5.09689 109.508 5.25534C108.508 6.00731 107.719 6.83804 107.224 7.65983C106.627 8.65529 106.302 9.546 106.137 10.6381C105.952 11.8735 105.972 13.4401 106.2 15.5751C106.218 15.7363 106.142 15.8956 105.99 15.9869C105.844 16.08 105.656 16.0943 105.493 16.0227C105.383 15.978 104.863 15.8007 104.518 16.2215C104.135 16.6932 104.446 17.5983 104.582 17.8077C104.598 17.8203 104.612 17.8346 104.628 17.848C104.828 18.036 105.202 18.3869 106.201 17.7639C106.331 17.686 106.494 17.6654 106.643 17.7084C106.793 17.7531 106.91 17.8579 106.959 17.9922C106.962 17.9975 107.251 18.7441 108.042 19.6214C109.097 20.7914 110.501 21.6311 112.21 22.1145C116.67 23.3749 122.793 22.9829 126.414 19.266C127.496 18.1578 128.104 16.746 128.327 14.8259C128.344 14.6898 128.429 14.5662 128.559 14.4946C128.688 14.4212 128.85 14.4051 128.993 14.4517C129.233 14.5286 129.941 14.6773 130.353 14.4517C130.55 14.3442 130.667 14.1491 130.711 13.8555C130.833 13.0534 130.335 12.6801 130.114 12.5556C129.826 12.3945 129.574 12.3972 129.514 12.4267C129.386 12.5592 129.184 12.612 128.994 12.561C128.804 12.5091 128.665 12.3605 128.643 12.1832C128.639 12.1492 128.173 8.63828 126.903 6.84342C125.751 5.21416 124.259 4.0719 122.345 3.35485L122.045 3.24742C121.568 3.07018 120.474 2.82131 120.092 2.74075L120.082 2.73806C119.746 2.66018 119.392 2.59841 119.022 2.55365C118.972 2.72016 118.896 2.89024 118.792 3.05943C118.309 3.85168 117.223 4.67078 115.812 5.30816C114.447 5.92584 113.056 6.23916 112.088 6.14696C111.622 6.1022 110.804 5.91421 110.549 5.14434C110.329 4.49085 110.531 3.84989 111.128 3.29576C112.336 2.16961 115.128 1.50717 117.801 1.56983C117.104 0.891276 115.916 0.719399 114.266 1.06405C112.882 1.3523 111.702 1.91001 111.69 1.91627C111.447 2.03265 111.144 1.94939 111.014 1.73097C110.885 1.51344 110.977 1.24309 111.22 1.12671C111.435 1.02466 116.48 -1.34671 118.679 1.11149C118.829 1.27979 118.939 1.46062 119.004 1.64861C119.459 1.69874 119.901 1.77215 120.324 1.87062C120.434 1.89389 121.789 2.18394 122.421 2.41848L122.718 2.5259L122.724 2.52858C124.835 3.31904 126.477 4.575 127.745 6.36628C128.824 7.89169 129.354 10.3991 129.544 11.5172C129.802 11.5065 130.084 11.5557 130.367 11.6676C131.099 11.9594 131.886 12.7383 131.699 13.9772C131.589 14.6889 131.186 15.0461 130.865 15.2188C130.338 15.5053 129.703 15.4946 129.247 15.4283C128.954 17.2679 128.272 18.7199 127.165 19.855C125.32 21.7484 122.737 22.9918 119.696 23.4537C119.642 23.4627 119.586 23.4698 119.532 23.4779L119.531 23.477ZM115.459 2.60199C115.415 2.60915 115.373 2.61542 115.329 2.61989C113.764 2.85802 112.462 3.34231 111.842 3.91792C111.5 4.23393 111.388 4.55172 111.5 4.8901C111.528 4.97515 111.604 5.20342 112.188 5.25713C112.963 5.33143 114.177 5.04408 115.359 4.50965C116.575 3.96 117.53 3.25817 117.914 2.63153C117.948 2.57513 117.974 2.52232 117.999 2.47219C117.171 2.43996 116.304 2.48293 115.46 2.60199" fill="#49525E"/>
</g>
<path fill-rule="evenodd" clip-rule="evenodd" d="M109.444 14.6689C109.341 15.0449 110.006 15.1192 110.106 14.7477C110.286 14.0906 110.666 13.4676 111.518 13.5777C111.851 13.6225 112.197 13.7657 112.467 13.9447C112.817 14.1748 113.221 13.6959 112.874 13.4676C112.452 13.1901 111.92 12.9967 111.401 12.9645C110.253 12.8929 109.683 13.7899 109.444 14.6689V14.6689ZM121.994 12.7425C122.196 12.4918 122.466 12.2645 122.764 12.1015C123.551 11.6736 124.159 12.1329 124.59 12.7461C124.82 13.0755 125.335 12.6906 125.108 12.3665C124.571 11.6038 123.751 11.1007 122.739 11.4418C122.234 11.6136 121.77 12.0013 121.452 12.3934C121.202 12.7094 121.742 13.0594 121.994 12.7425V12.7425ZM114.662 17.2937C114.602 17.3411 114.58 17.4163 114.612 17.4843C114.622 17.5076 115.762 19.8476 118.256 19.6865C118.318 19.6829 118.378 19.674 118.439 19.6659C120.638 19.3526 121.221 17.718 121.383 16.7565C121.39 16.7064 121.409 16.6079 121.421 16.5453C121.437 16.4701 121.401 16.3537 121.317 16.3304C121.232 16.3054 121.129 16.3609 121.091 16.4325C121.081 16.4486 120.028 17.9033 118.219 18.136C116.76 18.324 115.913 17.9122 114.878 17.2856C114.813 17.2471 114.728 17.2498 114.663 17.2945L114.662 17.2937ZM118.404 14.9849C118.291 15.0011 118.184 14.9366 118.156 14.839C118.139 14.8032 117.916 14.3941 117.404 14.4666C116.889 14.5382 116.772 15.0664 116.772 15.0709C116.75 15.1783 116.634 15.2481 116.515 15.2293C116.395 15.2087 116.317 15.1058 116.339 14.9984C116.346 14.9653 116.519 14.1927 117.336 14.0763C118.152 13.9599 118.562 14.6117 118.586 14.7603C118.606 14.8677 118.526 14.9679 118.404 14.9841" fill="#49525E"/>
</svg>
