<svg width="177" height="26" viewBox="0 0 177 26" fill="none" xmlns="http://www.w3.org/2000/svg">
<path d="M176.001 21.9198V25.1151H175.469V22.6526H175.436L174.555 25.1151H174.097L173.223 22.6526V25.1151H172.684V21.9198H173.485L174.366 24.423L175.2 21.9198H176.001ZM172.342 21.9198V22.3809H171.312V25.1148H170.781V22.3809H169.752V21.9198H172.342ZM159.036 17.1504C159.836 14.5384 159.836 12.9986 159.069 11.9944C158.497 11.3024 157.663 10.9565 156.398 10.9565C153.58 10.9565 152.019 12.5711 150.761 16.6142C149.954 19.2668 149.954 20.8067 150.721 21.8043C151.252 22.4622 152.133 22.8083 153.391 22.8083C156.169 22.8083 157.777 21.2277 159.036 17.1504ZM170.054 11.3024C171.157 12.6933 171.393 14.4572 170.74 16.6146C168.911 22.5778 162.009 25.9969 151.783 25.9969C145.682 25.9969 141.531 24.803 139.695 22.4962C138.592 21.1126 138.403 19.3078 139.049 17.1504C140.879 11.1872 147.781 7.76801 158.006 7.76801C164.067 7.76801 168.265 8.99593 170.054 11.3024ZM131.918 8.34448H142.749C142.096 9.22654 130.317 25.1896 130.122 25.4611H113.499C113.419 24.959 111.434 8.96194 111.36 8.34448H121.545C121.619 8.84649 123.032 20.3458 123.032 20.3458C123.032 20.3458 131.763 8.57519 131.918 8.34448ZM98.316 17.1504C99.117 14.5384 99.157 12.9986 98.357 11.9944C97.818 11.3024 96.944 10.9565 95.726 10.9565C92.901 10.9565 91.3 12.5711 90.082 16.6142C89.241 19.2668 89.241 20.8067 90.042 21.8043C90.573 22.4622 91.455 22.8083 92.672 22.8083C95.498 22.8083 97.099 21.2277 98.316 17.1504ZM109.376 11.3024C110.486 12.6933 110.714 14.4572 110.028 16.6146C108.199 22.5778 101.29 25.9969 91.112 25.9969C85.01 25.9969 80.853 24.803 79.016 22.4962C77.913 21.1126 77.684 19.3078 78.33 17.1504C80.201 11.1872 87.102 7.76801 97.287 7.76801C103.388 7.76801 107.546 8.99593 109.376 11.3024ZM77.496 10.4615C77.913 10.9975 78.142 11.5332 78.027 12.3066L73.796 25.4952H62.582L66.551 13.1889C66.699 12.6529 66.511 12.1915 66.208 11.8455C65.67 11.1875 64.526 10.767 60.598 11.038C60.598 11.038 55.95 25.3053 55.869 25.4952H44.661C44.769 25.1898 49.922 9.30821 49.996 9.15207C53.891 8.46014 59.037 7.80879 64.378 7.80879C71.623 7.80899 76.043 8.69095 77.496 10.4615ZM36.575 14.0776C36.804 12.9989 36.461 12.1916 36.077 11.7302C35.66 11.1875 34.738 10.4955 32.835 10.4955C30.131 10.4955 28.106 11.8049 27.419 13.996L26.087 19.0367L36.575 14.0776ZM45.993 14.0366C45.993 14.844 45.805 15.5361 45.65 15.8413C45.307 15.9228 25.745 20.3054 25.745 20.3054C25.745 20.3054 25.549 21.2688 26.276 21.7706C27.231 22.4627 28.26 22.6528 30.009 22.7273C34.322 22.9174 40.16 20.38 41.796 19.654C41.533 20.4952 39.851 24.1928 39.777 24.3826C39.051 24.6539 35.008 25.9565 27.076 25.9973C24.062 26.038 18.688 25.6513 16.474 22.8426C15.371 21.4588 15.176 19.4981 15.936 17.0355C17.732 11.1535 24.446 7.76841 34.281 7.76841C39.777 7.76841 43.363 8.80631 45.004 10.8415C45.65 11.6895 45.993 12.7681 45.993 14.0366ZM7.817 0H18.917C18.688 0.72602 11.214 25.0337 11.093 25.4611H0C0.2285 24.7284 7.702 0.420738 7.817 0Z" fill="#005E9D"/>
</svg>
