<svg width="149" height="28" viewBox="0 0 149 28" fill="none" xmlns="http://www.w3.org/2000/svg">
<path d="M90.4213 5.29679V23.683H95.6288V5.29679H90.4213ZM49.4492 5.26562V23.6674H54.7037V9.37915L58.8009 9.39473C60.1458 9.39473 61.084 9.72194 61.7252 10.4075C62.554 11.2801 62.8824 12.698 62.8824 15.269V23.6674H67.9805V13.5083C67.9805 6.24726 63.3359 5.26562 58.8009 5.26562H49.4492ZM98.819 5.29679V23.683H107.264C111.767 23.683 113.237 22.9351 114.817 21.2678C115.943 20.0992 116.662 17.5127 116.662 14.6924C116.662 12.1059 116.052 9.79985 114.973 8.36635C113.065 5.7954 110.282 5.29679 106.122 5.29679H98.819ZM103.98 9.28566H106.216C109.469 9.28566 111.564 10.7347 111.564 14.5055C111.564 18.2762 109.469 19.7409 106.216 19.7409H103.98V9.28566ZM82.915 5.29679L78.5676 19.8655L74.4078 5.29679H68.778L74.7206 23.683H82.2269L88.232 5.29679H82.915ZM119.102 23.683H124.309V5.29679H119.102V23.683ZM133.708 5.29679L126.436 23.6674H131.565L132.723 20.4109H141.324L142.418 23.6518H148.001L140.667 5.29679H133.708ZM137.086 8.64682L140.245 17.2478H133.833L137.086 8.64682Z" fill="black"/>
<path d="M15.8415 8.3517V5.82749C16.0917 5.81191 16.3419 5.79633 16.5921 5.79633C23.5355 5.57819 28.0862 11.7485 28.0862 11.7485C28.0862 11.7485 23.1758 18.542 17.9057 18.542C17.202 18.542 16.5139 18.4329 15.8571 18.2148V10.5487C18.5626 10.8759 19.1099 12.0601 20.7206 14.7557L24.3331 11.7329C24.3331 11.7329 21.6902 8.28937 17.2489 8.28937C16.7798 8.27379 16.3107 8.30495 15.8415 8.3517V8.3517ZM15.8415 0V3.77073L16.5921 3.72398C26.2409 3.39677 32.5431 11.6082 32.5431 11.6082C32.5431 11.6082 25.3183 20.3651 17.7963 20.3651C17.1395 20.3651 16.4983 20.3027 15.8571 20.1937V22.5309C16.3888 22.5932 16.9362 22.64 17.4679 22.64C24.4738 22.64 29.5406 19.0718 34.451 14.8648C35.2642 15.5192 38.5951 17.0929 39.2832 17.7785C34.623 21.6739 23.7544 24.8058 17.593 24.8058C16.9987 24.8058 16.4358 24.7746 15.8728 24.7123V28H42.489V0H15.8415V0ZM15.8415 18.2148V20.2092C9.36729 19.0562 7.56889 12.3406 7.56889 12.3406C7.56889 12.3406 10.6809 8.91263 15.8415 8.3517V10.5331H15.8259C13.1205 10.2059 10.9937 12.7301 10.9937 12.7301C10.9937 12.7301 12.1978 16.9839 15.8415 18.2148V18.2148ZM4.34742 12.0601C4.34742 12.0601 8.17878 6.41959 15.8571 5.82749V3.77073C7.34996 4.45632 0 11.6238 0 11.6238C0 11.6238 4.15976 23.6216 15.8415 24.7123V22.5309C7.27177 21.4713 4.34742 12.0601 4.34742 12.0601V12.0601Z" fill="#76B900"/>
</svg>
