<svg width="82" height="80" viewBox="0 0 82 80" fill="none" xmlns="http://www.w3.org/2000/svg">
<path d="M72.9759 32.1596C72.9759 49.9209 58.6459 64.3193 40.9689 64.3193C23.2919 64.3193 8.96094 49.9209 8.96094 32.1596C8.96094 14.3984 23.2919 0 40.9689 0C58.6459 0 72.9759 14.3984 72.9759 32.1596Z" fill="#E9E5E2"/>
<path fill-rule="evenodd" clip-rule="evenodd" d="M40.9689 60.5358C56.5659 60.5358 69.2109 47.8313 69.2109 32.1596C69.2109 16.4879 56.5659 3.7835 40.9689 3.7835C25.3709 3.7835 12.7269 16.4879 12.7269 32.1596C12.7269 47.8313 25.3709 60.5358 40.9689 60.5358ZM40.9689 64.3193C58.6459 64.3193 72.9759 49.9209 72.9759 32.1596C72.9759 14.3984 58.6459 0 40.9689 0C23.2919 0 8.96094 14.3984 8.96094 32.1596C8.96094 49.9209 23.2919 64.3193 40.9689 64.3193Z" fill="white"/>
<path fill-rule="evenodd" clip-rule="evenodd" d="M23.5074 24.3573C25.1304 27.7744 27.6974 30.7487 31.8694 33.5811L31.2374 34.5217C26.9274 31.5962 24.2114 28.4756 22.4884 24.846C20.7714 21.2286 20.0604 17.147 19.6934 12.3398L20.8204 12.2529C21.1834 17.011 21.8804 20.9279 23.5074 24.3573Z" fill="#605B61"/>
<path fill-rule="evenodd" clip-rule="evenodd" d="M31.5303 17.434C33.6953 20.1984 36.4763 22.2726 40.2693 24.0802L39.7853 25.1058C35.8753 23.2427 32.9403 21.07 30.6433 18.1358C28.3503 15.2071 26.7193 11.5551 25.3633 6.77712L26.4503 6.46582C27.7833 11.1655 29.3623 14.6639 31.5303 17.434Z" fill="#605B61"/>
<path fill-rule="evenodd" clip-rule="evenodd" d="M13.0657 24.1387C16.7377 26.9056 22.1307 28.6585 25.9207 28.7548L25.8927 29.8894C21.8677 29.7872 16.2477 27.9551 12.3887 25.0468L13.0657 24.1387Z" fill="#605B61"/>
<path fill-rule="evenodd" clip-rule="evenodd" d="M52.0255 28.8485C50.1785 29.6417 48.4535 30.5125 46.9595 31.6644C43.2735 34.5068 41.2485 38.1506 40.9185 42.0888C40.5875 46.0336 41.9525 50.3436 45.1795 54.5125L44.2875 55.2093C40.9245 50.8654 39.4335 46.28 39.7925 41.9936C40.1525 37.7007 42.3635 33.7775 46.2715 30.7639C47.8755 29.527 49.7005 28.6123 51.5815 27.8048C52.4955 27.4124 53.4305 27.0425 54.3615 26.6738L54.4435 26.6413C55.4045 26.2609 56.3615 25.8808 57.3065 25.4725C61.0815 23.8405 64.5705 21.7882 66.8325 17.6963L67.8205 18.2475C65.3765 22.6685 61.6075 24.8486 57.7525 26.5151C56.7895 26.9314 55.8165 27.3176 54.8575 27.6973L54.7815 27.7274C53.8455 28.0979 52.9245 28.4626 52.0255 28.8485Z" fill="#605B61"/>
<path fill-rule="evenodd" clip-rule="evenodd" d="M31.7864 34.5696L31.7754 34.5751C28.9744 35.9823 26.1044 37.4243 23.2204 38.1488C20.3034 38.8813 17.3344 38.8917 14.3574 37.3965L14.8634 36.3813C17.5354 37.7236 20.2134 37.734 22.9464 37.0477C25.6984 36.3562 28.4654 34.9689 31.3034 33.5436L31.3244 33.5331L31.3454 33.5243C33.8204 32.5298 36.2964 32.5289 38.2824 33.0277C39.2754 33.2771 40.1564 33.654 40.8604 34.1045C41.3664 34.428 41.8014 34.8022 42.1154 35.2119C44.8114 33.9295 47.1044 33.4837 49.0894 33.4837C51.1804 33.4837 52.8964 33.9794 54.3274 34.4587L54.3534 34.4674L54.3784 34.4785C58.6034 36.365 61.3304 37.2358 63.5744 37.4422C65.7934 37.6463 67.5854 37.2046 69.9634 36.3542L70.3424 37.4235C67.9064 38.2946 65.9324 38.7988 63.4714 38.5725C61.0394 38.3489 58.1784 37.4164 53.9444 35.5269C52.5574 35.0634 50.9864 34.6188 49.0894 34.6188C47.1844 34.6188 44.9164 35.0676 42.1634 36.4506L41.6584 36.7044L41.4054 36.1968C41.2324 35.8487 40.8524 35.4444 40.2544 35.0621C39.6644 34.6849 38.8984 34.3524 38.0084 34.1289C36.2344 33.6833 34.0124 33.681 31.7864 34.5696Z" fill="#605B61"/>
<path fill-rule="evenodd" clip-rule="evenodd" d="M44.1325 14.9596C42.7095 9.50461 37.4295 5.44521 31.7585 3.25391L31.3535 4.31341C37.2225 6.58131 42.3185 10.7742 43.2295 16.1312C41.4665 18.4922 39.8515 21.2296 39.4665 25.484C39.1755 28.3365 39.7045 30.9157 40.4725 33.3311C40.8565 34.5371 41.3025 35.7104 41.7375 36.8534L41.7395 36.8571C42.1755 38.004 42.5995 39.1191 42.9525 40.2343C43.6575 42.4639 44.0585 44.646 43.6815 46.943C43.3055 49.2341 42.1445 51.7017 39.6115 54.4772L40.4445 55.2442C43.0905 52.3444 44.3775 49.6823 44.7965 47.1277C45.2145 44.5792 44.7585 42.1998 44.0285 39.8907C43.6665 38.7443 43.2325 37.6035 42.8005 36.4675L42.7925 36.4482C42.3565 35.3007 41.9215 34.1565 41.5485 32.9854C40.8055 30.6476 40.3205 28.2352 40.5905 25.5967V25.5901C41.0315 20.7161 43.1665 18.01 45.3375 15.2584C45.4025 15.1768 45.4665 15.0952 45.5315 15.0134C47.7845 12.1537 50.0075 9.18671 50.0075 3.78371H48.8775C48.8775 8.78521 46.8635 11.4934 44.6455 14.3089C44.5745 14.3995 44.5025 14.4902 44.4305 14.5811C44.3315 14.7069 44.2315 14.833 44.1325 14.9596ZM60.1675 17.7497C59.7435 20.5939 58.5735 23.3518 56.5155 26.7779L55.5485 26.1913C57.5685 22.8286 58.6575 20.2178 59.0495 17.5818C59.4425 14.9451 59.1465 12.2305 58.3065 8.64291L59.4065 8.38311C60.2595 12.0296 60.5905 14.9064 60.1675 17.7497ZM70.5975 25.8887C67.0965 30.3789 62.2845 33.1508 53.3535 35.5457L53.0625 34.4491C61.8795 32.0847 66.4215 29.404 69.7085 25.1887L70.5975 25.8887Z" fill="#605B61"/>
<path d="M55.3565 40.7096C52.6465 37.6039 50.0285 36.7006 47.0215 38.2812C48.2205 40.0193 51.0715 42.6658 55.3565 40.7096Z" fill="#999F3F"/>
<path d="M24.2548 14.7191C26.1198 11.9913 26.3007 9.77053 24.4857 7.73633C23.3787 9.01533 21.8968 11.7622 24.2548 14.7191Z" fill="#999F3F"/>
<path d="M32.3304 24.7624C30.7834 20.4817 28.4544 18.5008 24.7344 18.9151C25.2744 21.1831 27.1484 25.0486 32.3304 24.7624Z" fill="#999F3F"/>
<path d="M37.4425 29.7797C34.4245 26.3817 31.5295 25.4111 28.2285 27.183C29.5675 29.0877 32.7365 31.9779 37.4425 29.7797Z" fill="#999F3F"/>
<path d="M26.0968 32.0948C22.0248 30.0955 18.9788 30.2968 16.5898 33.191C18.5468 34.4456 22.5678 35.9176 26.0968 32.0948Z" fill="#999F3F"/>
<path d="M35.3259 36.6763C31.9059 35.3975 29.4819 35.8003 27.7949 38.3086C29.4619 39.1586 32.7989 40.019 35.3259 36.6763Z" fill="#999F3F"/>
<path d="M50.6164 14.2533C54.4804 12.2542 56.0734 9.78683 55.2284 6.28223C53.1474 7.07383 49.7154 9.33552 50.6164 14.2533Z" fill="#999F3F"/>
<path d="M62.3418 35.2211C65.8868 35.6884 68.1128 34.7697 69.1758 32.0032C67.3998 31.5588 64.0258 31.4727 62.3418 35.2211Z" fill="#999F3F"/>
<path d="M52.8516 32.5346C56.4406 32.9066 58.6616 31.9173 59.6566 29.0963C57.8526 28.6977 54.4456 28.7055 52.8516 32.5346Z" fill="#999F3F"/>
<path d="M63.2559 28.1536C67.4899 27.1653 69.6339 25.1643 69.6689 21.5586C67.4579 21.8145 63.5799 23.1638 63.2559 28.1536Z" fill="#999F3F"/>
<path d="M62.5851 18.8968C65.0471 15.2974 65.2871 12.3667 62.8921 9.68164C61.4311 11.3692 59.4741 14.9938 62.5851 18.8968Z" fill="#999F3F"/>
<path d="M50.3923 25.1198C54.4503 23.5551 56.3003 21.2764 55.8403 17.7002C53.6853 18.2597 50.0293 20.1327 50.3923 25.1198Z" fill="#999F3F"/>
<path d="M45.043 18.9715C49.262 20.0236 52.077 19.2199 53.738 16.0235C51.653 15.2423 47.588 14.6742 45.043 18.9715Z" fill="#999F3F"/>
<path d="M43.446 30.0271C46.812 27.2632 47.858 24.5168 46.305 21.2656C44.434 22.4755 41.546 25.4056 43.446 30.0271Z" fill="#999F3F"/>
<path d="M45.4014 9.1571C46.1894 4.7893 45.1944 1.9724 41.8594 0.487305C41.2064 2.6634 40.8974 6.843 45.4014 9.1571Z" fill="#999F3F"/>
<path d="M37.4055 20.2367C37.4185 15.7977 35.9475 13.1997 32.4055 12.3252C32.1425 14.5828 32.5675 18.7521 37.4055 20.2367Z" fill="#999F3F"/>
<path d="M38.2535 10.2801C34.9555 5.20706 31.3395 3.35176 26.6465 5.02296C28.0315 7.79616 31.6275 12.2314 38.2535 10.2801Z" fill="#999F3F"/>
<path d="M17.8106 29.0123C14.6326 27.8587 12.3916 28.2533 10.8516 30.5911C12.4016 31.3633 15.4996 32.1303 17.8106 29.0123Z" fill="#999F3F"/>
<path d="M18.8211 24.2894C19.7171 19.9508 18.7951 17.1149 15.5041 15.5488C14.7981 17.7039 14.3851 21.8667 18.8211 24.2894Z" fill="#999F3F"/>
<path fill-rule="evenodd" clip-rule="evenodd" d="M40.9689 60.5358C56.5659 60.5358 69.2109 47.8313 69.2109 32.1596C69.2109 16.4879 56.5659 3.7835 40.9689 3.7835C25.3709 3.7835 12.7269 16.4879 12.7269 32.1596C12.7269 47.8313 25.3709 60.5358 40.9689 60.5358ZM40.9689 64.3193C58.6459 64.3193 72.9759 49.9209 72.9759 32.1596C72.9759 14.3984 58.6459 0 40.9689 0C23.2919 0 8.96094 14.3984 8.96094 32.1596C8.96094 49.9209 23.2919 64.3193 40.9689 64.3193Z" fill="white"/>
<path fill-rule="evenodd" clip-rule="evenodd" d="M40.9689 63.1842C58.0219 63.1842 71.8469 49.294 71.8469 32.1596C71.8469 15.0252 58.0219 1.135 40.9689 1.135C23.9159 1.135 10.0909 15.0252 10.0909 32.1596C10.0909 49.294 23.9159 63.1842 40.9689 63.1842ZM40.9689 64.3193C58.6459 64.3193 72.9759 49.9209 72.9759 32.1596C72.9759 14.3984 58.6459 0 40.9689 0C23.2919 0 8.96094 14.3984 8.96094 32.1596C8.96094 49.9209 23.2919 64.3193 40.9689 64.3193Z" fill="#605B61"/>
<path d="M23.268 69.7188C24.217 69.7188 25.158 69.9312 26.092 70.3561V71.7251C25.158 71.2485 24.239 71.0101 23.334 71.0101C22.772 71.0101 22.272 71.1228 21.834 71.3482C21.396 71.5736 21.056 71.8987 20.814 72.3236C20.574 72.7448 20.455 73.2159 20.455 73.7368C20.455 74.5275 20.716 75.1649 21.238 75.6489C21.764 76.1292 22.455 76.3694 23.312 76.3694C23.548 76.3694 23.772 76.3491 23.985 76.3084C24.202 76.2678 24.46 76.1902 24.757 76.0756V74.7898H23.483V73.6204H26.247V76.8129C25.868 77.0789 25.412 77.2875 24.879 77.439C24.349 77.5868 23.798 77.6608 23.224 77.6608C22.411 77.6608 21.674 77.4926 21.012 77.1564C20.354 76.8201 19.839 76.3491 19.468 75.7431C19.1 75.1372 18.916 74.4611 18.916 73.7148C18.916 72.9573 19.102 72.2718 19.473 71.6585C19.848 71.0452 20.369 70.5685 21.034 70.2286C21.703 69.8887 22.448 69.7188 23.268 69.7188Z" fill="#373737"/>
<path d="M33.1024 69.8193L36.5054 77.5617H34.9333L34.1333 75.6774H30.7083L29.9633 77.5617H28.4023L31.5793 69.8193H33.1024ZM31.1604 74.5412H33.6483L32.3463 71.4764L31.1604 74.5412Z" fill="#373737"/>
<path d="M41.5455 69.8193C42.2705 69.8193 42.8605 70.0206 43.3165 70.4234C43.7725 70.8261 44.0005 71.3508 44.0005 71.9974C44.0005 72.437 43.8865 72.8213 43.6585 73.1501C43.4345 73.4753 43.0995 73.7321 42.6545 73.9205C42.9015 74.0535 43.1195 74.2346 43.3115 74.4637C43.5025 74.6927 43.7395 75.0788 44.0225 75.622C44.4935 76.5605 44.8425 77.207 45.0705 77.5617H43.4105C43.2965 77.3918 43.1415 77.1202 42.9475 76.747C42.5205 75.9231 42.2075 75.3689 42.0095 75.0844C41.8105 74.7962 41.6195 74.593 41.4355 74.4747C41.2515 74.3528 41.0405 74.2918 40.8015 74.2918H40.2605V77.5617H38.7715V69.8193H41.5455ZM41.2095 73.1224C41.5995 73.1224 41.9045 73.0245 42.1255 72.8287C42.3495 72.6329 42.4615 72.365 42.4615 72.0251C42.4615 71.6704 42.3515 71.4062 42.1305 71.2325C41.9095 71.0552 41.5955 70.9665 41.1875 70.9665H40.2605V73.1224H41.2095Z" fill="#373737"/>
<path d="M50.6342 69.8193C51.4362 69.8193 52.1502 69.9837 52.7752 70.3125C53.4002 70.6414 53.8852 71.1032 54.2312 71.6981C54.5772 72.293 54.7492 72.9617 54.7492 73.7044C54.7492 74.4618 54.5752 75.1343 54.2252 75.7217C53.8802 76.3055 53.3872 76.7581 52.7472 77.0796C52.1072 77.401 51.3742 77.5617 50.5462 77.5617H47.4082V69.8193H50.6342ZM50.4802 76.3923C51.3042 76.3923 51.9642 76.1448 52.4602 75.6497C52.9602 75.1509 53.2102 74.4988 53.2102 73.6933C53.2102 72.8583 52.9592 72.1987 52.4552 71.7147C51.9552 71.2307 51.2802 70.9887 50.4302 70.9887H48.8972V76.3923H50.4802Z" fill="#373737"/>
<path d="M58.8089 69.8193L63.3869 75.2229V69.8193H64.8429V77.5617H63.5639L58.9579 72.0694V77.5617H57.502V69.8193H58.8089Z" fill="#373737"/>
<path d="M72.8716 69.8193V70.9887H69.3806V73.0227H72.7226V74.1921H69.3806V76.3923H72.9486V77.5617H67.8906V69.8193H72.8716Z" fill="#373737"/>
<path d="M78.4752 69.8193C79.2002 69.8193 79.7902 70.0206 80.2462 70.4234C80.7022 70.8261 80.9302 71.3508 80.9302 71.9974C80.9302 72.437 80.8162 72.8213 80.5882 73.1501C80.3632 73.4753 80.0292 73.7321 79.5842 73.9205C79.8302 74.0535 80.0492 74.2346 80.2402 74.4637C80.4312 74.6927 80.6692 75.0788 80.9522 75.622C81.4232 76.5605 81.7722 77.207 82.0002 77.5617H80.3402C80.2262 77.3918 80.0712 77.1202 79.8762 76.747C79.4502 75.9231 79.1372 75.3689 78.9392 75.0844C78.7402 74.7962 78.5492 74.593 78.3652 74.4747C78.1812 74.3528 77.9702 74.2918 77.7312 74.2918H77.1902V77.5617H75.7012V69.8193H78.4752ZM78.1392 73.1224C78.5282 73.1224 78.8342 73.0245 79.0542 72.8287C79.2792 72.6329 79.3912 72.365 79.3912 72.0251C79.3912 71.6704 79.2802 71.4062 79.0602 71.2325C78.8392 71.0552 78.5252 70.9665 78.1172 70.9665H77.1902V73.1224H78.1392Z" fill="#373737"/>
<path d="M2.631 69.7188C3.381 69.7188 4.104 69.9072 4.799 70.284V71.6143C4.001 71.1302 3.293 70.8881 2.675 70.8881C2.3 70.8881 2.006 70.962 1.793 71.1098C1.583 71.2539 1.478 71.4479 1.478 71.6917C1.478 71.9836 1.67499 72.2534 2.06799 72.5009C2.17899 72.5748 2.604 72.7818 3.343 73.1217C3.975 73.421 4.431 73.7534 4.711 74.1192C4.99 74.485 5.13 74.9247 5.13 75.4383C5.13 76.1033 4.89099 76.6409 4.41299 77.0511C3.93799 77.4575 3.322 77.6608 2.565 77.6608C2.072 77.6608 1.647 77.6071 1.291 77.5C0.938 77.3891 0.540999 77.2007 0.098999 76.9347V75.4605C0.922999 76.1477 1.699 76.4913 2.427 76.4913C2.791 76.4913 3.085 76.412 3.31 76.2531C3.534 76.0942 3.646 75.8835 3.646 75.6212C3.646 75.2628 3.451 74.971 3.061 74.7456C2.738 74.5683 2.32001 74.3557 1.80901 74.1082C1.20201 73.831 0.748006 73.5078 0.447006 73.1384C0.149006 72.7689 0 72.3402 0 71.8525C0 71.2022 0.241007 70.685 0.723007 70.3007C1.20401 69.9128 1.84 69.7188 2.631 69.7188Z" fill="#373737"/>
<path d="M9.29152 69.8193V77.268C9.29152 78.0957 9.07052 78.757 8.62952 79.2521C8.18752 79.7509 7.60352 80.0003 6.87552 80.0003C6.82352 80.0003 6.77552 80.0003 6.73152 80.0003C6.68352 80.0003 6.63452 79.9966 6.58252 79.9892L6.47852 78.6979C7.36052 78.6979 7.80151 78.1788 7.80151 77.1405V69.8193H9.29152Z" fill="#373737"/>
<path d="M34.3126 49.7215L33.4736 49.2115C32.9476 48.8901 32.5726 48.5742 32.3486 48.2638C32.1276 47.9498 32.0176 47.5896 32.0176 47.1832C32.0176 46.5735 32.2276 46.0784 32.6466 45.6979C33.0696 45.3173 33.6176 45.127 34.2906 45.127C34.9336 45.127 35.5236 45.3081 36.0606 45.6702V46.9281C35.5056 46.3924 34.9076 46.1245 34.2686 46.1245C33.9076 46.1245 33.6116 46.2095 33.3806 46.3795C33.1486 46.5457 33.0326 46.7601 33.0326 47.0225C33.0326 47.2552 33.1176 47.4732 33.2866 47.6764C33.4556 47.8797 33.7296 48.0921 34.1086 48.3138L34.9526 48.8126C35.8936 49.3742 36.3646 50.091 36.3646 50.963C36.3646 51.5837 36.1566 52.088 35.7406 52.476C35.3286 52.864 34.7926 53.0579 34.1306 53.0579C33.3686 53.0579 32.6756 52.8232 32.0506 52.354V50.9464C32.6466 51.7038 33.3356 52.0825 34.1196 52.0825C34.4646 52.0825 34.7516 51.9864 34.9796 51.7943C35.2116 51.5985 35.3276 51.3546 35.3276 51.0627C35.3276 50.5898 34.9886 50.1427 34.3126 49.7215Z" fill="#605B61"/>
<path d="M49.2021 44.625H50.1212V50.994C50.1212 51.5882 50.0601 52.027 49.9371 52.3102C49.8181 52.5966 49.6232 52.8244 49.3542 52.9938C49.0842 53.1662 48.7592 53.2524 48.3792 53.2524C48.3212 53.2524 48.2212 53.2432 48.0802 53.2247L47.9102 52.3657H48.1452C48.4082 52.3657 48.6091 52.3333 48.7471 52.2687C48.8881 52.204 48.9982 52.0901 49.0782 51.9269C49.1602 51.7637 49.2021 51.4173 49.2021 50.8877V44.625Z" fill="#605B61"/>
<path d="M18.6582 42.8213H20.1142V43.1501H19.0252V43.9371H20.0772V44.2678H19.0252V45.0696H20.1492V45.3984H18.6582V42.8213Z" fill="#605B61"/>
<path d="M21.4798 44.3196L21.1998 44.1497C21.0248 44.0425 20.8998 43.9372 20.8248 43.8338C20.7518 43.7291 20.7148 43.609 20.7148 43.4735C20.7148 43.2703 20.7848 43.1053 20.9248 42.9784C21.0658 42.8516 21.2478 42.7881 21.4728 42.7881C21.6868 42.7881 21.8838 42.8485 22.0628 42.9692V43.3885C21.8778 43.21 21.6778 43.1207 21.4648 43.1207C21.3448 43.1207 21.2458 43.149 21.1688 43.2057C21.0918 43.2611 21.0528 43.3325 21.0528 43.42C21.0528 43.4975 21.0818 43.5702 21.1378 43.6379C21.1938 43.7057 21.2858 43.7765 21.4118 43.8504L21.6928 44.0167C22.0068 44.2039 22.1638 44.4428 22.1638 44.7335C22.1638 44.9404 22.0948 45.1085 21.9558 45.2378C21.8188 45.3671 21.6398 45.4318 21.4188 45.4318C21.1648 45.4318 20.9338 45.3536 20.7258 45.1972V44.7279C20.9248 44.9804 21.1538 45.1066 21.4158 45.1066C21.5308 45.1066 21.6258 45.0746 21.7018 45.0106C21.7798 44.9453 21.8178 44.864 21.8178 44.7667C21.8178 44.6091 21.7048 44.46 21.4798 44.3196Z" fill="#605B61"/>
<path d="M22.6504 42.8174H24.7964V43.1462H23.9004V45.4019H23.5314V43.1462H22.6504V42.8174Z" fill="#605B61"/>
<path d="M25.5736 44.9902C25.6366 44.9902 25.6896 45.0118 25.7336 45.0549C25.7776 45.098 25.7996 45.151 25.7996 45.2138C25.7996 45.2754 25.7776 45.3271 25.7336 45.369C25.6906 45.4108 25.6376 45.4318 25.5736 45.4318C25.5106 45.4318 25.4586 45.4108 25.4156 45.369C25.3726 45.3271 25.3516 45.2754 25.3516 45.2138C25.3516 45.151 25.3726 45.098 25.4156 45.0549C25.4586 45.0118 25.5106 44.9902 25.5736 44.9902Z" fill="#605B61"/>
<path d="M56.8072 45.0457H57.7861V45.4022H56.1602V45.3764L56.3152 45.1935C56.5562 44.893 56.7482 44.638 56.8902 44.4286C57.0342 44.2193 57.1272 44.061 57.1702 43.9539C57.2142 43.8467 57.2361 43.7408 57.2361 43.6361C57.2361 43.4908 57.1952 43.3744 57.1132 43.2869C57.0302 43.1983 56.9212 43.1539 56.7852 43.1539C56.6822 43.1539 56.5811 43.1847 56.4801 43.2463C56.3811 43.3066 56.2912 43.3922 56.2122 43.5031V43.0338C56.4112 42.87 56.6171 42.7881 56.8291 42.7881C57.0541 42.7881 57.2381 42.8633 57.3831 43.0135C57.5291 43.1638 57.6022 43.3547 57.6022 43.5862C57.6022 43.6897 57.5831 43.8005 57.5471 43.9188C57.5111 44.0358 57.4471 44.1712 57.3551 44.3252C57.2631 44.4779 57.1072 44.6867 56.8862 44.9515L56.8072 45.0457Z" fill="#605B61"/>
<path d="M59.1711 42.7881C59.4061 42.7881 59.6001 42.9125 59.7531 43.1613C59.9081 43.4089 59.9851 43.7235 59.9851 44.1053C59.9851 44.497 59.9081 44.8154 59.7531 45.0605C59.6001 45.3055 59.4011 45.4281 59.1561 45.4281C58.9071 45.4281 58.7071 45.308 58.5561 45.0678C58.4061 44.8277 58.3301 44.5093 58.3301 44.1127C58.3301 43.7211 58.4081 43.4027 58.5641 43.1576C58.7201 42.9113 58.9221 42.7881 59.1711 42.7881ZM59.1741 43.1391H59.1561C59.0151 43.1391 58.9031 43.2266 58.8191 43.4015C58.7371 43.5751 58.6961 43.811 58.6961 44.109C58.6961 44.4145 58.7371 44.654 58.8181 44.8277C58.8981 45.0013 59.0101 45.0882 59.1521 45.0882C59.2941 45.0882 59.4071 45.0013 59.4891 44.8277C59.5711 44.654 59.6121 44.4182 59.6121 44.1201C59.6121 43.8208 59.5721 43.5825 59.4921 43.4052C59.4141 43.2278 59.3081 43.1391 59.1741 43.1391Z" fill="#605B61"/>
<path d="M61.1743 45.0457H62.1534V45.4022H60.5273V45.3764L60.6823 45.1935C60.9233 44.893 61.1153 44.638 61.2573 44.4286C61.4013 44.2193 61.4943 44.061 61.5373 43.9539C61.5813 43.8467 61.6033 43.7408 61.6033 43.6361C61.6033 43.4908 61.5623 43.3744 61.4803 43.2869C61.3983 43.1983 61.2883 43.1539 61.1523 43.1539C61.0493 43.1539 60.9484 43.1847 60.8474 43.2463C60.7484 43.3066 60.6583 43.3922 60.5793 43.5031V43.0338C60.7793 42.87 60.9844 42.7881 61.1964 42.7881C61.4214 42.7881 61.6054 42.8633 61.7504 43.0135C61.8964 43.1638 61.9693 43.3547 61.9693 43.5862C61.9693 43.6897 61.9503 43.8005 61.9143 43.9188C61.8783 44.0358 61.8144 44.1712 61.7224 44.3252C61.6304 44.4779 61.4743 44.6867 61.2533 44.9515L61.1743 45.0457Z" fill="#605B61"/>
<path d="M63.5402 42.7881C63.7752 42.7881 63.9692 42.9125 64.1232 43.1613C64.2772 43.4089 64.3542 43.7235 64.3542 44.1053C64.3542 44.497 64.2772 44.8154 64.1232 45.0605C63.9692 45.3055 63.7702 45.4281 63.5252 45.4281C63.2762 45.4281 63.0762 45.308 62.9262 45.0678C62.7752 44.8277 62.6992 44.5093 62.6992 44.1127C62.6992 43.7211 62.7772 43.4027 62.9332 43.1576C63.0892 42.9113 63.2912 42.7881 63.5402 42.7881ZM63.5432 43.1391H63.5252C63.3842 43.1391 63.2722 43.2266 63.1882 43.4015C63.1062 43.5751 63.0652 43.811 63.0652 44.109C63.0652 44.4145 63.1062 44.654 63.1872 44.8277C63.2682 45.0013 63.3792 45.0882 63.5212 45.0882C63.6632 45.0882 63.7762 45.0013 63.8582 44.8277C63.9402 44.654 63.9812 44.4182 63.9812 44.1201C63.9812 43.8208 63.9412 43.5825 63.8612 43.4052C63.7832 43.2278 63.6772 43.1391 63.5432 43.1391Z" fill="#605B61"/>
</svg>
