<svg width="188" height="26" viewBox="0 0 188 26" fill="none" xmlns="http://www.w3.org/2000/svg">
<path fill-rule="evenodd" clip-rule="evenodd" d="M184.529 1.59229C184.529 1.16104 184.687 0.792454 185.006 0.48579C185.154 0.337774 185.333 0.220662 185.53 0.141674C185.728 0.0626871 185.94 0.0234984 186.154 0.0265306C186.602 0.0265306 186.985 0.179863 187.302 0.48579C187.62 0.792454 187.778 1.16104 187.778 1.59229C187.778 2.02427 187.62 2.39285 187.302 2.69878C187.153 2.84704 186.975 2.96432 186.777 3.04333C186.58 3.12234 186.367 3.16138 186.154 3.15804C185.94 3.16125 185.728 3.12214 185.53 3.04314C185.333 2.96415 185.154 2.84694 185.006 2.69878C184.852 2.5556 184.73 2.38352 184.648 2.19319C184.566 2.00286 184.526 1.79833 184.529 1.59229ZM184.746 1.59229C184.746 1.97635 184.882 2.30366 185.152 2.57125C185.424 2.83958 185.757 2.97448 186.154 2.97448C186.55 2.97448 186.883 2.83958 187.155 2.57125C187.427 2.30366 187.563 1.97488 187.563 1.5886C187.563 1.20675 187.427 0.882386 187.155 0.613318C186.884 0.34425 186.55 0.210824 186.154 0.210824C185.757 0.210824 185.424 0.344987 185.152 0.613318C185.02 0.742156 184.916 0.895136 184.846 1.06326C184.776 1.23138 184.742 1.41125 184.746 1.59229ZM186.744 2.52407L186.174 1.69696H185.765V2.52407H185.547V0.661973H186.288C186.707 0.661973 186.917 0.834474 186.917 1.17947C186.917 1.47213 186.754 1.64462 186.43 1.6977L187.011 2.52481H186.744V2.52407ZM185.765 0.845529V1.51341H186.245C186.548 1.51341 186.701 1.40136 186.701 1.17504C186.701 0.955367 186.549 0.845529 186.245 0.845529H185.765ZM58.547 17.0906C58.6809 19.6832 61.7741 20.0695 63.4546 20.0695C65.7733 20.0695 68.2917 19.4872 68.2917 17.8691C68.2917 16.5392 67.5181 16.0858 62.5125 15.4393C57.002 14.728 54.1147 14.1139 54.1147 10.1958C54.1147 5.3069 60.0239 4.66261 63.0168 4.66261C65.7733 4.66261 72.3897 5.05405 72.659 10.5556H67.8219C67.4515 7.99537 64.3622 7.70197 62.7842 7.70197C60.1602 7.70197 58.7498 8.77309 58.7498 9.6776C58.7498 11.0686 59.186 11.2986 63.6543 11.9134C69.5031 12.7258 73.3317 13.2743 73.3317 17.2543C73.3317 21.622 68.9981 23.1111 63.4859 23.1111C59.6903 23.1111 53.6769 22.3297 53.5078 17.0899H58.547V17.0906Z" fill="#231F20"/>
<path fill-rule="evenodd" clip-rule="evenodd" d="M76.2899 8.54605H72.5938V5.30544H76.2899V0H80.9258V5.30544H85.7645V8.54605H80.9258V16.3763C80.9258 18.3541 81.0284 19.4179 82.6048 19.4179C83.7488 19.4179 84.8248 19.3921 85.9321 19.3567V22.5922C84.6924 22.7588 83.7825 22.8531 82.3706 22.8531C76.7253 22.8531 76.2899 20.9077 76.2899 17.6752V8.54605ZM90.77 12.1707C91.5429 8.67727 94.5649 7.70125 96.7176 7.70125C99.0034 7.70125 102.159 8.73993 102.732 12.1707H90.77ZM107.567 15.0207V14.3749C107.567 9.35621 104.545 4.66115 96.6533 4.66115C90.3323 4.66115 85.9321 8.32122 85.9321 14.0476C85.9321 18.6107 88.9235 23.1104 96.9525 23.1104C103.738 23.1104 106.16 19.3228 107.167 17.4128H102.129C101.22 18.837 99.8758 19.8735 96.8186 19.8735C92.2141 19.8735 90.8726 16.9292 90.7708 15.0199H107.567V15.0207ZM106.325 5.30544H111.364L115.935 17.8676H116.003L120.269 5.30544H125.108L129.375 17.8676H129.443L134.009 5.30544H139.049L132.295 22.4646H127.054L122.723 10.5549H122.654L118.32 22.4646H113.08L106.325 5.30544ZM152.863 15.5691C152.863 19.3567 148.664 20.2642 146.176 20.2642C144.596 20.2642 142.442 19.8425 142.442 17.5735C142.442 16.1176 143.282 15.3767 146.78 14.989C150.074 14.6329 151.517 14.4729 152.863 13.92V15.5691ZM157.496 10.4244C157.496 8.19 157.225 4.66188 147.918 4.66188C142.648 4.66188 139.184 6.05515 138.513 10.5549H143.051C143.221 8.63894 144.863 7.70125 147.918 7.70125C150.609 7.70125 152.96 8.19 152.96 10.1627C152.96 11.4947 152.254 11.7196 145.602 12.33C142.649 12.5917 137.607 13.0089 137.607 17.7371C137.607 21.1016 140.224 23.1104 144.863 23.1104C150.074 23.1104 152.323 21.5889 153.229 20.7463C153.359 21.3935 153.698 22.949 156.722 22.949C158.306 22.949 159.112 22.7241 160.018 22.5649V19.4172C159.646 19.4857 158.94 19.5189 158.505 19.5189C158.2 19.5189 157.496 19.4857 157.496 18.5458V10.4244ZM160.687 5.30544H165.328V8.6382H165.389C166.634 6.70238 168.553 4.85429 172.11 4.85429C172.814 4.85429 173.354 4.9199 173.955 5.02089V9.41813C172.683 9.03406 171.811 9.00015 171.004 9.00015C168.651 9.00015 165.328 10.1944 165.328 14.181V22.4639H160.687V5.30544ZM178.361 8.54605H174.663V5.30544H178.361V0H183V5.30544H187.832V8.54605H183V16.3763C183 18.3541 183.097 19.4179 184.676 19.4179C185.817 19.4179 186.894 19.3921 188.001 19.3567V22.5922C186.759 22.7588 185.853 22.8531 184.445 22.8531C178.794 22.8531 178.361 20.9077 178.361 17.6752V8.54605Z" fill="#231F20"/>
<path d="M21.6923 0H13.0154L0 26H8.67693L21.6923 0Z" fill="#A32135"/>
<path d="M31.8154 0H23.1384L10.123 26H18.8L31.8154 0Z" fill="#A32135"/>
<path d="M50.6161 13L43.3853 0L39.0469 7.22222L41.9392 13H50.6161Z" fill="#231F20"/>
<path d="M43.3857 0H34.7088L21.6934 26H30.3703L43.3857 0Z" fill="#A32135"/>
</svg>
