<svg width="146" height="32" viewBox="0 0 146 32" fill="none" xmlns="http://www.w3.org/2000/svg">
<g clip-path="url(#clip0_1526_15653)">
<path d="M142.585 0.0581409C143.705 -0.00025323 144.824 -0.00025323 145.944 0.0289439C142.585 6.97785 139.344 13.9852 136.073 20.9633H133.332C131.83 17.4596 130.062 14.0435 128.5 10.5399C129.59 10.5107 130.681 10.5107 131.771 10.5399C132.714 12.7005 133.833 14.7735 134.688 16.9341C137.31 11.299 140.021 5.69318 142.585 0.0581409Z" fill="#EC1C24"/>
<path d="M58.2214 3.03711C60.3725 3.06631 62.553 3.06631 64.704 3.03711C64.6746 4.93492 64.6746 6.86193 64.704 8.75974C62.553 8.73054 60.3725 8.75974 58.1919 8.73054C58.2509 6.83273 58.1919 4.93492 58.2214 3.03711ZM25.6021 11.2123C30.022 8.73054 36.4457 9.57725 39.4218 13.8692C41.2487 16.4094 41.7791 19.621 41.7497 22.6575C36.6814 22.6867 31.6132 22.6575 26.545 22.6867C26.7807 24.2342 27.4585 25.8692 28.9023 26.6867C30.965 27.8838 34.2063 27.5335 35.2376 25.1685C37.3297 25.1101 39.3924 25.1101 41.4845 25.1685C40.8362 27.5335 39.0977 29.5481 36.9172 30.6575C34.5599 31.9422 31.7311 32.1758 29.1086 31.7378C26.3387 31.2999 23.7752 29.7524 22.2134 27.4459C20.5044 24.9933 20.0624 21.8692 20.4455 18.9787C20.8285 15.7962 22.7438 12.7889 25.6021 11.2123ZM29.0496 14.8619C27.6058 15.5335 26.8986 17.0809 26.5745 18.57H35.2376C35.0608 17.4313 34.6483 16.2342 33.7643 15.4459C32.5267 14.2488 30.5524 14.2196 29.0496 14.8619ZM93.5516 10.1028C97.0287 9.48966 100.889 10.2196 103.57 12.6138C108.138 16.6429 108.344 24.4386 104.101 28.7597C100.741 32.2342 95.1134 32.8765 90.8113 30.9203C87.4816 29.4313 85.2127 26.0736 84.8296 22.5116C84.6823 20.4386 84.7707 18.3072 85.6252 16.3802C86.9217 13.0809 90.0746 10.6867 93.5516 10.1028ZM94.2883 14.8619C92.4614 15.5043 91.6069 17.4605 91.3417 19.2415C91.1354 21.4605 91.1649 23.9714 92.6087 25.8108C94.1704 27.8254 97.618 27.767 99.1797 25.7816C100.476 24.1758 100.683 21.986 100.535 20.0006C100.447 18.2488 99.828 16.3802 98.3547 15.2999C97.176 14.5116 95.6143 14.3948 94.2883 14.8619ZM116.683 11.2999C118.834 9.63565 121.898 9.46047 124.374 10.4532C126.142 11.2123 127.467 12.7597 128.086 14.5408C128.793 16.3802 128.587 18.3656 128.587 20.2926C128.587 23.9714 128.558 27.6502 128.617 31.2999C126.466 31.3291 124.315 31.2999 122.134 31.3291V18.7159C122.134 17.6356 121.722 16.4678 120.808 15.7962C119.423 14.8619 117.419 15.0371 116.241 16.205C115.298 17.1393 114.885 18.4824 114.915 19.767V31.3291C112.793 31.2999 110.642 31.3291 108.521 31.2999C108.521 24.351 108.55 17.4021 108.521 10.4532C110.613 10.4824 112.675 10.424 114.767 10.4824C114.738 11.4459 114.738 12.4094 114.709 13.3729C115.357 12.6721 115.887 11.8838 116.683 11.2999ZM0.0546875 10.5116H6.77303C8.12849 14.9787 9.57234 19.4459 10.8394 23.9422C12.4011 19.5335 13.5798 14.9787 15.0531 10.5116C17.2041 10.4824 19.3847 10.5116 21.5357 10.4824C19.0605 17.4313 16.6443 24.3802 14.1986 31.3291C11.9591 31.3291 9.71967 31.2999 7.48023 31.3583C4.91665 24.4386 2.64773 17.4021 0.0546875 10.5116ZM43.223 10.4824H49.4109C49.3815 11.6502 49.4109 12.8181 49.352 13.986C49.8824 13.4021 50.2655 12.6721 50.8253 12.1174C52.2103 10.5992 54.4792 9.98601 56.4829 10.5116C56.4534 12.351 56.4534 14.1904 56.4829 16.0006C54.8917 15.8254 53.1237 15.8838 51.7683 16.8473C50.3244 17.84 49.6761 19.6794 49.7056 21.3729C49.6761 24.7013 49.7056 28.0006 49.7056 31.3291C47.5546 31.3291 45.374 31.2999 43.223 31.3583C43.2525 24.3802 43.2525 17.4313 43.223 10.4824ZM58.2214 10.5116C60.4019 10.4824 62.553 10.5116 64.7335 10.4824C64.704 17.4313 64.7335 24.3802 64.7335 31.3291C62.5824 31.2999 60.4019 31.3291 58.2214 31.3291V10.5116ZM66.472 10.4824C72.3358 10.5116 78.1996 10.4824 84.034 10.5116C83.9751 12.1174 84.034 13.694 84.0045 15.2999C83.7983 15.7086 83.4447 16.0006 83.1795 16.351C80.1739 19.6502 77.2272 23.0371 74.1627 26.3072C77.6103 26.3656 81.0579 26.3072 84.5055 26.3364V31.3583C78.4943 31.3291 72.4832 31.3291 66.472 31.3583V26.5116C69.6249 23.0079 72.7484 19.5335 75.9307 16.059C76.0191 15.8838 76.4022 15.7086 76.1959 15.4751C72.9546 15.5627 69.7133 15.4751 66.472 15.5335V10.4824Z" fill="black"/>
</g>
<defs>
<clipPath id="clip0_1526_15653">
<rect width="146" height="32" fill="white"/>
</clipPath>
</defs>
</svg>
