<svg width="65" height="45" viewBox="0 0 65 45" fill="none" xmlns="http://www.w3.org/2000/svg">
<g clip-path="url(#clip0)">
<path d="M0.5625 34.0867C0.5625 30.8242 3.26251 29.0242 9.67501 28.3492C9.67501 26.6617 9.00001 25.3117 6.86251 25.3117C5.28751 25.3117 3.82501 25.9867 2.47501 26.8867L1.125 24.4117C2.8125 23.2867 5.06251 22.3867 7.42501 22.3867C11.25 22.3867 13.1625 24.7492 13.1625 29.0242V38.1367H10.2375L10.0125 36.4492H9.89999C8.54999 37.6867 6.975 38.5867 5.0625 38.5867C2.475 38.5867 0.5625 36.7867 0.5625 34.0867ZM9.67501 34.0867V30.5992C5.51251 31.1617 4.05001 32.1742 4.05001 33.7492C4.05001 35.0992 4.95001 35.6617 6.30001 35.6617C7.53751 35.7742 8.55001 35.2117 9.67501 34.0867Z" fill="#245EA7"/>
<path d="M15.75 34.3119V16.0869H19.35V34.5369C19.35 35.4369 19.8 35.7744 20.1375 35.7744C20.25 35.7744 20.475 35.7744 20.7 35.6619L21.15 38.3619C20.7 38.5869 20.1375 38.6994 19.2375 38.6994C16.7625 38.5869 15.75 37.0119 15.75 34.3119Z" fill="#245EA7"/>
<path d="M22.9502 33.075V25.65H20.7002V22.95L23.0627 22.8375L23.5127 18.5625H26.5502V22.8375H30.4877V25.7625H26.5502V33.075C26.5502 34.875 27.2252 35.775 28.6877 35.775C29.2502 35.775 29.8127 35.55 30.2627 35.4375L30.8252 38.1375C29.9252 38.3625 28.9127 38.7 27.6752 38.7C24.3002 38.5875 22.9502 36.3375 22.9502 33.075Z" fill="#245EA7"/>
<path d="M31.5 17.9996C31.5 16.7621 32.5125 15.9746 33.75 15.9746C34.9875 15.9746 36 16.7621 36 17.9996C36 19.2371 34.9875 20.0246 33.75 20.0246C32.4 20.0246 31.5 19.2371 31.5 17.9996ZM31.95 22.7246H35.55V38.2496H31.95V22.7246Z" fill="#245EA7"/>
<path d="M38.0254 32.5119V22.8369H41.6254V32.0619C41.6254 34.6494 42.3004 35.5494 43.9879 35.5494C45.3379 35.5494 46.2379 34.8744 47.3629 33.4119V22.8369H50.9629V38.2494H48.0379L47.8129 35.9994H47.7004C46.3504 37.5744 44.8879 38.6994 42.7504 38.6994C39.4879 38.5869 38.0254 36.3369 38.0254 32.5119Z" fill="#245EA7"/>
<path d="M52.3125 36.45L54 34.2C55.35 35.325 56.7 35.8875 58.275 35.8875C59.9625 35.8875 60.75 35.1 60.75 34.0875C60.75 32.7375 59.0625 32.175 57.375 31.6125C55.35 30.825 52.9875 29.7 52.9875 27.1125C52.9875 24.4125 55.125 22.5 58.6125 22.5C60.75 22.5 62.4375 23.4 63.7875 24.3L62.1 26.55C60.975 25.7625 59.9625 25.2 58.725 25.2C57.15 25.2 56.475 25.9875 56.475 26.8875C56.475 28.125 58.05 28.575 59.7375 29.1375C61.875 29.925 64.125 30.9375 64.125 33.8625C64.125 36.5625 61.9875 38.7 58.1625 38.7C56.1375 38.5875 53.8875 37.6875 52.3125 36.45Z" fill="#245EA7"/>
<path d="M33.7504 20.5877C35.1173 20.5877 36.2254 19.4796 36.2254 18.1127C36.2254 16.7458 35.1173 15.6377 33.7504 15.6377C32.3835 15.6377 31.2754 16.7458 31.2754 18.1127C31.2754 19.4796 32.3835 20.5877 33.7504 20.5877Z" fill="white"/>
<path d="M59.1748 8.09961H55.7998V20.1371H59.1748V8.09961Z" fill="#48A6DF"/>
<path d="M53.3252 0.5625H49.9502V20.1375H53.3252V0.5625Z" fill="#48A6DF"/>
<path d="M47.5879 5.625H44.2129V20.1375H47.5879V5.625Z" fill="#48A6DF"/>
<path d="M41.5127 12.5996H38.1377V20.0246H41.5127V12.5996Z" fill="#48A6DF"/>
<path d="M35.3252 16.7627H31.9502V20.1377H35.3252V16.7627Z" fill="#48A6DF"/>
<path d="M34.7629 40.9502H35.3254L36.0004 42.9752C36.1129 43.2002 36.2254 43.5377 36.2254 43.7627C36.3379 43.5377 36.3379 43.2002 36.4504 42.9752L37.1254 40.9502H37.6879V44.6627H37.2379V42.6377C37.2379 42.3002 37.2379 41.8502 37.3504 41.5127L37.0129 42.3002L36.3379 44.2127H36.0004L35.3254 42.3002L34.9879 41.5127C34.9879 41.8502 35.1004 42.3002 35.1004 42.6377V44.6627H34.6504V40.9502H34.7629Z" fill="#245EA7"/>
<path d="M39.0381 42.7504C39.0381 41.5129 39.7131 40.8379 40.7256 40.8379C41.1756 40.8379 41.5131 41.0629 41.7381 41.2879L41.5131 41.6254C41.2881 41.4004 41.0631 41.2879 40.7256 41.2879C40.0506 41.2879 39.6006 41.8504 39.6006 42.7504C39.6006 43.6504 40.0506 44.2129 40.7256 44.2129C41.0631 44.2129 41.4006 44.1004 41.6256 43.7629L41.8506 44.1004C41.5131 44.4379 41.1756 44.6629 40.7256 44.6629C39.7131 44.6629 39.0381 43.9879 39.0381 42.7504Z" fill="#245EA7"/>
<path d="M43.5381 40.9502H44.1006L45.3381 44.6627H44.8881L44.2131 42.6377C44.1006 42.1877 43.9881 41.8502 43.8756 41.4002C43.7631 41.8502 43.6506 42.1877 43.5381 42.6377L42.8631 44.6627H42.4131L43.5381 40.9502ZM42.9756 43.0877H44.6631V43.4252H42.9756V43.0877Z" fill="#245EA7"/>
<path d="M46.6875 41.2879H45.5625V40.8379H48.2625V41.2879H47.1375V44.5504H46.6875V41.2879Z" fill="#245EA7"/>
<path d="M50.7383 40.9502H51.7508C52.5383 40.9502 53.1008 41.1752 53.1008 42.0752C53.1008 42.8627 52.5383 43.2002 51.7508 43.2002H51.1883V44.6627H50.7383V40.9502ZM51.7508 42.7502C52.4258 42.7502 52.6508 42.5252 52.6508 41.9627C52.6508 41.4002 52.3133 41.2877 51.6383 41.2877H51.0758V42.7502H51.7508V42.7502Z" fill="#245EA7"/>
<path d="M54.2256 40.9502H55.3506C56.1381 40.9502 56.5881 41.1752 56.5881 41.9627C56.5881 42.7502 56.0256 43.0877 55.3506 43.0877H54.6756V44.6627H54.2256V40.9502ZM55.3506 42.6377C55.9131 42.6377 56.2506 42.4127 56.2506 41.9627C56.2506 41.5127 55.9131 41.2877 55.3506 41.2877H54.6756V42.6377H55.3506ZM55.2381 42.9752L55.5756 42.7502L56.7006 44.6627H56.2506L55.2381 42.9752Z" fill="#245EA7"/>
<path d="M57.7129 40.9502H59.8504V41.4002H58.1629V42.5252H59.5129V42.9752H58.1629V44.3252H59.8504V44.7752H57.7129V40.9502Z" fill="#245EA7"/>
<path d="M61.0879 40.9502H62.1004C62.8879 40.9502 63.4504 41.1752 63.4504 42.0752C63.4504 42.8627 62.8879 43.2002 62.1004 43.2002H61.5379V44.6627H61.0879V40.9502ZM62.1004 42.7502C62.7754 42.7502 63.0004 42.5252 63.0004 41.9627C63.0004 41.4002 62.6629 41.2877 61.9879 41.2877H61.4254V42.7502H62.1004V42.7502Z" fill="#245EA7"/>
</g>
<defs>
<clipPath id="clip0">
<rect width="64.125" height="45" fill="white"/>
</clipPath>
</defs>
</svg>
