<svg width="181" height="45" viewBox="0 0 181 45" fill="none" xmlns="http://www.w3.org/2000/svg">
<path d="M9.66219 25C7.84363 25 6.19502 24.6188 4.71637 23.8564C3.25472 23.0773 2.099 22.0083 1.2492 20.6492C0.416401 19.2735 0 17.7238 0 16C0 14.2762 0.416401 12.7348 1.2492 11.3757C2.099 10 3.25472 8.93094 4.71637 8.16851C6.19502 7.3895 7.85212 7 9.68769 7C11.2343 7 12.628 7.26519 13.8687 7.79558C15.1264 8.32597 16.1801 9.0884 17.0299 10.0829L14.3786 12.4696C13.1719 11.1105 11.6762 10.4309 9.89164 10.4309C8.7869 10.4309 7.80114 10.6713 6.93434 11.1519C6.06755 11.616 5.38771 12.2707 4.89483 13.116C4.41894 13.9613 4.181 14.9227 4.181 16C4.181 17.0773 4.41894 18.0387 4.89483 18.884C5.38771 19.7293 6.06755 20.3923 6.93434 20.8729C7.80114 21.337 8.7869 21.5691 9.89164 21.5691C11.6762 21.5691 13.1719 20.8812 14.3786 19.5055L17.0299 21.8923C16.1801 22.9033 15.1264 23.674 13.8687 24.2044C12.611 24.7348 11.2088 25 9.66219 25Z" fill="#05A1E6"/>
<path d="M36.186 7.29834V24.7017H32.056V17.5663H23.9489V24.7017H19.8189V7.29834H23.9489V14.1602H32.056V7.29834H36.186Z" fill="#05A1E6"/>
<path d="M51.7785 24.7017L48.3369 19.8536H48.1329H44.5383V24.7017H40.4082V7.29834H48.1329C49.7135 7.29834 51.0817 7.55525 52.2374 8.06906C53.4101 8.58287 54.3109 9.31215 54.9398 10.2569C55.5686 11.2017 55.883 12.3204 55.883 13.6133C55.883 14.9061 55.5601 16.0249 54.9143 16.9696C54.2854 17.8978 53.3846 18.6105 52.2119 19.1077L56.2145 24.7017H51.7785ZM51.702 13.6133C51.702 12.6354 51.3791 11.8895 50.7333 11.3757C50.0874 10.8453 49.1442 10.5801 47.9035 10.5801H44.5383V16.6464H47.9035C49.1442 16.6464 50.0874 16.3812 50.7333 15.8508C51.3791 15.3204 51.702 14.5746 51.702 13.6133Z" fill="#05A1E6"/>
<path d="M67.7977 25C65.9451 25 64.271 24.6105 62.7754 23.8315C61.2967 23.0525 60.1325 21.9834 59.2827 20.6243C58.4499 19.2486 58.0335 17.7072 58.0335 16C58.0335 14.2928 58.4499 12.7597 59.2827 11.4006C60.1325 10.0249 61.2967 8.94751 62.7754 8.16851C64.271 7.3895 65.9451 7 67.7977 7C69.6502 7 71.3158 7.3895 72.7945 8.16851C74.2731 8.94751 75.4373 10.0249 76.2871 11.4006C77.1369 12.7597 77.5618 14.2928 77.5618 16C77.5618 17.7072 77.1369 19.2486 76.2871 20.6243C75.4373 21.9834 74.2731 23.0525 72.7945 23.8315C71.3158 24.6105 69.6502 25 67.7977 25ZM67.7977 21.5691C68.8514 21.5691 69.8032 21.337 70.653 20.8729C71.5028 20.3923 72.1656 19.7293 72.6415 18.884C73.1344 18.0387 73.3808 17.0773 73.3808 16C73.3808 14.9227 73.1344 13.9613 72.6415 13.116C72.1656 12.2707 71.5028 11.616 70.653 11.1519C69.8032 10.6713 68.8514 10.4309 67.7977 10.4309C66.7439 10.4309 65.7921 10.6713 64.9424 11.1519C64.0926 11.616 63.4212 12.2707 62.9283 13.116C62.4524 13.9613 62.2145 14.9227 62.2145 16C62.2145 17.0773 62.4524 18.0387 62.9283 18.884C63.4212 19.7293 64.0926 20.3923 64.9424 20.8729C65.7921 21.337 66.7439 21.5691 67.7977 21.5691Z" fill="#05A1E6"/>
<path d="M96.9053 24.7017L96.8798 14.2597L91.6281 22.8619H89.767L84.5408 14.4834V24.7017H80.6657V7.29834H84.0819L90.7613 18.1133L97.3387 7.29834H100.729L100.78 24.7017H96.9053Z" fill="#05A1E6"/>
<path d="M118.832 21.4696V24.7017H105.014V7.29834H118.501V10.5304H109.119V14.3094H117.404V17.442H109.119V21.4696H118.832Z" fill="#05A1E6"/>
<path d="M125.815 10.5801H120.104V7.29834H135.655V10.5801H129.945V24.7017H125.815V10.5801Z" fill="#05A1E6"/>
<path d="M149.248 24.7017L145.806 19.8536H145.602H142.008V24.7017H137.878V7.29834H145.602C147.183 7.29834 148.551 7.55525 149.707 8.06906C150.88 8.58287 151.78 9.31215 152.409 10.2569C153.038 11.2017 153.352 12.3204 153.352 13.6133C153.352 14.9061 153.03 16.0249 152.384 16.9696C151.755 17.8978 150.854 18.6105 149.681 19.1077L153.684 24.7017H149.248ZM149.171 13.6133C149.171 12.6354 148.848 11.8895 148.203 11.3757C147.557 10.8453 146.614 10.5801 145.373 10.5801H142.008V16.6464H145.373C146.614 16.6464 147.557 16.3812 148.203 15.8508C148.848 15.3204 149.171 14.5746 149.171 13.6133Z" fill="#05A1E6"/>
<path d="M156.625 7.29834H160.755V24.7017H156.625V7.29834Z" fill="#05A1E6"/>
<path d="M176.233 24.7017L171.924 18.6602L167.692 24.7017H162.95L169.553 15.8508L163.282 7.29834H167.973L172.077 12.942L176.105 7.29834H180.567L174.346 15.7017L181 24.7017H176.233Z" fill="#05A1E6"/>
<path d="M4.48863 38C3.81131 38 3.15438 37.9088 2.51786 37.7265C1.8895 37.5359 1.38355 37.2914 1 36.9931L1.67324 35.4765C2.04047 35.75 2.47706 35.9696 2.98301 36.1354C3.48896 36.3011 3.99492 36.384 4.50087 36.384C5.06395 36.384 5.48014 36.3011 5.74943 36.1354C6.01873 35.9613 6.15338 35.7334 6.15338 35.4517C6.15338 35.2445 6.07177 35.0746 5.90856 34.942C5.75351 34.8011 5.5495 34.6892 5.29652 34.6064C5.05171 34.5235 4.71712 34.4323 4.29278 34.3329C3.63993 34.1754 3.10542 34.018 2.68923 33.8605C2.27304 33.703 1.91398 33.4503 1.61204 33.1022C1.31826 32.7541 1.17137 32.2901 1.17137 31.7099C1.17137 31.2044 1.30602 30.7486 1.57532 30.3425C1.84462 29.9282 2.24856 29.6008 2.78716 29.3605C3.33391 29.1202 3.999 29 4.78241 29C5.32917 29 5.86368 29.0663 6.38596 29.1989C6.90823 29.3315 7.36522 29.5221 7.75693 29.7707L7.14489 31.2997C6.35331 30.8439 5.56174 30.616 4.77017 30.616C4.21525 30.616 3.80314 30.7072 3.53385 30.8895C3.27271 31.0718 3.14214 31.3122 3.14214 31.6105C3.14214 31.9088 3.29311 32.1326 3.59505 32.2818C3.90515 32.4227 4.37438 32.5635 5.00274 32.7044C5.65559 32.8619 6.1901 33.0193 6.60629 33.1768C7.02248 33.3343 7.37746 33.5829 7.67124 33.9227C7.97318 34.2624 8.12415 34.7224 8.12415 35.3025C8.12415 35.7997 7.98542 36.2555 7.70796 36.6699C7.43866 37.076 7.03064 37.3992 6.48388 37.6395C5.93713 37.8798 5.27204 38 4.48863 38Z" fill="#2E282A"/>
<path d="M13.4128 34.768V37.8508H11.4297V34.7431L8.11248 29.1492H10.2179L12.5069 33.0152L14.796 29.1492H16.7423L13.4128 34.768Z" fill="#2E282A"/>
<path d="M20.208 38C19.5307 38 18.8738 37.9088 18.2373 37.7265C17.6089 37.5359 17.1029 37.2914 16.7194 36.9931L17.3926 35.4765C17.7599 35.75 18.1965 35.9696 18.7024 36.1354C19.2084 36.3011 19.7143 36.384 20.2203 36.384C20.7833 36.384 21.1995 36.3011 21.4688 36.1354C21.7381 35.9613 21.8728 35.7334 21.8728 35.4517C21.8728 35.2445 21.7912 35.0746 21.628 34.942C21.4729 34.8011 21.2689 34.6892 21.0159 34.6064C20.7711 34.5235 20.4365 34.4323 20.0122 34.3329C19.3593 34.1754 18.8248 34.018 18.4086 33.8605C17.9924 33.703 17.6334 33.4503 17.3314 33.1022C17.0377 32.7541 16.8908 32.2901 16.8908 31.7099C16.8908 31.2044 17.0254 30.7486 17.2947 30.3425C17.564 29.9282 17.968 29.6008 18.5066 29.3605C19.0533 29.1202 19.7184 29 20.5018 29C21.0486 29 21.5831 29.0663 22.1054 29.1989C22.6276 29.3315 23.0846 29.5221 23.4763 29.7707L22.8643 31.2997C22.0727 30.8439 21.2811 30.616 20.4896 30.616C19.9346 30.616 19.5225 30.7072 19.2532 30.8895C18.9921 31.0718 18.8615 31.3122 18.8615 31.6105C18.8615 31.9088 19.0125 32.1326 19.3144 32.2818C19.6245 32.4227 20.0938 32.5635 20.7221 32.7044C21.375 32.8619 21.9095 33.0193 22.3257 33.1768C22.7419 33.3343 23.0969 33.5829 23.3906 33.9227C23.6926 34.2624 23.8435 34.7224 23.8435 35.3025C23.8435 35.7997 23.7048 36.2555 23.4274 36.6699C23.1581 37.076 22.75 37.3992 22.2033 37.6395C21.6565 37.8798 20.9914 38 20.208 38Z" fill="#2E282A"/>
<path d="M26.8539 30.7901H24.112V29.1492H31.5789V30.7901H28.8369V37.8508H26.8539V30.7901Z" fill="#2E282A"/>
<path d="M39.2803 36.2348V37.8508H32.6458V29.1492H39.1212V30.7652H34.6166V32.6547H38.5949V34.221H34.6166V36.2348H39.2803Z" fill="#2E282A"/>
<path d="M48.6556 37.8508L48.6433 32.6298L46.1217 36.9309H45.2281L42.7188 32.7417V37.8508H40.8582V29.1492H42.4984L45.7055 34.5566L48.8637 29.1492H50.4917L50.5162 37.8508H48.6556Z" fill="#2E282A"/>
<path d="M55.3645 38C54.6872 38 54.0302 37.9088 53.3937 37.7265C52.7654 37.5359 52.2594 37.2914 51.8759 36.9931L52.5491 35.4765C52.9163 35.75 53.3529 35.9696 53.8589 36.1354C54.3648 36.3011 54.8708 36.384 55.3767 36.384C55.9398 36.384 56.356 36.3011 56.6253 36.1354C56.8946 35.9613 57.0292 35.7334 57.0292 35.4517C57.0292 35.2445 56.9476 35.0746 56.7844 34.942C56.6294 34.8011 56.4254 34.6892 56.1724 34.6064C55.9276 34.5235 55.593 34.4323 55.1686 34.3329C54.5158 34.1754 53.9813 34.018 53.5651 33.8605C53.1489 33.703 52.7898 33.4503 52.4879 33.1022C52.1941 32.7541 52.0472 32.2901 52.0472 31.7099C52.0472 31.2044 52.1819 30.7486 52.4512 30.3425C52.7205 29.9282 53.1244 29.6008 53.663 29.3605C54.2098 29.1202 54.8749 29 55.6583 29C56.205 29 56.7395 29.0663 57.2618 29.1989C57.7841 29.3315 58.2411 29.5221 58.6328 29.7707L58.0207 31.2997C57.2292 30.8439 56.4376 30.616 55.646 30.616C55.0911 30.616 54.679 30.7072 54.4097 30.8895C54.1486 31.0718 54.018 31.3122 54.018 31.6105C54.018 31.9088 54.169 32.1326 54.4709 32.2818C54.781 32.4227 55.2502 32.5635 55.8786 32.7044C56.5314 32.8619 57.066 33.0193 57.4821 33.1768C57.8983 33.3343 58.2533 33.5829 58.5471 33.9227C58.849 34.2624 59 34.7224 59 35.3025C59 35.7997 58.8613 36.2555 58.5838 36.6699C58.3145 37.076 57.9065 37.3992 57.3597 37.6395C56.813 37.8798 56.1479 38 55.3645 38Z" fill="#2E282A"/>
</svg>
