<svg width="159" height="45" viewBox="0 0 159 45" fill="none" xmlns="http://www.w3.org/2000/svg">
<g clip-path="url(#clip0)">
<path d="M110.069 34.6587C103.224 34.6587 100.586 28.3949 100.586 22.0292C100.586 15.6635 103.224 9.40389 110.069 9.40389C116.907 9.40389 119.552 15.6635 119.552 22.0292C119.552 28.3949 116.907 34.6587 110.068 34.6587H110.069ZM110.068 3C99.2898 3 93.0666 11.0293 93.0666 22.0292C93.0666 33.0333 99.2898 41.061 110.068 41.061C120.841 41.061 127.063 33.0333 127.063 22.0292C127.063 11.0293 120.841 3.00053 110.068 3.00053V3ZM0 4.06784H27.0075V10.4723H7.5129V18.4389H25.6922V24.6815H7.5129V33.5925H27.008V39.9942H0V4.06784ZM44.5395 22.8137H37.7384V10.4643H44.5395C49.2671 10.4643 52.411 12.5098 52.411 16.6406C52.411 20.7704 49.2671 22.8137 44.5395 22.8137ZM30.2287 39.9926H37.7384V29.2134H44.5395C53.7444 29.2134 59.9218 24.7187 59.9218 16.6406C59.9218 8.56149 53.7444 4.06838 44.5395 4.06838H30.2287V39.9926ZM137.615 4.06784H129.902V39.9937H137.267V25.4417C137.267 21.4584 137.124 17.9254 136.988 14.8015C137.856 16.5998 140.493 22.0037 141.71 24.0333L151.296 39.9937H159.009V4.06784H151.644V18.2559C151.644 22.235 151.791 26.1388 151.923 29.2558C151.055 27.4575 148.424 22.0568 147.19 20.0293L137.615 4.06784ZM68.4533 28.1073C68.4533 32.9357 72.4936 34.812 76.79 34.812C79.5951 34.812 84.1498 34.0036 84.1498 30.295C84.1498 26.3785 78.585 25.6385 73.2155 24.2179C67.5851 22.7358 62.1623 20.6361 62.1623 13.9792C62.1628 6.55789 69.2232 3 75.8184 3C83.4326 3 90.4365 6.30432 90.4365 14.6885H82.9225C82.6675 10.3195 79.2936 9.19806 75.4593 9.19806C72.9018 9.19806 69.6805 10.2664 69.6805 13.3198C69.6805 16.1133 71.5187 16.5441 80.6633 18.8851C83.3254 19.546 91.6648 21.1465 91.6648 29.3762C91.6648 36.0374 86.3988 41.0133 76.4763 41.0133C68.4042 41.0133 60.8385 37.0522 60.9382 28.1073H68.4533Z" fill="#003F98"/>
</g>
<defs>
<clipPath id="clip0">
<rect width="159" height="45" fill="white"/>
</clipPath>
</defs>
</svg>
