<svg width="220" height="45" viewBox="0 0 220 45" fill="none" xmlns="http://www.w3.org/2000/svg">
<g clip-path="url(#clip0)">
<path d="M7.95715 15.4203L0.329102 7.40815L8.06691 0.109375L15.695 8.12156C19.0974 12.5667 13.1157 19.1521 7.95715 15.4203Z" fill="#DC4881"/>
<path d="M25.7377 8.06689L33.3657 0.0546875L41.0487 7.40834L33.4206 15.4205C29.1401 19.0425 22.2804 13.3901 25.7377 8.06689Z" fill="#6BB557"/>
<path d="M33.3652 25.6828L41.2127 33.4755L33.6944 40.9937L25.8469 33.2011C22.3347 28.8108 28.1518 22.0608 33.3652 25.6828Z" fill="#4CADD8"/>
<path d="M15.4752 33.0367L7.51791 40.7197L0.109375 33.0916L8.06669 25.4087C12.5118 21.9514 19.1521 27.8782 15.4752 33.0367Z" fill="#F9D549"/>
<path d="M71.1761 13.1158C70.2431 11.0853 68.8163 9.49383 66.9504 8.28651C65.0846 7.07919 62.8346 6.47552 60.2553 6.47552C58.4443 6.47552 56.8529 6.74992 55.3163 7.35358C53.8346 7.95724 52.5175 8.78041 51.4748 9.87797C50.4321 10.9207 49.5541 12.2377 49.0053 13.7194C48.4016 15.2011 48.1273 16.7926 48.1273 18.5487C48.1273 20.2499 48.4016 21.8963 49.0053 23.378C49.609 24.8597 50.4321 26.1219 51.4748 27.2194C52.5175 28.2621 53.8346 29.1402 55.3163 29.7438C56.798 30.3475 58.4443 30.6219 60.2553 30.6219C61.7919 30.6219 63.2736 30.4024 64.5907 29.9633C65.9078 29.5243 67.1151 28.9206 68.1029 28.1524C69.1455 27.3841 69.9687 26.3963 70.6821 25.2987C71.3956 24.1463 71.8346 22.8841 72.1639 21.5121V21.4024H58.4443V18.4938H75.4565V19.9755C75.2919 21.9511 74.798 23.7621 73.9748 25.4084C73.1517 27.0548 72.109 28.4816 70.7919 29.6889C69.4748 30.8963 67.8834 31.8292 66.0724 32.4877C64.2614 33.1463 62.3407 33.4755 60.2004 33.4755C57.9504 33.4755 55.8651 33.0914 54.0541 32.378C52.1882 31.6097 50.5968 30.567 49.2248 29.2499C47.8529 27.9328 46.8102 26.3414 46.0419 24.5304C45.2736 22.7194 44.9443 20.7438 44.9443 18.5487C44.9443 16.4085 45.3285 14.4328 46.0419 12.6219C46.8102 10.8109 47.8529 9.21943 49.2248 7.90236C50.5968 6.58528 52.1882 5.54261 54.0541 4.77432C55.9199 4.00603 57.9504 3.67676 60.2004 3.67676C61.9017 3.67676 63.548 3.89626 65.0846 4.33528C66.6212 4.77431 67.9931 5.43285 69.2553 6.25602C70.4626 7.07919 71.5602 8.12187 72.4931 9.27431C73.426 10.4816 74.1395 11.7438 74.6334 13.2255H71.1761V13.1158Z" fill="black"/>
<path d="M101.304 32.8166H98.5605V27.6581H98.4508C97.7374 29.4142 96.53 30.7861 94.9386 31.8288C93.2922 32.8715 91.4264 33.3654 89.2312 33.3654C87.6946 33.3654 86.2678 33.091 84.8959 32.5971C83.5239 32.1032 82.3166 31.3349 81.3288 30.3471C80.2861 29.3593 79.5178 28.152 78.9142 26.7252C78.3105 25.2983 78.0361 23.7069 78.0361 21.9508C78.0361 20.3044 78.3105 18.7678 78.9142 17.3959C79.4629 15.9691 80.2861 14.7617 81.3288 13.7739C82.3715 12.7861 83.5788 11.9629 85.0057 11.4142C86.4325 10.8654 88.0239 10.5361 89.7252 10.5361C91.4264 10.5361 92.9629 10.8105 94.4446 11.3593C95.8715 11.9081 97.1337 12.7312 98.1215 13.7191C99.1642 14.7617 99.9325 15.9691 100.536 17.3959C101.085 18.8227 101.414 20.3593 101.414 22.0605V32.8166H101.304ZM89.6703 30.6764C90.9325 30.6764 92.1398 30.4569 93.1825 30.0178C94.2251 29.5788 95.1581 28.9751 95.9264 28.2069C96.6947 27.4386 97.2983 26.5056 97.6825 25.463C98.1215 24.4203 98.341 23.2678 98.341 22.0056C98.341 20.7434 98.1215 19.591 97.6825 18.5483C97.2434 17.5056 96.6398 16.5727 95.9264 15.8044C95.1581 15.0361 94.2251 14.4325 93.1825 13.9934C92.1398 13.5544 90.9325 13.3349 89.6703 13.3349C88.4081 13.3349 87.2008 13.5544 86.1581 13.9934C85.1154 14.4325 84.1825 15.0361 83.4142 15.8044C82.6459 16.5727 82.0422 17.5056 81.6581 18.5483C81.219 19.591 80.9995 20.7434 80.9995 22.0056C80.9995 23.2678 81.219 24.4203 81.6581 25.463C82.0971 26.5056 82.7008 27.4386 83.4142 28.2069C84.1825 28.9751 85.1154 29.5788 86.1581 30.0178C87.2008 30.4569 88.4081 30.6764 89.6703 30.6764Z" fill="black"/>
<path d="M124.079 32.8164V21.5116C124.079 18.8225 123.365 16.792 121.993 15.3652C120.566 13.9933 118.701 13.2799 116.341 13.2799C113.981 13.2799 112.06 13.9933 110.688 15.3652C109.262 16.7372 108.603 18.8225 108.603 21.5116V32.8164H105.64V21.5116C105.64 19.7006 105.914 18.164 106.408 16.7921C106.902 15.4201 107.67 14.2677 108.603 13.3896C109.536 12.4567 110.688 11.7981 112.005 11.3042C113.323 10.8103 114.804 10.5908 116.396 10.5908C117.987 10.5908 119.469 10.8103 120.786 11.3042C122.103 11.7981 123.255 12.4567 124.188 13.3896C125.121 14.3225 125.835 15.4201 126.384 16.7921C126.877 18.164 127.152 19.7555 127.152 21.5116V32.8164H124.079Z" fill="black"/>
<path d="M148.279 24.8046C148.279 26.2314 148.06 27.4936 147.676 28.5363C147.292 29.579 146.688 30.5119 145.92 31.2253C145.151 31.9387 144.273 32.4875 143.285 32.8168C142.243 33.1461 141.145 33.3656 139.883 33.3656C138.621 33.3656 137.468 33.2009 136.426 32.8168C135.383 32.4326 134.45 31.9387 133.737 31.2253C132.968 30.5119 132.42 29.6339 131.981 28.5363C131.596 27.4936 131.377 26.2314 131.377 24.8046V3.45703H134.34V11.0851H147.072V13.7741H134.285V24.8046C134.285 26.7802 134.779 28.2619 135.822 29.1948C136.865 30.1278 138.182 30.6217 139.883 30.6217C141.529 30.6217 142.901 30.1278 143.944 29.1948C144.987 28.2619 145.481 26.7802 145.481 24.7497V24.2558H148.334V24.8046H148.279Z" fill="black"/>
<path d="M174.456 21.9508C174.456 23.5971 174.182 25.1337 173.578 26.5056C173.03 27.9325 172.206 29.1398 171.164 30.1276C170.121 31.1154 168.914 31.9386 167.432 32.4874C166.005 33.0361 164.414 33.3654 162.712 33.3654C161.011 33.3654 159.42 33.091 157.993 32.4874C156.566 31.9386 155.359 31.1154 154.316 30.1276C153.273 29.1398 152.45 27.9325 151.901 26.5056C151.353 25.0788 151.023 23.5971 151.023 21.9508C151.023 20.3044 151.298 18.7678 151.901 17.3959C152.45 15.9691 153.273 14.7617 154.316 13.7739C155.359 12.7861 156.566 11.9629 157.993 11.4142C159.42 10.8654 161.011 10.5361 162.712 10.5361C164.414 10.5361 165.95 10.8105 167.432 11.4142C168.859 11.9629 170.121 12.7861 171.164 13.7739C172.206 14.7617 173.03 15.9691 173.578 17.3959C174.182 18.8227 174.456 20.3593 174.456 21.9508ZM162.767 30.6764C164.03 30.6764 165.237 30.4569 166.28 30.0178C167.322 29.5788 168.255 28.9751 169.023 28.2069C169.792 27.4386 170.395 26.5056 170.78 25.463C171.219 24.4203 171.438 23.2678 171.438 22.0056C171.438 20.7434 171.219 19.591 170.78 18.5483C170.341 17.5056 169.737 16.5727 169.023 15.8044C168.255 15.0361 167.322 14.4325 166.28 13.9934C165.237 13.5544 164.03 13.3349 162.767 13.3349C161.505 13.3349 160.298 13.5544 159.255 13.9934C158.212 14.4325 157.28 15.0361 156.511 15.8044C155.743 16.5727 155.139 17.5056 154.755 18.5483C154.316 19.591 154.097 20.7434 154.097 22.0056C154.097 23.2678 154.316 24.4203 154.755 25.463C155.194 26.5056 155.798 27.4386 156.511 28.2069C157.28 28.9751 158.212 29.5788 159.255 30.0178C160.298 30.4569 161.45 30.6764 162.767 30.6764Z" fill="black"/>
<path d="M193.005 32.8164V20.1396C193.005 17.8347 192.401 16.1335 191.249 14.9811C190.096 13.8286 188.615 13.2799 186.858 13.2799C185.102 13.2799 183.675 13.8286 182.523 14.9811C181.371 16.1335 180.822 17.8347 180.822 20.1396V32.8164H177.858V20.1396C177.858 18.5482 178.078 17.1213 178.517 15.914C178.956 14.7067 179.56 13.7189 180.383 12.9506C181.151 12.1823 182.084 11.5786 183.182 11.1945C184.224 10.8103 185.432 10.5908 186.694 10.5908C188.45 10.5908 189.986 10.975 191.358 11.7981C192.73 12.6213 193.773 13.7738 194.432 15.3652H194.541C195.2 13.7738 196.243 12.5664 197.614 11.7981C198.986 10.975 200.523 10.5908 202.334 10.5908C203.596 10.5908 204.749 10.8103 205.846 11.1945C206.889 11.5786 207.822 12.1823 208.645 12.9506C209.413 13.7189 210.072 14.7616 210.511 15.914C210.95 17.1213 211.169 18.4933 211.169 20.1396V32.8164H208.206V20.1396C208.206 17.8347 207.657 16.1335 206.505 14.9811C205.352 13.8286 203.925 13.2799 202.169 13.2799C200.413 13.2799 198.932 13.8286 197.779 14.9811C196.627 16.1335 196.023 17.8347 196.023 20.1396V32.8164H193.005Z" fill="black"/>
<path d="M69.0361 44.5615V36.9883H70.0239V43.6285H72.6032V44.5615H69.0361Z" fill="black"/>
<path d="M73.7559 44.5615V36.9883H74.7437V44.5615H73.7559Z" fill="black"/>
<path d="M81.9872 38.5793C81.7128 38.3049 81.4384 38.0854 81.1091 37.9757C80.7799 37.8111 80.3957 37.7562 79.9567 37.7562C79.5726 37.7562 79.1884 37.8111 78.8591 37.9757C78.5299 38.0854 78.2006 38.3049 77.9811 38.5793C77.7067 38.8537 77.4872 39.2379 77.3226 39.5671C77.1579 39.8964 77.103 40.3354 77.103 40.7745C77.103 41.2135 77.1579 41.6525 77.3226 41.9818C77.4872 42.311 77.7067 42.6952 77.9811 42.9696C78.2555 43.244 78.5299 43.4086 78.8591 43.5733C79.1884 43.683 79.5726 43.7927 79.9567 43.7927C80.725 43.7927 81.3835 43.5732 81.8774 43.1342C82.3713 42.6952 82.7006 42.0367 82.8104 41.2684H80.1213V40.3903H83.853V40.6098C83.853 41.0488 83.7981 41.4879 83.7433 41.8171C83.6884 42.1464 83.5238 42.5306 83.3591 42.8049C83.0299 43.4086 82.536 43.9025 81.9872 44.2318C81.4384 44.561 80.7799 44.7257 80.0116 44.7257C79.4628 44.7257 78.9689 44.6159 78.475 44.4513C77.9811 44.2867 77.5969 44.0122 77.2677 43.683C76.8835 43.2988 76.6091 42.8598 76.3896 42.3659C76.1701 41.872 76.1152 41.3232 76.1152 40.7745C76.1152 40.2257 76.225 39.6769 76.3896 39.183C76.5543 38.6891 76.8835 38.2501 77.2677 37.8659C77.5969 37.5367 78.036 37.2623 78.475 37.0976C78.914 36.933 79.4628 36.8232 80.0116 36.8232C80.5603 36.8232 81.0543 36.933 81.4933 37.0976C81.9323 37.2623 82.3713 37.5367 82.7006 37.8659L81.9872 38.5793Z" fill="black"/>
<path d="M85.1699 44.5615V36.9883H86.1577V40.2261H90.1089V36.9883H91.0967V44.5615H90.1089V41.1042H86.1577V44.5615H85.1699Z" fill="black"/>
<path d="M93.951 44.5613V37.921H92.0303V37.043H96.8595V37.921H94.9388V44.5613H93.951Z" fill="black"/>
<path d="M97.8467 44.5615V36.9883H98.8345V44.5615H97.8467Z" fill="black"/>
<path d="M100.591 44.5607V36.9875H101.524L105.201 42.2009C105.31 42.3656 105.42 42.4753 105.475 42.6399C105.53 42.8046 105.64 42.9692 105.749 43.1887C105.694 42.9692 105.64 42.7497 105.585 42.5302C105.53 42.3107 105.53 42.146 105.53 41.9814V36.9326H106.463V44.5058H105.64L101.798 39.0729C101.634 38.8534 101.579 38.6887 101.469 38.579C101.359 38.4692 101.359 38.3046 101.304 38.1948C101.359 38.4692 101.414 38.6887 101.414 38.9082C101.414 39.1277 101.469 39.3473 101.469 39.5119V44.5058H100.591V44.5607Z" fill="black"/>
<path d="M113.652 38.5793C113.378 38.3049 113.103 38.0854 112.774 37.9757C112.445 37.8111 112.061 37.7562 111.622 37.7562C111.238 37.7562 110.853 37.8111 110.524 37.9757C110.195 38.0854 109.866 38.3049 109.646 38.5793C109.372 38.8537 109.152 39.2379 108.988 39.5671C108.823 39.8964 108.768 40.3354 108.768 40.7745C108.768 41.2135 108.823 41.6525 108.988 41.9818C109.152 42.311 109.372 42.6952 109.646 42.9696C109.92 43.244 110.195 43.4086 110.524 43.5733C110.853 43.683 111.238 43.7927 111.622 43.7927C112.39 43.7927 113.049 43.5732 113.542 43.1342C114.036 42.6952 114.366 42.0367 114.475 41.2684H111.786V40.3903H115.518V40.6098C115.518 41.0488 115.463 41.4879 115.408 41.8171C115.353 42.1464 115.189 42.5306 115.024 42.8049C114.695 43.4086 114.201 43.9025 113.652 44.2318C113.103 44.561 112.445 44.7257 111.677 44.7257C111.128 44.7257 110.634 44.6159 110.14 44.4513C109.646 44.2867 109.262 44.0122 108.933 43.683C108.549 43.2988 108.274 42.8598 108.055 42.3659C107.835 41.872 107.78 41.3232 107.78 40.7745C107.78 40.2257 107.89 39.6769 108.055 39.183C108.219 38.6891 108.549 38.2501 108.933 37.8659C109.262 37.5367 109.701 37.2623 110.14 37.0976C110.579 36.933 111.128 36.8232 111.677 36.8232C112.225 36.8232 112.719 36.933 113.158 37.0976C113.597 37.2623 114.036 37.5367 114.366 37.8659L113.652 38.5793Z" fill="black"/>
<path d="M123.421 43.4084C122.982 43.8474 122.543 44.1767 122.213 44.3414C121.884 44.506 121.445 44.6157 121.061 44.6157C120.457 44.6157 119.963 44.3962 119.579 44.0121C119.195 43.628 118.976 43.134 118.976 42.5304C118.976 42.0365 119.14 41.5974 119.47 41.2133C119.799 40.8292 120.348 40.445 121.116 40.006C120.896 39.7316 120.787 39.5121 120.677 39.2926C120.567 39.0731 120.512 38.8536 120.512 38.634C120.512 38.195 120.677 37.8658 120.951 37.5914C121.226 37.317 121.555 37.1523 121.994 37.1523C122.433 37.1523 122.762 37.2621 123.037 37.5365C123.311 37.8109 123.476 38.1401 123.476 38.5792C123.476 38.9084 123.366 39.1828 123.201 39.4572C123.037 39.7316 122.762 40.006 122.378 40.2255L123.585 42.0365L124.683 40.9938L125.287 41.6524L124.024 42.8048L125.341 44.6157H124.189L123.421 43.4084ZM122.927 42.695L121.555 40.7743C120.951 41.1584 120.512 41.4328 120.293 41.7072C120.073 41.9816 119.909 42.3109 119.909 42.6401C119.909 42.9145 120.018 43.1889 120.238 43.4084C120.457 43.6279 120.732 43.7377 121.006 43.7377C121.28 43.7377 121.555 43.628 121.829 43.4633C122.159 43.3536 122.543 43.0792 122.927 42.695ZM121.829 39.6219C122.104 39.5121 122.268 39.3475 122.378 39.1828C122.488 39.0182 122.543 38.7987 122.543 38.634C122.543 38.4694 122.488 38.3048 122.378 38.195C122.268 38.0853 122.104 38.0304 121.939 38.0304C121.774 38.0304 121.61 38.0853 121.5 38.195C121.39 38.3048 121.335 38.4694 121.335 38.6889C121.335 38.7987 121.39 38.9633 121.445 39.1279C121.555 39.2377 121.665 39.4572 121.829 39.6219Z" fill="black"/>
<path d="M134.561 38.5793C134.286 38.3049 133.957 38.1403 133.628 37.9757C133.298 37.8659 132.914 37.7562 132.53 37.7562C132.146 37.7562 131.762 37.8111 131.433 37.9757C131.103 38.0854 130.774 38.3049 130.5 38.5793C130.225 38.8537 130.006 39.183 129.841 39.5671C129.676 39.9513 129.622 40.3354 129.622 40.8293C129.622 41.2684 129.676 41.7074 129.841 42.0366C130.006 42.3659 130.225 42.7501 130.5 43.0245C130.774 43.2989 131.048 43.4635 131.378 43.6281C131.707 43.7928 132.091 43.8476 132.53 43.8476C132.969 43.8476 133.353 43.7928 133.683 43.6281C134.012 43.4635 134.341 43.2988 134.561 42.9696L135.219 43.683C134.835 44.0122 134.451 44.2867 134.012 44.4513C133.573 44.6159 133.079 44.7257 132.53 44.7257C131.981 44.7257 131.487 44.6159 130.994 44.4513C130.5 44.2867 130.115 44.0122 129.786 43.683C129.402 43.2988 129.128 42.8598 128.908 42.3659C128.689 41.872 128.634 41.3232 128.634 40.7745C128.634 40.2257 128.744 39.6769 128.908 39.183C129.073 38.6891 129.402 38.2501 129.786 37.8659C130.115 37.5367 130.555 37.2623 130.994 37.0976C131.433 36.933 131.981 36.8232 132.53 36.8232C133.079 36.8232 133.573 36.8781 134.012 37.0428C134.451 37.2074 134.835 37.4269 135.219 37.7562L134.561 38.5793Z" fill="black"/>
<path d="M139.993 44.7257C139.444 44.7257 138.95 44.6159 138.456 44.4513C137.963 44.2867 137.578 44.0122 137.249 43.683C136.865 43.2988 136.591 42.8598 136.371 42.3659C136.152 41.872 136.097 41.3781 136.097 40.7745C136.097 40.1708 136.206 39.6769 136.371 39.183C136.591 38.6891 136.865 38.2501 137.249 37.8659C137.578 37.5367 138.017 37.2623 138.456 37.0976C138.895 36.933 139.389 36.8232 139.993 36.8232C140.597 36.8232 141.036 36.933 141.53 37.0976C142.024 37.2623 142.408 37.5367 142.737 37.8659C143.121 38.2501 143.395 38.6891 143.615 39.183C143.834 39.6769 143.889 40.2257 143.889 40.7745C143.889 41.3232 143.78 41.872 143.615 42.3659C143.395 42.8598 143.121 43.2988 142.737 43.683C142.353 44.0122 141.969 44.2867 141.53 44.4513C141.091 44.6159 140.542 44.7257 139.993 44.7257ZM139.993 43.8476C140.432 43.8476 140.761 43.7928 141.145 43.6281C141.475 43.5184 141.804 43.2989 142.024 43.0245C142.298 42.7501 142.517 42.4208 142.682 42.0366C142.847 41.6525 142.902 41.2684 142.902 40.8293C142.902 40.3903 142.847 40.0062 142.682 39.622C142.517 39.2379 142.298 38.9086 142.024 38.6342C141.749 38.3598 141.475 38.1403 141.091 38.0305C140.761 37.9208 140.377 37.811 139.993 37.811C139.609 37.811 139.225 37.8659 138.895 38.0305C138.566 38.1952 138.237 38.3598 138.017 38.6342C137.743 38.9086 137.524 39.2379 137.359 39.622C137.194 40.0062 137.139 40.3903 137.139 40.8842C137.139 41.3232 137.194 41.7623 137.359 42.0915C137.524 42.4208 137.743 42.8049 138.017 43.0793C138.292 43.3537 138.566 43.5183 138.895 43.683C139.17 43.7927 139.554 43.8476 139.993 43.8476Z" fill="black"/>
<path d="M145.316 44.5607V36.9875H146.249L149.926 42.2009C150.036 42.3656 150.146 42.4753 150.201 42.6399C150.255 42.8046 150.365 42.9692 150.475 43.1887C150.42 42.9692 150.365 42.7497 150.31 42.5302C150.255 42.3107 150.255 42.146 150.255 41.9814V36.9326H151.188V44.5058H150.365L146.524 39.0729C146.359 38.8534 146.304 38.6887 146.194 38.579C146.085 38.4692 146.085 38.3046 146.03 38.1948C146.085 38.4692 146.14 38.6887 146.14 38.9082C146.14 39.1277 146.194 39.3473 146.194 39.5119V44.5058H145.316V44.5607Z" fill="black"/>
<path d="M154.097 44.5613V37.921H152.177V37.043H157.006V37.921H155.085V44.5613H154.097Z" fill="black"/>
<path d="M157.938 44.5615V36.9883H159.64C160.573 36.9883 161.231 37.2078 161.725 37.5919C162.219 37.9761 162.493 38.5798 162.493 39.2932C162.493 39.9517 162.274 40.5553 161.835 40.9395C161.396 41.3785 160.847 41.598 160.188 41.598H160.134L162.768 44.5066H161.56L158.871 41.4334V44.5066H157.938V44.5615ZM158.926 40.8846H159.64C160.243 40.8846 160.737 40.7749 161.012 40.5005C161.286 40.2261 161.506 39.8419 161.506 39.348C161.506 38.8541 161.341 38.5249 161.012 38.3054C160.682 38.0858 160.188 37.9212 159.585 37.9212H158.926V40.8846V40.8846Z" fill="black"/>
<path d="M167.487 44.7257C166.938 44.7257 166.445 44.6159 165.951 44.4513C165.457 44.2867 165.073 44.0122 164.743 43.683C164.359 43.2988 164.085 42.8598 163.865 42.3659C163.646 41.872 163.591 41.3781 163.591 40.7745C163.591 40.1708 163.701 39.6769 163.865 39.183C164.085 38.6891 164.359 38.2501 164.743 37.8659C165.073 37.5367 165.512 37.2623 165.951 37.0976C166.39 36.933 166.884 36.8232 167.487 36.8232C168.091 36.8232 168.53 36.933 169.024 37.0976C169.518 37.2623 169.902 37.5367 170.231 37.8659C170.615 38.2501 170.89 38.6891 171.109 39.183C171.329 39.6769 171.384 40.2257 171.384 40.7745C171.384 41.3232 171.274 41.872 171.109 42.3659C170.89 42.8598 170.615 43.2988 170.231 43.683C169.847 44.0122 169.463 44.2867 169.024 44.4513C168.585 44.6159 168.091 44.7257 167.487 44.7257ZM167.487 43.8476C167.926 43.8476 168.255 43.7928 168.64 43.6281C168.969 43.5184 169.298 43.2989 169.518 43.0245C169.792 42.7501 170.012 42.4208 170.176 42.0366C170.341 41.6525 170.396 41.2684 170.396 40.8293C170.396 40.3903 170.341 40.0062 170.176 39.622C170.012 39.2379 169.792 38.9086 169.518 38.6342C169.243 38.3598 168.969 38.1403 168.585 38.0305C168.255 37.9208 167.871 37.811 167.487 37.811C167.103 37.811 166.719 37.8659 166.39 38.0305C166.06 38.1952 165.731 38.3598 165.512 38.6342C165.237 38.9086 165.018 39.2379 164.853 39.622C164.688 40.0062 164.634 40.3903 164.634 40.8842C164.634 41.3232 164.688 41.7623 164.853 42.0915C165.018 42.4208 165.237 42.8049 165.512 43.0793C165.786 43.3537 166.06 43.5183 166.39 43.683C166.719 43.7927 167.103 43.8476 167.487 43.8476Z" fill="black"/>
<path d="M172.865 44.5615V36.9883H173.853V43.6285H176.432V44.5615H172.865Z" fill="black"/>
<path d="M178.188 42.4206C178.188 42.8596 178.353 43.2438 178.627 43.4633C178.902 43.7377 179.286 43.8474 179.725 43.8474C180.164 43.8474 180.493 43.7377 180.768 43.5182C181.042 43.2986 181.152 43.0243 181.152 42.695C181.152 42.3657 181.042 42.0913 180.823 41.8718C180.603 41.6523 180.219 41.4328 179.56 41.2133C179.505 41.2133 179.451 41.1584 179.341 41.1584C178.682 40.9389 178.243 40.7194 177.914 40.445C177.694 40.2804 177.53 40.0608 177.42 39.7865C177.31 39.5121 177.255 39.2377 177.255 38.9084C177.255 38.3047 177.475 37.8109 177.859 37.4267C178.243 37.0426 178.847 36.8779 179.505 36.8779C180.219 36.8779 180.823 37.0974 181.262 37.4816C181.701 37.8657 181.92 38.4145 181.975 39.1279H180.987C180.932 38.634 180.768 38.3047 180.548 38.0304C180.329 37.8108 179.944 37.6462 179.56 37.6462C179.176 37.6462 178.847 37.756 178.573 37.9755C178.298 38.195 178.188 38.4694 178.188 38.8535C178.188 39.0182 178.243 39.1828 178.298 39.3474C178.353 39.5121 178.463 39.6218 178.573 39.7316C178.737 39.8962 179.066 40.006 179.56 40.1706C179.67 40.2255 179.78 40.2255 179.835 40.2804C180.658 40.5548 181.262 40.884 181.591 41.2133C181.92 41.5425 182.085 41.9816 182.085 42.5852C182.085 43.1889 181.865 43.6828 181.371 44.1218C180.877 44.5609 180.329 44.7255 179.615 44.7255C178.902 44.7255 178.298 44.506 177.859 44.1218C177.42 43.7377 177.146 43.1889 177.091 42.4755L178.188 42.4206Z" fill="black"/>
<path d="M215.506 4.8291C215.999 4.8291 216.438 4.93886 216.877 5.10349C217.317 5.26813 217.701 5.54252 218.03 5.92666C218.359 6.25593 218.634 6.64008 218.798 7.0791C218.963 7.51813 219.073 7.95715 219.073 8.45106C219.073 8.94496 218.963 9.38398 218.798 9.82301C218.634 10.262 218.359 10.6462 218.03 10.9754C217.701 11.3047 217.317 11.5791 216.877 11.7437C216.438 11.9084 215.999 12.0181 215.506 12.0181C215.012 12.0181 214.573 11.9084 214.134 11.7437C213.695 11.5791 213.31 11.3047 212.981 10.9206C212.652 10.5913 212.378 10.2071 212.213 9.76813C212.048 9.3291 211.938 8.89008 211.938 8.39617C211.938 7.90227 212.048 7.46325 212.213 7.02422C212.378 6.5852 212.652 6.20106 213.036 5.81692C213.365 5.48765 213.749 5.21326 214.188 5.04863C214.573 4.88399 215.012 4.8291 215.506 4.8291ZM215.506 5.37788C215.067 5.37788 214.682 5.43277 214.353 5.59741C214.024 5.76204 213.695 5.98154 213.365 6.25593C213.091 6.53032 212.817 6.91448 212.707 7.24375C212.542 7.6279 212.487 8.01203 212.487 8.39617C212.487 8.78032 212.542 9.16447 212.707 9.54862C212.871 9.93276 213.091 10.262 213.365 10.5364C213.64 10.8108 213.969 11.0303 214.353 11.195C214.737 11.3596 215.121 11.4145 215.506 11.4145C215.945 11.4145 216.329 11.3596 216.713 11.195C217.097 11.0303 217.426 10.8108 217.701 10.5364C217.975 10.262 218.195 9.93277 218.359 9.6035C218.524 9.21935 218.579 8.8352 218.579 8.45106C218.579 8.01203 218.524 7.6279 218.359 7.24375C218.195 6.8596 217.975 6.53032 217.701 6.25593C217.426 5.98154 217.042 5.76204 216.713 5.59741C216.384 5.43277 215.89 5.37788 215.506 5.37788ZM214.024 6.31082H215.56C216.109 6.31082 216.548 6.42057 216.823 6.58521C217.097 6.74984 217.262 7.02423 217.262 7.40838C217.262 7.68277 217.207 7.95715 217.042 8.12178C216.877 8.28642 216.658 8.45106 216.384 8.50594L217.262 10.3169H216.329L215.56 8.67056H214.957V10.3169H214.024V6.31082ZM214.902 6.8596V8.12178H215.451C215.78 8.12178 215.999 8.06691 216.164 7.95716C216.329 7.8474 216.384 7.68277 216.384 7.51814C216.384 7.29863 216.329 7.13398 216.164 7.02422C215.999 6.91447 215.78 6.8596 215.451 6.8596H214.902Z" fill="black"/>
</g>
<defs>
<clipPath id="clip0">
<rect width="219.512" height="45" fill="white"/>
</clipPath>
</defs>
</svg>
