<svg width="222" height="45" viewBox="0 0 222 45" fill="none" xmlns="http://www.w3.org/2000/svg">
<path fill-rule="evenodd" clip-rule="evenodd" d="M163.884 18.3049C161 18.3049 158.569 20.9136 158.569 24.1616C158.569 27.3489 160.997 29.9599 163.885 29.9599C166.801 29.9599 169.111 27.3489 169.111 24.1616C169.111 20.9136 166.801 18.3049 163.886 18.3049H163.884ZM163.884 32.3283C161.575 32.3283 159.571 31.0216 158.478 29.4116V31.9316H155.986V9.34961H158.569V18.6689C159.692 17.1523 161.637 15.9074 163.885 15.9074C168.382 15.9074 171.693 19.6104 171.693 24.1324C171.693 28.6568 168.382 32.3294 163.886 32.3294L163.884 32.3283ZM181.066 18.3633C178.121 18.3633 175.812 20.9743 175.812 24.1616C175.812 27.2883 178.121 29.8666 181.066 29.8666C183.954 29.8666 186.383 27.2883 186.383 24.1616C186.383 20.9743 183.955 18.3633 181.067 18.3633H181.066ZM188.966 31.9316H186.474V29.4116C185.379 31.0216 183.374 32.3283 181.065 32.3283C176.57 32.3283 173.229 28.6533 173.229 24.1313C173.229 19.6081 176.57 15.9063 181.065 15.9063C183.374 15.9063 185.379 17.2106 186.473 18.7879V16.3006H188.963V31.9339L188.966 31.9316Z" fill="#97A1A6"/>
<mask id="mask0" mask-type="alpha" maskUnits="userSpaceOnUse" x="0" y="9" width="222" height="30">
<path d="M0 38.7558H221.92V9.34766H0V38.7558Z" fill="white"/>
</mask>
<g mask="url(#mask0)">
<path fill-rule="evenodd" clip-rule="evenodd" d="M199.49 18.303C196.606 18.303 194.175 20.9128 194.175 24.1597C194.175 27.3493 196.604 29.958 199.49 29.958C202.407 29.958 204.716 27.3493 204.716 24.1597C204.716 20.9128 202.407 18.303 199.49 18.303ZM199.49 32.3263C197.183 32.3263 195.177 31.022 194.084 29.4132V31.9308H191.593V9.34766H194.175V18.6693C195.299 17.1527 197.244 15.9078 199.49 15.9078C203.987 15.9078 207.299 19.612 207.299 24.1352C207.299 28.6572 203.987 32.331 199.49 32.331V32.3263ZM214.903 34.9373C213.81 37.8517 212.077 39.0347 208.948 38.701V36.3327C210.984 36.4843 211.836 35.8473 212.503 34.0273L213.323 31.841L207.338 16.301H210.133L214.689 28.7458L219.155 16.301H221.92L214.903 34.9373" fill="#97A1A6"/>
<path fill-rule="evenodd" clip-rule="evenodd" d="M13.9761 31.932H9.96679V22.797C9.96679 21.8847 9.66323 19.822 7.05028 19.822C5.25811 19.822 4.01468 21.0353 4.01468 22.797V31.932H-0.0273438V9.34766H4.01234V17.1177C5.01643 16.3593 6.23067 15.9043 7.59669 15.9043C11.4262 15.9043 13.9761 18.667 13.9761 22.7958V31.9308" fill="#27D2D9"/>
</g>
<path fill-rule="evenodd" clip-rule="evenodd" d="M23.8256 19.6696C21.6073 19.6696 19.8162 21.6121 19.8162 24.1612C19.8162 26.6509 21.6073 28.5631 23.8256 28.5631C26.0439 28.5631 27.8349 26.5914 27.8349 24.1612C27.8349 21.6727 26.0427 19.6696 23.8256 19.6696ZM31.8466 31.9312H28.017V30.2629C26.8028 31.5381 25.1332 32.2661 23.2185 32.2661C19.1472 32.2661 15.7754 28.7451 15.7754 24.1309C15.7754 19.4876 19.1472 15.9642 23.2185 15.9642C25.1332 15.9642 26.8028 16.6946 28.017 17.9686V16.3002H31.8466V31.9336V31.9312ZM42.3521 19.6696C40.1338 19.6696 38.3428 21.6412 38.3428 24.0702C38.3428 26.5284 40.1349 28.5327 42.3521 28.5327C44.5704 28.5327 46.3626 26.6194 46.3626 24.0702C46.3626 21.5502 44.5692 19.6684 42.3521 19.6684V19.6696ZM42.9289 32.2661C41.1367 32.2661 39.5278 31.5684 38.3428 30.4146V38.8846H34.3031V16.2979H38.1606V17.9394C39.3749 16.6946 41.0444 15.9351 42.9289 15.9351C47.0304 15.9351 50.3719 19.4549 50.3719 24.0691C50.3719 28.7124 47.0304 32.2649 42.9289 32.2649V32.2661ZM60.47 19.6696C58.2516 19.6696 56.4606 21.6412 56.4606 24.0702C56.4606 26.5284 58.2528 28.5327 60.47 28.5327C62.6883 28.5327 64.4793 26.6194 64.4793 24.0702C64.4793 21.5502 62.6883 19.6684 60.47 19.6684V19.6696ZM61.0479 32.2661C59.2557 32.2661 57.6457 31.5684 56.4618 30.4146V38.8846H52.4221V16.2979H56.2797V17.9394C57.4939 16.6946 59.1635 15.9351 61.0491 15.9351C65.1506 15.9351 68.4921 19.4549 68.4921 24.0691C68.4921 28.7124 65.1506 32.2649 61.0502 32.2649L61.0479 32.2661ZM70.6264 31.9312H74.6357V16.2979H70.6252L70.6264 31.9312ZM88.6824 22.3996C88.1979 20.5796 86.6789 19.4246 84.7641 19.4246C82.9428 19.4246 81.4833 20.5796 80.9066 22.3996H88.6824V22.3996ZM80.8459 25.6779C81.3619 27.5912 82.8809 28.7754 84.7641 28.7754C86.101 28.7754 87.4074 28.1991 88.0753 26.9554H92.3601C91.4471 30.1404 88.6824 32.2964 84.7945 32.2964C80.3905 32.2964 76.7758 28.6541 76.7758 24.1297C76.7758 19.6077 80.3905 15.9047 84.7945 15.9047C89.4121 15.9047 93.2393 19.4864 92.6637 25.6791H80.8447L80.8459 25.6779ZM101.327 32.2964C97.349 32.2964 94.4033 30.2022 93.9165 26.8329H97.9865C98.5317 28.1676 100.143 28.6529 101.326 28.6529C102.937 28.6529 104.151 28.1676 104.151 27.2576C104.151 26.3779 103.606 26.0127 100.87 25.5892C98.0776 25.1634 94.3403 24.4039 94.3403 20.9132C94.3403 18.4551 96.4967 15.9047 101.023 15.9047C104.608 15.9047 107.281 17.8472 107.798 20.7931H103.639C103.393 20.0639 102.513 19.4864 101.023 19.4864C99.1716 19.4864 98.4115 20.1549 98.4115 20.7312C98.4115 21.5514 99.5674 21.8244 101.51 22.1277C105.398 22.7647 108.194 23.6152 108.194 27.0161C108.194 30.1112 105.338 32.2964 101.329 32.2964H101.327ZM118.344 31.9021C113.755 32.3874 111.327 29.6271 111.327 25.3454V19.8504H109.444V16.3002H111.327V12.3242H115.336V16.2979H118.162V19.8516H115.336V25.3757C115.336 27.5621 116.338 28.3811 118.343 28.2609V31.9032" fill="#27D2D9"/>
<mask id="mask1" mask-type="alpha" maskUnits="userSpaceOnUse" x="70" y="5" width="84" height="31">
<path d="M153.855 5H70.626V35.828H153.855V5.00117V5Z" fill="white"/>
</mask>
<g mask="url(#mask1)">
<path fill-rule="evenodd" clip-rule="evenodd" d="M74.6365 11.3516C74.6365 12.4599 73.7375 13.3559 72.6318 13.3559C71.5226 13.3559 70.626 12.4576 70.626 11.3528C70.626 10.2468 71.525 9.34961 72.6318 9.34961C73.7386 9.34961 74.6365 10.2479 74.6365 11.3539" fill="#52BCBF"/>
<path fill-rule="evenodd" clip-rule="evenodd" d="M139.613 35.5966C136.692 36.0586 133.537 35.8241 130.707 34.9316C127.917 34.0519 126.197 32.4501 125.247 31.2601C124.686 30.5601 124.322 29.9184 124.1 29.4704C123.516 29.7574 122.963 29.8437 122.454 29.7271C121.864 29.5941 121.512 29.2254 121.361 29.0667L121.33 29.0352C120.914 28.6584 120.25 26.6692 121.135 25.4536C121.613 24.7979 122.258 24.6112 122.812 24.6252C122.357 19.1186 122.959 16.7596 124.213 14.4321C124.858 13.2304 125.877 12.0287 127.156 10.9554C127.404 10.7501 127.771 10.7804 127.979 11.0277C128.185 11.2751 128.154 11.6426 127.906 11.8491C126.739 12.8291 125.816 13.9117 125.238 14.9827C124.541 16.2801 124.162 17.4409 123.969 18.8642C123.753 20.4742 123.777 22.5159 124.043 25.2984C124.064 25.5084 123.975 25.7161 123.798 25.8351C123.626 25.9564 123.407 25.9751 123.216 25.8817C123.088 25.8234 122.481 25.5924 122.078 26.1407C121.631 26.7556 121.994 27.9351 122.153 28.2081C122.171 28.2244 122.188 28.2431 122.206 28.2606C122.44 28.5056 122.877 28.9629 124.044 28.1509C124.196 28.0494 124.386 28.0226 124.56 28.0786C124.735 28.1369 124.872 28.2734 124.929 28.4484C124.933 28.4554 125.27 29.4284 126.194 30.5717C127.426 32.0966 129.066 33.1909 131.062 33.8209C136.272 35.4636 143.423 34.9526 147.653 30.1086C148.916 28.6642 149.626 26.8244 149.886 24.3219C149.906 24.1446 150.005 23.9836 150.157 23.8902C150.309 23.7946 150.498 23.7736 150.665 23.8342C150.945 23.9346 151.772 24.1282 152.253 23.8342C152.483 23.6942 152.62 23.4399 152.671 23.0572C152.813 22.0119 152.232 21.5254 151.974 21.3632C151.638 21.1532 151.343 21.1567 151.273 21.1952C151.124 21.3679 150.888 21.4367 150.666 21.3702C150.444 21.3026 150.281 21.1089 150.255 20.8779C150.251 20.8336 149.707 16.2579 148.224 13.9187C146.878 11.7954 145.136 10.3067 142.9 9.37223L142.55 9.23223C141.993 9.00123 140.714 8.67689 140.268 8.57189L140.257 8.56839C139.864 8.46689 139.451 8.3864 139.019 8.32806C138.961 8.54506 138.872 8.76673 138.75 8.98723C138.185 10.0197 136.917 11.0872 135.269 11.9179C133.675 12.7229 132.05 13.1312 130.92 13.0111C130.376 12.9527 129.419 12.7077 129.122 11.7044C128.865 10.8527 129.101 10.0174 129.799 9.29523C131.209 7.82756 134.47 6.96423 137.592 7.04589C136.778 6.16156 135.39 5.93756 133.464 6.38673C131.847 6.7624 130.469 7.48923 130.455 7.49739C130.171 7.64906 129.818 7.54056 129.666 7.25589C129.514 6.97239 129.623 6.62006 129.906 6.46839C130.157 6.33539 136.05 3.2449 138.618 6.44856C138.794 6.6679 138.922 6.90356 138.998 7.14856C139.529 7.2139 140.045 7.30956 140.539 7.4379C140.668 7.46823 142.251 7.84623 142.989 8.1519L143.335 8.29189L143.342 8.29539C145.808 9.32556 147.726 10.9624 149.207 13.2969C150.468 15.2849 151.087 18.5527 151.308 20.0099C151.61 19.9959 151.939 20.0601 152.269 20.2059C153.124 20.5862 154.044 21.6012 153.826 23.2159C153.697 24.1434 153.226 24.6089 152.851 24.8341C152.235 25.2074 151.494 25.1934 150.962 25.1071C150.62 27.5046 149.822 29.3969 148.53 30.8762C146.374 33.3437 143.358 34.9642 139.806 35.5662C139.743 35.5779 139.677 35.5872 139.614 35.5977L139.613 35.5966ZM134.857 8.39106C134.805 8.40039 134.756 8.40856 134.705 8.41439C132.878 8.72473 131.356 9.35589 130.633 10.1061C130.233 10.5179 130.102 10.9321 130.233 11.3731C130.266 11.4839 130.355 11.7814 131.036 11.8514C131.941 11.9482 133.36 11.5737 134.74 10.8772C136.161 10.1609 137.276 9.24623 137.724 8.42956C137.764 8.35606 137.794 8.28723 137.823 8.22189C136.857 8.17989 135.844 8.23589 134.858 8.39106" fill="#49525E"/>
</g>
<path fill-rule="evenodd" clip-rule="evenodd" d="M127.83 24.1171C127.71 24.6071 128.486 24.7039 128.603 24.2198C128.813 23.3634 129.257 22.5514 130.251 22.6949C130.641 22.7533 131.045 22.9399 131.361 23.1733C131.769 23.4731 132.241 22.8489 131.836 22.5514C131.343 22.1898 130.722 21.9378 130.115 21.8958C128.775 21.8024 128.109 22.9714 127.83 24.1171V24.1171ZM142.488 21.6064C142.724 21.2798 143.04 20.9834 143.387 20.7711C144.306 20.2134 145.016 20.8119 145.521 21.6111C145.789 22.0404 146.39 21.5388 146.125 21.1164C145.498 20.1224 144.54 19.4668 143.358 19.9113C142.769 20.1353 142.226 20.6404 141.854 21.1514C141.563 21.5633 142.193 22.0194 142.488 21.6064V21.6064ZM133.925 27.5378C133.855 27.5996 133.829 27.6976 133.866 27.7863C133.878 27.8166 135.209 30.8663 138.122 30.6563C138.194 30.6516 138.264 30.6399 138.336 30.6294C140.904 30.2211 141.585 28.0908 141.774 26.8378C141.782 26.7724 141.804 26.6441 141.818 26.5624C141.837 26.4644 141.795 26.3128 141.697 26.2824C141.598 26.2498 141.477 26.3221 141.433 26.4154C141.421 26.4364 140.192 28.3323 138.079 28.6356C136.374 28.8806 135.385 28.3439 134.177 27.5273C134.101 27.4771 134.002 27.4806 133.926 27.5389L133.925 27.5378ZM138.295 24.5289C138.163 24.5499 138.038 24.4659 138.005 24.3388C137.985 24.2921 137.725 23.7589 137.127 23.8534C136.526 23.9468 136.388 24.6351 136.388 24.6409C136.362 24.7809 136.227 24.8719 136.088 24.8474C135.948 24.8206 135.857 24.6864 135.883 24.5464C135.891 24.5033 136.093 23.4964 137.048 23.3448C138 23.1931 138.479 24.0424 138.507 24.2361C138.53 24.3761 138.437 24.5068 138.295 24.5278" fill="#49525E"/>
</svg>
