<svg width="146" height="45" viewBox="0 0 146 45" fill="none" xmlns="http://www.w3.org/2000/svg">
<path d="M12.4225 3.4375L8.26531 34.9689L9.58384 35.1427C12.3998 35.514 14.9835 33.5321 15.3548 30.7161L16.1196 24.9147L24.2123 24.8921L21.9187 42.939C21.4884 42.9658 21.0545 42.9794 20.6173 42.9794C9.23067 42.9794 0 33.7486 0 22.3621C0 13.8875 5.11308 6.60703 12.4225 3.4375Z" fill="#162A49"/>
<path d="M28.644 41.3587L30.5696 26.2076C30.6276 26.07 30.7807 25.7967 31.1782 25.3931C31.7751 24.7869 32.6935 24.8787 32.6935 24.8787L34.9958 24.8624L35.8023 19.5614L31.4127 19.5732L32.6735 9.6524L31.3542 9.48469C28.5365 9.12658 25.962 11.1204 25.604 13.9381L24.8856 19.5906L16.8184 19.6122L19.1674 1.79525C19.6461 1.76198 20.1295 1.74512 20.6167 1.74512C32.0033 1.74512 41.2341 10.9758 41.2341 22.3625C41.2341 30.9017 36.0428 38.2282 28.644 41.3587Z" fill="#F2B01A"/>
<path d="M49.5904 0H55.3045L51.3128 30.1994C50.9822 32.7025 48.6815 34.4641 46.174 34.1341L45 33.9796L49.5904 0Z" fill="#F1B01A"/>
<path d="M69.8859 20.001L69.1677 24.713L67.1176 24.7275C67.1176 24.7275 66.2999 24.6459 65.7684 25.1847C65.2368 25.7235 65.1369 26.1276 65.1369 26.1276L63.9693 24.7275L51.8735 24.7613C49.3442 24.7684 47.2881 22.727 47.2813 20.2021L47.2809 20.0614L69.8859 20.001Z" fill="#F1B01A"/>
<path d="M62.6564 45H56.9388L60.8049 15.0025C61.1237 12.498 63.4161 10.7256 65.9251 11.0439L67.0999 11.193L62.6564 45Z" fill="#F1B01A"/>
<path d="M85.4082 33.888L87.8878 16.2553C88.2092 16.1482 89.1092 15.9339 90.1378 15.9339C91.4235 15.9339 92.8929 15.9339 93.7194 16.7145C95.4643 15.7043 98.2653 15.9339 101.112 16.2553C103.959 16.5768 104.602 18.9186 104.372 20.6635C104.189 22.0594 103.194 29.9084 102.719 33.6584C102.168 33.842 100.791 34.2002 99.6888 34.1635C98.3113 34.1175 97.2092 33.4747 97.5766 30.5359C97.9439 27.5971 98.5868 22.4543 98.7704 20.8471C98.9541 19.24 97.7143 18.9645 96.3827 18.9186C95.0511 18.8726 93.1684 18.9645 92.8929 20.8471C92.6725 22.3533 91.6378 30.1686 91.148 33.888H85.4082Z" fill="#172A49"/>
<path d="M104.602 33.888L107.082 16.2553C107.082 16.1482 107.366 15.9339 108.505 15.9339C109.929 15.9339 112.684 15.9339 112.362 18.9186C112.105 21.3063 111 29.8931 110.48 33.888H104.602Z" fill="#172A49"/>
<path d="M107.495 14.6482L107.816 11.1124H113.464L113.143 14.6482H107.495Z" fill="#172A49"/>
<path d="M114.842 16.2553H116.954C116.954 16.2553 117.184 13.592 118.837 12.2145C120.49 10.8369 123.337 10.791 123.337 10.791L122.418 16.2553H124.485L124.163 19.2859H121.867C121.515 21.3369 120.775 26.0726 120.628 28.6073C120.481 31.142 123.138 30.9492 124.485 30.5359L124.163 33.3829C123.153 33.4747 120.628 33.6584 118.607 33.6584C116.082 33.6584 115.071 31.7298 115.347 28.1482C115.567 25.2829 116.327 21.0461 116.679 19.2859H114.475L114.842 16.2553Z" fill="#172A49"/>
<path d="M132.429 16.2553H127.056C128.112 21.291 130.289 31.7665 130.546 33.3829C130.867 35.4033 129.49 36.4135 128.571 36.4135H125.082C124.883 37.2553 125.082 39.0675 127.469 39.5818C132.153 40.0869 134.403 38.0206 135.643 35.6329C136.635 33.7226 142.791 21.3369 145.745 15.3829L136.286 18.9186L138.49 19.2859L134.403 25.8982L132.429 16.2553Z" fill="#172A49"/>
<path d="M68.2343 19.4497C68.3415 18.4241 68.5557 16.3364 68.5557 16.1894C68.7853 16.067 69.4741 15.7854 70.3925 15.6384C71.5404 15.4548 74.2955 16.1894 73.8823 19.4497C73.469 22.7099 72.5047 27.8527 72.4588 29.3221C72.4129 30.7915 73.1476 30.8833 75.1221 30.9752C77.0965 31.067 77.969 30.5619 78.3823 28.9088C78.7129 27.5864 79.6221 19.8782 80.0353 16.1894H85.821L83.3874 33.8221H78.1986L77.6935 33.0874C77.5404 33.3323 77.0323 33.8221 76.2241 33.8221C75.2139 33.8221 74.2496 34.0976 70.3925 33.8221C66.5353 33.5466 66.6272 30.516 66.8568 29.0925C67.0404 27.9537 67.2554 25.9439 67.3166 25.2092H69.5207L70.3925 19.4497H68.2343Z" fill="#F1B01A"/>
<path d="M67.6275 39.0978C67.3548 39.2948 67.0416 39.3706 66.7032 39.3706C65.8344 39.3706 65.1929 38.7443 65.1929 37.9058C65.1929 37.0623 65.8344 36.441 66.7082 36.441C67.1224 36.441 67.476 36.5622 67.774 36.8552L68.0064 36.6178C67.6932 36.2794 67.2285 36.1076 66.6931 36.1076C65.6122 36.1076 64.8242 36.8703 64.8242 37.9058C64.8242 38.9412 65.6122 39.7039 66.688 39.7039C67.178 39.7039 67.6528 39.5524 67.9862 39.2544V37.9058H67.6275V39.0978Z" fill="#172A49"/>
<path d="M71.3877 38.3452C71.3877 37.5472 70.8472 36.9966 70.0997 36.9966C69.3521 36.9966 68.8016 37.5573 68.8016 38.3452C68.8016 39.1332 69.3673 39.6989 70.1957 39.6989C70.6149 39.6989 70.9836 39.5474 71.221 39.2645L71.019 39.0322C70.8169 39.2645 70.529 39.3807 70.2058 39.3807C69.6249 39.3807 69.2006 39.012 69.1602 38.4563H71.3827C71.3827 38.4159 71.3877 38.3755 71.3877 38.3452ZM70.0997 37.3047C70.6199 37.3047 70.9988 37.6684 71.0442 38.1886H69.1602C69.2057 37.6684 69.5845 37.3047 70.0997 37.3047Z" fill="#172A49"/>
<path d="M72.9309 39.6989C73.6229 39.6989 74.0269 39.4009 74.0269 38.9412C74.0269 37.9209 72.3045 38.4614 72.3045 37.7441C72.3045 37.4916 72.5167 37.3047 72.9965 37.3047C73.2693 37.3047 73.5471 37.3704 73.7794 37.532L73.936 37.2441C73.7138 37.0926 73.34 36.9966 72.9965 36.9966C72.3197 36.9966 71.9459 37.3199 71.9459 37.7543C71.9459 38.8049 73.6683 38.2594 73.6683 38.9513C73.6683 39.214 73.4612 39.3857 72.9561 39.3857C72.5823 39.3857 72.2237 39.2544 72.0116 39.0877L71.85 39.3706C72.0671 39.5575 72.4914 39.6989 72.9309 39.6989Z" fill="#172A49"/>
<path d="M76.0638 39.2544C75.9628 39.3453 75.8163 39.3908 75.6698 39.3908C75.3718 39.3908 75.2102 39.219 75.2102 38.9059V37.3199H76.0183V37.0168H75.2102V36.4359H74.8516V37.0168H74.3768V37.3199H74.8516V38.9261C74.8516 39.416 75.1294 39.6989 75.6294 39.6989C75.8365 39.6989 76.0487 39.6383 76.1901 39.512L76.0638 39.2544Z" fill="#172A49"/>
<path d="M77.1258 36.4359C77.2773 36.4359 77.3884 36.3198 77.3884 36.1733C77.3884 36.0369 77.2723 35.9258 77.1258 35.9258C76.9793 35.9258 76.8631 36.042 76.8631 36.1783C76.8631 36.3198 76.9793 36.4359 77.1258 36.4359ZM76.9439 39.6736H77.3026V37.0168H76.9439V39.6736Z" fill="#172A49"/>
<path d="M79.4874 39.6989C80.2653 39.6989 80.836 39.1332 80.836 38.3452C80.836 37.5573 80.2653 36.9966 79.4874 36.9966C78.7096 36.9966 78.1337 37.5573 78.1337 38.3452C78.1337 39.1332 78.7096 39.6989 79.4874 39.6989ZM79.4874 39.3807C78.9217 39.3807 78.4974 38.9665 78.4974 38.3452C78.4974 37.7239 78.9217 37.3098 79.4874 37.3098C80.0531 37.3098 80.4724 37.7239 80.4724 38.3452C80.4724 38.9665 80.0531 39.3807 79.4874 39.3807Z" fill="#172A49"/>
<path d="M83.0229 36.9966C82.5632 36.9966 82.2046 37.1835 82.0127 37.5068V37.0168H81.6692V39.6736H82.0278V38.2796C82.0278 37.6734 82.3865 37.3199 82.9572 37.3199C83.4623 37.3199 83.7553 37.6078 83.7553 38.1684V39.6736H84.1139V38.1331C84.1139 37.3704 83.6694 36.9966 83.0229 36.9966Z" fill="#172A49"/>
<path d="M87.5168 38.3452C87.5168 37.5472 86.9764 36.9966 86.2288 36.9966C85.4813 36.9966 84.9307 37.5573 84.9307 38.3452C84.9307 39.1332 85.4964 39.6989 86.3248 39.6989C86.744 39.6989 87.1128 39.5474 87.3501 39.2645L87.1481 39.0322C86.9461 39.2645 86.6582 39.3807 86.3349 39.3807C85.754 39.3807 85.3297 39.012 85.2893 38.4563H87.5118C87.5118 38.4159 87.5168 38.3755 87.5168 38.3452ZM86.2288 37.3047C86.7491 37.3047 87.1279 37.6684 87.1734 38.1886H85.2893C85.3348 37.6684 85.7136 37.3047 86.2288 37.3047Z" fill="#172A49"/>
<path d="M91.8366 35.9258V37.5219C91.6144 37.1784 91.2507 36.9966 90.8264 36.9966C90.0688 36.9966 89.5031 37.5421 89.5031 38.3452C89.5031 39.1483 90.0688 39.6989 90.8264 39.6989C91.2659 39.6989 91.6346 39.507 91.8518 39.1483V39.6736H92.1953V35.9258H91.8366ZM90.8567 39.3807C90.291 39.3807 89.8667 38.9665 89.8667 38.3452C89.8667 37.7239 90.291 37.3098 90.8567 37.3098C91.4174 37.3098 91.8417 37.7239 91.8417 38.3452C91.8417 38.9665 91.4174 39.3807 90.8567 39.3807Z" fill="#172A49"/>
<path d="M95.6135 38.3452C95.6135 37.5472 95.073 36.9966 94.3255 36.9966C93.5779 36.9966 93.0273 37.5573 93.0273 38.3452C93.0273 39.1332 93.5931 39.6989 94.4214 39.6989C94.8407 39.6989 95.2094 39.5474 95.4468 39.2645L95.2447 39.0322C95.0427 39.2645 94.7548 39.3807 94.4315 39.3807C93.8507 39.3807 93.4264 39.012 93.386 38.4563H95.6084C95.6084 38.4159 95.6135 38.3755 95.6135 38.3452ZM94.3255 37.3047C94.8457 37.3047 95.2245 37.6684 95.27 38.1886H93.386C93.4314 37.6684 93.8102 37.3047 94.3255 37.3047Z" fill="#172A49"/>
<path d="M96.4444 39.6736H96.8031V35.9258H96.4444V39.6736Z" fill="#172A49"/>
<path d="M100.694 36.9966C100.254 36.9966 99.8856 37.1885 99.6684 37.5421V37.0168H99.3249V40.6535H99.6835V39.1736C99.9058 39.5171 100.269 39.6989 100.694 39.6989C101.451 39.6989 102.017 39.1534 102.017 38.3452C102.017 37.5421 101.451 36.9966 100.694 36.9966ZM100.668 39.3807C100.103 39.3807 99.6785 38.9665 99.6785 38.3452C99.6785 37.729 100.103 37.3098 100.668 37.3098C101.229 37.3098 101.658 37.729 101.658 38.3452C101.658 38.9665 101.229 39.3807 100.668 39.3807Z" fill="#172A49"/>
<path d="M105.168 38.3452C105.168 37.5472 104.627 36.9966 103.88 36.9966C103.132 36.9966 102.581 37.5573 102.581 38.3452C102.581 39.1332 103.147 39.6989 103.976 39.6989C104.395 39.6989 104.764 39.5474 105.001 39.2645L104.799 39.0322C104.597 39.2645 104.309 39.3807 103.986 39.3807C103.405 39.3807 102.98 39.012 102.94 38.4563H105.163C105.163 38.4159 105.168 38.3755 105.168 38.3452ZM103.88 37.3047C104.4 37.3047 104.779 37.6684 104.824 38.1886H102.94C102.986 37.6684 103.364 37.3047 103.88 37.3047Z" fill="#172A49"/>
<path d="M106.342 37.5371V37.0168H105.999V39.6736H106.357V38.32C106.357 37.6936 106.696 37.3401 107.251 37.3401C107.276 37.3401 107.307 37.3451 107.337 37.3451V36.9966C106.847 36.9966 106.509 37.1835 106.342 37.5371Z" fill="#172A49"/>
<path d="M108.819 39.6989C109.511 39.6989 109.915 39.4009 109.915 38.9412C109.915 37.9209 108.193 38.4614 108.193 37.7441C108.193 37.4916 108.405 37.3047 108.885 37.3047C109.158 37.3047 109.436 37.3704 109.668 37.532L109.825 37.2441C109.602 37.0926 109.228 36.9966 108.885 36.9966C108.208 36.9966 107.834 37.3199 107.834 37.7543C107.834 38.8049 109.557 38.2594 109.557 38.9513C109.557 39.214 109.35 39.3857 108.845 39.3857C108.471 39.3857 108.112 39.2544 107.9 39.0877L107.738 39.3706C107.956 39.5575 108.38 39.6989 108.819 39.6989Z" fill="#172A49"/>
<path d="M111.765 39.6989C112.543 39.6989 113.114 39.1332 113.114 38.3452C113.114 37.5573 112.543 36.9966 111.765 36.9966C110.988 36.9966 110.412 37.5573 110.412 38.3452C110.412 39.1332 110.988 39.6989 111.765 39.6989ZM111.765 39.3807C111.2 39.3807 110.775 38.9665 110.775 38.3452C110.775 37.7239 111.2 37.3098 111.765 37.3098C112.331 37.3098 112.75 37.7239 112.75 38.3452C112.75 38.9665 112.331 39.3807 111.765 39.3807Z" fill="#172A49"/>
<path d="M115.301 36.9966C114.841 36.9966 114.483 37.1835 114.291 37.5068V37.0168H113.947V39.6736H114.306V38.2796C114.306 37.6734 114.664 37.3199 115.235 37.3199C115.74 37.3199 116.033 37.6078 116.033 38.1684V39.6736H116.392V38.1331C116.392 37.3704 115.947 36.9966 115.301 36.9966Z" fill="#172A49"/>
<path d="M118.396 36.9966C117.977 36.9966 117.583 37.1279 117.315 37.3552L117.477 37.6229C117.694 37.431 118.017 37.3098 118.361 37.3098C118.856 37.3098 119.113 37.5573 119.113 38.0119V38.1735H118.27C117.507 38.1735 117.244 38.517 117.244 38.9261C117.244 39.3857 117.613 39.6989 118.214 39.6989C118.654 39.6989 118.967 39.5322 119.128 39.2595V39.6736H119.472V38.027C119.472 37.3401 119.083 36.9966 118.396 36.9966ZM118.27 39.416C117.845 39.416 117.598 39.2241 117.598 38.916C117.598 38.6432 117.765 38.4412 118.28 38.4412H119.113V38.8756C118.972 39.2241 118.674 39.416 118.27 39.416Z" fill="#172A49"/>
<path d="M120.547 39.6736H120.905V35.9258H120.547V39.6736Z" fill="#172A49"/>
<path d="M124.323 38.3452C124.323 37.5472 123.782 36.9966 123.035 36.9966C122.287 36.9966 121.737 37.5573 121.737 38.3452C121.737 39.1332 122.302 39.6989 123.131 39.6989C123.55 39.6989 123.919 39.5474 124.156 39.2645L123.954 39.0322C123.752 39.2645 123.464 39.3807 123.141 39.3807C122.56 39.3807 122.136 39.012 122.095 38.4563H124.318C124.318 38.4159 124.323 38.3755 124.323 38.3452ZM123.035 37.3047C123.555 37.3047 123.934 37.6684 123.979 38.1886H122.095C122.141 37.6684 122.52 37.3047 123.035 37.3047Z" fill="#172A49"/>
</svg>
