<svg width="186" height="45" viewBox="0 0 186 45" fill="none" xmlns="http://www.w3.org/2000/svg">
<path d="M21.3887 0H11.6785L0 44.2035H23.6195L25.719 36.7699H11.6785L21.3887 0Z" fill="#00539B"/>
<path d="M32.1487 22.5664H41.2029C41.509 20.9292 42.8037 17.6549 45.5331 17.6549C48.2624 17.6549 48.2449 19.4248 47.895 20.3097C47.7638 20.708 47.1077 23.2301 45.5331 30.1327C43.5648 38.7611 40.5468 39.1593 39.3658 39.1593C38.1848 39.1593 35.9541 38.8938 37.3975 33.9823C38.5522 30.0531 41.9902 29.5133 43.5648 29.7345C43.6523 29.5575 44.0372 28.2212 44.877 24.292C27.9497 24.292 27.8185 35.9734 27.8185 38.2301C27.8185 40.4867 28.2121 45 34.2482 45C39.0771 45 42.2963 42.2566 43.3024 40.885L42.6463 44.469H51.1755C52.3565 39.5575 54.8759 29.0177 55.5057 26.1504C56.2931 22.5664 61.4106 12.6106 46.7141 12.6106C34.9568 12.6106 32.105 19.2478 32.1487 22.5664Z" fill="#00539B"/>
<path d="M71.2521 13.2743H61.9355L54.0623 44.2035H63.1165C64.6911 38.1858 68.0241 25.4867 68.7589 22.8319C69.6774 19.5133 71.2521 18.3186 72.9579 18.3186C74.6638 18.3186 75.976 19.3805 75.1886 22.1681C74.5588 24.3982 70.9896 37.7876 69.2838 44.2035H78.4691L84.374 21.6372C85.555 17.1239 85.4237 13.0088 79.3877 12.6106C74.5588 12.292 71.5145 14.6018 70.596 15.7965L71.2521 13.2743Z" fill="#00539B"/>
<path d="M90.5413 13.2743L91.7223 8.23009L101.826 4.24779L99.4642 13.2743H104.057L102.482 18.9823H98.152C97.0585 22.8319 94.6878 31.3009 93.953 34.3805C93.0345 38.2301 93.2969 38.6283 94.8715 38.6283H97.6271L95.9213 44.469H88.9667C83.9803 44.469 83.8491 39.4248 84.6364 36.2389C85.2663 33.6903 87.7857 23.6726 88.9667 18.9823H86.7359L88.0481 13.2743H90.5413Z" fill="#00539B"/>
<path d="M112.192 30.3982L113.373 25.0885H119.016C119.716 22.8319 120.328 18.3186 117.179 18.3186C113.242 18.3186 112.192 21.2389 111.799 22.5664C111.405 23.8938 106.156 39.1593 111.143 39.1593C114.502 39.1593 116.042 35.4425 116.391 33.5841H125.577C124.79 37.3894 120.512 45 109.699 45C97.4172 45 98.8081 34.4274 102.22 25.0885C104.451 18.9823 107.416 12.6106 119.278 12.6106C130.826 12.6106 129.076 24.469 126.758 30.3982H112.192Z" fill="#00539B"/>
<path d="M156.545 24.4248H147.49C147.884 22.3894 149.459 18.3186 145.391 18.3186C142.11 18.3186 140.536 23.0973 139.486 26.4159C138.436 29.7345 134.893 39.1593 139.486 39.1593C143.16 39.1593 144.954 34.823 145.391 32.6549H154.445C153.002 37.4336 149.852 45 137.255 45C124.658 45 129.12 31.3274 130.432 26.4159C131.744 21.5044 134.237 12.6106 147.49 12.6106C158.093 12.6106 157.944 20.4867 156.545 24.4248Z" fill="#00539B"/>
<path d="M174.915 0H165.861L154.445 44.469H163.237L174.915 0Z" fill="#00539B"/>
<path d="M172.291 18.3186L173.472 14.2035C173.953 13.4513 176.018 12.0796 180.426 12.6106C185.938 13.2743 185.544 18.3186 184.363 22.5664C183.418 25.9646 180.12 38.5841 178.589 44.469H169.535C171.066 38.8053 174.417 26.3363 175.571 21.7699C176.726 17.2035 173.866 17.5664 172.291 18.3186Z" fill="#00539B"/>
</svg>
