<svg width="228" height="45" viewBox="0 0 228 45" fill="none" xmlns="http://www.w3.org/2000/svg">
<path d="M23.0015 45C10.3534 45 0 34.9063 0 22.3979C0 10.0937 10.3534 0 23.0015 0C35.8134 0 46.1577 10.0937 46.1577 22.3979C46.1577 34.9063 35.8043 45 23.0015 45V45ZM23.0015 35.581C30.532 35.581 36.4964 29.7662 36.4964 22.3979C36.4964 15.216 30.532 9.40126 23.0015 9.40126C15.6075 9.40126 9.64313 15.216 9.64313 22.3979C9.64313 29.7662 15.6075 35.581 23.0015 35.581V35.581ZM164.826 45C152.178 45 141.824 34.9063 141.824 22.3979C141.824 10.0937 152.178 0 164.826 0C177.638 0 187.982 10.0937 187.982 22.3979C187.982 34.9063 177.628 45 164.826 45V45ZM164.826 35.581C172.356 35.581 178.321 29.7662 178.321 22.3979C178.321 15.216 172.356 9.40126 164.826 9.40126C157.432 9.40126 151.467 15.216 151.467 22.3979C151.467 29.7662 157.432 35.581 164.826 35.581ZM48.7984 1.36713V43.9702H58.4416V9.24147H69.1592V43.9702H78.8023V9.24147H82.4993C86.3511 9.24147 89.3378 12.1533 89.3378 15.7309V43.9702H98.9992V16.0683C98.9992 7.69678 92.1606 1.01203 83.5556 1.01203H58.6237C55.2909 1.00316 51.94 1.00316 48.7984 1.36713V1.36713ZM190.623 1.36713V43.9702H200.266V9.24147H211.165C214.835 9.24147 218.004 12.1533 218.004 15.7309V43.9702H227.647V16.0683C227.647 7.69678 220.809 1.01203 212.203 1.01203H200.266C197.124 1.00316 193.764 1.00316 190.623 1.36713ZM103.033 1.36713V43.9702H112.676V9.24147H124.086C127.965 9.24147 130.952 12.1533 130.952 15.7309C130.952 19.4861 127.965 22.3979 124.086 22.3979H115.845L130.76 43.9702H142.698L131.817 28.3991C137.071 26.5171 140.586 21.5545 140.586 15.7309C140.586 7.69678 133.929 1.00316 125.479 1.00316H112.667C109.343 1.00316 106.184 1.00316 103.033 1.36713" fill="#166FC0"/>
</svg>
