<svg width="209" height="45" viewBox="0 0 209 45" fill="none" xmlns="http://www.w3.org/2000/svg">
<g clip-path="url(#clip0)">
<path d="M150.864 38.9123C150.103 38.8605 149.647 38.9182 148.947 38.4719C144.596 34.7867 141.342 26.721 137.691 21.9726C138.908 20.3657 140.094 18.7919 141.646 17.4582C143.44 16.0306 144.171 16.0182 146.604 16.1185V15.2585L136.443 15.2557V16.1152C137.599 16.1 138.755 15.9479 138.603 17.4823L138.512 17.9683L138.421 18.2905L138.299 18.6395L138.025 19.2382L137.904 19.5177L137.721 19.7278L137.538 19.9856L132.549 25.7248V5.57355L121.445 5.56738V6.42741L125.644 6.43021L125.613 38.3229L125.583 38.4142V38.6722L125.522 38.8123L125.492 38.8333L125.461 38.8577H125.401L125.34 38.8756H121.689V39.7384L136.992 39.7415V38.8879L132.793 38.8851L132.702 38.8361H132.672L132.611 38.7907L132.549 38.6086V27.6894L132.854 27.3675C133.067 27.2857 133.28 27.161 133.462 27.3493L133.523 27.3919L133.584 27.4406L133.676 27.5773L133.736 27.6474L140.186 37.5629L140.338 37.7968L140.429 37.9789L140.734 38.5347V38.7902L140.673 38.8173L140.642 38.863L140.52 38.8874H138.634V39.741L151.168 39.7471V38.8902L150.864 38.912" fill="#EC1D24"/>
<path d="M23.486 27.8781C22.2389 20.5777 15.3026 20.0401 9.70479 17.2846C5.96304 15.6503 3.77287 11.4152 6.51051 8.11289C12.1386 2.48658 19.6835 9.66542 19.7746 16.0571L21.1128 16.0663V5.04144H19.7746C19.2271 10.8742 13.9943 1.69658 5.71943 6.12306C-2.00768 10.2943 -2.15989 21.0609 6.84549 24.3509C32.7039 30.4209 7.17964 55.0527 1.55187 24.6061H0V41.2542H1.55187C1.49048 38.8422 2.82958 38.4743 4.83726 39.0761C8.12321 40.033 10.7697 41.7318 14.3287 41.0082C20.3831 39.884 24.2163 33.8445 23.486 27.8781V27.8781ZM96.0432 10.0481C97.5337 14.69 104.135 13.0131 103.192 8.2283C101.671 3.5892 95.1608 5.25099 96.0432 10.0481Z" fill="#EC1C24"/>
<path d="M96.0428 10.048C97.5333 14.6899 104.135 13.013 103.192 8.22818C101.671 3.58908 95.1603 5.25086 96.0428 10.048Z" stroke="#EC1C24" stroke-width="0.472794"/>
<path d="M123.544 29.5646C121.81 24.5398 115.756 24.7191 111.741 22.6838C109.307 21.4232 108.82 18.5462 110.646 16.6351C114.935 12.2299 120.441 20.3049 120.563 24.2818H121.871V13.6062H120.563C119.65 19.181 116.213 12.5823 111.345 14.5968C104.47 16.5107 102.797 27.2257 110.342 29.5131C113.627 30.874 118.981 30.8317 119.194 35.5405C119.224 37.1177 118.586 38.4478 117.156 39.2048C112.623 41.6316 106.569 32.9072 106.964 28.9786H105.626V38.8703H103.314L103.222 38.8249H103.192L103.132 38.7761L103.04 38.5876V15.2439L93.3663 15.2383V16.0493C89.1978 5.28246 75.6908 1.98971 65.8035 6.93528C86.0341 3.81845 93.6701 26.8097 78.2156 37.306L77.151 37.9139L76.0557 38.3725L74.9911 38.6974L73.4392 38.8585H70.9752L70.8841 38.8341H70.8538L70.7624 38.7854L70.7321 38.7434L70.6105 38.5515L70.6407 21.3445L70.5188 20.1175C69.0889 13.3031 60.1452 11.4287 56.5856 18.0758V15.2201L45.4817 15.2173V16.0768H49.7101V38.5274L49.6799 38.5882V38.6857L49.619 38.777L49.5887 38.8014L49.5585 38.8254H49.4976L49.4365 38.8495L47.033 38.8467C45.0556 38.5638 44.8737 36.5622 44.8737 35.7997V19.3639C44.8737 17.4503 44.3257 16.4659 42.6524 15.6C40.3406 14.3634 37.6027 13.9323 35.047 13.9323C31.3966 13.9323 25.1294 15.1593 25.1294 19.8561C25.1294 21.8308 26.5594 22.7603 28.2323 22.7603C29.6011 22.7603 31.0922 21.6482 31.0922 20.0385C31.0922 18.8689 30.6055 17.5716 30.24 17.0735C29.3578 15.907 32.5827 15.1655 34.8642 15.1655C35.868 15.1655 38.1196 15.7823 38.1196 17.3892V23.4167C32.7343 23.1038 23.9123 23.1674 23.882 32.0049C23.8517 37.7497 28.2929 39.6911 31.153 39.6911C34.469 39.6911 35.9594 38.0234 38.1199 35.3013C38.4543 38.0234 40.8272 39.6911 43.4438 39.6911H44.3257L59.3238 39.7065V38.8529H56.7687L56.7076 38.8254H56.6467L56.5859 38.8072L56.5556 38.7798L56.5253 38.6915V38.5943L56.5556 38.5487V38.4089C57.3464 33.3294 56.0081 27.6151 56.8598 22.3805C57.1942 20.3755 57.8636 17.7414 59.446 16.3351C60.4801 15.4053 61.7579 15.1532 62.7925 16.195L63.1878 16.7329L63.4919 17.4464L63.6744 18.7252V38.2957C63.5833 38.5058 63.7047 38.545 63.5528 38.7789L63.4917 38.8092V38.8305H63.4308L63.37 38.8518H60.571V39.7085C74.3222 38.7028 83.0837 43.4847 91.4194 31.7307C94.4918 27.1588 95.2523 21.289 93.3665 16.0941H96.1647C95.587 23.5402 96.8039 31.2808 96.1042 38.7056V38.7512L96.0131 38.8212L95.9822 38.8453H95.9214L95.8609 38.8666L92.2102 38.8638V39.7205L105.626 39.7325V41.5125H106.934C107.391 35.9806 112.471 41.0447 115.362 40.7954C117.704 40.829 120.32 39.3311 121.811 37.627C123.879 35.2795 124.487 32.5996 123.544 29.5646V29.5646ZM38.1193 29.8053C38.1193 30.9807 38.0579 32.0926 37.6932 33.0193C36.963 34.994 36.1108 36.6678 34.012 36.6678C31.2133 36.6678 30.0872 34.8295 30.1486 31.023C30.2394 24.4613 34.4073 24.7165 38.1193 24.7165V29.8053Z" fill="#EC1C24"/>
<path fill-rule="evenodd" clip-rule="evenodd" d="M199.012 11.9696L191.917 35.3982H161.723L159.534 40.271L197.622 40.2497L206.049 11.9747L199.012 11.9696ZM161.709 35.3946L152.901 35.3918L163.367 5.60742V5.6105L183.385 5.62255L162.18 22.9088L170.699 5.82313L161.085 15.9062C159.965 19.1006 158.735 22.6119 157.654 25.6969C156.123 30.0668 154.892 33.5813 154.697 34.1281C155.136 34.1281 157.888 34.1293 161.709 34.1309V35.3946ZM185.161 34.0909L191.811 26.4419L175.383 32.4178L195.249 9.21673L168.721 27.1529L183.385 5.62283L199.813 5.62591L199.802 5.66252H199.34C199.34 5.66252 191.103 33.055 190.799 34.0909H185.161Z" fill="#EC1D24"/>
<path d="M207.631 3.35614C208.209 3.94555 208.513 4.65038 208.513 5.47959C208.513 6.31496 208.209 7.02876 207.631 7.60949C207.053 8.2017 206.353 8.49641 205.501 8.49641C204.679 8.49641 203.98 8.2017 203.372 7.60949C202.793 7.02904 202.52 6.31524 202.52 5.47959C202.52 4.65038 202.793 3.94527 203.402 3.35614C203.98 2.76672 204.679 2.47818 205.501 2.47818C206.353 2.4779 207.053 2.76672 207.631 3.35614V3.35614ZM207.996 3.01829C207.296 2.34091 206.475 2.00391 205.502 2.00391C204.559 2.00391 203.737 2.34119 203.037 3.01857C202.368 3.69931 202.033 4.51927 202.033 5.47931C202.033 6.44859 202.368 7.27164 203.037 7.95238C203.737 8.62975 204.559 8.97628 205.502 8.97628C206.475 8.97628 207.296 8.63003 207.996 7.95238C208.666 7.26604 209 6.44243 209 5.47931C209 4.51619 208.665 3.69623 207.996 3.01857V3.01829ZM206.019 5.31823C205.897 5.37314 205.684 5.40367 205.38 5.40367H204.771V4.0153H205.349C205.714 4.0153 205.988 4.06097 206.171 4.16098C206.323 4.25538 206.414 4.44083 206.414 4.72321C206.414 5.01456 206.292 5.21234 206.019 5.31851V5.31823ZM204.102 7.38425H204.771V5.87122H205.319C205.684 5.87122 205.927 5.91044 206.049 5.99589C206.292 6.13876 206.414 6.4301 206.414 6.87384V7.17779L206.444 7.29937V7.38425H207.083L207.053 7.33887C207.053 7.29937 207.053 7.23886 207.022 7.13521V6.57017C207.022 6.37267 206.962 6.18078 206.809 5.9746C206.687 5.77402 206.444 5.64655 206.14 5.59781C206.383 5.56419 206.566 5.50368 206.718 5.41572C206.961 5.25464 207.083 5.00559 207.083 4.65934C207.083 4.17919 206.87 3.85731 206.505 3.69286C206.262 3.60182 205.927 3.55644 205.44 3.55644H204.102V7.38397" fill="#EC1D24"/>
</g>
<defs>
<clipPath id="clip0">
<rect y="2" width="209" height="39.5168" fill="white"/>
</clipPath>
</defs>
</svg>
