<svg width="63" height="45" viewBox="0 0 63 45" fill="none" xmlns="http://www.w3.org/2000/svg">
<g clip-path="url(#clip0)">
<path d="M20.3854 44.4036C20.3854 44.4036 18.1083 44.4036 16.8613 44.4036C18.8674 39.0903 20.8192 33.8313 22.771 28.5723C24.2348 28.5723 25.5902 28.5723 27.1083 28.5723C29.1143 33.7771 31.0661 39.0903 33.1264 44.4036C31.8794 44.4036 30.6866 44.4036 29.4396 44.4036C28.8975 42.9397 28.3553 41.4759 27.7589 40.012C25.8613 40.012 24.018 40.012 22.0662 40.012C21.4155 41.4216 20.3854 44.4036 20.3854 44.4036ZM22.6083 37.6265C24.1264 37.6265 25.5902 37.6265 27.1083 37.6265C26.3493 35.4036 25.536 33.2349 24.8312 31.1204C24.1264 33.2891 23.3674 35.4036 22.6083 37.6265Z" fill="#073565"/>
<path d="M1.19314 28.5723C5.47627 28.5723 9.75939 28.5723 14.0967 28.5723C14.0967 29.1687 14.0967 29.7108 14.0967 30.3614C11.0606 34.1566 7.97024 38.006 4.87988 41.9638C6.18108 41.9638 7.21119 41.9638 8.29553 42.018C9.37987 42.018 10.5184 42.018 11.6028 42.018C12.6871 42.018 13.8257 42.018 15.0184 42.018C14.8016 42.8855 14.5847 43.5903 14.3678 44.3494C14.2594 44.3494 0.379883 44.4578 0.379883 44.4578C0.379883 44.4578 0.379883 43.4277 0.379883 42.8313C3.47024 38.9819 6.5606 35.0783 9.75939 31.1204C6.83168 31.1204 4.06662 31.1204 1.24734 31.1204C1.19312 30.1988 1.19314 29.3855 1.19314 28.5723Z" fill="#083666"/>
<path d="M39.4157 38.6022V44.4576C39.4157 44.4576 38.2771 44.4576 37.735 44.4576C37.1928 44.4576 36.1085 44.4576 36.1085 44.4576C36.1085 43.6444 36 31.4998 36.0542 28.7889C37.1386 28.5721 38.7109 28.4636 39.3073 28.4636C39.9036 28.4636 42.506 28.3552 44.0783 28.6805C45.1085 28.8974 46.0844 29.2227 46.8976 29.9275C49.1747 31.8251 48.7952 35.5118 46.6265 37.0299C45.4338 37.8974 44.0783 38.3311 42.6687 38.4395C41.6386 38.548 39.4157 38.6022 39.4157 38.6022ZM39.4157 36.054C40.7711 36.3793 42.235 36.3251 43.2651 35.8914C44.5663 35.295 45.1627 34.2648 45.0542 33.0721C44.9458 31.9877 44.0783 31.066 42.8314 30.8492C41.6928 30.6865 40.6085 30.7407 39.4699 30.8492C39.4157 32.6383 39.4157 34.2648 39.4157 36.054Z" fill="#043363"/>
<path d="M61.4822 28.518C61.2111 29.2771 60.7232 30.7951 60.7232 30.7951C60.7232 30.7951 59.7473 30.7951 59.2593 30.7951C58.3376 30.7951 57.4159 30.7951 56.5485 30.7951C55.9521 30.7951 55.4099 30.9036 54.8678 31.2289C53.7292 31.9337 53.675 33.2891 54.8135 33.9939C55.6268 34.4819 56.5485 34.8072 57.4702 35.1867C58.4461 35.5662 59.4762 35.9457 60.3436 36.5421C62.9461 38.2228 62.6208 41.8554 60.3979 43.3734C59.0425 44.2951 57.5786 44.6204 56.0063 44.7289C54.434 44.7831 52.9702 44.6746 51.5063 44.4578C51.1268 44.4036 51.0725 44.4036 50.2051 44.3493C50.4762 43.4819 50.6931 42.7228 50.9099 41.9096C51.6147 41.9638 52.2111 42.0722 52.8617 42.1265C53.9461 42.1807 54.9762 42.2891 56.0605 42.2349C56.6027 42.2349 57.1991 42.018 57.687 41.7469C58.8798 41.0963 59.0425 39.5783 57.9581 38.765C57.3075 38.2771 56.4942 38.006 55.7352 37.6807C54.8135 37.3012 53.8376 36.9758 52.9702 36.5421C52.3196 36.2168 51.7232 35.7289 51.2352 35.1325C50.1509 33.777 50.2593 31.8253 51.3437 30.4698C52.2653 29.3855 53.4581 28.8433 54.8678 28.5722C56.4943 28.2469 58.175 28.4096 59.8015 28.4638C60.3979 28.4096 60.8858 28.4638 61.4822 28.518Z" fill="#063464"/>
<path d="M42.9941 0.108398C46.0303 5.47587 49.0664 10.7349 52.1026 15.9939C51.9941 19.8433 50.2592 22.7168 46.7351 24.2891C43.6447 25.6987 40.6086 25.3192 37.6809 23.3674C38.0604 22.9337 38.3857 22.6084 38.711 22.2289C41.4761 23.9096 44.2953 24.0722 47.0604 22.3915C49.2833 21.0361 50.3676 18.9759 50.5845 16.3735C48.0905 11.9819 45.5965 7.64454 43.0483 3.25297C40.5544 7.64454 38.1146 11.9277 35.6748 16.2108C35.5122 17.6204 36.0544 18.8132 36.5965 20.0602C36.2712 20.3855 36.0002 20.765 35.6206 21.1445C34.4279 19.6807 34.1568 18 33.9941 16.0482C36.9219 10.8433 39.9038 5.53009 42.9941 0.108398Z" fill="#09A6BF"/>
<path d="M25.8078 14.2595C26.1331 13.7715 26.3499 13.3378 26.7295 12.7414C27.4343 13.9342 28.0307 15.0727 28.5728 15.9944C28.4644 19.1932 27.2174 21.6872 24.7234 23.4221C22.9885 24.6691 21.0367 25.2655 18.9764 25.0486C13.5548 24.6149 10.356 20.3318 10.5186 15.886C13.4463 10.7354 16.4283 5.53056 19.4644 0.163086C20.5487 1.78959 21.362 3.36189 22.2295 4.93418C23.0969 6.45225 24.0186 8.02453 24.9403 9.65104C24.6692 10.0848 24.3981 10.5727 24.0186 11.2233C22.5005 8.56671 20.9825 5.9643 19.4644 3.30767C19.1391 3.84984 18.8138 4.39201 18.4885 4.93418C16.4283 8.56671 14.3138 12.2534 12.2536 15.886C12.0909 16.2113 11.9283 16.4824 11.9825 16.8619C12.2536 18.5426 12.8499 20.1149 14.0969 21.3619C15.2897 22.5547 16.7536 23.2595 18.4343 23.4763C21.5789 23.8559 24.0186 22.6631 25.8078 20.0607C26.5668 18.9221 26.9463 17.6751 26.8379 16.2655C26.5668 15.6149 26.2415 14.9643 25.8078 14.2595Z" fill="#0894DC"/>
<path d="M23.7476 21.3619C22.5006 19.7896 22.1211 18.0547 22.0127 16.2655C23.585 13.5547 25.1031 10.8438 26.6753 8.18719C28.1934 5.53057 29.7115 2.87393 31.338 0.163086C33.1814 3.36188 34.9163 6.50646 36.7055 9.70526C36.4344 10.1932 36.2175 10.6812 35.8922 11.2775C34.9705 9.97634 34.3199 8.62092 33.5609 7.31972C32.8018 6.01851 32.0428 4.6631 31.2838 3.30767C28.6814 7.86189 26.079 12.3077 23.585 16.6992C23.7476 18.0004 24.1271 19.1932 24.832 20.2775C24.4524 20.6571 24.1271 20.9824 23.7476 21.3619Z" fill="#65AB49"/>
<path d="M25.916 23.5298C26.2955 23.1503 26.6751 22.825 27.0546 22.4455C29.4943 23.8551 32.0425 24.0178 34.5365 22.6624C37.0847 21.3069 38.3859 19.1383 38.5486 16.1563C38.2775 15.6684 37.9522 15.0178 37.5726 14.3672C37.7895 13.9334 38.0606 13.4997 38.3859 12.9033C38.6028 13.1744 38.8196 13.3913 38.9823 13.6081C39.3076 14.2045 39.6871 14.8009 39.9582 15.3973C40.0666 15.6684 40.1751 15.9937 40.1208 16.319C39.8498 20.4395 37.5184 23.5841 33.5064 24.7768C30.7955 25.5359 28.3016 25.0479 25.916 23.5298Z" fill="#65AB49"/>
<path d="M22.6084 37.6261C23.3674 35.4033 24.0722 33.2346 24.8313 31.1201C25.5903 33.2346 26.3494 35.4033 27.1084 37.6261C25.5903 37.6261 24.1807 37.6261 22.6084 37.6261Z" fill="#F8F9FA"/>
<path d="M39.416 36.0538C39.416 36.0538 39.416 32.6382 39.416 30.9032C40.5546 30.7406 41.6931 30.7406 42.7775 30.9032C44.0244 31.1201 44.8919 31.9876 45.0003 33.1261C45.1088 34.3189 44.5666 35.349 43.2112 35.9454C42.1269 36.1623 39.416 36.0538 39.416 36.0538Z" fill="#F9FAFB"/>
</g>
<defs>
<clipPath id="clip0">
<rect width="62.3494" height="45" fill="white"/>
</clipPath>
</defs>
</svg>
