<svg width="255" height="45" viewBox="0 0 255 45" fill="none" xmlns="http://www.w3.org/2000/svg">
<path d="M4.47097 3L0 41H122.347L127 3H4.47097Z" fill="#E71D37"/>
<path d="M23.6611 16.2271C22.3706 14.6061 20.7599 13.782 18.8291 13.755C17.9796 13.743 17.1858 13.8864 16.4477 14.185C15.7289 14.4839 15.1051 14.9001 14.5762 15.4334C14.0476 15.9474 13.6237 16.5691 13.3044 17.2984C13.0045 18.0281 12.8486 18.8177 12.8367 19.6673C12.8245 20.5362 12.9581 21.3395 13.2374 22.0773C13.536 22.8153 13.9422 23.4584 14.456 24.0063C14.989 24.5545 15.6106 24.9881 16.3207 25.3071C17.0307 25.626 17.8009 25.7913 18.6312 25.803C20.4462 25.8285 22.0886 25.0791 23.5584 23.5547L23.4641 30.274L22.882 30.4687C22.0088 30.7653 21.1947 30.976 20.4398 31.1006C19.6846 31.2445 18.9402 31.3113 18.2065 31.3011C16.7004 31.2799 15.2562 30.9796 13.8739 30.4001C12.5111 29.8016 11.3059 28.9833 10.2583 27.945C9.23022 26.8877 8.40749 25.6499 7.79011 24.2314C7.17294 22.7936 6.8762 21.2349 6.89973 19.555C6.92332 17.8752 7.25373 16.3445 7.89113 14.9629C8.54808 13.5624 9.40489 12.3674 10.4617 11.378C11.5379 10.3695 12.7751 9.59512 14.1732 9.05471C15.5715 8.49495 17.0334 8.22578 18.5588 8.24719C19.4276 8.2594 20.2759 8.36786 21.1034 8.57259C21.9505 8.75828 22.8348 9.05072 23.7562 9.44988L23.6611 16.2271ZM31.5265 23.4058C31.5198 23.8885 31.6003 24.3435 31.7681 24.7707C31.9362 25.1786 32.1628 25.5391 32.4481 25.8521C32.7528 26.1654 33.1066 26.4117 33.5096 26.5912C33.932 26.7709 34.3845 26.8642 34.8672 26.8709C35.3306 26.8774 35.7662 26.7967 36.1742 26.6286C36.6014 26.4608 36.962 26.2244 37.256 25.9196C37.5692 25.615 37.8156 25.2611 37.995 24.8581C38.1938 24.4554 38.2964 24.0223 38.303 23.5588C38.3095 23.0954 38.219 22.6597 38.0316 22.2514C37.8638 21.8243 37.6276 21.454 37.323 21.1407C37.0377 20.8277 36.6838 20.5814 36.2615 20.4016C35.8585 20.2222 35.4252 20.1292 34.9618 20.1227C34.4791 20.1159 34.0242 20.1964 33.5969 20.3642C33.189 20.5323 32.8284 20.7687 32.5152 21.0732C32.2212 21.3781 31.9845 21.7321 31.8051 22.1351C31.6258 22.5189 31.533 22.9424 31.5265 23.4058ZM38.2335 16.113L43.5048 16.187L43.2964 31.0448L38.0252 30.9708L38.0483 29.32C36.9087 30.7138 35.3831 31.3973 33.4716 31.3704C32.3903 31.3553 31.3986 31.1482 30.4965 30.7493C29.5947 30.3311 28.8109 29.76 28.1452 29.0362C27.4794 28.3122 26.9602 27.4649 26.5875 26.494C26.2342 25.5235 26.0655 24.4686 26.0815 23.3294C26.0964 22.2674 26.294 21.2659 26.6741 20.325C27.0545 19.3647 27.5779 18.532 28.2444 17.8268C28.9109 17.1216 29.7008 16.5726 30.614 16.1799C31.5274 15.7678 32.5344 15.5695 33.635 15.585C35.4886 15.611 37.0146 16.2794 38.2129 17.5901L38.2335 16.113ZM47.0722 16.2371L52.3143 16.3106L52.2801 18.7435C52.8527 17.8632 53.5474 17.197 54.3651 16.745C55.1829 16.2736 56.132 16.0456 57.2136 16.0607C57.3486 16.0627 57.4934 16.0647 57.648 16.0668C57.8218 16.0693 58.0148 16.0913 58.2263 16.1329L58.156 21.1434C57.466 20.7861 56.7155 20.6018 55.9044 20.5904C54.6879 20.5733 53.7656 20.9273 53.1377 21.6524C52.5289 22.3584 52.2149 23.4065 52.1953 24.7967L52.1058 31.1685L46.8638 31.0949L47.0722 16.2371ZM60.5637 16.4264L65.806 16.5L65.7718 18.9328C66.3439 18.0525 67.0391 17.3863 67.8563 16.9343C68.6741 16.463 69.6237 16.2349 70.7048 16.2501C70.8403 16.252 70.9851 16.254 71.1392 16.2562C71.313 16.2586 71.506 16.2806 71.7175 16.3223L71.6477 21.3328C70.9572 20.9755 70.2067 20.7911 69.3956 20.7797C68.1791 20.7627 67.2568 21.1167 66.6289 21.8417C66.0201 22.5477 65.7061 23.5958 65.6865 24.9861L65.5975 31.3578L60.3553 31.2842L60.5637 16.4264ZM79.2972 16.6893L79.0887 31.5472L73.8465 31.4736L74.0549 16.6157L79.2972 16.6893ZM73.7875 10.9052C73.7932 10.4998 73.8755 10.1244 74.0348 9.77895C74.1946 9.41424 74.4113 9.09867 74.6855 8.83214C74.9596 8.5656 75.2715 8.35757 75.6211 8.20798C75.9905 8.05866 76.3774 7.98681 76.7829 7.9925C77.1884 7.99819 77.5639 8.08074 77.9094 8.24005C78.2741 8.39967 78.5896 8.61655 78.856 8.89069C79.1229 9.16478 79.3308 9.48635 79.4798 9.8554C79.6292 10.2051 79.7017 10.5827 79.696 10.9882C79.6903 11.3936 79.6075 11.7787 79.4477 12.1434C79.2884 12.4888 79.0717 12.7948 78.7975 13.0613C78.5234 13.3278 78.2022 13.5357 77.8329 13.6851C77.4832 13.8346 77.1056 13.9066 76.7001 13.9009C76.2946 13.8952 75.9098 13.8126 75.5451 13.6529C75.1996 13.4936 74.8934 13.2768 74.627 13.0028C74.3606 12.7286 74.1522 12.4167 74.0027 12.067C73.8537 11.698 73.7818 11.3107 73.7875 10.9052ZM93.6667 22.1633C93.5032 21.4271 93.1541 20.8332 92.6198 20.3815C92.0855 19.9298 91.4317 19.6986 90.6594 19.6877C89.8484 19.6763 89.1796 19.8794 88.652 20.2968C88.1441 20.7146 87.8172 21.3087 87.6713 22.0791L93.6667 22.1633ZM87.4836 25.1182C87.452 27.3772 88.4984 28.5217 90.6222 28.5515C91.7611 28.5675 92.627 28.1161 93.2192 27.1975L98.2877 27.2686C97.217 30.6525 94.6344 32.3157 90.541 32.2583C89.2861 32.2407 88.1399 32.0411 87.1023 31.6596C86.0653 31.2588 85.1746 30.7056 84.4313 29.9999C83.7077 29.2945 83.1496 28.4563 82.7575 27.4852C82.366 26.514 82.1782 25.4299 82.1948 24.2328C82.2124 22.9971 82.4208 21.8895 82.8211 20.9102C83.221 19.9116 83.7832 19.0697 84.5073 18.3847C85.2315 17.6996 86.0984 17.1807 87.1075 16.8279C88.1363 16.4561 89.2877 16.2792 90.5622 16.297C91.8175 16.3147 92.9441 16.5236 93.9429 16.9239C94.9417 17.3048 95.7837 17.8574 96.4686 18.5815C97.1539 19.3057 97.6727 20.1917 98.0249 21.2395C98.3772 22.268 98.5442 23.4291 98.5261 24.7227L98.5184 25.273L87.4836 25.1182ZM101.632 17.0028L106.874 17.0763L106.84 19.5092C107.412 18.6289 108.107 17.9627 108.924 17.5107C109.742 17.0394 110.692 16.8113 111.773 16.8265C111.908 16.8284 112.053 16.8304 112.207 16.8326C112.381 16.835 112.574 16.857 112.786 16.8986L112.716 21.9091C112.026 21.5518 111.275 21.3675 110.464 21.3561C109.248 21.339 108.325 21.693 107.697 22.4181C107.089 23.1241 106.774 24.1722 106.755 25.5624L106.665 31.9342L101.423 31.8606L101.632 17.0028Z" fill="white"/>
<path d="M111.308 30.9428H111.386C111.617 30.9428 111.732 30.8617 111.732 30.6997C111.732 30.5411 111.617 30.4618 111.386 30.4618H111.308V30.9428ZM112.731 32.2669H111.846L111.308 31.4859V32.2669H110.6V29.929H111.619C111.867 29.929 112.069 29.9963 112.224 30.1307C112.379 30.2618 112.457 30.4411 112.457 30.6687C112.457 31.01 112.291 31.229 111.96 31.3256L112.731 32.2669ZM109.482 31.1135C109.482 30.8272 109.536 30.5583 109.643 30.3066C109.753 30.0514 109.901 29.8307 110.088 29.6445C110.277 29.4549 110.498 29.3066 110.75 29.1997C111.002 29.0893 111.271 29.0342 111.557 29.0342C111.843 29.0342 112.112 29.0893 112.363 29.1997C112.618 29.3066 112.839 29.4549 113.026 29.6445C113.215 29.8307 113.363 30.0514 113.47 30.3066C113.581 30.5583 113.636 30.8272 113.636 31.1135C113.636 31.3997 113.581 31.6686 113.47 31.9204C113.363 32.1721 113.215 32.3928 113.026 32.5825C112.839 32.7687 112.618 32.9169 112.363 33.0273C112.112 33.1341 111.843 33.1876 111.557 33.1876C111.271 33.1876 111.002 33.1341 110.75 33.0273C110.498 32.9169 110.277 32.7687 110.088 32.5825C109.901 32.3928 109.753 32.1721 109.643 31.9204C109.536 31.6686 109.482 31.3997 109.482 31.1135ZM109.886 31.1135C109.886 31.3445 109.929 31.5617 110.015 31.7652C110.105 31.9652 110.226 32.141 110.377 32.2928C110.529 32.4445 110.705 32.5652 110.905 32.6549C111.108 32.741 111.325 32.7842 111.557 32.7842C111.788 32.7842 112.003 32.741 112.203 32.6549C112.406 32.5652 112.584 32.4445 112.736 32.2928C112.887 32.141 113.006 31.9652 113.093 31.7652C113.182 31.5617 113.227 31.3445 113.227 31.1135C113.227 30.8824 113.182 30.6669 113.093 30.4669C113.006 30.2635 112.887 30.0859 112.736 29.9342C112.584 29.7824 112.406 29.6635 112.203 29.5773C112.003 29.4876 111.788 29.4428 111.557 29.4428C111.325 29.4428 111.108 29.4876 110.905 29.5773C110.705 29.6635 110.529 29.7824 110.377 29.9342C110.226 30.0859 110.105 30.2635 110.015 30.4669C109.929 30.6669 109.886 30.8824 109.886 31.1135Z" fill="white"/>
<path d="M134.476 15.6377L137.179 9.23687H139.555L135.288 18.0623H133.021L131.542 9.23687H133.784L134.476 15.6377ZM140.761 18.0623H138.761L139.9 11.5038H141.901L140.761 18.0623ZM140.076 9.84907C140.068 9.55409 140.171 9.30757 140.386 9.10957C140.604 8.91157 140.866 8.81257 141.173 8.81257C141.485 8.81257 141.743 8.90149 141.949 9.07926C142.159 9.25709 142.268 9.48944 142.277 9.77635C142.285 10.0754 142.181 10.3239 141.967 10.5219C141.753 10.7159 141.49 10.8128 141.179 10.8128C140.876 10.8128 140.618 10.726 140.404 10.5522C140.194 10.3744 140.084 10.14 140.076 9.84907ZM148.502 14.7952C148.376 15.858 148.063 16.6945 147.562 17.3046C147.061 17.9148 146.402 18.2098 145.586 18.1896C144.939 18.1734 144.442 17.9027 144.095 17.3774L143.846 18.0623H142.04L143.659 8.75195H145.653L145.004 12.0433C145.445 11.5948 145.936 11.3745 146.477 11.3826C147.119 11.3907 147.621 11.621 147.98 12.0736C148.34 12.5222 148.53 13.1344 148.55 13.9102C148.554 14.1689 148.544 14.4214 148.52 14.6679L148.502 14.7952ZM146.519 14.674C146.552 14.4275 146.57 14.1931 146.574 13.9708C146.574 13.3202 146.342 12.9808 145.877 12.9525C145.465 12.9363 145.119 13.1121 144.841 13.4799L144.368 16.0984C144.493 16.4338 144.768 16.6055 145.192 16.6136C145.842 16.6338 146.253 16.2095 146.423 15.3407L146.508 14.8012L146.519 14.674ZM153.599 13.3526C153.385 13.3202 153.179 13.3001 152.981 13.2919C152.383 13.2758 151.926 13.4819 151.611 13.9102L150.872 18.0623H148.878L150.017 11.5038L151.878 11.4978L151.726 12.3585C152.155 11.6958 152.66 11.3644 153.242 11.3644C153.407 11.3644 153.613 11.3927 153.86 11.4493L153.599 13.3526ZM157.012 18.0623C156.955 17.9047 156.927 17.7067 156.927 17.4683C156.478 17.9613 155.943 18.1997 155.321 18.1835C154.751 18.1754 154.278 17.9855 153.902 17.6137C153.527 17.242 153.351 16.7914 153.375 16.262C153.395 15.5508 153.692 15.0053 154.266 14.6255C154.84 14.2416 155.624 14.0496 156.618 14.0496L157.285 14.0617L157.357 13.692L157.382 13.3708C157.366 13.003 157.181 12.8131 156.83 12.801C156.394 12.7929 156.125 13.0333 156.024 13.5223L154.024 13.5284C154.044 13.0879 154.187 12.706 154.454 12.3827C154.721 12.0554 155.082 11.8049 155.539 11.6311C155.999 11.4534 156.488 11.3705 157.006 11.3826C157.503 11.3947 157.937 11.4998 158.309 11.6978C158.685 11.8918 158.966 12.1646 159.152 12.5161C159.337 12.8636 159.408 13.2657 159.364 13.7223L158.873 16.8076L158.842 17.1834C158.826 17.4824 158.864 17.737 158.958 17.9471L158.951 18.0623H157.012ZM155.872 16.7409C156.28 16.7571 156.638 16.5772 156.945 16.2014L157.145 15.1468L156.63 15.1407C156.311 15.1488 156.036 15.2437 155.806 15.4256C155.575 15.6034 155.44 15.8478 155.399 16.159C155.379 16.3247 155.41 16.4621 155.491 16.5712C155.575 16.6762 155.703 16.7328 155.872 16.7409ZM163.504 9.87333L163.219 11.5038H164.268L164.019 12.9222H162.97L162.461 15.9347C162.433 16.1409 162.445 16.2964 162.498 16.4015C162.554 16.5065 162.692 16.5631 162.91 16.5712C162.995 16.5752 163.168 16.5651 163.431 16.5409L163.285 18.0199C162.95 18.129 162.592 18.1795 162.213 18.1714C161.594 18.1633 161.132 17.9815 160.824 17.6258C160.518 17.2702 160.392 16.7874 160.449 16.1772L160.982 12.9222H160.17L160.412 11.5038H161.225L161.51 9.87333H163.504ZM166.061 18.0623H164.061L165.201 11.5038H167.201L166.061 18.0623ZM165.377 9.84907C165.368 9.55409 165.472 9.30757 165.686 9.10957C165.904 8.91157 166.166 8.81257 166.474 8.81257C166.785 8.81257 167.044 8.90149 167.25 9.07926C167.46 9.25709 167.569 9.48944 167.577 9.77635C167.585 10.0754 167.482 10.3239 167.268 10.5219C167.053 10.7159 166.791 10.8128 166.48 10.8128C166.177 10.8128 165.918 10.726 165.704 10.5522C165.494 10.3744 165.385 10.14 165.377 9.84907ZM170.286 11.4978L170.147 12.2857C170.672 11.6635 171.305 11.3604 172.044 11.3765C172.651 11.3887 173.101 11.615 173.396 12.0554C173.695 12.4919 173.804 13.1182 173.723 13.9345L173.032 18.0623H171.032L171.729 13.9223C171.745 13.7809 171.749 13.6516 171.741 13.5344C171.713 13.1505 171.487 12.9586 171.062 12.9586C170.711 12.9505 170.39 13.1061 170.098 13.4253L169.28 18.0623H167.286L168.426 11.5038L170.286 11.4978ZM174.517 14.7709C174.594 14.1123 174.774 13.5162 175.057 12.9828C175.344 12.4494 175.701 12.0473 176.13 11.7766C176.558 11.5018 177.043 11.3685 177.584 11.3765C178.243 11.3927 178.74 11.6291 179.075 12.0857L179.288 11.4978L181.13 11.5038L180.057 17.8077C179.936 18.6967 179.546 19.3978 178.887 19.911C178.229 20.4242 177.409 20.6687 176.426 20.6445C175.99 20.6364 175.568 20.5495 175.16 20.3838C174.752 20.2182 174.402 19.9676 174.111 19.6322L175.057 18.4563C175.408 18.9008 175.865 19.1291 176.426 19.1412C177.311 19.1574 177.873 18.6866 178.112 17.7289L178.16 17.5289C177.708 17.9734 177.208 18.1916 176.663 18.1835C176.243 18.1795 175.873 18.0744 175.554 17.8683C175.235 17.6582 174.984 17.3571 174.802 16.9652C174.62 16.5732 174.517 16.1368 174.493 15.6559C174.477 15.4135 174.485 15.1185 174.517 14.7709ZM176.487 15.4195C176.487 15.7913 176.554 16.0802 176.687 16.2863C176.821 16.4924 177.015 16.5995 177.269 16.6076C177.645 16.6237 177.986 16.4782 178.294 16.1711L178.809 13.3889C178.647 13.1061 178.376 12.9606 177.997 12.9525C177.609 12.9445 177.283 13.1101 177.021 13.4495C176.758 13.785 176.592 14.2274 176.524 14.777C176.499 15.0316 176.487 15.2458 176.487 15.4195ZM136.706 31.3914H133.463L133.093 33.4947H136.93L136.645 35.1313H130.735L132.263 26.3058H138.185L137.9 27.9485H134.057L133.73 29.8093H136.979L136.706 31.3914ZM137.652 31.8217C137.733 31.1509 137.906 30.5488 138.173 30.0154C138.44 29.478 138.775 29.08 139.179 28.8213C139.587 28.5627 140.05 28.4395 140.567 28.4516C141.222 28.4677 141.719 28.7465 142.058 29.288L142.368 28.5667L144.119 28.5728L142.543 37.6528H140.543L141.155 34.5736C140.714 35.0424 140.216 35.2686 139.658 35.2525C139.04 35.2444 138.551 35.012 138.191 34.5554C137.831 34.0988 137.639 33.4785 137.615 32.6946C137.607 32.4602 137.619 32.1692 137.652 31.8217ZM139.603 32.4521C139.575 32.8117 139.617 33.1047 139.731 33.331C139.844 33.5533 140.026 33.6685 140.276 33.6765C140.684 33.6927 141.032 33.5169 141.319 33.1492L141.786 30.5367C141.664 30.2054 141.396 30.0316 140.979 30.0154C140.248 30.0033 139.806 30.6054 139.652 31.8217L139.603 32.4521ZM148.205 34.416C147.716 34.9939 147.126 35.2747 146.435 35.2586C145.792 35.2505 145.307 35.0262 144.98 34.5857C144.657 34.1453 144.531 33.5553 144.604 32.8158L145.313 28.5728H147.307L146.586 32.84C146.574 32.9572 146.574 33.0643 146.586 33.1613C146.615 33.4926 146.811 33.6644 147.174 33.6765C147.594 33.6927 147.952 33.527 148.247 33.1795L149.059 28.5728H151.066L149.926 35.1313H148.071L148.205 34.416ZM153.102 35.1313H151.102L152.242 28.5728H154.242L153.102 35.1313ZM152.417 26.918C152.409 26.6231 152.512 26.3765 152.726 26.1785C152.945 25.9805 153.207 25.8815 153.514 25.8815C153.826 25.8815 154.084 25.9705 154.29 26.1482C154.501 26.3261 154.61 26.5584 154.617 26.8453C154.626 27.1443 154.523 27.3929 154.309 27.5909C154.094 27.7848 153.832 27.8818 153.52 27.8818C153.217 27.8818 152.959 27.7949 152.744 27.6212C152.534 27.4434 152.425 27.209 152.417 26.918ZM160.849 31.8581C160.764 32.5451 160.584 33.1573 160.309 33.6947C160.035 34.2281 159.693 34.6261 159.285 34.8888C158.881 35.1474 158.428 35.2707 157.927 35.2586C157.353 35.2424 156.889 35.0161 156.533 34.5797L155.939 37.6528H153.945L155.521 28.5728L157.363 28.5667L157.261 29.1911C157.701 28.6819 158.22 28.4354 158.818 28.4516C159.457 28.4597 159.954 28.688 160.309 29.1365C160.669 29.585 160.861 30.1972 160.885 30.9731C160.893 31.2237 160.881 31.5186 160.849 31.8581ZM158.909 31.0459C158.889 30.3791 158.663 30.0396 158.23 30.0275C157.81 30.0033 157.46 30.1751 157.181 30.5428L156.715 33.1431C156.84 33.4947 157.119 33.6745 157.551 33.6826C158.258 33.6947 158.693 33.0866 158.855 31.8581C158.891 31.4702 158.909 31.1994 158.909 31.0459ZM164.213 28.5667L164.079 29.3547C164.605 28.7365 165.243 28.4354 165.995 28.4516C166.391 28.4597 166.716 28.5526 166.971 28.7304C167.225 28.9082 167.395 29.1446 167.48 29.4396C168.058 28.7647 168.723 28.4354 169.474 28.4516C170.08 28.4637 170.529 28.692 170.82 29.1365C171.115 29.577 171.222 30.1993 171.141 31.0034L170.456 35.1313H168.456L169.153 30.9974L169.177 30.6397C169.177 30.2397 168.989 30.0336 168.613 30.0215C168.262 30.0215 167.934 30.2013 167.631 30.561L166.837 35.1313H164.837L165.528 31.0095L165.552 30.6458C165.552 30.2296 165.365 30.0215 164.989 30.0215C164.645 30.0215 164.322 30.2013 164.019 30.561L163.212 35.1313H161.218L162.358 28.5728L164.213 28.5667ZM174.905 35.2525C174.319 35.2485 173.796 35.111 173.335 34.8403C172.879 34.5655 172.533 34.1857 172.299 33.7008C172.064 33.2118 171.971 32.6744 172.02 32.0884L172.038 31.9187C172.147 30.8398 172.521 29.9871 173.159 29.3608C173.802 28.7304 174.588 28.4274 175.518 28.4516C176.079 28.4597 176.56 28.6031 176.96 28.882C177.36 29.1567 177.653 29.5386 177.839 30.0275C178.025 30.5125 178.085 31.058 178.021 31.6641L177.906 32.4945H174.002C174.01 32.838 174.107 33.1169 174.293 33.331C174.479 33.5452 174.749 33.6583 175.105 33.6705C175.683 33.6866 176.202 33.4643 176.663 33.0037L177.5 34.1129C177.253 34.4645 176.907 34.7413 176.463 34.9434C176.022 35.1414 175.54 35.2444 175.014 35.2525H174.905ZM175.39 30.0215C175.107 30.0134 174.861 30.1023 174.651 30.2882C174.444 30.4741 174.265 30.7852 174.111 31.2216H176.105L176.142 31.0459C176.166 30.9044 176.17 30.7711 176.154 30.6458C176.085 30.2417 175.831 30.0336 175.39 30.0215ZM181.221 28.5667L181.082 29.3547C181.607 28.7324 182.24 28.4294 182.979 28.4455C183.585 28.4577 184.036 28.684 184.331 29.1244C184.63 29.5608 184.739 30.1872 184.658 31.0034L183.967 35.1313H181.967L182.664 30.9913C182.68 30.8499 182.684 30.7206 182.676 30.6034C182.648 30.2195 182.421 30.0275 181.997 30.0275C181.645 30.0195 181.324 30.1751 181.033 30.4943L180.215 35.1313H178.221L179.36 28.5728L181.221 28.5667ZM188.853 26.9423L188.568 28.5728H189.616L189.368 29.9912H188.319L187.81 33.0037C187.781 33.2098 187.794 33.3654 187.847 33.4705C187.903 33.5755 188.04 33.6321 188.258 33.6402C188.343 33.6442 188.517 33.6341 188.78 33.6099L188.634 35.0889C188.299 35.1979 187.941 35.2485 187.562 35.2404C186.943 35.2323 186.481 35.0504 186.173 34.6948C185.866 34.3392 185.741 33.8564 185.798 33.2462L186.331 29.9912H185.519L185.761 28.5728H186.574L186.858 26.9423H188.853ZM189.701 37.5013L188.701 37.0224L189.259 36.0344C189.469 35.6505 189.6 35.307 189.653 35.004L189.901 33.5916H191.501L191.289 34.8524C191.107 35.9314 190.578 36.8143 189.701 37.5013ZM197.987 35.1313H195.914L197.448 26.3058H199.515L197.987 35.1313ZM202.339 28.5667L202.2 29.3547C202.725 28.7324 203.358 28.4294 204.097 28.4455C204.703 28.4577 205.153 28.684 205.449 29.1244C205.748 29.5608 205.857 30.1872 205.776 31.0034L205.085 35.1313H203.085L203.782 30.9913C203.798 30.8499 203.802 30.7206 203.794 30.6034C203.766 30.2195 203.539 30.0275 203.115 30.0275C202.763 30.0195 202.442 30.1751 202.151 30.4943L201.333 35.1313H199.339L200.478 28.5728L202.339 28.5667ZM209.268 33.6826C209.554 33.6906 209.779 33.6119 209.94 33.4462C210.102 33.2765 210.205 33.0583 210.249 32.7916L212.116 32.7855C212.092 33.2664 211.948 33.6967 211.686 34.0766C211.427 34.4564 211.076 34.7514 210.631 34.9616C210.191 35.1676 209.718 35.2646 209.213 35.2525C208.34 35.2363 207.667 34.9232 207.195 34.313C206.722 33.6988 206.53 32.9067 206.618 31.9369L206.637 31.7914C206.709 31.1287 206.896 30.5428 207.195 30.0336C207.493 29.5204 207.886 29.1244 208.37 28.8456C208.859 28.5667 209.405 28.4354 210.007 28.4516C210.771 28.4677 211.373 28.7122 211.813 29.185C212.258 29.6538 212.472 30.2882 212.456 31.0883L210.589 31.0822C210.609 30.3872 210.361 30.0336 209.843 30.0215C209.14 29.9972 208.736 30.5892 208.631 31.7975L208.577 32.4157L208.57 32.6461C208.57 33.325 208.803 33.6705 209.268 33.6826ZM212.856 34.2099C212.847 33.9028 212.953 33.6482 213.171 33.4462C213.389 33.2442 213.65 33.1431 213.953 33.1431C214.252 33.1431 214.506 33.236 214.717 33.4219C214.927 33.6038 215.036 33.8422 215.044 34.1372C215.052 34.4403 214.949 34.6948 214.735 34.9009C214.521 35.103 214.258 35.204 213.947 35.204C213.64 35.204 213.383 35.111 213.177 34.9252C212.971 34.7393 212.864 34.5009 212.856 34.2099Z" fill="black"/>
</svg>
