<svg width="112" height="45" viewBox="0 0 112 45" fill="none" xmlns="http://www.w3.org/2000/svg">
<path d="M0 3.85359L10.0691 0.745854V44.2541H0V3.85359Z" fill="#FF595B"/>
<path d="M34.8766 0.745854C38.7301 0.745854 42.0658 1.38812 44.8835 2.67265C47.7426 3.95718 49.9387 5.78039 51.4719 8.14226C53.005 10.5041 53.7716 13.3011 53.7716 16.5332C53.7716 19.7238 53.005 22.5207 51.4719 24.924C49.9387 27.2859 47.7426 29.1091 44.8835 30.3936C42.0658 31.6367 38.7301 32.2583 34.8766 32.2583H26.1127V44.2541H16.0437V0.745854H34.8766ZM34.3172 24.0539C37.342 24.0539 39.6418 23.4116 41.2163 22.1271C42.7909 20.8011 43.5782 18.9365 43.5782 16.5332C43.5782 14.0884 42.7909 12.2238 41.2163 10.9392C39.6418 9.61326 37.342 8.95028 34.3172 8.95028H26.1127V24.0539H34.3172Z" fill="#FF595B"/>
<path d="M56.6093 0.745854H66.6784V44.2541H56.6093V0.745854Z" fill="#FF595B"/>
<path d="M93.4748 45C89.0411 45 85.0218 44.047 81.4168 42.1409C77.8533 40.1934 75.0356 37.5207 72.9638 34.1229C70.9334 30.6837 69.9182 26.8094 69.9182 22.5C69.9182 18.1906 70.9334 14.337 72.9638 10.9392C75.0356 7.5 77.8533 4.82735 81.4168 2.92127C85.0218 0.973757 89.0619 0 93.537 0C97.3077 0 100.706 0.662984 103.73 1.98895C106.797 3.31492 109.366 5.22099 111.438 7.70718L104.973 13.674C102.031 10.2762 98.3851 8.57735 94.0342 8.57735C91.3409 8.57735 88.9375 9.17818 86.8243 10.3798C84.711 11.5401 83.0536 13.1768 81.8519 15.2901C80.6917 17.4033 80.1116 19.8066 80.1116 22.5C80.1116 25.1934 80.6917 27.5967 81.8519 29.7099C83.0536 31.8232 84.711 33.4807 86.8243 34.6823C88.9375 35.8425 91.3409 36.4227 94.0342 36.4227C98.3851 36.4227 102.031 34.703 104.973 31.2638L111.438 37.2307C109.366 39.7583 106.797 41.6851 103.73 43.0111C100.664 44.337 97.2456 45 93.4748 45Z" fill="#FF595B"/>
</svg>
