<svg width="107" height="45" viewBox="0 0 107 45" fill="none" xmlns="http://www.w3.org/2000/svg">
<g clip-path="url(#clip0)">
<path d="M5 0H0V40.3003C0 41.5493 0.526784 42.747 1.46447 43.6302C2.40215 44.5133 3.67392 45.0094 5 45.0094H10V4.70908C10 3.46016 9.47322 2.26238 8.53553 1.37926C7.59785 0.496134 6.32608 0 5 0V0Z" fill="#231F20"/>
<path d="M75.48 15.6153C72.5667 12.4759 68.5234 10.9062 63.35 10.9062C57.8967 10.9062 53.6734 12.4446 50.68 15.5212C47.99 18.4502 46.56 22.4529 46.36 27.5105C46.15 22.4529 44.72 18.4502 42.03 15.5212C39.03 12.4414 34.81 10.9062 29.37 10.9062C24.19 10.9062 20.1434 12.4759 17.23 15.6153C14.5634 18.5538 13.1667 22.5785 13.04 27.6894C13.16 33.2838 14.55 37.3148 17.23 40.2438C20.1367 43.4209 24.1834 45.0063 29.37 45C34.81 45 39.04 43.4554 42.03 40.3757C43.9861 38.1624 45.2959 35.5071 45.83 32.6716H39.4C38.6298 32.6518 37.8676 32.8233 37.1901 33.1688C36.5125 33.5144 35.9434 34.0218 35.54 34.64C35.54 34.7248 35.39 34.8472 35.28 34.9885C35.0679 35.2852 34.8269 35.5627 34.56 35.8173C34.1089 36.254 33.5812 36.614 33 36.8816C31.9484 37.3765 30.7855 37.6253 29.61 37.6068C24.91 37.6068 22.66 34.4799 22.66 30.6279H70C70 34.4799 67.75 37.6068 63 37.6068C61.8244 37.6264 60.6613 37.3776 59.61 36.8816C59.0641 36.5979 58.5737 36.2284 58.16 35.789C57.889 35.5355 57.6445 35.258 57.43 34.9602L57.17 34.6118C56.9919 34.3329 56.7769 34.0766 56.53 33.8489C56.1074 33.4565 55.6056 33.1477 55.0544 32.9407C54.5031 32.7337 53.9134 32.6326 53.32 32.6434H46.89C47.4164 35.4793 48.7232 38.1357 50.68 40.3474C53.68 43.4303 57.9034 44.9718 63.35 44.9718C68.53 44.9718 72.5734 43.3864 75.48 40.2156C78.16 37.2865 79.55 33.2556 79.68 27.6612C79.55 22.6036 78.16 18.5538 75.48 15.6153ZM36.59 25.2501H22.69C22.69 21.3981 25.1 18.2807 29.69 18.2807C34.39 18.2807 36.69 21.3981 36.69 25.2501H36.59ZM70.03 25.2501H56.12C56.12 21.3981 58.37 18.2807 63.12 18.2807C67.65 18.2807 70.12 21.3981 70.12 25.2501H70.03Z" fill="#231F20"/>
<path d="M102.72 1.12982C102.72 1.12982 101.48 1.12982 101.27 1.17691C99.239 1.27905 97.2265 1.59495 95.27 2.11872C92.9616 2.6946 90.7991 3.70015 88.91 5.07603C86.9258 6.60301 85.3759 8.57082 84.4 10.8023C83.3916 13.1543 82.8461 15.6595 82.79 18.1955V44.9996H87.79C89.1161 44.9996 90.3879 44.5035 91.3256 43.6204C92.2633 42.7373 92.79 41.5395 92.79 40.2906V18.1484V17.5928C92.7806 15.7451 93.4924 13.9586 94.79 12.5729C95.6017 11.8645 96.5567 11.3176 97.5979 10.9649C98.6392 10.6121 99.7453 10.4607 100.85 10.5197V10.5197C102.176 10.5197 103.448 10.0236 104.386 9.14047C105.323 8.25735 105.85 7.05957 105.85 5.81065V1.10156L102.72 1.12982Z" fill="#231F20"/>
<path d="M104.32 16.3598C102.18 17.6501 94.5603 16.4163 93.5303 23.9508C93.5303 23.9508 95.7503 19.5148 100.53 18.9969C98.7507 19.5807 97.2161 20.6855 96.151 22.1496C95.0858 23.6137 94.5459 25.3604 94.6103 27.1341C94.7003 27.7934 94.7503 28.189 96.1703 27.7557C105.93 24.8079 106.43 14.5703 106.43 14.5703C105.83 15.2664 105.118 15.8701 104.32 16.3598Z" fill="#231F20"/>
<path d="M94.2202 42.3818H96.4202V42.589H95.4202V44.9907H95.1602V42.5985H94.1602L94.2202 42.3818Z" fill="#231F20"/>
<path d="M96.6602 42.3818H97.0502L98.0502 44.6704L99.0002 42.3818H99.3902V44.9907H99.1301V42.7491L98.1301 45.0001H97.8801L96.9402 42.7491V45.0001H96.6702L96.6602 42.3818Z" fill="#231F20"/>
</g>
<defs>
<clipPath id="clip0">
<rect width="106.4" height="45" fill="white"/>
</clipPath>
</defs>
</svg>
