<svg width="131" height="45" viewBox="0 0 131 45" fill="none" xmlns="http://www.w3.org/2000/svg">
<path fill-rule="evenodd" clip-rule="evenodd" d="M56.0582 18.813C52.9512 18.813 50.4324 21.3243 50.4324 24.4221V34.4504C50.4324 35.6708 49.4402 36.6601 48.2162 36.6601C46.9922 36.6601 46 35.6708 46 34.4504V24.4221C46 18.8836 50.5032 14.3938 56.0582 14.3938C61.6132 14.3938 66.1164 18.8836 66.1164 24.4221V34.4504C66.1164 35.6708 65.1242 36.6601 63.9002 36.6601C62.6762 36.6601 61.684 35.6708 61.684 34.4504V24.4221C61.684 21.3243 59.1652 18.813 56.0582 18.813Z" fill="#434343"/>
<path fill-rule="evenodd" clip-rule="evenodd" d="M48.2162 7C49.4402 7 50.4324 7.98929 50.4324 9.20963V34.4504C50.4324 35.6708 49.4402 36.6601 48.2162 36.6601C46.9922 36.6601 46 35.6708 46 34.4504V9.20963C46 7.98929 46.9922 7 48.2162 7Z" fill="#434343"/>
<path fill-rule="evenodd" clip-rule="evenodd" d="M98.5073 7C99.7313 7 100.723 7.98929 100.723 9.20963V29.5212C100.723 31.0232 101.945 32.2408 103.451 32.2408H104.559C105.783 32.2408 106.775 33.2301 106.775 34.4504C106.775 35.6708 105.783 36.6601 104.559 36.6601H103.451C99.4967 36.6601 96.2911 33.4639 96.2911 29.5212V9.20963C96.2911 7.98929 97.2833 7 98.5073 7Z" fill="#434343"/>
<path fill-rule="evenodd" clip-rule="evenodd" d="M81.5447 32.4108C85.452 32.4108 88.6195 29.2527 88.6195 25.3569C88.6195 21.4612 85.452 18.3031 81.5447 18.3031C77.6374 18.3031 74.4699 21.4612 74.4699 25.3569C74.4699 29.2527 77.6374 32.4108 81.5447 32.4108ZM81.5447 36.83C87.9 36.83 93.052 31.6934 93.052 25.3569C93.052 19.0205 87.9 13.8839 81.5447 13.8839C75.1894 13.8839 70.0374 19.0205 70.0374 25.3569C70.0374 31.6934 75.1894 36.83 81.5447 36.83Z" fill="#434343"/>
<path fill-rule="evenodd" clip-rule="evenodd" d="M90.8358 22.7224C92.0597 22.7224 93.052 23.7117 93.052 24.932V34.7904C93.052 36.0107 92.0597 37 90.8358 37C89.6118 37 88.6195 36.0107 88.6195 34.7904V24.932C88.6195 23.7117 89.6118 22.7224 90.8358 22.7224Z" fill="#434343"/>
<path fill-rule="evenodd" clip-rule="evenodd" d="M116.493 32.4108C120.4 32.4108 123.568 29.2527 123.568 25.3569C123.568 21.4612 120.4 18.3031 116.493 18.3031C112.585 18.3031 109.418 21.4612 109.418 25.3569C109.418 29.2527 112.585 32.4108 116.493 32.4108ZM116.493 36.83C122.848 36.83 128 31.6934 128 25.3569C128 19.0205 122.848 13.8839 116.493 13.8839C110.137 13.8839 104.985 19.0205 104.985 25.3569C104.985 31.6934 110.137 36.83 116.493 36.83Z" fill="#434343"/>
<path d="M17.6858 21.1699C28.6085 24.5362 27.7626 29.7962 26.0397 32.0579C29.5117 30.3224 30.2727 21.065 19.8081 17.6197C7.82545 13.6747 0.638763 22.6165 4.84175 26.798C3.53645 24.7206 6.76314 17.8036 17.6858 21.1699Z" fill="#FCD93D"/>
<path d="M12.6112 35.546C-1.83724 30.6147 2.04855 21.1702 2.96232 19.5134C-1.4238 22.8533 -2.36345 34.2936 10.2486 38.4097C26.4363 43.6928 33.7411 34.7144 30.9478 27.5348C30.2168 32.1372 24.9695 39.7639 12.6112 35.546Z" fill="#FCD93D"/>
<path d="M36.7168 17.6197C38.5181 21.0649 31.2033 24.9204 29.5116 21.512C28.8 20.0783 29.494 18.6322 30.7051 17.6197C32.5598 16.0693 35.6271 15.5355 36.7168 17.6197Z" fill="#FCD93D"/>
<path d="M5.45612 8.00699C9.29109 7.52063 10.2996 15.7751 6.53744 16.171C4.95487 16.3376 3.85543 15.1743 3.34082 13.676C2.55279 11.3815 3.13616 8.30121 5.45612 8.00699Z" fill="#FCD93D"/>
<path d="M28.8481 7.43365C33.2267 9.92957 27.9093 19.3363 23.6764 16.8029C21.8959 15.7373 21.6459 13.6619 22.265 11.6947C23.2131 8.68231 26.1992 5.92374 28.8481 7.43365Z" fill="#FCD93D"/>
<path d="M16.5308 4.06686C21.4286 5.04943 19.6539 15.4307 14.8788 14.3687C12.8701 13.922 11.9419 12.0671 11.856 10.047C11.7244 6.95351 13.5679 3.47246 16.5308 4.06686Z" fill="#FCD93D"/>
</svg>
