<svg width="129" height="45" viewBox="0 0 129 45" fill="none" xmlns="http://www.w3.org/2000/svg">
<path d="M81.781 7.33691V27.6635H77.94L67.861 15.3224V27.6635H63.2402V7.33691H67.1101L77.1603 19.6781V7.33691H81.781Z" fill="black"/>
<path d="M85.9864 7.33691H95.1701C97.365 7.33691 99.2999 7.76281 100.975 8.61459C102.669 9.44701 103.978 10.6279 104.903 12.1572C105.846 13.6866 106.318 15.4676 106.318 17.5002C106.318 19.5329 105.846 21.3139 104.903 22.8432C103.978 24.3726 102.669 25.5631 100.975 26.4149C99.2999 27.2473 97.365 27.6635 95.1701 27.6635H85.9864V7.33691ZM94.9391 23.8015C96.9607 23.8015 98.5683 23.2401 99.762 22.1173C100.975 20.9751 101.581 19.4361 101.581 17.5002C101.581 15.5644 100.975 14.035 99.762 12.9122C98.5683 11.7701 96.9607 11.199 94.9391 11.199H90.6649V23.8015H94.9391Z" fill="black"/>
<path d="M122.3 23.3078H112.914L111.123 27.6635H106.329L115.34 7.33691H119.961L129 27.6635H124.09L122.3 23.3078ZM120.827 19.7362L117.621 11.954L114.416 19.7362H120.827Z" fill="black"/>
<g opacity="0.4">
<path d="M66.1688 32.7502C66.7117 32.7502 67.1816 32.8412 67.5786 33.0231C67.9814 33.2051 68.2907 33.4633 68.5067 33.7979C68.7227 34.1325 68.8307 34.5287 68.8307 34.9865C68.8307 35.4384 68.7227 35.8346 68.5067 36.1751C68.2907 36.5096 67.9814 36.7679 67.5786 36.9499C67.1816 37.1259 66.7117 37.214 66.1688 37.214H64.9342V38.9132H63.5156V32.7502H66.1688ZM66.09 36.0518C66.5161 36.0518 66.8401 35.9608 67.0619 35.7789C67.2838 35.5911 67.3947 35.3269 67.3947 34.9865C67.3947 34.6402 67.2838 34.3761 67.0619 34.1941C66.8401 34.0063 66.5161 33.9124 66.09 33.9124H64.9342V36.0518H66.09Z" fill="black"/>
<path d="M77.6891 38.9132L76.507 37.1964H76.437H75.2023V38.9132H73.7838V32.7502H76.437C76.9799 32.7502 77.4498 32.8412 77.8467 33.0231C78.2495 33.2051 78.5589 33.4633 78.7749 33.7979C78.9909 34.1325 79.0989 34.5287 79.0989 34.9865C79.0989 35.4443 78.988 35.8405 78.7662 36.1751C78.5502 36.5038 78.2408 36.7562 77.838 36.9322L79.2127 38.9132H77.6891ZM77.6629 34.9865C77.6629 34.6402 77.5519 34.3761 77.3301 34.1941C77.1083 34.0063 76.7843 33.9124 76.3582 33.9124H75.2023V36.0606H76.3582C76.7843 36.0606 77.1083 35.9667 77.3301 35.7789C77.5519 35.5911 77.6629 35.3269 77.6629 34.9865Z" fill="black"/>
<path d="M87.1315 39.0189C86.4953 39.0189 85.9202 38.8809 85.4065 38.6051C84.8987 38.3292 84.4988 37.9506 84.2069 37.4693C83.9209 36.9821 83.7779 36.4363 83.7779 35.8317C83.7779 35.2271 83.9209 34.6842 84.2069 34.2029C84.4988 33.7157 84.8987 33.3342 85.4065 33.0583C85.9202 32.7825 86.4953 32.6445 87.1315 32.6445C87.7678 32.6445 88.3399 32.7825 88.8478 33.0583C89.3557 33.3342 89.7555 33.7157 90.0474 34.2029C90.3393 34.6842 90.4852 35.2271 90.4852 35.8317C90.4852 36.4363 90.3393 36.9821 90.0474 37.4693C89.7555 37.9506 89.3557 38.3292 88.8478 38.6051C88.3399 38.8809 87.7678 39.0189 87.1315 39.0189ZM87.1315 37.8039C87.4935 37.8039 87.8204 37.7217 88.1123 37.5574C88.4041 37.3871 88.6318 37.1524 88.7952 36.853C88.9645 36.5537 89.0492 36.2132 89.0492 35.8317C89.0492 35.4502 88.9645 35.1097 88.7952 34.8104C88.6318 34.5111 88.4041 34.2792 88.1123 34.1149C87.8204 33.9446 87.4935 33.8595 87.1315 33.8595C86.7696 33.8595 86.4427 33.9446 86.1508 34.1149C85.859 34.2792 85.6284 34.5111 85.4591 34.8104C85.2956 35.1097 85.2139 35.4502 85.2139 35.8317C85.2139 36.2132 85.2956 36.5537 85.4591 36.853C85.6284 37.1524 85.859 37.3871 86.1508 37.5574C86.4427 37.7217 86.7696 37.8039 87.1315 37.8039Z" fill="black"/>
<path d="M96.493 39.0189C96.0785 39.0189 95.6961 38.9426 95.3459 38.79C95.0015 38.6315 94.7183 38.4084 94.4965 38.1208L95.2846 37.17C95.6173 37.6219 95.9968 37.8479 96.4229 37.8479C97.0008 37.8479 97.2898 37.5075 97.2898 36.8266V33.8947H95.1357V32.7502H98.6996V36.7474C98.6996 37.5045 98.5128 38.0739 98.1392 38.4554C97.7655 38.8311 97.2168 39.0189 96.493 39.0189Z" fill="black"/>
<path d="M108.787 37.7687V38.9132H104.041V32.7502H108.673V33.8947H105.451V35.233H108.297V36.3424H105.451V37.7687H108.787Z" fill="black"/>
<path d="M116.772 39.0189C116.148 39.0189 115.581 38.8839 115.074 38.6139C114.572 38.338 114.175 37.9594 113.883 37.4781C113.597 36.9909 113.454 36.4421 113.454 35.8317C113.454 35.2213 113.597 34.6754 113.883 34.1941C114.175 33.7069 114.572 33.3283 115.074 33.0583C115.581 32.7825 116.151 32.6445 116.781 32.6445C117.312 32.6445 117.791 32.7384 118.217 32.9263C118.649 33.1141 119.011 33.3841 119.303 33.7363L118.392 34.5815C117.978 34.1002 117.464 33.8595 116.851 33.8595C116.472 33.8595 116.133 33.9446 115.835 34.1149C115.538 34.2792 115.304 34.5111 115.135 34.8104C114.971 35.1097 114.89 35.4502 114.89 35.8317C114.89 36.2132 114.971 36.5537 115.135 36.853C115.304 37.1524 115.538 37.3871 115.835 37.5574C116.133 37.7217 116.472 37.8039 116.851 37.8039C117.464 37.8039 117.978 37.5603 118.392 37.0731L119.303 37.9183C119.011 38.2764 118.649 38.5493 118.217 38.7371C117.785 38.925 117.304 39.0189 116.772 39.0189Z" fill="black"/>
<path d="M125.411 33.9124H123.45V32.7502H128.791V33.9124H126.83V38.9132H125.411V33.9124Z" fill="black"/>
</g>
<path d="M12.9277 45C17.5869 45 21.5898 42.5587 23.8866 38.8636H50.1357C50.7919 38.8636 51.3169 38.3358 51.3169 37.676V8.11584C51.3169 7.45601 50.7919 6.92815 50.1357 6.92815H29.1364L24.871 0.52786C24.6741 0.197948 24.2804 0 23.8866 0H11.484C11.0902 0 10.7621 0.197948 10.4996 0.52786L5.90604 7.45601C5.77479 7.65396 5.70917 7.85191 5.70917 8.11584V21.3123C2.29679 23.6217 0 27.5806 0 32.0675C0.0656226 39.1936 5.84041 45 12.9277 45ZM12.9277 21.3783C18.7681 21.3783 23.4929 26.129 23.4929 32.0015C23.4929 37.8739 18.7681 42.6246 12.9277 42.6246C7.08724 42.6246 2.36241 37.8739 2.36241 32.0015C2.36241 26.129 7.08724 21.3783 12.9277 21.3783Z" fill="url(#paint0_linear)"/>
<path d="M17.8493 29.8235H17.1274C17.1274 27.5141 15.2243 25.6006 12.9276 25.6006C10.6308 25.6006 8.72771 27.5141 8.72771 29.8235H8.00586V37.3455H17.9149V29.8235H17.8493ZM12.9276 27.0522C14.4369 27.0522 15.6837 28.3059 15.6837 29.8235H10.1714C10.1714 28.3059 11.4182 27.0522 12.9276 27.0522Z" fill="black"/>
<defs>
<linearGradient id="paint0_linear" x1="25.6584" y1="0" x2="25.6584" y2="45" gradientUnits="userSpaceOnUse">
<stop stop-color="#2B8FFA"/>
<stop offset="1" stop-color="#ED0CE7"/>
</linearGradient>
</defs>
</svg>
