<svg width="135" height="45" viewBox="0 0 135 45" fill="none" xmlns="http://www.w3.org/2000/svg">
<g clip-path="url(#clip0)">
<path d="M134.127 10.7136C132.302 0.131108 100.818 -3.17137 63.8021 3.33705C48.2568 6.07179 34.2201 10.1054 23.289 14.6432C24.9681 14.6804 26.2134 15.0692 26.9701 15.8314C27.5617 16.4295 27.8605 17.2504 27.8605 18.2731V19.3229H24.2308V18.396C24.2308 17.6237 23.7723 17.1451 22.9601 17.1451C22.2776 17.1451 21.8572 17.4563 21.7215 18.0693C21.676 18.3116 21.681 18.5608 21.7362 18.8011C22.1246 20.4044 27.5142 21.4001 28.1005 24.359C28.1773 24.7397 28.2816 25.5545 28.1172 26.7204C27.781 29.1068 25.7048 30.0276 23.0617 30.0276C19.3726 30.0276 17.8739 28.2629 17.8739 25.83L17.8766 24.679H21.7676L21.7696 26.1128C21.7696 26.9189 22.3498 27.3637 23.1399 27.3637C23.8886 27.3637 24.3258 27.0593 24.4768 26.4369C24.547 26.1506 24.5778 25.7287 24.4501 25.406C23.7302 23.582 18.6974 22.73 18.0778 19.7806C17.9394 19.1177 17.9281 18.5533 18.043 17.8397C18.102 17.486 18.2105 17.1426 18.3652 16.8197C6.2403 22.5464 -0.852572 28.8476 0.0845886 34.288C1.91145 44.8719 33.3952 48.171 70.4104 41.6626C86.6817 38.8022 101.31 34.5202 112.443 29.7218C112.282 29.7299 112.125 29.7474 111.958 29.7474C109.425 29.7474 107.163 28.7888 106.928 26.1736C106.887 25.6976 106.879 25.4985 106.878 25.2271L106.879 19.2149C106.879 18.9556 106.91 18.5006 106.938 18.2657C107.238 15.7382 109.217 14.6959 111.96 14.6959C114.082 14.6959 116.684 15.3109 116.97 18.2677C117.008 18.639 117.004 19.0353 117.004 19.1656V19.7333H113.338V18.8861C113.338 18.8679 113.333 18.5513 113.292 18.3535C113.232 18.0517 112.978 17.3523 111.934 17.3523C110.902 17.3523 110.635 18.0531 110.568 18.3541C110.53 18.5195 110.512 18.7572 110.512 19.0205V25.5545C110.508 25.7814 110.52 25.9589 110.543 26.0892C110.561 26.1918 110.746 27.0924 111.946 27.0924C113.138 27.0924 113.323 26.1918 113.339 26.0892C113.371 25.9123 113.375 25.7017 113.373 25.5545V23.53H111.931V21.3495H117.032V25.2285C117.03 25.4924 117.026 25.6875 116.982 26.1736C116.921 26.8595 116.707 27.44 116.371 27.9362C128.178 22.2743 135.052 16.0751 134.127 10.7136V10.7136ZM38.1465 29.4693L36.2896 16.7265H36.2227L34.3183 29.4693H30.4046L33.0369 15.0787H39.4226L42.0389 29.4693H38.1465V29.4693ZM56.9713 29.4693L56.8851 16.9729H56.8222L54.5194 29.4693H50.8463L48.5549 16.9729H48.4894L48.4058 29.4693H44.7662L45.0817 15.0787H50.9359L52.6404 25.7685H52.724L54.4332 15.0787H60.2848L60.5989 29.4693H56.9713ZM74.1109 26.6806C73.7192 29.468 71.0153 29.9554 69.1042 29.9554C65.9311 29.9554 63.9686 28.5856 63.9686 25.7982L63.9706 24.6614H67.8148L67.8175 26.0777C67.8175 26.8466 68.3543 27.3172 69.1831 27.3172C69.9224 27.3172 70.3556 27.0174 70.506 26.4018C70.5755 26.1148 70.6042 25.6963 70.4812 25.3804C69.7727 23.5907 64.7794 22.7138 64.1725 19.8103C64.0334 19.1521 64.0234 18.5931 64.1377 17.887C64.5602 15.2549 67.0615 14.7081 69.0748 14.7081C70.8756 14.7081 72.1864 15.105 72.9725 15.8989C73.5588 16.4916 73.8556 17.3051 73.8556 18.317V19.3553H70.2607V18.4392C70.2607 17.6548 69.7787 17.2011 69.004 17.2011C68.3168 17.2011 67.901 17.5096 67.7647 18.1165C67.7204 18.3563 67.7263 18.6028 67.7821 18.8402C68.1671 20.4361 73.5093 21.4116 74.0942 24.3428C74.1697 24.7168 74.2733 25.5194 74.1109 26.6806ZM87.425 25.3729C87.4303 25.643 87.4043 26.1823 87.3896 26.3207C87.1703 28.6916 85.4912 29.8966 82.4117 29.8966C79.3201 29.8966 77.6396 28.6916 77.4217 26.3207C77.397 26.0063 77.3852 25.691 77.3863 25.3756V15.0753H81.0641V25.7003C81.0601 25.938 81.0721 26.1135 81.0955 26.2357C81.1409 26.472 81.3736 27.2388 82.4117 27.2388C83.4464 27.2388 83.679 26.4713 83.7278 26.2384C83.7485 26.1128 83.7612 25.9285 83.7612 25.6997V15.0753H87.425V25.3729V25.3729ZM103.27 29.3228H98.1529L94.7177 17.9241H94.6602L94.8508 29.3228H91.2839V15.0787H96.6161L99.7912 26.0284H99.8654L99.6776 15.0787H103.27V29.3228V29.3228Z" fill="#2D4F9E"/>
</g>
<defs>
<clipPath id="clip0">
<rect width="134.211" height="45" fill="white"/>
</clipPath>
</defs>
</svg>
