<svg width="107" height="45" viewBox="0 0 107 45" fill="none" xmlns="http://www.w3.org/2000/svg">
<path d="M48.5007 14.3896C42.6431 14.3896 37.8789 19.2395 37.8789 25.2024C37.8789 31.1654 42.6431 36.0152 48.5007 36.0152C51 36.0152 53.2649 35.1407 55.1393 33.6301V36.0152H59.2006V24.8844C59.0444 19.0805 54.2802 14.3896 48.5007 14.3896ZM48.5007 31.9604C44.8299 31.9604 41.8621 28.9392 41.8621 25.2024C41.8621 21.4657 44.8299 18.4444 48.5007 18.4444C52.1715 18.4444 55.1393 21.4657 55.1393 25.2024C55.1393 28.9392 52.1715 31.9604 48.5007 31.9604Z" fill="#3399CC"/>
<path d="M72.6345 14.3896C66.7769 14.3896 62.0127 19.2395 62.0127 25.2024C62.0127 31.1654 66.7769 36.0947 72.6345 36.0947C75.1338 36.0947 77.3987 35.2202 79.2731 33.7096V34.1071C79.2731 37.8439 76.3053 40.8651 72.6345 40.8651H70.6039V44.9994H72.6345C78.4921 44.9994 83.2563 40.1495 83.2563 34.1071V24.8844C83.1782 19.0805 78.414 14.3896 72.6345 14.3896ZM72.6345 31.9604C68.9637 31.9604 65.9959 28.9392 65.9959 25.2024C65.9959 21.4657 68.9637 18.4444 72.6345 18.4444C76.3053 18.4444 79.2731 21.4657 79.2731 25.2024C79.2731 28.9392 76.3053 31.9604 72.6345 31.9604Z" fill="#3399CC"/>
<path d="M93.253 31.9604L106.374 17.8879C106.921 17.2519 107.077 16.3773 106.765 15.6617C106.452 14.9462 105.749 14.3896 104.89 14.3896H87.4734V18.524H100.204L87.0829 32.5965C86.5362 33.2325 86.38 34.1071 86.6924 34.8227C87.0048 35.5382 87.7077 36.0947 88.5669 36.0947H106.921V31.9604H93.253V31.9604Z" fill="#3399CC"/>
<path d="M20.697 23.0574C20.0722 21.7853 18.7444 20.9902 17.3386 20.9902C15.9328 20.9902 14.6831 21.7853 13.9802 23.0574L13.1992 24.4885H21.3999L20.697 23.0574Z" fill="#3399CC"/>
<path d="M10.2313 30.291C9.68459 31.4041 8.59117 32.0401 7.34154 32.0401C5.54521 32.0401 4.06128 30.5295 4.06128 28.7009V14.5488H0V28.7009C0 32.8352 3.28026 36.1744 7.34154 36.1744C10.0751 36.1744 12.4962 34.6638 13.7459 32.2786L15.6984 28.5419L13.043 24.8846L10.2313 30.291Z" fill="#3399CC"/>
<path d="M30.6156 14.5488V28.7009C30.6156 30.5295 29.1317 32.0401 27.3354 32.0401C26.1638 32.0401 24.9923 31.4041 24.4456 30.291L21.5558 24.8051L18.9004 28.4624L20.8529 32.1991C22.1026 34.5843 24.6018 36.0949 27.2573 36.0949C31.3185 36.0949 34.5988 32.7557 34.5988 28.6214V14.5488H30.6156Z" fill="#3399CC"/>
<path d="M17.3388 35.6181C16.3235 35.6181 14.6053 35.0616 13.7462 34.6641C12.5747 35.9362 12.106 36.4927 10.7783 36.9697C12.5747 38.4803 14.8396 39.3549 17.3388 39.3549C19.8381 39.3549 22.103 38.4803 23.8994 36.9697C22.5717 36.3337 22.103 35.9362 21.0877 34.7436C20.2286 35.1411 18.3542 35.6181 17.3388 35.6181Z" fill="#3399CC"/>
<path d="M23.0404 20.5916L20.8535 18.286C23.1966 15.9008 27.0235 15.9008 29.3666 18.286L27.1797 20.5121C26.0082 19.399 24.1338 19.399 23.0404 20.5916Z" fill="#3399CC"/>
<path d="M11.6368 20.5916C10.4652 19.4785 8.66891 19.399 7.49739 20.5916L5.31055 18.286C7.65359 15.9008 11.4806 15.9008 13.8236 18.286L11.6368 20.5916Z" fill="#3399CC"/>
<path d="M33.1932 8.66614C31.7873 5.80393 28.2728 0 22.0246 0H19.994V8.66614H13.1211C11.7933 5.80393 8.27876 0 2.03064 0H0V12.8799H3.98318V4.45233C7.96636 5.96294 9.997 11.5283 10.0751 11.6079L10.5437 12.9595H13.1992H14.3707H24.0553V4.45233C28.0384 5.96294 29.991 11.4488 30.0691 11.6079C30.1472 11.9259 30.4596 12.9595 30.4596 12.9595H34.5209C34.5209 12.8799 34.4428 11.1308 33.1932 8.66614Z" fill="#3399CC"/>
</svg>
