<svg width="163" height="45" viewBox="0 0 163 45" fill="none" xmlns="http://www.w3.org/2000/svg">
<g opacity="0.5">
<path d="M5.21273 45H0.158203L10.7411 23.1338H15.4797L5.21273 45Z" fill="black"/>
<path d="M8.0559 45H6.31841L16.9013 23.1338H18.3229L8.0559 45Z" fill="black"/>
<path d="M10.8991 45H9.16158L19.7445 23.1338H21.1661L10.8991 45Z" fill="black"/>
<path d="M13.7422 45H12.0048L22.5877 23.1338H24.0093L13.7422 45Z" fill="black"/>
<path d="M27.3263 36.062L24.799 40.2118L19.4286 30.795L21.64 26.6452L27.3263 36.062Z" fill="black"/>
<path d="M26.2206 45H21.1661L31.749 23.1338H36.4876L26.2206 45Z" fill="black"/>
<path d="M29.0638 45H27.3263L37.9092 23.1338H39.3308L29.0638 45Z" fill="black"/>
<path d="M31.907 45H30.1695L40.7524 23.1338H42.174L31.907 45Z" fill="black"/>
<path d="M34.7501 45H33.0126L43.5956 23.1338H45.0171L34.7501 45Z" fill="black"/>
<path d="M50.5455 45H45.649L39.0379 32.5506L41.2493 28.4008L50.5455 45Z" fill="black"/>
</g>
<path d="M5.07042 0H0L10.6162 21.7077H15.3697L5.07042 0Z" fill="black"/>
<path d="M7.92254 0H6.17958L16.7958 21.7077H18.2218L7.92254 0Z" fill="black"/>
<path d="M10.7746 0H9.03169L19.6479 21.7077H21.0739L10.7746 0Z" fill="black"/>
<path d="M13.6268 0H11.8838L22.5 21.7077H23.9261L13.6268 0Z" fill="black"/>
<path d="M27.2535 8.87324L24.7183 4.75352L19.331 14.1021L21.5493 18.2218L27.2535 8.87324Z" fill="black"/>
<path d="M26.1444 0H21.0739L31.6901 21.7077H36.4437L26.1444 0Z" fill="black"/>
<path d="M28.9965 0H27.2535L37.8697 21.7077H39.2958L28.9965 0Z" fill="black"/>
<path d="M31.8486 0H30.1056L40.7218 21.7077H42.1479L31.8486 0Z" fill="black"/>
<path d="M34.7007 0H32.9577L43.5739 21.7077H45L34.7007 0Z" fill="black"/>
<path d="M50.5458 0H45.6338L39.002 12.3592L41.2203 16.4789L50.5458 0Z" fill="black"/>
<path d="M66.2349 14.9912L69.0249 25.1349H69.0927L71.205 14.9912H74.0968L70.6402 29.7887H67.8841L65.1731 20.0179H65.1166L62.3943 29.7887H59.6494L56.1816 14.9912H59.0846L61.2082 25.1236L61.276 25.1349L64.0435 14.9912H66.2349Z" fill="black"/>
<path d="M78.9201 14.9912V29.7887H75.9606V14.9912H78.9201Z" fill="black"/>
<path d="M87.3919 27.7781H87.4145C88.2127 27.7781 88.8265 27.6162 89.2557 27.2924C89.6925 26.961 89.9109 26.513 89.9109 25.9482C89.9109 25.3758 89.7113 24.9202 89.3122 24.5814C88.9206 24.235 88.2127 23.9074 87.1886 23.5986C85.3285 23.064 83.9693 22.4465 83.1108 21.7461C82.2598 21.0383 81.8344 20.0894 81.8344 18.8996C81.8344 17.7022 82.3502 16.7195 83.3819 15.9514C84.4136 15.1833 85.7352 14.7992 87.3467 14.7992C88.9658 14.7992 90.2874 15.2284 91.3116 16.0869C92.3357 16.9379 92.829 18.0072 92.7913 19.2949L92.78 19.3514H89.8996C89.8996 18.6511 89.6661 18.0938 89.1992 17.6796C88.7399 17.2655 88.1111 17.0584 87.3128 17.0584C86.5146 17.0584 85.8933 17.2316 85.449 17.578C85.0123 17.9168 84.7939 18.3536 84.7939 18.8883C84.7939 19.4154 85.016 19.8409 85.4603 20.1647C85.9122 20.481 86.7255 20.8236 87.9002 21.1926C89.5795 21.6595 90.8258 22.2695 91.6391 23.0225C92.46 23.7681 92.8704 24.7546 92.8704 25.982C92.8704 27.2095 92.3734 28.1923 91.3793 28.9303C90.3928 29.6607 89.0675 30.0259 87.4032 30.0259C86.3113 30.0259 85.3135 29.8452 84.4098 29.4837C83.5062 29.1148 82.7795 28.565 82.2297 27.8346C81.68 27.1041 81.4127 26.2569 81.4277 25.293L81.4503 25.2252H84.3307C84.3307 26.9271 85.3511 27.7781 87.3919 27.7781Z" fill="black"/>
<path d="M104.211 20.9893V23.2824H98.0777V27.507H105.251V29.7887H95.1069V14.9912H105.228V17.273H98.0777V20.9893H104.211Z" fill="black"/>
<path d="M115.982 14.9912L118.772 25.1349H118.839L120.952 14.9912H123.843L120.387 29.7887H117.631L114.92 20.0179H114.863L112.141 29.7887H109.396L105.928 14.9912H108.831L110.955 25.1236L111.023 25.1349L113.79 14.9912H115.982Z" fill="black"/>
<path d="M134.62 20.9893V23.2824H128.486V27.507H135.659V29.7887H125.515V14.9912H135.636V17.273H128.486V20.9893H134.62Z" fill="black"/>
<path d="M146.412 29.7887L145.407 26.592H140.211L139.206 29.7887H136.212L141.307 14.9912H144.345L149.417 29.7887H146.412ZM142.787 18.4477L140.945 24.2651H144.684L142.854 18.4477H142.787Z" fill="black"/>
<path d="M153.766 29.8H150.795V15.0025H156.387C158.081 15.0025 159.403 15.3866 160.351 16.1547C161.3 16.9228 161.775 17.9959 161.775 19.374C161.775 20.8726 160.988 21.9683 159.414 22.6611C161.056 23.1506 161.876 24.3253 161.876 26.1854V27.2811C161.876 27.7555 161.937 28.2073 162.057 28.6366C162.178 29.0583 162.362 29.3708 162.611 29.5741V29.7887H159.549C159.12 29.4423 158.906 28.5989 158.906 27.2585V26.208C158.906 25.47 158.702 24.8977 158.296 24.491C157.897 24.0768 157.328 23.8697 156.59 23.8697L153.766 23.881V29.8ZM153.766 17.273V21.588H156.33C157.987 21.588 158.815 20.8876 158.815 19.487C158.815 18.7942 158.608 18.252 158.194 17.8604C157.78 17.4688 157.177 17.273 156.387 17.273H153.766Z" fill="black"/>
</svg>
