<svg width="332" height="61" viewBox="0 0 332 61" fill="none" xmlns="http://www.w3.org/2000/svg">
<path d="M6.13625 60.1C7.28625 60.1 8.26625 59.69 8.91625 58.93L8.07625 58.13C7.56625 58.69 6.93625 58.96 6.20625 58.96C4.75625 58.96 3.70625 57.94 3.70625 56.5C3.70625 55.06 4.75625 54.04 6.20625 54.04C6.93625 54.04 7.56625 54.31 8.07625 54.86L8.91625 54.07C8.26625 53.31 7.28625 52.9 6.14625 52.9C3.99625 52.9 2.39625 54.41 2.39625 56.5C2.39625 58.59 3.99625 60.1 6.13625 60.1ZM15.0554 60H16.4154L13.2554 53H11.9754L8.82539 60H10.1654L10.8554 58.38H14.3554L15.0554 60ZM11.2954 57.36L12.6054 54.3L13.9254 57.36H11.2954ZM18.1741 60H19.4741V54.1H21.7941V53H15.8541V54.1H18.1741V60ZM30.0934 56.36C30.6334 56.07 30.9934 55.54 30.9934 54.82C30.9934 53.71 30.0934 53 28.4134 53H25.1334V60H28.6134C30.4134 60 31.3534 59.3 31.3534 58.1C31.3534 57.19 30.8434 56.6 30.0934 56.36ZM28.2734 54.02C29.1734 54.02 29.6834 54.34 29.6834 54.99C29.6834 55.63 29.1734 55.95 28.2734 55.95H26.4334V54.02H28.2734ZM28.5334 58.98H26.4334V56.96H28.5334C29.5134 56.96 30.0434 57.27 30.0434 57.97C30.0434 58.67 29.5134 58.98 28.5334 58.98ZM35.8108 60.1C37.9808 60.1 39.5808 58.58 39.5808 56.5C39.5808 54.42 37.9808 52.9 35.8108 52.9C33.6408 52.9 32.0408 54.43 32.0408 56.5C32.0408 58.57 33.6408 60.1 35.8108 60.1ZM35.8108 58.96C34.4008 58.96 33.3508 57.93 33.3508 56.5C33.3508 55.07 34.4008 54.04 35.8108 54.04C37.2208 54.04 38.2708 55.07 38.2708 56.5C38.2708 57.93 37.2208 58.96 35.8108 58.96ZM44.0287 60.1C46.1987 60.1 47.7987 58.58 47.7987 56.5C47.7987 54.42 46.1987 52.9 44.0287 52.9C41.8587 52.9 40.2587 54.43 40.2587 56.5C40.2587 58.57 41.8587 60.1 44.0287 60.1ZM44.0287 58.96C42.6187 58.96 41.5687 57.93 41.5687 56.5C41.5687 55.07 42.6187 54.04 44.0287 54.04C45.4387 54.04 46.4887 55.07 46.4887 56.5C46.4887 57.93 45.4387 58.96 44.0287 58.96ZM51.1467 60.1C53.0667 60.1 53.9767 59.14 53.9767 58.02C53.9767 55.45 49.8267 56.42 49.8267 54.93C49.8267 54.4 50.2667 53.98 51.3467 53.98C51.9567 53.98 52.6467 54.16 53.2767 54.53L53.6867 53.52C53.0767 53.12 52.1967 52.9 51.3567 52.9C49.4367 52.9 48.5367 53.86 48.5367 54.99C48.5367 57.59 52.6967 56.6 52.6967 58.11C52.6967 58.63 52.2367 59.02 51.1467 59.02C50.2867 59.02 49.3967 58.7 48.8367 58.25L48.3867 59.26C48.9667 59.76 50.0567 60.1 51.1467 60.1ZM56.3881 60H57.6881V54.1H60.0081V53H54.0681V54.1H56.3881V60Z" fill="#6D6B6C"/>
<path d="M229.158 18.6365L234.194 11.2954H239.363L231.508 22.1015L235.942 32.6726H231.185L228.38 25.2141L223.227 32.6726H218L226.031 21.6904L221.729 11.2954H226.428L229.158 18.6365Z" fill="#25A0DB"/>
<path d="M254.324 29.9711C253.561 30.9401 252.44 31.6889 250.962 32.2175C249.494 32.7362 247.835 32.9809 245.985 32.9516C244.526 32.9418 243.244 32.6237 242.138 31.9972C241.032 31.361 240.161 30.4507 239.525 29.2664C238.888 28.082 238.526 26.7312 238.438 25.2141C238.34 23.8046 238.487 22.1504 238.879 20.2515C239.28 18.3428 239.96 16.6739 240.919 15.2449C241.888 13.806 243.048 12.7342 244.399 12.0295C245.75 11.315 247.247 10.9724 248.892 11.0017C251.124 11.0409 252.871 11.6722 254.133 12.8957C255.396 14.1095 256.115 15.8517 256.292 18.1226L252.151 18.1079C252.044 16.9138 251.726 16.0328 251.197 15.4651C250.668 14.8974 249.88 14.594 248.833 14.5548C247.022 14.4961 245.593 15.2938 244.546 16.948C243.508 18.5924 242.916 20.9807 242.769 24.1129C242.672 25.7867 242.926 27.0836 243.533 28.0037C244.15 28.9238 245.084 29.3936 246.337 29.4132C247.796 29.4523 249.039 29.1048 250.066 28.3707L250.786 24.6855H246.88L247.453 21.4408H255.616L254.324 29.9711Z" fill="#25A0DB"/>
<path d="M256.615 32.6726L260.33 11.2954L266.996 11.3101C269.472 11.3199 271.332 11.8239 272.575 12.8223C273.818 13.8207 274.381 15.2253 274.263 17.0361C274.126 19.1993 272.878 20.7801 270.519 21.7784C271.371 22.0721 272.032 22.6251 272.501 23.4375C272.971 24.2402 273.172 25.1896 273.103 26.2859C272.966 28.3022 272.173 29.8732 270.725 30.9988C269.286 32.1147 267.319 32.6726 264.823 32.6726H256.615ZM262.547 23.3641L261.534 29.1342L264.925 29.1489C265.982 29.1489 266.868 28.8895 267.583 28.3707C268.297 27.8422 268.723 27.1325 268.86 26.2418C268.997 25.3609 268.875 24.6757 268.493 24.1863C268.121 23.6871 267.49 23.418 266.599 23.3788L262.547 23.3641ZM263.075 20.2515L265.997 20.2809C267.084 20.2613 267.969 20.0068 268.655 19.5174C269.35 19.028 269.766 18.3477 269.903 17.4766C270.147 15.7539 269.242 14.8876 267.186 14.8778L264.015 14.8631L263.075 20.2515Z" fill="#25A0DB"/>
<path d="M283.602 16.4929C285.001 16.5124 286.205 16.8746 287.213 17.5793C288.231 18.2743 288.975 19.2384 289.445 20.4717C289.925 21.6952 290.096 23.0558 289.959 24.5534C289.734 27.0787 288.853 29.1244 287.316 30.6905C285.789 32.2468 283.9 33.0054 281.649 32.9663C280.269 32.9467 279.075 32.5943 278.067 31.9091C277.058 31.2142 276.314 30.2549 275.835 29.0314C275.355 27.8079 275.184 26.4572 275.321 24.9792C275.575 22.3559 276.466 20.2711 277.993 18.7246C279.52 17.178 281.39 16.4341 283.602 16.4929ZM279.417 26.4914C279.437 27.4311 279.657 28.175 280.078 28.7231C280.499 29.2615 281.091 29.5404 281.854 29.56C283.127 29.5991 284.125 29.0168 284.85 27.8128C285.574 26.5991 285.912 25.0085 285.863 23.0411C285.824 22.1015 285.594 21.3527 285.173 20.7947C284.762 20.227 284.169 19.9334 283.396 19.9138C282.163 19.8747 281.174 20.4571 280.43 21.661C279.696 22.8551 279.359 24.4653 279.417 26.4914Z" fill="#25A0DB"/>
<path d="M299.65 16.4929C301.05 16.5124 302.254 16.8746 303.262 17.5793C304.28 18.2743 305.024 19.2384 305.493 20.4717C305.973 21.6952 306.144 23.0558 306.007 24.5534C305.782 27.0787 304.901 29.1244 303.364 30.6905C301.838 32.2468 299.948 33.0054 297.697 32.9663C296.317 32.9467 295.123 32.5943 294.115 31.9091C293.107 31.2142 292.363 30.2549 291.883 29.0314C291.403 27.8079 291.232 26.4572 291.369 24.9792C291.624 22.3559 292.514 20.2711 294.041 18.7246C295.568 17.178 297.438 16.4341 299.65 16.4929ZM295.465 26.4914C295.485 27.4311 295.705 28.175 296.126 28.7231C296.547 29.2615 297.139 29.5404 297.903 29.56C299.175 29.5991 300.174 29.0168 300.898 27.8128C301.622 26.5991 301.96 25.0085 301.911 23.0411C301.872 22.1015 301.642 21.3527 301.221 20.7947C300.81 20.227 300.218 19.9334 299.444 19.9138C298.211 19.8747 297.222 20.4571 296.479 21.661C295.744 22.8551 295.407 24.4653 295.465 26.4914Z" fill="#25A0DB"/>
<path d="M315.816 28.1946C315.972 27.4115 315.429 26.8438 314.186 26.4914L312.85 26.1537C309.688 25.2826 308.151 23.7459 308.24 21.5435C308.288 20.046 308.949 18.8273 310.222 17.8877C311.504 16.9382 313.045 16.4733 314.846 16.4929C316.638 16.5124 318.086 16.9872 319.192 17.917C320.298 18.8469 320.861 20.0851 320.881 21.6316L316.77 21.6169C316.789 20.2564 316.114 19.5663 314.744 19.5468C314.098 19.5468 313.535 19.7083 313.055 20.0313C312.585 20.3543 312.297 20.7898 312.189 21.338C312.042 22.121 312.634 22.6741 313.966 22.9971L314.553 23.1292C315.904 23.4522 316.936 23.8242 317.651 24.2451C318.365 24.6562 318.913 25.17 319.295 25.7867C319.687 26.4033 319.868 27.1423 319.838 28.0037C319.809 29.0119 319.481 29.8928 318.855 30.6465C318.238 31.4002 317.387 31.9826 316.3 32.3937C315.223 32.8048 314.088 32.9956 312.894 32.9663C311.132 32.9467 309.664 32.4426 308.489 31.454C307.315 30.4556 306.717 29.1685 306.698 27.5926L310.603 27.622C310.643 29.1391 311.455 29.9075 313.041 29.927C313.804 29.927 314.431 29.7704 314.92 29.4572C315.419 29.144 315.718 28.7231 315.816 28.1946Z" fill="#25A0DB"/>
<path d="M329.559 12.8811L328.869 16.7865H331.511L330.968 19.8991H328.325L326.975 27.8569C326.916 28.3561 326.955 28.7378 327.092 29.0021C327.229 29.2664 327.562 29.4083 328.09 29.4279C328.247 29.4376 328.668 29.4132 329.353 29.3544L329.059 32.5992C328.325 32.8439 327.532 32.9565 326.681 32.9369C325.32 32.9173 324.307 32.4915 323.642 31.6595C322.976 30.8276 322.702 29.7019 322.82 28.2826L324.185 19.8991H321.939L322.482 16.7865H324.728L325.404 12.8811H329.559Z" fill="#25A0DB"/>
<path d="M44.9763 0H7V45.0417H45.5062L57.8706 22.6092L44.9763 0Z" fill="#FFCC00"/>
<path fill-rule="evenodd" clip-rule="evenodd" d="M26.616 28.1347L19.374 21.9525L20.0621 21.1465L27.3041 27.3287L26.616 28.1347Z" fill="white"/>
<path d="M21.1308 19.7837C21.1308 21.7347 19.5492 23.3163 17.5981 23.3163C15.6471 23.3163 14.0654 21.7347 14.0654 19.7837C14.0654 17.8326 15.6471 16.251 17.5981 16.251C19.5492 16.251 21.1308 17.8326 21.1308 19.7837Z" fill="white"/>
<path fill-rule="evenodd" clip-rule="evenodd" d="M33.5038 27.1961L40.734 21L41.4236 21.8048L34.1934 28.0008L33.5038 27.1961Z" fill="white"/>
<path d="M42.6041 23.0719C40.6767 22.7695 39.3594 20.9617 39.6618 19.0343C39.9643 17.1068 41.772 15.7895 43.6995 16.092C45.6269 16.3944 46.9443 18.2022 46.6418 20.1296C46.3393 22.0571 44.5316 23.3744 42.6041 23.0719Z" fill="white"/>
<path fill-rule="evenodd" clip-rule="evenodd" d="M27.8737 29.6485L24.952 16.5357L25.9864 16.3053L28.9082 29.418L27.8737 29.6485Z" fill="white"/>
<path d="M28.5607 15.628C26.9058 17.8278 23.7811 18.2696 21.5813 16.6148C19.3815 14.96 18.9397 11.8352 20.5945 9.63541C22.2493 7.43562 25.3741 6.99384 27.5739 8.64865C29.7737 10.3035 30.2155 13.4282 28.5607 15.628Z" fill="white"/>
<path fill-rule="evenodd" clip-rule="evenodd" d="M30.5314 29.1485L34.2028 16.2255L35.2223 16.5152L31.5508 29.4381L30.5314 29.1485Z" fill="#FF2800"/>
<path d="M37.8075 17.1436C35.3051 18.2906 32.3467 17.1919 31.1996 14.6896C30.0526 12.1872 31.1513 9.22882 33.6537 8.08178C36.156 6.93474 39.1144 8.03344 40.2615 10.5358C41.4085 13.0382 40.3098 15.9966 37.8075 17.1436Z" fill="#FF2800"/>
<path d="M37.7345 31.2642C37.7345 35.459 34.334 38.8595 30.1392 38.8595C25.9445 38.8595 22.5439 35.459 22.5439 31.2642C22.5439 27.0695 25.9445 23.6689 30.1392 23.6689C34.334 23.6689 37.7345 27.0695 37.7345 31.2642Z" fill="white"/>
<path d="M93.2458 53H90.3658V60H91.6658V57.98H93.2458C95.0858 57.98 96.2258 57.03 96.2258 55.49C96.2258 53.94 95.0858 53 93.2458 53ZM93.1858 56.88H91.6658V54.1H93.1858C94.3258 54.1 94.9158 54.61 94.9158 55.49C94.9158 56.37 94.3258 56.88 93.1858 56.88ZM103.084 53H101.804L99.734 56.41L97.684 53H96.294L99.044 57.55V60H100.344V57.53L103.084 53ZM105.058 60H106.358V54.1H108.678V53H102.738V54.1H105.058V60ZM114.373 53V55.89H110.753V53H109.453V60H110.753V57H114.373V60H115.673V53H114.373ZM120.619 60.1C122.789 60.1 124.389 58.58 124.389 56.5C124.389 54.42 122.789 52.9 120.619 52.9C118.449 52.9 116.849 54.43 116.849 56.5C116.849 58.57 118.449 60.1 120.619 60.1ZM120.619 58.96C119.209 58.96 118.159 57.93 118.159 56.5C118.159 55.07 119.209 54.04 120.619 54.04C122.029 54.04 123.079 55.07 123.079 56.5C123.079 57.93 122.029 58.96 120.619 58.96ZM130.497 53V57.74L126.637 53H125.567V60H126.857V55.26L130.717 60H131.787V53H130.497ZM136.026 60H140.986V58.9H137.326V53H136.026V60ZM141.813 60H143.113V53H141.813V60ZM149.766 56.36C150.306 56.07 150.666 55.54 150.666 54.82C150.666 53.71 149.766 53 148.086 53H144.806V60H148.286C150.086 60 151.026 59.3 151.026 58.1C151.026 57.19 150.516 56.6 149.766 56.36ZM147.946 54.02C148.846 54.02 149.356 54.34 149.356 54.99C149.356 55.63 148.846 55.95 147.946 55.95H146.106V54.02H147.946ZM148.206 58.98H146.106V56.96H148.206C149.186 56.96 149.716 57.27 149.716 57.97C149.716 58.67 149.186 58.98 148.206 58.98ZM158.193 60L156.583 57.7C157.533 57.33 158.073 56.55 158.073 55.49C158.073 53.94 156.933 53 155.093 53H152.213V60H153.513V57.96H155.093C155.183 57.96 155.273 57.96 155.363 57.95L156.793 60H158.193ZM156.763 55.49C156.763 56.37 156.173 56.89 155.033 56.89H153.513V54.1H155.033C156.173 54.1 156.763 54.61 156.763 55.49ZM164.568 60H165.928L162.768 53H161.488L158.338 60H159.678L160.368 58.38H163.868L164.568 60ZM160.808 57.36L162.118 54.3L163.438 57.36H160.808ZM172.598 60L170.988 57.7C171.938 57.33 172.478 56.55 172.478 55.49C172.478 53.94 171.338 53 169.498 53H166.618V60H167.918V57.96H169.498C169.588 57.96 169.678 57.96 169.768 57.95L171.198 60H172.598ZM171.168 55.49C171.168 56.37 170.578 56.89 169.438 56.89H167.918V54.1H169.438C170.578 54.1 171.168 54.61 171.168 55.49ZM173.733 60H175.033V53H173.733V60ZM178.026 58.91V56.98H181.406V55.91H178.026V54.09H181.836V53H176.726V60H181.976V58.91H178.026ZM185.395 60.1C187.315 60.1 188.225 59.14 188.225 58.02C188.225 55.45 184.075 56.42 184.075 54.93C184.075 54.4 184.515 53.98 185.595 53.98C186.205 53.98 186.895 54.16 187.525 54.53L187.935 53.52C187.325 53.12 186.445 52.9 185.605 52.9C183.685 52.9 182.785 53.86 182.785 54.99C182.785 57.59 186.945 56.6 186.945 58.11C186.945 58.63 186.485 59.02 185.395 59.02C184.535 59.02 183.645 58.7 183.085 58.25L182.635 59.26C183.215 59.76 184.305 60.1 185.395 60.1Z" fill="#6D6B6C"/>
<path d="M138.929 3.00032C137.349 3.00762 135.84 3.14242 134.513 3.37752C130.602 4.06872 129.892 5.51562 129.892 8.18382V11.7078H139.134V12.8824H129.892H126.424C123.738 12.8824 121.386 14.4976 120.651 17.5702C119.802 21.0922 119.764 23.2902 120.651 26.9672C121.308 29.7052 122.876 31.6552 125.562 31.6552H128.74V27.4312C128.74 24.3792 131.379 21.6872 134.513 21.6872H143.744C146.313 21.6872 148.364 19.5702 148.364 16.9883V8.18382C148.364 5.67802 146.252 3.79572 143.744 3.37752C142.156 3.11312 140.509 2.99292 138.929 3.00032ZM133.931 5.83452C134.886 5.83452 135.665 6.62722 135.665 7.60192C135.665 8.57312 134.886 9.35852 133.931 9.35852C132.973 9.35852 132.197 8.57312 132.197 7.60192C132.197 6.62722 132.973 5.83452 133.931 5.83452Z" fill="url(#paint0_linear)"/>
<path d="M149.514 12.8828V16.9887C149.514 20.1716 146.817 22.8516 143.741 22.8516H134.51C131.981 22.8516 129.889 25.0166 129.889 27.5496V36.3546C129.889 38.8596 132.067 40.3336 134.51 41.0526C137.435 41.9136 140.241 42.0686 143.741 41.0526C146.067 40.3786 148.361 39.0226 148.361 36.3546V32.8306H139.131V31.6556H148.361H152.982C155.668 31.6556 156.669 29.7816 157.603 26.9676C158.568 24.0716 158.527 21.2866 157.603 17.5706C156.939 14.8954 155.671 12.8828 152.982 12.8828H149.514ZM144.322 35.1796C145.28 35.1796 146.056 35.9646 146.056 36.9366C146.056 37.9106 145.28 38.7036 144.322 38.7036C143.368 38.7036 142.588 37.9106 142.588 36.9366C142.588 35.9646 143.368 35.1796 144.322 35.1796Z" fill="url(#paint1_linear)"/>
<defs>
<linearGradient id="paint0_linear" x1="120" y1="3.00002" x2="141.319" y2="21.1572" gradientUnits="userSpaceOnUse">
<stop stop-color="#5A9FD4"/>
<stop offset="1" stop-color="#306998"/>
</linearGradient>
<linearGradient id="paint1_linear" x1="144.1" y1="36.6396" x2="136.45" y2="25.9246" gradientUnits="userSpaceOnUse">
<stop stop-color="#FFD43B"/>
<stop offset="1" stop-color="#FFE873"/>
</linearGradient>
</defs>
</svg>
