<svg width="346" height="64" viewBox="0 0 346 64" fill="none" xmlns="http://www.w3.org/2000/svg">
<path d="M254.777 14.9044H247.819V32.7448H250.368V27.3417H254.777C259.416 27.3417 262.219 24.997 262.219 21.1231C262.219 17.2492 259.416 14.9044 254.777 14.9044ZM254.701 25.1244H250.368V17.1217H254.701C257.963 17.1217 259.67 18.5744 259.67 21.1231C259.67 23.6717 257.963 25.1244 254.701 25.1244Z" fill="black"/>
<path d="M275.239 19.2371L270.575 30.0433L265.86 19.2371H263.311L269.275 32.7194L268.842 33.6623C268.179 35.217 267.44 35.7522 266.267 35.7522C265.35 35.7522 264.509 35.3954 263.846 34.7583L262.801 36.5933C263.642 37.4088 264.968 37.8421 266.267 37.8421C268.332 37.8421 269.887 36.9501 271.084 34.0956L277.634 19.2371H275.239Z" fill="black"/>
<path d="M282.797 32.7448H285.32V17.1217H291.437V14.9044H276.68V17.1217H282.797V32.7448Z" fill="black"/>
<path d="M298.247 32.8978C302.3 32.8978 305.256 30.0178 305.256 25.991C305.256 21.9641 302.3 19.1097 298.247 19.1097C294.195 19.1097 291.213 21.9641 291.213 25.991C291.213 30.0178 294.195 32.8978 298.247 32.8978ZM298.247 30.7569C295.648 30.7569 293.685 28.8709 293.685 25.991C293.685 23.111 295.648 21.2505 298.247 21.2505C300.847 21.2505 302.784 23.111 302.784 25.991C302.784 28.8709 300.847 30.7569 298.247 30.7569Z" fill="black"/>
<path d="M310.984 21.5054V19.2371H308.64V32.7448H311.086V26.0164C311.086 23.06 312.717 21.4544 315.343 21.4544C315.521 21.4544 315.699 21.4544 315.903 21.4799V19.1097C313.533 19.1097 311.851 19.9252 310.984 21.5054Z" fill="black"/>
<path d="M324.682 32.8978C327.103 32.8978 329.116 31.8783 330.187 29.9923L328.326 28.8199C327.46 30.1452 326.134 30.7569 324.656 30.7569C322.006 30.7569 320.018 28.9219 320.018 25.991C320.018 23.111 322.006 21.2505 324.656 21.2505C326.134 21.2505 327.46 21.8622 328.326 23.1875L330.187 21.9896C329.116 20.1036 327.103 19.1097 324.682 19.1097C320.527 19.1097 317.546 21.9641 317.546 25.991C317.546 30.0178 320.527 32.8978 324.682 32.8978Z" fill="black"/>
<path d="M340.393 19.1097C338.328 19.1097 336.646 19.8488 335.627 21.1486V13.834H333.18V32.7448H335.627V25.7871C335.627 22.8561 337.309 21.3015 339.909 21.3015C342.228 21.3015 343.553 22.6013 343.553 25.2519V32.7448H346V24.9715C346 20.9956 343.681 19.1097 340.393 19.1097Z" fill="black"/>
<path d="M229.144 16.8449C230.555 18.8831 231.476 20.9742 231.476 22.8883C231.476 27.5117 227.728 31.2596 223.105 31.2596C218.481 31.2596 214.733 27.5117 214.733 22.8883C214.733 21.6589 215.198 20.2011 216.115 18.5796C217.019 16.9792 218.263 15.3974 219.569 13.9711C220.842 12.5796 222.125 11.3908 223.105 10.539V7C223.105 7 212 15.3713 212 22.8883C212 29.0213 216.972 33.9931 223.105 33.9931C229.238 33.9931 234.21 29.0213 234.21 22.8883C234.21 20.0627 232.834 17.2583 231.052 14.81L229.144 16.8449Z" fill="#EE4C2C"/>
<circle cx="227.205" cy="12.2964" r="1.53758" fill="#EE4C2C"/>
<path fill-rule="evenodd" clip-rule="evenodd" d="M24.2931 7.70705C21.8672 7.70705 19.8643 9.69186 19.8643 12.1853C19.8643 13.8491 20.7585 15.2966 22.0892 16.0712L18.6815 21.9251C15.34 19.9799 13.0908 16.3439 13.0908 12.1853C13.0908 5.99136 18.0861 0.933594 24.2931 0.933594C30.5 0.933594 35.4953 5.99136 35.4953 12.1853C35.4953 16.3439 33.2461 19.9799 29.9047 21.9251L26.497 16.0712C27.8277 15.2966 28.7219 13.8491 28.7219 12.1853C28.7219 9.69186 26.7189 7.70705 24.2931 7.70705Z" fill="#FF0101"/>
<path fill-rule="evenodd" clip-rule="evenodd" d="M7.36366 36.7618C8.57658 38.8626 11.297 39.6048 13.4564 38.3581C14.8973 37.5262 15.7037 36.028 15.7092 34.4883L22.4826 34.5125C22.4688 38.3789 20.4445 42.1448 16.8431 44.224C11.479 47.321 4.60116 45.5239 1.49768 40.1485C-1.6058 34.7731 0.276703 27.9182 5.64085 24.8212C9.24224 22.7419 13.5157 22.8717 16.871 24.7929L13.5053 30.671C12.1691 29.9059 10.4685 29.8553 9.02758 30.6872C6.86816 31.9339 6.15075 34.6609 7.36366 36.7618Z" fill="#01FF01"/>
<path fill-rule="evenodd" clip-rule="evenodd" d="M36.798 38.8586C39.2238 38.8586 41.2268 36.8738 41.2268 34.3804C41.2268 32.7165 40.3326 31.2691 39.0019 30.4945L42.4096 24.6406C45.751 26.5858 48.0002 30.2218 48.0002 34.3804C48.0002 40.5743 43.0049 45.6321 36.798 45.6321C30.591 45.6321 25.5957 40.5743 25.5957 34.3804C25.5957 30.2218 27.8449 26.5858 31.1863 24.6406L34.594 30.4945C33.2633 31.2691 32.3692 32.7166 32.3692 34.3804C32.3692 36.8738 34.3721 38.8586 36.798 38.8586Z" fill="#0101FF"/>
<path d="M4.99164 61.1C7.16164 61.1 8.76164 59.58 8.76164 57.5C8.76164 55.42 7.16164 53.9 4.99164 53.9C2.82164 53.9 1.22164 55.43 1.22164 57.5C1.22164 59.57 2.82164 61.1 4.99164 61.1ZM4.99164 59.96C3.58164 59.96 2.53164 58.93 2.53164 57.5C2.53164 56.07 3.58164 55.04 4.99164 55.04C6.40164 55.04 7.45164 56.07 7.45164 57.5C7.45164 58.93 6.40164 59.96 4.99164 59.96ZM12.8196 54H9.93961V61H11.2396V58.98H12.8196C14.6596 58.98 15.7996 58.03 15.7996 56.49C15.7996 54.94 14.6596 54 12.8196 54ZM12.7596 57.88H11.2396V55.1H12.7596C13.8996 55.1 14.4896 55.61 14.4896 56.49C14.4896 57.37 13.8996 57.88 12.7596 57.88ZM18.1978 59.91V57.98H21.5778V56.91H18.1978V55.09H22.0078V54H16.8978V61H22.1478V59.91H18.1978ZM28.327 54V58.74L24.467 54H23.397V61H24.687V56.26L28.547 61H29.617V54H28.327ZM37.0964 61.1C38.2464 61.1 39.2264 60.69 39.8764 59.93L39.0364 59.13C38.5264 59.69 37.8964 59.96 37.1664 59.96C35.7164 59.96 34.6664 58.94 34.6664 57.5C34.6664 56.06 35.7164 55.04 37.1664 55.04C37.8964 55.04 38.5264 55.31 39.0364 55.86L39.8764 55.07C39.2264 54.31 38.2464 53.9 37.1064 53.9C34.9564 53.9 33.3564 55.41 33.3564 57.5C33.3564 59.59 34.9564 61.1 37.0964 61.1ZM45.9732 54L43.6232 59.4L41.2932 54H39.8832L42.9432 61H44.2232L47.2732 54H45.9732Z" fill="#6D6B6C"/>
<path d="M134 6.92285V13.8456L146.001 20.7684V13.8456L134 6.92285ZM110 13.8456V20.7684L116 24.2298V17.307L110 13.8456ZM128 17.307L121.999 20.7684V41.5368L128 45V31.1544L134 34.6158V27.693L128 24.2316V17.307Z" fill="#E55B2D"/>
<path d="M134 6.92285L116 17.307V24.2298L128.001 17.307V24.2298L134.001 20.7684V6.92285H134ZM152 10.3842L145.999 13.8456V20.7684L152 17.307V10.3842ZM140 24.2316L134 27.693V34.6158L140 31.1544V24.2316ZM134 34.6158L127.999 31.1544V45L134 41.5386V34.6158Z" fill="#ED8E24"/>
<path d="M134 0L110 13.8456L116 17.307L134 6.9228L146.001 13.8456L152.002 10.3842L134 0ZM134 20.7684L128 24.2298L134 27.6912L140.001 24.2298L134 20.7684Z" fill="#F8BF3C"/>
<path d="M97.4167 61.0004H98.7167V55.1004H101.037V54.0004H95.0967V55.1004H97.4167V61.0004ZM103.112 59.9104V57.9804H106.492V56.9104H103.112V55.0904H106.922V54.0004H101.812V61.0004H107.062V59.9104H103.112ZM113.242 54.0004V58.7404L109.382 54.0004H108.312V61.0004H109.602V56.2604L113.462 61.0004H114.532V54.0004H113.242ZM118.377 61.1004C120.297 61.1004 121.207 60.1404 121.207 59.0204C121.207 56.4504 117.057 57.4204 117.057 55.9304C117.057 55.4004 117.497 54.9804 118.577 54.9804C119.187 54.9804 119.877 55.1604 120.507 55.5304L120.917 54.5204C120.307 54.1204 119.427 53.9004 118.587 53.9004C116.667 53.9004 115.767 54.8604 115.767 55.9904C115.767 58.5904 119.927 57.6004 119.927 59.1104C119.927 59.6304 119.467 60.0204 118.377 60.0204C117.517 60.0204 116.627 59.7004 116.067 59.2504L115.617 60.2604C116.197 60.7604 117.287 61.1004 118.377 61.1004ZM125.566 61.1004C127.736 61.1004 129.336 59.5804 129.336 57.5004C129.336 55.4204 127.736 53.9004 125.566 53.9004C123.396 53.9004 121.796 55.4304 121.796 57.5004C121.796 59.5704 123.396 61.1004 125.566 61.1004ZM125.566 59.9604C124.156 59.9604 123.106 58.9304 123.106 57.5004C123.106 56.0704 124.156 55.0404 125.566 55.0404C126.976 55.0404 128.026 56.0704 128.026 57.5004C128.026 58.9304 126.976 59.9604 125.566 59.9604ZM136.494 61.0004L134.884 58.7004C135.834 58.3304 136.374 57.5504 136.374 56.4904C136.374 54.9404 135.234 54.0004 133.394 54.0004H130.514V61.0004H131.814V58.9604H133.394C133.484 58.9604 133.574 58.9604 133.664 58.9504L135.094 61.0004H136.494ZM135.064 56.4904C135.064 57.3704 134.474 57.8904 133.334 57.8904H131.814V55.1004H133.334C134.474 55.1004 135.064 55.6104 135.064 56.4904ZM142.739 55.0904V54.0004H137.629V61.0004H138.929V58.3204H142.309V57.2204H138.929V55.0904H142.739ZM143.796 61.0004H148.756V59.9004H145.096V54.0004H143.796V61.0004ZM152.725 61.1004C154.895 61.1004 156.495 59.5804 156.495 57.5004C156.495 55.4204 154.895 53.9004 152.725 53.9004C150.555 53.9004 148.955 55.4304 148.955 57.5004C148.955 59.5704 150.555 61.1004 152.725 61.1004ZM152.725 59.9604C151.315 59.9604 150.265 58.9304 150.265 57.5004C150.265 56.0704 151.315 55.0404 152.725 55.0404C154.135 55.0404 155.185 56.0704 155.185 57.5004C155.185 58.9304 154.135 59.9604 152.725 59.9604ZM166.439 54.0004L164.649 59.3504L162.879 54.0004H161.679L159.869 59.3204L158.129 54.0004H156.779L159.099 61.0004H160.489L162.249 55.8204L163.979 61.0004H165.359L167.679 54.0004H166.439Z" fill="#6D6B6C"/>
</svg>
