<svg width="240" height="139" viewBox="0 0 240 139" fill="none" xmlns="http://www.w3.org/2000/svg">
<circle cx="45" cy="45" r="44" stroke="#383838" stroke-width="2"/>
<path d="M43.75 36.2308L47 32.4984L37.612 27H35.9595L21.8204 35.281L21 36.7191V53.281L21.8204 54.7191L35.9595 63H37.612L47 57.5016L40.5 50.5385V44.5385V36.7191L43.75 36.2308ZM39.1071 51L43.75 55.561L36.7857 59.6399L24.2934 52.3234V37.6766L36.7857 30.3601L43.75 34.439L39.1071 39.4615V51Z" fill="#383838"/>
<path d="M68.9186 31.2872C68.9112 30.9197 68.6602 30.7118 68.3812 30.609L55.1966 27.1666C54.8864 27.089 54.5564 27 54.2476 27C53.9374 27 53.6442 27.0665 53.3808 27.1913L53.0596 27.3772L40.4435 34.7058C40.4017 34.7338 40.3613 34.7641 40.321 34.7943C38.352 36.0925 38 37.4769 38 39.0214V53.5373C38 54.2779 38.3937 54.9268 38.9852 55.2851L38.999 55.2939L51.6917 62.6165C51.8294 62.7 51.9923 62.7482 52.1648 62.7482C52.6687 62.7482 53.0775 62.3402 53.0775 61.8387V47.1576C53.0775 46.4533 52.7201 45.8329 52.1772 45.4653L51.8936 45.3043L41.6067 39.5033C40.8152 39.0357 40.744 38.1207 40.9808 37.5714C41.3218 36.7863 42.1578 36.6349 42.7392 36.7767L53.4437 39.5189C53.8039 39.6019 54.0627 39.6767 54.3871 39.6767C54.7152 39.6767 55.0254 39.6005 55.3012 39.4633L55.4847 39.3592L68.3693 32.093C68.6038 31.9292 68.9268 31.652 68.9186 31.2872ZM69.6321 36.6197L66.4586 34.8737L63.9183 36.3453C63.9183 36.3453 66.8316 37.9514 67.3226 38.284C67.9169 38.686 67.6828 39.277 67.2905 39.4978L56.9967 45.3047L56.7173 45.4617C56.7159 45.463 56.714 45.4644 56.7127 45.4658C56.1685 45.8334 55.8128 46.4533 55.8128 47.1581V61.8382C55.8128 62.3402 56.2203 62.7477 56.7237 62.7477C56.8811 62.7477 57.0297 62.7073 57.1591 62.6371C57.1715 62.6312 57.1844 62.6243 57.1968 62.616L69.885 55.2957L69.9029 55.2851C70.493 54.9272 70.8876 54.2784 70.8876 53.5373V39.0219C70.8885 37.7554 70.5742 37.1497 69.6321 36.6197Z" fill="#383838"/>
<path d="M14.5402 133H13.3214V123.758H14.5402V133ZM17.5713 126.132L17.6094 126.995C18.1342 126.335 18.8197 126.005 19.6661 126.005C21.1176 126.005 21.8496 126.824 21.8623 128.461V133H20.688V128.455C20.6838 127.96 20.5695 127.594 20.3453 127.357C20.1252 127.12 19.7803 127.001 19.3106 127.001C18.9297 127.001 18.5954 127.103 18.3077 127.306C18.0199 127.509 17.7956 127.776 17.6348 128.106V133H16.4605V126.132H17.5713ZM23.2177 129.509C23.2177 128.455 23.4674 127.609 23.9667 126.97C24.4661 126.326 25.1199 126.005 25.9281 126.005C26.7322 126.005 27.3691 126.28 27.8388 126.83V123.25H29.0131V133H27.934L27.8769 132.264C27.4071 132.839 26.7533 133.127 25.9154 133.127C25.1199 133.127 24.4703 132.801 23.9667 132.149C23.4674 131.498 23.2177 130.647 23.2177 129.598V129.509ZM24.392 129.642C24.392 130.421 24.5528 131.03 24.8744 131.47C25.196 131.91 25.6404 132.13 26.2074 132.13C26.9522 132.13 27.496 131.796 27.8388 131.127V127.973C27.4876 127.325 26.948 127.001 26.2201 127.001C25.6446 127.001 25.196 127.224 24.8744 127.668C24.5528 128.112 24.392 128.77 24.392 129.642ZM34.9515 132.321C34.4944 132.858 33.8237 133.127 32.9393 133.127C32.2072 133.127 31.6486 132.915 31.2635 132.492C30.8826 132.065 30.6901 131.434 30.6858 130.601V126.132H31.8602V130.569C31.8602 131.61 32.2833 132.13 33.1297 132.13C34.0268 132.13 34.6235 131.796 34.9197 131.127V126.132H36.094V133H34.9769L34.9515 132.321ZM41.7531 131.178C41.7531 130.861 41.6325 130.615 41.3913 130.442C41.1543 130.264 40.7375 130.112 40.1408 129.985C39.5484 129.858 39.0765 129.706 38.7253 129.528C38.3783 129.35 38.1201 129.139 37.9509 128.893C37.7858 128.648 37.7033 128.356 37.7033 128.017C37.7033 127.454 37.9403 126.978 38.4142 126.589C38.8924 126.2 39.5018 126.005 40.2424 126.005C41.021 126.005 41.6515 126.206 42.134 126.608C42.6206 127.01 42.8639 127.524 42.8639 128.15H41.6833C41.6833 127.829 41.5457 127.552 41.2707 127.319C40.9998 127.086 40.6571 126.97 40.2424 126.97C39.815 126.97 39.4806 127.063 39.2394 127.249C38.9982 127.435 38.8776 127.679 38.8776 127.979C38.8776 128.263 38.9898 128.476 39.214 128.62C39.4383 128.764 39.8425 128.902 40.4264 129.033C41.0147 129.164 41.4907 129.32 41.8547 129.502C42.2186 129.684 42.4873 129.904 42.6608 130.163C42.8386 130.417 42.9274 130.728 42.9274 131.096C42.9274 131.709 42.682 132.202 42.1911 132.575C41.7002 132.943 41.0633 133.127 40.2804 133.127C39.7303 133.127 39.2437 133.03 38.8205 132.835C38.3973 132.64 38.0651 132.369 37.8239 132.022C37.5869 131.671 37.4684 131.292 37.4684 130.886H38.6428C38.6639 131.28 38.8205 131.593 39.1125 131.826C39.4087 132.054 39.798 132.168 40.2804 132.168C40.7248 132.168 41.0803 132.08 41.3469 131.902C41.6177 131.72 41.7531 131.479 41.7531 131.178ZM45.9205 124.469V126.132H47.2027V127.04H45.9205V131.299C45.9205 131.574 45.9776 131.781 46.0919 131.921C46.2061 132.056 46.4008 132.124 46.6758 132.124C46.8113 132.124 46.9975 132.099 47.2344 132.048V133C46.9255 133.085 46.6251 133.127 46.3331 133.127C45.8083 133.127 45.4127 132.968 45.1461 132.651C44.8795 132.333 44.7462 131.883 44.7462 131.299V127.04H43.4957V126.132H44.7462V124.469H45.9205ZM51.77 127.186C51.5922 127.156 51.3997 127.141 51.1923 127.141C50.4221 127.141 49.8995 127.469 49.6245 128.125V133H48.4501V126.132H49.5927L49.6118 126.925C49.9969 126.312 50.5427 126.005 51.2495 126.005C51.478 126.005 51.6515 126.035 51.77 126.094V127.186ZM55.0867 131.28L56.6863 126.132H57.9432L55.182 134.06C54.7545 135.203 54.0753 135.774 53.1444 135.774L52.9222 135.755L52.4842 135.672V134.72L52.8016 134.746C53.1994 134.746 53.5083 134.665 53.7283 134.504C53.9526 134.344 54.1367 134.049 54.2806 133.622L54.5408 132.924L52.0906 126.132H53.3729L55.0867 131.28ZM66.7984 129.896H68.0806V130.854H66.7984V133H65.6178V130.854H61.4093V130.163L65.5479 123.758H66.7984V129.896ZM62.7423 129.896H65.6178V125.364L65.4781 125.618L62.7423 129.896ZM69.1567 132.384C69.1567 132.181 69.2159 132.012 69.3344 131.876C69.4572 131.741 69.6391 131.673 69.8803 131.673C70.1215 131.673 70.3035 131.741 70.4262 131.876C70.5532 132.012 70.6167 132.181 70.6167 132.384C70.6167 132.579 70.5532 132.742 70.4262 132.873C70.3035 133.004 70.1215 133.07 69.8803 133.07C69.6391 133.07 69.4572 133.004 69.3344 132.873C69.2159 132.742 69.1567 132.579 69.1567 132.384ZM78.1038 129.058C78.1038 130.433 77.869 131.455 77.3993 132.124C76.9295 132.793 76.1953 133.127 75.1966 133.127C74.2106 133.127 73.4806 132.801 73.0067 132.149C72.5327 131.493 72.2873 130.516 72.2704 129.217V127.649C72.2704 126.291 72.5052 125.281 72.9749 124.621C73.4447 123.961 74.181 123.631 75.1839 123.631C76.1784 123.631 76.9105 123.95 77.3802 124.589C77.8499 125.224 78.0912 126.206 78.1038 127.535V129.058ZM76.9295 127.452C76.9295 126.458 76.7899 125.734 76.5106 125.281C76.2313 124.824 75.7891 124.596 75.1839 124.596C74.583 124.596 74.145 124.822 73.87 125.275C73.5949 125.728 73.4531 126.424 73.4447 127.363V129.242C73.4447 130.241 73.5885 130.979 73.8763 131.458C74.1683 131.931 74.6084 132.168 75.1966 132.168C75.7764 132.168 76.2059 131.944 76.4852 131.496C76.7687 131.047 76.9168 130.34 76.9295 129.375V127.452Z" fill="#939393"/>
<circle cx="195" cy="45" r="44" stroke="#383838" stroke-width="2"/>
<path d="M199.506 30.8306L190.997 26H190.003L181.494 30.8306L181 31.6695V41.3306L181.494 42.1695L190.003 47H190.997L199.506 42.1695L200 41.3306V31.6695L199.506 30.8306Z" fill="#383838"/>
<path d="M189.506 47.8306L180.997 43H180.003L171.494 47.8306L171 48.6695V58.3306L171.494 59.1695L180.003 64H180.997L189.506 59.1695L190 58.3306V48.6695L189.506 47.8306ZM187.5 57.3306L180.482 61.5985L173.5 57.3306V49.5L180.482 45.5187L187.5 49.5V57.3306Z" fill="#383838"/>
<path d="M219.506 30.8306L210.997 26H210.003L201.494 30.8306L201 31.6695V41.3306L201.494 42.1695L210.003 47H210.997L219.506 42.1695L220 41.3306V31.6695L219.506 30.8306ZM217.5 40.3306L210.482 44.5985L203.5 40.3306V32.5L210.482 28.5187L217.5 32.5V40.3306Z" fill="#383838"/>
<path d="M209.506 47.8306L200.997 43H200.003L191.494 47.8306L191 48.6695V58.3306L191.494 59.1695L200.003 64H200.997L209.506 59.1695L210 58.3306V48.6695L209.506 47.8306ZM207.5 57.3306L200.482 61.5985L193.5 57.3306V49.5L200.482 45.5187L207.5 49.5V57.3306Z" fill="#383838"/>
<path d="M155.523 133H154.304V123.758H155.523V133ZM157.132 129.502C157.132 128.83 157.264 128.224 157.526 127.687C157.793 127.15 158.161 126.735 158.63 126.443C159.104 126.151 159.644 126.005 160.249 126.005C161.184 126.005 161.94 126.329 162.515 126.976C163.095 127.624 163.385 128.485 163.385 129.56V129.642C163.385 130.311 163.256 130.912 162.998 131.445C162.744 131.974 162.378 132.386 161.9 132.683C161.426 132.979 160.88 133.127 160.262 133.127C159.331 133.127 158.575 132.803 157.996 132.156C157.42 131.508 157.132 130.651 157.132 129.585V129.502ZM158.313 129.642C158.313 130.404 158.489 131.015 158.84 131.477C159.195 131.938 159.669 132.168 160.262 132.168C160.858 132.168 161.332 131.936 161.684 131.47C162.035 131 162.211 130.345 162.211 129.502C162.211 128.749 162.031 128.14 161.671 127.674C161.316 127.205 160.842 126.97 160.249 126.97C159.669 126.97 159.202 127.2 158.846 127.662C158.491 128.123 158.313 128.783 158.313 129.642ZM171.297 124.761H168.327V133H167.114V124.761H164.15V123.758H171.297V124.761ZM180.603 128.728H176.598V132.003H181.251V133H175.379V123.758H181.187V124.761H176.598V127.731H180.603V128.728ZM185.082 132.168C185.501 132.168 185.867 132.042 186.18 131.788C186.493 131.534 186.666 131.216 186.7 130.835H187.811C187.79 131.229 187.655 131.604 187.405 131.959C187.155 132.314 186.821 132.598 186.402 132.81C185.987 133.021 185.547 133.127 185.082 133.127C184.146 133.127 183.402 132.816 182.847 132.194C182.297 131.568 182.022 130.713 182.022 129.629V129.433C182.022 128.764 182.145 128.169 182.39 127.649C182.636 127.128 182.987 126.724 183.444 126.437C183.905 126.149 184.449 126.005 185.075 126.005C185.845 126.005 186.484 126.236 186.992 126.697C187.504 127.158 187.777 127.757 187.811 128.493H186.7C186.666 128.049 186.497 127.685 186.192 127.401C185.892 127.114 185.52 126.97 185.075 126.97C184.479 126.97 184.015 127.186 183.685 127.617C183.359 128.045 183.196 128.665 183.196 129.477V129.699C183.196 130.491 183.359 131.1 183.685 131.527C184.011 131.955 184.477 132.168 185.082 132.168ZM188.69 129.502C188.69 128.83 188.822 128.224 189.084 127.687C189.351 127.15 189.719 126.735 190.188 126.443C190.662 126.151 191.202 126.005 191.807 126.005C192.742 126.005 193.498 126.329 194.073 126.976C194.653 127.624 194.943 128.485 194.943 129.56V129.642C194.943 130.311 194.814 130.912 194.556 131.445C194.302 131.974 193.936 132.386 193.458 132.683C192.984 132.979 192.438 133.127 191.82 133.127C190.889 133.127 190.133 132.803 189.554 132.156C188.978 131.508 188.69 130.651 188.69 129.585V129.502ZM189.871 129.642C189.871 130.404 190.047 131.015 190.398 131.477C190.753 131.938 191.227 132.168 191.82 132.168C192.417 132.168 192.89 131.936 193.242 131.47C193.593 131 193.769 130.345 193.769 129.502C193.769 128.749 193.589 128.14 193.229 127.674C192.874 127.205 192.4 126.97 191.807 126.97C191.227 126.97 190.76 127.2 190.404 127.662C190.049 128.123 189.871 128.783 189.871 129.642ZM200.285 131.178C200.285 130.861 200.164 130.615 199.923 130.442C199.686 130.264 199.269 130.112 198.672 129.985C198.08 129.858 197.608 129.706 197.257 129.528C196.91 129.35 196.652 129.139 196.482 128.893C196.317 128.648 196.235 128.356 196.235 128.017C196.235 127.454 196.472 126.978 196.946 126.589C197.424 126.2 198.033 126.005 198.774 126.005C199.552 126.005 200.183 126.206 200.665 126.608C201.152 127.01 201.395 127.524 201.395 128.15H200.215C200.215 127.829 200.077 127.552 199.802 127.319C199.531 127.086 199.189 126.97 198.774 126.97C198.346 126.97 198.012 127.063 197.771 127.249C197.53 127.435 197.409 127.679 197.409 127.979C197.409 128.263 197.521 128.476 197.745 128.62C197.97 128.764 198.374 128.902 198.958 129.033C199.546 129.164 200.022 129.32 200.386 129.502C200.75 129.684 201.019 129.904 201.192 130.163C201.37 130.417 201.459 130.728 201.459 131.096C201.459 131.709 201.213 132.202 200.723 132.575C200.232 132.943 199.595 133.127 198.812 133.127C198.262 133.127 197.775 133.03 197.352 132.835C196.929 132.64 196.597 132.369 196.355 132.022C196.118 131.671 196 131.292 196 130.886H197.174C197.195 131.28 197.352 131.593 197.644 131.826C197.94 132.054 198.329 132.168 198.812 132.168C199.256 132.168 199.612 132.08 199.878 131.902C200.149 131.72 200.285 131.479 200.285 131.178ZM205.106 131.28L206.705 126.132H207.962L205.201 134.06C204.774 135.203 204.094 135.774 203.163 135.774L202.941 135.755L202.503 135.672V134.72L202.821 134.746C203.218 134.746 203.527 134.665 203.747 134.504C203.972 134.344 204.156 134.049 204.3 133.622L204.56 132.924L202.11 126.132H203.392L205.106 131.28ZM212.885 131.178C212.885 130.861 212.764 130.615 212.523 130.442C212.286 130.264 211.869 130.112 211.273 129.985C210.68 129.858 210.208 129.706 209.857 129.528C209.51 129.35 209.252 129.139 209.083 128.893C208.918 128.648 208.835 128.356 208.835 128.017C208.835 127.454 209.072 126.978 209.546 126.589C210.024 126.2 210.634 126.005 211.374 126.005C212.153 126.005 212.783 126.206 213.266 126.608C213.752 127.01 213.996 127.524 213.996 128.15H212.815C212.815 127.829 212.678 127.552 212.402 127.319C212.132 127.086 211.789 126.97 211.374 126.97C210.947 126.97 210.612 127.063 210.371 127.249C210.13 127.435 210.009 127.679 210.009 127.979C210.009 128.263 210.122 128.476 210.346 128.62C210.57 128.764 210.974 128.902 211.558 129.033C212.146 129.164 212.623 129.32 212.986 129.502C213.35 129.684 213.619 129.904 213.793 130.163C213.97 130.417 214.059 130.728 214.059 131.096C214.059 131.709 213.814 132.202 213.323 132.575C212.832 132.943 212.195 133.127 211.412 133.127C210.862 133.127 210.375 133.03 209.952 132.835C209.529 132.64 209.197 132.369 208.956 132.022C208.719 131.671 208.6 131.292 208.6 130.886H209.775C209.796 131.28 209.952 131.593 210.244 131.826C210.541 132.054 210.93 132.168 211.412 132.168C211.857 132.168 212.212 132.08 212.479 131.902C212.749 131.72 212.885 131.479 212.885 131.178ZM217.052 124.469V126.132H218.334V127.04H217.052V131.299C217.052 131.574 217.109 131.781 217.224 131.921C217.338 132.056 217.533 132.124 217.808 132.124C217.943 132.124 218.129 132.099 218.366 132.048V133C218.057 133.085 217.757 133.127 217.465 133.127C216.94 133.127 216.544 132.968 216.278 132.651C216.011 132.333 215.878 131.883 215.878 131.299V127.04H214.627V126.132H215.878V124.469H217.052ZM222.432 133.127C221.501 133.127 220.744 132.822 220.16 132.213C219.576 131.599 219.284 130.78 219.284 129.756V129.541C219.284 128.859 219.413 128.252 219.671 127.719C219.933 127.181 220.297 126.762 220.763 126.462C221.232 126.157 221.74 126.005 222.286 126.005C223.179 126.005 223.873 126.299 224.368 126.887C224.863 127.475 225.111 128.318 225.111 129.414V129.902H220.458C220.475 130.579 220.672 131.127 221.048 131.546C221.429 131.961 221.912 132.168 222.496 132.168C222.91 132.168 223.261 132.084 223.549 131.915C223.837 131.745 224.089 131.521 224.305 131.242L225.022 131.8C224.446 132.685 223.583 133.127 222.432 133.127ZM222.286 126.97C221.812 126.97 221.414 127.143 221.093 127.49C220.771 127.833 220.572 128.315 220.496 128.938H223.936V128.849C223.903 128.252 223.742 127.791 223.454 127.465C223.166 127.135 222.777 126.97 222.286 126.97ZM227.45 126.132L227.482 126.894C227.985 126.301 228.664 126.005 229.519 126.005C230.48 126.005 231.134 126.373 231.481 127.109C231.709 126.779 232.005 126.513 232.369 126.31C232.738 126.106 233.171 126.005 233.671 126.005C235.177 126.005 235.943 126.803 235.969 128.398V133H234.794V128.468C234.794 127.977 234.682 127.611 234.458 127.37C234.234 127.124 233.857 127.001 233.328 127.001C232.892 127.001 232.53 127.133 232.242 127.395C231.955 127.653 231.788 128.002 231.741 128.442V133H230.56V128.5C230.56 127.501 230.072 127.001 229.094 127.001C228.324 127.001 227.797 127.329 227.513 127.985V133H226.339V126.132H227.45Z" fill="#939393"/>
</svg>
