<svg width="356" height="220" viewBox="0 0 356 220" fill="none" xmlns="http://www.w3.org/2000/svg">
<path fill-rule="evenodd" clip-rule="evenodd" d="M11.0185 122.09V117.85C11.0185 117.292 11.3671 116.845 11.9447 116.845H12.1045C12.6818 116.845 13.0289 117.293 13.0289 117.85V126.777C13.0289 128.954 11.9522 130.686 10.0759 131.79C9.21638 132.298 8.23527 132.566 7.23624 132.563H6.83747C4.65761 132.563 2.9258 131.487 1.81926 129.614C1.30932 128.756 1.04178 127.775 1.04507 126.777V126.379C1.04507 124.201 2.1223 122.47 3.99706 121.365C4.8564 120.855 5.83805 120.588 6.83747 120.591H7.23624C8.71146 120.591 9.96303 121.162 11.0185 122.09ZM3.05526 126.578C3.05526 128.15 3.8183 129.333 5.19777 130.087C5.75558 130.392 6.36113 130.555 6.99755 130.555C8.54282 130.555 9.68905 129.827 10.4796 128.519C10.8472 127.911 11.0185 127.245 11.0185 126.537C11.0185 125.174 10.3724 124.11 9.27264 123.32C8.60586 122.841 7.85528 122.601 7.03673 122.601C5.3524 122.601 4.14027 123.451 3.41278 124.961C3.16735 125.471 3.05526 126.013 3.05526 126.578ZM20.0033 120.591H20.282C22.6113 120.591 24.3828 121.72 25.5054 123.751C25.9543 124.563 26.1945 125.45 26.1945 126.379V126.777C26.1945 128.954 25.1199 130.689 23.2407 131.79C22.3708 132.3 21.4098 132.563 20.4016 132.563H20.0033C17.8235 132.563 16.0911 131.487 14.9851 129.614C14.4749 128.756 14.2071 127.775 14.2102 126.777V126.379C14.2102 124.201 15.2918 122.476 17.1619 121.365C18.0313 120.849 18.9931 120.591 20.0033 120.591ZM16.2206 126.578C16.2206 128.104 16.9704 129.227 18.2612 130.017C18.8672 130.387 19.5348 130.555 20.2428 130.555C21.7528 130.555 22.8689 129.791 23.6457 128.518C24.0162 127.911 24.1838 127.244 24.1838 126.537C24.1838 125.118 23.4994 124.033 22.3293 123.248C21.6882 122.817 20.9745 122.601 20.2023 122.601C18.518 122.601 17.3059 123.451 16.5786 124.961C16.3327 125.471 16.2206 126.013 16.2206 126.578ZM34.5521 122.761C34.2485 122.619 33.6803 122.572 33.3524 122.559C31.6727 122.496 30.4575 123.441 29.7445 124.921C29.4983 125.432 29.386 125.972 29.386 126.537C29.386 128.257 30.2901 129.461 31.8271 130.196C32.3885 130.464 33.1134 130.514 33.727 130.514C34.2667 130.514 35.0294 130.184 35.5084 129.957L35.5914 129.918H35.9632L36.0042 129.926C36.4613 130.021 36.8064 130.31 36.8064 130.802V131.001C36.8064 132.223 34.5694 132.503 33.7159 132.563C30.7037 132.771 28.4509 131.119 27.5922 128.249C27.443 127.75 27.3758 127.255 27.3758 126.736V126.339C27.3758 124.161 28.4577 122.436 30.3275 121.326C31.1969 120.811 32.1584 120.551 33.1684 120.551H33.5669C34.6385 120.551 35.6254 120.855 36.5101 121.459L36.5827 121.509L36.6287 121.585C36.7241 121.743 36.8064 121.926 36.8064 122.114V122.313C36.8064 122.826 36.4224 123.101 35.959 123.191L35.9206 123.197H35.8018C35.5019 123.197 34.8198 122.887 34.5521 122.761ZM41.073 124.121C41.8539 123.34 42.6374 122.56 43.4301 121.792C43.6508 121.578 44.487 120.671 44.8163 120.671H45.1764L45.2174 120.679C45.6761 120.774 46.0196 121.064 46.0196 121.557V121.755C46.0196 122.091 45.6258 122.481 45.4086 122.711C44.9468 123.2 44.4606 123.673 43.9879 124.152L41.5589 126.615C42.6048 127.662 43.6495 128.71 44.6868 129.765C44.9745 130.056 45.26 130.35 45.5432 130.645C45.6431 130.75 45.7905 130.881 45.8743 131.026C45.9643 131.163 46.0196 131.316 46.0196 131.48V131.688L46.0079 131.736C45.8951 132.194 45.604 132.563 45.0957 132.563H44.9356C44.603 132.563 44.2273 132.188 43.9995 131.973C43.5299 131.531 43.0767 131.066 42.6164 130.614L41.073 129.1V131.519C41.073 132.077 40.7238 132.525 40.147 132.525H39.9888C39.4112 132.525 39.0625 132.077 39.0625 131.519V117.889C39.0625 117.331 39.4115 116.886 39.9888 116.886H40.147C40.7238 116.886 41.073 117.331 41.073 117.889V124.121ZM66.1295 120.671H66.3293C66.9323 120.671 67.3347 121.077 67.3347 121.675C67.3347 122.507 66.5389 122.72 65.8506 122.72C64.9478 122.72 64.0856 123.266 63.4632 123.878C62.6872 124.642 62.3476 125.621 62.3476 126.697V131.559C62.3476 132.116 61.9992 132.563 61.4214 132.563H61.2626C60.6848 132.563 60.3366 132.116 60.3366 131.559V126.418C60.3366 124.444 61.2986 122.833 62.9025 121.702C63.8602 121.027 64.9571 120.671 66.1295 120.671V120.671ZM51.8408 130.305C52.5724 130.561 53.4066 130.524 54.1571 130.393C54.5411 130.23 55.5229 129.803 55.884 129.865L55.9403 129.875L55.9922 129.9C56.2127 130.007 56.4231 130.158 56.5357 130.382C56.7988 130.908 56.6725 131.436 56.1556 131.734L55.9836 131.833C54.0767 132.933 52.0483 132.78 50.1474 131.753C49.2385 131.263 48.5432 130.534 48.0303 129.646L47.9104 129.438C46.6861 127.321 46.8514 125.093 48.2322 123.079C48.7088 122.383 49.3317 121.845 50.0599 121.424L50.3355 121.265C52.1314 120.23 54.0562 120.301 55.9006 121.21C56.8925 121.699 57.696 122.427 58.2496 123.385L58.3493 123.558C58.7514 124.254 58.2304 124.86 57.6926 125.275C57.0684 125.756 56.4382 126.335 55.8399 126.851C54.5058 128.001 53.1738 129.154 51.8408 130.305ZM50.1142 129.094C51.606 127.816 53.0983 126.537 54.5863 125.254C55.0948 124.816 55.6523 124.362 56.1567 123.901C55.7519 123.392 55.0758 123.024 54.5014 122.805C53.3417 122.364 52.1983 122.512 51.1348 123.125C49.7429 123.928 49.1501 125.207 49.202 126.798C49.2227 127.424 49.3914 128.028 49.7242 128.561C49.8415 128.749 49.9725 128.926 50.1142 129.094ZM39.2646 88.852H45.1971V94.9099H48.1966C49.582 94.9099 51.0067 94.6635 52.3184 94.2195C52.9632 94.0011 53.6865 93.6973 54.3224 93.315C53.4849 92.2229 53.0573 90.8439 52.9318 89.4846C52.7605 87.6355 53.1341 85.2289 54.3867 83.7818L55.0104 83.0613L55.7535 83.6581C57.6244 85.1595 59.1979 87.2576 59.4753 89.6495C61.728 88.9876 64.3731 89.1441 66.3586 90.2888L67.1733 90.7584L66.7447 91.5945C65.0653 94.8682 61.5542 95.8826 58.1217 95.703C52.9855 108.482 41.8031 114.532 28.2447 114.532C21.2396 114.532 14.8131 111.916 11.1534 105.708L11.0934 105.607L10.5603 104.523C9.32323 101.791 8.91227 98.7971 9.19091 95.8059L9.27471 94.9099H14.3479V88.852H20.2802V82.926H32.1454V77H39.2646V88.852Z" fill="#364548"/>
<path fill-rule="evenodd" clip-rule="evenodd" d="M58.4859 91.0929C58.8836 88.0047 56.5701 85.5792 55.1354 84.4275C53.4819 86.337 53.2251 91.3414 55.819 93.4484C54.3713 94.7328 51.321 95.897 48.1975 95.897H10.1769C9.87339 99.1539 10.4457 102.153 11.7531 104.72L12.1856 105.511C12.4594 105.975 12.7587 106.423 13.082 106.854C14.6451 106.954 16.0863 106.989 17.4049 106.96H17.4054C19.9965 106.903 22.1107 106.597 23.713 106.042C23.8263 106.007 23.9489 106.017 24.0547 106.071C24.1606 106.124 24.2416 106.217 24.2804 106.329C24.3193 106.441 24.313 106.563 24.263 106.671C24.2129 106.778 24.123 106.862 24.0122 106.904C23.7989 106.979 23.5768 107.047 23.3475 107.113H23.3467C22.085 107.473 20.732 107.715 18.9864 107.823C19.0902 107.824 18.8785 107.838 18.878 107.838C18.8186 107.842 18.7439 107.851 18.6842 107.854C17.9972 107.892 17.2557 107.9 16.4976 107.9C15.6684 107.9 14.8519 107.885 13.9389 107.838L13.9156 107.854C17.0834 111.41 22.0368 113.544 28.2458 113.544C41.3863 113.544 52.5321 107.725 57.4678 94.6618C60.9693 95.0208 64.3346 94.1287 65.8653 91.1437C63.427 89.7382 60.2914 90.1863 58.4859 91.0929Z" fill="#22A0C8"/>
<path fill-rule="evenodd" clip-rule="evenodd" d="M58.4851 91.0929C58.8829 88.0047 56.5694 85.5792 55.1346 84.4275C53.4812 86.337 53.2243 91.3414 55.8183 93.4484C54.3706 94.7328 51.3203 95.897 48.1968 95.897H12.4277C12.2726 100.885 14.1255 104.671 17.4039 106.96H17.4047C19.9958 106.903 22.11 106.597 23.7123 106.042C23.8256 106.007 23.9482 106.017 24.054 106.071C24.1599 106.124 24.2409 106.217 24.2797 106.329C24.3186 106.441 24.3123 106.563 24.2623 106.671C24.2122 106.778 24.1223 106.862 24.0115 106.904C23.7982 106.979 23.5761 107.047 23.3468 107.113H23.346C22.0843 107.473 20.6151 107.746 18.8695 107.854C18.869 107.854 18.8272 107.814 18.8267 107.814C23.2988 110.105 29.7831 110.097 37.2175 107.244C45.5535 104.045 53.3107 97.9506 58.723 90.9799C58.6416 91.0167 58.5622 91.0543 58.4851 91.0929Z" fill="#37B1D9"/>
<path fill-rule="evenodd" clip-rule="evenodd" d="M10.2474 99.8545C10.4835 101.599 10.9946 103.233 11.7522 104.721L12.1847 105.511C12.4585 105.975 12.7578 106.423 13.0811 106.854C14.6445 106.955 16.0858 106.989 17.4045 106.96C19.9956 106.903 22.1099 106.597 23.7122 106.043C23.8255 106.008 23.948 106.018 24.0539 106.071C24.1598 106.125 24.2407 106.217 24.2796 106.329C24.3184 106.441 24.3122 106.564 24.2621 106.671C24.2121 106.779 24.1221 106.862 24.0113 106.905C23.7981 106.979 23.576 107.048 23.3466 107.113H23.3459C22.0842 107.473 20.6227 107.731 18.8771 107.839C18.8172 107.842 18.7127 107.843 18.6522 107.847C17.9657 107.885 17.2317 107.908 16.4734 107.908C15.6444 107.908 14.7966 107.893 13.8841 107.846C17.0519 111.403 22.0359 113.544 28.245 113.544C39.4946 113.544 49.282 109.279 54.9625 99.8545H10.2474Z" fill="#1B81A5"/>
<path fill-rule="evenodd" clip-rule="evenodd" d="M12.7703 99.8545C13.4427 102.918 15.0588 105.323 17.405 106.96C19.9961 106.903 22.1103 106.597 23.7127 106.043C23.826 106.008 23.9485 106.018 24.0544 106.071C24.1603 106.125 24.2412 106.217 24.2801 106.329C24.3189 106.441 24.3127 106.564 24.2626 106.671C24.2125 106.779 24.1226 106.862 24.0118 106.905C23.7985 106.979 23.5765 107.048 23.3471 107.113H23.3463C22.0846 107.473 20.5923 107.731 18.8465 107.839C23.3183 110.13 29.784 110.097 37.2179 107.245C41.7151 105.518 46.0435 102.949 49.9266 99.8545H12.7703Z" fill="#1D91B4"/>
<path fill-rule="evenodd" clip-rule="evenodd" d="M15.3372 89.8396H20.4789V94.9757H15.3372V89.8396ZM15.7655 90.2677H16.1713V94.5478H15.7655V90.2677ZM16.5283 90.2677H16.9504V94.5478H16.5285V90.2677H16.5283ZM17.3071 90.2677H17.7293V94.5478H17.3071V90.2677ZM18.0865 90.2677H18.5084V94.5478H18.0865V90.2677ZM18.8656 90.2677H19.2875V94.5478H18.8656V90.2677ZM19.6445 90.2677H20.0505V94.5478H19.6445V90.2677ZM21.2697 83.9136H26.4116V89.0494H21.2694V83.9136H21.2697ZM21.6983 84.3417H22.1038V88.6215H21.6983V84.3417ZM22.461 84.3417H22.8829V88.6215H22.4613V84.3417H22.461ZM23.2399 84.3417H23.6618V88.6215H23.2399V84.3417ZM24.019 84.3417H24.4409V88.6215H24.019V84.3417ZM24.7981 84.3417H25.2202V88.6215H24.7981V84.3417ZM25.577 84.3417H25.9833V88.6215H25.577V84.3417Z" fill="#23A3C2"/>
<path fill-rule="evenodd" clip-rule="evenodd" d="M21.2698 89.8391H26.4118V94.9752H21.2695V89.8391H21.2698ZM21.6984 90.2672H22.1039V94.5473H21.6984V90.2672ZM22.4612 90.2672H22.883V94.5473H22.4614V90.2672H22.4612ZM23.24 90.2672H23.6619V94.5473H23.24V90.2672ZM24.0191 90.2672H24.441V94.5473H24.0191V90.2672ZM24.7983 90.2672H25.2204V94.5473H24.7983V90.2672ZM25.5771 90.2672H25.9834V94.5473H25.5771V90.2672Z" fill="#34BBDE"/>
<path fill-rule="evenodd" clip-rule="evenodd" d="M27.202 89.8391H32.3437V94.9752H27.202V89.8391ZM27.6304 90.2672H28.0359V94.5473H27.6304V90.2672ZM28.3931 90.2672H28.815V94.5473H28.3931V90.2672ZM29.1723 90.2672H29.5941V94.5473H29.1723V90.2672ZM29.9514 90.2672H30.3732V94.5473H29.9514V90.2672ZM30.7302 90.2672H31.1526V94.5473H30.7302V90.2672ZM31.5093 90.2672H31.9151V94.5473H31.5093V90.2672Z" fill="#23A3C2"/>
<path fill-rule="evenodd" clip-rule="evenodd" d="M27.202 83.9136H32.3437V89.0494H27.202V83.9136ZM27.6304 84.3417H28.0359V88.6215H27.6304V84.3417ZM28.3931 84.3417H28.815V88.6215H28.3931V84.3417ZM29.1723 84.3417H29.5941V88.6215H29.1723V84.3417ZM29.9514 84.3417H30.3732V88.6215H29.9514V84.3417ZM30.7302 84.3417H31.1526V88.6215H30.7302V84.3417ZM31.5094 84.3417H31.9151V88.6215H31.5094V84.3417ZM33.1345 89.8396H38.2762V94.9757H33.1345V89.8396ZM33.5631 90.2677H33.9686V94.5478H33.5631V90.2677ZM34.3259 90.2677H34.7478V94.5478H34.3259V90.2677ZM35.1048 90.2677H35.5266V94.5478H35.1048V90.2677ZM35.8839 90.2677H36.306V94.5478H35.8839V90.2677ZM36.663 90.2677H37.0851V94.5478H36.663V90.2677ZM37.4421 90.2677H37.8479V94.5478H37.4421V90.2677Z" fill="#34BBDE"/>
<path fill-rule="evenodd" clip-rule="evenodd" d="M33.1348 83.9136H38.2765V89.0494H33.1348V83.9136ZM33.5634 84.3417H33.9689V88.6215H33.5634V84.3417ZM34.3261 84.3417H34.748V88.6215H34.3261V84.3417ZM35.105 84.3417H35.5269V88.6215H35.105V84.3417ZM35.8841 84.3417H36.3062V88.6215H35.8841V84.3417ZM36.6632 84.3417H37.0854V88.6215H36.6632V84.3417ZM37.4424 84.3417H37.8481V88.6215H37.4424V84.3417Z" fill="#23A3C2"/>
<path fill-rule="evenodd" clip-rule="evenodd" d="M33.1348 77.9875H38.2765V83.1241H33.1348V77.9875ZM33.5634 78.4154H33.9689V82.6958H33.5634V78.4152V78.4154ZM34.3261 78.4154H34.748V82.6958H34.3261V78.4152V78.4154ZM35.105 78.4154H35.5269V82.6958H35.105V78.4152V78.4154ZM35.8841 78.4154H36.3062V82.6958H35.8841V78.4152V78.4154ZM36.6632 78.4154H37.0854V82.6958H36.6632V78.4152V78.4154ZM37.4424 78.4154H37.8481V82.6958H37.4424V78.4152V78.4154Z" fill="#34BBDE"/>
<path fill-rule="evenodd" clip-rule="evenodd" d="M39.0673 89.8391H44.2089V94.9752H39.0673V89.8391ZM39.4953 90.2672H39.9014V94.5473H39.4956V90.2672H39.4953ZM40.2581 90.2672H40.6802V94.5473H40.2584V90.2672H40.2581ZM41.0375 90.2672H41.4596V94.5473H41.0375V90.2672ZM41.8163 90.2672H42.2385V94.5473H41.8163V90.2672ZM42.5957 90.2672H43.0176V94.5473H42.5957V90.2672ZM43.3746 90.2672H43.7803V94.5473H43.3746V90.2672Z" fill="#23A3C2"/>
<path fill-rule="evenodd" clip-rule="evenodd" d="M26.0893 103.303C26.2772 103.301 26.4637 103.336 26.638 103.406C26.8124 103.476 26.971 103.58 27.1047 103.712C27.2385 103.844 27.3447 104.001 27.4171 104.174C27.4896 104.347 27.5269 104.533 27.5269 104.721C27.5268 104.908 27.4895 105.094 27.4169 105.267C27.3444 105.44 27.2382 105.598 27.1044 105.729C26.9706 105.861 26.8119 105.965 26.6376 106.035C26.4632 106.105 26.2767 106.14 26.0888 106.137C25.7159 106.132 25.36 105.981 25.0981 105.715C24.8363 105.45 24.6895 105.093 24.6896 104.72C24.6896 104.348 24.8366 103.99 25.0985 103.725C25.3605 103.46 25.7164 103.308 26.0893 103.303Z" fill="#D3ECEC"/>
<path fill-rule="evenodd" clip-rule="evenodd" d="M26.0895 103.705C26.2192 103.705 26.343 103.729 26.4571 103.773C26.3784 103.819 26.3168 103.889 26.2821 103.973C26.2473 104.058 26.2412 104.151 26.2648 104.239C26.2884 104.327 26.3402 104.404 26.4124 104.46C26.4846 104.515 26.5731 104.545 26.6642 104.546C26.8211 104.546 26.9573 104.459 27.0279 104.33C27.1115 104.531 27.1281 104.754 27.0753 104.965C27.0225 105.176 26.9031 105.365 26.7347 105.503C26.5663 105.641 26.3579 105.722 26.1402 105.733C25.9226 105.743 25.7072 105.684 25.5259 105.563C25.3447 105.442 25.2071 105.266 25.1336 105.062C25.0601 104.857 25.0545 104.633 25.1177 104.425C25.1809 104.217 25.3094 104.034 25.4844 103.905C25.6594 103.775 25.8716 103.705 26.0895 103.705ZM1 100.366H66.9842C65.5477 100.003 62.4387 99.5106 62.9514 97.6296C60.3388 100.649 54.0386 99.7483 52.4485 98.2594C50.678 100.825 40.3702 99.8494 39.6513 97.851C37.4315 100.453 30.5533 100.453 28.3335 97.851C27.614 99.8494 17.3065 100.825 15.5357 98.2591C13.9459 99.7483 7.64598 100.649 5.03335 97.6299C5.54602 99.5106 2.43707 100.003 1 100.367" fill="#364548"/>
<path fill-rule="evenodd" clip-rule="evenodd" d="M29.8598 113.514C26.3469 111.848 24.419 109.585 23.3462 107.114C22.0412 107.486 20.4728 107.724 18.6502 107.826C17.9637 107.864 17.2414 107.884 16.4838 107.884C15.61 107.884 14.6892 107.858 13.7225 107.807C16.9441 111.023 20.9071 113.499 28.2453 113.544C28.787 113.544 29.3246 113.534 29.8598 113.514Z" fill="#BDD9D7"/>
<path fill-rule="evenodd" clip-rule="evenodd" d="M24.6515 109.393C24.1656 108.734 23.6941 107.906 23.3475 107.113C22.0425 107.485 20.4736 107.723 18.6508 107.825C19.9028 108.504 21.6933 109.133 24.6518 109.393" fill="#D3ECEC"/>
<g clip-path="url(#clip0)">
<path d="M188.02 193.575C188.02 203.68 180.082 211.871 170.289 211.871C160.497 211.871 152.558 203.68 152.558 193.575C152.558 183.471 160.497 175.28 170.289 175.28C180.082 175.28 188.02 183.471 188.02 193.576" fill="#D33833"/>
<path d="M153.281 198.107C153.281 198.107 151.997 179.027 169.425 178.482L168.209 176.438L158.753 179.64L156.05 182.775L153.686 187.341L152.335 192.655L152.74 196.199" fill="#EF3D3A"/>
<path d="M158.145 181.095C155.034 184.306 153.109 188.739 153.109 193.644C153.109 198.547 155.034 202.981 158.145 206.192C161.258 209.402 165.547 211.384 170.289 211.384C175.031 211.384 179.321 209.402 182.433 206.192C185.544 202.982 187.469 198.548 187.469 193.644C187.469 188.739 185.544 184.306 182.433 181.095C179.321 177.885 175.031 175.904 170.289 175.903C165.547 175.904 161.258 177.885 158.145 181.095ZM157.358 206.969C154.051 203.558 152.007 198.844 152.007 193.644C152.007 188.443 154.051 183.73 157.357 180.318C160.663 176.906 165.238 174.792 170.289 174.792C175.339 174.792 179.915 176.906 183.22 180.318C186.527 183.73 188.571 188.444 188.571 193.644C188.571 198.844 186.527 203.557 183.22 206.969C179.915 210.38 175.339 212.495 170.289 212.495C165.239 212.495 160.663 210.38 157.358 206.969Z" fill="#231F20"/>
<path d="M177.753 193.677L175.051 194.086L171.404 194.495L169.039 194.563L166.743 194.495L164.987 193.949L163.433 192.246L162.217 188.771L161.947 188.021L160.326 187.476L159.38 185.909L158.705 183.66L159.448 181.684L161.204 181.071L162.623 181.752L163.298 183.251L164.108 183.115L164.379 182.775L164.108 181.207L164.041 179.231L164.446 176.506L164.431 174.949L165.662 172.962L167.824 171.395L171.606 169.76L175.794 170.373L179.442 173.031L181.13 175.756L182.211 177.732L182.481 182.638L181.671 186.863L180.185 190.611L178.766 192.587" fill="#F0D6B7"/>
<path d="M175.456 205.465L165.797 205.874V207.509L166.608 213.233L166.203 213.71L159.448 211.393L158.975 210.576L158.3 202.876L156.746 198.242L156.408 197.152L161.812 193.405L163.501 192.723L164.987 194.563L166.27 195.721L167.756 196.198L168.432 196.402L169.242 199.946L169.85 200.695L171.404 200.15L170.323 202.263L176.2 205.056L175.456 205.465" fill="#335061"/>
<path d="M159.448 181.684L161.204 181.071L162.623 181.752L163.298 183.251L164.108 183.115L164.311 182.297L163.906 180.73L164.311 176.982L163.973 174.938L165.189 173.507L167.823 171.395L167.081 170.373L163.365 172.213L161.812 173.439L160.934 175.347L159.583 177.187L159.178 179.367L159.448 181.684Z" fill="#6D6B6D"/>
<path d="M162.217 175.279C162.217 175.279 163.23 172.758 167.283 171.531C171.336 170.305 167.486 170.645 167.486 170.645L163.095 172.349L161.407 174.052L160.663 175.415L162.217 175.279ZM160.191 181.207C160.191 181.207 158.772 176.437 164.176 175.756L163.973 174.938L160.258 175.824L159.177 179.367L159.448 181.684L160.191 181.207Z" fill="#DCD9D8"/>
<path d="M162.352 187.544L163.236 186.68C163.236 186.68 163.636 186.727 163.703 187.203C163.77 187.681 163.973 191.973 166.878 194.29C167.143 194.502 164.716 193.949 164.716 193.949L162.555 190.543L162.352 187.544ZM174.781 186.25C174.781 186.25 174.939 184.184 175.49 184.343C176.042 184.502 176.042 185.058 176.042 185.058C176.042 185.058 174.702 185.932 174.781 186.25ZM180.387 178.686C180.387 178.686 179.274 178.923 179.172 179.913C179.069 180.902 180.387 180.117 180.59 180.049L180.387 178.686ZM172.214 178.754C172.214 178.754 170.728 178.959 170.728 179.913C170.728 180.866 172.417 180.799 172.89 180.39L172.214 178.754ZM163.028 183.183C163.028 183.183 160.461 181.616 160.191 183.115C159.92 184.614 159.312 185.704 160.596 187.272L159.718 186.999L158.907 184.887L158.637 182.843L160.191 181.207L161.947 181.343L162.96 182.161L163.028 183.183V183.183ZM164.243 178.891C164.243 178.891 165.392 172.894 171.201 171.736C175.984 170.782 178.496 171.94 179.442 173.03C179.442 173.03 175.186 167.92 171.133 169.487C167.08 171.054 164.108 173.916 164.176 175.756C164.291 178.889 164.243 178.891 164.243 178.891ZM179.914 173.712C179.914 173.712 177.956 173.644 177.888 175.415C177.888 175.415 177.888 175.688 178.023 175.96C178.023 175.96 179.577 174.189 180.522 175.143" fill="#F7E4CD"/>
<path d="M171.337 176.145C171.337 176.145 171 173.425 168.702 175.006C167.215 176.029 167.351 177.46 167.621 177.732C167.891 178.005 167.818 178.554 168.023 178.177C168.229 177.8 168.161 176.574 168.904 176.233C169.647 175.892 170.865 175.512 171.337 176.145Z" fill="#F7E4CD"/>
<path d="M164.986 194.562L158.637 197.424C158.637 197.424 161.271 207.986 159.92 211.257L158.975 210.916L158.907 206.896L157.151 199.264L156.408 197.152L163.028 192.655L164.986 194.562ZM165.639 200.404L166.54 201.513V205.601H165.459C165.459 205.601 165.324 202.739 165.324 202.399C165.324 202.058 165.459 200.831 165.459 200.831L165.639 200.404ZM165.662 206.215L162.622 206.351L163.5 206.964L165.662 207.305" fill="#49728B"/>
<path d="M176.064 205.533L178.564 205.465L179.172 211.734L176.605 212.075L176.064 205.533Z" fill="#335061"/>
<path d="M176.74 205.533L180.522 205.329C180.522 205.329 182.076 201.377 182.076 201.172C182.076 200.968 183.427 195.448 183.427 195.448L180.387 192.246L179.779 191.701L178.158 193.336V199.673L176.74 205.533Z" fill="#335061"/>
<path d="M178.428 205.056L176.064 205.533L176.402 207.441C177.28 207.85 178.766 206.76 178.766 206.76L178.428 205.056ZM178.496 193.132L183.225 196.675L183.359 195.04L179.78 191.701L178.496 193.132Z" fill="#49728B"/>
<path d="M168.006 218.958L166.608 213.233L165.912 209.009L165.797 205.874L172.127 205.534L176.064 205.533L175.706 212.689L176.314 218.208L176.247 219.23L171.113 219.639L168.006 218.958Z" fill="white"/>
<path d="M175.186 205.465C175.186 205.465 174.848 212.552 175.862 217.594C175.862 217.594 173.835 218.889 170.863 219.229L176.537 219.025L177.213 218.616L176.402 207.441L176.199 205.056" fill="#DCD9D8"/>
<path d="M179.287 211.19L181.921 210.44L186.919 210.168L187.662 207.851L186.311 203.831L184.758 203.626L182.596 204.308L180.522 205.329L179.422 205.125L178.563 205.465" fill="white"/>
<path d="M179.239 209.826C179.239 209.826 180.995 209.009 181.265 209.077L180.522 205.329L181.4 204.989C181.4 204.989 182.008 208.532 182.008 208.941C182.008 208.941 185.791 209.145 186.129 209.145C186.129 209.145 186.939 207.578 186.737 205.942L187.48 208.123L187.547 209.349L186.467 210.985L185.251 211.257L183.224 211.189L182.549 210.303L180.185 210.644L179.442 210.917" fill="#DCD9D8"/>
<path d="M176.584 204.989L175.098 201.173L173.545 198.925C173.545 198.925 173.882 197.971 174.355 197.971H175.909L177.395 198.516L177.26 201.037L176.584 204.989Z" fill="white"/>
<path d="M176.875 203.694C176.875 203.694 174.984 200.014 174.984 199.469C174.984 199.469 175.321 198.652 175.794 198.856C176.267 199.06 177.28 199.605 177.28 199.605V198.311L174.984 197.833L173.43 198.038L176.064 204.307L176.605 204.375" fill="#DCD9D8"/>
<path d="M168.614 194.7L166.743 194.495L164.987 193.949V194.563L165.845 195.517L168.547 196.744" fill="white"/>
<path d="M165.595 194.904C165.595 194.904 167.688 195.79 168.364 195.586L168.431 196.403L166.54 195.995L165.392 195.177L165.595 194.904Z" fill="#DCD9D8"/>
<path d="M179.279 198.203C178.133 198.169 177.098 198.031 176.191 197.773C176.253 197.398 176.137 197.03 176.23 196.76C176.482 196.576 176.906 196.579 177.288 196.536C176.958 196.373 176.494 196.308 176.112 196.402C176.103 196.142 175.988 195.981 175.918 195.777C176.562 195.545 178.083 194.024 178.939 194.528C179.347 194.767 179.52 196.136 179.552 196.801C179.578 197.353 179.502 197.91 179.279 198.203" fill="#D33833"/>
<path d="M179.279 198.203C178.133 198.169 177.098 198.031 176.191 197.773C176.253 197.398 176.137 197.03 176.23 196.76C176.482 196.576 176.906 196.579 177.288 196.536C176.958 196.373 176.494 196.308 176.112 196.402C176.103 196.142 175.988 195.981 175.918 195.777C176.562 195.545 178.083 194.024 178.939 194.528C179.347 194.767 179.52 196.136 179.552 196.801C179.578 197.353 179.502 197.91 179.279 198.203H179.279Z" stroke="#D33833" stroke-width="6.14065"/>
<path d="M173.798 196.312C173.795 196.4 173.792 196.488 173.788 196.576C173.43 196.813 172.853 196.81 172.46 197.01C173.039 197.035 173.495 197.176 173.889 197.374L173.863 198.035C173.208 198.488 172.608 199.163 171.836 199.588C171.471 199.789 170.189 200.306 169.801 200.214C169.581 200.163 169.561 199.888 169.473 199.628C169.286 199.073 168.855 198.189 168.817 197.352C168.77 196.297 168.664 194.527 169.792 194.744C170.702 194.919 171.761 195.342 172.465 195.731C172.896 195.968 173.145 196.262 173.798 196.312Z" fill="#D33833"/>
<path d="M173.798 196.312C173.795 196.4 173.792 196.488 173.788 196.576C173.43 196.813 172.853 196.81 172.46 197.01C173.039 197.035 173.495 197.176 173.889 197.374L173.863 198.035C173.208 198.488 172.608 199.163 171.836 199.588C171.471 199.789 170.189 200.306 169.801 200.214C169.581 200.163 169.561 199.888 169.473 199.628C169.286 199.073 168.855 198.189 168.817 197.352C168.77 196.297 168.664 194.527 169.792 194.744C170.702 194.919 171.761 195.342 172.465 195.731C172.896 195.968 173.145 196.262 173.798 196.312V196.312Z" stroke="#D33833" stroke-width="6.14065"/>
<path d="M174.45 197.572C174.35 196.997 174.234 196.833 174.279 196.331C175.8 195.308 176.085 198.088 174.45 197.572" fill="#D33833"/>
<path d="M174.45 197.572C174.35 196.997 174.234 196.833 174.279 196.331C175.8 195.308 176.085 198.088 174.45 197.572H174.45Z" stroke="#D33833" stroke-width="6.14065"/>
<path d="M176.652 198.039C176.652 198.039 176.179 197.357 176.517 197.153C176.855 196.948 177.193 197.153 177.395 196.812C177.598 196.472 177.395 196.267 177.463 195.858C177.531 195.45 177.869 195.381 178.206 195.313C178.544 195.245 179.49 195.109 179.624 195.45L179.219 194.223L178.409 193.95L175.842 195.45L175.707 196.199V197.698L176.652 198.039ZM169.56 200.287C169.478 199.224 169.393 198.162 169.297 197.1C169.154 195.513 169.675 195.79 171.038 195.79C171.246 195.79 172.32 196.041 172.397 196.199C172.765 196.958 171.781 196.789 172.821 197.362C173.699 197.845 175.251 197.068 174.896 195.994C174.697 195.756 173.861 195.92 173.562 195.763L171.979 194.936C171.307 194.584 169.756 194.072 169.04 194.563C167.226 195.807 169.154 198.916 169.801 200.214" fill="#EF3D3A"/>
<path d="M171.337 176.145C169.496 175.712 168.581 176.922 168.023 178.177C167.525 178.055 167.723 177.372 167.849 177.023C168.179 176.109 169.507 174.892 170.592 175.057C171.059 175.128 171.69 175.559 171.337 176.145ZM180.307 178.26L180.395 178.263C180.811 179.135 181.171 180.059 181.695 180.829C181.344 181.655 179.033 182.386 179.069 180.902C179.568 180.682 180.431 180.857 180.874 180.576C180.618 179.867 180.248 179.263 180.307 178.26ZM172.28 178.283C172.674 179.013 172.803 179.78 173.364 180.331C173.617 180.58 174.108 180.883 173.864 181.573C173.808 181.736 173.392 182.099 173.151 182.171C172.274 182.432 170.23 182.225 170.922 181.121C171.648 181.155 172.623 181.597 173.165 181.065C172.749 180.394 172.006 179.065 172.28 178.283ZM179.978 185.702C178.657 186.558 177.184 187.489 175.02 187.273C174.558 186.867 174.381 185.965 174.831 185.368C175.065 185.774 174.918 186.52 175.569 186.632C176.797 186.844 178.227 185.874 179.11 185.535C179.658 184.604 179.063 184.261 178.569 183.662C177.559 182.433 176.204 180.911 176.253 179.072C176.662 178.773 176.697 179.528 176.755 179.665C177.283 180.91 178.61 182.503 179.579 183.569C179.817 183.831 180.209 184.083 180.252 184.257C180.378 184.762 179.926 185.366 179.978 185.702H179.978ZM162.565 184.801C162.151 184.562 162.053 183.513 161.567 183.483C160.872 183.44 160.999 184.845 161.002 185.666C160.524 185.228 160.439 183.88 160.791 183.188C160.39 182.99 160.211 183.407 159.99 183.553C160.275 181.462 163.022 182.584 162.565 184.801H162.565ZM180.819 186.573C180.204 187.753 179.334 189.053 177.53 189.091C177.494 188.71 177.465 188.13 177.532 187.9C178.911 187.767 179.763 187.058 180.819 186.573ZM172.176 187.338C173.326 187.949 175.441 188.014 177.005 187.968C177.089 188.314 177.087 188.741 177.09 189.162C175.08 189.263 172.703 188.762 172.176 187.338ZM171.957 188.476C172.753 190.492 175.487 190.26 177.794 190.204C177.692 190.466 177.472 190.775 177.199 190.887C176.459 191.19 174.421 191.42 173.395 190.87C172.744 190.522 172.326 189.733 171.97 189.271C171.798 189.048 170.94 188.477 171.957 188.476" fill="#231F20"/>
<path d="M179.882 199.593C178.948 201.206 178.055 202.863 176.947 204.286C177.411 202.909 177.61 200.603 177.68 198.845C178.652 198.387 179.484 198.949 179.882 199.593Z" fill="#81B0C4"/>
<path d="M184.907 205.392C183.861 205.603 183.127 206.628 182.107 206.562C182.667 205.765 183.649 205.429 184.907 205.392ZM185.368 207.042C184.516 207.133 183.515 207.272 182.651 207.2C183.06 206.57 184.636 206.787 185.368 207.042ZM185.663 208.465C184.705 208.486 183.515 208.467 182.605 208.39C183.143 207.806 185.042 208.173 185.663 208.465Z" fill="#231F20"/>
<path d="M178.08 212.359C178.217 213.573 178.694 214.802 178.634 216.131C178.105 216.311 177.801 216.468 177.091 216.468C177.041 215.338 176.891 213.612 176.936 212.535C177.285 212.559 177.8 212.284 178.08 212.359Z" fill="#DCD9D8"/>
<path d="M176.536 194.478C176.055 194.795 175.646 195.19 175.184 195.528C174.16 195.579 173.601 195.457 172.849 194.863C172.861 194.816 172.936 194.837 172.939 194.779C174.036 195.271 175.429 194.578 176.536 194.478" fill="#F0D6B7"/>
<path d="M170.781 202.017C171.082 200.7 172.263 200.018 173.334 199.293C174.441 200.709 175.113 202.531 175.854 204.288C174.104 203.756 172.315 202.892 170.781 202.017Z" fill="#81B0C4"/>
<path d="M176.936 212.535C176.891 213.612 177.041 215.338 177.091 216.467C177.801 216.468 178.105 216.311 178.634 216.131C178.694 214.802 178.217 213.572 178.08 212.359C177.8 212.284 177.285 212.559 176.936 212.535ZM165.889 206.413C166.357 210.751 167.035 214.398 168.277 218.24C171.036 219.085 174.361 219.159 176.799 218.396C176.351 216.228 176.547 213.588 176.285 211.274C176.088 209.535 176.189 207.785 175.918 206.011C172.964 205.391 168.789 205.866 165.889 206.413ZM176.616 206.038C176.592 207.901 176.699 209.739 176.84 211.605C177.55 211.498 178.031 211.426 178.69 211.28C178.476 209.484 178.502 207.463 178.066 205.874C177.563 205.879 177.119 205.868 176.617 206.038H176.616ZM180.215 205.738C179.878 205.66 179.486 205.735 179.164 205.741C179.316 207.26 179.682 208.936 179.811 210.53C180.318 210.546 180.588 210.305 181.004 210.225C181.026 208.825 180.882 206.897 180.215 205.738ZM185.662 210.759C186.717 210.501 187.38 209.198 187.085 207.859C186.887 206.96 186.535 205.266 186.157 204.69C185.878 204.265 185.123 203.708 184.519 204.098C183.537 204.732 181.807 204.916 181.091 205.684C181.45 206.89 181.561 208.547 181.709 210.075C182.936 210.152 184.445 209.734 185.466 210.178C184.753 210.41 183.829 210.412 183.214 210.751C183.717 210.996 184.894 210.947 185.662 210.759ZM175.854 204.288C175.113 202.531 174.44 200.709 173.334 199.293C172.262 200.018 171.082 200.7 170.781 202.017C172.315 202.892 174.103 203.756 175.854 204.288ZM177.68 198.846C177.61 200.603 177.411 202.909 176.947 204.287C178.055 202.864 178.948 201.207 179.882 199.593C179.484 198.949 178.652 198.387 177.68 198.845V198.846ZM175.61 198.103C175.19 198.058 174.834 198.59 174.288 198.36C174.163 198.499 174.05 198.651 173.922 198.787C175.127 200.252 175.675 202.331 176.606 204.053C177.106 202.399 177.048 200.587 177.158 198.781C176.472 198.825 176.091 198.155 175.61 198.103ZM174.279 196.331C174.234 196.833 174.35 196.997 174.45 197.572C176.085 198.088 175.8 195.308 174.279 196.331V196.331ZM172.465 195.731C171.761 195.342 170.702 194.919 169.792 194.744C168.664 194.526 168.77 196.296 168.817 197.352C168.855 198.189 169.286 199.073 169.473 199.628C169.561 199.887 169.581 200.162 169.801 200.214C170.189 200.305 171.471 199.788 171.836 199.587C172.608 199.163 173.208 198.488 173.863 198.035C173.872 197.815 173.88 197.594 173.889 197.374C173.495 197.176 173.039 197.035 172.46 197.009C172.853 196.81 173.43 196.813 173.788 196.576C173.792 196.487 173.795 196.4 173.798 196.312C173.145 196.262 172.896 195.968 172.465 195.731ZM165.735 194.497C165.15 195.096 167.375 195.912 168.084 195.956C168.08 195.577 168.298 195.22 168.254 194.948C167.412 194.799 166.307 194.898 165.735 194.497H165.735ZM172.939 194.778C172.936 194.837 172.861 194.816 172.848 194.863C173.601 195.456 174.16 195.579 175.184 195.528C175.646 195.19 176.055 194.794 176.536 194.478C175.429 194.577 174.035 195.271 172.939 194.778ZM179.552 196.801C179.52 196.136 179.347 194.768 178.939 194.528C178.083 194.024 176.562 195.545 175.918 195.778C175.988 195.981 176.104 196.142 176.112 196.403C176.494 196.308 176.958 196.373 177.288 196.537C176.906 196.58 176.483 196.577 176.23 196.76C176.137 197.03 176.253 197.398 176.191 197.773C177.098 198.031 178.133 198.169 179.279 198.203C179.502 197.91 179.578 197.353 179.552 196.801L179.552 196.801ZM164.75 195.076C164.567 194.944 163.324 193.314 163.154 193.381C160.906 194.276 158.804 195.822 156.926 197.285C158.717 201.161 159.44 205.911 159.568 210.488C161.619 211.457 163.421 212.852 166.205 212.998C165.883 210.698 165.589 208.647 165.406 206.482C164.706 206.185 163.703 206.496 163.048 206.39C163.043 205.594 164.048 206.041 164.132 205.506C164.195 205.101 163.579 205.071 163.779 204.433C164.291 204.621 164.56 205.035 165.105 205.191C165.604 204.091 165.099 202.143 165.17 201.223C165.184 201.051 165.256 200.267 165.639 200.404C165.979 200.526 165.62 202.49 165.657 203.36C165.691 204.162 165.561 204.938 165.883 205.442C168.573 205.072 171.307 204.834 174.218 204.753C173.577 204.476 172.817 204.214 171.983 203.74C171.53 203.483 170.105 202.947 169.975 202.514C169.767 201.824 170.521 201.456 170.65 200.864C169.292 201.612 169.027 200.148 168.706 199.112C168.415 198.173 168.249 197.472 168.178 196.93C167.008 196.368 165.757 195.798 164.75 195.076ZM178.364 193.579C180.237 192.662 180.574 197.003 179.84 198.401C179.954 198.818 180.344 198.978 180.503 199.353C179.458 201.242 178.297 203.005 177.231 204.871C178.024 204.373 179.157 204.782 180.091 204.409C180.432 204.273 180.679 203.485 180.937 202.855C181.648 201.12 182.394 198.934 182.726 197.278C182.801 196.901 183.005 196.08 182.959 195.744C182.878 195.143 182.069 194.697 181.658 194.326C180.901 193.639 180.424 193.035 179.634 192.393C179.313 192.87 178.626 193.191 178.364 193.579ZM160.467 176.823C159.574 177.813 159.761 179.67 159.869 180.99C161.482 179.966 163.623 181.071 163.603 182.812C164.373 182.792 163.891 181.842 163.752 181.23C163.296 179.231 164.519 177.06 163.807 175.233C162.425 175.339 161.29 175.908 160.467 176.823ZM166.853 171.073C164.832 171.651 162.243 173.132 161.413 174.963C162.056 174.869 162.502 174.542 163.136 174.501C163.376 174.485 163.69 174.602 163.965 174.533C164.514 174.396 164.977 173.154 165.391 172.692C165.795 172.241 166.28 172.048 166.613 171.637C166.826 171.533 167.141 171.541 167.153 171.217C167.061 171.118 166.963 171.042 166.853 171.073ZM177.37 171.617C175.273 170.423 171.724 169.525 169.493 170.647C167.693 171.553 165.26 173.05 164.43 174.949C165.205 176.781 164.201 178.459 164.137 180.319C164.102 181.308 164.598 182.172 164.636 183.249C164.371 183.691 163.561 183.745 163 183.715C162.811 182.762 162.481 181.691 161.508 181.583C160.132 181.431 159.125 182.581 159.063 183.782C158.988 185.194 160.138 187.535 161.767 187.373C162.396 187.31 162.551 186.673 163.236 186.68C163.608 187.428 162.663 187.663 162.566 188.198C162.541 188.336 162.644 188.876 162.704 189.129C163 190.362 163.66 191.959 164.309 192.898C165.133 194.089 166.752 194.268 168.494 194.385C168.805 193.709 169.951 193.765 170.698 193.941C169.803 193.584 168.971 192.717 168.281 191.95C167.489 191.07 166.687 190.126 166.647 188.975C168.143 191.069 169.38 192.899 172.101 193.82C174.16 194.517 176.565 193.501 178.147 192.38C178.804 191.914 179.196 191.175 179.662 190.498C181.408 187.964 182.223 184.348 182.044 180.842C181.971 179.397 181.974 177.956 181.493 176.983C180.99 175.966 179.291 175.057 178.296 175.976C178.111 174.988 179.123 174.376 180.312 174.732C179.464 173.628 178.575 172.302 177.37 171.617ZM181.278 204.235C182.916 203.414 185.978 202.023 187.006 204.239C187.385 205.055 187.83 206.435 188.026 207.278C188.303 208.467 187.725 210.967 186.513 211.366C185.444 211.718 184.195 211.697 182.906 211.435C182.754 211.308 182.585 211.086 182.467 210.855C181.546 210.819 180.685 210.905 179.957 211.286C180.026 211.973 179.566 212.083 179.134 212.224C178.814 213.504 179.775 215.176 179.545 216.343C179.381 217.174 178.367 217.303 177.621 217.458C177.597 217.92 177.654 218.306 177.705 218.697C177.535 219.331 176.77 219.691 176.046 219.78C173.663 220.068 170.045 220.198 167.753 219.367C167.114 217.784 166.61 215.859 166.077 214.052C163.841 214.293 162.033 213.079 160.329 212.284C159.739 212.008 158.922 211.856 158.702 211.382C158.488 210.923 158.576 210.044 158.523 209.213C158.388 207.092 158.272 205.046 157.717 202.874C157.468 201.899 157.033 201.039 156.73 200.1C156.45 199.23 155.96 198.154 155.832 197.286C155.643 196 156.844 195.928 157.612 195.37C158.799 194.509 159.73 194.032 161.016 193.254C161.397 193.023 162.545 192.44 162.675 192.172C162.935 191.639 162.23 190.888 162.041 190.471C161.743 189.811 161.587 189.25 161.544 188.598C160.466 188.427 159.649 187.779 159.155 187.049C158.338 185.841 157.771 183.606 158.478 181.906C158.534 181.772 158.81 181.509 158.851 181.303C158.931 180.898 158.7 180.359 158.685 179.929C158.611 177.719 159.056 175.815 160.53 175.149C161.129 172.743 163.272 171.943 165.291 170.747C166.045 170.3 166.877 170.015 167.736 169.696C170.818 168.552 175.546 168.767 178.104 170.719C179.189 171.546 180.922 173.293 181.542 174.558C183.18 177.898 183.064 183.479 181.918 187.541C181.764 188.087 181.541 188.889 181.229 189.544C181.012 190.001 180.336 190.917 180.418 191.321C180.502 191.738 181.959 192.854 182.271 193.158C182.833 193.705 183.902 194.431 183.988 195.122C184.081 195.857 183.667 196.862 183.457 197.571C182.757 199.938 182.073 202.126 181.278 204.235Z" fill="#231F20"/>
<path d="M170.345 187.853C170.433 187.734 170.922 187.553 171.606 187.885C171.606 187.885 170.796 188.021 170.863 189.385L170.526 189.316C170.525 189.316 170.176 188.08 170.345 187.853Z" fill="#F7E4CD"/>
<path d="M176.267 199.571C176.267 199.671 176.228 199.766 176.158 199.836C176.088 199.906 175.994 199.946 175.895 199.946C175.797 199.946 175.702 199.906 175.633 199.836C175.563 199.766 175.524 199.671 175.524 199.571C175.524 199.472 175.563 199.377 175.633 199.306C175.702 199.236 175.797 199.197 175.895 199.197C175.994 199.197 176.088 199.236 176.158 199.306C176.228 199.377 176.267 199.472 176.267 199.571ZM176.638 201.309C176.638 201.408 176.599 201.504 176.529 201.574C176.46 201.644 176.365 201.684 176.267 201.684C176.168 201.683 176.074 201.644 176.004 201.574C175.934 201.503 175.895 201.408 175.895 201.308C175.895 201.209 175.934 201.114 176.004 201.043C176.074 200.973 176.168 200.934 176.267 200.934C176.365 200.934 176.46 200.973 176.53 201.044C176.599 201.114 176.638 201.209 176.638 201.309" fill="#1D1919"/>
<path d="M206.348 189.681C206.131 189.709 205.947 189.736 205.795 189.764C205.623 189.796 205.452 189.834 205.282 189.879C205.06 189.939 204.917 190.046 204.855 190.199C204.793 190.352 204.762 190.527 204.762 190.725V197.147C204.762 197.739 204.644 198.281 204.408 198.774C204.172 199.266 203.848 199.68 203.435 200.014C203.018 200.342 202.551 200.59 202.036 200.757C201.521 200.924 200.97 201.008 200.385 201.008C199.37 201.008 198.553 200.761 197.932 200.269C197.31 199.776 197 199.101 197 198.242C197 197.733 197.142 197.312 197.427 196.978C197.712 196.644 198.104 196.477 198.603 196.477C199.075 196.477 199.45 196.617 199.729 196.896C200.009 197.175 200.148 197.52 200.148 197.93C200.148 198.28 200.028 198.604 199.786 198.902C199.545 199.201 199.27 199.476 198.961 199.727V199.834C199.01 199.943 199.116 200.036 199.279 200.113C199.442 200.19 199.608 200.228 199.776 200.228C200.429 200.228 200.942 199.992 201.314 199.522C201.687 199.051 201.873 198.339 201.873 197.386V190.807C201.873 190.61 201.843 190.445 201.783 190.314C201.723 190.183 201.579 190.067 201.35 189.969C201.186 189.898 200.989 189.838 200.757 189.788C200.526 189.739 200.333 189.703 200.181 189.681V189.041H206.348V189.681H206.348ZM215.997 198.726C215.807 199.038 215.578 199.332 215.31 199.608C215.041 199.885 214.736 200.121 214.394 200.318C214.031 200.526 213.663 200.683 213.292 200.79C212.92 200.897 212.493 200.95 212.01 200.95C211.208 200.95 210.515 200.835 209.932 200.606C209.349 200.376 208.867 200.067 208.488 199.678C208.108 199.29 207.825 198.832 207.638 198.303C207.45 197.776 207.357 197.203 207.357 196.584C207.357 196.026 207.459 195.491 207.662 194.98C207.862 194.473 208.156 194.009 208.528 193.613C208.897 193.225 209.362 192.91 209.924 192.669C210.485 192.429 211.113 192.308 211.807 192.308C212.567 192.308 213.19 192.401 213.678 192.587C214.167 192.773 214.571 193.03 214.891 193.359C215.2 193.671 215.425 194.038 215.566 194.462C215.707 194.887 215.778 195.331 215.778 195.796V196.33H210.278C210.278 197.451 210.492 198.305 210.921 198.89C211.349 199.476 212.03 199.769 212.963 199.769C213.472 199.769 213.931 199.628 214.338 199.346C214.744 199.064 215.092 198.707 215.379 198.275L215.997 198.726ZM212.889 195.607C212.889 195.279 212.873 194.942 212.841 194.598C212.808 194.253 212.751 193.971 212.67 193.752C212.577 193.495 212.451 193.301 212.291 193.17C212.131 193.038 211.929 192.973 211.685 192.973C211.268 192.973 210.934 193.186 210.684 193.613C210.435 194.04 210.299 194.715 210.278 195.64L212.889 195.607ZM227.518 200.688H222.628V200.088C222.731 200.078 222.856 200.064 223.002 200.047C223.149 200.031 223.26 200.004 223.336 199.965C223.45 199.905 223.531 199.817 223.58 199.703C223.629 199.588 223.653 199.418 223.653 199.194V195.353C223.653 194.795 223.551 194.375 223.347 194.093C223.143 193.811 222.843 193.67 222.445 193.67C222.228 193.67 222.025 193.703 221.838 193.769C221.65 193.834 221.467 193.93 221.287 194.056C221.129 194.166 221.003 194.278 220.908 194.393C220.825 194.492 220.745 194.593 220.667 194.696V199.104C220.667 199.295 220.694 199.455 220.748 199.584C220.803 199.712 220.892 199.809 221.017 199.875C221.103 199.924 221.212 199.968 221.342 200.006C221.472 200.045 221.6 200.072 221.725 200.088V200.688H216.778V200.088C216.915 200.077 217.052 200.062 217.189 200.043C217.327 200.024 217.445 199.998 217.543 199.965C217.716 199.905 217.836 199.812 217.901 199.686C217.966 199.56 217.999 199.396 217.999 199.194V194.417C217.999 194.247 217.955 194.08 217.868 193.916C217.782 193.752 217.668 193.618 217.527 193.514C217.429 193.448 217.306 193.394 217.156 193.35C217.007 193.306 216.843 193.276 216.664 193.26V192.661L220.545 192.447L220.667 192.57V193.76H220.7C220.883 193.595 221.068 193.431 221.253 193.268C221.47 193.077 221.67 192.921 221.855 192.8C222.055 192.669 222.319 192.557 222.644 192.464C222.969 192.371 223.317 192.324 223.685 192.324C224.57 192.324 225.232 192.577 225.675 193.083C226.117 193.589 226.338 194.261 226.338 195.098V199.12C226.338 199.322 226.367 199.484 226.427 199.604C226.487 199.725 226.598 199.82 226.761 199.891C226.847 199.93 226.955 199.968 227.082 200.006C227.209 200.045 227.355 200.072 227.517 200.088V200.687L227.518 200.688ZM238.713 200.688H234.878C234.406 199.853 233.975 199.144 233.585 198.563C233.222 198.021 232.853 197.482 232.48 196.946L232.001 197.355V199.145C232.001 199.342 232.029 199.503 232.086 199.629C232.143 199.755 232.253 199.848 232.415 199.908C232.513 199.952 232.627 199.99 232.757 200.023C232.887 200.055 233.017 200.078 233.148 200.088V200.687H228.095V200.088C228.232 200.077 228.369 200.062 228.505 200.043C228.641 200.024 228.761 199.998 228.865 199.965C229.04 199.905 229.159 199.812 229.222 199.686C229.284 199.56 229.316 199.396 229.316 199.194V190.042C229.316 189.862 229.276 189.674 229.198 189.48C229.119 189.286 229.004 189.14 228.852 189.041C228.749 188.976 228.594 188.921 228.388 188.877C228.182 188.833 227.995 188.806 227.827 188.795V188.196L231.878 187.982L232 188.114V196.583C232.401 196.222 232.852 195.804 233.353 195.328C233.854 194.852 234.257 194.458 234.56 194.146C234.739 193.96 234.838 193.819 234.857 193.723C234.876 193.628 234.885 193.569 234.885 193.547C234.885 193.448 234.8 193.366 234.629 193.301C234.457 193.235 234.199 193.178 233.855 193.128V192.546H237.988V193.112C237.447 193.265 237.034 193.409 236.75 193.543C236.465 193.677 236.155 193.856 235.82 194.08C235.599 194.227 235.384 194.382 235.174 194.545C234.966 194.707 234.727 194.908 234.456 195.15C234.987 195.927 235.477 196.646 235.926 197.307C236.376 197.969 236.847 198.669 237.339 199.407C237.507 199.664 237.716 199.837 237.965 199.924C238.214 200.012 238.463 200.066 238.713 200.088V200.688H238.713ZM243.944 200.688H238.802V200.088C238.943 200.078 239.081 200.064 239.217 200.047C239.352 200.031 239.469 200.004 239.567 199.965C239.74 199.9 239.862 199.805 239.933 199.682C240.003 199.559 240.039 199.396 240.039 199.194V194.417C240.039 194.225 239.995 194.057 239.909 193.912C239.822 193.767 239.713 193.651 239.583 193.563C239.485 193.498 239.338 193.435 239.14 193.375C238.942 193.314 238.761 193.276 238.599 193.26V192.661L242.585 192.447L242.707 192.57V199.087C242.707 199.278 242.748 199.441 242.829 199.575C242.911 199.71 243.027 199.809 243.179 199.875C243.288 199.924 243.407 199.968 243.537 200.006C243.667 200.045 243.803 200.072 243.944 200.088V200.687V200.688ZM242.756 189.493C242.756 189.909 242.597 190.263 242.28 190.556C241.963 190.848 241.587 190.995 241.153 190.995C240.714 190.995 240.336 190.848 240.018 190.556C239.701 190.263 239.542 189.909 239.542 189.493C239.542 189.077 239.701 188.721 240.018 188.426C240.336 188.13 240.714 187.983 241.153 187.983C241.593 187.983 241.97 188.13 242.284 188.426C242.599 188.721 242.756 189.077 242.756 189.493ZM255.432 200.688H250.542V200.088C250.645 200.078 250.77 200.064 250.916 200.047C251.063 200.031 251.174 200.004 251.25 199.965C251.364 199.905 251.445 199.817 251.494 199.703C251.543 199.588 251.567 199.418 251.567 199.194V195.353C251.567 194.795 251.465 194.375 251.261 194.093C251.057 193.811 250.757 193.67 250.36 193.67C250.142 193.67 249.94 193.703 249.752 193.769C249.564 193.834 249.381 193.93 249.201 194.056C249.043 194.166 248.917 194.278 248.822 194.393C248.739 194.492 248.659 194.593 248.581 194.696V199.104C248.581 199.295 248.608 199.455 248.663 199.584C248.717 199.712 248.806 199.809 248.931 199.875C249.018 199.924 249.126 199.968 249.256 200.006C249.387 200.045 249.514 200.072 249.639 200.088V200.688H244.692V200.088C244.83 200.077 244.967 200.062 245.103 200.043C245.241 200.024 245.359 199.998 245.457 199.965C245.631 199.905 245.75 199.812 245.815 199.686C245.88 199.56 245.913 199.396 245.913 199.194V194.417C245.913 194.247 245.869 194.08 245.783 193.916C245.696 193.752 245.582 193.618 245.441 193.514C245.343 193.448 245.22 193.394 245.071 193.35C244.921 193.306 244.757 193.276 244.579 193.26V192.661L248.459 192.447L248.581 192.57V193.76H248.614C248.798 193.595 248.982 193.431 249.167 193.268C249.384 193.077 249.585 192.921 249.769 192.8C249.97 192.669 250.233 192.557 250.558 192.464C250.884 192.371 251.231 192.324 251.6 192.324C252.484 192.324 253.147 192.577 253.589 193.083C254.031 193.589 254.252 194.261 254.252 195.098V199.12C254.252 199.322 254.282 199.484 254.341 199.604C254.401 199.725 254.512 199.82 254.675 199.891C254.762 199.93 254.869 199.968 254.996 200.006C255.124 200.045 255.269 200.072 255.431 200.088V200.687L255.432 200.688ZM259.955 200.967C259.433 200.967 258.913 200.888 258.414 200.733C257.912 200.577 257.523 200.411 257.246 200.236L257.002 200.794H256.368L256.262 197.733H256.856C256.937 197.979 257.073 198.257 257.263 198.566C257.453 198.875 257.669 199.153 257.914 199.399C258.168 199.645 258.46 199.853 258.788 200.023C259.116 200.192 259.468 200.277 259.842 200.277C260.335 200.277 260.703 200.18 260.944 199.986C261.185 199.792 261.306 199.492 261.306 199.087C261.306 198.868 261.252 198.688 261.143 198.546C261.035 198.403 260.886 198.28 260.696 198.176C260.484 198.067 260.253 197.974 260 197.897C259.748 197.821 259.438 197.728 259.069 197.618C258.7 197.509 258.384 197.398 258.121 197.286C257.858 197.173 257.585 196.997 257.303 196.756C257.059 196.543 256.864 196.286 256.718 195.985C256.571 195.684 256.498 195.326 256.498 194.91C256.498 194.138 256.819 193.514 257.462 193.038C258.105 192.562 258.947 192.324 259.988 192.324C260.482 192.324 260.936 192.375 261.351 192.476C261.766 192.578 262.114 192.688 262.397 192.809L262.567 192.324H263.186L263.316 195.123H262.746C262.556 194.554 262.231 194.063 261.77 193.65C261.309 193.237 260.813 193.03 260.281 193.03C259.863 193.03 259.535 193.118 259.297 193.293C259.058 193.468 258.939 193.711 258.939 194.023C258.939 194.439 259.113 194.74 259.463 194.926C259.812 195.112 260.3 195.287 260.928 195.451C261.898 195.703 262.607 196.046 263.057 196.481C263.506 196.916 263.731 197.47 263.731 198.143C263.731 199.041 263.382 199.736 262.685 200.228C261.988 200.72 261.078 200.967 259.955 200.967H259.955Z" fill="black"/>
</g>
<path d="M55.18 201H56.54L53.38 194H52.1L48.95 201H50.29L50.98 199.38H54.48L55.18 201ZM51.42 198.36L52.73 195.3L54.05 198.36H51.42ZM58.4202 199.9L62.5402 194.87V194H56.7702V195.1H60.8202L56.7002 200.13V201H62.6702V199.9H58.4202ZM66.6711 201.1C68.5811 201.1 69.7311 199.99 69.7311 197.95V194H68.4511V197.9C68.4511 199.34 67.8111 199.96 66.6811 199.96C65.5511 199.96 64.9011 199.34 64.9011 197.9V194H63.6011V197.95C63.6011 199.99 64.7511 201.1 66.6711 201.1ZM77.3317 201L75.7217 198.7C76.6717 198.33 77.2117 197.55 77.2117 196.49C77.2117 194.94 76.0717 194 74.2317 194H71.3517V201H72.6517V198.96H74.2317C74.3217 198.96 74.4117 198.96 74.5017 198.95L75.9317 201H77.3317ZM75.9017 196.49C75.9017 197.37 75.3117 197.89 74.1717 197.89H72.6517V195.1H74.1717C75.3117 195.1 75.9017 195.61 75.9017 196.49ZM79.7662 199.91V197.98H83.1462V196.91H79.7662V195.09H83.5762V194H78.4662V201H83.7162V199.91H79.7662ZM49.94 211H53C55.27 211 56.82 209.6 56.82 207.5C56.82 205.4 55.27 204 53 204H49.94V211ZM51.24 209.9V205.1H52.94C54.5 205.1 55.51 206.05 55.51 207.5C55.51 208.95 54.5 209.9 52.94 209.9H51.24ZM59.3017 209.91V207.98H62.6817V206.91H59.3017V205.09H63.1117V204H58.0017V211H63.2517V209.91H59.3017ZM69.5033 204L67.1533 209.4L64.8233 204H63.4133L66.4733 211H67.7533L70.8033 204H69.5033ZM74.5338 211.1C76.7038 211.1 78.3038 209.58 78.3038 207.5C78.3038 205.42 76.7038 203.9 74.5338 203.9C72.3638 203.9 70.7638 205.43 70.7638 207.5C70.7638 209.57 72.3638 211.1 74.5338 211.1ZM74.5338 209.96C73.1238 209.96 72.0738 208.93 72.0738 207.5C72.0738 206.07 73.1238 205.04 74.5338 205.04C75.9438 205.04 76.9938 206.07 76.9938 207.5C76.9938 208.93 75.9438 209.96 74.5338 209.96ZM82.3618 204H79.4818V211H80.7818V208.98H82.3618C84.2018 208.98 85.3418 208.03 85.3418 206.49C85.3418 204.94 84.2018 204 82.3618 204ZM82.3018 207.88H80.7818V205.1H82.3018C83.4418 205.1 84.0318 205.61 84.0318 206.49C84.0318 207.37 83.4418 207.88 82.3018 207.88ZM88.7077 211.1C90.6277 211.1 91.5377 210.14 91.5377 209.02C91.5377 206.45 87.3877 207.42 87.3877 205.93C87.3877 205.4 87.8277 204.98 88.9077 204.98C89.5177 204.98 90.2077 205.16 90.8377 205.53L91.2477 204.52C90.6377 204.12 89.7577 203.9 88.9177 203.9C86.9977 203.9 86.0977 204.86 86.0977 205.99C86.0977 208.59 90.2577 207.6 90.2577 209.11C90.2577 209.63 89.7977 210.02 88.7077 210.02C87.8477 210.02 86.9577 209.7 86.3977 209.25L85.9477 210.26C86.5277 210.76 87.6177 211.1 88.7077 211.1Z" fill="#0072C6"/>
<path d="M33.3131 173L44 177.544V211.624L33.3131 216.252L1 205.313L33.3131 210.025V173Z" fill="#0072C6"/>
<path d="M21.7847 184.865L14.3796 179.311V181.836L6.30137 184.865L3.69276 188.315V195.384L6.30127 196.057V187.894L21.8688 184.865V197.992L6.30127 196.057L12.865 203.63V200.601L21.7847 203.63L27.8434 198.75V183.687L21.7847 184.865Z" fill="#0072C6"/>
<path d="M30.8962 0L16.3839 12.7105L4 35.1608H15.1659L30.8962 0ZM32.8267 2.97389L26.6332 20.605L38.5086 35.6744L15.4704 39.6724H53.228L32.8267 2.97389Z" fill="#0072C6"/>
<path d="M6.48 49.38H2.98L2.29 51H0.95L4.1 44H5.38L8.54 51H7.18L6.48 49.38ZM6.05 48.36L4.73 45.3L3.42 48.36H6.05ZM14.6702 49.9V51H8.70023V50.13L12.8202 45.1H8.77023V44H14.5402V44.87L10.4202 49.9H14.6702ZM18.6711 51.1C17.7044 51.1 16.9511 50.83 16.4111 50.29C15.8711 49.7433 15.6011 48.9633 15.6011 47.95V44H16.9011V47.9C16.9011 49.2733 17.4944 49.96 18.6811 49.96C19.8611 49.96 20.4511 49.2733 20.4511 47.9V44H21.7311V47.95C21.7311 48.9633 21.4611 49.7433 20.9211 50.29C20.3878 50.83 19.6378 51.1 18.6711 51.1ZM27.9317 51L26.5017 48.95C26.4417 48.9567 26.3517 48.96 26.2317 48.96H24.6517V51H23.3517V44H26.2317C26.8384 44 27.3651 44.1 27.8117 44.3C28.2651 44.5 28.6117 44.7867 28.8517 45.16C29.0917 45.5333 29.2117 45.9767 29.2117 46.49C29.2117 47.0167 29.0817 47.47 28.8217 47.85C28.5684 48.23 28.2017 48.5133 27.7217 48.7L29.3317 51H27.9317ZM27.9017 46.49C27.9017 46.0433 27.7551 45.7 27.4617 45.46C27.1684 45.22 26.7384 45.1 26.1717 45.1H24.6517V47.89H26.1717C26.7384 47.89 27.1684 47.77 27.4617 47.53C27.7551 47.2833 27.9017 46.9367 27.9017 46.49ZM35.7162 49.91V51H30.4662V44H35.5762V45.09H31.7662V46.91H35.1462V47.98H31.7662V49.91H35.7162Z" fill="#0072C6"/>
<path d="M128.718 32.9487L123.783 35.0623L128.354 37.0111L133.654 35.0623L128.718 32.9487ZM121.298 35.5907L121.133 45.102L128.353 48.2724V38.3977L121.298 35.5907ZM136.138 35.5907L129.613 38.0679V47.3805L136.138 44.7385V35.5907ZM143.923 6L138.954 8.11367L143.558 10.0624L148.859 8.11367L143.923 6ZM137.033 8.80798V18.3193L143.194 20.1031L143.393 11.45L137.033 8.80798ZM150.813 9.33634L144.983 11.8135V21.16L150.813 18.518V9.33634H150.813ZM120.586 19.3867L115.65 21.5003L120.221 23.4491L125.521 21.5003L120.586 19.3867ZM113.165 22.0287L113 31.54L120.221 34.7104V24.8356L113.165 22.0287ZM128.006 22.0287L121.48 24.5058V33.8185L128.006 31.1764V22.0287ZM136.486 19.0358L131.551 21.1494L136.121 23.0982L141.422 21.1494L136.486 19.0358ZM129.066 21.6778L128.9 31.1891L136.121 34.3596V24.4858L129.066 21.6778ZM143.906 21.6778L137.381 24.155V33.4676L143.906 30.8256V21.6778ZM159.454 6L154.518 8.11362L159.089 10.0624L164.389 8.11362L159.454 6ZM152.033 8.64202L151.868 18.1533L159.089 21.3237V11.45L152.033 8.64202ZM166.874 8.64202L160.348 11.1192V20.4318L166.874 17.7898V8.64202Z" fill="#F7A80D"/>
<path d="M149.18 37H150.54L147.38 30H146.1L142.95 37H144.29L144.98 35.38H148.48L149.18 37ZM145.42 34.36L146.73 31.3L148.05 34.36H145.42ZM159.849 30L158.059 35.35L156.289 30H155.089L153.279 35.32L151.539 30H150.189L152.509 37H153.899L155.659 31.82L157.389 37H158.769L161.089 30H159.849ZM164.118 37.1C166.038 37.1 166.948 36.14 166.948 35.02C166.948 32.45 162.798 33.42 162.798 31.93C162.798 31.4 163.238 30.98 164.318 30.98C164.928 30.98 165.618 31.16 166.248 31.53L166.658 30.52C166.048 30.12 165.168 29.9 164.328 29.9C162.408 29.9 161.508 30.86 161.508 31.99C161.508 34.59 165.668 33.6 165.668 35.11C165.668 35.63 165.208 36.02 164.118 36.02C163.258 36.02 162.368 35.7 161.808 35.25L161.358 36.26C161.938 36.76 163.028 37.1 164.118 37.1Z" fill="#F7A80D"/>
<path d="M131.755 133H133.275L130.155 129.13L133.095 126H131.635L128.175 129.59V126H126.875V133H128.175V131.21L129.285 130.07L131.755 133ZM136.872 133.1C138.782 133.1 139.932 131.99 139.932 129.95V126H138.652V129.9C138.652 131.34 138.012 131.96 136.882 131.96C135.752 131.96 135.102 131.34 135.102 129.9V126H133.802V129.95C133.802 131.99 134.952 133.1 136.872 133.1ZM146.513 129.36C147.053 129.07 147.413 128.54 147.413 127.82C147.413 126.71 146.513 126 144.833 126H141.553V133H145.033C146.833 133 147.773 132.3 147.773 131.1C147.773 130.19 147.263 129.6 146.513 129.36ZM144.693 127.02C145.593 127.02 146.103 127.34 146.103 127.99C146.103 128.63 145.593 128.95 144.693 128.95H142.853V127.02H144.693ZM144.953 131.98H142.853V129.96H144.953C145.933 129.96 146.463 130.27 146.463 130.97C146.463 131.67 145.933 131.98 144.953 131.98ZM150.26 131.91V129.98H153.64V128.91H150.26V127.09H154.07V126H148.96V133H154.21V131.91H150.26ZM161.44 133L159.83 130.7C160.78 130.33 161.32 129.55 161.32 128.49C161.32 126.94 160.18 126 158.34 126H155.46V133H156.76V130.96H158.34C158.43 130.96 158.52 130.96 158.61 130.95L160.04 133H161.44ZM160.01 128.49C160.01 129.37 159.42 129.89 158.28 129.89H156.76V127.1H158.28C159.42 127.1 160.01 127.61 160.01 128.49ZM167.504 126V130.74L163.644 126H162.574V133H163.864V128.26L167.724 133H168.794V126H167.504ZM171.77 131.91V129.98H175.15V128.91H171.77V127.09H175.58V126H170.47V133H175.72V131.91H171.77ZM178.389 133H179.689V127.1H182.009V126H176.069V127.1H178.389V133ZM184.886 133.1C186.806 133.1 187.716 132.14 187.716 131.02C187.716 128.45 183.566 129.42 183.566 127.93C183.566 127.4 184.006 126.98 185.086 126.98C185.696 126.98 186.386 127.16 187.016 127.53L187.426 126.52C186.816 126.12 185.936 125.9 185.096 125.9C183.176 125.9 182.276 126.86 182.276 127.99C182.276 130.59 186.436 129.6 186.436 131.11C186.436 131.63 185.976 132.02 184.886 132.02C184.026 132.02 183.136 131.7 182.576 131.25L182.126 132.26C182.706 132.76 183.796 133.1 184.886 133.1Z" fill="#326DE6"/>
<path d="M149.669 121.353C148.697 121.353 147.78 120.917 147.159 120.128L137.714 108.283C137.093 107.493 136.85 106.486 137.093 105.506L140.466 90.7207C140.682 89.7404 141.33 88.9507 142.221 88.5152L155.876 81.9257C156.308 81.7081 156.794 81.5991 157.28 81.5991C157.765 81.5991 158.251 81.7079 158.683 81.9259L172.339 88.488C173.229 88.9235 173.877 89.7132 174.093 90.6935L177.466 105.479C177.682 106.459 177.466 107.466 176.846 108.256L167.4 120.1C166.779 120.863 165.862 121.326 164.89 121.326L149.669 121.353H149.669Z" fill="#326DE6"/>
<path d="M156.91 82.2798C157.287 82.2798 157.665 82.3614 158.016 82.5248L171.672 89.0869C172.374 89.4409 172.913 90.0944 173.075 90.8568L176.449 105.642C176.638 106.432 176.449 107.248 175.936 107.875L166.49 119.719C166.004 120.345 165.249 120.699 164.466 120.699H149.326C148.543 120.699 147.788 120.345 147.302 119.719L137.856 107.875C137.371 107.248 137.181 106.432 137.344 105.642L140.717 90.8568C140.906 90.0672 141.419 89.4137 142.12 89.0869L155.776 82.4978C156.127 82.3616 156.532 82.28 156.91 82.28L156.91 82.2798ZM156.91 81C156.343 81 155.776 81.1362 155.236 81.3812L141.581 87.9706C140.501 88.488 139.745 89.4409 139.475 90.6117L136.102 105.397C135.832 106.568 136.102 107.766 136.858 108.719L146.303 120.563C147.032 121.489 148.139 122.006 149.299 122.006H164.439C165.6 122.006 166.706 121.489 167.435 120.563L176.881 108.719C177.636 107.793 177.906 106.568 177.636 105.397L174.263 90.6117C173.993 89.4409 173.237 88.488 172.158 87.9706L158.556 81.381C158.043 81.1362 157.476 81 156.91 81Z" fill="white"/>
<path d="M170.973 104.471C170.946 104.471 170.946 104.471 170.973 104.471H170.946C170.919 104.471 170.892 104.471 170.892 104.444C170.838 104.444 170.784 104.416 170.73 104.416C170.541 104.389 170.379 104.362 170.217 104.362C170.136 104.362 170.055 104.362 169.947 104.335H169.92C169.353 104.28 168.895 104.226 168.463 104.09C168.274 104.008 168.22 103.899 168.166 103.79C168.166 103.763 168.139 103.763 168.139 103.736L167.788 103.627C167.954 102.346 167.89 101.046 167.599 99.7875C167.304 98.5191 166.793 97.312 166.088 96.2206L166.358 95.9756V95.9212C166.358 95.7851 166.385 95.6489 166.493 95.5127C166.816 95.2132 167.221 94.9682 167.707 94.6686C167.788 94.6142 167.869 94.587 167.95 94.5324C168.112 94.4508 168.247 94.3692 168.409 94.2603C168.436 94.2331 168.49 94.2059 168.544 94.1515C168.571 94.1241 168.598 94.1241 168.598 94.0969C168.975 93.7701 169.056 93.2256 168.787 92.8715C168.652 92.6809 168.409 92.5721 168.166 92.5721C167.95 92.5721 167.761 92.6537 167.572 92.7899L167.518 92.8443C167.464 92.8715 167.437 92.926 167.383 92.9532C167.248 93.0894 167.14 93.1982 167.032 93.3344C166.979 93.3888 166.925 93.4706 166.844 93.525C166.466 93.9335 166.115 94.2603 165.764 94.5052C165.683 94.5596 165.602 94.587 165.521 94.587C165.467 94.587 165.413 94.587 165.359 94.5597H165.305L164.981 94.7776C164.63 94.3964 164.253 94.0697 163.875 93.7429C162.248 92.46 160.29 91.6755 158.234 91.4829L158.207 91.1289L158.153 91.0745C158.072 90.9927 157.965 90.9111 157.937 90.7205C157.911 90.2848 157.965 89.7947 158.019 89.2502V89.2229C158.019 89.1412 158.045 89.0324 158.072 88.9506C158.099 88.7874 158.126 88.6238 158.153 88.4333V88.1883C158.153 87.6982 157.776 87.2898 157.317 87.2898C157.101 87.2898 156.885 87.3986 156.723 87.562C156.561 87.7254 156.48 87.9431 156.48 88.1883V88.4061C156.48 88.5966 156.507 88.76 156.561 88.9234C156.588 89.0052 156.588 89.0868 156.615 89.1957V89.2229C156.669 89.7675 156.75 90.2576 156.696 90.6933C156.669 90.8839 156.561 90.9655 156.48 91.0473L156.426 91.1017L156.399 91.4557C155.913 91.5101 155.428 91.5645 154.942 91.6734C152.864 92.1364 151.029 93.1984 149.598 94.723L149.328 94.5324H149.275C149.221 94.5324 149.167 94.5597 149.113 94.5597C149.032 94.5597 148.951 94.5324 148.87 94.478C148.519 94.2331 148.168 93.8789 147.79 93.4706C147.736 93.4162 147.682 93.3344 147.601 93.28C147.493 93.1438 147.385 93.0349 147.25 92.8988C147.223 92.8715 147.169 92.8444 147.115 92.7899C147.089 92.7627 147.062 92.7627 147.062 92.7355C146.894 92.5961 146.685 92.5191 146.468 92.5175C146.225 92.5175 145.982 92.6265 145.847 92.8171C145.577 93.171 145.658 93.7156 146.036 94.0423C146.063 94.0423 146.063 94.0697 146.09 94.0697C146.144 94.0969 146.171 94.1513 146.225 94.1785C146.387 94.2873 146.522 94.3691 146.684 94.4508C146.765 94.478 146.846 94.5324 146.927 94.587C147.412 94.8864 147.817 95.1316 148.141 95.4311C148.276 95.5671 148.276 95.7033 148.276 95.8395V95.8939L148.546 96.139C148.492 96.2206 148.438 96.2752 148.411 96.3568C147.061 98.5079 146.549 101.04 146.899 103.545L146.549 103.654C146.549 103.681 146.522 103.681 146.522 103.708C146.468 103.817 146.387 103.926 146.225 104.008C145.82 104.144 145.334 104.199 144.768 104.253H144.74C144.66 104.253 144.552 104.253 144.471 104.28C144.309 104.28 144.147 104.308 143.958 104.335C143.904 104.335 143.85 104.362 143.796 104.362C143.769 104.362 143.742 104.362 143.715 104.389C143.229 104.498 142.932 104.961 143.013 105.397C143.094 105.778 143.445 106.023 143.877 106.023C143.958 106.023 144.012 106.023 144.093 105.996C144.12 105.996 144.147 105.996 144.147 105.968C144.201 105.968 144.255 105.941 144.309 105.941C144.498 105.887 144.633 105.832 144.795 105.751C144.875 105.724 144.956 105.669 145.037 105.642H145.064C145.577 105.451 146.036 105.288 146.468 105.233H146.522C146.684 105.233 146.792 105.315 146.873 105.37C146.899 105.37 146.899 105.397 146.926 105.397L147.304 105.342C147.952 107.357 149.193 109.154 150.84 110.461C151.218 110.761 151.595 111.006 152 111.251L151.838 111.605C151.838 111.632 151.865 111.632 151.865 111.659C151.919 111.768 151.973 111.904 151.919 112.095C151.757 112.503 151.514 112.912 151.218 113.375V113.402C151.164 113.484 151.11 113.538 151.056 113.62C150.948 113.756 150.867 113.892 150.759 114.055C150.732 114.083 150.705 114.137 150.678 114.192C150.678 114.219 150.651 114.246 150.651 114.246C150.435 114.709 150.597 115.226 151.002 115.417C151.11 115.471 151.218 115.499 151.326 115.499C151.649 115.499 151.973 115.281 152.135 114.981C152.135 114.954 152.162 114.927 152.162 114.927C152.189 114.872 152.216 114.818 152.243 114.791C152.324 114.6 152.351 114.464 152.405 114.3L152.486 114.055C152.675 113.511 152.81 113.075 153.053 112.694C153.161 112.531 153.296 112.503 153.404 112.449C153.43 112.449 153.43 112.449 153.457 112.422L153.647 112.068C154.834 112.531 156.129 112.776 157.425 112.776C158.207 112.776 159.017 112.694 159.773 112.503C160.248 112.396 160.717 112.26 161.176 112.095L161.338 112.394C161.365 112.394 161.365 112.394 161.392 112.422C161.527 112.449 161.635 112.503 161.743 112.667C161.959 113.048 162.121 113.511 162.309 114.028V114.055L162.39 114.3C162.444 114.464 162.471 114.627 162.552 114.791C162.579 114.845 162.606 114.872 162.633 114.927C162.633 114.954 162.66 114.981 162.66 114.981C162.822 115.308 163.146 115.499 163.47 115.499C163.578 115.499 163.686 115.471 163.794 115.417C163.983 115.308 164.145 115.144 164.199 114.927C164.253 114.709 164.253 114.464 164.145 114.246C164.145 114.219 164.118 114.219 164.118 114.192C164.091 114.137 164.064 114.083 164.037 114.055C163.956 113.892 163.848 113.756 163.74 113.62C163.686 113.538 163.632 113.484 163.578 113.402V113.375C163.281 112.912 163.011 112.503 162.876 112.095C162.822 111.904 162.876 111.795 162.903 111.659C162.903 111.632 162.93 111.632 162.93 111.605L162.795 111.278C164.226 110.434 165.44 109.236 166.358 107.766C166.844 107.003 167.221 106.159 167.491 105.315L167.815 105.369C167.842 105.369 167.842 105.342 167.869 105.342C167.977 105.288 168.058 105.206 168.22 105.206H168.274C168.706 105.261 169.164 105.424 169.677 105.615H169.704C169.785 105.642 169.866 105.696 169.947 105.723C170.109 105.805 170.244 105.86 170.433 105.914C170.487 105.914 170.541 105.941 170.595 105.941C170.622 105.941 170.649 105.941 170.676 105.968C170.757 105.996 170.811 105.996 170.892 105.996C171.296 105.996 171.647 105.724 171.755 105.37C171.755 105.043 171.458 104.607 170.973 104.471V104.471ZM158.477 103.137L157.29 103.709L156.102 103.137L155.806 101.857L156.615 100.822H157.937L158.747 101.857L158.477 103.137H158.477ZM165.521 100.305C165.73 101.205 165.794 102.134 165.71 103.055L161.581 101.857C161.203 101.748 160.987 101.367 161.068 100.986C161.095 100.877 161.149 100.768 161.23 100.686L164.496 97.7182C164.954 98.4807 165.305 99.352 165.521 100.305V100.305ZM163.2 96.0846L159.665 98.6169C159.368 98.8074 158.963 98.7529 158.72 98.4535C158.639 98.3717 158.612 98.2627 158.585 98.1539L158.342 93.7156C160.18 93.9291 161.893 94.7641 163.2 96.0846ZM155.374 93.8516C155.671 93.7972 155.94 93.7428 156.237 93.6884L155.994 98.0448C155.967 98.426 155.671 98.7527 155.266 98.7527C155.158 98.7527 155.023 98.7255 154.942 98.6711L151.353 96.0846C152.459 94.9682 153.835 94.2057 155.374 93.8517V93.8516ZM150.057 97.718L153.269 100.604C153.565 100.849 153.592 101.312 153.35 101.612C153.269 101.721 153.161 101.802 153.026 101.83L148.843 103.055C148.681 101.203 149.085 99.3246 150.057 97.718ZM149.328 105.097L153.62 104.362C153.97 104.335 154.294 104.58 154.375 104.934C154.402 105.097 154.402 105.233 154.348 105.369L152.702 109.372C151.191 108.392 149.976 106.894 149.328 105.097H149.328ZM159.179 110.516C158.558 110.652 157.937 110.733 157.29 110.733C156.345 110.733 155.428 110.57 154.564 110.298L156.696 106.404C156.912 106.159 157.263 106.05 157.56 106.213C157.686 106.291 157.796 106.393 157.884 106.513L159.962 110.298C159.719 110.379 159.449 110.434 159.179 110.516H159.179ZM164.442 106.731C163.767 107.82 162.876 108.691 161.851 109.372L160.151 105.26C160.07 104.934 160.205 104.58 160.528 104.416C160.636 104.362 160.771 104.335 160.906 104.335L165.224 105.07C165.062 105.669 164.792 106.213 164.442 106.731Z" fill="white"/>
<path fill-rule="evenodd" clip-rule="evenodd" d="M273.496 85.9121L294.453 104.291L287.256 128.017H259.207L252.678 104.267L273.496 85.9121ZM273.504 92.1571L257.977 105.848L262.781 123.328H283.778L289.087 105.824L273.504 92.1571Z" fill="#DF6E46"/>
<path d="M281.805 90.2069C281.805 94.7394 278.13 98.4138 273.598 98.4138C269.065 98.4138 265.391 94.7394 265.391 90.2069C265.391 85.6744 269.065 82 273.598 82C278.13 82 281.805 85.6744 281.805 90.2069Z" fill="#FC8B00"/>
<path d="M299.195 103.494C299.195 108.027 295.521 111.701 290.988 111.701C286.456 111.701 282.781 108.027 282.781 103.494C282.781 98.962 286.456 95.2876 290.988 95.2876C295.521 95.2876 299.195 98.962 299.195 103.494Z" fill="#FC8B00"/>
<path d="M293.138 124.793C293.138 129.326 289.464 133 284.931 133C280.399 133 276.724 129.326 276.724 124.793C276.724 120.261 280.399 116.586 284.931 116.586C289.464 116.586 293.138 120.261 293.138 124.793Z" fill="#FC8B00"/>
<path d="M270.276 124.793C270.276 129.326 266.602 133 262.069 133C257.537 133 253.862 129.326 253.862 124.793C253.862 120.261 257.537 116.586 262.069 116.586C266.602 116.586 270.276 120.261 270.276 124.793Z" fill="#FC8B00"/>
<path d="M264.414 103.494C264.414 108.027 260.739 111.701 256.207 111.701C251.674 111.701 248 108.027 248 103.494C248 98.962 251.674 95.2876 256.207 95.2876C260.739 95.2876 264.414 98.962 264.414 103.494Z" fill="#FC8B00"/>
<path d="M312.18 102H313.54L310.38 95H309.1L305.95 102H307.29L307.98 100.38H311.48L312.18 102ZM308.42 99.36L309.73 96.3L311.05 99.36H308.42ZM315.42 100.9L319.54 95.87V95H313.77V96.1H317.82L313.7 101.13V102H319.67V100.9H315.42ZM323.671 102.1C325.581 102.1 326.731 100.99 326.731 98.95V95H325.451V98.9C325.451 100.34 324.811 100.96 323.681 100.96C322.551 100.96 321.901 100.34 321.901 98.9V95H320.601V98.95C320.601 100.99 321.751 102.1 323.671 102.1ZM334.332 102L332.722 99.7C333.672 99.33 334.212 98.55 334.212 97.49C334.212 95.94 333.072 95 331.232 95H328.352V102H329.652V99.96H331.232C331.322 99.96 331.412 99.96 331.502 99.95L332.932 102H334.332ZM332.902 97.49C332.902 98.37 332.312 98.89 331.172 98.89H329.652V96.1H331.172C332.312 96.1 332.902 96.61 332.902 97.49ZM336.766 100.91V98.98H340.146V97.91H336.766V96.09H340.576V95H335.466V102H340.716V100.91H336.766ZM309.11 112.1C311.03 112.1 311.94 111.14 311.94 110.02C311.94 107.45 307.79 108.42 307.79 106.93C307.79 106.4 308.23 105.98 309.31 105.98C309.92 105.98 310.61 106.16 311.24 106.53L311.65 105.52C311.04 105.12 310.16 104.9 309.32 104.9C307.4 104.9 306.5 105.86 306.5 106.99C306.5 109.59 310.66 108.6 310.66 110.11C310.66 110.63 310.2 111.02 309.11 111.02C308.25 111.02 307.36 110.7 306.8 110.25L306.35 111.26C306.93 111.76 308.02 112.1 309.11 112.1ZM314.329 110.91V108.98H317.709V107.91H314.329V106.09H318.139V105H313.029V112H318.279V110.91H314.329ZM325.508 112L323.898 109.7C324.848 109.33 325.388 108.55 325.388 107.49C325.388 105.94 324.248 105 322.408 105H319.528V112H320.828V109.96H322.408C322.498 109.96 322.588 109.96 322.678 109.95L324.108 112H325.508ZM324.078 107.49C324.078 108.37 323.488 108.89 322.348 108.89H320.828V106.1H322.348C323.488 106.1 324.078 106.61 324.078 107.49ZM331.743 105L329.393 110.4L327.063 105H325.653L328.713 112H329.993L333.043 105H331.743ZM333.581 112H334.881V105H333.581V112ZM339.815 112.1C340.965 112.1 341.945 111.69 342.595 110.93L341.755 110.13C341.245 110.69 340.615 110.96 339.885 110.96C338.435 110.96 337.385 109.94 337.385 108.5C337.385 107.06 338.435 106.04 339.885 106.04C340.615 106.04 341.245 106.31 341.755 106.86L342.595 106.07C341.945 105.31 340.965 104.9 339.825 104.9C337.675 104.9 336.075 106.41 336.075 108.5C336.075 110.59 337.675 112.1 339.815 112.1ZM344.94 110.91V108.98H348.32V107.91H344.94V106.09H348.75V105H343.64V112H348.89V110.91H344.94ZM312.05 117.09V116H306.94V123H308.24V120.32H311.62V119.22H308.24V117.09H312.05ZM318.044 123H319.404L316.244 116H314.964L311.814 123H313.154L313.844 121.38H317.344L318.044 123ZM314.284 120.36L315.594 117.3L316.914 120.36H314.284ZM325.055 119.36C325.595 119.07 325.955 118.54 325.955 117.82C325.955 116.71 325.055 116 323.375 116H320.095V123H323.575C325.375 123 326.315 122.3 326.315 121.1C326.315 120.19 325.805 119.6 325.055 119.36ZM323.235 117.02C324.135 117.02 324.645 117.34 324.645 117.99C324.645 118.63 324.135 118.95 323.235 118.95H321.395V117.02H323.235ZM323.495 121.98H321.395V119.96H323.495C324.475 119.96 325.005 120.27 325.005 120.97C325.005 121.67 324.475 121.98 323.495 121.98ZM333.482 123L331.872 120.7C332.822 120.33 333.362 119.55 333.362 118.49C333.362 116.94 332.222 116 330.382 116H327.502V123H328.802V120.96H330.382C330.472 120.96 330.562 120.96 330.652 120.95L332.082 123H333.482ZM332.052 118.49C332.052 119.37 331.462 119.89 330.322 119.89H328.802V117.1H330.322C331.462 117.1 332.052 117.61 332.052 118.49ZM334.617 123H335.917V116H334.617V123ZM340.85 123.1C342 123.1 342.98 122.69 343.63 121.93L342.79 121.13C342.28 121.69 341.65 121.96 340.92 121.96C339.47 121.96 338.42 120.94 338.42 119.5C338.42 118.06 339.47 117.04 340.92 117.04C341.65 117.04 342.28 117.31 342.79 117.86L343.63 117.07C342.98 116.31 342 115.9 340.86 115.9C338.71 115.9 337.11 117.41 337.11 119.5C337.11 121.59 338.71 123.1 340.85 123.1Z" fill="#DF6E46"/>
<path d="M261.733 40.7487L270.686 25.3202L261.733 9.8916H243.828L234.875 25.3202L243.828 40.7487H261.733" fill="#CAC9C2"/>
<path d="M252.481 32.3626C256.329 32.3626 259.459 29.2478 259.459 25.4191C259.459 21.5907 256.329 18.4761 252.481 18.4761C248.634 18.4761 245.503 21.5907 245.503 25.4191C245.503 29.2478 248.634 32.3626 252.481 32.3626Z" fill="white"/>
<path d="M238.443 4.71896C238.992 3.77345 240.338 3 241.435 3H263.498C264.595 3 265.942 3.77365 266.49 4.71896L272.937 15.8288C272.987 16.5465 272.855 17.2962 272.537 17.8441L268.173 25.2674L260.383 11.8775H235.762C235.179 11.8775 234.528 12.0969 233.961 12.4426L238.443 4.71896Z" fill="#5072AA"/>
<path d="M272.656 15.3425L272.938 15.8288C272.989 16.5465 272.857 17.2962 272.539 17.8441L268.175 25.2674L265.853 21.277L272.656 15.3425Z" fill="#4D6796"/>
<path d="M262.929 8.70721C263.286 8.70679 263.628 8.56553 263.881 8.3144C264.133 8.06327 264.275 7.72279 264.275 7.36765C264.275 7.0125 264.133 6.67202 263.881 6.42089C263.628 6.16976 263.286 6.0285 262.929 6.02808C262.572 6.02839 262.23 6.16962 261.977 6.42076C261.725 6.67191 261.583 7.01245 261.583 7.36765C261.583 7.72283 261.725 8.06334 261.977 8.31447C262.23 8.5656 262.572 8.70685 262.929 8.70721ZM240.867 7.36765C240.865 7.53185 240.896 7.69483 240.958 7.84714C241.019 7.99945 241.111 8.13805 241.227 8.2549C241.343 8.37175 241.481 8.46453 241.633 8.52785C241.785 8.59118 241.949 8.62378 242.114 8.62378C242.279 8.62378 242.442 8.59118 242.595 8.52785C242.747 8.46453 242.885 8.37175 243.001 8.2549C243.117 8.13805 243.208 7.99945 243.27 7.84714C243.332 7.69483 243.362 7.53185 243.36 7.36765C243.356 7.0414 243.223 6.72991 242.99 6.50066C242.756 6.27141 242.442 6.14287 242.114 6.14287C241.786 6.14287 241.471 6.27141 241.238 6.50066C241.004 6.72991 240.871 7.0414 240.867 7.36765Z" fill="white"/>
<path d="M227.412 23.7298L233.961 12.4424C234.527 12.0967 235.179 11.8774 235.762 11.8774H244.641L236.963 25.3413L249.118 46.7082C249.386 47.1689 249.843 47.5881 250.368 47.8975H241.435C240.338 47.8975 238.991 47.1239 238.443 46.1786L227.412 27.1679C226.863 26.2224 226.863 24.6753 227.412 23.7298Z" fill="#CC4232"/>
<path d="M233.665 12.9488L233.959 12.4424C234.525 12.0967 235.177 11.8774 235.759 11.8774H244.638L242.327 15.9305L233.665 12.9488Z" fill="#B23F33"/>
<path d="M242.114 44.6137C242.471 44.6133 242.813 44.472 243.065 44.2209C243.318 43.9697 243.46 43.6292 243.46 43.274C243.46 42.9188 243.318 42.5783 243.065 42.3272C242.813 42.0761 242.471 41.9348 242.114 41.9344C241.757 41.9348 241.415 42.076 241.162 42.3271C240.91 42.5783 240.768 42.9188 240.767 43.274C240.768 43.6292 240.91 43.9697 241.162 44.2209C241.414 44.4721 241.757 44.6134 242.114 44.6137ZM231.636 26.7589C231.993 26.7586 232.335 26.6173 232.587 26.3661C232.84 26.1149 232.982 25.7744 232.982 25.4192C232.982 25.064 232.84 24.7235 232.587 24.4723C232.335 24.2212 231.993 24.08 231.636 24.0796C231.279 24.08 230.937 24.2213 230.684 24.4724C230.432 24.7235 230.29 25.064 230.289 25.4192C230.29 25.7744 230.432 26.1149 230.684 26.3661C230.936 26.6173 231.279 26.7586 231.636 26.7589Z" fill="white"/>
<path d="M260.214 38.8076L272.537 17.8439C272.855 17.296 272.987 16.5464 272.937 15.8286L277.521 23.7297C278.07 24.6752 278.07 26.2223 277.521 27.1678L266.49 46.1784C265.942 47.1237 264.595 47.8972 263.498 47.8972H250.368C249.843 47.588 249.386 47.1687 249.118 46.7079L244.624 38.8074H260.214" fill="#ECB02A"/>
<path d="M251.115 47.8973H250.351C249.826 47.5881 249.368 47.1689 249.101 46.708L244.607 38.8076H249.393L251.115 47.8973Z" fill="#C79732"/>
<path d="M262.929 44.614C263.286 44.6136 263.628 44.4723 263.881 44.2211C264.133 43.9699 264.275 43.6294 264.275 43.2742C264.275 42.9191 264.133 42.5786 263.88 42.3275C263.628 42.0763 263.286 41.9351 262.929 41.9346C262.572 41.935 262.23 42.0762 261.977 42.3273C261.725 42.5785 261.583 42.919 261.582 43.2742C261.583 43.6294 261.725 43.97 261.977 44.2212C262.23 44.4724 262.572 44.6137 262.929 44.614ZM273.426 26.7592C273.783 26.7588 274.125 26.6175 274.377 26.3664C274.63 26.1152 274.772 25.7746 274.772 25.4194C274.772 25.0642 274.63 24.7237 274.377 24.4726C274.125 24.2214 273.783 24.0802 273.426 24.0798C273.069 24.0803 272.726 24.2215 272.474 24.4726C272.222 24.7238 272.08 25.0643 272.079 25.4194C272.08 25.7746 272.222 26.1151 272.474 26.3663C272.726 26.6175 273.069 26.7587 273.426 26.7592Z" fill="white"/>
<path opacity="0.5" d="M291.701 24.5912C291.251 24.8512 290.761 24.9512 290.261 24.9512C288.781 24.9512 287.731 23.9112 287.731 22.4912C287.731 21.0412 288.781 20.0312 290.271 20.0312C291.021 20.0312 291.651 20.2812 292.201 20.8312L293.021 20.0312C292.361 19.2812 291.381 18.8912 290.211 18.8912C288.021 18.8912 286.421 20.4012 286.421 22.4912C286.421 24.5812 288.021 26.0912 290.191 26.0912C291.181 26.0912 292.201 25.7912 292.931 25.2012V22.4112H291.701V24.5912ZM297.715 26.0912C299.885 26.0912 301.485 24.5712 301.485 22.4912C301.485 20.4112 299.885 18.8912 297.715 18.8912C295.545 18.8912 293.945 20.4212 293.945 22.4912C293.945 24.5612 295.545 26.0912 297.715 26.0912ZM297.715 24.9512C296.305 24.9512 295.255 23.9212 295.255 22.4912C295.255 21.0612 296.305 20.0312 297.715 20.0312C299.125 20.0312 300.175 21.0612 300.175 22.4912C300.175 23.9212 299.125 24.9512 297.715 24.9512ZM305.933 26.0912C308.103 26.0912 309.703 24.5712 309.703 22.4912C309.703 20.4112 308.103 18.8912 305.933 18.8912C303.763 18.8912 302.163 20.4212 302.163 22.4912C302.163 24.5612 303.763 26.0912 305.933 26.0912ZM305.933 24.9512C304.523 24.9512 303.473 23.9212 303.473 22.4912C303.473 21.0612 304.523 20.0312 305.933 20.0312C307.343 20.0312 308.393 21.0612 308.393 22.4912C308.393 23.9212 307.343 24.9512 305.933 24.9512ZM315.661 24.5912C315.211 24.8512 314.721 24.9512 314.221 24.9512C312.741 24.9512 311.691 23.9112 311.691 22.4912C311.691 21.0412 312.741 20.0312 314.231 20.0312C314.981 20.0312 315.611 20.2812 316.161 20.8312L316.981 20.0312C316.321 19.2812 315.341 18.8912 314.171 18.8912C311.981 18.8912 310.381 20.4012 310.381 22.4912C310.381 24.5812 311.981 26.0912 314.151 26.0912C315.141 26.0912 316.161 25.7912 316.891 25.2012V22.4112H315.661V24.5912ZM318.406 25.9912H323.366V24.8912H319.706V18.9912H318.406V25.9912ZM325.492 24.9012V22.9712H328.872V21.9012H325.492V20.0812H329.302V18.9912H324.192V25.9912H329.442V24.9012H325.492ZM290.161 36.0912C291.311 36.0912 292.291 35.6812 292.941 34.9212L292.101 34.1212C291.591 34.6812 290.961 34.9512 290.231 34.9512C288.781 34.9512 287.731 33.9312 287.731 32.4912C287.731 31.0512 288.781 30.0312 290.231 30.0312C290.961 30.0312 291.591 30.3012 292.101 30.8512L292.941 30.0612C292.291 29.3012 291.311 28.8912 290.171 28.8912C288.021 28.8912 286.421 30.4012 286.421 32.4912C286.421 34.5812 288.021 36.0912 290.161 36.0912ZM293.986 35.9912H298.946V34.8912H295.286V28.9912H293.986V35.9912ZM302.916 36.0912C305.086 36.0912 306.686 34.5712 306.686 32.4912C306.686 30.4112 305.086 28.8912 302.916 28.8912C300.746 28.8912 299.146 30.4212 299.146 32.4912C299.146 34.5612 300.746 36.0912 302.916 36.0912ZM302.916 34.9512C301.506 34.9512 300.456 33.9212 300.456 32.4912C300.456 31.0612 301.506 30.0312 302.916 30.0312C304.326 30.0312 305.376 31.0612 305.376 32.4912C305.376 33.9212 304.326 34.9512 302.916 34.9512ZM310.874 36.0912C312.784 36.0912 313.934 34.9812 313.934 32.9412V28.9912H312.654V32.8912C312.654 34.3312 312.014 34.9512 310.884 34.9512C309.754 34.9512 309.104 34.3312 309.104 32.8912V28.9912H307.804V32.9412C307.804 34.9812 308.954 36.0912 310.874 36.0912ZM315.554 35.9912H318.614C320.884 35.9912 322.434 34.5912 322.434 32.4912C322.434 30.3912 320.884 28.9912 318.614 28.9912H315.554V35.9912ZM316.854 34.8912V30.0912H318.554C320.114 30.0912 321.124 31.0412 321.124 32.4912C321.124 33.9412 320.114 34.8912 318.554 34.8912H316.854ZM289.801 39.9912H286.921V46.9912H288.221V44.9712H289.801C291.641 44.9712 292.781 44.0212 292.781 42.4812C292.781 40.9312 291.641 39.9912 289.801 39.9912ZM289.741 43.8712H288.221V41.0912H289.741C290.881 41.0912 291.471 41.6012 291.471 42.4812C291.471 43.3612 290.881 43.8712 289.741 43.8712ZM293.879 46.9912H298.839V45.8912H295.179V39.9912H293.879V46.9912ZM304.954 46.9912H306.314L303.154 39.9912H301.874L298.724 46.9912H300.064L300.754 45.3712H304.254L304.954 46.9912ZM301.194 44.3512L302.504 41.2912L303.824 44.3512H301.194ZM308.073 46.9912H309.373V41.0912H311.693V39.9912H305.753V41.0912H308.073V46.9912ZM317.578 41.0812V39.9912H312.468V46.9912H313.768V44.3112H317.148V43.2112H313.768V41.0812H317.578ZM321.827 47.0912C323.997 47.0912 325.597 45.5712 325.597 43.4912C325.597 41.4112 323.997 39.8912 321.827 39.8912C319.657 39.8912 318.057 41.4212 318.057 43.4912C318.057 45.5612 319.657 47.0912 321.827 47.0912ZM321.827 45.9512C320.417 45.9512 319.367 44.9212 319.367 43.4912C319.367 42.0612 320.417 41.0312 321.827 41.0312C323.237 41.0312 324.287 42.0612 324.287 43.4912C324.287 44.9212 323.237 45.9512 321.827 45.9512ZM332.755 46.9912L331.145 44.6912C332.095 44.3212 332.635 43.5412 332.635 42.4812C332.635 40.9312 331.495 39.9912 329.655 39.9912H326.775V46.9912H328.075V44.9512H329.655C329.745 44.9512 329.835 44.9512 329.925 44.9412L331.355 46.9912H332.755ZM331.325 42.4812C331.325 43.3612 330.735 43.8812 329.595 43.8812H328.075V41.0912H329.595C330.735 41.0912 331.325 41.6012 331.325 42.4812ZM341.55 46.9912L341.54 39.9912H340.47L337.74 44.6312L334.96 39.9912H333.89V46.9912H335.13V42.4112L337.43 46.1912H338.01L340.31 42.3512L340.32 46.9912H341.55Z" fill="black"/>
<defs>
<clipPath id="clip0">
<rect width="165" height="51" fill="white" transform="translate(152 169)"/>
</clipPath>
</defs>
</svg>
