<svg width="445" height="159" viewBox="0 0 445 159" fill="none" xmlns="http://www.w3.org/2000/svg">
<path d="M4.3475 127.3L6.56283 123.758H7.9974L5.07748 128.341L8.06723 133H6.61996L4.3475 129.395L2.06234 133H0.621426L3.61752 128.341L0.69125 123.758H2.11947L4.3475 127.3ZM13.4089 133C13.3412 132.865 13.2862 132.623 13.2439 132.276C12.698 132.843 12.0463 133.127 11.2888 133.127C10.6117 133.127 10.0552 132.937 9.61936 132.556C9.18771 132.171 8.97189 131.684 8.97189 131.096C8.97189 130.381 9.24273 129.826 9.78439 129.433C10.3303 129.035 11.0962 128.836 12.0822 128.836H13.2248V128.296C13.2248 127.886 13.1021 127.56 12.8567 127.319C12.6112 127.073 12.2494 126.951 11.7712 126.951C11.3523 126.951 11.001 127.056 10.7175 127.268C10.434 127.48 10.2922 127.736 10.2922 128.036H9.11154C9.11154 127.693 9.23215 127.363 9.47336 127.046C9.7188 126.724 10.0489 126.47 10.4636 126.284C10.8825 126.098 11.3417 126.005 11.841 126.005C12.6324 126.005 13.2523 126.204 13.7009 126.602C14.1495 126.995 14.3822 127.539 14.3991 128.233V131.394C14.3991 132.025 14.4795 132.526 14.6404 132.898V133H13.4089ZM11.4602 132.105C11.8283 132.105 12.1775 132.01 12.5075 131.819C12.8376 131.629 13.0767 131.381 13.2248 131.077V129.667H12.3044C10.8656 129.667 10.1462 130.089 10.1462 130.931C10.1462 131.299 10.2689 131.587 10.5144 131.794C10.7598 132.001 11.0751 132.105 11.4602 132.105ZM17.2145 126.132L17.2462 126.894C17.7498 126.301 18.429 126.005 19.2838 126.005C20.2444 126.005 20.8982 126.373 21.2452 127.109C21.4737 126.779 21.77 126.513 22.1339 126.31C22.5021 126.106 22.9358 126.005 23.4352 126.005C24.9417 126.005 25.7076 126.803 25.733 128.398V133H24.5587V128.468C24.5587 127.977 24.4465 127.611 24.2223 127.37C23.998 127.124 23.6214 127.001 23.0924 127.001C22.6565 127.001 22.2947 127.133 22.0069 127.395C21.7192 127.653 21.552 128.002 21.5055 128.442V133H20.3248V128.5C20.3248 127.501 19.836 127.001 18.8585 127.001C18.0883 127.001 17.5615 127.329 17.2779 127.985V133H16.1036V126.132H17.2145ZM31.6206 133C31.5529 132.865 31.4979 132.623 31.4555 132.276C30.9096 132.843 30.258 133.127 29.5005 133.127C28.8234 133.127 28.2669 132.937 27.831 132.556C27.3994 132.171 27.1836 131.684 27.1836 131.096C27.1836 130.381 27.4544 129.826 27.9961 129.433C28.542 129.035 29.3079 128.836 30.2939 128.836H31.4365V128.296C31.4365 127.886 31.3138 127.56 31.0683 127.319C30.8229 127.073 30.4611 126.951 29.9829 126.951C29.5639 126.951 29.2127 127.056 28.9292 127.268C28.6457 127.48 28.5039 127.736 28.5039 128.036H27.3232C27.3232 127.693 27.4438 127.363 27.685 127.046C27.9305 126.724 28.2606 126.47 28.6753 126.284C29.0942 126.098 29.5534 126.005 30.0527 126.005C30.8441 126.005 31.464 126.204 31.9126 126.602C32.3611 126.995 32.5939 127.539 32.6108 128.233V131.394C32.6108 132.025 32.6912 132.526 32.852 132.898V133H31.6206ZM29.6719 132.105C30.04 132.105 30.3891 132.01 30.7192 131.819C31.0493 131.629 31.2884 131.381 31.4365 131.077V129.667H30.5161C29.0773 129.667 28.3579 130.089 28.3579 130.931C28.3579 131.299 28.4806 131.587 28.7261 131.794C28.9715 132.001 29.2868 132.105 29.6719 132.105ZM37.6415 127.186C37.4637 127.156 37.2712 127.141 37.0638 127.141C36.2936 127.141 35.771 127.469 35.496 128.125V133H34.3216V126.132H35.4642L35.4833 126.925C35.8684 126.312 36.4143 126.005 37.121 126.005C37.3495 126.005 37.523 126.035 37.6415 126.094V127.186ZM39.8728 133H38.6985V126.132H39.8728V133ZM38.6033 124.31C38.6033 124.12 38.6604 123.959 38.7746 123.828C38.8931 123.696 39.0666 123.631 39.2952 123.631C39.5237 123.631 39.6972 123.696 39.8157 123.828C39.9342 123.959 39.9934 124.12 39.9934 124.31C39.9934 124.5 39.9342 124.659 39.8157 124.786C39.6972 124.913 39.5237 124.977 39.2952 124.977C39.0666 124.977 38.8931 124.913 38.7746 124.786C38.6604 124.659 38.6033 124.5 38.6033 124.31ZM42.7389 126.132L42.777 126.995C43.3017 126.335 43.9873 126.005 44.8336 126.005C46.2851 126.005 47.0172 126.824 47.0299 128.461V133H45.8556V128.455C45.8514 127.96 45.7371 127.594 45.5128 127.357C45.2928 127.12 44.9479 127.001 44.4781 127.001C44.0973 127.001 43.763 127.103 43.4752 127.306C43.1875 127.509 42.9632 127.776 42.8024 128.106V133H41.628V126.132H42.7389ZM53.1683 129.382V133H51.9496V123.758H55.3583C56.3697 123.758 57.161 124.016 57.7323 124.532C58.3078 125.049 58.5956 125.732 58.5956 126.583C58.5956 127.48 58.3142 128.172 57.7513 128.658C57.1928 129.141 56.3908 129.382 55.3456 129.382H53.1683ZM53.1683 128.385H55.3583C56.01 128.385 56.5093 128.233 56.8563 127.928C57.2033 127.619 57.3768 127.175 57.3768 126.595C57.3768 126.045 57.2033 125.605 56.8563 125.275C56.5093 124.945 56.0332 124.773 55.4281 124.761H53.1683V128.385ZM64.0007 133C63.933 132.865 63.878 132.623 63.8357 132.276C63.2898 132.843 62.6381 133.127 61.8806 133.127C61.2035 133.127 60.6471 132.937 60.2112 132.556C59.7796 132.171 59.5637 131.684 59.5637 131.096C59.5637 130.381 59.8346 129.826 60.3762 129.433C60.9221 129.035 61.6881 128.836 62.6741 128.836H63.8167V128.296C63.8167 127.886 63.6939 127.56 63.4485 127.319C63.2031 127.073 62.8412 126.951 62.363 126.951C61.9441 126.951 61.5929 127.056 61.3093 127.268C61.0258 127.48 60.884 127.736 60.884 128.036H59.7034C59.7034 127.693 59.824 127.363 60.0652 127.046C60.3106 126.724 60.6407 126.47 61.0554 126.284C61.4744 126.098 61.9335 126.005 62.4329 126.005C63.2242 126.005 63.8442 126.204 64.2927 126.602C64.7413 126.995 64.9741 127.539 64.991 128.233V131.394C64.991 132.025 65.0714 132.526 65.2322 132.898V133H64.0007ZM62.052 132.105C62.4202 132.105 62.7693 132.01 63.0994 131.819C63.4295 131.629 63.6685 131.381 63.8167 131.077V129.667H62.8963C61.4574 129.667 60.738 130.089 60.738 130.931C60.738 131.299 60.8608 131.587 61.1062 131.794C61.3517 132.001 61.6669 132.105 62.052 132.105ZM70.0216 127.186C69.8439 127.156 69.6513 127.141 69.444 127.141C68.6738 127.141 68.1512 127.469 67.8761 128.125V133H66.7018V126.132H67.8444L67.8634 126.925C68.2485 126.312 68.7944 126.005 69.5011 126.005C69.7296 126.005 69.9031 126.035 70.0216 126.094V127.186ZM72.8877 124.469V126.132H74.1699V127.04H72.8877V131.299C72.8877 131.574 72.9448 131.781 73.0591 131.921C73.1734 132.056 73.368 132.124 73.6431 132.124C73.7785 132.124 73.9647 132.099 74.2017 132.048V133C73.8928 133.085 73.5923 133.127 73.3003 133.127C72.7756 133.127 72.3799 132.968 72.1133 132.651C71.8467 132.333 71.7134 131.883 71.7134 131.299V127.04H70.4629V126.132H71.7134V124.469H72.8877ZM76.5282 126.132L76.5663 126.995C77.0911 126.335 77.7766 126.005 78.623 126.005C80.0745 126.005 80.8065 126.824 80.8192 128.461V133H79.6449V128.455C79.6407 127.96 79.5264 127.594 79.3022 127.357C79.0821 127.12 78.7372 127.001 78.2675 127.001C77.8866 127.001 77.5523 127.103 77.2646 127.306C76.9768 127.509 76.7525 127.776 76.5917 128.106V133H75.4174V126.132H76.5282ZM85.3103 133.127C84.3793 133.127 83.6219 132.822 83.0379 132.213C82.4539 131.599 82.1619 130.78 82.1619 129.756V129.541C82.1619 128.859 82.291 128.252 82.5491 127.719C82.8115 127.181 83.1754 126.762 83.6409 126.462C84.1106 126.157 84.6184 126.005 85.1643 126.005C86.0572 126.005 86.7513 126.299 87.2464 126.887C87.7415 127.475 87.989 128.318 87.989 129.414V129.902H83.3362C83.3531 130.579 83.5499 131.127 83.9265 131.546C84.3074 131.961 84.7898 132.168 85.3738 132.168C85.7885 132.168 86.1398 132.084 86.4275 131.915C86.7153 131.745 86.9671 131.521 87.1829 131.242L87.9002 131.8C87.3247 132.685 86.4614 133.127 85.3103 133.127ZM85.1643 126.97C84.6904 126.97 84.2926 127.143 83.971 127.49C83.6494 127.833 83.4505 128.315 83.3743 128.938H86.8147V128.849C86.7809 128.252 86.6201 127.791 86.3323 127.465C86.0445 127.135 85.6552 126.97 85.1643 126.97ZM92.5436 127.186C92.3659 127.156 92.1733 127.141 91.966 127.141C91.1958 127.141 90.6732 127.469 90.3981 128.125V133H89.2238V126.132H90.3664L90.3854 126.925C90.7705 126.312 91.3164 126.005 92.0231 126.005C92.2516 126.005 92.4251 126.035 92.5436 126.094V127.186Z" fill="#939393"/>
<path d="M87.3812 40C89.5248 43.7128 89.5248 48.2872 87.3812 52L71.8867 78.8372C69.7432 82.55 65.7816 84.8372 61.4944 84.8372L30.5056 84.8372C26.2184 84.8372 22.2568 82.55 20.1133 78.8372L4.61881 52C2.47521 48.2872 2.47521 43.7128 4.61881 40L20.1133 13.1628C22.2569 9.45001 26.2184 7.16283 30.5056 7.16283L61.4944 7.16283C65.7816 7.16283 69.7432 9.45002 71.8868 13.1628L87.3812 40Z" stroke="#383838" stroke-width="2"/>
<path d="M53.7592 30.5768L46.0473 45.392C46.0278 45.4324 46.0161 45.4571 46.0073 45.4791C46.0056 45.4834 46.0042 45.487 46.0031 45.4899C46.0137 45.5196 46.0234 45.5441 46.0344 45.5674L53.7593 60.4233L53.7721 60.4479L53.7812 60.4715C53.7826 60.4731 53.7859 60.4764 53.7926 60.4808C53.8063 60.4897 53.8257 60.4971 53.846 60.5H58.4027C58.4044 60.4991 58.4069 60.4976 58.4102 60.4953C58.4257 60.4845 58.4485 60.4617 58.4683 60.4257C58.5128 60.3446 58.5002 60.2845 58.4905 60.2665L58.4885 60.2625L50.9068 45.7313L50.7863 45.5003L50.9065 45.2692L58.4882 30.6965C58.4935 30.6862 58.5058 30.6447 58.4732 30.5773C58.4583 30.5465 58.4387 30.5218 58.4201 30.5056C58.4177 30.5035 58.4155 30.5016 58.4133 30.5H53.8348C53.8303 30.5018 53.8229 30.5055 53.8136 30.5119C53.8025 30.5196 53.7916 30.5292 53.7825 30.5396C53.7734 30.55 53.7682 30.5587 53.7659 30.5635L53.7627 30.5702L53.7592 30.5768ZM44.9997 45.462L45.0031 45.4618C44.9983 45.4509 44.9912 45.4371 44.9805 45.4186L44.9749 45.409L44.9697 45.399L37.241 30.5772L37.2398 30.575C37.2194 30.5353 37.1973 30.5143 37.1846 30.5054C37.1797 30.502 37.1766 30.5006 37.1751 30.5H32.5996C32.5987 30.5006 32.5975 30.5013 32.5962 30.5023C32.5832 30.5112 32.5624 30.5312 32.5436 30.5643C32.5251 30.5971 32.515 30.6316 32.5126 30.6605C32.5106 30.6846 32.5142 30.6992 32.5172 30.7068L40.0935 45.2692L40.2137 45.5003L40.0932 45.7313L32.5115 60.2625L32.5115 60.2625L32.5095 60.2665C32.4998 60.2845 32.4872 60.3446 32.5317 60.4257C32.5515 60.4617 32.5743 60.4845 32.5898 60.4953C32.5931 60.4976 32.5956 60.4991 32.5973 60.5H37.176C37.1767 60.4999 37.1829 60.4991 37.1932 60.4921C37.2058 60.4835 37.2194 60.4688 37.2285 60.4485L37.2342 60.4359L37.2405 60.4237L44.9526 45.5667C44.9722 45.5262 44.9838 45.5014 44.9927 45.4793C44.9987 45.4644 45.0004 45.4579 45.0004 45.4579C45.0005 45.4579 45.0001 45.4593 44.9997 45.462ZM37.1739 30.4997C37.1739 30.4997 37.1743 30.4999 37.1748 30.4999L37.1739 30.4997Z" fill="#383838" stroke="#383838"/>
<path d="M182.996 123.758L186.018 131.299L189.039 123.758H190.62V133H189.401V129.401L189.515 125.516L186.481 133H185.548L182.52 125.535L182.641 129.401V133H181.422V123.758H182.996ZM193.734 133H192.559V126.132H193.734V133ZM192.464 124.31C192.464 124.12 192.521 123.959 192.635 123.828C192.754 123.696 192.927 123.631 193.156 123.631C193.384 123.631 193.558 123.696 193.676 123.828C193.795 123.959 193.854 124.12 193.854 124.31C193.854 124.5 193.795 124.659 193.676 124.786C193.558 124.913 193.384 124.977 193.156 124.977C192.927 124.977 192.754 124.913 192.635 124.786C192.521 124.659 192.464 124.5 192.464 124.31ZM198.244 132.168C198.663 132.168 199.029 132.042 199.342 131.788C199.655 131.534 199.829 131.216 199.862 130.835H200.973C200.952 131.229 200.817 131.604 200.567 131.959C200.317 132.314 199.983 132.598 199.564 132.81C199.149 133.021 198.709 133.127 198.244 133.127C197.309 133.127 196.564 132.816 196.009 132.194C195.459 131.568 195.184 130.713 195.184 129.629V129.433C195.184 128.764 195.307 128.169 195.552 127.649C195.798 127.128 196.149 126.724 196.606 126.437C197.067 126.149 197.611 126.005 198.237 126.005C199.008 126.005 199.647 126.236 200.154 126.697C200.666 127.158 200.939 127.757 200.973 128.493H199.862C199.829 128.049 199.659 127.685 199.355 127.401C199.054 127.114 198.682 126.97 198.237 126.97C197.641 126.97 197.177 127.186 196.847 127.617C196.521 128.045 196.358 128.665 196.358 129.477V129.699C196.358 130.491 196.521 131.1 196.847 131.527C197.173 131.955 197.639 132.168 198.244 132.168ZM205.483 127.186C205.306 127.156 205.113 127.141 204.906 127.141C204.136 127.141 203.613 127.469 203.338 128.125V133H202.164V126.132H203.306L203.325 126.925C203.71 126.312 204.256 126.005 204.963 126.005C205.191 126.005 205.365 126.035 205.483 126.094V127.186ZM206.001 129.502C206.001 128.83 206.132 128.224 206.394 127.687C206.661 127.15 207.029 126.735 207.499 126.443C207.973 126.151 208.512 126.005 209.118 126.005C210.053 126.005 210.808 126.329 211.384 126.976C211.963 127.624 212.253 128.485 212.253 129.56V129.642C212.253 130.311 212.124 130.912 211.866 131.445C211.612 131.974 211.246 132.386 210.768 132.683C210.294 132.979 209.748 133.127 209.13 133.127C208.199 133.127 207.444 132.803 206.864 132.156C206.289 131.508 206.001 130.651 206.001 129.585V129.502ZM207.182 129.642C207.182 130.404 207.357 131.015 207.708 131.477C208.064 131.938 208.538 132.168 209.13 132.168C209.727 132.168 210.201 131.936 210.552 131.47C210.903 131 211.079 130.345 211.079 129.502C211.079 128.749 210.899 128.14 210.539 127.674C210.184 127.205 209.71 126.97 209.118 126.97C208.538 126.97 208.07 127.2 207.715 127.662C207.359 128.123 207.182 128.783 207.182 129.642ZM217.595 131.178C217.595 130.861 217.474 130.615 217.233 130.442C216.996 130.264 216.579 130.112 215.983 129.985C215.39 129.858 214.918 129.706 214.567 129.528C214.22 129.35 213.962 129.139 213.793 128.893C213.628 128.648 213.545 128.356 213.545 128.017C213.545 127.454 213.782 126.978 214.256 126.589C214.734 126.2 215.344 126.005 216.084 126.005C216.863 126.005 217.493 126.206 217.976 126.608C218.462 127.01 218.706 127.524 218.706 128.15H217.525C217.525 127.829 217.388 127.552 217.113 127.319C216.842 127.086 216.499 126.97 216.084 126.97C215.657 126.97 215.322 127.063 215.081 127.249C214.84 127.435 214.719 127.679 214.719 127.979C214.719 128.263 214.832 128.476 215.056 128.62C215.28 128.764 215.684 128.902 216.268 129.033C216.857 129.164 217.333 129.32 217.697 129.502C218.06 129.684 218.329 129.904 218.503 130.163C218.68 130.417 218.769 130.728 218.769 131.096C218.769 131.709 218.524 132.202 218.033 132.575C217.542 132.943 216.905 133.127 216.122 133.127C215.572 133.127 215.086 133.03 214.662 132.835C214.239 132.64 213.907 132.369 213.666 132.022C213.429 131.671 213.31 131.292 213.31 130.886H214.485C214.506 131.28 214.662 131.593 214.954 131.826C215.251 132.054 215.64 132.168 216.122 132.168C216.567 132.168 216.922 132.08 217.189 131.902C217.46 131.72 217.595 131.479 217.595 131.178ZM219.858 129.502C219.858 128.83 219.989 128.224 220.252 127.687C220.518 127.15 220.886 126.735 221.356 126.443C221.83 126.151 222.37 126.005 222.975 126.005C223.91 126.005 224.665 126.329 225.241 126.976C225.821 127.624 226.11 128.485 226.11 129.56V129.642C226.11 130.311 225.981 130.912 225.723 131.445C225.469 131.974 225.103 132.386 224.625 132.683C224.151 132.979 223.605 133.127 222.987 133.127C222.056 133.127 221.301 132.803 220.721 132.156C220.146 131.508 219.858 130.651 219.858 129.585V129.502ZM221.039 129.642C221.039 130.404 221.214 131.015 221.566 131.477C221.921 131.938 222.395 132.168 222.987 132.168C223.584 132.168 224.058 131.936 224.409 131.47C224.761 131 224.936 130.345 224.936 129.502C224.936 128.749 224.756 128.14 224.397 127.674C224.041 127.205 223.567 126.97 222.975 126.97C222.395 126.97 221.927 127.2 221.572 127.662C221.216 128.123 221.039 128.783 221.039 129.642ZM228.031 133V127.04H226.945V126.132H228.031V125.427C228.031 124.691 228.228 124.122 228.621 123.72C229.015 123.318 229.571 123.117 230.291 123.117C230.561 123.117 230.83 123.153 231.097 123.225L231.033 124.177C230.834 124.139 230.623 124.12 230.398 124.12C230.018 124.12 229.723 124.232 229.516 124.456C229.309 124.676 229.205 124.993 229.205 125.408V126.132H230.671V127.04H229.205V133H228.031ZM233.436 124.469V126.132H234.718V127.04H233.436V131.299C233.436 131.574 233.493 131.781 233.607 131.921C233.722 132.056 233.916 132.124 234.191 132.124C234.327 132.124 234.513 132.099 234.75 132.048V133C234.441 133.085 234.141 133.127 233.849 133.127C233.324 133.127 232.928 132.968 232.662 132.651C232.395 132.333 232.262 131.883 232.262 131.299V127.04H231.011V126.132H232.262V124.469H233.436ZM246.068 131.788C245.755 132.236 245.317 132.573 244.754 132.797C244.195 133.017 243.544 133.127 242.799 133.127C242.046 133.127 241.377 132.951 240.793 132.6C240.209 132.245 239.756 131.741 239.435 131.089C239.117 130.438 238.954 129.682 238.946 128.823V128.017C238.946 126.625 239.27 125.546 239.917 124.78C240.569 124.014 241.483 123.631 242.659 123.631C243.624 123.631 244.401 123.878 244.989 124.374C245.577 124.864 245.937 125.563 246.068 126.468H244.849C244.621 125.245 243.893 124.634 242.666 124.634C241.849 124.634 241.229 124.922 240.806 125.497C240.387 126.068 240.175 126.898 240.171 127.985V128.741C240.171 129.778 240.408 130.603 240.882 131.216C241.356 131.826 241.997 132.13 242.805 132.13C243.262 132.13 243.662 132.08 244.005 131.978C244.348 131.876 244.631 131.705 244.856 131.464V129.388H242.716V128.398H246.068V131.788ZM247.48 129.502C247.48 128.83 247.612 128.224 247.874 127.687C248.141 127.15 248.509 126.735 248.979 126.443C249.452 126.151 249.992 126.005 250.597 126.005C251.532 126.005 252.288 126.329 252.863 126.976C253.443 127.624 253.733 128.485 253.733 129.56V129.642C253.733 130.311 253.604 130.912 253.346 131.445C253.092 131.974 252.726 132.386 252.248 132.683C251.774 132.979 251.228 133.127 250.61 133.127C249.679 133.127 248.924 132.803 248.344 132.156C247.768 131.508 247.48 130.651 247.48 129.585V129.502ZM248.661 129.642C248.661 130.404 248.837 131.015 249.188 131.477C249.543 131.938 250.017 132.168 250.61 132.168C251.207 132.168 251.681 131.936 252.032 131.47C252.383 131 252.559 130.345 252.559 129.502C252.559 128.749 252.379 128.14 252.019 127.674C251.664 127.205 251.19 126.97 250.597 126.97C250.017 126.97 249.55 127.2 249.194 127.662C248.839 128.123 248.661 128.783 248.661 129.642ZM256.351 133H255.177V123.25H256.351V133ZM257.821 129.509C257.821 128.455 258.071 127.609 258.57 126.97C259.069 126.326 259.723 126.005 260.532 126.005C261.336 126.005 261.972 126.28 262.442 126.83V123.25H263.616V133H262.537L262.48 132.264C262.011 132.839 261.357 133.127 260.519 133.127C259.723 133.127 259.074 132.801 258.57 132.149C258.071 131.498 257.821 130.647 257.821 129.598V129.509ZM258.995 129.642C258.995 130.421 259.156 131.03 259.478 131.47C259.799 131.91 260.244 132.13 260.811 132.13C261.556 132.13 262.099 131.796 262.442 131.127V127.973C262.091 127.325 261.551 127.001 260.824 127.001C260.248 127.001 259.799 127.224 259.478 127.668C259.156 128.112 258.995 128.77 258.995 129.642ZM205.36 149.382V153H204.141V143.758H207.55C208.561 143.758 209.352 144.016 209.924 144.532C210.499 145.049 210.787 145.732 210.787 146.583C210.787 147.48 210.506 148.172 209.943 148.658C209.384 149.141 208.582 149.382 207.537 149.382H205.36ZM205.36 148.385H207.55C208.201 148.385 208.701 148.233 209.048 147.928C209.395 147.619 209.568 147.175 209.568 146.595C209.568 146.045 209.395 145.605 209.048 145.275C208.701 144.945 208.225 144.773 207.619 144.761H205.36V148.385ZM216.192 153C216.124 152.865 216.069 152.623 216.027 152.276C215.481 152.843 214.829 153.127 214.072 153.127C213.395 153.127 212.838 152.937 212.403 152.556C211.971 152.171 211.755 151.684 211.755 151.096C211.755 150.381 212.026 149.826 212.568 149.433C213.114 149.035 213.879 148.836 214.865 148.836H216.008V148.296C216.008 147.886 215.885 147.56 215.64 147.319C215.394 147.073 215.033 146.951 214.554 146.951C214.135 146.951 213.784 147.056 213.501 147.268C213.217 147.48 213.075 147.736 213.075 148.036H211.895C211.895 147.693 212.015 147.363 212.257 147.046C212.502 146.724 212.832 146.47 213.247 146.284C213.666 146.098 214.125 146.005 214.624 146.005C215.416 146.005 216.036 146.204 216.484 146.602C216.933 146.995 217.165 147.539 217.182 148.233V151.394C217.182 152.025 217.263 152.526 217.424 152.898V153H216.192ZM214.243 152.105C214.612 152.105 214.961 152.01 215.291 151.819C215.621 151.629 215.86 151.381 216.008 151.077V149.667H215.088C213.649 149.667 212.929 150.089 212.929 150.931C212.929 151.299 213.052 151.587 213.298 151.794C213.543 152.001 213.858 152.105 214.243 152.105ZM222.213 147.186C222.035 147.156 221.843 147.141 221.635 147.141C220.865 147.141 220.343 147.469 220.067 148.125V153H218.893V146.132H220.036L220.055 146.925C220.44 146.312 220.986 146.005 221.692 146.005C221.921 146.005 222.095 146.035 222.213 146.094V147.186ZM225.079 144.469V146.132H226.361V147.04H225.079V151.299C225.079 151.574 225.136 151.781 225.25 151.921C225.365 152.056 225.559 152.124 225.834 152.124C225.97 152.124 226.156 152.099 226.393 152.048V153C226.084 153.085 225.784 153.127 225.492 153.127C224.967 153.127 224.571 152.968 224.305 152.651C224.038 152.333 223.905 151.883 223.905 151.299V147.04H222.654V146.132H223.905V144.469H225.079ZM228.72 146.132L228.758 146.995C229.282 146.335 229.968 146.005 230.814 146.005C232.266 146.005 232.998 146.824 233.011 148.461V153H231.836V148.455C231.832 147.96 231.718 147.594 231.494 147.357C231.273 147.12 230.929 147.001 230.459 147.001C230.078 147.001 229.744 147.103 229.456 147.306C229.168 147.509 228.944 147.776 228.783 148.106V153H227.609V146.132H228.72ZM237.502 153.127C236.571 153.127 235.813 152.822 235.229 152.213C234.645 151.599 234.353 150.78 234.353 149.756V149.541C234.353 148.859 234.482 148.252 234.74 147.719C235.003 147.181 235.367 146.762 235.832 146.462C236.302 146.157 236.81 146.005 237.356 146.005C238.249 146.005 238.943 146.299 239.438 146.887C239.933 147.475 240.18 148.318 240.18 149.414V149.902H235.528C235.545 150.579 235.741 151.127 236.118 151.546C236.499 151.961 236.981 152.168 237.565 152.168C237.98 152.168 238.331 152.084 238.619 151.915C238.907 151.745 239.158 151.521 239.374 151.242L240.092 151.8C239.516 152.685 238.653 153.127 237.502 153.127ZM237.356 146.97C236.882 146.97 236.484 147.143 236.162 147.49C235.841 147.833 235.642 148.315 235.566 148.938H239.006V148.849C238.972 148.252 238.811 147.791 238.524 147.465C238.236 147.135 237.847 146.97 237.356 146.97ZM244.735 147.186C244.557 147.156 244.365 147.141 244.157 147.141C243.387 147.141 242.865 147.469 242.589 148.125V153H241.415V146.132H242.558L242.577 146.925C242.962 146.312 243.508 146.005 244.214 146.005C244.443 146.005 244.617 146.035 244.735 146.094V147.186Z" fill="#939393"/>
<path d="M224.284 1.03664L224.284 1.03661C224.446 0.9878 224.613 0.987795 224.775 1.0366C224.775 1.03661 224.775 1.03661 224.775 1.03661L262.112 12.2803C262.113 12.2808 262.114 12.2812 262.116 12.2816C262.484 12.3985 262.74 12.7486 262.74 13.1358V54.3796C262.74 62.176 256.781 69.7449 248.848 75.9929C240.966 82.2007 231.41 86.8846 224.783 88.9577L224.76 88.9647L224.738 88.9728C224.693 88.9892 224.645 89 224.521 89C224.447 89 224.355 88.986 224.254 88.9559C217.627 86.8819 208.074 82.1989 200.194 75.9929C192.261 69.7449 186.302 62.176 186.302 54.3796V13.1358C186.302 12.7486 186.558 12.3984 186.927 12.2816C186.928 12.2812 186.929 12.2807 186.93 12.2803L224.284 1.03664Z" stroke="#383838" stroke-width="2"/>
<rect x="203.758" y="23.071" width="18.9311" height="18.9311" fill="#383838"/>
<rect x="226.353" y="23.0708" width="18.9311" height="18.9311" fill="#383838"/>
<rect x="203.758" y="45.6656" width="18.9311" height="18.9311" fill="#383838"/>
<rect x="226.353" y="45.6656" width="18.9311" height="18.9311" fill="#383838"/>
<path d="M374.487 133H373.268V123.758H374.487V133ZM379.314 128.88C378.269 128.58 377.507 128.212 377.029 127.776C376.555 127.336 376.318 126.794 376.318 126.151C376.318 125.423 376.608 124.822 377.188 124.348C377.772 123.87 378.529 123.631 379.46 123.631C380.095 123.631 380.66 123.754 381.155 123.999C381.654 124.244 382.04 124.583 382.31 125.015C382.585 125.446 382.723 125.918 382.723 126.43H381.498C381.498 125.872 381.32 125.434 380.965 125.116C380.609 124.795 380.108 124.634 379.46 124.634C378.859 124.634 378.39 124.767 378.051 125.034C377.717 125.296 377.55 125.662 377.55 126.132C377.55 126.508 377.708 126.828 378.026 127.09C378.347 127.348 378.891 127.585 379.657 127.801C380.427 128.017 381.028 128.256 381.46 128.519C381.896 128.777 382.217 129.079 382.425 129.426C382.636 129.773 382.742 130.182 382.742 130.651C382.742 131.4 382.45 132.001 381.866 132.454C381.282 132.903 380.501 133.127 379.524 133.127C378.889 133.127 378.297 133.006 377.746 132.765C377.196 132.52 376.771 132.185 376.471 131.762C376.174 131.339 376.026 130.859 376.026 130.321H377.251C377.251 130.88 377.457 131.322 377.867 131.648C378.282 131.97 378.834 132.13 379.524 132.13C380.167 132.13 380.66 131.999 381.003 131.737C381.346 131.474 381.517 131.117 381.517 130.664C381.517 130.211 381.358 129.862 381.041 129.617C380.723 129.367 380.148 129.122 379.314 128.88ZM391.289 128.677C391.289 129.583 391.137 130.374 390.832 131.051C390.528 131.724 390.096 132.238 389.537 132.594C388.979 132.949 388.327 133.127 387.582 133.127C386.854 133.127 386.209 132.949 385.646 132.594C385.083 132.234 384.645 131.724 384.332 131.064C384.023 130.4 383.865 129.632 383.856 128.76V128.093C383.856 127.205 384.011 126.42 384.32 125.738C384.628 125.057 385.064 124.536 385.627 124.177C386.194 123.813 386.842 123.631 387.57 123.631C388.31 123.631 388.962 123.811 389.525 124.17C390.092 124.526 390.528 125.044 390.832 125.726C391.137 126.403 391.289 127.192 391.289 128.093V128.677ZM390.077 128.081C390.077 126.985 389.857 126.145 389.417 125.561C388.977 124.972 388.361 124.678 387.57 124.678C386.799 124.678 386.192 124.972 385.748 125.561C385.308 126.145 385.081 126.957 385.069 127.998V128.677C385.069 129.739 385.291 130.575 385.735 131.185C386.184 131.79 386.799 132.092 387.582 132.092C388.369 132.092 388.979 131.807 389.41 131.235C389.842 130.66 390.064 129.837 390.077 128.766V128.081ZM398.738 133H392.683V132.156L395.882 128.601C396.356 128.064 396.682 127.628 396.859 127.293C397.041 126.955 397.132 126.606 397.132 126.246C397.132 125.764 396.986 125.368 396.694 125.059C396.402 124.75 396.013 124.596 395.526 124.596C394.942 124.596 394.488 124.763 394.162 125.097C393.84 125.427 393.679 125.889 393.679 126.481H392.505C392.505 125.63 392.778 124.943 393.324 124.418C393.874 123.893 394.608 123.631 395.526 123.631C396.385 123.631 397.065 123.857 397.564 124.31C398.063 124.759 398.313 125.357 398.313 126.106C398.313 127.016 397.733 128.1 396.574 129.356L394.098 132.042H398.738V133ZM405.819 124.418L401.992 133H400.76L404.575 124.723H399.573V123.758H405.819V124.418ZM412.818 129.058C412.818 130.433 412.583 131.455 412.113 132.124C411.643 132.793 410.909 133.127 409.91 133.127C408.924 133.127 408.194 132.801 407.721 132.149C407.247 131.493 407.001 130.516 406.984 129.217V127.649C406.984 126.291 407.219 125.281 407.689 124.621C408.159 123.961 408.895 123.631 409.898 123.631C410.892 123.631 411.624 123.95 412.094 124.589C412.564 125.224 412.805 126.206 412.818 127.535V129.058ZM411.643 127.452C411.643 126.458 411.504 125.734 411.224 125.281C410.945 124.824 410.503 124.596 409.898 124.596C409.297 124.596 408.859 124.822 408.584 125.275C408.309 125.728 408.167 126.424 408.159 127.363V129.242C408.159 130.241 408.302 130.979 408.59 131.458C408.882 131.931 409.322 132.168 409.91 132.168C410.49 132.168 410.92 131.944 411.199 131.496C411.483 131.047 411.631 130.34 411.643 129.375V127.452ZM419.988 129.058C419.988 130.433 419.753 131.455 419.283 132.124C418.813 132.793 418.079 133.127 417.08 133.127C416.094 133.127 415.364 132.801 414.89 132.149C414.416 131.493 414.171 130.516 414.154 129.217V127.649C414.154 126.291 414.389 125.281 414.859 124.621C415.328 123.961 416.065 123.631 417.068 123.631C418.062 123.631 418.794 123.95 419.264 124.589C419.734 125.224 419.975 126.206 419.988 127.535V129.058ZM418.813 127.452C418.813 126.458 418.674 125.734 418.394 125.281C418.115 124.824 417.673 124.596 417.068 124.596C416.467 124.596 416.029 124.822 415.754 125.275C415.479 125.728 415.337 126.424 415.328 127.363V129.242C415.328 130.241 415.472 130.979 415.76 131.458C416.052 131.931 416.492 132.168 417.08 132.168C417.66 132.168 418.09 131.944 418.369 131.496C418.652 131.047 418.8 130.34 418.813 129.375V127.452ZM425.221 133H424.041V125.173L421.673 126.043V124.977L425.037 123.713H425.221V133Z" fill="#939393"/>
<circle cx="400" cy="45" r="44" fill="white" stroke="#383838" stroke-width="2"/>
<path d="M378.535 58.639H373V32.361H378.535V58.639Z" fill="#383838"/>
<path d="M397.614 51.7447C397.614 50.7219 397.245 49.9398 396.507 49.3984C395.769 48.8449 394.441 48.2674 392.522 47.6658C390.603 47.0521 389.083 46.4505 387.964 45.861C384.913 44.2487 383.388 42.0769 383.388 39.3456C383.388 37.9258 383.794 36.6624 384.606 35.5555C385.43 34.4365 386.605 33.5642 388.13 32.9385C389.668 32.3128 391.39 32 393.297 32C395.215 32 396.925 32.3429 398.426 33.0287C399.927 33.7025 401.089 34.6591 401.913 35.8984C402.75 37.1377 403.168 38.5455 403.168 40.1217H397.633C397.633 38.9184 397.245 37.986 396.47 37.3242C395.695 36.6504 394.607 36.3135 393.204 36.3135C391.851 36.3135 390.799 36.5963 390.049 37.1618C389.299 37.7152 388.924 38.4492 388.924 39.3636C388.924 40.2179 389.36 40.9338 390.234 41.5114C391.119 42.0889 392.417 42.6303 394.127 43.1357C397.276 44.0622 399.57 45.2112 401.009 46.5829C402.448 47.9545 403.168 49.6631 403.168 51.7086C403.168 53.9826 402.289 55.7694 400.529 57.0688C398.77 58.3563 396.403 59 393.426 59C391.359 59 389.477 58.633 387.78 57.8991C386.082 57.1531 384.784 56.1364 383.886 54.8489C383.001 53.5615 382.558 52.0695 382.558 50.373H388.112C388.112 53.2727 389.883 54.7226 393.426 54.7226C394.742 54.7226 395.769 54.4639 396.507 53.9465C397.245 53.4171 397.614 52.6832 397.614 51.7447Z" fill="#383838"/>
<path d="M429 46.0956C429 48.6825 428.533 50.9505 427.598 52.8997C426.663 54.8489 425.322 56.3529 423.575 57.4118C421.841 58.4706 419.848 59 417.597 59C415.371 59 413.384 58.4766 411.637 57.4298C409.89 56.383 408.537 54.891 407.578 52.9539C406.618 51.0047 406.133 48.7667 406.12 46.24V44.9405C406.12 42.3536 406.594 40.0795 407.541 38.1183C408.5 36.1451 409.847 34.635 411.582 33.5882C413.329 32.5294 415.321 32 417.56 32C419.799 32 421.786 32.5294 423.52 33.5882C425.267 34.635 426.614 36.1451 427.561 38.1183C428.52 40.0795 429 42.3476 429 44.9225V46.0956ZM423.391 44.9044C423.391 42.1491 422.886 40.0555 421.878 38.6237C420.869 37.1918 419.43 36.4759 417.56 36.4759C415.703 36.4759 414.27 37.1858 413.261 38.6056C412.252 40.0134 411.742 42.0829 411.729 44.8142V46.0956C411.729 48.7787 412.234 50.8603 413.243 52.3402C414.251 53.8202 415.703 54.5602 417.597 54.5602C419.454 54.5602 420.881 53.8503 421.878 52.4305C422.874 50.9987 423.378 48.9171 423.391 46.1858V44.9044Z" fill="#383838"/>
</svg>
