<svg width="499" height="59" viewBox="0 0 499 59" fill="none" xmlns="http://www.w3.org/2000/svg">
<path fill-rule="evenodd" clip-rule="evenodd" d="M362.642 30.6156C362.673 30.272 362.92 29.9914 363.259 29.9914H366.347C366.686 29.9914 366.964 30.272 366.964 30.6156C366.964 34.7927 363.876 37.7543 359.616 37.7543C355.356 37.7543 352.7 34.6069 352.268 30.865C351.96 28.2458 351.96 24.7539 352.268 22.1354C352.7 18.3943 355.356 15.2452 359.616 15.2452C363.876 15.2452 366.964 18.2061 366.964 22.3848C366.964 22.7268 366.686 23.0087 366.347 23.0087H363.259C362.92 23.0087 362.673 22.7268 362.642 22.3848C362.518 20.7633 361.376 19.6418 359.616 19.6418C357.733 19.6418 356.776 20.7633 356.621 22.1354C356.313 24.7539 356.313 28.2458 356.621 30.865C356.776 32.2366 357.733 33.3597 359.616 33.3597C361.376 33.3597 362.518 32.2366 362.642 30.6156ZM377.27 24.0057C377.27 24.1926 377.393 24.318 377.579 24.318H382.272C382.457 24.318 382.58 24.1926 382.58 24.0057V16.2115C382.58 15.8682 382.858 15.5877 383.198 15.5877H386.286C386.625 15.5877 386.903 15.8682 386.903 16.2115V36.7887C386.903 37.1312 386.625 37.4119 386.286 37.4119H383.198C382.858 37.4119 382.58 37.1312 382.58 36.7887V28.9937C382.58 28.8076 382.457 28.6835 382.272 28.6835H377.579C377.393 28.6835 377.27 28.8076 377.27 28.9937V36.7887C377.27 37.1312 376.838 37.4119 376.499 37.4119H373.565C373.225 37.4119 372.948 37.1312 372.948 36.7887V16.2115C372.948 15.8682 373.225 15.5877 373.565 15.5877H376.653C376.993 15.5877 377.27 15.8682 377.27 16.2115V24.0057ZM396.622 36.9446C396.56 37.2258 396.313 37.4119 396.036 37.4119H392.794C392.3 37.4119 392.114 37.07 392.176 36.7887L397.703 16.0558C397.765 15.7758 398.012 15.5877 398.289 15.5877H402.427C402.704 15.5877 402.951 15.7758 403.013 16.0558L408.509 36.7887C408.571 37.07 408.385 37.4119 407.892 37.4119H404.65C404.372 37.4119 404.156 37.2258 404.063 36.9446L403.106 33.7328C403.044 33.4838 402.92 33.2666 402.643 33.2666H397.95C397.672 33.2666 397.548 33.4524 397.486 33.7328L396.622 36.9446ZM398.66 28.5583C398.598 28.8076 398.722 28.9004 398.907 28.9004H401.747C401.933 28.9004 402.056 28.8076 401.994 28.5583L400.512 21.0751C400.481 20.9825 400.45 20.9502 400.358 20.9502H400.296C400.204 20.9502 400.173 20.9825 400.141 21.0751L398.66 28.5583ZM418.722 28.6835C418.537 28.6835 418.414 28.8076 418.414 28.9937V36.7887C418.414 37.1312 418.136 37.4119 417.796 37.4119H414.709C414.369 37.4119 414.091 37.1312 414.091 36.7887V16.2115C414.091 15.8682 414.369 15.5877 414.709 15.5877H421.5C425.051 15.5877 427.985 18.5497 427.985 22.1354C427.985 24.5362 426.967 26.1573 424.773 27.6534C424.342 27.9646 424.372 28.2144 424.588 28.6835L427.892 36.4771C428.109 36.9446 427.922 37.4119 427.305 37.4119H424.126C423.632 37.4119 423.384 37.1638 423.231 36.7887L420.082 29.0882C420.019 28.9317 419.864 28.6835 419.525 28.6835H418.722ZM418.722 19.9525C418.537 19.9525 418.414 20.0769 418.414 20.2635V24.0057C418.414 24.1926 418.537 24.318 418.722 24.318H421.5C422.673 24.318 423.662 23.3509 423.662 22.1354C423.662 20.9502 422.673 19.9525 421.5 19.9525H418.722ZM433.648 19.9525C433.308 19.9525 433.03 19.6723 433.03 19.3289V16.2115C433.03 15.8682 433.308 15.5877 433.648 15.5877H446.924C447.263 15.5877 447.541 15.8682 447.541 16.2115V19.3289C447.541 19.6723 447.263 19.9525 446.924 19.9525H442.756C442.57 19.9525 442.446 20.0769 442.446 20.2635V36.7887C442.446 37.1312 442.168 37.4119 441.829 37.4119H438.742C438.402 37.4119 438.124 37.1312 438.124 36.7887V20.2635C438.124 20.0769 438 19.9525 437.816 19.9525H433.648ZM457.679 20.1082C457.679 19.9216 457.558 19.7975 457.372 19.7975H454.285C453.945 19.7975 453.667 19.5163 453.667 19.1735V16.2115C453.667 15.8682 453.945 15.5877 454.285 15.5877H465.398C465.739 15.5877 466.017 15.8682 466.017 16.2115V19.1735C466.017 19.5163 465.739 19.7975 465.398 19.7975H462.313C462.127 19.7975 462.003 19.9216 462.003 20.1082V32.8904C462.003 33.0785 462.127 33.2031 462.313 33.2031H465.708C466.047 33.2031 466.325 33.4838 466.325 33.8275V36.7887C466.325 37.1312 466.047 37.4119 465.708 37.4119H453.975C453.635 37.4119 453.359 37.1312 453.359 36.7887V33.8275C453.359 33.4838 453.635 33.2031 453.975 33.2031H457.372C457.558 33.2031 457.679 33.0785 457.679 32.8904V20.1082ZM486.715 22.1354C487.025 24.7539 487.025 28.2458 486.715 30.865C486.283 34.6069 483.629 37.7543 479.367 37.7543C475.107 37.7543 472.451 34.6069 472.02 30.865C471.709 28.2458 471.709 24.7539 472.02 22.1354C472.451 18.3943 475.107 15.2452 479.367 15.2452C483.629 15.2452 486.283 18.3943 486.715 22.1354ZM476.372 22.1354C476.065 24.7539 476.065 28.2458 476.372 30.865C476.527 32.2366 477.484 33.3597 479.367 33.3597C481.251 33.3597 482.207 32.2366 482.362 30.865C482.67 28.2458 482.67 24.7539 482.362 22.1354C482.207 20.7633 481.251 19.6418 479.367 19.6418C477.484 19.6418 476.527 20.7633 476.372 22.1354Z" fill="#222222"/>
<path d="M179.727 24.2565C179.417 32.1049 173.236 38.2161 165.54 38.2161C157.423 38.2161 151.391 31.6452 151.391 23.7145C151.391 15.7113 157.926 9.1355 165.888 9.1355C169.482 9.1355 172.999 10.6839 175.978 13.4661L173.661 16.3258C171.383 14.3516 168.636 13.0016 165.893 13.0016C160.055 13.0016 155.266 17.7968 155.266 23.7097C155.266 29.7049 159.789 34.3452 165.55 34.3452C170.73 34.3452 174.788 30.5565 175.601 25.6839H163.852V22.2436H179.737V24.2565H179.727Z" fill="#353535"/>
<path d="M193.213 22.3646H191.046C188.656 22.3646 186.717 24.3049 186.717 26.6953V37.984H182.852V18.6533H186.02V20.2791C187.065 19.234 188.724 18.6533 190.581 18.6533H194.756L193.213 22.3646Z" fill="#353535"/>
<path d="M214.278 37.9837H210.994V35.5498C208.454 38.0321 204.444 39.2224 200.386 37.4418C197.377 36.1208 195.138 33.3773 194.543 30.1402C193.392 23.8885 198.2 18.3434 204.343 18.3434C206.931 18.3434 209.253 19.3885 210.95 21.0869V18.6531H214.273V37.9837H214.278ZM210.322 29.7095C211.236 25.7805 208.261 22.2095 204.382 22.2095C201.02 22.2095 198.311 24.9531 198.311 28.2821C198.311 32.0418 201.615 34.9547 205.46 34.2966C207.83 33.8902 209.78 32.0514 210.322 29.7095Z" fill="#353535"/>
<path d="M222.066 17.5692V18.653H228.214V22.0546H222.066V37.9837H218.24V17.6853C218.24 13.4321 221.292 10.9208 225.118 10.9208H229.757L228.209 14.5546H225.118C223.42 14.5546 222.066 15.9046 222.066 17.5692Z" fill="#353535"/>
<path d="M248.699 37.9837H245.415V35.5498C242.875 38.0321 238.865 39.2224 234.807 37.4418C231.798 36.1208 229.559 33.3773 228.964 30.1402C227.813 23.8885 232.621 18.3434 238.764 18.3434C241.352 18.3434 243.674 19.3885 245.371 21.0869V18.6531H248.694V37.9837H248.699ZM244.747 29.7095C245.662 25.7805 242.687 22.2095 238.807 22.2095C235.446 22.2095 232.737 24.9531 232.737 28.2821C232.737 32.0418 236.041 34.9547 239.886 34.2966C242.256 33.8902 244.201 32.0514 244.747 29.7095Z" fill="#353535"/>
<path d="M269.344 26.5403V37.9839H265.479V26.5403C265.479 24.1452 263.506 22.2097 261.15 22.2097C258.717 22.2097 256.782 24.1452 256.782 26.5403V37.9839H252.917V18.6532H256.124V20.3177C257.517 19.079 259.37 18.3484 261.305 18.3484C265.789 18.3436 269.344 22.0161 269.344 26.5403Z" fill="#353535"/>
<path d="M292.074 37.9837H288.789V35.5498C286.25 38.0321 282.24 39.2224 278.181 37.4418C275.173 36.1208 272.933 33.3773 272.338 30.1402C271.187 23.8885 275.995 18.3434 282.138 18.3434C284.726 18.3434 287.048 19.3885 288.746 21.0869V18.6531H292.069V37.9837H292.074ZM288.122 29.7095C289.036 25.7805 286.061 22.2095 282.182 22.2095C278.82 22.2095 276.111 24.9531 276.111 28.2821C276.111 32.0418 279.415 34.9547 283.26 34.2966C285.631 33.8902 287.575 32.0514 288.122 29.7095Z" fill="#353535"/>
<path d="M143.323 19.8387C143.256 19.0839 143.125 18.2129 142.873 17.25C142.622 16.2919 142.249 15.2419 141.713 14.1484C141.166 13.0645 140.455 11.9323 139.536 10.8387C139.178 10.4081 138.786 9.9871 138.36 9.57097C138.994 7.05484 137.591 4.87742 137.591 4.87742C135.173 4.72742 133.635 5.62742 133.064 6.04355C132.967 6.00484 132.875 5.96129 132.778 5.92258C132.367 5.75323 131.942 5.59839 131.506 5.4629C131.071 5.32742 130.626 5.20161 130.171 5.09032C129.717 4.98387 129.252 4.89194 128.783 4.81935C128.701 4.80484 128.619 4.79516 128.536 4.78548C127.482 1.40806 124.449 0 124.449 0C121.073 2.14355 120.429 5.14355 120.429 5.14355C120.429 5.14355 120.415 5.21129 120.395 5.32258C120.207 5.37581 120.023 5.42903 119.834 5.4871C119.573 5.56452 119.322 5.66129 119.06 5.75323C118.804 5.85484 118.548 5.95161 118.291 6.0629C117.783 6.28064 117.276 6.52742 116.782 6.80323C116.303 7.07419 115.834 7.36935 115.375 7.68871C115.307 7.65968 115.258 7.63548 115.258 7.63548C110.581 5.85 106.426 7.99839 106.426 7.99839C106.049 12.9774 108.293 16.1129 108.738 16.679C108.627 16.9887 108.525 17.2984 108.428 17.6129C108.08 18.7403 107.824 19.8968 107.664 21.0968C107.64 21.2661 107.621 21.4403 107.601 21.6145C103.282 23.7484 102 28.1274 102 28.1274C105.608 32.279 109.812 32.5355 109.812 32.5355C109.817 32.5306 109.822 32.5306 109.822 32.5258C110.358 33.479 110.978 34.3887 111.669 35.2355C111.96 35.5887 112.269 35.9323 112.584 36.2613C111.268 40.021 112.767 43.1565 112.767 43.1565C116.782 43.3064 119.423 41.4 119.975 40.9597C120.376 41.0952 120.778 41.2161 121.189 41.3226C122.422 41.6419 123.685 41.8258 124.947 41.8839C125.262 41.8984 125.576 41.9032 125.895 41.9032H126.05L126.152 41.8984L126.35 41.8935L126.548 41.8839L126.553 41.8887C128.444 44.5887 131.772 44.971 131.772 44.971C134.138 42.4742 134.273 40.0016 134.273 39.4645C134.273 39.4645 134.273 39.4452 134.273 39.4306C134.273 39.3871 134.273 39.3532 134.273 39.3532C134.273 39.3145 134.268 39.2806 134.268 39.2371C134.766 38.8887 135.24 38.5161 135.686 38.1145C136.634 37.2581 137.461 36.2806 138.148 35.2306C138.21 35.1339 138.273 35.0323 138.336 34.9306C141.016 35.0855 142.902 33.271 142.902 33.271C142.457 30.479 140.866 29.1194 140.537 28.8581C140.537 28.8581 140.523 28.8484 140.503 28.8339C140.484 28.8194 140.474 28.8097 140.474 28.8097C140.455 28.8 140.436 28.7855 140.416 28.771C140.431 28.6016 140.445 28.4371 140.455 28.2677C140.474 27.9677 140.484 27.6677 140.484 27.3677V27.1452V27.0339V26.9758C140.484 26.8984 140.484 26.9274 140.484 26.8984L140.474 26.7097L140.46 26.4581C140.455 26.371 140.45 26.2935 140.44 26.2161C140.436 26.1387 140.426 26.0613 140.416 25.9839L140.387 25.7516L140.353 25.5194C140.31 25.2145 140.247 24.9097 140.179 24.6048C139.899 23.4 139.429 22.2581 138.81 21.2323C138.191 20.2065 137.417 19.2968 136.551 18.5323C135.681 17.7629 134.708 17.1484 133.688 16.6887C132.667 16.229 131.593 15.9339 130.524 15.7984C129.992 15.7306 129.455 15.7016 128.928 15.7065L128.73 15.7113H128.681C128.667 15.7113 128.609 15.7113 128.614 15.7113L128.531 15.7161L128.338 15.7306C128.265 15.7355 128.188 15.7403 128.12 15.75C127.849 15.7742 127.579 15.8129 127.317 15.8661C126.258 16.0645 125.257 16.4468 124.372 16.9742C123.491 17.5016 122.722 18.1645 122.098 18.9097C121.474 19.6597 120.99 20.4871 120.657 21.3435C120.323 22.2 120.139 23.0855 120.086 23.9468C120.071 24.1597 120.067 24.3774 120.071 24.5855C120.071 24.6387 120.071 24.6919 120.076 24.7452L120.081 24.9194C120.091 25.021 120.096 25.1274 120.105 25.229C120.149 25.6645 120.226 26.0806 120.342 26.4871C120.574 27.2903 120.947 28.021 121.411 28.6403C121.871 29.2597 122.422 29.7726 123.007 30.1742C123.593 30.5758 124.217 30.8613 124.836 31.0403C125.455 31.2242 126.069 31.3016 126.65 31.3016C126.722 31.3016 126.795 31.3016 126.867 31.2968C126.906 31.2968 126.945 31.2919 126.984 31.2919C127.022 31.2919 127.061 31.2871 127.1 31.2871C127.163 31.2823 127.221 31.2726 127.283 31.2677C127.298 31.2677 127.317 31.2629 127.337 31.2629L127.395 31.2532C127.433 31.2484 127.467 31.2435 127.506 31.2387C127.583 31.229 127.646 31.2145 127.719 31.2C127.787 31.1855 127.854 31.1758 127.922 31.1565C128.057 31.1274 128.183 31.0887 128.309 31.0452C128.56 30.9629 128.797 30.8613 129.02 30.75C129.243 30.6339 129.446 30.5081 129.634 30.3774C129.688 30.3387 129.741 30.3 129.794 30.2565C129.997 30.0968 130.031 29.8016 129.866 29.6032C129.726 29.429 129.48 29.3855 129.286 29.4919C129.238 29.5161 129.189 29.5452 129.141 29.5694C128.972 29.6516 128.797 29.7242 128.609 29.7871C128.42 29.8452 128.227 29.8935 128.024 29.9323C127.922 29.9468 127.82 29.9613 127.714 29.971C127.661 29.9758 127.608 29.9806 127.559 29.9806C127.506 29.9806 127.453 29.9855 127.404 29.9855C127.356 29.9855 127.303 29.9855 127.254 29.9806C127.192 29.9758 127.129 29.9758 127.066 29.971C127.066 29.971 127.032 29.971 127.061 29.971H127.042L126.998 29.9661C126.969 29.9613 126.94 29.9613 126.916 29.9565C126.858 29.9516 126.805 29.9419 126.747 29.9371C126.292 29.8742 125.832 29.7435 125.392 29.5403C124.947 29.3419 124.522 29.0613 124.139 28.7177C123.757 28.3742 123.423 27.9581 123.162 27.4887C122.901 27.0194 122.717 26.5016 122.63 25.9548C122.587 25.6839 122.567 25.3984 122.577 25.1226C122.582 25.0452 122.582 24.9726 122.587 24.8952C122.587 24.9145 122.587 24.8855 122.587 24.8806V24.8516L122.592 24.7935C122.596 24.7548 122.596 24.721 122.601 24.6823C122.616 24.5323 122.64 24.3823 122.664 24.2323C122.872 23.0419 123.467 21.8806 124.391 21C124.623 20.7823 124.87 20.5742 125.136 20.3952C125.402 20.2113 125.682 20.0516 125.973 19.9161C126.268 19.7806 126.572 19.6694 126.887 19.5871C127.201 19.5048 127.525 19.4468 127.849 19.4177C128.014 19.4032 128.178 19.3984 128.343 19.3984C128.386 19.3984 128.42 19.3984 128.454 19.3984L128.589 19.4032L128.672 19.4081C128.706 19.4081 128.672 19.4081 128.686 19.4081H128.72L128.856 19.4177C129.209 19.4468 129.562 19.4952 129.91 19.5774C130.607 19.7323 131.284 19.9887 131.917 20.3371C133.18 21.0387 134.259 22.1323 134.916 23.4532C135.25 24.1113 135.482 24.8177 135.598 25.5484C135.627 25.7323 135.647 25.9161 135.661 26.1L135.671 26.2403L135.676 26.3806C135.681 26.429 135.681 26.4726 135.681 26.521C135.681 26.5694 135.686 26.6177 135.681 26.6516V26.7726L135.676 26.9081C135.671 27 135.666 27.1452 135.661 27.2371C135.647 27.4403 135.627 27.6387 135.603 27.8419C135.579 28.0403 135.545 28.2387 135.511 28.4371C135.473 28.6355 135.429 28.829 135.381 29.0226C135.284 29.4097 135.158 29.7968 135.008 30.1694C134.713 30.9194 134.317 31.6306 133.843 32.2887C132.89 33.6 131.588 34.6694 130.108 35.3468C129.368 35.6806 128.585 35.9274 127.787 36.0581C127.385 36.1258 126.979 36.1645 126.572 36.179L126.495 36.1839H126.432H126.302H126.103H126.002C126.055 36.1839 125.992 36.1839 125.997 36.1839H125.958C125.74 36.179 125.523 36.1694 125.305 36.15C124.434 36.0871 123.578 35.9323 122.746 35.6903C121.914 35.4484 121.107 35.1242 120.342 34.7177C118.814 33.9 117.45 32.7823 116.381 31.4323C115.844 30.7597 115.375 30.0387 114.988 29.279C114.601 28.5194 114.296 27.721 114.069 26.9081C113.846 26.0903 113.706 25.2581 113.653 24.4161L113.643 24.2565L113.638 24.2177V24.1839V24.1161L113.633 23.9758V23.9419V23.8935V23.7968L113.628 23.6032V23.5645C113.628 23.5694 113.628 23.5694 113.628 23.55V23.4726C113.628 23.371 113.633 23.2694 113.633 23.1629C113.648 22.7468 113.682 22.321 113.74 21.8952C113.793 21.4694 113.865 21.0387 113.952 20.6129C114.04 20.1871 114.146 19.7661 114.262 19.3548C114.499 18.5274 114.794 17.7242 115.147 16.9645C115.849 15.4452 116.768 14.1048 117.875 13.0306C118.151 12.7597 118.436 12.5032 118.736 12.2661C119.031 12.029 119.341 11.8065 119.66 11.5984C119.975 11.3903 120.304 11.1968 120.642 11.0226C120.807 10.9306 120.981 10.8532 121.15 10.771C121.237 10.7323 121.324 10.6935 121.411 10.6548C121.498 10.6161 121.585 10.5774 121.672 10.5435C122.021 10.3935 122.384 10.2726 122.746 10.1565C122.838 10.1274 122.93 10.1032 123.022 10.0742C123.114 10.0452 123.206 10.0258 123.298 9.99677C123.482 9.94355 123.67 9.9 123.854 9.85645C123.946 9.83226 124.043 9.8129 124.135 9.79355C124.226 9.77419 124.323 9.75484 124.415 9.73548C124.512 9.71613 124.604 9.70161 124.7 9.68226L124.841 9.65806L124.981 9.63871C125.078 9.62419 125.17 9.60968 125.266 9.59516C125.373 9.57581 125.479 9.57097 125.586 9.55161C125.673 9.54193 125.818 9.52258 125.905 9.5129C125.973 9.50806 126.04 9.49839 126.108 9.49355L126.244 9.47903L126.311 9.47419L126.389 9.46935C126.495 9.46452 126.601 9.45484 126.713 9.45L126.872 9.44032C126.872 9.44032 126.93 9.44032 126.882 9.44032H126.916L126.984 9.43548C127.075 9.43064 127.167 9.42581 127.259 9.42097C127.622 9.41129 127.985 9.41129 128.348 9.42097C129.068 9.45 129.775 9.52742 130.461 9.65806C131.835 9.91452 133.127 10.3548 134.297 10.9355C135.468 11.5065 136.517 12.2129 137.427 12.9774C137.485 13.0258 137.538 13.0742 137.596 13.1226C137.649 13.171 137.707 13.2194 137.761 13.2677C137.872 13.3645 137.978 13.4661 138.085 13.5629C138.191 13.6597 138.293 13.7613 138.394 13.8629C138.496 13.9645 138.597 14.0661 138.689 14.1677C139.076 14.579 139.434 14.9903 139.754 15.4065C140.402 16.2387 140.919 17.0806 141.33 17.8742C141.355 17.9226 141.384 17.971 141.408 18.0242C141.432 18.0726 141.456 18.121 141.48 18.1742C141.529 18.271 141.577 18.3677 141.621 18.4645C141.664 18.5613 141.713 18.6581 141.751 18.75C141.795 18.8468 141.833 18.9387 141.872 19.0306C142.027 19.4032 142.167 19.7565 142.278 20.0903C142.467 20.6274 142.607 21.1161 142.714 21.5419C142.757 21.7113 142.917 21.8226 143.091 21.8081C143.27 21.7935 143.41 21.6435 143.415 21.4645C143.386 20.9806 143.376 20.4484 143.323 19.8387Z" fill="url(#paint0_linear)"/>
<path d="M5.23889 59H6.75889L3.63889 55.13L6.57889 52H5.11889L1.65889 55.59V52H0.358887V59H1.65889V57.21L2.76889 56.07L5.23889 59Z" fill="#6D6B6C"/>
<path d="M7.44404 59H8.74404V52H7.44404V59Z" fill="#6D6B6C"/>
<path d="M15.3974 55.36C15.9374 55.07 16.2974 54.54 16.2974 53.82C16.2974 52.71 15.3974 52 13.7174 52H10.4374V59H13.9174C15.7174 59 16.6574 58.3 16.6574 57.1C16.6574 56.19 16.1474 55.6 15.3974 55.36ZM13.5774 53.02C14.4774 53.02 14.9874 53.34 14.9874 53.99C14.9874 54.63 14.4774 54.95 13.5774 54.95H11.7374V53.02H13.5774ZM13.8374 57.98H11.7374V55.96H13.8374C14.8174 55.96 15.3474 56.27 15.3474 56.97C15.3474 57.67 14.8174 57.98 13.8374 57.98Z" fill="#6D6B6C"/>
<path d="M23.0848 59H24.4448L21.2848 52H20.0048L16.8548 59H18.1948L18.8848 57.38H22.3848L23.0848 59ZM19.3248 56.36L20.6348 53.3L21.9548 56.36H19.3248Z" fill="#6D6B6C"/>
<path d="M30.0651 52V56.74L26.2051 52H25.1351V59H26.4251V54.26L30.2851 59H31.3551V52H30.0651Z" fill="#6D6B6C"/>
<path d="M38.2708 59H39.6308L36.4708 52H35.1908L32.0408 59H33.3808L34.0708 57.38H37.5708L38.2708 59ZM34.5108 56.36L35.8208 53.3L37.1408 56.36H34.5108Z" fill="#6D6B6C"/>
<path d="M2.65455 16.8545C8.62727 16.8545 14.2727 18.4091 19.1818 21.0273L36.6909 0H2V41.7272V16.8545H2.65455Z" fill="#E9478B"/>
<path d="M19.1818 21.027L2 41.727V44.9997H36.6091C34.6454 34.6906 28.1 25.9361 19.1818 21.027Z" fill="#3EBEB0"/>
<path d="M19.1818 21.027L2 41.727V44.9997H8.13636L24.8273 24.8724C24.8273 24.8724 23.6818 23.9724 22.1273 22.827C20.9818 22.0088 19.1818 21.027 19.1818 21.027Z" fill="#37A595"/>
<path d="M2.65455 16.8545H2V41.7272L19.1818 21.0272C14.2727 18.409 8.62727 16.8545 2.65455 16.8545Z" fill="#353535"/>
<defs>
<linearGradient id="paint0_linear" x1="122.69" y1="55.075" x2="122.69" y2="13.9963" gradientUnits="userSpaceOnUse">
<stop stop-color="#FFF100"/>
<stop offset="1" stop-color="#F05A28"/>
</linearGradient>
</defs>
</svg>
