<svg width="542" height="131" viewBox="0 0 542 131" fill="none" xmlns="http://www.w3.org/2000/svg">
<g clip-path="url(#clip0)">
<path d="M68.0626 10.9633V11.4885H68.9679V13.9625H69.543V11.4961H70.4328V10.9555L68.0626 10.9628V10.9633ZM70.9696 10.9861V13.9551H71.43V11.6638L72.148 13.6545L72.6325 13.6512L73.3779 11.6941V13.9929H73.8458V10.9786H72.9869L72.381 13.0973L71.7597 10.9861H70.9696ZM0.00021237 28.8286V20.425C0.00021237 20.425 -0.0918729 16.8017 3.55898 13.1783C7.20983 9.55502 10.6768 9.95097 10.6768 9.95097H15.4627C15.4627 9.95097 21.4763 0.999023 33.3795 0.999023C45.2831 0.999023 52.0937 9.82895 52.0937 9.82895H57.4937C57.4937 9.82895 58.8568 9.7677 60.5697 10.6215C62.3013 11.4848 63.8596 12.4793 65.4454 14.9222C67.0359 17.3721 67.2494 19.1373 67.2494 20.4247V29.6199C67.2494 31.537 67.0652 33.0301 63.8133 36.2575C60.5614 39.4849 56.3887 39.1195 56.3887 39.1195H51.419C51.419 39.1195 45.2114 47.9996 33.5634 47.9996C21.9139 47.9996 15.9534 39.1805 15.9534 39.1805H10.4311C10.4311 39.1805 6.78026 39.3937 3.25211 35.8919C-0.2758 32.3909 0.0614406 28.8286 0.00021237 28.8286ZM5.8599 16.7404L9.2962 31.4473H13.0695L14.7569 22.9827L16.3829 31.4473H20.2485L23.6848 16.832H19.5738L18.3775 24.8401L16.69 16.8019H12.9777L11.2905 24.9315L10.0327 16.7715L5.8599 16.7409V16.7404ZM25.6267 20.8549V31.434H29.2529V20.8549H25.6267ZM29.8023 17.8665C29.8023 18.8899 28.7784 19.7206 27.5165 19.7206C26.2549 19.7206 25.2308 18.8899 25.2308 17.8662C25.2308 16.8427 26.2549 16.0124 27.5165 16.0124C28.7784 16.0124 29.8023 16.8431 29.8023 17.8665ZM30.6814 37.0392C30.6814 37.0392 35.2088 33.6293 35.2088 28.5544V20.0037C35.2088 18.6292 35.919 16.6816 38.0438 14.5728C40.1686 12.4639 42.0412 12.1299 43.3405 12.1299H56.835C59.1287 12.1612 60.9111 13.1157 62.5497 14.6382C64.0675 16.221 65.0549 18.2045 65.0549 20.3748V28.5542C65.0549 30.1645 64.62 32.498 62.4615 34.4654C60.3029 36.433 58.6398 37.0392 56.923 37.0392H30.6814ZM55.6044 20.8658V31.4445H59.231V20.8658H55.6044ZM59.7803 17.8773C59.7803 18.9007 58.7565 19.7312 57.4947 19.7312C56.233 19.7312 55.2089 18.9007 55.2089 17.8773C55.2089 16.854 56.233 16.023 57.4947 16.023C58.7565 16.023 59.7803 16.854 59.7803 17.8773ZM40.3518 31.3685H44.4176V26.9622H52.154V23.6683H44.3955V20.2224H53.1648V16.7978H40.3297L40.3518 31.3685Z" fill="black"/>
<path d="M9.31881 31.2267C9.20996 30.9048 6.02051 17.1203 6.02051 16.972C6.02051 16.855 6.50159 16.8176 8.0097 16.8176C9.10378 16.8176 9.99863 16.8591 9.99844 16.9102C9.99739 17.0665 11.1226 24.3854 11.1982 24.7146C11.264 25.001 11.2754 25.0051 11.3593 24.7764C11.4089 24.6408 11.8087 22.793 12.2471 20.6708L13.0448 16.8118L14.8422 16.8456L16.6397 16.8798L17.4539 20.7879C17.9017 22.9374 18.3024 24.73 18.3441 24.7715C18.444 24.8704 18.4631 24.7626 19.086 20.5507L19.6198 16.9416H21.5849C22.6661 16.9416 23.5505 16.9768 23.5505 17.0199C23.5505 17.1091 20.3394 30.8298 20.2407 31.1621C20.1834 31.355 19.9815 31.3779 18.3286 31.3779C16.6764 31.3779 16.4736 31.3553 16.4154 31.1621C16.3798 31.0434 16.0114 29.1732 15.5968 27.0061C15.1824 24.839 14.8174 23.0404 14.7861 23.009C14.6889 22.9125 14.6296 23.1761 13.8203 27.3061L13.0345 31.3161L11.203 31.3507C9.80401 31.376 9.35963 31.347 9.31881 31.2267ZM25.6641 26.1336V20.8895H29.1453V31.3774H25.6641V26.1336ZM26.6967 19.5258C26.4783 19.4595 26.1053 19.2237 25.8681 19.0014C25.0449 18.2309 25.176 17.1417 26.1704 16.4884C26.6007 16.2061 26.8344 16.1427 27.4547 16.141C30.3223 16.1331 30.5108 19.4248 27.6532 19.61C27.3457 19.6299 26.9151 19.5921 26.6967 19.5256V19.5258ZM31.9069 35.9641C33.3647 34.4498 34.2814 32.9752 34.8743 31.1925C35.152 30.3569 35.1637 30.1448 35.2353 24.7146C35.3151 18.6806 35.3053 18.7735 36.0129 17.3729C36.4261 16.5547 37.4284 15.2871 38.3271 14.4455C39.322 13.5142 40.3304 12.8801 41.4536 12.4791L42.2615 12.1904H49.9699C58.452 12.1904 58.3269 12.1808 60.0402 12.9778C62.2141 13.9889 64.2232 16.4219 64.7638 18.6989C65.0372 19.8492 65.0345 29.3989 64.7604 30.4573C64.1933 32.6482 62.6174 34.6046 60.3238 35.9648C58.5827 36.9968 59.6848 36.9304 44.4715 36.9304H30.977L31.9069 35.9641ZM59.2322 26.1336V20.766H55.5021V31.5009H59.2322V26.1336ZM44.437 29.2183V27.0592H52.2696V23.6041H44.437V20.2726H53.2644V16.6942H40.1712L40.2528 18.7501C40.2978 19.8805 40.3348 23.1844 40.3348 26.0917V31.3774H44.437V29.2183ZM58.3956 19.6485C59.7334 19.2796 60.2842 17.655 59.3799 16.7474C58.3264 15.6908 56.5141 15.7202 55.5906 16.8097C54.9617 17.5511 54.9938 18.4023 55.6755 19.0788C56.317 19.7153 57.3596 19.9341 58.3954 19.6485H58.3956Z" fill="white"/>
<path fill-rule="evenodd" clip-rule="evenodd" d="M405 115.595V95.0984H410.57C412.049 95.0984 413.502 95.2072 414.488 96.6017C415.276 97.7222 415.4 98.8972 415.4 100.291C415.4 102.067 415.055 103.816 413.182 104.581V104.636C415.129 104.937 415.868 106.74 415.868 109.391C415.868 110.238 415.818 111.086 415.622 111.905C414.882 114.502 413.551 115.595 411.088 115.595H405ZM409.091 103.379C409.93 103.379 411.014 103.434 411.556 102.668C411.877 102.149 411.926 101.438 411.926 100.454C411.926 98.924 411.63 98.1586 410.052 98.1043H408.45V103.379H409.091ZM409.189 112.588C409.904 112.588 410.644 112.671 411.26 112.371C412.196 111.905 412.319 110.566 412.319 109.528C412.319 107.314 411.926 106.385 409.781 106.385H408.45V112.589H409.189V112.588ZM417.201 95.1666H420.214V115.595H417.201V95.1666ZM428.513 113.341H428.466C427.98 115.139 427.059 115.97 425.532 115.998C423.036 115.998 422.478 114.575 422.478 112.053V100.461H425.63V110.819C425.63 111.49 425.605 112.241 425.945 112.831C426.212 113.154 426.503 113.314 426.914 113.314C428.392 113.314 428.368 111.463 428.368 110.282V100.461H431.519V115.595H428.513V113.341ZM433.653 105.667C433.508 102.098 435.153 100.059 438.251 100.059C442.628 100.059 443.088 102.582 443.088 106.713V108.752H436.798V110.953C436.822 112.939 437.5 113.314 438.442 113.314C439.604 113.314 439.942 112.375 439.895 110.47H443.039C443.16 113.851 441.902 115.998 438.685 115.998C435.057 115.998 433.581 114.092 433.652 109.638V105.667H433.653ZM439.943 106.069V104.754C439.919 103.225 439.557 102.741 438.298 102.741C436.726 102.741 436.798 104.083 436.798 105.452V106.069H439.943ZM451.249 115.648C449.464 115.891 446.065 116.077 446.065 113.26V103.01H444.238V100.461H446.041V96.3023H449.078V100.461H451.249V103.01H449.078V112.402C449.146 113.047 450.878 112.965 451.249 112.912V115.648H451.249ZM452.482 108.565C452.507 103.386 452.555 100.059 457.367 100.059C462.104 100.059 462.128 103.386 462.153 108.565C462.176 113.824 461.49 116.077 457.367 115.998C453.17 116.077 452.458 113.824 452.482 108.565ZM455.672 110.657C455.672 112.509 455.819 113.313 457.367 113.313C458.839 113.313 458.963 112.509 458.963 110.657V105.612C458.963 104.19 458.963 102.742 457.367 102.742C455.672 102.742 455.672 104.19 455.672 105.612V110.657ZM463.75 108.565C463.775 103.386 463.824 100.059 468.585 100.059C473.272 100.059 473.299 103.386 473.322 108.565C473.346 113.824 472.665 116.077 468.585 115.998C464.431 116.077 463.726 113.824 463.75 108.565ZM466.909 110.657C466.909 112.509 467.054 113.313 468.585 113.313C470.043 113.313 470.164 112.509 470.164 110.657V105.612C470.164 104.19 470.164 102.742 468.585 102.742C466.909 102.742 466.909 104.19 466.909 105.612V110.657ZM481.17 115.648C479.386 115.891 475.985 116.077 475.985 113.26V103.01H474.459V100.461H475.961V96.3023H478.998V100.461H481.17V103.01H478.998V112.402C479.069 113.047 480.799 112.965 481.17 112.912V115.648H481.17ZM483.186 115.595V95.1996H486.403V102.017H486.453C487.367 100.246 488.654 100.059 489.348 100.059C491.179 100.059 492.663 101.213 492.564 103.922V115.595H489.348V105.237C489.348 103.761 489.199 102.796 487.987 102.742C486.774 102.688 486.353 103.922 486.404 105.533V115.595H483.186ZM492.33 95H494.156V95.4267H493.518V97.906H492.971V95.4267H492.33V95ZM495.025 97.906H494.48V95H495.349L495.644 96.3484C495.69 96.5693 495.721 96.7937 495.745 97.0188H495.753C495.779 96.7318 495.8 96.5384 495.839 96.3484L496.133 95H497V97.906H496.454V96.9927C496.454 96.4151 496.466 95.8377 496.499 95.2595H496.491L495.906 97.906H495.574L494.999 95.2595H494.98C495.014 95.837 495.025 96.4151 495.025 96.9927V97.906Z" fill="black"/>
<path fill-rule="evenodd" clip-rule="evenodd" d="M376.538 82.0996C367.562 82.2774 361.372 87.0605 360.562 95.5383C360.292 98.358 360.081 101.244 360 104.059V108.693C360.14 112.904 360.7 116.755 361.965 119.724C364.366 125.364 368.547 128.739 376.03 128.9H377.215C385.447 128.714 390.782 126.396 393.493 117.038C396.206 107.678 394.241 94.2395 391.716 89.5149C389.19 84.7871 385.261 82.2492 377.59 82.1007H376.538V82.0996Z" fill="#2761AB"/>
<path fill-rule="evenodd" clip-rule="evenodd" d="M387.6 113.419L379.326 105.363L387.553 97.3522L375.397 85.6992V101.54L368.526 94.8474L366.047 97.2595L374.46 105.455L366 113.692L368.478 116.104L375.397 109.368V125.299L387.6 113.419ZM378.577 93.2553L382.784 97.4438L378.577 101.54V93.2553ZM378.577 109.096L382.784 113.283L378.577 117.381V109.096Z" fill="white"/>
<path d="M129.359 24.3657C132.741 27.7548 136.029 31.0478 139.254 34.293C134.37 39.2326 129.565 44.0763 124.697 49C124.697 42.4938 124.697 36.0035 124.697 29.4972C124.618 29.4812 124.555 29.4492 124.475 29.4333C121.645 32.3427 118.817 35.2521 116.003 38.1295C114.96 37.0426 114.043 36.0994 113 35.0283C116.493 31.5913 120.049 28.0904 123.701 24.5096C120.018 20.753 116.509 17.1721 113.047 13.6392C113.996 12.6641 114.897 11.7369 115.893 10.7138C118.722 13.5753 121.582 16.4687 124.633 19.554C124.633 12.7759 124.633 6.26971 124.633 -0.140625C129.438 4.71909 134.259 9.59478 139.191 14.5664C136.029 17.7157 132.726 21.0087 129.359 24.3657ZM128.791 18.9625C128.979 18.8826 129.074 18.8666 129.122 18.8186C130.481 17.4439 131.841 16.0691 133.215 14.7102C133.595 14.3425 133.342 14.1188 133.09 13.863C131.841 12.6001 130.592 11.3372 129.343 10.0744C129.218 9.94652 129.043 9.85054 128.791 9.65872C128.791 12.824 128.791 15.8453 128.791 18.9625ZM128.837 29.689C128.837 32.9501 128.837 35.9875 128.837 39.2326C130.419 37.634 131.857 36.1953 133.247 34.7246C133.358 34.6127 133.247 34.1331 133.09 33.9732C132.077 32.8862 131.019 31.8472 129.975 30.7921C129.643 30.4564 129.296 30.1367 128.837 29.689ZM128.569 10.426C128.537 10.426 128.522 10.426 128.49 10.426C128.49 12.9358 128.49 15.4456 128.49 17.9554C128.522 17.9554 128.537 17.9554 128.569 17.9554C128.569 15.4456 128.569 12.9358 128.569 10.426ZM128.474 38.1615C128.506 38.1615 128.537 38.1615 128.554 38.1615C128.554 35.6997 128.554 33.2539 128.554 30.7921C128.522 30.7921 128.49 30.7921 128.474 30.7921C128.474 33.2539 128.474 35.6997 128.474 38.1615Z" fill="#287FB9"/>
<path d="M146.303 6.62091C146.32 6.50901 146.303 6.44506 146.32 6.39711C146.935 4.78254 146.935 4.78254 148.453 5.56584C156.088 9.43443 160.734 17.7312 159.848 26.2836C159.043 34.0527 155.075 39.7277 148.215 43.3245C146.952 43.9799 146.952 43.964 146.43 42.6531C146.366 42.5093 146.335 42.3494 146.271 42.1735C153.669 38.6087 157.953 32.8058 157.953 24.4292C157.953 16.0366 153.732 10.2017 146.303 6.62091Z" fill="#94A4A4"/>
<path d="M143.696 36.3872C148.706 33.9413 151.726 30.1368 151.71 24.3338C151.678 18.5949 148.738 14.7583 143.76 12.4084C143.743 12.3444 143.728 12.3125 143.728 12.2964C144.17 10.6339 144.36 10.5061 145.83 11.3053C150.398 13.7991 153.037 17.6357 153.623 22.8791C154.334 29.2255 150.793 34.9964 145.577 37.5542C144.407 38.1296 144.407 38.1457 143.886 36.9148C143.807 36.7709 143.76 36.595 143.696 36.3872Z" fill="#94A4A4"/>
<path d="M147.473 24.174C147.346 27.8188 145.751 30.3765 142.668 31.9911C142.178 32.2469 141.784 32.3747 141.499 31.6714C141.056 30.5844 141.025 30.6163 141.862 30.2167C144.248 29.0497 145.481 27.0674 145.498 24.4298C145.513 21.7282 144.248 19.7299 141.814 18.5949C141.008 18.2273 141.167 17.8596 141.42 17.2521C141.704 16.5487 142.052 16.4847 142.685 16.8045C145.719 18.3711 147.284 20.8809 147.473 24.174Z" fill="#94A4A4"/>
<path d="M128.522 19.5226C128.557 19.5226 128.586 17.1393 128.586 14.1993C128.586 11.2592 128.557 8.87598 128.522 8.87598C128.487 8.87598 128.459 11.2592 128.459 14.1993C128.459 17.1393 128.487 19.5226 128.522 19.5226Z" fill="#979797"/>
<path d="M128.475 38.1611C128.475 35.7153 128.475 33.2535 128.475 30.8076C128.506 30.8076 128.538 30.8076 128.554 30.8076C128.554 33.2695 128.554 35.7153 128.554 38.1772C128.523 38.1611 128.491 38.1611 128.475 38.1611Z" fill="#979797"/>
<path fill-rule="evenodd" clip-rule="evenodd" d="M98.7433 105.625H98.7434C99.1741 105.915 99.5892 106.194 99.9596 106.527C102.552 108.766 102.11 112.647 99.0953 114.267C98.7159 114.459 98.3364 114.651 97.9359 114.758C94.9847 115.547 92.0334 115.419 89.1243 114.523C88.5973 114.374 88.3233 114.118 88.3233 113.478C88.3444 108.446 88.3444 103.392 88.3444 98.3596C88.3444 97.5493 88.7027 96.9521 89.4616 96.7389C92.2442 95.9073 95.069 95.6087 97.8305 96.6536C98.8213 97.0374 99.8331 97.7838 100.444 98.6581C101.899 100.684 101.119 103.477 98.9478 104.693C98.6526 104.842 98.3575 104.991 98.0413 105.141C98.2768 105.312 98.5123 105.47 98.7433 105.625ZM94.036 112.583C96.5024 112.54 97.5565 111.282 97.1981 108.872C96.9662 107.252 95.8489 106.484 93.8042 106.356C92.9399 106.313 92.4972 106.676 92.4761 107.465C92.4129 108.702 92.4129 109.96 92.4972 111.197C92.5393 112.135 93.0663 112.71 94.036 112.583ZM92.4923 100.341V100.343V100.344C92.4877 101.381 92.4834 102.35 92.4972 103.328C92.4972 103.819 92.6658 104.33 93.2982 104.138C93.4162 104.101 93.5353 104.065 93.6549 104.028C94.4334 103.789 95.2361 103.543 95.9122 103.136C96.8397 102.582 97.0716 101.601 96.8397 100.513C96.6078 99.447 95.9754 98.786 94.9425 98.6581C94.407 98.5849 93.8615 98.6021 93.2925 98.6201C93.0327 98.6283 92.7681 98.6367 92.4972 98.6367C92.4972 99.2297 92.4947 99.7925 92.4923 100.337V100.338V100.339V100.34V100.341ZM75.2855 119.112L75.2856 119.111C75.3787 118.864 75.4637 118.637 75.5487 118.404C75.8649 117.572 76.3919 117.338 77.2983 117.551C78.2469 117.764 79.2377 117.892 80.1863 117.807C80.7555 117.743 81.4301 117.295 81.8095 116.805C82.0137 116.554 82.0363 116.15 82.0587 115.749C82.0687 115.57 82.0787 115.391 82.1046 115.227C81.993 115.21 81.88 115.189 81.7662 115.167C81.4501 115.107 81.1287 115.046 80.8187 115.078C76.7081 115.376 74.073 112.689 74.2628 108.297C74.3049 107.38 74.4314 106.442 74.6633 105.567C75.3168 103.222 76.8556 101.729 79.2588 101.26C81.1771 100.876 83.0954 101.025 84.9716 101.58C85.7304 101.814 86.0888 102.177 86.0677 103.072C86.0225 105.83 86.0312 108.598 86.0398 111.362V111.363V111.364C86.0432 112.468 86.0466 113.571 86.0466 114.672C86.0466 118.639 84.2548 120.6 80.3339 120.75C78.5631 120.792 76.7924 120.6 75.0638 119.705C75.1441 119.488 75.2168 119.295 75.2852 119.113L75.2855 119.112ZM82.21 107.828C82.21 107.493 82.2066 107.157 82.2032 106.822C82.1945 105.985 82.1859 105.147 82.2311 104.309C82.2522 103.67 81.9782 103.435 81.409 103.371C80.1652 103.222 78.9426 103.797 78.7318 105.056C78.4367 106.761 78.4367 108.553 78.4367 110.301C78.4367 110.877 78.795 111.538 79.1534 112.028C79.7015 112.775 80.6501 113.052 81.409 112.689C81.8517 112.455 82.1046 111.559 82.189 110.92C82.262 110.21 82.2439 109.491 82.2259 108.775V108.774C82.218 108.458 82.21 108.142 82.21 107.828ZM57.5249 115.035H61.3193C61.6766 115.035 62.0352 115.036 62.3945 115.037H62.3948H62.3951H62.3954H62.3957H62.3958H62.3959C63.4775 115.041 64.5651 115.046 65.6408 115.014C66.6315 114.992 67.0742 114.416 67.0531 113.414C67.011 112.476 66.5894 111.943 65.6197 111.943H63.0901C61.5934 111.943 61.4247 111.687 61.9306 110.237C63.4059 106.08 64.8812 101.901 66.3565 97.7226L66.3575 97.7199C66.758 96.5684 66.5472 96.1207 65.5354 96.1207C62.8582 96.0994 60.2021 96.0994 57.5249 96.1207C56.6184 96.142 56.239 96.6537 56.239 97.5706C56.239 98.4662 56.4919 99.1273 57.5038 99.1486C57.9956 99.1628 58.4875 99.1581 58.9794 99.1534C59.2253 99.151 59.4713 99.1486 59.7172 99.1486C61.0663 99.1486 61.2771 99.4684 60.8134 100.748C60.0545 102.827 59.2903 104.906 58.5262 106.985C57.762 109.064 56.9978 111.143 56.239 113.222C55.6909 114.715 55.9228 115.035 57.5249 115.035ZM119.269 109.576C119.627 112.455 121.482 113.073 125.951 111.815C126.013 111.984 126.079 112.154 126.145 112.325C126.236 112.563 126.329 112.804 126.415 113.052C126.668 113.883 126.394 114.459 125.572 114.694C123.654 115.248 121.714 115.483 119.754 114.907C117.519 114.267 116.128 112.689 115.728 110.429C115.475 109 115.411 107.444 115.643 106.015C116.233 102.475 119.396 100.407 122.895 101.068C124.349 101.345 125.467 102.177 126.015 103.52C126.429 104.505 126.644 105.583 126.855 106.649C126.891 106.829 126.927 107.009 126.963 107.188C127.132 107.998 126.71 108.424 125.888 108.531C124.194 108.75 122.519 109.007 120.828 109.265L120.471 109.32C120.07 109.427 119.67 109.512 119.269 109.576ZM120.033 107.387C121.009 107.23 121.867 107.092 122.726 107.017C123.527 106.953 123.675 106.591 123.527 105.908C123.513 105.837 123.5 105.766 123.487 105.696C123.442 105.454 123.398 105.218 123.316 104.97C123.042 104.074 122.473 103.499 121.525 103.435C120.618 103.371 119.796 103.712 119.459 104.586C119.238 105.196 119.1 105.847 118.943 106.582V106.583C118.875 106.902 118.804 107.238 118.721 107.593C119.185 107.523 119.619 107.453 120.033 107.387ZM113.156 111.858C108.56 113.03 106.832 112.455 106.473 109.555L107.352 109.42C109.284 109.125 111.188 108.833 113.092 108.574C114.02 108.446 114.378 107.977 114.231 107.06C114.199 106.868 114.173 106.676 114.146 106.484C114.12 106.292 114.094 106.1 114.062 105.908C113.366 101.622 109.677 99.7669 105.862 101.772C103.374 103.094 102.7 105.397 102.637 108.019C102.552 111.41 104.028 113.947 106.621 114.843C108.708 115.568 110.774 115.312 112.839 114.715C113.577 114.502 113.809 113.926 113.64 113.222C113.564 112.88 113.43 112.549 113.299 112.221C113.25 112.099 113.201 111.978 113.156 111.858ZM110.289 106.932C108.961 107.145 107.611 107.337 105.925 107.572C105.997 107.256 106.057 106.956 106.114 106.669C106.259 105.949 106.385 105.315 106.642 104.736C107.106 103.584 108.349 103.136 109.424 103.584C110.247 103.925 111.048 105.716 110.731 106.569C110.668 106.719 110.457 106.911 110.289 106.932ZM68.7819 108.169V102.731C68.7819 101.622 69.1403 101.302 70.2365 101.281H70.3419C72.6396 101.26 72.724 101.345 72.724 103.627V112.988C72.724 114.779 72.4921 115.013 70.7213 115.013C69.0138 115.013 68.7819 114.779 68.7819 113.052V108.169ZM68.6343 97.9759C68.6554 98.9994 69.5619 99.7883 70.7213 99.7883C71.965 99.7883 72.8504 99.0207 72.8293 97.8906C72.8082 96.8457 71.9439 96.0781 70.7634 96.0781C69.583 96.0781 68.6133 96.931 68.6343 97.9759Z" fill="black"/>
<path d="M0 106.218C0 119.595 10.8415 130.437 24.2184 130.437C37.5953 130.437 48.4368 119.595 48.4368 106.218C48.4368 92.8415 37.5953 82 24.2184 82C10.8415 82 0 92.8415 0 106.218Z" fill="url(#paint0_radial)"/>
<path d="M7.9209 93.4162C7.9209 98.8296 15.177 97.348 24.1234 97.348C33.07 97.348 40.326 98.8296 40.326 93.4162C40.326 88.0216 33.07 83.6338 24.1234 83.6338C15.1768 83.6149 7.9209 88.0027 7.9209 93.4162Z" fill="url(#paint1_linear)"/>
<path d="M16.9436 120.161C16.9055 120.104 22.471 113.968 28.9862 107.567C35.4445 101.166 40.934 95.5047 40.9529 95.5047C40.744 91.0603 37.477 88.9137 34.5327 88.5527C32.6713 88.1728 18.8999 87.679 11.0742 88.8946C9.61281 89.0706 8.15157 89.2632 6.67519 89.502C6.61767 89.5114 6.03851 90.1139 5.52293 90.7364C4.99409 91.3747 4.52959 92.0332 4.57765 92.0264C9.03459 91.3972 13.5188 90.9795 18.0152 90.7746C22.6138 90.5657 27.2198 90.5849 31.8165 90.8321C31.9115 90.9082 26.6689 96.7206 20.2106 103.046C13.7904 109.353 7.97807 115.184 7.40818 115.868C7.37034 120.503 11.302 122.288 13.4105 122.706C23.1928 123.656 33.069 123.316 42.8516 121.739C42.8516 121.739 43.72 120.761 43.8248 120.582C43.9299 120.402 44.6819 119.277 44.6579 119.28C35.2744 120.618 25.8966 121.033 16.6206 120.521C16.8238 120.351 16.8295 120.294 16.9436 120.161Z" fill="white"/>
<path d="M186 88C186 86.3431 187.343 85 189 85H223C224.657 85 226 86.3431 226 88V122C226 123.657 224.657 125 223 125H189C187.343 125 186 123.657 186 122V88Z" fill="#C4C4C4"/>
<mask id="mask0" mask-type="alpha" maskUnits="userSpaceOnUse" x="186" y="85" width="40" height="40">
<path d="M186 88C186 86.3431 187.343 85 189 85H223C224.657 85 226 86.3431 226 88V122C226 123.657 224.657 125 223 125H189C187.343 125 186 123.657 186 122V88Z" fill="#C4C4C4"/>
</mask>
<g mask="url(#mask0)">
<path d="M243 124C243 154.928 217.928 180 187 180C156.072 180 131 154.928 131 124C131 93.0721 156.072 68 187 68C217.928 68 243 93.0721 243 124Z" fill="#B3B0D4"/>
<path fill-rule="evenodd" clip-rule="evenodd" d="M187 179C217.376 179 242 154.376 242 124C242 93.6243 217.376 69 187 69C156.624 69 132 93.6243 132 124C132 154.376 156.624 179 187 179ZM187 180C217.928 180 243 154.928 243 124C243 93.0721 217.928 68 187 68C156.072 68 131 93.0721 131 124C131 154.928 156.072 180 187 180Z" fill="#8381B1"/>
<path d="M238 124C238 152.167 215.167 175 187 175C158.833 175 136 152.167 136 124C136 95.8335 158.833 73 187 73C215.167 73 238 95.8335 238 124Z" fill="#B3B0D4"/>
<path fill-rule="evenodd" clip-rule="evenodd" d="M187 174C214.614 174 237 151.614 237 124C237 96.3858 214.614 74 187 74C159.386 74 137 96.3858 137 124C137 151.614 159.386 174 187 174ZM187 175C215.167 175 238 152.167 238 124C238 95.8335 215.167 73 187 73C158.833 73 136 95.8335 136 124C136 152.167 158.833 175 187 175Z" fill="#8381B1"/>
<path d="M228 124C228 146.644 209.644 165 187 165C164.356 165 146 146.644 146 124C146 101.356 164.356 83 187 83C209.644 83 228 101.356 228 124Z" fill="#B3B0D4"/>
<path fill-rule="evenodd" clip-rule="evenodd" d="M187 164C209.091 164 227 146.091 227 124C227 101.909 209.091 84 187 84C164.909 84 147 101.909 147 124C147 146.091 164.909 164 187 164ZM187 165C209.644 165 228 146.644 228 124C228 101.356 209.644 83 187 83C164.356 83 146 101.356 146 124C146 146.644 164.356 165 187 165Z" fill="#8381B1"/>
<path d="M218 124C218 141.121 204.121 155 187 155C169.879 155 156 141.121 156 124C156 106.879 169.879 93 187 93C204.121 93 218 106.879 218 124Z" fill="#B3B0D4"/>
<path fill-rule="evenodd" clip-rule="evenodd" d="M187 154C203.569 154 217 140.569 217 124C217 107.431 203.569 94 187 94C170.431 94 157 107.431 157 124C157 140.569 170.431 154 187 154ZM187 155C204.121 155 218 141.121 218 124C218 106.879 204.121 93 187 93C169.879 93 156 106.879 156 124C156 141.121 169.879 155 187 155Z" fill="#8381B1"/>
<path d="M208 124C208 135.598 198.598 145 187 145C175.402 145 166 135.598 166 124C166 112.402 175.402 103 187 103C198.598 103 208 112.402 208 124Z" fill="url(#paint2_radial)"/>
</g>
<path fill-rule="evenodd" clip-rule="evenodd" d="M223 86H189C187.895 86 187 86.8954 187 88V122C187 123.105 187.895 124 189 124H223C224.105 124 225 123.105 225 122V88C225 86.8954 224.105 86 223 86ZM189 85C187.343 85 186 86.3431 186 88V122C186 123.657 187.343 125 189 125H223C224.657 125 226 123.657 226 122V88C226 86.3431 224.657 85 223 85H189Z" fill="#E3D7EB"/>
<path d="M244.298 115.645L240.141 100.471H240.045C240.061 100.832 240.085 101.374 240.117 102.097C240.15 102.819 240.182 103.596 240.214 104.427C240.246 105.24 240.262 105.981 240.262 106.649V115.645H237V96.2981H241.978L246.062 111.093H246.134L250.46 96.2981H255.438V115.645H252.031V106.486C252.031 105.872 252.039 105.168 252.055 104.373C252.087 103.578 252.111 102.828 252.127 102.124C252.16 101.401 252.184 100.859 252.2 100.498H252.103L247.657 115.645H244.298Z" fill="url(#paint3_linear)"/>
<path d="M273.913 105.945C273.913 107.95 273.615 109.702 273.019 111.201C272.439 112.683 271.545 113.839 270.337 114.67C269.128 115.501 266.523 115.916 264.638 115.916C262.769 115.916 260.164 115.501 258.94 114.67C257.731 113.839 256.829 112.674 256.233 111.174C255.653 109.675 255.363 107.923 255.363 105.917C255.363 103.912 255.653 102.169 256.233 100.688C256.829 99.2065 257.731 98.0594 258.94 97.2465C260.164 96.4155 262.777 96 264.662 96C266.531 96 269.128 96.4155 270.337 97.2465C271.545 98.0594 272.439 99.2155 273.019 100.715C273.615 102.196 273.913 103.939 273.913 105.945ZM259.205 105.945C259.205 107.968 259.552 109.566 260.245 110.741C260.937 111.897 263.108 112.475 264.638 112.475C266.201 112.475 268.379 111.897 269.056 110.741C269.733 109.566 270.071 107.968 270.071 105.945C270.071 103.903 269.733 102.305 269.056 101.148C268.379 99.9923 266.209 99.4142 264.662 99.4142C263.116 99.4142 260.937 99.9923 260.245 101.148C259.552 102.305 259.205 103.903 259.205 105.945Z" fill="url(#paint4_linear)"/>
<path d="M280.8 115.645H277.151V99.7123H272.463V96.2981H285.488V99.7123H280.8V115.645Z" fill="url(#paint5_linear)"/>
<path d="M293.724 115.645H290.075V99.7123H285.387V96.2981H300V99.7123H293.724V115.645Z" fill="url(#paint6_linear)"/>
<path d="M265.707 108.574L264.648 110.872C265.619 111.298 267.772 112.404 268.619 113.425C269.466 114.447 272.501 116.234 273.913 117L275.382 114.384C274.324 113.959 272.325 112.71 271.266 111.893C270.207 111.076 267.119 109.34 265.707 108.574Z" fill="url(#paint7_linear)"/>
<path d="M295.45 101C295.616 101 295.732 101.056 295.797 101.169C295.865 101.282 295.9 101.419 295.9 101.581C295.9 101.739 295.865 101.875 295.797 101.987C295.732 102.1 295.616 102.156 295.45 102.156C295.291 102.156 295.175 102.1 295.103 101.987C295.034 101.875 295 101.739 295 101.581C295 101.419 295.034 101.282 295.103 101.169C295.175 101.056 295.291 101 295.45 101Z" fill="#3C0F51"/>
<path d="M297.011 107.061C296.61 107.061 296.259 106.977 295.959 106.811C295.663 106.648 295.432 106.398 295.266 106.06C295.099 105.722 295.016 105.289 295.016 104.762C295.016 104.239 295.099 103.806 295.266 103.464C295.432 103.126 295.665 102.873 295.965 102.706C296.265 102.544 296.615 102.463 297.016 102.463C297.417 102.463 297.766 102.544 298.062 102.706C298.359 102.873 298.588 103.126 298.751 103.464C298.917 103.806 299 104.241 299 104.769C299 105.291 298.917 105.722 298.751 106.06C298.588 106.398 298.357 106.648 298.057 106.811C297.761 106.977 297.412 107.061 297.011 107.061ZM297.011 103.538C296.606 103.538 296.286 103.635 296.051 103.829C295.82 104.023 295.705 104.334 295.705 104.762C295.705 105.199 295.82 105.512 296.051 105.702C296.286 105.891 296.606 105.986 297.011 105.986C297.419 105.986 297.739 105.891 297.97 105.702C298.201 105.512 298.317 105.201 298.317 104.769C298.317 104.336 298.201 104.023 297.97 103.829C297.739 103.635 297.419 103.538 297.011 103.538Z" fill="#3C0F51"/>
<path d="M298.94 109.332C298.94 109.99 298.845 110.475 298.653 110.786C298.462 111.101 298.171 111.259 297.78 111.259C297.603 111.259 297.448 111.216 297.314 111.131C297.184 111.049 297.072 110.939 296.978 110.799C296.888 110.664 296.814 110.518 296.756 110.36L295.07 111.78L295.07 110.644L296.556 109.494L296.556 108.947L295.07 108.947L295.07 107.926L298.94 107.926L298.94 109.332ZM298.268 109.258L298.268 108.947L297.222 108.947L297.222 109.278C297.222 109.616 297.267 109.857 297.358 110.001C297.448 110.15 297.582 110.225 297.759 110.225C297.943 110.225 298.073 110.146 298.149 109.988C298.229 109.835 298.268 109.591 298.268 109.258Z" fill="#3C0F51"/>
<path d="M297.244 114.086L297.244 116L295.238 116C295.17 115.748 295.116 115.484 295.076 115.209C295.036 114.938 295.016 114.63 295.016 114.283C295.016 113.561 295.186 113.007 295.526 112.619C295.865 112.232 296.36 112.038 297.011 112.038C297.416 112.038 297.766 112.135 298.062 112.328C298.359 112.527 298.588 112.813 298.751 113.187C298.913 113.561 298.995 114.019 298.995 114.56C298.995 114.817 298.973 115.069 298.93 115.317C298.886 115.565 298.828 115.79 298.756 115.993L298.1 115.655C298.162 115.506 298.212 115.337 298.252 115.148C298.292 114.959 298.312 114.76 298.312 114.553C298.312 114.256 298.257 113.996 298.149 113.775C298.041 113.559 297.887 113.39 297.688 113.268C297.493 113.151 297.262 113.093 296.995 113.093C296.742 113.093 296.518 113.135 296.322 113.221C296.127 113.307 295.974 113.442 295.862 113.627C295.753 113.811 295.699 114.053 295.699 114.35C295.699 114.494 295.705 114.616 295.715 114.715C295.726 114.819 295.739 114.914 295.753 114.999L296.561 114.999L296.561 114.086L297.244 114.086Z" fill="#3C0F51"/>
<path d="M306 19.9914V16.4941H321.711V19.9914H315.77V35.4737H311.916V19.9914H306Z" fill="#195DAD"/>
<path d="M332.22 35.8534C329.312 35.8534 326.894 34.9314 324.967 33.0875C323.04 31.2075 322.076 28.8398 322.076 25.9835C322.076 23.0912 323.03 20.7234 324.94 18.8794C326.867 17.0362 329.294 16.1143 332.22 16.1143C334.041 16.1143 335.691 16.5117 337.172 17.3073V21.2388C335.727 20.2624 334.085 19.7746 332.247 19.7746C330.48 19.7746 328.99 20.362 327.777 21.5367C326.6 22.6937 326.011 24.1762 326.011 25.9835C326.011 27.7914 326.617 29.2824 327.83 30.4571C329.026 31.6141 330.552 32.1931 332.407 32.1931C334.459 32.1931 336.172 31.6417 337.546 30.539V34.4704C336.03 35.3924 334.254 35.8534 332.22 35.8534Z" fill="#195DAD"/>
<path d="M344.152 35.4737H340.298V16.4941H348.488C350.505 16.4941 352.093 17.0271 353.252 18.0938C354.43 19.1422 355.019 20.516 355.019 22.2152C355.019 23.932 354.43 25.315 353.252 26.3633C352.093 27.43 350.505 27.963 348.488 27.963H344.152V35.4737ZM344.152 19.9102V24.6281H348.22C349.149 24.6281 349.871 24.429 350.388 24.0316C350.906 23.6158 351.165 23.0284 351.165 22.2688C351.165 21.5099 350.906 20.9318 350.388 20.5336C349.871 20.1178 349.149 19.9102 348.22 19.9102H344.152Z" fill="#195DAD"/>
<path d="M356.047 39.2703H352.273L363.542 14H367.315L356.047 39.2703Z" fill="#195DAD"/>
<path d="M372.568 35.4737H368.741V16.4941H372.568V35.4737Z" fill="#195DAD"/>
<path d="M380.133 35.4737H376.279V16.4941H384.47C386.486 16.4941 388.074 17.0271 389.234 18.0938C390.412 19.1422 391 20.516 391 22.2152C391 23.932 390.412 25.315 389.234 26.3633C388.074 27.43 386.486 27.963 384.47 27.963H380.133V35.4737ZM380.133 19.9102V24.6281H384.202C385.13 24.6281 385.852 24.429 386.37 24.0316C386.887 23.6158 387.146 23.0284 387.146 22.2688C387.146 21.5099 386.887 20.9318 386.37 20.5336C385.852 20.1178 385.13 19.9102 384.202 19.9102H380.133Z" fill="#195DAD"/>
<path d="M226.679 2C222.06 2 214.884 2.01403 213.534 2.09822C211.516 2.19643 210.166 3.64162 210.081 5.4937C209.995 7.33175 209.953 41.5672 210.081 43.4333C210.194 45.2714 211.63 46.6745 213.534 46.7867C215.637 46.913 222.43 46.9411 224.391 46.9411C220.881 44.5558 220.412 40.08 220.085 31.7596C219.886 26.8348 220.071 9.56267 220.085 8.81903L220.184 4.11867L238.53 22.2326V27.9011L223.922 13.4913C223.879 16.3396 223.851 20.0578 223.851 23.4533C223.851 26.7646 223.908 29.7672 224.007 31.3387C224.561 40.4027 225.414 44.6681 230.203 46.3237C231.667 46.8288 233.031 46.9411 235.304 46.9691C237.18 46.9972 250.311 46.9832 252.201 46.8709C254.204 46.7727 255.554 45.3275 255.654 43.4614C255.739 41.6234 255.768 7.47206 255.654 5.61998C255.512 3.79596 254.091 2.4069 252.201 2.29465C250.098 2.16837 243.305 2.07015 241.344 2.07015C244.825 4.45541 245.309 8.91725 245.635 17.2236C245.834 22.1484 245.65 39.4205 245.635 40.1501L245.536 44.8785L227.204 26.7786V21.1101L241.799 35.5059C241.841 32.6576 241.87 28.9394 241.87 25.5439C241.87 22.2326 241.813 19.244 241.713 17.6585C241.173 8.59454 240.307 4.3572 235.518 2.68752C234.054 2.1824 232.69 2.04209 230.416 2.01403H226.679V2Z" fill="url(#paint8_linear)"/>
<path d="M487 32.5C487 39.9558 480.956 46 473.5 46C466.044 46 460 39.9558 460 32.5C460 25.0442 466.044 19 473.5 19C480.956 19 487 25.0442 487 32.5Z" fill="#1B365D"/>
<path d="M491.5 26H487L490.5 39H495L496.5 32L498 39H502.5L506 26H501.5L500 34L498 26H495L493 34L491.5 26Z" fill="#1B365D"/>
<path d="M509.5 39H504.5L509 26H515L519.5 39H514.5L514 37H510L509.5 39Z" fill="#1B365D"/>
<path d="M522 26H517L522 39H526.5L531.5 26H527L524.5 33.5L522 26Z" fill="#1B365D"/>
<path d="M541.5 26H533V39H541.5V35.5H537.5V34H541V31H537.5V29.5H541.5V26Z" fill="#1B365D"/>
<path fill-rule="evenodd" clip-rule="evenodd" d="M473 5C457.536 5 445 17.536 445 33H441C441 15.3269 455.327 1 473 1V5Z" fill="#1B365D"/>
<path fill-rule="evenodd" clip-rule="evenodd" d="M473 14C462.507 14 454 22.5066 454 33H450C450 20.2975 460.297 10 473 10V14Z" fill="#1B365D"/>
<path d="M469 26L467 29.5H472L466 39H477L479.5 35H474L479.5 26H469Z" fill="white"/>
<path d="M513.5 33.9999H510.5L511 29H513L513.5 33.9999Z" fill="white"/>
</g>
<defs>
<radialGradient id="paint0_radial" cx="0" cy="0" r="1" gradientUnits="userSpaceOnUse" gradientTransform="translate(24.2184 106.218) scale(24.2184)">
<stop stop-color="#DC001F"/>
<stop offset="0.64215" stop-color="#D5001D"/>
<stop offset="0.82382" stop-color="#AE0017"/>
<stop offset="1" stop-color="#590E0A"/>
</radialGradient>
<linearGradient id="paint1_linear" x1="24.0894" y1="97.5334" x2="24.0953" y2="83.3663" gradientUnits="userSpaceOnUse">
<stop stop-color="#D4001C"/>
<stop offset="0.53134" stop-color="#EC8A6C"/>
<stop offset="0.88757" stop-color="#FCEFE7"/>
<stop offset="1" stop-color="#FDF7F1"/>
</linearGradient>
<radialGradient id="paint2_radial" cx="0" cy="0" r="1" gradientUnits="userSpaceOnUse" gradientTransform="translate(187 124) rotate(90) scale(21)">
<stop stop-color="#AC81B4"/>
<stop offset="1" stop-color="#6E1170"/>
</radialGradient>
<linearGradient id="paint3_linear" x1="267.706" y1="96" x2="267.706" y2="117" gradientUnits="userSpaceOnUse">
<stop stop-color="#3C0F51"/>
<stop offset="1" stop-color="#9A79A7"/>
</linearGradient>
<linearGradient id="paint4_linear" x1="267.706" y1="96" x2="267.706" y2="117" gradientUnits="userSpaceOnUse">
<stop stop-color="#3C0F51"/>
<stop offset="1" stop-color="#9A79A7"/>
</linearGradient>
<linearGradient id="paint5_linear" x1="267.706" y1="96" x2="267.706" y2="117" gradientUnits="userSpaceOnUse">
<stop stop-color="#3C0F51"/>
<stop offset="1" stop-color="#9A79A7"/>
</linearGradient>
<linearGradient id="paint6_linear" x1="267.706" y1="96" x2="267.706" y2="117" gradientUnits="userSpaceOnUse">
<stop stop-color="#3C0F51"/>
<stop offset="1" stop-color="#9A79A7"/>
</linearGradient>
<linearGradient id="paint7_linear" x1="267.706" y1="96" x2="267.706" y2="117" gradientUnits="userSpaceOnUse">
<stop stop-color="#3C0F51"/>
<stop offset="1" stop-color="#9A79A7"/>
</linearGradient>
<linearGradient id="paint8_linear" x1="66314.6" y1="46.9894" x2="66314.6" y2="1.94001" gradientUnits="userSpaceOnUse">
<stop stop-color="#78C3ED"/>
<stop offset="0.004" stop-color="#77C3ED"/>
<stop offset="0.008" stop-color="#76C3ED"/>
<stop offset="0.012" stop-color="#75C2ED"/>
<stop offset="0.016" stop-color="#74C2EC"/>
<stop offset="0.02" stop-color="#72C1EC"/>
<stop offset="0.023" stop-color="#71C1EC"/>
<stop offset="0.027" stop-color="#70C1EC"/>
<stop offset="0.031" stop-color="#6FC0EB"/>
<stop offset="0.035" stop-color="#6EC0EB"/>
<stop offset="0.039" stop-color="#6DC0EB"/>
<stop offset="0.043" stop-color="#6CC0EB"/>
<stop offset="0.047" stop-color="#6BBFEB"/>
<stop offset="0.051" stop-color="#6ABFEB"/>
<stop offset="0.055" stop-color="#69BFEB"/>
<stop offset="0.059" stop-color="#68BEEB"/>
<stop offset="0.063" stop-color="#67BEEA"/>
<stop offset="0.066" stop-color="#66BDEA"/>
<stop offset="0.07" stop-color="#65BDEA"/>
<stop offset="0.074" stop-color="#64BDEA"/>
<stop offset="0.078" stop-color="#63BCEA"/>
<stop offset="0.082" stop-color="#62BCEA"/>
<stop offset="0.086" stop-color="#61BCEA"/>
<stop offset="0.09" stop-color="#60BBE9"/>
<stop offset="0.094" stop-color="#5FBAE9"/>
<stop offset="0.098" stop-color="#5EBAE9"/>
<stop offset="0.102" stop-color="#5DBAE9"/>
<stop offset="0.105" stop-color="#5CB9E9"/>
<stop offset="0.109" stop-color="#5BB9E9"/>
<stop offset="0.113" stop-color="#5AB9E9"/>
<stop offset="0.117" stop-color="#58B9E9"/>
<stop offset="0.121" stop-color="#57B8E8"/>
<stop offset="0.125" stop-color="#56B8E8"/>
<stop offset="0.129" stop-color="#55B8E8"/>
<stop offset="0.133" stop-color="#54B8E8"/>
<stop offset="0.137" stop-color="#53B7E8"/>
<stop offset="0.141" stop-color="#52B7E8"/>
<stop offset="0.144" stop-color="#50B7E8"/>
<stop offset="0.148" stop-color="#4FB6E8"/>
<stop offset="0.152" stop-color="#4EB6E7"/>
<stop offset="0.156" stop-color="#4DB5E7"/>
<stop offset="0.16" stop-color="#4BB5E7"/>
<stop offset="0.164" stop-color="#4AB5E7"/>
<stop offset="0.168" stop-color="#49B4E7"/>
<stop offset="0.172" stop-color="#48B4E7"/>
<stop offset="0.176" stop-color="#46B4E7"/>
<stop offset="0.18" stop-color="#45B4E7"/>
<stop offset="0.184" stop-color="#43B3E6"/>
<stop offset="0.188" stop-color="#41B3E6"/>
<stop offset="0.191" stop-color="#40B3E6"/>
<stop offset="0.195" stop-color="#3EB2E6"/>
<stop offset="0.199" stop-color="#3DB2E6"/>
<stop offset="0.203" stop-color="#3BB1E6"/>
<stop offset="0.207" stop-color="#3AB1E6"/>
<stop offset="0.211" stop-color="#38B1E6"/>
<stop offset="0.215" stop-color="#36B0E5"/>
<stop offset="0.219" stop-color="#34B0E5"/>
<stop offset="0.223" stop-color="#32B0E5"/>
<stop offset="0.227" stop-color="#30B0E5"/>
<stop offset="0.231" stop-color="#2EAFE5"/>
<stop offset="0.234" stop-color="#2CAFE5"/>
<stop offset="0.238" stop-color="#2AAFE5"/>
<stop offset="0.242" stop-color="#27AEE4"/>
<stop offset="0.246" stop-color="#25AEE4"/>
<stop offset="0.25" stop-color="#23AEE4"/>
<stop offset="0.254" stop-color="#20ADE4"/>
<stop offset="0.258" stop-color="#1CADE4"/>
<stop offset="0.262" stop-color="#19ACE4"/>
<stop offset="0.266" stop-color="#16ACE4"/>
<stop offset="0.27" stop-color="#0FACE4"/>
<stop offset="0.273" stop-color="#0AABE3"/>
<stop offset="0.277" stop-color="#06ABE3"/>
<stop offset="0.281" stop-color="#01ABE3"/>
<stop offset="0.297" stop-color="#00AAE3"/>
<stop offset="0.313" stop-color="#00A9E2"/>
<stop offset="0.328" stop-color="#00A8E2"/>
<stop offset="0.344" stop-color="#00A7E1"/>
<stop offset="0.359" stop-color="#00A6E1"/>
<stop offset="0.375" stop-color="#00A5E0"/>
<stop offset="0.379" stop-color="#00A4E0"/>
<stop offset="0.383" stop-color="#00A3E0"/>
<stop offset="0.398" stop-color="#00A2E0"/>
<stop offset="0.414" stop-color="#00A1DF"/>
<stop offset="0.43" stop-color="#00A0DF"/>
<stop offset="0.445" stop-color="#009FDE"/>
<stop offset="0.461" stop-color="#009EDE"/>
<stop offset="0.477" stop-color="#009DDD"/>
<stop offset="0.492" stop-color="#009CDD"/>
<stop offset="0.508" stop-color="#009BDD"/>
<stop offset="0.523" stop-color="#009ADC"/>
<stop offset="0.547" stop-color="#0099DC"/>
<stop offset="0.563" stop-color="#0099DB"/>
<stop offset="0.57" stop-color="#0098DB"/>
<stop offset="0.586" stop-color="#0097DA"/>
<stop offset="0.602" stop-color="#0096DA"/>
<stop offset="0.617" stop-color="#0095DA"/>
<stop offset="0.621" stop-color="#0094D9"/>
<stop offset="0.625" stop-color="#0094D8"/>
<stop offset="0.629" stop-color="#0093D8"/>
<stop offset="0.637" stop-color="#0092D7"/>
<stop offset="0.648" stop-color="#0091D6"/>
<stop offset="0.652" stop-color="#0090D5"/>
<stop offset="0.66" stop-color="#008FD4"/>
<stop offset="0.672" stop-color="#008ED4"/>
<stop offset="0.68" stop-color="#008ED3"/>
<stop offset="0.684" stop-color="#008CD2"/>
<stop offset="0.695" stop-color="#008BD1"/>
<stop offset="0.707" stop-color="#0089D0"/>
<stop offset="0.711" stop-color="#0089CF"/>
<stop offset="0.719" stop-color="#0088CF"/>
<stop offset="0.723" stop-color="#0088CE"/>
<stop offset="0.727" stop-color="#0087CD"/>
<stop offset="0.731" stop-color="#0086CD"/>
<stop offset="0.738" stop-color="#0085CC"/>
<stop offset="0.75" stop-color="#0085CB"/>
<stop offset="0.754" stop-color="#0084CA"/>
<stop offset="0.758" stop-color="#0083CA"/>
<stop offset="0.762" stop-color="#0082C9"/>
<stop offset="0.773" stop-color="#0081C9"/>
<stop offset="0.777" stop-color="#0080C8"/>
<stop offset="0.785" stop-color="#007FC7"/>
<stop offset="0.797" stop-color="#007EC6"/>
<stop offset="0.801" stop-color="#007DC5"/>
<stop offset="0.809" stop-color="#007CC4"/>
<stop offset="0.82" stop-color="#007BC4"/>
<stop offset="0.828" stop-color="#007BC3"/>
<stop offset="0.832" stop-color="#0079C2"/>
<stop offset="0.844" stop-color="#0078C1"/>
<stop offset="0.856" stop-color="#0077C0"/>
<stop offset="0.859" stop-color="#0076BF"/>
<stop offset="0.871" stop-color="#0075BE"/>
<stop offset="0.875" stop-color="#0074BE"/>
<stop offset="0.879" stop-color="#0074BD"/>
<stop offset="0.883" stop-color="#0073BD"/>
<stop offset="0.891" stop-color="#0073BC"/>
<stop offset="0.894" stop-color="#0072BC"/>
<stop offset="0.898" stop-color="#0071BB"/>
<stop offset="0.906" stop-color="#0070BB"/>
<stop offset="0.914" stop-color="#0070BA"/>
<stop offset="0.918" stop-color="#006FBA"/>
<stop offset="0.922" stop-color="#006EB9"/>
<stop offset="0.934" stop-color="#006DB8"/>
<stop offset="0.941" stop-color="#006CB7"/>
<stop offset="0.945" stop-color="#006BB7"/>
<stop offset="0.957" stop-color="#006AB6"/>
<stop offset="0.965" stop-color="#0069B5"/>
<stop offset="0.969" stop-color="#0068B5"/>
<stop offset="0.981" stop-color="#0067B4"/>
<stop offset="0.984" stop-color="#0067B3"/>
<stop offset="1" stop-color="#0066B3"/>
</linearGradient>
<clipPath id="clip0">
<rect width="542" height="131" fill="white"/>
</clipPath>
</defs>
</svg>
