<svg width="475" height="229" viewBox="0 0 475 229" fill="none" xmlns="http://www.w3.org/2000/svg">
<path d="M11.0567 122.171C7.85482 122.171 5.26416 119.493 5.26416 116.164C5.26416 112.898 7.85482 110.18 11.0567 110.18C13.1847 110.18 15.3126 111.172 16.2181 112.983C16.2809 113.109 16.3637 113.278 16.3637 113.489V118.799C16.3637 118.905 16.3009 119.136 16.258 119.199C15.2698 121.011 13.2475 122.171 11.0567 122.171ZM21.5679 126.744V105.67H16.3637V107.439C14.9099 106.028 12.9305 105.25 10.4883 105.25C4.52723 105.25 0 110.097 0 116.164C0 122.257 4.52723 127.166 10.4883 127.166C12.9305 127.166 14.9099 126.343 16.3637 124.932V126.744H21.5679ZM44.1669 126.744V115.344C44.1669 109.737 39.8082 105.25 34.247 105.25C28.6658 105.25 24.3271 109.737 24.3271 115.344V126.744H29.5284V115.344C29.5284 112.583 31.4678 110.474 34.247 110.474C37.0062 110.474 38.9656 112.583 38.9656 115.344V126.744H44.1669ZM57.3945 122.171C54.1925 122.171 51.6019 119.493 51.6019 116.164C51.6019 112.898 54.1925 110.18 57.3945 110.18C59.5224 110.18 61.5447 111.234 62.5558 112.983C62.6186 113.109 62.7015 113.278 62.7015 113.489V118.822C62.7015 118.928 62.6386 119.136 62.5986 119.199C61.6075 121.011 59.5852 122.171 57.3945 122.171ZM67.9056 126.744V99.3489H62.7015V107.439C61.2505 106.028 59.2682 105.184 56.8261 105.184C50.865 105.184 46.3377 110.097 46.3377 116.164C46.3377 122.257 50.865 127.166 56.8261 127.166C59.2682 127.166 61.2505 126.343 62.7015 124.932V126.744H67.9056ZM75.8661 126.744V115.49C75.8661 112.16 77.6142 110.391 80.9418 110.391V105.25C74.2438 105.25 70.6648 108.811 70.6648 115.49V126.744H75.8661ZM92.3156 121.92C89.1565 121.92 86.5887 119.348 86.5887 116.164C86.5887 113.003 89.1565 110.434 92.3156 110.434C95.5175 110.434 98.0681 113.003 98.0681 116.164C98.0681 119.348 95.5175 121.92 92.3156 121.92ZM92.3156 127.166C98.4052 127.166 103.332 122.257 103.332 116.164C103.332 110.097 98.4052 105.25 92.3156 105.25C86.2516 105.25 81.3217 110.097 81.3217 116.164C81.3217 122.257 86.2516 127.166 92.3156 127.166ZM108.302 104.07C109.967 104.07 111.316 102.698 111.316 101.035C111.316 99.3489 109.967 98 108.302 98C106.64 98 105.292 99.3489 105.292 101.035C105.292 102.698 106.64 104.07 108.302 104.07ZM110.893 105.67H105.689V126.744H110.893V105.67ZM124.312 122.171C121.11 122.171 118.519 119.493 118.519 116.164C118.519 112.898 121.11 110.18 124.312 110.18C126.44 110.18 128.459 111.234 129.47 112.983C129.536 113.109 129.619 113.278 129.619 113.489V118.842C129.619 118.948 129.556 119.136 129.513 119.199C128.525 121.011 126.503 122.171 124.312 122.171ZM134.82 126.744V99.3489H129.619V107.439C128.165 106.028 126.186 105.25 123.743 105.25C117.782 105.25 113.252 110.097 113.252 116.164C113.252 122.257 117.782 127.187 123.743 127.187C126.186 127.187 128.165 126.343 129.619 124.932V126.744H134.82Z" fill="#77C159"/>
<path d="M0.253184 45.6018H4.75689V26.4197H0.253184V45.6018ZM2.49601 23.9041C3.90681 23.9041 5.01012 22.8183 5.01012 21.4611C5.01012 20.0858 3.90681 19 2.49601 19C1.10331 19 0 20.0858 0 21.4611C0 22.8184 1.10331 23.9041 2.49601 23.9041ZM19.7517 19.0542C12.1372 19.0542 7.36198 24.2479 7.36198 32.5543C7.36198 40.8607 12.1367 46.0363 19.7517 46.0363C27.3482 46.0363 32.1234 40.8607 32.1234 32.5543C32.1234 24.2479 27.3486 19.0542 19.7517 19.0542ZM19.7517 23.0354C24.4001 23.0354 27.3662 26.7271 27.3662 32.5542C27.3662 38.3631 24.4 42.0549 19.7517 42.0549C15.0853 42.0549 12.1372 38.3632 12.1372 32.5542C12.1372 26.7272 15.0854 23.0354 19.7517 23.0354ZM34.0232 38.2547C34.2222 43.0685 38.1651 46.0362 44.17 46.0362C50.4825 46.0362 54.4618 42.9236 54.4618 37.9652C54.4618 34.0744 52.219 31.8848 46.9195 30.6724L43.917 29.9847C40.7156 29.2247 39.3953 28.2113 39.3953 26.474C39.3953 24.3024 41.3849 22.8547 44.333 22.8547C47.3174 22.8547 49.3611 24.3206 49.5782 26.7636H54.0276C53.9191 22.167 50.1208 19.0543 44.3693 19.0543C38.6898 19.0543 34.6564 22.185 34.6564 26.8178C34.6564 30.5456 36.9353 32.862 41.7463 33.966L45.1285 34.7623C48.4204 35.5404 49.7588 36.6262 49.7588 38.5082C49.7588 40.6798 47.5703 42.2361 44.4234 42.2361C41.24 42.2361 38.8346 40.6617 38.5452 38.2549L34.0232 38.2547Z" fill="black"/>
<path d="M153.508 24.8804C153.506 24.4854 153.5 24.0903 153.49 23.6954C153.466 22.835 153.416 21.9667 153.262 21.1158C153.115 20.2623 152.841 19.4354 152.448 18.6624C151.653 17.1093 150.384 15.8467 148.822 15.0557C148.045 14.6659 147.214 14.3936 146.356 14.2476C145.498 14.0945 144.625 14.0437 143.76 14.0206C143.361 14.0095 142.964 14.0048 142.567 14.0024C142.095 14 141.623 14 141.151 14H126.359C125.887 14 125.416 14 124.944 14.0024C124.547 14.0056 124.149 14.0103 123.751 14.0206C123.535 14.0262 123.318 14.0341 123.101 14.0444C122.45 14.0754 121.798 14.1326 121.155 14.2476C120.515 14.3585 119.888 14.5379 119.286 14.7826C118.277 15.1977 117.36 15.8062 116.588 16.5733C115.972 17.1853 115.457 17.8901 115.062 18.6616C114.659 19.4474 114.405 20.2506 114.249 21.115C114.095 21.9667 114.044 22.835 114.021 23.6946C114.01 24.0915 114.005 24.486 114.002 24.8804C114 25.3503 114 25.8194 114 26.2885V40.9947C114 41.4646 114 41.9337 114.002 42.4028C114.006 42.7981 114.01 43.1933 114.021 43.5878C114.045 44.449 114.095 45.3174 114.249 46.1674C114.396 47.0214 114.67 47.8489 115.062 48.6224C115.857 50.1759 117.127 51.4387 118.689 52.2292C119.479 52.6284 120.287 52.8816 121.156 53.0372C122.012 53.1904 122.886 53.2412 123.751 53.2642C124.149 53.2745 124.547 53.2793 124.944 53.2816C125.415 53.2848 125.887 53.284 126.359 53.284H141.151C141.622 53.284 142.094 53.2848 142.566 53.2816C142.964 53.2793 143.36 53.2745 143.758 53.2642C144.624 53.2404 145.498 53.1904 146.354 53.0372C147.212 52.8912 148.044 52.6189 148.821 52.2292C150.383 51.4384 151.653 50.1757 152.448 48.6224C152.85 47.8367 153.105 47.0326 153.261 46.169C153.415 45.3182 153.466 44.4498 153.489 43.5886C153.5 43.1941 153.505 42.7989 153.507 42.4036C153.51 41.9345 153.509 41.4654 153.509 40.9955V26.2885C153.509 25.8194 153.509 25.3503 153.507 24.8804H153.508Z" fill="#F05138"/>
<path d="M145.307 38.2485L145.305 38.2461C145.348 38.0976 145.393 37.9508 145.432 37.7992C147.072 31.3033 143.069 23.6232 136.297 19.58C139.265 23.5803 140.577 28.4253 139.41 32.6622C139.307 33.0408 139.182 33.4035 139.044 33.756C138.851 33.6324 138.653 33.5162 138.452 33.4075C138.452 33.4075 131.714 29.2722 124.412 21.9564C124.221 21.7643 128.306 27.7617 132.942 32.632C130.758 31.4137 124.67 27.0093 120.817 23.5026C121.29 24.2884 121.854 25.044 122.473 25.7718C125.691 29.8294 129.888 34.8362 134.916 38.681C131.383 40.8305 126.391 40.9971 121.421 38.6834C120.204 38.1152 119.047 37.4287 117.966 36.634C120.189 40.1436 123.426 42.9034 127.254 44.5515C131.957 46.5612 136.634 46.4247 140.117 44.5848L140.114 44.5888C140.13 44.5784 140.15 44.5681 140.167 44.557C140.31 44.4816 140.452 44.403 140.59 44.3213C142.264 43.4577 145.57 42.5814 147.344 46.0135C147.779 46.8541 148.703 42.402 145.308 38.2493L145.307 38.2485Z" fill="white"/>
<path d="M168.505 39.4941C168.814 42.219 171.428 44.0057 175.059 44.0057C178.509 44.0057 180.996 42.2198 180.996 39.7466C180.996 37.617 179.489 36.3169 176.021 35.4509L172.663 34.6016C167.834 33.411 165.655 31.2441 165.655 27.6708C165.655 23.2664 169.522 20.2161 175.023 20.2161C180.36 20.2161 184.154 23.2846 184.282 27.7073H180.741C180.469 24.9991 178.254 23.3386 174.932 23.3386C171.645 23.3386 169.358 25.0173 169.358 27.4715C169.358 29.3844 170.775 30.5226 174.26 31.4068L177.056 32.1291C182.467 33.4467 184.681 35.5406 184.681 39.3132C184.681 44.1152 180.85 47.129 174.75 47.129C169.086 47.129 165.219 44.1327 164.928 39.4934H168.505V39.4941ZM207.169 46.6957H203.611L199.453 32.2919H199.381L195.241 46.6957H191.684L186.419 27.8327H189.868L193.535 42.977H193.608L197.747 27.8327H201.088L205.263 42.977H205.336L209.003 27.8327H212.416L207.169 46.6957ZM214.713 22.7608C214.713 21.6241 215.658 20.7034 216.801 20.7034C217.964 20.7034 218.907 21.6241 218.907 22.7608C218.907 23.8982 217.964 24.8364 216.801 24.8364C216.249 24.8332 215.719 24.6136 215.329 24.225C214.938 23.8364 214.717 23.3103 214.714 22.7608H214.713ZM215.077 27.8327H218.544V46.6957H215.077V27.8327ZM241.188 30.6131V27.8327H237.522V23.3203H234.071V27.8327H227.444V26.1722C227.461 24.4935 228.114 23.7894 229.677 23.7894C230.184 23.7894 230.693 23.8442 231.11 23.9164V21.2074C230.504 21.1131 229.891 21.0648 229.277 21.063C225.573 21.063 224.012 22.598 224.012 26.1174V27.8319H221.361V30.6123H224.012V46.6949H227.461V30.6131H234.072V41.7491C234.072 45.3955 235.469 46.8028 239.101 46.8028C239.881 46.8028 240.771 46.7488 241.171 46.6591V43.843C240.737 43.8963 240.3 43.9265 239.863 43.9335C238.247 43.9335 237.522 43.1755 237.522 41.4785V30.6131H241.188Z" fill="black"/>
<circle cx="356.095" cy="202.905" r="26.0947" fill="#6C429C"/>
<path d="M374.728 221.088L337.828 184.188C348.038 174.26 364.364 174.347 374.466 184.45C384.569 194.553 384.656 210.878 374.728 221.088Z" fill="#5C2D91"/>
<path d="M338.642 206.347C339.144 206.347 339.576 205.932 339.576 205.396C339.576 204.859 339.144 204.462 338.642 204.462C338.141 204.462 337.726 204.859 337.726 205.396C337.726 205.932 338.141 206.347 338.642 206.347Z" fill="white"/>
<path d="M350.955 194.153V203.977L343.155 194.153H342.1V206.26H343.38V196.436L351.163 206.26H352.218V194.153H350.955Z" fill="white"/>
<path d="M357.104 205.154V200.657H363.365V199.567H357.104V195.26H364.126V194.153H355.824V206.26H364.385V205.154H357.104Z" fill="white"/>
<path d="M369.4 206.26H370.68V195.26H374.935V194.153H365.145V195.26H369.4V206.26Z" fill="white"/>
<path d="M348.794 216.013C349.827 216.013 350.75 215.662 351.372 214.98L350.9 214.508C350.328 215.1 349.626 215.351 348.824 215.351C347.128 215.351 345.854 214.107 345.854 212.442C345.854 210.777 347.128 209.533 348.824 209.533C349.626 209.533 350.328 209.783 350.9 210.365L351.372 209.894C350.75 209.212 349.827 208.871 348.804 208.871C346.687 208.871 345.122 210.385 345.122 212.442C345.122 214.498 346.687 216.013 348.794 216.013Z" fill="white"/>
<path d="M354.525 216.003C356.07 216.003 357.203 214.879 357.203 213.314C357.203 211.75 356.07 210.636 354.525 210.636C352.98 210.636 351.836 211.75 351.836 213.314C351.836 214.879 352.98 216.003 354.525 216.003ZM354.525 215.371C353.401 215.371 352.559 214.548 352.559 213.314C352.559 212.081 353.401 211.258 354.525 211.258C355.648 211.258 356.481 212.081 356.481 213.314C356.481 214.548 355.648 215.371 354.525 215.371Z" fill="white"/>
<path d="M359.139 211.709V210.676H358.457V215.953H359.169V213.264C359.169 212.02 359.841 211.318 360.944 211.318C360.995 211.318 361.055 211.328 361.115 211.328V210.636C360.142 210.636 359.47 211.007 359.139 211.709Z" fill="white"/>
<path d="M366.759 213.314C366.759 211.729 365.686 210.636 364.201 210.636C362.717 210.636 361.623 211.75 361.623 213.314C361.623 214.879 362.747 216.003 364.392 216.003C365.225 216.003 365.957 215.702 366.428 215.14L366.027 214.679C365.626 215.14 365.054 215.371 364.412 215.371C363.258 215.371 362.416 214.639 362.336 213.535H366.749C366.749 213.455 366.759 213.375 366.759 213.314ZM364.201 211.248C365.235 211.248 365.987 211.97 366.077 213.003H362.336C362.426 211.97 363.178 211.248 364.201 211.248Z" fill="white"/>
<path fill-rule="evenodd" clip-rule="evenodd" d="M66.1216 213.481L61.8539 205.288L57.4887 213.481H52.7947L59.4501 202.907L53.4607 192.398H58.2196L62.1056 200.382L66.3165 192.398H70.6694L64.5176 202.842L70.7668 213.481H66.1216ZM81.3397 213.481V211.186H81.2747C80.1161 212.987 78.4757 213.888 76.3534 213.888C74.7184 213.888 73.4298 213.443 72.4878 212.553C71.5458 211.653 71.0748 210.448 71.0748 208.94C71.0748 205.707 72.8885 203.868 76.5158 203.424L81.3722 202.756C81.3722 200.489 80.3219 199.355 78.2213 199.355C76.2181 199.355 74.3773 199.974 72.699 201.21V197.89C73.327 197.511 74.2257 197.169 75.3951 196.865C76.5754 196.561 77.6474 196.41 78.6111 196.41C82.8989 196.41 85.0428 198.579 85.0429 202.919V213.481H81.3397ZM77.7827 205.848C76.6674 205.989 75.8824 206.266 75.4276 206.678C74.9837 207.08 74.7617 207.704 74.7617 208.55C74.7617 209.244 75.0162 209.814 75.5251 210.259C76.034 210.693 76.6999 210.91 77.5228 210.91C78.6381 210.91 79.5585 210.524 80.284 209.754C81.0094 208.984 81.3722 208.024 81.3722 206.874V205.376L77.7827 205.848ZM108.99 213.481V204.075C108.99 202.523 108.746 201.373 108.259 200.624C107.783 199.865 106.927 199.485 105.693 199.485C104.707 199.485 103.879 199.941 103.208 200.852C102.536 201.753 102.201 202.843 102.201 204.123V213.481H98.4489V203.749C98.4488 200.907 97.3606 199.485 95.1842 199.485C94.1664 199.485 93.3272 199.914 92.6667 200.771C92.017 201.628 91.6922 202.746 91.6922 204.123V213.481H87.9403V196.816H91.6922V199.388H91.7572C92.9591 197.402 94.7132 196.41 97.0196 196.41C98.124 196.41 99.0986 196.702 99.9432 197.288C100.799 197.863 101.4 198.661 101.746 199.681C103.013 197.5 104.875 196.41 107.333 196.41C110.95 196.41 112.758 198.666 112.758 203.179V213.481H108.99ZM125.231 213.481V211.186H125.166C124.008 212.987 122.367 213.888 120.245 213.888C118.61 213.888 117.321 213.443 116.379 212.553C115.437 211.653 114.966 210.448 114.966 208.94C114.966 205.707 116.78 203.868 120.407 203.424L125.264 202.756C125.264 200.489 124.213 199.355 122.113 199.355C120.11 199.355 118.269 199.974 116.59 201.21V197.89C117.219 197.511 118.117 197.169 119.287 196.865C120.467 196.561 121.539 196.41 122.503 196.41C126.79 196.41 128.934 198.579 128.934 202.919V213.481H125.231ZM121.674 205.848C120.559 205.989 119.774 206.266 119.319 206.678C118.875 207.08 118.653 207.704 118.653 208.55C118.653 209.244 118.908 209.814 119.417 210.259C119.925 210.693 120.591 210.91 121.414 210.91C122.53 210.91 123.45 210.524 124.176 209.754C124.901 208.984 125.264 208.024 125.264 206.874V205.376L121.674 205.848ZM141.502 200.478C140.885 200.098 140.16 199.908 139.326 199.908C138.243 199.908 137.36 200.375 136.678 201.308C136.007 202.241 135.671 203.456 135.671 204.953V213.481H131.919V196.816H135.671V200.055H135.736C136.538 197.701 137.956 196.523 139.992 196.523C140.652 196.523 141.156 196.599 141.502 196.751L141.502 200.478ZM145.237 193.09C144.598 193.09 144.057 192.884 143.613 192.471C143.169 192.048 142.947 191.533 142.947 190.925C142.947 190.296 143.169 189.77 143.613 189.347C144.057 188.924 144.598 188.712 145.237 188.712C145.887 188.712 146.434 188.929 146.878 189.363C147.322 189.786 147.544 190.307 147.544 190.925C147.544 191.533 147.322 192.048 146.878 192.471C146.434 192.884 145.887 193.09 145.237 193.09ZM143.321 213.481V196.816H147.073V213.481H143.321ZM161.253 213.481V204.123C161.253 201.031 160.143 199.485 157.923 199.485C156.808 199.485 155.871 199.914 155.113 200.771C154.366 201.617 153.992 202.697 153.992 204.009V213.481H150.24V196.816H153.992V199.485H154.057C155.27 197.435 157.068 196.41 159.45 196.41C163.153 196.41 165.004 198.688 165.005 203.245V213.481H161.253ZM12.1756 184C11.036 184.002 9.92036 184.651 9.34665 185.641L0.423583 201.192C-0.141194 202.184 -0.141194 203.482 0.423583 204.475L9.34665 220.025C9.92042 221.015 11.036 221.664 12.1756 221.666H30.0217C31.1614 221.664 32.2769 221.015 32.8507 220.025L41.7737 204.475C42.3385 203.482 42.3385 202.184 41.7737 201.192L32.8507 185.641C32.2769 184.651 31.1614 184.002 30.0217 184H12.1756ZM12.3376 193.097C12.3621 193.095 12.3878 193.095 12.4124 193.097H15.4906C15.6268 193.1 15.759 193.179 15.827 193.297L21.0488 202.633C21.0751 202.679 21.092 202.73 21.0985 202.783C21.1049 202.73 21.1218 202.679 21.1481 202.633L26.3574 193.297C26.4276 193.175 26.5659 193.096 26.7063 193.097H29.7845C30.057 193.099 30.2612 193.444 30.1334 193.686L25.0364 202.833L30.1334 211.968C30.2732 212.211 30.0641 212.572 29.7845 212.569H26.7063C26.5635 212.568 26.4243 212.483 26.3574 212.356L21.1481 203.021C21.1218 202.975 21.1049 202.923 21.0985 202.871C21.092 202.923 21.0751 202.975 21.0488 203.021L15.827 212.356C15.7621 212.479 15.6292 212.564 15.4906 212.569H12.4124C12.1328 212.572 11.9237 212.211 12.0635 211.968L17.1605 202.833L12.0635 193.686C11.9413 193.465 12.0904 193.144 12.3376 193.097Z" fill="#3498DB"/>
<path d="M269.924 192.003C269.924 191.148 269.742 190.392 269.375 189.743C269.014 189.105 268.474 188.571 267.75 188.148C261.769 184.674 255.782 181.211 249.803 177.734C248.191 176.796 246.628 176.831 245.028 177.781C242.648 179.196 230.729 186.074 227.177 188.146C225.714 188.999 225.003 190.305 225.002 192.001C225 198.987 225.002 205.973 225 212.96C225 213.796 225.174 214.537 225.525 215.176C225.886 215.833 226.434 216.382 227.175 216.814C230.727 218.887 242.647 225.765 245.027 227.179C246.628 228.13 248.191 228.164 249.803 227.227C255.783 223.749 261.77 220.286 267.752 216.812C268.493 216.38 269.041 215.831 269.401 215.174C269.752 214.535 269.926 213.794 269.927 212.958C269.927 212.958 269.927 198.989 269.924 192.003Z" fill="#9A4993"/>
<path d="M247.532 202.411L225.525 215.174C225.886 215.831 226.434 216.38 227.175 216.813C230.727 218.885 242.647 225.763 245.027 227.177C246.628 228.129 248.191 228.163 249.803 227.225C255.783 223.747 261.77 220.284 267.752 216.811C268.493 216.379 269.041 215.829 269.401 215.172L247.532 202.411Z" fill="#6A1577"/>
<path d="M241.014 206.191C242.294 208.443 244.702 209.962 247.463 209.962C250.242 209.962 252.663 208.424 253.937 206.148L247.532 202.411L241.014 206.191Z" fill="#6A1577"/>
<path d="M269.924 192.001C269.924 191.146 269.742 190.39 269.375 189.741L247.532 202.411L269.401 215.172C269.752 214.533 269.926 213.792 269.927 212.956C269.927 212.956 269.927 198.987 269.924 192.001Z" fill="#813084"/>
<path d="M253.937 206.148C252.663 208.424 250.242 209.962 247.463 209.962C244.702 209.962 242.294 208.443 241.014 206.191C240.37 205.061 240.033 203.781 240.034 202.478C240.034 198.345 243.36 194.995 247.463 194.995C250.207 194.995 252.602 196.495 253.889 198.724L260.382 194.957C257.801 190.469 252.982 187.45 247.463 187.45C239.223 187.45 232.544 194.179 232.544 202.478C232.544 205.201 233.263 207.755 234.52 209.957C237.094 214.469 241.927 217.507 247.463 217.507C253.01 217.507 257.85 214.457 260.421 209.932L253.937 206.148Z" fill="white"/>
<path fill-rule="evenodd" clip-rule="evenodd" d="M260.6 207V205.4H259V203.8H260.6V202.2H259V200.6H260.6V199H262.2V200.6H263.8V199H265.4V200.6H267V202.2H265.4V203.8H267V205.4H265.4V207H263.8V205.4H262.2V207H260.6ZM263.8 203.8V202.2H262.2V203.8H263.8Z" fill="white"/>
<path d="M340.928 29.751C341.007 38.2257 348.333 41.0458 348.414 41.0817C348.352 41.2805 347.243 45.1006 344.554 49.0464C342.229 52.4579 339.817 55.8567 336.016 55.9271C332.282 55.9962 331.081 53.7036 326.811 53.7036C322.543 53.7036 321.209 55.8568 317.673 55.9963C314.005 56.1358 311.211 52.3074 308.867 48.9084C304.078 41.9559 300.418 29.2622 305.332 20.6937C307.774 16.4386 312.137 13.744 316.873 13.6749C320.475 13.606 323.876 16.1084 326.078 16.1084C328.279 16.1084 332.411 13.099 336.755 13.541C338.573 13.6169 343.678 14.2785 346.956 19.0958C346.692 19.2602 340.865 22.666 340.928 29.751ZM333.91 8.94124C335.857 6.57409 337.168 3.2788 336.811 0C334.003 0.113293 330.608 1.87838 328.595 4.24424C326.79 6.3393 325.209 9.69259 325.636 12.9065C328.765 13.1496 331.962 11.3099 333.91 8.94124Z" fill="black"/>
<path d="M365.755 37.4902C364.805 37.4902 363.947 37.2855 363.18 36.876C362.423 36.4666 361.826 35.9047 361.39 35.1904C360.963 34.4674 360.75 33.6573 360.75 32.76C360.75 31.8628 360.963 31.057 361.39 30.3427C361.826 29.6197 362.423 29.0535 363.18 28.644C363.947 28.2346 364.805 28.0299 365.755 28.0299C366.704 28.0299 367.558 28.2346 368.316 28.644C369.073 29.0535 369.67 29.6197 370.106 30.3427C370.541 31.057 370.759 31.8628 370.759 32.76C370.759 33.6573 370.541 34.4674 370.106 35.1904C369.67 35.9047 369.073 36.4666 368.316 36.876C367.558 37.2855 366.704 37.4902 365.755 37.4902ZM365.755 35.687C366.295 35.687 366.782 35.565 367.218 35.3211C367.654 35.0685 367.993 34.72 368.237 34.2758C368.49 33.8315 368.616 33.3263 368.616 32.76C368.616 32.1938 368.49 31.6886 368.237 31.2443C367.993 30.8 367.654 30.4559 367.218 30.212C366.782 29.9594 366.295 29.8331 365.755 29.8331C365.214 29.8331 364.727 29.9594 364.291 30.212C363.855 30.4559 363.511 30.8 363.259 31.2443C363.015 31.6886 362.893 32.1938 362.893 32.76C362.893 33.3263 363.015 33.8315 363.259 34.2758C363.511 34.72 363.855 35.0685 364.291 35.3211C364.727 35.565 365.214 35.687 365.755 35.687Z" fill="black"/>
<path d="M375.969 30.199C376.623 30.199 377.215 30.3514 377.746 30.6563C378.287 30.9525 378.709 31.375 379.014 31.9238C379.319 32.4639 379.471 33.0954 379.471 33.8184C379.471 34.5415 379.319 35.1774 379.014 35.7262C378.709 36.2663 378.287 36.6887 377.746 36.9936C377.215 37.2898 376.623 37.4379 375.969 37.4379C375.002 37.4379 374.266 37.133 373.761 36.5232V37.3334H371.814V27.6379H373.853V31.0483C374.367 30.4821 375.072 30.199 375.969 30.199ZM375.617 35.7654C376.139 35.7654 376.566 35.5911 376.897 35.2427C377.237 34.8855 377.407 34.4108 377.407 33.8184C377.407 33.2261 377.237 32.7557 376.897 32.4072C376.566 32.0501 376.139 31.8715 375.617 31.8715C375.094 31.8715 374.663 32.0501 374.323 32.4072C373.992 32.7557 373.826 33.2261 373.826 33.8184C373.826 34.4108 373.992 34.8855 374.323 35.2427C374.663 35.5911 375.094 35.7654 375.617 35.7654Z" fill="black"/>
<path d="M379.921 39.9728C379.207 39.9728 378.662 39.8422 378.288 39.5808L378.837 38.1043C379.072 38.2698 379.359 38.3526 379.699 38.3526C379.96 38.3526 380.165 38.2655 380.313 38.0912C380.461 37.9257 380.535 37.6731 380.535 37.3334V30.3035H382.574V37.3203C382.574 38.1391 382.338 38.7838 381.868 39.2542C381.406 39.7333 380.757 39.9728 379.921 39.9728ZM381.554 29.3235C381.18 29.3235 380.875 29.2146 380.64 28.9968C380.405 28.7791 380.287 28.509 380.287 28.1867C380.287 27.8644 380.405 27.5943 380.64 27.3766C380.875 27.1588 381.18 27.0499 381.554 27.0499C381.929 27.0499 382.234 27.1544 382.469 27.3635C382.704 27.5726 382.822 27.8339 382.822 28.1475C382.822 28.4872 382.704 28.7703 382.469 28.9968C382.234 29.2146 381.929 29.3235 381.554 29.3235Z" fill="black"/>
<path d="M390.945 33.8446C390.945 33.8707 390.932 34.0536 390.906 34.3934H385.587C385.683 34.8289 385.91 35.173 386.267 35.4256C386.624 35.6783 387.068 35.8046 387.6 35.8046C387.966 35.8046 388.288 35.7523 388.567 35.6478C388.854 35.5345 389.12 35.3603 389.364 35.1251L390.448 36.3011C389.786 37.059 388.819 37.4379 387.547 37.4379C386.755 37.4379 386.053 37.2855 385.444 36.9806C384.834 36.667 384.363 36.2358 384.032 35.687C383.701 35.1382 383.536 34.5153 383.536 33.8184C383.536 33.1303 383.697 32.5118 384.019 31.963C384.35 31.4055 384.799 30.9743 385.365 30.6694C385.94 30.3558 386.58 30.199 387.286 30.199C387.974 30.199 388.597 30.3471 389.155 30.6432C389.712 30.9394 390.148 31.3663 390.461 31.9238C390.784 32.4726 390.945 33.1128 390.945 33.8446ZM387.299 31.7408C386.837 31.7408 386.45 31.8715 386.136 32.1328C385.823 32.3942 385.631 32.7513 385.561 33.2043H389.024C388.954 32.76 388.763 32.4072 388.449 32.1459C388.135 31.8759 387.752 31.7408 387.299 31.7408Z" fill="black"/>
<path d="M395.307 37.4379C394.558 37.4379 393.883 37.2855 393.282 36.9806C392.689 36.667 392.223 36.2358 391.884 35.687C391.553 35.1382 391.387 34.5153 391.387 33.8184C391.387 33.1215 391.553 32.4987 391.884 31.9499C392.223 31.4011 392.689 30.9743 393.282 30.6694C393.883 30.3558 394.558 30.199 395.307 30.199C396.048 30.199 396.692 30.3558 397.241 30.6694C397.799 30.9743 398.204 31.4142 398.456 31.9891L396.875 32.8384C396.509 32.1938 395.982 31.8715 395.294 31.8715C394.763 31.8715 394.323 32.0457 393.974 32.3942C393.626 32.7426 393.452 33.2174 393.452 33.8184C393.452 34.4195 393.626 34.8943 393.974 35.2427C394.323 35.5911 394.763 35.7654 395.294 35.7654C395.991 35.7654 396.518 35.4431 396.875 34.7984L398.456 35.6608C398.204 36.2183 397.799 36.6539 397.241 36.9675C396.692 37.2811 396.048 37.4379 395.307 37.4379Z" fill="black"/>
<path d="M403.874 36.9936C403.674 37.1417 403.425 37.255 403.129 37.3334C402.842 37.4031 402.537 37.4379 402.215 37.4379C401.378 37.4379 400.729 37.2245 400.268 36.7976C399.815 36.3708 399.588 35.7436 399.588 34.916V32.0283H398.504V30.4603H399.588V28.7486H401.627V30.4603H403.378V32.0283H401.627V34.8899C401.627 35.1861 401.701 35.4169 401.849 35.5824C402.006 35.7392 402.223 35.8176 402.502 35.8176C402.824 35.8176 403.099 35.7305 403.325 35.5563L403.874 36.9936Z" fill="black"/>
<path d="M404.626 30.3035H406.665V37.3334H404.626V30.3035ZM405.646 29.3235C405.271 29.3235 404.966 29.2146 404.731 28.9968C404.496 28.7791 404.378 28.509 404.378 28.1867C404.378 27.8644 404.496 27.5943 404.731 27.3766C404.966 27.1588 405.271 27.0499 405.646 27.0499C406.02 27.0499 406.325 27.1544 406.56 27.3635C406.795 27.5726 406.913 27.8339 406.913 28.1475C406.913 28.4872 406.795 28.7703 406.56 28.9968C406.325 29.2146 406.02 29.3235 405.646 29.3235Z" fill="black"/>
<path d="M415.142 30.3035L412.176 37.3334H410.072L407.119 30.3035H409.223L411.17 35.0859L413.182 30.3035H415.142Z" fill="black"/>
<path d="M422.277 33.8446C422.277 33.8707 422.264 34.0536 422.237 34.3934H416.919C417.015 34.8289 417.242 35.173 417.599 35.4256C417.956 35.6783 418.4 35.8046 418.932 35.8046C419.297 35.8046 419.62 35.7523 419.899 35.6478C420.186 35.5345 420.452 35.3603 420.696 35.1251L421.78 36.3011C421.118 37.059 420.151 37.4379 418.879 37.4379C418.087 37.4379 417.385 37.2855 416.776 36.9806C416.166 36.667 415.695 36.2358 415.364 35.687C415.033 35.1382 414.868 34.5153 414.868 33.8184C414.868 33.1303 415.029 32.5118 415.351 31.963C415.682 31.4055 416.131 30.9743 416.697 30.6694C417.272 30.3558 417.912 30.199 418.618 30.199C419.306 30.199 419.929 30.3471 420.487 30.6432C421.044 30.9394 421.48 31.3663 421.793 31.9238C422.115 32.4726 422.277 33.1128 422.277 33.8446ZM418.631 31.7408C418.169 31.7408 417.782 31.8715 417.468 32.1328C417.155 32.3942 416.963 32.7513 416.893 33.2043H420.356C420.286 32.76 420.095 32.4072 419.781 32.1459C419.467 31.8759 419.084 31.7408 418.631 31.7408Z" fill="black"/>
<path d="M426.289 32.8384H429.987V34.4718H426.289V32.8384Z" fill="black"/>
<path d="M439.028 37.4902C438.096 37.4902 437.251 37.2898 436.493 36.8891C435.744 36.4797 435.152 35.9178 434.716 35.2035C434.289 34.4805 434.076 33.666 434.076 32.76C434.076 31.8541 434.289 31.0439 434.716 30.3296C435.152 29.6066 435.744 29.0447 436.493 28.644C437.251 28.2346 438.1 28.0299 439.041 28.0299C439.834 28.0299 440.548 28.1693 441.184 28.448C441.829 28.7268 442.369 29.1275 442.804 29.6502L441.446 30.9046C440.827 30.1903 440.06 29.8331 439.146 29.8331C438.58 29.8331 438.074 29.9594 437.63 30.212C437.186 30.4559 436.837 30.8 436.585 31.2443C436.341 31.6886 436.219 32.1938 436.219 32.76C436.219 33.3263 436.341 33.8315 436.585 34.2758C436.837 34.72 437.186 35.0685 437.63 35.3211C438.074 35.565 438.58 35.687 439.146 35.687C440.06 35.687 440.827 35.3255 441.446 34.6024L442.804 35.8568C442.369 36.3882 441.829 36.7933 441.184 37.072C440.54 37.3508 439.821 37.4902 439.028 37.4902Z" fill="black"/>
<path d="M224.375 102.979H229.264V112.869L238.28 102.979H244.184L235.137 112.578L244.597 125.603H238.724L231.835 115.971L229.264 118.686V125.602H224.375V102.979Z" fill="#000400"/>
<path d="M241.999 117.038V116.974C241.999 111.997 245.936 107.957 251.237 107.957C256.507 107.957 260.412 111.932 260.412 116.909V116.974C260.412 121.951 256.475 125.991 251.174 125.991C245.904 125.991 241.999 122.015 241.999 117.038ZM255.65 117.038V116.974C255.65 114.42 253.84 112.19 251.174 112.19C248.412 112.19 246.761 114.356 246.761 116.909V116.974C246.761 119.527 248.57 121.757 251.237 121.757C253.999 121.757 255.65 119.592 255.65 117.038Z" fill="#000400"/>
<path d="M261.744 120.69V112.481H259.712V108.28H261.744V103.852H266.569V108.28H270.569V112.481H266.569V119.883C266.569 121.013 267.045 121.563 268.125 121.563C268.957 121.567 269.776 121.356 270.506 120.949V124.892C269.49 125.506 268.315 125.894 266.696 125.894C263.744 125.894 261.744 124.698 261.744 120.69ZM271.954 102.01H276.78V125.603H271.954V102.01ZM278.524 102.01H283.603V106.373H278.524V102.01ZM278.651 108.28H283.476V125.603H278.651L278.651 108.28ZM285.312 108.28H290.137V110.736C291.249 109.282 292.677 107.957 295.121 107.957C298.772 107.957 300.899 110.413 300.899 114.388V125.603H296.074V115.939C296.074 113.612 294.994 112.417 293.153 112.417C291.312 112.417 290.137 113.612 290.137 115.939V125.603H285.312L285.312 108.28Z" fill="#000400"/>
<path d="M206.155 102.968L195 114.911V125.587L206.139 114.227L217.218 102.968H206.155Z" fill="url(#paint0_linear)"/>
<path d="M195 125.587L206.139 114.227L217.218 125.587H195Z" fill="url(#paint1_linear)"/>
<path d="M195 102.968H206.155L195 114.911V102.968Z" fill="url(#paint2_linear)"/>
<path fill-rule="evenodd" clip-rule="evenodd" d="M374.798 120.928C374.798 120.928 372.58 122.219 376.379 122.655C380.983 123.181 383.335 123.105 388.408 122.146C388.408 122.146 389.743 122.982 391.607 123.705C380.233 128.579 365.866 123.423 374.798 120.928ZM373.408 114.568C373.408 114.568 370.919 116.41 374.722 116.804C379.64 117.312 383.523 117.353 390.245 116.059C390.245 116.059 391.173 117.002 392.634 117.516C378.884 121.538 363.57 117.833 373.408 114.568Z" fill="#3174B9"/>
<path fill-rule="evenodd" clip-rule="evenodd" d="M385.124 103.778C387.927 107.006 384.389 109.908 384.389 109.908C384.389 109.908 391.505 106.235 388.236 101.634C385.185 97.3458 382.844 95.2152 395.514 87.8677C395.514 87.8672 375.625 92.833 385.124 103.778Z" fill="#EE282F"/>
<path fill-rule="evenodd" clip-rule="evenodd" d="M400.166 125.633C400.166 125.633 401.809 126.987 398.357 128.034C391.794 130.022 371.034 130.622 365.268 128.113C363.197 127.211 367.083 125.96 368.306 125.696C369.581 125.421 370.309 125.471 370.309 125.471C368.004 123.848 355.409 128.659 363.912 130.039C387.099 133.799 406.18 128.346 400.166 125.633ZM375.866 107.978C375.866 107.978 365.308 110.486 372.127 111.398C375.008 111.783 380.746 111.694 386.095 111.246C390.465 110.879 394.851 110.094 394.851 110.094C394.851 110.094 393.312 110.755 392.196 111.516C381.473 114.336 360.76 113.023 366.724 110.139C371.765 107.7 375.866 107.978 375.866 107.978ZM394.808 118.564C405.707 112.902 400.668 107.459 397.149 108.192C396.289 108.372 395.903 108.527 395.903 108.527C395.903 108.527 396.224 108.025 396.834 107.809C403.794 105.363 409.145 115.024 394.59 118.85C394.59 118.85 394.757 118.699 394.808 118.564Z" fill="#3174B9"/>
<path fill-rule="evenodd" clip-rule="evenodd" d="M388.236 76C388.236 76 394.271 82.0391 382.51 91.3225C373.078 98.7722 380.36 103.018 382.507 107.872C377 102.905 372.961 98.5312 375.671 94.4618C379.649 88.4883 390.671 85.5914 388.236 76Z" fill="#EE282F"/>
<path fill-rule="evenodd" clip-rule="evenodd" d="M376.938 133.913C387.399 134.582 403.466 133.542 403.847 128.591C403.847 128.591 403.115 130.467 395.201 131.956C386.271 133.637 375.255 133.441 368.724 132.363C368.724 132.363 370.063 133.471 376.938 133.913Z" fill="#3174B9"/>
<path fill-rule="evenodd" clip-rule="evenodd" d="M471.957 105.358H471.533V105.117H472.678V105.358H472.254V106.562H471.957V105.358ZM474.241 105.418H474.236L473.814 106.561H473.621L473.202 105.418H473.197V106.561H472.915V105.116H473.328L473.716 106.138L474.104 105.116H474.514V106.561H474.241V105.418H474.241ZM434.444 118.926C433.129 120.082 431.739 120.733 430.491 120.733C428.712 120.733 427.747 119.649 427.747 117.915C427.747 116.038 428.78 114.665 432.915 114.665H434.444V118.926H434.444ZM438.074 123.08V110.223C438.074 106.937 436.226 104.769 431.772 104.769C429.174 104.769 426.895 105.419 425.043 106.249L425.576 108.526C427.035 107.983 428.922 107.479 430.773 107.479C433.339 107.479 434.444 108.526 434.444 110.694V112.32H433.161C426.928 112.32 424.116 114.772 424.116 118.459C424.116 121.636 425.969 123.442 429.458 123.442C431.701 123.442 433.377 122.504 434.941 121.129L435.226 123.08H438.074ZM450.189 123.08H445.663L440.213 105.096H444.167L447.549 116.147L448.302 119.467C450.008 114.665 451.219 109.789 451.825 105.096H455.67C454.641 111.017 452.786 117.518 450.189 123.08ZM467.559 118.926C466.24 120.082 464.85 120.733 463.604 120.733C461.826 120.733 460.862 119.649 460.862 117.915C460.862 116.038 461.896 114.665 466.028 114.665H467.559V118.926ZM471.19 123.08V110.223C471.19 106.937 469.337 104.769 464.887 104.769C462.286 104.769 460.008 105.419 458.156 106.249L458.689 108.526C460.148 107.983 462.038 107.479 463.891 107.479C466.453 107.479 467.558 108.526 467.558 110.694V112.32H466.276C460.042 112.32 457.232 114.772 457.232 118.459C457.232 121.636 459.081 123.442 462.571 123.442C464.816 123.442 466.489 122.504 468.057 121.129L468.343 123.08H471.19ZM420.135 126.135C419.101 127.669 417.428 128.882 415.599 129.567L413.807 127.426C415.2 126.701 416.394 125.53 416.95 124.441C417.428 123.47 417.628 122.221 417.628 119.233V98.6992H421.486V118.95C421.486 122.947 421.171 124.562 420.135 126.135Z" fill="#EE282F"/>
<defs>
<linearGradient id="paint0_linear" x1="191.259" y1="123.764" x2="212.304" y2="103.092" gradientUnits="userSpaceOnUse">
<stop offset="0.108" stop-color="#C757BC"/>
<stop offset="0.173" stop-color="#CD5CA9"/>
<stop offset="0.492" stop-color="#E8744F"/>
<stop offset="0.716" stop-color="#F88316"/>
<stop offset="0.823" stop-color="#FF8900"/>
</linearGradient>
<linearGradient id="paint1_linear" x1="202.091" y1="129.668" x2="212.349" y2="119.592" gradientUnits="userSpaceOnUse">
<stop offset="0.296" stop-color="#00AFFF"/>
<stop offset="0.694" stop-color="#5282FF"/>
<stop offset="1" stop-color="#945DFF"/>
</linearGradient>
<linearGradient id="paint2_linear" x1="176.047" y1="640.919" x2="712.439" y2="139.904" gradientUnits="userSpaceOnUse">
<stop offset="0.296" stop-color="#00AFFF"/>
<stop offset="0.694" stop-color="#5282FF"/>
<stop offset="1" stop-color="#945DFF"/>
</linearGradient>
</defs>
</svg>
