<svg width="565" height="159" viewBox="0 0 565 159" fill="none" xmlns="http://www.w3.org/2000/svg">
<path d="M4.3475 127.3L6.56283 123.758H7.9974L5.07748 128.341L8.06723 133H6.61996L4.3475 129.395L2.06234 133H0.621426L3.61752 128.341L0.69125 123.758H2.11947L4.3475 127.3ZM13.4089 133C13.3412 132.865 13.2862 132.623 13.2439 132.276C12.698 132.843 12.0463 133.127 11.2888 133.127C10.6117 133.127 10.0552 132.937 9.61936 132.556C9.18771 132.171 8.97189 131.684 8.97189 131.096C8.97189 130.381 9.24273 129.826 9.78439 129.433C10.3303 129.035 11.0962 128.836 12.0822 128.836H13.2248V128.296C13.2248 127.886 13.1021 127.56 12.8567 127.319C12.6112 127.073 12.2494 126.951 11.7712 126.951C11.3523 126.951 11.001 127.056 10.7175 127.268C10.434 127.48 10.2922 127.736 10.2922 128.036H9.11154C9.11154 127.693 9.23215 127.363 9.47336 127.046C9.7188 126.724 10.0489 126.47 10.4636 126.284C10.8825 126.098 11.3417 126.005 11.841 126.005C12.6324 126.005 13.2523 126.204 13.7009 126.602C14.1495 126.995 14.3822 127.539 14.3991 128.233V131.394C14.3991 132.025 14.4795 132.526 14.6404 132.898V133H13.4089ZM11.4602 132.105C11.8283 132.105 12.1775 132.01 12.5075 131.819C12.8376 131.629 13.0767 131.381 13.2248 131.077V129.667H12.3044C10.8656 129.667 10.1462 130.089 10.1462 130.931C10.1462 131.299 10.2689 131.587 10.5144 131.794C10.7598 132.001 11.0751 132.105 11.4602 132.105ZM17.2145 126.132L17.2462 126.894C17.7498 126.301 18.429 126.005 19.2838 126.005C20.2444 126.005 20.8982 126.373 21.2452 127.109C21.4737 126.779 21.77 126.513 22.1339 126.31C22.5021 126.106 22.9358 126.005 23.4352 126.005C24.9417 126.005 25.7076 126.803 25.733 128.398V133H24.5587V128.468C24.5587 127.977 24.4465 127.611 24.2223 127.37C23.998 127.124 23.6214 127.001 23.0924 127.001C22.6565 127.001 22.2947 127.133 22.0069 127.395C21.7192 127.653 21.552 128.002 21.5055 128.442V133H20.3248V128.5C20.3248 127.501 19.836 127.001 18.8585 127.001C18.0883 127.001 17.5615 127.329 17.2779 127.985V133H16.1036V126.132H17.2145ZM31.6206 133C31.5529 132.865 31.4979 132.623 31.4555 132.276C30.9096 132.843 30.258 133.127 29.5005 133.127C28.8234 133.127 28.2669 132.937 27.831 132.556C27.3994 132.171 27.1836 131.684 27.1836 131.096C27.1836 130.381 27.4544 129.826 27.9961 129.433C28.542 129.035 29.3079 128.836 30.2939 128.836H31.4365V128.296C31.4365 127.886 31.3138 127.56 31.0683 127.319C30.8229 127.073 30.4611 126.951 29.9829 126.951C29.5639 126.951 29.2127 127.056 28.9292 127.268C28.6457 127.48 28.5039 127.736 28.5039 128.036H27.3232C27.3232 127.693 27.4438 127.363 27.685 127.046C27.9305 126.724 28.2606 126.47 28.6753 126.284C29.0942 126.098 29.5534 126.005 30.0527 126.005C30.8441 126.005 31.464 126.204 31.9126 126.602C32.3611 126.995 32.5939 127.539 32.6108 128.233V131.394C32.6108 132.025 32.6912 132.526 32.852 132.898V133H31.6206ZM29.6719 132.105C30.04 132.105 30.3891 132.01 30.7192 131.819C31.0493 131.629 31.2884 131.381 31.4365 131.077V129.667H30.5161C29.0773 129.667 28.3579 130.089 28.3579 130.931C28.3579 131.299 28.4806 131.587 28.7261 131.794C28.9715 132.001 29.2868 132.105 29.6719 132.105ZM37.6415 127.186C37.4637 127.156 37.2712 127.141 37.0638 127.141C36.2936 127.141 35.771 127.469 35.496 128.125V133H34.3216V126.132H35.4642L35.4833 126.925C35.8684 126.312 36.4143 126.005 37.121 126.005C37.3495 126.005 37.523 126.035 37.6415 126.094V127.186ZM39.8728 133H38.6985V126.132H39.8728V133ZM38.6033 124.31C38.6033 124.12 38.6604 123.959 38.7746 123.828C38.8931 123.696 39.0666 123.631 39.2952 123.631C39.5237 123.631 39.6972 123.696 39.8157 123.828C39.9342 123.959 39.9934 124.12 39.9934 124.31C39.9934 124.5 39.9342 124.659 39.8157 124.786C39.6972 124.913 39.5237 124.977 39.2952 124.977C39.0666 124.977 38.8931 124.913 38.7746 124.786C38.6604 124.659 38.6033 124.5 38.6033 124.31ZM42.7389 126.132L42.777 126.995C43.3017 126.335 43.9873 126.005 44.8336 126.005C46.2851 126.005 47.0172 126.824 47.0299 128.461V133H45.8556V128.455C45.8514 127.96 45.7371 127.594 45.5128 127.357C45.2928 127.12 44.9479 127.001 44.4781 127.001C44.0973 127.001 43.763 127.103 43.4752 127.306C43.1875 127.509 42.9632 127.776 42.8024 128.106V133H41.628V126.132H42.7389ZM53.1683 129.382V133H51.9496V123.758H55.3583C56.3697 123.758 57.161 124.016 57.7323 124.532C58.3078 125.049 58.5956 125.732 58.5956 126.583C58.5956 127.48 58.3142 128.172 57.7513 128.658C57.1928 129.141 56.3908 129.382 55.3456 129.382H53.1683ZM53.1683 128.385H55.3583C56.01 128.385 56.5093 128.233 56.8563 127.928C57.2033 127.619 57.3768 127.175 57.3768 126.595C57.3768 126.045 57.2033 125.605 56.8563 125.275C56.5093 124.945 56.0332 124.773 55.4281 124.761H53.1683V128.385ZM64.0007 133C63.933 132.865 63.878 132.623 63.8357 132.276C63.2898 132.843 62.6381 133.127 61.8806 133.127C61.2035 133.127 60.6471 132.937 60.2112 132.556C59.7796 132.171 59.5637 131.684 59.5637 131.096C59.5637 130.381 59.8346 129.826 60.3762 129.433C60.9221 129.035 61.6881 128.836 62.6741 128.836H63.8167V128.296C63.8167 127.886 63.6939 127.56 63.4485 127.319C63.2031 127.073 62.8412 126.951 62.363 126.951C61.9441 126.951 61.5929 127.056 61.3093 127.268C61.0258 127.48 60.884 127.736 60.884 128.036H59.7034C59.7034 127.693 59.824 127.363 60.0652 127.046C60.3106 126.724 60.6407 126.47 61.0554 126.284C61.4744 126.098 61.9335 126.005 62.4329 126.005C63.2242 126.005 63.8442 126.204 64.2927 126.602C64.7413 126.995 64.9741 127.539 64.991 128.233V131.394C64.991 132.025 65.0714 132.526 65.2322 132.898V133H64.0007ZM62.052 132.105C62.4202 132.105 62.7693 132.01 63.0994 131.819C63.4295 131.629 63.6685 131.381 63.8167 131.077V129.667H62.8963C61.4574 129.667 60.738 130.089 60.738 130.931C60.738 131.299 60.8608 131.587 61.1062 131.794C61.3517 132.001 61.6669 132.105 62.052 132.105ZM70.0216 127.186C69.8439 127.156 69.6513 127.141 69.444 127.141C68.6738 127.141 68.1512 127.469 67.8761 128.125V133H66.7018V126.132H67.8444L67.8634 126.925C68.2485 126.312 68.7944 126.005 69.5011 126.005C69.7296 126.005 69.9031 126.035 70.0216 126.094V127.186ZM72.8877 124.469V126.132H74.1699V127.04H72.8877V131.299C72.8877 131.574 72.9448 131.781 73.0591 131.921C73.1734 132.056 73.368 132.124 73.6431 132.124C73.7785 132.124 73.9647 132.099 74.2017 132.048V133C73.8928 133.085 73.5923 133.127 73.3003 133.127C72.7756 133.127 72.3799 132.968 72.1133 132.651C71.8467 132.333 71.7134 131.883 71.7134 131.299V127.04H70.4629V126.132H71.7134V124.469H72.8877ZM76.5282 126.132L76.5663 126.995C77.0911 126.335 77.7766 126.005 78.623 126.005C80.0745 126.005 80.8065 126.824 80.8192 128.461V133H79.6449V128.455C79.6407 127.96 79.5264 127.594 79.3022 127.357C79.0821 127.12 78.7372 127.001 78.2675 127.001C77.8866 127.001 77.5523 127.103 77.2646 127.306C76.9768 127.509 76.7525 127.776 76.5917 128.106V133H75.4174V126.132H76.5282ZM85.3103 133.127C84.3793 133.127 83.6219 132.822 83.0379 132.213C82.4539 131.599 82.1619 130.78 82.1619 129.756V129.541C82.1619 128.859 82.291 128.252 82.5491 127.719C82.8115 127.181 83.1754 126.762 83.6409 126.462C84.1106 126.157 84.6184 126.005 85.1643 126.005C86.0572 126.005 86.7513 126.299 87.2464 126.887C87.7415 127.475 87.989 128.318 87.989 129.414V129.902H83.3362C83.3531 130.579 83.5499 131.127 83.9265 131.546C84.3074 131.961 84.7898 132.168 85.3738 132.168C85.7885 132.168 86.1398 132.084 86.4275 131.915C86.7153 131.745 86.9671 131.521 87.1829 131.242L87.9002 131.8C87.3247 132.685 86.4614 133.127 85.3103 133.127ZM85.1643 126.97C84.6904 126.97 84.2926 127.143 83.971 127.49C83.6494 127.833 83.4505 128.315 83.3743 128.938H86.8147V128.849C86.7809 128.252 86.6201 127.791 86.3323 127.465C86.0445 127.135 85.6552 126.97 85.1643 126.97ZM92.5436 127.186C92.3659 127.156 92.1733 127.141 91.966 127.141C91.1958 127.141 90.6732 127.469 90.3981 128.125V133H89.2238V126.132H90.3664L90.3854 126.925C90.7705 126.312 91.3164 126.005 92.0231 126.005C92.2516 126.005 92.4251 126.035 92.5436 126.094V127.186Z" fill="#939393"/>
<path d="M87.3812 40C89.5248 43.7128 89.5248 48.2872 87.3812 52L71.8867 78.8372C69.7432 82.55 65.7816 84.8372 61.4944 84.8372L30.5056 84.8372C26.2184 84.8372 22.2568 82.55 20.1133 78.8372L4.61881 52C2.47521 48.2872 2.47521 43.7128 4.61881 40L20.1133 13.1628C22.2569 9.45001 26.2184 7.16283 30.5056 7.16283L61.4944 7.16283C65.7816 7.16283 69.7432 9.45002 71.8868 13.1628L87.3812 40Z" stroke="#383838" stroke-width="2"/>
<path d="M53.7592 30.5768L46.0473 45.392C46.0278 45.4324 46.0161 45.4571 46.0073 45.4791C46.0056 45.4834 46.0042 45.487 46.0031 45.4899C46.0137 45.5196 46.0234 45.5441 46.0344 45.5674L53.7593 60.4233L53.7721 60.4479L53.7812 60.4715C53.7826 60.4731 53.7859 60.4764 53.7926 60.4808C53.8063 60.4897 53.8257 60.4971 53.846 60.5H58.4027C58.4044 60.4991 58.4069 60.4976 58.4102 60.4953C58.4257 60.4845 58.4485 60.4617 58.4683 60.4257C58.5128 60.3446 58.5002 60.2845 58.4905 60.2665L58.4885 60.2625L50.9068 45.7313L50.7863 45.5003L50.9065 45.2692L58.4882 30.6965C58.4935 30.6862 58.5057 30.6447 58.4732 30.5773C58.4583 30.5465 58.4387 30.5218 58.4201 30.5056C58.4177 30.5035 58.4155 30.5016 58.4133 30.5H53.8348C53.8303 30.5018 53.8228 30.5055 53.8136 30.5119C53.8025 30.5196 53.7916 30.5292 53.7825 30.5396C53.7734 30.55 53.7682 30.5587 53.7659 30.5635L53.7627 30.5702L53.7592 30.5768ZM44.9997 45.462L45.0031 45.4618C44.9983 45.4509 44.9912 45.4371 44.9805 45.4186L44.9749 45.409L44.9697 45.399L37.2409 30.5772L37.2398 30.575C37.2194 30.5353 37.1973 30.5143 37.1846 30.5054C37.1797 30.502 37.1766 30.5006 37.1751 30.5H32.5996C32.5987 30.5006 32.5975 30.5013 32.5962 30.5023C32.5832 30.5112 32.5624 30.5312 32.5436 30.5643C32.5251 30.5971 32.515 30.6316 32.5126 30.6605C32.5106 30.6846 32.5142 30.6992 32.5172 30.7068L40.0935 45.2692L40.2137 45.5003L40.0932 45.7313L32.5115 60.2625L32.5115 60.2625L32.5095 60.2665C32.4998 60.2845 32.4872 60.3446 32.5317 60.4257C32.5515 60.4617 32.5743 60.4845 32.5898 60.4953C32.5931 60.4976 32.5956 60.4991 32.5973 60.5H37.176C37.1767 60.4999 37.1829 60.4991 37.1932 60.4921C37.2058 60.4835 37.2194 60.4688 37.2285 60.4485L37.2342 60.4359L37.2405 60.4237L44.9526 45.5667C44.9722 45.5262 44.9838 45.5014 44.9927 45.4793C44.9987 45.4644 45.0004 45.4579 45.0004 45.4579C45.0005 45.4579 45.0001 45.4593 44.9997 45.462ZM37.1739 30.4997C37.1739 30.4997 37.1743 30.4999 37.1748 30.4999L37.1739 30.4997Z" fill="#383838" stroke="#383838"/>
<path d="M158.996 123.758L162.018 131.299L165.039 123.758H166.62V133H165.401V129.401L165.515 125.516L162.481 133H161.548L158.52 125.535L158.641 129.401V133H157.422V123.758H158.996ZM169.734 133H168.559V126.132H169.734V133ZM168.464 124.31C168.464 124.12 168.521 123.959 168.635 123.828C168.754 123.696 168.927 123.631 169.156 123.631C169.384 123.631 169.558 123.696 169.676 123.828C169.795 123.959 169.854 124.12 169.854 124.31C169.854 124.5 169.795 124.659 169.676 124.786C169.558 124.913 169.384 124.977 169.156 124.977C168.927 124.977 168.754 124.913 168.635 124.786C168.521 124.659 168.464 124.5 168.464 124.31ZM174.244 132.168C174.663 132.168 175.029 132.042 175.342 131.788C175.655 131.534 175.829 131.216 175.862 130.835H176.973C176.952 131.229 176.817 131.604 176.567 131.959C176.317 132.314 175.983 132.598 175.564 132.81C175.149 133.021 174.709 133.127 174.244 133.127C173.309 133.127 172.564 132.816 172.009 132.194C171.459 131.568 171.184 130.713 171.184 129.629V129.433C171.184 128.764 171.307 128.169 171.552 127.649C171.798 127.128 172.149 126.724 172.606 126.437C173.067 126.149 173.611 126.005 174.237 126.005C175.008 126.005 175.647 126.236 176.154 126.697C176.666 127.158 176.939 127.757 176.973 128.493H175.862C175.829 128.049 175.659 127.685 175.355 127.401C175.054 127.114 174.682 126.97 174.237 126.97C173.641 126.97 173.177 127.186 172.847 127.617C172.521 128.045 172.358 128.665 172.358 129.477V129.699C172.358 130.491 172.521 131.1 172.847 131.527C173.173 131.955 173.639 132.168 174.244 132.168ZM181.483 127.186C181.306 127.156 181.113 127.141 180.906 127.141C180.136 127.141 179.613 127.469 179.338 128.125V133H178.164V126.132H179.306L179.325 126.925C179.71 126.312 180.256 126.005 180.963 126.005C181.191 126.005 181.365 126.035 181.483 126.094V127.186ZM182.001 129.502C182.001 128.83 182.132 128.224 182.394 127.687C182.661 127.15 183.029 126.735 183.499 126.443C183.973 126.151 184.512 126.005 185.118 126.005C186.053 126.005 186.808 126.329 187.384 126.976C187.963 127.624 188.253 128.485 188.253 129.56V129.642C188.253 130.311 188.124 130.912 187.866 131.445C187.612 131.974 187.246 132.386 186.768 132.683C186.294 132.979 185.748 133.127 185.13 133.127C184.199 133.127 183.444 132.803 182.864 132.156C182.289 131.508 182.001 130.651 182.001 129.585V129.502ZM183.182 129.642C183.182 130.404 183.357 131.015 183.708 131.477C184.064 131.938 184.538 132.168 185.13 132.168C185.727 132.168 186.201 131.936 186.552 131.47C186.903 131 187.079 130.345 187.079 129.502C187.079 128.749 186.899 128.14 186.539 127.674C186.184 127.205 185.71 126.97 185.118 126.97C184.538 126.97 184.07 127.2 183.715 127.662C183.359 128.123 183.182 128.783 183.182 129.642ZM193.595 131.178C193.595 130.861 193.474 130.615 193.233 130.442C192.996 130.264 192.579 130.112 191.983 129.985C191.39 129.858 190.918 129.706 190.567 129.528C190.22 129.35 189.962 129.139 189.793 128.893C189.628 128.648 189.545 128.356 189.545 128.017C189.545 127.454 189.782 126.978 190.256 126.589C190.734 126.2 191.344 126.005 192.084 126.005C192.863 126.005 193.493 126.206 193.976 126.608C194.462 127.01 194.706 127.524 194.706 128.15H193.525C193.525 127.829 193.388 127.552 193.113 127.319C192.842 127.086 192.499 126.97 192.084 126.97C191.657 126.97 191.322 127.063 191.081 127.249C190.84 127.435 190.719 127.679 190.719 127.979C190.719 128.263 190.832 128.476 191.056 128.62C191.28 128.764 191.684 128.902 192.268 129.033C192.857 129.164 193.333 129.32 193.697 129.502C194.06 129.684 194.329 129.904 194.503 130.163C194.68 130.417 194.769 130.728 194.769 131.096C194.769 131.709 194.524 132.202 194.033 132.575C193.542 132.943 192.905 133.127 192.122 133.127C191.572 133.127 191.086 133.03 190.662 132.835C190.239 132.64 189.907 132.369 189.666 132.022C189.429 131.671 189.31 131.292 189.31 130.886H190.485C190.506 131.28 190.662 131.593 190.954 131.826C191.251 132.054 191.64 132.168 192.122 132.168C192.567 132.168 192.922 132.08 193.189 131.902C193.46 131.72 193.595 131.479 193.595 131.178ZM195.858 129.502C195.858 128.83 195.989 128.224 196.252 127.687C196.518 127.15 196.886 126.735 197.356 126.443C197.83 126.151 198.37 126.005 198.975 126.005C199.91 126.005 200.665 126.329 201.241 126.976C201.821 127.624 202.11 128.485 202.11 129.56V129.642C202.11 130.311 201.981 130.912 201.723 131.445C201.469 131.974 201.103 132.386 200.625 132.683C200.151 132.979 199.605 133.127 198.987 133.127C198.056 133.127 197.301 132.803 196.721 132.156C196.146 131.508 195.858 130.651 195.858 129.585V129.502ZM197.039 129.642C197.039 130.404 197.214 131.015 197.566 131.477C197.921 131.938 198.395 132.168 198.987 132.168C199.584 132.168 200.058 131.936 200.409 131.47C200.761 131 200.936 130.345 200.936 129.502C200.936 128.749 200.756 128.14 200.397 127.674C200.041 127.205 199.567 126.97 198.975 126.97C198.395 126.97 197.927 127.2 197.572 127.662C197.216 128.123 197.039 128.783 197.039 129.642ZM204.031 133V127.04H202.945V126.132H204.031V125.427C204.031 124.691 204.228 124.122 204.621 123.72C205.015 123.318 205.571 123.117 206.291 123.117C206.561 123.117 206.83 123.153 207.097 123.225L207.033 124.177C206.834 124.139 206.623 124.12 206.398 124.12C206.018 124.12 205.723 124.232 205.516 124.456C205.309 124.676 205.205 124.993 205.205 125.408V126.132H206.671V127.04H205.205V133H204.031ZM209.436 124.469V126.132H210.718V127.04H209.436V131.299C209.436 131.574 209.493 131.781 209.607 131.921C209.722 132.056 209.916 132.124 210.191 132.124C210.327 132.124 210.513 132.099 210.75 132.048V133C210.441 133.085 210.141 133.127 209.849 133.127C209.324 133.127 208.928 132.968 208.662 132.651C208.395 132.333 208.262 131.883 208.262 131.299V127.04H207.011V126.132H208.262V124.469H209.436ZM222.068 131.788C221.755 132.236 221.317 132.573 220.754 132.797C220.195 133.017 219.544 133.127 218.799 133.127C218.046 133.127 217.377 132.951 216.793 132.6C216.209 132.245 215.756 131.741 215.435 131.089C215.117 130.438 214.954 129.682 214.946 128.823V128.017C214.946 126.625 215.27 125.546 215.917 124.78C216.569 124.014 217.483 123.631 218.659 123.631C219.624 123.631 220.401 123.878 220.989 124.374C221.577 124.864 221.937 125.563 222.068 126.468H220.849C220.621 125.245 219.893 124.634 218.666 124.634C217.849 124.634 217.229 124.922 216.806 125.497C216.387 126.068 216.175 126.898 216.171 127.985V128.741C216.171 129.778 216.408 130.603 216.882 131.216C217.356 131.826 217.997 132.13 218.805 132.13C219.262 132.13 219.662 132.08 220.005 131.978C220.348 131.876 220.631 131.705 220.856 131.464V129.388H218.716V128.398H222.068V131.788ZM223.48 129.502C223.48 128.83 223.612 128.224 223.874 127.687C224.141 127.15 224.509 126.735 224.979 126.443C225.452 126.151 225.992 126.005 226.597 126.005C227.532 126.005 228.288 126.329 228.863 126.976C229.443 127.624 229.733 128.485 229.733 129.56V129.642C229.733 130.311 229.604 130.912 229.346 131.445C229.092 131.974 228.726 132.386 228.248 132.683C227.774 132.979 227.228 133.127 226.61 133.127C225.679 133.127 224.924 132.803 224.344 132.156C223.768 131.508 223.48 130.651 223.48 129.585V129.502ZM224.661 129.642C224.661 130.404 224.837 131.015 225.188 131.477C225.543 131.938 226.017 132.168 226.61 132.168C227.207 132.168 227.681 131.936 228.032 131.47C228.383 131 228.559 130.345 228.559 129.502C228.559 128.749 228.379 128.14 228.019 127.674C227.664 127.205 227.19 126.97 226.597 126.97C226.017 126.97 225.55 127.2 225.194 127.662C224.839 128.123 224.661 128.783 224.661 129.642ZM232.351 133H231.177V123.25H232.351V133ZM233.821 129.509C233.821 128.455 234.071 127.609 234.57 126.97C235.069 126.326 235.723 126.005 236.532 126.005C237.336 126.005 237.972 126.28 238.442 126.83V123.25H239.616V133H238.537L238.48 132.264C238.011 132.839 237.357 133.127 236.519 133.127C235.723 133.127 235.074 132.801 234.57 132.149C234.071 131.498 233.821 130.647 233.821 129.598V129.509ZM234.995 129.642C234.995 130.421 235.156 131.03 235.478 131.47C235.799 131.91 236.244 132.13 236.811 132.13C237.556 132.13 238.099 131.796 238.442 131.127V127.973C238.091 127.325 237.551 127.001 236.824 127.001C236.248 127.001 235.799 127.224 235.478 127.668C235.156 128.112 234.995 128.77 234.995 129.642ZM181.36 149.382V153H180.141V143.758H183.55C184.561 143.758 185.352 144.016 185.924 144.532C186.499 145.049 186.787 145.732 186.787 146.583C186.787 147.48 186.506 148.172 185.943 148.658C185.384 149.141 184.582 149.382 183.537 149.382H181.36ZM181.36 148.385H183.55C184.201 148.385 184.701 148.233 185.048 147.928C185.395 147.619 185.568 147.175 185.568 146.595C185.568 146.045 185.395 145.605 185.048 145.275C184.701 144.945 184.225 144.773 183.619 144.761H181.36V148.385ZM192.192 153C192.124 152.865 192.069 152.623 192.027 152.276C191.481 152.843 190.829 153.127 190.072 153.127C189.395 153.127 188.838 152.937 188.403 152.556C187.971 152.171 187.755 151.684 187.755 151.096C187.755 150.381 188.026 149.826 188.568 149.433C189.114 149.035 189.879 148.836 190.865 148.836H192.008V148.296C192.008 147.886 191.885 147.56 191.64 147.319C191.394 147.073 191.033 146.951 190.554 146.951C190.135 146.951 189.784 147.056 189.501 147.268C189.217 147.48 189.075 147.736 189.075 148.036H187.895C187.895 147.693 188.015 147.363 188.257 147.046C188.502 146.724 188.832 146.47 189.247 146.284C189.666 146.098 190.125 146.005 190.624 146.005C191.416 146.005 192.036 146.204 192.484 146.602C192.933 146.995 193.165 147.539 193.182 148.233V151.394C193.182 152.025 193.263 152.526 193.424 152.898V153H192.192ZM190.243 152.105C190.612 152.105 190.961 152.01 191.291 151.819C191.621 151.629 191.86 151.381 192.008 151.077V149.667H191.088C189.649 149.667 188.929 150.089 188.929 150.931C188.929 151.299 189.052 151.587 189.298 151.794C189.543 152.001 189.858 152.105 190.243 152.105ZM198.213 147.186C198.035 147.156 197.843 147.141 197.635 147.141C196.865 147.141 196.343 147.469 196.067 148.125V153H194.893V146.132H196.036L196.055 146.925C196.44 146.312 196.986 146.005 197.692 146.005C197.921 146.005 198.095 146.035 198.213 146.094V147.186ZM201.079 144.469V146.132H202.361V147.04H201.079V151.299C201.079 151.574 201.136 151.781 201.25 151.921C201.365 152.056 201.559 152.124 201.834 152.124C201.97 152.124 202.156 152.099 202.393 152.048V153C202.084 153.085 201.784 153.127 201.492 153.127C200.967 153.127 200.571 152.968 200.305 152.651C200.038 152.333 199.905 151.883 199.905 151.299V147.04H198.654V146.132H199.905V144.469H201.079ZM204.72 146.132L204.758 146.995C205.282 146.335 205.968 146.005 206.814 146.005C208.266 146.005 208.998 146.824 209.011 148.461V153H207.836V148.455C207.832 147.96 207.718 147.594 207.494 147.357C207.273 147.12 206.929 147.001 206.459 147.001C206.078 147.001 205.744 147.103 205.456 147.306C205.168 147.509 204.944 147.776 204.783 148.106V153H203.609V146.132H204.72ZM213.502 153.127C212.571 153.127 211.813 152.822 211.229 152.213C210.645 151.599 210.353 150.78 210.353 149.756V149.541C210.353 148.859 210.482 148.252 210.74 147.719C211.003 147.181 211.367 146.762 211.832 146.462C212.302 146.157 212.81 146.005 213.356 146.005C214.249 146.005 214.943 146.299 215.438 146.887C215.933 147.475 216.18 148.318 216.18 149.414V149.902H211.528C211.545 150.579 211.741 151.127 212.118 151.546C212.499 151.961 212.981 152.168 213.565 152.168C213.98 152.168 214.331 152.084 214.619 151.915C214.907 151.745 215.158 151.521 215.374 151.242L216.092 151.8C215.516 152.685 214.653 153.127 213.502 153.127ZM213.356 146.97C212.882 146.97 212.484 147.143 212.162 147.49C211.841 147.833 211.642 148.315 211.566 148.938H215.006V148.849C214.972 148.252 214.811 147.791 214.524 147.465C214.236 147.135 213.847 146.97 213.356 146.97ZM220.735 147.186C220.557 147.156 220.365 147.141 220.157 147.141C219.387 147.141 218.865 147.469 218.589 148.125V153H217.415V146.132H218.558L218.577 146.925C218.962 146.312 219.508 146.005 220.214 146.005C220.443 146.005 220.617 146.035 220.735 146.094V147.186Z" fill="#939393"/>
<path d="M200.284 1.03664L200.284 1.03661C200.446 0.9878 200.613 0.987795 200.775 1.0366C200.775 1.03661 200.775 1.03661 200.775 1.03661L238.112 12.2803C238.113 12.2808 238.114 12.2812 238.116 12.2816C238.484 12.3985 238.74 12.7486 238.74 13.1358V54.3796C238.74 62.176 232.781 69.7449 224.848 75.9929C216.966 82.2007 207.41 86.8846 200.783 88.9577L200.76 88.9647L200.738 88.9728C200.693 88.9892 200.645 89 200.521 89C200.447 89 200.355 88.986 200.254 88.9559C193.627 86.8819 184.074 82.1989 176.194 75.9929C168.261 69.7449 162.302 62.176 162.302 54.3796V13.1358C162.302 12.7486 162.558 12.3984 162.927 12.2816C162.928 12.2812 162.929 12.2807 162.93 12.2803L200.284 1.03664Z" stroke="#383838" stroke-width="2"/>
<rect x="179.758" y="23.071" width="18.9311" height="18.9311" fill="#383838"/>
<rect x="202.353" y="23.0708" width="18.9311" height="18.9311" fill="#383838"/>
<rect x="179.758" y="45.6656" width="18.9311" height="18.9311" fill="#383838"/>
<rect x="202.353" y="45.6656" width="18.9311" height="18.9311" fill="#383838"/>
<circle cx="352" cy="45" r="44" fill="white" stroke="#383838" stroke-width="2"/>
<path d="M330.535 58.639H325V32.361H330.535V58.639Z" fill="#383838"/>
<path d="M349.614 51.7447C349.614 50.7219 349.245 49.9398 348.507 49.3984C347.769 48.8449 346.441 48.2674 344.522 47.6658C342.603 47.0521 341.083 46.4505 339.964 45.861C336.913 44.2487 335.388 42.0769 335.388 39.3456C335.388 37.9258 335.794 36.6624 336.606 35.5555C337.43 34.4365 338.605 33.5642 340.13 32.9385C341.668 32.3128 343.39 32 345.297 32C347.215 32 348.925 32.3429 350.426 33.0287C351.927 33.7025 353.089 34.6591 353.913 35.8984C354.75 37.1377 355.168 38.5455 355.168 40.1217H349.633C349.633 38.9184 349.245 37.986 348.47 37.3242C347.695 36.6504 346.607 36.3135 345.204 36.3135C343.851 36.3135 342.799 36.5963 342.049 37.1618C341.299 37.7152 340.924 38.4492 340.924 39.3636C340.924 40.2179 341.36 40.9338 342.234 41.5114C343.119 42.0889 344.417 42.6303 346.127 43.1357C349.276 44.0622 351.57 45.2112 353.009 46.5829C354.448 47.9545 355.168 49.6631 355.168 51.7086C355.168 53.9826 354.289 55.7694 352.529 57.0688C350.77 58.3563 348.403 59 345.426 59C343.359 59 341.477 58.633 339.78 57.8991C338.082 57.1531 336.784 56.1364 335.886 54.8489C335.001 53.5615 334.558 52.0695 334.558 50.373H340.112C340.112 53.2727 341.883 54.7226 345.426 54.7226C346.742 54.7226 347.769 54.4639 348.507 53.9465C349.245 53.4171 349.614 52.6832 349.614 51.7447Z" fill="#383838"/>
<path d="M381 46.0956C381 48.6825 380.533 50.9505 379.598 52.8997C378.663 54.8489 377.322 56.3529 375.575 57.4118C373.841 58.4706 371.848 59 369.597 59C367.371 59 365.384 58.4766 363.637 57.4298C361.89 56.383 360.537 54.891 359.578 52.9539C358.618 51.0047 358.133 48.7667 358.12 46.24V44.9405C358.12 42.3536 358.594 40.0795 359.541 38.1183C360.5 36.1451 361.847 34.635 363.582 33.5882C365.329 32.5294 367.321 32 369.56 32C371.799 32 373.786 32.5294 375.52 33.5882C377.267 34.635 378.614 36.1451 379.561 38.1183C380.52 40.0795 381 42.3476 381 44.9225V46.0956ZM375.391 44.9044C375.391 42.1491 374.886 40.0555 373.878 38.6237C372.869 37.1918 371.43 36.4759 369.56 36.4759C367.703 36.4759 366.27 37.1858 365.261 38.6056C364.252 40.0134 363.742 42.0829 363.729 44.8142V46.0956C363.729 48.7787 364.234 50.8603 365.243 52.3402C366.251 53.8202 367.703 54.5602 369.597 54.5602C371.454 54.5602 372.881 53.8503 373.878 52.4305C374.874 50.9987 375.378 48.9171 375.391 46.1858V44.9044Z" fill="#383838"/>
<path d="M326.487 133H325.268V123.758H326.487V133ZM331.314 128.88C330.269 128.58 329.507 128.212 329.029 127.776C328.555 127.336 328.318 126.794 328.318 126.151C328.318 125.423 328.608 124.822 329.188 124.348C329.772 123.87 330.529 123.631 331.46 123.631C332.095 123.631 332.66 123.754 333.155 123.999C333.654 124.244 334.04 124.583 334.31 125.015C334.585 125.446 334.723 125.918 334.723 126.43H333.498C333.498 125.872 333.32 125.434 332.965 125.116C332.609 124.795 332.108 124.634 331.46 124.634C330.859 124.634 330.39 124.767 330.051 125.034C329.717 125.296 329.55 125.662 329.55 126.132C329.55 126.508 329.708 126.828 330.026 127.09C330.347 127.348 330.891 127.585 331.657 127.801C332.427 128.017 333.028 128.256 333.46 128.519C333.896 128.777 334.217 129.079 334.425 129.426C334.636 129.773 334.742 130.182 334.742 130.651C334.742 131.4 334.45 132.001 333.866 132.454C333.282 132.903 332.501 133.127 331.524 133.127C330.889 133.127 330.297 133.006 329.746 132.765C329.196 132.52 328.771 132.185 328.471 131.762C328.174 131.339 328.026 130.859 328.026 130.321H329.251C329.251 130.88 329.457 131.322 329.867 131.648C330.282 131.97 330.834 132.13 331.524 132.13C332.167 132.13 332.66 131.999 333.003 131.737C333.346 131.474 333.517 131.117 333.517 130.664C333.517 130.211 333.358 129.862 333.041 129.617C332.723 129.367 332.148 129.122 331.314 128.88ZM343.289 128.677C343.289 129.583 343.137 130.374 342.832 131.051C342.528 131.724 342.096 132.238 341.537 132.594C340.979 132.949 340.327 133.127 339.582 133.127C338.854 133.127 338.209 132.949 337.646 132.594C337.083 132.234 336.645 131.724 336.332 131.064C336.023 130.4 335.865 129.632 335.856 128.76V128.093C335.856 127.205 336.011 126.42 336.32 125.738C336.628 125.057 337.064 124.536 337.627 124.177C338.194 123.813 338.842 123.631 339.57 123.631C340.31 123.631 340.962 123.811 341.525 124.17C342.092 124.526 342.528 125.044 342.832 125.726C343.137 126.403 343.289 127.192 343.289 128.093V128.677ZM342.077 128.081C342.077 126.985 341.857 126.145 341.417 125.561C340.977 124.972 340.361 124.678 339.57 124.678C338.799 124.678 338.192 124.972 337.748 125.561C337.308 126.145 337.081 126.957 337.069 127.998V128.677C337.069 129.739 337.291 130.575 337.735 131.185C338.184 131.79 338.799 132.092 339.582 132.092C340.369 132.092 340.979 131.807 341.41 131.235C341.842 130.66 342.064 129.837 342.077 128.766V128.081ZM350.738 133H344.683V132.156L347.882 128.601C348.356 128.064 348.682 127.628 348.859 127.293C349.041 126.955 349.132 126.606 349.132 126.246C349.132 125.764 348.986 125.368 348.694 125.059C348.402 124.75 348.013 124.596 347.526 124.596C346.942 124.596 346.488 124.763 346.162 125.097C345.84 125.427 345.679 125.889 345.679 126.481H344.505C344.505 125.63 344.778 124.943 345.324 124.418C345.874 123.893 346.608 123.631 347.526 123.631C348.385 123.631 349.065 123.857 349.564 124.31C350.063 124.759 350.313 125.357 350.313 126.106C350.313 127.016 349.733 128.1 348.574 129.356L346.098 132.042H350.738V133ZM357.819 124.418L353.992 133H352.76L356.575 124.723H351.573V123.758H357.819V124.418ZM364.818 129.058C364.818 130.433 364.583 131.455 364.113 132.124C363.643 132.793 362.909 133.127 361.91 133.127C360.924 133.127 360.194 132.801 359.721 132.149C359.247 131.493 359.001 130.516 358.984 129.217V127.649C358.984 126.291 359.219 125.281 359.689 124.621C360.159 123.961 360.895 123.631 361.898 123.631C362.892 123.631 363.624 123.95 364.094 124.589C364.564 125.224 364.805 126.206 364.818 127.535V129.058ZM363.643 127.452C363.643 126.458 363.504 125.734 363.224 125.281C362.945 124.824 362.503 124.596 361.898 124.596C361.297 124.596 360.859 124.822 360.584 125.275C360.309 125.728 360.167 126.424 360.159 127.363V129.242C360.159 130.241 360.302 130.979 360.59 131.458C360.882 131.931 361.322 132.168 361.91 132.168C362.49 132.168 362.92 131.944 363.199 131.496C363.483 131.047 363.631 130.34 363.643 129.375V127.452ZM371.988 129.058C371.988 130.433 371.753 131.455 371.283 132.124C370.813 132.793 370.079 133.127 369.08 133.127C368.094 133.127 367.364 132.801 366.89 132.149C366.416 131.493 366.171 130.516 366.154 129.217V127.649C366.154 126.291 366.389 125.281 366.859 124.621C367.328 123.961 368.065 123.631 369.068 123.631C370.062 123.631 370.794 123.95 371.264 124.589C371.734 125.224 371.975 126.206 371.988 127.535V129.058ZM370.813 127.452C370.813 126.458 370.674 125.734 370.394 125.281C370.115 124.824 369.673 124.596 369.068 124.596C368.467 124.596 368.029 124.822 367.754 125.275C367.479 125.728 367.337 126.424 367.328 127.363V129.242C367.328 130.241 367.472 130.979 367.76 131.458C368.052 131.931 368.492 132.168 369.08 132.168C369.66 132.168 370.09 131.944 370.369 131.496C370.652 131.047 370.8 130.34 370.813 129.375V127.452ZM377.221 133H376.041V125.173L373.673 126.043V124.977L377.037 123.713H377.221V133Z" fill="#939393"/>
<path d="M459.792 123.758L462.813 131.299L465.835 123.758H467.415V133H466.197V129.401L466.311 125.516L463.277 133H462.344L459.316 125.535L459.436 129.401V133H458.218V123.758H459.792ZM470.529 133H469.355V126.132H470.529V133ZM469.259 124.31C469.259 124.12 469.317 123.959 469.431 123.828C469.549 123.696 469.723 123.631 469.951 123.631C470.18 123.631 470.353 123.696 470.472 123.828C470.59 123.959 470.65 124.12 470.65 124.31C470.65 124.5 470.59 124.659 470.472 124.786C470.353 124.913 470.18 124.977 469.951 124.977C469.723 124.977 469.549 124.913 469.431 124.786C469.317 124.659 469.259 124.5 469.259 124.31ZM475.039 132.168C475.458 132.168 475.824 132.042 476.137 131.788C476.45 131.534 476.624 131.216 476.658 130.835H477.769C477.747 131.229 477.612 131.604 477.362 131.959C477.113 132.314 476.778 132.598 476.359 132.81C475.945 133.021 475.505 133.127 475.039 133.127C474.104 133.127 473.359 132.816 472.805 132.194C472.255 131.568 471.98 130.713 471.98 129.629V129.433C471.98 128.764 472.102 128.169 472.348 127.649C472.593 127.128 472.944 126.724 473.401 126.437C473.863 126.149 474.407 126.005 475.033 126.005C475.803 126.005 476.442 126.236 476.95 126.697C477.462 127.158 477.735 127.757 477.769 128.493H476.658C476.624 128.049 476.455 127.685 476.15 127.401C475.85 127.114 475.477 126.97 475.033 126.97C474.436 126.97 473.973 127.186 473.643 127.617C473.317 128.045 473.154 128.665 473.154 129.477V129.699C473.154 130.491 473.317 131.1 473.643 131.527C473.969 131.955 474.434 132.168 475.039 132.168ZM482.279 127.186C482.101 127.156 481.909 127.141 481.701 127.141C480.931 127.141 480.408 127.469 480.133 128.125V133H478.959V126.132H480.102L480.121 126.925C480.506 126.312 481.052 126.005 481.758 126.005C481.987 126.005 482.16 126.035 482.279 126.094V127.186ZM482.796 129.502C482.796 128.83 482.927 128.224 483.19 127.687C483.456 127.15 483.825 126.735 484.294 126.443C484.768 126.151 485.308 126.005 485.913 126.005C486.848 126.005 487.604 126.329 488.179 126.976C488.759 127.624 489.049 128.485 489.049 129.56V129.642C489.049 130.311 488.92 130.912 488.661 131.445C488.408 131.974 488.042 132.386 487.563 132.683C487.089 132.979 486.543 133.127 485.926 133.127C484.995 133.127 484.239 132.803 483.66 132.156C483.084 131.508 482.796 130.651 482.796 129.585V129.502ZM483.977 129.642C483.977 130.404 484.153 131.015 484.504 131.477C484.859 131.938 485.333 132.168 485.926 132.168C486.522 132.168 486.996 131.936 487.348 131.47C487.699 131 487.874 130.345 487.874 129.502C487.874 128.749 487.695 128.14 487.335 127.674C486.979 127.205 486.505 126.97 485.913 126.97C485.333 126.97 484.866 127.2 484.51 127.662C484.155 128.123 483.977 128.783 483.977 129.642ZM494.39 131.178C494.39 130.861 494.27 130.615 494.029 130.442C493.792 130.264 493.375 130.112 492.778 129.985C492.186 129.858 491.714 129.706 491.363 129.528C491.016 129.35 490.757 129.139 490.588 128.893C490.423 128.648 490.341 128.356 490.341 128.017C490.341 127.454 490.578 126.978 491.052 126.589C491.53 126.2 492.139 126.005 492.88 126.005C493.658 126.005 494.289 126.206 494.771 126.608C495.258 127.01 495.501 127.524 495.501 128.15H494.321C494.321 127.829 494.183 127.552 493.908 127.319C493.637 127.086 493.294 126.97 492.88 126.97C492.452 126.97 492.118 127.063 491.877 127.249C491.635 127.435 491.515 127.679 491.515 127.979C491.515 128.263 491.627 128.476 491.851 128.62C492.076 128.764 492.48 128.902 493.064 129.033C493.652 129.164 494.128 129.32 494.492 129.502C494.856 129.684 495.125 129.904 495.298 130.163C495.476 130.417 495.565 130.728 495.565 131.096C495.565 131.709 495.319 132.202 494.828 132.575C494.337 132.943 493.701 133.127 492.918 133.127C492.368 133.127 491.881 133.03 491.458 132.835C491.035 132.64 490.702 132.369 490.461 132.022C490.224 131.671 490.106 131.292 490.106 130.886H491.28C491.301 131.28 491.458 131.593 491.75 131.826C492.046 132.054 492.435 132.168 492.918 132.168C493.362 132.168 493.718 132.08 493.984 131.902C494.255 131.72 494.39 131.479 494.39 131.178ZM496.653 129.502C496.653 128.83 496.785 128.224 497.047 127.687C497.314 127.15 497.682 126.735 498.151 126.443C498.625 126.151 499.165 126.005 499.77 126.005C500.705 126.005 501.461 126.329 502.036 126.976C502.616 127.624 502.906 128.485 502.906 129.56V129.642C502.906 130.311 502.777 130.912 502.519 131.445C502.265 131.974 501.899 132.386 501.421 132.683C500.947 132.979 500.401 133.127 499.783 133.127C498.852 133.127 498.096 132.803 497.517 132.156C496.941 131.508 496.653 130.651 496.653 129.585V129.502ZM497.834 129.642C497.834 130.404 498.01 131.015 498.361 131.477C498.716 131.938 499.19 132.168 499.783 132.168C500.38 132.168 500.853 131.936 501.205 131.47C501.556 131 501.732 130.345 501.732 129.502C501.732 128.749 501.552 128.14 501.192 127.674C500.837 127.205 500.363 126.97 499.77 126.97C499.19 126.97 498.723 127.2 498.367 127.662C498.012 128.123 497.834 128.783 497.834 129.642ZM504.826 133V127.04H503.741V126.132H504.826V125.427C504.826 124.691 505.023 124.122 505.417 123.72C505.81 123.318 506.367 123.117 507.086 123.117C507.357 123.117 507.625 123.153 507.892 123.225L507.829 124.177C507.63 124.139 507.418 124.12 507.194 124.12C506.813 124.12 506.519 124.232 506.312 124.456C506.104 124.676 506 124.993 506 125.408V126.132H507.467V127.04H506V133H504.826ZM510.231 124.469V126.132H511.514V127.04H510.231V131.299C510.231 131.574 510.288 131.781 510.403 131.921C510.517 132.056 510.712 132.124 510.987 132.124C511.122 132.124 511.308 132.099 511.545 132.048V133C511.236 133.085 510.936 133.127 510.644 133.127C510.119 133.127 509.724 132.968 509.457 132.651C509.19 132.333 509.057 131.883 509.057 131.299V127.04H507.807V126.132H509.057V124.469H510.231ZM518.763 128.88C517.718 128.58 516.956 128.212 516.478 127.776C516.004 127.336 515.767 126.794 515.767 126.151C515.767 125.423 516.057 124.822 516.636 124.348C517.22 123.87 517.978 123.631 518.909 123.631C519.544 123.631 520.109 123.754 520.604 123.999C521.103 124.244 521.488 124.583 521.759 125.015C522.034 125.446 522.172 125.918 522.172 126.43H520.946C520.946 125.872 520.769 125.434 520.413 125.116C520.058 124.795 519.556 124.634 518.909 124.634C518.308 124.634 517.838 124.767 517.5 125.034C517.165 125.296 516.998 125.662 516.998 126.132C516.998 126.508 517.157 126.828 517.474 127.09C517.796 127.348 518.34 127.585 519.106 127.801C519.876 128.017 520.477 128.256 520.908 128.519C521.344 128.777 521.666 129.079 521.873 129.426C522.085 129.773 522.191 130.182 522.191 130.651C522.191 131.4 521.899 132.001 521.315 132.454C520.731 132.903 519.95 133.127 518.972 133.127C518.338 133.127 517.745 133.006 517.195 132.765C516.645 132.52 516.22 132.185 515.919 131.762C515.623 131.339 515.475 130.859 515.475 130.321H516.7C516.7 130.88 516.905 131.322 517.316 131.648C517.73 131.97 518.283 132.13 518.972 132.13C519.616 132.13 520.109 131.999 520.451 131.737C520.794 131.474 520.965 131.117 520.965 130.664C520.965 130.211 520.807 129.862 520.489 129.617C520.172 129.367 519.596 129.122 518.763 128.88ZM529.246 129.642C529.246 130.687 529.007 131.529 528.529 132.168C528.051 132.807 527.403 133.127 526.586 133.127C525.753 133.127 525.097 132.862 524.619 132.333V135.641H523.444V126.132H524.517L524.574 126.894C525.052 126.301 525.717 126.005 526.567 126.005C527.393 126.005 528.044 126.316 528.522 126.938C529.005 127.56 529.246 128.425 529.246 129.534V129.642ZM528.072 129.509C528.072 128.734 527.907 128.123 527.577 127.674C527.247 127.226 526.794 127.001 526.218 127.001C525.507 127.001 524.974 127.317 524.619 127.947V131.229C524.97 131.855 525.507 132.168 526.231 132.168C526.794 132.168 527.24 131.946 527.57 131.502C527.905 131.053 528.072 130.389 528.072 129.509ZM530.303 129.502C530.303 128.83 530.434 128.224 530.697 127.687C530.963 127.15 531.331 126.735 531.801 126.443C532.275 126.151 532.815 126.005 533.42 126.005C534.355 126.005 535.11 126.329 535.686 126.976C536.266 127.624 536.556 128.485 536.556 129.56V129.642C536.556 130.311 536.427 130.912 536.168 131.445C535.914 131.974 535.548 132.386 535.07 132.683C534.596 132.979 534.05 133.127 533.433 133.127C532.502 133.127 531.746 132.803 531.166 132.156C530.591 131.508 530.303 130.651 530.303 129.585V129.502ZM531.484 129.642C531.484 130.404 531.659 131.015 532.011 131.477C532.366 131.938 532.84 132.168 533.433 132.168C534.029 132.168 534.503 131.936 534.854 131.47C535.206 131 535.381 130.345 535.381 129.502C535.381 128.749 535.201 128.14 534.842 127.674C534.486 127.205 534.012 126.97 533.42 126.97C532.84 126.97 532.372 127.2 532.017 127.662C531.662 128.123 531.484 128.783 531.484 129.642ZM541.218 127.186C541.04 127.156 540.848 127.141 540.64 127.141C539.87 127.141 539.348 127.469 539.073 128.125V133H537.898V126.132H539.041L539.06 126.925C539.445 126.312 539.991 126.005 540.698 126.005C540.926 126.005 541.1 126.035 541.218 126.094V127.186ZM544.084 124.469V126.132H545.366V127.04H544.084V131.299C544.084 131.574 544.141 131.781 544.256 131.921C544.37 132.056 544.564 132.124 544.84 132.124C544.975 132.124 545.161 132.099 545.398 132.048V133C545.089 133.085 544.789 133.127 544.497 133.127C543.972 133.127 543.576 132.968 543.31 132.651C543.043 132.333 542.91 131.883 542.91 131.299V127.04H541.659V126.132H542.91V124.469H544.084ZM440.604 149.382V153H439.385V143.758H442.794C443.805 143.758 444.597 144.016 445.168 144.532C445.744 145.049 446.031 145.732 446.031 146.583C446.031 147.48 445.75 148.172 445.187 148.658C444.629 149.141 443.827 149.382 442.781 149.382H440.604ZM440.604 148.385H442.794C443.446 148.385 443.945 148.233 444.292 147.928C444.639 147.619 444.813 147.175 444.813 146.595C444.813 146.045 444.639 145.605 444.292 145.275C443.945 144.945 443.469 144.773 442.864 144.761H440.604V148.385ZM450.034 153.127C449.103 153.127 448.345 152.822 447.761 152.213C447.177 151.599 446.885 150.78 446.885 149.756V149.541C446.885 148.859 447.014 148.252 447.272 147.719C447.535 147.181 447.899 146.762 448.364 146.462C448.834 146.157 449.342 146.005 449.888 146.005C450.781 146.005 451.475 146.299 451.97 146.887C452.465 147.475 452.712 148.318 452.712 149.414V149.902H448.06C448.077 150.579 448.273 151.127 448.65 151.546C449.031 151.961 449.513 152.168 450.097 152.168C450.512 152.168 450.863 152.084 451.151 151.915C451.439 151.745 451.69 151.521 451.906 151.242L452.624 151.8C452.048 152.685 451.185 153.127 450.034 153.127ZM449.888 146.97C449.414 146.97 449.016 147.143 448.694 147.49C448.373 147.833 448.174 148.315 448.098 148.938H451.538V148.849C451.504 148.252 451.343 147.791 451.056 147.465C450.768 147.135 450.379 146.97 449.888 146.97ZM457.267 147.186C457.089 147.156 456.897 147.141 456.689 147.141C455.919 147.141 455.397 147.469 455.121 148.125V153H453.947V146.132H455.09L455.109 146.925C455.494 146.312 456.04 146.005 456.746 146.005C456.975 146.005 457.149 146.035 457.267 146.094V147.186ZM458.902 153V147.04H457.816V146.132H458.902V145.427C458.902 144.691 459.098 144.122 459.492 143.72C459.886 143.318 460.442 143.117 461.161 143.117C461.432 143.117 461.701 143.153 461.968 143.225L461.904 144.177C461.705 144.139 461.494 144.12 461.269 144.12C460.888 144.12 460.594 144.232 460.387 144.456C460.18 144.676 460.076 144.993 460.076 145.408V146.132H461.542V147.04H460.076V153H458.902ZM462.403 149.502C462.403 148.83 462.534 148.224 462.796 147.687C463.063 147.15 463.431 146.735 463.901 146.443C464.375 146.151 464.914 146.005 465.519 146.005C466.454 146.005 467.21 146.329 467.785 146.976C468.365 147.624 468.655 148.485 468.655 149.56V149.642C468.655 150.311 468.526 150.912 468.268 151.445C468.014 151.974 467.648 152.386 467.17 152.683C466.696 152.979 466.15 153.127 465.532 153.127C464.601 153.127 463.846 152.803 463.266 152.156C462.69 151.508 462.403 150.651 462.403 149.585V149.502ZM463.583 149.642C463.583 150.404 463.759 151.015 464.11 151.477C464.465 151.938 464.939 152.168 465.532 152.168C466.129 152.168 466.603 151.936 466.954 151.47C467.305 151 467.481 150.345 467.481 149.502C467.481 148.749 467.301 148.14 466.941 147.674C466.586 147.205 466.112 146.97 465.519 146.97C464.939 146.97 464.472 147.2 464.116 147.662C463.761 148.123 463.583 148.783 463.583 149.642ZM473.317 147.186C473.14 147.156 472.947 147.141 472.74 147.141C471.97 147.141 471.447 147.469 471.172 148.125V153H469.998V146.132H471.14L471.159 146.925C471.544 146.312 472.09 146.005 472.797 146.005C473.025 146.005 473.199 146.035 473.317 146.094V147.186ZM475.377 146.132L475.409 146.894C475.913 146.301 476.592 146.005 477.447 146.005C478.407 146.005 479.061 146.373 479.408 147.109C479.637 146.779 479.933 146.513 480.297 146.31C480.665 146.106 481.099 146.005 481.598 146.005C483.105 146.005 483.871 146.803 483.896 148.398V153H482.722V148.468C482.722 147.977 482.609 147.611 482.385 147.37C482.161 147.124 481.784 147.001 481.255 147.001C480.819 147.001 480.458 147.133 480.17 147.395C479.882 147.653 479.715 148.002 479.668 148.442V153H478.488V148.5C478.488 147.501 477.999 147.001 477.021 147.001C476.251 147.001 475.724 147.329 475.441 147.985V153H474.267V146.132H475.377ZM489.783 153C489.716 152.865 489.661 152.623 489.618 152.276C489.073 152.843 488.421 153.127 487.663 153.127C486.986 153.127 486.43 152.937 485.994 152.556C485.562 152.171 485.346 151.684 485.346 151.096C485.346 150.381 485.617 149.826 486.159 149.433C486.705 149.035 487.471 148.836 488.457 148.836H489.599V148.296C489.599 147.886 489.477 147.56 489.231 147.319C488.986 147.073 488.624 146.951 488.146 146.951C487.727 146.951 487.376 147.056 487.092 147.268C486.809 147.48 486.667 147.736 486.667 148.036H485.486C485.486 147.693 485.607 147.363 485.848 147.046C486.093 146.724 486.423 146.47 486.838 146.284C487.257 146.098 487.716 146.005 488.216 146.005C489.007 146.005 489.627 146.204 490.075 146.602C490.524 146.995 490.757 147.539 490.774 148.233V151.394C490.774 152.025 490.854 152.526 491.015 152.898V153H489.783ZM487.835 152.105C488.203 152.105 488.552 152.01 488.882 151.819C489.212 151.629 489.451 151.381 489.599 151.077V149.667H488.679C487.24 149.667 486.521 150.089 486.521 150.931C486.521 151.299 486.644 151.587 486.889 151.794C487.134 152.001 487.45 152.105 487.835 152.105ZM493.595 146.132L493.633 146.995C494.158 146.335 494.844 146.005 495.69 146.005C497.142 146.005 497.874 146.824 497.886 148.461V153H496.712V148.455C496.708 147.96 496.594 147.594 496.369 147.357C496.149 147.12 495.804 147.001 495.335 147.001C494.954 147.001 494.619 147.103 494.332 147.306C494.044 147.509 493.82 147.776 493.659 148.106V153H492.485V146.132H493.595ZM502.282 152.168C502.701 152.168 503.067 152.042 503.38 151.788C503.694 151.534 503.867 151.216 503.901 150.835H505.012C504.991 151.229 504.855 151.604 504.606 151.959C504.356 152.314 504.022 152.598 503.603 152.81C503.188 153.021 502.748 153.127 502.282 153.127C501.347 153.127 500.602 152.816 500.048 152.194C499.498 151.568 499.223 150.713 499.223 149.629V149.433C499.223 148.764 499.345 148.169 499.591 147.649C499.836 147.128 500.188 146.724 500.645 146.437C501.106 146.149 501.65 146.005 502.276 146.005C503.046 146.005 503.685 146.236 504.193 146.697C504.705 147.158 504.978 147.757 505.012 148.493H503.901C503.867 148.049 503.698 147.685 503.393 147.401C503.093 147.114 502.72 146.97 502.276 146.97C501.679 146.97 501.216 147.186 500.886 147.617C500.56 148.045 500.397 148.665 500.397 149.477V149.699C500.397 150.491 500.56 151.1 500.886 151.527C501.212 151.955 501.677 152.168 502.282 152.168ZM509.052 153.127C508.121 153.127 507.364 152.822 506.78 152.213C506.196 151.599 505.904 150.78 505.904 149.756V149.541C505.904 148.859 506.033 148.252 506.291 147.719C506.553 147.181 506.917 146.762 507.383 146.462C507.852 146.157 508.36 146.005 508.906 146.005C509.799 146.005 510.493 146.299 510.988 146.887C511.483 147.475 511.731 148.318 511.731 149.414V149.902H507.078C507.095 150.579 507.292 151.127 507.668 151.546C508.049 151.961 508.532 152.168 509.116 152.168C509.53 152.168 509.882 152.084 510.169 151.915C510.457 151.745 510.709 151.521 510.925 151.242L511.642 151.8C511.067 152.685 510.203 153.127 509.052 153.127ZM508.906 146.97C508.432 146.97 508.034 147.143 507.713 147.49C507.391 147.833 507.192 148.315 507.116 148.938H510.557V148.849C510.523 148.252 510.362 147.791 510.074 147.465C509.786 147.135 509.397 146.97 508.906 146.97ZM517.463 149.382V153H516.244V143.758H519.653C520.664 143.758 521.456 144.016 522.027 144.532C522.603 145.049 522.89 145.732 522.89 146.583C522.89 147.48 522.609 148.172 522.046 148.658C521.488 149.141 520.686 149.382 519.64 149.382H517.463ZM517.463 148.385H519.653C520.305 148.385 520.804 148.233 521.151 147.928C521.498 147.619 521.672 147.175 521.672 146.595C521.672 146.045 521.498 145.605 521.151 145.275C520.804 144.945 520.328 144.773 519.723 144.761H517.463V148.385ZM525.407 153H524.233V143.25H525.407V153ZM531.403 153C531.335 152.865 531.28 152.623 531.238 152.276C530.692 152.843 530.04 153.127 529.283 153.127C528.606 153.127 528.049 152.937 527.613 152.556C527.182 152.171 526.966 151.684 526.966 151.096C526.966 150.381 527.237 149.826 527.778 149.433C528.324 149.035 529.09 148.836 530.076 148.836H531.219V148.296C531.219 147.886 531.096 147.56 530.851 147.319C530.605 147.073 530.243 146.951 529.765 146.951C529.346 146.951 528.995 147.056 528.711 147.268C528.428 147.48 528.286 147.736 528.286 148.036H527.105C527.105 147.693 527.226 147.363 527.467 147.046C527.713 146.724 528.043 146.47 528.457 146.284C528.876 146.098 529.336 146.005 529.835 146.005C530.626 146.005 531.246 146.204 531.695 146.602C532.143 146.995 532.376 147.539 532.393 148.233V151.394C532.393 152.025 532.473 152.526 532.634 152.898V153H531.403ZM529.454 152.105C529.822 152.105 530.171 152.01 530.501 151.819C530.832 151.629 531.071 151.381 531.219 151.077V149.667H530.298C528.859 149.667 528.14 150.089 528.14 150.931C528.14 151.299 528.263 151.587 528.508 151.794C528.754 152.001 529.069 152.105 529.454 152.105ZM535.697 144.469V146.132H536.979V147.04H535.697V151.299C535.697 151.574 535.754 151.781 535.868 151.921C535.983 152.056 536.177 152.124 536.452 152.124C536.588 152.124 536.774 152.099 537.011 152.048V153C536.702 153.085 536.402 153.127 536.11 153.127C535.585 153.127 535.189 152.968 534.923 152.651C534.656 152.333 534.523 151.883 534.523 151.299V147.04H533.272V146.132H534.523V144.469H535.697ZM538.804 153V147.04H537.719V146.132H538.804V145.427C538.804 144.691 539.001 144.122 539.395 143.72C539.788 143.318 540.345 143.117 541.064 143.117C541.335 143.117 541.604 143.153 541.87 143.225L541.807 144.177C541.608 144.139 541.396 144.12 541.172 144.12C540.791 144.12 540.497 144.232 540.29 144.456C540.082 144.676 539.979 144.993 539.979 145.408V146.132H541.445V147.04H539.979V153H538.804ZM542.305 149.502C542.305 148.83 542.436 148.224 542.699 147.687C542.965 147.15 543.334 146.735 543.803 146.443C544.277 146.151 544.817 146.005 545.422 146.005C546.357 146.005 547.113 146.329 547.688 146.976C548.268 147.624 548.558 148.485 548.558 149.56V149.642C548.558 150.311 548.429 150.912 548.171 151.445C547.917 151.974 547.551 152.386 547.072 152.683C546.598 152.979 546.053 153.127 545.435 153.127C544.504 153.127 543.748 152.803 543.169 152.156C542.593 151.508 542.305 150.651 542.305 149.585V149.502ZM543.486 149.642C543.486 150.404 543.662 151.015 544.013 151.477C544.368 151.938 544.842 152.168 545.435 152.168C546.031 152.168 546.505 151.936 546.857 151.47C547.208 151 547.383 150.345 547.383 149.502C547.383 148.749 547.204 148.14 546.844 147.674C546.488 147.205 546.014 146.97 545.422 146.97C544.842 146.97 544.375 147.2 544.019 147.662C543.664 148.123 543.486 148.783 543.486 149.642ZM553.22 147.186C553.042 147.156 552.85 147.141 552.643 147.141C551.872 147.141 551.35 147.469 551.075 148.125V153H549.9V146.132H551.043L551.062 146.925C551.447 146.312 551.993 146.005 552.7 146.005C552.928 146.005 553.102 146.035 553.22 146.094V147.186ZM555.28 146.132L555.312 146.894C555.815 146.301 556.495 146.005 557.349 146.005C558.31 146.005 558.964 146.373 559.311 147.109C559.539 146.779 559.836 146.513 560.2 146.31C560.568 146.106 561.001 146.005 561.501 146.005C563.007 146.005 563.773 146.803 563.799 148.398V153H562.624V148.468C562.624 147.977 562.512 147.611 562.288 147.37C562.064 147.124 561.687 147.001 561.158 147.001C560.722 147.001 560.36 147.133 560.073 147.395C559.785 147.653 559.618 148.002 559.571 148.442V153H558.39V148.5C558.39 147.501 557.902 147.001 556.924 147.001C556.154 147.001 555.627 147.329 555.344 147.985V153H554.169V146.132H555.28Z" fill="#939393"/>
<path d="M500.982 1.03664L500.982 1.03661C501.144 0.9878 501.312 0.987795 501.474 1.0366C501.474 1.03661 501.474 1.03661 501.474 1.03661L538.81 12.2803C538.811 12.2808 538.812 12.2812 538.814 12.2816C539.182 12.3985 539.439 12.7486 539.439 13.1358V54.3796C539.439 62.176 533.479 69.7449 525.546 75.9929C517.664 82.2007 508.108 86.8846 501.481 88.9577L501.459 88.9647L501.437 88.9728C501.392 88.9892 501.343 89 501.219 89C501.145 89 501.053 88.986 500.952 88.9559C494.325 86.8819 484.772 82.1989 476.893 75.9929C468.959 69.7449 463 62.176 463 54.3796V13.1358C463 12.7486 463.257 12.3984 463.625 12.2816C463.626 12.2812 463.627 12.2807 463.629 12.2803L500.982 1.03664Z" stroke="#383838" stroke-width="2"/>
<rect x="497" y="38" width="12" height="12" fill="#383838"/>
<rect x="512" y="38" width="12" height="12" fill="#383838"/>
<rect x="497" y="53" width="12" height="12" fill="#383838"/>
<rect x="512" y="53" width="12" height="12" fill="#383838"/>
<path d="M509 34.5C509 25.9396 502.06 19 493.5 19C484.94 19 478 25.9396 478 34.5C478 43.0604 484.94 50 493.5 50" stroke="#383838" stroke-width="3"/>
<path d="M503 34.5C503 29.7637 499.534 25.837 495 25.1178M493.5 44C488.764 44 484.837 40.534 484.118 36" stroke="#383838" stroke-width="2" stroke-dasharray="1 1"/>
<path d="M494 35V24C487.925 24 483 28.925 483 35H494Z" fill="#383838"/>
</svg>
