<svg width="508" height="63" viewBox="0 0 508 63" fill="none" xmlns="http://www.w3.org/2000/svg">
<path d="M253.239 62H254.759L251.639 58.13L254.579 55H253.119L249.659 58.59V55H248.359V62H249.659V60.21L250.769 59.07L253.239 62ZM255.444 62H256.744V55H255.444V62ZM263.397 58.36C263.937 58.07 264.297 57.54 264.297 56.82C264.297 55.71 263.397 55 261.717 55H258.437V62H261.917C263.717 62 264.657 61.3 264.657 60.1C264.657 59.19 264.147 58.6 263.397 58.36ZM261.577 56.02C262.477 56.02 262.987 56.34 262.987 56.99C262.987 57.63 262.477 57.95 261.577 57.95H259.737V56.02H261.577ZM261.837 60.98H259.737V58.96H261.837C262.817 58.96 263.347 59.27 263.347 59.97C263.347 60.67 262.817 60.98 261.837 60.98ZM271.085 62H272.445L269.285 55H268.005L264.855 62H266.195L266.885 60.38H270.385L271.085 62ZM267.325 59.36L268.635 56.3L269.955 59.36H267.325ZM278.065 55V59.74L274.205 55H273.135V62H274.425V57.26L278.285 62H279.355V55H278.065ZM286.271 62H287.631L284.471 55H283.191L280.041 62H281.381L282.071 60.38H285.571L286.271 62ZM282.511 59.36L283.821 56.3L285.141 59.36H282.511Z" fill="#6D6B6C"/>
<path d="M250.655 19.8545C256.627 19.8545 262.273 21.4091 267.182 24.0273L284.691 3H250V44.7272V19.8545H250.655Z" fill="#E9478B"/>
<path d="M267.182 24.0273L250 44.7273V48.0001H284.609C282.645 37.691 276.1 28.9364 267.182 24.0273Z" fill="#3EBEB0"/>
<path d="M267.182 24.0273L250 44.7273V48.0001H256.136L272.827 27.8728C272.827 27.8728 271.682 26.9728 270.127 25.8273C268.982 25.0092 267.182 24.0273 267.182 24.0273Z" fill="#37A595"/>
<path d="M250.655 19.8545H250V44.7272L267.182 24.0272C262.273 21.409 256.627 19.8545 250.655 19.8545Z" fill="#353535"/>
<path fill-rule="evenodd" clip-rule="evenodd" d="M356.205 32.1196C356.239 31.7339 356.515 31.419 356.892 31.419H360.329C360.707 31.419 361.017 31.7339 361.017 32.1196C361.017 36.8082 357.579 40.1325 352.837 40.1325C348.094 40.1325 345.138 36.5996 344.657 32.3996C344.314 29.4597 344.314 25.5402 344.657 22.601C345.138 18.4019 348.094 14.8672 352.837 14.8672C357.579 14.8672 361.017 18.1906 361.017 22.881C361.017 23.2648 360.707 23.5812 360.329 23.5812H356.892C356.515 23.5812 356.239 23.2648 356.205 22.881C356.067 21.0609 354.796 19.8022 352.837 19.8022C350.74 19.8022 349.675 21.0609 349.502 22.601C349.16 25.5402 349.16 29.4597 349.502 32.3996C349.675 33.9391 350.74 35.1998 352.837 35.1998C354.796 35.1998 356.067 33.9391 356.205 32.1196ZM372.489 24.7004C372.489 24.9102 372.627 25.0509 372.833 25.0509H378.057C378.263 25.0509 378.401 24.9102 378.401 24.7004V15.9518C378.401 15.5665 378.71 15.2516 379.088 15.2516H382.525C382.903 15.2516 383.212 15.5665 383.212 15.9518V39.0487C383.212 39.433 382.903 39.7481 382.525 39.7481H379.088C378.71 39.7481 378.401 39.433 378.401 39.0487V30.2992C378.401 30.0903 378.263 29.951 378.057 29.951H372.833C372.627 29.951 372.489 30.0903 372.489 30.2992V39.0487C372.489 39.433 372.009 39.7481 371.631 39.7481H368.365C367.987 39.7481 367.678 39.433 367.678 39.0487V15.9518C367.678 15.5665 367.987 15.2516 368.365 15.2516H371.802C372.18 15.2516 372.489 15.5665 372.489 15.9518V24.7004ZM394.032 39.2236C393.963 39.5392 393.688 39.7481 393.379 39.7481H389.77C389.221 39.7481 389.014 39.3643 389.082 39.0487L395.235 15.777C395.304 15.4627 395.579 15.2516 395.888 15.2516H400.494C400.803 15.2516 401.077 15.4627 401.147 15.777L407.264 39.0487C407.334 39.3643 407.127 39.7481 406.577 39.7481H402.968C402.659 39.7481 402.419 39.5392 402.315 39.2236L401.25 35.6185C401.181 35.339 401.043 35.0952 400.734 35.0952H395.51C395.201 35.0952 395.063 35.3038 394.994 35.6185L394.032 39.2236ZM396.3 29.8104C396.232 30.0903 396.37 30.1944 396.576 30.1944H399.738C399.944 30.1944 400.081 30.0903 400.012 29.8104L398.362 21.4109C398.328 21.3069 398.294 21.2707 398.191 21.2707H398.122C398.019 21.2707 397.985 21.3069 397.95 21.4109L396.3 29.8104ZM418.634 29.951C418.428 29.951 418.29 30.0903 418.29 30.2992V39.0487C418.29 39.433 417.981 39.7481 417.603 39.7481H414.166C413.788 39.7481 413.478 39.433 413.478 39.0487V15.9518C413.478 15.5665 413.788 15.2516 414.166 15.2516H421.727C425.68 15.2516 428.945 18.5763 428.945 22.601C428.945 25.2958 427.812 27.1154 425.37 28.7947C424.89 29.144 424.923 29.4244 425.164 29.951L428.842 38.6988C429.083 39.2236 428.875 39.7481 428.188 39.7481H424.65C424.1 39.7481 423.823 39.4696 423.653 39.0487L420.147 30.4052C420.078 30.2295 419.905 29.951 419.528 29.951H418.634ZM418.634 20.1509C418.428 20.1509 418.29 20.2905 418.29 20.5V24.7004C418.29 24.9102 418.428 25.0509 418.634 25.0509H421.727C423.033 25.0509 424.133 23.9654 424.133 22.601C424.133 21.2707 423.033 20.1509 421.727 20.1509H418.634ZM435.249 20.1509C434.871 20.1509 434.561 19.8363 434.561 19.4508V15.9518C434.561 15.5665 434.871 15.2516 435.249 15.2516H450.028C450.406 15.2516 450.715 15.5665 450.715 15.9518V19.4508C450.715 19.8363 450.406 20.1509 450.028 20.1509H445.389C445.182 20.1509 445.044 20.2905 445.044 20.5V39.0487C445.044 39.433 444.734 39.7481 444.357 39.7481H440.92C440.541 39.7481 440.233 39.433 440.233 39.0487V20.5C440.233 20.2905 440.094 20.1509 439.89 20.1509H435.249ZM462.001 20.3256C462.001 20.1162 461.866 19.9769 461.66 19.9769H458.223C457.844 19.9769 457.535 19.6612 457.535 19.2765V15.9518C457.535 15.5665 457.844 15.2516 458.223 15.2516H470.594C470.974 15.2516 471.283 15.5665 471.283 15.9518V19.2765C471.283 19.6612 470.974 19.9769 470.594 19.9769H467.159C466.953 19.9769 466.814 20.1162 466.814 20.3256V34.673C466.814 34.8841 466.953 35.0239 467.159 35.0239H470.939C471.317 35.0239 471.626 35.339 471.626 35.7249V39.0487C471.626 39.433 471.317 39.7481 470.939 39.7481H457.878C457.499 39.7481 457.192 39.433 457.192 39.0487V35.7249C457.192 35.339 457.499 35.0239 457.878 35.0239H461.66C461.866 35.0239 462.001 34.8841 462.001 34.673V20.3256ZM494.324 22.601C494.669 25.5402 494.669 29.4597 494.324 32.3996C493.844 36.5996 490.889 40.1325 486.144 40.1325C481.402 40.1325 478.446 36.5996 477.966 32.3996C477.619 29.4597 477.619 25.5402 477.966 22.601C478.446 18.4019 481.402 14.8672 486.144 14.8672C490.889 14.8672 493.844 18.4019 494.324 22.601ZM482.81 22.601C482.468 25.5402 482.468 29.4597 482.81 32.3996C482.982 33.9391 484.048 35.1998 486.144 35.1998C488.241 35.1998 489.306 33.9391 489.478 32.3996C489.822 29.4597 489.822 25.5402 489.478 22.601C489.306 21.0609 488.241 19.8022 486.144 19.8022C484.048 19.8022 482.982 21.0609 482.81 22.601Z" fill="#222222"/>
<path d="M77.7266 26.2567C77.4166 34.1051 71.2356 40.2163 63.5396 40.2163C55.4226 40.2163 49.3906 33.6454 49.3906 25.7147C49.3906 17.7115 55.9256 11.1357 63.8876 11.1357C67.4816 11.1357 70.9986 12.6841 73.9776 15.4663L71.6606 18.326C69.3826 16.3518 66.6356 15.0018 63.8926 15.0018C58.0546 15.0018 53.2656 19.797 53.2656 25.7099C53.2656 31.7051 57.7886 36.3454 63.5496 36.3454C68.7296 36.3454 72.7876 32.5567 73.6006 27.6841H61.8516V24.2438H77.7366V26.2567H77.7266Z" fill="#353535"/>
<path d="M91.2126 24.3646H89.0456C86.6556 24.3646 84.7166 26.3049 84.7166 28.6953V39.984H80.8516V20.6533H84.0196V22.2791C85.0646 21.234 86.7236 20.6533 88.5806 20.6533H92.7556L91.2126 24.3646Z" fill="#353535"/>
<path d="M112.278 39.9841H108.994V37.5502C106.454 40.0325 102.444 41.2227 98.3862 39.4422C95.3772 38.1212 93.1382 35.3777 92.5432 32.1406C91.3922 25.8889 96.2002 20.3438 102.343 20.3438C104.931 20.3438 107.253 21.3889 108.95 23.0873V20.6535H112.273V39.9841H112.278ZM108.322 31.7099C109.236 27.7809 106.261 24.2099 102.382 24.2099C99.0202 24.2099 96.3112 26.9535 96.3112 30.2825C96.3112 34.0422 99.6152 36.9551 103.46 36.297C105.83 35.8906 107.78 34.0518 108.322 31.7099Z" fill="#353535"/>
<path d="M120.066 19.5693V20.6531H126.214V24.0547H120.066V39.9838H116.24V19.6854C116.24 15.4322 119.292 12.9209 123.118 12.9209H127.757L126.209 16.5547H123.118C121.42 16.5547 120.066 17.9047 120.066 19.5693Z" fill="#353535"/>
<path d="M146.699 39.9841H143.415V37.5502C140.875 40.0325 136.865 41.2227 132.807 39.4422C129.798 38.1212 127.559 35.3777 126.964 32.1406C125.813 25.8889 130.621 20.3438 136.764 20.3438C139.352 20.3438 141.674 21.3889 143.371 23.0873V20.6535H146.694V39.9841H146.699ZM142.747 31.7099C143.662 27.7809 140.687 24.2099 136.807 24.2099C133.446 24.2099 130.737 26.9535 130.737 30.2825C130.737 34.0422 134.041 36.9551 137.886 36.297C140.256 35.8906 142.201 34.0518 142.747 31.7099Z" fill="#353535"/>
<path d="M167.344 28.5405V39.9841H163.479V28.5405C163.479 26.1454 161.506 24.2099 159.15 24.2099C156.717 24.2099 154.782 26.1454 154.782 28.5405V39.9841H150.917V20.6534H154.124V22.3179C155.517 21.0792 157.37 20.3486 159.305 20.3486C163.789 20.3438 167.344 24.0163 167.344 28.5405Z" fill="#353535"/>
<path d="M190.074 39.9841H186.789V37.5502C184.25 40.0325 180.24 41.2227 176.181 39.4422C173.173 38.1212 170.933 35.3777 170.338 32.1406C169.187 25.8889 173.995 20.3438 180.138 20.3438C182.726 20.3438 185.048 21.3889 186.746 23.0873V20.6535H190.069V39.9841H190.074ZM186.122 31.7099C187.036 27.7809 184.061 24.2099 180.182 24.2099C176.82 24.2099 174.111 26.9535 174.111 30.2825C174.111 34.0422 177.415 36.9551 181.26 36.297C183.631 35.8906 185.575 34.0518 186.122 31.7099Z" fill="#353535"/>
<path d="M41.323 21.8387C41.256 21.0839 41.125 20.2129 40.873 19.25C40.622 18.2919 40.249 17.2419 39.713 16.1484C39.166 15.0645 38.455 13.9323 37.536 12.8387C37.178 12.4081 36.786 11.9871 36.36 11.571C36.994 9.05484 35.591 6.87742 35.591 6.87742C33.173 6.72742 31.635 7.62742 31.064 8.04355C30.967 8.00484 30.875 7.96129 30.778 7.92258C30.367 7.75323 29.942 7.59839 29.506 7.4629C29.071 7.32742 28.626 7.20161 28.171 7.09032C27.717 6.98387 27.252 6.89194 26.783 6.81935C26.701 6.80484 26.619 6.79516 26.536 6.78548C25.482 3.40806 22.449 2 22.449 2C19.073 4.14355 18.429 7.14355 18.429 7.14355C18.429 7.14355 18.415 7.21129 18.395 7.32258C18.207 7.37581 18.023 7.42903 17.834 7.4871C17.573 7.56452 17.322 7.66129 17.06 7.75323C16.804 7.85484 16.548 7.95161 16.291 8.0629C15.783 8.28064 15.276 8.52742 14.782 8.80323C14.303 9.07419 13.834 9.36935 13.375 9.68871C13.307 9.65968 13.258 9.63548 13.258 9.63548C8.581 7.85 4.426 9.99839 4.426 9.99839C4.049 14.9774 6.293 18.1129 6.738 18.679C6.627 18.9887 6.525 19.2984 6.428 19.6129C6.08 20.7403 5.824 21.8968 5.664 23.0968C5.64 23.2661 5.621 23.4403 5.601 23.6145C1.282 25.7484 0 30.1274 0 30.1274C3.608 34.279 7.812 34.5355 7.812 34.5355C7.817 34.5306 7.822 34.5306 7.822 34.5258C8.358 35.479 8.978 36.3887 9.669 37.2355C9.96 37.5887 10.269 37.9323 10.584 38.2613C9.268 42.021 10.767 45.1565 10.767 45.1565C14.782 45.3064 17.423 43.4 17.975 42.9597C18.376 43.0952 18.778 43.2161 19.189 43.3226C20.422 43.6419 21.685 43.8258 22.947 43.8839C23.262 43.8984 23.576 43.9032 23.895 43.9032H24.05L24.152 43.8984L24.35 43.8935L24.548 43.8839L24.553 43.8887C26.444 46.5887 29.772 46.971 29.772 46.971C32.138 44.4742 32.273 42.0016 32.273 41.4645C32.273 41.4645 32.273 41.4452 32.273 41.4306C32.273 41.3871 32.273 41.3532 32.273 41.3532C32.273 41.3145 32.268 41.2806 32.268 41.2371C32.766 40.8887 33.24 40.5161 33.686 40.1145C34.634 39.2581 35.461 38.2806 36.148 37.2306C36.21 37.1339 36.273 37.0323 36.336 36.9306C39.016 37.0855 40.902 35.271 40.902 35.271C40.457 32.479 38.866 31.1194 38.537 30.8581C38.537 30.8581 38.523 30.8484 38.503 30.8339C38.484 30.8194 38.474 30.8097 38.474 30.8097C38.455 30.8 38.436 30.7855 38.416 30.771C38.431 30.6016 38.445 30.4371 38.455 30.2677C38.474 29.9677 38.484 29.6677 38.484 29.3677V29.1452V29.0339V28.9758C38.484 28.8984 38.484 28.9274 38.484 28.8984L38.474 28.7097L38.46 28.4581C38.455 28.371 38.45 28.2935 38.44 28.2161C38.436 28.1387 38.426 28.0613 38.416 27.9839L38.387 27.7516L38.353 27.5194C38.31 27.2145 38.247 26.9097 38.179 26.6048C37.899 25.4 37.429 24.2581 36.81 23.2323C36.191 22.2065 35.417 21.2968 34.551 20.5323C33.681 19.7629 32.708 19.1484 31.688 18.6887C30.667 18.229 29.593 17.9339 28.524 17.7984C27.992 17.7306 27.455 17.7016 26.928 17.7065L26.73 17.7113H26.681C26.667 17.7113 26.609 17.7113 26.614 17.7113L26.531 17.7161L26.338 17.7306C26.265 17.7355 26.188 17.7403 26.12 17.75C25.849 17.7742 25.579 17.8129 25.317 17.8661C24.258 18.0645 23.257 18.4468 22.372 18.9742C21.491 19.5016 20.722 20.1645 20.098 20.9097C19.474 21.6597 18.99 22.4871 18.657 23.3435C18.323 24.2 18.139 25.0855 18.086 25.9468C18.071 26.1597 18.067 26.3774 18.071 26.5855C18.071 26.6387 18.071 26.6919 18.076 26.7452L18.081 26.9194C18.091 27.021 18.096 27.1274 18.105 27.229C18.149 27.6645 18.226 28.0806 18.342 28.4871C18.574 29.2903 18.947 30.021 19.411 30.6403C19.871 31.2597 20.422 31.7726 21.007 32.1742C21.593 32.5758 22.217 32.8613 22.836 33.0403C23.455 33.2242 24.069 33.3016 24.65 33.3016C24.722 33.3016 24.795 33.3016 24.867 33.2968C24.906 33.2968 24.945 33.2919 24.984 33.2919C25.022 33.2919 25.061 33.2871 25.1 33.2871C25.163 33.2823 25.221 33.2726 25.283 33.2677C25.298 33.2677 25.317 33.2629 25.337 33.2629L25.395 33.2532C25.433 33.2484 25.467 33.2435 25.506 33.2387C25.583 33.229 25.646 33.2145 25.719 33.2C25.787 33.1855 25.854 33.1758 25.922 33.1565C26.057 33.1274 26.183 33.0887 26.309 33.0452C26.56 32.9629 26.797 32.8613 27.02 32.75C27.243 32.6339 27.446 32.5081 27.634 32.3774C27.688 32.3387 27.741 32.3 27.794 32.2565C27.997 32.0968 28.031 31.8016 27.866 31.6032C27.726 31.429 27.48 31.3855 27.286 31.4919C27.238 31.5161 27.189 31.5452 27.141 31.5694C26.972 31.6516 26.797 31.7242 26.609 31.7871C26.42 31.8452 26.227 31.8935 26.024 31.9323C25.922 31.9468 25.82 31.9613 25.714 31.971C25.661 31.9758 25.608 31.9806 25.559 31.9806C25.506 31.9806 25.453 31.9855 25.404 31.9855C25.356 31.9855 25.303 31.9855 25.254 31.9806C25.192 31.9758 25.129 31.9758 25.066 31.971C25.066 31.971 25.032 31.971 25.061 31.971H25.042L24.998 31.9661C24.969 31.9613 24.94 31.9613 24.916 31.9565C24.858 31.9516 24.805 31.9419 24.747 31.9371C24.292 31.8742 23.832 31.7435 23.392 31.5403C22.947 31.3419 22.522 31.0613 22.139 30.7177C21.757 30.3742 21.423 29.9581 21.162 29.4887C20.901 29.0194 20.717 28.5016 20.63 27.9548C20.587 27.6839 20.567 27.3984 20.577 27.1226C20.582 27.0452 20.582 26.9726 20.587 26.8952C20.587 26.9145 20.587 26.8855 20.587 26.8806V26.8516L20.592 26.7935C20.596 26.7548 20.596 26.721 20.601 26.6823C20.616 26.5323 20.64 26.3823 20.664 26.2323C20.872 25.0419 21.467 23.8806 22.391 23C22.623 22.7823 22.87 22.5742 23.136 22.3952C23.402 22.2113 23.682 22.0516 23.973 21.9161C24.268 21.7806 24.572 21.6694 24.887 21.5871C25.201 21.5048 25.525 21.4468 25.849 21.4177C26.014 21.4032 26.178 21.3984 26.343 21.3984C26.386 21.3984 26.42 21.3984 26.454 21.3984L26.589 21.4032L26.672 21.4081C26.706 21.4081 26.672 21.4081 26.686 21.4081H26.72L26.856 21.4177C27.209 21.4468 27.562 21.4952 27.91 21.5774C28.607 21.7323 29.284 21.9887 29.917 22.3371C31.18 23.0387 32.259 24.1323 32.916 25.4532C33.25 26.1113 33.482 26.8177 33.598 27.5484C33.627 27.7323 33.647 27.9161 33.661 28.1L33.671 28.2403L33.676 28.3806C33.681 28.429 33.681 28.4726 33.681 28.521C33.681 28.5694 33.686 28.6177 33.681 28.6516V28.7726L33.676 28.9081C33.671 29 33.666 29.1452 33.661 29.2371C33.647 29.4403 33.627 29.6387 33.603 29.8419C33.579 30.0403 33.545 30.2387 33.511 30.4371C33.473 30.6355 33.429 30.829 33.381 31.0226C33.284 31.4097 33.158 31.7968 33.008 32.1694C32.713 32.9194 32.317 33.6306 31.843 34.2887C30.89 35.6 29.588 36.6694 28.108 37.3468C27.368 37.6806 26.585 37.9274 25.787 38.0581C25.385 38.1258 24.979 38.1645 24.572 38.179L24.495 38.1839H24.432H24.302H24.103H24.002C24.055 38.1839 23.992 38.1839 23.997 38.1839H23.958C23.74 38.179 23.523 38.1694 23.305 38.15C22.434 38.0871 21.578 37.9323 20.746 37.6903C19.914 37.4484 19.107 37.1242 18.342 36.7177C16.814 35.9 15.45 34.7823 14.381 33.4323C13.844 32.7597 13.375 32.0387 12.988 31.279C12.601 30.5194 12.296 29.721 12.069 28.9081C11.846 28.0903 11.706 27.2581 11.653 26.4161L11.643 26.2565L11.638 26.2177V26.1839V26.1161L11.633 25.9758V25.9419V25.8935V25.7968L11.628 25.6032V25.5645C11.628 25.5694 11.628 25.5694 11.628 25.55V25.4726C11.628 25.371 11.633 25.2694 11.633 25.1629C11.648 24.7468 11.682 24.321 11.74 23.8952C11.793 23.4694 11.865 23.0387 11.952 22.6129C12.04 22.1871 12.146 21.7661 12.262 21.3548C12.499 20.5274 12.794 19.7242 13.147 18.9645C13.849 17.4452 14.768 16.1048 15.875 15.0306C16.151 14.7597 16.436 14.5032 16.736 14.2661C17.031 14.029 17.341 13.8065 17.66 13.5984C17.975 13.3903 18.304 13.1968 18.642 13.0226C18.807 12.9306 18.981 12.8532 19.15 12.771C19.237 12.7323 19.324 12.6935 19.411 12.6548C19.498 12.6161 19.585 12.5774 19.672 12.5435C20.021 12.3935 20.384 12.2726 20.746 12.1565C20.838 12.1274 20.93 12.1032 21.022 12.0742C21.114 12.0452 21.206 12.0258 21.298 11.9968C21.482 11.9436 21.67 11.9 21.854 11.8565C21.946 11.8323 22.043 11.8129 22.135 11.7935C22.226 11.7742 22.323 11.7548 22.415 11.7355C22.512 11.7161 22.604 11.7016 22.7 11.6823L22.841 11.6581L22.981 11.6387C23.078 11.6242 23.17 11.6097 23.266 11.5952C23.373 11.5758 23.479 11.571 23.586 11.5516C23.673 11.5419 23.818 11.5226 23.905 11.5129C23.973 11.5081 24.04 11.4984 24.108 11.4936L24.244 11.479L24.311 11.4742L24.389 11.4693C24.495 11.4645 24.601 11.4548 24.713 11.45L24.872 11.4403C24.872 11.4403 24.93 11.4403 24.882 11.4403H24.916L24.984 11.4355C25.075 11.4306 25.167 11.4258 25.259 11.421C25.622 11.4113 25.985 11.4113 26.348 11.421C27.068 11.45 27.775 11.5274 28.461 11.6581C29.835 11.9145 31.127 12.3548 32.297 12.9355C33.468 13.5065 34.517 14.2129 35.427 14.9774C35.485 15.0258 35.538 15.0742 35.596 15.1226C35.649 15.171 35.707 15.2194 35.761 15.2677C35.872 15.3645 35.978 15.4661 36.085 15.5629C36.191 15.6597 36.293 15.7613 36.394 15.8629C36.496 15.9645 36.597 16.0661 36.689 16.1677C37.076 16.579 37.434 16.9903 37.754 17.4065C38.402 18.2387 38.919 19.0806 39.33 19.8742C39.355 19.9226 39.384 19.971 39.408 20.0242C39.432 20.0726 39.456 20.121 39.48 20.1742C39.529 20.271 39.577 20.3677 39.621 20.4645C39.664 20.5613 39.713 20.6581 39.751 20.75C39.795 20.8468 39.833 20.9387 39.872 21.0306C40.027 21.4032 40.167 21.7565 40.278 22.0903C40.467 22.6274 40.607 23.1161 40.714 23.5419C40.757 23.7113 40.917 23.8226 41.091 23.8081C41.27 23.7935 41.41 23.6435 41.415 23.4645C41.386 22.9806 41.376 22.4484 41.323 21.8387Z" fill="url(#paint0_linear)"/>
<defs>
<linearGradient id="paint0_linear" x1="20.69" y1="57.075" x2="20.69" y2="15.9963" gradientUnits="userSpaceOnUse">
<stop stop-color="#FFF100"/>
<stop offset="1" stop-color="#F05A28"/>
</linearGradient>
</defs>
</svg>
