<svg width="448" height="124" viewBox="0 0 448 124" fill="none" xmlns="http://www.w3.org/2000/svg">
<path d="M4.49164 60.1C6.66164 60.1 8.26164 58.58 8.26164 56.5C8.26164 54.42 6.66164 52.9 4.49164 52.9C2.32164 52.9 0.721641 54.43 0.721641 56.5C0.721641 58.57 2.32164 60.1 4.49164 60.1ZM4.49164 58.96C3.08164 58.96 2.03164 57.93 2.03164 56.5C2.03164 55.07 3.08164 54.04 4.49164 54.04C5.90164 54.04 6.95164 55.07 6.95164 56.5C6.95164 57.93 5.90164 58.96 4.49164 58.96ZM12.3196 53H9.43961V60H10.7396V57.98H12.3196C14.1596 57.98 15.2996 57.03 15.2996 55.49C15.2996 53.94 14.1596 53 12.3196 53ZM12.2596 56.88H10.7396V54.1H12.2596C13.3996 54.1 13.9896 54.61 13.9896 55.49C13.9896 56.37 13.3996 56.88 12.2596 56.88ZM17.6978 58.91V56.98H21.0778V55.91H17.6978V54.09H21.5078V53H16.3978V60H21.6478V58.91H17.6978ZM27.827 53V57.74L23.967 53H22.897V60H24.187V55.26L28.047 60H29.117V53H27.827ZM36.5964 60.1C37.7464 60.1 38.7264 59.69 39.3764 58.93L38.5364 58.13C38.0264 58.69 37.3964 58.96 36.6664 58.96C35.2164 58.96 34.1664 57.94 34.1664 56.5C34.1664 55.06 35.2164 54.04 36.6664 54.04C37.3964 54.04 38.0264 54.31 38.5364 54.86L39.3764 54.07C38.7264 53.31 37.7464 52.9 36.6064 52.9C34.4564 52.9 32.8564 54.41 32.8564 56.5C32.8564 58.59 34.4564 60.1 36.5964 60.1ZM45.4732 53L43.1232 58.4L40.7932 53H39.3832L42.4432 60H43.7232L46.7732 53H45.4732Z" fill="#0101FF"/>
<path fill-rule="evenodd" clip-rule="evenodd" d="M23.8765 7.33146C21.609 7.33146 19.7367 9.18675 19.7367 11.5175C19.7367 13.0728 20.5726 14.4258 21.8164 15.1499L18.6311 20.6217C15.5077 18.8035 13.4053 15.4047 13.4053 11.5175C13.4053 5.72773 18.0746 1 23.8765 1C29.6785 1 34.3478 5.72773 34.3478 11.5175C34.3478 15.4047 32.2454 18.8035 29.122 20.6217L25.9366 15.1499C27.1805 14.4258 28.0163 13.0728 28.0163 11.5175C28.0163 9.18675 26.1441 7.33146 23.8765 7.33146Z" fill="#FF0101"/>
<path fill-rule="evenodd" clip-rule="evenodd" d="M8.0521 34.4892C9.18587 36.453 11.7287 37.1467 13.7472 35.9814C15.0941 35.2037 15.8479 33.8034 15.8531 32.3641L22.1845 32.3868C22.1716 36.0008 20.2794 39.521 16.913 41.4646C11.8989 44.3595 5.46986 42.6796 2.56889 37.6549C-0.332072 32.6303 1.42759 26.2227 6.4417 23.3278C9.80809 21.3842 13.8027 21.5056 16.9391 23.3014L13.793 28.7959C12.544 28.0808 10.9543 28.0334 9.60743 28.811C7.58893 29.9764 6.91833 32.5255 8.0521 34.4892Z" fill="#01FF01"/>
<path fill-rule="evenodd" clip-rule="evenodd" d="M35.5649 36.4508C37.8324 36.4508 39.7047 34.5955 39.7047 32.2647C39.7047 30.7095 38.8688 29.3565 37.625 28.6324L40.8103 23.1605C43.9337 24.9788 46.0361 28.3775 46.0361 32.2647C46.0361 38.0545 41.3668 42.7822 35.5649 42.7822C29.7629 42.7822 25.0936 38.0545 25.0936 32.2647C25.0936 28.3775 27.196 24.9788 30.3194 23.1605L33.5048 28.6324C32.2609 29.3565 31.4251 30.7095 31.4251 32.2647C31.4251 34.5955 33.2973 36.4508 35.5649 36.4508Z" fill="#0101FF"/>
<g clip-path="url(#clip0)">
<path d="M251 6.92285V13.8457L263.001 20.7685V13.8457L251 6.92285ZM227 13.8457V20.7685L233.001 24.2299V17.3071L227 13.8457ZM245 17.3071L238.999 20.7685V41.5369L245 45V31.1545L251 34.6159V27.6931L245 24.2317V17.3071Z" fill="#E55B2D"/>
<path d="M251 6.92285L233 17.3071V24.2299L245.001 17.3071V24.2299L251.002 20.7685V6.92285H251ZM269 10.3843L262.999 13.8457V20.7685L269 17.3071V10.3843ZM257 24.2317L251 27.6931V34.6159L257 31.1545V24.2317ZM251 34.6159L244.999 31.1545V45L251 41.5387V34.6159Z" fill="#ED8E24"/>
<path d="M251 0L227 13.8456L233.001 17.307L251 6.9228L263.001 13.8456L269.002 10.3842L251 0ZM251 20.7684L245 24.2298L251 27.6912L257.001 24.2298L251 20.7684Z" fill="#F8BF3C"/>
</g>
<path d="M214.416 60H215.716V54.1H218.036V53H212.096V54.1H214.416V60ZM220.112 58.91V56.98H223.492V55.91H220.112V54.09H223.922V53H218.812V60H224.062V58.91H220.112ZM230.241 53V57.74L226.381 53H225.311V60H226.601V55.26L230.461 60H231.531V53H230.241ZM235.377 60.1C237.297 60.1 238.207 59.14 238.207 58.02C238.207 55.45 234.057 56.42 234.057 54.93C234.057 54.4 234.497 53.98 235.577 53.98C236.187 53.98 236.877 54.16 237.507 54.53L237.917 53.52C237.307 53.12 236.427 52.9 235.587 52.9C233.667 52.9 232.767 53.86 232.767 54.99C232.767 57.59 236.927 56.6 236.927 58.11C236.927 58.63 236.467 59.02 235.377 59.02C234.517 59.02 233.627 58.7 233.067 58.25L232.617 59.26C233.197 59.76 234.287 60.1 235.377 60.1ZM242.566 60.1C244.736 60.1 246.336 58.58 246.336 56.5C246.336 54.42 244.736 52.9 242.566 52.9C240.396 52.9 238.796 54.43 238.796 56.5C238.796 58.57 240.396 60.1 242.566 60.1ZM242.566 58.96C241.156 58.96 240.106 57.93 240.106 56.5C240.106 55.07 241.156 54.04 242.566 54.04C243.976 54.04 245.026 55.07 245.026 56.5C245.026 57.93 243.976 58.96 242.566 58.96ZM253.494 60L251.884 57.7C252.834 57.33 253.374 56.55 253.374 55.49C253.374 53.94 252.234 53 250.394 53H247.514V60H248.814V57.96H250.394C250.484 57.96 250.574 57.96 250.664 57.95L252.094 60H253.494ZM252.064 55.49C252.064 56.37 251.474 56.89 250.334 56.89H248.814V54.1H250.334C251.474 54.1 252.064 54.61 252.064 55.49ZM259.738 54.09V53H254.628V60H255.928V57.32H259.308V56.22H255.928V54.09H259.738ZM260.795 60H265.755V58.9H262.095V53H260.795V60ZM269.725 60.1C271.895 60.1 273.495 58.58 273.495 56.5C273.495 54.42 271.895 52.9 269.725 52.9C267.555 52.9 265.955 54.43 265.955 56.5C265.955 58.57 267.555 60.1 269.725 60.1ZM269.725 58.96C268.315 58.96 267.265 57.93 267.265 56.5C267.265 55.07 268.315 54.04 269.725 54.04C271.135 54.04 272.185 55.07 272.185 56.5C272.185 57.93 271.135 58.96 269.725 58.96ZM283.438 53L281.648 58.35L279.878 53H278.678L276.868 58.32L275.128 53H273.778L276.098 60H277.488L279.248 54.82L280.978 60H282.358L284.678 53H283.438Z" fill="#6D6B6C"/>
<path d="M332.003 15.8905C332.003 15.8905 336.43 9.38565 345.27 8.7127V6.35275C335.479 7.13581 327 15.3939 327 15.3939C327 15.3939 331.802 29.2181 345.27 30.4841V27.9757C335.387 26.7375 332.003 15.8905 332.003 15.8905ZM345.27 22.987V25.2844C337.8 23.9581 335.727 16.2261 335.727 16.2261C335.727 16.2261 339.313 12.2697 345.27 11.628V14.1488C345.265 14.1488 345.262 14.1475 345.258 14.1475C342.132 13.7739 339.69 16.6822 339.69 16.6822C339.69 16.6822 341.059 21.578 345.27 22.987ZM345.27 2V6.35275C345.557 6.33081 345.845 6.3122 346.134 6.3024C357.265 5.9288 364.518 15.3939 364.518 15.3939C364.518 15.3939 356.188 25.4809 347.509 25.4809C346.714 25.4809 345.969 25.4075 345.27 25.284V27.9757C345.888 28.0548 346.511 28.0949 347.135 28.0956C355.211 28.0956 361.051 23.9883 366.706 19.1271C367.644 19.8749 371.483 21.6942 372.272 22.4903C366.895 26.9736 354.363 30.5873 347.259 30.5873C346.574 30.5873 345.916 30.546 345.27 30.4839V34.2662H375.966V2H345.27ZM345.27 11.6279V8.71289C345.554 8.69311 345.841 8.67783 346.134 8.66862C354.138 8.41824 359.39 15.5186 359.39 15.5186C359.39 15.5186 353.718 23.3633 347.636 23.3633C346.761 23.3633 345.976 23.2232 345.27 22.9868V14.1486C348.386 14.5236 349.013 15.8944 350.886 19.0045L355.053 15.5057C355.053 15.5057 352.012 11.5332 346.884 11.5332C346.327 11.533 345.793 11.572 345.27 11.6279Z" fill="#77B900"/>
<path d="M384.648 46.9428C386.429 46.9428 387.946 46.2865 388.952 45.0701L387.652 43.7897C386.862 44.686 385.887 45.1181 384.756 45.1181C382.511 45.1181 380.886 43.4856 380.886 41.1808C380.886 38.8761 382.511 37.2435 384.756 37.2435C385.887 37.2435 386.862 37.6757 387.652 38.556L388.952 37.2916C387.946 36.0752 386.429 35.4189 384.664 35.4189C381.335 35.4189 378.857 37.8357 378.857 41.1808C378.857 44.526 381.335 46.9428 384.648 46.9428Z" fill="black"/>
<path d="M395.156 46.9428C398.113 46.9428 399.894 45.1662 399.894 41.9011V35.579H397.912V41.8211C397.912 44.1258 396.921 45.1181 395.172 45.1181C393.422 45.1181 392.416 44.1258 392.416 41.8211V35.579H390.403V41.9011C390.403 45.1662 392.183 46.9428 395.156 46.9428Z" fill="black"/>
<path d="M402.403 46.7827H407.141C410.656 46.7827 413.055 44.542 413.055 41.1808C413.055 37.8197 410.656 35.579 407.141 35.579H402.403V46.7827ZM404.416 45.0221V37.3396H407.048C409.463 37.3396 411.027 38.8601 411.027 41.1808C411.027 43.5016 409.463 45.0221 407.048 45.0221H404.416Z" fill="black"/>
<path d="M422.847 46.7827H424.953L420.06 35.579H418.078L413.201 46.7827H415.276L416.344 44.1898H421.763L422.847 46.7827ZM417.025 42.5573L419.054 37.6597L421.097 42.5573H417.025Z" fill="black"/>
<path d="M447.518 32.6559C447.518 33.3947 446.973 33.8905 446.328 33.8905V33.886C445.665 33.8905 445.13 33.3947 445.13 32.6561C445.13 31.9177 445.665 31.4232 446.328 31.4232C446.973 31.423 447.518 31.9175 447.518 32.6559ZM448 32.6559C448 31.6418 447.209 31.0533 446.328 31.0533C445.441 31.0533 444.65 31.6418 444.65 32.6559C444.65 33.6691 445.441 34.26 446.328 34.26C447.209 34.26 448 33.6691 448 32.6559ZM446.051 32.7915H446.23L446.645 33.5169H447.1L446.64 32.7609C446.878 32.744 447.073 32.6316 447.073 32.3132C447.073 31.9175 446.799 31.7905 446.336 31.7905H445.664V33.5169H446.05L446.051 32.7915ZM446.051 32.4992V32.0836H446.319C446.465 32.0836 446.664 32.0954 446.664 32.2727C446.664 32.4655 446.561 32.4992 446.389 32.4992H446.051ZM436.739 23.8238L438.824 29.5037H434.59L436.739 23.8238ZM434.506 21.6122L429.701 33.7352H433.094L433.854 31.5929H439.54L440.259 33.7352H443.943L439.102 21.6106L434.506 21.6122ZM424.86 33.7397H428.302V21.6085L424.859 21.6077L424.86 33.7397ZM400.964 21.6077L398.092 31.2226L395.341 21.6085L391.627 21.6077L395.556 33.7397H400.515L404.475 21.6077H400.964ZM414.877 24.2493H416.357C418.503 24.2493 419.891 25.2089 419.891 27.6991C419.891 30.1898 418.503 31.1495 416.357 31.1495H414.877V24.2493ZM411.464 21.6077V33.7397H417.044C420.018 33.7397 420.989 33.2475 422.038 32.1436C422.78 31.3684 423.259 29.6669 423.259 27.8073C423.259 26.1015 422.854 24.5808 422.146 23.6334C420.871 21.9391 419.034 21.6077 416.293 21.6077H411.464ZM378.857 21.5908V33.7397H382.329V24.515L385.018 24.5158C385.909 24.5158 386.544 24.737 386.973 25.193C387.517 25.77 387.739 26.7014 387.739 28.4052V33.7397H391.103V27.0274C391.103 22.2367 388.036 21.5908 385.036 21.5908H378.857ZM405.924 21.6077L405.926 33.7397H409.366V21.6077H405.924Z" fill="black"/>
<path fill-rule="evenodd" clip-rule="evenodd" d="M110.56 22.2257C110.223 22.0037 107.868 20.8933 107.195 20.4492C106.522 20.005 106.298 20.4492 106.072 20.8933C105.848 21.3375 105.399 23.0031 105.175 23.5582C104.839 24.5576 105.288 24.7796 105.736 25.0017C106.185 25.1128 108.316 25.779 108.989 26.0011C109.662 26.2232 109.886 25.779 109.999 25.3349C110.336 24.6687 110.785 23.7803 111.009 23.2251C111.233 22.6699 110.896 22.4478 110.56 22.2257ZM110.448 14.453C110.111 14.1199 109.775 14.1199 109.326 14.675C108.878 15.3414 107.644 17.34 107.531 17.6732C107.082 18.4504 107.755 18.7836 107.755 18.7836C107.755 18.7836 111.233 20.8933 111.345 21.0043C111.569 21.1154 112.131 21.3375 112.355 20.7822C112.692 20.3381 113.813 18.8945 114.038 18.6725C114.262 18.4504 114.149 18.1173 114.038 17.8953C113.925 17.6732 110.785 14.675 110.448 14.453ZM145.111 2.57181C141.072 1.23934 137.37 1.01726 136.585 1.01726C135.351 0.906218 135.351 1.35038 135.238 1.79453C135.127 2.23869 133.333 10.7887 133.22 11.566C133.107 12.4543 133.444 12.5653 134.341 12.6764C135.8 13.0094 137.82 14.0088 138.492 14.342C139.165 14.675 139.39 14.2309 139.727 13.8978C140.062 13.5647 145.559 4.34844 145.896 3.6822C146.232 3.127 145.896 2.79388 145.111 2.57181ZM115.272 9.01208C114.935 8.56792 114.486 8.79001 114.262 9.01208C113.925 9.3452 111.569 11.677 111.569 11.677C111.009 12.3432 111.233 12.6764 111.345 12.7874C111.458 13.0094 114.599 16.3406 114.935 16.6738C115.272 17.118 115.72 16.8959 116.056 16.5627C116.393 16.2297 117.739 15.3414 118.076 15.0082C118.525 14.675 118.3 14.2309 118.3 14.1199C118.412 14.0088 115.608 9.45624 115.272 9.01208ZM108.765 27.3335C108.092 27.2226 106.185 26.6673 105.512 26.5562C104.951 26.4452 104.502 26.3343 104.391 27.1115C104.278 27.8888 104.054 29.7764 104.054 30.2206C104.166 30.6647 104.054 30.9979 104.839 30.9979C104.839 30.9979 107.755 31.1089 108.092 31.1089C108.541 31.1089 108.989 31.1089 108.989 30.4427C109.102 29.7764 109.102 28.7771 109.214 28.3329C109.326 27.9998 109.326 27.5556 108.765 27.3335ZM122.787 4.45947C122.675 3.79324 122.226 3.79324 121.89 3.90428C121.553 4.01532 119.535 5.12571 119.086 5.34779C118.637 5.68091 117.066 6.68026 117.066 6.68026C116.618 7.01338 116.73 7.45754 116.842 7.79066C116.955 8.12377 119.534 13.1205 119.646 13.4537C119.87 13.7868 120.095 14.2309 120.88 13.7868C121.777 13.3426 123.236 12.8985 123.797 12.7874C124.47 12.5653 124.357 12.1212 124.246 11.677C124.357 11.2329 122.9 5.12571 122.787 4.45947ZM159.02 11.8991C158.684 11.3439 157.113 9.78936 154.87 7.90169C152.626 5.90298 150.159 4.79259 149.485 4.34844C148.588 3.79324 148.252 4.34844 147.915 4.79259C147.578 5.23675 140.848 14.8971 140.735 15.1192C140.624 15.3414 140.624 15.8965 141.297 16.3406C141.97 16.7848 142.755 17.5621 143.54 18.3394C147.018 16.0076 152.066 12.5653 152.739 12.1212C153.636 11.566 153.636 12.3432 153.636 12.3432L145.111 19.7828C145.111 19.7828 144.998 19.8939 144.886 20.005C145.222 20.4492 145.559 20.7822 145.559 20.8933C145.784 21.1154 146.121 21.3375 146.681 21.0043C147.242 20.6712 158.46 13.6758 159.02 13.3426C159.693 12.8985 159.469 12.4543 159.02 11.8991ZM164.854 22.1148C163.956 19.3387 161.937 15.8965 161.489 15.3414C161.04 14.7861 160.479 15.2303 160.03 15.4524C159.582 15.6744 147.802 21.8927 147.354 22.1148C146.905 22.4478 146.569 22.781 147.018 23.5582C148.252 25.779 148.701 29.4433 148.812 30.2206C148.925 30.9979 149.149 31.1089 149.598 31.1089C150.046 31.1089 164.854 30.6647 165.303 30.6647C165.751 30.6647 166.2 30.6647 166.312 29.8874C166.424 28.6661 165.751 24.8907 164.854 22.1148ZM131.65 1.1283C127.723 1.68349 125.929 2.34972 125.367 2.57181C124.582 2.79388 124.47 3.34909 124.582 3.79324C124.694 4.2374 125.816 11.3439 125.816 11.566C125.816 11.7881 125.929 12.4543 126.937 12.3432C128.172 12.2322 129.854 12.2322 130.751 12.2322C131.537 12.2322 131.65 11.7881 131.761 11.3439C131.874 10.8998 132.883 2.90493 132.996 2.34972C132.996 1.79453 133.332 0.906218 131.65 1.1283Z" fill="url(#paint0_linear)"/>
<path d="M154.197 12.6765C154.197 12.6765 153.86 12.1212 153.187 12.6765C152.402 13.3427 143.315 19.3388 141.296 20.8934C139.277 22.3368 130.864 27.6668 129.518 28.5551C128.284 29.3323 126.264 30.5537 128.06 32.7746C129.854 34.9953 131.425 33.4408 132.547 32.4414C133.668 31.442 140.959 24.6686 142.866 23.1141C144.773 21.4485 152.963 14.3421 153.747 13.6758C154.309 13.1206 154.309 12.8985 154.197 12.6765Z" fill="#252526"/>
<path d="M153.412 12.1208C153.412 12.1208 153.075 11.5656 152.402 12.1208C151.616 12.787 142.53 18.7831 140.511 20.3376C138.492 21.7812 130.078 27.1111 128.732 27.9994C127.498 28.7766 125.48 29.9981 127.274 32.2189C129.069 34.4397 130.64 32.8851 131.761 31.8858C132.882 30.8864 140.175 24.113 142.082 22.5585C143.989 20.8929 152.177 13.7864 152.963 13.1201C153.636 12.565 153.523 12.2318 153.412 12.1208Z" fill="#C7C6C5"/>
<path d="M116.117 59.1C118.287 59.1 119.887 57.58 119.887 55.5C119.887 53.42 118.287 51.9 116.117 51.9C113.947 51.9 112.347 53.43 112.347 55.5C112.347 57.57 113.947 59.1 116.117 59.1ZM116.117 57.96C114.707 57.96 113.657 56.93 113.657 55.5C113.657 54.07 114.707 53.04 116.117 53.04C117.527 53.04 118.577 54.07 118.577 55.5C118.577 56.93 117.527 57.96 116.117 57.96ZM123.945 52H121.065V59H122.365V56.98H123.945C125.785 56.98 126.925 56.03 126.925 54.49C126.925 52.94 125.785 52 123.945 52ZM123.885 55.88H122.365V53.1H123.885C125.025 53.1 125.615 53.61 125.615 54.49C125.615 55.37 125.025 55.88 123.885 55.88ZM129.323 57.91V55.98H132.703V54.91H129.323V53.09H133.133V52H128.023V59H133.273V57.91H129.323ZM139.452 52V56.74L135.592 52H134.522V59H135.812V54.26L139.672 59H140.742V52H139.452ZM148.221 59.1C149.371 59.1 150.351 58.69 151.001 57.93L150.161 57.13C149.651 57.69 149.021 57.96 148.291 57.96C146.841 57.96 145.791 56.94 145.791 55.5C145.791 54.06 146.841 53.04 148.291 53.04C149.021 53.04 149.651 53.31 150.161 53.86L151.001 53.07C150.351 52.31 149.371 51.9 148.231 51.9C146.081 51.9 144.481 53.41 144.481 55.5C144.481 57.59 146.081 59.1 148.221 59.1ZM152.047 59H157.007V57.9H153.347V52H152.047V59Z" fill="black"/>
<g clip-path="url(#clip1)">
<path fill-rule="evenodd" clip-rule="evenodd" d="M53.109 98.6786C51.4162 98.6786 50.57 99.2912 50.57 100.516C50.57 101.582 51.1686 102.115 52.3654 102.115C52.8246 102.115 53.3202 102.03 53.8524 101.86C54.3843 101.69 54.9224 101.441 55.4665 101.111V98.9848C54.6443 98.7806 53.8584 98.6786 53.109 98.6786ZM53.3629 94C55.4544 94 56.5 94.8452 56.5 96.5351V102.557C56.5 102.728 56.4094 102.813 56.2283 102.813H55.8476C55.6659 102.813 55.569 102.728 55.5572 102.557L55.4847 101.826C54.4447 102.608 53.3566 103 52.2204 103C51.386 103 50.7241 102.776 50.2346 102.328C49.7448 101.88 49.5 101.282 49.5 100.533C49.5 99.7053 49.7994 99.0529 50.3976 98.5767C50.9962 98.1001 51.8216 97.8623 52.8733 97.8623C53.2603 97.8623 53.6831 97.8962 54.1426 97.9641C54.6018 98.0321 55.0431 98.1285 55.4665 98.2534V96.8245C55.4665 96.1325 55.2909 95.6362 54.9406 95.3357C54.5897 95.0353 54.0095 94.8848 53.1995 94.8848C52.4501 94.8848 51.6581 94.9982 50.8239 95.2251C50.6909 95.2591 50.5852 95.2902 50.5067 95.3188C50.4276 95.3471 50.3644 95.361 50.3162 95.361C50.1709 95.361 50.0986 95.2874 50.0986 95.14V94.8679C50.0986 94.6975 50.1769 94.5845 50.3344 94.5276C50.7937 94.3572 51.2865 94.2271 51.8121 94.1363C52.3385 94.0455 52.8549 94 53.3629 94Z" fill="#3F3B3C"/>
<path fill-rule="evenodd" clip-rule="evenodd" d="M68.9508 94C69.7823 94 70.4152 94.2232 70.8492 94.6692C71.2828 95.1151 71.5 95.7722 71.5 96.6411V102.739C71.5 102.913 71.4093 103 71.2287 103H70.7404C70.5598 103 70.4693 102.913 70.4693 102.739V97.058C70.4693 96.2937 70.3336 95.7435 70.0623 95.4073C69.791 95.0715 69.3484 94.9036 68.7335 94.9036C67.5764 94.9036 66.4853 95.2685 65.4609 95.9982C65.497 96.2763 65.5152 96.5486 65.5152 96.8147V102.739C65.5152 102.913 65.4247 103 65.2437 103H64.7558C64.5751 103 64.4845 102.913 64.4845 102.739V97.058C64.4845 96.2937 64.3488 95.7435 64.0778 95.4073C63.8066 95.0715 63.3636 94.9036 62.7489 94.9036C61.6277 94.9036 60.5551 95.2571 59.5305 95.9636V102.739C59.5305 102.913 59.4398 103 59.2594 103H58.7712C58.5903 103 58.5 102.913 58.5 102.739V94.5215C58.5 94.3476 58.5903 94.2606 58.7712 94.2606H59.1328C59.3134 94.2606 59.416 94.3476 59.4398 94.5215L59.5125 95.2165C60.0548 94.8342 60.6213 94.536 61.2118 94.3216C61.8025 94.1073 62.3873 94 62.9657 94C64.0984 94 64.8579 94.4464 65.2437 95.3379C65.8225 94.898 66.4283 94.5647 67.061 94.3389C67.6941 94.1131 68.3237 94 68.9508 94" fill="#3F3B3C"/>
<path fill-rule="evenodd" clip-rule="evenodd" d="M77.1089 98.6786C75.4163 98.6786 74.57 99.2912 74.57 100.516C74.57 101.582 75.1685 102.115 76.3655 102.115C76.8246 102.115 77.3203 102.03 77.8523 101.86C78.3843 101.69 78.9223 101.441 79.4666 101.111V98.9848C78.6442 98.7806 77.8583 98.6786 77.1089 98.6786ZM77.3628 94C79.4543 94 80.5 94.8452 80.5 96.5351V102.557C80.5 102.728 80.4093 102.813 80.2282 102.813H79.8474C79.6659 102.813 79.5691 102.728 79.5571 102.557L79.4848 101.826C78.4446 102.608 77.3567 103 76.2203 103C75.3859 103 74.7242 102.776 74.2347 102.328C73.7447 101.88 73.5 101.282 73.5 100.533C73.5 99.7053 73.7993 99.0529 74.3977 98.5767C74.9963 98.1001 75.8215 97.8623 76.8732 97.8623C77.2602 97.8623 77.6831 97.8962 78.1425 97.9641C78.6019 98.0321 79.0432 98.1285 79.4666 98.2534V96.8245C79.4666 96.1325 79.2908 95.6362 78.9404 95.3357C78.5896 95.0353 78.0094 94.8848 77.1995 94.8848C76.4501 94.8848 75.658 94.9982 74.8239 95.2251C74.6908 95.2591 74.5853 95.2902 74.5068 95.3188C74.4276 95.3471 74.3646 95.361 74.3162 95.361C74.1711 95.361 74.0985 95.2874 74.0985 95.14V94.8679C74.0985 94.6975 74.177 94.5845 74.3344 94.5276C74.7938 94.3572 75.2866 94.2271 75.8122 94.1363C76.3384 94.0455 76.855 94 77.3628 94" fill="#3F3B3C"/>
<path fill-rule="evenodd" clip-rule="evenodd" d="M88.5 102.374V102.732C88.5 102.911 88.4216 103 88.2643 103H82.7357C82.5784 103 82.5 102.911 82.5 102.732V102.356C82.5 102.237 82.5132 102.141 82.5395 102.069C82.5653 101.998 82.615 101.915 82.6888 101.819L87.4634 94.8948H82.8927C82.7357 94.8948 82.6569 94.8052 82.6569 94.6264V94.2686C82.6569 94.0895 82.7357 94 82.8927 94H88.2329C88.3902 94 88.4686 94.0895 88.4686 94.2686V94.6443C88.4686 94.7398 88.4551 94.8293 88.4293 94.9127C88.403 94.9963 88.3482 95.0914 88.2643 95.1988L83.4739 102.106H88.2643C88.4216 102.106 88.5 102.195 88.5 102.374Z" fill="#3F3B3C"/>
<path fill-rule="evenodd" clip-rule="evenodd" d="M94.4999 102.122C96.4883 102.122 97.4827 100.912 97.4827 98.4918C97.4827 96.0827 96.4883 94.8781 94.4999 94.8781C92.5113 94.8781 91.5173 96.0827 91.5173 98.4918C91.5173 100.912 92.5113 102.122 94.4999 102.122V102.122ZM94.4999 103C93.2472 103 92.267 102.609 91.5602 101.827C90.8534 101.044 90.5 99.9329 90.5 98.4918C90.5 97.0508 90.8534 95.942 91.5602 95.1653C92.267 94.3884 93.2472 94 94.4999 94C95.7525 94 96.7327 94.3884 97.4395 95.1653C98.1465 95.942 98.5 97.0508 98.5 98.4918C98.5 99.9329 98.1465 101.044 97.4395 101.827C96.7327 102.609 95.7525 103 94.4999 103" fill="#3F3B3C"/>
<path fill-rule="evenodd" clip-rule="evenodd" d="M104.964 94C105.798 94 106.429 94.2232 106.858 94.6692C107.286 95.1151 107.5 95.7722 107.5 96.6411V102.739C107.5 102.913 107.416 103 107.247 103H106.79C106.621 103 106.537 102.913 106.537 102.739V97.058C106.537 96.2937 106.395 95.7435 106.113 95.4073C105.832 95.0715 105.381 94.9036 104.761 94.9036C104.163 94.9036 103.594 94.9994 103.053 95.1903C102.512 95.3815 101.982 95.6568 101.464 96.0156V102.739C101.464 102.913 101.379 103 101.21 103H100.754C100.585 103 100.5 102.913 100.5 102.739V94.5215C100.5 94.3476 100.585 94.2606 100.754 94.2606H101.092C101.261 94.2606 101.357 94.3476 101.379 94.5215L101.447 95.2685C101.988 94.8632 102.563 94.5504 103.172 94.3301C103.78 94.1101 104.378 94 104.964 94" fill="#3F3B3C"/>
<path fill-rule="evenodd" clip-rule="evenodd" d="M82.635 115.058C80.9554 115.058 80.1156 115.678 80.1156 116.917C80.1156 117.996 80.7097 118.536 81.8973 118.536C82.3528 118.536 82.8448 118.45 83.3728 118.277C83.9008 118.105 84.4346 117.853 84.9747 117.52V115.367C84.1586 115.161 83.3788 115.058 82.635 115.058ZM82.8871 110.322C84.9625 110.322 86 111.178 86 112.888V118.983C86 119.156 85.91 119.242 85.7303 119.242H85.3525C85.1723 119.242 85.0762 119.156 85.0645 118.983L84.9926 118.243C83.9606 119.035 82.8809 119.431 81.7535 119.431C80.9254 119.431 80.2687 119.204 79.7829 118.751C79.2967 118.298 79.0538 117.692 79.0538 116.934C79.0538 116.097 79.3512 115.436 79.9447 114.954C80.5386 114.472 81.3574 114.231 82.4012 114.231C82.785 114.231 83.2048 114.266 83.6608 114.334C84.1165 114.403 84.5545 114.501 84.9747 114.627V113.181C84.9747 112.481 84.8004 111.978 84.4525 111.674C84.1043 111.37 83.5287 111.218 82.725 111.218C81.9812 111.218 81.1954 111.333 80.3677 111.562C80.2357 111.597 80.1306 111.628 80.0529 111.657C79.9743 111.686 79.9117 111.7 79.8641 111.7C79.7197 111.7 79.6478 111.625 79.6478 111.476V111.201C79.6478 111.028 79.7257 110.914 79.882 110.856C80.3377 110.684 80.8267 110.552 81.3484 110.46C81.8704 110.368 82.383 110.322 82.8871 110.322ZM74.1468 115.419L71.5374 119.052C71.4413 119.179 71.3155 119.242 71.1596 119.242H70.6558C70.4995 119.242 70.4218 119.179 70.4218 119.052C70.4218 119.006 70.4635 118.932 70.5476 118.828L73.625 114.73L70.8176 110.977C70.7457 110.874 70.7097 110.805 70.7097 110.77C70.7097 110.644 70.7876 110.581 70.9435 110.581H71.5014C71.6573 110.581 71.7833 110.644 71.8794 110.77L74.237 113.973L76.5941 110.77C76.6898 110.644 76.8102 110.581 76.954 110.581H77.4397C77.5958 110.581 77.6738 110.644 77.6738 110.77C77.6738 110.816 77.638 110.891 77.5659 110.994L74.7945 114.662L77.872 118.828C77.944 118.932 77.9798 119.006 77.9798 119.052C77.9798 119.179 77.9015 119.242 77.7456 119.242H77.1882C77.044 119.242 76.924 119.179 76.8282 119.052L74.1468 115.419ZM65.8361 111.201C64.9365 111.201 64.2254 111.453 63.7037 111.958C63.1817 112.463 62.8669 113.204 62.7591 114.179C63.2268 114.294 63.6919 114.38 64.1536 114.438C64.6151 114.495 65.0803 114.524 65.548 114.524C66.4479 114.524 67.1076 114.398 67.5277 114.145C67.9474 113.892 68.1575 113.491 68.1575 112.94C68.1575 111.78 67.3837 111.201 65.8361 111.201ZM68.1215 118.312C68.2774 118.266 68.3916 118.229 68.4635 118.2C68.5355 118.171 68.6014 118.157 68.6615 118.157C68.8055 118.157 68.8773 118.232 68.8773 118.381V118.622C68.8773 118.806 68.8114 118.926 68.6795 118.983C67.8154 119.328 66.898 119.5 65.9261 119.5C64.5466 119.5 63.4935 119.118 62.7679 118.355C62.0419 117.592 61.6795 116.475 61.6795 115.006C61.6795 114.283 61.7752 113.631 61.967 113.052C62.1588 112.472 62.4377 111.978 62.8038 111.571C63.1696 111.163 63.6166 110.853 64.1444 110.641C64.6724 110.429 65.2662 110.322 65.9261 110.322C66.9698 110.322 67.7765 110.552 68.3463 111.011C68.9162 111.471 69.2012 112.113 69.2012 112.94C69.2012 113.755 68.8982 114.355 68.2926 114.739C67.6867 115.123 66.7477 115.316 65.4762 115.316C65.0201 115.316 64.561 115.29 64.0997 115.238C63.6377 115.187 63.1787 115.098 62.7227 114.972C62.7227 116.211 62.9956 117.127 63.5416 117.718C64.0876 118.309 64.9063 118.605 65.998 118.605C66.706 118.605 67.4136 118.507 68.1215 118.312ZM58.3215 106.758C58.3215 106.586 58.4114 106.5 58.5915 106.5H59.0773C59.257 106.5 59.3472 106.586 59.3472 106.758V117.744C59.3472 117.996 59.398 118.174 59.5003 118.277C59.602 118.381 59.7851 118.433 60.0492 118.433C60.121 118.433 60.2022 118.427 60.292 118.415C60.3819 118.404 60.4567 118.398 60.5168 118.398C60.6846 118.398 60.769 118.478 60.769 118.639V118.966C60.769 119.104 60.6908 119.19 60.5349 119.224C60.463 119.247 60.3578 119.264 60.2201 119.276C60.0817 119.287 59.959 119.293 59.8509 119.293C59.3711 119.293 58.9961 119.158 58.7262 118.888C58.4565 118.619 58.3215 118.243 58.3215 117.761V106.758ZM52.581 115.058C50.9015 115.058 50.0616 115.678 50.0616 116.917C50.0616 117.996 50.6557 118.536 51.8433 118.536C52.2988 118.536 52.7909 118.45 53.3187 118.277C53.8468 118.105 54.3805 117.853 54.9205 117.52V115.367C54.1047 115.161 53.3246 115.058 52.581 115.058ZM52.833 110.322C54.9085 110.322 55.9459 111.178 55.9459 112.888V118.983C55.9459 119.156 55.8562 119.242 55.6764 119.242H55.2983C55.1183 119.242 55.0222 119.156 55.0104 118.983L54.9386 118.243C53.9064 119.035 52.8268 119.431 51.6994 119.431C50.8714 119.431 50.2146 119.204 49.7289 118.751C49.2429 118.298 49 117.692 49 116.934C49 116.097 49.297 115.436 49.8907 114.954C50.4848 114.472 51.3035 114.231 52.3472 114.231C52.731 114.231 53.1507 114.266 53.6068 114.334C54.0625 114.403 54.5004 114.501 54.9205 114.627V113.181C54.9205 112.481 54.7463 111.978 54.3984 111.674C54.0503 111.37 53.4746 111.218 52.6707 111.218C51.9272 111.218 51.1414 111.333 50.3137 111.562C50.1815 111.597 50.0766 111.628 49.9991 111.657C49.9203 111.686 49.8576 111.7 49.8099 111.7C49.6658 111.7 49.5938 111.625 49.5938 111.476V111.201C49.5938 111.028 49.6717 110.914 49.828 110.856C50.2837 110.684 50.7727 110.552 51.2944 110.46C51.8164 110.368 52.3289 110.322 52.833 110.322Z" fill="#3F3B3C"/>
<path fill-rule="evenodd" clip-rule="evenodd" d="M19.639 85C8.79278 85 0 93.7306 0 104.5C0 114.388 7.41239 122.556 17.0207 123.827V119.898C17.0207 118.79 16.3169 117.794 15.2591 117.442C9.71537 115.592 5.74943 110.331 5.8955 104.171C6.07333 96.6715 12.226 90.775 19.7808 90.8506C27.308 90.9262 33.3866 97.0083 33.3866 104.5C33.3866 104.671 33.3823 104.841 33.376 105.01C33.3745 105.048 33.3733 105.086 33.3718 105.124C33.3645 105.281 33.3548 105.437 33.3424 105.593C33.3388 105.643 33.3337 105.692 33.3291 105.742C33.3195 105.85 33.3083 105.959 33.2959 106.066C33.282 106.189 33.266 106.311 33.2487 106.432C33.2412 106.487 33.2336 106.543 33.2251 106.598C31.542 117.606 17.1014 123.794 17.0222 123.827C17.8785 123.941 18.7519 124 19.639 124C30.4855 124 39.2782 115.27 39.2782 104.5C39.2782 93.7306 30.4855 85 19.639 85Z" fill="#5FCAF4"/>
</g>
<defs>
<linearGradient id="paint0_linear" x1="112.365" y1="9.33487" x2="155.491" y2="34.489" gradientUnits="userSpaceOnUse">
<stop stop-color="#1DAD4B"/>
<stop offset="0.1295" stop-color="#6FBA48"/>
<stop offset="0.3409" stop-color="#B8D243"/>
<stop offset="0.4929" stop-color="#E2E43D"/>
<stop offset="0.569" stop-color="#F2EB3A"/>
<stop offset="0.6088" stop-color="#F2DD39"/>
<stop offset="0.6874" stop-color="#F0C038"/>
<stop offset="0.7974" stop-color="#EE9034"/>
<stop offset="0.9332" stop-color="#EE442C"/>
<stop offset="0.9558" stop-color="#EE302B"/>
</linearGradient>
<clipPath id="clip0">
<rect x="227" width="42" height="45" fill="white"/>
</clipPath>
<clipPath id="clip1">
<rect y="85" width="269" height="39" fill="white"/>
</clipPath>
</defs>
</svg>
