<svg width="244" height="30" viewBox="0 0 244 30" fill="none" xmlns="http://www.w3.org/2000/svg">
<path d="M127.403 23.637C124.391 23.637 121.953 21.0185 121.953 17.7627C121.953 14.5684 124.391 11.9107 127.403 11.9107C129.405 11.9107 131.408 12.8805 132.26 14.6523C132.319 14.7752 132.397 14.9401 132.397 15.1469V20.3394C132.397 20.4428 132.337 20.6691 132.297 20.7306C131.367 22.5024 129.465 23.637 127.403 23.637ZM137.293 28.1085V7.5008H132.397V9.23068C131.029 7.85013 129.166 7.08999 126.868 7.08999C121.26 7.08999 117 11.8297 117 17.7627C117 23.7209 121.26 28.5221 126.868 28.5221C129.166 28.5221 131.029 27.7172 132.397 26.3367V28.1085H137.293ZM158.556 28.1085V16.9607C158.556 11.4776 154.455 7.08999 149.223 7.08999C143.972 7.08999 139.889 11.4776 139.889 16.9607V28.1085H144.783V16.9607C144.783 14.261 146.608 12.1986 149.223 12.1986C151.819 12.1986 153.663 14.261 153.663 16.9607V28.1085H158.556ZM171.002 23.637C167.99 23.637 165.552 21.0185 165.552 17.7627C165.552 14.5684 167.99 11.9107 171.002 11.9107C173.004 11.9107 174.907 12.942 175.858 14.6523C175.918 14.7752 175.996 14.9401 175.996 15.1469V20.3617C175.996 20.4651 175.936 20.6691 175.899 20.7306C174.966 22.5024 173.064 23.637 171.002 23.637ZM180.892 28.1085V1.31907H175.996V9.23068C174.63 7.85013 172.765 7.02572 170.467 7.02572C164.859 7.02572 160.599 11.8297 160.599 17.7627C160.599 23.7209 164.859 28.5221 170.467 28.5221C172.765 28.5221 174.63 27.7172 175.996 26.3367V28.1085H180.892ZM188.382 28.1085V17.1032C188.382 13.8474 190.027 12.1175 193.158 12.1175V7.08999C186.856 7.08999 183.488 10.5721 183.488 17.1032V28.1085H188.382ZM203.859 23.3911C200.887 23.3911 198.471 20.8759 198.471 17.7627C198.471 14.6718 200.887 12.1595 203.859 12.1595C206.872 12.1595 209.272 14.6718 209.272 17.7627C209.272 20.8759 206.872 23.3911 203.859 23.3911ZM203.859 28.5221C209.589 28.5221 214.225 23.7209 214.225 17.7627C214.225 11.8297 209.589 7.08999 203.859 7.08999C198.154 7.08999 193.515 11.8297 193.515 17.7627C193.515 23.7209 198.154 28.5221 203.859 28.5221ZM218.901 5.93581C220.468 5.93581 221.736 4.59438 221.736 2.9679C221.736 1.31907 220.468 0 218.901 0C217.337 0 216.069 1.31907 216.069 2.9679C216.069 4.59438 217.337 5.93581 218.901 5.93581ZM221.339 7.5008H216.442V28.1085H221.339V7.5008ZM233.964 23.637C230.952 23.637 228.514 21.0185 228.514 17.7627C228.514 14.5684 230.952 11.9107 233.964 11.9107C235.967 11.9107 237.867 12.942 238.818 14.6523C238.88 14.7752 238.958 14.9401 238.958 15.1469V20.3813C238.958 20.4847 238.899 20.6691 238.858 20.7306C237.928 22.5024 236.026 23.637 233.964 23.637ZM243.852 28.1085V1.31907H238.958V9.23068C237.59 7.85013 235.727 7.08999 233.43 7.08999C227.821 7.08999 223.559 11.8297 223.559 17.7627C223.559 23.7209 227.821 28.5416 233.43 28.5416C235.727 28.5416 237.59 27.7172 238.958 26.3367V28.1085H243.852Z" fill="#77C159"/>
<path d="M0.264984 28.6367H4.97858V8.41608H0.264984V28.6367ZM2.61233 5.76434C4.08889 5.76434 5.24361 4.61975 5.24361 3.18908C5.24361 1.73927 4.08889 0.594727 2.61233 0.594727C1.15473 0.594727 0 1.73932 0 3.18908C0 4.6198 1.15473 5.76434 2.61233 5.76434ZM20.6723 0.651815C12.7029 0.651815 7.70509 6.1267 7.70509 14.8828C7.70509 23.6389 12.7024 29.0947 20.6723 29.0947C28.6228 29.0947 33.6205 23.6389 33.6205 14.8828C33.6205 6.1267 28.6232 0.651815 20.6723 0.651815ZM20.6723 4.84859C25.5372 4.84859 28.6417 8.74014 28.6417 14.8827C28.6417 21.0061 25.5371 24.8978 20.6723 24.8978C15.7884 24.8978 12.7029 21.0062 12.7029 14.8827C12.7029 8.74024 15.7885 4.84859 20.6723 4.84859ZM35.6089 20.8918C35.8171 25.9663 39.9438 29.0946 46.2286 29.0946C52.8353 29.0946 57 25.8135 57 20.5866C57 16.4853 54.6527 14.177 49.1062 12.899L45.9638 12.1741C42.6132 11.3729 41.2313 10.3047 41.2313 8.47336C41.2313 6.18422 43.3136 4.65813 46.3992 4.65813C49.5226 4.65813 51.6615 6.20332 51.8888 8.77858H56.5456C56.432 3.93323 52.4567 0.651961 46.4372 0.651961C40.493 0.651961 36.2715 3.95213 36.2715 8.83571C36.2715 12.7654 38.6567 15.2072 43.6919 16.3709L47.2318 17.2103C50.6771 18.0306 52.0779 19.1751 52.0779 21.1591C52.0779 23.4482 49.7873 25.0888 46.4937 25.0888C43.162 25.0888 40.6445 23.4291 40.3416 20.892L35.6089 20.8918Z" fill="black"/>
</svg>
