<svg width="520" height="141" viewBox="0 0 520 141" fill="none" xmlns="http://www.w3.org/2000/svg">
<path d="M226.767 92.5327C228.122 91.8224 229.738 91.8224 231.092 92.5327L250.366 102.642C251.9 103.446 252.86 105.034 252.86 106.765V126.235C252.86 127.966 251.899 129.554 250.366 130.358L231.092 140.467C229.738 141.178 228.122 141.178 226.767 140.467L207.493 130.358C205.96 129.554 205 127.966 205 126.235V106.765C205 105.034 205.96 103.446 207.493 102.642L226.767 92.5327Z" fill="#FF891E"/>
<path fill-rule="evenodd" clip-rule="evenodd" d="M249.52 104.255L230.246 94.1461C229.422 93.7138 228.438 93.7138 227.614 94.1461L208.34 104.255C207.406 104.744 206.822 105.711 206.822 106.765V126.235C206.822 127.289 207.406 128.256 208.34 128.745L227.614 138.854C228.438 139.286 229.422 139.286 230.246 138.854L249.52 128.745C250.453 128.256 251.038 127.289 251.038 126.235V106.765C251.038 105.711 250.453 104.744 249.52 104.255ZM231.092 92.5327C229.738 91.8224 228.122 91.8224 226.767 92.5327L207.493 102.642C205.96 103.446 205 105.034 205 106.765V126.235C205 127.966 205.96 129.554 207.493 130.358L226.767 140.467C228.122 141.178 229.738 141.178 231.092 140.467L250.366 130.358C251.899 129.554 252.86 127.966 252.86 126.235V106.765C252.86 105.034 251.9 103.446 250.366 102.642L231.092 92.5327Z" fill="#FFE4AD"/>
<path d="M213.241 122.515H215.781V121.453H214.57V113.631H215.781V112.568H213.241V122.515Z" fill="white"/>
<path d="M220.219 120.56C222.526 120.56 224.226 118.944 224.226 116.734C224.226 114.523 222.526 112.908 220.219 112.908C217.913 112.908 216.213 114.534 216.213 116.734C216.213 118.934 217.913 120.56 220.219 120.56ZM220.219 119.348C218.721 119.348 217.605 118.254 217.605 116.734C217.605 115.214 218.721 114.119 220.219 114.119C221.718 114.119 222.834 115.214 222.834 116.734C222.834 118.254 221.718 119.348 220.219 119.348Z" fill="white"/>
<path d="M228.496 114.715C227.774 114.715 227.136 114.959 226.679 115.469V112.568H225.35V120.454H226.615V119.72C227.061 120.262 227.72 120.528 228.496 120.528C230.154 120.528 231.376 119.38 231.376 117.616C231.376 115.852 230.154 114.715 228.496 114.715ZM228.347 119.391C227.391 119.391 226.658 118.7 226.658 117.616C226.658 116.532 227.391 115.841 228.347 115.841C229.304 115.841 230.027 116.532 230.027 117.616C230.027 118.7 229.304 119.391 228.347 119.391Z" fill="white"/>
<path d="M233.146 113.843C233.646 113.843 233.997 113.482 233.997 113.014C233.997 112.578 233.635 112.249 233.146 112.249C232.657 112.249 232.296 112.6 232.296 113.046C232.296 113.492 232.657 113.843 233.146 113.843ZM231.839 122.59C233.104 122.59 233.816 121.803 233.816 120.56V114.778H232.487V120.592C232.487 121.198 232.211 121.495 231.722 121.495C231.425 121.495 231.148 121.421 230.946 121.272L230.564 122.26C230.872 122.494 231.35 122.59 231.839 122.59Z" fill="white"/>
<path d="M238.916 120.56C240.138 120.56 241.18 120.124 241.871 119.316L240.978 118.466C240.436 119.061 239.767 119.348 238.991 119.348C237.45 119.348 236.334 118.264 236.334 116.734C236.334 115.204 237.45 114.119 238.991 114.119C239.767 114.119 240.436 114.406 240.978 114.991L241.871 114.151C241.18 113.344 240.138 112.908 238.927 112.908C236.642 112.908 234.942 114.513 234.942 116.734C234.942 118.955 236.642 120.56 238.916 120.56Z" fill="white"/>
<path d="M244.693 122.515V112.568H242.164V113.631H243.365V121.453H242.164V122.515H244.693Z" fill="white"/>
<path fill-rule="evenodd" clip-rule="evenodd" d="M413.329 46.0903L408.725 37.1719L404.016 46.0903H398.953L406.132 34.5802L399.671 23.1409H404.805L408.997 31.8319L413.54 23.1409H418.235L411.599 34.5093L418.34 46.0903H413.329ZM429.746 46.0903V43.5925H429.676C428.426 45.5529 426.656 46.5331 424.367 46.5331C422.603 46.5331 421.213 46.0489 420.197 45.0805C419.181 44.1003 418.672 42.7895 418.672 41.148C418.672 37.6287 420.629 35.627 424.542 35.1428L429.781 34.4165C429.781 31.9483 428.648 30.7142 426.382 30.7142C424.221 30.7142 422.235 31.3873 420.425 32.7336V29.1199C421.102 28.7066 422.072 28.3346 423.333 28.0039C424.606 27.6732 425.763 27.5079 426.802 27.5079C431.428 27.5079 433.741 29.8698 433.741 34.5936V46.0903H429.746ZM425.909 37.7822C424.706 37.9357 423.859 38.2369 423.368 38.6856C422.889 39.1226 422.65 39.8017 422.65 40.7228C422.65 41.4786 422.924 42.0986 423.473 42.5828C424.022 43.0552 424.741 43.2914 425.628 43.2914C426.832 43.2914 427.824 42.8721 428.607 42.0337C429.39 41.1952 429.781 40.15 429.781 38.8982V37.2685L425.909 37.7822ZM459.574 46.0903V35.8513C459.574 34.1626 459.311 32.9108 458.785 32.0959C458.271 31.2692 457.349 30.8559 456.017 30.8559C454.954 30.8559 454.06 31.3519 453.336 32.3439C452.612 33.3241 452.25 34.511 452.25 35.9045V46.0903H448.203V35.4971C448.203 32.403 447.029 30.8559 444.681 30.8559C443.583 30.8559 442.678 31.3224 441.965 32.2553C441.264 33.1883 440.914 34.4047 440.914 35.9045V46.0903H436.866V27.9507H440.914V30.7496H440.984C442.28 28.5885 444.173 27.5079 446.661 27.5079C447.852 27.5079 448.903 27.8268 449.815 28.4645C450.737 29.0904 451.386 29.9584 451.759 31.0685C453.126 28.6948 455.135 27.5079 457.787 27.5079C461.688 27.5079 463.639 29.9643 463.639 34.8771V46.0903H459.574ZM477.094 46.0903V43.5925H477.024C475.774 45.5529 474.005 46.5331 471.715 46.5331C469.951 46.5331 468.561 46.0489 467.545 45.0805C466.529 44.1003 466.021 42.7895 466.021 41.148C466.021 37.6287 467.977 35.627 471.89 35.1428L477.129 34.4165C477.129 31.9483 475.996 30.7142 473.73 30.7142C471.569 30.7142 469.584 31.3873 467.773 32.7336V29.1199C468.45 28.7066 469.42 28.3346 470.681 28.0039C471.955 27.6732 473.111 27.5079 474.151 27.5079C478.776 27.5079 481.089 29.8698 481.089 34.5936V46.0903H477.094ZM473.257 37.7822C472.054 37.9357 471.207 38.2369 470.717 38.6856C470.238 39.1226 469.998 39.8017 469.998 40.7228C469.998 41.4786 470.273 42.0986 470.822 42.5828C471.371 43.0552 472.089 43.2914 472.977 43.2914C474.18 43.2914 475.173 42.8721 475.955 42.0337C476.738 41.1952 477.129 40.15 477.129 38.8982V37.2685L473.257 37.7822ZM494.647 31.9365C493.981 31.5231 493.198 31.3165 492.299 31.3165C491.131 31.3165 490.179 31.8243 489.443 32.8399C488.719 33.8555 488.357 35.1782 488.357 36.8079V46.0903H484.309V27.9507H488.357V31.4759H488.427C489.291 28.9132 490.821 27.6319 493.017 27.6319C493.73 27.6319 494.273 27.7146 494.647 27.8799L494.647 31.9365ZM498.676 23.8942C497.987 23.8942 497.403 23.6698 496.924 23.221C496.445 22.7605 496.205 22.1995 496.205 21.5381C496.205 20.8532 496.445 20.2804 496.924 19.8199C497.403 19.3593 497.987 19.129 498.676 19.129C499.377 19.129 499.967 19.3652 500.446 19.8376C500.924 20.2982 501.164 20.865 501.164 21.5381C501.164 22.1995 500.924 22.7605 500.446 23.221C499.967 23.6698 499.377 23.8942 498.676 23.8942ZM496.608 46.0903V27.9507H500.656V46.0903H496.608ZM515.953 46.0903V35.9045C515.953 32.5388 514.755 30.8559 512.361 30.8559C511.158 30.8559 510.147 31.3224 509.33 32.2553C508.524 33.1765 508.121 34.3516 508.121 35.7805V46.0903H504.073V27.9507H508.121V30.8559H508.191C509.499 28.6239 511.438 27.5079 514.008 27.5079C518.003 27.5079 520 29.9879 520 34.9479V46.0903H515.953ZM355.135 14C353.905 14.0026 352.702 14.7091 352.083 15.7868L342.457 32.7132C341.848 33.7938 341.848 35.2062 342.457 36.2868L352.083 53.2132C352.702 54.2909 353.905 54.9976 355.135 55H374.386C375.616 54.9974 376.819 54.2909 377.438 53.2132L387.064 36.2868C387.673 35.2062 387.673 33.7938 387.064 32.7132L377.438 15.7868C376.819 14.7091 375.616 14.0024 374.386 14H355.135ZM355.309 23.9022C355.336 23.8996 355.363 23.8996 355.39 23.9022H358.711C358.858 23.9053 359 23.9913 359.074 24.1204L364.707 34.2818C364.735 34.332 364.753 34.388 364.76 34.4454C364.767 34.388 364.785 34.332 364.814 34.2818L370.433 24.1204C370.509 23.9874 370.658 23.9009 370.81 23.9022H374.13C374.424 23.9048 374.644 24.2797 374.507 24.5432L369.008 34.5L374.507 44.4431C374.658 44.7081 374.432 45.1004 374.13 45.0978H370.81C370.656 45.0965 370.505 45.004 370.433 44.8659L364.814 34.7046C364.785 34.6543 364.767 34.5984 364.76 34.5409C364.753 34.5984 364.735 34.6544 364.707 34.7046L359.074 44.8659C359.003 45.0001 358.86 45.0917 358.711 45.0978H355.39C355.088 45.1004 354.863 44.7081 355.014 44.4431L360.512 34.5L355.014 24.5432C354.882 24.3028 355.043 23.9535 355.309 23.9022Z" fill="#3498DB"/>
<path d="M352.508 107.88C352.506 107.485 352.5 107.09 352.49 106.695C352.466 105.835 352.416 104.967 352.262 104.116C352.115 103.262 351.841 102.435 351.448 101.662C350.653 100.109 349.384 98.8467 347.822 98.0557C347.045 97.6659 346.214 97.3936 345.356 97.2476C344.498 97.0945 343.625 97.0437 342.76 97.0206C342.361 97.0095 341.964 97.0048 341.567 97.0024C341.095 97 340.623 97 340.151 97H325.359C324.887 97 324.416 97 323.944 97.0024C323.547 97.0056 323.149 97.0103 322.751 97.0206C322.535 97.0262 322.318 97.0341 322.101 97.0444C321.45 97.0754 320.798 97.1326 320.155 97.2476C319.515 97.3585 318.888 97.5379 318.286 97.7826C317.277 98.1977 316.36 98.8062 315.588 99.5733C314.972 100.185 314.457 100.89 314.062 101.662C313.659 102.447 313.405 103.251 313.249 104.115C313.095 104.967 313.044 105.835 313.021 106.695C313.01 107.091 313.005 107.486 313.002 107.88C313 108.35 313 108.819 313 109.289V123.995C313 124.465 313 124.934 313.002 125.403C313.006 125.798 313.01 126.193 313.021 126.588C313.045 127.449 313.095 128.317 313.249 129.167C313.396 130.021 313.67 130.849 314.062 131.622C314.857 133.176 316.127 134.439 317.689 135.229C318.479 135.628 319.287 135.882 320.156 136.037C321.012 136.19 321.886 136.241 322.751 136.264C323.149 136.274 323.547 136.279 323.944 136.282C324.415 136.285 324.887 136.284 325.359 136.284H340.151C340.622 136.284 341.094 136.285 341.566 136.282C341.964 136.279 342.36 136.274 342.758 136.264C343.624 136.24 344.498 136.19 345.354 136.037C346.212 135.891 347.044 135.619 347.821 135.229C349.383 134.438 350.653 133.176 351.448 131.622C351.85 130.837 352.105 130.033 352.261 129.169C352.415 128.318 352.466 127.45 352.489 126.589C352.5 126.194 352.505 125.799 352.507 125.404C352.51 124.934 352.509 124.465 352.509 123.996V109.289C352.509 108.819 352.509 108.35 352.507 107.88H352.508Z" fill="#F05138"/>
<path d="M344.307 121.249L344.305 121.246C344.348 121.098 344.393 120.951 344.432 120.799C346.072 114.303 342.069 106.623 335.297 102.58C338.265 106.58 339.576 111.425 338.41 115.662C338.306 116.041 338.182 116.404 338.044 116.756C337.851 116.633 337.653 116.516 337.451 116.408C337.451 116.408 330.714 112.272 323.412 104.957C323.221 104.764 327.306 110.762 331.942 115.632C329.758 114.414 323.67 110.009 319.817 106.503C320.29 107.288 320.854 108.044 321.472 108.772C324.69 112.829 328.888 117.836 333.916 121.681C330.383 123.831 325.391 123.997 320.421 121.684C319.204 121.115 318.047 120.429 316.966 119.634C319.188 123.144 322.426 125.903 326.253 127.552C330.957 129.561 335.634 129.425 339.117 127.585L339.114 127.589C339.13 127.579 339.15 127.568 339.167 127.557C339.31 127.482 339.452 127.403 339.59 127.321C341.264 126.458 344.57 125.582 346.344 129.014C346.779 129.854 347.702 125.402 344.308 121.249L344.307 121.249Z" fill="white"/>
<path d="M367.505 122.494C367.814 125.219 370.429 127.005 374.059 127.005C377.509 127.005 379.996 125.22 379.996 122.746C379.996 120.617 378.489 119.317 375.021 118.451L371.663 117.601C366.834 116.411 364.655 114.244 364.655 110.671C364.655 106.266 368.522 103.216 374.023 103.216C379.36 103.216 383.155 106.284 383.282 110.707H379.742C379.469 107.999 377.254 106.338 373.932 106.338C370.646 106.338 368.359 108.017 368.359 110.471C368.359 112.384 369.775 113.522 373.26 114.407L376.057 115.129C381.467 116.446 383.681 118.54 383.681 122.313C383.681 127.115 379.85 130.129 373.75 130.129C368.086 130.129 364.219 127.132 363.929 122.493H367.505V122.494ZM406.169 129.695H402.611L398.453 115.292H398.382L394.241 129.695H390.684L385.419 110.832H388.868L392.535 125.977H392.608L396.747 110.832H400.088L404.264 125.977H404.336L408.004 110.832H411.416L406.169 129.695ZM413.713 105.761C413.713 104.624 414.658 103.703 415.802 103.703C416.964 103.703 417.908 104.624 417.908 105.761C417.908 106.898 416.964 107.836 415.802 107.836C415.249 107.833 414.72 107.613 414.329 107.225C413.938 106.836 413.717 106.31 413.714 105.761H413.713ZM414.077 110.832H417.544V129.695H414.077V110.832ZM440.188 113.613V110.832H436.522V106.32H433.071V110.832H426.444V109.172C426.461 107.493 427.114 106.789 428.677 106.789C429.184 106.789 429.693 106.844 430.111 106.916V104.207C429.504 104.113 428.891 104.065 428.278 104.063C424.573 104.063 423.012 105.598 423.012 109.117V110.832H420.362V113.612H423.012V129.695H426.461V113.613H433.072V124.749C433.072 128.395 434.469 129.803 438.101 129.803C438.882 129.803 439.771 129.749 440.171 129.659V126.843C439.737 126.896 439.3 126.926 438.863 126.933C437.247 126.933 436.522 126.175 436.522 124.478V113.613H440.188Z" fill="black"/>
<path d="M43.2792 106.406C43.2789 105.582 43.1039 104.854 42.7502 104.229C42.4027 103.615 41.8823 103.1 41.1842 102.693C35.4223 99.346 29.6547 96.0096 23.8947 92.6595C22.3418 91.7565 20.8361 91.7894 19.2948 92.7054C17.0014 94.0679 5.51894 100.694 2.09733 102.691C0.688211 103.512 0.00254334 104.77 0.00220615 106.404C1.00937e-08 113.135 0.00220614 119.865 0 126.595C0.000337184 127.401 0.167821 128.115 0.505997 128.73C0.853662 129.364 1.38135 129.893 2.09547 130.309C5.51724 132.305 17.0012 138.931 19.2941 140.294C20.8361 141.211 22.3418 141.244 23.8951 140.34C29.6554 136.99 35.4233 133.654 41.1861 130.307C41.9002 129.891 42.4279 129.361 42.7756 128.729C43.1133 128.113 43.2811 127.399 43.2814 126.594C43.2814 126.594 43.2814 113.137 43.2792 106.406Z" fill="#7F8B99"/>
<path d="M21.7067 116.433L0.505859 128.729C0.853525 129.362 1.3812 129.891 2.09532 130.307C5.5171 132.304 17.001 138.93 19.294 140.293C20.836 141.209 22.3416 141.242 23.8951 140.338C29.6553 136.988 35.4232 133.652 41.1859 130.305C41.9001 129.889 42.4277 129.36 42.7754 128.727L21.7067 116.433Z" fill="#A9B9CB"/>
<path d="M15.4277 120.075C16.6614 122.244 18.9806 123.707 21.641 123.707C24.3178 123.707 26.6502 122.226 27.8775 120.033L21.7072 116.433L15.4277 120.075Z" fill="#A9B9CB"/>
<path d="M43.2793 106.404C43.279 105.58 43.104 104.852 42.7503 104.228L21.707 116.433L42.7756 128.727C43.1134 128.112 43.2812 127.398 43.2815 126.592C43.2815 126.592 43.2815 113.135 43.2793 106.404Z" fill="#A9B9CB"/>
<path d="M27.8773 120.033C26.6499 122.226 24.3175 123.708 21.6407 123.708C18.9803 123.708 16.6611 122.245 15.4275 120.075C14.8077 118.987 14.4822 117.753 14.4835 116.498C14.4835 112.517 17.688 109.289 21.6407 109.289C24.284 109.289 26.5909 110.734 27.8307 112.881L34.0865 109.253C31.6 104.929 26.9578 102.021 21.6407 102.021C13.7025 102.021 7.26758 108.503 7.26758 116.498C7.26758 119.122 7.96037 121.582 9.17116 123.703C11.6514 128.05 16.3068 130.977 21.6407 130.977C26.9844 130.977 31.6471 128.038 34.1237 123.679L27.8773 120.033Z" fill="white"/>
<path d="M144.928 106.414C144.927 105.592 144.754 104.866 144.403 104.243C144.058 103.63 143.542 103.117 142.85 102.711C137.135 99.3731 131.414 96.0456 125.701 92.7046C124.16 91.804 122.667 91.8368 121.138 92.7504C118.863 94.1092 107.474 100.718 104.08 102.709C102.683 103.528 102.003 104.782 102.002 106.413C102 113.125 102.002 119.837 102 126.549C102 127.353 102.166 128.065 102.502 128.678C102.847 129.31 103.37 129.837 104.078 130.253C107.472 132.244 118.863 138.852 121.137 140.211C122.667 141.125 124.16 141.158 125.701 140.257C131.415 136.915 137.136 133.588 142.852 130.251C143.56 129.836 144.083 129.307 144.428 128.677C144.763 128.063 144.929 127.351 144.93 126.547C144.93 126.547 144.93 113.126 144.928 106.414" fill="#5C8DBC"/>
<path d="M123.531 116.414L102.502 128.677C102.847 129.308 103.37 129.836 104.079 130.251C107.472 132.242 118.863 138.851 121.137 140.21C122.667 141.124 124.16 141.156 125.701 140.255C131.415 136.914 137.136 133.587 142.852 130.249C143.56 129.834 144.083 129.306 144.428 128.675L123.531 116.414" fill="#1A4674"/>
<path d="M117.302 120.046C118.525 122.21 120.826 123.669 123.465 123.669C126.12 123.669 128.433 122.192 129.65 120.005L123.53 116.414L117.302 120.046" fill="#1A4674"/>
<path d="M144.927 106.413C144.927 105.591 144.753 104.865 144.403 104.242L123.53 116.414L144.428 128.676C144.763 128.062 144.929 127.35 144.929 126.546C144.929 126.546 144.929 113.125 144.927 106.413" fill="#1B598E"/>
<path d="M143.778 117.29H142.145V118.944H140.512V117.29H138.879V115.636H140.512V113.982H142.145V115.636H143.778V117.29ZM137.82 117.29H136.187V118.944H134.554V117.29H132.921V115.636H134.554V113.982H136.187V115.636H137.82V117.29Z" fill="white"/>
<path d="M129.65 120.004C128.433 122.191 126.119 123.669 123.464 123.669C120.826 123.669 118.525 122.21 117.302 120.046C116.687 118.96 116.364 117.73 116.365 116.479C116.365 112.508 119.544 109.289 123.464 109.289C126.086 109.289 128.374 110.73 129.604 112.872L135.809 109.253C133.343 104.941 128.738 102.04 123.464 102.04C115.591 102.04 109.208 108.505 109.208 116.479C109.208 119.095 109.895 121.548 111.096 123.665C113.556 127.999 118.174 130.918 123.464 130.918C128.765 130.918 133.389 127.988 135.846 123.64L129.65 120.004Z" fill="white"/>
<path fill-rule="evenodd" clip-rule="evenodd" d="M13.7981 44.9284C13.7981 44.9284 11.5793 46.2195 15.3788 46.6556C19.9832 47.1814 22.335 47.1058 27.4073 46.1462C27.4073 46.1462 28.7427 46.9824 30.6068 47.7058C19.2328 52.5795 4.86549 47.4238 13.7981 44.9284ZM12.4077 38.5684C12.4077 38.5684 9.91853 40.4108 13.7214 40.804C18.64 41.312 22.5225 41.3534 29.2449 40.0599C29.2449 40.0599 30.1731 41.0021 31.6338 41.5168C17.8839 45.5385 2.57006 41.8334 12.4077 38.5684Z" fill="#3174B9"/>
<path fill-rule="evenodd" clip-rule="evenodd" d="M24.1236 27.7776C26.9275 31.0051 23.3886 33.9078 23.3886 33.9078C23.3886 33.9078 30.5048 30.235 27.2364 25.634C24.1848 21.3453 21.8441 19.2147 34.5145 11.8672C34.514 11.8667 14.6252 16.8325 24.1236 27.7776Z" fill="#EE282F"/>
<path fill-rule="evenodd" clip-rule="evenodd" d="M39.1661 49.6332C39.1661 49.6332 40.8085 50.9874 37.357 52.0346C30.7935 54.0226 10.0344 54.6221 4.26809 52.1137C2.19676 51.2115 6.08304 49.9609 7.3057 49.6968C8.58089 49.4211 9.3086 49.4713 9.3086 49.4713C7.00353 47.8481 -5.59076 52.6592 2.91242 54.0395C26.0991 57.799 45.1796 52.3469 39.1661 49.6332ZM14.8657 31.9782C14.8657 31.9782 4.30761 34.4866 11.1274 35.3984C14.0079 35.7835 19.7458 35.6948 25.0947 35.2461C29.4649 34.8794 33.8514 34.0948 33.8514 34.0948C33.8514 34.0948 32.3116 34.7555 31.196 35.516C20.4725 38.3367 -0.239882 37.023 5.72352 34.1396C10.7655 31.7006 14.8657 31.9782 14.8657 31.9782V31.9782ZM33.8075 42.5647C44.7074 36.902 39.6678 31.4591 36.1492 32.1926C35.289 32.3724 34.903 32.5276 34.903 32.5276C34.903 32.5276 35.2239 32.0254 35.8341 31.8095C42.7936 29.3637 48.145 39.0249 33.5902 42.851C33.5897 42.851 33.7574 42.6997 33.8075 42.5647V42.5647Z" fill="#3174B9"/>
<path fill-rule="evenodd" clip-rule="evenodd" d="M27.2361 0C27.2361 0 33.2713 6.03907 21.5103 15.3225C12.0784 22.7722 19.3599 27.0185 21.5074 31.872C16.0009 26.9047 11.9618 22.5312 14.6712 18.4618C18.6491 12.4883 29.6713 9.59138 27.2361 0V0Z" fill="#EE282F"/>
<path fill-rule="evenodd" clip-rule="evenodd" d="M15.9382 57.9133C26.3989 58.5822 42.466 57.5417 42.8472 52.5908C42.8472 52.5908 42.1157 54.4675 34.2009 55.9561C25.2712 57.6371 14.2557 57.4415 7.72461 56.3634C7.72461 56.3634 9.06293 57.4708 15.9382 57.9133V57.9133Z" fill="#3174B9"/>
<path fill-rule="evenodd" clip-rule="evenodd" d="M110.957 29.3576H110.533V29.1165H111.678V29.3576H111.254V30.5617H110.957V29.3576ZM113.241 29.4175H113.236L112.814 30.561H112.621L112.202 29.4175H112.197V30.561H111.915V29.1159H112.328L112.716 30.1382L113.104 29.1159H113.514V30.561H113.241V29.4175H113.241V29.4175ZM73.4443 42.9265C72.1292 44.0824 70.7389 44.7326 69.4906 44.7326C67.7123 44.7326 66.7473 43.6491 66.7473 41.9152C66.7473 40.0381 67.7804 38.6646 71.9152 38.6646H73.4437V42.9265H73.4443V42.9265ZM77.0742 47.0796V34.2228C77.0742 30.937 75.2265 28.7686 70.7723 28.7686C68.1736 28.7686 65.8954 29.4195 64.0432 30.2489L64.5765 32.5262C66.0355 31.9827 67.9217 31.4791 69.7733 31.4791C72.3393 31.4791 73.4437 32.5262 73.4437 34.6939V36.3196H72.1613C65.9282 36.3196 63.1155 38.7721 63.1155 42.4593C63.1155 45.6363 64.969 47.4425 68.4582 47.4425C70.701 47.4425 72.3765 46.5036 73.9409 45.1294L74.2255 47.0796H77.0742V47.0796ZM89.189 47.0796H84.6629L79.2129 29.0957H83.1666L86.5491 40.1469L87.3021 43.4673C89.0085 38.6646 90.2195 33.7889 90.8253 29.0957H94.6698C93.6406 35.0171 91.7864 41.5184 89.189 47.0796V47.0796ZM106.559 42.9265C105.24 44.0824 103.85 44.7326 102.604 44.7326C100.826 44.7326 99.8621 43.6491 99.8621 41.9152C99.8621 40.0381 100.896 38.6646 105.028 38.6646H106.559V42.9265V42.9265ZM110.19 47.0796V34.2228C110.19 30.937 108.337 28.7686 103.887 28.7686C101.286 28.7686 99.0083 29.4195 97.1561 30.2489L97.6893 32.5262C99.1484 31.9827 101.038 31.4791 102.891 31.4791C105.453 31.4791 106.558 32.5262 106.558 34.6939V36.3196H105.276C99.0424 36.3196 96.2316 38.7721 96.2316 42.4593C96.2316 45.6363 98.0812 47.4425 101.571 47.4425C103.816 47.4425 105.489 46.5036 107.057 45.1294L107.343 47.0796H110.19V47.0796ZM59.1355 50.1354C58.1011 51.6686 56.4282 52.8824 54.5991 53.5672L52.8066 51.4262C54.2001 50.701 55.3938 49.5301 55.9495 48.4407C56.4282 47.4699 56.628 46.2214 56.628 43.2334V22.6992H60.4859V42.9499C60.4859 46.9466 60.1711 48.5619 59.1355 50.1354V50.1354Z" fill="#EE282F"/>
<g clip-path="url(#clip0)">
<path d="M201.869 22.0244H207.173V32.7538L216.954 22.0244H223.361L213.545 32.4381L223.808 46.5688H217.437L209.963 36.12L207.173 39.0652V46.5686H201.869V22.0244Z" fill="#000400"/>
<path d="M220.989 37.2774V37.2077C220.989 31.8078 225.26 27.4248 231.012 27.4248C236.729 27.4248 240.966 31.7377 240.966 37.1374V37.2077C240.966 42.6074 236.695 46.9901 230.943 46.9901C225.226 46.9901 220.989 42.6773 220.989 37.2774V37.2774ZM235.799 37.2774V37.2077C235.799 34.4374 233.836 32.0182 230.943 32.0182C227.946 32.0182 226.156 34.3672 226.156 37.1374V37.2077C226.156 39.9776 228.119 42.3969 231.012 42.3969C234.008 42.3969 235.799 40.0477 235.799 37.2774V37.2774Z" fill="#000400"/>
<path d="M242.41 41.2393V32.3332H240.206V27.7752H242.41V22.9713H247.645V27.775H251.985V32.3332H247.645V40.3629C247.645 41.5899 248.162 42.1862 249.333 42.1862C250.236 42.1906 251.125 41.9612 251.916 41.5196V45.7975C250.814 46.4637 249.54 46.8845 247.783 46.8845C244.58 46.8845 242.41 45.5871 242.41 41.2393V41.2393ZM253.488 20.9727H258.723V46.5688H253.488V20.9727ZM260.615 20.9727H266.126V25.7062H260.615V20.9727ZM260.753 27.775H265.988V46.5688H260.753L260.753 27.775ZM267.98 27.775H273.215V30.4397C274.42 28.8619 275.97 27.4243 278.622 27.4243C282.583 27.4243 284.89 30.0892 284.89 34.4021V46.5688H279.655V36.085C279.655 33.5605 278.484 32.2631 276.487 32.2631C274.489 32.2631 273.215 33.5605 273.215 36.085V46.5688H267.979L267.98 27.775Z" fill="#000400"/>
<path d="M182.102 22.0117L170 34.9685V46.5514L182.085 34.2268L194.105 22.0117H182.102Z" fill="url(#paint0_linear)"/>
<path d="M170 46.5511L182.085 34.2266L194.105 46.5511H170Z" fill="url(#paint1_linear)"/>
<path d="M170 22.0117H182.102L170 34.9685V22.0117Z" fill="url(#paint2_linear)"/>
</g>
<defs>
<linearGradient id="paint0_linear" x1="165.942" y1="44.5734" x2="188.774" y2="22.1464" gradientUnits="userSpaceOnUse">
<stop offset="0.108" stop-color="#C757BC"/>
<stop offset="0.173" stop-color="#CD5CA9"/>
<stop offset="0.492" stop-color="#E8744F"/>
<stop offset="0.716" stop-color="#F88316"/>
<stop offset="0.823" stop-color="#FF8900"/>
</linearGradient>
<linearGradient id="paint1_linear" x1="177.693" y1="50.9785" x2="188.821" y2="40.047" gradientUnits="userSpaceOnUse">
<stop offset="0.296" stop-color="#00AFFF"/>
<stop offset="0.694" stop-color="#5282FF"/>
<stop offset="1" stop-color="#945DFF"/>
</linearGradient>
<linearGradient id="paint2_linear" x1="149.438" y1="605.638" x2="731.373" y2="62.0841" gradientUnits="userSpaceOnUse">
<stop offset="0.296" stop-color="#00AFFF"/>
<stop offset="0.694" stop-color="#5282FF"/>
<stop offset="1" stop-color="#945DFF"/>
</linearGradient>
<clipPath id="clip0">
<rect x="170" y="20.9619" width="115" height="26.0377" fill="white"/>
</clipPath>
</defs>
</svg>
