<svg width="400" height="53" viewBox="0 0 400 53" fill="none" xmlns="http://www.w3.org/2000/svg">
<path d="M118.718 28.9487L113.783 31.0623L118.354 33.0111L123.654 31.0623L118.718 28.9487ZM111.298 31.5907L111.133 41.102L118.353 44.2724V34.3977L111.298 31.5907ZM126.138 31.5907L119.613 34.0679V43.3805L126.138 40.7385V31.5907ZM133.923 2L128.954 4.11367L133.558 6.06241L138.859 4.11367L133.923 2ZM127.033 4.80798V14.3193L133.194 16.1031L133.393 7.44996L127.033 4.80798ZM140.813 5.33634L134.983 7.81354V17.16L140.813 14.518V5.33634H140.813ZM110.586 15.3867L105.65 17.5003L110.221 19.4491L115.521 17.5003L110.586 15.3867ZM103.165 18.0287L103 27.54L110.221 30.7104V20.8356L103.165 18.0287ZM118.006 18.0287L111.48 20.5058V29.8185L118.006 27.1764V18.0287ZM126.486 15.0358L121.551 17.1494L126.121 19.0982L131.422 17.1494L126.486 15.0358ZM119.066 17.6778L118.9 27.1891L126.121 30.3596V20.4858L119.066 17.6778ZM133.906 17.6778L127.381 20.155V29.4676L133.906 26.8256V17.6778ZM149.454 2L144.518 4.11362L149.089 6.06237L154.389 4.11362L149.454 2ZM142.033 4.64202L141.868 14.1533L149.089 17.3237V7.44996L142.033 4.64202ZM156.874 4.64202L150.348 7.11917V16.4318L156.874 13.7898V4.64202Z" fill="#F7A80D"/>
<path d="M30.8962 1L16.3839 13.7105L4 36.1608H15.1659L30.8962 1ZM32.8267 3.97389L26.6332 21.605L38.5086 36.6744L15.4704 40.6724H53.228L32.8267 3.97389Z" fill="#0072C6"/>
<path d="M257.752 37.7573L266.705 22.3289L257.752 6.90027H239.847L230.895 22.3289L239.847 37.7573H257.752" fill="#CAC9C2"/>
<path d="M248.501 29.3714C252.348 29.3714 255.479 26.2565 255.479 22.4279C255.479 18.5995 252.348 15.4849 248.501 15.4849C244.653 15.4849 241.522 18.5995 241.522 22.4279C241.522 26.2565 244.653 29.3714 248.501 29.3714Z" fill="white"/>
<path d="M234.462 1.72775C235.011 0.782242 236.358 0.00878906 237.455 0.00878906H259.517C260.614 0.00878906 261.961 0.782441 262.509 1.72775L268.956 12.8376C269.006 13.5553 268.874 14.305 268.556 14.8529L264.192 22.2762L256.403 8.88626H231.781C231.199 8.88626 230.547 9.10569 229.98 9.45138L234.462 1.72775Z" fill="#5072AA"/>
<path d="M268.675 12.3513L268.958 12.8376C269.008 13.5553 268.876 14.305 268.558 14.8528L264.194 22.2762L261.872 18.2858L268.675 12.3513Z" fill="#4D6796"/>
<path d="M258.948 5.71612C259.305 5.71571 259.647 5.57444 259.9 5.32331C260.152 5.07218 260.294 4.7317 260.295 4.37656C260.294 4.02141 260.152 3.68093 259.9 3.4298C259.647 3.17867 259.305 3.03741 258.948 3.03699C258.591 3.0373 258.249 3.17853 257.997 3.42967C257.744 3.68082 257.602 4.02136 257.602 4.37656C257.602 4.73174 257.744 5.07225 257.997 5.32338C258.249 5.57451 258.591 5.71576 258.948 5.71612ZM236.886 4.37656C236.884 4.54076 236.915 4.70375 236.977 4.85605C237.039 5.00836 237.13 5.14696 237.246 5.26381C237.362 5.38066 237.5 5.47344 237.652 5.53676C237.805 5.60009 237.968 5.6327 238.133 5.6327C238.298 5.6327 238.462 5.60009 238.614 5.53676C238.766 5.47344 238.904 5.38066 239.02 5.26381C239.136 5.14696 239.228 5.00836 239.289 4.85605C239.351 4.70375 239.382 4.54076 239.38 4.37656C239.376 4.05031 239.242 3.73882 239.009 3.50957C238.776 3.28033 238.461 3.15178 238.133 3.15178C237.805 3.15178 237.49 3.28033 237.257 3.50957C237.024 3.73882 236.891 4.05031 236.886 4.37656Z" fill="white"/>
<path d="M223.431 20.7386L229.98 9.45116C230.547 9.10546 231.199 8.88623 231.781 8.88623H240.66L232.983 22.3501L245.137 43.717C245.405 44.1777 245.862 44.5969 246.387 44.9063H237.455C236.357 44.9063 235.011 44.1327 234.462 43.1874L223.431 24.1767C222.882 23.2312 222.882 21.6841 223.431 20.7386Z" fill="#CC4232"/>
<path d="M229.685 9.95761L229.978 9.45116C230.544 9.10546 231.196 8.88623 231.779 8.88623H240.657L238.347 12.9392L229.685 9.95761Z" fill="#B23F33"/>
<path d="M238.133 41.6225C238.49 41.6221 238.832 41.4808 239.085 41.2296C239.337 40.9785 239.479 40.6379 239.479 40.2828C239.479 39.9276 239.337 39.5871 239.084 39.336C238.832 39.0849 238.49 38.9436 238.133 38.9432C237.776 38.9436 237.434 39.0848 237.181 39.3359C236.929 39.5871 236.787 39.9276 236.786 40.2828C236.787 40.638 236.929 40.9785 237.181 41.2297C237.434 41.4809 237.776 41.6222 238.133 41.6225ZM227.655 23.7677C228.012 23.7673 228.354 23.6261 228.607 23.3749C228.859 23.1237 229.001 22.7832 229.001 22.4279C229.001 22.0728 228.859 21.7323 228.606 21.4811C228.354 21.23 228.012 21.0887 227.655 21.0884C227.298 21.0888 226.956 21.2301 226.703 21.4812C226.451 21.7323 226.309 22.0728 226.308 22.4279C226.309 22.7831 226.451 23.1237 226.703 23.3749C226.956 23.6261 227.298 23.7673 227.655 23.7677Z" fill="white"/>
<path d="M256.233 35.8164L268.556 14.8527C268.874 14.3048 269.006 13.5552 268.956 12.8374L273.54 20.7384C274.089 21.6839 274.089 23.2311 273.54 24.1766L262.509 43.1872C261.961 44.1325 260.614 44.906 259.517 44.906H246.387C245.862 44.5968 245.405 44.1775 245.137 43.7167L240.643 35.8162H256.233" fill="#ECB02A"/>
<path d="M247.134 44.9061H246.37C245.845 44.5969 245.388 44.1777 245.121 43.7168L240.626 35.8164H245.412L247.134 44.9061Z" fill="#C79732"/>
<path d="M258.948 41.6226C259.305 41.6222 259.648 41.4809 259.9 41.2298C260.152 40.9786 260.294 40.6381 260.295 40.2829C260.294 39.9277 260.152 39.5873 259.9 39.3361C259.648 39.085 259.305 38.9437 258.948 38.9433C258.591 38.9436 258.249 39.0849 257.997 39.336C257.744 39.5871 257.602 39.9277 257.602 40.2829C257.602 40.6381 257.744 40.9787 257.997 41.2299C258.249 41.4811 258.591 41.6223 258.948 41.6226ZM269.445 23.7678C269.802 23.7675 270.144 23.6262 270.397 23.375C270.649 23.1238 270.791 22.7833 270.792 22.4281C270.791 22.0729 270.649 21.7324 270.397 21.4812C270.144 21.2301 269.802 21.0889 269.445 21.0885C269.088 21.0889 268.746 21.2302 268.493 21.4813C268.241 21.7324 268.099 22.0729 268.099 22.4281C268.099 22.7832 268.241 23.1238 268.493 23.3749C268.746 23.6261 269.088 23.7674 269.445 23.7678Z" fill="white"/>
<path d="M6.48 50.38H2.98L2.29 52H0.95L4.1 45H5.38L8.54 52H7.18L6.48 50.38ZM6.05 49.36L4.73 46.3L3.42 49.36H6.05ZM14.6702 50.9V52H8.70023V51.13L12.8202 46.1H8.77023V45H14.5402V45.87L10.4202 50.9H14.6702ZM18.6711 52.1C17.7044 52.1 16.9511 51.83 16.4111 51.29C15.8711 50.7433 15.6011 49.9633 15.6011 48.95V45H16.9011V48.9C16.9011 50.2733 17.4944 50.96 18.6811 50.96C19.8611 50.96 20.4511 50.2733 20.4511 48.9V45H21.7311V48.95C21.7311 49.9633 21.4611 50.7433 20.9211 51.29C20.3878 51.83 19.6378 52.1 18.6711 52.1ZM27.9317 52L26.5017 49.95C26.4417 49.9567 26.3517 49.96 26.2317 49.96H24.6517V52H23.3517V45H26.2317C26.8384 45 27.3651 45.1 27.8117 45.3C28.2651 45.5 28.6117 45.7867 28.8517 46.16C29.0917 46.5333 29.2117 46.9767 29.2117 47.49C29.2117 48.0167 29.0817 48.47 28.8217 48.85C28.5684 49.23 28.2017 49.5133 27.7217 49.7L29.3317 52H27.9317ZM27.9017 47.49C27.9017 47.0433 27.7551 46.7 27.4617 46.46C27.1684 46.22 26.7384 46.1 26.1717 46.1H24.6517V48.89H26.1717C26.7384 48.89 27.1684 48.77 27.4617 48.53C27.7551 48.2833 27.9017 47.9367 27.9017 47.49ZM35.7162 50.91V52H30.4662V45H35.5762V46.09H31.7662V47.91H35.1462V48.98H31.7662V50.91H35.7162Z" fill="#0072C6"/>
<path d="M139.18 33H140.54L137.38 26H136.1L132.95 33H134.29L134.98 31.38H138.48L139.18 33ZM135.42 30.36L136.73 27.3L138.05 30.36H135.42ZM149.849 26L148.059 31.35L146.289 26H145.089L143.279 31.32L141.539 26H140.189L142.509 33H143.899L145.659 27.82L147.389 33H148.769L151.089 26H149.849ZM154.118 33.1C156.038 33.1 156.948 32.14 156.948 31.02C156.948 28.45 152.798 29.42 152.798 27.93C152.798 27.4 153.238 26.98 154.318 26.98C154.928 26.98 155.618 27.16 156.248 27.53L156.658 26.52C156.048 26.12 155.168 25.9 154.328 25.9C152.408 25.9 151.508 26.86 151.508 27.99C151.508 30.59 155.668 29.6 155.668 31.11C155.668 31.63 155.208 32.02 154.118 32.02C153.258 32.02 152.368 31.7 151.808 31.25L151.358 32.26C151.938 32.76 153.028 33.1 154.118 33.1Z" fill="#F7A80D"/>
<path opacity="0.5" d="M287.72 21.6C287.27 21.86 286.78 21.96 286.28 21.96C284.8 21.96 283.75 20.92 283.75 19.5C283.75 18.05 284.8 17.04 286.29 17.04C287.04 17.04 287.67 17.29 288.22 17.84L289.04 17.04C288.38 16.29 287.4 15.9 286.23 15.9C284.04 15.9 282.44 17.41 282.44 19.5C282.44 21.59 284.04 23.1 286.21 23.1C287.2 23.1 288.22 22.8 288.95 22.21V19.42H287.72V21.6ZM293.735 23.1C295.905 23.1 297.505 21.58 297.505 19.5C297.505 17.42 295.905 15.9 293.735 15.9C291.565 15.9 289.965 17.43 289.965 19.5C289.965 21.57 291.565 23.1 293.735 23.1ZM293.735 21.96C292.325 21.96 291.275 20.93 291.275 19.5C291.275 18.07 292.325 17.04 293.735 17.04C295.145 17.04 296.195 18.07 296.195 19.5C296.195 20.93 295.145 21.96 293.735 21.96ZM301.953 23.1C304.123 23.1 305.723 21.58 305.723 19.5C305.723 17.42 304.123 15.9 301.953 15.9C299.783 15.9 298.183 17.43 298.183 19.5C298.183 21.57 299.783 23.1 301.953 23.1ZM301.953 21.96C300.543 21.96 299.493 20.93 299.493 19.5C299.493 18.07 300.543 17.04 301.953 17.04C303.363 17.04 304.413 18.07 304.413 19.5C304.413 20.93 303.363 21.96 301.953 21.96ZM311.681 21.6C311.231 21.86 310.741 21.96 310.241 21.96C308.761 21.96 307.711 20.92 307.711 19.5C307.711 18.05 308.761 17.04 310.251 17.04C311.001 17.04 311.631 17.29 312.181 17.84L313.001 17.04C312.341 16.29 311.361 15.9 310.191 15.9C308.001 15.9 306.401 17.41 306.401 19.5C306.401 21.59 308.001 23.1 310.171 23.1C311.161 23.1 312.181 22.8 312.911 22.21V19.42H311.681V21.6ZM314.425 23H319.385V21.9H315.725V16H314.425V23ZM321.511 21.91V19.98H324.891V18.91H321.511V17.09H325.321V16H320.211V23H325.461V21.91H321.511ZM286.18 33.1C287.33 33.1 288.31 32.69 288.96 31.93L288.12 31.13C287.61 31.69 286.98 31.96 286.25 31.96C284.8 31.96 283.75 30.94 283.75 29.5C283.75 28.06 284.8 27.04 286.25 27.04C286.98 27.04 287.61 27.31 288.12 27.86L288.96 27.07C288.31 26.31 287.33 25.9 286.19 25.9C284.04 25.9 282.44 27.41 282.44 29.5C282.44 31.59 284.04 33.1 286.18 33.1ZM290.006 33H294.966V31.9H291.306V26H290.006V33ZM298.935 33.1C301.105 33.1 302.705 31.58 302.705 29.5C302.705 27.42 301.105 25.9 298.935 25.9C296.765 25.9 295.165 27.43 295.165 29.5C295.165 31.57 296.765 33.1 298.935 33.1ZM298.935 31.96C297.525 31.96 296.475 30.93 296.475 29.5C296.475 28.07 297.525 27.04 298.935 27.04C300.345 27.04 301.395 28.07 301.395 29.5C301.395 30.93 300.345 31.96 298.935 31.96ZM306.893 33.1C308.803 33.1 309.953 31.99 309.953 29.95V26H308.673V29.9C308.673 31.34 308.033 31.96 306.903 31.96C305.773 31.96 305.123 31.34 305.123 29.9V26H303.823V29.95C303.823 31.99 304.973 33.1 306.893 33.1ZM311.574 33H314.634C316.904 33 318.454 31.6 318.454 29.5C318.454 27.4 316.904 26 314.634 26H311.574V33ZM312.874 31.9V27.1H314.574C316.134 27.1 317.144 28.05 317.144 29.5C317.144 30.95 316.134 31.9 314.574 31.9H312.874ZM285.82 37H282.94V44H284.24V41.98H285.82C287.66 41.98 288.8 41.03 288.8 39.49C288.8 37.94 287.66 37 285.82 37ZM285.76 40.88H284.24V38.1H285.76C286.9 38.1 287.49 38.61 287.49 39.49C287.49 40.37 286.9 40.88 285.76 40.88ZM289.898 44H294.858V42.9H291.198V37H289.898V44ZM300.973 44H302.333L299.173 37H297.893L294.743 44H296.083L296.773 42.38H300.273L300.973 44ZM297.213 41.36L298.523 38.3L299.843 41.36H297.213ZM304.092 44H305.392V38.1H307.712V37H301.772V38.1H304.092V44ZM313.598 38.09V37H308.488V44H309.788V41.32H313.168V40.22H309.788V38.09H313.598ZM317.847 44.1C320.017 44.1 321.617 42.58 321.617 40.5C321.617 38.42 320.017 36.9 317.847 36.9C315.677 36.9 314.077 38.43 314.077 40.5C314.077 42.57 315.677 44.1 317.847 44.1ZM317.847 42.96C316.437 42.96 315.387 41.93 315.387 40.5C315.387 39.07 316.437 38.04 317.847 38.04C319.257 38.04 320.307 39.07 320.307 40.5C320.307 41.93 319.257 42.96 317.847 42.96ZM328.775 44L327.165 41.7C328.115 41.33 328.655 40.55 328.655 39.49C328.655 37.94 327.515 37 325.675 37H322.795V44H324.095V41.96H325.675C325.765 41.96 325.855 41.96 325.945 41.95L327.375 44H328.775ZM327.345 39.49C327.345 40.37 326.755 40.89 325.615 40.89H324.095V38.1H325.615C326.755 38.1 327.345 38.61 327.345 39.49ZM337.569 44L337.559 37H336.489L333.759 41.64L330.979 37H329.909V44H331.149V39.42L333.449 43.2H334.029L336.329 39.36L336.339 44H337.569Z" fill="black"/>
</svg>
