<svg width="300" height="64" viewBox="0 0 300 64" fill="none" xmlns="http://www.w3.org/2000/svg">
<path d="M285.196 6H294.995L270.498 47.962L246 6H264.741L270.498 15.7303L276.132 6H285.196Z" fill="#41B883"/>
<path d="M246 6L270.498 47.962L294.995 6H285.196L270.498 31.1772L255.677 6H246Z" fill="#41B883"/>
<path d="M255.677 6L270.498 31.2988L285.196 6H276.132L270.498 15.7303L264.741 6H255.677Z" fill="#35495E"/>
<path d="M0 26.9026C0 31.4384 4.4628 35.6726 11.4984 38.0594C10.0934 45.0791 11.2468 50.7372 15.0985 52.9417C19.0576 55.2079 24.9558 53.6393 30.5541 48.7824C36.0111 53.4431 41.5261 55.2773 45.3746 53.0664C49.33 50.7938 50.5328 44.7522 49.0891 37.5132C56.4173 35.1087 60.5164 31.4981 60.5164 26.9026C60.5164 22.472 56.0455 18.6391 49.1046 16.2676C50.6589 8.72956 49.3419 3.20885 45.3306 0.913178C41.4634 -1.30011 35.8841 0.628963 30.3469 5.41152C24.5862 0.335306 19.0621 -1.21442 15.055 1.08763C11.1914 3.30729 10.0889 9.0683 11.4984 16.2178C4.70017 18.5701 0 22.4899 0 26.9026Z" fill="white"/>
<path d="M47.7393 18.3336C47.1695 18.1369 46.5949 17.9546 46.0159 17.787C46.1119 17.3943 46.2007 16.9998 46.2822 16.6038C47.5867 10.2291 46.7338 5.09368 43.8211 3.40318C41.0285 1.78185 36.4611 3.47235 31.8483 7.51328C31.3938 7.91238 30.9493 8.32297 30.5154 8.74467C30.2248 8.46426 29.9291 8.1893 29.6283 7.91993C24.794 3.59875 19.9482 1.77803 17.0386 3.47354C14.2486 5.09941 13.4222 9.9274 14.5967 15.9686C14.7135 16.5669 14.8454 17.1621 14.9923 17.7536C14.3067 17.9496 13.6445 18.1586 13.0109 18.3808C7.34331 20.37 3.72363 23.4876 3.72363 26.7213C3.72363 30.0612 7.60914 33.4112 13.5127 35.4423C13.9914 35.6062 14.4741 35.7581 14.9603 35.8978C14.8024 36.5351 14.6621 37.1767 14.5398 37.8218C13.4201 43.7581 14.2946 48.4717 17.0772 50.0875C19.9513 51.7558 24.775 50.041 29.4722 45.9078C29.8435 45.581 30.2161 45.2345 30.5893 44.8712C31.0593 45.3277 31.5419 45.771 32.0364 46.2004C36.5862 50.1416 41.0797 51.7332 43.86 50.113C46.7314 48.4397 47.6644 43.3761 46.4528 37.2153C46.3604 36.7448 46.2526 36.2642 46.1318 35.7748C46.4706 35.6741 46.803 35.5701 47.1273 35.4619C53.2645 33.415 57.2574 30.1058 57.2574 26.7213C57.2574 23.476 53.5211 20.3373 47.7393 18.3336Z" fill="#53C1DE"/>
<path d="M46.3818 33.268C46.0897 33.3654 45.7898 33.4595 45.4842 33.5507C44.8078 31.3946 43.8948 29.1017 42.7779 26.7331C43.8439 24.4205 44.7214 22.1572 45.379 20.0149C45.9256 20.1745 46.4564 20.3424 46.9677 20.5198C51.9135 22.2339 54.9301 24.7687 54.9301 26.7217C54.9301 28.8021 51.672 31.5029 46.3821 33.268H46.3818ZM44.1869 37.6477C44.7217 40.368 44.7981 42.8276 44.4438 44.7503C44.1254 46.478 43.4853 47.6298 42.6939 48.0911C41.0096 49.0728 37.4076 47.7967 33.5233 44.4309C33.078 44.0451 32.6293 43.6331 32.1794 43.1972C33.6854 41.5386 35.1904 39.6104 36.6592 37.4693C39.243 37.2385 41.684 36.861 43.8976 36.3458C44.0064 36.7888 44.1034 37.223 44.1869 37.6477ZM21.9889 47.9215C20.3434 48.5067 19.0328 48.5234 18.2407 48.0635C16.5547 47.0846 15.8541 43.3049 16.8099 38.2355C16.9236 37.6364 17.0537 37.0406 17.2002 36.4487C19.3892 36.9363 21.8124 37.2871 24.4024 37.4986C25.8809 39.5937 27.4295 41.5196 28.9901 43.206C28.6584 43.5291 28.3189 43.8439 27.9718 44.1501C25.8982 45.9754 23.8203 47.2701 21.9891 47.9215H21.9889ZM14.2798 33.2551C11.6737 32.3582 9.52159 31.1926 8.04638 29.9208C6.72088 28.7776 6.05151 27.6427 6.05151 26.7217C6.05151 24.7623 8.95298 22.2627 13.7921 20.5639C14.3994 20.3516 15.0129 20.1572 15.6315 19.9811C16.3004 22.1715 17.1777 24.4617 18.2364 26.7777C17.164 29.1282 16.2742 31.4548 15.5991 33.671C15.156 33.5433 14.7161 33.4046 14.2798 33.2551ZM16.8641 15.5426C15.8595 10.3736 16.5266 6.47457 18.2052 5.49617C19.9933 4.45395 23.9469 5.94012 28.114 9.66578C28.3803 9.90395 28.6478 10.1533 28.9158 10.4112C27.3632 12.0901 25.8289 14.0014 24.3631 16.0844C21.8496 16.319 19.4434 16.6958 17.2314 17.2005C17.0951 16.6509 16.9727 16.0981 16.8641 15.5423V15.5426ZM39.9176 21.2746C39.3951 20.3658 38.8533 19.4685 38.2924 18.5833C39.9978 18.8 41.6315 19.0882 43.1656 19.4409C42.705 20.9273 42.131 22.4816 41.455 24.0749C40.9611 23.1313 40.4485 22.1976 39.9176 21.2746ZM30.5164 12.0541C31.5694 13.2028 32.6241 14.4856 33.6615 15.8772C31.5571 15.7771 29.4492 15.7766 27.3448 15.8758C28.3831 14.497 29.4468 13.2162 30.5164 12.0541ZM21.0549 21.2903C20.5306 22.206 20.0276 23.1339 19.5463 24.0733C18.8814 22.4854 18.3126 20.9242 17.848 19.4166C19.3729 19.0729 20.999 18.7921 22.6933 18.579C22.1261 19.4697 21.5798 20.3737 21.0549 21.2903ZM22.742 35.0285C20.9917 34.8318 19.341 34.5653 17.8166 34.2311C18.2884 32.6969 18.8698 31.1021 19.5489 29.4802C20.0322 30.4202 20.5374 31.3487 21.0641 32.2648C21.6015 33.1994 22.161 34.1209 22.742 35.0285ZM30.5795 41.5517C29.4974 40.3759 28.4181 39.0755 27.364 37.6767C28.3872 37.7172 29.4305 37.7377 30.4908 37.7377C31.5803 37.7377 32.6572 37.7132 33.717 37.6655C32.6763 39.0898 31.6254 40.3921 30.5795 41.5517ZM41.4768 29.3975C42.1911 31.0371 42.7933 32.6233 43.2715 34.1316C41.7218 34.4876 40.0489 34.7744 38.286 34.9873C38.8509 34.0856 39.398 33.1726 39.9268 32.2489C40.4644 31.3101 40.9812 30.3594 41.4768 29.3975ZM37.949 31.1004C37.1394 32.5166 36.2843 33.9058 35.385 35.266C33.7994 35.3801 32.1607 35.4389 30.4908 35.4389C28.8278 35.4389 27.21 35.3867 25.652 35.285C24.7294 33.928 23.8581 32.5364 23.04 31.113C22.2257 29.6973 21.4652 28.2509 20.7599 26.777C21.4634 25.3026 22.2216 23.8554 23.0332 22.4385V22.439C23.8444 21.0217 24.7088 19.636 25.6245 18.2848C27.214 18.1639 28.8437 18.1005 30.4911 18.1005C32.1458 18.1005 33.7776 18.1643 35.3666 18.2863C36.273 19.6354 37.1319 21.0162 37.9416 22.4263C38.7559 23.8401 39.5243 25.2802 40.2456 26.7443C39.5318 28.2234 38.7658 29.6763 37.9492 31.1004H37.949ZM42.6589 5.42782C44.4485 6.46718 45.1446 10.6582 44.0201 16.1544C43.9464 16.5125 43.8663 16.8691 43.7798 17.2243C41.5626 16.7091 39.1548 16.3257 36.6339 16.0875C35.1653 13.9819 33.6437 12.0672 32.1162 10.4101C32.5165 10.0215 32.9263 9.64301 33.3452 9.27495C37.291 5.81722 40.9786 4.45204 42.6589 5.42782Z" fill="white"/>
<path d="M30.4904 21.8789C33.19 21.8789 35.3783 24.0673 35.3783 26.7666C35.3783 29.4662 33.19 31.6546 30.4904 31.6546C27.791 31.6546 25.6025 29.4662 25.6025 26.7666C25.6025 24.0673 27.791 21.8789 30.4904 21.8789Z" fill="#53C1DE"/>
<path d="M132 12.4516L152.926 5L174.416 12.3191L170.936 39.9894L152.926 49.9581L135.198 40.1219L132 12.4516Z" fill="#E23237"/>
<path d="M174.417 12.3191L152.927 5V49.9581L170.937 40.0061L174.417 12.3191Z" fill="#B52E31"/>
<path d="M152.96 10.2494L139.92 39.2445L144.792 39.1617L147.409 32.6207H159.107L161.973 39.2445L166.629 39.3272L152.96 10.2494ZM152.993 19.5391L157.4 28.7459H149.116L152.993 19.5391Z" fill="white"/>
<path d="M134.259 63H135.619L132.459 56H131.179L128.029 63H129.369L130.059 61.38H133.559L134.259 63ZM130.499 60.36L131.809 57.3L133.129 60.36H130.499ZM141.24 56V60.74L137.38 56H136.31V63H137.6V58.26L141.46 63H142.53V56H141.24ZM148.985 61.6C148.535 61.86 148.045 61.96 147.545 61.96C146.065 61.96 145.015 60.92 145.015 59.5C145.015 58.05 146.065 57.04 147.555 57.04C148.305 57.04 148.935 57.29 149.485 57.84L150.305 57.04C149.645 56.29 148.665 55.9 147.495 55.9C145.305 55.9 143.705 57.41 143.705 59.5C143.705 61.59 145.305 63.1 147.475 63.1C148.465 63.1 149.485 62.8 150.215 62.21V59.42H148.985V61.6ZM154.74 63.1C156.65 63.1 157.8 61.99 157.8 59.95V56H156.52V59.9C156.52 61.34 155.88 61.96 154.75 61.96C153.62 61.96 152.97 61.34 152.97 59.9V56H151.67V59.95C151.67 61.99 152.82 63.1 154.74 63.1ZM159.421 63H164.381V61.9H160.721V56H159.421V63ZM170.496 63H171.856L168.696 56H167.416L164.266 63H165.606L166.296 61.38H169.796L170.496 63ZM166.736 60.36L168.046 57.3L169.366 60.36H166.736ZM178.526 63L176.916 60.7C177.866 60.33 178.406 59.55 178.406 58.49C178.406 56.94 177.266 56 175.426 56H172.546V63H173.846V60.96H175.426C175.516 60.96 175.606 60.96 175.696 60.95L177.126 63H178.526ZM177.096 58.49C177.096 59.37 176.506 59.89 175.366 59.89H173.846V57.1H175.366C176.506 57.1 177.096 57.61 177.096 58.49Z" fill="#E23237"/>
<path d="M20.5153 63L18.9053 60.7C19.8553 60.33 20.3953 59.55 20.3953 58.49C20.3953 56.94 19.2553 56 17.4153 56H14.5353V63H15.8353V60.96H17.4153C17.5053 60.96 17.5953 60.96 17.6853 60.95L19.1153 63H20.5153ZM19.0853 58.49C19.0853 59.37 18.4953 59.89 17.3553 59.89H15.8353V57.1H17.3553C18.4953 57.1 19.0853 57.61 19.0853 58.49ZM22.9498 61.91V59.98H26.3298V58.91H22.9498V57.09H26.7598V56H21.6498V63H26.8998V61.91H22.9498ZM33.389 63H34.749L31.589 56H30.309L27.159 63H28.499L29.189 61.38H32.689L33.389 63ZM29.629 60.36L30.939 57.3L32.259 60.36H29.629ZM38.5816 63.1C39.7316 63.1 40.7116 62.69 41.3616 61.93L40.5216 61.13C40.0116 61.69 39.3816 61.96 38.6516 61.96C37.2016 61.96 36.1516 60.94 36.1516 59.5C36.1516 58.06 37.2016 57.04 38.6516 57.04C39.3816 57.04 40.0116 57.31 40.5216 57.86L41.3616 57.07C40.7116 56.31 39.7316 55.9 38.5916 55.9C36.4416 55.9 34.8416 57.41 34.8416 59.5C34.8416 61.59 36.4416 63.1 38.5816 63.1ZM43.7491 63H45.0491V57.1H47.3691V56H41.4291V57.1H43.7491V63Z" fill="#53C1DE"/>
<path d="M265.803 56L263.453 61.4L261.123 56H259.713L262.773 63H264.053L267.103 56H265.803ZM270.798 63.1C272.708 63.1 273.858 61.99 273.858 59.95V56H272.578V59.9C272.578 61.34 271.938 61.96 270.808 61.96C269.678 61.96 269.028 61.34 269.028 59.9V56H267.728V59.95C267.728 61.99 268.878 63.1 270.798 63.1ZM276.778 61.91V59.98H280.158V58.91H276.778V57.09H280.588V56H275.478V63H280.728V61.91H276.778Z" fill="#41B883"/>
</svg>
