<svg width="180" height="30" viewBox="0 0 180 30" fill="none" xmlns="http://www.w3.org/2000/svg">
<path d="M172.795 25.8125C172.549 26.7303 171.561 27.4186 170.574 27.4186H147C146.013 27.4186 145.395 26.6729 145.642 25.8125L150.271 7.68621C150.518 6.76842 151.505 6.08008 152.492 6.08008H176.066C177.053 6.08008 177.671 6.82578 177.424 7.68621L172.795 25.8125Z" fill="#FF5100"/>
<path d="M153.602 9.6945C153.664 9.46505 153.911 9.29297 154.158 9.29297H156.503C156.749 9.29297 156.935 9.46505 156.873 9.6945L153.232 24.1497C153.17 24.3791 152.923 24.5512 152.676 24.5512H150.331C150.085 24.5512 149.899 24.3791 149.961 24.1497L153.602 9.6945Z" fill="white"/>
<path d="M167.981 9.29297H162.118C161.81 9.29297 161.624 9.46505 161.563 9.6945L157.922 24.1497C157.86 24.3791 157.983 24.5512 158.292 24.5512H160.575C160.822 24.5512 161.069 24.3791 161.131 24.1497L164.216 11.989H167.117C168.536 11.989 169.462 12.9068 169.153 14.1114C168.845 15.3733 167.425 16.4058 166.006 16.4058H164.34C163.969 16.4058 163.723 16.6926 163.784 16.9795L164.278 18.4135C164.34 18.6429 164.525 19.0445 165.265 19.0445H165.574C168.598 19.0445 171.683 16.8647 172.362 14.1687C172.979 11.4727 171.005 9.29297 167.981 9.29297Z" fill="white"/>
<path d="M14.0727 19.2735L12.5916 13.652H12.5299L8.21005 19.2735H14.0727ZM0.12581 24.7229L13.579 7.51435C13.7024 7.34226 13.8875 7.22754 14.1344 7.22754H14.4429C14.7515 7.22754 14.8132 7.34226 14.8749 7.51435L19.3799 24.7229C19.4416 25.067 19.133 25.4112 18.701 25.4112H16.1709C15.7389 25.4112 15.5537 25.2391 15.492 24.8949L14.8132 22.1416H6.11185L3.95194 24.8949C3.7668 25.1817 3.45824 25.4112 2.96455 25.4112H0.434369C0.00238652 25.4112 -0.121037 25.067 0.12581 24.7229Z" fill="#54565A"/>
<path d="M56.4691 10.8988H52.0258C51.7173 10.8988 51.5321 10.6694 51.5939 10.4399L52.1493 8.37491C52.211 8.14546 52.5195 7.91602 52.8281 7.91602H65.5407C65.8492 7.91602 66.0344 8.14546 65.9727 8.37491L65.4173 10.4399C65.3555 10.6694 65.047 10.8988 64.7384 10.8988H60.2952L56.6542 25.1819C56.5925 25.4114 56.2839 25.6408 55.9754 25.6408H53.2601C52.9515 25.6408 52.7664 25.4114 52.8281 25.1819L56.4691 10.8988Z" fill="#54565A"/>
<path d="M73.2555 8.37491C73.3172 8.14546 73.6257 7.91602 73.9343 7.91602H85.7829C86.0914 7.91602 86.2766 8.14546 86.2149 8.37491L85.6595 10.4399C85.5978 10.6694 85.2892 10.8988 84.9806 10.8988H76.4027L75.3536 15.0862H82.5122C82.8207 15.0862 83.0059 15.3157 82.9442 15.5451L82.3888 17.6675C82.327 17.9543 82.0185 18.1264 81.7099 18.1264H74.5514L73.4406 22.6006H82.0185C82.327 22.6006 82.5122 22.8301 82.4505 23.1169L81.8951 25.1819C81.8334 25.4114 81.5248 25.6408 81.2162 25.6408H69.3676C69.0591 25.6408 68.8739 25.4114 68.9357 25.1819L73.2555 8.37491Z" fill="#54565A"/>
<path d="M118.614 8.37491C118.675 8.14546 118.984 7.91602 119.293 7.91602H122.008C122.316 7.91602 122.502 8.14546 122.44 8.37491L118.182 25.1819C118.12 25.4114 117.811 25.6408 117.503 25.6408H114.788C114.479 25.6408 114.294 25.4114 114.356 25.1819L118.614 8.37491Z" fill="#54565A"/>
<path d="M127.251 23.174L128.671 21.6252C128.979 21.281 129.473 21.281 129.72 21.4531C129.843 21.5105 131.818 23.0019 133.731 23.0019C135.274 23.0019 136.57 22.1414 136.878 21.0516C137.187 19.7322 136.2 18.8718 133.978 18.0114C131.51 17.0362 129.165 15.5448 129.905 12.5047C130.46 10.2675 133.052 7.62891 137.681 7.62891C140.643 7.62891 142.556 8.94823 143.05 9.34976C143.296 9.52184 143.296 9.92338 142.988 10.2102L141.507 11.6442C141.198 11.931 140.705 12.1605 140.396 11.931C140.211 11.8163 138.298 10.5544 136.693 10.5544C135.027 10.5544 133.916 11.5295 133.669 12.3326C133.361 13.5372 134.225 14.3402 136.385 15.2007C138.977 16.1758 141.815 17.6672 141.013 20.9368C140.334 23.5755 137.125 25.9847 133.052 25.9847C129.411 25.9847 127.622 24.4933 127.19 23.977C127.005 23.6902 126.881 23.5755 127.251 23.174Z" fill="#54565A"/>
<path d="M38.8197 18.4703C41.5967 17.6099 43.8183 15.6596 44.4354 13.3078C45.176 10.2676 42.9544 7.8584 39.4985 7.8584H31.1675C30.8589 7.8584 30.5504 8.08785 30.4887 8.31729L26.2306 25.1242C26.1689 25.3537 26.354 25.5831 26.6626 25.5831H29.3161C29.6247 25.5831 29.9333 25.3537 29.995 25.1242L33.6359 10.8986H38.3877C39.9305 10.8986 40.9796 12.0458 40.6093 13.3651C40.2391 14.7992 38.6346 15.9464 37.0918 15.9464H34.8702C34.4382 15.9464 34.1296 16.2906 34.1913 16.5774L34.8702 18.6424L37.0301 25.4111C37.0301 25.5258 37.1535 25.6405 37.4003 25.6405H40.4242C40.9179 25.6405 41.2264 25.239 41.103 24.8948L38.8197 18.4703Z" fill="#54565A"/>
<path d="M103.185 18.4703C105.962 17.6099 108.184 15.6596 108.801 13.3078C109.541 10.2676 107.32 7.8584 103.864 7.8584H95.5327C95.2241 7.8584 94.9156 8.08785 94.8539 8.31729L90.5958 25.1243C90.5341 25.3537 90.7192 25.5832 91.0278 25.5832H93.6814C93.9899 25.5832 94.2985 25.3537 94.3602 25.1243L98.0012 10.8412H102.753C104.296 10.8412 105.345 11.9884 104.975 13.3078C104.604 14.7418 103 15.8891 101.457 15.8891H99.2354C98.8034 15.8891 98.4948 16.2332 98.5565 16.52L99.2354 18.5851L101.395 25.2964C101.457 25.4111 101.519 25.5258 101.827 25.5258H104.851C105.345 25.5258 105.653 25.1243 105.53 24.7801L103.185 18.4703Z" fill="#54565A"/>
<path d="M124.721 2.35184C124.413 3.6138 122.931 4.70367 121.45 4.70367C119.969 4.70367 119.044 3.67116 119.352 2.35184C119.661 1.08988 121.142 0 122.623 0C124.104 0 125.03 1.03251 124.721 2.35184Z" fill="#FF5100"/>
<path d="M176.871 24.7285C176.276 24.7285 175.768 24.9404 175.346 25.3643C174.927 25.7858 174.717 26.2951 174.717 26.8921C174.717 27.4937 174.926 28.0063 175.343 28.4302C175.762 28.854 176.271 29.0659 176.871 29.0659C177.47 29.0659 177.979 28.854 178.398 28.4302C178.818 28.0063 179.027 27.4937 179.027 26.8921C179.027 26.2951 178.818 25.7858 178.398 25.3643C177.977 24.9404 177.468 24.7285 176.871 24.7285ZM179.383 26.8921C179.383 27.5871 179.138 28.1807 178.648 28.6729C178.158 29.165 177.566 29.4111 176.871 29.4111C176.176 29.4111 175.584 29.165 175.097 28.6729C174.611 28.1829 174.369 27.5894 174.369 26.8921C174.369 26.2017 174.614 25.6115 175.104 25.1216C175.591 24.634 176.18 24.3901 176.871 24.3901C177.566 24.3901 178.158 24.634 178.648 25.1216C179.138 25.6092 179.383 26.1994 179.383 26.8921ZM177.527 26.3452C177.527 26.1447 177.465 26.0103 177.342 25.9419C177.222 25.8735 177.027 25.8394 176.758 25.8394H176.344V26.8374H176.782C176.987 26.8374 177.141 26.8169 177.243 26.7759C177.432 26.7007 177.527 26.5571 177.527 26.3452ZM176.823 25.5078C177.165 25.5078 177.415 25.5409 177.575 25.6069C177.86 25.7254 178.002 25.9578 178.002 26.3042C178.002 26.5503 177.912 26.7314 177.732 26.8477C177.636 26.9092 177.503 26.9536 177.332 26.981C177.549 27.0151 177.707 27.1051 177.807 27.251C177.907 27.3968 177.958 27.5392 177.958 27.6782V27.8799C177.958 27.9437 177.96 28.012 177.964 28.085C177.969 28.1579 177.977 28.2057 177.988 28.2285L178.005 28.2627H177.551C177.549 28.2536 177.546 28.2445 177.544 28.2354C177.542 28.2262 177.539 28.216 177.537 28.2046L177.527 28.1157V27.897C177.527 27.578 177.44 27.3672 177.267 27.2646C177.165 27.2054 176.985 27.1758 176.727 27.1758H176.344V28.2627H175.859V25.5078H176.823Z" fill="#54565A"/>
</svg>
