<svg width="166" height="32" viewBox="0 0 166 32" fill="none" xmlns="http://www.w3.org/2000/svg">
<path d="M37.8082 0H0.00195312V32L37.8082 0Z" fill="#44C8F5"/>
<path d="M18.901 0H0V16.0072L18.901 0Z" fill="black"/>
<path d="M90.6012 6.94615L85.6664 25.0475H94.3851L99.3175 6.94615H90.6012ZM69.4462 6.94336L58.2318 25.0447H63.999L65.8602 22.0272H73.8662L74.4624 25.0447H82.974L79.3559 6.94336H69.4462ZM70.6864 17.4365H68.6867L71.9109 12.2153L72.9568 17.4365H70.6864ZM130.421 6.94615L125.5 25.0475H134.216L139.142 6.94615H130.421ZM126.525 6.94615H117.59L110.112 12.8674L111.744 6.94615H103.387L98.4639 25.0475H106.795L108.497 18.7982L112.952 25.0475H123.036L115.567 15.568L126.525 6.94615ZM50.947 6.9545L48.6924 6.94782H37.7822L32.8613 25.0424H43.6938L47.9803 25.0475C54.0146 25.0475 59.9535 20.9278 59.9535 14.6156C59.9523 7.18785 50.947 6.9545 50.947 6.9545ZM51.3896 15.172C51.3896 15.172 50.8232 21.052 45.362 21.052H42.2721L44.9935 11.2885H47.7976C48.8011 11.2952 51.7053 11.533 51.3896 15.172ZM159.963 6.94336L157.055 17.6024L153.181 6.94336H143.485L138.559 25.0475H144.589L147.525 14.2954L151.411 25.0475H161.065L166 6.94336H159.963Z" fill="#00A1E4"/>
</svg>
