<svg width="82" height="54" viewBox="0 0 82 54" fill="none" xmlns="http://www.w3.org/2000/svg">
<g clip-path="url(#clip0_1542_50521)">
<path d="M38.9512 48.1339C22.7477 49.6263 5.859 47.2757 3.49349 34.633C2.33629 28.4005 5.18394 21.7916 8.95643 17.6839V15.4903C2.16065 21.4408 -1.5223 28.97 0.599045 37.8641C3.30878 49.2718 17.7997 55.7319 39.9242 53.5867C48.6815 52.7394 60.1343 49.9283 68.1018 45.5589V39.3565C60.8707 43.658 48.913 47.2113 38.9512 48.1339V48.1339ZM81.6368 15.3422C77.7933 -3.39226 41.3592 -4.57994 17.8731 9.69341V11.2699C41.3323 -0.771277 74.6079 -0.698116 77.6376 16.5597C78.6543 22.2685 75.4332 28.2161 69.6788 31.6407V36.1186C76.6009 33.5837 83.7011 25.3848 81.6368 15.3422V15.3422Z" fill="#0E7DC2"/>
<path d="M66.7924 12.6133H62.544V31.5045C62.544 33.7184 63.6159 35.6438 66.7924 35.9513V12.6133ZM16.2058 19.5108H11.9496L11.9473 31.8531C11.9473 34.0748 13.0227 35.9981 16.2058 36.2999V19.5108V19.5108ZM11.9496 13.1879H16.1925V17.2086H11.9496V13.1879ZM41.6489 36.1044C38.2101 36.1044 36.7549 33.7182 36.7549 31.3677V14.98H40.9663V19.5108H44.1381V22.9069H40.9663V31.108C40.9663 32.0664 41.4221 32.6003 42.4231 32.6003H44.1381V36.1046L41.6489 36.1044V36.1044ZM49.3984 29.1227C49.3984 31.2745 50.7461 32.8559 53.1308 32.8559C54.9993 32.8559 55.9202 32.3382 56.9988 31.2745L59.6012 33.7495C57.9327 35.3951 56.1847 36.3956 53.0997 36.3956C49.0693 36.3956 45.2077 34.1995 45.2077 27.797C45.2077 22.3235 48.582 19.2295 53.0062 19.2295C57.5037 19.2295 60.0883 22.8516 60.0883 27.6062V29.1231H49.3984V29.1227ZM52.8217 22.707C51.3801 22.707 50.2726 23.4482 49.8031 24.448C49.5297 25.049 49.4295 25.5173 49.3983 26.2558H55.8889C55.8068 24.448 54.9859 22.707 52.8217 22.707ZM27.6442 22.9069C28.8791 22.9069 29.3925 23.5165 29.3925 24.5058V36.129H33.6049V24.4814C33.6049 22.1213 32.3454 19.5152 28.6463 19.5152L19.9449 19.5108V36.129H24.1589V22.9069H27.6442V22.9069ZM71.3635 15.9889C70.427 15.9889 69.6795 15.2348 69.6795 14.301C69.6795 13.3716 70.427 12.6133 71.3635 12.6133C72.2954 12.6133 73.0605 13.3716 73.0605 14.301C73.0605 15.2348 72.2952 15.9889 71.3635 15.9889ZM71.3635 12.8947C70.5917 12.8947 69.9709 13.5316 69.9709 14.301C69.9709 15.0749 70.5917 15.7005 71.3635 15.7005C72.1351 15.7005 72.7759 15.0749 72.7759 14.301C72.7758 13.5316 72.1353 12.8947 71.3635 12.8947ZM72.113 15.3126H71.7971C71.7835 15.3124 71.7702 15.3084 71.7588 15.3009C71.7474 15.2935 71.7384 15.2829 71.7329 15.2705L71.3056 14.5454C71.2922 14.5298 71.2566 14.5121 71.2457 14.5121H71.0501V15.235C71.0501 15.2706 71.0254 15.3127 70.9789 15.3127H70.694C70.6516 15.3127 70.6229 15.2706 70.6229 15.235V13.4117C70.6229 13.3051 70.6585 13.2612 70.7519 13.2479C70.8543 13.2368 71.1212 13.2234 71.2705 13.2234C71.7975 13.2234 72.1069 13.3784 72.1069 13.8664V13.902C72.1069 14.2034 71.9579 14.3677 71.7266 14.441L72.1714 15.1972C72.1787 15.2141 72.1825 15.2323 72.1825 15.2507C72.1819 15.2793 72.1665 15.3126 72.113 15.3126V15.3126ZM71.7038 13.8664C71.7038 13.6627 71.577 13.5983 71.3055 13.5983H71.0364V14.1767C71.0787 14.1767 71.27 14.1856 71.3055 14.1856C71.577 14.1856 71.7038 14.0952 71.7038 13.902V13.8664Z" fill="#0E7DC2"/>
</g>
<defs>
<clipPath id="clip0_1542_50521">
<rect width="82" height="54" fill="white"/>
</clipPath>
</defs>
</svg>
