<svg width="160" height="46" viewBox="0 0 160 46" fill="none" xmlns="http://www.w3.org/2000/svg">
<path d="M67.8996 15.7167L62.5269 24.3257L57.218 15.7167H54.8426V30.2514H57.218V20.8917C57.218 20.716 57.218 20.5403 57.2021 20.3646C57.1861 20.1889 57.1861 20.0132 57.1542 19.8056C57.2658 20.109 57.4412 20.4444 57.6485 20.7639L61.5066 26.9771H63.4197L67.2459 20.7639C67.3416 20.6042 67.4372 20.4604 67.5488 20.3007C67.6604 20.141 67.7561 19.9812 67.8517 19.8056C67.8358 19.9972 67.8198 20.1889 67.8039 20.3646C67.788 20.5403 67.788 20.716 67.788 20.8917V30.2514H70.1315V15.7167H67.8996ZM75.2172 30.2514L79.8884 18.8313C79.9203 18.7194 79.9681 18.5917 80.0159 18.4639C80.0638 18.3361 80.1116 18.1924 80.1435 18.0167C80.1754 18.1924 80.2232 18.3361 80.271 18.4639C80.3188 18.5917 80.3667 18.7194 80.3986 18.8313L82.9494 25.0444H77.4811L78.9 27.1687H83.8103L85.0857 30.2514H87.5887L81.4667 15.7167H78.9159L72.7939 30.2514H75.2172ZM111.774 30.2514L117.672 15.7167H115.122L110.961 26.6736C110.833 27.041 110.69 27.4722 110.562 27.9514C110.434 27.4722 110.291 27.041 110.163 26.6736L106.018 15.7167H103.356L109.255 30.2514H111.774ZM134.253 15.7167V30.2514H143.707V28.0951H136.628V15.7167H134.253ZM146.592 15.7167V30.2514H156.142V28.0951H148.968V15.7167H146.592ZM122.742 17.8729H130.347V15.7167H120.399V30.2514H130.49V28.0951H122.742V17.8729ZM101.586 20.0771C101.586 18.7194 101.172 17.6493 100.327 16.8826C99.4819 16.116 98.0789 15.7167 96.102 15.7167H90.1873V30.2514H92.5628V17.8729H96.1977C98.1427 17.8729 99.1311 18.6715 99.1311 20.2847C99.1311 22.0097 98.0789 22.8722 95.9745 22.8722H94.0614L92.7063 24.9646H95.9267L99.9283 30.2514H102.798L98.3978 24.4375C100.518 23.6708 101.586 22.2174 101.586 20.0771ZM129.326 21.8819H122.886L124.336 24.0382H129.326V21.8819ZM17.8398 17.7451L22.6385 22.6646C22.7501 22.7764 22.8617 22.8403 22.9574 22.8403C23.053 22.8403 23.1646 22.7764 23.2762 22.6646L28.0749 17.7451C28.1865 17.6333 28.2503 17.5215 28.2503 17.4257C28.2503 17.266 28.1706 17.2021 27.9952 17.2021H17.9354C17.7601 17.2021 17.6804 17.2819 17.6804 17.4257C17.6644 17.5215 17.7282 17.6333 17.8398 17.7451ZM45.9147 0.255556C45.9147 0.0798611 45.835 0 45.6756 0C45.5799 0 45.4843 0.0479167 45.3886 0.14375L41.4508 4.13681V41.8312L45.3886 45.8562C45.4843 45.9521 45.5799 46 45.6756 46C45.835 46 45.9147 45.9201 45.9147 45.7444V0.255556ZM0 45.7444C0 45.9201 0.079713 46 0.239139 46C0.334795 46 0.43045 45.9521 0.526106 45.8562L4.46393 41.8312V4.13681L0.526106 0.14375C0.43045 0.0479167 0.318852 0 0.239139 0C0.079713 0 0 0.0798611 0 0.255556V45.7444ZM10.2352 10.0306H35.6955L39.2666 6.38889C39.3623 6.29306 39.4101 6.19722 39.4101 6.10139C39.4101 5.94167 39.3304 5.86181 39.155 5.86181H6.75967C6.5843 5.86181 6.50458 5.94167 6.50458 6.10139C6.50458 6.19722 6.55241 6.29306 6.64807 6.38889L10.2352 10.0306ZM6.64807 39.6111C6.55241 39.7069 6.50458 39.8028 6.50458 39.8986C6.50458 40.0583 6.5843 40.1222 6.75967 40.1222H39.1391C39.3145 40.1222 39.3942 40.0424 39.3942 39.8986C39.3942 39.8028 39.3464 39.7069 39.2507 39.6111L35.6796 35.9694H10.2352L6.64807 39.6111ZM33.7664 34.0208C33.8621 34.1167 33.9578 34.1646 34.0534 34.1646C34.2128 34.1646 34.2766 34.0847 34.2766 33.909V12.091C34.2766 11.9153 34.1969 11.8354 34.0534 11.8354C33.9578 11.8354 33.8621 11.8833 33.7664 11.9792L30.0359 15.7806V30.2354L33.7664 34.0208ZM15.8788 30.2194V15.7806L12.1483 11.9792C12.0526 11.8833 11.957 11.8354 11.8613 11.8354C11.7019 11.8354 11.6381 11.9312 11.6381 12.091V33.909C11.6381 34.0847 11.7178 34.1646 11.8613 34.1646C11.957 34.1646 12.0526 34.1167 12.1483 34.0208L15.8788 30.2194ZM156.046 15.7167V15.9882H156.716V17.5535H157.019V15.9882H157.688V15.7167H156.046ZM159.713 15.7167L159.027 16.8028L158.358 15.7167H158.055V17.5535H158.358V16.3715C158.358 16.3556 158.358 16.3236 158.358 16.3076C158.358 16.2917 158.358 16.2597 158.358 16.2437C158.374 16.2757 158.39 16.3236 158.422 16.3715L158.916 17.1542H159.155L159.633 16.3715C159.649 16.3556 159.665 16.3396 159.665 16.3076C159.665 16.2757 159.697 16.2757 159.697 16.2437C159.697 16.2757 159.697 16.2917 159.697 16.3076C159.697 16.3236 159.697 16.3556 159.697 16.3715V17.5535H160V15.7167H159.713Z" fill="black"/>
</svg>
