<svg width="155" height="58" viewBox="0 0 155 58" fill="none" xmlns="http://www.w3.org/2000/svg">
<path d="M142.719 48.4854C142.182 48.4854 141.734 48.9368 141.734 49.4785C141.734 50.0203 142.182 50.4717 142.719 50.4717C143.256 50.4717 143.704 50.0203 143.704 49.4785C143.704 48.9368 143.256 48.4854 142.719 48.4854ZM143.525 49.4785C143.525 49.93 143.167 50.2912 142.719 50.2912C142.272 50.2912 141.913 49.93 141.913 49.4785C141.913 49.0271 142.272 48.6659 142.719 48.6659C143.167 48.6659 143.525 49.0271 143.525 49.4785Z" fill="#A6A8AB"/>
<path d="M143.167 49.2078C143.167 49.0273 142.988 48.8467 142.809 48.8467H142.361V49.9302H142.54V49.4787H142.719L142.899 49.9302H143.167L142.899 49.4787C143.078 49.4787 143.167 49.3884 143.167 49.2078ZM142.988 49.2078C142.988 49.2981 142.988 49.3884 142.809 49.3884H142.54V49.1175H142.809C142.899 49.1175 142.988 49.1176 142.988 49.2078Z" fill="#A6A8AB"/>
<path d="M115.23 43.9714C115.678 43.9714 115.946 44.4229 115.946 44.8743C115.946 45.2355 115.588 45.5063 115.319 45.5063C114.961 45.5063 114.514 44.9646 114.514 44.6034C114.603 44.152 114.872 43.8811 115.23 43.9714Z" fill="#A6A8AB"/>
<path d="M72.881 45.416C73.8659 45.416 75.209 45.416 76.1043 45.416C76.1043 45.416 76.1938 44.5131 76.1938 44.2422C76.2834 43.7908 76.6415 43.6102 76.9997 43.7908C77.2683 43.9714 77.4473 44.1519 77.3578 44.5131C77.3578 44.6937 77.3578 45.1451 77.2683 45.416C77.4473 45.416 77.5369 45.416 77.7159 45.416C78.1636 45.416 78.4322 45.416 78.5217 45.8674C78.7008 46.4092 78.4322 46.4995 77.895 46.4092C77.7159 46.4092 77.2683 46.3189 77.2683 46.3189C77.2683 47.2218 77.2683 48.0344 77.5369 48.847C77.8055 49.479 78.3427 49.8402 79.0589 49.8402C79.6857 49.8402 80.6706 49.5693 81.1183 48.9373C81.0287 48.0344 80.8496 47.2218 80.7601 46.3189C80.6706 45.7772 80.7601 45.1451 80.8496 44.6034C80.9392 44.2422 81.1183 43.7908 81.3869 43.4296C82.0136 42.5267 83.088 42.617 83.6252 43.5199C84.252 44.4228 84.252 45.9577 83.6252 46.8606C83.2671 47.4927 82.909 48.215 82.4613 48.847C83.3566 49.8402 85.5055 49.9305 86.759 48.9373C86.2217 48.0344 86.2217 47.1315 86.5799 46.2286C86.938 45.3257 88.281 44.784 89.1764 45.1451C89.445 45.2354 89.6241 45.5063 89.7136 45.7772C89.8927 46.048 89.9822 46.3189 89.8927 46.6801C89.8927 46.8606 89.8031 47.1315 89.7136 47.3121C89.5345 47.6732 89.3555 48.0344 89.0869 48.3053C88.9973 48.4859 88.8183 48.5761 88.7287 48.7567C88.6392 48.847 88.6392 48.847 88.5497 48.9373L88.1915 49.2082C88.9973 49.5693 89.8031 49.8402 90.6089 49.6596C90.9671 49.5693 91.2357 49.6596 91.3252 49.9305C91.5043 50.3819 91.2357 50.7431 90.788 50.7431C89.6241 50.7431 88.4601 50.6528 87.4752 49.8402C86.5799 50.2917 85.6845 50.6528 84.6101 50.7431C83.5357 50.8334 82.6403 50.4722 81.745 49.8402C81.0287 50.5625 80.1334 50.8334 79.1485 50.9237C78.2531 51.014 77.4473 50.6528 76.9101 49.9305C76.731 49.6596 76.6415 49.3888 76.4624 48.847C76.2834 49.1179 76.1938 49.2082 76.1043 49.3888C75.388 50.3819 74.4927 50.8334 73.3287 50.8334C72.702 50.8334 72.2543 50.4722 71.9857 49.9305C71.8066 49.7499 71.7171 49.479 71.6276 49.2082C71.2694 49.6596 70.9113 50.2014 70.3741 50.5625C69.9264 50.9237 69.2996 51.1043 68.6729 51.1043C68.3148 51.1043 67.8671 51.014 67.5985 50.7431C67.2403 50.4722 67.0613 50.1111 66.7927 49.6596C66.7927 49.5693 66.7031 49.5693 66.6136 49.6596C66.345 49.8402 65.8078 50.2014 65.4496 50.3819C64.5543 50.9237 63.5694 51.014 62.5845 50.7431C62.1369 50.5625 61.5997 50.2014 61.2415 49.7499C60.8834 50.4722 60.0776 50.8334 59.0927 51.2848C58.5555 51.4654 58.4659 51.5557 58.1973 51.2848C57.9287 51.014 58.1078 50.6528 58.3764 50.4722C58.8241 50.2014 59.3613 50.0208 59.7194 49.7499C60.4357 49.2985 60.6148 49.0276 60.6148 49.0276C60.6148 49.0276 60.5252 48.6664 60.4357 48.5761C59.8985 47.0412 59.988 45.2354 60.6148 43.7908C60.7043 43.7005 60.7043 43.6102 60.7938 43.4296C61.0624 42.9782 61.5101 42.7976 61.9578 42.8879C62.4055 42.9782 62.7636 43.3393 62.8531 43.7908C62.9427 44.3325 62.9427 44.8743 62.8531 45.416C62.7636 46.3189 62.5845 47.1315 62.2264 48.0344C62.1369 48.215 61.8683 48.9373 61.8683 48.9373C61.8683 48.9373 62.3159 49.7499 63.0322 49.7499C63.9276 49.8402 64.7334 49.5693 65.3601 49.0276C65.7183 48.7567 65.8973 48.3956 65.9869 47.9441C65.9869 47.7635 66.0764 47.4927 66.0764 47.3121C66.1659 46.9509 66.345 46.8606 66.7031 46.8606C67.0613 46.8606 67.4194 47.0412 67.4194 47.4024C67.4194 47.7635 67.4194 48.1247 67.4194 48.3956C67.4194 49.0276 67.4194 49.6596 68.0462 49.9305C68.5834 50.2014 69.1206 50.0208 69.5683 49.6596C69.9264 49.3888 70.195 49.0276 70.4636 48.5761C70.9113 47.9441 71.0903 47.0412 71.2694 46.2286C71.0008 46.2286 70.7322 46.2286 70.5531 46.2286C70.2845 46.2286 70.1055 46.3189 69.8369 46.3189C69.6578 46.3189 69.4787 46.3189 69.2997 46.2286C69.1206 46.048 69.031 45.7772 69.2101 45.5063C69.2996 45.416 69.3892 45.416 69.4787 45.3257C70.0159 45.1451 71.4485 45.0548 71.4485 45.0548C71.538 45.0548 71.538 44.1519 71.6276 44.0616C71.6276 43.8811 71.7171 43.7005 71.8962 43.5199C71.9857 43.4296 72.1648 43.4296 72.2543 43.4296C72.4334 43.4296 72.5229 43.6102 72.6124 43.7005C72.702 43.8811 72.7915 44.1519 72.7915 44.4228C72.9706 44.8743 72.881 45.3257 72.881 45.416ZM72.702 46.4092C72.6124 47.1315 72.5229 47.8538 72.5229 48.5761C72.6124 49.5693 73.1497 50.0208 74.2241 49.6596C75.4776 49.2985 76.1043 47.8538 76.1043 46.4092H72.702ZM82.0136 47.9441C82.2822 47.6732 82.5508 47.3121 82.7299 46.8606C83.088 46.1383 83.1776 45.2354 82.9985 44.3325C82.9985 44.2422 82.909 44.0616 82.8194 43.9714C82.7299 43.8811 82.6403 43.8811 82.5508 43.8811C82.4613 43.8811 82.3717 43.9714 82.2822 43.9714C81.9241 44.2422 81.8345 44.6937 81.8345 45.0548C81.6555 46.048 81.745 47.0412 82.0136 47.9441ZM87.6543 48.4859C88.281 48.1247 88.9973 47.2218 88.9973 46.4092C88.9973 46.2286 88.9973 46.048 88.8183 45.9577C88.7287 45.8674 88.6392 45.8674 88.5497 45.8674C88.1915 45.8674 87.9229 45.9577 87.6543 46.2286C87.2962 46.5898 87.2066 47.2218 87.2962 47.6732C87.3857 48.0344 87.5648 48.4859 87.6543 48.4859ZM61.5101 44.4228C61.2415 45.5063 61.152 47.4927 61.5101 48.0344C61.9578 47.2218 62.4055 45.6869 62.3159 44.5131C62.2264 43.8811 61.6892 43.7908 61.5101 44.4228Z" fill="#A6A8AB"/>
<path d="M48.707 49.5692C48.707 49.5692 48.707 49.6594 48.707 49.5692C49.1547 49.84 49.6024 50.1109 50.1396 50.0206C50.4082 49.9303 50.5872 49.84 50.7663 49.6594C50.9454 49.5692 51.0349 49.2983 51.214 49.208C51.3035 49.1177 51.4826 49.208 51.5721 49.2983C52.1989 49.7497 51.5721 50.3818 51.1244 50.6526C50.4977 51.0138 49.7814 51.1041 49.1547 50.9235C48.8861 50.8332 48.5279 50.7429 48.2593 50.5623C48.1698 50.4721 47.9907 50.3818 47.8117 50.2012C47.8117 50.2012 47.364 50.4721 47.2744 50.4721C47.0058 50.6526 44.9465 51.2847 43.7826 50.3818C43.3349 50.0206 43.0663 49.5692 42.8872 49.1177C42.7082 48.6663 42.6186 48.3051 42.4396 47.8536C42.35 47.4925 41.9919 47.3119 41.7233 47.6731C41.4547 47.9439 41.2756 48.3051 41.1861 48.6663C41.007 49.208 40.8279 49.84 41.007 50.3818C41.0965 50.7429 40.9175 51.0138 40.6489 51.1041C40.2907 51.1944 39.9326 51.1944 39.7535 50.8332C39.664 50.7429 39.5744 50.1109 39.5744 50.1109C39.2163 50.5623 38.5 51.0138 38.2314 51.1041C37.5151 51.375 36.7989 51.375 36.0826 51.2847C35.0977 51.1041 34.0233 50.2915 33.6651 49.3886C33.4861 48.6663 33.4861 48.0342 33.4861 47.1313C33.0384 47.041 32.2326 47.1313 31.8744 47.041C31.6058 46.9507 31.5163 46.6799 31.6058 46.409C31.6954 46.1381 31.964 46.0478 32.2326 46.0478C32.6803 46.0478 32.8593 46.0478 33.3965 46.0478C33.4861 45.5061 33.4861 45.0547 33.5756 44.6935C33.5756 44.5129 33.7547 44.3323 33.8442 44.242C34.1128 44.1518 34.65 44.1518 34.7396 44.3323C34.8291 44.6032 34.7396 45.777 34.7396 46.0478C35.2768 46.1381 36.0826 46.3187 36.1721 46.3187C36.4407 46.409 36.5303 46.6799 36.4407 46.9507C36.3512 47.2216 36.2617 47.2216 35.9035 47.2216C35.9035 47.2216 35.3663 47.2216 34.65 47.2216C34.471 48.2148 34.5605 48.8468 35.0082 49.5692C35.3663 50.1109 36.1721 50.2915 36.8884 50.2915C37.8733 50.2915 38.2314 50.1109 38.8582 49.3886C39.0372 49.208 39.3058 48.9371 39.2163 48.6663C39.2163 47.4925 39.0372 45.6867 38.9477 44.6935C38.9477 44.4226 38.9477 44.0615 39.0372 43.7906C39.2163 43.3391 39.9326 42.8877 40.4698 42.8877C41.007 42.8877 41.4547 43.1586 41.6337 43.7003C41.8128 44.242 41.6337 45.5964 41.5442 46.4993C41.5442 46.409 42.0814 46.3187 42.171 46.3187C42.4396 46.3187 42.7082 46.409 42.9768 46.6799C43.514 47.2216 43.6931 47.9439 43.9617 48.6663C44.1407 49.1177 44.4093 49.5692 44.7675 49.7497C45.4837 50.2012 46.9163 49.7497 47.0954 49.6594L47.2744 49.5692C47.1849 49.3886 46.9163 49.0274 46.8268 48.7565C46.7372 48.2148 46.7372 47.8536 46.9163 47.3119C47.0058 46.8605 47.2744 46.2284 47.7221 45.9576C48.0803 45.6867 48.8861 45.777 49.3337 45.9576C49.7814 46.2284 49.9605 46.7702 49.871 47.3119C49.871 48.0342 48.9756 49.3886 48.707 49.5692ZM40.2012 47.4022C40.6489 46.6799 40.9175 44.4226 40.7384 43.7906C40.6489 43.5197 39.9326 43.7003 39.9326 43.9712C39.8431 44.5129 39.9326 46.2284 40.2012 47.4022ZM48.0803 49.0274C48.707 49.0274 49.6024 46.7702 48.9756 46.4993C48.2593 46.3187 48.0803 46.9507 48.0803 47.041C47.8117 47.9439 47.8117 48.6663 48.0803 49.0274Z" fill="#A6A8AB"/>
<path d="M23.7261 47.9439C23.547 47.2216 23.3679 46.7701 22.8307 46.3187C22.7412 46.5896 22.6517 46.7701 22.4726 46.9507C21.6668 48.3954 20.861 49.6594 19.697 50.6526C18.6226 51.6458 17.5482 51.3749 16.7424 50.3817C16.6528 50.2914 16.5633 50.1109 16.4738 49.9303H16.3842C16.0261 50.2012 15.6679 50.6526 15.3098 50.9235C14.8621 51.1943 14.3249 51.3749 13.7877 51.4652C13.161 51.5555 12.4447 51.4652 11.9075 51.1041C10.9226 50.5623 10.5645 49.4788 10.5645 48.4856C10.5645 48.1245 10.5645 47.7633 10.5645 47.3119C10.5645 46.9507 10.5645 46.5896 10.7435 46.3187C10.8331 46.1381 11.1912 46.0478 11.3703 46.1381C11.6389 46.2284 11.6389 46.5896 11.6389 46.8604C11.6389 47.8536 11.5493 49.208 12.2656 49.9303C12.8028 50.472 13.7877 50.3817 14.4145 50.0206C15.0412 49.6594 15.6679 48.9371 16.0261 48.3051C16.2947 47.8536 16.3842 47.4022 16.3842 46.9507C16.3842 46.9507 16.3842 46.8604 16.2947 46.8604C15.9365 46.8604 15.6679 46.8604 15.3993 46.8604C15.0412 46.8604 14.6831 46.7701 14.7726 46.2284C14.8621 45.9575 14.9517 45.7769 15.2203 45.7769C15.3098 45.7769 16.2052 45.5964 16.3842 45.5964C16.4738 45.2352 16.4738 44.874 16.5633 44.5129C16.6528 44.0614 16.8319 43.8809 17.1005 43.8809C17.3691 43.8809 17.8168 44.3323 17.8168 44.6935C17.8168 44.8741 17.8168 45.3255 17.8168 45.3255C17.8168 45.3255 18.2645 45.3255 18.4435 45.3255C18.8912 45.3255 19.0703 45.5964 19.1598 45.9575C19.1598 46.3187 18.9807 46.5896 18.5331 46.6798C18.2645 46.6798 17.9958 46.7701 17.7272 46.7701C17.7272 46.7701 17.6377 46.7701 17.6377 46.8604C17.6377 47.673 17.5482 48.6662 17.7272 49.3885C17.8168 49.7497 18.0854 50.0206 18.4435 50.0206C18.7121 50.0206 18.9807 49.84 19.1598 49.6594C19.4284 49.4788 19.6075 49.2983 19.7865 49.0274C20.4133 48.3051 21.1296 47.4022 21.5772 46.4993C21.8458 46.0478 22.0249 45.5964 22.204 45.2352C22.4726 44.7838 22.9203 44.6935 23.1889 45.1449C23.6365 45.8672 24.1738 46.4993 24.4424 47.4022C24.4424 47.5827 24.5319 48.1245 24.5319 48.1245C24.5319 48.2148 24.8005 48.2148 24.8005 48.2148C24.9796 48.2148 25.1586 48.2148 25.3377 48.3051C25.5168 48.3051 25.6959 48.3954 25.6959 48.5759C25.6959 48.6662 25.6959 48.7565 25.6959 48.8468C25.6959 48.9371 25.6063 49.0274 25.5168 49.1177C25.4272 49.208 25.1586 49.208 25.0691 49.1177C24.89 49.1177 24.5319 49.1177 24.5319 49.1177C24.5319 49.5691 24.4424 50.1109 24.4424 50.2914C24.2633 51.0138 23.547 51.3749 22.9203 51.3749C22.3831 51.3749 21.7563 51.0138 21.6668 50.472C21.5772 50.2914 21.5772 50.0206 21.5772 49.7497C21.5772 48.8468 22.0249 48.2148 22.9203 48.1245C23.1889 48.0342 23.547 48.0342 23.7261 47.9439C23.7261 48.0342 23.8156 48.0342 23.7261 47.9439ZM23.9052 48.9371C23.9052 48.8468 23.8156 48.8468 23.7261 48.8468C23.3679 48.7565 22.8307 48.8468 22.6517 49.0274C22.3831 49.2983 22.4726 50.2012 22.7412 50.2914C23.4575 50.3817 23.9947 49.7497 23.9052 48.9371Z" fill="#A6A8AB"/>
<path d="M11.5483 43.2489C11.996 43.2489 12.2646 43.7004 12.2646 44.1518C12.2646 44.513 11.9064 44.7839 11.6378 44.7839C11.2797 44.7839 10.832 44.2421 10.832 43.7907C10.832 43.4295 11.1006 43.1587 11.5483 43.2489Z" fill="#A6A8AB"/>
<path d="M66.7925 44.4229C67.2401 44.4229 67.5087 44.8743 67.5087 45.3258C67.5087 45.6869 67.1506 45.9578 66.882 45.9578C66.5238 45.9578 66.0762 45.416 66.0762 45.0549C66.0762 44.6937 66.3448 44.4229 66.7925 44.4229Z" fill="#A6A8AB"/>
<path d="M140.122 49.2078C140.122 49.2981 140.033 49.3884 139.943 49.4787C139.854 49.569 139.585 49.569 139.495 49.569C139.316 49.569 138.958 49.569 138.958 49.569C138.958 50.0204 138.958 50.5622 138.958 50.833C138.779 51.5554 138.063 51.9165 137.526 51.9165C136.988 51.9165 136.272 51.5554 136.183 51.1039C136.093 50.9233 136.093 50.6525 136.093 50.3816C136.093 49.4787 136.451 48.8467 137.347 48.7564C137.436 48.7564 137.794 48.7564 138.063 48.7564C138.063 48.7564 138.152 48.6661 138.063 48.6661C137.884 47.9438 137.705 47.4923 137.168 47.0409C137.168 47.0409 137.078 46.9506 137.078 47.0409C136.988 47.3117 136.899 47.4923 136.809 47.6729C136.183 49.0272 135.108 50.3816 134.034 51.3748C133.944 51.5554 134.123 53.5417 134.123 54.2641C134.123 55.6184 134.034 57.6951 132.333 57.966C131.885 58.0562 131.348 57.966 130.99 57.6951C130.631 57.5145 130.273 57.1533 130.094 56.7019C129.915 56.2504 129.915 55.799 130.005 55.3475C130.094 54.5349 130.452 53.8126 130.9 53.1806C131.348 52.5486 132.333 51.3748 132.333 51.3748C132.333 51.3748 132.691 50.9233 132.87 50.6525V49.8399C132.959 50.0204 131.706 50.7428 131.079 50.7428C130.631 50.7428 130.094 50.6525 129.736 50.2913C129.468 50.1107 129.288 49.8399 129.199 49.569C129.199 49.4787 128.93 48.8467 129.02 48.7564C128.304 49.2078 127.677 49.8399 127.05 50.2913C126.871 50.3816 126.602 50.6525 126.244 50.6525C125.797 50.6525 125.349 50.4719 124.991 50.1107C124.454 49.569 124.364 49.0272 124.185 48.3049C124.095 48.0341 124.006 47.5826 124.006 47.3117C123.916 47.0409 123.737 46.8603 123.469 46.9506C122.663 47.1312 122.036 47.9438 121.768 48.7564C121.588 49.2078 121.678 49.7496 121.588 50.201C121.499 50.4719 121.409 50.7428 121.051 50.7428C120.783 50.7428 120.514 50.5622 120.424 50.201C120.335 49.9301 120.335 49.6593 120.335 49.4787C120.335 49.1175 120.335 48.4855 120.335 48.0341C120.335 47.8535 120.245 47.6729 120.066 47.5826C119.887 47.402 119.35 48.1243 119.261 48.3049C118.902 48.8467 118.813 49.0272 117.918 50.0204C117.112 50.833 116.754 50.833 116.216 50.833C115.858 50.833 115.411 50.7428 115.142 50.4719C114.784 50.201 114.605 49.8399 114.336 49.3884C114.336 49.2981 114.247 49.2981 114.157 49.3884C113.888 49.569 113.441 50.0204 113.172 50.201C112.814 50.3816 112.456 50.5622 112.098 50.6525C111.74 50.7428 111.381 50.7428 111.023 50.6525C110.576 50.4719 110.218 50.1107 109.859 49.7496C109.591 49.3884 109.322 49.0272 109.143 48.6661C108.964 48.2146 108.874 47.8535 108.695 47.402C108.606 47.0409 108.248 46.8603 107.979 47.2214C107.711 47.4923 107.531 47.8535 107.442 48.2146C107.263 48.7564 107.084 49.3884 107.263 49.9301C107.352 50.2913 107.173 50.5622 106.905 50.6525C106.547 50.7428 106.188 50.7428 106.009 50.3816C105.92 50.2913 105.83 49.6593 105.83 49.6593C105.472 50.1107 104.756 50.5622 104.487 50.6525C103.771 50.9233 103.055 50.9233 102.338 50.833C101.354 50.6525 100.279 49.8399 99.921 48.937C99.7419 48.2146 99.7419 47.5826 99.7419 46.6797C99.2943 46.5894 98.4884 46.6797 98.1303 46.5894C97.8617 46.4991 97.7722 46.2283 97.8617 45.9574C97.9512 45.6865 98.2198 45.5962 98.4884 45.5962C98.9361 45.5962 99.1152 45.5962 99.6524 45.5962C99.7419 45.0545 99.7419 44.603 99.8315 44.2419C99.8315 44.0613 100.011 43.8807 100.1 43.7904C100.369 43.7001 100.906 43.7001 100.995 43.8807C101.085 44.1516 100.995 45.3254 100.995 45.5962C101.533 45.6865 102.338 45.8671 102.428 45.8671C102.697 45.9574 102.786 46.2283 102.697 46.4991C102.607 46.77 102.518 46.77 102.159 46.77C102.159 46.77 101.622 46.77 100.906 46.77C100.727 47.7632 100.816 48.3952 101.264 49.1175C101.622 49.6593 102.428 49.8399 103.144 49.8399C104.129 49.8399 104.487 49.6593 105.114 48.937C105.293 48.7564 105.562 48.4855 105.472 48.2146C105.293 47.1312 105.114 45.4156 105.024 44.3322C105.024 44.0613 105.024 43.7001 105.114 43.4293C105.293 42.9778 106.009 42.5264 106.547 42.5264C107.084 42.5264 107.531 42.7972 107.711 43.339C107.89 43.8807 107.711 45.2351 107.621 46.138C107.621 46.0477 108.158 45.9574 108.248 45.9574C108.516 45.9574 108.785 46.0477 109.054 46.3185C109.412 46.6797 109.68 47.2214 109.77 47.6729C109.949 48.2146 110.218 48.7564 110.576 49.2078C110.755 49.3884 110.934 49.569 111.202 49.6593C111.561 49.7496 111.919 49.6593 112.187 49.4787C112.456 49.2981 112.814 49.0272 113.083 48.7564C113.262 48.4855 113.441 48.2146 113.53 47.8535C113.53 47.6729 113.62 47.402 113.62 47.2214C113.709 46.8603 113.888 46.77 114.247 46.77C114.605 46.77 114.963 46.9506 114.963 47.3117C114.963 47.6729 114.963 48.0341 114.963 48.3049C114.963 48.937 114.963 49.569 115.59 49.8399C116.127 50.1107 116.843 49.8399 117.828 48.4855C118.097 48.0341 118.276 47.6729 118.544 47.3117C119.261 46.3185 120.156 46.2283 121.141 47.0409L121.23 47.1312C121.678 46.77 122.126 46.4088 122.573 46.2283C123.827 45.5962 124.901 46.3185 125.08 47.6729C125.17 48.1243 125.259 48.5758 125.349 48.937C125.349 49.0272 125.528 49.2981 125.618 49.3884C125.886 49.569 126.155 49.569 126.423 49.3884C126.602 49.2981 127.14 48.8467 127.319 48.7564C128.304 47.9438 128.93 47.402 130.005 46.8603C130.631 46.5894 131.258 46.5894 131.885 46.8603C132.064 46.9506 132.243 47.0409 132.422 47.1312C132.512 47.1312 132.422 47.1312 132.512 47.1312C133.138 46.77 133.765 47.1312 133.765 47.8535C133.765 48.3049 133.765 48.7564 133.676 49.2078C133.676 49.3884 133.676 49.6593 133.676 49.8399V50.0204C133.765 49.9301 135.198 48.0341 135.645 47.1312C135.914 46.6797 136.093 46.3185 136.272 45.8671C136.541 45.4156 136.899 45.3254 137.257 45.6865C137.794 46.4088 138.242 47.0409 138.6 47.9438C138.69 48.1243 138.779 48.6661 138.779 48.6661C138.779 48.7564 139.048 48.6661 139.048 48.6661C139.227 48.6661 139.406 48.6661 139.585 48.7564C139.764 48.7564 139.943 48.8467 139.943 49.0272C140.122 49.0272 140.122 49.1175 140.122 49.2078ZM106.994 43.1584C106.905 42.8875 106.188 43.0681 106.188 43.339C106.099 43.8807 106.188 45.5962 106.547 46.77C106.905 46.0477 107.173 43.7904 106.994 43.1584ZM131.258 47.3117C130.9 47.3117 130.094 47.6729 129.915 48.0341C129.736 48.3049 129.736 48.937 129.915 49.2078C130.005 49.4787 130.363 49.6593 130.721 49.6593C131.437 49.6593 132.064 49.2078 132.064 48.6661C132.064 48.3952 132.243 47.402 131.258 47.3117ZM132.78 52.368C132.422 52.7291 131.974 53.4515 131.706 53.9029C131.258 54.6252 130.9 55.3475 131.079 56.1602C131.169 56.7019 131.795 56.9728 132.154 56.6116C132.422 56.431 132.601 56.0699 132.691 55.799C132.87 55.167 132.87 54.9864 132.87 54.3544C133.049 53.9932 132.87 52.4583 132.78 52.368ZM138.242 49.569C138.242 49.4787 138.152 49.4787 138.063 49.4787C137.615 49.3884 137.168 49.4787 136.988 49.6593C136.72 49.9301 136.899 50.833 137.168 50.9233C137.794 51.0136 138.331 50.3816 138.242 49.569Z" fill="#A7A9AC"/>
<path d="M20.7725 43.6102C20.5934 43.6102 20.5039 43.4297 20.5039 43.3394V43.2491C20.5934 43.1588 20.683 43.0685 20.7725 42.9782C20.862 42.8879 20.9516 42.7073 21.0411 42.617V42.5268C20.7725 42.3462 20.5934 42.1656 20.5934 41.8947V41.8044C20.5934 41.8044 20.5934 41.8044 20.5934 41.7141C20.683 41.353 20.862 41.2627 21.1307 41.2627C21.2202 41.2627 21.2202 41.2627 21.3097 41.2627C21.4888 41.2627 21.5783 41.353 21.7574 41.5336C21.9365 41.7141 21.9365 41.8947 21.9365 41.985V42.0753C21.9365 42.2559 21.7574 42.5268 21.4888 42.9782C21.2202 43.4297 20.9516 43.6102 20.7725 43.6102Z" fill="#A6A8AB"/>
<path d="M76.7316 22.3915C78.0746 22.3915 79.4176 23.1138 80.1339 24.1973C80.4025 23.9264 83.2676 21.4886 83.5362 21.2177C81.7455 18.8701 79.6862 17.877 76.642 17.877C71.2699 17.877 67.4199 21.8497 67.4199 27.2671C67.4199 32.7748 71.2699 36.7476 76.642 36.7476C79.5071 36.7476 81.5664 35.8447 83.4467 33.6777C83.1781 33.4068 80.4025 30.8787 80.2234 30.6078C79.4176 31.4204 78.4327 32.2331 76.7316 32.2331C74.135 32.2331 72.5234 30.2467 72.5234 27.2671C72.5234 24.2875 74.135 22.3915 76.7316 22.3915Z" fill="#78C144"/>
<path d="M30.2637 18.4189V28.5314C30.2637 33.0459 33.9346 36.6575 38.4113 36.6575C42.8881 36.6575 46.4695 32.9556 46.4695 28.5314V18.4189H41.7241V28.5314C41.7241 30.3372 40.202 31.8722 38.4113 31.8722C36.6206 31.8722 35.0986 30.3372 35.0986 28.5314V18.4189H30.2637Z" fill="#FBAE17"/>
<path d="M65.2706 36.2064V26.0939C65.2706 21.5794 61.5997 17.9678 57.2124 17.9678C52.7357 17.9678 49.1543 21.6697 49.1543 26.0939V36.2064H53.8996V26.0939C53.8996 24.2881 55.4217 22.7531 57.2124 22.7531C59.0031 22.7531 60.5252 24.2881 60.5252 26.0939V36.2064H65.2706Z" fill="#F26C6B"/>
<path d="M16.2058 36.2064H11.4605V26.0939C11.4605 24.2881 10.0279 22.7531 8.14767 22.7531C6.26744 22.7531 4.83488 24.2881 4.83488 26.0939V36.2064H0V26.0939C0 21.5794 3.5814 17.9678 8.05814 17.9678C10.2965 17.9678 12.2663 18.8707 13.7884 20.3153C15.2209 18.8707 17.2802 17.9678 19.5186 17.9678C23.9953 17.9678 27.5767 21.6697 27.5767 26.0939V36.2064H22.8314V26.0939C22.8314 24.1978 21.3988 22.7531 19.5186 22.7531C17.7279 22.7531 16.2058 24.2881 16.2058 26.0939V36.2064Z" fill="#E4202B"/>
<path d="M95.2654 17.9682C99.7421 17.9682 102.965 21.3992 102.965 25.5525V36.2067H98.1305V26.3651C98.1305 24.1982 96.4293 22.7535 94.5491 22.7535C92.4898 22.7535 90.9677 24.4691 90.9677 26.3651V36.2067H86.1328V9.39062H90.9677C90.9677 9.39062 90.9677 17.3361 90.9677 19.3225C91.684 18.8711 93.2956 17.9682 95.2654 17.9682Z" fill="#2ABEC5"/>
<path d="M117.29 35.9359C117.29 34.2204 117.469 32.1437 115.768 30.4282C114.604 29.2544 112.634 28.803 111.022 29.435V36.2067H106.188V9.39062H110.933C110.933 9.39062 110.933 21.2186 110.933 24.3788C112.455 24.8302 113.977 24.2885 114.872 23.2953C116.305 21.6701 116.036 20.1351 116.036 18.3293C116.036 18.3293 119.886 18.3293 120.692 18.3293C120.692 21.2186 120.961 23.2953 118.364 26.4554C119.707 27.5389 120.334 28.1709 121.05 29.6156C121.946 31.3311 121.946 33.4078 121.946 35.2136C121.946 35.3039 121.946 36.2067 121.946 36.2067H117.2L117.29 35.9359Z" fill="#E4202B"/>
<path d="M148.898 36.2064V26.0939C148.898 21.5794 145.227 17.9678 140.839 17.9678C136.363 17.9678 132.781 21.6697 132.781 26.0939V36.2064H137.527V26.0939C137.527 24.2881 139.049 22.7531 140.839 22.7531C142.63 22.7531 144.152 24.2881 144.152 26.0939V36.2064H148.898Z" fill="#F26C6B"/>
<path d="M129.558 18.4189H124.812V36.2964H129.558V18.4189Z" fill="#FBAE17"/>
<path d="M130.005 0C132.781 0 135.109 2.25725 135.198 4.96595C137.974 5.14653 140.123 7.40378 140.123 10.2028C140.123 13.092 137.795 15.5299 134.84 15.5299H132.512H127.409H124.723V5.23682C124.812 2.34754 127.14 0 130.005 0ZM134.661 7.67465H132.602V5.59798C132.602 4.33392 131.617 3.34073 130.363 3.34073C129.11 3.34073 128.125 4.33392 128.125 5.59798V7.67465V12.0989H132.512H134.571C135.825 12.0989 136.81 11.1057 136.81 9.84161C136.81 8.66784 135.825 7.67465 134.661 7.67465Z" fill="#E4202B"/>
<path d="M152.479 36.2066C151.584 36.2066 150.957 35.5745 150.957 34.6716C150.957 33.7687 151.584 33.1367 152.479 33.1367C153.374 33.1367 154.001 33.7687 154.001 34.6716C154.001 35.5745 153.374 36.2066 152.479 36.2066ZM152.479 33.3173C151.763 33.3173 151.136 33.859 151.136 34.6716C151.136 35.4843 151.673 36.026 152.479 36.026C153.195 36.026 153.822 35.4843 153.822 34.6716C153.822 33.859 153.285 33.3173 152.479 33.3173ZM152.748 34.7619L153.106 35.4843H152.837L152.479 34.7619H152.121V35.4843H151.852V33.7687H152.569C152.837 33.7687 153.106 33.9493 153.106 34.3105C153.195 34.4911 153.016 34.6717 152.748 34.7619ZM152.658 33.9493H152.211V34.4911H152.658C152.927 34.4911 153.016 34.4008 153.016 34.2202C152.927 34.0396 152.837 33.9493 152.658 33.9493Z" fill="#F26C6B"/>
</svg>
