<svg width="128" height="41" viewBox="0 0 128 41" fill="none" xmlns="http://www.w3.org/2000/svg">
<path d="M25.0619 16.2405C23.1209 10.7011 17.554 8.91761 13.864 9.0435C9.34223 9.1694 6.86803 12.7364 6.74006 12.7364V10.7011C6.74006 10.2605 6.74006 9.67298 5.9722 9.67298L1.10912 9.73593C0.469244 9.73593 0 9.86182 0 10.6172V39.783C0 40.4754 0.31994 40.9371 1.30109 40.9371H6.16416C6.80404 40.9371 7.46525 40.4335 7.40126 39.783V30.6766C7.40126 30.4877 7.40126 30.4248 7.65721 30.6766C8.10513 31.306 9.85413 33.5512 14.7172 33.6141C24.55 33.803 27.3868 22.7242 25.0619 16.2405ZM18.5352 21.717C18.4072 24.13 16.9781 27.1305 12.9042 27.2564C8.51039 27.3823 6.95335 24.6546 6.82537 21.4023C6.63341 17.8982 8.9583 15.4852 12.6483 15.4222C16.9141 15.4222 18.5991 18.6116 18.4712 21.717H18.5352ZM67.1873 9.10645C65.2463 9.10645 63.3053 9.0435 61.6203 10.1975C60.5112 10.89 59.6793 11.8552 59.0395 13.0092C58.9115 13.261 58.7835 13.6387 58.7835 13.261V10.7221C58.7195 10.0926 58.2716 9.63101 57.4184 9.63101H52.4274C51.6595 9.63101 51.3823 10.3234 51.3823 10.7851V31.6627C51.3823 32.9427 52.0221 33.0056 52.7473 33.0056H57.4184C58.1863 33.0056 58.7195 32.8168 58.7195 31.7257V23.9621C58.7195 22.2416 58.6555 20.3951 59.2314 18.7375C59.6154 17.4575 60.5325 16.5133 61.6843 15.9258C62.8574 15.4222 64.0732 15.2963 65.3103 15.2963C66.3554 15.4222 68.2324 15.9258 68.2324 14.2682V10.1766C68.2324 9.67298 67.7845 9.08547 67.1873 9.14842V9.10645ZM95.4699 21.1295C95.4059 14.1842 91.0761 10.806 88.3459 9.86182C84.8479 8.58188 81.4139 8.70778 78.5771 10.6172C77.7453 11.2047 76.9987 11.9181 76.3802 12.7155H76.2522V10.5542C76.2522 10.0507 75.7403 9.58905 75.2071 9.58905H70.6853C69.9814 9.58905 69.5761 10.2185 69.5761 10.869V39.846C69.5761 40.1607 69.5761 40.9371 70.6853 41H75.6763C76.1882 41 76.9134 40.8741 76.9134 39.7201V30.6136C76.9774 30.3618 77.1694 30.6136 77.2973 30.8654C78.3425 32.3342 80.9233 33.4673 83.5682 33.5931C87.2581 33.782 90.0309 32.502 92.2492 30.089C94.3394 27.5502 95.4486 24.3818 95.4272 21.1085H95.4699V21.1295ZM88.026 21.5911C88.09 24.7805 85.6371 27.3193 82.395 27.3193C77.532 27.1935 76.3802 23.6894 76.3162 21.717C76.3162 17.2057 79.2383 15.6111 81.6912 15.4222C86.341 15.1494 87.962 18.4017 88.026 21.5911ZM127.976 21.5282C128.488 12.6105 120.852 5.60235 109.974 10.7011C103.17 13.8275 101.698 23.4376 106.22 28.914C111.723 35.6704 122.068 34.5793 126.227 29.7953C126.803 29.1658 126.419 28.6412 125.843 28.2006L122.537 25.9135C122.089 25.5988 121.428 25.7247 121.108 26.1024C120.468 26.7948 118.847 28.2636 116.458 28.2006C113.408 28.2006 111.531 26.2912 110.955 23.6894L126.867 23.5635C127.848 23.5005 127.762 22.7451 127.912 21.4652L127.976 21.5282ZM111.019 18.6535C111.211 15.8419 113.6 14.2052 116.266 14.2052C118.975 14.2682 120.532 16.1146 120.788 18.6535H111.083H111.019ZM47.1377 9.67298H42.8719C41.7627 9.67298 41.3148 10.4913 41.3148 11.3935C41.3148 11.3935 41.5068 21.1924 41.1869 23.1648C40.9309 25.2001 40.0777 27.0466 37.049 27.2354C33.615 27.3613 33.295 24.0461 33.167 23.4166V11.1208C33.167 10.3654 32.5912 9.58905 31.674 9.58905H26.427C25.9791 9.58905 25.7871 9.96674 25.7231 10.2185L25.7871 11.3096C25.9151 11.6873 26.6829 12.7155 27.0882 13.4079C28.9865 17.1638 29.4344 21.4652 28.3253 25.5148C27.7494 27.5502 27.3441 28.1167 27.0242 28.893C26.5763 29.9212 28.4533 32.0824 30.2023 32.7119C32.5911 33.5931 38.3501 34.6213 41.5281 29.7114V31.4319C41.5281 32.0614 42.04 32.9007 43.1492 32.9007H47.1591C47.9269 32.9007 48.5881 32.2712 48.5881 31.369V11.1837C48.5455 10.3864 47.9056 9.67298 47.1377 9.67298ZM101.101 0H96.2377C95.1286 0 94.8087 -1.3113e-06 94.8087 1.02815V8.28813C94.8087 9.37922 94.6167 10.89 95.1926 11.7922C96.3017 13.5128 98.0507 16.3664 98.2427 19.3669C98.3707 22.2416 98.0507 25.0952 96.8136 27.781C96.1738 29.0609 95.1926 30.0681 94.8727 31.411C94.7447 31.9145 94.6807 32.4181 94.6807 32.9427C94.6807 33.3204 94.8727 34.0338 95.7258 34.0338H100.717C101.293 34.0338 102.018 33.9079 102.018 32.9427V1.09109C102.018 0.440634 101.698 0 101.101 0Z" fill="#45166A"/>
</svg>
