<svg width="62" height="68" viewBox="0 0 62 68" fill="none" xmlns="http://www.w3.org/2000/svg">
<path fill-rule="evenodd" clip-rule="evenodd" d="M28.8497 13.5323L31.8843 8.74947L34.9213 13.5323H40.4617L31.8851 0L23.3002 13.5323H28.8497ZM39.7226 21.1021L41.0146 23.14H46.5616L45.2696 21.1021H39.7226ZM36.1701 42.5091H10.4652L24.0484 21.103H18.5039L1.96094 47.1738H39.0658L36.1701 42.5091ZM47.7314 24.9887L44.962 29.3651L53.3 42.5091H45.3619L48.2543 47.1721H61.806L47.7314 24.9887ZM12.3309 28.2879C12.3225 28.0872 12.3209 27.8889 12.3209 27.6932C12.3209 19.6987 17.1512 12.8202 24.0634 9.78533L27.9859 3.60899C16.3323 5.51467 7.44062 15.5742 7.44062 27.6932C7.44062 30.0457 7.77318 32.319 8.40503 34.4766L12.3309 28.2879ZM51.7013 27.6932C51.7013 28.0203 51.6888 28.3408 51.6763 28.6613L55.5365 34.7476C56.214 32.5106 56.5848 30.1449 56.5848 27.6923C56.5848 15.4735 47.5443 5.35029 35.7544 3.5586L39.6079 9.63829C46.7104 12.5931 51.7013 19.5624 51.7013 27.6932ZM32.0132 52.1053C36.7005 52.1053 41.0869 50.796 44.8107 48.5243C36.2782 48.5243 27.7448 48.5243 19.2114 48.5243C22.9377 50.796 27.3241 52.1053 32.0132 52.1053Z" fill="#D22031"/>
<path d="M19.9924 40.8765L23.4294 35.4511H33.1217L40.4005 47.1735L46.9228 47.171L39.7021 35.5576L46.8446 24.2705H30.5195L33.4593 19.6315H44.3388L41.3974 14.999H22.371L19.4312 19.6315H26.9437L13.4785 40.8765H19.9924ZM27.5788 28.9047H37.3876L36.1771 30.8203H26.3692L27.5788 28.9047ZM2.41269 56.4896H4.05884V66.2683L3.82938 67.7354H6.38174L6.15311 66.2691V56.4896H7.80092V54.2436H2.41352V56.4896H2.41269ZM11.2188 54.2444H8.73624L8.96902 55.7288V66.2691L8.73624 67.7354H11.2188L10.9901 66.2691V55.7288L11.2188 54.2444ZM15.5245 60.7751H16.0857V65.4489H14.8885C14.6857 65.4489 14.5842 65.3134 14.5842 65.0259V56.9472C14.5842 56.6655 14.6857 56.5251 14.8885 56.5251H17.4292V54.2436H14.1793C13.9698 54.2436 13.7645 54.2841 13.5674 54.3642C13.3712 54.446 13.1966 54.5715 13.0412 54.7524C12.8865 54.9284 12.766 55.1597 12.672 55.4364C12.5806 55.7172 12.5373 56.051 12.5373 56.4516V65.5282C12.5373 65.7842 12.5789 66.0494 12.6645 66.3038C12.7518 66.5698 12.8674 66.7995 13.0112 67.0117C13.1559 67.2249 13.3305 67.3983 13.5325 67.5322C13.7337 67.6668 13.9499 67.7345 14.1793 67.7345H18.0503V58.6431H15.5245V60.7751ZM20.3823 54.4071C20.2061 54.5203 20.0523 54.6723 19.9168 54.8524C19.7887 55.0399 19.6881 55.2481 19.6083 55.4884C19.5327 55.7172 19.4936 55.9692 19.4936 56.2261V65.7694C19.4936 66.0172 19.5327 66.2567 19.6083 66.4938C19.6881 66.7317 19.7887 66.9391 19.9168 67.1216C20.0514 67.3091 20.2061 67.4553 20.3823 67.5743C20.5619 67.6833 20.7548 67.7362 20.9668 67.7362H23.9257V65.4497H21.8348C21.6394 65.4497 21.5454 65.3283 21.5454 65.0623V60.7759H23.7819V58.6588H21.5454V56.953C21.5247 56.6664 21.6194 56.5259 21.8348 56.5259H23.9257V54.2444H20.9668C20.7548 54.2444 20.5611 54.2973 20.3823 54.4071ZM29.9682 61.6838C29.8194 61.5103 29.6723 61.3699 29.5301 61.2575C29.3829 61.1435 29.2649 61.0741 29.1668 61.0345C29.3289 60.9965 29.496 60.9139 29.6648 60.7817C29.8336 60.6545 29.9874 60.5009 30.1221 60.3274C30.2567 60.1539 30.3648 59.9664 30.4521 59.7715C30.5386 59.5782 30.586 59.3907 30.5968 59.2164V56.1699C30.5968 56.0336 30.5602 55.8601 30.4887 55.6396C30.418 55.4199 30.2983 55.2067 30.1345 55.0035C29.9707 54.7904 29.7596 54.6087 29.5052 54.4575C29.2508 54.3105 28.9373 54.2411 28.5607 54.2411H25.2842V67.7354H27.3036V62.0786C27.3627 62.0786 27.4583 62.1059 27.5988 62.1736C27.7343 62.2397 27.8756 62.3454 28.017 62.4669C28.1633 62.5875 28.298 62.7345 28.4269 62.9088C28.5541 63.0823 28.643 63.2673 28.6887 63.4688V67.7354H30.7406V63.1888C30.6541 62.8551 30.5394 62.561 30.4022 62.319C30.2626 62.067 30.1162 61.8581 29.9682 61.6838ZM28.7029 58.976C28.6763 59.1858 28.6081 59.3667 28.4967 59.5261C28.3869 59.6732 28.2656 59.807 28.1317 59.9259C28.0003 60.0333 27.8557 60.1258 27.7069 60.1928C27.5514 60.2597 27.4184 60.3018 27.3036 60.3282V56.3426H28.2331C28.3936 56.3426 28.5141 56.3971 28.589 56.5177C28.6688 56.6383 28.7037 56.7845 28.7037 56.972V58.976H28.7029ZM34.279 61.5722H31.838V63.7646H34.2798C34.4411 63.7646 34.5567 63.6985 34.624 63.563C34.6922 63.4416 34.7271 63.321 34.7271 63.2029V62.1315C34.7271 61.9977 34.6922 61.8663 34.624 61.7457C34.5559 61.6317 34.4411 61.5722 34.279 61.5722ZM40.7522 61.6838C40.6025 61.5103 40.4579 61.3699 40.3149 61.2575C40.1677 61.1435 40.0497 61.0741 39.9524 61.0345C40.1178 60.9965 40.28 60.9139 40.4504 60.7817C40.6167 60.6545 40.773 60.5009 40.9085 60.3274C41.0423 60.1539 41.1496 59.9664 41.2369 59.7715C41.3242 59.5782 41.3707 59.3907 41.3849 59.2164V56.1699C41.3849 56.0336 41.3458 55.8601 41.2768 55.6396C41.2045 55.4199 41.0864 55.2067 40.9218 55.0035C40.7605 54.7904 40.5477 54.6087 40.2924 54.4575C40.0389 54.3105 39.7238 54.2411 39.3463 54.2411H36.0698V67.7354H38.0893V62.0786C38.1491 62.0786 38.2456 62.1059 38.3836 62.1736C38.5232 62.2397 38.6613 62.3454 38.8101 62.4669C38.9489 62.5875 39.0828 62.7345 39.2125 62.9088C39.338 63.0823 39.4303 63.2673 39.4768 63.4688V67.7354H41.5262V63.1888C41.4373 62.8551 41.3275 62.561 41.1895 62.319C41.0465 62.067 40.9035 61.8581 40.7522 61.6838ZM39.4901 58.976C39.4602 59.1858 39.392 59.3667 39.284 59.5261C39.1709 59.6732 39.0537 59.807 38.919 59.9259C38.7868 60.0333 38.6438 60.1258 38.4908 60.1928C38.337 60.2597 38.2023 60.3018 38.0884 60.3282V56.3426H39.0196C39.1809 56.3426 39.2989 56.3971 39.3796 56.5177C39.4552 56.6383 39.491 56.7845 39.491 56.972V58.976H39.4901ZM47.6852 54.7607C47.469 54.5137 47.2187 54.3196 46.9261 54.1783C46.6409 54.0321 46.3391 53.9636 46.0357 53.9636H45.2816C44.9623 53.9636 44.6622 54.0321 44.3812 54.1783C44.0977 54.3196 43.8425 54.5137 43.6205 54.7607C43.3977 55.0085 43.2223 55.3026 43.0909 55.6421C42.9629 55.9824 42.8997 56.3516 42.8997 56.7465V65.2333C42.8997 65.6223 42.9629 65.9949 43.0909 66.3286C43.2214 66.6632 43.3977 66.9457 43.6205 67.1993C43.8425 67.4446 44.0977 67.6395 44.3812 67.7874C44.6622 67.9212 44.9623 67.9997 45.2816 67.9997H46.0348C46.3383 67.9997 46.6409 67.9212 46.9253 67.7874C47.2187 67.6395 47.4682 67.4446 47.6843 67.1993C47.9055 66.9457 48.0759 66.664 48.2031 66.3286C48.3361 65.9949 48.4035 65.6223 48.4035 65.2333V56.7465C48.4035 56.3516 48.3361 55.9824 48.2031 55.6421C48.0759 55.3026 47.9055 55.0077 47.6852 54.7607ZM46.4073 65.0259C46.4073 65.3464 46.3441 65.6066 46.2136 65.8082C46.0831 66.0015 45.9675 66.1014 45.8594 66.1014H45.457C45.3498 66.1014 45.2292 66.0155 45.0937 65.8421C44.959 65.6744 44.8909 65.3952 44.8909 65.0259V56.9332C44.8909 56.559 44.949 56.2897 45.0663 56.1162C45.1777 55.9427 45.309 55.8568 45.457 55.8568H45.8594C46.0032 55.8568 46.1304 55.956 46.2402 56.1559C46.3516 56.3516 46.4073 56.611 46.4073 56.9332V65.0259ZM54.594 54.6723C54.4593 54.531 54.3038 54.417 54.1351 54.3245C53.9596 54.2328 53.7792 54.1858 53.598 54.1858H51.473C51.2443 54.1858 51.0298 54.251 50.832 54.379C50.6366 54.5112 50.4636 54.6847 50.3165 54.8871C50.1793 55.101 50.0596 55.3406 49.9723 55.5958C49.885 55.8552 49.8418 56.1154 49.8418 56.3706V65.5414C49.8418 65.8074 49.885 66.0626 49.9798 66.3278C50.0704 66.5839 50.1951 66.8242 50.3489 67.025C50.5027 67.2389 50.6773 67.4107 50.8777 67.5454C51.0689 67.666 51.2718 67.7345 51.473 67.7345H54.8692V65.448H52.1979C51.9959 65.448 51.8895 65.3126 51.8895 65.0251V56.7638C51.8895 56.478 51.9959 56.3426 52.1979 56.3426H53.2363V58.6423H55.0379V55.5231C55.0379 55.3959 54.998 55.2604 54.9174 55.101C54.8368 54.9532 54.7278 54.8053 54.594 54.6723ZM60.8893 59.9557C61.0639 59.7946 61.2002 59.6591 61.3066 59.5394C61.4139 59.4196 61.497 59.2998 61.5627 59.166C61.63 59.0445 61.6832 58.8975 61.704 58.7364C61.724 58.5762 61.7389 58.3631 61.7389 58.102V54.2436H59.7187V57.8013C59.7187 58.0549 59.7137 58.2441 59.7054 58.3771C59.6921 58.5175 59.6655 58.6291 59.6322 58.7108C59.5973 58.8025 59.5441 58.8835 59.4634 58.9496C59.3969 59.0156 59.3013 59.0982 59.1799 59.1965L58.3876 59.8458V54.2436H56.3682V67.7354H58.3876V61.8531L59.1558 61.1848L59.88 67.7354H62L60.8893 59.9557ZM5.35415 35.5551C5.35415 34.1195 4.19436 32.9655 2.68622 32.9655C1.19304 32.9655 0 34.1195 0 35.5551C0 37.0255 1.19387 38.1762 2.68622 38.1762C4.19519 38.1762 5.35415 37.0255 5.35415 35.5551ZM0.670099 35.5551C0.670099 34.4193 1.52477 33.4876 2.68705 33.4876C3.84684 33.4876 4.68654 34.4193 4.68654 35.5708C4.68654 36.7066 3.84601 37.6285 2.70201 37.6285C1.52477 37.6285 0.670099 36.7075 0.670099 35.5551ZM3.09942 36.2804C3.1784 36.5852 3.22579 36.8198 3.30643 36.914H3.95741C3.89256 36.8198 3.84601 36.6662 3.76536 36.2664C3.68804 35.9194 3.54255 35.7294 3.28981 35.6369V35.6031C3.60989 35.5097 3.83104 35.2883 3.83104 35.0067C3.83104 34.7522 3.71797 34.5416 3.5758 34.4367C3.38458 34.3243 3.1626 34.2459 2.66793 34.2459C2.24059 34.2459 1.90721 34.2764 1.6686 34.3243V36.914H2.27136V35.8765H2.55985C2.88991 35.8765 3.05037 35.9987 3.09942 36.2804ZM2.28798 35.4486V34.7018C2.352 34.6878 2.46341 34.6696 2.62137 34.6696C3.00381 34.6696 3.17757 34.8324 3.17757 35.062C3.17757 35.3354 2.90986 35.4478 2.57398 35.4478H2.28798V35.4486Z" fill="#232323"/>
</svg>
