<svg width="120" height="120" viewBox="0 0 120 120" fill="none" xmlns="http://www.w3.org/2000/svg">
<path d="M87.6384 26.5261L87.4789 26.4724L87.3194 26.5261L76.5374 30.1554L65.7557 26.5262L65.5962 26.4725L65.4367 26.5262L53.9156 30.4042L53.5751 30.5188V30.8781V47.2188L43.5461 50.5946L32.6806 46.9373L32.5211 46.8836L32.3616 46.9373L20.8405 50.8153L20.5 50.9299V51.2892V68.7109V69.0702L20.8405 69.1848L31.5243 72.781V89.122V89.4813L31.8648 89.5959L43.3858 93.4739L43.5454 93.5276L43.7049 93.4739L55.226 89.5959L55.5664 89.4813V89.122V72.7815L66.2514 69.1849L66.5919 69.0703V68.711V52.3702L76.5377 49.0225L87.3194 52.6516L87.4789 52.7053L87.6384 52.6516L99.1595 48.7736L99.5 48.659V48.2998V30.878V30.5187L99.1595 30.4041L87.6384 26.5261ZM42.5498 67.6298L33.5169 70.6702V56.0813L42.5498 53.0409V67.6298ZM44.5422 53.0409L53.575 56.0814V70.6706L44.5422 67.6302V53.0409ZM51.4353 72.0611L43.5454 74.7169L35.656 72.0613L43.5459 69.4055L51.4353 72.0611ZM66.592 50.2595V35.6702L75.4578 32.686V47.2753L66.592 50.2595ZM86.4831 50.2594L77.6173 47.2752V32.6859L86.4831 35.6702V50.2594ZM97.5083 32.6295V47.2187L88.4748 50.2594V35.6702L97.5083 32.6295ZM79.589 31.2389L87.4789 28.5832L95.3688 31.2389L87.4789 33.8946L79.589 31.2389ZM55.5668 47.2188V32.6295L64.6003 35.6702V50.2595L55.5668 47.2188ZM65.5962 33.8947L57.7063 31.239L65.5962 28.5832L73.4861 31.239L65.5962 33.8947ZM64.6002 67.6299L55.5667 70.6706V56.0814L64.6002 53.0407V67.6299ZM54.5709 48.9944L62.4607 51.6501L54.5709 54.3059L46.6809 51.6501L54.5709 48.9944ZM22.4917 67.6299V53.0406L31.5252 56.0813V70.6706L22.4917 67.6299ZM32.5211 48.9943L40.411 51.6501L32.5211 54.3058L24.6312 51.6501L32.5211 48.9943ZM42.5495 91.0816L33.516 88.0409V73.4517L42.5495 76.4924V91.0816ZM53.5747 88.0409L44.5412 91.0816V76.4924L53.5747 73.4517V88.0409Z" fill="#00ADFF" stroke="#00ADFF"/>
</svg>
