<svg width="538" height="131" viewBox="0 0 538 131" fill="none" xmlns="http://www.w3.org/2000/svg">
<g clip-path="url(#clip0)">
<path d="M256.242 81H307.969V117.295C305.191 120.131 302.404 122.957 299.611 125.776H248V89.3727C250.736 86.5713 253.496 83.7909 256.242 81Z" fill="#41CD52"/>
<path d="M263.884 90.4216C265.848 89.0995 268.277 88.7653 270.586 88.7864C272.785 88.8142 275.093 89.2065 276.915 90.5418C278.239 91.4889 279.1 92.951 279.674 94.4634C280.602 96.9465 280.874 99.6278 280.905 102.267C280.909 104.924 280.791 107.64 279.927 110.172C279.348 111.894 278.246 113.424 276.792 114.486C277.838 116.211 278.905 117.923 279.951 119.648C278.636 120.264 277.325 120.885 276.009 121.499C274.889 119.619 273.774 117.734 272.65 115.856C271.13 116.109 269.575 116.089 268.047 115.918C266.217 115.694 264.352 115.126 262.939 113.873C261.854 112.917 261.173 111.579 260.707 110.218C259.944 107.917 259.739 105.469 259.703 103.054C259.685 100.444 259.849 97.7932 260.622 95.2889C261.221 93.4054 262.211 91.5259 263.884 90.4216Z" fill="white"/>
<path d="M286.179 90.3369C287.555 90.3356 288.931 90.3356 290.307 90.3369C290.311 92.1887 290.306 94.0392 290.31 95.891C292.068 95.8937 293.827 95.891 295.586 95.8923C295.556 97.0943 295.524 98.2963 295.49 99.4982C293.733 99.5022 291.976 99.4969 290.219 99.5009C290.223 102.536 290.21 105.571 290.225 108.607C290.259 109.437 290.241 110.314 290.6 111.082C290.863 111.674 291.569 111.826 292.144 111.845C293.228 111.841 294.31 111.777 295.394 111.757C295.46 112.861 295.524 113.967 295.586 115.071C293.43 115.439 291.168 115.88 289.026 115.191C288.124 114.919 287.283 114.31 286.917 113.403C286.261 111.859 286.208 110.14 286.179 108.483C286.177 105.488 286.179 102.495 286.178 99.5009C285.219 99.4982 284.26 99.5022 283.3 99.4982C283.298 98.2976 283.298 97.0956 283.3 95.8937C284.26 95.8897 285.217 95.895 286.177 95.891C286.181 94.0392 286.175 92.1887 286.179 90.3369Z" fill="white"/>
<path d="M268.835 92.5838C270.171 92.4068 271.572 92.4544 272.837 92.9682C273.861 93.3803 274.731 94.1873 275.19 95.2096C275.895 96.7589 276.165 98.4694 276.301 100.159C276.449 102.407 276.428 104.676 276.123 106.911C275.909 108.241 275.604 109.642 274.719 110.691C273.821 111.744 272.436 112.195 271.106 112.301C269.705 112.405 268.226 112.301 266.961 111.626C266.222 111.226 265.595 110.599 265.229 109.83C264.785 108.909 264.541 107.904 264.37 106.898C263.853 103.707 263.728 100.404 264.435 97.2318C264.725 96.0351 265.149 94.8067 266.008 93.9046C266.755 93.1319 267.797 92.733 268.835 92.5838Z" fill="#41CD52"/>
</g>
<path d="M50.5127 11.4682C50.5127 11.3688 50.4854 11.2978 50.4292 11.2514C50.367 11.2014 50.2594 11.1747 50.1096 11.1747H49.8943V11.7654H50.1542C50.3942 11.7654 50.5127 11.6661 50.5127 11.4682ZM50.8485 12.6998H50.5526L50.3638 12.2842C50.268 12.0759 50.1655 11.9718 50.0536 11.9718H49.8943V12.6998H49.6504V10.9674H50.139C50.3563 10.9674 50.5193 11.0144 50.6313 11.1123C50.7262 11.1965 50.7736 11.3045 50.7736 11.4389C50.7736 11.5582 50.7349 11.6585 50.6569 11.7417C50.581 11.826 50.4719 11.8828 50.3325 11.9122V11.9197C50.4293 11.9424 50.526 12.0485 50.6199 12.2397L50.8485 12.7007V12.6998ZM51.3892 11.8506C51.3892 11.5099 51.2726 11.2221 51.0401 10.9939C50.8068 10.7658 50.5222 10.6513 50.1864 10.6513C49.8401 10.6513 49.5518 10.7658 49.3232 10.9959C49.0945 11.2268 48.9808 11.5126 48.9808 11.8506C48.9808 12.1962 49.0993 12.4849 49.3346 12.7149C49.567 12.9449 49.8516 13.0585 50.1864 13.0585C50.5193 13.0585 50.8039 12.944 51.0382 12.7111C51.2726 12.482 51.3892 12.1943 51.3892 11.8506ZM51.5533 11.8431C51.5533 12.2256 51.4215 12.5465 51.1569 12.8049C50.8922 13.0653 50.5677 13.1949 50.1797 13.1949C49.789 13.1949 49.4646 13.0672 49.2065 12.8163C48.9485 12.5617 48.8204 12.2417 48.8204 11.8536C48.8204 11.474 48.9513 11.155 49.2131 10.8928C49.475 10.6315 49.8013 10.5009 50.1912 10.5009C50.5734 10.5009 50.8941 10.6259 51.154 10.8748C51.4205 11.1304 51.5533 11.4522 51.5533 11.8431Z" fill="black"/>
<path d="M14.4508 16.6737H13.6094V11.8686C13.6094 11.4891 13.6345 11.0271 13.6793 10.4819H13.6603C13.5815 10.8009 13.5094 11.0318 13.4459 11.1748L11.0004 16.6737H10.5906L8.1403 11.2146C8.07124 11.0621 7.999 10.8169 7.92592 10.4819H7.90771C7.93351 10.7687 7.94793 11.2335 7.94793 11.8781V16.6737H7.13683V9.51822H8.2467L10.4466 14.5079C10.6125 14.8837 10.7198 15.1696 10.7719 15.3646H10.8068C10.95 14.9736 11.0638 14.6801 11.1502 14.487L13.3974 9.51822H14.4504V16.6737H14.4508Z" fill="black"/>
<path d="M17.039 16.6735H16.2214V11.5636H17.039V16.6735ZM17.1804 9.73186C17.1804 9.8824 17.1273 10.0083 17.0219 10.1115C16.9186 10.2146 16.7905 10.2667 16.6406 10.2667C16.4945 10.2667 16.3674 10.2167 16.2631 10.1172C16.1588 10.0168 16.1075 9.889 16.1075 9.73186C16.1075 9.58419 16.1591 9.45832 16.2631 9.35609C16.3674 9.25385 16.4945 9.20464 16.6406 9.20464C16.7905 9.20464 16.9186 9.25385 17.0219 9.35609C17.1273 9.45832 17.1804 9.58419 17.1804 9.73186Z" fill="black"/>
<path d="M22.149 16.4371C21.7563 16.6775 21.2877 16.7968 20.746 16.7968C20.0119 16.7968 19.4209 16.5536 18.9693 16.0679C18.5311 15.5965 18.3101 14.9878 18.3101 14.2419C18.3101 13.405 18.55 12.7273 19.0338 12.2123C19.5148 11.6964 20.1618 11.4389 20.9757 11.4389C21.4205 11.4389 21.8152 11.526 22.1604 11.6983V12.538C21.7782 12.27 21.3741 12.1375 20.9405 12.1375C20.4188 12.1375 19.9948 12.3193 19.6656 12.6819C19.3231 13.0529 19.1496 13.549 19.1496 14.1681C19.1496 14.7625 19.308 15.233 19.6229 15.5804C19.9388 15.9259 20.3591 16.0992 20.8893 16.0992C21.337 16.0992 21.7563 15.9524 22.149 15.6599V16.4371Z" fill="black"/>
<path d="M26.0602 12.3926C25.916 12.2819 25.7083 12.2279 25.4341 12.2279C25.1012 12.2279 24.8213 12.3766 24.5947 12.6766C24.3375 13.0117 24.2095 13.4756 24.2095 14.0682V16.6733H23.3899V11.5634H24.2095V12.617H24.2292C24.3498 12.2441 24.5357 11.9572 24.7842 11.7537C25.0166 11.5682 25.2794 11.4744 25.5687 11.4744C25.7869 11.4744 25.9491 11.4979 26.06 11.5441V12.3923L26.0602 12.3926Z" fill="black"/>
<path d="M30.6282 14.1278C30.6282 13.4738 30.4802 12.9739 30.1842 12.6312C29.8968 12.3018 29.4955 12.1371 28.9786 12.1371C28.4691 12.1371 28.0603 12.3037 27.7548 12.6369C27.4313 12.9929 27.2701 13.4955 27.2701 14.1478C27.2701 14.7593 27.4238 15.2392 27.734 15.5819C28.0422 15.9264 28.4578 16.0987 28.9786 16.0987C29.5174 16.0987 29.93 15.9236 30.2127 15.5753C30.4897 15.2345 30.6282 14.7526 30.6282 14.1278ZM31.4687 14.0991C31.4687 14.9132 31.2382 15.5673 30.779 16.0577C30.318 16.5499 29.6976 16.796 28.9179 16.796C28.1495 16.796 27.5376 16.5499 27.089 16.0577C26.6497 15.5834 26.4287 14.9567 26.4287 14.1777C26.4287 13.2887 26.6782 12.6034 27.179 12.1168C27.6419 11.6653 28.2614 11.4381 29.0374 11.4381C29.801 11.4381 30.3977 11.6757 30.8274 12.1462C31.2534 12.6195 31.4687 13.2708 31.4687 14.0991Z" fill="black"/>
<path d="M35.5333 15.3064C35.5333 15.7248 35.3768 16.0713 35.0628 16.3477C34.7204 16.6468 34.2499 16.7964 33.658 16.7964C33.1732 16.7964 32.7482 16.6952 32.3877 16.4888V15.6094C32.789 15.935 33.232 16.0988 33.7187 16.0988C34.3675 16.0988 34.6929 15.8602 34.6929 15.385C34.6929 15.1852 34.6215 15.0196 34.4776 14.8918C34.3333 14.7612 34.0535 14.605 33.6371 14.4223C33.2083 14.2348 32.9028 14.0427 32.7226 13.843C32.5063 13.6063 32.3972 13.2987 32.3972 12.92C32.3972 12.4959 32.567 12.1428 32.9028 11.8617C33.2396 11.5796 33.6722 11.4385 34.2034 11.4385C34.6104 11.4385 34.9746 11.518 35.2981 11.678V12.5016C34.9604 12.2583 34.5743 12.1371 34.136 12.1371C33.8648 12.1371 33.6466 12.2045 33.4843 12.3359C33.3203 12.4703 33.2377 12.6417 33.2377 12.8509C33.2377 13.0772 33.3067 13.2532 33.4436 13.3791C33.565 13.4956 33.823 13.6376 34.2119 13.8032C34.6492 13.9859 34.9651 14.1753 35.1577 14.3693C35.4072 14.6145 35.5333 14.9269 35.5333 15.3064Z" fill="black"/>
<path d="M40.5423 14.1278C40.5423 13.4738 40.3943 12.9739 40.0974 12.6312C39.8109 12.3018 39.4087 12.1371 38.8927 12.1371C38.3832 12.1371 37.9744 12.3037 37.6671 12.6369C37.3445 12.9929 37.1842 13.4955 37.1842 14.1478C37.1842 14.7593 37.3379 15.2392 37.6452 15.5819C37.9574 15.9264 38.3728 16.0987 38.8927 16.0987C39.4324 16.0987 39.8441 15.9236 40.1268 15.5753C40.4038 15.2345 40.5423 14.7526 40.5423 14.1278ZM41.3846 14.0991C41.3846 14.9132 41.1523 15.5673 40.6921 16.0577C40.233 16.5499 39.6126 16.796 38.8329 16.796C38.0636 16.796 37.4517 16.5499 37.003 16.0577C36.5638 15.5834 36.3428 14.9567 36.3428 14.1777C36.3428 13.2887 36.5942 12.6034 37.0922 12.1168C37.5551 11.6653 38.1755 11.4381 38.9524 11.4381C39.7161 11.4381 40.3118 11.6757 40.7406 12.1462C41.1674 12.6195 41.3846 13.2708 41.3846 14.0991Z" fill="black"/>
<path d="M44.9963 9.82736C44.835 9.73838 44.6557 9.69294 44.4517 9.69294C43.8778 9.69294 43.5932 10.0535 43.5932 10.7759V11.5635H44.7933V12.2564H43.5932V16.6734H42.7727V12.2564H41.9019V11.5635H42.7727V10.7352C42.7727 10.1728 42.9454 9.73173 43.2964 9.41366C43.5971 9.13723 43.9651 9 44.4024 9C44.6558 9 44.8531 9.0303 44.9963 9.089V9.82736Z" fill="black"/>
<path d="M48.2312 16.622C48.0377 16.7328 47.7796 16.7877 47.4609 16.7877C46.5673 16.7877 46.1205 16.285 46.1205 15.2797V12.2571H45.2421V11.5632H46.1205V10.3166C46.3824 10.2342 46.6546 10.1443 46.942 10.0515V11.5632H48.2312V12.2571H46.942V15.1406C46.942 15.4833 46.9982 15.7284 47.1156 15.8704C47.2342 16.0172 47.4277 16.0891 47.7009 16.0891C47.9049 16.0891 48.0813 16.0346 48.2312 15.9244V16.622Z" fill="black"/>
<path d="M3.92362 36.6167C3.92362 37.0171 3.78042 37.3636 3.49105 37.6561C3.20268 37.9477 2.8526 38.0944 2.44189 38.0944C2.04059 38.0944 1.69909 37.9477 1.41929 37.6561C1.13942 37.3636 1 37.0171 1 36.6167C1 36.205 1.13942 35.8575 1.41929 35.5698C1.69909 35.281 2.04059 35.1381 2.44189 35.1381C2.8526 35.1381 3.20268 35.283 3.49105 35.5755C3.78042 35.868 3.92362 36.2153 3.92362 36.6167Z" fill="black"/>
<path d="M19.6019 37.7935L9.89864 22.8397C9.67189 22.48 9.47647 22.089 9.3105 21.6621H9.23074C9.2998 22.0625 9.33517 22.922 9.33517 24.2388V37.7935H7.13151V19.0323H9.9916L19.4046 33.7505C19.7794 34.3345 20.0354 34.7529 20.1654 35.0047H20.2178C20.1305 34.4652 20.085 33.5451 20.085 32.2463V19.0323H22.2753V37.7935H19.6019Z" fill="black"/>
<path d="M36.4023 37.7935H26.4381V19.0323H35.9697V21.0203H28.6398V27.2613H35.4319V29.2502H28.6398V35.8047H36.4023V37.7935Z" fill="black"/>
<path d="M51.5161 21.0205H46.1006V37.7938H43.8979V21.0205H38.4719V19.0317H51.5161V21.0205Z" fill="black"/>
<path d="M116.171 35.2303H115.546V37.1758H115.29V35.2303H114.662V34.9988H116.171V35.2303Z" fill="black"/>
<path d="M118.732 37.1746H118.478V35.7127C118.478 35.5974 118.487 35.4562 118.499 35.2901C118.473 35.3895 118.451 35.4585 118.431 35.5025L117.69 37.1746H117.566L116.823 35.515C116.801 35.4689 116.78 35.3941 116.756 35.2901H116.747C116.756 35.3778 116.759 35.5195 116.759 35.7161V37.1746H116.515V34.9976H116.852L117.519 36.5171C117.57 36.6312 117.601 36.7193 117.617 36.7781H117.627C117.671 36.6583 117.708 36.569 117.732 36.5103L118.413 34.9976H118.734V37.1746H118.732Z" fill="black"/>
<path d="M82.248 15.6109C84.7786 23.3533 85.7373 37.1651 93.137 37.1651C93.7004 37.1651 94.2696 37.1099 94.8409 37.0012C88.1143 35.432 87.3171 21.7704 83.2124 14.6957C82.8906 14.9883 82.571 15.2934 82.248 15.6109Z" fill="url(#paint0_linear)"/>
<path d="M83.2168 14.696C87.3215 21.7707 88.1187 35.4323 94.8453 37.0015C95.3738 36.9043 95.9034 36.7574 96.4341 36.5722C90.3963 33.6121 88.7273 20.3461 84.0659 13.9594C83.7836 14.1944 83.5002 14.4407 83.2168 14.696Z" fill="url(#paint1_linear)"/>
<path d="M89.1275 10.4885C88.5651 10.4885 87.9949 10.5437 87.4224 10.6524C85.9251 10.9349 84.4041 11.5799 82.8706 12.5561C83.2895 12.9696 83.6881 13.4429 84.063 13.9593C85.6224 12.6645 87.1717 11.7076 88.7154 11.1325C89.2946 10.9179 89.8717 10.7563 90.4509 10.6501C90.0331 10.5438 89.5927 10.4885 89.1275 10.4885Z" fill="#14559A"/>
<path d="M101.144 33.8432C101.762 33.3518 102.381 32.8084 103.001 32.2153C100.429 24.5089 99.5092 10.4995 92.0576 10.4995C91.5246 10.4995 90.9871 10.5492 90.4507 10.6487C97.2383 12.3377 98.1078 27.1131 101.144 33.8432Z" fill="url(#paint2_linear)"/>
<path d="M90.4509 10.6498C90.0331 10.5436 89.5927 10.4883 89.1274 10.4883L92.0577 10.499C91.5247 10.499 90.9872 10.5487 90.4509 10.6493" fill="#3092C4"/>
<path d="M101.014 35.4805C100.723 35.2026 100.446 34.8975 100.174 34.5721C98.9205 35.4602 97.6716 36.1335 96.4307 36.5719C96.8721 36.7877 97.3351 36.9481 97.8264 37.0476C98.2069 37.1253 98.601 37.1651 99.0154 37.1651C100.408 37.1651 101.509 37.0001 102.446 36.5504C101.93 36.2713 101.457 35.9098 101.014 35.4805Z" fill="#1969BC"/>
<path d="M88.7144 11.1334C94.794 14.3149 95.3225 28.722 100.174 34.5721C100.499 34.3427 100.821 34.0998 101.142 33.8433C98.106 27.1132 97.2376 12.3366 90.4511 10.6487C89.8718 10.7571 89.2936 10.9177 88.7144 11.1334Z" fill="url(#paint3_linear)"/>
<path d="M84.064 13.9598C88.7253 20.3466 90.3943 33.6126 96.4322 36.5726C97.6732 36.1343 98.9221 35.4609 100.175 34.5729C95.3244 28.7229 94.796 14.3158 88.7163 11.1343C87.1727 11.7082 85.6234 12.6651 84.064 13.9598Z" fill="url(#paint4_linear)"/>
<path d="M79.2694 15.4246C78.5388 17.0775 77.7924 19.2501 76.8901 22.0858C78.6844 19.5562 80.4731 17.3769 82.2516 15.6111C82.0066 14.8575 81.7435 14.1627 81.46 13.5435C80.7328 14.1005 80 14.7275 79.2694 15.4246Z" fill="url(#paint5_linear)"/>
<path d="M82.1073 13.067C81.8926 13.2207 81.6769 13.3778 81.46 13.5438C81.7435 14.1629 82.0056 14.8578 82.2508 15.6113C82.5739 15.295 82.8947 14.9888 83.2156 14.6962C82.871 14.1041 82.505 13.5573 82.1073 13.067Z" fill="#2B74B1"/>
<path d="M82.874 12.5559C82.6188 12.7175 82.3648 12.8881 82.1084 13.0666C82.5059 13.5569 82.8717 14.1037 83.2173 14.6969C83.5007 14.4404 83.7841 14.193 84.0665 13.9591C83.6916 13.4428 83.293 12.9694 82.874 12.5559Z" fill="#125A9E"/>
<path d="M124.339 9.8985C120.901 23.1656 113.719 33.8218 107.698 36.5084H107.687C107.577 36.5581 107.469 36.6034 107.362 36.6474C107.347 36.6563 107.333 36.6574 107.322 36.6628C107.29 36.6756 107.261 36.6854 107.229 36.6981C107.215 36.707 107.201 36.7099 107.188 36.7153C107.137 36.7334 107.087 36.7487 107.038 36.7686C107.016 36.7776 106.996 36.7832 106.975 36.7903C106.953 36.7993 106.927 36.8076 106.901 36.8147C106.878 36.8237 106.855 36.8302 106.829 36.84C106.807 36.849 106.785 36.8528 106.764 36.8617C106.72 36.8745 106.68 36.8852 106.636 36.9006C106.617 36.9006 106.601 36.9104 106.581 36.9151C106.554 36.9241 106.524 36.9306 106.494 36.9386C106.474 36.9476 106.457 36.9505 106.436 36.955C106.405 36.9639 106.371 36.9722 106.341 36.9794C106.3 36.9884 106.264 36.9966 106.226 37.0047C106.498 37.1053 106.781 37.1561 107.087 37.1561C112.796 37.1561 118.553 26.9191 128.078 9.89539H124.338L124.339 9.8985Z" fill="url(#paint6_linear)"/>
<path d="M75.649 11.0299C75.6526 11.0299 75.6571 11.021 75.6593 11.021C75.6638 11.021 75.6707 11.0209 75.6729 11.012C75.6729 11.012 75.6774 11.012 75.6801 11.012C75.7117 11.0012 75.7411 10.9885 75.7727 10.9767C75.7807 10.9767 75.785 10.9768 75.7908 10.9678C75.7989 10.9678 75.8067 10.9589 75.8146 10.9577C75.8484 10.947 75.8823 10.9342 75.9139 10.9225C75.9139 10.9225 75.9175 10.9225 75.9193 10.9225C75.995 10.8999 76.065 10.8719 76.1384 10.8457C76.1487 10.8457 76.1587 10.8367 76.1711 10.8367C76.2016 10.8269 76.2332 10.8159 76.2648 10.8087C76.2796 10.7998 76.2942 10.7997 76.3077 10.795C76.3404 10.7852 76.3721 10.7742 76.4026 10.767C76.4162 10.767 76.4286 10.7581 76.4387 10.7572C76.5437 10.7283 76.6476 10.7011 76.7526 10.6758C76.7674 10.6758 76.7797 10.6669 76.7955 10.666C76.826 10.657 76.8543 10.6523 76.887 10.6478C76.9006 10.6389 76.9164 10.6389 76.9322 10.6342C76.9626 10.6253 76.992 10.6244 77.0248 10.617C77.0328 10.617 77.0371 10.617 77.0462 10.617C77.1095 10.6042 77.1738 10.5935 77.2371 10.5817C77.2485 10.5817 77.263 10.5817 77.2755 10.5817C77.3059 10.5728 77.333 10.5719 77.3636 10.5663C77.3803 10.5663 77.3974 10.5573 77.4132 10.5573C77.4414 10.5573 77.4697 10.5484 77.4979 10.5446C77.5126 10.5446 77.5272 10.5446 77.5442 10.5356C77.6108 10.5267 77.6797 10.5231 77.7497 10.5175C77.5521 10.4985 77.3489 10.4858 77.1422 10.4858C70.7125 10.4858 61.8539 22.4221 57.8633 37.8799C57.8633 37.8799 58.1546 37.8799 58.6323 37.8799C59.9094 35.6011 61.0567 33.4455 62.1057 31.422C64.9005 20.4732 70.5928 13.0064 75.6494 11.0281" fill="url(#paint7_linear)"/>
<path d="M79.2686 15.4244C79.9992 14.7274 80.732 14.1003 81.4592 13.5434C81.2933 13.1796 81.1216 12.8429 80.9375 12.5344C80.3492 13.2484 79.8117 14.1907 79.2686 15.4244Z" fill="#0D82CA"/>
<path d="M79.7962 11.1167C80.2165 11.4692 80.5927 11.9539 80.9373 12.5346C81.0457 12.4013 81.1554 12.2781 81.2694 12.1629C80.7916 11.7167 80.2752 11.3506 79.7148 11.075C79.7374 11.0875 79.76 11.0976 79.7835 11.1075C79.7835 11.1075 79.7925 11.1164 79.7963 11.1164" fill="#0D82CA"/>
<path d="M62.106 31.42C67.9688 20.1164 70.7466 12.9626 75.6497 11.0261C70.5942 13.0056 64.9007 20.4723 62.106 31.42Z" fill="url(#paint8_linear)"/>
<path d="M81.2689 12.1631C81.1548 12.2796 81.0462 12.4017 80.9365 12.5351C81.1208 12.8437 81.2926 13.1795 81.4601 13.5447C81.6771 13.3785 81.893 13.2214 82.1079 13.0676C81.8422 12.7397 81.5618 12.4356 81.2689 12.1631Z" fill="#127BCA"/>
<path d="M64.7657 37.827C64.7296 37.836 64.6934 37.836 64.6596 37.8398C64.6483 37.8398 64.646 37.8398 64.6392 37.8398C64.6087 37.8398 64.5771 37.8487 64.5489 37.8487C64.5489 37.8487 64.5376 37.8487 64.5342 37.8487C64.4608 37.8577 64.3885 37.8577 64.3185 37.8633H64.2959C70.2299 37.6972 72.9422 34.7246 74.2883 30.4133C75.3113 27.1449 76.1514 24.3916 76.8877 22.0812C74.4023 25.5813 71.9056 29.7536 69.3954 34.4275C68.1849 36.6803 66.3443 37.6214 64.7657 37.8226" fill="url(#paint9_linear)"/>
<path d="M64.7651 37.825C66.3438 37.6238 68.1844 36.6839 69.3949 34.43C71.9051 29.7571 74.4029 25.5837 76.886 22.0836C77.7894 19.2466 78.5347 17.0753 79.2664 15.4224C74.3171 20.1359 69.3486 27.9733 64.7651 37.8228" fill="url(#paint10_linear)"/>
<path d="M62.1063 31.4202C61.0573 33.4437 59.91 35.5993 58.6328 37.8781C59.185 37.8781 59.9845 37.8781 60.8698 37.8781C61.1657 35.615 61.5857 33.4572 62.1063 31.4213" fill="#05A1E6"/>
<path d="M77.5458 10.5379C77.5277 10.5379 77.5142 10.5469 77.4984 10.5469C77.4713 10.5559 77.443 10.5559 77.4148 10.5588C77.398 10.5588 77.3821 10.5588 77.3651 10.5677C77.3346 10.5767 77.3064 10.5776 77.277 10.5832C77.2634 10.5832 77.2499 10.5832 77.2386 10.5921C77.1742 10.6029 77.111 10.6147 77.0478 10.6256C77.0366 10.6256 77.033 10.6256 77.0263 10.6256C76.9936 10.6345 76.9642 10.6392 76.9337 10.6437C76.9179 10.6526 76.9021 10.6526 76.8874 10.6562C76.857 10.6652 76.8264 10.669 76.7971 10.6744C76.7812 10.6833 76.7689 10.6833 76.7541 10.6842C76.6491 10.7095 76.5452 10.7366 76.4402 10.7655C76.429 10.7655 76.4176 10.7745 76.4041 10.7763C76.3725 10.7852 76.342 10.7944 76.3093 10.8043C76.2956 10.8133 76.2799 10.8132 76.2663 10.8168C76.2347 10.8258 76.2031 10.835 76.1726 10.8449C76.1603 10.8449 76.15 10.8538 76.1387 10.8538C76.0665 10.8809 75.9953 10.908 75.9208 10.9306C75.8892 10.9405 75.8553 10.9532 75.8214 10.965C75.8078 10.9739 75.7954 10.9759 75.7797 10.9822C75.7481 10.992 75.7165 11.0048 75.6871 11.0166C75.6759 11.0255 75.6645 11.0264 75.6566 11.0311C70.7536 12.9676 67.9758 20.1214 62.1129 31.425C61.5924 33.4609 61.1712 35.6188 60.8765 37.8817H61.1904C62.0746 37.8817 62.3241 37.8728 63.3415 37.8728H63.3935H63.5448H63.5967H63.6114H63.6634H63.6927H63.7131H63.7537H63.8802H64.0067H64.1128H64.141C64.202 37.8728 64.2641 37.8728 64.3273 37.8728C64.3973 37.8638 64.4696 37.8638 64.543 37.8582C64.543 37.8582 64.5543 37.8582 64.5566 37.8582C64.5871 37.8582 64.6175 37.8493 64.6469 37.8493C64.6582 37.8493 64.6593 37.8493 64.6683 37.8493C64.701 37.8493 64.7383 37.8403 64.7744 37.8365C69.3579 27.987 74.3264 20.1496 79.2757 15.4361C79.82 14.2024 80.3564 13.2601 80.9436 12.5473C80.6003 11.9666 80.2243 11.4808 79.8042 11.1282C79.8042 11.1282 79.7928 11.1282 79.7919 11.1192C79.7681 11.1094 79.7456 11.0975 79.7219 11.0858C79.6981 11.0731 79.6778 11.0632 79.653 11.0505C79.6316 11.0416 79.6067 11.0297 79.5853 11.018C79.5559 11.0091 79.5322 10.9963 79.5063 10.9845C79.4848 10.9756 79.4656 10.9664 79.4441 10.9574C79.4 10.9402 79.356 10.9222 79.3142 10.9032C79.295 10.8943 79.277 10.8896 79.2588 10.8824C79.2284 10.8715 79.1934 10.8571 79.1617 10.8435C79.1459 10.8346 79.1279 10.8328 79.1098 10.8263C79.0636 10.8109 79.0183 10.7947 78.9754 10.7802C78.9642 10.7802 78.9642 10.7802 78.9642 10.7802C78.9123 10.763 78.8615 10.7504 78.8084 10.7359C78.7961 10.727 78.7858 10.727 78.7734 10.7252C78.7271 10.7124 78.6864 10.6998 78.6424 10.6881C78.6313 10.6881 78.621 10.6792 78.612 10.6792C78.5059 10.6511 78.3963 10.6285 78.2857 10.6077C78.2743 10.6077 78.2631 10.5988 78.2518 10.5988C78.2044 10.5899 78.1581 10.5816 78.1106 10.5762C78.0992 10.5672 78.0925 10.5673 78.0825 10.5673C78.026 10.5583 77.9707 10.5518 77.9153 10.5455C77.9041 10.5455 77.8961 10.5455 77.886 10.5455C77.8408 10.5366 77.7991 10.5357 77.7573 10.531C77.6861 10.54 77.6184 10.5438 77.5517 10.55" fill="url(#paint11_linear)"/>
<path d="M110.908 17.2436C109.78 20.8589 108.866 23.8416 108.071 26.2955C111.166 22.0339 114.215 16.673 117.119 10.4863C113.732 11.5505 111.925 13.9864 110.908 17.2436Z" fill="url(#paint12_linear)"/>
<path d="M108.17 36.2828C108.012 36.3632 107.854 36.4398 107.698 36.5087C113.719 33.8221 120.9 23.1659 124.339 9.8988H123.642C115.742 24.0178 113.202 33.4696 108.17 36.2828Z" fill="url(#paint13_linear)"/>
<path d="M104.239 35.0968C105.549 33.4971 106.616 30.7777 108.073 26.2958C106.392 28.6051 104.701 30.5902 103.008 32.2091C103.008 32.2181 103.008 32.2181 102.999 32.2237C103.368 33.3309 103.774 34.3081 104.236 35.0967" fill="#079AE1"/>
<path d="M104.241 35.0966C103.795 35.6411 103.323 36.0558 102.798 36.3631C102.683 36.43 102.567 36.493 102.448 36.5507C103.003 36.85 103.608 37.05 104.285 37.1302C104.385 37.1401 104.483 37.1492 104.586 37.1564H104.604C104.65 37.1564 104.699 37.1564 104.748 37.1654H104.768C104.818 37.1654 104.868 37.1654 104.916 37.1654C104.97 37.1654 105.023 37.1654 105.076 37.1654C105.093 37.1654 105.109 37.1654 105.125 37.1654C105.161 37.1654 105.2 37.1654 105.238 37.1654C105.256 37.1654 105.275 37.1654 105.293 37.1564C105.329 37.1564 105.366 37.1564 105.402 37.1475C105.411 37.1475 105.411 37.1475 105.414 37.1475C105.429 37.1475 105.442 37.1475 105.455 37.1475C105.492 37.1475 105.533 37.1385 105.573 37.1347H105.582C105.593 37.1347 105.606 37.1258 105.618 37.1258C105.659 37.1168 105.703 37.113 105.743 37.1067C105.757 37.1067 105.767 37.1067 105.78 37.1067C105.826 37.0978 105.874 37.0922 105.921 37.0832H105.93C105.939 37.0832 105.94 37.0832 105.944 37.0832C106.039 37.0651 106.131 37.0471 106.225 37.0236C105.448 36.7389 104.798 36.0678 104.237 35.112" fill="#1969BC"/>
<path d="M93.1401 37.1651C93.7036 37.1651 94.2728 37.11 94.8441 37.0001C95.3726 36.9041 95.9022 36.7572 96.4329 36.5719C96.8745 36.7877 97.3374 36.9482 97.8275 37.0476C98.208 37.1253 98.6032 37.1651 99.0177 37.1651H93.1401Z" fill="#1E5CB3"/>
<path d="M99.0152 37.1655C100.406 37.1655 101.508 37.0006 102.445 36.5509C102.999 36.8503 103.604 37.0503 104.282 37.1305C104.381 37.1404 104.479 37.1495 104.582 37.1567H104.6C104.646 37.1567 104.695 37.1567 104.745 37.1657H104.766C104.815 37.1657 104.865 37.1657 104.914 37.1657H99.0112L99.0152 37.1655Z" fill="#1E5CB3"/>
<path d="M104.919 37.1653C104.973 37.1653 105.026 37.1653 105.079 37.1653C105.095 37.1653 105.113 37.1653 105.129 37.1653C105.165 37.1653 105.202 37.1653 105.241 37.1653C105.26 37.1653 105.278 37.1652 105.296 37.1563C105.331 37.1563 105.368 37.1563 105.406 37.1473C105.414 37.1473 105.414 37.1473 105.417 37.1473C105.432 37.1473 105.445 37.1473 105.459 37.1473C105.496 37.1473 105.537 37.1384 105.575 37.1348C105.575 37.1348 105.584 37.1348 105.585 37.1348C105.597 37.1348 105.609 37.1259 105.62 37.1259C105.662 37.1169 105.705 37.1133 105.746 37.1068C105.759 37.1068 105.77 37.1068 105.784 37.0979C105.831 37.0889 105.878 37.0842 105.926 37.0753H105.935C105.944 37.0753 105.944 37.0753 105.948 37.0753C106.043 37.0572 106.136 37.0391 106.229 37.0156C106.502 37.1161 106.785 37.167 107.091 37.167L104.921 37.176L104.919 37.1653Z" fill="#1D60B5"/>
<path d="M103.003 32.2238V32.2148C102.383 32.8079 101.764 33.3514 101.147 33.8429C100.824 34.0994 100.502 34.3422 100.177 34.5716C100.449 34.897 100.726 35.202 101.017 35.48C101.46 35.9092 101.933 36.2708 102.449 36.5498C102.566 36.492 102.684 36.4289 102.798 36.3623C103.324 36.055 103.796 35.6404 104.242 35.0958C103.78 34.3072 103.375 33.3299 103.005 32.2227" fill="#175FAB"/>
<path d="M121.437 9.8988H118.507C118.409 9.8988 118.312 9.8988 118.216 9.8988C118.122 9.8988 118.032 9.8988 117.941 9.8988H117.93C117.74 9.90776 117.556 9.91425 117.374 9.92593C117.289 10.1101 117.2 10.2943 117.116 10.4796C114.213 16.6663 111.164 22.0272 108.069 26.2888C106.613 30.7706 105.545 33.49 104.235 35.0898C104.795 36.0456 105.447 36.7178 106.221 37.0025C106.244 36.9936 106.262 36.9936 106.282 36.9889C106.282 36.9889 106.293 36.9889 106.295 36.9889C106.308 36.9889 106.323 36.9799 106.338 36.9799C106.369 36.971 106.403 36.9654 106.435 36.9555C106.455 36.9466 106.472 36.9457 106.492 36.9392C106.522 36.9302 106.552 36.9238 106.579 36.9166C106.597 36.9076 106.615 36.9047 106.633 36.9011C106.679 36.8866 106.719 36.8758 106.762 36.8623C106.783 36.8533 106.804 36.8459 106.827 36.8406C106.851 36.8316 106.876 36.8251 106.899 36.8143C106.925 36.8054 106.951 36.8007 106.973 36.7908C106.994 36.7819 107.015 36.7763 107.034 36.7683C107.085 36.7501 107.135 36.7348 107.186 36.7149C107.199 36.7149 107.213 36.7024 107.227 36.6995C107.258 36.6867 107.29 36.6769 107.32 36.6633C107.331 36.6544 107.345 36.6535 107.36 36.6488C107.466 36.6045 107.575 36.5593 107.685 36.5098H107.696C107.852 36.4412 108.01 36.3641 108.167 36.2839C113.2 33.4707 115.741 24.0189 123.641 9.8999H121.434L121.437 9.8988Z" fill="url(#paint14_linear)"/>
<path d="M77.7505 10.5196C77.763 10.5196 77.7742 10.5197 77.7866 10.5286C77.8171 10.5286 77.8476 10.5286 77.8781 10.5384C77.8895 10.5384 77.8996 10.5384 77.9086 10.5384C77.9639 10.5474 78.0193 10.5521 78.0757 10.5602C78.086 10.5602 78.095 10.5602 78.1039 10.5691C78.1502 10.5781 78.1976 10.5855 78.245 10.5926C78.2553 10.5926 78.2688 10.6016 78.2801 10.6016C78.3885 10.6233 78.4992 10.6458 78.6053 10.6739C78.6154 10.6739 78.6257 10.6828 78.6347 10.6828C78.6799 10.6936 78.7205 10.7072 78.7657 10.7199C78.7793 10.7199 78.7893 10.7288 78.8018 10.7308C78.8549 10.7445 78.9046 10.758 78.9565 10.7751C78.9588 10.7751 78.9619 10.7751 78.9679 10.7841C79.0119 10.7975 79.0571 10.8148 79.1034 10.8302C79.1215 10.8391 79.1384 10.8429 79.1554 10.8474C79.187 10.8611 79.222 10.8745 79.2525 10.8872C79.2706 10.8872 79.2886 10.8997 79.3078 10.9062C79.3495 10.9252 79.3936 10.9423 79.4365 10.9604C79.4591 10.9694 79.4782 10.9794 79.4997 10.9875C79.5246 11.0003 79.5505 11.0119 79.5776 11.021C79.6002 11.0317 79.625 11.0436 79.6464 11.0535C79.6702 11.0663 79.6927 11.0761 79.7153 11.0887C80.2754 11.3644 80.7915 11.7316 81.2691 12.1768C81.4453 11.9915 81.6293 11.8254 81.8202 11.6763C80.7757 10.9351 79.5923 10.5126 78.2271 10.5126C78.069 10.5126 77.9109 10.5215 77.7505 10.5334" fill="#7DCBEC"/>
<path d="M81.2671 12.1634C81.5597 12.4356 81.8399 12.7396 82.1054 13.0672C82.3619 12.8887 82.6161 12.717 82.8714 12.5566C82.537 12.2221 82.1845 11.9216 81.8173 11.6628C81.6264 11.8109 81.4433 11.9781 81.2671 12.1634Z" fill="#5EC5ED"/>
<path d="M77.7523 10.5195C77.9127 10.5059 78.0709 10.5003 78.2291 10.5003C79.595 10.5003 80.779 10.9228 81.8241 11.6628C82.9268 10.7929 84.26 10.489 86.1117 10.489H77.1445C77.3513 10.489 77.5535 10.5014 77.7523 10.5195Z" fill="url(#paint15_linear)"/>
<path d="M86.1069 10.4891C84.2552 10.4891 82.922 10.793 81.8193 11.663C82.1854 11.9217 82.5379 12.2222 82.8723 12.5566C84.4077 11.5805 85.9284 10.9343 87.4276 10.6518C87.9993 10.5445 88.5699 10.4891 89.1325 10.4891H86.1069Z" fill="url(#paint16_linear)"/>
<path d="M108.072 26.2982C108.868 23.842 109.78 20.8606 110.91 17.244C111.928 13.9857 113.732 11.5499 117.118 10.4868C117.208 10.3048 117.292 10.1173 117.379 9.93311C111.858 10.2642 109.278 13.0739 107.98 17.235C105.709 24.4996 104.333 29.2085 103.009 32.2093C104.7 30.5914 106.392 28.6052 108.072 26.2982Z" fill="url(#paint17_linear)"/>
<path d="M12.6895 91.4803C7.59446 90.5412 3.56596 91.5244 1.96046 94.3382C0.762459 96.438 1.10446 99.2225 2.79046 102.199C2.85942 102.32 2.97333 102.409 3.10713 102.446C3.24094 102.483 3.38368 102.464 3.50396 102.395C3.62423 102.325 3.71219 102.21 3.74848 102.074C3.78477 101.939 3.76642 101.794 3.69746 101.673C2.17846 98.9918 1.88246 96.5888 2.86546 94.8669C4.19896 92.5293 7.79196 91.6524 12.502 92.5207C12.5699 92.5343 12.6399 92.5341 12.7078 92.5201C12.7758 92.5061 12.8402 92.4786 12.8975 92.4391C12.9548 92.3997 13.0038 92.3491 13.0416 92.2903C13.0794 92.2315 13.1052 92.1656 13.1176 92.0966C13.13 92.0276 13.1288 91.9568 13.1139 91.8883C13.0989 91.8198 13.0707 91.755 13.0308 91.6976C12.9909 91.6403 12.9402 91.5915 12.8815 91.5542C12.8228 91.5169 12.7578 91.4918 12.6895 91.4803ZM5.43996 105.816C7.49996 108.107 10.1765 110.256 13.229 112.04C20.6195 116.358 28.4875 117.512 32.365 114.836C32.4783 114.757 32.5561 114.635 32.5812 114.498C32.6064 114.361 32.5769 114.219 32.4993 114.104C32.4216 113.989 32.302 113.909 32.1666 113.883C32.0312 113.856 31.891 113.885 31.7765 113.963C28.306 116.357 20.832 115.261 13.7515 111.124C10.79 109.393 8.19846 107.313 6.21296 105.105C6.16715 105.052 6.11144 105.009 6.04909 104.978C5.98673 104.948 5.91896 104.93 5.84974 104.926C5.78052 104.922 5.71122 104.932 5.64589 104.956C5.58056 104.979 5.5205 105.016 5.46921 105.063C5.41792 105.11 5.37643 105.167 5.34715 105.231C5.31787 105.294 5.30139 105.363 5.29866 105.433C5.29594 105.503 5.30703 105.573 5.33129 105.639C5.35555 105.705 5.39249 105.765 5.43996 105.816Z" fill="#47848F"/>
<path d="M47.4918 111.712H57.2847C57.4206 111.71 57.5504 111.653 57.6465 111.554C57.7426 111.455 57.7974 111.321 57.7992 111.181C57.7974 111.041 57.7426 110.907 57.6465 110.808C57.5504 110.709 57.4206 110.652 57.2847 110.65H48.0489V104.441H56.2131C56.349 104.439 56.4788 104.383 56.5749 104.284C56.671 104.184 56.7258 104.051 56.7276 103.91C56.7257 103.77 56.6708 103.637 56.5748 103.538C56.4787 103.439 56.3489 103.382 56.2131 103.38H48.0489V97.3031H57.1773C57.3132 97.3013 57.443 97.2448 57.5391 97.1457C57.6352 97.0466 57.69 96.9127 57.6918 96.7726C57.69 96.6325 57.6352 96.4986 57.5391 96.3995C57.443 96.3004 57.3132 96.2439 57.1773 96.2421H47.4918C47.1918 96.2421 46.9346 96.5073 46.9346 96.8167V111.137C46.9346 111.447 47.1918 111.712 47.4918 111.712ZM64.598 111.137C64.598 111.446 64.8552 111.712 65.1549 111.712H74.0907C74.2266 111.71 74.3564 111.653 74.4525 111.554C74.5485 111.455 74.6033 111.321 74.6051 111.181C74.6033 111.041 74.5485 110.907 74.4525 110.808C74.3564 110.709 74.2266 110.652 74.0907 110.65H65.712V96.7285C65.712 96.4192 65.4548 96.1539 65.1549 96.1539C64.8549 96.1539 64.598 96.4192 64.598 96.7285V111.137ZM81.7255 111.712H91.5181C91.654 111.71 91.7838 111.653 91.8799 111.554C91.976 111.455 92.0308 111.321 92.0326 111.181C92.0308 111.041 91.976 110.907 91.8799 110.808C91.7838 110.709 91.654 110.652 91.5181 110.65H82.2827V104.441H90.4469C90.5827 104.439 90.7125 104.383 90.8086 104.284C90.9047 104.184 90.9595 104.051 90.9613 103.91C90.9594 103.77 90.9046 103.637 90.8085 103.538C90.7124 103.439 90.5827 103.382 90.4469 103.38H82.2827V97.3031H91.4111C91.5469 97.3013 91.6767 97.2448 91.7728 97.1457C91.8689 97.0466 91.9237 96.9127 91.9255 96.7726C91.9237 96.6325 91.8689 96.4986 91.7728 96.3995C91.6767 96.3004 91.5469 96.2439 91.4111 96.2421H81.7255C81.4255 96.2421 81.1683 96.5073 81.1683 96.8167V111.137C81.1683 111.447 81.4255 111.712 81.7255 111.712ZM105.624 111.977C108.132 111.977 109.782 111.027 111.303 109.568C111.389 109.479 111.474 109.347 111.474 109.17C111.474 108.883 111.217 108.618 110.939 108.618C110.767 108.618 110.639 108.706 110.553 108.794C109.138 110.187 107.703 110.938 105.667 110.938C102.089 110.938 99.3243 107.888 99.3243 103.976V103.932C99.3243 100.043 102.046 97.0153 105.646 97.0153C107.746 97.0153 109.182 97.8552 110.424 99.0263C110.51 99.1149 110.66 99.1812 110.81 99.1812C111.11 99.1812 111.389 98.9159 111.389 98.6066C111.389 98.4076 111.281 98.2531 111.174 98.1423C109.717 96.8608 108.153 95.9768 105.667 95.9768C101.339 95.9768 98.1672 99.6009 98.1672 103.977V104.021C98.1672 108.463 101.339 111.977 105.624 111.977ZM122.109 111.225C122.109 111.535 122.366 111.8 122.666 111.8C122.966 111.8 123.223 111.534 123.223 111.225V97.3024H128.023C128.159 97.3006 128.289 97.2441 128.385 97.1451C128.481 97.0461 128.536 96.9123 128.538 96.7723C128.536 96.6321 128.481 96.4983 128.385 96.3992C128.289 96.3001 128.159 96.2436 128.023 96.2417H117.309C117.173 96.2436 117.043 96.3001 116.947 96.3992C116.851 96.4983 116.796 96.6321 116.794 96.7723C116.796 96.9124 116.851 97.0463 116.947 97.1453C117.043 97.2444 117.173 97.3009 117.309 97.3028H122.109V111.225ZM135.144 111.225C135.144 111.535 135.401 111.8 135.701 111.8C136.001 111.8 136.258 111.534 136.258 111.225V105.303H141.165L145.772 111.49C145.901 111.667 146.051 111.8 146.265 111.8C146.565 111.8 146.844 111.513 146.844 111.203C146.844 111.071 146.779 110.938 146.672 110.805L142.408 105.104C144.936 104.75 146.801 103.27 146.801 100.684V100.64C146.801 99.5346 146.372 98.4961 145.665 97.7667C144.765 96.8386 143.286 96.2421 141.444 96.2421H135.701C135.401 96.2421 135.144 96.5073 135.144 96.8163V111.225ZM136.258 104.264V97.3024H141.379C144.101 97.3024 145.686 98.6066 145.686 100.684V100.728C145.686 102.96 143.822 104.264 141.315 104.264H136.258ZM160.8 111.977C165.343 111.977 168.364 108.198 168.364 103.977V103.932C168.364 99.7114 165.385 95.9768 160.843 95.9768C156.3 95.9768 153.278 99.7558 153.278 103.977V104.021C153.278 108.242 156.257 111.977 160.8 111.977ZM160.843 110.938C157.135 110.938 154.436 107.8 154.436 103.976V103.932C154.436 100.109 157.093 97.0153 160.8 97.0153C164.507 97.0153 167.207 100.153 167.207 103.977V104.021C167.207 107.844 164.55 110.938 160.843 110.938ZM175.463 111.247C175.463 111.557 175.699 111.8 175.999 111.8C176.299 111.8 176.534 111.557 176.534 111.248V97.9212L186.841 111.402C187.013 111.623 187.184 111.777 187.399 111.777H187.484C187.742 111.777 187.935 111.556 187.935 111.291V96.7059C187.935 96.3966 187.699 96.1535 187.399 96.1535C187.099 96.1535 186.863 96.3966 186.863 96.7059V109.745L176.748 96.507C176.599 96.3084 176.427 96.1758 176.192 96.1758H176.02C175.72 96.1758 175.463 96.441 175.463 96.7504V111.247Z" fill="#47848F"/>
<path d="M31.1286 105.173C34.4646 101.185 35.6296 97.1734 34.0276 94.3651C32.8486 92.2987 30.3561 91.2077 27.0441 91.1642C26.9755 91.1633 26.9074 91.1761 26.8436 91.2018C26.7799 91.2275 26.7217 91.2657 26.6726 91.3141C26.6234 91.3625 26.5842 91.4203 26.557 91.4841C26.5299 91.5479 26.5155 91.6165 26.5146 91.6859C26.5137 91.7553 26.5263 91.8243 26.5517 91.8888C26.5771 91.9533 26.6148 92.0121 26.6627 92.0619C26.7105 92.1116 26.7676 92.1514 26.8307 92.1788C26.8937 92.2062 26.9615 92.2208 27.0301 92.2218C30.0091 92.2607 32.1566 93.2008 33.1226 94.8939C34.4531 97.2265 33.4146 100.804 30.3311 104.49C30.2852 104.543 30.2502 104.604 30.2281 104.671C30.206 104.738 30.1972 104.808 30.2023 104.878C30.2074 104.948 30.2263 105.017 30.2578 105.079C30.2893 105.142 30.3329 105.197 30.3859 105.243C30.4389 105.288 30.5003 105.322 30.5666 105.344C30.6328 105.365 30.7025 105.372 30.7717 105.366C30.8408 105.359 30.908 105.339 30.9693 105.306C31.0306 105.273 31.0847 105.228 31.1286 105.173ZM22.5551 91.6566C19.5386 92.3108 16.3281 93.5894 13.2451 95.3908C5.61509 99.8486 0.638094 106.421 1.32959 111.188C1.33788 111.258 1.35997 111.326 1.39456 111.387C1.42915 111.448 1.47554 111.502 1.53099 111.545C1.58643 111.588 1.64982 111.619 1.71739 111.637C1.78497 111.655 1.85537 111.658 1.92443 111.648C1.99349 111.638 2.05982 111.614 2.11949 111.577C2.17917 111.54 2.23098 111.492 2.27187 111.435C2.31276 111.378 2.3419 111.313 2.35757 111.244C2.37324 111.175 2.37511 111.104 2.36309 111.034C1.74959 106.802 6.46709 100.572 13.7671 96.3066C16.7581 94.5589 19.8671 93.3213 22.7741 92.6903C22.9068 92.6582 23.0218 92.5748 23.0946 92.458C23.1674 92.3412 23.1921 92.2002 23.1635 92.0652C23.1349 91.9302 23.0552 91.8118 22.9415 91.7355C22.8278 91.6591 22.6891 91.6308 22.5551 91.6566Z" fill="#47848F"/>
<path d="M10.1945 114.492C11.9395 119.42 14.7925 122.455 18.0015 122.455C20.3415 122.455 22.5065 120.841 24.195 117.999C24.2329 117.939 24.2586 117.873 24.2705 117.803C24.2825 117.733 24.2805 117.662 24.2647 117.593C24.2488 117.524 24.2195 117.459 24.1783 117.402C24.1372 117.344 24.0851 117.296 24.0251 117.26C23.9652 117.223 23.8986 117.199 23.8293 117.189C23.7601 117.179 23.6895 117.183 23.6219 117.202C23.5543 117.22 23.491 117.251 23.4357 117.295C23.3804 117.338 23.3342 117.392 23.3 117.454C21.7825 120.008 19.9185 121.398 18.0015 121.398C15.3365 121.398 12.791 118.691 11.1785 114.135C11.1564 114.068 11.1214 114.007 11.0755 113.954C11.0296 113.901 10.9737 113.858 10.9112 113.827C10.8486 113.797 10.7806 113.779 10.7111 113.775C10.6417 113.771 10.5722 113.781 10.5067 113.805C10.4412 113.829 10.3811 113.866 10.3298 113.913C10.2786 113.961 10.2372 114.018 10.2082 114.082C10.1792 114.146 10.163 114.215 10.1608 114.286C10.1585 114.356 10.1702 114.426 10.195 114.492H10.1945ZM26.1275 113.528C27.0305 110.608 27.515 107.239 27.515 103.729C27.515 94.9698 24.486 87.4189 20.171 85.48C20.0448 85.4254 19.9024 85.4233 19.7746 85.4742C19.6469 85.525 19.544 85.6247 19.4883 85.7517C19.4326 85.8787 19.4285 86.0227 19.4769 86.1527C19.5253 86.2827 19.6224 86.3882 19.747 86.4464C23.5955 88.1759 26.4705 95.3417 26.4705 103.729C26.4705 107.134 26.0005 110.396 25.1305 113.212C25.1081 113.279 25.099 113.349 25.104 113.42C25.1089 113.49 25.1277 113.559 25.1592 113.622C25.1908 113.684 25.2345 113.74 25.2877 113.786C25.3409 113.831 25.4026 113.866 25.4691 113.887C25.5356 113.908 25.6056 113.915 25.675 113.909C25.7444 113.902 25.8118 113.881 25.8731 113.848C25.9345 113.814 25.9886 113.769 26.0323 113.714C26.076 113.659 26.1084 113.595 26.1275 113.528ZM35.967 113.01C35.967 112.339 35.7036 111.695 35.2347 111.221C34.7657 110.746 34.1297 110.479 33.4665 110.479C32.8034 110.479 32.1673 110.746 31.6984 111.221C31.2295 111.695 30.966 112.339 30.966 113.01C30.966 113.681 31.2295 114.325 31.6984 114.799C32.1673 115.274 32.8034 115.54 33.4665 115.54C34.1297 115.54 34.7657 115.274 35.2347 114.799C35.7036 114.325 35.967 113.681 35.967 113.01ZM34.922 113.01C34.922 113.401 34.7687 113.775 34.4957 114.051C34.2228 114.328 33.8526 114.483 33.4665 114.483C33.0805 114.483 32.7103 114.328 32.4373 114.051C32.1644 113.775 32.011 113.401 32.011 113.01C32.011 112.619 32.1644 112.245 32.4373 111.968C32.7103 111.692 33.0805 111.537 33.4665 111.537C33.8526 111.537 34.2228 111.692 34.4957 111.968C34.7687 112.245 34.922 112.619 34.922 113.01ZM2.5005 115.54C3.16368 115.54 3.79969 115.274 4.26862 114.799C4.73756 114.325 5.001 113.681 5.001 113.01C5.001 112.339 4.73756 111.695 4.26862 111.221C3.79969 110.746 3.16368 110.479 2.5005 110.479C1.83733 110.479 1.20132 110.746 0.73238 111.221C0.263445 111.695 0 112.339 0 113.01C0 113.681 0.263445 114.325 0.73238 114.799C1.20132 115.274 1.83733 115.54 2.5005 115.54ZM2.5005 114.483C2.11441 114.483 1.74414 114.328 1.47113 114.051C1.19812 113.775 1.04475 113.4 1.04475 113.01C1.04475 112.619 1.19812 112.244 1.47113 111.968C1.74414 111.692 2.11441 111.536 2.5005 111.536C2.88659 111.536 3.25687 111.692 3.52987 111.968C3.80288 112.244 3.95625 112.619 3.95625 113.01C3.95625 113.4 3.80288 113.775 3.52987 114.051C3.25687 114.328 2.88659 114.483 2.5005 114.483Z" fill="#47848F"/>
<path d="M18.0015 88.0609C18.3299 88.0609 18.655 87.9955 18.9584 87.8683C19.2618 87.7411 19.5374 87.5547 19.7696 87.3198C20.0018 87.0848 20.186 86.8058 20.3116 86.4988C20.4373 86.1918 20.502 85.8628 20.502 85.5305C20.502 85.1982 20.4373 84.8691 20.3116 84.5621C20.186 84.2551 20.0018 83.9761 19.7696 83.7412C19.5374 83.5062 19.2618 83.3198 18.9584 83.1926C18.655 83.0655 18.3299 83 18.0015 83C17.3383 83 16.7023 83.2666 16.2334 83.7412C15.7644 84.2157 15.501 84.8593 15.501 85.5305C15.501 86.2016 15.7644 86.8452 16.2334 87.3198C16.7023 87.7943 17.3383 88.0609 18.0015 88.0609ZM18.0015 87.0034C17.8103 87.0034 17.6211 86.9653 17.4445 86.8913C17.2679 86.8173 17.1074 86.7088 16.9723 86.572C16.8371 86.4352 16.7299 86.2728 16.6568 86.0941C16.5836 85.9154 16.546 85.7239 16.546 85.5305C16.546 85.337 16.5836 85.1455 16.6568 84.9668C16.7299 84.7881 16.8371 84.6257 16.9723 84.4889C17.1074 84.3522 17.2679 84.2437 17.4445 84.1696C17.6211 84.0956 17.8103 84.0575 18.0015 84.0575C18.3876 84.0575 18.7578 84.2127 19.0309 84.489C19.3039 84.7653 19.4572 85.14 19.4572 85.5307C19.4572 85.9214 19.3039 86.2961 19.0309 86.5724C18.7578 86.8487 18.3876 87.0039 18.0015 87.0039V87.0034ZM18.3835 105.519C18.1512 105.569 17.9113 105.573 17.6775 105.53C17.4437 105.487 17.2206 105.398 17.0209 105.268C16.6176 105.005 16.334 104.59 16.2327 104.115C16.1314 103.641 16.2206 103.145 16.4807 102.736C16.7407 102.328 17.1504 102.041 17.6195 101.939C18.0854 101.844 18.5692 101.939 18.9665 102.203C19.3638 102.467 19.6427 102.878 19.743 103.348C19.8433 103.818 19.757 104.309 19.5026 104.715C19.2482 105.121 18.8463 105.409 18.3835 105.518V105.519Z" fill="#47848F"/>
<path d="M429.709 103.231C429.709 98.2092 428.278 95.6311 425.416 95.4899C424.277 95.4361 423.165 95.6176 422.083 96.0378C421.22 96.347 420.639 96.6529 420.333 96.9622V108.949C422.164 110.098 423.79 110.633 425.208 110.549C428.208 110.35 429.709 107.913 429.709 103.231ZM433.24 103.439C433.24 105.991 432.642 108.108 431.44 109.792C430.099 111.698 428.241 112.68 425.866 112.733C424.075 112.79 422.231 112.229 420.333 111.053V121.947L417.262 120.851V96.6697C417.766 96.0513 418.415 95.5202 419.201 95.0698C421.028 94.0042 423.249 93.4563 425.863 93.4294L425.906 93.4731C428.295 93.4429 430.136 94.4244 431.429 96.4143C432.636 98.2395 433.24 100.579 433.24 103.439Z" fill="#646464"/>
<path d="M452.002 110.589C452.002 114.011 451.659 116.38 450.974 117.698C450.285 119.016 448.975 120.068 447.04 120.851C445.471 121.469 443.775 121.805 441.954 121.863L441.446 119.927C443.298 119.674 444.601 119.422 445.357 119.17C446.845 118.666 447.867 117.893 448.428 116.858C448.878 116.014 449.099 114.404 449.099 112.021V111.221C447 112.175 444.799 112.649 442.498 112.649C440.986 112.649 439.652 112.175 438.503 111.221C437.213 110.182 436.568 108.864 436.568 107.268V94.4815L439.639 93.4294V106.3C439.639 107.675 440.082 108.733 440.969 109.476C441.856 110.219 443.005 110.575 444.413 110.549C445.821 110.518 447.329 109.974 448.932 108.908V93.8933H452.002V110.589Z" fill="#646464"/>
<path d="M463.985 112.565C463.619 112.595 463.283 112.609 462.974 112.609C461.237 112.609 459.883 112.195 458.916 111.365C457.952 110.535 457.468 109.389 457.468 107.926V95.8257H455.365V93.893H457.468V88.7603L460.535 87.6678V93.893H463.985V95.8257H460.535V107.842C460.535 108.995 460.844 109.812 461.462 110.289C461.993 110.683 462.836 110.908 463.985 110.965V112.565Z" fill="#646464"/>
<path d="M482.583 112.314H479.513V100.455C479.513 99.2485 479.231 98.2099 478.67 97.3426C478.021 96.3611 477.121 95.8704 475.965 95.8704C474.557 95.8704 472.797 96.6132 470.684 98.0989V112.314H467.613V83.9681L470.684 83V95.9107C472.646 94.4822 474.789 93.7662 477.117 93.7662C478.743 93.7662 480.06 94.3141 481.068 95.4065C482.08 96.499 482.583 97.8603 482.583 99.4871V112.314Z" fill="#646464"/>
<path d="M498.901 102.747C498.901 100.818 498.535 99.2243 497.806 97.9638C496.939 96.4277 495.592 95.6176 493.771 95.5336C490.405 95.7286 488.725 98.142 488.725 102.767C488.725 104.888 489.074 106.659 489.78 108.081C490.68 109.893 492.031 110.787 493.831 110.757C497.211 110.73 498.901 108.061 498.901 102.747ZM502.264 102.767C502.264 105.513 501.562 107.799 500.161 109.624C498.619 111.668 496.489 112.693 493.771 112.693C491.077 112.693 488.977 111.668 487.462 109.624C486.088 107.799 485.402 105.513 485.402 102.767C485.402 100.186 486.145 98.0142 487.63 96.2462C489.199 94.3706 491.261 93.4294 493.811 93.4294C496.361 93.4294 498.437 94.3706 500.037 96.2462C501.521 98.0142 502.264 100.186 502.264 102.767Z" fill="#646464"/>
<path d="M519.87 112.313H516.799V99.7823C516.799 98.4075 516.386 97.3353 515.559 96.5622C514.733 95.7924 513.631 95.4193 512.257 95.4496C510.799 95.4765 509.411 95.9538 508.095 96.8781V112.313H505.024V96.4983C506.791 95.2109 508.417 94.3706 509.902 93.9773C511.303 93.611 512.539 93.4294 513.604 93.4294C514.333 93.4294 515.019 93.5 515.664 93.6412C516.87 93.9202 517.851 94.4378 518.607 95.1975C519.45 96.0378 519.87 97.0462 519.87 98.226V112.313Z" fill="#646464"/>
<path d="M386.929 84.0831C385.349 84.0904 383.84 84.2252 382.513 84.4603C378.602 85.1515 377.892 86.5984 377.892 89.2666V92.7906H387.134V93.9652H377.892H374.424C371.738 93.9652 369.386 95.5804 368.651 98.653C367.802 102.175 367.764 104.373 368.651 108.05C369.308 110.788 370.876 112.738 373.562 112.738H376.74V108.514C376.74 105.462 379.379 102.77 382.513 102.77H391.744C394.313 102.77 396.364 100.653 396.364 98.0711V89.2666C396.364 86.7608 394.252 84.8785 391.744 84.4603C390.156 84.1959 388.509 84.0757 386.929 84.0831ZM381.931 86.9173C382.886 86.9173 383.665 87.71 383.665 88.6847C383.665 89.6559 382.886 90.4413 381.931 90.4413C380.973 90.4413 380.197 89.6559 380.197 88.6847C380.197 87.71 380.973 86.9173 381.931 86.9173Z" fill="url(#paint18_linear)"/>
<path d="M397.514 93.9662V98.0721C397.514 101.255 394.817 103.935 391.741 103.935H382.51C379.981 103.935 377.889 106.1 377.889 108.633V117.438C377.889 119.943 380.067 121.417 382.51 122.136C385.435 122.997 388.241 123.152 391.741 122.136C394.067 121.462 396.361 120.106 396.361 117.438V113.914H387.131V112.739H396.361H400.982C403.668 112.739 404.669 110.865 405.603 108.051C406.568 105.155 406.527 102.37 405.603 98.654C404.939 95.9788 403.671 93.9662 400.982 93.9662H397.514ZM392.322 116.263C393.28 116.263 394.056 117.048 394.056 118.02C394.056 118.994 393.28 119.787 392.322 119.787C391.368 119.787 390.588 118.994 390.588 118.02C390.588 117.048 391.368 116.263 392.322 116.263Z" fill="url(#paint19_linear)"/>
<path d="M525.847 91.1579H526.385V87.7796H527.66V87.377H524.571V87.7796H525.847V91.1579ZM528.138 91.1579H528.598V88.0725L529.596 91.1575H530.108L531.148 88.0829V91.1579H531.65V87.377H530.986L529.849 90.6161L528.88 87.377H528.138V91.1579Z" fill="#646464"/>
<path opacity="0.44382" d="M399.619 128.119C399.619 128.434 399.299 128.747 398.677 129.038C398.054 129.33 397.142 129.595 395.992 129.818C394.842 130.041 393.477 130.218 391.974 130.339C390.472 130.459 388.861 130.521 387.235 130.521C385.609 130.521 383.998 130.459 382.496 130.339C380.993 130.218 379.628 130.041 378.478 129.818C377.328 129.595 376.416 129.33 375.793 129.038C375.171 128.747 374.851 128.434 374.851 128.119C374.851 127.803 375.171 127.491 375.793 127.199C376.416 126.908 377.328 126.643 378.478 126.42C379.628 126.197 380.993 126.02 382.496 125.899C383.998 125.778 385.609 125.716 387.235 125.716C388.861 125.716 390.472 125.778 391.974 125.899C393.477 126.02 394.842 126.197 395.992 126.42C397.142 126.643 398.054 126.908 398.677 127.199C399.299 127.491 399.619 127.803 399.619 128.119Z" fill="url(#paint20_radial)"/>
<path d="M452.703 35.2925L444.777 22.002L452.703 8.7115L456.524 22.002L452.703 35.2925ZM435.063 33.9955L425.104 24.1494H440.956L448.882 37.4398L435.063 33.9955ZM435.063 9.96775L448.842 6.52346L440.916 19.8139H425.064L435.063 9.96775ZM455.304 0L437.298 4.65987L434.616 9.2384L429.21 9.19774L416 22.002L429.21 34.8062L434.616 34.7656L437.298 39.3441L455.304 44.0446L460.141 26.5805L457.418 22.0427L460.141 17.5043L455.304 0ZM496.194 12.9258C493.796 12.9258 492.17 13.9385 490.95 15.8025H490.869V13.412H486.642V30.9973H490.95V21.0295C490.95 18.639 492.454 16.9774 494.527 16.9774C496.478 16.9774 497.942 18.1528 497.942 20.2193V31.0379H502.25V19.5302C502.29 15.681 499.852 12.9258 496.194 12.9258ZM480.098 23.5822C480.098 25.9325 478.757 27.553 476.562 27.553C474.57 27.553 473.31 26.4187 473.31 24.3522V13.412H469.002V25.1625C469.002 29.0117 471.197 31.5242 475.139 31.5242C477.619 31.5242 479.001 30.5919 480.18 28.9715H480.301V31.0379H484.447V13.412H480.139V23.5822H480.098ZM504.567 13.412H508.875V30.9973H504.567V13.412ZM504.567 7.94193H508.875V11.4671H504.567V7.94193ZM533.303 13.412L530.743 21.3535C530.174 22.9744 529.726 25.2032 529.726 25.2032H529.604C529.604 25.2032 529.035 22.9744 528.467 21.3535L525.58 13.412H520.947L525.702 25.9325C526.719 28.6068 527.044 29.741 527.044 30.7135C527.044 32.1722 526.272 33.1044 524.443 33.1044H522.776V36.7914H525.54C529.117 36.7914 530.377 35.3734 531.718 31.4835L537.937 13.4523H533.303V13.412ZM516.923 25.8512V16.5319H519.687V13.4523H516.923V7.94193H512.615V13.412H510.176V16.4912H512.615V26.8236C512.615 30.1464 515.135 31.0379 517.411 31.0379C519.28 31.0379 519.768 30.9566 519.768 30.9566V27.553H518.671C517.655 27.5936 516.923 27.1481 516.923 25.8512Z" fill="#110B09"/>
<path fill-rule="evenodd" clip-rule="evenodd" d="M257.122 32.4809L252.854 24.2877L248.489 32.4809H243.795L250.45 21.9067L244.461 11.3977H249.22L253.106 19.3819L257.317 11.3977H261.669L255.518 21.8416L261.767 32.4809H257.122ZM272.34 32.4809V30.1863H272.275C271.116 31.9872 269.476 32.8877 267.353 32.8877C265.718 32.8877 264.43 32.4429 263.488 31.5533C262.546 30.6528 262.075 29.4485 262.075 27.9405C262.075 24.7074 263.888 22.8684 267.516 22.4236L272.372 21.7563C272.372 19.4889 271.322 18.3551 269.221 18.3551C267.218 18.3551 265.377 18.9735 263.699 20.2103V16.8904C264.327 16.5107 265.226 16.169 266.395 15.8652C267.575 15.5614 268.647 15.4095 269.611 15.4095C273.899 15.4095 276.043 17.5794 276.043 21.9191V32.4809H272.34ZM268.783 24.8484C267.667 24.9894 266.882 25.2661 266.428 25.6784C265.984 26.0798 265.762 26.7036 265.762 27.5499C265.762 28.2442 266.016 28.8138 266.525 29.2586C267.034 29.6926 267.7 29.9096 268.523 29.9096C269.638 29.9096 270.558 29.5244 271.284 28.7541C272.009 27.9838 272.372 27.0237 272.372 25.8737V24.3764L268.783 24.8484ZM299.99 32.4809V23.0745C299.99 21.5231 299.746 20.3731 299.259 19.6245C298.783 18.865 297.927 18.4853 296.693 18.4853C295.707 18.4853 294.879 18.941 294.208 19.8523C293.536 20.7528 293.201 21.8432 293.201 23.1234V32.4809H289.449V22.7491C289.449 19.9065 288.361 18.4853 286.184 18.4853C285.166 18.4853 284.327 18.9138 283.667 19.7709C283.017 20.628 282.692 21.7455 282.692 23.1234V32.4809H278.94V15.8164H282.692V18.3876H282.757C283.959 16.4022 285.713 15.4095 288.02 15.4095C289.124 15.4095 290.099 15.7025 290.943 16.2883C291.799 16.8633 292.4 17.6607 292.746 18.6806C294.013 16.4999 295.875 15.4095 298.333 15.4095C301.95 15.4095 303.758 17.6662 303.758 22.1795V32.4809H299.99ZM316.231 32.4809V30.1863H316.166C315.008 31.9872 313.367 32.8877 311.245 32.8877C309.61 32.8877 308.321 32.4429 307.379 31.5533C306.437 30.6528 305.966 29.4485 305.966 27.9405C305.966 24.7074 307.78 22.8684 311.407 22.4236L316.264 21.7563C316.264 19.4889 315.213 18.3551 313.113 18.3551C311.11 18.3551 309.269 18.9735 307.59 20.2103V16.8904C308.219 16.5107 309.117 16.169 310.287 15.8652C311.467 15.5614 312.539 15.4095 313.503 15.4095C317.79 15.4095 319.934 17.5794 319.934 21.9191V32.4809H316.231ZM312.674 24.8484C311.559 24.9894 310.774 25.2661 310.319 25.6784C309.875 26.0798 309.653 26.7036 309.653 27.5499C309.653 28.2442 309.908 28.8138 310.417 29.2586C310.925 29.6926 311.591 29.9096 312.414 29.9096C313.53 29.9096 314.45 29.5244 315.176 28.7541C315.901 27.9838 316.264 27.0237 316.264 25.8737V24.3764L312.674 24.8484ZM332.502 19.478C331.885 19.0983 331.16 18.9084 330.326 18.9084C329.243 18.9084 328.36 19.3749 327.678 20.308C327.007 21.241 326.671 22.4561 326.671 23.9533V32.4809H322.919V15.8164H326.671V19.0549H326.736C327.538 16.7006 328.956 15.5234 330.992 15.5234C331.652 15.5234 332.156 15.5994 332.502 15.7513L332.502 19.478ZM336.237 12.0896C335.598 12.0896 335.057 11.8835 334.613 11.4712C334.169 11.0481 333.947 10.5328 333.947 9.92518C333.947 9.29595 334.169 8.76975 334.613 8.34662C335.057 7.92351 335.598 7.71195 336.237 7.71192C336.887 7.71195 337.434 7.92894 337.878 8.36289C338.322 8.78603 338.544 9.3068 338.544 9.92518C338.544 10.5328 338.322 11.0481 337.878 11.4712C337.434 11.8835 336.887 12.0896 336.237 12.0896ZM334.321 32.4809V15.8164H338.073V32.4809H334.321ZM352.253 32.4809V23.1234C352.253 20.0313 351.143 18.4853 348.923 18.4853C347.808 18.4853 346.871 18.9138 346.113 19.7709C345.366 20.6172 344.992 21.6967 344.992 23.0094V32.4809H341.24V15.8164H344.992V18.4853H345.057C346.27 16.4348 348.068 15.4095 350.45 15.4095C354.153 15.4095 356.004 17.6879 356.005 22.2446V32.4809H352.253ZM203.176 3C202.036 3.00242 200.92 3.65141 200.347 4.64147L191.424 20.1916C190.859 21.1843 190.859 22.4818 191.424 23.4745L200.347 39.0247C200.92 40.0147 202.036 40.6639 203.176 40.6661H221.022C222.161 40.6637 223.277 40.0147 223.851 39.0247L232.774 23.4745C233.339 22.4818 233.338 21.1843 232.774 20.1916L223.851 4.64147C223.277 3.65141 222.161 3.00224 221.022 3H203.176ZM203.338 12.097C203.362 12.0946 203.388 12.0946 203.412 12.097H206.491C206.627 12.0998 206.759 12.1788 206.827 12.2975L212.049 21.6326C212.075 21.6787 212.092 21.7302 212.098 21.7829C212.105 21.7302 212.122 21.6787 212.148 21.6326L217.357 12.2975C217.428 12.1752 217.566 12.0958 217.706 12.097H220.784C221.057 12.0994 221.261 12.4439 221.133 12.6859L216.036 21.8331L221.133 30.9677C221.273 31.2111 221.064 31.5715 220.784 31.5691H217.706C217.563 31.5679 217.424 31.483 217.357 31.3561L212.148 22.021C212.122 21.9749 212.105 21.9234 212.098 21.8707C212.092 21.9235 212.075 21.9749 212.049 22.021L206.827 31.3561C206.762 31.4794 206.629 31.5635 206.491 31.5691H203.412C203.133 31.5716 202.924 31.2111 203.063 30.9677L208.161 21.8331L203.063 12.6859C202.941 12.4651 203.09 12.1442 203.338 12.097Z" fill="#3498DB"/>
<defs>
<linearGradient id="paint0_linear" x1="88.5441" y1="10.3105" x2="88.5441" y2="43.8216" gradientUnits="userSpaceOnUse">
<stop stop-color="#0994DC"/>
<stop offset="0.350006" stop-color="#66CEF5"/>
<stop offset="0.846161" stop-color="#127BCA"/>
<stop offset="1" stop-color="#127BCA"/>
</linearGradient>
<linearGradient id="paint1_linear" x1="89.8256" y1="9.4624" x2="89.8256" y2="43.8275" gradientUnits="userSpaceOnUse">
<stop stop-color="#0E76BC"/>
<stop offset="0.360001" stop-color="#36AEE8"/>
<stop offset="0.846161" stop-color="#00ADEF"/>
<stop offset="1" stop-color="#00ADEF"/>
</linearGradient>
<linearGradient id="paint2_linear" x1="96.7256" y1="36.3928" x2="96.7256" y2="9.04894" gradientUnits="userSpaceOnUse">
<stop stop-color="#1C63B7"/>
<stop offset="0.5" stop-color="#33BDF2"/>
<stop offset="1" stop-color="#33BDF2" stop-opacity="0.419608"/>
</linearGradient>
<linearGradient id="paint3_linear" x1="94.9285" y1="5.98004" x2="94.9285" y2="41.6599" gradientUnits="userSpaceOnUse">
<stop stop-color="#166AB8"/>
<stop offset="0.399994" stop-color="#36AEE8"/>
<stop offset="0.846161" stop-color="#0798DD"/>
<stop offset="1" stop-color="#0798DD"/>
</linearGradient>
<linearGradient id="paint4_linear" x1="92.1195" y1="6.16842" x2="92.1195" y2="44.1092" gradientUnits="userSpaceOnUse">
<stop stop-color="#124379"/>
<stop offset="0.389999" stop-color="#1487CB"/>
<stop offset="0.780228" stop-color="#165197"/>
<stop offset="1" stop-color="#165197"/>
</linearGradient>
<linearGradient id="paint5_linear" x1="76.8902" y1="17.8147" x2="82.2516" y2="17.8147" gradientUnits="userSpaceOnUse">
<stop stop-color="#33BDF2" stop-opacity="0.698039"/>
<stop offset="1" stop-color="#1DACD8"/>
</linearGradient>
<linearGradient id="paint6_linear" x1="117.154" y1="35.7076" x2="117.154" y2="9.07086" gradientUnits="userSpaceOnUse">
<stop stop-color="#136AB4"/>
<stop offset="0.6" stop-color="#59CAF5" stop-opacity="0.54902"/>
<stop offset="1" stop-color="#59CAF5" stop-opacity="0.235294"/>
</linearGradient>
<linearGradient id="paint7_linear" x1="57.8631" y1="24.1828" x2="77.7496" y2="24.1828" gradientUnits="userSpaceOnUse">
<stop stop-color="#05A1E6" stop-opacity="0.247059"/>
<stop offset="1" stop-color="#05A1E6"/>
</linearGradient>
<linearGradient id="paint8_linear" x1="68.8776" y1="36.3785" x2="68.8776" y2="9.10474" gradientUnits="userSpaceOnUse">
<stop stop-color="#318ED5"/>
<stop offset="1" stop-color="#38A7E4"/>
</linearGradient>
<linearGradient id="paint9_linear" x1="70.5916" y1="36.4745" x2="70.5916" y2="9.96281" gradientUnits="userSpaceOnUse">
<stop stop-color="#05A1E6"/>
<stop offset="1" stop-color="#05A1E6" stop-opacity="0.54902"/>
</linearGradient>
<linearGradient id="paint10_linear" x1="72.0158" y1="37.8274" x2="72.0158" y2="15.4246" gradientUnits="userSpaceOnUse">
<stop stop-color="#1959A6"/>
<stop offset="0.5" stop-color="#05A1E6"/>
<stop offset="0.917587" stop-color="#7EC5EA"/>
<stop offset="1" stop-color="#7EC5EA"/>
</linearGradient>
<linearGradient id="paint11_linear" x1="72.8774" y1="36.396" x2="68.5922" y2="12.1058" gradientUnits="userSpaceOnUse">
<stop stop-color="#165096"/>
<stop offset="1" stop-color="#0D82CA"/>
</linearGradient>
<linearGradient id="paint12_linear" x1="112.594" y1="22.6591" x2="112.594" y2="9.96479" gradientUnits="userSpaceOnUse">
<stop stop-color="#05A1E6"/>
<stop offset="0.873627" stop-color="#0495D6"/>
<stop offset="1" stop-color="#0495D6"/>
</linearGradient>
<linearGradient id="paint13_linear" x1="118.558" y1="8.79145" x2="113.394" y2="38.0628" gradientUnits="userSpaceOnUse">
<stop stop-color="#38A7E4" stop-opacity="0.329412"/>
<stop offset="0.961533" stop-color="#0E88D3"/>
<stop offset="1" stop-color="#0E88D3"/>
</linearGradient>
<linearGradient id="paint14_linear" x1="113.941" y1="9.81864" x2="113.941" y2="37.5126" gradientUnits="userSpaceOnUse">
<stop stop-color="#168CD4"/>
<stop offset="0.5" stop-color="#1C87CC"/>
<stop offset="1" stop-color="#154B8D"/>
</linearGradient>
<linearGradient id="paint15_linear" x1="78.6397" y1="9.24981" x2="85.0188" y2="11.8957" gradientUnits="userSpaceOnUse">
<stop stop-color="#97D6EE"/>
<stop offset="0.703293" stop-color="#55C1EA"/>
<stop offset="1" stop-color="#55C1EA"/>
</linearGradient>
<linearGradient id="paint16_linear" x1="82.3232" y1="12.4264" x2="87.3615" y2="10.1424" gradientUnits="userSpaceOnUse">
<stop stop-color="#7ACCEC"/>
<stop offset="1" stop-color="#3FB7ED"/>
</linearGradient>
<linearGradient id="paint17_linear" x1="110.193" y1="11.3505" x2="110.193" y2="38.438" gradientUnits="userSpaceOnUse">
<stop stop-color="#1DA7E7"/>
<stop offset="1" stop-color="#37ABE7" stop-opacity="0"/>
</linearGradient>
<linearGradient id="paint18_linear" x1="368" y1="84.0828" x2="389.319" y2="102.24" gradientUnits="userSpaceOnUse">
<stop stop-color="#5A9FD4"/>
<stop offset="1" stop-color="#306998"/>
</linearGradient>
<linearGradient id="paint19_linear" x1="392.1" y1="117.723" x2="384.45" y2="107.008" gradientUnits="userSpaceOnUse">
<stop stop-color="#FFD43B"/>
<stop offset="1" stop-color="#FFE873"/>
</linearGradient>
<radialGradient id="paint20_radial" cx="0" cy="0" r="1" gradientUnits="userSpaceOnUse" gradientTransform="translate(387.235 128.119) rotate(-90) scale(2.40269 10.5554)">
<stop stop-color="#B8B8B8" stop-opacity="0.498039"/>
<stop offset="1" stop-color="#7F7F7F" stop-opacity="0"/>
</radialGradient>
<clipPath id="clip0">
<rect width="59.9689" height="44.7761" fill="white" transform="translate(248 81)"/>
</clipPath>
</defs>
</svg>
