<svg width="540" height="91" viewBox="0 0 540 91" fill="none" xmlns="http://www.w3.org/2000/svg">
<circle cx="45" cy="45.3066" r="44" stroke="#383838" stroke-width="2"/>
<path fill-rule="evenodd" clip-rule="evenodd" d="M40.2555 32.3576C40.6218 33.2158 40.219 33.7385 40.4023 34.5219L40.3654 36.2013C36.776 35.4176 33.2968 37.1342 31.2458 40.3065C29.4878 42.8816 29.268 47.1364 31.026 49.7859C32.894 53.033 36.4834 54.8616 40.4388 54.5256C40.5487 55.6453 40.3654 57.0631 40.4023 58.2204C35.6775 58.7804 30.9895 56.5782 28.2791 52.6595C25.459 48.7782 25.2757 42.9564 27.6199 38.8511C30.1102 34.4474 35.0183 31.9093 40.2555 32.3576ZM52.2685 43.2924C52.8912 40.7545 54.6858 38.6274 56.8469 37.209C58.6783 36.0893 61.0587 35.8281 63 35.9776C62.9269 35.1191 62.9632 33.6262 62.9632 32.3948C57.8358 31.9096 52.8549 34.149 50.3278 38.329C47.8737 42.061 47.6171 47.7336 49.9981 51.5779C52.5252 56.2056 57.7627 58.8176 62.9269 58.1837V54.4514C61.0224 54.5634 58.7882 54.377 57.103 53.2942C54.9424 52.0625 52.6351 49.5994 52.3784 46.8379L60.253 46.9499L60.18 43.3296L52.2685 43.2924Z" fill="#383838"/>
<circle cx="195" cy="45.3066" r="44" stroke="#383838" stroke-width="2"/>
<path d="M189.085 54.4236C186.648 50.7348 185.976 49.8672 183.993 47.8443C183.241 47.0774 181.419 45.3997 179.945 44.1148C176.816 41.3886 176 40.6384 176 40.4859C176 40.2196 177.921 38.5602 181.008 36.1587C183.408 34.2919 183.903 33.9773 184.444 33.9773H184.879L185.41 35.1936C186.611 37.9462 188.336 41.7027 188.611 42.1596C188.956 42.736 189.33 42.9154 189.695 42.6806C189.996 42.4874 191.192 40.1881 192.44 37.4019C193.529 34.9689 195.839 30.4237 197.258 27.9221C199.026 24.8065 201.42 21.1349 202.694 19.5909C204.432 17.4832 208.209 14.1069 208.471 14.3595C208.509 14.3966 207.591 14.9364 207.784 14.761C210.361 12.4231 207.883 19.4862 208.875 27.2771C209.189 29.7452 208.84 29.8798 207.857 30.7007C204.546 33.466 203.156 34.91 200.745 38.0885C196.447 43.7519 193.813 47.9135 191.354 52.9233C190.857 53.9367 190.359 54.8907 190.249 55.0432C189.916 55.5011 189.732 55.403 189.085 54.4236Z" fill="#383838"/>
<path d="M172 61.8077V54.4924L174.754 54.5391C177.64 54.5893 178.033 54.6401 178.987 55.0964C180.108 55.6327 180.841 56.6845 181.03 58.0256C181.32 60.0896 180.377 61.6079 178.514 62.0708L178.031 62.1903L178.534 62.4268C179.507 62.8837 179.777 63.2838 181.716 67.1383L182.715 69.124H180.679L179.602 66.8672C179.009 65.6255 178.362 64.3819 178.164 64.1007C177.461 63.1071 176.792 62.8546 174.853 62.8505L173.984 62.848V69.124H172.001V61.8077H172ZM177.018 61.2715C177.832 61.1259 178.387 60.783 178.722 60.2222C178.973 59.7989 178.997 59.6739 178.997 58.7782C178.997 57.9136 178.966 57.7459 178.749 57.3608C178.424 56.7889 177.792 56.3225 177.161 56.189C176.882 56.1302 176.054 56.0815 175.32 56.0815H173.985V61.3764H175.207C175.88 61.3764 176.694 61.3292 177.018 61.2715ZM187.267 69.1371C186.524 68.8961 186.116 68.6365 185.57 68.0596C184.689 67.1283 184.312 66.0277 184.233 64.1494C184.124 61.5411 184.724 59.7768 186.065 58.7661C187.346 57.8001 189.878 57.6636 191.306 58.483C191.849 58.7943 192.569 59.5745 192.888 60.1966C193.472 61.3353 193.728 63.1151 193.542 64.7514C193.286 67.0007 192.371 68.4216 190.781 69.0357C189.976 69.3474 188.084 69.4022 187.267 69.1371ZM190.161 67.6228C190.75 67.3236 191.201 66.7191 191.476 65.8565C191.778 64.9076 191.803 62.4474 191.519 61.5236C191.08 60.0906 190.225 59.3983 188.895 59.3983C187.82 59.3983 187.16 59.7618 186.634 60.6434C185.897 61.8775 185.85 65.132 186.55 66.5042C186.88 67.1519 187.535 67.681 188.227 67.8608C188.712 67.9868 189.675 67.8683 190.161 67.6228ZM196.414 61.8178V54.5125H198.299V60.4938H203.956V54.512H205.841V69.1235H203.957L203.93 65.618L203.904 62.1125H198.347L198.321 65.618L198.295 69.1235H196.411V61.8183L196.414 61.8178ZM211.102 69.1732C210.747 69.1029 210.088 68.9252 209.638 68.7776L208.82 68.5095V66.5212L209.887 67.0339C212.521 68.2996 215.153 68.0486 215.977 66.4545C216.414 65.607 216.303 64.3005 215.738 63.6644C215.295 63.1653 214.672 62.8987 213.024 62.5006C211.372 62.1014 210.331 61.6732 209.746 61.151C208.232 59.8004 208.309 57.0606 209.903 55.5589C210.886 54.632 211.806 54.3107 213.484 54.3067C214.561 54.3042 215.553 54.4648 216.635 54.8178L217.256 55.0196V55.951C217.256 56.4636 217.222 56.8678 217.181 56.8502C217.14 56.8321 216.807 56.6725 216.442 56.4957C213.886 55.2606 211.109 55.7316 210.612 57.4848C210.436 58.1044 210.524 59.0177 210.803 59.463C211.095 59.93 212.12 60.4019 213.55 60.7283C216.034 61.2941 217.083 61.9383 217.722 63.2899C217.982 63.8396 218 63.9627 218 65.1531C218 66.3912 217.99 66.4469 217.679 67.076C217.139 68.1676 216.135 68.8971 214.788 69.1797C213.973 69.3489 211.974 69.3469 211.102 69.1732Z" fill="#383838"/>
<rect x="306" y="6.30664" width="78" height="78" stroke="#383838" stroke-width="2"/>
<path fill-rule="evenodd" clip-rule="evenodd" d="M341.903 45.7206C341.903 52.0041 347.129 57.0937 353.572 57.0937C357.352 57.0937 360.711 55.3432 362.844 52.6305L367.952 52.5933C365.355 57.7771 359.892 61.3066 353.572 61.3066C345.465 61.3066 338.768 55.4239 337.725 47.8005H327.77C327.77 47.8005 327.536 47.6457 327.536 48.0338V61.2096C327.536 61.2096 328.011 61.2893 327.299 61.2893H322.791C322.791 61.2893 322 61.0563 322 60.5174V33.9292C322 33.9292 322.326 32.4895 323.256 31.2293C324.015 30.1993 325.255 29.3066 326.428 29.3066H338.683L338.841 29.5379V34.6232C338.841 34.6232 339.157 34.8544 338.683 34.8544H328.324C328.324 34.8544 327.457 35.1632 327.457 35.9337V43.5206C327.457 43.5206 327.375 43.6729 327.77 43.6729H337.722C338.75 36.0364 345.453 30.1363 353.572 30.1363C359.93 30.1363 365.422 33.7525 368 38.9894L362.986 38.9965C360.864 36.178 357.438 34.3477 353.572 34.3477C347.129 34.3477 341.903 39.4405 341.903 45.7206ZM358.194 42.5548C357.191 41.1084 355.495 40.2908 353.572 40.2908C350.497 40.2908 348.002 42.7216 348.002 45.7199C348.002 48.719 350.498 51.1527 353.572 51.1527C355.35 51.1527 356.932 50.3418 357.954 49.0767L362.73 49.0367C361.351 52.6611 357.77 55.2391 353.572 55.2391C348.182 55.2391 343.807 50.977 343.807 45.7203C343.807 40.4632 348.182 36.2018 353.572 36.2018C357.824 36.2018 361.44 38.8479 362.78 42.5392L358.194 42.5548Z" fill="#383838"/>
<circle cx="495" cy="45.3066" r="44" stroke="#383838" stroke-width="2"/>
<path fill-rule="evenodd" clip-rule="evenodd" d="M513 65.3066H497.744V35.5066H505.035V59.2358H513V65.3066ZM494.822 46.1889C494.822 51.6219 491.188 54.5802 485.986 54.5802H484.916C479.755 54.5802 476 51.9429 476 46.4261V24.3066H483.291V46.8057C483.291 48.3821 483.925 49.1704 485.193 49.1704H485.589C487.214 49.1704 487.531 47.6268 487.531 46.3326V24.3066H494.822V46.1889ZM481.127 60.6598C481.127 62.9942 483.036 64.8934 485.382 64.8934C487.752 64.8934 489.636 62.9942 489.636 60.6598C489.636 58.3254 487.752 56.4271 485.382 56.4271C483.036 56.4275 481.127 58.3254 481.127 60.6598ZM481.93 60.6598C481.93 58.6646 483.485 57.0683 485.382 57.0683C487.29 57.0683 488.834 58.6646 488.834 60.6598C488.834 62.6437 487.302 64.2513 485.382 64.2513C483.485 64.2517 481.93 62.6437 481.93 60.6598ZM483.826 62.7401H484.616V60.9867H485.26C486.16 60.9867 486.184 61.3857 486.196 61.7724C486.22 62.4743 486.208 62.5708 486.354 62.7401H487.168C486.998 62.5105 487.034 62.3896 486.998 61.7362C486.973 61.3132 486.937 60.8296 486.39 60.7209V60.696C487.022 60.4424 487.107 60.019 487.107 59.7283C487.107 58.6283 486.159 58.5074 485.709 58.5074H483.825L483.826 62.7401ZM484.616 59.0875H485.442C485.953 59.0875 486.305 59.2207 486.305 59.7283C486.305 60.0312 486.184 60.4062 485.528 60.4062H484.616V59.0875Z" fill="#383838"/>
</svg>
