<svg width="549" height="131" viewBox="0 0 549 131" fill="none" xmlns="http://www.w3.org/2000/svg">
<g clip-path="url(#clip0)">
<path d="M68.0626 10.9633V11.4885H68.9679V13.9625H69.543V11.4961H70.4328V10.9555L68.0626 10.9628V10.9633ZM70.9696 10.9861V13.9551H71.43V11.6638L72.148 13.6545L72.6325 13.6512L73.3779 11.6941V13.9929H73.8458V10.9786H72.9869L72.381 13.0973L71.7597 10.9861H70.9696ZM0.00021237 28.8286V20.425C0.00021237 20.425 -0.0918729 16.8017 3.55898 13.1783C7.20983 9.55502 10.6768 9.95097 10.6768 9.95097H15.4627C15.4627 9.95097 21.4763 0.999023 33.3795 0.999023C45.2831 0.999023 52.0937 9.82895 52.0937 9.82895H57.4937C57.4937 9.82895 58.8568 9.7677 60.5697 10.6215C62.3013 11.4848 63.8596 12.4793 65.4454 14.9222C67.0359 17.3721 67.2494 19.1373 67.2494 20.4247V29.6199C67.2494 31.537 67.0652 33.0301 63.8133 36.2575C60.5614 39.4849 56.3887 39.1195 56.3887 39.1195H51.419C51.419 39.1195 45.2114 47.9996 33.5634 47.9996C21.9139 47.9996 15.9534 39.1805 15.9534 39.1805H10.4311C10.4311 39.1805 6.78026 39.3937 3.25211 35.8919C-0.2758 32.3909 0.0614406 28.8286 0.00021237 28.8286ZM5.8599 16.7404L9.2962 31.4473H13.0695L14.7569 22.9827L16.3829 31.4473H20.2485L23.6848 16.832H19.5738L18.3775 24.8401L16.69 16.8019H12.9777L11.2905 24.9315L10.0327 16.7715L5.8599 16.7409V16.7404ZM25.6267 20.8549V31.434H29.2529V20.8549H25.6267ZM29.8023 17.8665C29.8023 18.8899 28.7784 19.7206 27.5165 19.7206C26.2549 19.7206 25.2308 18.8899 25.2308 17.8662C25.2308 16.8427 26.2549 16.0124 27.5165 16.0124C28.7784 16.0124 29.8023 16.8431 29.8023 17.8665ZM30.6814 37.0392C30.6814 37.0392 35.2088 33.6293 35.2088 28.5544V20.0037C35.2088 18.6292 35.919 16.6816 38.0438 14.5728C40.1686 12.4639 42.0412 12.1299 43.3405 12.1299H56.835C59.1287 12.1612 60.9111 13.1157 62.5497 14.6382C64.0675 16.221 65.0549 18.2045 65.0549 20.3748V28.5542C65.0549 30.1645 64.62 32.4979 62.4615 34.4654C60.3029 36.433 58.6398 37.0392 56.923 37.0392H30.6814ZM55.6044 20.8658V31.4445H59.231V20.8658H55.6044ZM59.7803 17.8773C59.7803 18.9007 58.7565 19.7312 57.4947 19.7312C56.233 19.7312 55.2089 18.9007 55.2089 17.8773C55.2089 16.854 56.233 16.023 57.4947 16.023C58.7565 16.023 59.7803 16.854 59.7803 17.8773ZM40.3518 31.3685H44.4176V26.9622H52.154V23.6683H44.3955V20.2224H53.1648V16.7978H40.3297L40.3518 31.3685Z" fill="black"/>
<path d="M9.31881 31.2267C9.20996 30.9048 6.02051 17.1203 6.02051 16.972C6.02051 16.855 6.50159 16.8176 8.0097 16.8176C9.10378 16.8176 9.99863 16.8591 9.99844 16.9102C9.99739 17.0665 11.1226 24.3854 11.1982 24.7146C11.264 25.001 11.2754 25.0051 11.3593 24.7764C11.4089 24.6408 11.8087 22.793 12.2471 20.6708L13.0448 16.8118L14.8422 16.8456L16.6397 16.8798L17.4539 20.7879C17.9017 22.9374 18.3024 24.73 18.3441 24.7715C18.444 24.8704 18.4631 24.7626 19.086 20.5507L19.6198 16.9416H21.5849C22.6661 16.9416 23.5505 16.9768 23.5505 17.0199C23.5505 17.1091 20.3394 30.8298 20.2407 31.1621C20.1834 31.355 19.9815 31.3779 18.3286 31.3779C16.6764 31.3779 16.4736 31.3553 16.4154 31.1621C16.3798 31.0434 16.0114 29.1732 15.5968 27.0061C15.1824 24.839 14.8174 23.0404 14.7861 23.009C14.6889 22.9125 14.6296 23.1761 13.8203 27.3061L13.0345 31.3161L11.203 31.3507C9.80401 31.376 9.35963 31.347 9.31881 31.2267ZM25.6641 26.1336V20.8895H29.1453V31.3774H25.6641V26.1336ZM26.6967 19.5258C26.4783 19.4595 26.1053 19.2237 25.8681 19.0014C25.0449 18.2309 25.176 17.1417 26.1704 16.4884C26.6007 16.2061 26.8344 16.1427 27.4547 16.141C30.3223 16.1331 30.5108 19.4248 27.6532 19.61C27.3457 19.6299 26.9151 19.5921 26.6967 19.5256V19.5258ZM31.9069 35.9641C33.3647 34.4498 34.2814 32.9752 34.8743 31.1925C35.152 30.3569 35.1637 30.1448 35.2353 24.7146C35.3151 18.6806 35.3053 18.7735 36.0129 17.3729C36.4261 16.5547 37.4284 15.2871 38.3271 14.4455C39.322 13.5142 40.3304 12.8801 41.4536 12.4791L42.2615 12.1904H49.9699C58.452 12.1904 58.3269 12.1808 60.0402 12.9778C62.2141 13.9889 64.2232 16.4219 64.7638 18.6989C65.0372 19.8492 65.0345 29.3989 64.7604 30.4573C64.1933 32.6482 62.6174 34.6046 60.3238 35.9648C58.5827 36.9968 59.6848 36.9304 44.4715 36.9304H30.977L31.9069 35.9641ZM59.2322 26.1336V20.766H55.5021V31.5009H59.2322V26.1336ZM44.437 29.2183V27.0592H52.2696V23.6041H44.437V20.2726H53.2644V16.6942H40.1712L40.2528 18.7501C40.2978 19.8805 40.3348 23.1844 40.3348 26.0917V31.3774H44.437V29.2183ZM58.3956 19.6485C59.7334 19.2796 60.2842 17.655 59.3799 16.7474C58.3264 15.6908 56.5141 15.7202 55.5905 16.8097C54.9617 17.5511 54.9938 18.4023 55.6755 19.0788C56.317 19.7153 57.3596 19.9341 58.3954 19.6485H58.3956Z" fill="white"/>
<path d="M238.308 16.0728C239.546 16.1093 240.784 16.0728 242.023 16.3642C242.824 16.5464 243.552 17.0562 243.989 17.8575C244.535 18.9502 244.535 20.2613 244.499 21.4633C243.152 21.4633 241.84 21.4633 240.493 21.4633C240.493 21.0626 240.456 20.662 240.238 20.3343C239.946 19.9336 239.473 19.7879 239.036 19.7151C238.344 19.6422 237.688 19.6786 236.996 19.6786C235.94 19.6786 234.884 19.6422 233.864 19.7515C233.318 19.8243 232.626 19.97 232.335 20.5892C231.934 21.4633 232.043 22.4831 232.006 23.4301C232.043 24.3407 231.897 25.2876 232.262 26.1254C232.443 26.526 232.771 26.8537 233.172 26.963C233.864 27.218 234.628 27.2544 235.358 27.2544C236.377 27.2544 237.397 27.2908 238.416 27.218C238.963 27.1816 239.51 27.1452 239.983 26.8173C240.529 26.4531 240.602 25.6882 240.602 25.0691C241.95 25.0691 243.298 25.0691 244.645 25.0691C244.718 26.3803 244.718 27.7643 244.135 28.9299C243.662 29.8768 242.714 30.3867 241.804 30.6052C240.93 30.7873 240.019 30.8238 239.145 30.8602C237.215 30.8602 235.248 30.8602 233.318 30.8602C232.225 30.8238 231.133 30.7873 230.149 30.241C229.312 29.8039 228.619 29.0027 228.328 28.0193C228.109 27.3273 228 26.5624 228 25.8339C228 24.2678 228 22.6652 228 21.0991C228.036 19.9336 228.218 18.6952 228.874 17.7483C229.312 17.0562 230.04 16.6556 230.768 16.4371C231.897 16.0728 233.063 16 234.229 16C235.539 16.0728 236.923 16.0728 238.308 16.0728Z" fill="#010202"/>
<path d="M246.83 16.2549C251.565 16.2549 256.336 16.2549 261.071 16.2549C261.071 17.4204 261.071 18.6223 261.071 19.7878C257.648 19.7878 254.224 19.7878 250.8 19.7878C250.8 20.5162 250.8 21.2447 250.8 21.9367C254.005 21.9367 257.247 21.9367 260.452 21.9367C260.452 22.9565 260.452 23.9763 260.452 24.9962C257.21 24.9962 254.005 24.9962 250.764 24.9962C250.764 25.7246 250.764 26.4894 250.764 27.2179C254.224 27.2179 257.72 27.2179 261.18 27.2179C261.18 28.3834 261.18 29.5489 261.18 30.7144C256.373 30.7144 251.565 30.7144 246.757 30.7144C246.83 25.9067 246.83 21.0626 246.83 16.2549Z" fill="#010202"/>
<path d="M263.766 16.2549C265.114 16.2549 266.424 16.2549 267.772 16.2549C267.772 19.9335 267.772 23.6121 267.772 27.2543C270.65 27.2543 273.564 27.2543 276.441 27.2543C276.441 28.4198 276.441 29.5854 276.441 30.7508C272.216 30.7508 267.991 30.7508 263.766 30.7508C263.766 25.9067 263.766 21.0626 263.766 16.2549Z" fill="#010202"/>
<path d="M278.262 16.2549C279.61 16.2549 280.921 16.2549 282.269 16.2549C282.269 19.9335 282.269 23.6121 282.269 27.2543C285.146 27.2543 288.059 27.2543 290.937 27.2543C290.937 28.4198 290.937 29.5854 290.937 30.7508C286.712 30.7508 282.487 30.7508 278.262 30.7508C278.262 25.9067 278.262 21.0626 278.262 16.2549Z" fill="#010202"/>
<path d="M304.705 16.2549C306.053 16.2549 307.364 16.2549 308.712 16.2549C308.712 19.1686 308.712 22.046 308.712 24.9597C308.712 26.1616 308.785 27.4 308.347 28.5655C308.092 29.3303 307.509 29.986 306.854 30.3137C305.87 30.7873 304.778 30.9329 303.722 30.9694C302.192 30.9694 300.662 30.9694 299.169 30.9694C297.785 30.9694 296.401 30.9329 295.09 30.5687C294.434 30.3866 293.742 30.0224 293.305 29.4396C292.722 28.6384 292.54 27.5821 292.504 26.5987C292.504 23.1751 292.504 19.7513 292.504 16.3277C293.815 16.3277 295.163 16.3277 296.474 16.3277C296.474 19.1322 296.474 21.9731 296.474 24.7776C296.474 25.3604 296.51 25.9431 296.728 26.453C296.874 26.7808 297.129 26.9994 297.421 27.1086C298.003 27.3636 298.659 27.3636 299.278 27.4C300.261 27.4 301.281 27.4364 302.265 27.4C302.884 27.3636 303.54 27.3271 304.086 26.9629C304.669 26.5623 304.778 25.7246 304.778 25.0326C304.705 22.046 304.705 19.1322 304.705 16.2549Z" fill="#010202"/>
<path d="M311.552 16.2549C312.899 16.2549 314.211 16.2549 315.558 16.2549C315.558 19.9335 315.558 23.5757 315.558 27.2543C318.436 27.2543 321.349 27.2543 324.227 27.2543C324.227 28.4198 324.227 29.5854 324.227 30.7508C320.002 30.7508 315.777 30.7508 311.552 30.7508C311.552 25.9067 311.552 21.0626 311.552 16.2549Z" fill="#010202"/>
<path d="M331.584 16.2549C333.296 16.2549 334.971 16.2549 336.684 16.2549C339.015 21.099 341.345 25.9067 343.676 30.7508C342.219 30.7508 340.763 30.7508 339.306 30.7508C338.869 29.9495 338.468 29.1482 338.031 28.3469C335.409 28.3469 332.75 28.3469 330.127 28.3469C329.69 29.1482 329.29 29.9495 328.852 30.7508C327.396 30.7508 325.939 30.7508 324.519 30.7508C326.85 25.9067 329.217 21.0626 331.584 16.2549ZM331.584 24.8505C333.26 24.8505 334.898 24.8505 336.574 24.8505C335.736 23.1751 334.898 21.4632 334.061 19.7513C333.223 21.4268 332.422 23.1386 331.584 24.8505Z" fill="#010202"/>
<path d="M345.061 16.2547C348.229 16.2547 351.361 16.2547 354.53 16.2547C355.659 16.2547 356.788 16.2183 357.917 16.4733C358.5 16.619 359.083 16.7647 359.592 17.1653C360.103 17.566 360.43 18.1851 360.613 18.8407C360.868 19.7877 360.904 20.8075 360.868 21.7909C360.795 22.5922 360.685 23.4299 360.249 24.0855C359.884 24.5954 359.338 24.8867 358.791 25.0689C359.411 25.251 359.993 25.5424 360.357 26.1251C360.685 26.5986 360.795 27.1814 360.795 27.8005C360.795 28.7839 360.795 29.8038 360.795 30.7872C359.484 30.7872 358.136 30.7872 356.825 30.7872C356.825 30.0223 356.825 29.2574 356.825 28.4925C356.825 28.0555 356.715 27.582 356.388 27.3271C355.987 27.0721 355.477 27.0721 355.04 27.0721C353.073 27.0721 351.107 27.0721 349.14 27.0721C349.14 28.3104 349.14 29.5488 349.14 30.7872C347.792 30.7872 346.481 30.7872 345.133 30.7872C345.061 25.9066 345.061 21.0624 345.061 16.2547ZM349.067 19.8605C349.067 21.026 349.067 22.228 349.067 23.3935C350.997 23.3935 352.964 23.3935 354.894 23.3935C355.367 23.3935 355.878 23.4663 356.278 23.175C356.642 22.92 356.715 22.4101 356.752 21.973C356.788 21.4267 356.788 20.8075 356.496 20.3341C356.205 19.9334 355.696 19.8605 355.259 19.8605C353.219 19.8605 351.143 19.8605 349.067 19.8605Z" fill="#010202"/>
<path fill-rule="evenodd" clip-rule="evenodd" d="M464 30.7104V16.0703H468.056C469.134 16.0703 470.192 16.148 470.909 17.1441C471.484 17.9444 471.574 18.7837 471.574 19.7793C471.574 21.0482 471.322 22.2974 469.959 22.8437V22.883C471.377 23.0979 471.915 24.3859 471.915 26.2793C471.915 26.8845 471.879 27.4897 471.736 28.0752C471.197 29.9297 470.228 30.7104 468.434 30.7104H464ZM466.979 21.9848C467.59 21.9848 468.379 22.0241 468.775 21.4769C469.008 21.1067 469.044 20.5988 469.044 19.8958C469.044 18.8029 468.828 18.2562 467.679 18.2173H466.513V21.9848H466.979ZM467.051 28.563C467.571 28.563 468.11 28.622 468.559 28.4076C469.241 28.0753 469.33 27.1185 469.33 26.3771C469.33 24.796 469.044 24.1323 467.482 24.1323H466.513V28.5634H467.051V28.563ZM472.885 16.119H475.08V30.711H472.885V16.119ZM481.124 29.1008H481.089C480.735 30.385 480.065 30.9784 478.953 30.9986C477.135 30.9986 476.728 29.9823 476.728 28.1809V19.9007H479.024V27.2995C479.024 27.7783 479.006 28.3147 479.253 28.7365C479.448 28.9671 479.659 29.0812 479.959 29.0812C481.036 29.0812 481.018 27.7591 481.018 26.916V19.9007H483.313V30.7104H481.124V29.1008ZM484.867 23.619C484.762 21.0698 485.96 19.6136 488.215 19.6136C491.403 19.6136 491.738 21.4155 491.738 24.3663V25.823H487.157V27.3953C487.174 28.8132 487.668 29.0812 488.355 29.0812C489.201 29.0812 489.447 28.4111 489.413 27.0502H491.702C491.791 29.4651 490.875 30.9986 488.532 30.9986C485.889 30.9986 484.814 29.6372 484.866 26.4558V23.619H484.867ZM489.447 23.9061V22.9671C489.43 21.8747 489.166 21.5295 488.25 21.5295C487.105 21.5295 487.158 22.4877 487.158 23.4656V23.9061H489.447ZM497.681 30.7488C496.381 30.9219 493.906 31.0551 493.906 29.0428V21.7212H492.575V19.9007H493.889V16.9302H496.1V19.9007H497.682V21.7212H496.1V28.4302C496.15 28.8904 497.411 28.8324 497.682 28.794V30.7488H497.681ZM498.579 25.6893C498.597 21.9902 498.632 19.6136 502.137 19.6136C505.587 19.6136 505.604 21.9902 505.622 25.6893C505.639 29.4459 505.139 31.0551 502.137 30.9986C499.08 31.0551 498.562 29.4459 498.579 25.6893ZM500.903 27.1834C500.903 28.5064 501.01 29.0806 502.137 29.0806C503.209 29.0806 503.299 28.5064 503.299 27.1834V23.5802C503.299 22.5644 503.299 21.53 502.137 21.53C500.903 21.53 500.903 22.5644 500.903 23.5802V27.1834ZM506.785 25.6893C506.804 21.9902 506.839 19.6136 510.306 19.6136C513.72 19.6136 513.739 21.9902 513.756 25.6893C513.774 29.4459 513.278 31.0551 510.306 30.9986C507.281 31.0551 506.768 29.4459 506.785 25.6893ZM509.086 27.1834C509.086 28.5064 509.192 29.0806 510.307 29.0806C511.368 29.0806 511.457 28.5064 511.457 27.1834V23.5802C511.457 22.5644 511.457 21.53 510.307 21.53C509.086 21.53 509.086 22.5644 509.086 23.5802V27.1834ZM519.472 30.7488C518.172 30.9219 515.696 31.0551 515.696 29.0428V21.7212H514.584V19.9007H515.678V16.9302H517.89V19.9007H519.472V21.7212H517.89V28.4302C517.941 28.8904 519.201 28.8324 519.472 28.794V30.7488H519.472ZM520.94 30.7104V16.1426H523.283V21.0123H523.319C523.984 19.7468 524.922 19.6136 525.427 19.6136C526.761 19.6136 527.842 20.438 527.77 22.3732V30.7104H525.427V23.3122C525.427 22.2581 525.319 21.5683 524.436 21.53C523.553 21.4916 523.246 22.3732 523.283 23.5236V30.7104H520.94ZM527.599 16H528.929V16.3048H528.464V18.0757H528.066V16.3048H527.599V16ZM529.562 18.0757H529.165V16H529.798L530.012 16.9631C530.046 17.121 530.069 17.2812 530.086 17.442H530.092C530.111 17.237 530.126 17.0988 530.155 16.9631L530.369 16H531V18.0757H530.602V17.4233C530.602 17.0108 530.611 16.5983 530.635 16.1853H530.629L530.203 18.0757H529.961L529.543 16.1853H529.529C529.553 16.5978 529.562 17.0108 529.562 17.4233V18.0757Z" fill="black"/>
<path fill-rule="evenodd" clip-rule="evenodd" d="M434.781 4C427.302 4.14817 422.144 8.13408 421.468 15.1989C421.243 17.5487 421.067 19.9536 421 22.2998V26.161C421.116 29.67 421.584 32.8798 422.638 35.3534C424.639 40.0539 428.123 42.8663 434.358 43H435.346C442.206 42.8455 446.651 40.914 448.911 33.1156C451.172 25.3154 449.534 14.1166 447.43 10.1794C445.325 6.2396 442.051 4.12467 435.658 4.0009H434.781V4Z" fill="#2761AB"/>
<path fill-rule="evenodd" clip-rule="evenodd" d="M444 30.1002L437.105 23.3864L443.961 16.7108L433.831 7V20.2004L428.105 14.6235L426.039 16.6336L433.05 23.4627L426 30.3274L428.065 32.3375L433.831 26.7243V40L444 30.1002ZM436.481 13.2967L439.987 16.7871L436.481 20.2004V13.2967ZM436.481 26.497L439.987 29.9866L436.481 33.4016V26.497Z" fill="white"/>
<path d="M454.18 107.583H446.171V113.005H455.57V116.356H442V96.1123H455.542V99.4908H446.171V104.316H454.18V107.583ZM462.563 97.6138V101.312H465.135V104.26H462.563V111.768C462.563 112.323 462.67 112.722 462.883 112.964C463.096 113.204 463.504 113.325 464.107 113.325C464.552 113.325 464.945 113.292 465.288 113.227V116.272C464.5 116.514 463.689 116.634 462.855 116.634C460.037 116.634 458.601 115.211 458.545 112.365V104.26H456.349V101.312H458.545V97.6138H462.563ZM471.295 102.952C472.361 101.674 473.7 101.034 475.312 101.034C478.575 101.034 480.23 102.93 480.276 106.72V116.356H476.258V106.832C476.258 105.97 476.073 105.335 475.702 104.927C475.332 104.51 474.715 104.302 473.853 104.302C472.676 104.302 471.823 104.755 471.295 105.664V116.356H467.277V95H471.295V102.952ZM490.232 116.634C488.025 116.634 486.227 115.957 484.837 114.604C483.455 113.251 482.765 111.448 482.765 109.196V108.806C482.765 107.295 483.057 105.947 483.641 104.76C484.225 103.565 485.05 102.647 486.116 102.007C487.191 101.359 488.415 101.034 489.786 101.034C491.844 101.034 493.461 101.683 494.639 102.98C495.825 104.278 496.418 106.119 496.418 108.501V110.141H486.839C486.969 111.123 487.358 111.911 488.007 112.505C488.665 113.098 489.495 113.395 490.495 113.395C492.043 113.395 493.253 112.834 494.124 111.712L496.098 113.922C495.496 114.775 494.68 115.442 493.652 115.925C492.622 116.398 491.482 116.634 490.232 116.634ZM489.773 104.288C488.976 104.288 488.327 104.556 487.826 105.094C487.335 105.632 487.019 106.401 486.881 107.402H492.47V107.082C492.451 106.193 492.21 105.506 491.747 105.025C491.283 104.533 490.625 104.288 489.773 104.288ZM507.166 105.08C506.619 105.006 506.136 104.969 505.72 104.969C504.199 104.969 503.203 105.484 502.73 106.512V116.356H498.712V101.312H502.508L502.619 103.106C503.426 101.724 504.543 101.034 505.97 101.034C506.415 101.034 506.832 101.095 507.221 101.215L507.166 105.08ZM512.811 101.312L512.935 103.05C514.011 101.706 515.452 101.034 517.26 101.034C518.854 101.034 520.04 101.502 520.818 102.439C521.597 103.375 521.996 104.774 522.014 106.637V116.356H517.997V106.734C517.997 105.882 517.811 105.266 517.44 104.885C517.07 104.496 516.453 104.302 515.591 104.302C514.46 104.302 513.612 104.783 513.047 105.747V116.356H509.029V101.312H512.811ZM531.998 116.634C529.791 116.634 527.993 115.957 526.603 114.604C525.221 113.251 524.531 111.448 524.531 109.196V108.806C524.531 107.295 524.823 105.947 525.407 104.76C525.991 103.565 526.816 102.647 527.882 102.007C528.957 101.359 530.181 101.034 531.552 101.034C533.61 101.034 535.227 101.683 536.405 102.98C537.591 104.278 538.184 106.119 538.184 108.501V110.141H528.605C528.735 111.123 529.124 111.911 529.772 112.505C530.431 113.098 531.26 113.395 532.261 113.395C533.809 113.395 535.019 112.834 535.89 111.712L537.864 113.922C537.262 114.775 536.446 115.442 535.417 115.925C534.388 116.398 533.248 116.634 531.998 116.634ZM531.538 104.288C530.742 104.288 530.093 104.556 529.592 105.094C529.101 105.632 528.785 106.401 528.646 107.402H534.236V107.082C534.217 106.193 533.976 105.506 533.513 105.025C533.049 104.533 532.391 104.288 531.538 104.288ZM545.289 97.6138V101.312H547.861V104.26H545.289V111.768C545.289 112.323 545.396 112.722 545.608 112.964C545.822 113.204 546.229 113.325 546.832 113.325C547.277 113.325 547.671 113.292 548.014 113.227V116.272C547.226 116.514 546.415 116.634 545.58 116.634C542.763 116.634 541.327 115.211 541.271 112.365V104.26H539.074V101.312H541.271V97.6138H545.289Z" fill="black"/>
<path d="M139.448 24.3657C142.83 27.7548 146.118 31.0478 149.343 34.293C144.458 39.2326 139.654 44.0763 134.785 49C134.785 42.4938 134.785 36.0035 134.785 29.4972C134.707 29.4812 134.643 29.4492 134.564 29.4333C131.734 32.3427 128.906 35.2521 126.092 38.1295C125.049 37.0426 124.132 36.0994 123.089 35.0283C126.582 31.5913 130.138 28.0904 133.79 24.5096C130.107 20.753 126.598 17.1721 123.136 13.6392C124.085 12.6641 124.986 11.7369 125.982 10.7138C128.811 13.5753 131.671 16.4687 134.722 19.554C134.722 12.7759 134.722 6.26971 134.722 -0.140625C139.527 4.71909 144.348 9.59478 149.28 14.5664C146.118 17.7157 142.815 21.0087 139.448 24.3657ZM138.879 18.9625C139.068 18.8826 139.163 18.8666 139.211 18.8186C140.57 17.4439 141.929 16.0691 143.304 14.7102C143.684 14.3425 143.431 14.1188 143.179 13.863C141.929 12.6001 140.681 11.3372 139.432 10.0744C139.306 9.94652 139.132 9.85054 138.879 9.65872C138.879 12.824 138.879 15.8453 138.879 18.9625ZM138.926 29.689C138.926 32.9501 138.926 35.9874 138.926 39.2326C140.508 37.634 141.946 36.1953 143.336 34.7246C143.447 34.6127 143.336 34.1331 143.179 33.9732C142.166 32.8862 141.108 31.8472 140.064 30.7921C139.732 30.4564 139.385 30.1367 138.926 29.689ZM138.658 10.426C138.626 10.426 138.611 10.426 138.579 10.426C138.579 12.9358 138.579 15.4456 138.579 17.9554C138.611 17.9554 138.626 17.9554 138.658 17.9554C138.658 15.4456 138.658 12.9358 138.658 10.426ZM138.563 38.1615C138.594 38.1615 138.626 38.1615 138.642 38.1615C138.642 35.6997 138.642 33.2539 138.642 30.7921C138.611 30.7921 138.579 30.7921 138.563 30.7921C138.563 33.2539 138.563 35.6997 138.563 38.1615Z" fill="#287FB9"/>
<path d="M156.392 6.62091C156.408 6.50901 156.392 6.44506 156.408 6.39711C157.024 4.78254 157.024 4.78254 158.542 5.56584C166.176 9.43443 170.823 17.7312 169.937 26.2836C169.131 34.0527 165.164 39.7277 158.304 43.3245C157.041 43.9799 157.041 43.964 156.519 42.6531C156.455 42.5093 156.424 42.3494 156.36 42.1735C163.758 38.6087 168.042 32.8058 168.042 24.4292C168.042 16.0366 163.821 10.2017 156.392 6.62091Z" fill="#94A4A4"/>
<path d="M153.785 36.3872C158.795 33.9413 161.815 30.1368 161.798 24.3338C161.767 18.5949 158.827 14.7583 153.849 12.4084C153.832 12.3444 153.817 12.3125 153.817 12.2964C154.259 10.6339 154.449 10.5061 155.919 11.3053C160.487 13.7991 163.126 17.6357 163.712 22.8791C164.422 29.2255 160.882 34.9964 155.666 37.5542C154.496 38.1296 154.496 38.1457 153.975 36.9148C153.895 36.7709 153.848 36.595 153.785 36.3872Z" fill="#94A4A4"/>
<path d="M157.562 24.174C157.435 27.8188 155.84 30.3765 152.757 31.9911C152.267 32.2469 151.873 32.3747 151.588 31.6714C151.145 30.5844 151.114 30.6163 151.951 30.2167C154.337 29.0497 155.57 27.0674 155.587 24.4298C155.602 21.7282 154.337 19.7299 151.903 18.5949C151.097 18.2273 151.256 17.8596 151.509 17.2521C151.793 16.5487 152.141 16.4847 152.774 16.8045C155.808 18.3711 157.373 20.8809 157.562 24.174Z" fill="#94A4A4"/>
<path d="M138.611 19.5226C138.646 19.5226 138.675 17.1393 138.675 14.1993C138.675 11.2592 138.646 8.87598 138.611 8.87598C138.576 8.87598 138.548 11.2592 138.548 14.1993C138.548 17.1393 138.576 19.5226 138.611 19.5226Z" fill="#979797"/>
<path d="M138.563 38.1611C138.563 35.7153 138.563 33.2535 138.563 30.8076C138.595 30.8076 138.627 30.8076 138.643 30.8076C138.643 33.2695 138.643 35.7153 138.643 38.1772C138.612 38.1611 138.58 38.1611 138.563 38.1611Z" fill="#979797"/>
<path fill-rule="evenodd" clip-rule="evenodd" d="M98.7433 105.625H98.7434C99.1741 105.915 99.5892 106.194 99.9596 106.527C102.552 108.766 102.11 112.647 99.0953 114.267C98.7159 114.459 98.3364 114.651 97.9359 114.758C94.9847 115.547 92.0334 115.419 89.1243 114.523C88.5973 114.374 88.3233 114.118 88.3233 113.478C88.3444 108.446 88.3444 103.392 88.3444 98.3596C88.3444 97.5493 88.7027 96.9521 89.4616 96.7389C92.2442 95.9073 95.069 95.6087 97.8305 96.6536C98.8213 97.0374 99.8331 97.7838 100.444 98.6581C101.899 100.684 101.119 103.477 98.9478 104.693C98.6526 104.842 98.3575 104.991 98.0413 105.141C98.2768 105.312 98.5123 105.47 98.7433 105.625ZM94.036 112.583C96.5024 112.54 97.5565 111.282 97.1981 108.872C96.9662 107.252 95.8489 106.484 93.8042 106.356C92.9399 106.313 92.4972 106.676 92.4761 107.465C92.4129 108.702 92.4129 109.96 92.4972 111.197C92.5393 112.135 93.0663 112.71 94.036 112.583ZM92.4923 100.341V100.343V100.344C92.4877 101.381 92.4834 102.35 92.4972 103.328C92.4972 103.819 92.6658 104.33 93.2982 104.138C93.4162 104.101 93.5353 104.065 93.6549 104.028C94.4334 103.789 95.2361 103.543 95.9122 103.136C96.8397 102.582 97.0716 101.601 96.8397 100.513C96.6078 99.447 95.9754 98.786 94.9425 98.6581C94.407 98.5849 93.8615 98.6021 93.2925 98.6201C93.0327 98.6283 92.7681 98.6367 92.4972 98.6367C92.4972 99.2297 92.4947 99.7925 92.4923 100.337V100.338V100.339V100.34V100.341ZM75.2855 119.112L75.2856 119.111C75.3787 118.864 75.4637 118.637 75.5487 118.404C75.8649 117.572 76.3919 117.338 77.2983 117.551C78.2469 117.764 79.2377 117.892 80.1863 117.807C80.7555 117.743 81.4301 117.295 81.8095 116.805C82.0137 116.554 82.0363 116.15 82.0587 115.749C82.0687 115.57 82.0787 115.391 82.1046 115.227C81.993 115.21 81.88 115.189 81.7662 115.167C81.4501 115.107 81.1287 115.046 80.8187 115.078C76.7081 115.376 74.073 112.689 74.2628 108.297C74.3049 107.38 74.4314 106.442 74.6633 105.567C75.3168 103.222 76.8556 101.729 79.2588 101.26C81.1771 100.876 83.0954 101.025 84.9716 101.58C85.7304 101.814 86.0888 102.177 86.0677 103.072C86.0225 105.83 86.0312 108.598 86.0398 111.362V111.363V111.364C86.0432 112.468 86.0466 113.571 86.0466 114.672C86.0466 118.639 84.2548 120.6 80.3339 120.75C78.5631 120.792 76.7924 120.6 75.0638 119.705C75.1441 119.488 75.2168 119.295 75.2852 119.113L75.2855 119.112ZM82.21 107.828C82.21 107.493 82.2066 107.157 82.2032 106.822C82.1945 105.985 82.1859 105.147 82.2311 104.309C82.2522 103.67 81.9782 103.435 81.409 103.371C80.1652 103.222 78.9426 103.797 78.7318 105.056C78.4367 106.761 78.4367 108.553 78.4367 110.301C78.4367 110.877 78.795 111.538 79.1534 112.028C79.7015 112.775 80.6501 113.052 81.409 112.689C81.8517 112.455 82.1046 111.559 82.189 110.92C82.262 110.21 82.2439 109.491 82.2259 108.775V108.774C82.218 108.458 82.21 108.142 82.21 107.828ZM57.5249 115.035H61.3193C61.6766 115.035 62.0352 115.036 62.3945 115.037H62.3948H62.3951H62.3954H62.3957H62.3958H62.3959C63.4775 115.041 64.5651 115.046 65.6408 115.014C66.6315 114.992 67.0742 114.416 67.0531 113.414C67.011 112.476 66.5894 111.943 65.6197 111.943H63.0901C61.5934 111.943 61.4247 111.687 61.9306 110.237C63.4059 106.08 64.8812 101.901 66.3565 97.7226L66.3575 97.7199C66.758 96.5684 66.5472 96.1207 65.5354 96.1207C62.8582 96.0994 60.2021 96.0994 57.5249 96.1207C56.6184 96.142 56.239 96.6537 56.239 97.5706C56.239 98.4662 56.4919 99.1273 57.5038 99.1486C57.9956 99.1628 58.4875 99.1581 58.9794 99.1534C59.2253 99.151 59.4713 99.1486 59.7172 99.1486C61.0663 99.1486 61.2771 99.4684 60.8134 100.748C60.0545 102.827 59.2903 104.906 58.5262 106.985C57.762 109.064 56.9978 111.143 56.239 113.222C55.6909 114.715 55.9228 115.035 57.5249 115.035ZM119.269 109.576C119.627 112.455 121.482 113.073 125.951 111.815C126.013 111.984 126.079 112.154 126.145 112.325C126.236 112.563 126.329 112.804 126.415 113.052C126.668 113.883 126.394 114.459 125.572 114.694C123.654 115.248 121.714 115.483 119.754 114.907C117.519 114.267 116.128 112.689 115.728 110.429C115.475 109 115.411 107.444 115.643 106.015C116.233 102.475 119.396 100.407 122.895 101.068C124.349 101.345 125.467 102.177 126.015 103.52C126.429 104.505 126.644 105.583 126.855 106.649C126.891 106.829 126.927 107.009 126.963 107.188C127.132 107.998 126.71 108.424 125.888 108.531C124.194 108.75 122.519 109.007 120.828 109.265L120.471 109.32C120.07 109.427 119.67 109.512 119.269 109.576ZM120.033 107.387C121.009 107.23 121.867 107.092 122.726 107.017C123.527 106.953 123.675 106.591 123.527 105.908C123.513 105.837 123.5 105.766 123.487 105.696C123.442 105.454 123.398 105.218 123.316 104.97C123.042 104.074 122.473 103.499 121.525 103.435C120.618 103.371 119.796 103.712 119.459 104.586C119.238 105.196 119.1 105.847 118.943 106.582V106.583C118.875 106.902 118.804 107.238 118.721 107.593C119.185 107.523 119.619 107.453 120.033 107.387ZM113.156 111.858C108.56 113.03 106.832 112.455 106.473 109.555L107.352 109.42C109.284 109.125 111.188 108.833 113.092 108.574C114.02 108.446 114.378 107.977 114.231 107.06C114.199 106.868 114.173 106.676 114.146 106.484C114.12 106.292 114.094 106.1 114.062 105.908C113.366 101.622 109.677 99.7669 105.862 101.772C103.374 103.094 102.7 105.397 102.637 108.019C102.552 111.41 104.028 113.947 106.621 114.843C108.708 115.568 110.774 115.312 112.839 114.715C113.577 114.502 113.809 113.926 113.64 113.222C113.564 112.88 113.43 112.549 113.299 112.221C113.25 112.099 113.201 111.978 113.156 111.858ZM110.289 106.932C108.961 107.145 107.611 107.337 105.925 107.572C105.997 107.256 106.057 106.956 106.114 106.669C106.259 105.949 106.385 105.315 106.642 104.736C107.106 103.584 108.349 103.136 109.424 103.584C110.247 103.925 111.048 105.716 110.731 106.569C110.668 106.719 110.457 106.911 110.289 106.932ZM68.7819 108.169V102.731C68.7819 101.622 69.1403 101.302 70.2365 101.281H70.3419C72.6396 101.26 72.724 101.345 72.724 103.627V112.988C72.724 114.779 72.4921 115.013 70.7213 115.013C69.0138 115.013 68.7819 114.779 68.7819 113.052V108.169ZM68.6343 97.9759C68.6554 98.9994 69.5619 99.7883 70.7213 99.7883C71.965 99.7883 72.8504 99.0207 72.8293 97.8906C72.8082 96.8457 71.9439 96.0781 70.7634 96.0781C69.583 96.0781 68.6133 96.931 68.6343 97.9759Z" fill="black"/>
<path d="M0 106.218C0 119.595 10.8415 130.437 24.2184 130.437C37.5953 130.437 48.4368 119.595 48.4368 106.218C48.4368 92.8415 37.5953 82 24.2184 82C10.8415 82 0 92.8415 0 106.218Z" fill="url(#paint0_radial)"/>
<path d="M7.9209 93.4162C7.9209 98.8296 15.177 97.348 24.1234 97.348C33.07 97.348 40.326 98.8296 40.326 93.4162C40.326 88.0216 33.07 83.6338 24.1234 83.6338C15.1768 83.6149 7.9209 88.0027 7.9209 93.4162Z" fill="url(#paint1_linear)"/>
<path d="M16.9436 120.161C16.9055 120.104 22.471 113.968 28.9862 107.567C35.4445 101.166 40.934 95.5047 40.9529 95.5047C40.744 91.0603 37.477 88.9137 34.5327 88.5527C32.6713 88.1728 18.8999 87.679 11.0742 88.8946C9.61281 89.0706 8.15157 89.2632 6.67519 89.502C6.61767 89.5114 6.03851 90.1139 5.52293 90.7364C4.99409 91.3747 4.52959 92.0332 4.57765 92.0264C9.03459 91.3972 13.5188 90.9795 18.0152 90.7746C22.6138 90.5657 27.2198 90.5849 31.8165 90.8321C31.9115 90.9082 26.6689 96.7206 20.2106 103.046C13.7904 109.353 7.97807 115.184 7.40818 115.868C7.37034 120.503 11.302 122.288 13.4105 122.706C23.1928 123.656 33.069 123.316 42.8516 121.739C42.8516 121.739 43.72 120.761 43.8248 120.582C43.9299 120.402 44.6819 119.277 44.6579 119.28C35.2744 120.618 25.8966 121.033 16.6206 120.521C16.8238 120.351 16.8295 120.294 16.9436 120.161Z" fill="white"/>
<path d="M178.907 113.013H187.201V116.189H175V97H178.907V113.013Z" fill="#023EB0"/>
<path d="M197.362 109.428V116.189H193.455V97H200.851C202.275 97 203.526 97.2636 204.602 97.7907C205.687 98.3179 206.52 99.0692 207.102 100.044C207.683 101.011 207.974 102.114 207.974 103.352C207.974 105.233 207.336 106.717 206.06 107.807C204.793 108.887 203.035 109.428 200.786 109.428H197.362ZM197.362 106.225H200.851C201.884 106.225 202.67 105.979 203.208 105.488C203.755 104.996 204.029 104.293 204.029 103.378C204.029 102.438 203.755 101.679 203.208 101.099C202.661 100.519 201.906 100.22 200.943 100.203H197.362V106.225Z" fill="#023EB0"/>
<path d="M229.436 110.654L231.988 97H235.882L231.676 116.189H227.743L224.657 103.352L221.571 116.189H217.638L213.433 97H217.326L219.891 110.627L223.016 97H226.324L229.436 110.654Z" fill="#023EB0"/>
<path d="M252.135 112.235H245.286L243.984 116.189H239.83L246.888 97H250.508L257.605 116.189H253.451L252.135 112.235ZM246.341 109.032H251.081L248.698 101.849L246.341 109.032Z" fill="#023EB0"/>
<path d="M278.794 116.189H274.887L267.283 103.563V116.189H263.376V97H267.283L274.901 109.651V97H278.794V116.189Z" fill="#023EB0"/>
<path d="M331.171 112.892H340.027V116.243H327V96H331.171V112.892ZM354.14 112.072H346.826L345.436 116.243H341.001L348.537 96H352.401L359.979 116.243H355.544L354.14 112.072ZM347.952 108.693H353.014L350.47 101.117L347.952 108.693ZM378.331 116.243H374.161L366.041 102.924V116.243H361.87V96H366.041L374.174 109.348V96H378.331V116.243ZM389.858 112.086C389.858 111.595 389.612 111.211 389.121 110.932C388.638 110.645 387.86 110.39 386.785 110.168C383.207 109.417 381.418 107.896 381.418 105.608C381.418 104.272 381.969 103.16 383.073 102.271C384.185 101.371 385.635 100.922 387.424 100.922C389.334 100.922 390.859 101.371 391.999 102.271C393.148 103.17 393.723 104.338 393.723 105.774H389.705C389.705 105.199 389.519 104.727 389.149 104.356C388.778 103.976 388.199 103.786 387.41 103.786C386.734 103.786 386.21 103.939 385.839 104.244C385.469 104.55 385.283 104.939 385.283 105.412C385.283 105.858 385.492 106.219 385.909 106.497C386.336 106.766 387.049 107.002 388.051 107.206C389.051 107.401 389.894 107.623 390.581 107.874C392.703 108.652 393.764 110.001 393.764 111.92C393.764 113.291 393.176 114.404 391.999 115.256C390.822 116.099 389.301 116.522 387.438 116.522C386.178 116.522 385.056 116.299 384.074 115.854C383.101 115.4 382.336 114.783 381.779 114.005C381.224 113.217 380.945 112.369 380.945 111.46H384.755C384.792 112.174 385.056 112.721 385.547 113.101C386.039 113.481 386.697 113.671 387.522 113.671C388.291 113.671 388.87 113.527 389.259 113.24C389.658 112.944 389.858 112.559 389.858 112.086Z" fill="black"/>
</g>
<defs>
<radialGradient id="paint0_radial" cx="0" cy="0" r="1" gradientUnits="userSpaceOnUse" gradientTransform="translate(24.2184 106.218) scale(24.2184)">
<stop stop-color="#DC001F"/>
<stop offset="0.64215" stop-color="#D5001D"/>
<stop offset="0.82382" stop-color="#AE0017"/>
<stop offset="1" stop-color="#590E0A"/>
</radialGradient>
<linearGradient id="paint1_linear" x1="24.0894" y1="97.5334" x2="24.0953" y2="83.3663" gradientUnits="userSpaceOnUse">
<stop stop-color="#D4001C"/>
<stop offset="0.53134" stop-color="#EC8A6C"/>
<stop offset="0.88757" stop-color="#FCEFE7"/>
<stop offset="1" stop-color="#FDF7F1"/>
</linearGradient>
<clipPath id="clip0">
<rect width="549" height="131" fill="white"/>
</clipPath>
</defs>
</svg>
