<svg width="498" height="116" viewBox="0 0 498 116" fill="none" xmlns="http://www.w3.org/2000/svg">
<path d="M11.3722 28.5011C8.07892 28.5011 5.41435 25.5653 5.41435 21.915C5.41435 18.3337 8.07892 15.354 11.3722 15.354C13.5608 15.354 15.7495 16.4412 16.6808 18.4277C16.7454 18.5656 16.8306 18.7504 16.8306 18.9823V24.8039C16.8306 24.9198 16.766 25.1736 16.7219 25.2425C15.7054 27.229 13.6255 28.5011 11.3722 28.5011ZM22.1833 33.5143V10.4097H16.8306V12.3492C15.3353 10.8013 13.2994 9.94908 10.7876 9.94908C4.6564 9.94908 0 15.2631 0 21.915C0 28.5951 4.6564 33.9781 10.7876 33.9781C13.2994 33.9781 15.3353 33.0757 16.8306 31.5279V33.5143H22.1833ZM45.4271 33.5143V21.0158C45.4271 14.8683 40.944 9.94908 35.2241 9.94908C29.4837 9.94908 25.0212 14.8683 25.0212 21.0158V33.5143H30.3709V21.0158C30.3709 17.989 32.3656 15.6767 35.2241 15.6767C38.062 15.6767 40.0773 17.989 40.0773 21.0158V33.5143H45.4271ZM59.032 28.5011C55.7387 28.5011 53.0741 25.5653 53.0741 21.915C53.0741 18.3337 55.7387 15.354 59.032 15.354C61.2206 15.354 63.3006 16.5101 64.3406 18.4277C64.4052 18.5656 64.4904 18.7504 64.4904 18.9823V24.8289C64.4904 24.9449 64.4257 25.1736 64.3846 25.2425C63.3652 27.229 61.2852 28.5011 59.032 28.5011ZM69.843 33.5143V3.4789H64.4904V12.3492C62.998 10.8013 60.9592 9.87702 58.4473 9.87702C52.3162 9.87702 47.6598 15.2631 47.6598 21.915C47.6598 28.5951 52.3162 33.9781 58.4473 33.9781C60.9592 33.9781 62.998 33.0757 64.4904 31.5279V33.5143H69.843ZM78.0307 33.5143V21.1756C78.0307 17.5253 79.8286 15.5858 83.2511 15.5858V9.94908C76.362 9.94908 72.6809 13.8531 72.6809 21.1756V33.5143H78.0307ZM94.9494 28.2254C91.7002 28.2254 89.0591 25.4055 89.0591 21.915C89.0591 18.4496 91.7002 15.6328 94.9494 15.6328C98.2427 15.6328 100.866 18.4496 100.866 21.915C100.866 25.4055 98.2427 28.2254 94.9494 28.2254ZM94.9494 33.9781C101.213 33.9781 106.28 28.5951 106.28 21.915C106.28 15.2631 101.213 9.94908 94.9494 9.94908C88.7125 9.94908 83.6418 15.2631 83.6418 21.915C83.6418 28.5951 88.7125 33.9781 94.9494 33.9781ZM111.392 8.65505C113.105 8.65505 114.492 7.15108 114.492 5.32752C114.492 3.4789 113.105 2 111.392 2C109.682 2 108.296 3.4789 108.296 5.32752C108.296 7.15108 109.682 8.65505 111.392 8.65505ZM114.057 10.4097H108.704V33.5143H114.057V10.4097ZM127.859 28.5011C124.565 28.5011 121.901 25.5653 121.901 21.915C121.901 18.3337 124.565 15.354 127.859 15.354C130.047 15.354 132.124 16.5101 133.164 18.4277C133.232 18.5656 133.317 18.7504 133.317 18.9823V24.8509C133.317 24.9668 133.252 25.1736 133.208 25.2425C132.192 27.229 130.112 28.5011 127.859 28.5011ZM138.667 33.5143V3.4789H133.317V12.3492C131.822 10.8013 129.786 9.94908 127.274 9.94908C121.143 9.94908 116.483 15.2631 116.483 21.915C116.483 28.5951 121.143 34 127.274 34C129.786 34 131.822 33.0757 133.317 31.5279V33.5143H138.667Z" fill="#77C159"/>
<path fill-rule="evenodd" clip-rule="evenodd" d="M227.89 34.4986H206.039V33.725C209.868 33.3384 210.215 33.0001 210.215 29.6644V7.13796C210.215 3.80219 209.829 3.41563 206 3.07734V2.30371H218.569V3.07734C214.393 3.41563 213.967 3.80219 213.967 7.13796V29.9067C213.967 33.0489 214.47 33.5802 217.602 33.5802C223.403 33.5802 226.69 29.5196 227.232 21.5919H227.89V34.4986V34.4986Z" fill="black"/>
<path fill-rule="evenodd" clip-rule="evenodd" d="M238.23 6.80088C236.954 6.80088 235.91 5.49594 235.91 3.90044C235.91 2.30546 236.955 1 238.23 1C239.506 1 240.55 2.30493 240.55 3.90044C240.551 5.49594 239.506 6.80088 238.23 6.80088V6.80088ZM241.363 25.9925C239.893 31.5034 237.418 34.8391 234.865 34.8391C232.7 34.8391 231.269 32.8571 231.269 29.7636C231.269 28.5064 231.501 27.1527 232.042 25.1219L233.976 17.6295C234.014 17.4848 234.169 17.0012 234.401 16.0828C234.634 15.2609 234.75 14.6808 234.75 14.2938C234.75 13.3271 234.286 12.6988 233.59 12.6988C231.811 12.6988 230.186 15.1639 228.253 20.8195L227.596 20.4817C228.678 16.9042 229.916 14.3903 231.308 12.8435C232.082 12.0211 232.932 11.6351 233.899 11.6351C236.103 11.6351 237.651 13.7137 237.651 16.6141C237.651 17.9196 237.187 20.4329 236.529 22.8015L235.563 26.2338L234.828 29.086L234.441 30.4397C234.286 31.0686 234.17 31.7446 234.17 32.1794C234.17 33.1466 234.635 33.7755 235.292 33.7755C237.109 33.7755 239.121 30.8263 240.706 25.7502L241.363 25.9925V25.9925Z" fill="#CC2229"/>
<path fill-rule="evenodd" clip-rule="evenodd" d="M253.641 11.2969C255.342 11.2969 257.044 12.1182 257.972 13.4237C258.939 14.8257 259.093 15.6958 259.093 19.9012V30.005C259.093 32.8572 259.673 33.3895 262.806 33.7273V34.5009H251.784V33.7273C254.955 33.3895 255.497 32.8572 255.497 30.0527V20.1435C255.497 13.859 255.149 12.9406 252.751 12.9406C250.547 12.9406 248.458 14.7774 247.491 17.5808C246.564 20.2395 246.331 22.1255 246.331 26.814V30.0522C246.331 32.8566 246.873 33.389 250.044 33.7268V34.5004H239.022V33.7268C242.193 33.389 242.735 32.8566 242.735 30.0522V16.4212C242.735 13.9073 242.618 13.5202 241.691 13.1342C241.149 12.8924 240.608 12.8441 238.906 12.6994V11.8775C241.149 11.8292 244.398 11.5874 246.331 11.2974V18.4027C247.569 13.9073 250.276 11.2969 253.641 11.2969V11.2969ZM272.268 11.877C274.821 11.8287 277.875 11.5869 279.732 11.2969V30.0045C279.732 32.8566 280.273 33.389 283.445 33.7268V34.5004H282.903L279.538 34.6939C278.621 34.7224 277.705 34.7867 276.793 34.8864C276.637 34.8864 276.406 34.9352 276.097 34.984V28.0712C275.284 30.391 274.898 31.1169 273.97 32.3731C272.655 34.1616 270.76 35.1287 268.826 35.1287C267.124 35.1287 265.578 34.3063 264.765 32.9054C263.837 31.4069 263.567 29.7632 263.567 26.4751V16.4212C263.567 13.9073 263.413 13.5202 262.484 13.1342C261.903 12.9406 261.13 12.7953 259.584 12.6994V11.8775C261.903 11.8292 265.462 11.5874 267.164 11.2974V27.5881C267.164 31.794 268.014 33.7273 269.909 33.7273C272.075 33.7273 274.357 31.1652 275.362 27.5393C275.903 25.7031 276.097 23.8658 276.097 21.0624V16.4217C276.097 13.9078 275.98 13.5207 275.052 13.1347C274.55 12.9412 273.776 12.7959 272.268 12.6999V11.877Z" fill="black"/>
<path fill-rule="evenodd" clip-rule="evenodd" d="M300.95 30.4399C302.497 33.1468 302.999 33.5344 305.204 33.7269V34.5005H294.646V33.7269C296.889 33.4856 297.509 33.1956 297.509 32.3255C297.509 32.0831 297.315 31.5996 297.083 31.1648L296.425 29.9563L293.022 24.1072L290.469 28.5066C289.503 30.2474 289.039 31.31 289.039 31.9872C289.039 33.0996 289.696 33.4856 292.017 33.7269V34.5005H283.161V33.7269C285.481 33.3891 286.409 32.7608 288.11 30.3434C289.039 28.9897 289.156 28.7961 290.741 26.0892L292.443 23.0923L288.382 15.9865C286.951 13.4726 286.371 13.0372 284.012 12.7477V11.9746H294.337V12.7477C292.443 12.9412 291.746 13.2795 291.746 14.0044C291.746 14.1979 291.863 14.5362 292.055 14.9228L292.637 15.9865L295.537 21.0137L297.818 17.1466C298.476 15.9865 298.824 15.0681 298.824 14.3915C298.824 13.4243 298.128 13.0378 296 12.7477V11.9746H304.316V12.7477C301.879 13.1343 300.835 13.9561 299.326 16.5183L298.282 18.258L296.117 21.9809L300.95 30.4399V30.4399Z" fill="black"/>
<path fill-rule="evenodd" clip-rule="evenodd" d="M84.8655 84.6317H84.8684V84.6283L84.8655 84.6317H74.3183L69.0038 89.9945L63.2733 84.6317L54.4959 84.6385L53.5735 85.9505L49.9598 91.0979L51.4074 92.5097L47.0779 98.6755L40.5757 92.7048L40.2448 92.4009L32.1405 92.3771C32.1405 92.3771 32.0846 91.5333 31.8978 90.4526C31.3954 87.5416 30.4872 85.8553 27.4527 84.931C24.2428 83.9535 17.6752 84.0125 17.3889 84.0011L17.3595 84H17.3301C17.0571 84.0045 11.2905 84.1327 8.17734 84.9401C2.53777 86.2204 0.971703 90.6034 0.320437 95.5932C-0.375384 100.923 0.0578454 104.391 1.66089 106.505C3.34167 108.722 4.42616 109.038 5.57796 109.205L5.61683 109.212C5.79789 109.23 10.1179 109.683 15.3432 109.6C20.5125 109.48 22.9631 109.209 23.0645 109.198L23.1072 109.191C23.1735 109.18 24.6211 108.941 26.2791 107.829L27.9988 108.766L28.0992 115.858L36.3875 115.851L39.0968 111.993L39.0978 108.886L46.6722 116L57.0583 115.991L59.7676 112.133L66.3315 102.826L71.8942 108.426H80.1645L83.0331 104.561L84.001 103.183L75.6151 94.6315L76.7934 95.8177L84.8655 84.6317V84.6317Z" fill="#004560"/>
<path fill-rule="evenodd" clip-rule="evenodd" d="M27.1795 86.3986C30.1287 87.282 30.2074 89.9481 30.3344 90.5821C31.1478 94.6555 30.6833 98.0995 30.6833 98.0995L32.1432 98.7709V93.9127L39.8323 93.907L52.6443 105.673V93.907H58.6678L58.6668 100.105L64.6562 94.7814L55.803 86.1423L62.8541 86.1378L69.0349 91.9225L74.7674 86.1287H81.6583L73.736 94.6578L81.8479 103.062L75.0546 103.067L69.0349 97.0086L62.9489 103.31L56.0068 103.315L54.8152 105.169L58.6668 105.167V110.5L49.8108 110.505L37.868 99.3867L37.8661 110.496L32.0512 110.5L32.0531 104.788L33.9823 102.283L33.9311 99.7189L31.0956 103.422L28.8205 102.358C27.1776 103.611 25.6646 103.846 25.6646 103.846C25.6646 103.846 23.2169 104.122 18.0334 104.243C14.832 104.288 11.6305 104.161 8.4388 103.859C7.63396 103.741 6.79689 103.625 5.2839 101.631C3.77092 99.6373 3.74058 95.9608 4.25534 91.9701C4.77104 88.0192 6.5106 86.9226 8.44259 86.4134C11.4695 85.6286 17.4437 85.5073 17.4437 85.5073C17.4437 85.5073 24.0379 85.4574 27.1795 86.3986V86.3986Z" fill="white"/>
<path fill-rule="evenodd" clip-rule="evenodd" d="M22.9595 99.2281L17.1057 96.181L19.4245 92.4625L24.8328 95.1581C24.8328 95.1581 24.7569 93.3822 24.6403 92.6938C24.5237 92.0055 24.2223 90.7773 22.6116 90.3487C21.421 89.9971 17.6859 89.8826 17.6859 89.8826C17.6859 89.8826 14.1442 89.9246 12.5346 90.3555C11.505 90.5914 10.5703 91.2173 10.2802 93.33C9.99016 95.4813 10.0224 97.4772 10.8272 98.5318C11.6634 99.5876 12.0397 99.6681 12.5336 99.743C12.5336 99.743 14.7993 99.9369 17.4973 99.9346C22.5993 99.9323 22.9595 99.2281 22.9595 99.2281V99.2281ZM87.2054 90.2897C85.9351 90.2897 84.8042 89.2385 84.8042 87.432C84.8042 85.6243 85.9351 84.5742 87.2054 84.5742C88.4691 84.5742 89.6 85.6243 89.6 87.432C89.6 89.2385 88.4691 90.2897 87.2054 90.2897ZM87.2054 85.2864C86.2224 85.2864 85.4289 86.1437 85.4289 87.432C85.4289 88.7202 86.2214 89.5843 87.2054 89.5775V89.5843C88.162 89.5843 88.9753 88.7191 88.9753 87.432C88.9753 86.1448 88.162 85.2864 87.2054 85.2864Z" fill="#004560"/>
<path fill-rule="evenodd" clip-rule="evenodd" d="M86.8058 88.8627H86.2607V85.9482H87.2135C87.8714 85.9482 88.26 86.1637 88.26 86.8294C88.26 87.3669 87.9842 87.5608 87.6467 87.588L88.2989 88.8627H87.6533L87.0637 87.638H86.8058V88.8627ZM87.2893 87.1435C87.5339 87.1435 87.678 87.0868 87.678 86.7636C87.678 86.4631 87.3964 86.4416 87.1888 86.4416H86.8058V87.1435H87.2893Z" fill="#004560"/>
<path d="M411.373 30.9183L404.421 20.9033C408.524 19.2914 410.855 15.8946 410.855 11.2785C410.855 4.52886 405.932 0.435547 397.987 0.435547H385.549V30.9183H391.163V22.0344H397.987C398.375 22.0344 398.764 22.0344 399.153 21.9914L405.328 30.9183H411.373ZM405.198 11.2785C405.198 15.1108 402.651 17.3753 397.727 17.3753H391.163V5.22575H397.727C402.651 5.22575 405.198 7.44626 405.198 11.2785Z" fill="#8BB907"/>
<path d="M421.984 30.9183H427.598V5.22575H437.617V0.435547H411.966V5.22575H421.984V30.9183Z" fill="#8BB907"/>
<path d="M454.667 31.3548C464.039 31.3548 470.948 24.7355 470.948 15.6774C470.948 6.61889 464.039 0 454.667 0C445.295 0 438.386 6.66244 438.386 15.6774C438.386 24.6914 445.295 31.3548 454.667 31.3548ZM454.667 26.3903C448.578 26.3903 444.043 21.9054 444.043 15.6774C444.043 9.44942 448.578 4.96417 454.667 4.96417C460.756 4.96417 465.291 9.44942 465.291 15.6774C465.291 21.9054 460.756 26.3903 454.667 26.3903Z" fill="#8BB907"/>
<path d="M485.405 31.3548C493.698 31.3548 497.628 27.1742 497.628 22.2968C497.628 11.1043 479.706 15.329 479.706 8.83974C479.706 6.53191 481.606 4.70323 486.269 4.70323C488.903 4.70323 491.885 5.4871 494.604 7.09781L496.376 2.69954C493.741 0.957832 489.941 0 486.313 0C478.021 0 474.135 4.1803 474.135 9.10219C474.135 20.4236 492.099 16.1129 492.099 22.6893C492.099 24.9538 490.113 26.6516 485.405 26.6516C481.693 26.6516 477.849 25.2581 475.43 23.299L473.487 27.6968C475.991 29.8742 480.699 31.3548 485.405 31.3548Z" fill="#8BB907"/>
<path d="M372.712 31.1388C372.712 31.995 373.178 32.4232 374.108 32.4232H374.628V30.0333H376.251V32.3582H383.23V34.3904H376.251V35.8211H374.628V34.3904H374.076C373.145 34.3904 372.415 34.1195 371.885 33.5775C371.344 33.0355 371.073 32.2714 371.073 31.2851C371.073 30.5047 371.23 29.8924 371.544 29.448L373.07 30.017C372.832 30.3639 372.712 30.7378 372.712 31.1388ZM375.829 25.1035C374.92 24.5182 374.465 23.4886 374.465 22.0144H376.397C376.364 22.1879 376.348 22.3451 376.348 22.4859C376.348 23.2772 376.581 23.895 377.046 24.3393C377.5 24.7838 378.16 25.0059 379.026 25.0059H383.23V27.0382H374.563V25.1035H375.829ZM378.945 11.8831C379.085 11.8831 379.286 11.894 379.545 11.9156V18.7277C380.184 18.6086 380.692 18.2997 381.071 17.801C381.439 17.2917 381.623 16.663 381.623 15.9151C381.623 14.9613 381.309 14.1755 380.681 13.5577L381.931 12.4684C382.396 12.8586 382.748 13.3518 382.986 13.9479C383.224 14.5441 383.343 15.216 383.343 15.9639C383.343 16.9178 383.154 17.7577 382.775 18.4839C382.396 19.2101 381.872 19.7737 381.201 20.1747C380.519 20.5649 379.751 20.76 378.896 20.76C378.052 20.76 377.295 20.5704 376.624 20.191C375.942 19.8008 375.412 19.2643 375.033 18.5814C374.655 17.8986 374.465 17.1291 374.465 16.2728C374.465 15.4274 374.655 14.6741 375.033 14.0129C375.401 13.341 375.926 12.8207 376.608 12.4521C377.279 12.0729 378.058 11.8831 378.945 11.8831ZM376.088 16.2728C376.088 16.9231 376.283 17.4759 376.673 17.9311C377.051 18.3755 377.56 18.6465 378.198 18.744V13.8178C377.571 13.9046 377.062 14.1701 376.673 14.6145C376.283 15.0589 376.088 15.6117 376.088 16.2728ZM378.945 1.44434C379.085 1.44434 379.286 1.45518 379.545 1.47686V8.28899C380.184 8.16976 380.692 7.86086 381.071 7.36228C381.439 6.85286 381.623 6.22422 381.623 5.47635C381.623 4.52253 381.309 3.73673 380.681 3.11892L381.931 2.02963C382.396 2.41983 382.748 2.91298 382.986 3.50912C383.224 4.10525 383.343 4.77725 383.343 5.52512C383.343 6.47892 383.154 7.31892 382.775 8.04512C382.396 8.77131 381.872 9.33492 381.201 9.73596C380.519 10.1262 379.751 10.3213 378.896 10.3213C378.052 10.3213 377.295 10.1316 376.624 9.75222C375.942 9.36202 375.412 8.82551 375.033 8.14267C374.655 7.45983 374.465 6.69028 374.465 5.83402C374.465 4.98861 374.655 4.23531 375.033 3.57415C375.401 2.90215 375.926 2.38189 376.608 2.01338C377.279 1.63402 378.058 1.44434 378.945 1.44434ZM376.088 5.83402C376.088 6.48435 376.283 7.03712 376.673 7.49235C377.051 7.93673 377.56 8.2077 378.198 8.30525V3.37906C377.571 3.46576 377.062 3.73131 376.673 4.1757C376.283 4.62008 376.088 5.17286 376.088 5.83402Z" fill="black"/>
<path d="M498 32.5166H385.549V34.8392H498V32.5166Z" fill="black"/>
</svg>
