<svg width="458" height="91" viewBox="0 0 458 91" fill="none" xmlns="http://www.w3.org/2000/svg">
<path d="M26.5002 29.7686C28.4413 29.7686 30.0149 28.2134 30.0149 26.295C30.0149 24.3765 28.4413 22.8213 26.5002 22.8213C24.559 22.8213 22.9854 24.3765 22.9854 26.295C22.9854 28.2134 24.559 29.7686 26.5002 29.7686Z" fill="url(#paint0_radial)"/>
<path d="M26.4999 19.085C22.4811 19.085 19.2051 22.3227 19.2051 26.2944C19.2051 29.0078 20.7304 31.3803 22.9852 32.6125V31.6949C21.1946 30.5545 20.0009 28.5621 20.0009 26.2944C20.0009 22.7553 22.9188 19.8715 26.4999 19.8715C30.081 19.8715 32.9989 22.7553 32.9989 26.2944C32.9989 28.5621 31.8052 30.5545 30.0147 31.6949V32.6125C32.2694 31.3803 33.7947 29.0078 33.7947 26.2944C33.7947 22.3227 30.5187 19.085 26.4999 19.085Z" fill="url(#paint1_radial)"/>
<path d="M26.4999 15.2969C20.3591 15.2969 15.3721 20.2255 15.3721 26.2945C15.3721 31.1445 18.5685 35.2735 22.9852 36.7285V35.9027C19.0062 34.4739 16.1679 30.7119 16.1679 26.2945C16.1679 20.6581 20.81 16.0834 26.4999 16.0834C32.2031 16.0834 36.832 20.6712 36.832 26.2945C36.832 30.7119 33.9804 34.4739 30.0147 35.9027V36.7285C34.4314 35.2735 37.6278 31.1445 37.6278 26.2945C37.6278 20.2255 32.6276 15.2969 26.4999 15.2969Z" fill="url(#paint2_radial)"/>
<path d="M26.5002 11.4824C18.2372 11.4824 11.5127 18.1281 11.5127 26.2944C11.5127 33.2679 16.4201 39.1272 22.9854 40.7001V39.8874C16.8578 38.3407 12.3085 32.8353 12.3085 26.2944C12.3085 18.5607 18.6749 12.2688 26.5002 12.2688C34.3255 12.2688 40.6919 18.5607 40.6919 26.2944C40.6919 32.8353 36.1426 38.3407 30.015 39.8874V40.7001C36.5935 39.1272 41.4877 33.2679 41.4877 26.2944C41.4877 18.1281 34.7632 11.4824 26.5002 11.4824Z" fill="url(#paint3_radial)"/>
<path d="M26.4997 7.7207C16.1279 7.7207 7.69238 16.0574 7.69238 26.2948C7.69238 35.3524 14.2843 42.9157 22.9717 44.5542V43.7547C14.722 42.1293 8.48817 34.9199 8.48817 26.2948C8.48817 16.49 16.5655 8.50718 26.4997 8.50718C36.4339 8.50718 44.498 16.49 44.498 26.2948C44.498 34.9199 38.2642 42.1293 30.0145 43.7415V44.5411C38.7019 42.9157 45.2938 35.3524 45.2938 26.2817C45.2938 16.0574 36.8583 7.7207 26.4997 7.7207Z" fill="url(#paint4_radial)"/>
<path d="M26.4998 3.93262C14.0191 3.93262 3.85938 13.9602 3.85938 26.2948C3.85938 37.4498 12.1622 46.7171 22.985 48.395V47.5954C12.5999 45.9307 4.65516 37.0172 4.65516 26.2948C4.65516 14.3928 14.4568 4.706 26.4998 4.706C38.5428 4.706 48.3444 14.3928 48.3444 26.2948C48.3444 37.0172 40.3997 45.9307 30.0146 47.5954V48.395C40.8374 46.7171 49.1402 37.4498 49.1402 26.2948C49.1269 13.9602 38.9673 3.93262 26.4998 3.93262Z" fill="url(#paint5_radial)"/>
<path d="M26.5 0.118164C11.8839 0.118164 0 11.8629 0 26.2948C0 39.5602 10.027 50.5447 22.9852 52.2487V51.4491C10.4647 49.7582 0.795796 39.1276 0.795796 26.2948C0.795796 12.2955 12.3216 0.904645 26.5 0.904645C40.6652 0.904645 52.2042 12.2955 52.2042 26.308C52.2042 39.1407 42.5353 49.7713 30.0148 51.4622V52.2618C42.973 50.5578 53 39.5733 53 26.308C52.9867 11.8629 41.1029 0.118164 26.5 0.118164Z" fill="url(#paint6_radial)"/>
<path d="M26.5002 29.6504C28.4413 29.6504 30.0149 28.0952 30.0149 26.1768C30.0149 24.2583 28.4413 22.7031 26.5002 22.7031C24.559 22.7031 22.9854 24.2583 22.9854 26.1768C22.9854 28.0952 24.559 29.6504 26.5002 29.6504Z" fill="url(#paint7_radial)"/>
<path d="M26.5 52.3665C11.8839 52.3665 0 40.6217 0 26.1767C0 11.7317 11.8839 0 26.5 0C41.1029 0 53 11.7448 53 26.1898C53 40.6349 41.1029 52.3665 26.5 52.3665ZM26.5 0.786481C12.3216 0.786481 0.795796 12.1773 0.795796 26.1767C0.795796 40.1761 12.3216 51.5801 26.5 51.5801C40.6784 51.5801 52.2042 40.1892 52.2042 26.1767C52.2042 12.1642 40.6652 0.786481 26.5 0.786481Z" fill="url(#paint8_radial)"/>
<path d="M26.4999 18.9678C22.4811 18.9678 19.2051 22.2055 19.2051 26.1772C19.2051 28.8906 20.7304 31.2631 22.9852 32.4953V31.5777C21.1946 30.4373 20.0009 28.4449 20.0009 26.1772C20.0009 22.638 22.9188 19.7543 26.4999 19.7543C30.081 19.7543 32.9989 22.638 32.9989 26.1772C32.9989 28.4449 31.8052 30.4373 30.0147 31.5777V32.4953C32.2694 31.2631 33.7947 28.8906 33.7947 26.1772C33.7947 22.2055 30.5187 18.9678 26.4999 18.9678Z" fill="url(#paint9_radial)"/>
<path d="M26.4999 15.1797C20.3591 15.1797 15.3721 20.1083 15.3721 26.1773C15.3721 31.0273 18.5685 35.1563 22.9852 36.6113V35.7855C19.0062 34.3567 16.1679 30.5947 16.1679 26.1773C16.1679 20.5409 20.81 15.9662 26.4999 15.9662C32.1899 15.9662 36.832 20.554 36.832 26.1773C36.832 30.5947 33.9804 34.3567 30.0147 35.7855V36.6113C34.4314 35.1563 37.6278 31.0273 37.6278 26.1773C37.6278 20.1214 32.6276 15.1797 26.4999 15.1797Z" fill="url(#paint10_radial)"/>
<path d="M26.5002 11.3643C18.2372 11.3643 11.5127 18.0101 11.5127 26.1764C11.5127 33.1499 16.4201 39.0092 22.9854 40.5821V39.7694C16.8578 38.2227 12.3085 32.7173 12.3085 26.1764C12.3085 18.4427 18.6749 12.1508 26.5002 12.1508C34.3255 12.1508 40.6919 18.4427 40.6919 26.1764C40.6919 32.7173 36.1426 38.2227 30.015 39.7694V40.5821C36.5935 39.0092 41.4877 33.1499 41.4877 26.1764C41.4877 18.0101 34.7632 11.3643 26.5002 11.3643Z" fill="url(#paint11_radial)"/>
<path d="M26.4997 7.60254C16.1279 7.60254 7.69238 15.9393 7.69238 26.1766C7.69238 35.2343 14.2843 42.7976 22.9717 44.4361V43.6365C14.722 42.0111 8.48817 34.8017 8.48817 26.1766C8.48817 16.3718 16.5655 8.38902 26.4997 8.38902C36.4339 8.38902 44.498 16.3718 44.498 26.1766C44.498 34.8017 38.2642 42.0111 30.0145 43.6234V44.423C38.7019 42.7976 45.2938 35.2343 45.2938 26.1635C45.2938 15.9393 36.8583 7.60254 26.4997 7.60254Z" fill="url(#paint12_radial)"/>
<path d="M26.4998 3.81445C14.0191 3.81445 3.85938 13.8421 3.85938 26.1767C3.85938 37.3317 12.1622 46.599 22.985 48.2769V47.4773C12.5999 45.8126 4.65516 36.8991 4.65516 26.1767C4.65516 14.2747 14.4568 4.60093 26.4998 4.60093C38.5429 4.60093 48.3311 14.2747 48.3311 26.1767C48.3311 36.8991 40.3864 45.8126 30.0013 47.4773V48.2769C40.8241 46.599 49.1269 37.3317 49.1269 26.1767C49.1269 13.8421 38.9673 3.81445 26.4998 3.81445Z" fill="url(#paint13_radial)"/>
<path d="M130.679 4.00098C126.06 4.00098 118.884 4.01502 117.534 4.0992C115.516 4.19742 114.166 5.6426 114.081 7.49469C113.995 9.33274 113.953 43.5682 114.081 45.4343C114.194 47.2724 115.63 48.6755 117.534 48.7877C119.637 48.914 126.43 48.942 128.391 48.942C124.881 46.5568 124.412 42.0809 124.085 33.7606C123.886 28.8357 124.071 11.5636 124.085 10.82L124.184 6.11966L142.53 24.2336V29.9021L127.922 15.4923C127.879 18.3406 127.851 22.0588 127.851 25.4543C127.851 28.7656 127.908 31.7682 128.007 33.3396C128.561 42.4036 129.414 46.669 134.203 48.3247C135.667 48.8298 137.031 48.942 139.304 48.9701C141.18 48.9982 154.311 48.9841 156.201 48.8719C158.204 48.7737 159.554 47.3285 159.654 45.4624C159.739 43.6243 159.768 9.47305 159.654 7.62097C159.512 5.79694 158.091 4.40788 156.201 4.29563C154.098 4.16936 147.305 4.07114 145.344 4.07114C148.825 6.4564 149.309 10.9182 149.635 19.2245C149.834 24.1494 149.65 41.4215 149.635 42.1511L149.536 46.8795L131.204 28.7796V23.1111L145.799 37.5068C145.841 34.6586 145.87 30.9404 145.87 27.5449C145.87 24.2336 145.813 21.245 145.713 19.6595C145.173 10.5955 144.307 6.35818 139.518 4.6885C138.054 4.18339 136.69 4.04308 134.416 4.01502H130.679V4.00098Z" fill="url(#paint14_linear)"/>
<path d="M3.77731 60H5.07731V67H3.77731V60ZM11.7307 63.36C12.1173 63.4867 12.424 63.7 12.6507 64C12.8773 64.2933 12.9907 64.66 12.9907 65.1C12.9907 65.7067 12.7573 66.1767 12.2907 66.51C11.824 66.8367 11.144 67 10.2507 67H6.77066V60H10.0507C10.8773 60 11.514 60.1633 11.9607 60.49C12.4073 60.81 12.6307 61.2533 12.6307 61.82C12.6307 62.1667 12.5507 62.4733 12.3907 62.74C12.2307 63.0067 12.0107 63.2133 11.7307 63.36ZM8.07066 61.02V62.95H9.91066C10.364 62.95 10.7107 62.87 10.9507 62.71C11.1973 62.5433 11.3207 62.3033 11.3207 61.99C11.3207 61.67 11.1973 61.43 10.9507 61.27C10.7107 61.1033 10.364 61.02 9.91066 61.02H8.07066ZM10.1707 65.98C11.1773 65.98 11.6807 65.6433 11.6807 64.97C11.6807 64.2967 11.1773 63.96 10.1707 63.96H8.07066V65.98H10.1707ZM19.4281 65.91V67H14.1781V60H19.2881V61.09H15.4781V62.91H18.8581V63.98H15.4781V65.91H19.4281ZM25.2173 65.38H21.7173L21.0273 67H19.6873L22.8373 60H24.1173L27.2773 67H25.9173L25.2173 65.38ZM24.7873 64.36L23.4673 61.3L22.1573 64.36H24.7873ZM31.1099 67.1C30.4032 67.1 29.7632 66.9467 29.1899 66.64C28.6232 66.3267 28.1766 65.8967 27.8499 65.35C27.5299 64.8033 27.3699 64.1867 27.3699 63.5C27.3699 62.8133 27.5332 62.1967 27.8599 61.65C28.1866 61.1033 28.6332 60.6767 29.1999 60.37C29.7732 60.0567 30.4132 59.9 31.1199 59.9C31.6932 59.9 32.2166 60 32.6899 60.2C33.1632 60.4 33.5632 60.69 33.8899 61.07L33.0499 61.86C32.5432 61.3133 31.9199 61.04 31.1799 61.04C30.6999 61.04 30.2699 61.1467 29.8899 61.36C29.5099 61.5667 29.2132 61.8567 28.9999 62.23C28.7866 62.6033 28.6799 63.0267 28.6799 63.5C28.6799 63.9733 28.7866 64.3967 28.9999 64.77C29.2132 65.1433 29.5099 65.4367 29.8899 65.65C30.2699 65.8567 30.6999 65.96 31.1799 65.96C31.9199 65.96 32.5432 65.6833 33.0499 65.13L33.8899 65.93C33.5632 66.31 33.1599 66.6 32.6799 66.8C32.2066 67 31.6832 67.1 31.1099 67.1ZM38.059 67.1C37.3457 67.1 36.7024 66.9467 36.129 66.64C35.5557 66.3267 35.1057 65.8967 34.779 65.35C34.4524 64.7967 34.289 64.18 34.289 63.5C34.289 62.82 34.4524 62.2067 34.779 61.66C35.1057 61.1067 35.5557 60.6767 36.129 60.37C36.7024 60.0567 37.3457 59.9 38.059 59.9C38.7724 59.9 39.4157 60.0567 39.989 60.37C40.5624 60.6767 41.0124 61.1033 41.339 61.65C41.6657 62.1967 41.829 62.8133 41.829 63.5C41.829 64.1867 41.6657 64.8033 41.339 65.35C41.0124 65.8967 40.5624 66.3267 39.989 66.64C39.4157 66.9467 38.7724 67.1 38.059 67.1ZM38.059 65.96C38.5257 65.96 38.9457 65.8567 39.319 65.65C39.6924 65.4367 39.9857 65.1433 40.199 64.77C40.4124 64.39 40.519 63.9667 40.519 63.5C40.519 63.0333 40.4124 62.6133 40.199 62.24C39.9857 61.86 39.6924 61.5667 39.319 61.36C38.9457 61.1467 38.5257 61.04 38.059 61.04C37.5924 61.04 37.1724 61.1467 36.799 61.36C36.4257 61.5667 36.1324 61.86 35.919 62.24C35.7057 62.6133 35.599 63.0333 35.599 63.5C35.599 63.9667 35.7057 64.39 35.919 64.77C36.1324 65.1433 36.4257 65.4367 36.799 65.65C37.1724 65.8567 37.5924 65.96 38.059 65.96ZM49.227 60V67H48.157L44.297 62.26V67H43.007V60H44.077L47.937 64.74V60H49.227Z" fill="#6D6B6C"/>
<path d="M259.146 2.10445C259.168 1.9541 259.146 1.86818 259.168 1.80374C259.996 -0.365676 259.996 -0.365676 262.035 0.686813C272.293 5.88482 278.537 17.0326 277.348 28.5241C276.265 38.9631 270.933 46.5882 261.716 51.4211C260.017 52.3018 260.017 52.2803 259.316 50.519C259.231 50.3257 259.189 50.1109 259.104 49.8746C269.043 45.0847 274.799 37.2877 274.799 26.0325C274.799 14.7558 269.128 6.91583 259.146 2.10445Z" fill="black"/>
<path d="M255.644 42.0989C262.376 38.8126 266.432 33.7005 266.411 25.9034C266.369 18.1924 262.418 13.0373 255.729 9.87979C255.707 9.79387 255.686 9.75091 255.686 9.72944C256.281 7.49558 256.536 7.32374 258.511 8.39771C264.648 11.7485 268.195 16.9036 268.981 23.9488C269.937 32.4761 265.179 40.2302 258.171 43.6669C256.599 44.4402 256.599 44.4616 255.898 42.8077C255.792 42.6144 255.729 42.3781 255.644 42.0989Z" fill="black"/>
<path d="M260.583 25.6948C260.494 28.0592 259.91 30.044 258.849 31.6928C257.784 33.3472 256.219 34.6931 254.125 35.7451C253.764 35.9256 253.584 35.9764 253.479 35.9641L253.477 35.9639C253.452 35.9614 253.33 35.949 253.17 35.5682L253.169 35.5672C253.141 35.5015 253.115 35.4397 253.09 35.3816C252.972 35.1047 252.889 34.9084 252.834 34.7521C252.805 34.6677 252.791 34.614 252.785 34.5825C252.794 34.5759 252.806 34.568 252.821 34.5588C252.936 34.4869 253.113 34.406 253.416 34.2674L253.427 34.2627L253.431 34.2607C255.173 33.444 256.519 32.3297 257.431 30.9348C258.343 29.5392 258.802 27.8906 258.814 26.0356C258.826 24.1359 258.367 22.4572 257.438 21.048C256.51 19.6397 255.133 18.5305 253.356 17.736L253.352 17.7344C252.837 17.5088 252.817 17.3634 252.814 17.3407L252.813 17.3396C252.808 17.3021 252.811 17.231 252.853 17.0947C252.897 16.9565 252.965 16.7993 253.057 16.5874L253.059 16.5826C253.242 16.1497 253.384 16.0697 253.447 16.0503C253.534 16.0239 253.723 16.0289 254.151 16.2358C258.238 18.2593 260.321 21.4656 260.583 25.6948Z" fill="black"/>
<path d="M253.219 33.808C252.676 34.0561 252.394 34.1804 252.308 34.3865C252.208 34.6263 252.375 34.9769 252.709 35.7626C253.108 36.7077 253.662 36.5359 254.348 36.1922M252.752 34.6092L252.753 34.608M260.583 25.6948C260.494 28.0592 259.91 30.044 258.849 31.6928C257.784 33.3472 256.219 34.6931 254.125 35.7451C253.764 35.9256 253.584 35.9764 253.479 35.9641L253.477 35.9639C253.452 35.9614 253.33 35.949 253.17 35.5682L253.169 35.5672C253.141 35.5015 253.115 35.4397 253.09 35.3816C252.972 35.1047 252.889 34.9084 252.834 34.7521C252.805 34.6677 252.791 34.614 252.785 34.5825C252.794 34.5759 252.806 34.568 252.821 34.5588C252.936 34.4869 253.113 34.406 253.416 34.2674L253.427 34.2627L253.431 34.2607C255.173 33.444 256.519 32.3297 257.431 30.9348C258.343 29.5392 258.802 27.8906 258.814 26.0356C258.826 24.1359 258.367 22.4572 257.438 21.048C256.51 19.6397 255.133 18.5305 253.356 17.736L253.352 17.7344C252.837 17.5088 252.817 17.3634 252.814 17.3407L252.813 17.3396C252.808 17.3021 252.811 17.231 252.853 17.0947C252.897 16.9565 252.965 16.7993 253.057 16.5874L253.059 16.5826C253.242 16.1497 253.384 16.0697 253.447 16.0503C253.534 16.0239 253.723 16.0289 254.151 16.2358C258.238 18.2593 260.321 21.4656 260.583 25.6948Z" stroke="black"/>
<path d="M238.345 2.10445C238.324 1.9541 238.345 1.86818 238.324 1.80374C237.496 -0.365676 237.496 -0.365676 235.457 0.686813C225.199 5.88482 218.955 17.0326 220.145 28.5241C221.228 38.9631 226.558 46.5882 235.776 51.4211C237.475 52.3018 237.475 52.2803 238.175 50.519C238.26 50.3257 238.303 50.1109 238.388 49.8746C228.449 45.0847 222.693 37.2877 222.693 26.0325C222.693 14.7558 228.364 6.91583 238.345 2.10445Z" fill="black"/>
<path d="M241.849 42.0989C235.116 38.8126 231.06 33.7005 231.081 25.9034C231.123 18.1924 235.074 13.0373 241.764 9.87979C241.785 9.79387 241.806 9.75091 241.806 9.72944C241.211 7.49558 240.958 7.32374 238.982 8.39771C232.845 11.7485 229.298 16.9036 228.512 23.9488C227.557 32.4761 232.313 40.2302 239.321 43.6669C240.893 44.4402 240.893 44.4616 241.594 42.8077C241.7 42.6144 241.764 42.3781 241.849 42.0989Z" fill="black"/>
<path d="M236.91 25.6948C236.999 28.0592 237.582 30.044 238.643 31.6928C239.708 33.3472 241.273 34.6931 243.367 35.7451C243.728 35.9256 243.908 35.9764 244.013 35.9641L244.015 35.9639C244.04 35.9614 244.162 35.949 244.322 35.5682L244.323 35.5672C244.351 35.5015 244.377 35.4397 244.402 35.3816C244.52 35.1047 244.604 34.9084 244.658 34.7521C244.687 34.6677 244.701 34.614 244.707 34.5825C244.698 34.5759 244.686 34.568 244.671 34.5588C244.556 34.4869 244.379 34.406 244.076 34.2674L244.066 34.2627L244.061 34.2607C242.319 33.444 240.973 32.3297 240.061 30.9348C239.149 29.5392 238.69 27.8906 238.678 26.0356C238.667 24.1359 239.125 22.4572 240.054 21.048C240.982 19.6397 242.359 18.5305 244.136 17.736L244.14 17.7344C244.655 17.5088 244.675 17.3634 244.678 17.3407L244.679 17.3396C244.684 17.3021 244.681 17.231 244.639 17.0947C244.595 16.9565 244.527 16.7993 244.435 16.5874L244.433 16.5826C244.25 16.1497 244.109 16.0697 244.045 16.0503C243.958 16.0239 243.769 16.0289 243.341 16.2358C239.254 18.2593 237.171 21.4656 236.91 25.6948Z" fill="black"/>
<path d="M244.273 33.808C244.816 34.0561 245.098 34.1804 245.184 34.3865C245.284 34.6263 245.117 34.9769 244.783 35.7626C244.384 36.7077 243.83 36.5359 243.144 36.1922M244.74 34.6092L244.739 34.608M236.91 25.6948C236.999 28.0592 237.582 30.044 238.643 31.6928C239.708 33.3472 241.273 34.6931 243.367 35.7451C243.728 35.9256 243.908 35.9764 244.013 35.9641L244.015 35.9639C244.04 35.9614 244.162 35.949 244.322 35.5682L244.323 35.5672C244.351 35.5015 244.377 35.4397 244.402 35.3816C244.52 35.1047 244.604 34.9084 244.658 34.7521C244.687 34.6677 244.701 34.614 244.707 34.5825C244.698 34.5759 244.686 34.568 244.671 34.5588C244.556 34.4869 244.379 34.406 244.076 34.2674L244.066 34.2627L244.061 34.2607C242.319 33.444 240.973 32.3297 240.061 30.9348C239.149 29.5392 238.69 27.8906 238.678 26.0356C238.667 24.1359 239.125 22.4572 240.054 21.048C240.982 19.6397 242.359 18.5305 244.136 17.736L244.14 17.7344C244.655 17.5088 244.675 17.3634 244.678 17.3407L244.679 17.3396C244.684 17.3021 244.681 17.231 244.639 17.0947C244.595 16.9565 244.527 16.7993 244.435 16.5874L244.433 16.5826C244.25 16.1497 244.109 16.0697 244.045 16.0503C243.958 16.0239 243.769 16.0289 243.341 16.2358C239.254 18.2593 237.171 21.4656 236.91 25.6948Z" stroke="black"/>
<path d="M249.227 29.4333C251.277 29.4333 252.939 27.7712 252.939 25.721C252.939 23.6708 251.277 22.0088 249.227 22.0088C247.177 22.0088 245.515 23.6708 245.515 25.721C245.515 27.7712 247.177 29.4333 249.227 29.4333Z" fill="black"/>
<path d="M241.934 67L240.504 64.95C240.444 64.9567 240.354 64.96 240.234 64.96H238.654V67H237.354V60H240.234C240.841 60 241.368 60.1 241.814 60.3C242.268 60.5 242.614 60.7867 242.854 61.16C243.094 61.5333 243.214 61.9767 243.214 62.49C243.214 63.0167 243.084 63.47 242.824 63.85C242.571 64.23 242.204 64.5133 241.724 64.7L243.334 67H241.934ZM241.904 62.49C241.904 62.0433 241.758 61.7 241.464 61.46C241.171 61.22 240.741 61.1 240.174 61.1H238.654V63.89H240.174C240.741 63.89 241.171 63.77 241.464 63.53C241.758 63.2833 241.904 62.9367 241.904 62.49ZM245.769 61.09V63.22H249.149V64.32H245.769V67H244.469V60H249.579V61.09H245.769ZM250.636 60H251.936V67H250.636V60ZM253.629 60H256.689C257.436 60 258.099 60.1467 258.679 60.44C259.259 60.7267 259.709 61.1367 260.029 61.67C260.349 62.1967 260.509 62.8067 260.509 63.5C260.509 64.1933 260.349 64.8067 260.029 65.34C259.709 65.8667 259.259 66.2767 258.679 66.57C258.099 66.8567 257.436 67 256.689 67H253.629V60ZM256.629 65.9C257.143 65.9 257.593 65.8033 257.979 65.61C258.373 65.41 258.673 65.13 258.879 64.77C259.093 64.4033 259.199 63.98 259.199 63.5C259.199 63.02 259.093 62.6 258.879 62.24C258.673 61.8733 258.373 61.5933 257.979 61.4C257.593 61.2 257.143 61.1 256.629 61.1H254.929V65.9H256.629Z" fill="#6D6B6C"/>
<path d="M350.007 30.4388C350.007 29.5355 349.688 28.8447 349.051 28.3665C348.413 27.8777 347.266 27.3676 345.608 26.8362C343.95 26.2943 342.637 25.7629 341.67 25.2422C339.035 23.8182 337.717 21.9 337.717 19.4877C337.717 18.2337 338.068 17.1179 338.769 16.1402C339.481 15.1519 340.496 14.3815 341.814 13.8289C343.142 13.2763 344.63 13 346.277 13C347.935 13 349.412 13.3028 350.709 13.9086C352.005 14.5037 353.009 15.3485 353.721 16.4431C354.444 17.5377 354.805 18.781 354.805 20.1731H350.023C350.023 19.1104 349.688 18.2869 349.019 17.7024C348.349 17.1073 347.409 16.8097 346.198 16.8097C345.029 16.8097 344.12 17.0594 343.472 17.5589C342.823 18.0478 342.499 18.696 342.499 19.5036C342.499 20.2582 342.877 20.8905 343.631 21.4005C344.396 21.9106 345.517 22.3889 346.995 22.8352C349.715 23.6535 351.697 24.6683 352.94 25.8798C354.184 27.0913 354.805 28.6003 354.805 30.4069C354.805 32.4154 354.046 33.9935 352.526 35.1412C351.006 36.2783 348.961 36.8468 346.389 36.8468C344.603 36.8468 342.978 36.5227 341.511 35.8744C340.045 35.2156 338.923 34.3176 338.148 33.1805C337.383 32.0434 337 30.7257 337 29.2273H341.798C341.798 31.7884 343.328 33.0689 346.389 33.0689C347.526 33.0689 348.413 32.8405 349.051 32.3835C349.688 31.9159 350.007 31.2677 350.007 30.4388ZM365.693 36.8468C363.163 36.8468 361.102 36.071 359.508 34.5195C357.924 32.968 357.133 30.901 357.133 28.3187V27.8724C357.133 26.1402 357.467 24.5939 358.137 23.2337C358.806 21.8628 359.752 20.8108 360.974 20.0775C362.207 19.3336 363.61 18.9617 365.183 18.9617C367.542 18.9617 369.396 19.7056 370.746 21.1933C372.106 22.6811 372.786 24.7905 372.786 27.5217V29.4026H361.803C361.952 30.5291 362.398 31.4324 363.142 32.1125C363.897 32.7926 364.848 33.1327 365.995 33.1327C367.77 33.1327 369.157 32.4898 370.156 31.2039L372.419 33.7384C371.729 34.7161 370.794 35.4812 369.614 36.0338C368.434 36.5758 367.127 36.8468 365.693 36.8468ZM365.167 22.6917C364.253 22.6917 363.509 22.9999 362.935 23.6163C362.372 24.2326 362.01 25.1147 361.851 26.2624H368.259V25.8957C368.238 24.8756 367.961 24.0892 367.43 23.5366C366.899 22.9733 366.144 22.6917 365.167 22.6917ZM379.656 19.2805L379.8 21.273C381.033 19.7321 382.685 18.9617 384.757 18.9617C386.585 18.9617 387.945 19.4983 388.838 20.5716C389.731 21.645 390.188 23.2496 390.209 25.3857V36.528H385.602V25.4972C385.602 24.5196 385.39 23.8129 384.965 23.3772C384.54 22.9308 383.833 22.7077 382.845 22.7077C381.548 22.7077 380.576 23.2603 379.927 24.3655V36.528H375.321V19.2805H379.656ZM403.057 31.7618C403.057 31.1986 402.775 30.7576 402.212 30.4388C401.66 30.1093 400.767 29.8171 399.534 29.562C395.432 28.7013 393.381 26.9584 393.381 24.3336C393.381 22.8033 394.013 21.5281 395.278 20.5079C396.553 19.4771 398.216 18.9617 400.267 18.9617C402.457 18.9617 404.205 19.4771 405.512 20.5079C406.83 21.5387 407.488 22.8777 407.488 24.5249H402.882C402.882 23.866 402.669 23.324 402.244 22.8989C401.819 22.4632 401.155 22.2454 400.251 22.2454C399.476 22.2454 398.875 22.4207 398.45 22.7714C398.025 23.1221 397.813 23.5684 397.813 24.1104C397.813 24.6205 398.052 25.035 398.53 25.3538C399.019 25.662 399.837 25.9329 400.985 26.1667C402.132 26.3899 403.099 26.6449 403.886 26.9319C406.319 27.8245 407.536 29.3708 407.536 31.5705C407.536 33.1433 406.861 34.4186 405.512 35.3962C404.162 36.3633 402.419 36.8468 400.283 36.8468C398.838 36.8468 397.552 36.5918 396.426 36.0817C395.31 35.5609 394.433 34.8543 393.796 33.9616C393.158 33.0583 392.839 32.0859 392.839 31.0445H397.207C397.249 31.8628 397.552 32.4898 398.115 32.9255C398.679 33.3612 399.433 33.579 400.379 33.579C401.261 33.579 401.925 33.4143 402.372 33.0849C402.828 32.7448 403.057 32.3038 403.057 31.7618ZM409.8 27.7448C409.8 26.0339 410.129 24.5089 410.788 23.1699C411.447 21.8309 412.393 20.7948 413.625 20.0616C414.869 19.3283 416.309 18.9617 417.945 18.9617C420.273 18.9617 422.17 19.6737 423.636 21.0977C425.113 22.5217 425.937 24.4558 426.107 26.9L426.139 28.0796C426.139 30.7257 425.4 32.8511 423.923 34.4557C422.446 36.0498 420.464 36.8468 417.977 36.8468C415.49 36.8468 413.503 36.0498 412.015 34.4557C410.538 32.8617 409.8 30.6938 409.8 27.9521V27.7448ZM414.407 28.0796C414.407 29.7161 414.715 30.9701 415.331 31.8415C415.947 32.7023 416.829 33.1327 417.977 33.1327C419.093 33.1327 419.964 32.7076 420.591 31.8575C421.218 30.9967 421.532 29.6258 421.532 27.7448C421.532 26.1402 421.218 24.8968 420.591 24.0148C419.964 23.1327 419.082 22.6917 417.945 22.6917C416.819 22.6917 415.947 23.1327 415.331 24.0148C414.715 24.8862 414.407 26.2411 414.407 28.0796ZM438.668 23.6003C438.041 23.5153 437.488 23.4728 437.01 23.4728C435.267 23.4728 434.125 24.0626 433.583 25.2422V36.528H428.976V19.2805H433.328L433.455 21.3368C434.38 19.7534 435.66 18.9617 437.297 18.9617C437.807 18.9617 438.285 19.0307 438.732 19.1689L438.668 23.6003ZM450.241 31.7618C450.241 31.1986 449.959 30.7576 449.396 30.4388C448.843 30.1093 447.95 29.8171 446.718 29.562C442.616 28.7013 440.565 26.9584 440.565 24.3336C440.565 22.8033 441.197 21.5281 442.462 20.5079C443.737 19.4771 445.4 18.9617 447.451 18.9617C449.64 18.9617 451.388 19.4771 452.695 20.5079C454.013 21.5387 454.672 22.8777 454.672 24.5249H450.065C450.065 23.866 449.853 23.324 449.428 22.8989C449.003 22.4632 448.338 22.2454 447.435 22.2454C446.659 22.2454 446.059 22.4207 445.634 22.7714C445.209 23.1221 444.996 23.5684 444.996 24.1104C444.996 24.6205 445.235 25.035 445.713 25.3538C446.202 25.662 447.021 25.9329 448.168 26.1667C449.316 26.3899 450.283 26.6449 451.069 26.9319C453.503 27.8245 454.72 29.3708 454.72 31.5705C454.72 33.1433 454.045 34.4186 452.695 35.3962C451.346 36.3633 449.603 36.8468 447.467 36.8468C446.022 36.8468 444.736 36.5918 443.609 36.0817C442.494 35.5609 441.617 34.8543 440.979 33.9616C440.342 33.0583 440.023 32.0859 440.023 31.0445H444.39C444.433 31.8628 444.736 32.4898 445.299 32.9255C445.862 33.3612 446.617 33.579 447.563 33.579C448.445 33.579 449.109 33.4143 449.555 33.0849C450.012 32.7448 450.241 32.3038 450.241 31.7618Z" fill="black"/>
<defs>
<radialGradient id="paint0_radial" cx="0" cy="0" r="1" gradientUnits="userSpaceOnUse" gradientTransform="translate(26.5378 52.469) scale(37.5653 37.1255)">
<stop stop-color="#6A4479"/>
<stop offset="1" stop-color="#3BB8DD"/>
</radialGradient>
<radialGradient id="paint1_radial" cx="0" cy="0" r="1" gradientUnits="userSpaceOnUse" gradientTransform="translate(26.5376 50.3977) scale(35.5344 35.1185)">
<stop stop-color="#6A4479"/>
<stop offset="1" stop-color="#3BB8DD"/>
</radialGradient>
<radialGradient id="paint2_radial" cx="0" cy="0" r="1" gradientUnits="userSpaceOnUse" gradientTransform="translate(26.5376 51.5134) scale(36.9337 36.5014)">
<stop stop-color="#6A4479"/>
<stop offset="1" stop-color="#3BB8DD"/>
</radialGradient>
<radialGradient id="paint3_radial" cx="0" cy="0" r="1" gradientUnits="userSpaceOnUse" gradientTransform="translate(26.5379 51.8983) scale(37.372 36.9345)">
<stop stop-color="#6A4479"/>
<stop offset="1" stop-color="#3BB8DD"/>
</radialGradient>
<radialGradient id="paint4_radial" cx="0" cy="0" r="1" gradientUnits="userSpaceOnUse" gradientTransform="translate(26.5374 52.075) scale(37.5179 37.0788)">
<stop stop-color="#6A4479"/>
<stop offset="1" stop-color="#3BB8DD"/>
</radialGradient>
<radialGradient id="paint5_radial" cx="0" cy="0" r="1" gradientUnits="userSpaceOnUse" gradientTransform="translate(26.4932 52.176) scale(37.6304 37.1899)">
<stop stop-color="#6A4479"/>
<stop offset="1" stop-color="#3BB8DD"/>
</radialGradient>
<radialGradient id="paint6_radial" cx="0" cy="0" r="1" gradientUnits="userSpaceOnUse" gradientTransform="translate(26.4934 52.2381) scale(37.628 37.1876)">
<stop stop-color="#6A4479"/>
<stop offset="1" stop-color="#3BB8DD"/>
</radialGradient>
<radialGradient id="paint7_radial" cx="0" cy="0" r="1" gradientUnits="userSpaceOnUse" gradientTransform="translate(26.5915 26.1156) scale(26.382 26.0732)">
<stop stop-color="#568EB6"/>
<stop offset="1" stop-color="#568EB6" stop-opacity="0"/>
</radialGradient>
<radialGradient id="paint8_radial" cx="0" cy="0" r="1" gradientUnits="userSpaceOnUse" gradientTransform="translate(26.5913 26.1155) scale(26.382 26.0732)">
<stop stop-color="#568EB6"/>
<stop offset="1" stop-color="#568EB6" stop-opacity="0"/>
</radialGradient>
<radialGradient id="paint9_radial" cx="0" cy="0" r="1" gradientUnits="userSpaceOnUse" gradientTransform="translate(26.5912 25.6728) scale(25.5582 25.259)">
<stop stop-color="#568EB6"/>
<stop offset="1" stop-color="#568EB6" stop-opacity="0"/>
</radialGradient>
<radialGradient id="paint10_radial" cx="0" cy="0" r="1" gradientUnits="userSpaceOnUse" gradientTransform="translate(26.5912 25.8351) scale(26.0403 25.7355)">
<stop stop-color="#568EB6"/>
<stop offset="1" stop-color="#568EB6" stop-opacity="0"/>
</radialGradient>
<radialGradient id="paint11_radial" cx="0" cy="0" r="1" gradientUnits="userSpaceOnUse" gradientTransform="translate(26.5914 25.9098) scale(26.1971 25.8905)">
<stop stop-color="#568EB6"/>
<stop offset="1" stop-color="#568EB6" stop-opacity="0"/>
</radialGradient>
<radialGradient id="paint12_radial" cx="0" cy="0" r="1" gradientUnits="userSpaceOnUse" gradientTransform="translate(26.5909 25.9524) scale(26.2652 25.9577)">
<stop stop-color="#568EB6"/>
<stop offset="1" stop-color="#568EB6" stop-opacity="0"/>
</radialGradient>
<radialGradient id="paint13_radial" cx="0" cy="0" r="1" gradientUnits="userSpaceOnUse" gradientTransform="translate(26.5911 25.9809) scale(26.3019 25.994)">
<stop stop-color="#568EB6"/>
<stop offset="1" stop-color="#568EB6" stop-opacity="0"/>
</radialGradient>
<linearGradient id="paint14_linear" x1="66218.6" y1="48.9904" x2="66218.6" y2="3.941" gradientUnits="userSpaceOnUse">
<stop stop-color="#78C3ED"/>
<stop offset="0.004" stop-color="#77C3ED"/>
<stop offset="0.008" stop-color="#76C3ED"/>
<stop offset="0.012" stop-color="#75C2ED"/>
<stop offset="0.016" stop-color="#74C2EC"/>
<stop offset="0.02" stop-color="#72C1EC"/>
<stop offset="0.023" stop-color="#71C1EC"/>
<stop offset="0.027" stop-color="#70C1EC"/>
<stop offset="0.031" stop-color="#6FC0EB"/>
<stop offset="0.035" stop-color="#6EC0EB"/>
<stop offset="0.039" stop-color="#6DC0EB"/>
<stop offset="0.043" stop-color="#6CC0EB"/>
<stop offset="0.047" stop-color="#6BBFEB"/>
<stop offset="0.051" stop-color="#6ABFEB"/>
<stop offset="0.055" stop-color="#69BFEB"/>
<stop offset="0.059" stop-color="#68BEEB"/>
<stop offset="0.063" stop-color="#67BEEA"/>
<stop offset="0.066" stop-color="#66BDEA"/>
<stop offset="0.07" stop-color="#65BDEA"/>
<stop offset="0.074" stop-color="#64BDEA"/>
<stop offset="0.078" stop-color="#63BCEA"/>
<stop offset="0.082" stop-color="#62BCEA"/>
<stop offset="0.086" stop-color="#61BCEA"/>
<stop offset="0.09" stop-color="#60BBE9"/>
<stop offset="0.094" stop-color="#5FBAE9"/>
<stop offset="0.098" stop-color="#5EBAE9"/>
<stop offset="0.102" stop-color="#5DBAE9"/>
<stop offset="0.105" stop-color="#5CB9E9"/>
<stop offset="0.109" stop-color="#5BB9E9"/>
<stop offset="0.113" stop-color="#5AB9E9"/>
<stop offset="0.117" stop-color="#58B9E9"/>
<stop offset="0.121" stop-color="#57B8E8"/>
<stop offset="0.125" stop-color="#56B8E8"/>
<stop offset="0.129" stop-color="#55B8E8"/>
<stop offset="0.133" stop-color="#54B8E8"/>
<stop offset="0.137" stop-color="#53B7E8"/>
<stop offset="0.141" stop-color="#52B7E8"/>
<stop offset="0.144" stop-color="#50B7E8"/>
<stop offset="0.148" stop-color="#4FB6E8"/>
<stop offset="0.152" stop-color="#4EB6E7"/>
<stop offset="0.156" stop-color="#4DB5E7"/>
<stop offset="0.16" stop-color="#4BB5E7"/>
<stop offset="0.164" stop-color="#4AB5E7"/>
<stop offset="0.168" stop-color="#49B4E7"/>
<stop offset="0.172" stop-color="#48B4E7"/>
<stop offset="0.176" stop-color="#46B4E7"/>
<stop offset="0.18" stop-color="#45B4E7"/>
<stop offset="0.184" stop-color="#43B3E6"/>
<stop offset="0.188" stop-color="#41B3E6"/>
<stop offset="0.191" stop-color="#40B3E6"/>
<stop offset="0.195" stop-color="#3EB2E6"/>
<stop offset="0.199" stop-color="#3DB2E6"/>
<stop offset="0.203" stop-color="#3BB1E6"/>
<stop offset="0.207" stop-color="#3AB1E6"/>
<stop offset="0.211" stop-color="#38B1E6"/>
<stop offset="0.215" stop-color="#36B0E5"/>
<stop offset="0.219" stop-color="#34B0E5"/>
<stop offset="0.223" stop-color="#32B0E5"/>
<stop offset="0.227" stop-color="#30B0E5"/>
<stop offset="0.231" stop-color="#2EAFE5"/>
<stop offset="0.234" stop-color="#2CAFE5"/>
<stop offset="0.238" stop-color="#2AAFE5"/>
<stop offset="0.242" stop-color="#27AEE4"/>
<stop offset="0.246" stop-color="#25AEE4"/>
<stop offset="0.25" stop-color="#23AEE4"/>
<stop offset="0.254" stop-color="#20ADE4"/>
<stop offset="0.258" stop-color="#1CADE4"/>
<stop offset="0.262" stop-color="#19ACE4"/>
<stop offset="0.266" stop-color="#16ACE4"/>
<stop offset="0.27" stop-color="#0FACE4"/>
<stop offset="0.273" stop-color="#0AABE3"/>
<stop offset="0.277" stop-color="#06ABE3"/>
<stop offset="0.281" stop-color="#01ABE3"/>
<stop offset="0.297" stop-color="#00AAE3"/>
<stop offset="0.313" stop-color="#00A9E2"/>
<stop offset="0.328" stop-color="#00A8E2"/>
<stop offset="0.344" stop-color="#00A7E1"/>
<stop offset="0.359" stop-color="#00A6E1"/>
<stop offset="0.375" stop-color="#00A5E0"/>
<stop offset="0.379" stop-color="#00A4E0"/>
<stop offset="0.383" stop-color="#00A3E0"/>
<stop offset="0.398" stop-color="#00A2E0"/>
<stop offset="0.414" stop-color="#00A1DF"/>
<stop offset="0.43" stop-color="#00A0DF"/>
<stop offset="0.445" stop-color="#009FDE"/>
<stop offset="0.461" stop-color="#009EDE"/>
<stop offset="0.477" stop-color="#009DDD"/>
<stop offset="0.492" stop-color="#009CDD"/>
<stop offset="0.508" stop-color="#009BDD"/>
<stop offset="0.523" stop-color="#009ADC"/>
<stop offset="0.547" stop-color="#0099DC"/>
<stop offset="0.563" stop-color="#0099DB"/>
<stop offset="0.57" stop-color="#0098DB"/>
<stop offset="0.586" stop-color="#0097DA"/>
<stop offset="0.602" stop-color="#0096DA"/>
<stop offset="0.617" stop-color="#0095DA"/>
<stop offset="0.621" stop-color="#0094D9"/>
<stop offset="0.625" stop-color="#0094D8"/>
<stop offset="0.629" stop-color="#0093D8"/>
<stop offset="0.637" stop-color="#0092D7"/>
<stop offset="0.648" stop-color="#0091D6"/>
<stop offset="0.652" stop-color="#0090D5"/>
<stop offset="0.66" stop-color="#008FD4"/>
<stop offset="0.672" stop-color="#008ED4"/>
<stop offset="0.68" stop-color="#008ED3"/>
<stop offset="0.684" stop-color="#008CD2"/>
<stop offset="0.695" stop-color="#008BD1"/>
<stop offset="0.707" stop-color="#0089D0"/>
<stop offset="0.711" stop-color="#0089CF"/>
<stop offset="0.719" stop-color="#0088CF"/>
<stop offset="0.723" stop-color="#0088CE"/>
<stop offset="0.727" stop-color="#0087CD"/>
<stop offset="0.731" stop-color="#0086CD"/>
<stop offset="0.738" stop-color="#0085CC"/>
<stop offset="0.75" stop-color="#0085CB"/>
<stop offset="0.754" stop-color="#0084CA"/>
<stop offset="0.758" stop-color="#0083CA"/>
<stop offset="0.762" stop-color="#0082C9"/>
<stop offset="0.773" stop-color="#0081C9"/>
<stop offset="0.777" stop-color="#0080C8"/>
<stop offset="0.785" stop-color="#007FC7"/>
<stop offset="0.797" stop-color="#007EC6"/>
<stop offset="0.801" stop-color="#007DC5"/>
<stop offset="0.809" stop-color="#007CC4"/>
<stop offset="0.82" stop-color="#007BC4"/>
<stop offset="0.828" stop-color="#007BC3"/>
<stop offset="0.832" stop-color="#0079C2"/>
<stop offset="0.844" stop-color="#0078C1"/>
<stop offset="0.856" stop-color="#0077C0"/>
<stop offset="0.859" stop-color="#0076BF"/>
<stop offset="0.871" stop-color="#0075BE"/>
<stop offset="0.875" stop-color="#0074BE"/>
<stop offset="0.879" stop-color="#0074BD"/>
<stop offset="0.883" stop-color="#0073BD"/>
<stop offset="0.891" stop-color="#0073BC"/>
<stop offset="0.894" stop-color="#0072BC"/>
<stop offset="0.898" stop-color="#0071BB"/>
<stop offset="0.906" stop-color="#0070BB"/>
<stop offset="0.914" stop-color="#0070BA"/>
<stop offset="0.918" stop-color="#006FBA"/>
<stop offset="0.922" stop-color="#006EB9"/>
<stop offset="0.934" stop-color="#006DB8"/>
<stop offset="0.941" stop-color="#006CB7"/>
<stop offset="0.945" stop-color="#006BB7"/>
<stop offset="0.957" stop-color="#006AB6"/>
<stop offset="0.965" stop-color="#0069B5"/>
<stop offset="0.969" stop-color="#0068B5"/>
<stop offset="0.981" stop-color="#0067B4"/>
<stop offset="0.984" stop-color="#0067B3"/>
<stop offset="1" stop-color="#0066B3"/>
</linearGradient>
</defs>
</svg>
