<svg width="502" height="146" viewBox="0 0 502 146" fill="none" xmlns="http://www.w3.org/2000/svg">
<g clip-path="url(#clip0)">
<path d="M68.0626 9.9633V10.4885H68.9679V12.9625H69.543V10.4961H70.4328V9.95553L68.0626 9.96282V9.9633ZM70.9696 9.98613V12.9551H71.43V10.6638L72.148 12.6545L72.6325 12.6512L73.3779 10.6941V12.9929H73.8458V9.97864H72.9869L72.381 12.0973L71.7597 9.98613H70.9696ZM0.00021237 27.8286V19.425C0.00021237 19.425 -0.0918729 15.8017 3.55898 12.1783C7.20983 8.55502 10.6768 8.95097 10.6768 8.95097H15.4627C15.4627 8.95097 21.4763 -0.000976562 33.3795 -0.000976562C45.2831 -0.000976562 52.0937 8.82895 52.0937 8.82895H57.4937C57.4937 8.82895 58.8568 8.7677 60.5697 9.62153C62.3013 10.4848 63.8596 11.4793 65.4454 13.9222C67.0359 16.3721 67.2494 18.1373 67.2494 19.4247V28.6199C67.2494 30.537 67.0652 32.0301 63.8133 35.2575C60.5614 38.4849 56.3887 38.1195 56.3887 38.1195H51.419C51.419 38.1195 45.2114 46.9996 33.5634 46.9996C21.9139 46.9996 15.9534 38.1805 15.9534 38.1805H10.4311C10.4311 38.1805 6.78026 38.3937 3.25211 34.8919C-0.2758 31.3909 0.0614406 27.8286 0.00021237 27.8286ZM5.8599 15.7404L9.2962 30.4473H13.0695L14.7569 21.9827L16.3829 30.4473H20.2485L23.6848 15.832H19.5738L18.3775 23.8401L16.69 15.8019H12.9777L11.2905 23.9315L10.0327 15.7715L5.8599 15.7409V15.7404ZM25.6267 19.8549V30.434H29.2529V19.8549H25.6267ZM29.8023 16.8665C29.8023 17.8899 28.7784 18.7206 27.5165 18.7206C26.2549 18.7206 25.2308 17.8899 25.2308 16.8662C25.2308 15.8427 26.2549 15.0124 27.5165 15.0124C28.7784 15.0124 29.8023 15.8431 29.8023 16.8665ZM30.6814 36.0392C30.6814 36.0392 35.2088 32.6293 35.2088 27.5544V19.0037C35.2088 17.6292 35.919 15.6816 38.0438 13.5728C40.1686 11.4639 42.0412 11.1299 43.3405 11.1299H56.835C59.1287 11.1612 60.9111 12.1157 62.5497 13.6382C64.0675 15.221 65.0549 17.2045 65.0549 19.3748V27.5542C65.0549 29.1645 64.62 31.498 62.4615 33.4654C60.3029 35.433 58.6398 36.0392 56.923 36.0392H30.6814ZM55.6044 19.8658V30.4445H59.231V19.8658H55.6044ZM59.7803 16.8773C59.7803 17.9007 58.7565 18.7312 57.4947 18.7312C56.233 18.7312 55.2089 17.9007 55.2089 16.8773C55.2089 15.854 56.233 15.023 57.4947 15.023C58.7565 15.023 59.7803 15.854 59.7803 16.8773ZM40.3518 30.3685H44.4176V25.9622H52.154V22.6683H44.3955V19.2224H53.1648V15.7978H40.3297L40.3518 30.3685Z" fill="black"/>
<path d="M9.31881 30.2267C9.20996 29.9048 6.02051 16.1203 6.02051 15.972C6.02051 15.855 6.50159 15.8176 8.0097 15.8176C9.10378 15.8176 9.99863 15.8591 9.99844 15.9102C9.99739 16.0665 11.1226 23.3854 11.1982 23.7146C11.264 24.001 11.2754 24.0051 11.3593 23.7764C11.4089 23.6408 11.8087 21.793 12.2471 19.6708L13.0448 15.8118L14.8422 15.8456L16.6397 15.8798L17.4539 19.7879C17.9017 21.9374 18.3024 23.73 18.3441 23.7715C18.444 23.8704 18.4631 23.7626 19.086 19.5507L19.6198 15.9416H21.5849C22.6661 15.9416 23.5505 15.9768 23.5505 16.0199C23.5505 16.1091 20.3394 29.8298 20.2407 30.1621C20.1834 30.355 19.9815 30.3779 18.3286 30.3779C16.6764 30.3779 16.4736 30.3553 16.4154 30.1621C16.3798 30.0434 16.0114 28.1732 15.5968 26.0061C15.1824 23.839 14.8174 22.0404 14.7861 22.009C14.6889 21.9125 14.6296 22.1761 13.8203 26.3061L13.0345 30.3161L11.203 30.3507C9.80401 30.376 9.35963 30.347 9.31881 30.2267ZM25.6641 25.1336V19.8895H29.1453V30.3774H25.6641V25.1336ZM26.6967 18.5258C26.4783 18.4595 26.1053 18.2237 25.8681 18.0014C25.0449 17.2309 25.176 16.1417 26.1704 15.4884C26.6007 15.2061 26.8344 15.1427 27.4547 15.141C30.3223 15.1331 30.5108 18.4248 27.6532 18.61C27.3457 18.6299 26.9151 18.5921 26.6967 18.5256V18.5258ZM31.9069 34.9641C33.3647 33.4498 34.2814 31.9752 34.8743 30.1925C35.152 29.3569 35.1637 29.1448 35.2353 23.7146C35.3151 17.6806 35.3053 17.7735 36.0129 16.3729C36.4261 15.5547 37.4284 14.2871 38.3271 13.4455C39.322 12.5142 40.3304 11.8801 41.4536 11.4791L42.2615 11.1904H49.9699C58.452 11.1904 58.3269 11.1808 60.0402 11.9778C62.2141 12.9889 64.2232 15.4219 64.7638 17.6989C65.0372 18.8492 65.0345 28.3989 64.7604 29.4573C64.1933 31.6482 62.6174 33.6046 60.3238 34.9648C58.5827 35.9968 59.6848 35.9304 44.4715 35.9304H30.977L31.9069 34.9641ZM59.2322 25.1336V19.766H55.5021V30.5009H59.2322V25.1336ZM44.437 28.2183V26.0592H52.2696V22.6041H44.437V19.2726H53.2644V15.6942H40.1712L40.2528 17.7501C40.2978 18.8805 40.3348 22.1844 40.3348 25.0917V30.3774H44.437V28.2183ZM58.3956 18.6485C59.7334 18.2796 60.2842 16.655 59.3799 15.7474C58.3264 14.6908 56.5141 14.7202 55.5906 15.8097C54.9617 16.5511 54.9938 17.4023 55.6755 18.0788C56.317 18.7153 57.3596 18.9341 58.3954 18.6485H58.3956Z" fill="white"/>
<path fill-rule="evenodd" clip-rule="evenodd" d="M434 30.7104V16.0703H438.056C439.134 16.0703 440.192 16.148 440.909 17.1441C441.484 17.9444 441.574 18.7837 441.574 19.7793C441.574 21.0482 441.322 22.2974 439.959 22.8437V22.883C441.377 23.0979 441.915 24.3859 441.915 26.2793C441.915 26.8845 441.879 27.4897 441.736 28.0752C441.197 29.9297 440.228 30.7104 438.434 30.7104H434ZM436.979 21.9848C437.59 21.9848 438.379 22.0241 438.775 21.4769C439.008 21.1067 439.044 20.5988 439.044 19.8958C439.044 18.8029 438.828 18.2562 437.679 18.2173H436.513V21.9848H436.979ZM437.051 28.563C437.571 28.563 438.11 28.622 438.559 28.4076C439.241 28.0753 439.33 27.1185 439.33 26.3771C439.33 24.796 439.044 24.1323 437.482 24.1323H436.513V28.5634H437.051V28.563ZM442.885 16.119H445.08V30.711H442.885V16.119ZM451.124 29.1008H451.089C450.735 30.385 450.065 30.9784 448.953 30.9986C447.135 30.9986 446.728 29.9823 446.728 28.1809V19.9007H449.024V27.2995C449.024 27.7783 449.006 28.3147 449.253 28.7365C449.448 28.9671 449.659 29.0812 449.959 29.0812C451.036 29.0812 451.018 27.7591 451.018 26.916V19.9007H453.313V30.7104H451.124V29.1008ZM454.867 23.619C454.762 21.0698 455.96 19.6136 458.215 19.6136C461.403 19.6136 461.738 21.4155 461.738 24.3663V25.823H457.157V27.3953C457.174 28.8132 457.668 29.0812 458.355 29.0812C459.201 29.0812 459.447 28.4111 459.413 27.0502H461.702C461.791 29.4651 460.875 30.9986 458.532 30.9986C455.889 30.9986 454.814 29.6372 454.866 26.4558V23.619H454.867ZM459.447 23.9061V22.9671C459.43 21.8747 459.166 21.5295 458.25 21.5295C457.105 21.5295 457.158 22.4877 457.158 23.4656V23.9061H459.447ZM467.681 30.7488C466.381 30.9219 463.906 31.0551 463.906 29.0428V21.7212H462.575V19.9007H463.889V16.9302H466.1V19.9007H467.682V21.7212H466.1V28.4302C466.15 28.8904 467.411 28.8324 467.682 28.794V30.7488H467.681ZM468.579 25.6893C468.597 21.9902 468.632 19.6136 472.137 19.6136C475.587 19.6136 475.604 21.9902 475.622 25.6893C475.639 29.4459 475.139 31.0551 472.137 30.9986C469.08 31.0551 468.562 29.4459 468.579 25.6893ZM470.903 27.1834C470.903 28.5064 471.01 29.0806 472.137 29.0806C473.209 29.0806 473.299 28.5064 473.299 27.1834V23.5802C473.299 22.5644 473.299 21.53 472.137 21.53C470.903 21.53 470.903 22.5644 470.903 23.5802V27.1834ZM476.785 25.6893C476.804 21.9902 476.839 19.6136 480.306 19.6136C483.72 19.6136 483.739 21.9902 483.756 25.6893C483.774 29.4459 483.278 31.0551 480.306 30.9986C477.281 31.0551 476.768 29.4459 476.785 25.6893ZM479.086 27.1834C479.086 28.5064 479.192 29.0806 480.307 29.0806C481.368 29.0806 481.457 28.5064 481.457 27.1834V23.5802C481.457 22.5644 481.457 21.53 480.307 21.53C479.086 21.53 479.086 22.5644 479.086 23.5802V27.1834ZM489.472 30.7488C488.172 30.9219 485.696 31.0551 485.696 29.0428V21.7212H484.584V19.9007H485.678V16.9302H487.89V19.9007H489.472V21.7212H487.89V28.4302C487.941 28.8904 489.201 28.8324 489.472 28.794V30.7488H489.472ZM490.94 30.7104V16.1426H493.283V21.0123H493.319C493.984 19.7468 494.922 19.6136 495.427 19.6136C496.761 19.6136 497.842 20.438 497.77 22.3732V30.7104H495.427V23.3122C495.427 22.2581 495.319 21.5683 494.436 21.53C493.553 21.4916 493.246 22.3732 493.283 23.5236V30.7104H490.94ZM497.599 16H498.929V16.3048H498.464V18.0757H498.066V16.3048H497.599V16ZM499.562 18.0757H499.165V16H499.798L500.012 16.9631C500.046 17.121 500.069 17.2812 500.086 17.442H500.092C500.111 17.237 500.126 17.0988 500.155 16.9631L500.369 16H501V18.0757H500.602V17.4233C500.602 17.0108 500.611 16.5983 500.635 16.1853H500.629L500.203 18.0757H499.961L499.543 16.1853H499.529C499.553 16.5978 499.562 17.0108 499.562 17.4233V18.0757Z" fill="black"/>
<path fill-rule="evenodd" clip-rule="evenodd" d="M404.781 4C397.302 4.14817 392.144 8.13408 391.468 15.1989C391.243 17.5487 391.067 19.9536 391 22.2998V26.161C391.116 29.67 391.584 32.8798 392.638 35.3534C394.639 40.0539 398.123 42.8663 404.358 43H405.346C412.206 42.8455 416.651 40.914 418.911 33.1156C421.172 25.3154 419.534 14.1166 417.43 10.1794C415.325 6.2396 412.051 4.12467 405.658 4.0009H404.781V4Z" fill="#2761AB"/>
<path fill-rule="evenodd" clip-rule="evenodd" d="M414 30.1002L407.105 23.3864L413.961 16.7108L403.831 7V20.2004L398.105 14.6235L396.039 16.6336L403.05 23.4627L396 30.3274L398.065 32.3375L403.831 26.7243V40L414 30.1002ZM406.481 13.2967L409.987 16.7871L406.481 20.2004V13.2967ZM406.481 26.497L409.987 29.9866L406.481 33.4016V26.497Z" fill="white"/>
<path fill-rule="evenodd" clip-rule="evenodd" d="M98.7433 104.625H98.7434C99.1741 104.915 99.5892 105.194 99.9596 105.527C102.552 107.766 102.11 111.647 99.0953 113.267C98.7159 113.459 98.3364 113.651 97.9359 113.758C94.9847 114.547 92.0334 114.419 89.1243 113.523C88.5973 113.374 88.3233 113.118 88.3233 112.478C88.3444 107.446 88.3444 102.392 88.3444 97.3596C88.3444 96.5493 88.7027 95.9521 89.4616 95.7389C92.2442 94.9073 95.069 94.6087 97.8305 95.6536C98.8213 96.0374 99.8331 96.7838 100.444 97.6581C101.899 99.6838 101.119 102.477 98.9478 103.693C98.6526 103.842 98.3575 103.991 98.0413 104.141C98.2768 104.312 98.5123 104.47 98.7433 104.625ZM94.036 111.583C96.5024 111.54 97.5565 110.282 97.1981 107.872C96.9662 106.252 95.8489 105.484 93.8042 105.356C92.9399 105.313 92.4972 105.676 92.4761 106.465C92.4129 107.702 92.4129 108.96 92.4972 110.197C92.5393 111.135 93.0663 111.71 94.036 111.583ZM92.4923 99.3408V99.3428V99.3438C92.4877 100.381 92.4834 101.35 92.4972 102.328C92.4972 102.819 92.6658 103.33 93.2982 103.138C93.4162 103.101 93.5353 103.065 93.6549 103.028C94.4334 102.789 95.2361 102.543 95.9122 102.136C96.8397 101.582 97.0716 100.601 96.8397 99.5127C96.6078 98.447 95.9754 97.786 94.9425 97.6581C94.407 97.5849 93.8615 97.6021 93.2925 97.6201C93.0327 97.6283 92.7681 97.6367 92.4972 97.6367C92.4972 98.2297 92.4947 98.7925 92.4923 99.3367V99.3377V99.3387V99.3397V99.3408ZM75.2855 118.112L75.2856 118.111C75.3787 117.864 75.4637 117.637 75.5487 117.404C75.8649 116.572 76.3919 116.338 77.2983 116.551C78.2469 116.764 79.2377 116.892 80.1863 116.807C80.7555 116.743 81.4301 116.295 81.8095 115.805C82.0137 115.554 82.0363 115.15 82.0587 114.749C82.0687 114.57 82.0787 114.391 82.1046 114.227C81.993 114.21 81.88 114.189 81.7662 114.167C81.4501 114.107 81.1287 114.046 80.8187 114.078C76.7081 114.376 74.073 111.689 74.2628 107.297C74.3049 106.38 74.4314 105.442 74.6633 104.567C75.3168 102.222 76.8556 100.729 79.2588 100.26C81.1771 99.8758 83.0954 100.025 84.9716 100.58C85.7304 100.814 86.0888 101.177 86.0677 102.072C86.0225 104.83 86.0312 107.598 86.0398 110.362V110.363V110.364C86.0432 111.468 86.0466 112.571 86.0466 113.672C86.0466 117.639 84.2548 119.6 80.3339 119.75C78.5631 119.792 76.7924 119.6 75.0638 118.705C75.1441 118.488 75.2168 118.295 75.2852 118.113L75.2855 118.112ZM82.21 106.828C82.21 106.493 82.2066 106.157 82.2032 105.822C82.1945 104.985 82.1859 104.147 82.2311 103.309C82.2522 102.67 81.9782 102.435 81.409 102.371C80.1652 102.222 78.9426 102.797 78.7318 104.056C78.4367 105.761 78.4367 107.553 78.4367 109.301C78.4367 109.877 78.795 110.538 79.1534 111.028C79.7015 111.775 80.6501 112.052 81.409 111.689C81.8517 111.455 82.1046 110.559 82.189 109.92C82.262 109.21 82.2439 108.491 82.2259 107.775V107.774C82.218 107.458 82.21 107.142 82.21 106.828ZM57.5249 114.035H61.3193C61.6766 114.035 62.0352 114.036 62.3945 114.037H62.3948H62.3951H62.3954H62.3957H62.3958H62.3959C63.4775 114.041 64.5651 114.046 65.6408 114.014C66.6315 113.992 67.0742 113.416 67.0531 112.414C67.011 111.476 66.5894 110.943 65.6197 110.943H63.0901C61.5934 110.943 61.4247 110.687 61.9306 109.237C63.4059 105.08 64.8812 100.901 66.3565 96.7226L66.3575 96.7199C66.758 95.5684 66.5472 95.1207 65.5354 95.1207C62.8582 95.0994 60.2021 95.0994 57.5249 95.1207C56.6184 95.142 56.239 95.6537 56.239 96.5706C56.239 97.4662 56.4919 98.1273 57.5038 98.1486C57.9956 98.1628 58.4875 98.1581 58.9794 98.1534C59.2253 98.151 59.4713 98.1486 59.7172 98.1486C61.0663 98.1486 61.2771 98.4684 60.8134 99.7477C60.0545 101.827 59.2903 103.906 58.5262 105.985C57.762 108.064 56.9978 110.143 56.239 112.222C55.6909 113.715 55.9228 114.035 57.5249 114.035ZM119.269 108.576C119.627 111.455 121.482 112.073 125.951 110.815C126.013 110.984 126.079 111.154 126.145 111.325C126.236 111.563 126.329 111.804 126.415 112.052C126.668 112.883 126.394 113.459 125.572 113.694C123.654 114.248 121.714 114.483 119.754 113.907C117.519 113.267 116.128 111.689 115.728 109.429C115.475 108 115.411 106.444 115.643 105.015C116.233 101.475 119.396 99.4067 122.895 100.068C124.349 100.345 125.467 101.177 126.015 102.52C126.429 103.505 126.644 104.583 126.855 105.649C126.891 105.829 126.927 106.009 126.963 106.188C127.132 106.998 126.71 107.424 125.888 107.531C124.194 107.75 122.519 108.007 120.828 108.265L120.471 108.32C120.07 108.427 119.67 108.512 119.269 108.576ZM120.033 106.387C121.009 106.23 121.867 106.092 122.726 106.017C123.527 105.953 123.675 105.591 123.527 104.908C123.513 104.837 123.5 104.766 123.487 104.696C123.442 104.454 123.398 104.218 123.316 103.97C123.042 103.074 122.473 102.499 121.525 102.435C120.618 102.371 119.796 102.712 119.459 103.586C119.238 104.196 119.1 104.847 118.943 105.582V105.583C118.875 105.902 118.804 106.238 118.721 106.593C119.185 106.523 119.619 106.453 120.033 106.387ZM113.156 110.858C108.56 112.03 106.832 111.455 106.473 108.555L107.352 108.42C109.284 108.125 111.188 107.833 113.092 107.574C114.02 107.446 114.378 106.977 114.231 106.06C114.199 105.868 114.173 105.676 114.146 105.484C114.12 105.292 114.094 105.1 114.062 104.908C113.366 100.622 109.677 98.7669 105.862 100.772C103.374 102.094 102.7 104.397 102.637 107.019C102.552 110.41 104.028 112.947 106.621 113.843C108.708 114.568 110.774 114.312 112.839 113.715C113.577 113.502 113.809 112.926 113.64 112.222C113.564 111.88 113.43 111.549 113.299 111.221C113.25 111.099 113.201 110.978 113.156 110.858ZM110.289 105.932C108.961 106.145 107.611 106.337 105.925 106.572C105.997 106.256 106.057 105.956 106.114 105.669C106.259 104.949 106.385 104.315 106.642 103.736C107.106 102.584 108.349 102.136 109.424 102.584C110.247 102.925 111.048 104.716 110.731 105.569C110.668 105.719 110.457 105.911 110.289 105.932ZM68.7819 107.169V101.731C68.7819 100.622 69.1403 100.302 70.2365 100.281H70.3419C72.6396 100.26 72.724 100.345 72.724 102.627V111.988C72.724 113.779 72.4921 114.013 70.7213 114.013C69.0138 114.013 68.7819 113.779 68.7819 112.052V107.169ZM68.6343 96.9759C68.6554 97.9994 69.5619 98.7883 70.7213 98.7883C71.965 98.7883 72.8504 98.0207 72.8293 96.8906C72.8082 95.8457 71.9439 95.0781 70.7634 95.0781C69.583 95.0781 68.6133 95.931 68.6343 96.9759Z" fill="black"/>
<path d="M0 105.218C0 118.595 10.8415 129.437 24.2184 129.437C37.5953 129.437 48.4368 118.595 48.4368 105.218C48.4368 91.8415 37.5953 81 24.2184 81C10.8415 81 0 91.8415 0 105.218Z" fill="url(#paint0_radial)"/>
<path d="M7.9209 92.4162C7.9209 97.8296 15.177 96.348 24.1234 96.348C33.07 96.348 40.326 97.8296 40.326 92.4162C40.326 87.0216 33.07 82.6338 24.1234 82.6338C15.1768 82.6149 7.9209 87.0027 7.9209 92.4162Z" fill="url(#paint1_linear)"/>
<path d="M16.9436 119.161C16.9055 119.104 22.471 112.968 28.9862 106.567C35.4445 100.166 40.934 94.5047 40.9529 94.5047C40.744 90.0603 37.477 87.9137 34.5327 87.5527C32.6713 87.1728 18.8999 86.679 11.0742 87.8946C9.61281 88.0706 8.15157 88.2632 6.67519 88.502C6.61767 88.5114 6.03851 89.1139 5.52293 89.7364C4.99409 90.3747 4.52959 91.0332 4.57765 91.0264C9.03459 90.3972 13.5188 89.9795 18.0152 89.7746C22.6138 89.5657 27.2198 89.5849 31.8165 89.8321C31.9115 89.9082 26.6689 95.7206 20.2106 102.046C13.7904 108.353 7.97807 114.184 7.40818 114.868C7.37034 119.503 11.302 121.288 13.4105 121.706C23.1928 122.656 33.069 122.316 42.8516 120.739C42.8516 120.739 43.72 119.761 43.8248 119.582C43.9299 119.402 44.6819 118.277 44.6579 118.28C35.2744 119.618 25.8966 120.033 16.6206 119.521C16.8238 119.351 16.8295 119.294 16.9436 119.161Z" fill="white"/>
<path d="M226.037 83.8619C226.056 83.7289 226.037 83.6529 226.056 83.5959C226.776 81.6765 226.776 81.6765 228.55 82.6077C237.477 87.2066 242.909 97.0697 241.874 107.237C240.932 116.473 236.293 123.219 228.273 127.495C226.794 128.274 226.794 128.255 226.184 126.697C226.111 126.526 226.074 126.336 226 126.127C234.648 121.889 239.657 114.991 239.657 105.032C239.657 95.0553 234.722 88.1188 226.037 83.8619Z" fill="black"/>
<path d="M222.644 121.099C229.376 117.813 233.432 112.7 233.411 104.903C233.369 97.1924 229.418 92.0373 222.729 88.8798C222.707 88.7939 222.686 88.7509 222.686 88.7294C223.281 86.4956 223.536 86.3237 225.511 87.3977C231.648 90.7485 235.195 95.9036 235.981 102.949C236.937 111.476 232.179 119.23 225.171 122.667C223.599 123.44 223.599 123.462 222.898 121.808C222.792 121.614 222.729 121.378 222.644 121.099Z" fill="black"/>
<path d="M227.583 104.695C227.494 107.059 226.91 109.044 225.849 110.693C224.784 112.347 223.219 113.693 221.125 114.745C220.764 114.926 220.584 114.976 220.479 114.964L220.477 114.964C220.452 114.961 220.33 114.949 220.17 114.568L220.169 114.567C220.141 114.502 220.115 114.44 220.09 114.382C219.972 114.105 219.889 113.908 219.834 113.752C219.805 113.668 219.791 113.614 219.785 113.583C219.794 113.576 219.806 113.568 219.821 113.559C219.936 113.487 220.113 113.406 220.416 113.267L220.427 113.263L220.431 113.261C222.173 112.444 223.519 111.33 224.431 109.935C225.343 108.539 225.802 106.891 225.814 105.036C225.826 103.136 225.367 101.457 224.438 100.048C223.51 98.6397 222.133 97.5305 220.356 96.736L220.352 96.7344C219.837 96.5088 219.817 96.3634 219.814 96.3407L219.813 96.3396C219.808 96.3021 219.811 96.231 219.853 96.0947C219.897 95.9565 219.965 95.7993 220.057 95.5874L220.059 95.5826C220.242 95.1497 220.384 95.0697 220.447 95.0503C220.534 95.0239 220.723 95.0289 221.151 95.2358C225.238 97.2593 227.321 100.466 227.583 104.695Z" fill="black"/>
<path d="M220.219 112.808C219.676 113.056 219.394 113.18 219.308 113.387C219.208 113.626 219.375 113.977 219.709 114.763C220.108 115.708 220.662 115.536 221.348 115.192M219.752 113.609L219.753 113.608M227.583 104.695C227.494 107.059 226.91 109.044 225.849 110.693C224.784 112.347 223.219 113.693 221.125 114.745C220.764 114.926 220.584 114.976 220.479 114.964L220.477 114.964C220.452 114.961 220.33 114.949 220.17 114.568L220.169 114.567C220.141 114.502 220.115 114.44 220.09 114.382C219.972 114.105 219.889 113.908 219.834 113.752C219.805 113.668 219.791 113.614 219.785 113.583C219.794 113.576 219.806 113.568 219.821 113.559C219.936 113.487 220.113 113.406 220.416 113.267L220.427 113.263L220.431 113.261C222.173 112.444 223.519 111.33 224.431 109.935C225.343 108.539 225.802 106.891 225.814 105.036C225.826 103.136 225.367 101.457 224.438 100.048C223.51 98.6397 222.133 97.5305 220.356 96.736L220.352 96.7344C219.837 96.5088 219.817 96.3634 219.814 96.3407L219.813 96.3396C219.808 96.3021 219.811 96.231 219.853 96.0947C219.897 95.9565 219.965 95.7993 220.057 95.5874L220.059 95.5826C220.242 95.1497 220.384 95.0697 220.447 95.0503C220.534 95.0239 220.723 95.0289 221.151 95.2358C225.238 97.2593 227.321 100.466 227.583 104.695Z" stroke="black"/>
<path d="M205.96 83.8619C205.941 83.7289 205.96 83.6529 205.941 83.5959C205.175 81.6765 205.175 81.6765 203.29 82.6077C193.806 87.2066 188.034 97.0697 189.134 107.237C190.135 116.473 195.063 123.219 203.585 127.495C205.156 128.274 205.156 128.255 205.803 126.697C205.882 126.526 205.921 126.336 206 126.127C196.811 121.889 191.489 114.991 191.489 105.032C191.489 95.0553 196.732 88.1188 205.96 83.8619Z" fill="black"/>
<path d="M208.849 121.099C202.116 117.813 198.06 112.7 198.081 104.903C198.123 97.1924 202.074 92.0373 208.764 88.8798C208.785 88.7939 208.806 88.7509 208.806 88.7294C208.211 86.4956 207.958 86.3237 205.982 87.3977C199.845 90.7485 196.298 95.9036 195.512 102.949C194.557 111.476 199.313 119.23 206.321 122.667C207.893 123.44 207.893 123.462 208.594 121.808C208.7 121.614 208.764 121.378 208.849 121.099Z" fill="black"/>
<path d="M203.91 104.695C203.999 107.059 204.582 109.044 205.643 110.693C206.708 112.347 208.273 113.693 210.367 114.745C210.728 114.926 210.908 114.976 211.013 114.964L211.015 114.964C211.04 114.961 211.162 114.949 211.322 114.568L211.323 114.567C211.351 114.502 211.377 114.44 211.402 114.382C211.52 114.105 211.604 113.908 211.658 113.752C211.687 113.668 211.701 113.614 211.707 113.583C211.698 113.576 211.686 113.568 211.671 113.559C211.556 113.487 211.379 113.406 211.076 113.267L211.066 113.263L211.061 113.261C209.319 112.444 207.973 111.33 207.061 109.935C206.149 108.539 205.69 106.891 205.678 105.036C205.667 103.136 206.125 101.457 207.054 100.048C207.982 98.6397 209.359 97.5305 211.136 96.736L211.14 96.7344C211.655 96.5088 211.675 96.3634 211.678 96.3407L211.679 96.3396C211.684 96.3021 211.681 96.231 211.639 96.0947C211.595 95.9565 211.527 95.7993 211.435 95.5874L211.433 95.5826C211.25 95.1497 211.109 95.0697 211.045 95.0503C210.958 95.0239 210.769 95.0289 210.341 95.2358C206.254 97.2593 204.171 100.466 203.91 104.695Z" fill="black"/>
<path d="M211.273 112.808C211.816 113.056 212.098 113.18 212.184 113.387C212.284 113.626 212.117 113.977 211.783 114.763C211.384 115.708 210.83 115.536 210.144 115.192M211.74 113.609L211.739 113.608M203.91 104.695C203.999 107.059 204.582 109.044 205.643 110.693C206.708 112.347 208.273 113.693 210.367 114.745C210.728 114.926 210.908 114.976 211.013 114.964L211.015 114.964C211.04 114.961 211.162 114.949 211.322 114.568L211.323 114.567C211.351 114.502 211.377 114.44 211.402 114.382C211.52 114.105 211.604 113.908 211.658 113.752C211.687 113.668 211.701 113.614 211.707 113.583C211.698 113.576 211.686 113.568 211.671 113.559C211.556 113.487 211.379 113.406 211.076 113.267L211.066 113.263L211.061 113.261C209.319 112.444 207.973 111.33 207.061 109.935C206.149 108.539 205.69 106.891 205.678 105.036C205.667 103.136 206.125 101.457 207.054 100.048C207.982 98.6397 209.359 97.5305 211.136 96.736L211.14 96.7344C211.655 96.5088 211.675 96.3634 211.678 96.3407L211.679 96.3396C211.684 96.3021 211.681 96.231 211.639 96.0947C211.595 95.9565 211.527 95.7993 211.435 95.5874L211.433 95.5826C211.25 95.1497 211.109 95.0697 211.045 95.0503C210.958 95.0239 210.769 95.0289 210.341 95.2358C206.254 97.2593 204.171 100.466 203.91 104.695Z" stroke="black"/>
<path d="M215.712 108.424C217.762 108.424 219.424 106.762 219.424 104.712C219.424 102.662 217.762 101 215.712 101C213.662 101 212 102.662 212 104.712C212 106.762 213.662 108.424 215.712 108.424Z" fill="black"/>
<path d="M208.934 146L207.504 143.95C207.444 143.957 207.354 143.96 207.234 143.96H205.654V146H204.354V139H207.234C207.841 139 208.368 139.1 208.814 139.3C209.268 139.5 209.614 139.787 209.854 140.16C210.094 140.533 210.214 140.977 210.214 141.49C210.214 142.017 210.084 142.47 209.824 142.85C209.571 143.23 209.204 143.513 208.724 143.7L210.334 146H208.934ZM208.904 141.49C208.904 141.043 208.758 140.7 208.464 140.46C208.171 140.22 207.741 140.1 207.174 140.1H205.654V142.89H207.174C207.741 142.89 208.171 142.77 208.464 142.53C208.758 142.283 208.904 141.937 208.904 141.49ZM212.769 140.09V142.22H216.149V143.32H212.769V146H211.469V139H216.579V140.09H212.769ZM217.636 139H218.936V146H217.636V139ZM220.629 139H223.689C224.436 139 225.099 139.147 225.679 139.44C226.259 139.727 226.709 140.137 227.029 140.67C227.349 141.197 227.509 141.807 227.509 142.5C227.509 143.193 227.349 143.807 227.029 144.34C226.709 144.867 226.259 145.277 225.679 145.57C225.099 145.857 224.436 146 223.689 146H220.629V139ZM223.629 144.9C224.143 144.9 224.593 144.803 224.979 144.61C225.373 144.41 225.673 144.13 225.879 143.77C226.093 143.403 226.199 142.98 226.199 142.5C226.199 142.02 226.093 141.6 225.879 141.24C225.673 140.873 225.373 140.593 224.979 140.4C224.593 140.2 224.143 140.1 223.629 140.1H221.929V144.9H223.629Z" fill="#6D6B6C"/>
<path d="M303.679 1C299.06 1 291.884 1.01404 290.534 1.09822C288.516 1.19644 287.166 2.64162 287.081 4.49371C286.995 6.33176 286.953 40.5672 287.081 42.4333C287.194 44.2714 288.63 45.6745 290.534 45.7867C292.637 45.913 299.43 45.941 301.391 45.941C297.881 43.5558 297.412 39.0799 297.085 30.7596C296.886 25.8347 297.071 8.56264 297.085 7.81904L297.184 3.11868L315.53 21.2326V26.9011L300.922 12.4913C300.879 15.3396 300.851 19.0578 300.851 22.4533C300.851 25.7646 300.908 28.7672 301.007 30.3386C301.561 39.4026 302.414 43.668 307.203 45.3237C308.667 45.8288 310.031 45.941 312.304 45.9691C314.18 45.9972 327.311 45.9831 329.201 45.8709C331.204 45.7727 332.554 44.3275 332.654 42.4614C332.739 40.6233 332.768 6.47207 332.654 4.61999C332.512 2.79596 331.091 1.4069 329.201 1.29465C327.098 1.16838 320.305 1.07016 318.344 1.07016C321.825 3.45542 322.309 7.91724 322.635 16.2235C322.834 21.1484 322.65 38.4205 322.635 39.1501L322.536 43.8785L304.204 25.7786V20.1101L318.799 34.5058C318.841 31.6576 318.87 27.9394 318.87 24.5439C318.87 21.2326 318.813 18.244 318.713 16.6585C318.173 7.59454 317.307 3.3572 312.518 1.68752C311.054 1.18241 309.69 1.0421 307.416 1.01404H303.679V1Z" fill="url(#paint2_linear)"/>
<path d="M172 32.5C172 39.9558 165.956 46 158.5 46C151.044 46 145 39.9558 145 32.5C145 25.0442 151.044 19 158.5 19C165.956 19 172 25.0442 172 32.5Z" fill="#1B365D"/>
<path d="M176.5 26H172L175.5 39H180L181.5 32L183 39H187.5L191 26H186.5L185 34L183 26H180L178 34L176.5 26Z" fill="#1B365D"/>
<path d="M194.5 39H189.5L194 26H200L204.5 39H199.5L199 37H195L194.5 39Z" fill="#1B365D"/>
<path d="M207 26H202L207 39H211.5L216.5 26H212L209.5 33.5L207 26Z" fill="#1B365D"/>
<path d="M226.5 26H218V39H226.5V35.5H222.5V34H226V31H222.5V29.5H226.5V26Z" fill="#1B365D"/>
<path fill-rule="evenodd" clip-rule="evenodd" d="M158 5C142.536 5 130 17.536 130 33H126C126 15.3269 140.327 1 158 1V5Z" fill="#1B365D"/>
<path fill-rule="evenodd" clip-rule="evenodd" d="M158 14C147.507 14 139 22.5066 139 33H135C135 20.2975 145.297 10 158 10V14Z" fill="#1B365D"/>
<path d="M154 26L152 29.5H157L151 39H162L164.5 35H159L164.5 26H154Z" fill="white"/>
<path d="M198.5 33.9999H195.5L196 29H198L198.5 33.9999Z" fill="white"/>
<path d="M312.112 86.0146H323.006V88.4578H314.984V93.6834H321.767V96.1265H314.984V102.177H323.287V104.619H312.112V86.0146Z" fill="#0072C6"/>
<path d="M326.558 86.0146H337.45V88.4578H329.428V93.6834H336.212V96.1265H329.428V102.177H337.732V104.619H326.558V86.0146Z" fill="#0072C6"/>
<path d="M341.002 86.0146H351.895V88.4578H343.873V93.6834H350.657V96.1265H343.873V102.177H352.177V104.619H341.002V86.0146Z" fill="#0072C6"/>
<path d="M317.779 125.316C316.653 125.316 315.63 125.108 314.711 124.691C313.791 124.257 313.069 123.659 312.544 122.902C312.036 122.145 311.783 121.292 311.783 120.346C311.783 119.286 312.093 118.358 312.713 117.562C313.332 116.767 314.12 116.114 315.077 115.602V115.489C313.425 114.315 312.6 112.914 312.6 111.285C312.6 110.338 312.824 109.514 313.275 108.814C313.745 108.094 314.373 107.536 315.161 107.138C315.968 106.741 316.868 106.542 317.863 106.542C319.439 106.542 320.697 106.996 321.635 107.905C322.573 108.795 323.043 109.959 323.043 111.399C323.043 112.251 322.799 113.056 322.311 113.814C321.842 114.552 321.279 115.158 320.622 115.631V115.745C321.579 116.313 322.329 116.966 322.873 117.704C323.436 118.424 323.718 119.333 323.718 120.431C323.718 121.34 323.465 122.173 322.958 122.931C322.47 123.669 321.776 124.257 320.875 124.691C319.974 125.108 318.942 125.316 317.779 125.316ZM318.989 114.921C320.096 113.86 320.65 112.743 320.65 111.569C320.65 110.698 320.397 109.988 319.89 109.439C319.383 108.89 318.689 108.615 317.807 108.615C317.037 108.615 316.4 108.861 315.893 109.354C315.405 109.827 315.161 110.471 315.161 111.285C315.161 112.175 315.48 112.876 316.118 113.387C316.775 113.899 317.732 114.41 318.989 114.921ZM317.835 123.243C318.792 123.243 319.561 122.978 320.143 122.447C320.744 121.918 321.044 121.217 321.044 120.346C321.044 119.683 320.846 119.124 320.453 118.67C320.078 118.215 319.599 117.847 319.017 117.562C318.455 117.259 317.61 116.88 316.484 116.426C315.827 116.9 315.302 117.449 314.908 118.074C314.513 118.68 314.316 119.343 314.316 120.062C314.316 120.99 314.645 121.757 315.302 122.363C315.978 122.949 316.822 123.243 317.835 123.243Z" fill="#0072C6"/>
<path d="M331.427 125.316C329.569 125.316 328.115 124.493 327.064 122.846C326.013 121.198 325.488 118.869 325.488 115.858C325.488 112.847 326.013 110.547 327.064 108.956C328.115 107.347 329.569 106.542 331.427 106.542C333.285 106.542 334.739 107.347 335.79 108.956C336.841 110.566 337.366 112.867 337.366 115.858C337.366 118.869 336.841 121.198 335.79 122.846C334.739 124.493 333.285 125.316 331.427 125.316ZM331.427 123.045C332.421 123.045 333.2 122.467 333.763 121.312C334.345 120.157 334.636 118.339 334.636 115.858C334.636 111.162 333.566 108.814 331.427 108.814C329.287 108.814 328.219 111.162 328.219 115.858C328.219 118.339 328.499 120.157 329.063 121.312C329.644 122.467 330.432 123.045 331.427 123.045Z" fill="#0072C6"/>
<path d="M339.079 123.3C341.125 121.274 342.692 119.664 343.78 118.471C344.887 117.259 345.75 116.133 346.37 115.091C347.007 114.031 347.326 113.047 347.326 112.137C347.326 111.114 347.054 110.31 346.51 109.723C345.966 109.136 345.187 108.843 344.173 108.843C342.954 108.843 341.744 109.534 340.543 110.916L338.938 109.325C339.783 108.398 340.637 107.706 341.5 107.252C342.382 106.779 343.395 106.542 344.539 106.542C346.228 106.542 347.571 107.044 348.565 108.047C349.578 109.032 350.085 110.348 350.085 111.995C350.085 113.036 349.793 114.107 349.212 115.205C348.649 116.303 347.899 117.411 346.96 118.528C346.041 119.626 344.793 121.018 343.216 122.703C344.493 122.59 345.496 122.533 346.228 122.533H350.958V124.976H339.079V123.3Z" fill="#0072C6"/>
<path d="M355.373 125.316C354.829 125.316 354.369 125.127 353.994 124.748C353.637 124.37 353.459 123.887 353.459 123.3C353.459 122.713 353.637 122.23 353.994 121.851C354.369 121.454 354.829 121.255 355.373 121.255C355.917 121.255 356.367 121.454 356.724 121.851C357.099 122.23 357.287 122.713 357.287 123.3C357.287 123.887 357.099 124.37 356.724 124.748C356.367 125.127 355.917 125.316 355.373 125.316Z" fill="#0072C6"/>
<path d="M359.782 122.619H363.835V110.121H360.543V108.303C362.137 108.02 363.469 107.546 364.539 106.883H366.679V122.619H370.281V124.976H359.782V122.619Z" fill="#0072C6"/>
<path d="M377.682 125.317C376.35 125.317 375.196 125.09 374.22 124.635C373.263 124.181 372.409 123.575 371.658 122.818L373.01 120.972C373.629 121.577 374.286 122.06 374.98 122.42C375.674 122.78 376.462 122.96 377.344 122.96C378.414 122.96 379.287 122.619 379.962 121.937C380.656 121.255 381.003 120.346 381.003 119.21C381.003 118.075 380.685 117.185 380.046 116.541C379.409 115.897 378.554 115.575 377.485 115.575C376.922 115.575 376.434 115.66 376.021 115.83C375.609 115.982 375.111 116.247 374.53 116.626L373.122 115.717L373.685 106.883H383.002V109.326H376.162L375.74 114.126C376.547 113.69 377.391 113.473 378.273 113.473C379.906 113.473 381.247 113.955 382.299 114.921C383.349 115.868 383.875 117.269 383.875 119.125C383.875 120.394 383.584 121.501 383.002 122.448C382.439 123.376 381.688 124.086 380.75 124.578C379.812 125.071 378.789 125.317 377.682 125.317Z" fill="#0072C6"/>
<path d="M388.374 125.316C387.829 125.316 387.369 125.127 386.994 124.748C386.638 124.37 386.459 123.887 386.459 123.3C386.459 122.713 386.638 122.23 386.994 121.851C387.369 121.454 387.829 121.255 388.374 121.255C388.918 121.255 389.368 121.454 389.724 121.851C390.099 122.23 390.287 122.713 390.287 123.3C390.287 123.887 390.099 124.37 389.724 124.748C389.368 125.127 388.918 125.316 388.374 125.316Z" fill="#0072C6"/>
<path d="M405 120.176H402.663V124.976H399.989V120.176H392.023V118.244L399.37 106.883H402.663V117.932H405V120.176ZM399.989 117.932V113.33C399.989 112.554 400.036 111.342 400.13 109.695H400.017C399.943 109.828 399.633 110.405 399.089 111.428C399.013 111.542 398.929 111.684 398.835 111.853C398.76 112.006 398.667 112.186 398.554 112.394L394.894 117.932H399.989Z" fill="#0072C6"/>
<path d="M305 86H308.128V125.449H305V86Z" fill="#0072C6"/>
</g>
<defs>
<radialGradient id="paint0_radial" cx="0" cy="0" r="1" gradientUnits="userSpaceOnUse" gradientTransform="translate(24.2184 105.218) scale(24.2184)">
<stop stop-color="#DC001F"/>
<stop offset="0.64215" stop-color="#D5001D"/>
<stop offset="0.82382" stop-color="#AE0017"/>
<stop offset="1" stop-color="#590E0A"/>
</radialGradient>
<linearGradient id="paint1_linear" x1="24.0894" y1="96.5334" x2="24.0953" y2="82.3663" gradientUnits="userSpaceOnUse">
<stop stop-color="#D4001C"/>
<stop offset="0.53134" stop-color="#EC8A6C"/>
<stop offset="0.88757" stop-color="#FCEFE7"/>
<stop offset="1" stop-color="#FDF7F1"/>
</linearGradient>
<linearGradient id="paint2_linear" x1="66391.6" y1="45.9894" x2="66391.6" y2="0.940019" gradientUnits="userSpaceOnUse">
<stop stop-color="#78C3ED"/>
<stop offset="0.004" stop-color="#77C3ED"/>
<stop offset="0.008" stop-color="#76C3ED"/>
<stop offset="0.012" stop-color="#75C2ED"/>
<stop offset="0.016" stop-color="#74C2EC"/>
<stop offset="0.02" stop-color="#72C1EC"/>
<stop offset="0.023" stop-color="#71C1EC"/>
<stop offset="0.027" stop-color="#70C1EC"/>
<stop offset="0.031" stop-color="#6FC0EB"/>
<stop offset="0.035" stop-color="#6EC0EB"/>
<stop offset="0.039" stop-color="#6DC0EB"/>
<stop offset="0.043" stop-color="#6CC0EB"/>
<stop offset="0.047" stop-color="#6BBFEB"/>
<stop offset="0.051" stop-color="#6ABFEB"/>
<stop offset="0.055" stop-color="#69BFEB"/>
<stop offset="0.059" stop-color="#68BEEB"/>
<stop offset="0.063" stop-color="#67BEEA"/>
<stop offset="0.066" stop-color="#66BDEA"/>
<stop offset="0.07" stop-color="#65BDEA"/>
<stop offset="0.074" stop-color="#64BDEA"/>
<stop offset="0.078" stop-color="#63BCEA"/>
<stop offset="0.082" stop-color="#62BCEA"/>
<stop offset="0.086" stop-color="#61BCEA"/>
<stop offset="0.09" stop-color="#60BBE9"/>
<stop offset="0.094" stop-color="#5FBAE9"/>
<stop offset="0.098" stop-color="#5EBAE9"/>
<stop offset="0.102" stop-color="#5DBAE9"/>
<stop offset="0.105" stop-color="#5CB9E9"/>
<stop offset="0.109" stop-color="#5BB9E9"/>
<stop offset="0.113" stop-color="#5AB9E9"/>
<stop offset="0.117" stop-color="#58B9E9"/>
<stop offset="0.121" stop-color="#57B8E8"/>
<stop offset="0.125" stop-color="#56B8E8"/>
<stop offset="0.129" stop-color="#55B8E8"/>
<stop offset="0.133" stop-color="#54B8E8"/>
<stop offset="0.137" stop-color="#53B7E8"/>
<stop offset="0.141" stop-color="#52B7E8"/>
<stop offset="0.144" stop-color="#50B7E8"/>
<stop offset="0.148" stop-color="#4FB6E8"/>
<stop offset="0.152" stop-color="#4EB6E7"/>
<stop offset="0.156" stop-color="#4DB5E7"/>
<stop offset="0.16" stop-color="#4BB5E7"/>
<stop offset="0.164" stop-color="#4AB5E7"/>
<stop offset="0.168" stop-color="#49B4E7"/>
<stop offset="0.172" stop-color="#48B4E7"/>
<stop offset="0.176" stop-color="#46B4E7"/>
<stop offset="0.18" stop-color="#45B4E7"/>
<stop offset="0.184" stop-color="#43B3E6"/>
<stop offset="0.188" stop-color="#41B3E6"/>
<stop offset="0.191" stop-color="#40B3E6"/>
<stop offset="0.195" stop-color="#3EB2E6"/>
<stop offset="0.199" stop-color="#3DB2E6"/>
<stop offset="0.203" stop-color="#3BB1E6"/>
<stop offset="0.207" stop-color="#3AB1E6"/>
<stop offset="0.211" stop-color="#38B1E6"/>
<stop offset="0.215" stop-color="#36B0E5"/>
<stop offset="0.219" stop-color="#34B0E5"/>
<stop offset="0.223" stop-color="#32B0E5"/>
<stop offset="0.227" stop-color="#30B0E5"/>
<stop offset="0.231" stop-color="#2EAFE5"/>
<stop offset="0.234" stop-color="#2CAFE5"/>
<stop offset="0.238" stop-color="#2AAFE5"/>
<stop offset="0.242" stop-color="#27AEE4"/>
<stop offset="0.246" stop-color="#25AEE4"/>
<stop offset="0.25" stop-color="#23AEE4"/>
<stop offset="0.254" stop-color="#20ADE4"/>
<stop offset="0.258" stop-color="#1CADE4"/>
<stop offset="0.262" stop-color="#19ACE4"/>
<stop offset="0.266" stop-color="#16ACE4"/>
<stop offset="0.27" stop-color="#0FACE4"/>
<stop offset="0.273" stop-color="#0AABE3"/>
<stop offset="0.277" stop-color="#06ABE3"/>
<stop offset="0.281" stop-color="#01ABE3"/>
<stop offset="0.297" stop-color="#00AAE3"/>
<stop offset="0.313" stop-color="#00A9E2"/>
<stop offset="0.328" stop-color="#00A8E2"/>
<stop offset="0.344" stop-color="#00A7E1"/>
<stop offset="0.359" stop-color="#00A6E1"/>
<stop offset="0.375" stop-color="#00A5E0"/>
<stop offset="0.379" stop-color="#00A4E0"/>
<stop offset="0.383" stop-color="#00A3E0"/>
<stop offset="0.398" stop-color="#00A2E0"/>
<stop offset="0.414" stop-color="#00A1DF"/>
<stop offset="0.43" stop-color="#00A0DF"/>
<stop offset="0.445" stop-color="#009FDE"/>
<stop offset="0.461" stop-color="#009EDE"/>
<stop offset="0.477" stop-color="#009DDD"/>
<stop offset="0.492" stop-color="#009CDD"/>
<stop offset="0.508" stop-color="#009BDD"/>
<stop offset="0.523" stop-color="#009ADC"/>
<stop offset="0.547" stop-color="#0099DC"/>
<stop offset="0.563" stop-color="#0099DB"/>
<stop offset="0.57" stop-color="#0098DB"/>
<stop offset="0.586" stop-color="#0097DA"/>
<stop offset="0.602" stop-color="#0096DA"/>
<stop offset="0.617" stop-color="#0095DA"/>
<stop offset="0.621" stop-color="#0094D9"/>
<stop offset="0.625" stop-color="#0094D8"/>
<stop offset="0.629" stop-color="#0093D8"/>
<stop offset="0.637" stop-color="#0092D7"/>
<stop offset="0.648" stop-color="#0091D6"/>
<stop offset="0.652" stop-color="#0090D5"/>
<stop offset="0.66" stop-color="#008FD4"/>
<stop offset="0.672" stop-color="#008ED4"/>
<stop offset="0.68" stop-color="#008ED3"/>
<stop offset="0.684" stop-color="#008CD2"/>
<stop offset="0.695" stop-color="#008BD1"/>
<stop offset="0.707" stop-color="#0089D0"/>
<stop offset="0.711" stop-color="#0089CF"/>
<stop offset="0.719" stop-color="#0088CF"/>
<stop offset="0.723" stop-color="#0088CE"/>
<stop offset="0.727" stop-color="#0087CD"/>
<stop offset="0.731" stop-color="#0086CD"/>
<stop offset="0.738" stop-color="#0085CC"/>
<stop offset="0.75" stop-color="#0085CB"/>
<stop offset="0.754" stop-color="#0084CA"/>
<stop offset="0.758" stop-color="#0083CA"/>
<stop offset="0.762" stop-color="#0082C9"/>
<stop offset="0.773" stop-color="#0081C9"/>
<stop offset="0.777" stop-color="#0080C8"/>
<stop offset="0.785" stop-color="#007FC7"/>
<stop offset="0.797" stop-color="#007EC6"/>
<stop offset="0.801" stop-color="#007DC5"/>
<stop offset="0.809" stop-color="#007CC4"/>
<stop offset="0.82" stop-color="#007BC4"/>
<stop offset="0.828" stop-color="#007BC3"/>
<stop offset="0.832" stop-color="#0079C2"/>
<stop offset="0.844" stop-color="#0078C1"/>
<stop offset="0.856" stop-color="#0077C0"/>
<stop offset="0.859" stop-color="#0076BF"/>
<stop offset="0.871" stop-color="#0075BE"/>
<stop offset="0.875" stop-color="#0074BE"/>
<stop offset="0.879" stop-color="#0074BD"/>
<stop offset="0.883" stop-color="#0073BD"/>
<stop offset="0.891" stop-color="#0073BC"/>
<stop offset="0.894" stop-color="#0072BC"/>
<stop offset="0.898" stop-color="#0071BB"/>
<stop offset="0.906" stop-color="#0070BB"/>
<stop offset="0.914" stop-color="#0070BA"/>
<stop offset="0.918" stop-color="#006FBA"/>
<stop offset="0.922" stop-color="#006EB9"/>
<stop offset="0.934" stop-color="#006DB8"/>
<stop offset="0.941" stop-color="#006CB7"/>
<stop offset="0.945" stop-color="#006BB7"/>
<stop offset="0.957" stop-color="#006AB6"/>
<stop offset="0.965" stop-color="#0069B5"/>
<stop offset="0.969" stop-color="#0068B5"/>
<stop offset="0.981" stop-color="#0067B4"/>
<stop offset="0.984" stop-color="#0067B3"/>
<stop offset="1" stop-color="#0066B3"/>
</linearGradient>
<clipPath id="clip0">
<rect width="502" height="146" fill="white"/>
</clipPath>
</defs>
</svg>
