<svg width="536" height="154" viewBox="0 0 536 154" fill="none" xmlns="http://www.w3.org/2000/svg">
<path d="M467.696 20.927H468.583V37.7112H467.696V20.927ZM481.186 20.515C476.151 20.515 472.352 24.3156 472.352 29.3192C472.352 34.3543 476.151 38.1229 481.186 38.1229C486.222 38.1229 490.022 34.3543 490.022 29.319C490.022 24.3156 486.222 20.515 481.186 20.515ZM481.186 37.2994C476.658 37.2994 473.238 33.8794 473.238 29.3192C473.238 24.7586 476.658 21.339 481.186 21.339C485.715 21.339 489.136 24.7586 489.136 29.3192C489.136 33.8794 485.715 37.2994 481.186 37.2994ZM506.775 22.1937C504.874 20.6419 502.595 20.515 501.423 20.515C498.763 20.515 495.817 21.7505 494.773 24.1573H494.709V20.927H493.822V37.7112H494.709V28.052C494.709 23.8402 497.306 21.3387 501.518 21.3387C504.051 21.3387 505.412 22.162 506.268 22.9218C507.534 24.0619 508.326 25.9301 508.326 28.8431V37.7109H509.213V28.8433C509.213 25.8355 508.422 23.5868 506.775 22.1937ZM514.122 20.927H515.008V37.7112H514.122V20.927ZM527.612 37.2994C523.337 37.2994 519.663 34.0689 519.663 29.3192C519.663 27.039 520.613 24.8222 521.975 23.5865C523.717 22.0351 525.268 21.339 527.644 21.339C530.937 21.339 533.851 23.1752 534.991 26.3736H535.973C534.643 22.4152 531.032 20.515 527.612 20.515C522.513 20.515 518.776 24.3785 518.776 29.3509C518.776 34.5763 522.734 38.1229 527.612 38.1229C531.603 38.1229 534.769 35.8429 535.941 32.4224H534.96C534.136 34.9246 531.412 37.2994 527.612 37.2994Z" fill="#4E8EF7"/>
<path d="M468.139 16.681C468.668 16.681 469.097 16.2524 469.097 15.7237C469.097 15.195 468.668 14.7664 468.139 14.7664C467.611 14.7664 467.182 15.195 467.182 15.7237C467.182 16.2524 467.611 16.681 468.139 16.681Z" fill="#4E8EF7"/>
<path d="M514.564 16.681C515.093 16.681 515.522 16.2524 515.522 15.7237C515.522 15.195 515.093 14.7664 514.564 14.7664C514.036 14.7664 513.607 15.195 513.607 15.7237C513.607 16.2524 514.036 16.681 514.564 16.681Z" fill="#4E8EF7"/>
<path d="M434.47 35.2005C439.306 35.2005 443.226 31.2805 443.226 26.4449C443.226 21.6093 439.306 17.6892 434.47 17.6892C429.634 17.6892 425.714 21.6093 425.714 26.4449C425.714 31.2805 429.634 35.2005 434.47 35.2005Z" fill="#4E8EF7"/>
<path d="M452.337 11.5879C452.337 9.92482 450.989 8.57717 449.326 8.57717C448.601 8.57673 447.901 8.83891 447.355 9.31513C443.765 6.60733 439.301 5 434.468 5C422.643 5 413.023 14.6202 413.023 26.4452C413.023 38.2697 422.644 47.8902 434.469 47.8902C446.294 47.8902 455.914 38.2697 455.914 26.4452C455.914 21.6124 454.307 17.1486 451.599 13.5582C452.075 13.0124 452.338 12.3123 452.337 11.5879ZM434.468 47.1688C423.041 47.1688 413.744 37.8719 413.744 26.4447C413.744 15.018 423.041 5.72115 434.469 5.72115C439.115 5.72115 443.408 7.25834 446.869 9.85059C446.508 10.358 446.314 10.9651 446.315 11.5876C446.315 13.2505 447.663 14.5981 449.325 14.5981C449.973 14.5981 450.571 14.392 451.062 14.0442C453.655 17.5043 455.192 21.7979 455.192 26.4445C455.192 37.8719 445.896 47.1686 434.468 47.1686V47.1688Z" fill="#4E8EF7"/>
<path d="M265.573 31.6253L265.573 31.6256C264.591 26.7223 261.595 22.5454 257.481 19.9953C257.48 19.9953 257.479 19.9945 257.479 19.9944L257.474 19.9917C257.473 19.9907 257.472 19.9899 257.47 19.9891C257.088 19.7526 256.697 19.5306 256.298 19.3236L245.274 13.8045V13.8048V13.8045L245.274 13.8042L244.682 13.5075C244.647 13.4908 244.613 13.4739 244.578 13.4566H244.578C244.576 13.4553 244.574 13.454 244.571 13.4529H244.571C244.568 13.4516 244.566 13.4503 244.563 13.449L244.557 13.4458L244.556 13.4452L244.55 13.4422L244.549 13.4414L244.543 13.4387L244.541 13.4377L244.537 13.4354C244.536 13.4349 244.535 13.4344 244.534 13.4339L244.531 13.4324C244.529 13.4316 244.528 13.431 244.526 13.4301C243.382 12.8427 242.406 11.9752 241.688 10.9085C240.878 9.70408 240.406 8.25438 240.406 6.69435C240.406 3.7955 242.038 1.27778 244.435 0.00738525L240.877 1.82319C235.021 4.74225 231 10.7844 231 17.765L231.264 20.8277H231.264L231.264 20.827L231.278 20.8315L231.264 20.8277C232.224 26.3573 235.736 31.0124 240.546 33.5367L240.546 33.5371L240.552 33.5404L240.554 33.5409C240.556 33.5419 240.558 33.5434 240.56 33.5442C240.562 33.546 240.565 33.5475 240.568 33.5489L240.587 33.5585L240.589 33.5598L240.594 33.5622L240.597 33.5641L240.601 33.5663L240.605 33.5681L240.609 33.5703L240.613 33.5727L240.616 33.5742C240.619 33.5755 240.621 33.5769 240.624 33.5783L241.729 34.1318C241.728 34.1288 241.727 34.1255 241.726 34.1223L241.73 34.1321L241.729 34.1318L241.73 34.1322L243.045 34.7904L252.24 39.3941C254.77 40.6195 256.516 43.209 256.516 46.2065V46.2586C256.516 46.2607 256.516 46.2631 256.516 46.2654V46.276L256.516 46.2801V46.2934L256.516 46.2969V46.3065L256.516 46.3106V46.3133L256.515 46.3287V46.3301C256.484 48.2823 255.712 50.0551 254.468 51.38C253.896 51.9904 253.226 52.5019 252.487 52.894L254.771 51.7284L256.045 51.0793C261.9 48.1594 265.922 42.1169 265.922 35.1359L265.573 31.6253Z" fill="#7CBA3D"/>
<path d="M231 17.7648C231 10.7845 235.021 4.74226 240.877 1.82306L244.435 0.00738525C242.038 1.27792 240.406 3.7955 240.406 6.69421C240.406 8.25439 240.878 9.70408 241.688 10.9085C240.483 13.9224 239.781 17.0147 239.545 20.092C237.977 20.8835 236.245 21.2951 234.489 21.2936C234.315 21.2936 234.14 21.2895 233.964 21.2813C233.049 21.2402 232.142 21.0878 231.264 20.8277L231 17.7648ZM256.517 46.2142V46.2065V46.2142ZM256.517 46.2227V46.2161V46.2227ZM256.516 46.2314L256.517 46.2239L256.516 46.2314ZM256.516 46.2393V46.2333V46.2393ZM256.516 46.2482V46.241V46.2482ZM256.516 46.256V46.2505V46.256ZM256.516 46.2654V46.2586V46.2654ZM256.516 46.2725V46.2683V46.2724V46.2725ZM256.516 46.2804L256.516 46.2762V46.2803L256.516 46.2804ZM256.516 46.2896V46.2859V46.2896ZM256.516 46.2971L256.516 46.2935L256.516 46.2971ZM256.516 46.3066V46.3031V46.3066ZM256.516 46.3135V46.3107V46.3135ZM256.516 46.3301V46.3288V46.3301Z" fill="#C5D83E"/>
<path d="M241.73 34.1322L240.624 33.5785C240.622 33.577 240.619 33.5757 240.616 33.5744L240.613 33.5729L240.609 33.5704L240.605 33.5682C240.604 33.5676 240.603 33.567 240.601 33.5665C240.6 33.5657 240.599 33.565 240.597 33.5643L240.594 33.5624L240.589 33.5599L240.587 33.5587L240.569 33.5491C240.565 33.5478 240.563 33.5463 240.56 33.5445L240.554 33.5411L240.553 33.5405L240.546 33.5373L240.546 33.5368C235.736 31.0124 232.224 26.357 231.264 20.8271C232.143 21.0873 233.05 21.2397 233.965 21.2809C234.14 21.2891 234.315 21.2931 234.489 21.2931C236.245 21.2946 237.977 20.8829 239.545 20.0915C239.173 24.9322 239.952 29.7348 241.73 34.1322" fill="url(#paint0_linear)"/>
<path d="M245.274 13.8043L244.682 13.5076C244.647 13.4909 244.613 13.474 244.578 13.4567H244.578C244.576 13.4554 244.573 13.4541 244.571 13.453H244.571C244.568 13.4517 244.566 13.4504 244.563 13.4492L244.557 13.4459L244.556 13.4453L244.55 13.4423L244.549 13.4415L244.543 13.4388L244.541 13.4378L244.537 13.4355C244.536 13.435 244.535 13.4345 244.534 13.434L244.531 13.4325C244.529 13.4317 244.528 13.4311 244.526 13.4302C243.382 12.8428 242.406 11.9753 241.688 10.9086C240.482 13.9225 239.781 17.0148 239.545 20.0921C241.594 19.0569 243.279 17.4226 244.376 15.4068L245.274 13.8043ZM265.573 31.6254C261.378 34.397 256.361 36.0035 251.002 36.0035C250.594 36.0035 250.183 35.9942 249.772 35.9752C247.488 35.8715 245.227 35.4733 243.045 34.7905L252.24 39.3942C254.77 40.6197 256.516 43.2091 256.516 46.2066V46.2587C256.516 46.2609 256.516 46.2632 256.516 46.2655V46.2762L256.516 46.2803V46.2935L256.516 46.297V46.3066L256.515 46.3107V46.3134L256.515 46.3289V46.3302C256.484 48.2825 255.712 50.0553 254.468 51.3801C253.896 51.9905 253.226 52.5021 252.486 52.8942L254.771 51.7285L256.045 51.0794C261.9 48.1596 265.922 42.117 265.922 35.136L265.573 31.6254Z" fill="url(#paint1_linear)"/>
<path d="M251.002 36.0037C250.594 36.0037 250.184 35.9944 249.772 35.9754C247.488 35.8718 245.227 35.4736 243.045 34.7908L241.73 34.1326C239.952 29.7352 239.173 24.9327 239.544 20.0925C241.594 19.0573 243.279 17.423 244.376 15.4072L245.274 13.8049L256.298 19.324C256.698 19.5317 257.091 19.7546 257.474 19.992L257.479 19.9948L257.481 19.9957C261.595 22.5458 264.591 26.7227 265.573 31.6259C261.378 34.3972 256.361 36.0037 251.002 36.0037" fill="url(#paint2_linear)"/>
<path d="M282.51 30.2759C282.51 29.6493 282.286 29.161 281.839 28.811C281.399 28.4611 280.622 28.099 279.507 27.7246C278.392 27.3503 277.481 26.9881 276.773 26.6382C274.47 25.507 273.318 23.9526 273.318 21.9751C273.318 20.9904 273.603 20.1237 274.173 19.375C274.751 18.6182 275.564 18.0322 276.614 17.6172C277.664 17.194 278.844 16.9824 280.154 16.9824C281.432 16.9824 282.575 17.2103 283.584 17.666C284.602 18.1217 285.391 18.7728 285.953 19.6191C286.514 20.4574 286.795 21.4176 286.795 22.5H282.522C282.522 21.7757 282.299 21.2142 281.851 20.8154C281.412 20.4167 280.813 20.2173 280.057 20.2173C279.292 20.2173 278.685 20.3882 278.238 20.73C277.798 21.0636 277.579 21.4909 277.579 22.0117C277.579 22.4674 277.823 22.8825 278.311 23.2568C278.799 23.623 279.658 24.0055 280.887 24.4043C282.116 24.7949 283.125 25.2181 283.914 25.6738C285.835 26.7806 286.795 28.3065 286.795 30.2515C286.795 31.8058 286.209 33.0265 285.037 33.9136C283.865 34.8006 282.258 35.2441 280.215 35.2441C278.775 35.2441 277.469 34.9878 276.297 34.4751C275.133 33.9543 274.254 33.2463 273.66 32.3511C273.074 31.4478 272.781 30.4102 272.781 29.2383H277.078C277.078 30.1904 277.322 30.8944 277.811 31.3501C278.307 31.7977 279.109 32.0215 280.215 32.0215C280.923 32.0215 281.481 31.8709 281.888 31.5698C282.303 31.2606 282.51 30.8293 282.51 30.2759ZM294.943 35.2441C292.917 35.2441 291.277 34.6419 290.024 33.4375C288.771 32.2249 288.144 30.6502 288.144 28.7134V28.3716C288.144 27.0207 288.392 25.8285 288.889 24.7949C289.393 23.7614 290.126 22.9639 291.086 22.4023C292.046 21.8327 293.186 21.5479 294.504 21.5479C296.359 21.5479 297.824 22.1257 298.898 23.2812C299.973 24.4287 300.51 26.0319 300.51 28.0908V29.6899H292.331C292.478 30.4305 292.799 31.0124 293.295 31.4355C293.792 31.8587 294.435 32.0703 295.224 32.0703C296.526 32.0703 297.543 31.6146 298.276 30.7031L300.156 32.9248C299.643 33.6328 298.915 34.1984 297.971 34.6216C297.035 35.0366 296.026 35.2441 294.943 35.2441ZM294.479 24.7217C293.275 24.7217 292.559 25.5192 292.331 27.1143H296.481V26.7969C296.498 26.1377 296.331 25.6291 295.981 25.271C295.631 24.9048 295.131 24.7217 294.479 24.7217ZM305.704 21.792L305.838 23.3423C306.75 22.146 308.007 21.5479 309.61 21.5479C310.986 21.5479 312.011 21.9588 312.687 22.7808C313.37 23.6027 313.724 24.8397 313.749 26.4917V35H309.623V26.6626C309.623 25.9953 309.488 25.507 309.22 25.1978C308.951 24.8804 308.463 24.7217 307.755 24.7217C306.949 24.7217 306.351 25.0391 305.96 25.6738V35H301.847V21.792H305.704ZM321.372 32.0703C321.95 32.0703 322.397 31.9157 322.715 31.6064C323.032 31.2891 323.187 30.8496 323.179 30.2881H327.036C327.036 31.7367 326.515 32.9248 325.474 33.8525C324.44 34.7803 323.105 35.2441 321.47 35.2441C319.549 35.2441 318.035 34.6419 316.929 33.4375C315.822 32.2331 315.269 30.5648 315.269 28.4326V28.2617C315.269 26.9271 315.513 25.7511 316.001 24.7339C316.497 23.7085 317.209 22.9232 318.137 22.3779C319.065 21.8245 320.164 21.5479 321.433 21.5479C323.15 21.5479 324.513 22.0239 325.522 22.9761C326.532 23.9282 327.036 25.2181 327.036 26.8457H323.179C323.179 26.1621 323.012 25.6372 322.678 25.271C322.345 24.9048 321.897 24.7217 321.335 24.7217C320.269 24.7217 319.647 25.4012 319.468 26.7603C319.411 27.1916 319.382 27.7856 319.382 28.5425C319.382 29.869 319.541 30.7886 319.858 31.3013C320.176 31.814 320.68 32.0703 321.372 32.0703ZM332.548 23.208C333.427 22.1012 334.55 21.5479 335.917 21.5479C337.374 21.5479 338.472 21.9792 339.213 22.8418C339.953 23.7044 340.332 24.978 340.348 26.6626V35H336.222V26.7603C336.222 26.0604 336.08 25.5477 335.795 25.2222C335.51 24.8885 335.026 24.7217 334.342 24.7217C333.496 24.7217 332.898 24.9902 332.548 25.5273V35H328.434V16.25H332.548V23.208ZM349.827 35C349.681 34.7314 349.55 34.3368 349.437 33.8159C348.68 34.7681 347.622 35.2441 346.263 35.2441C345.018 35.2441 343.96 34.8698 343.089 34.1211C342.218 33.3643 341.783 32.4162 341.783 31.2769C341.783 29.8446 342.312 28.7622 343.37 28.0298C344.428 27.2974 345.966 26.9312 347.984 26.9312H349.253V26.2354C349.253 25.0228 348.729 24.4165 347.679 24.4165C346.702 24.4165 346.214 24.8966 346.214 25.8569H342.1C342.1 24.5793 342.641 23.5417 343.724 22.7441C344.814 21.9466 346.202 21.5479 347.886 21.5479C349.571 21.5479 350.901 21.9588 351.878 22.7808C352.854 23.6027 353.355 24.7298 353.379 26.1621V32.0093C353.396 33.2218 353.583 34.1496 353.941 34.7925V35H349.827ZM347.251 32.3145C347.764 32.3145 348.187 32.2046 348.521 31.9849C348.863 31.7651 349.107 31.5169 349.253 31.2402V29.1284H348.057C346.625 29.1284 345.909 29.7713 345.909 31.0571C345.909 31.4315 346.035 31.7367 346.287 31.9727C346.539 32.2005 346.861 32.3145 347.251 32.3145Z" fill="#464646"/>
<path fill-rule="evenodd" clip-rule="evenodd" d="M72.1216 37.4809L67.8539 29.2877L63.4887 37.4809H58.7947L65.4501 26.9067L59.4607 16.3977H64.2196L68.1056 24.3819L72.3165 16.3977H76.6694L70.5176 26.8416L76.7668 37.4809H72.1216ZM87.3397 37.4809V35.1863H87.2747C86.1161 36.9872 84.4757 37.8877 82.3534 37.8877C80.7184 37.8877 79.4298 37.4429 78.4878 36.5533C77.5458 35.6528 77.0748 34.4485 77.0748 32.9405C77.0748 29.7074 78.8885 27.8684 82.5158 27.4236L87.3722 26.7563C87.3722 24.4889 86.3219 23.3551 84.2213 23.3551C82.2181 23.3551 80.3773 23.9735 78.699 25.2103V21.8904C79.327 21.5107 80.2257 21.169 81.3951 20.8652C82.5754 20.5614 83.6474 20.4095 84.6111 20.4095C88.8989 20.4095 91.0428 22.5794 91.0429 26.9191V37.4809H87.3397ZM83.7827 29.8484C82.6674 29.9894 81.8824 30.2661 81.4276 30.6784C80.9837 31.0798 80.7617 31.7036 80.7617 32.5499C80.7617 33.2442 81.0162 33.8138 81.5251 34.2586C82.034 34.6926 82.6999 34.9096 83.5228 34.9096C84.6381 34.9096 85.5585 34.5244 86.284 33.7541C87.0094 32.9838 87.3722 32.0237 87.3722 30.8737V29.3764L83.7827 29.8484ZM114.99 37.4809V28.0745C114.99 26.5231 114.746 25.3731 114.259 24.6245C113.783 23.865 112.927 23.4853 111.693 23.4853C110.707 23.4853 109.879 23.941 109.208 24.8523C108.536 25.7528 108.201 26.8432 108.201 28.1234V37.4809H104.449V27.7491C104.449 24.9065 103.361 23.4853 101.184 23.4853C100.166 23.4853 99.3272 23.9138 98.6667 24.7709C98.017 25.628 97.6922 26.7455 97.6922 28.1234V37.4809H93.9403V20.8164H97.6922V23.3876H97.7572C98.9591 21.4022 100.713 20.4095 103.02 20.4095C104.124 20.4095 105.099 20.7025 105.943 21.2883C106.799 21.8633 107.4 22.6607 107.746 23.6806C109.013 21.4999 110.875 20.4095 113.333 20.4095C116.95 20.4095 118.758 22.6662 118.758 27.1795V37.4809H114.99ZM131.231 37.4809V35.1863H131.166C130.008 36.9872 128.367 37.8877 126.245 37.8877C124.61 37.8877 123.321 37.4429 122.379 36.5533C121.437 35.6528 120.966 34.4485 120.966 32.9405C120.966 29.7074 122.78 27.8684 126.407 27.4236L131.264 26.7563C131.264 24.4889 130.213 23.3551 128.113 23.3551C126.11 23.3551 124.269 23.9735 122.59 25.2103V21.8904C123.219 21.5107 124.117 21.169 125.287 20.8652C126.467 20.5614 127.539 20.4095 128.503 20.4095C132.79 20.4095 134.934 22.5794 134.934 26.9191V37.4809H131.231ZM127.674 29.8484C126.559 29.9894 125.774 30.2661 125.319 30.6784C124.875 31.0798 124.653 31.7036 124.653 32.5499C124.653 33.2442 124.908 33.8138 125.417 34.2586C125.925 34.6926 126.591 34.9096 127.414 34.9096C128.53 34.9096 129.45 34.5244 130.176 33.7541C130.901 32.9838 131.264 32.0237 131.264 30.8737V29.3764L127.674 29.8484ZM147.502 24.478C146.885 24.0983 146.16 23.9084 145.326 23.9084C144.243 23.9084 143.36 24.3749 142.678 25.308C142.007 26.241 141.671 27.4561 141.671 28.9533V37.4809H137.919V20.8164H141.671V24.0549H141.736C142.538 21.7006 143.956 20.5234 145.992 20.5234C146.652 20.5234 147.156 20.5994 147.502 20.7513L147.502 24.478ZM151.237 17.0896C150.598 17.0896 150.057 16.8835 149.613 16.4712C149.169 16.0481 148.947 15.5328 148.947 14.9252C148.947 14.2959 149.169 13.7698 149.613 13.3466C150.057 12.9235 150.598 12.7119 151.237 12.7119C151.887 12.7119 152.434 12.9289 152.878 13.3629C153.322 13.786 153.544 14.3068 153.544 14.9252C153.544 15.5328 153.322 16.0481 152.878 16.4712C152.434 16.8835 151.887 17.0896 151.237 17.0896ZM149.321 37.4809V20.8164H153.073V37.4809H149.321ZM167.253 37.4809V28.1234C167.253 25.0313 166.143 23.4853 163.923 23.4853C162.808 23.4853 161.871 23.9138 161.113 24.7709C160.366 25.6172 159.992 26.6967 159.992 28.0094V37.4809H156.24V20.8164H159.992V23.4853H160.057C161.27 21.4348 163.068 20.4095 165.45 20.4095C169.153 20.4095 171.004 22.6879 171.005 27.2446V37.4809H167.253ZM18.1756 8C17.036 8.00242 15.9204 8.65141 15.3467 9.64147L6.42358 25.1916C5.85881 26.1843 5.85881 27.4818 6.42358 28.4745L15.3467 44.0247C15.9204 45.0147 17.036 45.6639 18.1756 45.6661H36.0217C37.1614 45.6637 38.2769 45.0147 38.8507 44.0247L47.7737 28.4745C48.3385 27.4818 48.3385 26.1843 47.7737 25.1916L38.8507 9.64147C38.2769 8.65141 37.1614 8.00224 36.0217 8H18.1756ZM18.3376 17.097C18.3621 17.0946 18.3878 17.0946 18.4124 17.097H21.4906C21.6268 17.0998 21.759 17.1788 21.827 17.2975L27.0488 26.6326C27.0751 26.6787 27.092 26.7302 27.0985 26.7829C27.1049 26.7302 27.1218 26.6787 27.1481 26.6326L32.3574 17.2975C32.4276 17.1752 32.5659 17.0958 32.7063 17.097H35.7845C36.057 17.0994 36.2612 17.4439 36.1334 17.6859L31.0364 26.8331L36.1334 35.9677C36.2732 36.2111 36.0641 36.5715 35.7845 36.5691H32.7063C32.5635 36.5679 32.4243 36.483 32.3574 36.3561L27.1481 27.021C27.1218 26.9749 27.1049 26.9234 27.0985 26.8707C27.092 26.9235 27.0751 26.9749 27.0488 27.021L21.827 36.3561C21.7621 36.4794 21.6292 36.5635 21.4906 36.5691H18.4124C18.1328 36.5716 17.9237 36.2111 18.0635 35.9677L23.1605 26.8331L18.0635 17.6859C17.9413 17.4651 18.0904 17.1442 18.3376 17.097Z" fill="#3498DB"/>
<path d="M269.545 131.875H261.611L262.168 125.179H258.27L257.713 131.875H241.287L240.73 125.179H236.833L237.39 131.875H229.454L225 102.86L236.136 85.005H262.864L274 102.86L269.545 131.875ZM260.636 93.9325H253.477L253.955 97.2804H245.045L245.523 93.9325H238.364L233.909 102.86L236.136 120.715H262.864L265.091 102.86L260.636 93.9325ZM256.739 114.79C256.124 114.79 255.625 112.931 255.625 110.638C255.625 108.346 256.124 106.487 256.739 106.487C257.354 106.487 257.852 108.346 257.852 110.638C257.852 112.931 257.354 114.79 256.739 114.79ZM242.679 115.136C242.064 115.136 241.565 113.277 241.565 110.984C241.565 108.692 242.064 106.833 242.679 106.833C243.294 106.833 243.793 108.692 243.793 110.984C243.793 113.277 243.294 115.136 242.679 115.136Z" fill="#444444"/>
<path d="M227.425 146.1C228.575 146.1 229.555 145.69 230.205 144.93L229.365 144.13C228.855 144.69 228.225 144.96 227.495 144.96C226.045 144.96 224.995 143.94 224.995 142.5C224.995 141.06 226.045 140.04 227.495 140.04C228.225 140.04 228.855 140.31 229.365 140.86L230.205 140.07C229.555 139.31 228.575 138.9 227.435 138.9C225.285 138.9 223.685 140.41 223.685 142.5C223.685 144.59 225.285 146.1 227.425 146.1ZM234.374 146.1C236.544 146.1 238.144 144.58 238.144 142.5C238.144 140.42 236.544 138.9 234.374 138.9C232.204 138.9 230.604 140.43 230.604 142.5C230.604 144.57 232.204 146.1 234.374 146.1ZM234.374 144.96C232.964 144.96 231.914 143.93 231.914 142.5C231.914 141.07 232.964 140.04 234.374 140.04C235.784 140.04 236.834 141.07 236.834 142.5C236.834 143.93 235.784 144.96 234.374 144.96ZM245.302 146L243.692 143.7C244.642 143.33 245.182 142.55 245.182 141.49C245.182 139.94 244.042 139 242.202 139H239.322V146H240.622V143.96H242.202C242.292 143.96 242.382 143.96 242.472 143.95L243.902 146H245.302ZM243.872 141.49C243.872 142.37 243.282 142.89 242.142 142.89H240.622V140.1H242.142C243.282 140.1 243.872 140.61 243.872 141.49ZM246.436 146H249.496C251.766 146 253.316 144.6 253.316 142.5C253.316 140.4 251.766 139 249.496 139H246.436V146ZM247.736 144.9V140.1H249.436C250.996 140.1 252.006 141.05 252.006 142.5C252.006 143.95 250.996 144.9 249.436 144.9H247.736ZM257.768 146.1C259.938 146.1 261.538 144.58 261.538 142.5C261.538 140.42 259.938 138.9 257.768 138.9C255.598 138.9 253.998 140.43 253.998 142.5C253.998 144.57 255.598 146.1 257.768 146.1ZM257.768 144.96C256.358 144.96 255.308 143.93 255.308 142.5C255.308 141.07 256.358 140.04 257.768 140.04C259.178 140.04 260.228 141.07 260.228 142.5C260.228 143.93 259.178 144.96 257.768 144.96ZM267.591 139L265.241 144.4L262.911 139H261.501L264.561 146H265.841L268.891 139H267.591ZM274.445 146H275.805L272.645 139H271.365L268.215 146H269.555L270.245 144.38H273.745L274.445 146ZM270.685 143.36L271.995 140.3L273.315 143.36H270.685Z" fill="#444444"/>
<g clip-path="url(#clip0)">
<path d="M13.052 116.428L6 109.498L28.8978 87H43L13.052 116.428ZM43 107.761H28.8978L23.6153 112.952L30.6673 119.882" fill="#42A5F5" fill-opacity="0.8"/>
<path d="M23.6152 126.809L28.8978 132H43L30.6673 119.881" fill="#0D47A1"/>
<path d="M16.58 119.885L23.6209 112.965L30.6618 119.883L23.6209 126.804L16.58 119.885Z" fill="#42A5F5"/>
<path d="M23.6208 126.804L30.6618 119.885L31.6446 120.851L24.6037 127.769L23.6208 126.804Z" fill="url(#paint3_linear)"/>
<path d="M23.6152 126.809L34.0785 123.257L30.6673 119.88" fill="url(#paint4_linear)"/>
</g>
<path d="M13.0689 141.09V140H7.95895V147H9.25895V144.32H12.6389V143.22H9.25895V141.09H13.0689ZM14.1261 147H19.0861V145.9H15.4261V140H14.1261V147ZM22.8248 147.1C24.7348 147.1 25.8848 145.99 25.8848 143.95V140H24.6048V143.9C24.6048 145.34 23.9648 145.96 22.8348 145.96C21.7048 145.96 21.0548 145.34 21.0548 143.9V140H19.7548V143.95C19.7548 145.99 20.9048 147.1 22.8248 147.1ZM28.7985 147H30.0985V141.1H32.4185V140H26.4785V141.1H28.7985V147ZM34.7118 147H36.0118V141.1H38.3318V140H32.3918V141.1H34.7118V147ZM40.4074 145.91V143.98H43.7874V142.91H40.4074V141.09H44.2174V140H39.1074V147H44.3574V145.91H40.4074ZM51.5866 147L49.9766 144.7C50.9266 144.33 51.4666 143.55 51.4666 142.49C51.4666 140.94 50.3266 140 48.4866 140H45.6066V147H46.9066V144.96H48.4866C48.5766 144.96 48.6666 144.96 48.7566 144.95L50.1866 147H51.5866ZM50.1566 142.49C50.1566 143.37 49.5666 143.89 48.4266 143.89H46.9066V141.1H48.4266C49.5666 141.1 50.1566 141.61 50.1566 142.49Z" fill="#53A2E2"/>
<path d="M108 110.903C108 115.438 112.463 119.673 119.498 122.059C118.093 129.079 119.247 134.737 123.099 136.942C127.058 139.208 132.956 137.639 138.554 132.782C144.011 137.443 149.526 139.277 153.375 137.066C157.33 134.794 158.533 128.752 157.089 121.513C164.417 119.109 168.516 115.498 168.516 110.903C168.516 106.472 164.046 102.639 157.105 100.268C158.659 92.7296 157.342 87.2089 153.331 84.9132C149.463 82.6999 143.884 84.629 138.347 89.4115C132.586 84.3353 127.062 82.7856 123.055 85.0876C119.191 87.3073 118.089 93.0683 119.498 100.218C112.7 102.57 108 106.49 108 110.903Z" fill="white"/>
<path d="M155.739 102.334C155.169 102.137 154.595 101.955 154.016 101.787C154.112 101.394 154.201 101 154.282 100.604C155.587 94.2291 154.734 89.0937 151.821 87.4032C149.029 85.7818 144.461 87.4723 139.848 91.5133C139.394 91.9124 138.949 92.323 138.515 92.7447C138.225 92.4643 137.929 92.1893 137.628 91.9199C132.794 87.5988 127.948 85.778 125.039 87.4735C122.249 89.0994 121.422 93.9274 122.597 99.9686C122.713 100.567 122.845 101.162 122.992 101.754C122.307 101.95 121.644 102.159 121.011 102.381C115.343 104.37 111.724 107.488 111.724 110.721C111.724 114.061 115.609 117.411 121.513 119.442C121.991 119.606 122.474 119.758 122.96 119.898C122.802 120.535 122.662 121.177 122.54 121.822C121.42 127.758 122.295 132.472 125.077 134.088C127.951 135.756 132.775 134.041 137.472 129.908C137.843 129.581 138.216 129.234 138.589 128.871C139.059 129.328 139.542 129.771 140.036 130.2C144.586 134.142 149.08 135.733 151.86 134.113C154.731 132.44 155.664 127.376 154.453 121.215C154.36 120.745 154.253 120.264 154.132 119.775C154.471 119.674 154.803 119.57 155.127 119.462C161.265 117.415 165.257 114.106 165.257 110.721C165.257 107.476 161.521 104.337 155.739 102.334Z" fill="#53C1DE"/>
<path d="M154.382 117.268C154.09 117.365 153.79 117.459 153.484 117.551C152.808 115.395 151.895 113.102 150.778 110.733C151.844 108.421 152.721 106.157 153.379 104.015C153.926 104.174 154.456 104.342 154.968 104.52C159.913 106.234 162.93 108.769 162.93 110.722C162.93 112.802 159.672 115.503 154.382 117.268H154.382ZM152.187 121.648C152.722 124.368 152.798 126.828 152.444 128.75C152.125 130.478 151.485 131.63 150.694 132.091C149.01 133.073 145.408 131.797 141.523 128.431C141.078 128.045 140.629 127.633 140.179 127.197C141.685 125.539 143.19 123.61 144.659 121.469C147.243 121.238 149.684 120.861 151.898 120.346C152.006 120.789 152.103 121.223 152.187 121.648ZM129.989 131.922C128.343 132.507 127.033 132.523 126.241 132.063C124.555 131.085 123.854 127.305 124.81 122.235C124.924 121.636 125.054 121.041 125.2 120.449C127.389 120.936 129.812 121.287 132.402 121.499C133.881 123.594 135.429 125.52 136.99 127.206C136.658 127.529 136.319 127.844 135.972 128.15C133.898 129.975 131.82 131.27 129.989 131.922H129.989ZM122.28 117.255C119.674 116.358 117.522 115.193 116.046 113.921C114.721 112.778 114.052 111.643 114.052 110.722C114.052 108.762 116.953 106.263 121.792 104.564C122.399 104.352 123.013 104.157 123.632 103.981C124.3 106.172 125.178 108.462 126.236 110.778C125.164 113.128 124.274 115.455 123.599 117.671C123.156 117.543 122.716 117.405 122.28 117.255ZM124.864 99.5426C123.86 94.3736 124.527 90.4746 126.205 89.4962C127.993 88.4539 131.947 89.9401 136.114 93.6658C136.38 93.9039 136.648 94.1533 136.916 94.4112C135.363 96.0901 133.829 98.0014 132.363 100.084C129.85 100.319 127.443 100.696 125.231 101.2C125.095 100.651 124.973 100.098 124.864 99.5423V99.5426ZM147.918 105.275C147.395 104.366 146.853 103.469 146.292 102.583C147.998 102.8 149.631 103.088 151.166 103.441C150.705 104.927 150.131 106.482 149.455 108.075C148.961 107.131 148.449 106.198 147.918 105.275ZM138.516 96.0541C139.569 97.2028 140.624 98.4856 141.661 99.8772C139.557 99.7771 137.449 99.7766 135.345 99.8758C136.383 98.497 137.447 97.2162 138.516 96.0541ZM129.055 105.29C128.531 106.206 128.028 107.134 127.546 108.073C126.881 106.485 126.313 104.924 125.848 103.417C127.373 103.073 128.999 102.792 130.693 102.579C130.126 103.47 129.58 104.374 129.055 105.29ZM130.742 119.029C128.992 118.832 127.341 118.565 125.817 118.231C126.288 116.697 126.87 115.102 127.549 113.48C128.032 114.42 128.537 115.349 129.064 116.265C129.601 117.199 130.161 118.121 130.742 119.029ZM138.58 125.552C137.497 124.376 136.418 123.075 135.364 121.677C136.387 121.717 137.43 121.738 138.491 121.738C139.58 121.738 140.657 121.713 141.717 121.666C140.676 123.09 139.625 124.392 138.58 125.552ZM149.477 113.398C150.191 115.037 150.793 116.623 151.272 118.132C149.722 118.488 148.049 118.774 146.286 118.987C146.851 118.086 147.398 117.173 147.927 116.249C148.464 115.31 148.981 114.359 149.477 113.398ZM145.949 115.1C145.139 116.517 144.284 117.906 143.385 119.266C141.799 119.38 140.161 119.439 138.491 119.439C136.828 119.439 135.21 119.387 133.652 119.285C132.729 117.928 131.858 116.536 131.04 115.113C130.226 113.697 129.465 112.251 128.76 110.777C129.463 109.303 130.222 107.855 131.033 106.438V106.439C131.844 105.022 132.709 103.636 133.625 102.285C135.214 102.164 136.844 102.1 138.491 102.1C140.146 102.1 141.778 102.164 143.367 102.286C144.273 103.635 145.132 105.016 145.942 106.426C146.756 107.84 147.524 109.28 148.246 110.744C147.532 112.223 146.766 113.676 145.949 115.1H145.949ZM150.659 89.4278C152.448 90.4672 153.145 94.6582 152.02 100.154C151.946 100.512 151.866 100.869 151.78 101.224C149.563 100.709 147.155 100.326 144.634 100.088C143.165 97.9819 141.644 96.0672 140.116 94.4101C140.517 94.0215 140.926 93.643 141.345 93.2749C145.291 89.8172 148.979 88.452 150.659 89.4278Z" fill="white"/>
<path d="M138.491 105.879C141.19 105.879 143.378 108.067 143.378 110.767C143.378 113.466 141.19 115.655 138.491 115.655C135.791 115.655 133.603 113.466 133.603 110.767C133.603 108.067 135.791 105.879 138.491 105.879Z" fill="#53C1DE"/>
<path d="M128.515 147L126.905 144.7C127.855 144.33 128.395 143.55 128.395 142.49C128.395 140.94 127.255 140 125.415 140H122.535V147H123.835V144.96H125.415C125.505 144.96 125.595 144.96 125.685 144.95L127.115 147H128.515ZM127.085 142.49C127.085 143.37 126.495 143.89 125.355 143.89H123.835V141.1H125.355C126.495 141.1 127.085 141.61 127.085 142.49ZM130.95 145.91V143.98H134.33V142.91H130.95V141.09H134.76V140H129.65V147H134.9V145.91H130.95ZM141.389 147H142.749L139.589 140H138.309L135.159 147H136.499L137.189 145.38H140.689L141.389 147ZM137.629 144.36L138.939 141.3L140.259 144.36H137.629ZM146.582 147.1C147.732 147.1 148.712 146.69 149.362 145.93L148.522 145.13C148.012 145.69 147.382 145.96 146.652 145.96C145.202 145.96 144.152 144.94 144.152 143.5C144.152 142.06 145.202 141.04 146.652 141.04C147.382 141.04 148.012 141.31 148.522 141.86L149.362 141.07C148.712 140.31 147.732 139.9 146.592 139.9C144.442 139.9 142.842 141.41 142.842 143.5C142.842 145.59 144.442 147.1 146.582 147.1ZM151.749 147H153.049V141.1H155.369V140H149.429V141.1H151.749V147Z" fill="#53C1DE"/>
<path d="M376.303 94.0006C376.18 90.7578 373.34 90.0776 373.34 90.0776C373.34 90.0776 363.5 88.589 359.188 88.0486C354.876 87.5053 355.144 91.7005 355.144 91.7005C355.144 91.7005 356.124 122.277 356.225 126.064C356.341 130.577 360.537 129.85 360.537 129.85L375.363 127.276C378.059 126.735 378.193 123.355 378.193 123.355C378.193 123.355 376.441 97.5406 376.303 94.0006C376.441 97.5406 376.18 90.7578 376.303 94.0006ZM372.987 119.974L361.962 121.121C361.962 121.121 358.752 121.612 358.679 117.696C358.627 114.811 357.991 98.285 357.991 98.285C357.991 98.285 357.77 95.2546 361.074 95.5031C364.446 95.7545 372.525 96.3718 372.525 96.3718C372.525 96.3718 374.689 96.8885 374.783 99.3631C374.885 102.053 375.818 116.99 375.818 116.99C375.818 116.99 376.061 119.445 372.987 119.974ZM345.998 115.519L343.961 115.665C343.961 115.665 341.906 115.944 341.859 113.687C341.826 112.024 341.62 102.583 341.62 102.583C341.62 102.583 341.478 100.836 343.591 100.979C344.127 101.014 344.886 101.063 345.725 101.113C345.696 99.5474 345.671 98.1787 345.652 97.1371C344.489 97.0491 343.401 96.9541 342.623 96.8718C339.831 96.5631 340.002 98.9162 340.002 98.9162C340.002 98.9162 340.339 116.23 340.402 118.353C340.478 120.883 343.192 120.473 343.192 120.473L346.09 120.161C346.065 118.906 346.031 117.305 345.998 115.519ZM354.098 99.782C354.09 99.5778 354.056 99.3755 353.997 99.1801C353.105 99.1076 350.867 98.5224 350.149 99.2835C349.694 99.7626 349.882 100.772 349.893 101.346L351.516 101.438C351.516 101.438 352.901 101.736 352.961 103.16C353.025 104.713 353.016 113.412 353.016 113.412C353.016 113.412 353.172 114.831 351.208 115.131L350.177 115.208C350.182 115.516 350.188 115.765 350.191 115.949C350.234 118.43 352.862 117.635 354.51 117.474C354.652 114.843 354.4 112.133 354.342 109.5C354.271 106.262 354.244 103.018 354.098 99.782C354.089 99.5614 354.187 101.762 354.098 99.782Z" fill="black"/>
<path d="M354.951 118.491L351.981 118.779C351.981 118.779 349.211 119.178 349.151 115.975C349.108 113.611 348.83 100.21 348.83 100.21C348.83 100.21 348.638 97.7322 351.48 97.9305C352.21 97.9809 353.215 98.0632 354.308 98.1512C354.226 95.5803 354.161 93.5524 354.127 92.5079C352.631 92.3612 351.22 92.2133 350.177 92.0932C346.42 91.6656 346.657 94.9991 346.657 94.9991C346.657 94.9991 347.104 119.58 347.191 122.584C347.293 126.175 350.947 125.598 350.947 125.598L355.153 125.058C355.111 123.66 355.04 121.312 354.951 118.491ZM360.994 96.548C360.468 96.5061 359.83 96.541 359.44 96.953C359.028 97.3859 359.021 98.0003 359.045 98.5561C360.535 98.6861 361.616 98.7823 361.616 98.7823C361.616 98.7823 363.477 99.2028 363.562 101.228C363.648 103.43 364.181 115.397 364.181 115.397C364.181 115.397 364.39 117.409 361.744 117.843L359.741 118.036C360.006 121.18 364.056 119.853 366.127 119.638C365.914 114.911 365.255 100.291 365.106 96.858C363.736 96.7501 362.365 96.6468 360.994 96.548C360.891 96.5397 362.036 96.6219 360.994 96.548Z" fill="black"/>
<path opacity="0.5" d="M333.566 137.894H330.686V144.894H331.986V142.874H333.566C335.406 142.874 336.546 141.924 336.546 140.384C336.546 138.834 335.406 137.894 333.566 137.894ZM333.506 141.774H331.986V138.994H333.506C334.646 138.994 335.236 139.504 335.236 140.384C335.236 141.264 334.646 141.774 333.506 141.774ZM342.564 137.894V140.784H338.944V137.894H337.644V144.894H338.944V141.894H342.564V144.894H343.864V137.894H342.564ZM348.81 144.994C350.98 144.994 352.58 143.474 352.58 141.394C352.58 139.314 350.98 137.794 348.81 137.794C346.64 137.794 345.04 139.324 345.04 141.394C345.04 143.464 346.64 144.994 348.81 144.994ZM348.81 143.854C347.4 143.854 346.35 142.824 346.35 141.394C346.35 139.964 347.4 138.934 348.81 138.934C350.22 138.934 351.27 139.964 351.27 141.394C351.27 142.824 350.22 143.854 348.81 143.854ZM358.688 137.894V142.634L354.828 137.894H353.758V144.894H355.048V140.154L358.908 144.894H359.978V137.894H358.688ZM362.953 143.804V141.874H366.333V140.804H362.953V138.984H366.763V137.894H361.653V144.894H366.903V143.804H362.953ZM372.903 143.494C372.453 143.754 371.963 143.854 371.463 143.854C369.983 143.854 368.933 142.814 368.933 141.394C368.933 139.944 369.983 138.934 371.473 138.934C372.223 138.934 372.853 139.184 373.403 139.734L374.223 138.934C373.563 138.184 372.583 137.794 371.413 137.794C369.223 137.794 367.623 139.304 367.623 141.394C367.623 143.484 369.223 144.994 371.393 144.994C372.383 144.994 373.403 144.694 374.133 144.104V141.314H372.903V143.494ZM380.888 144.894H382.248L379.088 137.894H377.808L374.658 144.894H375.998L376.688 143.274H380.188L380.888 144.894ZM377.128 142.254L378.438 139.194L379.758 142.254H377.128ZM385.818 137.894H382.938V144.894H384.238V142.874H385.818C387.658 142.874 388.798 141.924 388.798 140.384C388.798 138.834 387.658 137.894 385.818 137.894ZM385.758 141.774H384.238V138.994H385.758C386.898 138.994 387.488 139.504 387.488 140.384C387.488 141.264 386.898 141.774 385.758 141.774Z" fill="black"/>
<defs>
<linearGradient id="paint0_linear" x1="233.11" y1="23.2206" x2="230.016" y2="30.4702" gradientUnits="userSpaceOnUse">
<stop stop-color="#AACE36"/>
<stop offset="1" stop-color="#2FA042"/>
</linearGradient>
<linearGradient id="paint1_linear" x1="239.545" y1="23.6353" x2="266.283" y2="26.1744" gradientUnits="userSpaceOnUse">
<stop stop-color="#79A933"/>
<stop offset="0.13" stop-color="#70A333"/>
<stop offset="0.34" stop-color="#559332"/>
<stop offset="0.58" stop-color="#277B2F"/>
<stop offset="0.86" stop-color="#005F27"/>
<stop offset="1" stop-color="#005020"/>
</linearGradient>
<linearGradient id="paint2_linear" x1="243.057" y1="13.8049" x2="253.199" y2="37.3398" gradientUnits="userSpaceOnUse">
<stop stop-color="#79AB35"/>
<stop offset="0.53" stop-color="#7CBA3D"/>
<stop offset="1" stop-color="#00AA4B"/>
</linearGradient>
<linearGradient id="paint3_linear" x1="27.1426" y1="123.343" x2="28.1083" y2="124.326" gradientUnits="userSpaceOnUse">
<stop offset="0.2" stop-opacity="0.15"/>
<stop offset="0.85" stop-color="#616161" stop-opacity="0.01"/>
</linearGradient>
<linearGradient id="paint4_linear" x1="23.6177" y1="123.345" x2="34.0808" y2="123.345" gradientUnits="userSpaceOnUse">
<stop offset="0.2" stop-opacity="0.55"/>
<stop offset="0.85" stop-color="#616161" stop-opacity="0.01"/>
</linearGradient>
<clipPath id="clip0">
<rect width="37" height="45" fill="white" transform="translate(6 87)"/>
</clipPath>
</defs>
</svg>
