<svg width="534" height="40" viewBox="0 0 534 40" fill="none" xmlns="http://www.w3.org/2000/svg">
<path d="M345.625 0.101232C344.862 0.391835 343.604 1.95897 342.863 3.50303C341.853 5.652 341.404 7.55401 341.404 9.74787C341.404 11.3368 341.493 11.8513 342.01 12.9931C342.347 13.7091 342.886 14.6046 343.222 14.9625C343.986 15.7682 345.401 16.4174 346.366 16.4398C346.972 16.4398 347.085 16.529 347.085 16.9992C347.085 17.3129 346.883 18.0513 346.658 18.678C345.67 21.2516 343.672 22.7065 341.044 22.7065C339.181 22.7065 337.833 22.1022 337.339 21.0502C336.733 19.7749 336.868 18.991 337.901 17.7382C338.597 16.9325 338.866 16.3949 338.956 15.6566C339.046 14.7611 339.001 14.627 338.529 14.4705C337.249 14.0003 335.655 15.1864 335.161 16.9325C335.026 17.4694 334.959 18.4766 335.026 19.1925C335.363 22.8637 338.125 24.7432 342.706 24.4302C345.221 24.2512 346.523 23.7585 347.893 22.371C349.33 20.961 349.937 19.3721 350.228 16.4623C350.475 14.0003 350.52 4.57751 350.318 2.04815C350.161 0.347559 350.161 0.325111 349.465 0.235311C347.871 -0.0110156 346.052 -0.0777445 345.625 0.101232ZM347.017 3.27915C347.152 3.45813 347.197 5.65199 347.13 8.76257C347.04 13.5974 346.995 13.9778 346.613 14.0895C345.872 14.3358 344.974 13.709 344.39 12.5229C343.874 11.5158 343.829 11.1354 343.829 8.71829C343.829 5.80852 344.076 4.75649 344.996 3.68201C345.58 2.9661 346.613 2.76468 347.017 3.27915ZM374.165 0.705512C374.098 0.884488 374.031 1.55612 374.031 2.18284C374.031 2.8314 373.963 4.01813 373.873 4.84629L373.739 6.3679H372.706C371.695 6.3679 370.056 6.68158 369.832 6.883C369.787 6.94973 369.832 7.19606 369.966 7.44238C370.191 7.84524 370.662 8.02421 373.088 8.51687L373.582 8.60604L373.537 13.9329C373.469 18.5882 373.514 19.4163 373.896 20.6249C374.615 22.9977 376.254 24.4302 377.915 24.1165C378.746 23.96 379.847 22.7739 380.588 21.2516C380.924 20.5133 381.216 20.1104 381.216 20.3567C381.216 21.0951 382.272 23.0869 382.833 23.4679C383.125 23.6694 383.911 23.9151 384.562 24.0498C386.493 24.4077 387.616 23.602 388.761 21.0059L389.12 20.1329L389.323 20.782C389.57 21.6769 390.782 22.8637 391.59 23.0202C392.466 23.1992 393.634 22.6841 394.24 21.8559L394.757 21.1624L395.228 22.1022C395.857 23.3108 396.53 23.781 398.147 24.0722C399.337 24.2736 399.539 24.2736 400.056 23.8708C400.371 23.6469 400.909 22.9528 401.246 22.3486L401.875 21.2516V23.9151L400.213 25.5489C398.372 27.3399 397.024 29.6897 396.373 32.2191C395.273 36.5388 396.665 38.4408 400.954 38.4633C402.795 38.4857 402.818 38.4857 403.447 37.7474C404.502 36.4939 404.659 35.5541 404.794 29.8687L404.906 24.6091H405.625C406.029 24.6091 406.478 24.4751 406.635 24.3179C406.882 24.0722 406.838 23.9375 406.389 23.5796C406.097 23.3557 405.602 23.1543 405.288 23.1543H404.727L404.839 19.5061C404.929 16.7086 405.041 15.7015 405.333 15.1415L405.714 14.4031L404.974 14.1119L404.233 13.7988V11.7846C404.233 9.8595 404.188 9.72542 403.604 9.09869C403.267 8.74074 402.548 8.33789 402.032 8.18074C401.516 8.04666 400.618 7.71116 400.033 7.44238C398.799 6.883 398.147 6.99463 397.069 7.93441C395.543 9.27767 394.779 11.9187 394.487 16.7753C394.308 19.8865 393.971 20.9835 393.117 21.2516C392.489 21.4531 392.062 21.0502 391.77 20.0431C391.478 18.9468 391.478 16.4174 391.815 15.1639C392.062 14.1793 392.04 14.1119 391.501 13.6642C390.984 13.2395 390.917 12.9931 390.827 11.3368C390.692 8.98644 390.355 8.51687 388.267 7.66626C384.091 5.96505 382.002 7.84523 381.216 14.0676C381.104 15.0299 380.902 15.9472 380.79 16.0819C380.677 16.216 380.408 17.0217 380.228 17.8498C379.779 19.73 379.15 21.0284 378.387 21.498C377.848 21.8559 377.803 21.8559 377.376 21.4312C376.703 20.7596 376.501 18.6555 376.635 13.9778C376.793 8.11401 376.703 8.44952 378.207 8.24809C378.903 8.18074 380.116 8.09156 380.902 8.09156C382.451 8.06911 382.676 7.86768 381.89 7.15116C381.531 6.8381 380.924 6.7034 379.24 6.61423L377.062 6.48015L377.107 4.91302C377.129 4.04059 377.219 2.85385 377.287 2.27202C377.421 1.21999 377.399 1.19754 376.68 0.906937C375.423 0.414284 374.3 0.302659 374.165 0.705512ZM401.134 10.0385C401.718 10.5536 401.763 10.6877 401.74 12.2317C401.695 15.2537 401.112 18.6555 400.371 20.1329C399.854 21.1624 398.933 22.0355 398.35 22.0355C398.058 22.0355 397.676 21.7892 397.451 21.4312C396.845 20.5357 396.867 14.627 397.473 12.8584C398.058 11.113 398.686 10.1732 399.494 9.8146C400.416 9.41175 400.416 9.41174 401.134 10.0385ZM388.132 10.5087C388.739 11.2919 388.963 12.9258 388.537 13.575C388.357 13.8662 388.11 15.1639 387.975 16.4847C387.638 19.4837 387.189 21.0502 386.381 21.8559C385.438 22.7739 384.652 22.7065 384.203 21.6327C383.327 19.5959 383.686 13.709 384.832 11.4934C385.64 9.9044 387.279 9.41175 388.132 10.5087ZM401.65 33.0697C401.246 35.6658 400.28 37.0084 399.045 36.7178C397.878 36.4266 397.519 34.3231 398.17 31.7713C398.664 29.9136 399.854 27.474 400.887 26.2879L401.763 25.3032L401.83 28.4138C401.852 30.1375 401.785 32.2415 401.65 33.0697Z" fill="black"/>
<path d="M418.604 8.02472C417.459 9.21083 416.785 11.0012 416.448 13.8667C416.134 16.552 415.236 20.0885 414.607 21.2303C414.225 21.9238 413.978 22.1476 413.551 22.1476C412.653 22.1476 412.362 20.9166 412.496 17.5591C412.586 15.5224 412.743 14.3138 413.125 13.1053L413.641 11.449L413.147 11.0461C412.833 10.7998 412.07 10.5984 411.126 10.5092C410.296 10.4418 409.465 10.3527 409.285 10.3302C409.061 10.2853 408.949 9.99408 408.949 9.3898C408.926 8.11452 408.701 7.86819 407.781 8.00227C406.411 8.22615 406.411 8.27105 406.523 12.0308C406.613 14.2247 406.546 16.0375 406.366 17.112C405.962 19.4842 405.984 19.6632 406.434 19.753C407.04 19.887 407.623 18.2756 408.095 15.0971L408.521 12.2996H409.847L409.757 15.2093C409.622 20.9166 410.812 23.8264 413.282 23.8264C414.315 23.8264 415.213 23.1323 415.864 21.8121L416.426 20.7152L416.785 21.6774C416.987 22.1925 417.437 22.886 417.773 23.1997C418.514 23.8938 420.603 24.4082 421.456 24.0727C422.197 23.804 423.163 22.6179 423.769 21.297L424.24 20.2007L424.667 21.1405C425.744 23.5352 428.214 23.7142 429.674 21.5209L430.28 20.6036L430.415 21.7672C430.617 23.2446 430.864 23.5352 432.1 23.7366C434.053 24.0278 434.053 24.0054 434.502 20.6479C434.884 17.6265 435.468 15.0971 435.804 15.0971C435.894 15.0971 436.006 16.5969 436.051 18.4322C436.119 21.3195 436.186 21.8346 436.545 22.2374C437.421 23.1997 439.599 23.0431 439.599 22.0136C439.599 21.2303 440.498 17.9844 441.239 16.1049L441.957 14.3138L442.069 17.4475C442.159 20.2226 442.249 20.7152 442.743 21.6774C443.058 22.3042 443.574 22.9983 443.911 23.2446C444.741 23.8489 446.336 23.8489 447.144 23.2446C448.873 21.9687 450.669 16.4404 449.367 16.4404C448.963 16.4404 448.694 16.9773 448.469 18.1191C447.952 20.984 446.224 22.6178 445.437 20.9615C444.966 19.9993 444.899 16.1491 445.325 14.3138C445.999 11.4047 446.022 11.6279 445.123 10.9569C444.562 10.5316 443.933 10.2853 443.215 10.218L442.159 10.1288L441.575 11.4265C441.239 12.1655 440.498 14.1124 439.891 15.7687L438.813 18.7901L438.746 15.3883L438.679 11.9641L438.028 11.6279C436.231 10.7106 435.288 11.5388 434.233 15.0079C433.828 16.3506 433.469 17.5373 433.424 17.6714C433.379 17.783 433.334 15.9701 433.334 13.5979C433.312 10.9345 433.222 9.25573 433.087 9.16593C432.953 9.07676 432.302 8.96451 431.651 8.89778L430.438 8.76308L430.348 12.9937C430.258 16.552 430.168 17.4475 429.764 18.7009C428.889 21.3195 427.765 22.1252 427.114 20.5811C426.733 19.6632 426.688 16.2838 427.047 14.9855C427.272 14.1798 427.249 14.0681 426.733 13.6428C426.261 13.2618 426.171 12.9263 426.037 11.4265C425.857 9.43471 425.52 8.5841 424.734 8.2486C422.376 7.15167 421.972 7.04004 420.805 7.04004C419.592 7.04004 419.48 7.08494 418.604 8.02472ZM422.983 10.1737C423.724 10.5765 424.218 13.1053 423.656 13.6647C423.544 13.7769 423.32 14.9406 423.207 16.2165C422.893 19.2603 422.399 20.984 421.613 21.8346C420.782 22.707 419.861 22.6627 419.412 21.7223C418.649 20.1109 418.694 15.5673 419.502 12.7698C420.176 10.5092 421.59 9.43471 422.983 10.1737ZM353.058 8.78553C352.878 9.09921 352.407 19.7081 352.519 20.9615C352.676 22.4389 353.17 22.9309 354.473 22.9309C355.034 22.9309 355.618 22.8417 355.753 22.7519C355.91 22.6627 356.179 21.7448 356.381 20.6928C356.808 18.6111 357.482 16.4179 357.976 15.5449C358.267 15.0304 358.29 15.2318 358.312 17.6714C358.312 20.6479 358.627 21.6774 359.66 22.215C360.401 22.5954 361.815 22.4164 362.624 21.8121C363.297 21.3195 363.297 21.3195 363.612 21.7672C364.33 22.7968 367.429 23.4011 369.607 22.9309C371.246 22.5954 372.234 21.8121 372.234 20.8268C372.234 19.8646 371.898 19.4393 369.562 17.5591C367.227 15.6796 366.845 15.1869 366.845 14.09C366.845 12.4786 368.844 11.5163 370.011 12.5459C370.55 13.0386 371.022 12.9263 371.673 12.1655C372.145 11.6061 372.234 11.27 372.19 10.5316C372.122 9.77083 372.01 9.56878 371.449 9.30063C370.191 8.69635 366.082 9.79266 364.622 11.1359C363.455 12.2104 363.185 13.8667 363.926 15.2991C364.263 15.9926 364.308 16.194 364.061 16.2838C363.904 16.3506 363.702 16.8432 363.612 17.3577C363.253 19.6183 362.062 21.163 361.254 20.3797C360.962 20.066 360.895 19.3944 360.85 16.3506C360.827 13.553 360.738 12.5235 360.468 12.009C360.086 11.27 359.211 10.9345 358.537 11.2924C357.976 11.5837 357.077 13.1277 356.269 15.1644L355.64 16.7759L355.618 13.1502C355.618 9.63613 355.595 9.50206 355.124 9.18838C354.428 8.76308 353.215 8.53983 353.058 8.78553ZM368.08 19.4169C368.619 19.8871 369.091 20.4464 369.158 20.6928C369.495 21.9462 367.654 22.3042 366.217 21.2521C365.745 20.9166 365.116 20.4689 364.757 20.2675C364.375 20.0436 364.196 19.7979 364.285 19.574C364.353 19.3944 364.532 18.6785 364.667 17.9844L364.914 16.7091L366.037 17.6489C366.643 18.1416 367.564 18.9473 368.08 19.4169Z" fill="black"/>
<path d="M64.129 12.4251C63.1188 12.4251 62.3908 12.7546 61.6524 13.0905V20.6886C62.3597 20.7556 62.7651 20.7556 63.4362 20.7556C65.8608 20.7556 66.1932 19.6508 66.1932 18.1082V14.4792C66.1932 13.34 65.8134 12.4251 64.129 12.4251ZM48.0257 12.0104C46.3433 12.0104 45.9594 12.9293 45.9594 14.0674V14.7069H50.0897V14.0674C50.0897 12.9293 49.7058 12.0104 48.0257 12.0104ZM16.8299 19.9189C16.8299 20.8193 17.2569 21.2869 18.1992 21.2869C19.21 21.2869 19.8085 20.959 20.5464 20.6221V18.8198H18.3362C17.2897 18.8198 16.8299 19.0136 16.8299 19.9189ZM79.7941 12.4251C78.1085 12.4251 77.5248 13.34 77.5248 14.4792V18.6367C77.5248 19.7787 78.1085 20.6965 79.7941 20.6965C81.4748 20.6965 82.0628 19.7787 82.0628 18.6367V14.4792C82.0622 13.34 81.4741 12.4251 79.7941 12.4251ZM8.57146 24.5806H3.61774V12.651H1.14258V8.54035H3.61831V6.07153C3.61831 2.71751 5.0153 0.723633 8.98598 0.723633H12.2919V4.83541H10.2255C8.6796 4.83541 8.5777 5.41007 8.5777 6.48225L8.57146 8.53979H12.3145L11.8768 12.6504H8.57146V24.5806ZM25.5012 24.6116H21.3726L21.1942 23.5727C19.309 24.6116 17.6267 24.7801 16.5168 24.7801C13.4889 24.7801 11.8773 22.7675 11.8773 19.9843C11.8773 16.7008 13.7579 15.5289 17.1221 15.5289H20.5464V14.819C20.5464 13.1428 20.3533 12.651 17.7626 12.651H13.5269L13.9408 8.54035H18.5706C24.2548 8.54035 25.5012 10.3269 25.5012 14.8522V24.6116ZM39.5407 12.9524C36.9716 12.5141 36.2337 12.4177 34.9975 12.4177C32.7772 12.4177 32.1062 12.9051 32.1062 14.7813V18.3302C32.1062 20.2063 32.7772 20.6959 34.9975 20.6959C36.2337 20.6959 36.9716 20.5979 39.5407 20.1578V24.1677C37.2904 24.6696 35.8243 24.8014 34.5853 24.8014C29.2669 24.8014 27.153 22.0188 27.153 17.9988V15.1193C27.153 11.096 29.2669 8.30824 34.5853 8.30824C35.8243 8.30824 37.2904 8.44063 39.5407 8.94489V12.9524ZM55.0429 17.9988H45.9588V18.3302C45.9588 20.2063 46.6304 20.6959 48.8502 20.6959C50.8457 20.6959 52.0638 20.5979 54.6284 20.1578V24.1677C52.155 24.6696 50.8661 24.8014 48.4397 24.8014C43.1207 24.8014 41.0057 22.0188 41.0057 17.9988V14.7063C41.0057 11.189 42.5748 8.30824 48.0252 8.30824C53.4755 8.30824 55.0429 11.1557 55.0429 14.7063V17.9988ZM71.1459 18.0749C71.1459 21.9602 70.0296 24.7941 63.2684 24.7941C60.8268 24.7941 59.3947 24.5806 56.6998 24.1682V1.95863L61.6519 1.13659V8.90547C62.7221 8.50992 64.1072 8.3088 65.3675 8.3088C70.3202 8.3088 71.1453 10.5179 71.1453 14.068V18.0749H71.1459ZM87.0199 18.1594C87.0199 21.5111 85.6293 24.762 79.8104 24.762C73.9883 24.762 72.5715 21.5111 72.5715 18.1594V14.9232C72.5715 11.5698 73.9883 8.31841 79.8104 8.31841C85.6293 8.31841 87.0199 11.5698 87.0199 14.9232V18.1594ZM102.883 18.1594C102.883 21.5111 101.491 24.762 95.6731 24.762C89.8517 24.762 88.4349 21.5111 88.4349 18.1594V14.9232C88.4349 11.5698 89.8517 8.31841 95.6731 8.31841C101.491 8.31841 102.883 11.5698 102.883 14.9232V18.1594ZM119.163 24.5806H113.796L109.256 17.0405V24.5806H104.302V1.95807L109.256 1.13603V15.6996L113.796 8.54035H119.163L114.207 16.3531L119.163 24.5806ZM95.6563 12.4251C93.9738 12.4251 93.3901 13.34 93.3901 14.4792V18.6367C93.3901 19.7787 93.9738 20.6965 95.6563 20.6965C97.3363 20.6965 97.9312 19.7787 97.9312 18.6367V14.4792C97.9312 13.34 97.3363 12.4251 95.6563 12.4251ZM121.991 21.767C122.825 21.767 123.489 22.4436 123.489 23.2887C123.489 24.1468 122.824 24.8161 121.985 24.8161C121.149 24.8161 120.471 24.1468 120.471 23.2887C120.471 22.4436 121.149 21.767 121.985 21.767H121.991ZM121.985 22.0036C121.312 22.0036 120.762 22.5788 120.762 23.2887C120.762 24.0116 121.313 24.5795 121.991 24.5795C122.669 24.5862 123.211 24.0116 123.211 23.2955C123.211 22.5794 122.669 22.0036 121.991 22.0036H121.985ZM121.7 24.1744H121.428V22.4763C121.57 22.4565 121.706 22.4368 121.91 22.4368C122.169 22.4368 122.338 22.4909 122.441 22.5647C122.541 22.6397 122.595 22.7541 122.595 22.9158C122.595 23.14 122.447 23.2747 122.264 23.3293V23.3423C122.412 23.3698 122.514 23.504 122.548 23.7535C122.588 24.0178 122.629 24.1186 122.656 24.1738H122.371C122.331 24.1186 122.289 23.9637 122.256 23.74C122.216 23.5242 122.106 23.4431 121.889 23.4431H121.7V24.1744H121.7ZM121.7 23.2346H121.897C122.12 23.2346 122.309 23.1529 122.309 22.9428C122.309 22.794 122.202 22.6459 121.897 22.6459C121.808 22.6459 121.746 22.6526 121.7 22.6588V23.2346Z" fill="#3B5998"/>
<path d="M519.36 0.427072V0.420898H520.859L521.407 0.538324C521.771 0.614592 522.103 0.714494 522.401 0.838156C522.699 0.961756 522.987 1.106 523.266 1.27082C523.544 1.43564 523.797 1.60358 524.024 1.77457C524.249 1.94357 524.45 2.1228 524.629 2.31237C524.806 2.50395 525.082 2.5534 525.456 2.46067C525.831 2.368 526.235 2.23916 526.667 2.07434C527.1 1.90952 527.527 1.72412 527.95 1.51808C528.373 1.31204 528.631 1.1812 528.722 1.12558C528.813 1.06789 528.861 1.03696 528.867 1.03285L528.872 1.02356L528.901 1.00809L528.93 0.992625L528.959 0.977222L528.988 0.961756L528.993 0.952464L529.002 0.946291L529.011 0.940117L529.017 0.930825L529.045 0.921596L529.074 0.915422L529.068 0.961756L529.06 1.00809L529.045 1.05449L529.031 1.10082L529.017 1.13175L529.002 1.16262L528.988 1.20902C528.978 1.23989 528.969 1.28111 528.959 1.33262C528.949 1.38413 528.858 1.59017 528.685 1.95074C528.512 2.31131 528.296 2.67706 528.036 3.04792C527.777 3.41878 527.544 3.69897 527.339 3.88855C527.131 4.08019 526.994 4.21407 526.927 4.29034C526.859 4.36861 526.778 4.44069 526.682 4.50667L526.538 4.60863L526.508 4.6241L526.48 4.63956L526.474 4.64886L526.465 4.65503L526.457 4.6612L526.451 4.6705L526.422 4.6859L526.394 4.70137L526.387 4.71066L526.379 4.71683L526.371 4.723L526.364 4.7323L526.359 4.74153L526.35 4.74776L526.341 4.75394L526.336 4.76316H526.48L527.287 4.57777C527.825 4.4541 528.339 4.30475 528.829 4.12964L529.608 3.85145L529.694 3.82058L529.737 3.80511L529.766 3.78965L529.795 3.77418L529.824 3.75871L529.852 3.74331L529.91 3.73402L529.968 3.72785V3.78965L529.953 3.79582L529.939 3.80511L529.933 3.8144L529.925 3.82058L529.916 3.82675L529.91 3.83598L529.905 3.84527L529.896 3.85145L529.887 3.85762L529.882 3.86691L529.875 3.8762L529.867 3.88238L529.852 3.91325L529.838 3.94418L529.829 3.95035C529.825 3.95652 529.704 4.13163 529.463 4.47574C529.223 4.82191 529.093 4.99702 529.074 5.00113C529.055 5.00737 529.028 5.03824 528.993 5.09386C528.961 5.15155 528.757 5.38129 528.382 5.78308C528.008 6.18487 527.641 6.54233 527.281 6.8555C526.92 7.17074 526.737 7.55813 526.733 8.0176C526.728 8.47502 526.705 8.99218 526.667 9.56909C526.629 10.146 526.556 10.7692 526.451 11.4389C526.346 12.1085 526.182 12.8657 525.961 13.7105C525.74 14.5552 525.471 15.3794 525.154 16.183C524.836 16.9865 524.505 17.7076 524.159 18.3464C523.813 18.9851 523.496 19.526 523.208 19.9689C522.92 20.4119 522.627 20.8291 522.329 21.2206C522.031 21.6121 521.654 22.053 521.199 22.5434C520.742 23.0317 520.492 23.2996 520.449 23.347C520.405 23.3923 520.217 23.5612 519.884 23.8538C519.554 24.1484 519.198 24.4431 518.818 24.7377C518.439 25.0303 518.091 25.2745 517.775 25.4702C517.457 25.6659 517.075 25.8895 516.627 26.1409C516.181 26.3943 515.699 26.6292 515.18 26.8455C514.661 27.0619 514.113 27.2627 513.537 27.4482C512.96 27.6336 512.404 27.7778 511.865 27.8809C511.327 27.9839 510.717 28.0714 510.034 28.1436L509.012 28.2517V28.2672H507.138V28.2517L506.893 28.2363C506.729 28.226 506.595 28.2157 506.489 28.2054C506.383 28.1951 505.985 28.1384 505.293 28.0354C504.601 27.9324 504.058 27.8294 503.664 27.7263C503.27 27.6233 502.684 27.4276 501.906 27.1391C501.127 26.8507 500.462 26.5591 499.908 26.2645C499.357 25.9719 499.011 25.7865 498.871 25.7082C498.732 25.6319 498.576 25.5371 498.403 25.4238L498.144 25.2538L498.138 25.2446L498.13 25.2384L498.121 25.2322L498.115 25.223L498.087 25.2075L498.057 25.192L498.052 25.1828L498.043 25.1766L498.034 25.1704L498.029 25.1612L498.023 25.1519L498.014 25.1457H498V25.0839L498.029 25.0901L498.057 25.0993L498.187 25.1148C498.274 25.1251 498.509 25.1405 498.894 25.1612C499.278 25.1818 499.686 25.1818 500.118 25.1612C500.551 25.1405 500.993 25.0942 501.445 25.022C501.896 24.95 502.43 24.8264 503.044 24.6512C503.659 24.4761 504.224 24.268 504.739 24.0269C505.253 23.7838 505.617 23.6025 505.835 23.483C506.05 23.3655 506.379 23.1471 506.821 22.8277L507.484 22.3487L507.489 22.3395L507.498 22.3332L507.507 22.327L507.513 22.3178L507.518 22.3085L507.527 22.3024L507.536 22.2962L507.541 22.2869L507.57 22.2776L507.599 22.2714L507.605 22.2405L507.614 22.2096L507.622 22.2034L507.628 22.1942L507.397 22.1787C507.243 22.1684 507.095 22.1581 506.951 22.1478C506.806 22.1375 506.58 22.0911 506.273 22.0088C505.965 21.9263 505.634 21.8027 505.279 21.6378C504.923 21.473 504.577 21.2773 504.24 21.0506C503.904 20.824 503.661 20.6354 503.511 20.4851C503.364 20.3367 503.172 20.1266 502.935 19.8546C502.701 19.5806 502.497 19.2993 502.324 19.0109C502.151 18.7224 501.986 18.3896 501.828 18.0126L501.589 17.4501L501.575 17.4038L501.56 17.3574L501.551 17.3265L501.546 17.2956L501.589 17.3017L501.632 17.311L501.949 17.3574C502.161 17.3883 502.492 17.3986 502.943 17.3883C503.395 17.378 503.707 17.3574 503.881 17.3265C504.053 17.2956 504.159 17.2749 504.197 17.2646L504.255 17.2492L504.327 17.2338L504.399 17.2183L504.405 17.209L504.414 17.2028L504.423 17.1967L504.428 17.1874L504.37 17.172L504.313 17.1565L504.255 17.141L504.197 17.1256L504.14 17.1101C504.101 17.0998 504.034 17.0792 503.938 17.0483C503.842 17.0174 503.583 16.9041 503.16 16.7084C502.737 16.5126 502.401 16.322 502.151 16.1366C501.901 15.9506 501.662 15.7473 501.436 15.5278C501.211 15.3052 500.964 15.0188 500.695 14.6685C500.426 14.3183 500.186 13.9114 499.974 13.4478C499.763 12.9842 499.605 12.5412 499.499 12.1188C499.394 11.6989 499.324 11.2696 499.292 10.8362L499.24 10.1872L499.268 10.1934L499.297 10.2026L499.326 10.2181L499.355 10.2335L499.384 10.249L499.412 10.2645L499.859 10.4808C500.157 10.625 500.527 10.7486 500.969 10.8517C501.411 10.9547 501.676 11.0114 501.762 11.0217L501.891 11.0371H502.151L502.145 11.0278L502.136 11.0217L502.128 11.0155L502.122 11.0062L502.116 10.9969L502.108 10.9907L502.099 10.9846L502.093 10.9753L502.065 10.9599L502.035 10.9444L502.03 10.9351L502.021 10.9289L502.012 10.9228L502.007 10.9135L501.978 10.898L501.949 10.8826L501.943 10.8733C501.937 10.8692 501.855 10.8032 501.696 10.6755C501.538 10.5457 501.372 10.3778 501.2 10.1717C501.027 9.9657 500.854 9.74937 500.681 9.52269C500.508 9.29557 500.353 9.05255 500.219 8.79643C500.085 8.53888 499.943 8.21124 499.793 7.81362C499.645 7.418 499.533 7.01933 499.456 6.61754C499.379 6.21574 499.336 5.81913 499.326 5.42768C499.316 5.03618 499.326 4.70136 499.355 4.42323C499.384 4.14504 499.441 3.83087 499.528 3.48058C499.615 3.1303 499.739 2.75944 499.903 2.368L500.148 1.78074L500.162 1.73441L500.176 1.68801L500.185 1.68184L500.191 1.67261L500.196 1.66332L500.205 1.65714L500.214 1.66332L500.219 1.67261L500.225 1.68184L500.234 1.68801L500.243 1.69425L500.248 1.70348L500.254 1.71277L500.263 1.71894L500.277 1.74988L500.292 1.78074L500.3 1.78692L500.306 1.79621L500.695 2.2598C500.955 2.56886 501.262 2.91397 501.618 3.29512C501.973 3.67633 502.17 3.87415 502.209 3.88855C502.247 3.90501 502.295 3.95241 502.353 4.03073C502.41 4.10694 502.602 4.28928 502.929 4.57777C503.256 4.86619 503.684 5.201 504.212 5.58221C504.741 5.96337 505.327 6.33941 505.97 6.71027C506.614 7.08113 507.306 7.41594 508.046 7.71472C508.785 8.01349 509.304 8.20918 509.602 8.30191C509.9 8.39464 510.409 8.51313 511.13 8.65737C511.851 8.80161 512.394 8.89428 512.759 8.9355C513.124 8.97672 513.374 9.00041 513.508 9.00659L513.71 9.01276L513.704 8.96643L513.696 8.92003L513.638 8.53371C513.6 8.27615 513.58 7.91558 513.58 7.45199C513.58 6.9884 513.614 6.56091 513.681 6.16941C513.749 5.7779 513.849 5.38129 513.984 4.97956C514.118 4.57776 514.25 4.2553 514.379 4.01215C514.509 3.77112 514.68 3.49605 514.892 3.18699C515.103 2.87793 515.377 2.55858 515.714 2.22887C516.05 1.89923 516.434 1.60563 516.867 1.34808C517.299 1.09053 517.697 0.894781 518.063 0.760891C518.428 0.62694 518.735 0.539384 518.985 0.498164C519.235 0.456943 519.36 0.433245 519.36 0.427072Z" fill="#4169E1"/>
<path d="M190.732 16.7495H195.107V22.8265C193.742 23.2603 192.018 23.4981 190.227 23.4981C182.965 23.4981 178.697 17.3486 178.697 11.3427C178.697 5.45229 182.558 1.32049 187.943 1.32049C191.351 1.32049 193.335 2.46223 195.109 4.05272V6.03538L198.435 2.74568C196.331 1.33792 193.284 0 188.929 0C179.37 0 175 6.76361 175 12.322C175 20.2338 180.827 25 188.15 25C191.7 25 194.853 24.464 198.495 23.4619V17.1833C198.495 16.8623 198.637 16.642 198.85 16.4486L200 15.3121H192.196L190.732 16.7495Z" fill="url(#paint0_linear)"/>
<path d="M208.939 8C203.42 8 200 12.1817 200 16.6202C200 20.4514 202.755 25 208.336 25C213.705 25 217 20.8102 217 16.2939C217 12.087 213.78 8.00157 208.939 8.00157V8ZM208.023 9.21916C211.914 9.21916 213.647 14.4757 213.647 18.2249C213.647 23.8007 209.613 23.9108 209.131 23.9108C207.285 23.9108 205.995 22.754 205.029 21.2366C204.179 19.8382 203.348 17.2402 203.348 14.7017C203.348 12.173 204.146 10.9384 205.402 10.03C206.429 9.3491 207.391 9.21916 208.021 9.21916H208.023Z" fill="url(#paint1_linear)"/>
<path d="M244.977 8C240.301 8 237.771 11.127 237.771 14.6184C237.771 17.2764 239.574 20.275 243.293 20.275H244.234C244.234 20.275 243.978 20.9325 243.976 21.5676C243.976 22.5045 244.295 23.0306 244.972 23.8403C238.572 24.2521 236 26.9785 236 29.9087C236 32.4747 238.326 35 243.215 35C249.003 35 252 31.6062 252 28.2755C252 25.9274 250.893 24.6403 248.088 22.4207C247.263 21.7437 247.103 21.3125 247.103 20.8057C247.103 20.0798 247.514 19.5994 247.665 19.4181C247.931 19.1221 248.391 18.7843 248.562 18.6224C249.505 17.7792 250.836 16.5313 250.836 14.0407C250.836 12.3321 250.163 10.8621 248.63 9.48562H250.502L251.908 8.00032H244.977V8ZM243.687 9.11118C244.535 9.11118 245.244 9.42812 245.992 10.0857C246.822 10.8758 248.148 12.9991 248.148 15.6263C248.148 18.4616 246.062 19.2377 244.934 19.2377C244.381 19.2377 243.719 19.0744 243.158 18.6696C241.914 17.8167 240.677 15.5467 240.677 12.8455C240.677 10.4081 242.052 9.11118 243.687 9.11118ZM245.539 24.9166C245.895 24.9166 246.152 24.9475 246.152 24.9475C246.152 24.9475 246.994 25.5826 247.582 26.0572C248.951 27.2005 249.805 28.0744 249.805 29.631C249.805 31.7711 247.925 33.449 244.881 33.449C241.541 33.449 238.987 31.8059 238.987 29.123C238.987 26.9005 240.737 24.9877 245.539 24.9166Z" fill="url(#paint2_linear)"/>
<path d="M253.663 24H260.03L261 23.0373L259.174 22.8109C258.682 22.751 258.39 22.3294 258.39 21.9208V2.8309C258.39 2.45486 258.566 2.2623 258.694 2.13985L259.843 1H254.413L253 2.40265H255.11V22.177C255.11 22.4581 255.021 22.6493 254.83 22.8459L253.663 24Z" fill="url(#paint3_linear)"/>
<path d="M269.421 8C265.822 8 262 10.92 262 16.1624C262 20.4921 264.743 25 269.867 25C271.144 25 272.196 24.825 273.182 24.3433C274.239 23.8248 275.257 22.9828 276 21.9248C274.598 22.6777 273.454 23.1722 271.935 23.1722C269.048 23.1722 266.264 20.9543 265.29 16.8773L275.49 12.4882C274.901 10.2519 273.239 8 269.422 8H269.421ZM268.754 9.19933C270.685 9.19933 272.081 10.8904 272.081 12.214C272.081 12.642 271.829 12.868 271.33 13.0772L265.06 15.7767C265.06 15.7767 264.891 14.9362 264.891 14.0279C264.891 10.2179 267.478 9.19933 268.754 9.19933Z" fill="url(#paint4_linear)"/>
<path d="M227.939 8C222.419 8 219 12.1817 219 16.6202C219 20.4514 221.755 25 227.336 25C232.706 25 236 20.8102 236 16.2939C236 12.087 232.78 8.00157 227.939 8.00157V8ZM227.023 9.21916C230.914 9.21916 232.647 14.4757 232.647 18.2249C232.647 23.8007 228.613 23.9108 228.13 23.9108C226.284 23.9108 224.994 22.754 224.029 21.2366C223.178 19.8382 222.347 17.2402 222.347 14.7017C222.347 12.173 223.145 10.9384 224.402 10.03C225.429 9.3491 226.391 9.21916 227.022 9.21916H227.023Z" fill="url(#paint5_linear)"/>
<defs>
<linearGradient id="paint0_linear" x1="187.438" y1="-0.0707695" x2="187.438" y2="24.9986" gradientUnits="userSpaceOnUse">
<stop stop-color="#196EEF"/>
<stop offset="0.5" stop-color="#186DEE"/>
<stop offset="1" stop-color="#1065E7"/>
</linearGradient>
<linearGradient id="paint1_linear" x1="208.438" y1="7.95975" x2="208.438" y2="25.0072" gradientUnits="userSpaceOnUse">
<stop stop-color="#DE5744"/>
<stop offset="0.5" stop-color="#DB4632"/>
<stop offset="1" stop-color="#D13D29"/>
</linearGradient>
<linearGradient id="paint2_linear" x1="243.941" y1="7.96158" x2="243.941" y2="35.0102" gradientUnits="userSpaceOnUse">
<stop stop-color="#1A6FEF"/>
<stop offset="0.25" stop-color="#1E72EF"/>
<stop offset="0.5" stop-color="#166BEC"/>
<stop offset="0.75" stop-color="#1267E9"/>
<stop offset="1" stop-color="#1063E5" stop-opacity="0.87"/>
</linearGradient>
<linearGradient id="paint3_linear" x1="256.942" y1="0.945807" x2="256.942" y2="24.0222" gradientUnits="userSpaceOnUse">
<stop stop-color="#0AA561"/>
<stop offset="0.5" stop-color="#009B58"/>
<stop offset="1" stop-color="#00914B"/>
</linearGradient>
<linearGradient id="paint4_linear" x1="268.942" y1="7.95975" x2="268.942" y2="24.9603" gradientUnits="userSpaceOnUse">
<stop stop-color="#DE5644"/>
<stop offset="0.5" stop-color="#DA4531"/>
<stop offset="1" stop-color="#CE3A28"/>
</linearGradient>
<linearGradient id="paint5_linear" x1="227.438" y1="7.99674" x2="227.438" y2="24.9734" gradientUnits="userSpaceOnUse">
<stop stop-color="#FFC01A"/>
<stop offset="0.5" stop-color="#FFBA03"/>
<stop offset="1" stop-color="#FFB300"/>
</linearGradient>
</defs>
</svg>
