<svg width="551" height="133" viewBox="0 0 551 133" fill="none" xmlns="http://www.w3.org/2000/svg">
<path fill-rule="evenodd" clip-rule="evenodd" d="M375.737 27.9479L375.737 27.9479C376.137 28.2168 376.523 28.4759 376.867 28.7853C379.276 30.8654 378.864 34.4709 376.064 35.9765C375.711 36.1548 375.359 36.3331 374.987 36.4322C372.245 37.1652 369.503 37.0463 366.8 36.2143C366.311 36.0756 366.056 35.8379 366.056 35.2435C366.076 30.5683 366.076 25.8732 366.076 21.1979C366.076 20.4451 366.409 19.8904 367.114 19.6923C369.699 18.9197 372.323 18.6423 374.889 19.6131C375.809 19.9696 376.749 20.663 377.317 21.4752C378.669 23.3572 377.944 25.9524 375.927 27.0816C375.653 27.2203 375.378 27.359 375.085 27.4976C375.303 27.6567 375.522 27.8037 375.737 27.9479ZM371.364 34.4115C373.655 34.3719 374.634 33.2031 374.301 30.9645C374.086 29.4589 373.048 28.7457 371.148 28.6268C370.345 28.5872 369.934 28.924 369.914 29.657C369.856 30.806 369.856 31.9748 369.934 33.1238C369.973 33.9955 370.463 34.5304 371.364 34.4115ZM369.929 23.039V23.04V23.0403V23.0405V23.0407V23.0409V23.041C369.925 24.0051 369.921 24.9052 369.934 25.8137C369.934 26.2694 370.091 26.7448 370.678 26.5665C370.788 26.5322 370.898 26.4983 371.01 26.4641C371.733 26.2421 372.479 26.0132 373.107 25.6354C373.968 25.1204 374.184 24.2091 373.968 23.1988C373.753 22.2082 373.165 21.5941 372.206 21.4752C371.708 21.4072 371.201 21.4233 370.673 21.44C370.431 21.4476 370.186 21.4554 369.934 21.4554C369.934 22.0064 369.932 22.5293 369.929 23.0346V23.0357V23.0368V23.0379V23.039ZM353.943 40.4775L353.944 40.4771C354.03 40.247 354.109 40.0368 354.188 39.82C354.482 39.0474 354.971 38.8295 355.813 39.0276C356.695 39.2257 357.615 39.3445 358.497 39.2653C359.025 39.2059 359.652 38.7898 360.005 38.3342C360.194 38.1012 360.215 37.726 360.236 37.3529C360.245 37.1866 360.255 37.0209 360.279 36.8682C360.175 36.8525 360.07 36.8326 359.964 36.8126L359.964 36.8126C359.671 36.757 359.372 36.7004 359.084 36.7296C355.265 37.0069 352.817 34.5108 352.993 30.4298C353.032 29.578 353.15 28.7063 353.365 27.8941C353.973 25.7149 355.402 24.3282 357.635 23.8923C359.417 23.5358 361.199 23.6744 362.942 24.1895C363.647 24.4074 363.98 24.7442 363.961 25.5762C363.919 28.1381 363.927 30.71 363.935 33.2776V33.2778V33.2781V33.2783V33.2786V33.2788V33.2791C363.938 34.3048 363.941 35.3298 363.941 36.3532C363.941 40.0379 362.276 41.8605 358.634 41.9991C356.989 42.0388 355.343 41.8605 353.738 41.0284C353.812 40.8272 353.88 40.6473 353.943 40.4782L353.943 40.4775ZM360.377 29.994C360.377 29.6827 360.373 29.3714 360.37 29.0601C360.362 28.2818 360.354 27.5035 360.396 26.7252C360.416 26.1309 360.161 25.913 359.632 25.8536C358.477 25.7149 357.341 26.2498 357.145 27.4186C356.871 29.0035 356.871 30.6675 356.871 32.292C356.871 32.8269 357.204 33.441 357.537 33.8967C358.046 34.59 358.927 34.8476 359.632 34.5108C360.044 34.2929 360.279 33.4608 360.357 32.8665C360.425 32.2075 360.408 31.539 360.391 30.8742V30.8741V30.8741V30.8741V30.8741V30.874V30.8739V30.8738V30.8737V30.8736V30.8735C360.384 30.5792 360.377 30.2857 360.377 29.994ZM337.443 36.6898H340.968C341.3 36.6898 341.633 36.691 341.967 36.6923H341.967H341.968H341.968H341.968H341.968H341.968H341.968H341.968C342.973 36.696 343.984 36.6997 344.983 36.67C345.904 36.6502 346.315 36.1153 346.295 35.1842C346.256 34.3125 345.864 33.8173 344.963 33.8173H342.613C341.223 33.8173 341.066 33.5796 341.536 32.2324C342.907 28.3703 344.277 24.4883 345.648 20.6063L345.649 20.6037C346.021 19.5339 345.825 19.1179 344.885 19.1179C342.398 19.0981 339.93 19.0981 337.443 19.1179C336.601 19.1377 336.248 19.6131 336.248 20.465C336.248 21.297 336.483 21.9112 337.423 21.931C337.88 21.9442 338.337 21.9398 338.794 21.9354C339.023 21.9332 339.251 21.931 339.48 21.931C340.733 21.931 340.929 22.2281 340.498 23.4168C339.793 25.3483 339.083 27.2798 338.373 29.2113C337.663 31.1428 336.953 33.0744 336.248 35.0059C335.739 36.3926 335.955 36.6898 337.443 36.6898ZM394.806 31.6182C395.139 34.2926 396.863 34.8671 401.015 33.6983C401.072 33.8558 401.133 34.0132 401.194 34.1721C401.279 34.3931 401.366 34.6169 401.446 34.8473C401.681 35.6199 401.426 36.1548 400.662 36.3727C398.88 36.8878 397.078 37.1057 395.257 36.5708C393.181 35.9765 391.888 34.5105 391.516 32.4106C391.281 31.0833 391.222 29.6372 391.438 28.3099C391.986 25.0213 394.924 23.0997 398.175 23.7138C399.526 23.9714 400.564 24.744 401.073 25.992C401.459 26.907 401.658 27.909 401.854 28.8988L401.854 28.8989C401.888 29.0662 401.921 29.2333 401.955 29.3994C402.111 30.1522 401.72 30.5484 400.956 30.6475C399.382 30.8511 397.826 31.0893 396.255 31.3297L396.254 31.3297L395.923 31.3805C395.551 31.4795 395.178 31.5588 394.806 31.6182ZM395.516 29.5845L395.516 29.5844C396.422 29.4387 397.22 29.3105 398.018 29.2409C398.762 29.1815 398.9 28.8447 398.762 28.2108C398.749 28.1442 398.737 28.0786 398.725 28.0136C398.683 27.7884 398.643 27.5697 398.567 27.3391C398.312 26.5071 397.783 25.9722 396.902 25.9128C396.06 25.8534 395.296 26.1703 394.983 26.9825C394.778 27.5488 394.649 28.1536 394.504 28.8372L394.504 28.8372C394.441 29.1341 394.374 29.4459 394.297 29.7758C394.728 29.711 395.132 29.6462 395.516 29.5845ZM389.127 33.738C384.857 34.8276 383.251 34.2927 382.918 31.5984L383.735 31.4735C385.53 31.1988 387.299 30.9281 389.068 30.6872C389.93 30.5683 390.263 30.1325 390.126 29.2806C390.096 29.1023 390.072 28.924 390.047 28.7457C390.023 28.5674 389.998 28.3891 389.969 28.2109C389.323 24.2289 385.895 22.5054 382.35 24.3676C380.039 25.5959 379.413 27.7354 379.354 30.1721C379.276 33.322 380.647 35.6794 383.056 36.5115C384.994 37.185 386.914 36.9473 388.833 36.3926C389.518 36.1945 389.734 35.6596 389.577 35.0059C389.506 34.6877 389.382 34.3802 389.26 34.0755L389.26 34.0754L389.26 34.0754L389.259 34.0753L389.259 34.0753C389.214 33.9626 389.169 33.8503 389.127 33.738ZM386.463 29.1618C385.229 29.3599 383.976 29.5382 382.409 29.7561C382.476 29.4628 382.532 29.1841 382.585 28.9179L382.585 28.9179L382.585 28.9178C382.719 28.249 382.837 27.6598 383.075 27.1213C383.506 26.0515 384.661 25.6355 385.66 26.0515C386.424 26.3685 387.168 28.0326 386.874 28.825C386.816 28.9636 386.62 29.1419 386.463 29.1618ZM347.901 30.3108V25.2591C347.901 24.229 348.234 23.9318 349.253 23.912H349.351C351.485 23.8922 351.564 23.9714 351.564 26.0911V34.788C351.564 36.452 351.348 36.67 349.703 36.67C348.117 36.67 347.901 36.452 347.901 34.8474V30.3108ZM347.764 20.8415C347.784 21.7924 348.626 22.5254 349.703 22.5254C350.859 22.5254 351.681 21.8122 351.662 20.7623C351.642 19.7915 350.839 19.0784 349.742 19.0784C348.646 19.0784 347.745 19.8708 347.764 20.8415Z" fill="black"/>
<path d="M284 28.5C284 40.9277 294.072 51 306.5 51C318.928 51 329 40.9277 329 28.5C329 16.0723 318.928 6 306.5 6C294.072 6 284 16.0723 284 28.5Z" fill="url(#paint0_radial)"/>
<path d="M291.359 16.6059C291.359 21.6352 298.1 20.2586 306.412 20.2586C314.724 20.2586 321.465 21.6352 321.465 16.6059C321.465 11.594 314.724 7.51763 306.412 7.51763C298.1 7.50006 291.359 11.5764 291.359 16.6059Z" fill="url(#paint1_linear)"/>
<path d="M299.741 41.4525C299.706 41.3996 304.877 35.6996 310.929 29.7525C316.929 23.8055 322.029 18.5465 322.047 18.5465C321.853 14.4174 318.818 12.4231 316.082 12.0878C314.353 11.7348 301.559 11.276 294.288 12.4054C292.931 12.5689 291.573 12.7478 290.201 12.9697C290.148 12.9784 289.61 13.5381 289.131 14.1164C288.64 14.7095 288.208 15.3213 288.253 15.3149C292.393 14.7304 296.559 14.3423 300.737 14.152C305.009 13.9579 309.288 13.9757 313.559 14.2054C313.647 14.2761 308.777 19.6761 302.776 25.5526C296.812 31.4114 291.412 36.8289 290.882 37.4642C290.847 41.7701 294.5 43.429 296.459 43.8171C305.547 44.6995 314.723 44.3838 323.811 42.9191C323.811 42.9191 324.618 42.0103 324.715 41.8436C324.813 41.677 325.511 40.6311 325.489 40.6343C316.771 41.877 308.059 42.2627 299.441 41.7877C299.63 41.6295 299.635 41.5761 299.741 41.4525Z" fill="white"/>
<path d="M68.6578 37.8948H64.8174V19.256H68.6578V37.8948Z" fill="black"/>
<path d="M86.5997 37.8948H82.7593L75.2833 25.6311V37.8948H71.4429V19.256H75.2833L82.7721 31.5453V19.256H86.5997V37.8948Z" fill="black"/>
<path d="M89.1671 37.8948V19.256H94.9021C96.5407 19.256 98.0043 19.6273 99.293 20.3697C100.59 21.1037 101.602 22.1534 102.327 23.5189C103.052 24.8758 103.415 26.4205 103.415 28.153V29.0107C103.415 30.7431 103.057 32.2836 102.34 33.632C101.631 34.9804 100.629 36.0258 99.3314 36.7683C98.0342 37.5108 96.5706 37.8863 94.9405 37.8948H89.1671ZM93.0075 22.3668V34.8097H94.8637C96.3658 34.8097 97.5136 34.319 98.3073 33.3375C99.101 32.3561 99.5064 30.9522 99.5234 29.1259V28.1402C99.5234 26.2456 99.1309 24.8118 98.3457 23.8389C97.5606 22.8575 96.4127 22.3668 94.9021 22.3668H93.0075Z" fill="black"/>
<path d="M119.539 19.256V31.5325C119.539 33.5722 118.899 35.1852 117.619 36.3715C116.347 37.5577 114.606 38.1509 112.396 38.1509C110.22 38.1509 108.492 37.5748 107.211 36.4227C105.931 35.2705 105.278 33.6874 105.253 31.6734V19.256H109.093V31.5581C109.093 32.7785 109.383 33.6704 109.964 34.2336C110.553 34.7884 111.363 35.0657 112.396 35.0657C114.555 35.0657 115.652 33.9307 115.686 31.6606V19.256H119.539Z" fill="black"/>
<path d="M131.567 33.0047C131.567 32.2793 131.311 31.7246 130.799 31.3405C130.287 30.9479 129.365 30.5383 128.034 30.1116C126.702 29.6763 125.648 29.2496 124.872 28.8315C122.755 27.6879 121.697 26.1474 121.697 24.2102C121.697 23.2031 121.979 22.307 122.542 21.5219C123.114 20.7282 123.929 20.1095 124.987 19.6657C126.054 19.2219 127.248 19 128.571 19C129.903 19 131.089 19.2432 132.13 19.7297C133.171 20.2076 133.978 20.8861 134.55 21.7651C135.13 22.6441 135.42 23.6426 135.42 24.7606H131.58C131.58 23.9072 131.311 23.2458 130.773 22.7764C130.235 22.2985 129.48 22.0595 128.507 22.0595C127.569 22.0595 126.839 22.2601 126.318 22.6612C125.798 23.0538 125.537 23.5744 125.537 24.223C125.537 24.8289 125.84 25.3367 126.446 25.7463C127.061 26.156 127.961 26.54 129.147 26.8984C131.332 27.5556 132.924 28.3706 133.922 29.3435C134.921 30.3164 135.42 31.5283 135.42 32.9791C135.42 34.5921 134.81 35.8594 133.589 36.7811C132.369 37.6943 130.726 38.1509 128.661 38.1509C127.227 38.1509 125.921 37.8906 124.744 37.37C123.566 36.8408 122.666 36.1197 122.043 35.2065C121.428 34.2934 121.121 33.2351 121.121 32.0318H124.974C124.974 34.0886 126.203 35.1169 128.661 35.1169C129.574 35.1169 130.287 34.9334 130.799 34.5665C131.311 34.191 131.567 33.6704 131.567 33.0047Z" fill="black"/>
<path d="M151.275 22.3668H145.566V37.8948H141.725V22.3668H136.093V19.256H151.275V22.3668Z" fill="black"/>
<path d="M159.591 31.0717H156.531V37.8948H152.691V19.256H159.616C161.818 19.256 163.516 19.7467 164.711 20.7282C165.906 21.7096 166.503 23.0964 166.503 24.8886C166.503 26.1602 166.226 27.2227 165.671 28.0762C165.125 28.9211 164.293 29.5953 163.175 30.0988L167.207 37.7156V37.8948H163.085L159.591 31.0717ZM156.531 27.961H159.629C160.593 27.961 161.34 27.7177 161.869 27.2313C162.398 26.7363 162.663 26.0578 162.663 25.1959C162.663 24.3168 162.411 23.6256 161.908 23.122C161.413 22.6185 160.649 22.3668 159.616 22.3668H156.531V27.961Z" fill="black"/>
<path d="M174.46 27.6537L178.339 19.256H182.538L176.419 31.1357V37.8948H172.514V31.1357L166.395 19.256H170.607L174.46 27.6537Z" fill="black"/>
<path d="M199.744 30.8797H201.857V33.8624H199.744V37.8948H196.045V33.8624H188.402L188.236 31.5325L196.006 19.256H199.744V30.8797ZM191.923 30.8797H196.045V24.2998L195.802 24.7222L191.923 30.8797Z" fill="black"/>
<path d="M203.413 36.077C203.413 35.4882 203.609 35.0103 204.002 34.6433C204.403 34.2763 204.902 34.0928 205.499 34.0928C206.105 34.0928 206.605 34.2763 206.997 34.6433C207.398 35.0103 207.599 35.4882 207.599 36.077C207.599 36.6574 207.402 37.131 207.01 37.498C206.617 37.8564 206.114 38.0356 205.499 38.0356C204.893 38.0356 204.394 37.8564 204.002 37.498C203.609 37.131 203.413 36.6574 203.413 36.077Z" fill="black"/>
<path d="M222.456 30.1884C222.456 32.7657 221.922 34.7372 220.855 36.1026C219.789 37.4681 218.227 38.1509 216.17 38.1509C214.139 38.1509 212.586 37.4809 211.51 36.141C210.435 34.8012 209.885 32.881 209.859 30.3804V26.9497C209.859 24.3467 210.397 22.371 211.472 21.0226C212.556 19.6742 214.113 19 216.144 19C218.176 19 219.729 19.6699 220.804 21.0098C221.879 22.3412 222.43 24.2571 222.456 26.7576V30.1884ZM218.756 26.4248C218.756 24.8801 218.543 23.7578 218.116 23.058C217.698 22.3497 217.041 21.9955 216.144 21.9955C215.274 21.9955 214.63 22.3326 214.211 23.0068C213.802 23.6725 213.584 24.7179 213.559 26.1432V30.6749C213.559 32.1939 213.763 33.3247 214.173 34.0672C214.591 34.8012 215.257 35.1681 216.17 35.1681C217.075 35.1681 217.728 34.814 218.129 34.1056C218.53 33.3973 218.739 32.3134 218.756 30.8541V26.4248Z" fill="black"/>
<path d="M51.7916 20.9023V20.3829V18.9869H51.7901L51.7874 16.5266L27.3194 6.19141L25.4657 6.19333L10.3155 12.6305L10.3202 17.0059L23.9354 22.7564V26.9942L1 36.6812V41.0586L25.4705 51.3939H27.3194L51.7874 41.0586V38.9731H51.7916L51.7916 20.9023ZM17.3358 14.8107L26.3976 10.9604L44.7725 18.7219L35.7123 22.5722L17.3358 14.8107ZM26.3948 46.626L8.031 38.8699L26.3948 31.1138L44.7569 38.8699L26.3948 46.626Z" fill="#1E71B8"/>
<path fill-rule="evenodd" clip-rule="evenodd" d="M33.0579 122.976V97.6956H40.0898C41.9566 97.6956 43.7921 97.8298 45.0358 99.5497C46.0316 100.932 46.187 102.381 46.187 104.1C46.187 106.291 45.7515 108.449 43.3871 109.392V109.46C45.8457 109.831 46.7779 112.055 46.7779 115.324C46.7779 116.369 46.7159 117.414 46.468 118.425C45.5341 121.628 43.854 122.976 40.7435 122.976H33.0579ZM38.2229 107.909C39.2816 107.909 40.6501 107.977 41.3343 107.032C41.7393 106.392 41.8013 105.515 41.8013 104.301C41.8013 102.414 41.4277 101.47 39.4361 101.403H37.413V107.909H38.2229ZM38.3469 119.268C39.2493 119.268 40.1832 119.37 40.9608 118.999C42.1425 118.425 42.2979 116.773 42.2979 115.493C42.2979 112.763 41.8013 111.617 39.0931 111.617H37.413V119.269H38.3469V119.268ZM48.4605 97.7797H52.2647V122.977H48.4605V97.7797ZM62.7425 120.196H62.6822C62.0693 122.414 60.907 123.439 58.9791 123.473C55.8269 123.473 55.1231 121.719 55.1231 118.608V104.31H59.1022V117.086C59.1022 117.913 59.0708 118.839 59.4995 119.567C59.8365 119.965 60.2041 120.162 60.7237 120.162C62.5897 120.162 62.5591 117.88 62.5591 116.424V104.31H66.5365V122.976H62.7425V120.196ZM69.2311 110.731C69.0485 106.329 71.1251 103.814 75.0354 103.814C80.5621 103.814 81.1419 106.925 81.1419 112.021V114.536H73.2008V117.251C73.2314 119.7 74.0871 120.162 75.2773 120.162C76.7435 120.162 77.1705 119.005 77.1111 116.655H81.0808C81.2336 120.825 79.6452 123.473 75.5838 123.473C71.0028 123.473 69.1394 121.123 69.2302 115.629V110.731H69.2311ZM77.1714 111.226V109.605C77.1417 107.718 76.6841 107.122 75.0957 107.122C73.1108 107.122 73.2016 108.777 73.2016 110.466V111.226H77.1714ZM91.4449 123.042C89.1917 123.341 84.9003 123.571 84.9003 120.096V107.454H82.5937V104.31H84.8706V99.1804H88.7044V104.31H91.4457V107.454H88.7044V119.038C88.791 119.833 90.9763 119.733 91.4457 119.667V123.042H91.4449ZM93.0019 114.305C93.0333 107.918 93.0944 103.814 99.1687 103.814C105.15 103.814 105.179 107.918 105.211 114.305C105.24 120.792 104.374 123.571 99.1687 123.473C93.8704 123.571 92.9713 120.792 93.0019 114.305ZM97.0293 116.885C97.0293 119.17 97.2152 120.162 99.1687 120.162C101.027 120.162 101.183 119.17 101.183 116.885V110.663C101.183 108.91 101.183 107.123 99.1687 107.123C97.0293 107.123 97.0293 108.91 97.0293 110.663V116.885ZM107.228 114.305C107.259 107.918 107.32 103.814 113.331 103.814C119.249 103.814 119.282 107.918 119.312 114.305C119.342 120.792 118.482 123.571 113.331 123.473C108.087 123.571 107.196 120.792 107.228 114.305ZM111.215 116.885C111.215 119.17 111.399 120.162 113.332 120.162C115.172 120.162 115.325 119.17 115.325 116.885V110.663C115.325 108.91 115.325 107.123 113.332 107.123C111.215 107.123 111.215 108.91 111.215 110.663V116.885ZM129.22 123.042C126.967 123.341 122.674 123.571 122.674 120.096V107.454H120.747V104.31H122.643V99.1804H126.477V104.31H129.219V107.454H126.477V119.038C126.566 119.833 128.751 119.733 129.219 119.667V123.042H129.22ZM131.765 122.976V97.8204H135.826V106.229H135.889C137.042 104.044 138.667 103.814 139.543 103.814C141.855 103.814 143.729 105.238 143.604 108.579V122.976H139.543V110.201C139.543 108.381 139.356 107.19 137.826 107.123C136.294 107.057 135.763 108.579 135.827 110.566V122.976H131.765ZM143.309 97.5742H145.613V98.1006H144.808V101.159H144.118V98.1006H143.309V97.5742ZM146.711 101.159H146.023V97.5742H147.12L147.492 99.2373C147.55 99.5098 147.59 99.7866 147.62 100.064H147.63C147.663 99.7102 147.689 99.4716 147.739 99.2373L148.109 97.5742H149.204V101.159H148.514V100.032C148.514 99.3197 148.53 98.6074 148.572 97.8943H148.562L147.822 101.159H147.403L146.678 97.8943H146.653C146.697 98.6066 146.711 99.3197 146.711 100.032V101.159Z" fill="black"/>
<path fill-rule="evenodd" clip-rule="evenodd" d="M12.8286 92.1758C5.86629 92.315 1.06459 96.0606 0.435515 102.699C0.226671 104.908 0.0628228 107.168 0 109.372V113.001C0.108667 116.298 0.543332 119.314 1.52473 121.639C3.38734 126.056 6.63035 128.699 12.4347 128.824H13.3541C19.7399 128.679 23.8778 126.864 25.9815 119.536C28.086 112.206 26.5613 101.682 24.6028 97.9827C22.6434 94.2804 19.5956 92.2929 13.6444 92.1766H12.8286V92.1758Z" fill="#2761AB"/>
<path fill-rule="evenodd" clip-rule="evenodd" d="M21.7365 116.887L15.3142 110.464L21.7 104.078L12.2647 94.7891V107.416L6.93156 102.082L5.00782 104.004L11.538 110.537L4.97131 117.104L6.89505 119.027L12.2647 113.657V126.357L21.7365 116.887ZM14.7335 100.812L17.9986 104.151L14.7335 107.416V100.812ZM14.7335 113.44L17.9986 116.778L14.7335 120.045V113.44Z" fill="white"/>
<path d="M308.469 126.109C303.334 126.109 298.229 126.109 293.094 126.109C293.094 118.325 293.094 110.599 293.094 102.785C298.199 102.785 303.305 102.785 308.469 102.785C308.469 104.014 308.469 105.214 308.469 106.473C304.647 106.473 300.825 106.473 296.887 106.473C296.77 108.433 296.857 110.365 296.828 112.326C300.708 112.326 304.53 112.326 308.439 112.326C308.439 113.701 308.439 115.047 308.439 116.452C304.618 116.452 300.796 116.452 296.887 116.452C296.887 118.325 296.887 120.139 296.887 122.041C300.738 122.041 304.559 122.041 308.439 122.041C308.469 123.388 308.469 124.705 308.469 126.109Z" fill="#454545"/>
<path d="M236.817 126.109C235.475 126.109 234.25 126.109 233.025 126.109C233.025 118.325 233.025 110.599 233.025 102.785C234.221 102.785 235.475 102.785 236.759 102.785C236.759 105.946 236.759 109.106 236.759 112.326C240.639 112.326 248.458 112.384 248.458 112.384V102.785H252.192C252.192 102.785 252.192 118.296 252.192 126.109C250.996 126.109 249.8 126.109 248.487 126.109C248.487 122.919 248.487 116.51 248.487 116.51H236.847C236.817 116.51 236.817 122.832 236.817 126.109Z" fill="#454545"/>
<path fill-rule="evenodd" clip-rule="evenodd" d="M212.895 126.109H216.979C216.979 119.524 216.979 113.057 216.95 106.56C217.177 106.56 217.401 106.557 217.621 106.553C218.052 106.547 218.47 106.541 218.875 106.56C220.013 106.648 220.976 106.355 221.88 105.682C222.756 105.009 223.572 104.307 224.068 103.312C224.561 102.324 224.535 101.274 224.509 100.229C224.5 99.8502 224.49 99.4718 224.506 99.0975C224.506 99.0682 224.448 99.0097 224.418 98.9804C223.66 97.2245 222.522 95.8784 220.655 95.2053C219.226 94.6785 217.884 94.7663 216.512 95.3809C214.12 96.4637 212.953 98.3659 212.836 100.941C212.817 101.326 212.823 101.699 212.83 102.092C212.833 102.296 212.836 102.506 212.836 102.726H208.402C200.875 102.726 200 107.116 200 109.165C200 111.506 200.875 116.481 206.973 116.686V113.057C206.973 113.057 203.793 112.676 203.793 109.457C203.793 108.17 204.668 106.531 207.293 106.531C209.919 106.531 212.895 106.677 212.895 106.677V126.109ZM218.672 98.336C217.213 98.336 216.921 100.092 216.921 102.667H219.401C220.714 102.433 221.298 101.526 221.298 100.385C221.298 99.2432 221.006 98.336 218.672 98.336Z" fill="#454545"/>
<path d="M277.632 117.768C279.353 117.651 282.27 113.963 282.27 110.393C282.27 106.823 279.353 102.755 275.181 102.755C271.155 102.579 267.129 102.696 263.045 102.696C263.045 110.569 263.045 118.324 263.045 126.05C264.329 126.05 265.554 126.05 266.838 126.05C266.838 123.416 266.838 120.841 266.838 118.236C269.055 118.236 271.243 118.236 273.402 118.236C274.948 120.87 276.465 123.504 277.953 126.05C279.441 126.05 280.812 126.05 282.358 126.05C280.753 123.24 279.178 120.519 277.632 117.768ZM274.685 114.432C272.089 114.49 269.492 114.432 266.838 114.432C266.838 111.769 266.838 109.223 266.838 106.53C268.18 106.53 269.521 106.53 270.863 106.53C271.826 106.53 273.431 106.559 274.394 106.53C275.94 106.472 278.478 107.701 278.478 110.335C278.478 112.968 276.815 114.373 274.685 114.432Z" fill="#454545"/>
<path d="M357.159 102.785C345.577 102.785 351.646 102.727 348.816 102.727C348.816 110.628 348.816 118.354 348.816 126.138C351.033 126.138 349.049 126.138 358.093 126.138C367.137 126.138 368.012 116.774 368.012 115.018C368.012 113.262 368.771 102.785 357.159 102.785ZM364.249 114.14C364.249 121.749 358.414 122.041 358.414 122.041C358.414 122.041 354.242 122.041 352.608 122.041C352.608 116.803 352.608 106.531 352.608 106.531H358.122C358.122 106.531 364.249 106.531 364.249 114.14Z" fill="#454545"/>
<path d="M328.832 102.434L317.162 126.08H321.538C321.538 126.08 322.851 123.417 323.493 122.1C327.023 122.1 334.112 122.1 334.112 122.1L336.271 126.109H340.268L328.832 102.434ZM325.506 118.207L328.803 111.272L332.333 118.207H325.506Z" fill="#454545"/>
<path d="M475.091 116.109C473.012 116.109 471.051 116.109 469.082 116.109C468.873 108.794 465.963 102.832 460.142 98.4104C456.06 95.3065 451.377 93.8982 446.268 94.0944C440.399 94.3186 435.367 96.5747 431.277 100.814C427.188 105.053 425.171 110.181 425.045 116.095C423.063 116.095 421.095 116.095 419.036 116.095C419.273 107.232 422.672 99.8888 429.519 94.2766C438.661 86.7936 451.447 85.9598 461.315 91.9995C470.227 97.4505 474.659 105.627 475.091 116.109Z" fill="#ED1C24"/>
<path d="M433.356 116.073C431.402 116.073 429.434 116.073 427.396 116.073C427.62 109.158 430.404 103.574 436.141 99.7902C442.743 95.4321 449.736 95.2009 456.673 99.0265C463.387 102.726 466.66 109.704 466.59 116.08C466.493 116.087 466.395 116.101 466.297 116.101C464.517 116.101 462.738 116.094 460.958 116.108C460.679 116.108 460.602 116.024 460.595 115.751C460.484 109.922 456.589 104.758 451.048 103.076C446.54 101.71 442.352 102.495 438.611 105.388C435.973 107.427 434.361 110.139 433.684 113.404C433.503 114.266 433.461 115.162 433.356 116.073Z" fill="#ED1C24"/>
<path d="M457.964 116.095C457.845 116.102 457.754 116.116 457.664 116.116C455.905 116.116 454.153 116.109 452.395 116.123C452.115 116.123 452.018 116.039 451.99 115.752C451.732 113.559 450.601 112.031 448.479 111.331C446.037 110.518 443.287 111.821 442.366 114.238C442.177 114.729 442.094 115.268 442.01 115.794C441.968 116.025 441.905 116.116 441.668 116.116C439.888 116.109 438.109 116.109 436.329 116.116C436.022 116.116 435.98 115.969 435.987 115.731C436.001 114.694 436.189 113.692 436.517 112.711C437.529 109.712 439.456 107.505 442.303 106.139C443.985 105.326 445.779 104.955 447.649 105.081C450.301 105.263 452.632 106.244 454.565 108.094C456.638 110.076 457.741 112.536 457.985 115.387C457.999 115.562 457.999 115.738 457.999 115.913C457.999 115.976 457.978 116.018 457.964 116.095Z" fill="#ED1C24"/>
<path d="M429.099 128.35C430.85 129.787 432.525 131.167 434.263 132.589C434.096 132.603 434.005 132.617 433.921 132.617C432.365 132.617 430.808 132.624 429.245 132.61C429.092 132.61 428.91 132.519 428.799 132.414C427.431 131.146 426.077 129.871 424.723 128.589C424.52 128.399 424.325 128.301 424.046 128.315C423.655 128.336 423.257 128.336 422.859 128.315C422.608 128.301 422.545 128.392 422.545 128.638C422.552 129.85 422.538 131.069 422.559 132.281C422.566 132.61 422.462 132.694 422.148 132.687C421.205 132.666 420.263 132.673 419.321 132.687C419.084 132.687 419 132.617 419 132.365C419.007 128.406 419.007 124.455 419.007 120.496C419.007 120.44 419.014 120.384 419.021 120.286C419.147 120.279 419.272 120.265 419.391 120.265C422.748 120.265 426.112 120.258 429.468 120.265C430.111 120.265 430.739 120.356 431.304 120.72C431.855 121.071 432.197 121.589 432.218 122.213C432.267 123.572 432.295 124.938 432.218 126.297C432.155 127.383 431.297 128.105 430.125 128.238C429.817 128.273 429.51 128.308 429.099 128.35ZM422.566 125.422C422.727 125.422 422.866 125.422 423.006 125.422C424.758 125.443 426.509 125.457 428.261 125.478C428.645 125.485 428.785 125.359 428.799 124.966C428.812 124.595 428.805 124.217 428.805 123.845C428.799 123.257 428.75 123.201 428.177 123.18C428.129 123.18 428.087 123.18 428.038 123.18C426.328 123.18 424.625 123.18 422.915 123.18C422.804 123.18 422.692 123.194 422.566 123.201C422.566 123.943 422.566 124.651 422.566 125.422Z" fill="black"/>
<path d="M460.162 132.587C460.162 132.419 460.162 132.293 460.162 132.167C460.162 128.334 460.169 124.509 460.155 120.676C460.155 120.326 460.239 120.221 460.594 120.221C463.191 120.242 465.78 120.221 468.376 120.249C469.737 120.263 471.063 120.508 472.256 121.209C473.722 122.07 474.58 123.374 474.853 125.041C475.076 126.4 474.999 127.739 474.455 129.028C473.638 130.976 472.173 132.111 470.1 132.419C469.29 132.538 468.46 132.587 467.636 132.594C465.263 132.615 462.891 132.601 460.518 132.601C460.427 132.608 460.322 132.601 460.162 132.587ZM463.812 126.443C463.812 127.402 463.819 128.355 463.812 129.315C463.812 129.546 463.882 129.651 464.133 129.644C465.319 129.616 466.506 129.63 467.685 129.56C468.313 129.525 468.948 129.392 469.562 129.231C470.414 129.007 470.972 128.453 471.21 127.585C471.412 126.835 471.412 126.078 471.251 125.335C471.042 124.376 470.477 123.724 469.521 123.472C469.144 123.374 468.746 123.297 468.355 123.29C466.959 123.269 465.564 123.29 464.168 123.276C463.882 123.276 463.812 123.381 463.819 123.64C463.819 124.572 463.812 125.504 463.812 126.443Z" fill="black"/>
<path d="M436.804 132.664C436.804 128.516 436.804 124.425 436.804 120.305C440.95 120.305 445.088 120.305 449.248 120.305C449.248 121.258 449.248 122.21 449.248 123.191C446.296 123.191 443.364 123.191 440.398 123.191C440.398 123.899 440.398 124.572 440.398 125.286C441.99 125.286 443.574 125.286 445.179 125.286C445.179 126.309 445.179 127.283 445.179 128.313C443.595 128.313 442.011 128.313 440.391 128.313C440.384 128.495 440.37 128.635 440.37 128.769C440.37 129.939 440.357 131.102 440.377 132.272C440.384 132.58 440.287 132.671 439.98 132.664C438.94 132.657 437.893 132.664 436.804 132.664Z" fill="black"/>
<path d="M455.248 132.692C454.069 132.692 452.91 132.692 451.731 132.692C451.731 128.558 451.731 124.446 451.731 120.305C452.91 120.305 454.069 120.305 455.248 120.305C455.248 124.432 455.248 128.544 455.248 132.692Z" fill="black"/>
<path d="M497.486 19.066C493.941 15.5216 489.299 13.6917 484.618 13.6339L484.406 16.6582C488.355 16.6774 492.342 18.1992 495.347 21.2043C498.352 24.2093 499.893 28.1775 499.893 32.1457L502.918 31.9338C502.86 27.2529 501.03 22.6105 497.486 19.066Z" fill="#C0C0C0"/>
<path d="M484.251 18.854L484.039 21.8013C486.813 21.7242 489.606 22.7452 491.706 24.8448C493.805 26.9445 494.846 29.7569 494.749 32.5116L497.697 32.2997C497.716 28.8516 496.406 25.3842 493.786 22.7644C491.166 20.1447 487.699 18.8348 484.251 18.854Z" fill="#C0C0C0"/>
<path d="M467.429 33.0186H469.034C469.798 33.0186 470.365 32.8275 470.733 32.4454C471.101 32.0632 471.285 31.556 471.285 30.9237C471.285 30.3122 471.101 29.8363 470.733 29.4958C470.372 29.1553 469.871 28.9851 469.232 28.9851C468.655 28.9851 468.172 29.1449 467.783 29.4645C467.394 29.7772 467.2 30.1872 467.2 30.6944H464.188C464.188 29.9023 464.4 29.1935 464.823 28.5682C465.254 27.9359 465.852 27.4426 466.616 27.0882C467.387 26.7338 468.235 26.5566 469.159 26.5566C470.764 26.5566 472.022 26.9423 472.932 27.7135C473.842 28.4779 474.297 29.534 474.297 30.882C474.297 31.5768 474.086 32.2161 473.662 32.7997C473.238 33.3834 472.682 33.8316 471.994 34.1442C472.849 34.45 473.485 34.9086 473.901 35.52C474.325 36.1315 474.537 36.8541 474.537 37.6879C474.537 39.0359 474.044 40.1164 473.057 40.9293C472.077 41.7423 470.778 42.1487 469.159 42.1487C467.644 42.1487 466.404 41.7492 465.438 40.9502C464.479 40.1511 464 39.0949 464 37.7817H467.012C467.012 38.3515 467.224 38.817 467.648 39.1783C468.079 39.5396 468.607 39.7203 469.232 39.7203C469.948 39.7203 470.507 39.5327 470.91 39.1575C471.32 38.7753 471.525 38.2716 471.525 37.6462C471.525 36.1315 470.691 35.3741 469.024 35.3741H467.429V33.0186Z" fill="#C0C0C0"/>
<path d="M488.311 40.0225C487.748 40.6965 486.953 41.2211 485.924 41.5964C484.896 41.9646 483.757 42.1487 482.506 42.1487C481.193 42.1487 480.039 41.8639 479.046 41.2941C478.059 40.7174 477.295 39.8836 476.753 38.7927C476.218 37.7018 475.943 36.4198 475.929 34.9468V33.9149C475.929 32.4002 476.183 31.0904 476.69 29.9857C477.204 28.8739 477.941 28.0262 478.9 27.4426C479.865 26.8519 480.995 26.5566 482.287 26.5566C484.087 26.5566 485.494 26.9874 486.508 27.849C487.523 28.7037 488.124 29.9509 488.311 31.5907H485.268C485.129 30.7222 484.82 30.0864 484.34 29.6834C483.868 29.2804 483.215 29.0789 482.381 29.0789C481.318 29.0789 480.508 29.4784 479.952 30.2775C479.396 31.0765 479.115 32.2647 479.108 33.842V34.8113C479.108 36.4025 479.41 37.6045 480.015 38.4175C480.619 39.2304 481.505 39.6369 482.673 39.6369C483.847 39.6369 484.684 39.3868 485.184 38.8865V36.2704H482.339V33.9671H488.311V40.0225Z" fill="#C0C0C0"/>
<path d="M537.648 13.9272C532.475 8.75487 525.701 6.08439 518.87 6.00006L518.561 10.4134C524.323 10.4415 530.142 12.6622 534.527 17.0475C538.913 21.4327 541.161 27.2234 541.161 33.0142L545.575 32.705C545.49 25.8742 542.82 19.0995 537.648 13.9272Z" fill="#0C87FE"/>
<path d="M518.334 13.6188L518.025 17.9197C522.073 17.8072 526.149 19.2971 529.213 22.3611C532.277 25.4252 533.795 29.5293 533.655 33.5491L537.955 33.2399C537.984 28.2081 536.072 23.1482 532.249 19.3252C528.426 15.5022 523.366 13.5907 518.334 13.6188Z" fill="#0C87FE"/>
<path d="M504.35 40.7911H507.175V44.7809H504.35V50.1748H499.401V44.7809H489.178L488.956 41.6644L499.35 25.2429H504.35V40.7911ZM493.887 40.7911H499.401V31.9896L499.076 32.5546L493.887 40.7911Z" fill="#0C87FE"/>
<path d="M529.051 47.0241C528.127 48.1314 526.82 48.9933 525.13 49.6097C523.441 50.2148 521.568 50.5173 519.514 50.5173C517.356 50.5173 515.461 50.0492 513.829 49.1132C512.208 48.1657 510.952 46.7958 510.061 45.0035C509.182 43.2112 508.731 41.105 508.709 38.6849V36.9897C508.709 34.501 509.125 32.3492 509.959 30.5341C510.803 28.7075 512.014 27.3148 513.589 26.3559C515.176 25.3856 517.031 24.9004 519.154 24.9004C522.111 24.9004 524.422 25.6082 526.089 27.0237C527.756 28.4279 528.743 30.477 529.051 33.1711H524.051C523.823 31.7441 523.315 30.6996 522.527 30.0375C521.751 29.3754 520.678 29.0443 519.308 29.0443C517.562 29.0443 516.232 29.7007 515.318 31.0135C514.405 32.3263 513.943 34.2784 513.931 36.8698V38.4623C513.931 41.0765 514.428 43.0514 515.421 44.387C516.414 45.7227 517.87 46.3905 519.788 46.3905C521.717 46.3905 523.092 45.9795 523.914 45.1576V40.8596H519.24V37.0753H529.051V47.0241Z" fill="#0C87FE"/>
<defs>
<radialGradient id="paint0_radial" cx="0" cy="0" r="1" gradientUnits="userSpaceOnUse" gradientTransform="translate(306.5 28.5) scale(22.5)">
<stop stop-color="#DC001F"/>
<stop offset="0.64215" stop-color="#D5001D"/>
<stop offset="0.82382" stop-color="#AE0017"/>
<stop offset="1" stop-color="#590E0A"/>
</radialGradient>
<linearGradient id="paint1_linear" x1="306.38" y1="20.4309" x2="306.386" y2="7.26912" gradientUnits="userSpaceOnUse">
<stop stop-color="#D4001C"/>
<stop offset="0.53134" stop-color="#EC8A6C"/>
<stop offset="0.88757" stop-color="#FCEFE7"/>
<stop offset="1" stop-color="#FDF7F1"/>
</linearGradient>
</defs>
</svg>
