<svg width="548" height="47" viewBox="0 0 548 47" fill="none" xmlns="http://www.w3.org/2000/svg">
<path d="M114.393 20.814C115.007 15.0582 120.844 15.7769 125.417 16.3399L125.417 16.34C125.614 16.3642 125.808 16.3881 126 16.4112V18.3324C124.799 18.2257 121.901 18.0122 119.916 18.0122C117.931 18.0122 117.381 20.0402 117.354 21.0542V24.8165C117.354 28.2107 123.118 27.6717 126 26.9779V29.0592C124.853 29.246 121.901 29.5555 119.276 29.2994C115.994 28.9792 113.752 26.8178 114.393 20.814Z" fill="#363B72"/>
<path d="M62.84 18.2524L63.0802 16.3312C62.0662 16.2511 59.67 16.075 58.1971 16.0109C58.1488 16.0088 58.0988 16.0066 58.0474 16.0043C56.1402 15.9187 52.1862 15.7414 51.713 19.133C51.266 22.3358 54.995 23.0132 56.392 23.3345C56.4767 23.351 56.5461 23.3645 56.5961 23.3756C56.6618 23.3902 56.7497 23.4075 56.8547 23.4282C57.9003 23.6341 60.6567 24.1768 60.4385 25.7771C60.1983 27.5382 57.7168 27.4582 55.7155 27.2981C54.1145 27.17 52.4868 27.0313 51.8731 26.9779L51.6329 29.0592C53.1272 29.2193 56.532 29.5235 58.1971 29.4595C60.2784 29.3794 62.76 28.739 63.0802 25.7771C63.3943 22.871 59.8995 22.1083 57.7584 21.6411L57.6367 21.6145C55.0751 21.0542 53.9944 20.4938 54.3546 19.0529C54.6548 17.8521 55.5554 17.692 58.9976 17.9322C60.8548 18.0617 61.901 18.1648 62.4243 18.2163C62.6605 18.2396 62.7902 18.2524 62.84 18.2524Z" fill="#363B72"/>
<path d="M65.0014 16.1711H69.8044L74.1271 26.0974L78.1297 16.1711H82.9327V29.0592H80.0509V18.4125L75.6481 28.739H72.5261L68.1233 18.4125V29.0592H65.0014V16.1711Z" fill="#363B72"/>
<path fill-rule="evenodd" clip-rule="evenodd" d="M87.5756 29.0592H84.4537L88.7764 16.1711H94.7802L99.0229 29.0592H96.061L94.9403 26.5777H88.3762L87.5756 29.0592ZM89.0966 24.4541L91.0178 18.0501H92.3787L94.46 24.4541H89.0966Z" fill="#363B72"/>
<path fill-rule="evenodd" clip-rule="evenodd" d="M100.384 16.1711V29.0592H103.266V24.5764H107.588L109.91 29.0592H113.192L110.23 24.2562C113.192 22.335 113.192 21.4544 113.192 20.0936C113.192 18.7327 112.551 16.1711 108.629 16.1711H100.384ZM103.266 22.693V18.0501H108.149C109.349 18.0501 110.15 19.491 110.15 20.3715C110.15 21.2521 109.75 22.693 108.149 22.693H103.266Z" fill="#363B72"/>
<path fill-rule="evenodd" clip-rule="evenodd" d="M71.8086 32.4592V35.2252C71.3918 34.6853 70.7666 34.42 70.0562 34.42C68.5879 34.42 67.5175 35.4431 67.5175 36.9776C67.5175 38.5122 68.5879 39.5447 70.0562 39.5447C70.795 39.5447 71.4392 39.2606 71.8465 38.6922V39.4879H72.718V32.4592H71.8086ZM70.1319 38.749C69.1657 38.749 68.4363 38.0481 68.4363 36.9776C68.4363 35.9072 69.1657 35.2157 70.1319 35.2157C71.0887 35.2157 71.8181 35.9072 71.8181 36.9776C71.8181 38.0481 71.0887 38.749 70.1319 38.749Z" fill="#363B72"/>
<path d="M55.9008 35.3483C56.2797 34.78 56.9807 34.42 57.8332 34.42C59.0552 34.42 59.8888 35.121 59.8888 36.5987V39.4879H58.9794V36.7029C58.9794 35.7178 58.5058 35.2347 57.6817 35.2347C56.7723 35.2347 56.1755 35.8125 56.1755 36.9019V39.4879H55.2661V36.7029C55.2661 35.7178 54.7925 35.2347 53.9684 35.2347C53.059 35.2347 52.4622 35.8125 52.4622 36.9019V39.4879H51.5529V34.4674H52.4243V35.2157C52.7843 34.7042 53.4 34.42 54.1578 34.42C54.9251 34.42 55.5693 34.7232 55.9008 35.3483Z" fill="#363B72"/>
<path fill-rule="evenodd" clip-rule="evenodd" d="M66.5345 36.9776C66.5345 38.4743 65.4357 39.5447 63.9296 39.5447C62.4234 39.5447 61.3151 38.4743 61.3151 36.9776C61.3151 35.481 62.4234 34.42 63.9296 34.42C65.4357 34.42 66.5345 35.481 66.5345 36.9776ZM62.234 36.9776C62.234 38.0481 62.9634 38.749 63.9296 38.749C64.8958 38.749 65.6157 38.0481 65.6157 36.9776C65.6157 35.9072 64.8958 35.2157 63.9296 35.2157C62.9634 35.2157 62.234 35.9072 62.234 36.9776Z" fill="#363B72"/>
<path d="M78.3982 37.0629V34.4674H79.3076V39.4879H78.4455V38.7301C78.0761 39.2511 77.4509 39.5447 76.7405 39.5447C75.4427 39.5447 74.5807 38.8343 74.5807 37.3566V34.4674H75.4901V37.2524C75.4901 38.2375 75.9826 38.7301 76.8447 38.7301C77.7919 38.7301 78.3982 38.1428 78.3982 37.0629Z" fill="#363B72"/>
<path d="M81.2282 39.4879H82.1376V32.4592H81.2282V39.4879Z" fill="#363B72"/>
<path fill-rule="evenodd" clip-rule="evenodd" d="M86.1189 34.42C87.5682 34.42 88.6008 35.462 88.6008 37.0061C88.6008 37.0818 88.5913 37.1955 88.5818 37.2808H84.5086C84.6222 38.1617 85.3327 38.749 86.3273 38.749C86.9146 38.749 87.4072 38.5501 87.7766 38.1428L88.2787 38.7301C87.824 39.2606 87.1325 39.5447 86.2989 39.5447C84.6791 39.5447 83.5992 38.4743 83.5992 36.9776C83.5992 35.4904 84.6696 34.42 86.1189 34.42ZM87.7293 36.6272C87.6345 35.7841 86.9999 35.1873 86.1189 35.1873C85.2474 35.1873 84.6033 35.7746 84.5086 36.6272H87.7293Z" fill="#363B72"/>
<path fill-rule="evenodd" clip-rule="evenodd" d="M20.9733 3C17.3493 3 14.3236 5.501 13.6086 8.89692C13.2168 10.7579 12.7677 11.6858 11.2871 13.1664C10.0897 14.3638 8.37097 15.0356 6.72425 15.2098C2.9448 15.6094 0 18.8071 0 22.6925C0 26.5779 2.9448 29.7755 6.72425 30.1751C8.45801 30.3585 9.87425 30.7255 11.2071 32.0584C12.6041 33.4554 13.2201 34.6193 13.6192 36.4612C14.353 39.8479 17.3669 42.3849 20.9733 42.3849C25.1291 42.3849 28.498 39.016 28.498 34.8602V30.2172V29.4167H42.1066V16.1283H28.498V15.1677V10.5248C28.498 6.36895 25.1291 3 20.9733 3ZM28.4979 16.1277H15.2095V29.4161H28.4979V16.1277Z" fill="#BDD83D"/>
<path fill-rule="evenodd" clip-rule="evenodd" d="M239.976 27.9259H233.065C231.924 27.9259 231 27.0279 231 25.9201V21.0058C231 19.898 231.924 19 233.065 19H244.935C246.076 19 247 19.898 247 21.0058V25.9201C247 27.0279 246.076 27.9259 244.935 27.9259H242.207L242.579 28.5928C242.837 29.0553 242.661 29.6337 242.185 29.8846C241.709 30.1354 241.113 29.9638 240.855 29.5013L239.976 27.9259ZM233.065 21.0058H244.935V25.9201H241.087L240.211 24.3506C239.953 23.8881 239.357 23.7165 238.881 23.9674C238.405 24.2182 238.229 24.7966 238.487 25.2591L238.856 25.9201H233.065V21.0058Z" fill="black"/>
<path fill-rule="evenodd" clip-rule="evenodd" d="M325.934 20.131C326.149 19.9447 326.483 19.9588 326.679 20.1626L332.11 25.7924C332.281 25.9698 332.575 25.9698 332.747 25.7924L338.177 20.1626C338.373 19.9588 338.707 19.9447 338.922 20.131C339.137 20.3173 339.152 20.6336 338.955 20.8374L333.525 26.4672C332.936 27.0782 331.92 27.0782 331.331 26.4672L325.901 20.8374C325.704 20.6336 325.719 20.3173 325.934 20.131ZM264 21.5455C264 20.7672 264.666 20.1364 265.487 20.1364H270.713C271.005 20.1364 271.241 20.3602 271.241 20.6364C271.241 20.9125 271.005 21.1364 270.713 21.1364H265.487C265.248 21.1364 265.055 21.3195 265.055 21.5455V22.7727C265.055 22.9987 265.248 23.1818 265.487 23.1818H275.652C276.473 23.1818 277.139 23.8127 277.139 24.5909V25.5909C277.139 26.3691 276.473 27 275.652 27H264.527C264.236 27 264 26.7761 264 26.5C264 26.2239 264.236 26 264.527 26H275.652C275.891 26 276.084 25.8168 276.084 25.5909V24.5909C276.084 24.365 275.891 24.1818 275.652 24.1818H265.487C264.666 24.1818 264 23.5509 264 22.7727V21.5455ZM294.881 21.6364C294.881 20.8581 295.547 20.2273 296.368 20.2273H307.541C307.832 20.2273 308.068 20.4511 308.068 20.7273C308.068 21.0034 307.832 21.2273 307.541 21.2273H296.368C296.13 21.2273 295.936 21.4104 295.936 21.6364V23.1136H301.834C302.126 23.1136 302.362 23.3375 302.362 23.6136C302.362 23.8898 302.126 24.1136 301.834 24.1136H295.936V25.5909C295.936 25.8168 296.13 26 296.368 26H307.541C307.832 26 308.068 26.2239 308.068 26.5C308.068 26.7761 307.832 27 307.541 27H296.368C295.547 27 294.881 26.3691 294.881 25.5909V21.6364ZM356.98 21.6364C356.98 20.8581 357.645 20.2273 358.466 20.2273H369.639C369.93 20.2273 370.167 20.4511 370.167 20.7273C370.167 21.0034 369.93 21.2273 369.639 21.2273H358.466C358.228 21.2273 358.035 21.4104 358.035 21.6364V23.1136H363.933C364.224 23.1136 364.46 23.3375 364.46 23.6136C364.46 23.8898 364.224 24.1136 363.933 24.1136H358.035V25.5909C358.035 25.8168 358.228 26 358.466 26H369.639C369.93 26 370.167 26.2239 370.167 26.5C370.167 26.7761 369.93 27 369.639 27H358.466C357.645 27 356.98 26.3691 356.98 25.5909V21.6364ZM400.473 20.2273C400.764 20.2273 401 20.4511 401 20.7273V25.9116C401 26.5536 400.287 26.9712 399.681 26.6841L388.82 21.5363V26.5C388.82 26.7761 388.584 27 388.293 27C388.001 27 387.765 26.7761 387.765 26.5V21.3157C387.765 20.6736 388.478 20.2561 389.084 20.5432L399.945 25.691V20.7273C399.945 20.4511 400.181 20.2273 400.473 20.2273Z" fill="black"/>
<path d="M222.949 8.95703L199.573 14.6155H212.838L199.573 41.7948L222.949 8.95703Z" fill="#007D3B"/>
<path d="M180 34.8379L203.376 29.1794L190.111 29.1794L203.376 2.00011L180 34.8379Z" fill="#007D3B"/>
<path d="M502.472 19.2076C502.472 16.7879 502.472 14.4269 502.472 12.0659C502.448 12.0542 502.425 12.0424 502.402 12.0307C502.331 12.1716 502.261 12.3009 502.214 12.4536C501.032 15.6368 499.838 18.82 498.668 22.0033C498.527 22.3909 498.352 22.5318 497.931 22.5318C496.397 22.5201 496.397 22.5318 495.859 21.0753C494.806 18.2327 493.764 15.3901 492.71 12.5593C492.664 12.4418 492.605 12.3244 492.476 12.2186C492.476 14.5444 492.476 16.8701 492.476 19.2311C492.792 19.2546 493.097 19.2664 493.436 19.2899C493.436 20.3705 493.436 21.4277 493.436 22.5201C491.68 22.5201 489.972 22.5201 488.204 22.5201C488.204 21.4512 488.204 20.3823 488.204 19.2899C488.532 19.2781 488.836 19.2546 489.176 19.2429C489.176 16.9171 489.176 14.6266 489.176 12.2774C488.848 12.2421 488.532 12.2186 488.193 12.1834C488.193 11.1027 488.193 10.0573 488.193 8.94143C488.438 8.94143 488.637 8.94143 488.848 8.94143C491.166 8.94143 493.495 8.95318 495.812 8.92969C496.257 8.92969 496.421 9.09413 496.549 9.47001C497.1 10.9735 497.673 12.4536 498.305 14.1098C498.539 13.546 498.715 13.1231 498.879 12.712C499.323 11.5843 499.745 10.4567 500.213 9.32906C500.283 9.16461 500.529 8.95318 500.693 8.95318C503.233 8.92969 505.761 8.94143 508.301 8.95318C508.336 8.95318 508.371 8.97667 508.441 9.01191C508.441 10.0456 508.441 11.091 508.441 12.2069C508.137 12.2304 507.809 12.2421 507.458 12.2656C507.458 14.5914 507.458 16.8936 507.458 19.2429C507.774 19.2546 508.078 19.2781 508.429 19.2899C508.429 20.347 508.429 21.4159 508.429 22.5083C506.124 22.5083 503.806 22.5083 501.465 22.5083C501.465 21.4277 501.465 20.3823 501.465 19.3016C501.805 19.2546 502.109 19.2311 502.472 19.2076Z" fill="black"/>
<path d="M478.687 8.56641C481.04 8.66038 483.135 9.31817 484.668 11.1976C486.389 13.3001 486.798 15.6964 485.815 18.2453C484.844 20.759 482.924 22.1803 480.314 22.6149C478.102 22.9908 475.937 22.7676 474.041 21.4403C471.653 19.7723 470.658 17.3996 471.126 14.557C471.618 11.5734 473.455 9.6823 476.382 8.91879C477.131 8.71911 477.915 8.68387 478.687 8.56641ZM480.455 15.8726C480.384 15.0268 480.349 14.369 480.291 13.7113C480.279 13.5351 480.221 13.3706 480.174 13.1944C479.928 12.2665 479.46 11.8436 478.664 11.8554C477.88 11.8554 477.33 12.3017 477.142 13.1944C476.803 14.8506 476.815 16.5304 477.142 18.1983C477.318 19.091 477.903 19.5491 478.664 19.5491C479.46 19.5374 479.986 19.1145 480.174 18.1983C480.326 17.3761 480.373 16.5304 480.455 15.8726Z" fill="black"/>
<path d="M464.116 33.819C464.116 34.7704 464.116 35.6631 464.116 36.6146C463.239 36.6146 462.384 36.6146 461.471 36.6146C461.471 37.2959 461.459 37.9184 461.483 38.5292C461.483 38.6349 461.658 38.8111 461.752 38.8111C462.642 38.8346 463.543 38.8229 464.467 38.8229C464.491 38.447 464.514 38.1299 464.538 37.7657C465.72 37.7657 466.879 37.7657 468.072 37.7657C468.072 39.2105 468.072 40.6201 468.072 42.0766C463.777 42.0766 459.493 42.0766 455.174 42.0766C455.174 41.0077 455.174 39.9623 455.174 38.8581C455.49 38.8346 455.795 38.8229 456.146 38.7994C456.146 36.4736 456.146 34.1596 456.146 31.8104C455.83 31.7869 455.525 31.7751 455.186 31.7516C455.186 30.6827 455.186 29.6373 455.186 28.5449C459.47 28.5449 463.742 28.5449 468.061 28.5449C468.061 29.9662 468.061 31.3758 468.061 32.8206C466.89 32.8206 465.732 32.8206 464.526 32.8206C464.514 32.4917 464.491 32.1745 464.479 31.8339C463.496 31.8339 462.513 31.8339 461.495 31.8339C461.495 32.4917 461.495 33.126 461.495 33.8307C462.384 33.819 463.227 33.819 464.116 33.819Z" fill="black"/>
<path d="M489.48 32.6564C489.504 32.8796 489.527 33.0792 489.527 33.1967C490.393 32.95 491.224 32.6094 492.09 32.4684C494.127 32.1395 496.222 33.185 497.205 34.9351C498.153 36.6031 498.001 38.9524 496.854 40.4206C496.14 41.3368 495.18 41.8889 494.068 42.1121C492.605 42.4058 491.166 42.3705 489.785 41.6892C489.714 41.654 489.644 41.654 489.527 41.6188C489.527 42.2296 489.527 42.8051 489.527 43.4159C489.913 43.4394 490.276 43.4512 490.674 43.4747C490.674 44.4613 490.674 45.4128 490.674 46.4112C488.287 46.4112 485.899 46.4112 483.476 46.4112C483.476 45.448 483.476 44.4848 483.476 43.4747C483.839 43.4512 484.178 43.4277 484.576 43.4042C484.576 43.1223 484.576 42.8639 484.576 42.6172C484.576 40.5381 484.576 38.4708 484.576 36.3917C484.576 35.4872 484.658 35.5577 483.769 35.5577C483.687 35.5577 483.617 35.5459 483.488 35.5342C483.488 34.5828 483.488 33.6431 483.488 32.6446C485.466 32.6564 487.456 32.6564 489.48 32.6564ZM492.851 37.2609C492.804 36.9907 492.793 36.7206 492.722 36.4622C492.535 35.7221 492.067 35.3345 491.318 35.2993C490.522 35.2523 489.96 35.5694 489.703 36.2625C489.422 37.0025 489.422 37.7542 489.703 38.4943C489.995 39.2578 490.756 39.6219 491.552 39.3987C492.395 39.152 492.816 38.4473 492.851 37.2609Z" fill="black"/>
<path d="M465.813 16.5417C466.902 16.9293 468.026 17.3404 469.208 17.7633C468.763 19.7484 467.815 21.3341 465.942 22.0976C463.309 23.1666 460.664 23.0373 458.159 21.6748C456.204 20.6176 455.28 18.797 455.057 16.6474C454.776 13.9105 455.502 11.4673 457.843 9.83457C460.149 8.23708 462.618 8.23708 465.099 9.50568C465.217 9.56441 465.334 9.64663 465.509 9.75235C465.533 9.45869 465.556 9.22377 465.579 8.9536C466.644 8.9536 467.686 8.9536 468.775 8.9536C468.775 10.5981 468.775 12.2308 468.775 13.934C467.721 13.934 466.691 13.9458 465.673 13.9105C465.533 13.9105 465.357 13.6638 465.287 13.4994C464.842 12.5597 464.187 11.9371 463.098 11.9371C462.349 11.9371 461.74 12.2543 461.459 12.9473C460.722 14.7562 460.699 16.6356 461.436 18.4211C462.033 19.8424 464.023 19.9716 464.877 18.6677C465.263 18.0569 465.486 17.3052 465.813 16.5417Z" fill="black"/>
<path d="M481.766 32.5995C481.766 33.6097 481.766 34.5376 481.766 35.5948C480.537 35.2541 479.94 36.0764 479.319 36.9926C479.858 37.6386 480.373 38.3434 481.005 38.9425C481.216 39.1421 481.695 39.0717 482.105 39.1304C482.105 40.0584 482.105 41.0333 482.105 42.0905C481.836 42.0905 481.555 42.0905 481.274 42.0905C480.162 42.0905 479.05 42.1139 477.938 42.067C477.681 42.0552 477.353 41.879 477.189 41.6793C476.651 41.0098 476.183 40.2933 475.633 39.5298C475.094 40.2463 474.568 40.9158 474.099 41.6206C473.854 41.9965 473.561 42.1139 473.128 42.1022C472.121 42.067 471.103 42.0905 470.05 42.0905C470.05 41.0685 470.05 40.1053 470.05 39.0482C471.396 39.4358 471.805 38.2612 472.566 37.5681C472.051 36.9456 471.583 36.3465 471.08 35.7827C470.951 35.6418 470.682 35.6065 470.459 35.5713C470.26 35.536 470.038 35.5595 469.804 35.5595C469.804 34.5376 469.804 33.5979 469.804 32.5877C471.372 32.5877 472.917 32.576 474.451 32.5995C474.591 32.5995 474.767 32.7992 474.872 32.9519C475.34 33.6214 475.797 34.3027 476.323 35.1014C476.663 34.6198 477.025 34.2205 477.248 33.7624C477.728 32.7639 478.477 32.435 479.542 32.576C480.256 32.67 480.981 32.5995 481.766 32.5995Z" fill="black"/>
<path d="M522.591 37.8484C520.11 37.8484 517.663 37.8484 515.217 37.8484C515.042 39.4106 516.142 40.503 517.371 40.0214C517.675 39.904 517.897 39.5868 518.155 39.3636C518.272 39.2697 518.436 39.117 518.553 39.1287C519.805 39.2579 521.058 39.4224 522.357 39.5868C521.842 40.7497 520.987 41.4662 519.887 41.8656C517.71 42.6526 515.51 42.5939 513.368 41.7716C511.472 41.0434 510.43 39.5868 510.383 37.5547C510.337 35.5579 511.214 33.9956 513.005 33.1264C515.498 31.9165 518.038 31.94 520.426 33.4083C522.029 34.3715 522.544 35.969 522.591 37.8484ZM517.991 36.5563C517.933 35.781 517.874 35.0763 517.16 34.6769C516.727 34.4302 516.282 34.442 515.896 34.7591C515.334 35.2172 515.17 35.828 515.276 36.568C516.165 36.5563 517.031 36.5563 517.991 36.5563Z" fill="black"/>
<path d="M539.984 41.5955C539.961 41.7717 539.937 41.9714 539.914 42.1946C538.943 42.1946 537.983 42.1946 536.964 42.1946C536.964 41.2197 536.964 40.233 536.964 39.1876C537.842 39.1876 538.72 39.1641 539.586 39.1993C539.762 39.2111 539.961 39.3755 540.113 39.5165C540.815 40.186 541.658 40.4209 542.594 40.2682C542.875 40.2212 543.121 39.9746 543.378 39.8101C543.168 39.6104 542.98 39.3168 542.723 39.2463C541.892 38.9879 541.014 38.8469 540.183 38.6003C539.481 38.3888 538.767 38.1421 538.111 37.825C537.058 37.3317 536.52 36.4859 536.602 35.2878C536.684 34.078 537.269 33.2087 538.404 32.7859C539.972 32.1985 541.529 32.2573 543.051 32.9973C543.133 33.0443 543.226 33.0678 543.367 33.1265C543.378 32.6684 543.613 32.5744 543.999 32.5979C544.795 32.6332 545.591 32.6097 546.48 32.6097C546.48 33.4906 546.492 34.3246 546.468 35.1586C546.468 35.2408 546.234 35.3935 546.106 35.3935C545.38 35.417 544.666 35.4288 543.94 35.3935C543.73 35.3818 543.507 35.2408 543.332 35.1116C542.641 34.6065 541.88 34.3599 541.038 34.3951C540.885 34.4068 540.698 34.4068 540.581 34.4773C540.406 34.5948 540.207 34.771 540.16 34.9589C540.136 35.0646 540.394 35.3231 540.558 35.3583C541.424 35.5697 542.313 35.6989 543.179 35.9339C544.057 36.1805 544.947 36.4389 545.766 36.8266C547.861 37.825 547.346 40.6793 545.953 41.4898C544.233 42.5 542.442 42.5 540.616 41.8305C540.429 41.76 540.265 41.666 540.09 41.5955C540.054 41.5838 540.031 41.5955 539.984 41.5955Z" fill="black"/>
<path d="M531.134 33.1626C531.169 32.9629 531.193 32.8102 531.216 32.634C532.187 32.634 533.159 32.634 534.189 32.634C534.189 33.4915 534.201 34.302 534.177 35.1242C534.177 35.2182 533.99 35.3826 533.885 35.3826C533.1 35.4061 532.328 35.4061 531.544 35.3826C531.392 35.3826 531.239 35.2299 531.099 35.1242C530.397 34.6074 529.624 34.3255 528.758 34.3725C528.606 34.3842 528.419 34.3842 528.313 34.4664C528.15 34.5957 527.951 34.7718 527.927 34.9598C527.915 35.0772 528.15 35.3239 528.313 35.3592C529.18 35.5706 530.069 35.6998 530.935 35.9347C531.719 36.1344 532.515 36.3576 533.264 36.6982C534.318 37.1798 534.95 37.9668 534.879 39.2237C534.809 40.4453 534.271 41.3262 533.159 41.7843C531.497 42.4656 529.823 42.4891 528.173 41.7374C528.032 41.6786 527.892 41.6199 527.728 41.5494C527.705 41.7726 527.693 41.9723 527.67 42.1955C526.675 42.1955 525.692 42.1955 524.673 42.1955C524.673 41.197 524.673 40.2221 524.673 39.1884C525.586 39.1884 526.476 39.1767 527.365 39.2002C527.529 39.2002 527.705 39.3764 527.834 39.5056C528.571 40.2104 529.449 40.4453 530.42 40.2691C530.678 40.2221 530.888 39.9989 531.122 39.858C530.935 39.67 530.771 39.3646 530.549 39.2941C529.694 39.0357 528.817 38.8713 527.951 38.6129C527.248 38.4014 526.546 38.1548 525.867 37.8494C524.814 37.3678 524.252 36.5103 524.311 35.3239C524.369 34.0906 524.978 33.1978 526.136 32.775C527.822 32.1524 529.472 32.2699 531.134 33.1626Z" fill="black"/>
<path d="M499.382 42.0659C499.382 41.0792 499.382 40.1278 499.382 39.1059C499.78 39.1059 500.154 39.1059 500.611 39.1059C500.611 37.9782 500.622 36.9093 500.599 35.8404C500.599 35.7464 500.377 35.6172 500.236 35.5937C499.979 35.5585 499.698 35.582 499.394 35.582C499.394 34.5718 499.394 33.6321 499.394 32.6454C501.325 32.6454 503.244 32.6454 505.199 32.6454C505.199 33.3385 505.199 33.9963 505.199 34.5483C505.784 34.008 506.311 33.2915 507.013 32.9156C507.715 32.5397 508.593 32.481 509.483 32.2578C509.483 33.7848 509.483 35.1239 509.483 36.5334C508.991 36.5569 508.476 36.5687 507.961 36.6157C506.369 36.7684 505.538 37.6024 505.573 39.0706C506.006 39.0706 506.439 39.0706 506.931 39.0706C506.931 40.0926 506.931 41.0557 506.931 42.0777C504.45 42.0659 501.945 42.0659 499.382 42.0659Z" fill="black"/>
<path d="M526.057 11.7018L514.225 14.9523L526.057 18.2028L529.307 30.4247L532.688 18.2028L544.65 14.9523L532.688 11.7018L529.307 0L526.057 11.7018Z" fill="#33FF00"/>
</svg>
