<svg width="506" height="45" viewBox="0 0 506 45" fill="none" xmlns="http://www.w3.org/2000/svg">
<path d="M0 20.8738C0.126 20.1178 0.252015 19.3609 0.403015 18.6049C0.895015 16.0589 1.891 13.7388 3.315 11.5838C3.529 11.2688 3.794 11.1429 4.134 11.1049C6.718 10.8399 9.30199 10.5128 11.886 10.3238C14.559 10.1338 17.244 10.0459 19.928 10.0079C21.706 9.98285 23.483 10.1218 25.386 10.1968C25.235 10.3988 25.147 10.5248 25.046 10.6388C20.218 15.5918 15.378 20.5338 10.55 25.4868C9.12599 26.9368 7.71401 28.3988 6.29001 29.8488C6.03801 30.1008 5.962 30.3528 5.987 30.6928C6.151 32.2688 6.91999 33.4908 8.19299 34.3988C9.27699 35.1678 10.525 35.5589 11.823 35.7229C15.428 36.1759 19.059 36.2138 22.689 36.0748C26.395 35.9368 30.101 35.6219 33.769 35.1299C33.807 35.1299 33.857 35.1428 33.983 35.1548C33.857 35.3188 33.769 35.4698 33.643 35.5838C30.403 38.9868 26.483 41.0539 21.807 41.6339C11.773 42.8438 2.52099 36.2768 0.428986 26.4068C0.289986 25.7388 0.227007 25.0459 0.126007 24.3649C0.101007 24.2019 0.038 24.0498 0 23.8858C0 22.8778 0 21.8818 0 20.8738Z" fill="#E91D46"/>
<path d="M20.9123 3.025C21.6553 3.151 22.3863 3.265 23.1303 3.403C31.0083 4.891 37.2103 11.193 38.5333 19.109C39.3153 23.798 38.5083 28.223 36.0883 32.332C35.8743 32.71 35.6223 32.899 35.1683 32.937C31.7643 33.252 28.3743 33.655 24.9703 33.92C22.7773 34.084 20.5713 34.109 18.3653 34.109C16.7393 34.109 15.1133 33.983 13.3493 33.907C13.8913 33.34 14.3323 32.874 14.7733 32.407C17.6223 29.483 20.4833 26.559 23.3443 23.634C26.4073 20.496 29.4583 17.357 32.5213 14.231C32.7483 13.992 32.8113 13.752 32.7853 13.437C32.5593 11.395 31.4113 10.034 29.6093 9.164C28.3993 8.584 27.0883 8.382 25.7773 8.269C22.6763 7.979 19.5753 7.903 16.4753 8.055C13.4243 8.206 10.3743 8.496 7.32327 8.735C6.76927 8.773 6.21428 8.849 5.66028 8.899C5.63428 8.849 5.60929 8.811 5.57129 8.76C5.84929 8.508 6.11327 8.269 6.39127 8.017C9.54227 5.218 13.1973 3.555 17.4073 3.126C17.5713 3.113 17.7223 3.038 17.8743 3C18.8953 3.025 19.9033 3.025 20.9123 3.025Z" fill="#E91D46"/>
<path d="M78.3296 28.6324C78.2132 28.7658 78.1123 28.9141 77.9805 29.0394C76.7928 30.1498 75.3804 30.6269 73.766 30.5326C71.9423 30.4234 70.4677 29.6728 69.397 28.1715C68.6594 27.1312 68.3103 25.9587 68.1859 24.692C68.0542 23.3625 68.1786 22.0722 68.6674 20.829C69.5054 18.7018 71.0502 17.4041 73.3086 17.0678C75.1944 16.7862 76.7928 17.3805 78.0347 18.8737C78.1049 18.9599 78.1744 19.0536 78.3142 19.218C78.3142 18.5219 78.3142 17.9121 78.3142 17.2787C79.5561 17.2787 80.7511 17.2787 81.9696 17.2787C81.9776 17.3724 81.993 17.4586 81.993 17.5449C81.993 21.3371 82.0164 25.1293 81.9776 28.9221C81.9616 30.5016 81.6593 32.0419 80.9143 33.4575C79.851 35.4824 78.151 36.6009 75.9241 36.9061C73.4483 37.2423 71.1819 36.679 69.1717 35.1623C68.7758 34.8571 68.4193 34.4973 68 34.13C68.8072 33.2851 69.5756 32.4879 70.3668 31.6666C70.5299 31.8074 70.6851 31.9402 70.8402 32.0655C71.6554 32.746 72.5476 33.2851 73.5801 33.5357C75.5823 34.0202 77.7163 33.0822 78.26 30.6188C78.3296 30.3062 78.3838 29.978 78.4152 29.6573C78.4386 29.3365 78.4226 29.0084 78.4226 28.6877C78.3918 28.6796 78.361 28.656 78.3296 28.6324ZM74.628 20.0703C73.8516 20.0858 72.9047 20.6727 72.3616 21.8296C71.733 23.1671 71.7798 24.535 72.486 25.8253C73.0832 26.9203 74.0382 27.4755 75.2954 27.4054C76.4671 27.3427 77.3131 26.7404 77.8407 25.7007C78.4152 24.5822 78.4694 23.4091 78.0735 22.2285C77.6234 20.8836 76.5059 20.0784 74.628 20.0703Z" fill="#050606"/>
<path d="M87.5051 18.8687C87.7004 18.6768 87.8278 18.557 87.9552 18.4373C89.0287 17.4473 90.2969 17.0957 91.6776 17.2395C94.0717 17.4872 95.6781 18.9327 96.4884 21.2478C97.3517 23.715 97.1487 26.1581 95.6781 28.3536C94.8451 29.5995 93.7639 30.5174 92.323 30.8531C90.5297 31.2762 88.9912 30.7891 87.745 29.3436C87.6926 29.2879 87.6551 29.2163 87.6099 29.1523C87.5879 29.1606 87.5575 29.1682 87.5349 29.184C87.5349 29.7034 87.5349 30.2139 87.5349 30.765C86.3346 30.765 85.1783 30.765 84 30.765C84 24.8564 84 18.9485 84 13C85.1485 13 86.297 13 87.5051 13C87.5051 14.9243 87.5051 16.8487 87.5051 18.8687ZM87.3997 23.9867C87.3997 24.7051 87.5128 25.3359 87.7754 25.9105C88.2857 27.0367 89.096 27.7309 90.2969 27.8031C91.4675 27.8747 92.3981 27.3477 92.9839 26.2703C93.7341 24.8729 93.7865 23.4116 93.0965 21.9826C92.2183 20.1697 89.9516 19.7225 88.5256 21.0641C87.7004 21.8306 87.4074 22.8529 87.3997 23.9867Z" fill="#050606"/>
<path d="M112 23.6115C108.864 24.6161 105.768 25.6047 102.632 26.6093C103.388 27.5245 104.32 27.8813 105.43 27.8003C106.685 27.7032 107.722 27.128 108.623 26.2121C109.347 26.9821 110.07 27.7437 110.81 28.5292C110.271 29.1211 109.66 29.5666 108.993 29.9394C106.613 31.2519 104.176 31.365 101.732 30.174C99.1823 28.9264 97.7348 26.1471 98.0404 23.312C98.1929 21.9018 98.5788 20.5893 99.5357 19.5204C100.903 17.981 102.608 17.0818 104.69 17.0085C105.905 16.9597 107.095 17.1139 108.205 17.6487C110.287 18.6373 111.445 20.3303 111.879 22.5747C111.936 22.8987 111.96 23.2387 112 23.6115ZM108.245 21.8291C107.465 20.4922 105.72 19.7711 103.934 20.4762C102.455 21.0598 101.434 22.6069 101.707 23.9354C103.887 23.231 106.058 22.5342 108.245 21.8291Z" fill="#050606"/>
<path d="M117.312 26.6445C118.022 27.5684 118.896 27.9252 119.927 27.8281C121.041 27.7304 121.968 27.2122 122.753 26.3609C122.782 26.3288 122.82 26.296 122.88 26.2394C123.553 27.009 124.218 27.7709 124.898 28.5411C124.838 28.6221 124.793 28.7031 124.733 28.7597C123.261 30.2186 121.542 31.0614 119.531 30.9965C116.759 30.9071 114.681 29.546 113.507 26.7743C112.498 24.3832 112.984 20.7288 115.062 18.816C117.618 16.4577 121.026 16.6198 123.126 18.0297C124.763 19.124 125.638 20.777 125.929 22.8029C125.959 23.0061 125.981 23.2002 125.997 23.4028C126.004 23.4677 125.997 23.5326 125.997 23.6381C123.126 24.643 120.249 25.6318 117.312 26.6445ZM116.4 23.9865C118.455 23.2735 120.481 22.5682 122.506 21.8713C122.043 20.8259 120.593 19.8936 118.963 20.3559C117.371 20.7931 116.303 22.2686 116.4 23.9865Z" fill="#050606"/>
<path d="M61 31C57.3333 31 53.6972 31 50.0078 31C50.0078 30.7813 50.0078 30.5788 50.0078 30.3756C50.0078 29.6887 50.015 29.0011 50 28.3141C50 28.088 50.0605 27.9313 50.2041 27.7598C52.0069 25.6518 53.8025 23.5359 55.5982 21.4279C55.6885 21.3183 55.7717 21.2093 55.9076 21.0451C54.0665 21.0451 52.2864 21.0451 50.4752 21.0451C50.4752 20.0063 50.4752 19.0152 50.4752 18C53.8708 18 57.2507 18 60.6756 18C60.6756 18.4918 60.6756 18.9527 60.6756 19.4129C60.6756 19.8818 60.7815 20.3891 60.6307 20.8029C60.4799 21.2093 60.0794 21.5289 59.7778 21.8727C58.1258 23.809 56.4732 25.7373 54.8135 27.6662C54.753 27.7443 54.6926 27.8223 54.5872 27.9474C56.7527 27.9474 58.8572 27.9474 60.985 27.9474C61 28.9782 61 29.9693 61 31Z" fill="#050606"/>
<path d="M63 31C63 26.6559 63 22.3435 63 18C64.3365 18 65.6555 18 67 18C67 22.328 67 26.6485 67 31C65.681 31 64.3613 31 63 31Z" fill="#050606"/>
<path d="M65.0108 12.0047C65.9123 11.9233 67.0073 12.9137 67 14.4977C67 15.8838 66.1127 17 65.0035 17C64.0662 17 63.0285 16.1452 63.0002 14.4891C62.986 13.1023 63.8942 12.0047 65.0108 12.0047Z" fill="#050606"/>
<path d="M357 31.5C357 38.9558 350.956 45 343.5 45C336.044 45 330 38.9558 330 31.5C330 24.0442 336.044 18 343.5 18C350.956 18 357 24.0442 357 31.5Z" fill="#1B365D"/>
<path d="M361.5 25H357L360.5 38H365L366.5 31L368 38H372.5L376 25H371.5L370 33L368 25H365L363 33L361.5 25Z" fill="#1B365D"/>
<path d="M379.5 38H374.5L379 25H385L389.5 38H384.5L384 36H380L379.5 38Z" fill="#1B365D"/>
<path d="M392 25H387L392 38H396.5L401.5 25H397L394.5 32.5L392 25Z" fill="#1B365D"/>
<path d="M411.5 25H403V38H411.5V34.5H407.5V33H411V30H407.5V28.5H411.5V25Z" fill="#1B365D"/>
<path fill-rule="evenodd" clip-rule="evenodd" d="M343 4C327.536 4 315 16.536 315 32H311C311 14.3269 325.327 0 343 0V4Z" fill="#1B365D"/>
<path fill-rule="evenodd" clip-rule="evenodd" d="M343 13C332.507 13 324 21.5066 324 32H320C320 19.2975 330.297 9 343 9V13Z" fill="#1B365D"/>
<path d="M339 25L337 28.5H342L336 38H347L349.5 34H344L349.5 25H339Z" fill="white"/>
<path d="M383.5 32.9999H380.5L381 28H383L383.5 32.9999Z" fill="white"/>
<g clip-path="url(#clip0)">
<path d="M254.2 9.54V10.0428H255.107V12.4116H255.683V10.0502H256.574V9.53262L254.2 9.53954V9.54ZM257.112 9.56194V12.4044H257.573V10.2107L258.293 12.1167L258.778 12.1135L259.525 10.2398V12.4407H259.994V9.55478H259.133L258.526 11.5832L257.904 9.56194H257.112ZM186.007 26.6447V18.5989C186.007 18.5989 185.915 15.1298 189.573 11.6608C193.23 8.19172 196.704 8.57081 196.704 8.57081H201.499C201.499 8.57081 207.524 0 219.45 0C231.376 0 238.2 8.45399 238.2 8.45399H243.61C243.61 8.45399 244.976 8.39535 246.692 9.21286C248.427 10.0394 249.988 10.9915 251.577 13.3304C253.171 15.6761 253.385 17.366 253.385 18.5986V27.4024C253.385 29.2378 253.2 30.6674 249.942 33.7573C246.684 36.8473 242.503 36.4975 242.503 36.4975H237.524C237.524 36.4975 231.305 44.9995 219.634 44.9995C207.963 44.9995 201.991 36.5559 201.991 36.5559H196.458C196.458 36.5559 192.8 36.76 189.265 33.4073C185.731 30.0553 186.068 26.6447 186.007 26.6447ZM191.878 15.0712L195.321 29.1519H199.101L200.792 21.0477L202.421 29.1519H206.294L209.737 15.1589H205.618L204.419 22.8261L202.729 15.1301H199.009L197.319 22.9136L196.059 15.101L191.878 15.0716V15.0712ZM211.682 19.0105V29.1392H215.316V19.0105H211.682ZM215.866 16.1493C215.866 17.1292 214.84 17.9245 213.576 17.9245C212.312 17.9245 211.286 17.1292 211.286 16.1491C211.286 15.1691 212.312 14.3742 213.576 14.3742C214.84 14.3742 215.866 15.1695 215.866 16.1493ZM216.747 34.5058C216.747 34.5058 221.283 31.2411 221.283 26.3822V18.1955C221.283 16.8796 221.995 15.0149 224.123 12.9959C226.252 10.9767 228.128 10.657 229.43 10.657H242.95C245.249 10.687 247.034 11.6007 248.676 13.0585C250.197 14.5739 251.186 16.473 251.186 18.5509V26.382C251.186 27.9237 250.75 30.1578 248.588 32.0415C246.425 33.9254 244.759 34.5058 243.039 34.5058H216.747ZM241.718 19.0209V29.1492H245.351V19.0209H241.718ZM245.901 16.1597C245.901 17.1395 244.876 17.9347 243.611 17.9347C242.347 17.9347 241.321 17.1395 241.321 16.1597C241.321 15.1799 242.347 14.3843 243.611 14.3843C244.876 14.3843 245.901 15.1799 245.901 16.1597ZM226.436 29.0764H230.509V24.8578H238.261V21.7041H230.487V18.4049H239.273V15.1261H226.414L226.436 29.0764Z" fill="black"/>
<path d="M195.344 28.9397C195.235 28.6315 192.039 15.4338 192.039 15.2918C192.039 15.1798 192.521 15.144 194.032 15.144C195.128 15.144 196.025 15.1837 196.025 15.2327C196.024 15.3823 197.151 22.3897 197.227 22.7048C197.293 22.9791 197.304 22.983 197.388 22.7639C197.438 22.6341 197.838 20.865 198.278 18.8331L199.077 15.1385L200.878 15.1708L202.679 15.2036L203.494 18.9453C203.943 21.0033 204.344 22.7196 204.386 22.7593C204.486 22.8539 204.506 22.7507 205.129 18.7181L205.664 15.2627H207.633C208.716 15.2627 209.603 15.2964 209.603 15.3377C209.603 15.4232 206.385 28.5597 206.286 28.8778C206.229 29.0625 206.027 29.0844 204.371 29.0844C202.715 29.0844 202.512 29.0627 202.454 28.8778C202.418 28.7642 202.049 26.9736 201.634 24.8988C201.218 22.8239 200.853 21.1019 200.821 21.0719C200.724 20.9795 200.665 21.2318 199.854 25.186L199.066 29.0253L197.231 29.0583C195.83 29.0826 195.385 29.0549 195.344 28.9397ZM211.72 24.0635V19.0425H215.208V29.084H211.72V24.0635ZM212.755 17.7369C212.536 17.6734 212.162 17.4477 211.925 17.2348C211.1 16.4972 211.231 15.4543 212.227 14.8289C212.659 14.5586 212.893 14.4978 213.514 14.4962C216.387 14.4886 216.576 17.6402 213.713 17.8175C213.405 17.8367 212.974 17.8004 212.755 17.7367V17.7369ZM217.975 33.4753C219.436 32.0255 220.354 30.6137 220.948 28.9069C221.226 28.1069 221.238 27.9038 221.31 22.7048C221.39 16.9277 221.38 17.0166 222.089 15.6757C222.503 14.8924 223.507 13.6787 224.407 12.873C225.404 11.9813 226.415 11.3742 227.54 10.9902L228.349 10.7139H236.072C244.571 10.7139 244.445 10.7046 246.162 11.4677C248.34 12.4357 250.353 14.7652 250.895 16.9453C251.168 18.0465 251.166 27.1897 250.891 28.203C250.323 30.3006 248.744 32.1737 246.446 33.476C244.702 34.4642 245.806 34.4004 230.564 34.4004H217.043L217.975 33.4753ZM245.352 24.0635V18.9243H241.615V29.2022H245.352V24.0635ZM230.529 27.0168V24.9495H238.377V21.6416H230.529V18.4519H239.373V15.0258H226.255L226.337 16.9942C226.382 18.0765 226.419 21.2397 226.419 24.0233V29.084H230.529V27.0168ZM244.514 17.8544C245.855 17.5012 246.406 15.9458 245.5 15.0769C244.445 14.0652 242.629 14.0933 241.704 15.1364C241.074 15.8463 241.106 16.6613 241.789 17.3089C242.432 17.9184 243.476 18.1278 244.514 17.8544H244.514Z" fill="white"/>
</g>
<path fill-rule="evenodd" clip-rule="evenodd" d="M487.752 0C479.203 0.170956 473.307 4.77009 472.535 12.9218C472.278 15.6331 472.077 18.408 472 21.1152V25.5704C472.133 29.6192 472.667 33.3229 473.872 36.177C476.159 41.6007 480.141 44.8457 487.268 45H488.397C496.238 44.8218 501.319 42.5931 503.902 33.5949C506.486 24.5947 504.614 11.673 502.209 7.13012C499.803 2.58415 496.061 0.143853 488.754 0.00104184H487.752V0Z" fill="#2761AB"/>
<path fill-rule="evenodd" clip-rule="evenodd" d="M498.689 30.34L490.803 22.4541L498.644 14.6131L487.059 3.20703V18.7119L480.51 12.1614L478.148 14.5224L486.167 22.5438L478.104 30.6069L480.466 32.9679L487.059 26.3747V41.9681L498.689 30.34ZM490.09 10.603L494.099 14.7028L490.09 18.7119V10.603ZM490.09 26.1078L494.099 30.2066L490.09 34.2178V26.1078Z" fill="white"/>
<defs>
<clipPath id="clip0">
<rect x="186" width="74" height="45" fill="white"/>
</clipPath>
</defs>
</svg>
