<svg width="372" height="66" viewBox="0 0 372 66" fill="none" xmlns="http://www.w3.org/2000/svg">
<path d="M4.08064 41.4116C2.68566 41.4116 1.74698 42.5096 1.74698 43.9213C1.74698 45.333 2.68566 46.431 4.08064 46.431C5.47561 46.431 6.41429 45.333 6.41429 43.9213C6.40125 42.5096 5.46258 41.4116 4.08064 41.4116ZM3.76774 39.8561C4.88894 39.8561 5.82762 40.4312 6.27088 41.0586V40.0129H7.99179V47.8427H6.662C6.55836 47.8424 6.45906 47.801 6.38578 47.7275C6.3125 47.654 6.27119 47.5545 6.27088 47.4506V46.797C5.82762 47.4244 4.90198 47.9996 3.76774 47.9996C1.62965 47.9996 0 46.1696 0 43.9344C0 41.6991 1.61661 39.8561 3.76774 39.8561ZM9.94737 40.0129H11.6683V41.0717C12.1376 40.2874 13.0241 39.8561 14.041 39.8561C15.8532 39.8561 17.0266 41.1371 17.0266 43.1239V47.8427H15.7098C15.6062 47.8424 15.5069 47.801 15.4336 47.7275C15.3603 47.654 15.319 47.5545 15.3187 47.4506V43.4115C15.3187 42.1697 14.6929 41.4246 13.689 41.4246C12.5548 41.4246 11.6683 42.3135 11.6683 43.9866V47.8427H10.3515C10.2479 47.8424 10.1486 47.801 10.0753 47.7275C10.002 47.654 9.96071 47.5545 9.96041 47.4506L9.94737 40.0129ZM22.45 41.4116C21.055 41.4116 20.1164 42.5096 20.1164 43.9213C20.1164 45.333 21.055 46.431 22.45 46.431C23.845 46.431 24.7837 45.333 24.7837 43.9213C24.7837 42.5096 23.845 41.4116 22.45 41.4116ZM22.1371 39.8561C23.2583 39.8561 24.197 40.4312 24.6403 41.0586V36.0915H26.3612V47.8427H25.0444C24.9408 47.8424 24.8415 47.801 24.7682 47.7275C24.6949 47.654 24.6536 47.5545 24.6533 47.4506V46.797C24.21 47.4244 23.2844 47.9996 22.1502 47.9996C20.0121 47.9996 18.3824 46.1696 18.3824 43.9344C18.3824 41.6991 19.999 39.8561 22.1371 39.8561ZM28.3168 40.0129H30.0377V41.4116C30.1888 40.9835 30.4674 40.6123 30.8358 40.3481C31.2042 40.0839 31.6446 39.9396 32.0975 39.9345C32.3209 39.9303 32.5441 39.9523 32.7624 39.9999V41.7645C32.485 41.6713 32.1946 41.6228 31.902 41.6207C30.9242 41.6207 30.0246 42.4573 30.0246 44.0128V47.8296H28.7079C28.6042 47.8293 28.5049 47.7879 28.4317 47.7144C28.3584 47.641 28.3171 47.5414 28.3168 47.4375V40.0129ZM37.3906 46.3918C38.7595 46.3918 39.7373 45.3069 39.7373 43.9213C39.7373 42.5226 38.7726 41.4508 37.3906 41.4508C35.9957 41.4508 35.0309 42.5357 35.0309 43.9213C35.0439 45.3199 35.9957 46.3918 37.3906 46.3918ZM37.3906 47.9996C36.5885 47.9931 35.8063 47.7487 35.1426 47.2971C34.4789 46.8455 33.9634 46.2069 33.6612 45.462C33.359 44.717 33.2835 43.899 33.4444 43.1111C33.6053 42.3232 33.9953 41.6007 34.5652 41.0348C35.1351 40.4688 35.8594 40.0848 36.6467 39.931C37.4341 39.7773 38.2492 39.8608 38.9893 40.1709C39.7293 40.4811 40.3613 41.004 40.8053 41.6738C41.2493 42.3435 41.4856 43.1301 41.4843 43.9344C41.487 44.4723 41.3827 45.0053 41.1774 45.5023C40.9721 45.9993 40.6701 46.4503 40.2889 46.8288C39.9077 47.2074 39.455 47.5059 38.9574 47.7069C38.4597 47.9079 37.9271 48.0074 37.3906 47.9996ZM42.8793 40.0129H44.6002V47.8427H43.2834C43.1798 47.8424 43.0805 47.801 43.0072 47.7275C42.9339 47.654 42.8926 47.5545 42.8923 47.4506L42.8793 40.0129ZM43.7397 38.3006C43.4329 38.2977 43.1394 38.1742 42.9225 37.9566C42.7055 37.7391 42.5823 37.4449 42.5794 37.1372C42.5856 36.833 42.7106 36.5434 42.9276 36.3307C43.1446 36.118 43.4363 35.9993 43.7397 36C44.044 36 44.3358 36.1212 44.551 36.3369C44.7661 36.5526 44.887 36.8452 44.887 37.1503C44.887 37.4554 44.7661 37.7479 44.551 37.9637C44.3358 38.1794 44.044 38.3006 43.7397 38.3006ZM50.0888 41.4116C48.6939 41.4116 47.7552 42.5096 47.7552 43.9213C47.7552 45.333 48.6939 46.431 50.0888 46.431C51.4838 46.431 52.4225 45.333 52.4225 43.9213C52.3964 42.5096 51.4838 41.4116 50.0888 41.4116ZM49.776 39.8561C50.8972 39.8561 51.8358 40.4312 52.2791 41.0586V36.0915H54V47.8427H52.6832C52.5796 47.8424 52.4803 47.801 52.407 47.7275C52.3337 47.654 52.2924 47.5545 52.2921 47.4506V46.797C51.8489 47.4244 50.9232 47.9996 49.789 47.9996C47.6509 47.9996 46.0212 46.1696 46.0212 43.9344C46.0212 41.6991 47.6379 39.8561 49.776 39.8561Z" fill="black"/>
<path d="M40.2522 9.35742L44.7522 1.42092C44.8728 1.20254 44.9043 0.944513 44.8396 0.702696C44.775 0.460878 44.6196 0.254731 44.4069 0.128883C44.1943 0.00303448 43.9415 -0.0323871 43.7034 0.0302871C43.4653 0.0929612 43.2611 0.248687 43.1348 0.463751L38.5826 8.49331C34.9489 6.82833 31.0101 5.96746 27.0261 5.96746C23.0421 5.96746 19.1033 6.82833 15.4696 8.49331L10.9174 0.463751C10.7911 0.248687 10.5868 0.0929612 10.3487 0.0302871C10.1107 -0.0323871 9.85792 0.00303448 9.64527 0.128883C9.43261 0.254731 9.27715 0.460878 9.21253 0.702696C9.14791 0.944513 9.17933 1.20254 9.3 1.42092L13.8 9.35742C6.03913 13.6381 0.769565 21.6012 0 31H54C53.2304 21.6012 47.9478 13.6381 40.2522 9.35742ZM14.5826 23.1566C14.1389 23.1566 13.7051 23.0225 13.3362 22.7712C12.9673 22.52 12.6797 22.1628 12.5099 21.745C12.3401 21.3272 12.2957 20.8675 12.3822 20.4239C12.4688 19.9804 12.6825 19.5729 12.9962 19.2532C13.31 18.9334 13.7097 18.7156 14.1449 18.6274C14.5801 18.5391 15.0312 18.5844 15.4411 18.7575C15.8511 18.9306 16.2015 19.2236 16.448 19.5996C16.6945 19.9757 16.8261 20.4178 16.8261 20.87C16.8261 21.4764 16.5897 22.058 16.169 22.4868C15.7483 22.9157 15.1776 23.1566 14.5826 23.1566ZM39.4435 23.1566C38.9998 23.1566 38.566 23.0225 38.1971 22.7712C37.8281 22.52 37.5406 22.1628 37.3708 21.745C37.201 21.3272 37.1565 20.8675 37.2431 20.4239C37.3297 19.9804 37.5433 19.5729 37.8571 19.2532C38.1709 18.9334 38.5706 18.7156 39.0058 18.6274C39.441 18.5391 39.8921 18.5844 40.302 18.7575C40.712 18.9306 41.0623 19.2236 41.3089 19.5996C41.5554 19.9757 41.687 20.4178 41.687 20.87C41.687 21.4764 41.4506 22.058 41.0299 22.4868C40.6091 22.9157 40.0385 23.1566 39.4435 23.1566Z" fill="#3DDC84"/>
<path d="M18.8023 63H20.1623L17.0023 56H15.7223L12.5723 63H13.9123L14.6023 61.38H18.1023L18.8023 63ZM15.0423 60.36L16.3523 57.3L17.6723 60.36H15.0423ZM24.0248 63.1C26.1948 63.1 27.7948 61.58 27.7948 59.5C27.7948 57.42 26.1948 55.9 24.0248 55.9C21.8548 55.9 20.2548 57.43 20.2548 59.5C20.2548 61.57 21.8548 63.1 24.0248 63.1ZM24.0248 61.96C22.6148 61.96 21.5648 60.93 21.5648 59.5C21.5648 58.07 22.6148 57.04 24.0248 57.04C25.4348 57.04 26.4848 58.07 26.4848 59.5C26.4848 60.93 25.4348 61.96 24.0248 61.96ZM31.1428 63.1C33.0628 63.1 33.9728 62.14 33.9728 61.02C33.9728 58.45 29.8228 59.42 29.8228 57.93C29.8228 57.4 30.2628 56.98 31.3428 56.98C31.9528 56.98 32.6428 57.16 33.2728 57.53L33.6828 56.52C33.0728 56.12 32.1928 55.9 31.3528 55.9C29.4328 55.9 28.5328 56.86 28.5328 57.99C28.5328 60.59 32.6928 59.6 32.6928 61.11C32.6928 61.63 32.2328 62.02 31.1428 62.02C30.2828 62.02 29.3928 61.7 28.8328 61.25L28.3828 62.26C28.9628 62.76 30.0528 63.1 31.1428 63.1ZM37.9419 56H35.0619V63H36.3619V60.98H37.9419C39.7819 60.98 40.9219 60.03 40.9219 58.49C40.9219 56.94 39.7819 56 37.9419 56ZM37.8819 59.88H36.3619V57.1H37.8819C39.0219 57.1 39.6119 57.61 39.6119 58.49C39.6119 59.37 39.0219 59.88 37.8819 59.88Z" fill="#3DDC84"/>
<path fill-rule="evenodd" clip-rule="evenodd" d="M132.971 44.9955H109.043V44.1483C113.235 43.725 113.616 43.3545 113.616 39.7016V15.0332C113.616 11.3802 113.193 10.9569 109 10.5864V9.73926H122.764V10.5864C118.191 10.9569 117.724 11.3802 117.724 15.0332V39.9669C117.724 43.408 118.275 43.9898 121.706 43.9898C128.057 43.9898 131.658 39.543 132.251 30.8615H132.971V44.9955Z" fill="black"/>
<path fill-rule="evenodd" clip-rule="evenodd" d="M144.295 14.664C142.898 14.664 141.754 13.235 141.754 11.4878C141.754 9.74112 142.898 8.31152 144.295 8.31152C145.692 8.31152 146.836 9.74054 146.836 11.4878C146.836 13.235 145.692 14.664 144.295 14.664ZM147.726 35.6806C146.116 41.7154 143.406 45.3684 140.61 45.3684C138.239 45.3684 136.672 43.1978 136.672 39.8102C136.672 38.4335 136.926 36.951 137.519 34.7271L139.637 26.5223C139.678 26.3638 139.848 25.8342 140.102 24.8285C140.357 23.9285 140.484 23.2932 140.484 22.8694C140.484 21.8108 139.976 21.1227 139.213 21.1227C137.265 21.1227 135.487 23.8222 133.369 30.0156L132.649 29.6457C133.835 25.728 135.19 22.975 136.715 21.2812C137.562 20.3806 138.493 19.9579 139.552 19.9579C141.966 19.9579 143.661 22.2341 143.661 25.4103C143.661 26.8399 143.152 29.5923 142.432 32.1861L141.374 35.9448L140.569 39.0681L140.146 40.5506C139.976 41.2393 139.849 41.9796 139.849 42.4557C139.849 43.5149 140.358 44.2035 141.077 44.2035C143.068 44.2035 145.27 40.9739 147.006 35.4152L147.726 35.6806Z" fill="#CC2229"/>
<path fill-rule="evenodd" clip-rule="evenodd" d="M161.171 19.5869C163.034 19.5869 164.897 20.4864 165.914 21.916C166.973 23.4512 167.142 24.4041 167.142 29.0094V40.0739C167.142 43.1973 167.777 43.7803 171.207 44.1502V44.9974H159.138V44.1502C162.61 43.7803 163.203 43.1973 163.203 40.1262V29.2747C163.203 22.3927 162.822 21.387 160.196 21.387C157.782 21.387 155.495 23.3984 154.437 26.4684C153.421 29.3798 153.166 31.4453 153.166 36.5795V40.1256C153.166 43.1968 153.759 43.7797 157.232 44.1496V44.9968H145.162V44.1496C148.635 43.7797 149.228 43.1968 149.228 40.1256V25.1985C149.228 22.4455 149.1 22.0216 148.084 21.5989C147.491 21.3341 146.899 21.2813 145.035 21.1228V20.2227C147.491 20.1699 151.049 19.9051 153.166 19.5875V27.3684C154.521 22.4455 157.486 19.5869 161.171 19.5869ZM181.569 20.2222C184.365 20.1693 187.709 19.9045 189.743 19.5869V40.0734C189.743 43.1968 190.336 43.7797 193.809 44.1496V44.9968H193.216L189.531 45.2088C188.526 45.24 187.523 45.3103 186.524 45.4195C186.354 45.4195 186.1 45.473 185.762 45.5264V37.9563C184.872 40.4967 184.449 41.2916 183.433 42.6672C181.993 44.6258 179.918 45.6849 177.8 45.6849C175.936 45.6849 174.243 44.7843 173.353 43.2502C172.337 41.6092 172.041 39.8092 172.041 36.2084V25.1985C172.041 22.4455 171.872 22.0216 170.854 21.5989C170.219 21.387 169.372 21.2279 167.679 21.1228V20.2227C170.219 20.1699 174.116 19.9051 175.979 19.5875V37.4273C175.979 42.0331 176.911 44.1502 178.986 44.1502C181.357 44.1502 183.857 41.3444 184.957 37.3738C185.55 35.363 185.762 33.351 185.762 30.281V25.199C185.762 22.4461 185.634 22.0222 184.618 21.5995C184.068 21.3876 183.221 21.2285 181.569 21.1234V20.2222Z" fill="black"/>
<path fill-rule="evenodd" clip-rule="evenodd" d="M212.977 40.5512C214.672 43.5155 215.221 43.94 217.636 44.1507V44.9979H206.074V44.1507C208.53 43.8865 209.209 43.5689 209.209 42.616C209.209 42.3507 208.997 41.8211 208.742 41.345L208.022 40.0216L204.296 33.6163L201.5 38.4341C200.442 40.3404 199.934 41.5041 199.934 42.2456C199.934 43.4638 200.653 43.8865 203.195 44.1507V44.9979H193.497V44.1507C196.037 43.7809 197.054 43.0928 198.917 40.4455C199.934 38.9631 200.061 38.7511 201.798 35.7868L203.661 32.5049L199.214 24.7234C197.647 21.9705 197.012 21.4937 194.428 21.1767V20.3301H205.736V21.1767C203.662 21.3886 202.898 21.7591 202.898 22.5529C202.898 22.7648 203.026 23.1353 203.237 23.5586L203.874 24.7234L207.049 30.2287L209.548 25.9939C210.268 24.7234 210.649 23.7177 210.649 22.9768C210.649 21.9176 209.887 21.4943 207.557 21.1767V20.3301H216.663V21.1767C213.995 21.6 212.852 22.5 211.199 25.3058L210.056 27.211L207.684 31.2878L212.977 40.5512Z" fill="black"/>
<path d="M297.276 45.625L291.279 37.001C294.818 35.613 296.829 32.688 296.829 28.713C296.829 22.9008 292.582 19.376 285.729 19.376H275V45.625H279.843V37.975H285.729C286.064 37.975 286.399 37.975 286.735 37.938L292.061 45.625H297.276ZM291.949 28.713C291.949 32.013 289.752 33.963 285.505 33.963H279.843V23.5009H285.505C289.752 23.5009 291.949 25.413 291.949 28.713Z" fill="#8BB907"/>
<path d="M306.429 45.625H311.271V23.5009H319.914V19.376H297.787V23.5009H306.429V45.625Z" fill="#8BB907"/>
<path d="M334.621 46C342.705 46 348.665 40.3 348.665 32.5C348.665 24.6996 342.705 19 334.621 19C326.537 19 320.577 24.7371 320.577 32.5C320.577 40.262 326.537 46 334.621 46ZM334.621 41.725C329.369 41.725 325.457 37.863 325.457 32.5C325.457 27.137 329.369 23.2747 334.621 23.2747C339.873 23.2747 343.785 27.137 343.785 32.5C343.785 37.863 339.873 41.725 334.621 41.725Z" fill="#8BB907"/>
<path d="M361.136 46C368.289 46 371.679 42.4 371.679 38.2C371.679 28.562 356.219 32.2 356.219 26.612C356.219 24.6247 357.858 23.05 361.881 23.05C364.153 23.05 366.725 23.725 369.071 25.112L370.599 21.3246C368.326 19.8248 365.048 19 361.919 19C354.766 19 351.414 22.5997 351.414 26.838C351.414 36.587 366.91 32.875 366.91 38.538C366.91 40.488 365.197 41.95 361.136 41.95C357.933 41.95 354.617 40.75 352.531 39.063L350.855 42.85C353.015 44.725 357.076 46 361.136 46Z" fill="#8BB907"/>
</svg>
