<svg width="282" height="308" viewBox="0 0 282 308" fill="none" xmlns="http://www.w3.org/2000/svg">
<g opacity="0.9" filter="url(#filter0_f)">
<ellipse cx="141" cy="253.5" rx="90" ry="2.5" fill="url(#paint0_radial)"/>
</g>
<path d="M141 55.75C166.417 55.75 190.417 65.6667 208.333 83.6667C226.333 101.667 236.25 125.583 236.25 151C236.25 176.417 226.333 200.417 208.333 218.333C190.333 236.333 166.417 246.25 141 246.25C115.583 246.25 91.5833 236.333 73.6666 218.333C55.6666 200.333 45.75 176.417 45.75 151C45.75 125.583 55.6666 101.583 73.6666 83.6667C91.5833 65.6667 115.583 55.75 141 55.75ZM141 51C85.75 51 41 95.75 41 151C41 206.25 85.75 251 141 251C196.25 251 241 206.25 241 151C241 95.75 196.25 51 141 51Z" fill="white"/>
<path d="M185 118C185 117.916 185 117.832 185 117.748H184.832C174.756 104.481 158.885 96 141 96C122.611 96 106.321 105.069 96.3283 118.924L99.9389 121.527C107.832 110.611 119.924 102.886 133.947 100.954C134.618 105.321 135.542 109.687 136.885 113.885C132.351 116.405 128.153 119.344 124.29 122.702C122.359 121.191 119.924 120.183 117.237 120.183C111.023 120.183 105.901 125.221 105.901 131.519C105.901 134.878 107.328 137.901 109.679 139.916C103.13 150.832 99.2672 163.679 99.2672 177.366C99.2672 178.122 99.2672 178.962 99.3512 179.718C93.7252 171.573 90.3664 161.664 90.3664 151H86C86 181.397 110.603 206 141 206C171.397 206 196 181.397 196 151C196 138.656 191.886 127.237 185 118ZM190.206 163.008C186.343 161.664 182.565 159.985 178.87 158.053C183.405 148.229 185.672 137.565 185.588 126.985C189.45 134.122 191.634 142.351 191.634 151C191.634 155.115 191.13 159.145 190.206 163.008ZM180.802 119.679C180.802 119.931 180.885 120.183 180.885 120.435C182.145 132.443 180.214 144.702 175.092 155.87C170.389 153.015 166.107 149.74 162.16 146.13C163.168 144.45 163.756 142.435 163.756 140.336C163.756 134.122 158.718 129 152.42 129C151.16 129 149.901 129.252 148.725 129.588C146.122 125.221 143.939 120.687 142.26 115.985C150.573 111.954 159.893 109.603 169.718 109.267C173.916 112.206 177.611 115.649 180.802 119.679ZM152.42 133.45C156.198 133.45 159.305 136.557 159.305 140.336C159.305 144.114 156.198 147.221 152.42 147.221C148.641 147.221 145.534 144.114 145.534 140.336C145.534 136.557 148.641 133.45 152.42 133.45ZM138.313 100.534C139.237 100.45 140.16 100.45 141.084 100.45C148.893 100.45 156.282 102.214 162.916 105.321C155.107 106.328 147.718 108.511 140.916 111.786C139.74 108.092 138.901 104.313 138.313 100.534ZM117.237 124.718C121.015 124.718 124.122 127.824 124.122 131.603C124.122 135.382 121.015 138.489 117.237 138.489C113.374 138.489 110.351 135.382 110.351 131.603C110.351 127.824 113.458 124.718 117.237 124.718ZM104.221 185.763C103.969 182.992 103.718 180.221 103.718 177.45C103.718 164.519 107.328 152.511 113.458 142.183C114.634 142.603 115.893 142.855 117.237 142.855C123.45 142.855 128.572 137.817 128.572 131.519C128.572 129.504 128.069 127.656 127.145 126.061C130.588 123.038 134.366 120.351 138.313 118.084C140.076 122.87 142.343 127.489 144.947 131.855C142.595 133.954 141.084 136.977 141.084 140.336C141.084 146.55 146.206 151.672 152.42 151.672C154.939 151.672 157.29 150.832 159.137 149.405C163.336 153.267 167.954 156.794 172.992 159.817C171.313 162.84 169.382 165.779 167.282 168.634C165.351 166.954 162.748 165.947 159.977 165.947C153.763 165.947 148.641 170.985 148.641 177.282C148.641 179.802 149.481 182.153 150.908 184.084C140.916 190.802 129.328 194.58 117.74 195.336V195.924C112.702 193.321 108.084 189.878 104.221 185.763ZM153.092 177.45C153.092 173.672 156.198 170.565 159.977 170.565C163.756 170.565 166.863 173.672 166.863 177.45C166.863 181.229 163.756 184.336 159.977 184.336C156.198 184.336 153.092 181.229 153.092 177.45ZM141 201.634C135.374 201.634 130 200.71 124.962 199.031C135.29 197.267 145.282 193.405 154.267 187.191C155.947 188.198 157.878 188.702 159.977 188.702C166.191 188.702 171.313 183.664 171.313 177.366C171.313 175.519 170.893 173.84 170.137 172.244C172.74 168.969 174.924 165.527 176.855 162C180.801 164.099 184.832 165.863 188.947 167.29C182.145 187.275 163.252 201.634 141 201.634Z" fill="white"/>
<defs>
<filter id="filter0_f" x="43" y="243" width="196" height="21" filterUnits="userSpaceOnUse" color-interpolation-filters="sRGB">
<feFlood flood-opacity="0" result="BackgroundImageFix"/>
<feBlend mode="normal" in="SourceGraphic" in2="BackgroundImageFix" result="shape"/>
<feGaussianBlur stdDeviation="4" result="effect1_foregroundBlur"/>
</filter>
<radialGradient id="paint0_radial" cx="0" cy="0" r="1" gradientUnits="userSpaceOnUse" gradientTransform="translate(141 253.5) rotate(90) scale(10 360)">
<stop/>
<stop offset="0.234375" stop-opacity="0"/>
</radialGradient>
</defs>
</svg>
