<svg width="280" height="308" viewBox="0 0 280 308" fill="none" xmlns="http://www.w3.org/2000/svg">
<g opacity="0.9" filter="url(#filter0_f)">
<ellipse cx="140" cy="253.5" rx="100" ry="2.5" fill="url(#paint0_radial)"/>
</g>
<path d="M140 55.75C165.417 55.75 189.417 65.6667 207.333 83.6667C225.333 101.667 235.25 125.583 235.25 151C235.25 176.417 225.333 200.417 207.333 218.333C189.333 236.25 165.417 246.25 140 246.25C114.583 246.25 90.5833 236.333 72.6667 218.333C54.75 200.333 44.75 176.417 44.75 151C44.75 125.583 54.6667 101.583 72.6667 83.6667C90.5833 65.6667 114.583 55.75 140 55.75ZM140 51C84.75 51 40 95.75 40 151C40 206.25 84.75 251 140 251C195.25 251 240 206.25 240 151C240 95.75 195.25 51 140 51Z" fill="white"/>
<path d="M83.9771 159.51C83.758 159.443 83.5192 159.469 83.3207 159.584C75.8112 163.913 71.2835 169.022 70.2351 174.354C69.1722 179.76 71.7272 185.183 77.6147 190.017C83.5021 194.851 92.4902 198.906 103.575 201.728C114.659 204.551 127.403 206.03 140.383 206C153.363 205.97 166.068 204.433 177.078 201.56C188.088 198.687 196.969 194.591 202.729 189.73C208.49 184.87 210.902 179.435 209.698 174.035C208.509 168.706 203.846 163.617 196.219 159.321C196.022 159.21 195.786 159.186 195.57 159.254V159.254C194.879 159.471 194.782 160.419 195.401 160.794C201.925 164.75 205.924 169.344 206.994 174.14C208.151 179.331 205.832 184.555 200.295 189.227C194.758 193.899 186.222 197.836 175.639 200.597C165.057 203.359 152.845 204.836 140.368 204.865C127.892 204.894 115.642 203.472 104.988 200.759C94.3336 198.046 85.6943 194.148 80.0352 189.502C74.3762 184.855 71.9203 179.643 72.942 174.447C73.8848 169.652 77.755 165.045 84.1608 161.063C84.7807 160.678 84.6746 159.725 83.9771 159.51V159.51Z" fill="white"/>
<path d="M85.8061 173.085C84.9878 173.1 84.354 173.822 84.5775 174.609C86.0502 179.799 92.0161 184.638 101.499 188.265C111.887 192.239 125.697 194.453 140.053 194.448C154.41 194.443 168.209 192.218 178.579 188.236C188.047 184.601 193.991 179.756 195.437 174.563C195.656 173.777 195.022 173.059 194.206 173.044V173.044C193.489 173.032 192.892 173.57 192.713 174.264C191.425 179.263 185.752 183.934 176.65 187.428C166.799 191.211 153.69 193.325 140.051 193.33C126.412 193.335 113.293 191.231 103.424 187.456C94.3022 183.967 88.606 179.298 87.2976 174.297C87.1169 173.607 86.5201 173.072 85.8061 173.085V173.085Z" fill="white"/>
<path d="M103.163 176.175C102.529 176.322 102.353 177.128 102.889 177.497C106.623 180.074 111.759 182.235 117.875 183.792C124.734 185.538 132.57 186.459 140.554 186.459C148.539 186.458 156.374 185.536 163.232 183.789C169.346 182.231 174.481 180.07 178.214 177.493C178.749 177.123 178.573 176.317 177.939 176.17V176.17C177.709 176.117 177.468 176.172 177.281 176.315C173.679 179.065 168.446 181.365 162.104 182.98C155.587 184.64 148.141 185.517 140.554 185.518C132.967 185.518 125.52 184.642 119.002 182.983C112.659 181.368 107.425 179.07 103.821 176.32C103.633 176.177 103.393 176.122 103.163 176.175V176.175Z" fill="white"/>
<path d="M114.431 162.598L116.63 159.312C117.866 157.464 119.947 156.354 122.176 156.354H157.417C159.646 156.354 161.727 157.464 162.964 159.312L165.162 162.598C166.288 162.442 167.408 162.241 168.52 161.995L182.016 159.007V148.623C181.588 148.752 181.146 148.869 180.691 148.974C178.156 149.561 175.938 149.712 173.128 149.712C171.679 149.712 169.471 149.562 167.683 149.275C165.198 148.877 163.463 148.346 162.613 147.225C158.705 148.75 154.457 149.25 150.281 148.661C144.787 147.887 141.245 147.498 139.795 147.498C138.345 147.498 134.801 147.887 129.306 148.661C125.009 149.267 120.638 148.721 116.637 147.092C116.589 147.126 116.539 147.158 116.487 147.188C115.136 147.986 113.563 148.567 111.806 148.974C109.271 149.561 107.053 149.712 104.243 149.712C102.794 149.712 100.586 149.562 98.7983 149.275C98.3685 149.206 93.4084 149.054 93.1326 149.054V158.95L111.073 161.995C112.185 162.241 113.305 162.442 114.431 162.598ZM119.51 162.991C119.75 162.995 119.991 162.997 120.232 162.997H159.361C159.602 162.997 159.843 162.995 160.084 162.991L159.266 161.769C158.854 161.153 158.16 160.783 157.417 160.783H122.176C121.433 160.783 120.739 161.153 120.327 161.769L119.51 162.991ZM97.5768 144.455C98.0355 144.619 98.6987 144.774 99.5045 144.903C101.039 145.149 103.016 145.284 104.243 145.284C106.737 145.284 108.681 145.151 110.8 144.66C110.885 144.641 110.97 144.621 111.053 144.6C106.059 142.54 101.566 141.334 97.5813 140.971C97.5783 141.038 97.5768 141.105 97.5768 141.172V144.455ZM93.1326 145.287C93.1326 145.284 93.1326 145.281 93.1326 145.278V141.172C93.1326 139.657 93.5223 138.168 94.2646 136.847L98.5411 129.232L90.5185 127.959C90.3348 127.93 90.1568 127.873 89.9904 127.79C89.0909 127.342 88.7263 126.252 89.176 125.356L89.83 124.053C90.1201 123.474 90.6493 123.052 91.2786 122.895L97.1552 121.431C98.2915 121.148 99.4533 121.792 99.8104 122.904L100.536 125.161L106.693 108.287C108.29 103.912 112.463 101 117.135 101H162.458C167.13 101 171.303 103.912 172.9 108.287L178.902 124.734L179.352 123.022C179.659 121.858 180.842 121.15 182.017 121.429L188.245 122.908C188.869 123.057 189.399 123.467 189.697 124.034L190.393 125.356C190.855 126.234 190.516 127.319 189.635 127.779C189.461 127.87 189.274 127.932 189.081 127.962L181.053 129.233L185.329 136.847C186.071 138.168 186.461 139.657 186.461 141.172V145.203C186.463 145.255 186.463 145.308 186.461 145.36V158.569V167.425C186.461 171.094 183.476 174.068 179.794 174.068H168.684C165.002 174.068 162.018 171.094 162.018 167.425C162.018 167.4 162.018 167.375 162.019 167.35C161.134 167.4 160.248 167.425 159.361 167.425H120.232C119.345 167.425 118.459 167.4 117.574 167.35C117.575 167.375 117.576 167.4 117.576 167.425C117.576 171.094 114.591 174.068 110.909 174.068H99.7989C96.1172 174.068 93.1326 171.094 93.1326 167.425V158.569V149.054V145.287ZM182.016 143.923V141.172C182.016 141.108 182.015 141.045 182.012 140.982C177.839 141.374 173.16 142.654 167.981 144.833C168.113 144.857 168.249 144.881 168.389 144.903C169.924 145.149 171.901 145.284 173.128 145.284C175.622 145.284 177.566 145.151 179.685 144.66C180.543 144.462 181.324 144.216 182.016 143.923ZM99.4274 136.722C104.731 137.42 110.65 139.352 117.199 142.497C120.766 144.21 124.763 144.829 128.684 144.277C134.401 143.471 138.057 143.069 139.795 143.069C141.533 143.069 145.188 143.471 150.903 144.276C154.822 144.829 158.817 144.21 162.383 142.499C168.896 139.373 174.822 137.446 180.173 136.734L176.396 130.01L166.419 131.667C165.091 131.888 163.747 131.998 162.401 131.998H117.193C115.846 131.998 114.502 131.888 113.174 131.667L103.197 130.01L99.4274 136.722ZM166.397 166.894C166.439 167.064 166.462 167.242 166.462 167.425C166.462 168.648 167.457 169.639 168.684 169.639H179.794C181.022 169.639 182.016 168.648 182.016 167.425V163.543L169.484 166.318C168.461 166.545 167.432 166.736 166.397 166.894ZM113.196 166.894C112.161 166.736 111.132 166.545 110.109 166.318L97.5768 163.543V167.425C97.5768 168.648 98.5716 169.639 99.7989 169.639H110.909C112.137 169.639 113.131 168.648 113.131 167.425C113.131 167.242 113.154 167.064 113.196 166.894ZM168.723 109.801C167.765 107.176 165.261 105.428 162.458 105.428H117.135C114.332 105.428 111.828 107.176 110.87 109.801L105.023 125.824L113.905 127.299C114.991 127.479 116.091 127.57 117.193 127.57H162.401C163.502 127.57 164.602 127.479 165.688 127.299L174.571 125.824L168.723 109.801Z" fill="white"/>
<defs>
<filter id="filter0_f" x="32" y="243" width="216" height="21" filterUnits="userSpaceOnUse" color-interpolation-filters="sRGB">
<feFlood flood-opacity="0" result="BackgroundImageFix"/>
<feBlend mode="normal" in="SourceGraphic" in2="BackgroundImageFix" result="shape"/>
<feGaussianBlur stdDeviation="4" result="effect1_foregroundBlur"/>
</filter>
<radialGradient id="paint0_radial" cx="0" cy="0" r="1" gradientUnits="userSpaceOnUse" gradientTransform="translate(140 253.5) rotate(90) scale(10 400)">
<stop/>
<stop offset="0.234375" stop-opacity="0"/>
</radialGradient>
</defs>
</svg>
